<svg id="Accurate_measure_of_campaign_ROI_" data-name="Accurate measure of campaign ROI " xmlns="http://www.w3.org/2000/svg" width="31.583" height="42" viewBox="0 0 31.583 42">
  <path id="Path_9174" data-name="Path 9174" d="M163.618,370.6H162.3a.658.658,0,1,1,0-1.316h2.632v-1.316h-1.316v-1.316H162.3v1.316a1.974,1.974,0,1,0,0,3.948h1.316a.658.658,0,1,1,0,1.316h-2.632v1.316H162.3v1.316h1.316v-1.316a1.974,1.974,0,1,0,0-3.948Zm0,0" transform="translate(-147.168 -336.5)" fill="#fff"/>
  <path id="Path_9175" data-name="Path 9175" d="M167.55,147.07l-.93-.93-.851.851v-4.333h-1.316v4.333l-.851-.851-.93.93,2.439,2.439Zm0,0" transform="translate(-149.319 -130.924)" fill="#fff"/>
  <path id="Path_9176" data-name="Path 9176" d="M111.566,334.656a7.238,7.238,0,1,0,7.238,7.238A7.238,7.238,0,0,0,111.566,334.656Zm0,13.16a5.922,5.922,0,1,1,5.922-5.922A5.922,5.922,0,0,1,111.566,347.816Zm0,0" transform="translate(-95.774 -307.132)" fill="#fff"/>
  <path id="Path_9177" data-name="Path 9177" d="M168.566,1.095,167.835,0l-1.609,1.072L164.618,0l-.731,1.095,2.339,1.559Zm0,0" transform="translate(-150.435)" fill="#fff"/>
  <path id="Path_9178" data-name="Path 9178" d="M168.566,45.095,167.835,44l-1.609,1.072L164.618,44l-.731,1.095,2.339,1.559Zm0,0" transform="translate(-150.435 -40.381)" fill="#fff"/>
  <path id="Path_9179" data-name="Path 9179" d="M272.566,1.095,271.835,0l-1.609,1.072L268.618,0l-.731,1.095,2.339,1.559Zm0,0" transform="translate(-245.881)" fill="#fff"/>
  <path id="Path_9180" data-name="Path 9180" d="M272.566,45.095,271.835,44l-1.609,1.072L268.618,44l-.731,1.095,2.339,1.559Zm0,0" transform="translate(-245.881 -40.381)" fill="#fff"/>
  <path id="Path_9181" data-name="Path 9181" d="M64.566,1.095,63.835,0,62.226,1.072,60.618,0l-.731,1.095,2.339,1.559Zm0,0" transform="translate(-54.989)" fill="#fff"/>
  <path id="Path_9182" data-name="Path 9182" d="M64.566,45.095,63.835,44l-1.609,1.072L60.618,44l-.731,1.095,2.339,1.559Zm0,0" transform="translate(-54.989 -40.381)" fill="#fff"/>
  <path id="Path_9183" data-name="Path 9183" d="M56.882,113.264l6.58-1.645V107.43l8.554-8.554v-4.22H48.328v4.22l8.554,8.554ZM49.644,98.331V95.972H70.7v2.359l-8.554,8.554v3.706l-3.948.987v-4.693Zm0,0" transform="translate(-44.38 -86.871)" fill="#fff"/>
  <path id="Path_9184" data-name="Path 9184" d="M368.328,318.656h1.316v15.791h-1.316Zm0,0" transform="translate(-338.061 -292.447)" fill="#fff"/>
  <path id="Path_9185" data-name="Path 9185" d="M336.328,350.656h1.316v13.16h-1.316Zm0,0" transform="translate(-308.693 -321.816)" fill="#fff"/>
  <path id="Path_9186" data-name="Path 9186" d="M.328,318.656H1.644v15.791H.328Zm0,0" transform="translate(-0.328 -292.447)" fill="#fff"/>
  <path id="Path_9187" data-name="Path 9187" d="M32.328,350.656h1.316v13.16H32.328Zm0,0" transform="translate(-29.696 -321.816)" fill="#fff"/>
  <path id="Path_9188" data-name="Path 9188" d="M304.328,382.656h1.316v10.528h-1.316Zm0,0" transform="translate(-279.325 -351.184)" fill="#fff"/>
  <path id="Path_9189" data-name="Path 9189" d="M64.328,382.656h1.316v10.528H64.328Zm0,0" transform="translate(-59.064 -351.184)" fill="#fff"/>
  <path id="Path_9190" data-name="Path 9190" d="M64.328,350.656h1.316v1.316H64.328Zm0,0" transform="translate(-59.064 -321.816)" fill="#fff"/>
  <path id="Path_9191" data-name="Path 9191" d="M32.328,318.656h1.316v1.316H32.328Zm0,0" transform="translate(-29.696 -292.447)" fill="#fff"/>
  <path id="Path_9192" data-name="Path 9192" d="M.328,286.656H1.644v1.316H.328Zm0,0" transform="translate(-0.328 -263.079)" fill="#fff"/>
  <path id="Path_9193" data-name="Path 9193" d="M304.328,350.656h1.316v1.316h-1.316Zm0,0" transform="translate(-279.325 -321.816)" fill="#fff"/>
  <path id="Path_9194" data-name="Path 9194" d="M336.328,318.656h1.316v1.316h-1.316Zm0,0" transform="translate(-308.693 -292.447)" fill="#fff"/>
  <path id="Path_9195" data-name="Path 9195" d="M368.328,286.656h1.316v1.316h-1.316Zm0,0" transform="translate(-338.061 -263.079)" fill="#fff"/>
</svg>
