<svg xmlns="http://www.w3.org/2000/svg" width="448.922" height="376.785" viewBox="0 0 448.922 376.785">
  <g id="Achieve_Operational_" data-name="Achieve Operational " transform="translate(-368.478 -2813.412)">
    <path id="Path_9641" data-name="Path 9641" d="M675.4,551.42c-6.741,7.693-16.318,16.231-24.205,19.906l11.718,3.1-48.4,80.141L518.03,693.55,403.86,864.5l89.935-.044,45.825-103.3,91.809-76.587,35.656-106.688,7.6,12.911C673.163,579.323,673.859,563.423,675.4,551.42Z" transform="translate(69.991 2324.084)" fill="#d4d4d4"/>
    <g id="Group_7078" data-name="Group 7078" transform="translate(673.379 2963.805)">
      <rect id="Rectangle_814" data-name="Rectangle 814" width="2.676" height="61.306" transform="translate(132.598 223.96) rotate(169.263)" fill="#d6d6d6"/>
      <path id="Path_9660" data-name="Path 9660" d="M1324.783,1811.116h-3.163l11.787-61.016,2.625.5Z" transform="translate(-1316.431 -1586.387)" fill="#d6d6d6"/>
      <path id="Path_9661" data-name="Path 9661" d="M1544.539,1811.116h-3.159l11.783-61.016,2.626.5Z" transform="translate(-1443.881 -1586.387)" fill="#d6d6d6"/>
      <path id="Path_9662" data-name="Path 9662" d="M1382.058,1811.494l2.566.033-11.3-60.777-2.625.5Z" transform="translate(-1344.895 -1586.764)" fill="#184655"/>
      <path id="Path_9663" data-name="Path 9663" d="M1391.925,1434.806c14.034,1.5,32.2,3.087,50.43,34.032,19.928,33.818,9.438,84.333-6.293,98.371s-67.1,31.37-110.283,5.423c0,0-26.077-15.726-12.694-41.824,20.591-40.161,17.684-48.537,26.891-64.275S1362.135,1431.617,1391.925,1434.806Z" transform="translate(-1309.265 -1403.328)" fill="#9f9f9f"/>
      <path id="Path_9664" data-name="Path 9664" d="M1454.056,1472.628c-12.447-21.12-24.855-28.558-35.944-31.638a92.79,92.79,0,0,1,12.988,17.537c19.927,33.818,9.439,84.333-6.292,98.371-13.95,12.45-55.925,27.484-95.368,12.631a40.138,40.138,0,0,0,8.04,6.893c43.185,25.946,94.553,8.615,110.283-5.423S1473.983,1506.446,1454.056,1472.628Z" transform="translate(-1320.966 -1407.118)" fill="#777"/>
      <path id="Path_9665" data-name="Path 9665" d="M1393.8,1557.66l-3.608,10.825,11-4.326Z" transform="translate(-1356.198 -1474.78)" fill="#f79c8d"/>
      <path id="Path_9666" data-name="Path 9666" d="M1405.172,1480.99c-.735.03-2.743.7-5.68,6.229-3.751,7.065-9.232,28.4-9.232,28.4l16.361,6.074,2.1-4.453,3.462-34.288S1405.378,1480.982,1405.172,1480.99Z" transform="translate(-1356.238 -1430.316)" fill="#8b8b8b"/>
      <path id="Path_9667" data-name="Path 9667" d="M1445.955,1473.67c-4.68,0-16.256,1.365-21.628,3.079,0,0-3.949,33.809,3.553,59.5,1.68,5.751-1.391,23.843-1.391,23.843l48.482-.639s-5.742-43.731-3.579-50.8,2.213-31.68,2.213-31.68-.331-.05-10.891-1.869A110.337,110.337,0,0,0,1445.955,1473.67Z" transform="translate(-1375.393 -1426.071)" fill="#818181"/>
      <path id="Path_9668" data-name="Path 9668" d="M1485.328,1828.8s-1.071,12.337-3.045,15.752.105,9.225.205,10.023,4.15,1.936,10.585,1.252,6.331-2.164,5.814-4.553-3.945-5.466-4.15-7.746,1.97-10.476,1.97-10.476Z" transform="translate(-1409.117 -1632.029)" fill="#f7a491"/>
      <path id="Path_9669" data-name="Path 9669" d="M1383.271,1654.124s-33.465-1.853-40.938,2.659,1.353,13.773,1.353,13.773,27.244,11.808,72.858,14.429c10.8.621,11.732-28.068,9.711-30.441S1383.271,1654.124,1383.271,1654.124Z" transform="translate(-1326.701 -1530.286)" fill="#8e8e8e"/>
      <path id="Path_9670" data-name="Path 9670" d="M1492.917,1879.569c6.628-.7,5.8-3.948,5.272-6.41-.336-1.541-2.234-3.361-3.369-5.079a10.987,10.987,0,0,1-4.431,2.147c-2.986.878-7.086-.861-9.695-1.954a31.791,31.791,0,0,0-.886,8.519C1479.913,1877.615,1486.293,1880.27,1492.917,1879.569Z" transform="translate(-1408.153 -1654.809)" fill="#3a3a3a"/>
      <path id="Path_9671" data-name="Path 9671" d="M1491.366,1678.435c-1.336,10.086-7.956,60.281-7.956,60.281l15.362,1.9s18.889-65.52,17.923-75.542-8.04-10.866-8.04-10.866S1494.906,1651.746,1491.366,1678.435Z" transform="translate(-1410.261 -1530.739)" fill="#d2d2d2"/>
      <path id="Path_9672" data-name="Path 9672" d="M1466.589,1490.419c-4.533-1.693-6.75,39.009-7.364,55.761-8.028.768-22.019,0-25.5-.256-1.638-.122-5.414-1.5-7.044-1.714a16.314,16.314,0,0,0-4-.189c-.3.05-8.67,3.461-9.384,4.209-.886.928-3.289,3.268-2.881,4.28s4.616-2.818,4.616-2.818l2.058-1.151c-2.562,2.495-7.448,5.779-6.741,6.972.685,1.167,5.1-2.167,8.233-4.44-2.693,2.424-6.041,6.767-5.272,7.443.693.609,4.5-4.414,8.569-5.864,1.507-.537,3.011.95,4.2,1.13a8.658,8.658,0,0,0,3.075.172l4.406-1.243c1.5.135,1.537,1.021,3.054,1.34,1.76.374,4.646.764,6.884,1.31,12.9,3.142,17.205,4.6,21.158,4.6C1476.607,1559.953,1477.3,1494.422,1466.589,1490.419Z" transform="translate(-1367.847 -1435.754)" fill="#f7a491"/>
      <path id="Path_9673" data-name="Path 9673" d="M1539.436,1523.378c.849-17.163.726-38.313-8.926-41.921-3.81-1.424-10.523,7.137-9.317,42.27C1526.347,1524.151,1533.912,1524.491,1539.436,1523.378Z" transform="translate(-1432.09 -1430.501)" fill="#818181"/>
      <path id="Path_9674" data-name="Path 9674" d="M1361.736,1853.93s1.34,4.285-1.058,7.116-12.374,5.612-13.681,7.145a4.278,4.278,0,0,0-1.209,2.84l27.991-.769-.306-8.426-1.289-6.053Z" transform="translate(-1330.446 -1646.603)" fill="#f7a491"/>
      <path id="Path_9675" data-name="Path 9675" d="M1352.975,1873.345s7.191,2.9,10.665,1.185,3.369-2.192,4.372-1.554,1.366,9.25,1.366,9.25l-31.475.21c-2.189-.05-3.3-1.66-1.516-3.033a25.328,25.328,0,0,1,3.432-2.033C1342.28,1875.963,1352.975,1873.345,1352.975,1873.345Z" transform="translate(-1324.481 -1657.492)" fill="#3a3a3a"/>
      <path id="Path_9676" data-name="Path 9676" d="M1352.271,1662.977c-2.163-4.536-7.082-10.446-15.739-6.884-8.258,3.394-10.472,11.732-7.868,20.272s19.755,58.744,20.356,65.645l13.694.092s-2.487-39.753-3.1-49.36C1359.021,1683.492,1356.014,1670.828,1352.271,1662.977Z" transform="translate(-1319.917 -1531.234)" fill="#d2d2d2"/>
      <path id="Path_9677" data-name="Path 9677" d="M1329.238,1563.91h45.772a2.98,2.98,0,0,1,2.76,1.853l14.092,34.376H1417.1a1.277,1.277,0,0,1,1.277,1.277h0a1.276,1.276,0,0,1-1.277,1.276h-71.824a5.015,5.015,0,0,1-4.574-2.961l-14.193-31.613A2.989,2.989,0,0,1,1329.238,1563.91Z" transform="translate(-1319.112 -1478.406)" fill="#6e6e6e"/>
      <path id="Path_9678" data-name="Path 9678" d="M1391.951,1606.967a2.519,2.519,0,1,0,1.89-3.285A2.692,2.692,0,0,0,1391.951,1606.967Z" transform="translate(-1357.182 -1501.446)" fill="#fff"/>
      <path id="Path_9679" data-name="Path 9679" d="M1472.311,1437.96l2.238,14.76s-8.177,17.575-13.063,16.05c-4.1-1.277-1.575-16.831-1.575-16.831s2.235-8.35,1.563-12.53S1472.311,1437.96,1472.311,1437.96Z" transform="translate(-1396.188 -1404.853)" fill="#f7a491"/>
      <path id="Path_9680" data-name="Path 9680" d="M1464.3,1439.407c-.668-4.179,10.833-1.453,10.833-1.453l.185,1.223a6.812,6.812,0,0,1-1.248,2.058,15.16,15.16,0,0,1-10.06,4.554A22.852,22.852,0,0,0,1464.3,1439.407Z" transform="translate(-1399.01 -1404.85)" fill="#f47458" opacity="0.2"/>
      <g id="Group_7077" data-name="Group 7077" transform="translate(58.366)">
        <path id="Path_9681" data-name="Path 9681" d="M1467.865,1383.082c.323-.117,2.6,16.811-1.722,21.473s-12.765,6.184-15.789,2.511c-3.349-4.057-3.18-22.253,3.553-27.046S1467.865,1383.082,1467.865,1383.082Z" transform="translate(-1448.218 -1370.86)" fill="#f7a491"/>
        <path id="Path_9682" data-name="Path 9682" d="M1459.785,1360.455a18.685,18.685,0,0,1,9.808,5.595c2.361.278,5.574,1.584,8.888,7.074,4.079,6.75,1.067,14.227-3.679,17.9s-4.68,7.906-4.68,7.906l-.752-2.193a12.246,12.246,0,0,1-.6-5.162,10.044,10.044,0,0,1,.769-3.1c1.143-2.449-2.453-4.079-3.461-6.116-.777-1.571-.815-5.162-2.037-7.754l-1.462-1.982s-3.369-2.621-6.663-1.883S1453.106,1359.094,1459.785,1360.455Z" transform="translate(-1451.534 -1360.351)" fill="#4d4d4d"/>
        <path id="Path_9683" data-name="Path 9683" d="M1483.389,1414.785c-.034,2.066.9,3.755,2.1,3.775s2.189-1.638,2.222-3.7-.9-3.755-2.1-3.776S1483.422,1412.718,1483.389,1414.785Z" transform="translate(-1468.615 -1389.771)" fill="#f7a491"/>
      </g>
      <path id="Path_9684" data-name="Path 9684" d="M1460.464,1433.066l-6.523-.336a2.854,2.854,0,0,0,2.886,2.717C1460.321,1435.729,1460.464,1433.066,1460.464,1433.066Z" transform="translate(-1393.17 -1402.328)" fill="#fff"/>
    </g>
    <path id="Path_9723" data-name="Path 9723" d="M1005.052,651.99c-2.059-1.39-4.167-2.706-6.2-4.136a1.8,1.8,0,0,1-.656-1.374c.268-2.864.7-5.715.947-8.578a1.518,1.518,0,0,1,1.062-1.584c2.819-1.1,5.607-2.279,8.405-3.433.454-.186.9-.391,1.684-.729-1.338-4.3-2.657-8.542-4.013-12.9-3.6.716-6.887,1.311-10.144,2.043a1.994,1.994,0,0,1-2.512-.939c-1.511-2.174-3.323-4.139-4.949-6.237a1.634,1.634,0,0,1-.212-1.346c1.107-2.864,2.211-5.735,3.488-8.523.614-1.338.307-2.059-.892-2.683a8.256,8.256,0,0,1-1.251-.976l-6.211-3.338a4.242,4.242,0,0,1-.779-.163c-2.526-1.033-2.038-1.012-3.473,1.1-1.747,2.568-3.451,5.166-4.949,7.412l-11.22-1.049c-1.413-3.43-2.89-7.018-4.377-10.627a43.182,43.182,0,0,0-12.856,4c.711,3.543,1.393,7,2.1,10.449a1.192,1.192,0,0,1-.517,1.448c-2.376,1.778-4.71,3.617-6.958,5.552a1.4,1.4,0,0,1-1.76.268c-2.874-1.209-5.775-2.35-8.652-3.546a1.209,1.209,0,0,0-1.707.425,38.46,38.46,0,0,0-5.324,10.317c-.262.726.087,1.041.635,1.4,2.539,1.65,5.038,3.362,7.587,4.994a1.517,1.517,0,0,1,.813,1.825c-.506,3.281-.823,6.591-1.243,10.155l-10.2,4.2a40.22,40.22,0,0,0,3.908,13.04c3.86-.795,7.618-1.566,11.02-2.266,2.122,2.447,4.036,4.771,6.092,6.963a1.932,1.932,0,0,1,.461,2.475c-1.211,2.725-2.316,5.5-3.435,8.262-.22.545-.656,1.183.2,1.634q5.2,2.746,10.406,5.5c.737.388,1.2.142,1.65-.553,1.66-2.586,3.435-5.1,5.051-7.708.624-1.007,1.293-1.047,2.339-.9a70.639,70.639,0,0,0,7.786.7,1.7,1.7,0,0,1,1.909,1.314c1.214,3.2,2.557,6.357,3.824,9.465,2.777,0,10.343-2.371,13.071-4.065-.713-3.41-1.4-6.863-2.182-10.3a1.462,1.462,0,0,1,.716-1.744c2.119-1.668,4.12-3.485,6.224-5.175a1.787,1.787,0,0,1,1.477-.283c2.565,1,5.1,2.1,7.626,3.192,1.413.611,1.983.863,2.526.5l5.924-11.02C1007.334,653.537,1006.718,653.115,1005.052,651.99Zm-22.019-3.863a20.25,20.25,0,0,1-27.425,8.245h0a20.251,20.251,0,0,1-8.246-27.425h0a20.25,20.25,0,0,1,27.425-8.245h0a20.248,20.248,0,0,1,8.246,27.425Z" transform="translate(-289.014 2230.662)" fill="#d9d9d9"/>
    <path id="Path_9724" data-name="Path 9724" d="M530.283,881.378c-3.331.325-6.648.766-9.984,1.023a2.421,2.421,0,0,1-1.859-.863c-2.182-3.2-4.178-6.53-6.381-9.719a2.047,2.047,0,0,1-.257-2.554c1.98-3.561,3.865-7.178,5.78-10.776.309-.582.6-1.177,1.122-2.2l-15.235-9.945c-3.126,3.834-6.024,7.275-8.778,10.826a2.683,2.683,0,0,1-3.415,1.18c-3.436-.962-7-1.445-10.49-2.227a2.2,2.2,0,0,1-1.374-1.217c-1.309-3.923-2.628-7.849-3.7-11.844-.511-1.917-1.448-2.4-3.228-2.02a11.339,11.339,0,0,1-2.135.061q-4.658.932-9.313,1.862a5.658,5.658,0,0,1-.947.5c-3.509,1.1-2.985.7-2.665,4.12.391,4.167.85,8.327,1.222,11.941-4.327,2.945-8.371,5.7-12.549,8.539l-13.664-7.275a58.166,58.166,0,0,0-9.916,15.182c3.777,3.069,7.453,6.069,11.151,9.043a1.608,1.608,0,0,1,.705,1.949c-.941,3.884-1.786,7.8-2.457,11.736a1.891,1.891,0,0,1-1.6,1.788C426.3,901.7,422.312,903,418.3,904.231a1.627,1.627,0,0,0-1.408,1.907,51.811,51.811,0,0,0,3.328,15.279c.351.981.984,1.007,1.859.9,4.052-.467,8.114-.834,12.164-1.327a2.046,2.046,0,0,1,2.41,1.2c2.29,3.842,4.8,7.548,7.422,11.611-2.135,4.01-4.558,8.563-6.982,13.113A54.152,54.152,0,0,0,452.341,957.1l9.5-11.81c4.3.719,8.285,1.489,12.3,2a2.592,2.592,0,0,1,2.6,2.174c1.08,3.868,2.313,7.695,3.525,11.524.239.758.333,1.791,1.605,1.526q7.761-1.613,15.521-3.223c1.1-.228,1.369-.886,1.238-1.99-.493-4.109-.808-8.24-1.371-12.339-.218-1.582.446-2.2,1.652-2.948a95.806,95.806,0,0,0,8.686-5.951,2.285,2.285,0,0,1,3.11-.276c4.01,2.282,8.112,4.406,12.093,6.546,2.882-2.384,8.7-11.34,10.081-15.439-3.667-2.927-7.346-5.924-11.1-8.817a1.968,1.968,0,0,1-.753-2.426c.768-3.551,1.288-7.155,2.022-10.714a2.4,2.4,0,0,1,1.29-1.56c3.525-1.159,7.092-2.195,10.658-3.231,1.993-.58,2.8-.805,3.05-1.65l-3.3-16.525C533.978,881.026,532.976,881.115,530.283,881.378ZM504.1,896.263a27.273,27.273,0,0,1-21.4,32.1h0a27.274,27.274,0,0,1-32.1-21.4h0a27.274,27.274,0,0,1,21.4-32.1h0a27.277,27.277,0,0,1,32.1,21.4Z" transform="translate(82.692 2048.45)" fill="#bcbcbc"/>
    <path id="Path_9725" data-name="Path 9725" d="M680.02,581.823c-1.335-.632-2.691-1.219-4.013-1.878a1.073,1.073,0,0,1-.509-.75c-.1-1.707-.1-3.423-.21-5.13a.9.9,0,0,1,.483-1.025c1.558-.9,3.092-1.841,4.637-2.767.249-.149.5-.31.926-.58-1.169-2.4-2.324-4.786-3.509-7.225-2.053.742-3.934,1.385-5.783,2.106a1.186,1.186,0,0,1-1.561-.328c-1.08-1.143-2.323-2.137-3.467-3.226a.97.97,0,0,1-.244-.774c.4-1.783.787-3.569,1.29-5.324.241-.842,0-1.238-.763-1.5a4.985,4.985,0,0,1-.821-.461l-3.95-1.408a2.522,2.522,0,0,1-.472-.026c-1.576-.383-1.29-.414-1.943.955-.8,1.665-1.568,3.347-2.248,4.8-2.308.131-4.464.257-6.69.383-1.138-1.891-2.326-3.868-3.522-5.856a25.677,25.677,0,0,0-7.2,3.5c.735,2.02,1.445,3.989,2.169,5.956a.707.707,0,0,1-.176.9c-1.238,1.256-2.447,2.547-3.6,3.887a.836.836,0,0,1-1.012.315c-1.8-.453-3.606-.865-5.4-1.314a.718.718,0,0,0-.965.4,22.854,22.854,0,0,0-2.211,6.541c-.089.451.144.6.5.766,1.639.745,3.263,1.526,4.907,2.261a.9.9,0,0,1,.64,1c-.005,1.975.105,3.947.173,6.082l-5.62,3.378a23.9,23.9,0,0,0,3.462,7.32c2.2-.81,4.34-1.6,6.278-2.316,1.466,1.248,2.8,2.444,4.2,3.551a1.147,1.147,0,0,1,.49,1.414c-.47,1.71-.871,3.438-1.282,5.164-.081.341-.281.753.26.941q3.3,1.153,6.609,2.3c.469.162.719-.024.921-.472.745-1.668,1.566-3.3,2.282-4.983.278-.648.669-.732,1.3-.742a42.1,42.1,0,0,0,4.639-.281,1.01,1.01,0,0,1,1.24.6c1,1.776,2.069,3.509,3.092,5.224a22.973,22.973,0,0,0,7.322-3.556c-.724-1.941-1.435-3.91-2.2-5.859a.871.871,0,0,1,.265-1.091c1.1-1.17,2.111-2.415,3.2-3.6a1.063,1.063,0,0,1,.842-.3c1.6.362,3.184.779,4.768,1.2.887.234,1.243.331,1.529.068l2.5-7.008C681.5,582.528,681.1,582.334,680.02,581.823Zm-13.292-.31a12.043,12.043,0,0,1-15.389,7.294h0a12.044,12.044,0,0,1-7.293-15.39h0a12.043,12.043,0,0,1,15.39-7.294h0a12.045,12.045,0,0,1,7.293,15.39Z" transform="translate(-73.969 2262.111)" fill="#d4d4d4" opacity="0.2"/>
    <g id="Group_7085" data-name="Group 7085" transform="translate(373.497 2968.834)">
      <path id="Path_9726" data-name="Path 9726" d="M727.88,1782.462l6.347-.025c-.836-27.7-1.575-69.763-.176-72.123a1.022,1.022,0,0,1-.424.319l-5.15-1.344c-.832.42-1.336.672-1.508,12.45-.088,6.062-.055,14.433.1,24.881C727.334,1764.4,727.871,1782.282,727.88,1782.462Z" transform="translate(-674.498 -1566.686)" fill="#949494"/>
      <path id="Path_9727" data-name="Path 9727" d="M679.435,1882.68h42.824a3.571,3.571,0,0,1,3.57,3.571h0a.627.627,0,0,1-.626.626H676.486a.627.627,0,0,1-.626-.626h0A3.579,3.579,0,0,1,679.435,1882.68Z" transform="translate(-644.652 -1667.243)" fill="#636363"/>
      <path id="Path_9728" data-name="Path 9728" d="M724.024,1874.3h5.242a2.813,2.813,0,0,1,2.81,2.811h0a2.81,2.81,0,0,1-2.81,2.809H724.02a2.812,2.812,0,0,1-2.81-2.809h0A2.814,2.814,0,0,1,724.024,1874.3Z" transform="translate(-669.949 -1662.384)" fill="#636363"/>
      <rect id="Rectangle_815" data-name="Rectangle 815" width="2.533" height="126.263" transform="translate(205.91 93.29)" fill="#686868"/>
      <path id="Path_9729" data-name="Path 9729" d="M740.834,1393.23a33.992,33.992,0,0,0-3.1-16.378c-2.159-4.5-7.506-7.044-12.379-7.053-15.479-.021-17.445,20.427-27.294,28.316-3.012,2.411-6.377,4.372-9.225,6.973-10.518,9.6-5.78,27.362,3.877,35.78,6.7,5.839,17.235,9.157,25.5,4.591a25.95,25.95,0,0,0,9.917-10.682c3.31-6.158,5.444-13.265,7.8-19.831C738.427,1407.961,740.523,1400.69,740.834,1393.23Z" transform="translate(-662.64 -1369.8)" fill="#363636"/>
      <path id="Path_9730" data-name="Path 9730" d="M616.421,1521.786l-33.68-9.388s-7.094-9.531-16.222-22.318c-2.986,2.953-4.641,7.494-7.649,10.417l22.292,24.657a4.252,4.252,0,0,0,3.146,1.4l30.949.105,10.589.844v-6.78Z" transform="translate(-495.529 -1439.555)" fill="#f48c7f"/>
      <path id="Path_9731" data-name="Path 9731" d="M685.415,1508.437s-11.56-11.854-14.534-17,2.025-1.8,7.132-3.15c1.932-.513,1.445-11.845,5.1-8.162,6,6.045,13.538,16.613,13.538,16.613Z" transform="translate(-613.01 -1433.355)" fill="#6a6a6a"/>
      <path id="Path_9732" data-name="Path 9732" d="M704.838,1468.017s-10.375-2.05-15.105,1.907,1.012,39.115,1.008,44.945-3.251,22.3-3.251,22.3,31.441,5.5,36.435-3.247c0,0,1.42-33.34,1.21-37.531s-4.873-21.339-6.162-23.175S704.838,1468.017,704.838,1468.017Z" transform="translate(-648.864 -1426.453)" fill="#434343"/>
      <path id="Path_9733" data-name="Path 9733" d="M717.42,1430.219s-.055.311-.151.84c-.471,2.533-2.281,10.929-3.508,13.24-1.479,2.789,5.066,11.69,11.362,10.6,1.873-.324-1.583-8.179-1.42-9.01.319-1.592.752-3.764,1.193-5.994.248-1.256.5-2.533.739-3.73l1.222-6.187Z" transform="translate(-661.513 -1404.7)" fill="#f7a491"/>
      <path id="Path_9734" data-name="Path 9734" d="M713.836,1431.055c.1-.53.151-.84.151-.84l9.438-.235s-.55,2.785-1.222,6.187c-.235,1.189-.488,2.457-.735,3.708a8.847,8.847,0,0,1-4.507-2.255,11.85,11.85,0,0,1-3.411-5.066C713.668,1431.962,713.764,1431.45,713.836,1431.055Z" transform="translate(-658.08 -1404.7)" fill="#f47458"/>
      <path id="Path_9735" data-name="Path 9735" d="M709.407,1379.555a8.518,8.518,0,0,0-7.237,3.087c-2.789,3.6-5.792,14.728,1.134,20.78s13.769-.8,14.782-8.06S719.5,1379.29,709.407,1379.555Z" transform="translate(-647.15 -1375.443)" fill="#f7a491"/>
      <path id="Path_9736" data-name="Path 9736" d="M697.742,1411.485c-.828,1.6-2.214,2.49-3.1,1.983s-.932-2.222-.105-3.823,2.214-2.491,3.1-1.982S698.57,1409.88,697.742,1411.485Z" transform="translate(-624.753 -1391.674)" fill="#f7a491"/>
      <path id="Path_9737" data-name="Path 9737" d="M734.714,1376.6s-5.944,10.581-10.195,11.073-4.81,6.111-4.81,6.111,1.521-12.959,5.729-15.458A15.651,15.651,0,0,1,734.714,1376.6Z" transform="translate(-671.957 -1373.679)" fill="#2e2e2e"/>
      <path id="Path_9738" data-name="Path 9738" d="M745.558,1405.321c.344,1.878-.349,3.6-1.554,3.848s-2.458-1.075-2.806-2.957.348-3.6,1.554-3.852S745.209,1403.439,745.558,1405.321Z" transform="translate(-691.878 -1388.666)" fill="#f7a491"/>
      <g id="Group_7083" data-name="Group 7083" transform="translate(36.834 107.306)">
        <path id="Path_9739" data-name="Path 9739" d="M667.076,1814.559S657.532,1826,657.469,1827s.378,11.862,1.512,12.858,4.469,1.7,3.4,2.824c-.811.848-7.044.663-11.174.436-1.206-.067-2.718-9.686-3.2-11.1-.693-2.054-2.382-6.679-1.752-8.112a12.054,12.054,0,0,1,3.848-3.469c2.18-1.407,10.51-13,10.51-13Z" transform="translate(-610.241 -1730.909)" fill="#f48c7f"/>
        <path id="Path_9740" data-name="Path 9740" d="M659.633,1838.22s6.41,18.042,8.917,18.916c.668.23,3.86.819,4.465,2.231a6.139,6.139,0,0,1,0,1.847H659.658s-1.688-7.951-2.357-11.442c0,0-3.537-8.536-3.142-9.308S659.633,1838.22,659.633,1838.22Z" transform="translate(-619.625 -1748.766)" fill="#676767"/>
        <path id="Path_9741" data-name="Path 9741" d="M431.389,1829.895s7.792,10.972,7.107,14.441c-.366,1.857-2,4.293-1.063,6.04a4.726,4.726,0,0,0,2.012,2.189l24.308.391c1.323.021.45-.828-.617-1.613-1.747-1.282-3.159-2.13-8.741-4.827-.365-.177-1.689-1.016-2.168-1.306a16.9,16.9,0,0,1-3.478-3.066c-1.747-1.941-9.422-17.743-9.422-17.743Z" transform="translate(-317.39 -1740.751)" fill="#f7a491"/>
        <path id="Path_9742" data-name="Path 9742" d="M442.316,1873.182a22.067,22.067,0,0,1-13.841-.542c-.684,1.94-1.6,4.373-1.113,5.775.588,1.718,1.432,2.1,2.172,2.126,5.872.156,21.511.365,25.989.42a.731.731,0,0,0,.567-1.2C454.98,1878.437,442.795,1873.476,442.316,1873.182Z" transform="translate(-307.482 -1768.728)" fill="#676767"/>
        <path id="Path_9743" data-name="Path 9743" d="M626.581,1646.716s-9.648,11.014-12.11,12.756-26.081,45.24-26.081,45.24l8.414,6.146s21.112-26.321,31.025-40.4c8.384-11.9,5.3-11.148,10.224-18.395a9.677,9.677,0,0,0-1.479-12.618q-.667-.605-1.453-1.26c-7.3-6.082-57.311-12.925-57.311-12.925l-31.991,3.134s26.14,18.331,27.114,18.818,36.1,5.608,36.826,5.608S626.581,1646.716,626.581,1646.716Z" transform="translate(-540.771 -1625.26)" fill="#535353"/>
        <path id="Path_9744" data-name="Path 9744" d="M481.971,1631.726s-5.486,16.462,2.743,24.144,57.131,6.83,73.227,6.83c0,0,6.586,18.05,7.317,20.973s32.68,40.727,32.68,40.727l8.779-5.607s-34.389-66.826-37.07-69.754-40.971-14.634-50.486-17.314S481.971,1631.726,481.971,1631.726Z" transform="translate(-480.18 -1628.319)" fill="#b1b1b1"/>
      </g>
      <path id="Path_9745" data-name="Path 9745" d="M660.815,1519.09l-29.2-6.46s-10.56-13.568-20.7-25.249c-2.987,2.953-4.641,7.494-7.649,10.417l22.292,24.662a4.255,4.255,0,0,0,3.146,1.4l30.949.105,10.589.845v-6.78Z" transform="translate(-558.565 -1437.99)" fill="#f7a491"/>
      <path id="Path_9746" data-name="Path 9746" d="M730.224,1501.406s-11.56-11.849-14.534-17-.769-13.777,4.339-15.13,21.435,20.427,21.435,20.427Z" transform="translate(-676.456 -1427.456)" fill="#717171"/>
      <g id="Group_7084" data-name="Group 7084" transform="translate(68.453 47.857)">
        <path id="Path_9747" data-name="Path 9747" d="M569.17,1483.73H521.011a3.141,3.141,0,0,0-2.907,1.949l-14.828,36.166H476.725a1.343,1.343,0,0,0-1.344,1.344h0a1.343,1.343,0,0,0,1.344,1.344h75.567a5.274,5.274,0,0,0,4.814-3.116l14.933-33.26A3.145,3.145,0,0,0,569.17,1483.73Z" transform="translate(-475.381 -1483.73)" fill="#414141"/>
        <path id="Path_9748" data-name="Path 9748" d="M549.655,1529.036a2.649,2.649,0,1,1-1.983-3.457A2.835,2.835,0,0,1,549.655,1529.036Z" transform="translate(-481.796 -1507.975)" fill="#fff"/>
      </g>
      <path id="Path_9749" data-name="Path 9749" d="M368.289,1586.969h143.88a3.05,3.05,0,0,0,3.05-3.05h0a3.049,3.049,0,0,0-3.05-3.049H368.289a3.049,3.049,0,0,0-3.05,3.049h0A3.05,3.05,0,0,0,368.289,1586.969Z" transform="translate(-303.567 -1492.209)" fill="#6b6b6b"/>
      <path id="Path_9750" data-name="Path 9750" d="M721.044,1426.416l-6.524-.336a2.855,2.855,0,0,0,2.886,2.718C720.9,1429.079,721.044,1426.416,721.044,1426.416Z" transform="translate(-656.106 -1402.439)" fill="#fff"/>
      <path id="Path_9751" data-name="Path 9751" d="M716.7,1665.917l-2.945-12.265a19.9,19.9,0,0,0-18.474-15.176l-37.321-1.508-1.151-3.8,38.624,1.563a23.663,23.663,0,0,1,21.969,18.049l3.129,13.035C719.473,1665.854,718.179,1665.893,716.7,1665.917Z" transform="translate(-631.353 -1522.541)" fill="#949494"/>
      <path id="Path_9752" data-name="Path 9752" d="M669.972,1595.884s51.275.878,56.623,0,7.658,5.826,6.066,9.334-5.986,4.868-12.446,5.187-60.24,1.836-61.752.4c-1.239-1.172-17.541-56.9-23.472-77.29a7.689,7.689,0,0,1,5.225-9.526h0a7.7,7.7,0,0,1,9.531,5.15Z" transform="translate(-634.682 -1459.038)" fill="#7e7e7e"/>
      <rect id="Rectangle_816" data-name="Rectangle 816" width="2.533" height="126.263" transform="translate(64.715 93.29)" fill="#686868"/>
      <rect id="Rectangle_817" data-name="Rectangle 817" width="143.098" height="1.357" transform="translate(65.345 101.463)" fill="#686868"/>
    </g>
    <rect id="Rectangle_819" data-name="Rectangle 819" width="448.922" height="2.898" transform="translate(368.478 3187.298)" fill="#7d7d7d"/>
    <path id="Path_9784" data-name="Path 9784" d="M1003.65,1294.1a2.857,2.857,0,0,0,3.877.836c3.137-1.563,1.886-3.915,1.886-3.915Z" transform="translate(-277.858 1644.636)" fill="#fff"/>
  </g>
</svg>
