<svg id="Better_decision-making_" data-name="Better decision-making " xmlns="http://www.w3.org/2000/svg" width="42" height="42" viewBox="0 0 42 42">
  <path id="Path_9156" data-name="Path 9156" d="M128,196.6v4.827a4.969,4.969,0,0,0,2.1,4.055V211.3h1.4v-5.123a4.956,4.956,0,0,0,1.473.223c.133,0,.265-.006.4-.016a13.158,13.158,0,0,0,7.166,2.116H145.5a4.884,4.884,0,0,0,1.4-.2V211.3h1.4v-3.682a4.9,4.9,0,0,0,2.1-4.018v-7a4.2,4.2,0,0,0-4.2-4.2h-3.793a3.479,3.479,0,0,0,.293-1.4v-3.067l.3-.148A2,2,0,0,0,142.1,184h-2.9a3.5,3.5,0,0,0-3.5,3.5V191a3.479,3.479,0,0,0,.293,1.4H132.2A4.2,4.2,0,0,0,128,196.6Zm1.4,4.827V196.6a2.8,2.8,0,0,1,2.8-2.8h4.9v0a3.5,3.5,0,0,0,.7.41l-1.9,1.9.99.99.713-.713.158.316-.54,2.7H134.3v-2.1h-1.4v2.8a.7.7,0,0,0,.7.7h6.3v2.279l-5.9,1.77a3.573,3.573,0,0,1-4.6-3.422Zm11.9-.627h1.4a1.4,1.4,0,0,1,1.4,1.4v.7h-2.8Zm-2.226-3.5h.252l.42,2.1h-1.092Zm.394-1.4h-.535l-.281-.562.548-.548.548.548Zm-.267-2.8a2.1,2.1,0,0,1-2.1-2.1v-1.11l1.69-1.69h2.51V191A2.1,2.1,0,0,1,139.2,193.1Zm9.8,3.5v7a3.5,3.5,0,0,1-3.5,3.5h-4.964a11.761,11.761,0,0,1-5.177-1.2l5.344-1.6h4.1a.7.7,0,0,0,.7-.7v-6.3h-1.4v2.477a2.782,2.782,0,0,0-1.4-.377h-1.526l-.54-2.7.158-.316.713.713.99-.99-1.9-1.9a3.5,3.5,0,0,0,.7-.41v0h4.9A2.8,2.8,0,0,1,149,196.6Zm-9.8-11.2h2.9a.6.6,0,0,1,.267,1.133l-.535.267H138.5a.7.7,0,0,0-.495.205l-.905.905v-.41A2.1,2.1,0,0,1,139.2,185.4Z" transform="translate(-118.2 -169.3)" fill="#fff"/>
  <path id="Path_9157" data-name="Path 9157" d="M206.3,20.9v8.4h1.4V21.6h1.4a.7.7,0,0,0,.495-1.195l-4.2-4.2a.7.7,0,0,0-.99,0l-4.2,4.2A.7.7,0,0,0,200.7,21.6h1.4v7.7h1.4V20.9a.7.7,0,0,0-.7-.7h-.41l2.51-2.51,2.51,2.51H207a.7.7,0,0,0-.7.7Z" transform="translate(-183.9 -16)" fill="#fff"/>
  <path id="Path_9158" data-name="Path 9158" d="M25.1,122.2v-1.4H23.7a4.2,4.2,0,0,1-4.2-4.2v-7.7a.7.7,0,0,0-.7-.7h-.41l2.51-2.51,2.51,2.51H23a.7.7,0,0,0-.7.7v7a2.1,2.1,0,0,0,2.1,2.1h7.7v-1.4H24.4a.7.7,0,0,1-.7-.7v-6.3h1.4a.7.7,0,0,0,.495-1.195l-4.2-4.2a.7.7,0,0,0-.99,0l-4.2,4.2A.7.7,0,0,0,16.7,109.6h1.4v7a5.606,5.606,0,0,0,5.6,5.6Z" transform="translate(-16 -96.3)" fill="#fff"/>
  <path id="Path_9159" data-name="Path 9159" d="M323.695,104.2a.7.7,0,0,0-.99,0l-4.2,4.2A.7.7,0,0,0,319,109.6h1.4v6.3a.7.7,0,0,1-.7.7H312V118h7.7a2.1,2.1,0,0,0,2.1-2.1v-7a.7.7,0,0,0-.7-.7h-.41l2.51-2.51,2.51,2.51h-.41a.7.7,0,0,0-.7.7v7.7a4.2,4.2,0,0,1-4.2,4.2H319v1.4h1.4a5.606,5.606,0,0,0,5.6-5.6v-7h1.4a.7.7,0,0,0,.495-1.195Z" transform="translate(-286.1 -96.3)" fill="#fff"/>
</svg>
