<svg xmlns="http://www.w3.org/2000/svg" width="674.01" height="435" viewBox="0 0 674.01 435">
  <g id="Data_analytics_" data-name="Data analytics " transform="translate(-1267.673 -3928.692)">
    <path id="Path_6905" data-name="Path 6905" d="M355.457,734.868s-84.261-69.2-45.865-159.509,107.9,47.53,156.345-79.939,59.3-225.047,188.264-184.8,76.1,145.887,143.6,156.5,120.827,48.866,89.9,131.587,45.862,137.047,45.862,137.047Z" transform="translate(968.107 3627.254)" fill="#ececec"/>
    <path id="Path_6906" data-name="Path 6906" d="M2179.173,350.6l-25.931,2.637,8.088,6.6-64.923,77.905-39.263-49.708L2012.4,438.178l-17.912-27.931L1959.45,445.79l11.289,11.29,21-21,19.11,28.381,46.09-52.022,38.471,50.269,78.29-92.785,8.106,6.61Z" transform="translate(-282.021 3592.923)" fill="#b9b9b9"/>
    <g id="Group_5795" data-name="Group 5795" transform="translate(1722.298 4208.9)">
      <g id="Group_5790" data-name="Group 5790" transform="translate(81.747 61.049)">
        <path id="Path_6907" data-name="Path 6907" d="M2427.6,1458.444s-10.7-12.482-.661-20.411c0,0,7.335-4.441,13.311-4.079,0,0-8.472,14.207-5.732,15.619s8.3-16.512,8.3-16.512,16.687-1.617,22.054.963c0,0-14.264,11.673-11.262,12.369s18.412-10.765,18.412-10.765,15.532,2.643,14.7,12.116-6.179,12.4-8.532,12.146-16.11-5.5-16.409-3.578,7.983,8.224,13.782,8.52c0,0-10.949,12.077-18.225,8.589s-7.9-9.009-12.437-11.081-8.408-2.066-6.535.045,10.083,4.167,12.678,8.755,4.92,7.684-2.607,6.55-19.767-6.644-20.3-12.952S2427.6,1458.444,2427.6,1458.444Z" transform="translate(-2409.513 -1432.562)" fill="#8d8d8d"/>
        <g id="Group_5789" data-name="Group 5789" transform="translate(0 15.37)">
          <path id="Path_6908" data-name="Path 6908" d="M2468.839,1483.58s-42.183-1.626-51.5,10.439a30.525,30.525,0,0,1-8.4,11.79l-.989,2.694s7.311-7.708,9.926-8.173C2417.876,1500.328,2413.785,1485.381,2468.839,1483.58Z" transform="translate(-2399.256 -1483.507)" fill="#7d7d7d"/>
          <path id="Path_6909" data-name="Path 6909" d="M2388.815,1554.965s-9.054,6.694-9.685,18.66l1.645.148s2.89-12.37,8.119-17.209S2388.815,1554.965,2388.815,1554.965Z" transform="translate(-2379.13 -1532.666)" fill="#9b9b9b"/>
        </g>
      </g>
      <g id="Group_5792" data-name="Group 5792" transform="translate(0 27.162)">
        <path id="Path_6910" data-name="Path 6910" d="M2170.6,1364.313s17.019-9.531,9.075-22.465c0,0-6.353-7.94-13.159-9.983,0,0,3.629,19.288,0,19.743s-2.5-21.786-2.5-21.786-17.84-3.569-24.873-2.89c0,0,11.031,13.782,7.4,13.326s-16.11-19.514-16.11-19.514-18.38-3.4-21.331,7.488,1.817,16.337,4.538,17.019,20.2.452,19.743,2.721-12.255,5.9-18.835,3.859c0,0,7.262,17.927,16.793,17.019s12.48-6.806,18.379-7.262,10.213,1.134,7.262,2.721-12.935.522-17.7,4.571-8.623,6.547.226,8.364,24.734.681,27.911-6.128Z" transform="translate(-2108.175 -1320.242)" fill="#b8b9b9"/>
        <g id="Group_5791" data-name="Group 5791" transform="translate(9.324 11.395)">
          <path id="Path_6911" data-name="Path 6911" d="M2139.08,1358.01s47.653,15.429,53.1,32.677a36.24,36.24,0,0,0,4.538,16.566v3.4s-4.992-11.573-7.714-13.16C2189,1397.5,2199.668,1382.521,2139.08,1358.01Z" transform="translate(-2139.08 -1358.01)" fill="#929292"/>
          <path id="Path_6912" data-name="Path 6912" d="M2324.859,1516.327s7.349,11.16,3.158,24.745l-1.891-.507s1.835-14.961-2.009-22.489S2324.859,1516.327,2324.859,1516.327Z" transform="translate(-2267.219 -1467.083)" fill="#a3a4a7"/>
        </g>
      </g>
      <g id="Group_5794" data-name="Group 5794" transform="translate(74.752)">
        <path id="Path_6913" data-name="Path 6913" d="M2370.693,1288.3s-22.435-12.563-11.965-29.612c0,0,8.375-10.469,17.348-13.16,0,0-4.785,25.424,0,26.024s3.292-28.716,3.292-28.716,23.629-11.365,32.9-10.469c0,0-14.656,24.827-9.872,24.23s21.237-25.726,21.237-25.726,24.229-4.487,28.118,9.871-2.392,21.536-5.982,22.434-26.622.6-26.024,3.59,16.152,7.778,24.826,5.084c0,0-9.573,23.629-22.135,22.434s-16.451-8.972-24.23-9.573-13.461,1.5-9.572,3.59,17.049.685,23.33,6.028,11.368,8.632-.3,11.024-32.605.9-36.793-8.077Z" transform="translate(-2355.944 -1230.21)" fill="#c4c4c4"/>
        <g id="Group_5793" data-name="Group 5793" transform="translate(2.9 15.018)">
          <path id="Path_6914" data-name="Path 6914" d="M2460.978,1279.99s-62.817,20.341-69.994,43.074c0,0,.3,10.171-5.983,21.837v4.483s6.581-15.254,10.17-17.348C2395.17,1332.036,2381.112,1312.294,2460.978,1279.99Z" transform="translate(-2379.134 -1279.99)" fill="#ababab"/>
          <path id="Path_6915" data-name="Path 6915" d="M2371.424,1488.667s-9.688,14.711-4.164,32.617l2.492-.67s-2.42-19.722,2.649-29.642S2371.424,1488.667,2371.424,1488.667Z" transform="translate(-2365.557 -1423.759)" fill="#699dee"/>
        </g>
      </g>
      <path id="Path_6916" data-name="Path 6916" d="M2300.613,1630.236a43.945,43.945,0,0,0,43.945-43.946H2256.67A43.942,43.942,0,0,0,2300.613,1630.236Z" transform="translate(-2211.869 -1478.861)" fill="#a7a7a7"/>
      <path id="Path_6917" data-name="Path 6917" d="M2323.814,1629.908a43.968,43.968,0,0,1-49.4-43.608h10.919A43.954,43.954,0,0,0,2323.814,1629.908Z" transform="translate(-2224.256 -1478.868)" fill="#ccc"/>
      <path id="Path_6918" data-name="Path 6918" d="M2338.333,1721.39h-78.261a5.423,5.423,0,0,0-5.421,5.422h89.1A5.424,5.424,0,0,0,2338.333,1721.39Z" transform="translate(-2210.458 -1573.201)" fill="#b1b1b1"/>
      <rect id="Rectangle_485" data-name="Rectangle 485" width="90.335" height="1.349" transform="translate(43.353 107.429)" fill="gray"/>
    </g>
    <g id="Group_5796" data-name="Group 5796" transform="translate(1293.064 4000.736)">
      <path id="Path_6919" data-name="Path 6919" d="M1324.688,942.6,1305.7,1168.413s-1.991,13.688,8.192,13.712c16.741.039,83.327,0,83.327,0s-12.6-2.851-12.448-9.259c.181-7.558,22.2-232.406,22.2-232.406Z" transform="translate(-1118.46 -819.714)" fill="#888"/>
      <path id="Path_6920" data-name="Path 6920" d="M1415.29,1168.545c-3.292.009-66.89.208-83.194,0-7.1-.088-8.351-6.317-8.411-10.349a19.952,19.952,0,0,1,.217-3.361l.495-5.868,1.258-14.958,1.11-13.218,1.43-16.983,1.2-14.334,13.495-160.459,82.277-2.136s-9.274,94.1-15.833,162.6c-.733,7.633-1.43,14.95-2.073,21.78q-.312,3.272-.606,6.39c-.609,6.48-1.165,12.433-1.647,17.686-.257,2.77-.492,5.343-.7,7.7-.835,9.239-1.327,15.137-1.333,16.259a9.4,9.4,0,0,0,.16,1.828C1404.486,1168.31,1414.053,1168.545,1415.29,1168.545Z" transform="translate(-1131.13 -810.23)" fill="#e1e1e1"/>
      <path id="Path_6921" data-name="Path 6921" d="M1101.734,540.24H706.72l46.26,185.82,6.332,25.448,21.547,86.549h400.29Z" transform="translate(-700.306 -540.24)" fill="#fff"/>
      <path id="Path_6922" data-name="Path 6922" d="M691.871,540.24l-6.411,2.139,72.031,302.144,8.523-6.463Z" transform="translate(-685.46 -540.24)" fill="#d5d5d5"/>
      <path id="Path_6923" data-name="Path 6923" d="M924.21,1533.842h397.826l10.985-6.462H932.733Z" transform="translate(-852.179 -1229.56)" fill="#d5d5d5"/>
      <rect id="Rectangle_486" data-name="Rectangle 486" width="86.135" height="4.094" transform="translate(297.869 362.5) rotate(180)" fill="#b7b7b7"/>
      <path id="Path_6924" data-name="Path 6924" d="M1411.67,1548.8l-.446,3.128-81,16.365,1.11-13.215.531-6.279Z" transform="translate(-1135.696 -1244.517)" fill="#e6e6e6"/>
      <path id="Path_6925" data-name="Path 6925" d="M1415.3,1668.828c-3.291.009-66.89.208-83.194,0-7.1-.088-8.351-6.318-8.411-10.349l80.624-15.169c-.836,9.238-1.328,15.136-1.334,16.258a9.464,9.464,0,0,0,.16,1.828C1404.491,1668.593,1414.058,1668.828,1415.3,1668.828Z" transform="translate(-1131.136 -1310.513)" fill="#dbdbdb"/>
      <path id="Path_6926" data-name="Path 6926" d="M1089.371,1333.367l-170.639,58.509L904.16,1333.33Z" transform="translate(-838.178 -1094.054)" fill="#ebebeb" opacity="0.2"/>
      <path id="Path_6927" data-name="Path 6927" d="M1101.727,540.24H706.71l59.534,239.276,399.307.078Z" transform="translate(-700.299 -540.24)" fill="#dbdbdb"/>
    </g>
    <path id="Path_6928" data-name="Path 6928" d="M1601.353,1409.269a13.534,13.534,0,0,0-12.695-10.629c-5.871,0-9.7,4.758-8.562,10.629a13.535,13.535,0,0,0,12.7,10.629C1598.662,1419.9,1602.494,1415.14,1601.353,1409.269Z" transform="translate(-16.979 2861.078)" fill="#dcdcdc"/>
    <path id="Path_6929" data-name="Path 6929" d="M1185.065,798.9H815.211L773.326,632.041l-3.21-12.8-2.743-10.915-6.423-25.59h364.524l7.054,25.59,3.011,10.915,3.527,12.8Z" transform="translate(554.89 3430.821)" fill="#fff"/>
    <path id="Path_6930" data-name="Path 6930" d="M1125.474,582.74H760.95l6.423,25.59h365.155Z" transform="translate(554.89 3430.821)" fill="#c4c4c4"/>
    <g id="Group_5797" data-name="Group 5797" transform="translate(1330.82 4021.927)">
      <path id="Path_6931" data-name="Path 6931" d="M813.1,610.47a2.416,2.416,0,0,0-2.4,3.2,4.367,4.367,0,0,0,4,3.2,2.416,2.416,0,0,0,2.4-3.2A4.371,4.371,0,0,0,813.1,610.47Z" transform="translate(-810.603 -610.47)" fill="#e9f3fe"/>
      <path id="Path_6932" data-name="Path 6932" d="M848.343,610.47a2.416,2.416,0,0,0-2.4,3.2,4.367,4.367,0,0,0,4,3.2,2.416,2.416,0,0,0,2.4-3.2A4.378,4.378,0,0,0,848.343,610.47Z" transform="translate(-835.211 -610.47)" fill="#e9f3fe"/>
      <path id="Path_6933" data-name="Path 6933" d="M890.271,613.668a4.367,4.367,0,0,0-4-3.2,2.417,2.417,0,0,0-2.4,3.2,4.368,4.368,0,0,0,4,3.2A2.415,2.415,0,0,0,890.271,613.668Z" transform="translate(-861.697 -610.47)" fill="#e9f3fe"/>
    </g>
    <g id="Group_5798" data-name="Group 5798" transform="translate(1715.333 4119.318)">
      <path id="Path_6934" data-name="Path 6934" d="M2362.4,1645.51l-3.85,16.217-5.765-.033-.211-16.183Z" transform="translate(-2271.873 -1430.63)" fill="#e49963"/>
      <path id="Path_6935" data-name="Path 6935" d="M2189.123,1642.863l-10.951,15.526-4.272-5.482,6.595-12.177Z" transform="translate(-2147.107 -1427.292)" fill="#e49963"/>
      <path id="Path_6936" data-name="Path 6936" d="M2304.3,935.086a11.169,11.169,0,0,1,6.046-1.155,2.833,2.833,0,0,0-1.276-.606,9.375,9.375,0,0,1,3.346.872c14.394-5.545,16.657,15.646,16.352,20.57s4.837,6.532,12.324,10.412c14.29,7.4,15.544,17.315,15.544,17.315-.112.066-.226.142-.349.226-.709-1.2-2.169-3.458-3.4-3.8a50.76,50.76,0,0,1,1.979,4.821c-4.214,3.207-12.1,10.312-17.594,15.347a8.094,8.094,0,0,0-.374-3.12l-.679,4.088c-2.941,2.7-4.969,4.607-4.969,4.607.362-3.979-18-24.975-27.573-31.265-2.332-3.433-3.161-9.5-3.222-9.974.4,4.809,1.225,7.506,1.961,9.024C2294.3,964.984,2299.018,938.085,2304.3,935.086Z" transform="translate(-2233.798 -933.278)" fill="#3a3a3a"/>
      <path id="Path_6937" data-name="Path 6937" d="M2318.559,1034.48c-.048.021,4.625,2.447,8.14,1.487,3.306-.9,5.467-5.189,5.421-5.2-1.4-.278-1.8-2.2-1.774-10.469l-.633.124-10.641,2.106s.241,3.349.25,6.5C2319.329,1031.686,2319.169,1034.2,2318.559,1034.48Z" transform="translate(-2248.123 -994.045)" fill="#e49963"/>
      <path id="Path_6938" data-name="Path 6938" d="M2331.042,944.818s-5.25-5.591-11.841-.287C2319.2,944.531,2323.038,943.87,2331.042,944.818Z" transform="translate(-2248.571 -939.54)" fill="#fff"/>
      <path id="Path_6939" data-name="Path 6939" d="M2320.26,1022.826s.241,3.349.25,6.5c5.956-.169,9.1-5.6,10.394-8.61Z" transform="translate(-2249.311 -994.339)" fill="#d68d5d"/>
      <path id="Path_6940" data-name="Path 6940" d="M2316.491,966.257s3.12-4.93,3.871-9.148c.534-3.011-1-14.168-12.21-12.563a15.211,15.211,0,0,0-6.317,2.39c-2.435,1.644-5.946,5.2-2.019,14.931l1.02,3.289Z" transform="translate(-2233.802 -941.037)" fill="#163560"/>
      <path id="Path_6941" data-name="Path 6941" d="M2179.67,1384.469l5.642.172,6.107.187s14.1-15.7,22.015-40.875c.184-.585.38-1.176.586-1.777,4.329-12.626,13.3-28.471,18.035-42.814.755-2.284,1.43-4.435,2.037-6.471.193-.651.383-1.291.563-1.922a152.051,152.051,0,0,0,5.425-28.559l-34.156.275A637.266,637.266,0,0,1,2179.67,1384.469Z" transform="translate(-2151.136 -1163.111)" fill="#acacac"/>
      <path id="Path_6942" data-name="Path 6942" d="M2271.067,1095.812c.088,16.253-2.383,23.228-2.383,23.228a45.885,45.885,0,0,0,32,1.961c.205-.063,14.392-3.3,14.392-3.3-.29-.658-2.879-11.613-3.162-12.216-3.669-7.88-6.457-11.335-6.891-13.757a51.494,51.494,0,0,1-.422-13.616,109.106,109.106,0,0,1,4.214-21.384c-4.736-1.077-9.171-2.972-14.1-4.818-1.134,1.412-4.6,2.89-7.606,2.821-3.464-.075-4.586-1.56-4.405-3.177-3.69,2.055-6.635,3.991-6.635,3.991-3.134,5.446-9.494,10.738-9.956,19.092C2266,1076.688,2271.065,1095.357,2271.067,1095.812Z" transform="translate(-2211.5 -1015.867)" fill="#f6f6f6"/>
      <path id="Path_6943" data-name="Path 6943" d="M2149.82,1071.668c5.014-5.856,18-18.561,31.41-20.118l-11.567,22.537a9.977,9.977,0,0,1-4.076,6.113c-8.391,5.515-19.058,7.953-19.058,7.953a100.214,100.214,0,0,1-17.1-10.388c-3.1-2.272-8.547-10.937-8.547-10.937l1.47-4.917s9.246,5.171,12.55,6.661c1.882.851,6.218,2.879,9.271,4.315A4.77,4.77,0,0,0,2149.82,1071.668Z" transform="translate(-2110.084 -1015.867)" fill="#c7c7c7"/>
      <path id="Path_6944" data-name="Path 6944" d="M2302.811,982.576s14.089.232,14.1-8.544,1.835-14.656-7.16-15.176-10.746,2.827-11.461,5.757S2299.145,982.289,2302.811,982.576Z" transform="translate(-2233.849 -951.102)" fill="#e49963"/>
      <path id="Path_6945" data-name="Path 6945" d="M2315.39,954.132s3.858,10.3,9.778,11.817,8.49-.063,8.49-.063a16.779,16.779,0,0,1-5.485-9.9S2318.3,949.232,2315.39,954.132Z" transform="translate(-2245.909 -946.595)" fill="#363636"/>
      <path id="Path_6946" data-name="Path 6946" d="M2302.047,957.144s-2.881,2.3-3.584,4.534-1.019,6.836-2.36,6.679c0,0-2.9-7,.36-10.957C2299.929,953.2,2302.047,957.144,2302.047,957.144Z" transform="translate(-2231.61 -948.771)" fill="#363636"/>
      <path id="Path_6947" data-name="Path 6947" d="M2097.357,1071.422a8.8,8.8,0,0,0-9.857-6.149c-.9.284-3.542,1.337-1.856,4.161,1.243,2.082,1.783,1.008,3.739,3.807s4.078,3.43,6.5,3.1Z" transform="translate(-2085.094 -1025.382)" fill="#e49963"/>
      <path id="Path_6948" data-name="Path 6948" d="M2355.753,1696.25a15.634,15.634,0,0,0,.732,6.65s.945,4.3-3.291,4.381-5.274-.32-4.794-2.957,1.392-7.2,1.392-7.2Z" transform="translate(-2268.886 -1466.061)" fill="#e49963"/>
      <path id="Path_6949" data-name="Path 6949" d="M2347.323,1724.256a2.8,2.8,0,0,0,.266.142h8.29a1.815,1.815,0,0,0,.235-.142c.48-2.157-.3-6.218-.3-6.218-4.8,4.4-7.8-.109-7.8-.109C2347.232,1719.807,2347.323,1724.256,2347.323,1724.256Z" transform="translate(-2268.206 -1481.201)" fill="#434343"/>
      <path id="Path_6950" data-name="Path 6950" d="M2140.073,1694.169s7.808-8.668,10.207-13.079l5.808,2.975-12.98,12.188-3.038-.4Z" transform="translate(-2123.485 -1455.475)" fill="#e49963"/>
      <path id="Path_6951" data-name="Path 6951" d="M2124.02,1705.548h10.686c1.029-.769,1.991-2.549,3.186-4.939a5.247,5.247,0,0,1,3.536-2.362v7.217h2.218l2.1-7.672c1.382-2.54.109-4.846-.865-6.851-1.132,0-4.176.772-9.945,7.271a7.562,7.562,0,0,1-6.07,2.829.749.749,0,0,1-.085.045C2125.3,1702.655,2124.3,1704.6,2124.02,1705.548Z" transform="translate(-2112.276 -1462.353)" fill="#434343"/>
      <path id="Path_6952" data-name="Path 6952" d="M2271.727,1051.54s-8.152,20.139-8.391,24.214-.96,66.649-.96,66.649.48,2.879-5.035,1.677-6.951-2.4-6.951-2.4,5.273-38.6,3.835-52.022,11.027-35.323,11.027-35.323Z" transform="translate(-2200.52 -1015.86)" fill="#929292"/>
      <path id="Path_6953" data-name="Path 6953" d="M2198.36,1441.919l6.105.187s14.1-15.7,22.015-40.874q.276-.878.586-1.777c4.329-12.626,13.3-28.471,18.036-42.814.754-2.284,1.429-4.435,2.036-6.472.193-.652.384-1.291.564-1.922l-5.029-3.816s-15.1,24.453-19.777,47.466C2218.833,1411.884,2202.572,1435.936,2198.36,1441.919Z" transform="translate(-2164.188 -1220.386)" fill="#7d7d7d"/>
      <path id="Path_6954" data-name="Path 6954" d="M2251.51,1153.6l.3.911,15.809-5.138a.611.611,0,0,0,.1-.564.449.449,0,0,0-.4-.35Z" transform="translate(-2201.303 -1083.54)" fill="#3d3d3d"/>
      <path id="Path_6955" data-name="Path 6955" d="M2335.725,1379c-.087,11.19.479,36.919,1.937,47.572h5.409c2.989,0,4.48-.042,4.48-.042,3.657-18.521,6.257-33.845,8.152-47.05,1.554-10.837,2.936-20.126,4-28.125,1.068-8.049,1.813-14.786,2.078-20.482q.064-1.344.087-2.615c.018-.851.021-1.678.016-2.48l-29.513-2.878C2332.741,1342.511,2335.773,1372.5,2335.725,1379Z" transform="translate(-2257.767 -1205.351)" fill="#acacac"/>
      <path id="Path_6956" data-name="Path 6956" d="M2367.84,1445.03c2.99,0,4.48-.042,4.48-.042,3.657-18.522,6.257-33.845,8.152-47.05,1.553-10.837,2.936-20.127,4-28.125,1.068-8.05,1.813-14.786,2.079-20.483l-10.828,6.369s6.911,2.438,4.275,20.9S2371.512,1442.417,2367.84,1445.03Z" transform="translate(-2282.536 -1223.807)" fill="#7d7d7d"/>
      <path id="Path_6957" data-name="Path 6957" d="M2339.881,1142.169s2.079,7.513,9.271,6.553,17.42-5.274,17.42-5.274-3.074-9.711-6.894-22.47c-4.628-15.447-10.354-35.359-13.054-47.92a77.357,77.357,0,0,1-1.467-8.562l-5.967-11.577s-8.9,19.967-9.377,25S2339.881,1142.169,2339.881,1142.169Z" transform="translate(-2255.97 -1016.824)" fill="#929292"/>
      <path id="Path_6958" data-name="Path 6958" d="M2322.688,1077.154l-7.875-24.254c.021.009,9.947,2.954,14.941,5.476,0,0,3.118,4.024,5.049,13.3,0,0,2.04,22.284-2.516,30.436,0,0-14.386,2.878-37.4-5.036v-5.273s25.174,1.318,30.327,1.919Z" transform="translate(-2231.594 -1016.81)" fill="#e49963"/>
      <path id="Path_6959" data-name="Path 6959" d="M2364.265,1135.071c.32,8.152,2.239,23.974,19.34,32.445.045.021.09.045.135.063-4.628-15.447-10.355-35.359-13.055-47.919C2367.548,1124.354,2364.091,1130.581,2364.265,1135.071Z" transform="translate(-2280.034 -1063.429)" fill="#b9b9b9"/>
      <path id="Path_6960" data-name="Path 6960" d="M2358.963,1052.9s14.6,1.029,18.115,8.861,4.634,33.884.159,41.556c0,0-6.16,1.756-17.058-.284-.132-.024-.268-.051-.4-.075,0,0-3.475-8.511-.359-10.188,0,0,9.19.48,8.23-2.558S2358.963,1052.9,2358.963,1052.9Z" transform="translate(-2275.747 -1016.81)" fill="#c7c7c7"/>
      <path id="Path_6961" data-name="Path 6961" d="M2274.3,1163.364a12.58,12.58,0,0,1-2.431-4.911c-.428-2.48-1.756-4.32-5.216-4.776s-4.951-.5-4.942.471,2.827,7.787,7.8,11.857S2274.3,1163.364,2274.3,1163.364Z" transform="translate(-2208.425 -1086.963)" fill="#e49963"/>
      <path id="Path_6962" data-name="Path 6962" d="M2247.74,1166.381l1.138-.881.3.914Z" transform="translate(-2198.669 -1095.438)" fill="#163560"/>
    </g>
    <path id="Path_6963" data-name="Path 6963" d="M1894.308,956.762a.642.642,0,0,1-.344-.1l-92.323-56.14a.665.665,0,1,1,.691-1.137l92.323,56.14a.665.665,0,0,1-.347,1.234Z" transform="translate(-171.6 3209.774)" fill="#163560"/>
    <g id="Group_5801" data-name="Group 5801" transform="translate(1372.385 4075.252)">
      <g id="Group_5799" data-name="Group 5799" transform="translate(0 6.088)">
        <path id="Path_6964" data-name="Path 6964" d="M1025.567,821.37c-1.955,1.656-5.913,4.767-7.494,6.088l4,50.076-41.215-18.422-7.494,6.089a50.241,50.241,0,1,0,98.946,12.334C1072.313,849.793,1053.311,821.37,1025.567,821.37Z" transform="translate(-964.759 -817.155)" fill="#b1b1b1"/>
        <path id="Path_6965" data-name="Path 6965" d="M993.073,807.4a50.262,50.262,0,0,0-44.7,37.743l48.709,12.334,7.494-6.088Z" transform="translate(-948.37 -807.4)" fill="#b4b4b4"/>
      </g>
      <g id="Group_5800" data-name="Group 5800" transform="translate(7.494)">
        <path id="Path_6966" data-name="Path 6966" d="M1046.917,820.85q-2.023,0-4,.16l4,50.077-48.71-12.334a50.242,50.242,0,1,0,48.71-37.9Z" transform="translate(-989.599 -810.704)" fill="#d2d2d2"/>
        <path id="Path_6967" data-name="Path 6967" d="M1017.913,787.22a50.262,50.262,0,0,0-44.7,37.743l48.71,12.334Z" transform="translate(-973.21 -787.22)" fill="#5e5e5e"/>
      </g>
    </g>
    <path id="Path_6968" data-name="Path 6968" d="M1100,778.733a.667.667,0,0,1-.47-1.137l29.995-30h192.907a.664.664,0,0,1,0,1.328H1130.077l-29.606,29.606A.658.658,0,0,1,1100,778.733Z" transform="translate(318.594 3315.698)" fill="#163560"/>
    <path id="Path_6969" data-name="Path 6969" d="M1294.01,958.639a.667.667,0,0,1-.471-1.137l32.291-32.291h142.188a.664.664,0,1,1,0,1.328H1326.383l-31.9,31.9A.643.643,0,0,1,1294.01,958.639Z" transform="translate(183.12 3191.675)" fill="#163560"/>
    <path id="Path_6970" data-name="Path 6970" d="M1387.078,717.128H1190.191l-3.991-6.118h196.887Z" transform="translate(257.94 3341.249)" fill="#e5e5e5"/>
    <path id="Path_6971" data-name="Path 6971" d="M1533.607,897.472H1391.262l-3.991-6.122h142.345Z" transform="translate(117.531 3215.316)" fill="#e5e5e5"/>
    <path id="Path_6972" data-name="Path 6972" d="M1548.768,1070.495h-52.451L1471.05,980.63H1523.5Z" transform="translate(59.027 3152.974)" fill="#e5e5e5"/>
    <path id="Path_6973" data-name="Path 6973" d="M1766.889,1070.495h-52.452L1689.17,980.63h52.451Z" transform="translate(-93.285 3152.974)" fill="#e5e5e5"/>
    <g id="Group_5802" data-name="Group 5802" transform="translate(1593.503 4101.199)">
      <path id="Path_6974" data-name="Path 6974" d="M1816.55,1009.31s17.836,20.018,18.693,27.672-8.493,19.634-8.493,19.634Z" transform="translate(-1775.735 -968.253)" fill="#b9b9b9"/>
      <path id="Path_6975" data-name="Path 6975" d="M1736.169,1699.353s-.38,6.745-1.478,9.648h-22.3a4.138,4.138,0,0,1,3.285-2.6c3.494-.673,9.337-3.375,11.453-8.463C1729.358,1692.588,1736.169,1699.353,1736.169,1699.353Z" transform="translate(-1703.001 -1447.684)" fill="#777"/>
      <path id="Path_6976" data-name="Path 6976" d="M1824.387,1699.353s-.38,6.745-1.475,9.648h-22.3a4.135,4.135,0,0,1,3.286-2.6c3.491-.673,9.337-3.375,11.453-8.463C1817.575,1692.588,1824.387,1699.353,1824.387,1699.353Z" transform="translate(-1764.605 -1447.684)" fill="#777"/>
      <path id="Path_6977" data-name="Path 6977" d="M1747.35,1284.653s3.125,22.024,14.783,61.122,13.245,56.029,13.245,56.029l12.505-.386s.105-42.73-5.265-62.389-1.158-70.878-1.158-70.878Z" transform="translate(-1727.413 -1149)" fill="#828282"/>
      <path id="Path_6978" data-name="Path 6978" d="M1727.158,1272.15a587.951,587.951,0,0,0,4.77,73.941c5.214,40.75,3.446,58.05,3.446,58.05l12.481.459s7.458-40.766,5.319-61.164,10.212-69.992,10.212-69.992Z" transform="translate(-1713.307 -1151.794)" fill="#b2b2b2"/>
      <path id="Path_6979" data-name="Path 6979" d="M1769.629,976.73l-6.65,4.806-9.609-1.973c.133-.854.766-4.4,1.346-7.609.036-.19.069-.38.1-.564.494-2.73.923-5.078.923-5.078l8.975-4.366,3.346-1.626c-.009.057-.26,3.032-.3,3.463A27.453,27.453,0,0,0,1769.629,976.73Z" transform="translate(-1731.617 -934.043)" fill="#ffb27d"/>
      <path id="Path_6980" data-name="Path 6980" d="M1763.232,1090.037c-1.93,9.7-34.05,10.852-42.332,2.046-.941-1-.989-5.675-.634-11.972.694-12.3,2.927-30.813,3.014-40.267a82.227,82.227,0,0,1,1.37-13.477,118.262,118.262,0,0,1,4.072-16.132s15.688-5.591,18.624-4.637C1761.494,1010.174,1765.162,1080.334,1763.232,1090.037Z" transform="translate(-1708.359 -965.583)" fill="#afafaf"/>
      <path id="Path_6981" data-name="Path 6981" d="M1720.75,1124.189c.694-12.3,2.927-30.813,3.014-40.268a82.321,82.321,0,0,1,1.369-13.477l9.437-1.834S1743.8,1110.142,1720.75,1124.189Z" transform="translate(-1708.838 -1009.662)" fill="#d8d8d8"/>
      <path id="Path_6982" data-name="Path 6982" d="M1731.465,1192.238a2.625,2.625,0,0,1-.709,2.833c-1.351,1.137-2.226,2.981-1.918,4.329s3.274,3.545,4.3,3.189,3.117-2.13,2.894-2.839,1.406-6.236-1.1-8.363S1731.465,1192.238,1731.465,1192.238Z" transform="translate(-1714.443 -1094.862)" fill="#ffb27d"/>
      <path id="Path_6983" data-name="Path 6983" d="M1708.841,1012.96s-9.2,1.9-16.539,13.809-12.158,20.766-10.806,25.059,13.664,19.179,15.788,19.179a5.884,5.884,0,0,0,5.741-5.53s-8.671-14.319-6.963-16.464c.73-.918,11.256-10.334,12.759-6.079C1711.309,1049.972,1708.841,1012.96,1708.841,1012.96Z" transform="translate(-1681.268 -970.802)" fill="#aaa"/>
      <path id="Path_6984" data-name="Path 6984" d="M1770.208,967.684c-1.97,3.68-9.316,6.86-12.378,8.031.036-.19.069-.38.1-.564.5-2.731.923-5.078.923-5.078l8.976-4.366C1769.813,965.681,1771.02,966.169,1770.208,967.684Z" transform="translate(-1734.731 -937.804)" fill="#fca56b"/>
      <path id="Path_6985" data-name="Path 6985" d="M1745.825,917.494s14.458,4.969,17.127-5,6.336-16.044-2.785-19.638-11.938-.377-13.564,2.712S1742.132,915.944,1745.825,917.494Z" transform="translate(-1725.085 -885.826)" fill="#ffb27d"/>
      <path id="Path_6986" data-name="Path 6986" d="M1751.323,882s.923,11.6,3.1,11.1,4.152-.878,3.832,2.618-3.337,7.536,3.373,8.155,16.355-18.452,14.512-22.06C1770.822,871.4,1743.636,869.3,1751.323,882Z" transform="translate(-1729.238 -873.224)" fill="#676767"/>
      <path id="Path_6987" data-name="Path 6987" d="M1752.624,998.852c.187-.088,11.573-3.789,12.811-3.34s1.97,3.086,1.97,3.086l-18.624,4.64S1750.247,999.957,1752.624,998.852Z" transform="translate(-1728.412 -958.592)" fill="#9b9b9b"/>
    </g>
    <path id="Path_7006" data-name="Path 7006" d="M793.37,1739.918H145.909a.666.666,0,0,1-.579-.724h0a.665.665,0,0,1,.579-.724H793.37a.665.665,0,0,1,.579.724h0A.666.666,0,0,1,793.37,1739.918Z" transform="translate(1147.734 2623.774)" fill="#283250"/>
  </g>
</svg>
