<svg xmlns="http://www.w3.org/2000/svg" width="42" height="32.618" viewBox="0 0 42 32.618">
  <g id="Delivering_relevant_products_" data-name="Delivering relevant products " transform="translate(0 -51.5)">
    <g id="Group_6873" data-name="Group 6873" transform="translate(27.363 77.53)">
      <g id="Group_6872" data-name="Group 6872" transform="translate(0 0)">
        <path id="Path_9216" data-name="Path 9216" d="M302.737,338.444a1.169,1.169,0,1,0-1.161,1.353A1.261,1.261,0,0,0,302.737,338.444Z" transform="translate(-300.41 -337.283)" fill="#fff"/>
      </g>
    </g>
    <g id="Group_6875" data-name="Group 6875" transform="translate(30.438 76.452)">
      <g id="Group_6874" data-name="Group 6874">
        <path id="Path_9217" data-name="Path 9217" d="M336.5,326.6a1.169,1.169,0,1,0-1.161,1.353A1.261,1.261,0,0,0,336.5,326.6Z" transform="translate(-334.171 -325.443)" fill="#fff"/>
      </g>
    </g>
    <g id="Group_6877" data-name="Group 6877" transform="translate(0 51.5)">
      <g id="Group_6876" data-name="Group 6876">
        <path id="Path_9218" data-name="Path 9218" d="M41.994,58.439V58.38a.733.733,0,0,0-.058-.117l-.044-.058-.087-.095-.051-.044-.095-.044h-.036L25.8,51.553a.729.729,0,0,0-.547,0L9.458,57.914H9.422l-.095.044L9.276,58l-.087.095-.044.058a.733.733,0,0,0-.058.117v.058a.726.726,0,0,0,0,.182v5.83H.729a.729.729,0,1,0,0,1.457v.095H9v2.492H6.165a.729.729,0,1,0,0,1.457H9v2.492H2.281a.729.729,0,0,0,0,1.457H9v3.046a.729.729,0,0,0,.452.67l15.8,6.558a.627.627,0,0,0,.5,0l15.8-6.558a.729.729,0,0,0,.452-.67V58.621A.726.726,0,0,0,41.994,58.439ZM25.519,53.032l5.99,2.4L17.882,61.193,11.652,58.6Zm-.751,29.279L10.457,76.35V73.785h3.024a.729.729,0,0,0,0-1.457H10.457V69.835h6.923a.729.729,0,1,0,0-1.457H10.457V65.893h1.457a.729.729,0,1,0,0-1.457H10.457V59.685l5.567,2.3,8.744,3.643v16.68ZM25.526,64.4l-5.757-2.412L33.41,56.2l5.968,2.4L30.685,62.25Zm.721,17.911V65.631l4.1-1.705,10.2-4.256.036,16.68Z" transform="translate(0 -51.5)" fill="#fff"/>
      </g>
    </g>
  </g>
</svg>
