<svg id="Improving_customer_experience_" data-name="Improving customer experience " xmlns="http://www.w3.org/2000/svg" width="42" height="42" viewBox="0 0 42 42">
  <path id="Path_9196" data-name="Path 9196" d="M7.71,44.931V36H6.355v8.931a2.032,2.032,0,1,0,1.355,0Zm-.677,2.585a.677.677,0,1,1,.677-.677A.678.678,0,0,1,7.032,47.516Z" transform="translate(-2.29 -12.29)" fill="#fff"/>
  <path id="Path_9197" data-name="Path 9197" d="M13.032,36a2.027,2.027,0,0,0-.677,3.94v8.931H13.71V39.94A2.027,2.027,0,0,0,13.032,36Zm0,2.71a.677.677,0,1,1,.677-.677A.678.678,0,0,1,13.032,38.71Z" transform="translate(-4.226 -12.29)" fill="#fff"/>
  <path id="Path_9198" data-name="Path 9198" d="M51.71,44.931V36H50.355v8.931a2.032,2.032,0,1,0,1.355,0Zm-.677,2.585a.677.677,0,1,1,.677-.677A.678.678,0,0,1,51.032,47.516Z" transform="translate(-16.484 -12.29)" fill="#fff"/>
  <path id="Path_9199" data-name="Path 9199" d="M57.032,36a2.027,2.027,0,0,0-.677,3.94v8.931H57.71V39.94A2.027,2.027,0,0,0,57.032,36Zm0,2.71a.677.677,0,1,1,.677-.677A.678.678,0,0,1,57.032,38.71Z" transform="translate(-18.419 -12.29)" fill="#fff"/>
  <path id="Path_9200" data-name="Path 9200" d="M30.129,22.677a2.021,2.021,0,0,0-.756.149,2.014,2.014,0,0,0-3.309-.975,1.97,1.97,0,0,0-2.032-.4V15.618a7.477,7.477,0,0,0,5.331-6.069l2.864,1.576a6.65,6.65,0,1,0,1.377-.79l-4.174-2.3a7.441,7.441,0,0,0-14.861,0l-4.174,2.3a6.85,6.85,0,1,0,1.376.789l2.865-1.576a7.472,7.472,0,0,0,5.332,6.07V28.106a2.032,2.032,0,0,1-.207.894l-.568-2.841a4.379,4.379,0,0,0-4.281-3.51,1.717,1.717,0,0,0-1.429,2.67l.7,1.046a3.022,3.022,0,0,1,.482,1.3l.469,3.748a4.6,4.6,0,0,0,.567,1.725l2.238,4.6v1.2H16.581V43h14.9V38.935H30.129V37.806l1.084-1.445a4.768,4.768,0,0,0,.948-2.845V24.71a2.035,2.035,0,0,0-2.032-2.032Zm6.1-.677a5.384,5.384,0,0,1-3.246-1.09,4.063,4.063,0,0,1,6.492,0A5.384,5.384,0,0,1,36.226,22Zm-2.032-6.1a2.032,2.032,0,1,1,2.032,2.032A2.035,2.035,0,0,1,34.194,15.9Zm2.032-4.742a5.413,5.413,0,0,1,4.222,8.809,5.417,5.417,0,0,0-1.986-1.543,3.387,3.387,0,1,0-4.472,0A5.424,5.424,0,0,0,32,19.97a5.413,5.413,0,0,1,4.222-8.809ZM7.774,22a5.385,5.385,0,0,1-3.246-1.09,4.063,4.063,0,0,1,6.492,0A5.384,5.384,0,0,1,7.774,22ZM5.742,15.9a2.032,2.032,0,1,1,2.032,2.032A2.035,2.035,0,0,1,5.742,15.9Zm7.452.677A5.388,5.388,0,0,1,12,19.97a5.417,5.417,0,0,0-1.986-1.543,3.387,3.387,0,1,0-4.472,0A5.424,5.424,0,0,0,3.553,19.97a5.417,5.417,0,1,1,9.641-3.39ZM15.9,8.452a6.1,6.1,0,1,1,10.946,3.68,5.4,5.4,0,0,0-2.6-2.518,3.387,3.387,0,1,0-4.49,0,5.4,5.4,0,0,0-2.6,2.519A6.081,6.081,0,0,1,15.9,8.452ZM24.032,7.1A2.032,2.032,0,1,1,22,5.065,2.035,2.035,0,0,1,24.032,7.1Zm-5.852,6.1a4.046,4.046,0,0,1,7.639,0,6.044,6.044,0,0,1-2.031,1.086,2.014,2.014,0,0,0-3.576,0A6.049,6.049,0,0,1,18.181,13.2Zm11.948,28.45H17.935V40.29H30.129Zm.677-8.129a3.406,3.406,0,0,1-.677,2.032l-1.355,1.807v1.58H19.29V37.425l-2.4-4.923a3.345,3.345,0,0,1-.42-1.259l-.469-3.749a4.376,4.376,0,0,0-.7-1.88l-.7-1.047a.362.362,0,0,1,.3-.564,3.02,3.02,0,0,1,2.953,2.42l.871,4.354h1.652l.579-1.158a3.406,3.406,0,0,0,.358-1.514V15.226a.677.677,0,0,1,1.355,0V26.065h1.355v-2.71a.677.677,0,1,1,1.355,0v2.71h1.355v-2.71a.677.677,0,0,1,1.355,0v2.71h1.355V24.71a.677.677,0,1,1,1.355,0Z" transform="translate(-1 -1)" fill="#fff"/>
</svg>
