<svg id="Mitigating_risk_and_fraud_" data-name="Mitigating risk and fraud " xmlns="http://www.w3.org/2000/svg" width="40.429" height="42" viewBox="0 0 40.429 42">
  <path id="Path_9142" data-name="Path 9142" d="M48.713,65.394h6.97a.7.7,0,0,0,0-1.394h-6.97a.7.7,0,1,0,0,1.394Zm0,0" transform="translate(-43.833 -58.424)" fill="#fff"/>
  <path id="Path_9143" data-name="Path 9143" d="M61.26,112H48.713a.7.7,0,1,0,0,1.394H61.26a.7.7,0,0,0,0-1.394Zm0,0" transform="translate(-43.834 -102.241)" fill="#fff"/>
  <path id="Path_9144" data-name="Path 9144" d="M59.866,160H48.713a.7.7,0,1,0,0,1.394H59.866a.7.7,0,0,0,0-1.394Zm0,0" transform="translate(-43.834 -146.059)" fill="#fff"/>
  <path id="Path_9145" data-name="Path 9145" d="M59.866,208H48.713a.7.7,0,1,0,0,1.394H59.866a.7.7,0,0,0,0-1.394Zm0,0" transform="translate(-43.834 -189.877)" fill="#fff"/>
  <path id="Path_9146" data-name="Path 9146" d="M59.866,256H48.713a.7.7,0,1,0,0,1.394H59.866a.7.7,0,1,0,0-1.394Zm0,0" transform="translate(-43.834 -233.695)" fill="#fff"/>
  <path id="Path_9147" data-name="Path 9147" d="M40.435,18.776A.656.656,0,0,0,40.4,18.6c-.007-.022-.013-.044-.023-.066a.687.687,0,0,0-.14-.2L34.66,12.751a.692.692,0,0,0-.209-.14c-.02-.008-.039-.014-.059-.021a.69.69,0,0,0-.189-.038c-.013,0-.025-.007-.038-.007H22.321V6.273c0-.015-.007-.029-.009-.044a.656.656,0,0,0-.036-.179c-.007-.022-.013-.044-.023-.066a.687.687,0,0,0-.14-.2L16.537.2a.7.7,0,0,0-.2-.14c-.02-.009-.041-.015-.062-.022a.717.717,0,0,0-.187-.037c-.011,0-.022-.005-.036-.005H3.5A3.49,3.49,0,0,0,.015,3.485V25.791A3.49,3.49,0,0,0,3.5,29.276H18.138v9.062a3.49,3.49,0,0,0,3.485,3.485H36.959a3.489,3.489,0,0,0,3.485-3.485V18.82c0-.015-.007-.029-.009-.044Zm-2.371-.653h-2.5a.7.7,0,0,1-.7-.7v-2.5ZM19.941,5.576h-2.5a.7.7,0,0,1-.7-.7V2.38ZM3.5,27.882a2.091,2.091,0,0,1-2.091-2.091V3.485A2.091,2.091,0,0,1,3.5,1.394H15.35V4.879A2.091,2.091,0,0,0,17.441,6.97h3.485v5.646a.169.169,0,0,0-.036.011,3.465,3.465,0,0,0-.581.18c-.07.027-.128.064-.193.1a3.525,3.525,0,0,0-.37.2c-.07.045-.133.1-.2.144a3.834,3.834,0,0,0-.3.247c-.062.059-.12.119-.178.182a3.293,3.293,0,0,0-.243.294q-.077.1-.146.209a3.461,3.461,0,0,0-.187.344c-.036.075-.074.146-.1.223a3.54,3.54,0,0,0-.129.415c-.018.07-.042.134-.056.209a3.484,3.484,0,0,0-.069.659v11.85ZM36.959,40.429H21.624a2.091,2.091,0,0,1-2.091-2.091V16.032a2.091,2.091,0,0,1,2.091-2.091h11.85v3.485a2.091,2.091,0,0,0,2.091,2.091H39.05v18.82A2.091,2.091,0,0,1,36.959,40.429Zm0,0" transform="translate(-0.015 0)" fill="#fff"/>
  <path id="Path_9148" data-name="Path 9148" d="M256.713,209.394h6.97a.7.7,0,1,0,0-1.394h-6.97a.7.7,0,1,0,0,1.394Zm0,0" transform="translate(-233.71 -189.877)" fill="#fff"/>
  <path id="Path_9149" data-name="Path 9149" d="M256.713,257.394H269.26a.7.7,0,1,0,0-1.394H256.713a.7.7,0,1,0,0,1.394Zm0,0" transform="translate(-233.71 -233.695)" fill="#fff"/>
  <path id="Path_9150" data-name="Path 9150" d="M256.713,305.394H269.26a.7.7,0,1,0,0-1.394H256.713a.7.7,0,1,0,0,1.394Zm0,0" transform="translate(-233.71 -277.512)" fill="#fff"/>
  <path id="Path_9151" data-name="Path 9151" d="M256.713,353.394H269.26a.7.7,0,1,0,0-1.394H256.713a.7.7,0,0,0,0,1.394Zm0,0" transform="translate(-233.71 -321.33)" fill="#fff"/>
  <path id="Path_9152" data-name="Path 9152" d="M268.563,400.7a.7.7,0,0,0-.7-.7H256.713a.7.7,0,0,0,0,1.394h11.153A.7.7,0,0,0,268.563,400.7Zm0,0" transform="translate(-233.71 -365.148)" fill="#fff"/>
  <path id="Path_9153" data-name="Path 9153" d="M288.071,9.9a.692.692,0,0,0,.151.225l2.957,2.956a.7.7,0,1,0,.986-.986L290.4,10.326h6.682a2.091,2.091,0,0,1,2.091,2.091V17.3a.7.7,0,0,0,1.394,0V12.417a3.489,3.489,0,0,0-3.485-3.485H290.4l1.768-1.767a.7.7,0,1,0-.986-.986l-2.957,2.956a.7.7,0,0,0-.151.762Zm0,0" transform="translate(-262.923 -5.446)" fill="#fff"/>
  <path id="Path_9154" data-name="Path 9154" d="M44.509,359.4a.691.691,0,0,0-.151-.225L41.4,356.218a.7.7,0,1,0-.986.986l1.768,1.767H35.5a2.091,2.091,0,0,1-2.091-2.091V352.7a.7.7,0,0,0-1.394,0v4.182a3.49,3.49,0,0,0,3.485,3.485h6.682l-1.768,1.767a.7.7,0,1,0,.986.986l2.957-2.956a.7.7,0,0,0,.151-.762Zm0,0" transform="translate(-29.228 -321.33)" fill="#fff"/>
  <path id="Path_9155" data-name="Path 9155" d="M387.5,400a.7.7,0,0,0-.7.7v1.394a.7.7,0,0,1-.7.7h-1.394a.7.7,0,1,0,0,1.394h1.394a2.091,2.091,0,0,0,2.091-2.091V400.7A.7.7,0,0,0,387.5,400Zm0,0" transform="translate(-350.558 -365.148)" fill="#fff"/>
</svg>
