<svg xmlns="http://www.w3.org/2000/svg" width="43.723" height="43" viewBox="0 0 43.723 43">
  <g id="Optimized_messaging_and_solutions" data-name="Optimized messaging and solutions" transform="translate(0.525 0.5)">
    <g id="Group_6865" data-name="Group 6865" transform="translate(0 0)">
      <g id="Group_6864" data-name="Group 6864">
        <path id="Path_9138" data-name="Path 9138" d="M42.515,37.165l-2.478-7.212a18.042,18.042,0,0,0-15.9-25.94A18.022,18.022,0,0,0,5.822,21.8,13.133,13.133,0,0,0,1.836,37.935L.129,42.9A2.347,2.347,0,0,0,2.34,46.011a2.363,2.363,0,0,0,.769-.129l4.968-1.707a13.188,13.188,0,0,0,5.615,1.268h.021a13.114,13.114,0,0,0,10.6-5.392,18.079,18.079,0,0,0,7.447-1.823l7.212,2.478a2.808,2.808,0,0,0,.913.154,2.789,2.789,0,0,0,2.627-3.694ZM13.711,42.9h-.017a10.622,10.622,0,0,1-4.933-1.225A1.27,1.27,0,0,0,7.755,41.6L2.661,43.35l1.75-5.094a1.27,1.27,0,0,0-.079-1.007A10.589,10.589,0,0,1,6.059,24.972,18.092,18.092,0,0,0,21.14,39.855,10.562,10.562,0,0,1,13.711,42.9Zm26.343-4.658a.23.23,0,0,1-.254.059L32.079,35.65a1.27,1.27,0,0,0-1.006.079,15.513,15.513,0,0,1-7.2,1.789h-.024A15.545,15.545,0,0,1,8.362,22.286,15.483,15.483,0,0,1,24.1,6.553a15.487,15.487,0,0,1,13.443,22.71,1.27,1.27,0,0,0-.079,1.007l2.653,7.721A.23.23,0,0,1,40.054,38.245Z" transform="translate(0 -4.011)" fill="#fff" stroke="#000" stroke-width="1"/>
      </g>
    </g>
    <g id="Group_6867" data-name="Group 6867" transform="translate(15.009 11.292)">
      <g id="Group_6866" data-name="Group 6866">
        <path id="Path_9139" data-name="Path 9139" d="M196.495,139.512H181.364a1.27,1.27,0,0,0,0,2.54h15.131a1.27,1.27,0,0,0,0-2.54Z" transform="translate(-180.094 -139.512)" fill="#fff" stroke="#000" stroke-width="1"/>
      </g>
    </g>
    <g id="Group_6869" data-name="Group 6869" transform="translate(15.009 16.515)">
      <g id="Group_6868" data-name="Group 6868">
        <path id="Path_9140" data-name="Path 9140" d="M196.495,202.183H181.364a1.27,1.27,0,1,0,0,2.54h15.131a1.27,1.27,0,1,0,0-2.54Z" transform="translate(-180.094 -202.183)" fill="#fff" stroke="#000" stroke-width="1"/>
      </g>
    </g>
    <g id="Group_6871" data-name="Group 6871" transform="translate(15.008 21.738)">
      <g id="Group_6870" data-name="Group 6870">
        <path id="Path_9141" data-name="Path 9141" d="M190.669,264.852h-9.307a1.27,1.27,0,1,0,0,2.54h9.306a1.27,1.27,0,0,0,0-2.54Z" transform="translate(-180.093 -264.852)" fill="#fff" stroke="#000" stroke-width="1"/>
      </g>
    </g>
  </g>
</svg>
