<svg id="Personalization_and_service_" data-name="Personalization and service " xmlns="http://www.w3.org/2000/svg" width="39.338" height="42" viewBox="0 0 39.338 42">
  <path id="Path_9211" data-name="Path 9211" d="M41.457,311.41a.62.62,0,0,0,.632.54H50.27a.61.61,0,0,0,.609-.794l-1.047-3.428,3.261-2.06a1.888,1.888,0,0,1,1.373-.175l.04.009,6.81,1.255a8.942,8.942,0,0,0,5.525-.78.618.618,0,0,0,.078-.045L78.7,297.845a.636.636,0,0,0,.185-.853,3.361,3.361,0,0,0-4.482-1.226l-.11.059a2.889,2.889,0,0,0-3.375-.775l-.014.007-.4.214a3.727,3.727,0,0,0-4.2-.33l-2.522,1.372H60.419a4.775,4.775,0,0,1-2.068-.474l-.467-.226a8.142,8.142,0,0,0-8.474.827l-.041.033-1.128,1a3.784,3.784,0,0,1-1.305.758l-.6-2a.654.654,0,0,0-.609-.47H40.27a.656.656,0,0,0-.476.233.636.636,0,0,0-.155.5ZM71.5,296.183a1.552,1.552,0,0,1,1.613.28l-4.3,2.321-.133.07a4,4,0,0,0-.488-.888Zm-4.578-.127.015-.008a2.453,2.453,0,0,1,2.292-.087l-1.991,1.073a3.992,3.992,0,0,0-1.113-.544Zm-17.831,2.373,1.108-.986a6.874,6.874,0,0,1,7.134-.683l.467.227a6.056,6.056,0,0,0,2.621.6h4.53a2.736,2.736,0,0,1,2.648,2.061l-3.116-.141a19.745,19.745,0,0,0-3.6.166.636.636,0,1,0,.175,1.261,18.5,18.5,0,0,1,3.364-.156l3.864.175h.029a.636.636,0,0,0,.636-.636c0-.057,0-.113,0-.169l.458-.242,5.6-3.02a2.09,2.09,0,0,1,2.407.3l-11.175,7.673a7.659,7.659,0,0,1-4.692.649l-6.789-1.25a3.157,3.157,0,0,0-2.3.313l-.029.018-2.982,1.885-2.139-7.016a5.059,5.059,0,0,0,1.781-1.026Zm-3.835-1.387,4.157,13.636H42.652l-1.663-13.636Z" transform="translate(-39.634 -269.951)" fill="#fff"/>
  <path id="Path_9212" data-name="Path 9212" d="M89.645,436.175a1.727,1.727,0,1,0-1.727-1.727A1.727,1.727,0,0,0,89.645,436.175Zm0-2.182a.455.455,0,1,1-.455.455A.455.455,0,0,1,89.645,433.994Z" transform="translate(-83.529 -395.656)" fill="#fff"/>
  <path id="Path_9213" data-name="Path 9213" d="M139.575,37.71l1.727.166a8.55,8.55,0,0,0,.855,2.031l-1.1,1.324a.636.636,0,0,0,.04.856l2.071,2.071a.636.636,0,0,0,.856.04l1.327-1.1a8.707,8.707,0,0,0,2.027.857l.166,1.733a.642.642,0,0,0,.634.581h2.936a.642.642,0,0,0,.633-.581l.166-1.73a8.555,8.555,0,0,0,2.031-.856l1.324,1.1a.636.636,0,0,0,.856-.041l2.07-2.071a.636.636,0,0,0,.04-.856l-1.1-1.328A8.706,8.706,0,0,0,158,37.876l1.7-.166a.636.636,0,0,0,.575-.633V34.141a.636.636,0,0,0-.575-.633l-1.727-.166a8.55,8.55,0,0,0-.855-2.031l1.1-1.324a.636.636,0,0,0-.037-.853l-2.044-2.071a.636.636,0,0,0-.858-.043l-1.327,1.1a8.707,8.707,0,0,0-2.027-.857l-.166-1.708a.62.62,0,0,0-.634-.557h-2.935a.62.62,0,0,0-.633.556l-.167,1.717a8.538,8.538,0,0,0-2.031.85l-1.324-1.1a.636.636,0,0,0-.856.039l-2.071,2.07a.636.636,0,0,0-.04.856l1.1,1.327a8.706,8.706,0,0,0-.857,2.027l-1.727.166a.636.636,0,0,0-.576.634v2.936a.636.636,0,0,0,.575.633Zm.7-2.991,1.6-.155a.636.636,0,0,0,.561-.5,7.449,7.449,0,0,1,1.04-2.463.636.636,0,0,0-.045-.751l-1.02-1.231,1.251-1.251,1.231,1.02a.636.636,0,0,0,.759.039,7.217,7.217,0,0,1,2.455-1.035.615.615,0,0,0,.5-.542l.155-1.582h1.78l.155,1.582a.626.626,0,0,0,.5.551,7.438,7.438,0,0,1,2.464,1.035.636.636,0,0,0,.751-.047l1.228-1.018,1.23,1.245-1.023,1.233a.636.636,0,0,0-.039.759,7.218,7.218,0,0,1,1.035,2.455.636.636,0,0,0,.561.5l1.6.155V36.5l-1.575.154a.636.636,0,0,0-.56.5,7.448,7.448,0,0,1-1.04,2.464.636.636,0,0,0,.045.751l1.02,1.231-1.251,1.251-1.231-1.02a.636.636,0,0,0-.759-.039,7.217,7.217,0,0,1-2.455,1.035.643.643,0,0,0-.5.567L150.539,45h-1.78l-.155-1.606a.64.64,0,0,0-.5-.564,7.454,7.454,0,0,1-2.463-1.041.636.636,0,0,0-.751.044l-1.231,1.019L142.409,41.6l1.02-1.231a.636.636,0,0,0,.039-.759,7.218,7.218,0,0,1-1.035-2.455.636.636,0,0,0-.561-.5l-1.6-.155Z" transform="translate(-129.967 -24.997)" fill="#fff"/>
  <path id="Path_9214" data-name="Path 9214" d="M192.622,84.554A6.352,6.352,0,1,0,186.27,78.2,6.352,6.352,0,0,0,192.622,84.554Zm0-11.431a5.079,5.079,0,1,1-5.079,5.079,5.079,5.079,0,0,1,5.079-5.079Z" transform="translate(-172.94 -67.591)" fill="#fff"/>
  <path id="Path_9215" data-name="Path 9215" d="M224.83,122.438a.636.636,0,0,0,.889,0l3.046-2.974a.636.636,0,1,0-.889-.911l-2.6,2.54-1.246-1.217a.636.636,0,1,0-.889.911Z" transform="translate(-206.283 -109.884)" fill="#fff"/>
</svg>
