<svg xmlns="http://www.w3.org/2000/svg" xmlns:xlink="http://www.w3.org/1999/xlink" width="410.064" height="262.703" viewBox="0 0 410.064 262.703">
  <defs>
    <linearGradient id="linear-gradient" y1="0.5" x2="1" y2="0.5" gradientUnits="objectBoundingBox">
      <stop offset="0" stop-color="#dae3fe"/>
      <stop offset="1" stop-color="#e9effd"/>
    </linearGradient>
    <clipPath id="clip-path">
      <path id="Path_9844" data-name="Path 9844" d="M816.487,706.468a5.561,5.561,0,0,1-5.545,5.545H507.123a5.561,5.561,0,0,1-5.545-5.545L499.09,541.126c.292-9.95,9.017-13.527,14.3-13.315l296.868-7.965A10.367,10.367,0,0,1,820.9,530.468Z" transform="translate(-499.09 -519.842)"/>
    </clipPath>
    <linearGradient id="linear-gradient-2" x1="-78.476" y1="0.5" x2="-77.476" y2="0.5" gradientUnits="objectBoundingBox">
      <stop offset="0" stop-color="#ff928e"/>
      <stop offset="1" stop-color="#feb3b1"/>
    </linearGradient>
    <linearGradient id="linear-gradient-3" x1="-85.189" y1="0.5" x2="-84.189" y2="0.5" xlink:href="#linear-gradient-2"/>
    <linearGradient id="linear-gradient-4" x1="-21.966" y1="0.5" x2="-20.966" y2="0.5" xlink:href="#linear-gradient-2"/>
    <linearGradient id="linear-gradient-5" x1="-36.482" y1="0.5" x2="-35.482" y2="0.5" xlink:href="#linear-gradient-2"/>
    <linearGradient id="linear-gradient-6" x1="1.122" y1="-1.063" x2="0.281" y2="1.294" xlink:href="#linear-gradient-2"/>
    <linearGradient id="linear-gradient-7" x1="2.899" y1="-0.089" x2="0.396" y2="0.511" xlink:href="#linear-gradient-2"/>
    <linearGradient id="linear-gradient-8" x1="-106.533" y1="-56.382" x2="-103.281" y2="-58.77" xlink:href="#linear-gradient-2"/>
  </defs>
  <g id="Predictive_Modeling_Tool" data-name="Predictive Modeling Tool" transform="translate(57.203 -47.741)">
    <g id="Illustration" transform="translate(-92.355 22.125)">
      <g id="Group_7133" data-name="Group 7133">
        <path id="Path_9786" data-name="Path 9786" d="M697.241,397.851c-7.109-7.363-15.518-14.547-17.71-24.546-3.795-17.3,12.43-32.054,17.74-48.953a41.2,41.2,0,0,0-35.539-53.375c-20.986-1.925-41.524,12.216-62.2,8.121C582.983,275.819,569.9,261.353,553.1,259.8c-19.772-1.823-36.177,14.5-55.059,20.645-22.585,7.35-47.068-.331-69.273-8.761s-45.564-17.834-68.97-13.8c-26.053,4.49-47.9,27.192-51.38,53.4-3.451,25.969,25.511,46.817.858,78-7.7,9.745-12.829,23.312-9.423,35.26,3.31,11.608,17.392,18.95,17.494,31.019.081,9.529-8.9,17.11-9.628,26.612-.621,8.155,5.244,15.7,12.451,19.56s15.571,4.811,23.7,5.686l-2.4,2.576c40.958,3.677,82.172,2.858,123.289,2.036l194.517-3.886c6.663-.132,13.488-.3,19.7-2.721s11.779-7.611,12.724-14.208c1.609-11.228-10.127-20.973-9.043-32.263,1.385-14.417,21.688-19.981,25.551-33.941C710.943,415.153,704.351,405.216,697.241,397.851Z" transform="translate(-263.63 -231.307)" fill="#f1f1f1"/>
        <g id="Group_7094" data-name="Group 7094" transform="translate(69.794 74.786)">
          <g id="Group_7093" data-name="Group 7093">
            <path id="Path_9797" data-name="Path 9797" d="M792.391,686.494a5.875,5.875,0,0,1-5.861,5.854H469.6a5.876,5.876,0,0,1-5.861-5.854L461.1,504.36c0-3.221,3.795-9.508,10.748-9.034l309.742-8.014a14.771,14.771,0,0,1,15.155,15.106Z" transform="translate(-461.1 -487.307)" fill="#9e9e9e"/>
            <path id="Path_9798" data-name="Path 9798" d="M816.487,706.468a5.561,5.561,0,0,1-5.545,5.545H507.123a5.561,5.561,0,0,1-5.545-5.545L499.09,541.126c.292-9.95,9.017-13.527,14.3-13.315l296.868-7.965A10.367,10.367,0,0,1,820.9,530.468Z" transform="translate(-490.982 -512.898)" fill="#f2f2f2"/>
            <g id="Group_7092" data-name="Group 7092" transform="translate(12.43 16.12)">
              <path id="Path_9799" data-name="Path 9799" d="M524.62,972.436a.214.214,0,0,1-.213-.211l-.2-13.409a.211.211,0,0,1,.211-.216h0a.214.214,0,0,1,.213.211l.2,13.409a.212.212,0,0,1-.211.216Z" transform="translate(-523.17 -874.135)" fill="#5a5a5a"/>
              <path id="Path_9800" data-name="Path 9800" d="M520.307,628.279a.214.214,0,0,1-.213-.211l-.753-51.356a10.646,10.646,0,0,1,3.069-7.98c3.692-3.539,9.484-3.359,9.73-3.351l94.816-2.544a.208.208,0,0,1,.22.207.214.214,0,0,1-.207.22l-94.826,2.544c-.256-.009-5.873-.182-9.435,3.231a10.232,10.232,0,0,0-2.937,7.668l.753,51.352a.211.211,0,0,1-.211.215S520.309,628.279,520.307,628.279Z" transform="translate(-519.34 -562.836)" fill="#5a5a5a"/>
            </g>
            <path id="Path_9801" data-name="Path 9801" d="M571.205,743.081c.318-13.666.2-134.679-.585-145.13s15.492-12.411,40.482-13.589,235.844-5.833,241.271-6.272c12.2-.99,14.728,17.251,13.508,56.848-.918,29.749-2.437,78.755-3.137,101.293a12.439,12.439,0,0,1-12.406,12.054c-50.74.139-245.211.7-258.158,1.082C577.286,749.812,571.079,748.5,571.205,743.081Z" transform="translate(-547.225 -558.684)" fill="#aeaeae"/>
          </g>
        </g>
        <g id="Group_7095" data-name="Group 7095" transform="translate(97.697 45.622)">
          <path id="Path_9802" data-name="Path 9802" d="M597.771,496.441h90.212a5.21,5.21,0,0,0,5.21-5.21V356.113A5.211,5.211,0,0,0,688,350.9l-90.936-.243a5.208,5.208,0,0,0-5.222,5.237l.721,135.362A5.21,5.21,0,0,0,597.771,496.441Z" transform="translate(-591.84 -350.66)" fill="#979797"/>
          <path id="Path_9803" data-name="Path 9803" d="M620.744,381.9l80.666.5a5.286,5.286,0,0,1,5.252,5.31L706.1,508.981a5.283,5.283,0,0,1-5.188,5.259l-78.376,1.43a5.284,5.284,0,0,1-5.38-5.21l-1.727-123.2A5.285,5.285,0,0,1,620.744,381.9Z" transform="translate(-610.393 -375.232)" fill="#c7c7c7"/>
          <path id="Path_9804" data-name="Path 9804" d="M655.71,407.911v.557a1.582,1.582,0,0,0,1.582,1.581h62.151a1.582,1.582,0,0,0,1.582-1.581v-.557a1.582,1.582,0,0,0-1.582-1.581H657.292A1.581,1.581,0,0,0,655.71,407.911Z" transform="translate(-642.079 -394.449)" fill="#fff" opacity="0.6"/>
          <path id="Path_9805" data-name="Path 9805" d="M688.191,440.366h0a1.581,1.581,0,0,0,1.549,1.5l54.355.99a1.58,1.58,0,0,0,1.609-1.581v-.128a1.582,1.582,0,0,0-1.556-1.581l-54.355-.862A1.581,1.581,0,0,0,688.191,440.366Z" transform="translate(-667.626 -419.909)" fill="#fff" opacity="0.6"/>
          <path id="Path_9806" data-name="Path 9806" d="M640.291,586.106A4.191,4.191,0,0,1,636.11,582l-1.763-99.187a4.188,4.188,0,0,1,4.1-4.256l73.39-1.428a4.18,4.18,0,0,1,4.262,4.1l1.891,99.733a4.18,4.18,0,0,1-4.13,4.26l-73.518.881A.41.41,0,0,1,640.291,586.106Zm71.629-108.125h-.066l-73.39,1.428A3.335,3.335,0,0,0,635.2,482.8h0l1.763,99.187a3.336,3.336,0,0,0,3.327,3.27h.041l73.518-.881a3.331,3.331,0,0,0,3.289-3.391l-1.891-99.733a3.33,3.33,0,0,0-3.327-3.265Z" transform="translate(-625.275 -450.136)" fill="#fff" opacity="0.61"/>
          <path id="Path_9807" data-name="Path 9807" d="M719.3,524.744H639.237a.427.427,0,1,1,0-.854H719.3a.427.427,0,0,1,0,.854Z" transform="translate(-628.785 -486.919)" fill="#fff" opacity="0.61"/>
        </g>
        <g id="Group_7097" data-name="Group 7097" transform="translate(217.223 61.719)">
          <path id="Path_9808" data-name="Path 9808" d="M1316.316,426.854l-160.937-.775c-1.94-.017-3.515,2.128-3.5,4.768l.356,63.675c.015,2.655,1.631,4.772,3.581,4.693l160.019-3.428c1.861-.077,3.349-2.134,3.372-4.668l.561-59.473C1319.793,429.023,1318.243,426.871,1316.316,426.854Z" transform="translate(-1151.88 -426.079)" fill="#828282"/>
          <path id="Path_9809" data-name="Path 9809" d="M1166.945,510.466a.5.5,0,0,1-.429-.542l-.356-63.673a.642.642,0,0,1,.113-.378.384.384,0,0,1,.318-.173l160.937.775a.383.383,0,0,1,.314.175.616.616,0,0,1,.113.376l-.561,59.473a.5.5,0,0,1-.416.54h0Zm-.354-64.552a.174.174,0,0,0-.145.085.412.412,0,0,0-.073.25l.356,63.673c0,.175.1.331.214.331l160.03-3.428c.113,0,.207-.152.209-.329l.561-59.473a.417.417,0,0,0-.073-.25.172.172,0,0,0-.143-.087Z" transform="translate(-1163.112 -441.513)" fill="url(#linear-gradient)"/>
          <g id="Group_7096" data-name="Group 7096" transform="translate(10.025 9.431)">
            <rect id="Rectangle_821" data-name="Rectangle 821" width="7.833" height="29.928" transform="translate(0 24.247)" fill="#e5e5e5"/>
            <rect id="Rectangle_822" data-name="Rectangle 822" width="7.833" height="19.644" transform="translate(13.087 34.532)" fill="#e5e5e5"/>
            <rect id="Rectangle_823" data-name="Rectangle 823" width="7.833" height="45.064" transform="translate(26.174 9.111)" fill="#e5e5e5"/>
            <rect id="Rectangle_824" data-name="Rectangle 824" width="7.833" height="10.827" transform="translate(39.259 43.349)" fill="#e5e5e5"/>
            <rect id="Rectangle_825" data-name="Rectangle 825" width="7.833" height="39.039" transform="translate(52.346 15.136)" fill="#e5e5e5"/>
            <rect id="Rectangle_826" data-name="Rectangle 826" width="7.833" height="32.28" transform="translate(65.434 21.895)" fill="#e5e5e5"/>
            <rect id="Rectangle_827" data-name="Rectangle 827" width="7.833" height="24.932" transform="translate(78.521 29.243)" fill="#e5e5e5"/>
            <rect id="Rectangle_828" data-name="Rectangle 828" width="7.833" height="54.176" transform="translate(91.606)" fill="#e5e5e5"/>
            <rect id="Rectangle_829" data-name="Rectangle 829" width="7.833" height="48.445" transform="translate(104.693 5.73)" fill="#e5e5e5"/>
            <rect id="Rectangle_830" data-name="Rectangle 830" width="7.833" height="39.774" transform="translate(117.78 14.402)" fill="#e5e5e5"/>
            <rect id="Rectangle_831" data-name="Rectangle 831" width="7.833" height="9.822" transform="translate(130.865 44.354)" fill="#e5e5e5"/>
            <rect id="Rectangle_832" data-name="Rectangle 832" width="7.833" height="28.9" transform="translate(143.952 25.276)" fill="#e5e5e5"/>
          </g>
        </g>
        <g id="Group_7101" data-name="Group 7101" transform="translate(217.223 147.428)">
          <path id="Path_9810" data-name="Path 9810" d="M1316.316,828.444l-160.937-.775c-1.94-.017-3.515,2.128-3.5,4.768l.356,63.675c.015,2.655,1.631,4.772,3.581,4.693l160.019-3.428c1.861-.077,3.349-2.134,3.372-4.668l.561-59.473C1319.793,830.613,1318.243,828.461,1316.316,828.444Z" transform="translate(-1151.88 -827.669)" fill="#c7c7c7"/>
          <path id="Path_9811" data-name="Path 9811" d="M1166.945,912.056a.5.5,0,0,1-.429-.542l-.356-63.673a.642.642,0,0,1,.113-.378.384.384,0,0,1,.318-.173l160.937.772a.381.381,0,0,1,.314.177.616.616,0,0,1,.113.376l-.561,59.473a.5.5,0,0,1-.416.54h0Zm-.354-64.552a.173.173,0,0,0-.145.085.412.412,0,0,0-.073.25l.356,63.673c0,.175.1.331.214.331l160.03-3.428c.113,0,.207-.151.209-.329l.561-59.473a.417.417,0,0,0-.073-.25.18.18,0,0,0-.143-.088Z" transform="translate(-1163.112 -843.103)" fill="#fff"/>
          <g id="Group_7100" data-name="Group 7100" transform="translate(15.371 11.585)">
            <circle id="Ellipse_374" data-name="Ellipse 374" cx="16.662" cy="16.662" r="16.662" fill="#e9e9e9"/>
            <circle id="Ellipse_375" data-name="Ellipse 375" cx="16.662" cy="16.662" r="16.662" transform="translate(41.268)" fill="#e9e9e9"/>
            <circle id="Ellipse_376" data-name="Ellipse 376" cx="16.662" cy="16.662" r="16.662" transform="translate(82.678 0.544)" fill="#e9e9e9"/>
            <g id="Group_7098" data-name="Group 7098" transform="translate(3.248 3.793)">
              <path id="Path_9812" data-name="Path 9812" d="M1262.434,909.076a10.7,10.7,0,1,1-9.9-6.635c.181,0,.361,0,.54.013v-2.713c-.179-.006-.358-.011-.54-.011A13.406,13.406,0,1,0,1264.923,908Z" transform="translate(-1239.12 -899.728)" fill="#4a4a4a"/>
              <path id="Path_9813" data-name="Path 9813" d="M1451.416,922.189a10.7,10.7,0,1,1-5.7-19.759c.181,0,.361,0,.54.013v-2.713c-.179-.006-.359-.011-.54-.011a13.414,13.414,0,1,0,7.047,24.828Z" transform="translate(-1391.071 -899.72)" fill="#4a4a4a"/>
              <path id="Path_9814" data-name="Path 9814" d="M1649.824,919.152a10.7,10.7,0,1,1-8.851-16.722c.182,0,.361,0,.54.013v-2.713c-.179-.006-.358-.011-.54-.011a13.414,13.414,0,1,0,11.047,21.022Z" transform="translate(-1544.658 -899.72)" fill="#4a4a4a"/>
            </g>
            <g id="Group_7099" data-name="Group 7099" transform="translate(0.12 40.382)">
              <path id="Path_9815" data-name="Path 9815" d="M1254.7,1071.16h-27.152a3.086,3.086,0,0,0,0,6.172H1254.7a3.086,3.086,0,1,0,0-6.172Z" transform="translate(-1224.46 -1071.16)" fill="#fefefe"/>
              <path id="Path_9816" data-name="Path 9816" d="M1448.728,1071.16h-27.152a3.086,3.086,0,1,0,0,6.172h27.152a3.086,3.086,0,1,0,0-6.172Z" transform="translate(-1377.079 -1071.16)" fill="#fefefe"/>
              <path id="Path_9817" data-name="Path 9817" d="M1614.376,1077.332h27.152a3.086,3.086,0,1,0,0-6.172h-27.152a3.086,3.086,0,0,0,0,6.172Z" transform="translate(-1528.731 -1071.16)" fill="#fefefe"/>
            </g>
          </g>
        </g>
        <g id="Group_7106" data-name="Group 7106" transform="translate(113.215 108.385)">
          <g id="Group_7102" data-name="Group 7102" transform="translate(33.294 6.421)">
            <path id="Path_9818" data-name="Path 9818" d="M906.471,675.768a.205.205,0,0,1-.132-.047c-.222-.175-.446-.348-.672-.517a.213.213,0,1,1,.256-.341c.228.171.457.346.681.525a.213.213,0,0,1-.132.38Z" transform="translate(-887.433 -674.821)" fill="#fff"/>
            <path id="Path_9819" data-name="Path 9819" d="M837.493,741.271a.215.215,0,0,1-.211-.181.212.212,0,0,1,.179-.241c.546-.081,1.1-.177,1.639-.286a.213.213,0,0,1,.085.418c-.549.111-1.108.207-1.663.29Zm4.294-.939a.213.213,0,0,1-.06-.418c.531-.156,1.065-.327,1.586-.508a.213.213,0,0,1,.141.4c-.527.184-1.067.359-1.6.514A.167.167,0,0,1,841.787,740.332Zm4.123-1.52a.213.213,0,0,1-.088-.408c.5-.226,1.009-.469,1.5-.721a.214.214,0,1,1,.2.38c-.5.256-1.01.5-1.52.73A.226.226,0,0,1,845.91,738.813Zm3.878-2.068a.213.213,0,0,1-.113-.395c.143-.09.284-.179.425-.271.327-.211.651-.429.965-.647a.213.213,0,0,1,.243.35c-.318.222-.647.442-.978.655-.143.092-.288.184-.431.273A.189.189,0,0,1,849.788,736.745Zm3.564-2.572a.212.212,0,0,1-.164-.077.215.215,0,0,1,.028-.3c.425-.352.847-.721,1.253-1.095a.213.213,0,1,1,.288.314c-.412.38-.839.753-1.268,1.11A.219.219,0,0,1,853.353,734.173Zm3.18-3.031a.216.216,0,0,1-.143-.055.211.211,0,0,1-.013-.3c.374-.408.738-.83,1.088-1.255a.214.214,0,1,1,.331.271c-.354.431-.726.86-1.1,1.272A.227.227,0,0,1,856.532,731.142Zm2.732-3.438a.215.215,0,0,1-.177-.335c.312-.452.617-.922.907-1.394a.214.214,0,1,1,.365.224c-.294.478-.6.954-.92,1.413A.208.208,0,0,1,859.264,727.7Zm2.237-3.78a.2.2,0,0,1-.1-.024.213.213,0,0,1-.094-.286c.248-.493.487-1,.708-1.5A.215.215,0,0,1,862.3,722a.211.211,0,0,1,.109.282c-.226.512-.467,1.027-.717,1.526A.217.217,0,0,1,861.5,723.924Zm1.7-4.051a.242.242,0,0,1-.068-.011.214.214,0,0,1-.132-.271c.179-.523.346-1.056.5-1.588a.214.214,0,0,1,.412.117c-.154.538-.322,1.08-.5,1.609A.22.22,0,0,1,863.2,719.874Zm1.135-4.245a.261.261,0,0,1-.041,0,.213.213,0,0,1-.169-.25c.107-.542.2-1.095.277-1.641a.215.215,0,0,1,.241-.181.212.212,0,0,1,.181.241c-.079.555-.173,1.114-.282,1.663A.214.214,0,0,1,864.337,715.629Zm.548-4.36h-.013a.213.213,0,0,1-.2-.226c.032-.551.049-1.11.051-1.663a.212.212,0,0,1,.213-.211h0a.211.211,0,0,1,.211.216c0,.559-.021,1.127-.053,1.686A.211.211,0,0,1,864.886,711.268Zm-.049-4.394a.216.216,0,0,1-.214-.2c-.045-.551-.1-1.108-.175-1.654a.213.213,0,1,1,.423-.055c.073.555.134,1.118.177,1.677a.216.216,0,0,1-.2.23A.036.036,0,0,0,864.837,706.874Zm-.649-4.345a.216.216,0,0,1-.209-.167c-.119-.54-.254-1.082-.4-1.616a.214.214,0,0,1,.412-.113c.149.54.286,1.091.406,1.637a.213.213,0,0,1-.162.254A.327.327,0,0,1,864.188,702.529Zm-1.24-4.217a.214.214,0,0,1-.2-.139c-.192-.519-.4-1.039-.619-1.545a.213.213,0,1,1,.391-.169c.222.514.433,1.039.627,1.567a.215.215,0,0,1-.126.275A.284.284,0,0,1,862.948,698.311ZM861.14,694.3a.211.211,0,0,1-.188-.113c-.26-.487-.538-.973-.824-1.447a.213.213,0,0,1,.365-.22c.29.48.572.973.834,1.466a.214.214,0,0,1-.188.314Zm-2.333-3.724a.21.21,0,0,1-.173-.088c-.324-.448-.664-.892-1.01-1.321a.214.214,0,1,1,.333-.269c.35.435.7.886,1.024,1.34a.216.216,0,0,1-.047.3A.255.255,0,0,1,858.808,690.579Zm-2.813-3.376a.207.207,0,0,1-.154-.066c-.382-.4-.779-.792-1.182-1.172a.213.213,0,1,1,.292-.309c.408.384.811.783,1.2,1.187a.213.213,0,0,1-.006.3A.207.207,0,0,1,855.995,687.2Z" transform="translate(-833.709 -683.297)" fill="#fff"/>
            <path id="Path_9820" data-name="Path 9820" d="M820.763,946.257a.214.214,0,0,1-.009-.427c.282-.011.564-.023.847-.04a.214.214,0,1,1,.026.427c-.286.017-.572.032-.858.041Z" transform="translate(-820.549 -887.958)" fill="#fff"/>
          </g>
          <g id="Group_7103" data-name="Group 7103">
            <path id="Path_9821" data-name="Path 9821" d="M712.861,906.219a.217.217,0,0,1-.143-.053c-.213-.19-.425-.384-.634-.581a.213.213,0,1,1,.292-.309c.207.194.414.384.625.572a.213.213,0,0,1,.017.3A.209.209,0,0,1,712.861,906.219Z" transform="translate(-701.886 -849.624)" fill="#fff"/>
            <path id="Path_9822" data-name="Path 9822" d="M672.916,699.346a.209.209,0,0,1-.16-.073c-.386-.435-.768-.888-1.133-1.345a.214.214,0,1,1,.335-.267c.361.452.736.9,1.118,1.328a.215.215,0,0,1-.16.356Zm-2.8-3.633a.213.213,0,0,1-.177-.1c-.073-.111-.147-.222-.218-.333-.243-.378-.484-.768-.715-1.159a.213.213,0,1,1,.367-.218c.226.384.463.771.7,1.144.07.111.143.22.216.329a.214.214,0,0,1-.06.3A.217.217,0,0,1,670.12,695.713Zm-2.258-3.993a.213.213,0,0,1-.192-.122c-.252-.527-.491-1.069-.713-1.609a.213.213,0,0,1,.395-.162c.22.534.455,1.067.7,1.588a.211.211,0,0,1-.1.284A.207.207,0,0,1,667.862,691.72Zm-1.669-4.271a.213.213,0,0,1-.2-.149c-.173-.559-.333-1.129-.474-1.695a.213.213,0,1,1,.414-.1c.141.559.3,1.12.467,1.673a.213.213,0,0,1-.141.267A.326.326,0,0,1,666.193,687.449Zm-1.039-4.465a.215.215,0,0,1-.211-.179c-.092-.576-.169-1.163-.226-1.746a.214.214,0,1,1,.425-.045c.058.574.135,1.153.224,1.722a.211.211,0,0,1-.177.243A.186.186,0,0,1,665.154,682.985Zm-.388-4.569a.214.214,0,0,1-.213-.211c0-.147,0-.295,0-.444,0-.437.009-.879.028-1.317a.214.214,0,0,1,.427.017c-.017.431-.026.869-.026,1.3,0,.145,0,.292,0,.438a.211.211,0,0,1-.211.216Zm.262-4.578a.125.125,0,0,1-.028,0,.212.212,0,0,1-.183-.239c.075-.578.166-1.163.273-1.737a.213.213,0,1,1,.418.079c-.1.566-.2,1.144-.269,1.716A.21.21,0,0,1,665.028,673.837Zm.909-4.492a.182.182,0,0,1-.058-.009.216.216,0,0,1-.149-.263c.156-.563.329-1.129.516-1.682a.214.214,0,0,1,.406.137c-.184.546-.354,1.105-.508,1.66A.216.216,0,0,1,665.937,669.345Zm1.535-4.318a.242.242,0,0,1-.085-.017.214.214,0,0,1-.111-.282c.235-.536.487-1.071.749-1.592a.213.213,0,1,1,.38.192c-.258.512-.508,1.042-.739,1.571A.214.214,0,0,1,667.472,665.027Zm2.132-4.057a.222.222,0,0,1-.113-.032.214.214,0,0,1-.068-.294c.309-.5.634-.99.969-1.468a.213.213,0,1,1,.35.243c-.329.472-.651.958-.954,1.449A.22.22,0,0,1,669.6,660.97Zm2.689-3.709a.212.212,0,0,1-.162-.35c.376-.446.768-.888,1.167-1.315a.213.213,0,0,1,.309.292c-.395.42-.781.856-1.153,1.3A.223.223,0,0,1,672.293,657.261Zm3.193-3.289a.212.212,0,0,1-.143-.371c.435-.388.888-.77,1.345-1.135a.214.214,0,1,1,.267.335c-.45.361-.9.736-1.325,1.12A.23.23,0,0,1,675.486,653.972Zm3.628-2.8a.214.214,0,0,1-.117-.393l.371-.243c.367-.237.745-.469,1.12-.691a.213.213,0,1,1,.218.367c-.371.218-.743.448-1.105.683-.124.079-.245.16-.367.239A.214.214,0,0,1,679.114,651.174Zm3.987-2.264a.213.213,0,0,1-.092-.406c.527-.252,1.069-.493,1.609-.715a.214.214,0,0,1,.164.395c-.534.22-1.067.457-1.588.7A.215.215,0,0,1,683.1,648.909Zm4.269-1.673a.21.21,0,0,1-.2-.149.213.213,0,0,1,.141-.267c.559-.175,1.129-.335,1.695-.478a.213.213,0,0,1,.1.414c-.557.141-1.12.3-1.671.472A.33.33,0,0,1,687.369,647.236Zm4.465-1.046a.214.214,0,0,1-.034-.425c.576-.092,1.163-.169,1.744-.23a.214.214,0,1,1,.045.425c-.574.06-1.152.137-1.72.226A.218.218,0,0,1,691.834,646.19Z" transform="translate(-664.55 -645.363)" fill="#fff"/>
            <path id="Path_9823" data-name="Path 9823" d="M813.063,645.164a.214.214,0,0,1-.213-.211.211.211,0,0,1,.211-.216c.286,0,.572,0,.858,0a.216.216,0,0,1,.211.216.209.209,0,0,1-.216.211c-.282,0-.566,0-.847,0Z" transform="translate(-781.199 -644.733)" fill="#fff"/>
          </g>
          <g id="Group_7105" data-name="Group 7105" transform="translate(7.808 7.891)">
            <g id="Group_7104" data-name="Group 7104">
              <path id="Path_9824" data-name="Path 9824" d="M729.075,681.716a.383.383,0,0,0-.416.164l-2.559,3.938a20.416,20.416,0,0,0-6.556.98l-3.6-3.016a.382.382,0,0,0-.446-.034l-4.828,2.9a.388.388,0,0,0-.179.412l.975,4.591a20.429,20.429,0,0,0-3.94,5.331l-4.678.412a.39.39,0,0,0-.341.29l-1.362,5.466a.383.383,0,0,0,.164.416l3.938,2.559a20.479,20.479,0,0,0,.98,6.556l-3.016,3.6a.382.382,0,0,0-.034.446l2.9,4.828a.388.388,0,0,0,.412.179l4.591-.975a20.43,20.43,0,0,0,5.331,3.94l.412,4.678a.389.389,0,0,0,.29.341l5.466,1.362a.383.383,0,0,0,.416-.164l2.559-3.938a20.419,20.419,0,0,0,6.556-.98l3.6,3.016a.386.386,0,0,0,.446.034l4.828-2.9a.388.388,0,0,0,.179-.412l-.975-4.591a20.428,20.428,0,0,0,3.94-5.331l4.678-.412a.39.39,0,0,0,.341-.29l1.362-5.466a.382.382,0,0,0-.164-.416l-3.938-2.559a20.475,20.475,0,0,0-.98-6.556l3.016-3.6a.382.382,0,0,0,.034-.446l-2.9-4.828a.388.388,0,0,0-.412-.179l-4.591.975a20.427,20.427,0,0,0-5.331-3.94l-.412-4.678a.39.39,0,0,0-.29-.341Z" transform="translate(-701.135 -681.705)" fill="#848484"/>
            </g>
            <path id="Path_9825" data-name="Path 9825" d="M797.223,783.114a5.322,5.322,0,0,1-.017-10.643h.017a5.322,5.322,0,1,1,0,10.643Zm0-10h-.015a4.656,4.656,0,0,0-3.306,1.381h0a4.686,4.686,0,1,0,3.321-1.381Zm-3.549,1.157Z" transform="translate(-772.528 -753.099)" fill="#fff"/>
            <path id="Path_9826" data-name="Path 9826" d="M765.5,763.326a14.034,14.034,0,0,1-3.389-.418,13.917,13.917,0,0,1-3.805-25.427h0a13.894,13.894,0,0,1,2.254-1.095c.143-.053.286-.107.431-.156l.207.606a13.369,13.369,0,0,0-5.116,3.186l-.009.009-.019.019a13.272,13.272,0,1,0,15.672-2.356l.3-.566a13.922,13.922,0,0,1-6.527,26.2Z" transform="translate(-740.798 -724.593)" fill="#fff"/>
          </g>
        </g>
        <g id="Group_7110" data-name="Group 7110" transform="translate(150.509 86.072)">
          <g id="Group_7107" data-name="Group 7107" transform="translate(17.104 3.298)">
            <path id="Path_9827" data-name="Path 9827" d="M963.992,556.6a.219.219,0,0,1-.136-.049c-.214-.179-.437-.354-.66-.523a.213.213,0,0,1,.256-.342c.23.173.459.352.679.536a.215.215,0,0,1,.028.3A.219.219,0,0,1,963.992,556.6Z" transform="translate(-953.788 -555.641)" fill="#fff"/>
            <path id="Path_9828" data-name="Path 9828" d="M936.581,594.476a.216.216,0,0,1-.207-.16.214.214,0,0,1,.152-.26,15.855,15.855,0,0,0,1.618-.519.213.213,0,1,1,.151.4,16.873,16.873,0,0,1-1.66.531A.155.155,0,0,1,936.581,594.476Zm4.16-1.735a.213.213,0,0,1-.109-.4c.2-.115.395-.237.587-.363.284-.184.563-.376.832-.574a.214.214,0,1,1,.254.344c-.275.2-.563.4-.854.589-.2.128-.4.252-.6.371A.205.205,0,0,1,940.741,592.741Zm3.541-2.787a.206.206,0,0,1-.147-.06.213.213,0,0,1-.006-.3,15.867,15.867,0,0,0,1.112-1.283.213.213,0,1,1,.335.263,17.185,17.185,0,0,1-1.142,1.317A.21.21,0,0,1,944.281,589.953Zm2.653-3.643a.214.214,0,0,1-.188-.314,16.258,16.258,0,0,0,.724-1.537.213.213,0,0,1,.395.16,17.121,17.121,0,0,1-.743,1.577A.213.213,0,0,1,946.934,586.31Zm1.567-4.226a.393.393,0,0,1-.047,0,.213.213,0,0,1-.162-.254,16.534,16.534,0,0,0,.282-1.675.214.214,0,1,1,.425.049,16.9,16.9,0,0,1-.29,1.72A.21.21,0,0,1,948.5,582.084Zm.374-4.49a.213.213,0,0,1-.214-.2,16.662,16.662,0,0,0-.179-1.69.21.21,0,0,1,.177-.243.214.214,0,0,1,.245.177,16.889,16.889,0,0,1,.186,1.735.213.213,0,0,1-.2.224Zm-.858-4.426a.215.215,0,0,1-.2-.145,16.2,16.2,0,0,0-.634-1.577.214.214,0,1,1,.388-.179,16.5,16.5,0,0,1,.649,1.618.214.214,0,0,1-.132.271A.151.151,0,0,1,948.016,573.168Zm-2.025-4.025a.217.217,0,0,1-.177-.092,15.966,15.966,0,0,0-1.033-1.349.213.213,0,0,1,.324-.277,16.889,16.889,0,0,1,1.061,1.385.213.213,0,0,1-.056.3A.224.224,0,0,1,945.991,569.142Z" transform="translate(-932.752 -564.851)" fill="#fff"/>
            <path id="Path_9829" data-name="Path 9829" d="M919.643,695.163a.213.213,0,0,1-.006-.427c.277-.009.561-.026.841-.051a.213.213,0,1,1,.036.425c-.288.026-.578.043-.862.051A.017.017,0,0,1,919.643,695.163Z" transform="translate(-919.429 -665.009)" fill="#fff"/>
          </g>
          <g id="Group_7108" data-name="Group 7108">
            <path id="Path_9830" data-name="Path 9830" d="M863.109,673.661a.216.216,0,0,1-.143-.053c-.214-.19-.425-.391-.63-.591a.213.213,0,1,1,.3-.3c.2.2.406.391.615.576a.213.213,0,0,1,.017.3A.206.206,0,0,1,863.109,673.661Z" transform="translate(-857.367 -644.381)" fill="#fff"/>
            <path id="Path_9831" data-name="Path 9831" d="M842.624,568.1a.207.207,0,0,1-.173-.09c-.167-.231-.331-.472-.484-.711s-.3-.484-.446-.73a.214.214,0,1,1,.371-.213c.139.239.284.48.435.713s.309.467.474.694a.215.215,0,0,1-.049.3A.241.241,0,0,1,842.624,568.1Zm-2.09-3.912a.214.214,0,0,1-.2-.139,16.866,16.866,0,0,1-.514-1.637.214.214,0,1,1,.414-.107,16.032,16.032,0,0,0,.5,1.594.215.215,0,0,1-.126.275A.239.239,0,0,1,840.534,564.186Zm-.971-4.328a.215.215,0,0,1-.213-.2c-.04-.47-.06-.95-.06-1.421,0-.1,0-.2,0-.292a.21.21,0,0,1,.218-.209.213.213,0,0,1,.209.218c0,.1,0,.19,0,.286,0,.461.019.926.06,1.385a.213.213,0,0,1-.194.23Zm.22-4.429a.242.242,0,0,1-.038,0,.214.214,0,0,1-.171-.25,17.122,17.122,0,0,1,.4-1.669.213.213,0,1,1,.41.12c-.156.534-.286,1.08-.388,1.626A.218.218,0,0,1,839.783,555.43Zm1.383-4.213a.209.209,0,0,1-.094-.021.213.213,0,0,1-.1-.286c.25-.512.527-1.018.826-1.5a.214.214,0,1,1,.363.226,15.945,15.945,0,0,0-.8,1.464A.215.215,0,0,1,841.166,551.217Zm2.454-3.692a.212.212,0,0,1-.141-.053.215.215,0,0,1-.019-.3,16.225,16.225,0,0,1,1.2-1.227.213.213,0,0,1,.288.314,16.26,16.26,0,0,0-1.167,1.2A.208.208,0,0,1,843.62,547.524Zm3.353-2.9a.212.212,0,0,1-.117-.391l.094-.062c.448-.29.916-.561,1.387-.8a.214.214,0,1,1,.2.38c-.459.239-.916.5-1.353.785l-.092.06A.252.252,0,0,1,846.973,544.624Zm4-1.914a.213.213,0,0,1-.064-.416,16.344,16.344,0,0,1,1.658-.44.214.214,0,0,1,.09.418,16.059,16.059,0,0,0-1.616.429A.263.263,0,0,1,850.973,542.71Z" transform="translate(-839.29 -541.495)" fill="#fff"/>
            <path id="Path_9832" data-name="Path 9832" d="M913.743,540.628a.214.214,0,0,1-.009-.427c.286-.011.578-.015.864-.013a.213.213,0,0,1,0,.427h0c-.28,0-.563,0-.843.013Z" transform="translate(-897.685 -540.188)" fill="#fff"/>
          </g>
          <g id="Group_7109" data-name="Group 7109" transform="translate(4.115 4.156)">
            <path id="Path_9833" data-name="Path 9833" d="M872.923,559.667a.194.194,0,0,0-.213.085l-1.315,2.023a10.5,10.5,0,0,0-3.368.5l-1.848-1.549a.2.2,0,0,0-.231-.017l-2.48,1.492a.2.2,0,0,0-.092.211l.5,2.358a10.48,10.48,0,0,0-2.023,2.738l-2.4.211a.2.2,0,0,0-.175.149l-.7,2.809a.194.194,0,0,0,.085.213l2.023,1.315a10.5,10.5,0,0,0,.5,3.368l-1.549,1.848a.2.2,0,0,0-.017.228l1.492,2.48a.2.2,0,0,0,.211.092l2.358-.5a10.477,10.477,0,0,0,2.738,2.023l.211,2.4a.2.2,0,0,0,.149.175l2.809.7a.194.194,0,0,0,.214-.085l1.315-2.023a10.5,10.5,0,0,0,3.368-.5l1.848,1.549a.2.2,0,0,0,.228.017l2.48-1.492a.2.2,0,0,0,.092-.211l-.5-2.358a10.48,10.48,0,0,0,2.023-2.738l2.4-.211a.2.2,0,0,0,.175-.149l.7-2.809a.194.194,0,0,0-.085-.213l-2.023-1.315a10.5,10.5,0,0,0-.5-3.368l1.549-1.848a.2.2,0,0,0,.017-.228l-1.492-2.48a.2.2,0,0,0-.211-.092l-2.358.5a10.474,10.474,0,0,0-2.738-2.023l-.211-2.4a.2.2,0,0,0-.149-.175Z" transform="translate(-858.571 -559.661)" fill="#848484"/>
            <path id="Path_9834" data-name="Path 9834" d="M907.368,611.347a2.889,2.889,0,1,1,2.051-.852A2.878,2.878,0,0,1,907.368,611.347Zm-1.823-4.7.226.226a2.25,2.25,0,1,0,3.182-.011,2.251,2.251,0,0,0-3.182.011Z" transform="translate(-894.682 -595.772)" fill="#e2e2e2"/>
            <path id="Path_9835" data-name="Path 9835" d="M891.064,601.206a7.3,7.3,0,0,1-3.776-13.561h0a7.32,7.32,0,0,1,1.287-.613c.041-.015.081-.03.122-.043l.207.606a6.643,6.643,0,0,0-1.287.6c-.154.092-.3.19-.444.29h0s0,0,0,0h0a6.661,6.661,0,1,0,7.022-.463l.3-.566a7.3,7.3,0,0,1-3.427,13.747Z" transform="translate(-878.376 -581.157)" fill="#e2e2e2"/>
          </g>
        </g>
        <g id="Group_7117" data-name="Group 7117" transform="translate(77.902 81.73)">
          <g id="Group_7113" data-name="Group 7113" clip-path="url(#clip-path)">
            <path id="Path_9836" data-name="Path 9836" d="M597.771,1236.441h90.212a5.21,5.21,0,0,0,5.21-5.21V1096.113A5.211,5.211,0,0,0,688,1090.9l-90.936-.243a5.208,5.208,0,0,0-5.222,5.237l.721,135.362A5.21,5.21,0,0,0,597.771,1236.441Z" transform="translate(-572.045 -968.834)" fill="#8d8d8d"/>
            <path id="Path_9837" data-name="Path 9837" d="M620.744,1121.9l80.666.5a5.286,5.286,0,0,1,5.252,5.31l-.563,121.274a5.286,5.286,0,0,1-5.188,5.261l-78.376,1.43a5.284,5.284,0,0,1-5.38-5.21l-1.727-123.2A5.285,5.285,0,0,1,620.744,1121.9Z" transform="translate(-590.598 -993.406)" fill="#c7c7c7"/>
            <path id="Path_9838" data-name="Path 9838" d="M655.71,1147.911v.557a1.582,1.582,0,0,0,1.582,1.582h62.151a1.582,1.582,0,0,0,1.582-1.582v-.557a1.582,1.582,0,0,0-1.582-1.582H657.292A1.582,1.582,0,0,0,655.71,1147.911Z" transform="translate(-622.284 -1012.623)" fill="#e9e9e9"/>
            <path id="Path_9839" data-name="Path 9839" d="M688.191,1180.366h0a1.581,1.581,0,0,0,1.549,1.5l54.355.99a1.58,1.58,0,0,0,1.609-1.582v-.128a1.582,1.582,0,0,0-1.556-1.581l-54.355-.862A1.582,1.582,0,0,0,688.191,1180.366Z" transform="translate(-647.831 -1038.083)" fill="#e9e9e9"/>
            <g id="Group_7111" data-name="Group 7111" transform="translate(28.867 148.82)">
              <path id="Path_9840" data-name="Path 9840" d="M640.291,1326.117a4.191,4.191,0,0,1-4.181-4.109l-1.763-99.187a4.189,4.189,0,0,1,4.1-4.255l73.39-1.428a4.18,4.18,0,0,1,4.262,4.1l1.891,99.733a4.179,4.179,0,0,1-4.13,4.26l-73.518.881A.4.4,0,0,1,640.291,1326.117Zm71.629-108.127h-.066l-73.39,1.428a3.335,3.335,0,0,0-3.263,3.387h0l1.763,99.187a3.336,3.336,0,0,0,3.327,3.27h.041l73.518-.881a3.33,3.33,0,0,0,3.289-3.391l-1.891-99.733a3.329,3.329,0,0,0-3.327-3.265Z" transform="translate(-634.347 -1217.138)" fill="#fff"/>
            </g>
            <path id="Path_9841" data-name="Path 9841" d="M719.3,1264.744H639.237a.427.427,0,0,1,0-.854H719.3a.427.427,0,0,1,0,.854Z" transform="translate(-608.99 -1105.093)" fill="#fff"/>
            <g id="Group_7112" data-name="Group 7112" transform="translate(43.531 165.6)">
              <path id="Path_9842" data-name="Path 9842" d="M730.765,1310.032a2.16,2.16,0,0,0-2.094-2.254c-3.974-.126-12.737,1.014-20.928,11.781-11.034,14.5-2.045,34.457,21.238,34.835,21.394.348,28.716-15.806,28.379-25.581a1.875,1.875,0,0,0-2.469-1.694l-22.817,7.517a1.759,1.759,0,0,1-2.307-1.746Z" transform="translate(-703.055 -1305.207)" fill="#fff"/>
              <path id="Path_9843" data-name="Path 9843" d="M845.916,1297.848l-3.6,21.426a1.425,1.425,0,0,0,2,1.53l19.646-9.073a2.835,2.835,0,0,0,1.517-3.447c-1.253-3.829-5.124-10.9-16.786-12.5A2.487,2.487,0,0,0,845.916,1297.848Z" transform="translate(-812.576 -1295.763)" fill="#fff"/>
            </g>
          </g>
          <g id="Group_7116" data-name="Group 7116" clip-path="url(#clip-path)">
            <path id="Path_9845" data-name="Path 9845" d="M1316.316,1210.564l-160.937-.775c-1.94-.017-3.515,2.128-3.5,4.768l.356,63.675c.015,2.655,1.631,4.772,3.581,4.693l160.019-3.428c1.861-.077,3.349-2.134,3.372-4.668l.561-59.473C1319.793,1212.731,1318.243,1210.581,1316.316,1210.564Z" transform="translate(-1012.559 -1062.538)" fill="#c7c7c7"/>
            <path id="Path_9846" data-name="Path 9846" d="M1166.945,1294.166a.5.5,0,0,1-.429-.542l-.356-63.673a.642.642,0,0,1,.113-.378.384.384,0,0,1,.318-.173l160.937.772a.381.381,0,0,1,.314.177.617.617,0,0,1,.113.376l-.561,59.473a.5.5,0,0,1-.416.54h0Zm-.354-64.552a.173.173,0,0,0-.145.085.412.412,0,0,0-.073.25l.356,63.673c0,.175.1.331.214.331l160.03-3.428c.113,0,.207-.152.209-.329l.561-59.473a.417.417,0,0,0-.073-.25.18.18,0,0,0-.143-.088Z" transform="translate(-1023.791 -1077.963)" fill="#fff"/>
            <g id="Group_7114" data-name="Group 7114" transform="translate(152.348 159.327)">
              <path id="Path_9847" data-name="Path 9847" d="M1391.271,1488.95v2.584H1354.08v-2.584Z" transform="translate(-1323.953 -1441.446)" fill="#fff"/>
              <path id="Path_9848" data-name="Path 9848" d="M1438.379,1468.72v2.583H1413.97v-2.583Z" transform="translate(-1371.061 -1425.534)" fill="#fff"/>
              <path id="Path_9849" data-name="Path 9849" d="M1321.958,1448.48v2.585h-56v-2.585Z" transform="translate(-1254.64 -1409.613)" fill="#fff"/>
              <path id="Path_9850" data-name="Path 9850" d="M1478.762,1428.25v2.584H1465.31v-2.584Z" transform="translate(-1411.444 -1393.701)" fill="#fff"/>
              <path id="Path_9851" data-name="Path 9851" d="M1349.551,1408.01v2.585H1301.04v-2.585Z" transform="translate(-1282.233 -1377.781)" fill="#fff"/>
              <path id="Path_9852" data-name="Path 9852" d="M1380.511,1387.78v2.584H1340.4v-2.584Z" transform="translate(-1313.193 -1361.868)" fill="#fff"/>
              <path id="Path_9853" data-name="Path 9853" d="M1414.153,1367.54v2.584H1383.17v-2.584Z" transform="translate(-1346.835 -1345.948)" fill="#fff"/>
              <path id="Path_9854" data-name="Path 9854" d="M1280.238,1347.31v2.585H1212.92v-2.585Z" transform="translate(-1212.92 -1330.035)" fill="#fff"/>
              <path id="Path_9855" data-name="Path 9855" d="M1306.478,1327.08v2.584h-60.2v-2.584Z" transform="translate(-1239.16 -1314.123)" fill="#fff"/>
              <path id="Path_9856" data-name="Path 9856" d="M1346.185,1306.84v2.584H1296.76v-2.584Z" transform="translate(-1278.867 -1298.203)" fill="#fff"/>
              <path id="Path_9857" data-name="Path 9857" d="M1483.364,1286.61v2.585h-12.2v-2.585Z" transform="translate(-1416.046 -1282.29)" fill="#fff"/>
              <path id="Path_9858" data-name="Path 9858" d="M1395.983,1266.37v2.585H1360.07v-2.585Z" transform="translate(-1328.664 -1266.37)" fill="#fff"/>
            </g>
            <g id="Group_7115" data-name="Group 7115" transform="translate(228.652 159.327)">
              <path id="Path_9859" data-name="Path 9859" d="M1570.44,1488.95v2.584h37.191v-2.584Z" transform="translate(-1570.44 -1441.446)" fill="#fff"/>
              <path id="Path_9860" data-name="Path 9860" d="M1570.44,1468.72v2.583h24.409v-2.583Z" transform="translate(-1570.44 -1425.534)" fill="#fff"/>
              <path id="Path_9861" data-name="Path 9861" d="M1570.44,1448.48v2.585h56v-2.585Z" transform="translate(-1570.44 -1409.613)" fill="#fff"/>
              <path id="Path_9862" data-name="Path 9862" d="M1570.44,1428.25v2.584h13.454v-2.584Z" transform="translate(-1570.44 -1393.701)" fill="#fff"/>
              <path id="Path_9863" data-name="Path 9863" d="M1570.44,1408.01v2.585h48.513v-2.585Z" transform="translate(-1570.44 -1377.781)" fill="#fff"/>
              <path id="Path_9864" data-name="Path 9864" d="M1570.44,1387.78v2.584h40.113v-2.584Z" transform="translate(-1570.44 -1361.868)" fill="#fff"/>
              <path id="Path_9865" data-name="Path 9865" d="M1570.44,1367.54v2.584h30.983v-2.584Z" transform="translate(-1570.44 -1345.948)" fill="#fff"/>
              <path id="Path_9866" data-name="Path 9866" d="M1570.44,1347.31v2.585h67.32v-2.585Z" transform="translate(-1570.44 -1330.035)" fill="#fff"/>
              <path id="Path_9867" data-name="Path 9867" d="M1570.44,1327.08v2.584h60.2v-2.584Z" transform="translate(-1570.44 -1314.123)" fill="#fff"/>
              <path id="Path_9868" data-name="Path 9868" d="M1570.44,1306.84v2.584h49.425v-2.584Z" transform="translate(-1570.44 -1298.203)" fill="#fff"/>
              <path id="Path_9869" data-name="Path 9869" d="M1570.44,1286.61v2.585h12.206v-2.585Z" transform="translate(-1570.44 -1282.29)" fill="#fff"/>
              <path id="Path_9870" data-name="Path 9870" d="M1570.44,1266.37v2.585h35.913v-2.585Z" transform="translate(-1570.44 -1266.37)" fill="#fff"/>
            </g>
          </g>
        </g>
        <g id="Group_3878" data-name="Group 3878" transform="translate(311.051 166.7)">
          <g id="Group_3872" data-name="Group 3872" transform="translate(55.486 70.26)">
            <rect id="Rectangle_217" data-name="Rectangle 217" width="3.25" height="35.143" transform="translate(16.793 8.37)" fill="#7d7d7d"/>
            <path id="Path_3720" data-name="Path 3720" d="M1934.232,1475.955H1905.77v-1.62a.493.493,0,0,1,.495-.495H1933.7a.534.534,0,0,1,.533.533Z" transform="translate(-1901.583 -1431.763)" fill="#7d7d7d"/>
            <path id="Path_3721" data-name="Path 3721" d="M1921.033,1252.123a3.726,3.726,0,0,1-3.715,3.715h-30.6a3.726,3.726,0,0,1-3.715-3.715v-3.358a3.726,3.726,0,0,1,3.715-3.715h30.6a3.726,3.726,0,0,1,3.715,3.715v3.358Z" transform="translate(-1883 -1245.05)" fill="#7d7d7d"/>
          </g>
          <g id="Group_3874" data-name="Group 3874" transform="translate(27.839 0)">
            <path id="Path_3722" data-name="Path 3722" d="M1849.865,1440.594s-9.28,6.689-7.669,11.182c0,0,10.154-4.381,11.38-7.831s-.208-4.975-.208-4.975Z" transform="translate(-1821.9 -1333.046)" fill="#58525e"/>
            <path id="Path_3723" data-name="Path 3723" d="M1874.071,1417.32l1.517,4.386a1.525,1.525,0,0,1-.592,1.789,3.972,3.972,0,0,1-1.256.485,1.776,1.776,0,0,1-1.964-.892l-1.815-3.417Z" transform="translate(-1844.711 -1315.378)" fill="url(#linear-gradient-2)"/>
            <path id="Path_3724" data-name="Path 3724" d="M1841.258,1202.63s-19.06,3.3-27.237,10.856,7.505,31.645,7.505,31.645,2.569-.016,5.683-2.685c0,0-9.3-18.12-1.286-23.4a51.628,51.628,0,0,1,19.39-7.279l-3.871-8.552Z" transform="translate(-1797.133 -1140.171)" fill="#d6d6d6"/>
            <path id="Path_3725" data-name="Path 3725" d="M1836.948,1472.074c2.041-.945,7.82-4.99,8.793-5.168s2.663.965,2.663.965a2.636,2.636,0,0,1-.03,2.028,18.241,18.241,0,0,1-8.416,5.935,7.052,7.052,0,0,1-6.358-.877A8.633,8.633,0,0,1,1836.948,1472.074Z" transform="translate(-1815.038 -1355.829)" fill="#6c6673"/>
            <path id="Path_3726" data-name="Path 3726" d="M1837.33,1489.215a18.246,18.246,0,0,0,8.416-5.935,8.2,8.2,0,0,1-2.446,3.308c-3.63,3.262-10.562,4.438-12.039,4.212-1.182-.182-1.072-1.273-.29-2.463A7.063,7.063,0,0,0,1837.33,1489.215Z" transform="translate(-1812.408 -1369.207)" fill="#242424"/>
            <path id="Path_3727" data-name="Path 3727" d="M1899.7,1449.44a15.618,15.618,0,0,1-1.845,3.573,1.752,1.752,0,0,1-1.484.83,4.525,4.525,0,0,1-1.227-.147,1.136,1.136,0,0,1-.763-1.414l1.313-4.482Z" transform="translate(-1864.604 -1340.252)" fill="url(#linear-gradient-3)"/>
            <path id="Path_3728" data-name="Path 3728" d="M1927.083,1171.53s4.233,11.318,0,14.761-14.331,7.318-16.587,14.174-6.084,20.18-11.208,24.9c0,0-3.6-.349-4.947-1.782,0,0,2.917-19.89,4.842-24.993,1.666-4.419,4.121-10.8,8.828-14.365,1.346-1.021,1.113-2.637.487-4.208l-1.136-2.86Z" transform="translate(-1864.608 -1114.791)" fill="#d6d6d6"/>
            <path id="Path_3729" data-name="Path 3729" d="M1831.585,1072.872c7.1.428,4.887-10.911,4.758-11.362l10.772,7.608s-.57,6.063-9.527,9.245a11.126,11.126,0,0,1-6.168.447A9.8,9.8,0,0,0,1831.585,1072.872Z" transform="translate(-1813.259 -1025.005)" fill="#363636"/>
            <path id="Path_3730" data-name="Path 3730" d="M1737.273,1101.1c2.645-1.839,5.641,0,5.641,0,3.537,2.314,6.152,3.3,8.083,3.413a9.809,9.809,0,0,1-.164,5.938,15.248,15.248,0,0,1-8.028-5.19,1.279,1.279,0,0,0-1.771-.193c-.55.434-1.085,1.03-.989,1.657.191,1.236-1.243,1.629-1.352,1.181a18.423,18.423,0,0,1,.491-3.106s-2.869,2.884-3.987,3.993a1.961,1.961,0,0,1-2.527,0S1734.628,1102.944,1737.273,1101.1Z" transform="translate(-1732.67 -1056.649)" fill="url(#linear-gradient-4)"/>
            <path id="Path_3731" data-name="Path 3731" d="M1878.2,964.136s-10.325-4.134-29.542,11.73c0,0-1.605,3.323.146,6.279s18.435,17.367,20.729,25.357c0,0,9.94,3.229,20.219-4.429C1889.75,1003.075,1888.843,980.835,1878.2,964.136Z" transform="translate(-1826.776 -945.143)"/>
            <path id="Path_3732" data-name="Path 3732" d="M1870.824,946.23l5.083,6.163a2.025,2.025,0,0,1,.267,2.176,5.778,5.778,0,0,1-6.093,3.244,3.123,3.123,0,0,1-2.566-1.749l-3.555-7.347Z" transform="translate(-1839.815 -930.926)" fill="url(#linear-gradient-5)"/>
            <path id="Path_3733" data-name="Path 3733" d="M2007.173,992.681c1.2-4.881-10.943-15.765-10.943-15.765l2.948-10.626s26.218,17.453,19.537,31.489a10.228,10.228,0,0,1-3.7,4.364C2012.9,996.461,2009.536,993.854,2007.173,992.681Z" transform="translate(-1947.758 -947.297)" fill="#3a3a3a"/>
            <path id="Path_3734" data-name="Path 3734" d="M2005.945,1033.432a.287.287,0,0,0,.278-.219c1.226-4.991-10.529-15.6-11.031-16.046a.287.287,0,0,0-.383.427c.12.107,12,10.823,10.856,15.483a.288.288,0,0,0,.21.348A.51.51,0,0,0,2005.945,1033.432Z" transform="translate(-1946.521 -988.757)" fill="#ccffbd"/>
            <path id="Path_3735" data-name="Path 3735" d="M1901.968,1106.493s14.395,5.589,17.909,1.385a2.34,2.34,0,0,0,.48-.965c2.362,1.173,5.727,3.779,7.838,9.462-7.572,4.839-20.512-2.691-24.011-4.911a2.61,2.61,0,0,0-1.933-.355,17.9,17.9,0,0,1-4.938.5c-1.839-.283-4.482,6.205-7.463,4.2C1889.848,1115.81,1892.4,1104.53,1901.968,1106.493Z" transform="translate(-1860.943 -1061.527)" fill="url(#linear-gradient-6)"/>
            <g id="Group_3873" data-name="Group 3873" transform="translate(16.808)">
              <path id="Path_3736" data-name="Path 3736" d="M1841.133,890.3c-.052.2,1.192,13.668,1.192,13.668L1850,903.1l.719-12.942S1841.988,886.985,1841.133,890.3Z" transform="translate(-1837.992 -884.049)" fill="url(#linear-gradient-7)"/>
              <path id="Path_3737" data-name="Path 3737" d="M1834.788,871.8l.154,6.843a.931.931,0,0,1-.029.258c-.134.521-.725,2.277-2.485,1.563-1.6-.647-3.064-1.216-4.144-1.012a.955.955,0,0,0-.774,1.026,41.451,41.451,0,0,0,1.05,6.328.953.953,0,0,0,1.089.686,30.8,30.8,0,0,0,6.9-1.977.956.956,0,0,0,.557-.8c.116-1.71.484-6.908.811-8.34.307-1.344,2.067-1.977,2.825-2.19a.942.942,0,0,0,.577-.465,2.478,2.478,0,0,0-1.263-3.774.956.956,0,0,1-.467-1.3,2.482,2.482,0,0,0-1.01-3.562,3.506,3.506,0,0,0-4.265.544.956.956,0,0,1-1.227.009.755.755,0,0,0-.859-.064.942.942,0,0,1-1.282-.548,2.855,2.855,0,0,0-3.117-2c-3.419.206-4.208,3.884-3.562,6.161s4.34,1.843,6.27.942c1.466-.684,3.152.386,3.877.94A.948.948,0,0,1,1834.788,871.8Z" transform="translate(-1824.061 -863.015)" fill="#40394a"/>
              <path id="Path_3738" data-name="Path 3738" d="M1898.265,926.557s-.956-4.015.566-4.806,3.568-.07,2.8,2.68C1900.671,927.848,1898.265,926.557,1898.265,926.557Z" transform="translate(-1884.376 -910.703)" fill="url(#linear-gradient-8)"/>
            </g>
          </g>
          <g id="Group_3875" data-name="Group 3875" transform="translate(2.055 28.564)">
            <path id="Path_3739" data-name="Path 3739" d="M1775.314,1155.3c-.024,0-.046,0-.07,0l-30.2-.033a1.352,1.352,0,1,1,0-2.7l30.2.033a1.352,1.352,0,0,1,.066,2.7Z" transform="translate(-1715.88 -1127.881)" fill="#6c6673"/>
            <path id="Path_3740" data-name="Path 3740" d="M1594.481,1018.33h25.153a4.8,4.8,0,0,1,4.337,2.749l11.629,24.657h-31.259a2.913,2.913,0,0,1-2.709-1.843l-9.017-22.818A2.007,2.007,0,0,1,1594.481,1018.33Z" transform="translate(-1592.472 -1018.33)" fill="#6c6673"/>
          </g>
          <g id="Group_3877" data-name="Group 3877" transform="translate(0 55.7)">
            <g id="Group_3876" data-name="Group 3876" transform="translate(6.874 2.701)">
              <path id="Path_3741" data-name="Path 3741" d="M1619.943,1242.934a1.3,1.3,0,0,1-.5-.1,1.214,1.214,0,0,1-.664-1.615l26.619-59.907a1.287,1.287,0,0,1,1.668-.644,1.215,1.215,0,0,1,.664,1.615l-26.619,59.907A1.274,1.274,0,0,1,1619.943,1242.934Z" transform="translate(-1618.675 -1180.568)" fill="#d9d9d9"/>
              <path id="Path_3742" data-name="Path 3742" d="M1664.874,1242.939a1.27,1.27,0,0,1-1.166-.743l-26.619-59.907a1.214,1.214,0,0,1,.664-1.615,1.286,1.286,0,0,1,1.668.644l26.619,59.907a1.214,1.214,0,0,1-.664,1.615A1.349,1.349,0,0,1,1664.874,1242.939Z" transform="translate(-1633.617 -1180.573)" fill="#d9d9d9"/>
              <path id="Path_3743" data-name="Path 3743" d="M2067.973,1242.934a1.3,1.3,0,0,1-.5-.1,1.214,1.214,0,0,1-.664-1.615l26.617-59.907a1.288,1.288,0,0,1,1.668-.644,1.215,1.215,0,0,1,.664,1.615l-26.62,59.907A1.271,1.271,0,0,1,2067.973,1242.934Z" transform="translate(-1984.307 -1180.568)" fill="#d9d9d9"/>
              <path id="Path_3744" data-name="Path 3744" d="M2112.894,1242.939a1.27,1.27,0,0,1-1.166-.743l-26.619-59.907a1.215,1.215,0,0,1,.664-1.615,1.287,1.287,0,0,1,1.668.644l26.619,59.907a1.214,1.214,0,0,1-.664,1.615A1.341,1.341,0,0,1,2112.894,1242.939Z" transform="translate(-1999.242 -1180.573)" fill="#d9d9d9"/>
            </g>
            <path id="Path_3745" data-name="Path 3745" d="M1704.948,1167.474a1.453,1.453,0,0,0-.252-1.107,1.152,1.152,0,0,0-.923-.487h-121.1a1.346,1.346,0,0,0-1.16.712,1.7,1.7,0,0,0-.09,1.478l1.313,3.18a1.834,1.834,0,0,0,1.668,1.193h118.536a1.444,1.444,0,0,0,1.367-1.262Z" transform="translate(-1581.299 -1165.88)" fill="#d9d9d9"/>
          </g>
        </g>
      </g>
    </g>
  </g>
</svg>
