<svg xmlns="http://www.w3.org/2000/svg" width="38" height="38" viewBox="0 0 38 38">
  <g id="Compensation_and_Benefits_" data-name="Compensation and Benefits  " transform="translate(-1 -1)">
    <path id="Path_8379" data-name="Path 8379" d="M51.452,13.581V12.266a1.743,1.743,0,0,0,.259-3.225l-1.195-.6a.523.523,0,0,1,.234-.992h.178a.524.524,0,0,1,.524.523v.089h1.226V7.975a1.746,1.746,0,0,0-1.226-1.66V5H50.226V6.315a1.743,1.743,0,0,0-.259,3.225l1.195.6a.523.523,0,0,1-.234.992H50.75a.524.524,0,0,1-.524-.523v-.089H49v.089a1.746,1.746,0,0,0,1.226,1.66v1.315Z" transform="translate(-18.581 -1.548)" fill="#fff"/>
    <path id="Path_8380" data-name="Path 8380" d="M32.258,14.484a6.767,6.767,0,1,0-2.9-.666l-1.3,3.507L19.022,10.1a2.424,2.424,0,0,0-2.949,0L1,22.157V39H34.1V22.157l-5.033-4.027,1.44-3.886a6.714,6.714,0,0,0,1.755.24ZM16.839,11.055a1.165,1.165,0,0,1,1.418,0l9.35,7.48L27.029,20.1a4.263,4.263,0,0,0-3.994,1.23l-2.183-1.559a3.632,3.632,0,0,0,.121-2.938l1.3-1.3-.867-.867L20.319,15.75a3.672,3.672,0,0,0-6.1,3.958l-3.837,2.638a3.663,3.663,0,0,0-5.918.913l-1.735-.913ZM12.166,28.7,2.226,37.069v-13.6Zm5.382-8.445,2.419-2.419a2.389,2.389,0,0,1,.033.326,2.482,2.482,0,1,1-.557-1.536l-1.9,1.9-.792-.792-.867.867Zm0,1.585a3.667,3.667,0,0,0,2.593-1.072l2.179,1.557a4.269,4.269,0,0,0,.715,4.934l-1.348.71H13.409l-2.454-1.291a3.627,3.627,0,0,0,.118-3.32l3.837-2.638a3.664,3.664,0,0,0,2.637,1.12ZM10.194,24.9a2.453,2.453,0,0,1-.319,1.2L5.543,23.828a2.449,2.449,0,0,1,4.65,1.076Zm3.288,4.29h8.133L31.8,37.774H3.293Zm9.449-.5,9.941-5.232v13.6Zm1.252-2.043a3.06,3.06,0,1,1,4.985-2.624Zm8.188-4.309-2.04,1.074a4.306,4.306,0,0,0-2.152-2.9l.438-1.18Zm-5.628-14.6a5.516,5.516,0,1,1,5.516,5.516A5.522,5.522,0,0,1,26.742,7.742Z" fill="#fff"/>
    <path id="Path_8381" data-name="Path 8381" d="M5,5h8.581V6.226H5Z" transform="translate(-1.548 -1.548)" fill="#fff"/>
    <path id="Path_8382" data-name="Path 8382" d="M5,9h8.581v1.226H5Z" transform="translate(-1.548 -3.097)" fill="#fff"/>
    <path id="Path_8383" data-name="Path 8383" d="M5,13h8.581v1.226H5Z" transform="translate(-1.548 -4.645)" fill="#fff"/>
    <path id="Path_8384" data-name="Path 8384" d="M5,17H6.226v1.226H5Z" transform="translate(-1.548 -6.194)" fill="#fff"/>
    <path id="Path_8385" data-name="Path 8385" d="M17,17h1.226v1.226H17Z" transform="translate(-6.194 -6.194)" fill="#fff"/>
    <path id="Path_8386" data-name="Path 8386" d="M9,17h1.226v1.226H9Z" transform="translate(-3.097 -6.194)" fill="#fff"/>
    <path id="Path_8387" data-name="Path 8387" d="M13,17h1.226v1.226H13Z" transform="translate(-4.645 -6.194)" fill="#fff"/>
    <path id="Path_8388" data-name="Path 8388" d="M12,57h1.226v1.226H12Z" transform="translate(-4.258 -21.677)" fill="#fff"/>
    <path id="Path_8389" data-name="Path 8389" d="M20,57h1.226v1.226H20Z" transform="translate(-7.355 -21.677)" fill="#fff"/>
    <path id="Path_8390" data-name="Path 8390" d="M16,57h1.226v1.226H16Z" transform="translate(-5.806 -21.677)" fill="#fff"/>
    <path id="Path_8391" data-name="Path 8391" d="M49,49h1.226v1.226H49Z" transform="translate(-18.581 -18.581)" fill="#fff"/>
    <path id="Path_8392" data-name="Path 8392" d="M49,41h1.226v1.226H49Z" transform="translate(-18.581 -15.484)" fill="#fff"/>
    <path id="Path_8393" data-name="Path 8393" d="M49,45h1.226v1.226H49Z" transform="translate(-18.581 -17.032)" fill="#fff"/>
  </g>
</svg>
