<svg id="HR_data_and_Analytics_" data-name="HR data and Analytics  " xmlns="http://www.w3.org/2000/svg" width="38" height="38" viewBox="0 0 38 38">
  <g id="Group_6567" data-name="Group 6567" transform="translate(0 36.417)">
    <g id="Group_6566" data-name="Group 6566">
      <path id="Path_8396" data-name="Path 8396" d="M37.208,490.667H.792a.792.792,0,1,0,0,1.583H37.208a.792.792,0,1,0,0-1.583Z" transform="translate(0 -490.667)" fill="#fff"/>
    </g>
  </g>
  <g id="Group_6569" data-name="Group 6569" transform="translate(1.583 26.917)">
    <g id="Group_6568" data-name="Group 6568">
      <path id="Path_8397" data-name="Path 8397" d="M26.875,362.667h-4.75a.792.792,0,0,0-.792.792v9.5a.792.792,0,0,0,.792.792h4.75a.792.792,0,0,0,.792-.792v-9.5A.792.792,0,0,0,26.875,362.667Zm-.792,9.5H22.916V364.25h3.167v7.917Z" transform="translate(-21.333 -362.667)" fill="#fff"/>
    </g>
  </g>
  <g id="Group_6571" data-name="Group 6571" transform="translate(11.083 19)">
    <g id="Group_6570" data-name="Group 6570">
      <path id="Path_8398" data-name="Path 8398" d="M154.875,256h-4.75a.792.792,0,0,0-.792.792v17.417a.792.792,0,0,0,.792.792h4.75a.792.792,0,0,0,.792-.792V256.792A.792.792,0,0,0,154.875,256Zm-.792,17.417h-3.167V257.583h3.167Z" transform="translate(-149.333 -256)" fill="#fff"/>
    </g>
  </g>
  <g id="Group_6573" data-name="Group 6573" transform="translate(20.583 22.167)">
    <g id="Group_6572" data-name="Group 6572">
      <path id="Path_8399" data-name="Path 8399" d="M282.875,298.667h-4.75a.792.792,0,0,0-.792.792v14.25a.792.792,0,0,0,.792.792h4.75a.792.792,0,0,0,.792-.792v-14.25A.792.792,0,0,0,282.875,298.667Zm-.792,14.25h-3.167V300.25h3.167Z" transform="translate(-277.333 -298.667)" fill="#fff"/>
    </g>
  </g>
  <g id="Group_6575" data-name="Group 6575" transform="translate(30.083 12.667)">
    <g id="Group_6574" data-name="Group 6574">
      <path id="Path_8400" data-name="Path 8400" d="M410.875,170.667h-4.75a.792.792,0,0,0-.792.792v23.75a.792.792,0,0,0,.792.792h4.75a.792.792,0,0,0,.792-.792v-23.75A.792.792,0,0,0,410.875,170.667Zm-.792,23.75h-3.167V172.25h3.167Z" transform="translate(-405.333 -170.667)" fill="#fff"/>
    </g>
  </g>
  <g id="Group_6577" data-name="Group 6577" transform="translate(1.583 14.25)">
    <g id="Group_6576" data-name="Group 6576">
      <path id="Path_8401" data-name="Path 8401" d="M24.5,192a3.167,3.167,0,1,0,3.167,3.167A3.17,3.17,0,0,0,24.5,192Zm0,4.75a1.583,1.583,0,1,1,1.583-1.583A1.585,1.585,0,0,1,24.5,196.75Z" transform="translate(-21.333 -192)" fill="#fff"/>
    </g>
  </g>
  <g id="Group_6579" data-name="Group 6579" transform="translate(11.083 6.333)">
    <g id="Group_6578" data-name="Group 6578">
      <path id="Path_8402" data-name="Path 8402" d="M152.5,85.333a3.167,3.167,0,1,0,3.167,3.167A3.17,3.17,0,0,0,152.5,85.333Zm0,4.75a1.583,1.583,0,1,1,1.583-1.583A1.585,1.585,0,0,1,152.5,90.083Z" transform="translate(-149.333 -85.333)" fill="#fff"/>
    </g>
  </g>
  <g id="Group_6581" data-name="Group 6581" transform="translate(20.583 9.5)">
    <g id="Group_6580" data-name="Group 6580">
      <path id="Path_8403" data-name="Path 8403" d="M280.5,128a3.167,3.167,0,1,0,3.167,3.167A3.17,3.17,0,0,0,280.5,128Zm0,4.75a1.583,1.583,0,1,1,1.583-1.583A1.585,1.585,0,0,1,280.5,132.75Z" transform="translate(-277.333 -128)" fill="#fff"/>
    </g>
  </g>
  <g id="Group_6583" data-name="Group 6583" transform="translate(30.083)">
    <g id="Group_6582" data-name="Group 6582">
      <path id="Path_8404" data-name="Path 8404" d="M408.5,0a3.167,3.167,0,1,0,3.167,3.167A3.17,3.17,0,0,0,408.5,0Zm0,4.75a1.583,1.583,0,1,1,1.583-1.583A1.585,1.585,0,0,1,408.5,4.75Z" transform="translate(-405.333)" fill="#fff"/>
    </g>
  </g>
  <g id="Group_6585" data-name="Group 6585" transform="translate(24.638 4.053)">
    <g id="Group_6584" data-name="Group 6584">
      <path id="Path_8405" data-name="Path 8405" d="M339.457,54.84a.792.792,0,0,0-1.119,0l-6.143,6.143a.792.792,0,0,0,1.119,1.119l6.143-6.143A.792.792,0,0,0,339.457,54.84Z" transform="translate(-331.963 -54.608)" fill="#fff"/>
    </g>
  </g>
  <g id="Group_6587" data-name="Group 6587" transform="translate(15.742 9.357)">
    <g id="Group_6586" data-name="Group 6586">
      <path id="Path_8406" data-name="Path 8406" d="M218.2,127.56l-5.086-1.45a.792.792,0,0,0-.434,1.523l5.086,1.45a.792.792,0,0,0,.434-1.523Z" transform="translate(-212.108 -126.078)" fill="#fff"/>
    </g>
  </g>
  <g id="Group_6589" data-name="Group 6589" transform="translate(5.636 10.188)">
    <g id="Group_6588" data-name="Group 6588">
      <path id="Path_8407" data-name="Path 8407" d="M83.314,137.572a.792.792,0,0,0-1.111-.127L76.233,142.2a.792.792,0,0,0,.494,1.411.8.8,0,0,0,.492-.171l5.969-4.759A.791.791,0,0,0,83.314,137.572Z" transform="translate(-75.935 -137.273)" fill="#fff"/>
    </g>
  </g>
</svg>
