<svg xmlns="http://www.w3.org/2000/svg" width="38" height="38" viewBox="0 0 38 38">
  <g id="Human_Resources_Information_Systems_" data-name="Human Resources Information Systems  " transform="translate(0 0)">
    <path id="Path_8394" data-name="Path 8394" d="M122.419,56a10.419,10.419,0,1,0,10.419,10.419A10.431,10.431,0,0,0,122.419,56Zm-6.23,17.161h12.459a9.141,9.141,0,0,1-12.459,0Zm3.915-4.13a2.435,2.435,0,0,0,4.628,0l1.868.534a1.847,1.847,0,0,1,1.334,1.768v.6H116.9v-.6a1.848,1.848,0,0,1,1.334-1.768Zm1.088-.954a4.247,4.247,0,0,0,2.452,0v.181a1.226,1.226,0,0,1-2.452,0Zm1.226-1.045a3.068,3.068,0,0,1-3.065-3.065V62.742a3.065,3.065,0,0,1,6.129,0v1.226A3.068,3.068,0,0,1,122.419,67.032Zm6.742,5.617V71.334a3.079,3.079,0,0,0-2.223-2.948l-2.067-.591v-.312a4.286,4.286,0,0,0,1.839-3.516V62.742a4.29,4.29,0,1,0-8.581,0v1.226a4.286,4.286,0,0,0,1.839,3.516V67.8l-2.068.591a3.079,3.079,0,0,0-2.222,2.948v1.315a9.194,9.194,0,1,1,13.484,0Zm0,0" transform="translate(-103.42 -51.71)" fill="#fff"/>
    <path id="Path_8395" data-name="Path 8395" d="M35.777,33.225l-2.067-.591v-.312a4.286,4.286,0,0,0,1.839-3.516V27.581a4.3,4.3,0,0,0-3.916-4.271L30.3,20.856a12.783,12.783,0,0,0,1.037-2.506l2.377-.738V11.807l-2.377-.738a12.839,12.839,0,0,0-1.038-2.507l1.159-2.2-4.105-4.1-2.2,1.158a12.807,12.807,0,0,0-2.506-1.037L21.9,0H16.1l-.737,2.377a12.806,12.806,0,0,0-2.506,1.037l-2.2-1.158L6.545,6.36,7.7,8.562a12.839,12.839,0,0,0-1.038,2.507l-2.377.739v5.806l2.377.738A12.783,12.783,0,0,0,7.7,20.857L6.367,23.31a4.293,4.293,0,0,0-3.916,4.271v1.226A4.286,4.286,0,0,0,4.29,32.322v.312l-2.068.591A3.079,3.079,0,0,0,0,36.172V38H13.483V36.172a3.079,3.079,0,0,0-2.223-2.948l-2.067-.591v-.312a4.286,4.286,0,0,0,1.839-3.516V27.581a4.27,4.27,0,0,0-.048-.61l1.869-.966a12.769,12.769,0,0,0,2.507,1.038l.738,2.377H21.9l.738-2.377a12.769,12.769,0,0,0,2.507-1.038L27,26.979l.012,0a4.228,4.228,0,0,0-.047.6v1.226a4.286,4.286,0,0,0,1.839,3.516v.312l-2.068.591a3.079,3.079,0,0,0-2.222,2.948V38H38V36.172a3.079,3.079,0,0,0-2.223-2.948Zm-5.745-.309a4.247,4.247,0,0,0,2.452,0V33.1a1.226,1.226,0,0,1-2.452,0Zm-24.516,0a4.247,4.247,0,0,0,2.452,0V33.1a1.226,1.226,0,0,1-2.452,0Zm6.742,3.256v.6H1.225v-.6A1.848,1.848,0,0,1,2.559,34.4l1.868-.534a2.435,2.435,0,0,0,4.628,0l1.868.534A1.847,1.847,0,0,1,12.258,36.172ZM9.806,28.807a3.065,3.065,0,1,1-6.129,0V27.581a3.065,3.065,0,1,1,6.129,0Zm15.965-3.858-.458-.457-.409.242a11.609,11.609,0,0,1-2.994,1.24l-.46.118v.647L21,28.194H17l-.452-1.455v-.647l-.46-.118a11.609,11.609,0,0,1-2.994-1.24l-.409-.242-.458.457-1.594.84a4.3,4.3,0,0,0-2.923-2.383l1.047-1.92.46-.461-.242-.409a11.57,11.57,0,0,1-1.24-2.994l-.118-.46H6.971L5.516,16.71v-4l1.455-.452h.647l.118-.46A11.609,11.609,0,0,1,8.976,8.8L9.218,8.4l-.457-.458-.71-1.349,2.828-2.828,1.349.71.458.458.409-.243a11.559,11.559,0,0,1,2.994-1.239l.46-.118V2.681L17,1.226h4l.452,1.455v.647l.46.118A11.579,11.579,0,0,1,24.9,4.686l.409.243.458-.458,1.349-.71,2.828,2.828-.71,1.349-.457.458.242.409a11.609,11.609,0,0,1,1.24,2.994l.118.46h.647l1.455.451v4l-1.455.452h-.647l-.118.46a11.57,11.57,0,0,1-1.24,2.994l-.242.409.46.461,1.047,1.92a4.3,4.3,0,0,0-2.923,2.382Zm2.422,3.858V27.581a3.065,3.065,0,1,1,6.129,0v1.226a3.065,3.065,0,1,1-6.129,0Zm8.581,7.968H25.742v-.6A1.848,1.848,0,0,1,27.075,34.4l1.868-.534a2.435,2.435,0,0,0,4.628,0l1.868.534a1.847,1.847,0,0,1,1.334,1.768Zm0,0" fill="#fff"/>
  </g>
</svg>
