<svg xmlns="http://www.w3.org/2000/svg" width="656.55" height="515.102" viewBox="0 0 656.55 515.102">
  <g id="Human_Resource_Management" data-name="Human Resource Management" transform="translate(-244 -1501.906)">
    <path id="Path_6781" data-name="Path 6781" d="M967.176,812.781C917.667,929.355,785.788,994.659,671.42,977.043c-18.609-2.866-69.629-11.406-114.8-51.689-86.956-77.546-105.552-231.1-35.408-339.313,51.053-78.76,142.572-123.407,229.531-121.173,18.732.48,90.516,3.446,153.6,55.467a236.632,236.632,0,0,1,48.124,54.6C995.723,642.574,999.442,736.809,967.176,812.781Z" transform="translate(-186.47 1037.117)" fill="#f1f1f1"/>
    <g id="_18940" data-name="18940" transform="translate(244 1555.317)">
      <g id="Group_5713" data-name="Group 5713" transform="translate(0 0)">
        <g id="Group_5529" data-name="Group 5529" transform="translate(508.042)">
          <path id="Path_6619" data-name="Path 6619" d="M525.805,66.674a43.8,43.8,0,0,0-4.64-11.2l4.728-7.111-6.559-6.559-6.559-6.559-7.111,4.728a43.618,43.618,0,0,0-11.2-4.64l-1.68-8.365h-18.56l-1.681,8.365a43.8,43.8,0,0,0-11.2,4.64l-7.111-4.728-6.559,6.559-6.559,6.559,4.728,7.111a43.613,43.613,0,0,0-4.64,11.2l-8.365,1.68v18.56L441.2,88.6a43.8,43.8,0,0,0,4.64,11.2l-4.728,7.111,6.559,6.559,6.559,6.559,7.111-4.728a43.615,43.615,0,0,0,11.2,4.64l1.681,8.365h18.56l1.68-8.365a43.8,43.8,0,0,0,11.2-4.64l7.111,4.728,6.559-6.559,6.559-6.559-4.728-7.111a43.617,43.617,0,0,0,4.64-11.2l8.365-1.68V68.355Zm-42.313,43.467A32.506,32.506,0,1,1,516,77.635,32.514,32.514,0,0,1,483.493,110.141Z" transform="translate(-432.84 -26.97)" fill="#c2c2c2"/>
        </g>
        <g id="Group_5530" data-name="Group 5530" transform="translate(571.022 100.377)">
          <path id="Path_6620" data-name="Path 6620" d="M525.7,125.219a19.7,19.7,0,0,0-2.132-5.129l2.169-3.261-3.01-3.01-3.01-3.01-3.26,2.17a19.878,19.878,0,0,0-5.129-2.132l-.778-3.837h-8.5l-.777,3.837a19.7,19.7,0,0,0-5.129,2.132l-3.261-2.17-3.01,3.01-3.01,3.01,2.17,3.261a19.874,19.874,0,0,0-2.132,5.129L483.06,126v8.5l3.838.778a19.693,19.693,0,0,0,2.132,5.129l-2.17,3.261,3.01,3.01,3.01,3.01,3.261-2.17a19.881,19.881,0,0,0,5.129,2.132l.777,3.837h8.5l.778-3.837a19.7,19.7,0,0,0,5.129-2.132l3.26,2.17,3.01-3.01,3.01-3.01-2.169-3.261a19.876,19.876,0,0,0,2.132-5.129l3.838-.778V126Zm-19.4,19.927a14.9,14.9,0,1,1,14.9-14.9A14.9,14.9,0,0,1,506.3,145.147Z" transform="translate(-483.06 -107.01)" fill="#c2c2c2"/>
        </g>
        <g id="Group_5531" data-name="Group 5531" transform="translate(344.104 275.52)">
          <rect id="Rectangle_457" data-name="Rectangle 457" width="45.636" height="138.614" transform="translate(45.636 138.614) rotate(180)" fill="#b8b8b8"/>
        </g>
        <g id="Group_5532" data-name="Group 5532" transform="translate(169.891 64.309)">
          <path id="Path_6621" data-name="Path 6621" d="M183.24,356.23H537.218a20.041,20.041,0,0,0,20.04-20.04V98.29a20.033,20.033,0,0,0-20.04-20.04H183.24A20.041,20.041,0,0,0,163.2,98.29v237.9A20.041,20.041,0,0,0,183.24,356.23Z" transform="translate(-163.2 -78.25)" fill="#dcdcdc"/>
        </g>
        <g id="Group_5533" data-name="Group 5533" transform="translate(185.324 34.723)">
          <rect id="Rectangle_458" data-name="Rectangle 458" width="363.195" height="264.01" transform="translate(363.195 264.01) rotate(180)" fill="#fff"/>
        </g>
        <g id="Group_5534" data-name="Group 5534" transform="translate(185.328 34.713)">
          <path id="Path_6622" data-name="Path 6622" d="M175.51,86.541h363.2V54.65H175.51Z" transform="translate(-175.51 -54.65)" fill="#ccc"/>
        </g>
        <g id="Group_5535" data-name="Group 5535" transform="translate(354.216 305.946)">
          <path id="Path_6623" data-name="Path 6623" d="M310.18,283.646A12.71,12.71,0,1,0,322.9,270.93,12.717,12.717,0,0,0,310.18,283.646Z" transform="translate(-310.18 -270.93)" fill="#aeaeae"/>
        </g>
        <g id="Group_5538" data-name="Group 5538" transform="translate(303.501 89.278)">
          <g id="Group_5537" data-name="Group 5537">
            <g id="Group_5536" data-name="Group 5536">
              <path id="Path_6624" data-name="Path 6624" d="M274.154,107.616H382.633a4.413,4.413,0,0,0,4.414-4.414v-.627a4.413,4.413,0,0,0-4.414-4.414H274.154a4.413,4.413,0,0,0-4.414,4.414v.627A4.413,4.413,0,0,0,274.154,107.616Z" transform="translate(-269.74 -98.16)" fill="#ececec"/>
            </g>
          </g>
        </g>
        <g id="Group_5541" data-name="Group 5541" transform="translate(303.501 106.321)">
          <g id="Group_5540" data-name="Group 5540">
            <g id="Group_5539" data-name="Group 5539">
              <path id="Path_6625" data-name="Path 6625" d="M274.154,121.206H382.633a4.413,4.413,0,0,0,4.414-4.414v-.627a4.413,4.413,0,0,0-4.414-4.414H274.154a4.413,4.413,0,0,0-4.414,4.414v.627A4.421,4.421,0,0,0,274.154,121.206Z" transform="translate(-269.74 -111.75)" fill="#ececec"/>
            </g>
          </g>
        </g>
        <g id="Group_5544" data-name="Group 5544" transform="translate(303.501 123.364)">
          <g id="Group_5543" data-name="Group 5543">
            <g id="Group_5542" data-name="Group 5542">
              <path id="Path_6626" data-name="Path 6626" d="M274.154,134.8H382.633a4.413,4.413,0,0,0,4.414-4.414v-.627a4.413,4.413,0,0,0-4.414-4.414H274.154a4.413,4.413,0,0,0-4.414,4.414v.627A4.421,4.421,0,0,0,274.154,134.8Z" transform="translate(-269.74 -125.34)" fill="#ececec"/>
            </g>
          </g>
        </g>
        <g id="Group_5548" data-name="Group 5548" transform="translate(202.133 156.146)">
          <g id="Group_5547" data-name="Group 5547">
            <g id="Group_5546" data-name="Group 5546">
              <g id="Group_5545" data-name="Group 5545">
                <path id="Path_6627" data-name="Path 6627" d="M345.645,275.484H209.5a20.614,20.614,0,0,1-20.592-20.592v-82.82A20.614,20.614,0,0,1,209.5,151.48H345.645a20.614,20.614,0,0,1,20.592,20.592v82.82A20.606,20.606,0,0,1,345.645,275.484ZM209.5,154.076a18.026,18.026,0,0,0-18.009,18.009V254.9A18.026,18.026,0,0,0,209.5,272.913H345.645A18.026,18.026,0,0,0,363.654,254.9v-82.82a18.026,18.026,0,0,0-18.009-18.009Z" transform="translate(-188.91 -151.48)" fill="#dfe1e8"/>
              </g>
            </g>
          </g>
        </g>
        <g id="Group_5551" data-name="Group 5551" transform="translate(224.406 167.458)">
          <g id="Group_5550" data-name="Group 5550">
            <g id="Group_5549" data-name="Group 5549">
              <path id="Path_6628" data-name="Path 6628" d="M215.762,180.415H330.373a9.1,9.1,0,0,0,9.092-9.092v-1.731a9.1,9.1,0,0,0-9.092-9.092H215.762a9.1,9.1,0,0,0-9.092,9.092v1.731A9.1,9.1,0,0,0,215.762,180.415Z" transform="translate(-206.67 -160.5)" fill="#e4e4e4"/>
            </g>
          </g>
        </g>
        <rect id="Rectangle_459" data-name="Rectangle 459" width="205.306" height="10.459" transform="translate(264.273 408.907)" fill="#c2c2c2"/>
        <g id="Group_5560" data-name="Group 5560" transform="translate(448.573 153.826)">
          <path id="Path_6629" data-name="Path 6629" d="M444.525,179.176a29.535,29.535,0,0,1-20.241,28.054c-.176.063-.351.113-.539.176a29.554,29.554,0,1,1,20.78-28.229Z" transform="translate(-385.42 -149.63)" fill="#efefef"/>
          <g id="Group_5552" data-name="Group 5552" transform="translate(22.336 13.604)">
            <path id="Path_6630" data-name="Path 6630" d="M403.38,173.3s-2.019-13.055,8.791-12.817,10.672,6.7,10.472,13.105-4.339,5.932.339,14.836-4.051,8.916-4.051,8.916l-6.772-9.305Z" transform="translate(-403.231 -160.477)" fill="#3c4145"/>
          </g>
          <g id="Group_5553" data-name="Group 5553" transform="translate(22.462 14.708)">
            <path id="Path_6631" data-name="Path 6631" d="M410.967,161.511s-7.324,1.154-7.612,11.563,1.981,12.629,8.39,10.459,8.427-13.055,8.578-14.748S420.849,160.257,410.967,161.511Z" transform="translate(-403.331 -161.358)" fill="#eea886"/>
          </g>
          <g id="Group_5554" data-name="Group 5554" transform="translate(16.136 40.705)">
            <path id="Path_6632" data-name="Path 6632" d="M425.116,192.449a7.061,7.061,0,0,1-4.1,6.534c-.175.063-.351.113-.539.176a29.615,29.615,0,0,1-21.909-1.743c-.89-1.781.4-4.3,3.022-8.177,1.793-2.659,3.562-5.38,6.584-6.7,4.452-.715,9.167-.752,12.491,1.129C423.31,185.163,425.078,187.872,425.116,192.449Z" transform="translate(-398.287 -182.088)" fill="#5b5b5b"/>
          </g>
          <g id="Group_5555" data-name="Group 5555" transform="translate(17.507 41.974)">
            <path id="Path_6633" data-name="Path 6633" d="M402.741,188.819l-3.361,5.3c.013-.025.226-.828.615-3.16.075-.439.15-.941.238-1.492.025-.163.063-.326.1-.489h0c1.442-3.323,5.932-5.794,6.095-5.882Z" transform="translate(-399.38 -183.1)" fill="#727272"/>
          </g>
          <g id="Group_5556" data-name="Group 5556" transform="translate(34.55 42.223)">
            <path id="Path_6634" data-name="Path 6634" d="M422.89,196.142a29.367,29.367,0,0,1-5.606,2.533c-.176.063-.351.113-.539.176-.753-1.931-1.392-3.6-1.53-4.026-.038-.125-.138-.364-.263-.677-.6-1.48-1.969-4.753-1.982-7.324-.012-1.655.539-3.01,2.195-3.4a4.272,4.272,0,0,1,1.768-.063c1.856.339,2.947,2.007,3.549,3.486a.178.178,0,0,1,.025.075,11.7,11.7,0,0,1,.665,2.358s.025.113.088.326c.1.414.3,1.191.564,2.22C422.112,193.007,422.488,194.512,422.89,196.142Z" transform="translate(-412.97 -183.298)" fill="#eea886"/>
          </g>
          <g id="Group_5557" data-name="Group 5557" transform="translate(25.593 32.04)">
            <path id="Path_6635" data-name="Path 6635" d="M415.236,175.331c-.64,1.2-1.3,8.641-1.3,8.641s-8.954,3.386-8.039,1.467a7.414,7.414,0,0,0,.552-2.972,12.514,12.514,0,0,0-.1-1.806c-.025-.2-.038-.314-.038-.314S415.863,174.139,415.236,175.331Z" transform="translate(-405.828 -175.179)" fill="#eea886"/>
          </g>
          <g id="Group_5558" data-name="Group 5558" transform="translate(22.473 14.543)">
            <path id="Path_6636" data-name="Path 6636" d="M407.98,169.019s3.762,6.12,7.173,8.528,1.68,4.339,1.68,4.339,8.929-18.8.439-20.09S403.578,160.4,403.34,173.12C403.353,173.107,407.215,168.919,407.98,169.019Z" transform="translate(-403.34 -161.226)" fill="#3c4145"/>
          </g>
          <g id="Group_5559" data-name="Group 5559" transform="translate(26.098 36.757)">
            <path id="Path_6637" data-name="Path 6637" d="M411.334,178.94c-1.379,2.032-5,2.571-5,2.571h0a12.53,12.53,0,0,0-.1-1.806A10.2,10.2,0,0,0,411.334,178.94Z" transform="translate(-406.23 -178.94)" fill="#a77860"/>
          </g>
          <path id="Path_6638" data-name="Path 6638" d="M400.221,188.954h0a7.093,7.093,0,0,0-.351,2.019l1.317-1.994s2.358-3.373,3.16-4.264a12.365,12.365,0,0,1,1.981-1.655S401.626,185.3,400.221,188.954Z" transform="translate(-381.749 -141.136)" fill="#858585"/>
          <path id="Path_6639" data-name="Path 6639" d="M414.774,193.949s5.744-2.257,7.449-2.383c0,0-1.154-9.23-6.81-8.252S414.774,193.949,414.774,193.949Z" transform="translate(-378.481 -141.09)" fill="#858585"/>
          <path id="Path_6640" data-name="Path 6640" d="M406.8,182.659s-4.226,6.5-2.8,7.06,9.167-.752,12.453-6.923C416.453,182.785,411.537,180.264,406.8,182.659Z" transform="translate(-380.774 -141.5)" fill="#eea886"/>
        </g>
        <rect id="Rectangle_460" data-name="Rectangle 460" width="46.05" height="4.214" transform="matrix(1, -0.008, 0.008, 1, 117.66, 337.972)" fill="#8f8f8f"/>
        <rect id="Rectangle_461" data-name="Rectangle 461" width="46.05" height="4.214" transform="translate(159.742 340.61) rotate(-72.993)" fill="#8f8f8f"/>
        <g id="Group_5561" data-name="Group 5561" transform="translate(242.891 347.331)">
          <rect id="Rectangle_462" data-name="Rectangle 462" width="3.599" height="110.711" fill="#676767"/>
        </g>
        <g id="Group_5562" data-name="Group 5562" transform="translate(108.075 341.045)">
          <rect id="Rectangle_463" data-name="Rectangle 463" width="157.939" height="6.296" transform="translate(157.939 6.296) rotate(180)" fill="#929292"/>
        </g>
        <g id="Group_5563" data-name="Group 5563" transform="translate(128.282 347.342)">
          <rect id="Rectangle_464" data-name="Rectangle 464" width="3.599" height="110.711" transform="translate(3.599 110.711) rotate(180)" fill="#676767"/>
        </g>
        <rect id="Rectangle_465" data-name="Rectangle 465" width="4.314" height="54.528" transform="translate(56.095 385.355)" fill="#bfbfbf"/>
        <path id="Path_6641" data-name="Path 6641" d="M120.629,373.164a22.8,22.8,0,0,0,.828,5.217c.577,2.057,1.731,10.033,3.2,11.136s6.22,4.063,5.518,7.1-1.292,5.154-6.408,3.348-8.54-2.822-9.531-7.324a28.145,28.145,0,0,0-3.787-8.59l-3.7,9.2-1.956-.79s2.947-9.945,2.7-10.835,1.354-8.791,7.55-10.748C121.231,368.963,120.629,373.164,120.629,373.164Z" transform="translate(-8.15 60.285)"/>
        <path id="Path_6642" data-name="Path 6642" d="M146.658,375.294a23.282,23.282,0,0,0,2.709,4.527c1.3,1.693,5.342,8.666,7.123,9.142s7.286,1.455,7.775,4.527.727,5.267-4.69,5.505-8.979.564-11.575-3.235a28.435,28.435,0,0,0-6.722-6.559v9.92h-2.107s-.966-10.334-1.543-11.061-2.019-8.666,3-12.792S146.658,375.294,146.658,375.294Z" transform="translate(0.032 61.064)"/>
        <path id="Path_6643" data-name="Path 6643" d="M100.74,269.335s1.2-4.276,1.317-4.828,1.254-1.668,2.684-2.822a10.576,10.576,0,0,1,4.164-1.994,1.645,1.645,0,0,1,1.154.69,3.012,3.012,0,0,1,.564,1.455,1.881,1.881,0,0,1,.991,1.5,1.639,1.639,0,0,1,.727,1.668,1.369,1.369,0,0,1,.665,1.354,12.611,12.611,0,0,0-1.442,1.643,25.54,25.54,0,0,1-5.581,4.364C105.97,272.37,102.471,274.953,100.74,269.335Z" transform="translate(-9.179 32.159)" fill="#eea886"/>
        <path id="Path_6644" data-name="Path 6644" d="M104.92,264.693a9.5,9.5,0,0,1,.414,2.383c-.113.577,4.113.665,4.113.665S107.127,264.116,104.92,264.693Z" transform="translate(-8.117 33.416)" fill="#cf8c6c"/>
        <path id="Path_6645" data-name="Path 6645" d="M67.328,274.927c1.706-2.759,3.975-4,11.186.991s5.518,4.013,7.249,5.593,9.305,5.543,9.305,5.543a67.838,67.838,0,0,0,6.546-7.525c2.4-3.524,7.387-12.93,7.387-12.93l7,5.2S102.4,296.46,99.558,298.278s-11.4-1.229-15.852-3.1-9.167-4.3-11.2-4.816S62.889,282.113,67.328,274.927Z" transform="translate(-18.017 33.916)"/>
        <rect id="Rectangle_466" data-name="Rectangle 466" width="15.814" height="1.342" transform="translate(97.187 295.633) rotate(-77.626)" fill="#9c9c9c"/>
        <path id="Path_6646" data-name="Path 6646" d="M107.577,259.981s-3.524,3.022-3.11,3.649a1.172,1.172,0,0,0,.953.6l-.89,1.906s.125,1.593,1.818.991c0,0-.038,1.5,1.53.727,0,0,.414,1,1.2.765a15.385,15.385,0,0,0,2.985-2.27s.263-.64-.665-1.354a1.606,1.606,0,0,0-.727-1.668,1.755,1.755,0,0,0-.991-1.5s-.038-2.019-1.718-2.145C107.953,259.693,107.715,259.856,107.577,259.981Z" transform="translate(-8.241 32.158)" fill="#db9c7c"/>
        <path id="Path_6647" data-name="Path 6647" d="M101.83,264.135a15.752,15.752,0,0,1,4.164-2.734c.414-.138.828-.188,1.1.138s.163,1.154-.815,2.132a11.654,11.654,0,0,0-1.793,2.684S103.2,267.057,101.83,264.135Z" transform="translate(-8.902 32.568)" fill="#eea886"/>
        <path id="Path_6648" data-name="Path 6648" d="M94.23,287.032s1.417-5.154-.251-9.142c0,0,.64,4.126-1.166,7.06C91.5,287.082,94.23,287.032,94.23,287.032Z" transform="translate(-11.285 36.785)" fill="#152c3d"/>
        <path id="Path_6649" data-name="Path 6649" d="M116.146,294.022s3.812-28.229,10.447-40.532h-9.769s-10.936,19.275-8.891,38.751Z" transform="translate(-7.417 30.585)" fill="#fff"/>
        <path id="Path_6650" data-name="Path 6650" d="M116.3,269.56s1.116-2.082,1.38-2.759,1.367.5,1.2,1.367S116.3,269.56,116.3,269.56Z" transform="translate(-5.226 33.916)" fill="#eea886"/>
        <path id="Path_6651" data-name="Path 6651" d="M125.913,274.015a5.118,5.118,0,0,1-.64,1.4s-.677.64-1.141,1.141a3.67,3.67,0,0,0-.339.389,8.94,8.94,0,0,1-1.781,2.182c-.978.79-4.7,3.21-4.7,3.21l-2.634-2.809-2.107-2.195s1.781-6.684,2.608-7.524a1.408,1.408,0,0,1,.251-.226,12.1,12.1,0,0,1,2.044-1.091c.163-.1,1.844-1.053,2.383-.84a1.869,1.869,0,0,1,1.267,1.329,4.481,4.481,0,0,1,1.919,1.568,2.8,2.8,0,0,1,1.605,1.881C124.647,272.447,125.951,273.149,125.913,274.015Z" transform="translate(-6.174 34.177)" fill="#eea886"/>
        <path id="Path_6652" data-name="Path 6652" d="M143.25,331.57s-6.459,14.522-11.061,24.881c-.778,1.743-1.492,3.373-2.132,4.791-.74,1.668-1.354,3.035-1.768,3.988-2.935,6.6-10.146,20.981-10.146,20.981s-5.43.213-5.744-4.4c0,0,5.2-9.982,5.2-17.005s.941-27.69,7.65-32.155C133.418,327.218,138.723,326.19,143.25,331.57Z" transform="translate(-6.217 49.521)" fill="#eea886"/>
        <path id="Path_6653" data-name="Path 6653" d="M96.3,309.866a7.559,7.559,0,0,0,2.508,1.681c1.154.313,20.417,1.781,29.32,4.715s20.743,4.816,22.937,7.336,5.869,16.341,5.756,18.962,7.826,46.74,8.816,50.188c.527,1.831-7.173,1.129-7.173,1.129S147.528,367.8,145.2,362.989c-4.289-8.854-4.5-19.689-6.07-21.37s-19.062-5.443-29.12-5.443-32.569.84-34.976-.527-17.494-11.312-11.212-24.605C70.113,297.726,96.3,309.866,96.3,309.866Z" transform="translate(-18.947 43.623)" fill="#eea886"/>
        <path id="Path_6654" data-name="Path 6654" d="M139.986,319.95l-15.952,30.687s-4.8-11.387-13.193-13.356-41.836-.9-41.836-.9S53.655,316.965,66.8,306.77s28.493,1.605,28.493,1.605,3.173,3.436,4.7,3.511C111.167,312.451,123.068,314.52,139.986,319.95Z" transform="translate(-19.155 43.07)"/>
        <path id="Path_6655" data-name="Path 6655" d="M155.985,388.813s-4.853,1.216-6.722,0S141.074,376.9,138.98,376.26c0,0,2.032-4.126,7.173-1.129C146.153,375.144,154.606,387.032,155.985,388.813Z" transform="translate(0.537 61.215)" fill="#eea886"/>
        <path id="Path_6656" data-name="Path 6656" d="M122.869,389.483s-4.954-.69-6.233-2.508-3.16-14.108-4.866-15.475c0,0,3.424-3.073,7.073,1.63C118.856,373.13,122.267,387.326,122.869,389.483Z" transform="translate(-6.377 60.319)" fill="#eea886"/>
        <path id="Path_6657" data-name="Path 6657" d="M82.8,231.982c3.837-.188,12.328,1.743,13.632,11.889a31.386,31.386,0,0,1-.966,4.891c-.665,2.145,1.267,8.49.765,8.8a13.9,13.9,0,0,1-2.583.715s-2.232,6.923-4.665,6.872S77.345,263.2,73.006,254.568,67.325,232.735,82.8,231.982Z" transform="translate(-16.961 25.117)" fill="#eea886"/>
        <path id="Path_6658" data-name="Path 6658" d="M84.9,257.484s-.3.966-.64,2.408c-.176.74-.364,1.593-.514,2.508-.439,2.533-.7,5.48-.05,7.449,0,0-5.38,1.869-9.619-5.731,0,0,1.818-8.189-.552-13.155S84.9,257.484,84.9,257.484Z" transform="translate(-16.164 29.626)" fill="#eea886"/>
        <path id="Path_6659" data-name="Path 6659" d="M96.625,244.2s-5.882,5.28-12.089,4.853c-6.308-.426-10.409,7.462-10.409,7.462s-9.393-11.788-1.818-21.332C79.87,225.667,97.967,232.377,96.625,244.2Z" transform="translate(-17.154 24.786)" fill="#040404"/>
        <path id="Path_6660" data-name="Path 6660" d="M79.994,245.707c-.038-1.191-1.367-2.985-3.323-1.354s.677,7.311,2.282,6.76S80.019,246.948,79.994,245.707Z" transform="translate(-15.471 28.097)" fill="#eea886"/>
        <path id="Path_6661" data-name="Path 6661" d="M83.656,258.745c-.176.74-.364,1.593-.514,2.508a26.8,26.8,0,0,1-7.512-7.023C78.477,256.813,83.656,258.745,83.656,258.745Z" transform="translate(-15.559 30.773)" fill="#a77860"/>
        <path id="Path_6662" data-name="Path 6662" d="M101.229,286.6c-1.129,5.242-4.113,5.518-3.925,9.393s1.342,4.2-.665,10.321a27.817,27.817,0,0,0-.915,3.624c-.025.15-.063.3-.088.451-.125.7-.238,1.417-.339,2.119-.176,1.292-.3,2.558-.4,3.725a7.72,7.72,0,0,0,1.981,5.342s-19.6,11.751-33.058,10.1c0,0,3.486-14.648,5.405-19.677s1.342-28.28-.075-33.258c-2.082-7.361,2.082-18.4,7.763-19.84l8.829,4.088S94.633,273.6,96.627,275.2C98.621,276.783,102.371,281.285,101.229,286.6Z" transform="translate(-18.56 31.96)"/>
        <path id="Path_6663" data-name="Path 6663" d="M70.888,264.409c2.5-2.069,6.095-5.631,11.362,1.4s9.08,11.55,10.221,13.594,11.023,16.316,11.023,16.316,5.255-4.878,8.252-7.161c3.386-2.583,12.6-12.19,12.6-12.19l6.095,6.759s-21.156,23.476-24.43,24.3-12.428-7.412-16.065-10.61S76.143,282,74.374,280.875C72.631,279.746,64.392,269.826,70.888,264.409Z" transform="translate(-17.389 32.659)"/>
        <path id="Path_6664" data-name="Path 6664" d="M129.045,353.861c-.778,1.743-1.492,3.373-2.132,4.791-2.37-7.637-2.182-20.391-2.182-20.391A73.7,73.7,0,0,0,129.045,353.861Z" transform="translate(-3.085 52.124)" fill="#a77860"/>
        <rect id="Rectangle_467" data-name="Rectangle 467" width="67.946" height="7.474" transform="translate(23.752 379.448)" fill="#c2c2c2"/>
        <path id="Path_6665" data-name="Path 6665" d="M75.6,310.53s-1.718,6.922,6.346,8.5,17.984,3.587,17.984,16.027H71.96Z" transform="translate(-16.492 45.078)" fill="#c2c2c2"/>
        <path id="Path_6666" data-name="Path 6666" d="M107.93,250.819l1.154-2.119.15,2.408Z" transform="translate(-7.352 29.368)" fill="#eea886"/>
        <path id="Path_6667" data-name="Path 6667" d="M51.482,355.954,27.73,256.129s42.94-6.709,48.056,12.578,13.532,76.562,23.765,80.1S51.482,355.954,51.482,355.954Z" transform="translate(-27.73 30.969)" fill="#c2c2c2"/>
        <path id="Path_6668" data-name="Path 6668" d="M93.009,296.116s-.439,1.831-.9,3.348L81.66,285.92Z" transform="translate(-14.027 38.825)" fill="#152c3d"/>
        <path id="Path_6669" data-name="Path 6669" d="M69.83,244.671s4.126,10.911,3.01,13.9c0,0,6.446-2.759,5.267-9.907S69.83,244.671,69.83,244.671Z" transform="translate(-17.033 28.167)" fill="#040404"/>
        <path id="Path_6670" data-name="Path 6670" d="M84.21,263.962V261.8l-9.167-4.465L71.87,261Z" transform="translate(-16.515 31.563)" fill="#1d3b54"/>
        <path id="Path_6671" data-name="Path 6671" d="M109.058,389.669a3.549,3.549,0,1,1-3.549-3.549A3.554,3.554,0,0,1,109.058,389.669Z" transform="translate(-8.869 64.284)" fill="#585858"/>
        <path id="Path_6672" data-name="Path 6672" d="M43.84,389.062l.9,2.521,38-11.776-1.818-5.117Z" transform="translate(-23.637 61.38)" fill="#bfbfbf"/>
        <path id="Path_6673" data-name="Path 6673" d="M112.674,389.128l-.9,2.521L73.76,379.873l1.68-5.443Z" transform="translate(-16.035 61.314)" fill="#bfbfbf"/>
        <path id="Path_6674" data-name="Path 6674" d="M85.887,391.385v2.935L73.76,379.873l1.68-5.443Z" transform="translate(-16.035 61.314)" fill="#bfbfbf"/>
        <path id="Path_6675" data-name="Path 6675" d="M85.118,389.669a3.549,3.549,0,1,1-3.549-3.549A3.554,3.554,0,0,1,85.118,389.669Z" transform="translate(-14.952 64.284)" fill="#585858"/>
        <circle id="Ellipse_294" data-name="Ellipse 294" cx="3.549" cy="3.549" r="3.549" transform="translate(16.654 450.404)" fill="#585858"/>
        <g id="Group_5573" data-name="Group 5573" transform="translate(449.828 79.953)">
          <path id="Path_6676" data-name="Path 6676" d="M437.757,102.694a28.819,28.819,0,0,1-10.006,21.879c-.33.283-.67.566-1.018.839-.387.311-.783.6-1.188.9a28.753,28.753,0,0,1-13.156,5.093q-1.287.156-2.6.2c-.311.009-.632.019-.953.019-.934,0-1.858-.047-2.773-.132a26.265,26.265,0,0,1-3.008-.453,28.626,28.626,0,0,1-11.817-5.394,29.126,29.126,0,0,1-2.924-2.575c-.179-.179-.358-.358-.528-.547q-.976-1.033-1.839-2.15a28.921,28.921,0,1,1,51.812-17.673Z" transform="translate(-379.91 -73.77)" fill="#efefef"/>
          <g id="Group_5572" data-name="Group 5572" transform="translate(6.045 12.688)">
            <g id="Group_5564" data-name="Group 5564" transform="translate(4.046 25.458)">
              <path id="Path_6677" data-name="Path 6677" d="M428.285,120.953l-2.131,7.648A28.753,28.753,0,0,1,413,133.694q-1.287.156-2.6.2c-.311.009-.632.019-.953.019-.934,0-1.858-.047-2.773-.132a26.282,26.282,0,0,1-3.008-.453,28.626,28.626,0,0,1-11.816-5.394c-.406-2.527-.849-5.328-1.235-7.95,2.122-.792,8.893-3.093,13.156-4.536l.179-.057c.094-.038.189-.066.274-.094.255-.085.49-.17.726-.245s.453-.151.66-.226c.877-.292,1.49-.5,1.707-.575h0l.085-.028h.047l5.743.434.962.075.3.019.132.028c.349.085,1.349.349,2.688.754h.01C420.694,116.587,426.211,118.558,428.285,120.953Z" transform="translate(-390.61 -114.22)" fill="#fff"/>
            </g>
            <g id="Group_5565" data-name="Group 5565" transform="translate(16.05 1.795)">
              <path id="Path_6678" data-name="Path 6678" d="M411.686,89.205s6.884,1.16,5.715,11.939-7.243,9.827-7.648,9.808-6.111.132-6.413-13.052C403.33,97.91,403.246,88.168,411.686,89.205Z" transform="translate(-403.339 -89.128)" fill="#eea987"/>
            </g>
            <g id="Group_5566" data-name="Group 5566" transform="translate(18.361 19.256)">
              <path id="Path_6679" data-name="Path 6679" d="M414.834,108.894s-.236,4.432.179,5.4-5.526,4.017-9.223.538a38.632,38.632,0,0,0,.519-6.564C406.082,106.556,414.834,108.894,414.834,108.894Z" transform="translate(-405.79 -107.643)" fill="#eea987"/>
            </g>
            <g id="Group_5567" data-name="Group 5567" transform="translate(29.799 10.415)">
              <path id="Path_6680" data-name="Path 6680" d="M418.372,98.619s.764-.8,1.028.019-1.216,4.451-1.132,4.621c0,0-.141.311-.321.141A41.529,41.529,0,0,1,418.372,98.619Z" transform="translate(-417.918 -98.268)" fill="#eea987"/>
            </g>
            <g id="Group_5568" data-name="Group 5568" transform="translate(15.046 10.108)">
              <path id="Path_6681" data-name="Path 6681" d="M403.355,98.317s-.736-.83-1.028-.019.8,4.432.934,4.659c0,0,.236.368.424.208A41.214,41.214,0,0,0,403.355,98.317Z" transform="translate(-402.275 -97.943)" fill="#eea987"/>
            </g>
            <g id="Group_5569" data-name="Group 5569" transform="translate(15.564)">
              <path id="Path_6682" data-name="Path 6682" d="M417.947,97.075c-.236,1.471-.462,2.575-.462,2.575l-1,1.311a26.8,26.8,0,0,0-.094-3.348c-.057-.17-.123-.481-.2-.811-.113-.547-.236-1.16-.311-1.367-.132-.33-5.9-2.009-11.043.349a8.516,8.516,0,0,1,.038.943c0,.575-.066,1.226-.33,1.32-.49.179-.283,3.386-.283,3.386l-.8-.924s-.236-1.679-.462-3.6V96.9c-.047-.453-.1-.915-.151-1.367-.113-1.933.075-5.451,2.593-7.516,1.7-.726,4.413-1.349,8.94.038a3.08,3.08,0,0,1,1.33.349C418.541,91.511,417.947,97.075,417.947,97.075Z" transform="translate(-402.824 -87.225)" fill="#363636"/>
            </g>
            <path id="Path_6683" data-name="Path 6683" d="M406.84,110.75a4.393,4.393,0,0,0,3.65,1.471,4.952,4.952,0,0,0,3.659-1.386s-1.207,2.527-3.668,2.5S406.84,110.75,406.84,110.75Z" transform="translate(-387.488 -88.564)" fill="#c78d71"/>
            <path id="Path_6684" data-name="Path 6684" d="M405.05,115.291a7.505,7.505,0,0,0,5.347,3.518c2.226.189,4.14-2.622,5.045-4.008A13.437,13.437,0,0,0,405.05,115.291Z" transform="translate(-387.386 -88.748)" fill="#eea987"/>
            <path id="Path_6685" data-name="Path 6685" d="M415.124,113.77a18.957,18.957,0,0,1-4.4,3.819l1.867,2.876,3.178-5.677Z" transform="translate(-387.709 -88.736)" fill="#eddad3"/>
            <path id="Path_6686" data-name="Path 6686" d="M405.883,114.23a12.792,12.792,0,0,0,4.508,3.386l-2.046,2.961L404.77,115.4Z" transform="translate(-387.37 -88.762)" fill="#eddad3"/>
            <path id="Path_6687" data-name="Path 6687" d="M410.621,117.82l1.594,2.433a3.318,3.318,0,0,1-3.235-.057Z" transform="translate(-387.61 -88.967)" fill="#5073ab"/>
            <path id="Path_6688" data-name="Path 6688" d="M431.485,120.537s-.019.057-.047.16c-.179.622-.849,3.027-1.726,6.215-.33.283-.67.566-1.018.839-.387.311-.783.6-1.188.9a28.753,28.753,0,0,1-13.156,5.093c.424-10.006,1.613-18.89,1.613-18.89.934.245,1.83.49,2.669.736h.01a60.478,60.478,0,0,1,12.326,4.659c.009,0,.019.009.028.019A4.569,4.569,0,0,1,431.485,120.537Z" transform="translate(-387.916 -88.797)" fill="#0e0e0e"/>
            <path id="Path_6689" data-name="Path 6689" d="M403.486,133.41a28.627,28.627,0,0,1-11.817-5.394,29.129,29.129,0,0,1-2.923-2.575c-.179-.179-.358-.358-.528-.547-.509-2.15-.839-3.555-.868-3.64h0s3.574-2.348,16.23-5.724v.009C403.59,115.822,403.6,123.942,403.486,133.41Z" transform="translate(-386.379 -88.836)" fill="#0e0e0e"/>
            <path id="Path_6690" data-name="Path 6690" d="M411.46,120.627c-.113,2.631-.132,7.752-.085,13.59-.311.009-.632.019-.953.019-.934,0-1.858-.047-2.773-.132a87.682,87.682,0,0,1,1.924-13.476c.141-.585.226-.877.226-.877l1.7.283C411.479,120.212,411.469,120.41,411.46,120.627Z" transform="translate(-387.535 -89.076)" fill="#2a2a2a"/>
            <g id="Group_5570" data-name="Group 5570" transform="translate(40.778 31.437)">
              <path id="Path_6691" data-name="Path 6691" d="M433.813,123.964a28.647,28.647,0,0,1-3.235,3.272c-.33.283-.67.566-1.018.839l2.273-7.516h0c.009.009.019.009.028.019a1.949,1.949,0,0,1,.443.443A13.674,13.674,0,0,1,433.813,123.964Z" transform="translate(-429.56 -120.56)" fill="#323657"/>
            </g>
            <g id="Group_5571" data-name="Group 5571" transform="translate(0 32.409)">
              <path id="Path_6692" data-name="Path 6692" d="M388.687,125.787c-.179-.179-.358-.358-.528-.547q-.976-1.033-1.839-2.15a3.346,3.346,0,0,1,.971-1.5h0Z" transform="translate(-386.32 -121.59)" fill="#323657"/>
            </g>
          </g>
        </g>
        <path id="Path_6693" data-name="Path 6693" d="M235.077,74.609h-43.14a4.327,4.327,0,0,1-4.327-4.327V66.9a4.327,4.327,0,0,1,4.327-4.327h43.14A4.327,4.327,0,0,1,239.4,66.9v3.386A4.327,4.327,0,0,1,235.077,74.609Z" transform="translate(12.893 -17.925)" fill="#fff"/>
        <g id="Group_5589" data-name="Group 5589" transform="translate(205.016 87.157)">
          <g id="Group_5576" data-name="Group 5576" transform="translate(0 0)">
            <g id="Group_5575" data-name="Group 5575">
              <g id="Group_5574" data-name="Group 5574">
                <path id="Path_6694" data-name="Path 6694" d="M208.115,144.916a24.884,24.884,0,0,0,32.857-23.251c.013-.564,0-1.116-.038-1.668A24.858,24.858,0,0,0,216.4,96.47a24.88,24.88,0,0,0-8.29,48.445ZM197.431,121.1a18.652,18.652,0,0,1,36.18-6.132v.013a18.488,18.488,0,0,1,1.091,5.355c.025.414.025.828.025,1.254a18.65,18.65,0,1,1-37.3-.489Z" transform="translate(-191.208 -96.468)" fill="#9b9b9b"/>
              </g>
            </g>
          </g>
          <g id="Group_5579" data-name="Group 5579" transform="translate(16.907 36.295)">
            <g id="Group_5578" data-name="Group 5578">
              <g id="Group_5577" data-name="Group 5577">
                <path id="Path_6695" data-name="Path 6695" d="M227.414,125.41l4.929,3.812a24.921,24.921,0,0,1-27.653,8.34l1.994-5.894a18.673,18.673,0,0,0,20.73-6.258Z" transform="translate(-204.69 -125.41)" fill="#414141"/>
              </g>
            </g>
          </g>
        </g>
        <g id="Group_5594" data-name="Group 5594" transform="translate(393.093 157.463)">
          <g id="Group_5590" data-name="Group 5590">
            <path id="Path_6699" data-name="Path 6699" d="M363.089,180.233H346.974a5.8,5.8,0,0,1-5.794-5.794V158.324a5.8,5.8,0,0,1,5.794-5.794h16.115a5.8,5.8,0,0,1,5.794,5.794v16.115A5.78,5.78,0,0,1,363.089,180.233Z" transform="translate(-341.18 -152.53)" fill="#c2c2c2"/>
          </g>
          <g id="Group_5593" data-name="Group 5593" transform="translate(5.493 7.745)">
            <g id="Group_5592" data-name="Group 5592">
              <g id="Group_5591" data-name="Group 5591">
                <path id="Path_6700" data-name="Path 6700" d="M353.047,170.913l-7.01-6.107a1.378,1.378,0,0,1,1.806-2.082l4.954,4.314,7.061-7.876a1.376,1.376,0,1,1,2.044,1.844Z" transform="translate(-345.56 -158.706)" fill="#f3f3f3"/>
              </g>
            </g>
          </g>
        </g>
        <g id="Group_5599" data-name="Group 5599" transform="translate(393.093 192.978)">
          <g id="Group_5595" data-name="Group 5595">
            <path id="Path_6701" data-name="Path 6701" d="M363.089,208.553H346.974a5.8,5.8,0,0,1-5.794-5.794V186.644a5.8,5.8,0,0,1,5.794-5.794h16.115a5.8,5.8,0,0,1,5.794,5.794v16.115A5.78,5.78,0,0,1,363.089,208.553Z" transform="translate(-341.18 -180.85)" fill="#c2c2c2"/>
          </g>
          <g id="Group_5598" data-name="Group 5598" transform="translate(5.493 7.745)">
            <g id="Group_5597" data-name="Group 5597">
              <g id="Group_5596" data-name="Group 5596">
                <path id="Path_6702" data-name="Path 6702" d="M353.047,199.233l-7.01-6.107a1.378,1.378,0,0,1,1.806-2.082l4.954,4.314,7.061-7.876a1.376,1.376,0,1,1,2.044,1.843Z" transform="translate(-345.56 -187.026)" fill="#f3f3f3"/>
              </g>
            </g>
          </g>
        </g>
        <g id="Group_5601" data-name="Group 5601" transform="translate(393.093 228.507)">
          <g id="Group_5600" data-name="Group 5600">
            <path id="Path_6703" data-name="Path 6703" d="M363.089,236.883H346.974a5.8,5.8,0,0,1-5.794-5.794V214.974a5.8,5.8,0,0,1,5.794-5.794h16.115a5.8,5.8,0,0,1,5.794,5.794v16.115A5.78,5.78,0,0,1,363.089,236.883Z" transform="translate(-341.18 -209.18)" fill="#c2c2c2"/>
          </g>
        </g>
        <g id="Group_5618" data-name="Group 5618" transform="translate(284.965 200.358)">
          <g id="Group_5604" data-name="Group 5604" transform="translate(6.68 213.159)">
            <g id="Group_5603" data-name="Group 5603">
              <g id="Group_5602" data-name="Group 5602">
                <path id="Path_6704" data-name="Path 6704" d="M273.91,363.521s.84,5.618,1.392,8.014,5.744,9.268,5.656,10.434-2.282,2.546-3.386,1.605-8.427-8.465-9.982-11.688-6.747-7.424-7.274-8.854,6.107-5.618,7.813-6.283S273.91,363.521,273.91,363.521Z" transform="translate(-260.286 -356.706)" fill="#131313"/>
              </g>
            </g>
          </g>
          <path id="Path_6705" data-name="Path 6705" d="M262.141,282.791s.69,3.587,1.191,4.239a31.348,31.348,0,0,1,2.007,4.465c.138.464.978,3.837,1.116,4.251s-.815,1.091-1.467.188a29.332,29.332,0,0,1-1.4-3.436c-.288-.7-1.179-2.922-1.43-2.521a27.676,27.676,0,0,0-.226,4.151,25.574,25.574,0,0,0,.677,4.1c.226.978,1.53,5.066,1,5.292s-.966.163-1.63-.941c0,0-1.066.589-1.681-.752,0,0-.953.351-1.543-1.4a2.4,2.4,0,0,1-.941-1c-.263-.627-1.806-6.007-1.793-8.214s.527-3.725.439-5.28a39.863,39.863,0,0,0-.89-4.866Z" transform="translate(-254.805 -162.768)" fill="#eea886"/>
          <path id="Path_6706" data-name="Path 6706" d="M268.534,356.04l-1.994.878,5.781,6.772,1.919-2.119Z" transform="translate(-252.018 -143.717)" fill="#8f8f8f"/>
          <path id="Path_6707" data-name="Path 6707" d="M285.8,367.35a21.886,21.886,0,0,1-2.37,4.339c-1.091,1.229-5.242,3.424-5.267,7.086-.025,3.963,7.01,2.859,9.757,2.721s2.96-2.257,4.113-4.5,2.32-1.869,2.546-3.675-.89-5.856-.89-5.856Z" transform="translate(-249.065 -140.843)" fill="#131313"/>
          <path id="Path_6708" data-name="Path 6708" d="M284.2,366.537l-.2,1.881a14.307,14.307,0,0,0,8.415.163l-.226-2.571Z" transform="translate(-247.581 -141.184)" fill="#8f8f8f"/>
          <path id="Path_6709" data-name="Path 6709" d="M312.317,343.76c0-4.878-3.562-47.492-3.4-49.122.113-1.066-1.028-11.262-1.831-18.234-.013-.063-.013-.125-.025-.176v-.038c-.226-1.956-.426-3.649-.552-4.778-.063-.527-.113-.928-.138-1.191-.025-.213-.038-.326-.038-.326s-23-4.54-34.926-.251a14.779,14.779,0,0,0-1.43.589s-.025.2-.075.589c-.125.878-.364,2.721-.7,5.217-.05.426-.113.865-.176,1.317-1.693,12.854-.6,26.812,2.358,41.109,2.909,14.021,4.515,24.5,4.816,26.549.4,2.671,1.568,10.02,2.859,18.084-6.333,7.813-11.726,14.447-11.324,15.1,1,1.63,9.882,10.823,10.371,9.192,0,0,1.605-1.818,4.113-4.715.8,4.929,1.342,8.3,1.342,8.3s9.732,2.32,13.318.213c0,0-1.4-10.7-2.872-22.323C302.936,358.157,312.317,346.318,312.317,343.76Zm-21.583-3.537c-.125-6.559-3.035-43.3-2.734-43.3,1.442,0,9.519,34.989,9.819,39.918.063,1-1.2,3.261-3.236,6.233-.915,1.342-1.994,2.822-3.173,4.389h0C291.01,343.873,290.747,341.227,290.734,340.223Z" transform="translate(-251.72 -166.137)" fill="#6e6e6e"/>
          <g id="Group_5605" data-name="Group 5605" transform="translate(14.334 33.855)">
            <path id="Path_6710" data-name="Path 6710" d="M316.491,222.672l-6.183,22.185c-.213.715-.464,1.605-.74,2.634l-.013.038c0,.013,0,.013-.012.025a87.1,87.1,0,0,0-2.684,16.679c-.263,4.565.589,22.925.589,22.925s-9.355,3.486-23.364,2.608c0,0-15.062-.351-13.833-9.581,3.248-24.442.075-34.525-.351-36.97,0,0-2.044-11.876-3.511-21.821,4.239-1.58,22.348-7.662,22.348-7.662l9.381.7S312.377,217.944,316.491,222.672Z" transform="translate(-266.39 -213.73)" fill="#fff"/>
          </g>
          <g id="Group_5606" data-name="Group 5606" transform="translate(30.286 2.387)">
            <path id="Path_6711" data-name="Path 6711" d="M290.209,188.741s9.155,1.543,7.6,15.877-9.631,13.068-10.171,13.042-8.126.176-8.528-17.356C279.11,200.316,279,187.361,290.209,188.741Z" transform="translate(-279.11 -188.638)" fill="#eea987"/>
          </g>
          <g id="Group_5607" data-name="Group 5607" transform="translate(33.371 25.599)">
            <path id="Path_6712" data-name="Path 6712" d="M293.6,208.806s-.313,5.894.238,7.186-7.349,5.342-12.265.715c0,0,.991-6.446.69-8.728S293.6,208.806,293.6,208.806Z" transform="translate(-281.57 -207.147)" fill="#eea987"/>
          </g>
          <g id="Group_5608" data-name="Group 5608" transform="translate(48.577 13.85)">
            <path id="Path_6713" data-name="Path 6713" d="M294.3,198.244s1.016-1.066,1.367.025-1.618,5.919-1.5,6.145c0,0-.188.414-.426.188S294.3,198.244,294.3,198.244Z" transform="translate(-293.695 -197.778)" fill="#eea987"/>
          </g>
          <g id="Group_5609" data-name="Group 5609" transform="translate(28.963 13.429)">
            <path id="Path_6714" data-name="Path 6714" d="M279.491,197.941s-.966-1.1-1.367-.025,1.066,5.894,1.241,6.2c0,0,.314.5.564.276S279.491,197.941,279.491,197.941Z" transform="translate(-278.055 -197.443)" fill="#eea987"/>
          </g>
          <g id="Group_5610" data-name="Group 5610" transform="translate(29.652)">
            <path id="Path_6715" data-name="Path 6715" d="M298.715,199.834c-.314,1.956-.615,3.424-.615,3.424L296.771,205a35.669,35.669,0,0,0-.125-4.452c-.075-.226-.163-.64-.263-1.078-.151-.727-.314-1.543-.414-1.818-.176-.439-7.851-2.671-14.685.464a11.34,11.34,0,0,1,.05,1.254c0,.765-.088,1.63-.439,1.756-.652.238-.376,4.5-.376,4.5l-1.066-1.229s-.313-2.232-.614-4.791V199.6c-.063-.6-.138-1.216-.2-1.818-.15-2.571.1-7.249,3.449-10,2.257-.966,5.869-1.793,11.9.05a4.1,4.1,0,0,1,1.768.464C299.5,192.422,298.715,199.834,298.715,199.834Z" transform="translate(-278.604 -186.734)" fill="#4b4b4b"/>
          </g>
          <path id="Path_6716" data-name="Path 6716" d="M282.62,210.25a5.842,5.842,0,0,0,4.853,1.956,6.585,6.585,0,0,0,4.866-1.844s-1.605,3.361-4.878,3.323S282.62,210.25,282.62,210.25Z" transform="translate(-247.932 -180.76)" fill="#c78d71"/>
          <path id="Path_6717" data-name="Path 6717" d="M280.83,215.222s2.458,4.276,7.111,4.678c2.96.251,5.505-3.486,6.709-5.33A17.87,17.87,0,0,0,280.83,215.222Z" transform="translate(-248.387 -179.938)" fill="#eea987"/>
          <path id="Path_6718" data-name="Path 6718" d="M292.356,213.27a25.211,25.211,0,0,1-5.856,5.079l2.483,3.825,4.226-7.55Z" transform="translate(-246.946 -179.992)" fill="#9e9e9e"/>
          <path id="Path_6719" data-name="Path 6719" d="M282.02,213.73a17.011,17.011,0,0,0,5.995,4.5l-2.721,3.938-4.753-6.885Z" transform="translate(-248.461 -179.875)" fill="#9e9e9e"/>
          <path id="Path_6720" data-name="Path 6720" d="M286.942,217.32l2.119,3.236a4.412,4.412,0,0,1-4.3-.075Z" transform="translate(-247.388 -178.963)" fill="#d6d6d6"/>
          <path id="Path_6721" data-name="Path 6721" d="M269.07,276.592s11.487,4.239,37.459.251l-.351-4.7s-15.062,4.439-36.657.64Z" transform="translate(-251.375 -165.034)" fill="#6d6d6d"/>
          <path id="Path_6722" data-name="Path 6722" d="M292.327,214.35s-2.684,20.065-2.32,37.372,13.444,48.734,13.444,48.734,5.719-5.531,8.2-8.653c0,0-8.891-25.671-8.728-30.3s10.033-39.591,10.033-39.591S307.464,218.338,292.327,214.35Z" transform="translate(-246.064 -179.718)" fill="#060606"/>
          <path id="Path_6723" data-name="Path 6723" d="M284.728,215.03s.025,19.213-.351,36.519-2.646,49.524-2.646,49.524-12.792-2.032-15.287-5.154c0,0,5.179-29.96,5.016-34.588s-8.34-38.689-8.34-38.689S267.9,219.52,284.728,215.03Z" transform="translate(-252.887 -179.545)" fill="#060606"/>
          <rect id="Rectangle_468" data-name="Rectangle 468" width="7.06" height="5.242" transform="translate(33.359 108.548)" fill="#4a4a4a"/>
          <path id="Path_6724" data-name="Path 6724" d="M286.417,219.25s-3.148,10.76-3.424,32.13.389,27.49.389,27.49l2.458,4.866,3.273-5.079s-1.053-49.173-.439-59.042Z" transform="translate(-247.854 -178.473)" fill="#a5a5a5"/>
          <g id="Group_5615" data-name="Group 5615" transform="translate(49.053 109.35)">
            <g id="Group_5614" data-name="Group 5614">
              <g id="Group_5613" data-name="Group 5613">
                <g id="Group_5612" data-name="Group 5612">
                  <g id="Group_5611" data-name="Group 5611">
                    <path id="Path_6725" data-name="Path 6725" d="M301.694,285.505a4.28,4.28,0,0,0,.978-.878s.326-.69.589-1.166c.088-.15.163-.276.226-.364a7.054,7.054,0,0,0,1.267-1.956,40.328,40.328,0,0,0,.64-5.367l-2.709-.79-2.408-1.053s-5.28,4.038-5.719,4.891c-.038.088-.075.163-.113.251a7.966,7.966,0,0,0-.251,1.831c-.038.15-.288,1.668.075,2.006a1.846,1.846,0,0,0,1.555.539,4.24,4.24,0,0,0,1.969.953,2.732,2.732,0,0,0,2.132.64C299.938,285.029,300.954,285.781,301.694,285.505Z" transform="translate(-294.075 -273.93)" fill="#eea886"/>
                  </g>
                </g>
              </g>
            </g>
          </g>
          <g id="Group_5616" data-name="Group 5616" transform="translate(53.223 42.207)">
            <path id="Path_6726" data-name="Path 6726" d="M297.4,287.032a28.61,28.61,0,0,0,8.791,4.954s17.005-27.7,17.219-29.7c.2-1.856-8.44-39.516-12.328-41.9l-7.073,20.717c.464-.138,8.051,15.739,8.076,17.783C312.11,261.612,297.4,287.032,297.4,287.032Z" transform="translate(-297.4 -220.39)" fill="#060606"/>
          </g>
          <g id="Group_5617" data-name="Group 5617" transform="translate(0 43.097)">
            <path id="Path_6727" data-name="Path 6727" d="M264.3,301.763a42.843,42.843,0,0,1-9.343.4s2.157-35.553,1.944-37.56c-.2-1.844,4.427-41.121,8.327-43.5l6.948,20.931c-.464-.138-4.653,21.42-4.69,23.451C267.426,268.228,264.3,301.763,264.3,301.763Z" transform="translate(-254.96 -221.1)" fill="#060606"/>
          </g>
          <path id="Path_6728" data-name="Path 6728" d="M294.391,276.67l10.923,5.668-4.3,7.951-9.293-9.945Z" transform="translate(-245.62 -163.883)" fill="#646464"/>
          <path id="Path_6729" data-name="Path 6729" d="M289.783,327.83l-1.1,21.62-2.069-17.219h0C287.789,330.639,288.867,329.159,289.783,327.83Z" transform="translate(-246.918 -150.884)" fill="#545454"/>
        </g>
        <g id="Group_5619" data-name="Group 5619" transform="translate(272.851 114.523)">
          <rect id="Rectangle_469" data-name="Rectangle 469" width="6.371" height="20.906" fill="#c2c2c2"/>
        </g>
        <path id="Path_6730" data-name="Path 6730" d="M444.525,235.339a29.552,29.552,0,1,1-29.546-29.559A29.549,29.549,0,0,1,444.525,235.339Z" transform="translate(63.153 18.463)" fill="#efefef"/>
        <g id="Group_5620" data-name="Group 5620" transform="translate(262.392 120.392)">
          <rect id="Rectangle_470" data-name="Rectangle 470" width="6.371" height="15.036" fill="#c2c2c2"/>
        </g>
        <g id="Group_5621" data-name="Group 5621" transform="translate(283.298 104.841)">
          <rect id="Rectangle_471" data-name="Rectangle 471" width="6.371" height="30.6" fill="#c2c2c2"/>
        </g>
        <g id="Group_5710" data-name="Group 5710" transform="translate(446.722 250.832)">
          <g id="Group_5622" data-name="Group 5622" transform="translate(102.217 87.667)">
            <rect id="Rectangle_472" data-name="Rectangle 472" width="41.009" height="2.433" transform="translate(41.009 2.433) rotate(180)" fill="#e2d2ca"/>
          </g>
          <g id="Group_5623" data-name="Group 5623" transform="translate(134.132 96.436)">
            <rect id="Rectangle_473" data-name="Rectangle 473" width="3.599" height="110.711" fill="#676767"/>
          </g>
          <g id="Group_5624" data-name="Group 5624" transform="translate(80.126 86.979)">
            <rect id="Rectangle_474" data-name="Rectangle 474" width="28.505" height="3.474" transform="translate(28.505 3.474) rotate(180)" fill="#ccbdb7"/>
          </g>
          <g id="Group_5625" data-name="Group 5625" transform="translate(88.98 57.314)">
            <rect id="Rectangle_475" data-name="Rectangle 475" width="10.798" height="32.782" transform="translate(10.798 32.782) rotate(180)" fill="#7b7b7b"/>
          </g>
          <g id="Group_5626" data-name="Group 5626" transform="translate(0 90.131)">
            <rect id="Rectangle_476" data-name="Rectangle 476" width="157.939" height="6.296" transform="translate(157.939 6.296) rotate(180)" fill="#7e7e7e"/>
          </g>
          <g id="Group_5627" data-name="Group 5627" transform="translate(170.793 41.456)">
            <path id="Path_6731" data-name="Path 6731" d="M537.586,270.612s1.731,24.229-3.01,27.126c-2.959,1.818-14.785,7.938-14.434,9.092s6.672,10.221,6.672,10.221,22.711-14.949,23.439-19.664c.715-4.6-1.116-35.465-4.239-36.9-2.333-1.066-3.574-.188-6.521,2.007C535.366,265.571,537.586,270.612,537.586,270.612Z" transform="translate(-520.134 -260.039)" fill="#858585"/>
          </g>
          <g id="Group_5630" data-name="Group 5630" transform="translate(160.304 191.394)">
            <g id="Group_5629" data-name="Group 5629">
              <g id="Group_5628" data-name="Group 5628">
                <path id="Path_6732" data-name="Path 6732" d="M511.77,380.227s.7,4.9.79,5.643,7.85-.439,7.85-.439l.627-5.831C521.05,379.6,512.748,379.538,511.77,380.227Z" transform="translate(-511.77 -379.599)" fill="#424773"/>
              </g>
            </g>
          </g>
          <g id="Group_5633" data-name="Group 5633" transform="translate(147.544 196.713)">
            <g id="Group_5632" data-name="Group 5632">
              <g id="Group_5631" data-name="Group 5631">
                <path id="Path_6733" data-name="Path 6733" d="M515.07,384.166a20.716,20.716,0,0,1-4.841,4.239c-2.383,1.292-6.12,1.793-7.525,3.135-1.016.966-3.7,5.1,6.183,5.016s14.648.589,15.714-1-1.53-11.713-1.53-11.713S520.726,384.68,515.07,384.166Z" transform="translate(-501.595 -383.84)" fill="#292c47"/>
              </g>
            </g>
          </g>
          <g id="Group_5636" data-name="Group 5636" transform="translate(110.542 191.433)">
            <g id="Group_5635" data-name="Group 5635">
              <g id="Group_5634" data-name="Group 5634">
                <path id="Path_6734" data-name="Path 6734" d="M472.09,380.27s.7,4.9.79,5.631,7.851-.439,7.851-.439l.627-5.831C481.37,379.643,473.068,379.58,472.09,380.27Z" transform="translate(-472.09 -379.63)" fill="#424773"/>
              </g>
            </g>
          </g>
          <g id="Group_5639" data-name="Group 5639" transform="translate(93.218 196.763)">
            <g id="Group_5638" data-name="Group 5638">
              <g id="Group_5637" data-name="Group 5637">
                <path id="Path_6735" data-name="Path 6735" d="M476.315,384.206a20.716,20.716,0,0,1-4.841,4.239c-2.383,1.292-11.136,2.345-12.541,3.674-1.016.966-2.709,4.828,11.2,4.477,9.882-.263,14.648.589,15.714-1s-1.53-11.713-1.53-11.713S482.109,384.77,476.315,384.206Z" transform="translate(-458.275 -383.88)" fill="#292c47"/>
              </g>
            </g>
          </g>
          <g id="Group_5642" data-name="Group 5642" transform="translate(104.308 107.359)">
            <g id="Group_5641" data-name="Group 5641">
              <g id="Group_5640" data-name="Group 5640">
                <path id="Path_6736" data-name="Path 6736" d="M548.172,312.59s-28.242,4.778-34.613,5.781S472.6,327.978,468.274,330.6c-3.449,2.082,1.806,52.22,3.035,71.345h13.619l.991-57.374c16.341.414,28.016-3.825,39.917-2.019s21.821,4.377,29.383-5.769C555.207,336.781,555.5,314.81,548.172,312.59Z" transform="translate(-467.119 -312.59)" fill="#292c47"/>
              </g>
            </g>
          </g>
          <g id="Group_5645" data-name="Group 5645" transform="translate(153.305 113.442)">
            <g id="Group_5644" data-name="Group 5644">
              <g id="Group_5643" data-name="Group 5643">
                <path id="Path_6737" data-name="Path 6737" d="M510.417,400.749l13.268-.828,1.292-56.6a80.869,80.869,0,0,0,15.149-.966l10.71-24.919c-9.393,1.881-39.491,9.468-43.5,11.9C503.9,331.448,509.188,381.624,510.417,400.749Z" transform="translate(-506.189 -317.44)" fill="#292c47"/>
              </g>
            </g>
          </g>
          <g id="Group_5648" data-name="Group 5648" transform="translate(155.916 1.021)">
            <g id="Group_5647" data-name="Group 5647">
              <g id="Group_5646" data-name="Group 5646">
                <path id="Path_6738" data-name="Path 6738" d="M524.711,228.29s-10.346-2.859-14.3,5.179-2.157,23.276,3.06,24.705,12.716-.213,14.886-5.217,3.887-12.114,3.373-16.717S527.47,229.381,524.711,228.29Z" transform="translate(-508.271 -227.796)" fill="#eea886"/>
              </g>
            </g>
          </g>
          <g id="Group_5651" data-name="Group 5651" transform="translate(163.242 22.738)">
            <g id="Group_5650" data-name="Group 5650">
              <g id="Group_5649" data-name="Group 5649">
                <path id="Path_6739" data-name="Path 6739" d="M514.7,252.157s.113,6.107-.564,7.412,14.409.978,14.409.978-2.383-7.336-1.028-13.594C528.857,240.77,514.7,252.157,514.7,252.157Z" transform="translate(-514.112 -245.113)" fill="#eea886"/>
              </g>
            </g>
          </g>
          <g id="Group_5654" data-name="Group 5654" transform="translate(155.592)">
            <g id="Group_5653" data-name="Group 5653">
              <g id="Group_5652" data-name="Group 5652">
                <path id="Path_6740" data-name="Path 6740" d="M529.88,249.252s-.8,1.643-4.715,1.379-9.055-4.979-10.71-5.393-1.756-1.367-1.756-1.367l-.878,1.555-1.693.263s1.154-4.728-1.367-6.383,1.129-15.049,13.87-11.826c0,0,9.719,1.781,9.845,7.211S531.774,246.38,529.88,249.252Z" transform="translate(-508.013 -226.982)" fill="#3a3f47"/>
              </g>
            </g>
          </g>
          <g id="Group_5657" data-name="Group 5657" transform="translate(162.474 33.02)">
            <g id="Group_5656" data-name="Group 5656">
              <g id="Group_5655" data-name="Group 5655">
                <path id="Path_6741" data-name="Path 6741" d="M513.5,257.335s.038-2.5,1.166-2.734,11.864-1.718,13.243-1.166l.589,3.286C528.511,256.72,525.84,258.363,513.5,257.335Z" transform="translate(-513.5 -253.312)" fill="#e2d2ca"/>
              </g>
            </g>
          </g>
          <g id="Group_5660" data-name="Group 5660" transform="translate(159.231 13.007)">
            <g id="Group_5659" data-name="Group 5659">
              <g id="Group_5658" data-name="Group 5658">
                <path id="Path_6742" data-name="Path 6742" d="M511.047,240.12c.288-2.044,2.609-4.389,3.938-1.2s-.89,7.8-2.383,7.562C511.11,246.215,510.658,242.879,511.047,240.12Z" transform="translate(-510.914 -237.354)" fill="#eea886"/>
              </g>
            </g>
          </g>
          <g id="Group_5663" data-name="Group 5663" transform="translate(117.474 66.451)">
            <g id="Group_5662" data-name="Group 5662">
              <g id="Group_5661" data-name="Group 5661">
                <path id="Path_6743" data-name="Path 6743" d="M477.658,279.97h.013C477.608,280.008,477.6,280.008,477.658,279.97Z" transform="translate(-477.617 -279.97)" fill="#323657"/>
              </g>
            </g>
          </g>
          <g id="Group_5666" data-name="Group 5666" transform="translate(175.378 2.968)">
            <g id="Group_5665" data-name="Group 5665">
              <g id="Group_5664" data-name="Group 5664">
                <path id="Path_6744" data-name="Path 6744" d="M523.79,229.35s12.616-.589,2.207,19.112Z" transform="translate(-523.79 -229.348)" fill="#3a3f47"/>
              </g>
            </g>
          </g>
          <g id="Group_5668" data-name="Group 5668" transform="translate(162.888 188.474)">
            <g id="Group_5667" data-name="Group 5667">
              <path id="Path_6745" data-name="Path 6745" d="M554.45,392.269l-.941,2.634-39.679-12.29,1.906-5.342Z" transform="translate(-513.83 -377.27)" fill="#918783"/>
            </g>
          </g>
          <g id="Group_5670" data-name="Group 5670" transform="translate(161.525 148.807)">
            <g id="Group_5669" data-name="Group 5669" transform="translate(0 0)">
              <rect id="Rectangle_477" data-name="Rectangle 477" width="4.515" height="43.128" transform="translate(4.515 43.128) rotate(180)" fill="#918783"/>
            </g>
          </g>
          <g id="Group_5672" data-name="Group 5672" transform="translate(150.489 146.51)">
            <g id="Group_5671" data-name="Group 5671" transform="translate(0 0)">
              <rect id="Rectangle_478" data-name="Rectangle 478" width="26.599" height="2.546" transform="translate(26.599 2.546) rotate(180)" fill="#5e5854"/>
            </g>
          </g>
          <g id="Group_5674" data-name="Group 5674" transform="translate(123.723 188.135)">
            <g id="Group_5673" data-name="Group 5673">
              <path id="Path_6746" data-name="Path 6746" d="M482.6,392.337l.941,2.633,39.667-12.29L521.464,377Z" transform="translate(-482.6 -377)" fill="#918783"/>
            </g>
          </g>
          <g id="Group_5676" data-name="Group 5676" transform="translate(151.676 188.135)">
            <g id="Group_5675" data-name="Group 5675">
              <path id="Path_6747" data-name="Path 6747" d="M504.89,394.7v3.073l12.654-15.087L515.8,377Z" transform="translate(-504.89 -377)" fill="#918783"/>
            </g>
          </g>
          <g id="Group_5678" data-name="Group 5678" transform="translate(120.011 203.435)">
            <g id="Group_5677" data-name="Group 5677">
              <path id="Path_6748" data-name="Path 6748" d="M479.64,392.912a3.712,3.712,0,1,0,3.712-3.712A3.712,3.712,0,0,0,479.64,392.912Z" transform="translate(-479.64 -389.2)" fill="#bfb2ac"/>
            </g>
          </g>
          <g id="Group_5680" data-name="Group 5680" transform="translate(151.363 203.435)">
            <g id="Group_5679" data-name="Group 5679">
              <path id="Path_6749" data-name="Path 6749" d="M504.64,392.912a3.712,3.712,0,1,0,3.712-3.712A3.712,3.712,0,0,0,504.64,392.912Z" transform="translate(-504.64 -389.2)" fill="#bfb2ac"/>
            </g>
          </g>
          <g id="Group_5682" data-name="Group 5682" transform="translate(199.795 203.435)">
            <g id="Group_5681" data-name="Group 5681">
              <path id="Path_6750" data-name="Path 6750" d="M543.26,392.912a3.712,3.712,0,1,0,3.712-3.712A3.712,3.712,0,0,0,543.26,392.912Z" transform="translate(-543.26 -389.2)" fill="#bfb2ac"/>
            </g>
          </g>
          <g id="Group_5683" data-name="Group 5683" transform="translate(132.112 136.881)">
            <path id="Path_6751" data-name="Path 6751" d="M494.043,345.761h53.5a4.758,4.758,0,0,0,4.753-4.753v-.125a4.758,4.758,0,0,0-4.753-4.753h-53.5a4.758,4.758,0,0,0-4.753,4.753v.125A4.75,4.75,0,0,0,494.043,345.761Z" transform="translate(-489.29 -336.13)" fill="#535353"/>
          </g>
          <g id="Group_5684" data-name="Group 5684" transform="translate(20.205 96.427)">
            <rect id="Rectangle_479" data-name="Rectangle 479" width="3.587" height="110.711" transform="translate(3.587 110.711) rotate(180)" fill="#676767"/>
          </g>
          <g id="Group_5685" data-name="Group 5685" transform="translate(47.775 7.346)">
            <path id="Path_6752" data-name="Path 6752" d="M426.78,298.592H510.5a4.737,4.737,0,0,0,4.74-4.74V237.58a4.737,4.737,0,0,0-4.74-4.74H426.78a4.737,4.737,0,0,0-4.74,4.74v56.271A4.737,4.737,0,0,0,426.78,298.592Z" transform="translate(-422.04 -232.84)" fill="#828282"/>
          </g>
          <g id="Group_5686" data-name="Group 5686" transform="translate(51.433 10.9)">
            <rect id="Rectangle_480" data-name="Rectangle 480" width="85.905" height="51.894" transform="translate(85.905 51.894) rotate(180)" fill="#fff"/>
          </g>
          <g id="Group_5687" data-name="Group 5687" transform="translate(51.433 10.901)">
            <rect id="Rectangle_481" data-name="Rectangle 481" width="85.905" height="4.126" transform="translate(85.905 4.126) rotate(180)" fill="#cbcbcb"/>
          </g>
          <g id="Group_5688" data-name="Group 5688" transform="translate(54.598 18.144)">
            <path id="Path_6753" data-name="Path 6753" d="M430.415,282.91h4.49a2.938,2.938,0,0,0,2.934-2.935V244.385a2.938,2.938,0,0,0-2.934-2.935h-4.49a2.938,2.938,0,0,0-2.935,2.935v35.591A2.938,2.938,0,0,0,430.415,282.91Z" transform="translate(-427.48 -241.45)" fill="#cbcbcb"/>
          </g>
          <g id="Group_5689" data-name="Group 5689" transform="translate(116.01 18.144)">
            <path id="Path_6754" data-name="Path 6754" d="M478.03,245.288h15.726a1.582,1.582,0,0,0,1.58-1.58v-.677a1.582,1.582,0,0,0-1.58-1.58H478.03a1.582,1.582,0,0,0-1.58,1.58v.677A1.59,1.59,0,0,0,478.03,245.288Z" transform="translate(-476.45 -241.45)" fill="#cbcbcb"/>
          </g>
          <g id="Group_5690" data-name="Group 5690" transform="translate(116.01 24.552)">
            <path id="Path_6755" data-name="Path 6755" d="M479.723,282.665h12.353a3.276,3.276,0,0,0,3.273-3.273V249.833a3.276,3.276,0,0,0-3.273-3.273H479.723a3.275,3.275,0,0,0-3.273,3.273v29.559A3.267,3.267,0,0,0,479.723,282.665Z" transform="translate(-476.45 -246.56)" fill="#cbcbcb"/>
          </g>
          <g id="Group_5691" data-name="Group 5691" transform="translate(91.38 64.633)">
            <path id="Path_6756" data-name="Path 6756" d="M456.81,281.53a3.01,3.01,0,1,0,3.01-3.01A3.01,3.01,0,0,0,456.81,281.53Z" transform="translate(-456.81 -278.52)" fill="#5c5552"/>
          </g>
          <g id="Group_5692" data-name="Group 5692" transform="translate(75.089 81.776)">
            <path id="Path_6757" data-name="Path 6757" d="M443.82,300.63v-1.166s1.643-7.274,13.281-7.274,11.4,8.453,11.4,8.453H443.82Z" transform="translate(-443.82 -292.19)" fill="#2e436e"/>
          </g>
          <g id="Group_5694" data-name="Group 5694" transform="translate(79.02 78.35)">
            <g id="Group_5693" data-name="Group 5693">
              <path id="Path_6758" data-name="Path 6758" d="M467.842,293.963a11.585,11.585,0,0,1-3.449-.752c-.928-.564-6.471-4.289-7.763-3.687s-9.957,3.248-9.669,4.515,1.1,1.141,1.718.915,6.9-1.542,7.462-1.317c0,0-6.182,2.257-6.208,3.9s1.292,2.044,1.881,2.671,1.292,2.17,2.884,2.282,9.355-2.583,10.961-2.709,4.565.1,4.765-.163C470.6,299.355,467.842,293.963,467.842,293.963Z" transform="translate(-446.954 -289.458)" fill="#eea886"/>
            </g>
          </g>
          <g id="Group_5697" data-name="Group 5697" transform="translate(97.3 36.428)">
            <g id="Group_5696" data-name="Group 5696">
              <g id="Group_5695" data-name="Group 5695">
                <path id="Path_6759" data-name="Path 6759" d="M510.163,260.093c8.064-1.417,16.541-3.449,16.541-3.449l15.011-.614s13.782,3.035,19.2,5.48c.514.238.514,12.29,1.931,15.45l-4.5,9.493s-2.6,18.8-3.135,27.163c-.251,3.838.7,37.1.7,37.1s-1.354.665-11.588,1.793-35.842-.414-36-1.618,4.954-45.059,5.179-47.329c.351-3.486-1-19.589-1-19.589-1.931,2.6-6.847,14.3-11.977,19.877-3.022,3.273-17.958,5.292-20.768,5.38-6.133.2-17.306,1.43-17.645.828-.263-.364-.978-9.92-.276-10.158.615-.2,21.382-1.4,26.7-4.226,1.944-1.028,7.763-13.72,7.763-13.72S505.711,262.087,510.163,260.093Z" transform="translate(-461.531 -256.03)" fill="#858585"/>
              </g>
            </g>
          </g>
          <g id="Group_5698" data-name="Group 5698" transform="translate(166.374 69.963)">
            <path id="Path_6760" data-name="Path 6760" d="M525.74,342.954h25.195a9.131,9.131,0,0,0,9.13-9.13V291.9a9.131,9.131,0,0,0-9.13-9.13H525.74a9.131,9.131,0,0,0-9.13,9.13v41.924A9.147,9.147,0,0,0,525.74,342.954Z" transform="translate(-516.61 -282.77)" fill="#535353"/>
          </g>
          <g id="Group_5699" data-name="Group 5699" transform="translate(171.666 108.377)">
            <path id="Path_6761" data-name="Path 6761" d="M523.25,349.141c6.408,0,11.6-2.145,15.45-6.4,8.691-9.594,7.123-26.449,7.048-27.163a2.42,2.42,0,1,0-4.816.476c.025.188,1.4,15.475-5.832,23.451-2.922,3.223-6.81,4.791-11.851,4.791a2.42,2.42,0,0,0,0,4.841Z" transform="translate(-520.83 -313.401)" fill="#535353"/>
          </g>
          <g id="Group_5716" data-name="Group 5716" transform="translate(70.573 19.139)">
            <path id="Path_6676-2" data-name="Path 6676" d="M402.577,85.1a11.293,11.293,0,0,1-3.921,8.573c-.129.111-.262.222-.4.329s-.307.237-.466.351a11.267,11.267,0,0,1-5.155,2q-.5.061-1.02.078c-.122,0-.248.007-.373.007-.366,0-.728-.018-1.086-.052a10.286,10.286,0,0,1-1.179-.177,11.217,11.217,0,0,1-4.63-2.114,11.409,11.409,0,0,1-1.146-1.009c-.07-.07-.14-.14-.207-.214q-.383-.4-.721-.843a11.332,11.332,0,1,1,20.3-6.925Z" transform="translate(-379.91 -73.77)" fill="#efefef"/>
            <g id="Group_5572-2" data-name="Group 5572" transform="translate(2.369 4.972)">
              <g id="Group_5564-2" data-name="Group 5564" transform="translate(1.585 9.976)">
                <path id="Path_6677-2" data-name="Path 6677" d="M405.373,116.858l-.835,3a11.267,11.267,0,0,1-5.155,2q-.5.061-1.02.078c-.122,0-.248.007-.373.007-.366,0-.728-.018-1.087-.052a10.294,10.294,0,0,1-1.179-.177,11.217,11.217,0,0,1-4.63-2.114c-.159-.99-.333-2.088-.484-3.115.831-.31,3.485-1.212,5.155-1.777l.07-.022c.037-.015.074-.026.107-.037.1-.033.192-.067.285-.1s.177-.059.259-.089c.344-.115.584-.2.669-.225h0l.033-.011h.018l2.25.17.377.03.118.007.052.011c.137.033.528.137,1.053.3h0C402.4,115.148,404.56,115.92,405.373,116.858Z" transform="translate(-390.61 -114.22)" fill="#fff"/>
              </g>
              <g id="Group_5565-2" data-name="Group 5565" transform="translate(6.289 0.703)">
                <path id="Path_6678-2" data-name="Path 6678" d="M406.61,89.158s2.7.455,2.239,4.678-2.838,3.85-3,3.843-2.395.052-2.513-5.114C403.336,92.569,403.3,88.752,406.61,89.158Z" transform="translate(-403.339 -89.128)" fill="#eea987"/>
              </g>
              <g id="Group_5566-2" data-name="Group 5566" transform="translate(7.195 7.545)">
                <path id="Path_6679-2" data-name="Path 6679" d="M409.334,108.133a9.825,9.825,0,0,0,.07,2.117c.166.377-2.165,1.574-3.614.211a15.13,15.13,0,0,0,.2-2.572C405.9,107.217,409.334,108.133,409.334,108.133Z" transform="translate(-405.79 -107.643)" fill="#eea987"/>
              </g>
              <g id="Group_5567-2" data-name="Group 5567" transform="translate(11.676 4.081)">
                <path id="Path_6680-2" data-name="Path 6680" d="M418.1,98.406s.3-.314.4.007-.477,1.744-.443,1.811c0,0-.055.122-.126.055A16.274,16.274,0,0,1,418.1,98.406Z" transform="translate(-417.918 -98.268)" fill="#eea987"/>
              </g>
              <g id="Group_5568-2" data-name="Group 5568" transform="translate(5.896 3.961)">
                <path id="Path_6681-2" data-name="Path 6681" d="M402.7,98.09s-.288-.325-.4-.007a5.464,5.464,0,0,0,.366,1.825s.092.144.166.081A16.149,16.149,0,0,0,402.7,98.09Z" transform="translate(-402.275 -97.943)" fill="#eea987"/>
              </g>
              <g id="Group_5569-2" data-name="Group 5569" transform="translate(6.099)">
                <path id="Path_6682-2" data-name="Path 6682" d="M408.75,91.084c-.092.576-.181,1.009-.181,1.009l-.392.514a10.508,10.508,0,0,0-.037-1.312c-.022-.067-.048-.188-.078-.318-.044-.214-.092-.455-.122-.536a5.788,5.788,0,0,0-4.327.137,3.337,3.337,0,0,1,.015.37c0,.225-.026.48-.129.517-.192.07-.111,1.327-.111,1.327l-.314-.362s-.092-.658-.181-1.412v0c-.018-.177-.041-.358-.059-.536a3.532,3.532,0,0,1,1.016-2.945,4.861,4.861,0,0,1,3.5.015,1.207,1.207,0,0,1,.521.137A5,5,0,0,1,408.75,91.084Z" transform="translate(-402.824 -87.225)" fill="#363636"/>
              </g>
              <path id="Path_6683-2" data-name="Path 6683" d="M406.84,110.75a1.721,1.721,0,0,0,1.43.576,1.94,1.94,0,0,0,1.434-.543,1.743,1.743,0,0,1-1.437.979A1.77,1.77,0,0,1,406.84,110.75Z" transform="translate(-399.257 -102.057)" fill="#c78d71"/>
              <path id="Path_6684-2" data-name="Path 6684" d="M405.05,114.5a2.941,2.941,0,0,0,2.1,1.378c.872.074,1.622-1.027,1.977-1.571A5.265,5.265,0,0,0,405.05,114.5Z" transform="translate(-398.129 -104.095)" fill="#eea987"/>
              <path id="Path_6685-2" data-name="Path 6685" d="M412.446,113.77a7.429,7.429,0,0,1-1.726,1.5l.732,1.127,1.245-2.225Z" transform="translate(-401.703 -103.961)" fill="#eddad3"/>
              <path id="Path_6686-2" data-name="Path 6686" d="M405.206,114.23a5.012,5.012,0,0,0,1.766,1.327l-.8,1.16-1.4-2.029Z" transform="translate(-397.952 -104.251)" fill="#eddad3"/>
              <path id="Path_6687-2" data-name="Path 6687" d="M409.623,117.82l.625.953a1.3,1.3,0,0,1-1.268-.022Z" transform="translate(-400.606 -106.514)" fill="#5073ab"/>
              <path id="Path_6688-2" data-name="Path 6688" d="M421.064,117.078s-.007.022-.019.063c-.07.244-.333,1.186-.676,2.435-.129.111-.262.222-.4.329s-.307.237-.466.351a11.267,11.267,0,0,1-5.155,2c.166-3.921.632-7.4.632-7.4.366.1.717.192,1.046.288h0a23.7,23.7,0,0,1,4.83,1.825s.007,0,.011.007A1.8,1.8,0,0,1,421.064,117.078Z" transform="translate(-403.992 -104.642)" fill="#0e0e0e"/>
              <path id="Path_6689-2" data-name="Path 6689" d="M393.673,122.536a11.217,11.217,0,0,1-4.63-2.114,11.416,11.416,0,0,1-1.146-1.009c-.07-.07-.14-.14-.207-.214-.2-.843-.329-1.393-.34-1.426h0s1.4-.92,6.36-2.243v0C393.713,115.645,393.717,118.826,393.673,122.536Z" transform="translate(-386.969 -105.07)" fill="#0e0e0e"/>
              <path id="Path_6690-2" data-name="Path 6690" d="M409.143,120.094c-.044,1.031-.052,3.038-.033,5.325-.122,0-.248.007-.373.007-.366,0-.728-.018-1.086-.052a34.358,34.358,0,0,1,.754-5.281c.055-.229.089-.344.089-.344l.665.111C409.15,119.931,409.147,120.009,409.143,120.094Z" transform="translate(-399.768 -107.731)" fill="#2a2a2a"/>
              <g id="Group_5570-2" data-name="Group 5570" transform="translate(15.978 12.318)">
                <path id="Path_6691-2" data-name="Path 6691" d="M431.227,121.894a11.237,11.237,0,0,1-1.267,1.282c-.129.111-.262.222-.4.329l.89-2.945h0s.008,0,.011.007a.764.764,0,0,1,.174.174A5.359,5.359,0,0,1,431.227,121.894Z" transform="translate(-429.56 -120.56)" fill="#323657"/>
              </g>
              <g id="Group_5571-2" data-name="Group 5571" transform="translate(0 12.699)">
                <path id="Path_6692-2" data-name="Path 6692" d="M387.247,123.234c-.07-.07-.14-.14-.207-.214q-.382-.4-.721-.843a1.312,1.312,0,0,1,.381-.588h0Z" transform="translate(-386.32 -121.59)" fill="#323657"/>
              </g>
            </g>
          </g>
        </g>
        <g id="Group_5711" data-name="Group 5711" transform="translate(476.627 242.001)">
          <path id="Path_6779" data-name="Path 6779" d="M409.282,243.517a1.488,1.488,0,0,1-1.492-1.492V221.432a1.492,1.492,0,0,1,2.985,0v20.592A1.488,1.488,0,0,1,409.282,243.517Z" transform="translate(-407.79 -219.94)" fill="#949494"/>
        </g>
        <g id="Group_5712" data-name="Group 5712" transform="translate(466.331 252.297)">
          <path id="Path_6780" data-name="Path 6780" d="M421.664,231.135H401.072a1.492,1.492,0,0,1,0-2.985h20.592a1.492,1.492,0,0,1,0,2.985Z" transform="translate(-399.58 -228.15)" fill="#949494"/>
        </g>
      </g>
    </g>
  </g>
</svg>
