<svg xmlns="http://www.w3.org/2000/svg" width="380.405" height="417.064" viewBox="0 0 380.405 417.064">
  <g id="Improve_Employee_" data-name="Improve Employee " transform="translate(-237.119 -52.775)">
    <path id="Path_8121" data-name="Path 8121" d="M1378.068,629.326H1274.758a14.78,14.78,0,0,1-14.779-14.779V511.239a14.78,14.78,0,0,1,14.779-14.779h103.309a14.78,14.78,0,0,1,14.779,14.779V614.548A14.781,14.781,0,0,1,1378.068,629.326Z" transform="translate(-979.021 -385.098)" fill="#f1f1f1" opacity="0.95"/>
    <rect id="Rectangle_713" data-name="Rectangle 713" width="61.515" height="3.038" transform="translate(316.634 213.978)" fill="#c5c5c5"/>
    <rect id="Rectangle_714" data-name="Rectangle 714" width="44.089" height="3.038" transform="translate(325.347 223.555)" fill="#c5c5c5"/>
    <path id="Path_8122" data-name="Path 8122" d="M2038.651,892.84H1891.631a17.41,17.41,0,0,1-17.411-17.411V696.811a17.411,17.411,0,0,1,17.411-17.411h147.021a17.411,17.411,0,0,1,17.411,17.411v178.62A17.412,17.412,0,0,1,2038.651,892.84Z" transform="translate(-1438.538 -521.957)" fill="#f1f1f1" opacity="0.95"/>
    <g id="Group_6346" data-name="Group 6346" transform="translate(518.129 283.36)">
      <rect id="Rectangle_715" data-name="Rectangle 715" width="14.423" height="2.67" fill="#7d7d7d"/>
    </g>
    <g id="Group_6347" data-name="Group 6347" transform="translate(463.375 307.836)">
      <rect id="Rectangle_716" data-name="Rectangle 716" width="83.921" height="5.171" fill="#c5c5c5"/>
      <rect id="Rectangle_717" data-name="Rectangle 717" width="67.863" height="5.171" transform="translate(0 24.827)" fill="#c5c5c5"/>
      <rect id="Rectangle_718" data-name="Rectangle 718" width="39.784" height="5.171" transform="translate(0 12.413)" fill="#c5c5c5"/>
    </g>
    <g id="Group_6348" data-name="Group 6348" transform="translate(464.818 178.728)">
      <path id="Path_8123" data-name="Path 8123" d="M2094.323,763.9v2.612H2109.7v14.434h2.612V763.9ZM1989.89,780.946h2.612V766.512h15.378V763.9h-17.99ZM2109.7,855.42v14.439h-15.378v2.612h17.99V855.42Zm-117.2,0h-2.612v17.051h17.99v-2.612H1992.5Z" transform="translate(-1989.89 -763.9)" fill="#c9c9c9"/>
    </g>
    <g id="Group_6351" data-name="Group 6351" transform="translate(563.719 307.453)">
      <g id="Group_6349" data-name="Group 6349">
        <path id="Path_8124" data-name="Path 8124" d="M2397.9,1305.691a15.381,15.381,0,1,1,15.38-15.381A15.4,15.4,0,0,1,2397.9,1305.691Zm0-27.781a12.4,12.4,0,1,0,12.4,12.4A12.418,12.418,0,0,0,2397.9,1277.91Z" transform="translate(-2382.52 -1274.93)" fill="#6a6a6a"/>
      </g>
      <g id="Group_6350" data-name="Group 6350" transform="translate(7.413 10.381)">
        <path id="Path_8125" data-name="Path 8125" d="M2418.937,1327.2l-6.987-6.987,2.1-2.106,4.884,4.882,6.844-6.844,2.1,2.106Z" transform="translate(-2411.95 -1316.14)" fill="#6a6a6a"/>
      </g>
    </g>
    <path id="Path_8126" data-name="Path 8126" d="M850.07,1838.53c0,6.451-78.625,11.68-175.615,11.68s-175.615-5.229-175.615-11.68,78.625-11.681,175.615-11.681S850.07,1832.082,850.07,1838.53Z" transform="translate(-261.721 -1380.371)" fill="#e8e8e8"/>
    <rect id="Rectangle_719" data-name="Rectangle 719" width="89.556" height="76.838" transform="translate(302.614 116.332)" fill="#ebebeb" opacity="0.95"/>
    <g id="Group_6356" data-name="Group 6356" transform="translate(302.296 105.216)">
      <path id="Path_8127" data-name="Path 8127" d="M1423.991,651.273c-2.949-7.8-10.035-11.385-13.38-12.5-1.191-.4-3.317-1.091-5.559-1.816-4.041-1.3-8.454-2.725-8.454-2.725h-13.937s-4.827,1.617-9.955,3.416a.005.005,0,0,1-.005.005c-4.725,1.657-9.7,3.464-11.38,4.307-3.5,1.748-9.4,14.255-10.589,15.688a110.394,110.394,0,0,0-6.041,11.051h15.015c1.587-2.726,2.809-4.839,2.809-4.839s.95,2.083,2.1,4.839h48.1c.761-3.2,1.234-7.232,1.234-7.232s2.577,3.5,5.388,7.232h13.864C1429.838,663.039,1425.654,655.676,1423.991,651.273Z" transform="translate(-1344.69 -593.38)" fill="#616161"/>
      <g id="Group_6352" data-name="Group 6352" transform="translate(33.559 2.446)">
        <path id="Path_8128" data-name="Path 8128" d="M1490.959,481.875s10.9,1.718,9.24,18.769-11.277,15.655-11.922,15.638-9.655.31-10.358-20.509C1477.918,495.772,1477.611,480.376,1490.959,481.875Z" transform="translate(-1477.918 -481.772)" fill="#eea886"/>
      </g>
      <g id="Group_6353" data-name="Group 6353" transform="translate(55.376 15.939)">
        <path id="Path_8129" data-name="Path 8129" d="M1565.16,535.9s1.194-1.274,1.632.015-1.627,7.046-1.7,7.315c0,0-.219.5-.5.224S1565.16,535.9,1565.16,535.9Z" transform="translate(-1564.527 -535.339)" fill="#eea886"/>
      </g>
      <g id="Group_6354" data-name="Group 6354" transform="translate(32.148 15.704)">
        <path id="Path_8130" data-name="Path 8130" d="M1474.02,534.984s-1.169-1.3-1.632-.015,1.474,7.076,1.562,7.348c0,0,.209.5.5.234S1474.02,534.984,1474.02,534.984Z" transform="translate(-1472.316 -534.403)" fill="#eea886"/>
      </g>
      <g id="Group_6355" data-name="Group 6355" transform="translate(32.302)">
        <path id="Path_8131" data-name="Path 8131" d="M1496.627,491.177l-1.559,2.086a41.828,41.828,0,0,0-.206-5.29c-.25-.718-.632-2.907-.844-3.423s-9.358-3.081-17.441.748c0,0,.355,3.287-.418,3.582s-.4,5.355-.4,5.355l-1.282-1.448s-1.962-13.119-1.479-14.486,2.031-9.587,18.61-4.708c0,0,5.169-1.1,6.207,2.474S1496.627,491.177,1496.627,491.177Z" transform="translate(-1472.926 -472.061)" fill="#434343"/>
      </g>
      <path id="Path_8132" data-name="Path 8132" d="M1486.713,601.94c-.005-.015-1.4-.688-1.4-.688-.68-1.519-.174-7.925-.174-7.925s-13.882-3.534-13.484-.831-1.2,8.978-1.2,8.978l-7.121,3.537s7.587,20.373,16.308,17.743,12.013-18.479,12.013-18.479Z" transform="translate(-1433.453 -561.398)" fill="#eea886"/>
      <path id="Path_8133" data-name="Path 8133" d="M1497.15,606.52a8.232,8.232,0,0,0,6.119,2.887c2.554,0,4.385-.715,6.93-3.2,0,0-1.1,4.71-6.912,5.149C1503.284,611.359,1499.072,611.9,1497.15,606.52Z" transform="translate(-1458.746 -572.419)" fill="#a77860"/>
    </g>
    <g id="Group_6413" data-name="Group 6413" transform="translate(257.373 205.962)">
      <g id="Group_6361" data-name="Group 6361" transform="translate(22.655)">
        <g id="Group_6360" data-name="Group 6360">
          <g id="Group_6359" data-name="Group 6359">
            <g id="Group_6358" data-name="Group 6358">
              <g id="Group_6357" data-name="Group 6357">
                <path id="Path_8134" data-name="Path 8134" d="M1276.887,873.776s8.008,3.917,6.028,14.575-2.857,12.093-.642,16.257,4.829,21.927,2.834,25.3-24.675-14.8-27.819-30.033,1.993-22.016,3.809-24.542S1269.816,870.187,1276.887,873.776Z" transform="translate(-1256.289 -872.018)" fill="#0e2d3d"/>
              </g>
            </g>
          </g>
        </g>
      </g>
      <g id="Group_6362" data-name="Group 6362" transform="translate(38.353 226.937)">
        <path id="Path_8135" data-name="Path 8135" d="M1320.489,1795.089h1.816v-8.559a24.309,24.309,0,0,1,5.793,5.655c2.234,3.282,5.3,3,9.983,2.791s4.469-2.093,4.048-4.745-5.167-3.491-6.7-3.91-5.023-6.426-6.143-7.889a19.991,19.991,0,0,1-2.338-3.909s-.872-3.559-5.2,0-3.071,10.4-2.582,11.03S1320.489,1795.089,1320.489,1795.089Z" transform="translate(-1318.609 -1772.94)" fill="#020202"/>
      </g>
      <g id="Group_6363" data-name="Group 6363" transform="translate(40.505 227.578)">
        <path id="Path_8136" data-name="Path 8136" d="M1336.022,1788.224c1.6,1.048,5.793,0,5.793,0-1.186-1.536-8.481-11.8-8.481-11.8-4.433-2.582-6.184.972-6.184.972C1328.959,1777.951,1334.417,1787.176,1336.022,1788.224Z" transform="translate(-1327.15 -1775.487)" fill="#eea886"/>
      </g>
      <g id="Group_6367" data-name="Group 6367" transform="translate(95.823 77.579)">
        <g id="Group_6366" data-name="Group 6366">
          <g id="Group_6365" data-name="Group 6365">
            <g id="Group_6364" data-name="Group 6364">
              <path id="Path_8137" data-name="Path 8137" d="M1546.989,1184.819s2.907.557,3.9-.809a9.46,9.46,0,0,1,3.368-2.327c.793-.368,2.811-2.408,3.285-1.411s-3.161,3.521-3.819,4.2,3.565.982,4.3,1.647-.169,7.627-3.041,7.086-5.587-3.018-6.111-3.013a17.866,17.866,0,0,1-2.106-.312Z" transform="translate(-1546.76 -1180)" fill="#eea886"/>
            </g>
          </g>
        </g>
      </g>
      <g id="Group_6371" data-name="Group 6371" transform="translate(104.176 83.415)">
        <g id="Group_6370" data-name="Group 6370">
          <g id="Group_6369" data-name="Group 6369">
            <g id="Group_6368" data-name="Group 6368">
              <path id="Path_8138" data-name="Path 8138" d="M1582.182,1203.17s8.688,2.244,9.141,2.879.3,1.1-.516.922-8.456-1.927-8.456-1.927,9.836,4.385,10.323,4.824c.285.257.048,1.171-.4,1.118s-10.446-3.841-10.446-3.841,9.177,4.111,9.474,4.6a.693.693,0,0,1-.869.955c-.7-.257-9.434-3.592-9.434-3.592s6.491,3.411,6.5,3.972c.005.343-.163,1.144-1.811.209s-5.766-2.725-5.766-2.725Z" transform="translate(-1579.92 -1203.17)" fill="#eea886"/>
            </g>
          </g>
        </g>
      </g>
      <g id="Group_6372" data-name="Group 6372" transform="translate(16.203 233.899)">
        <path id="Path_8139" data-name="Path 8139" d="M1231.183,1816.352h1.116v-6.282a13.643,13.643,0,0,1,2.894,5.045c.907,3,4.156,3.892,9.114,3.753s5.025-2.1,4.607-5.028-4.607-4.469-4.607-4.469c-1.884-1.675-6.562-8.623-6.562-8.623a6.537,6.537,0,0,0-5.358,1.1c-2.355,1.9-1.622,6.2-1.554,7.313S1231.183,1816.352,1231.183,1816.352Z" transform="translate(-1230.672 -1800.581)" fill="#020202"/>
      </g>
      <g id="Group_6373" data-name="Group 6373" transform="translate(9.97 97.52)">
        <path id="Path_8140" data-name="Path 8140" d="M1216.093,1261.646s-5.907,7.678-7.509,16.789.947,39.686.877,44.19-4.26,15.708-3.421,24.189,4.144,50.7,4.144,50.7l9.05-1.8s-.524-43.036,0-46.6,1.574-16.537,1.783-18,13.3-39.96,13.3-46.527S1230.333,1250.93,1216.093,1261.646Z" transform="translate(-1205.929 -1259.167)" fill="#505050"/>
      </g>
      <g id="Group_6374" data-name="Group 6374" transform="translate(29.494 101.08)">
        <path id="Path_8141" data-name="Path 8141" d="M1303.747,1275.219s9.7,37.033,10.854,42.165,2.821,9.363,2.821,11.542c0,5.056-1.879,13.172-1.879,13.172l-12.322,58.931h-11.736s6.539-35.356,6.715-42.268c.176-6.93,5.509-16.768,4.464-19.7s-16.859-36.754-16.859-36.754S1273.835,1264.469,1303.747,1275.219Z" transform="translate(-1283.439 -1273.297)" fill="#505050"/>
      </g>
      <g id="Group_6375" data-name="Group 6375" transform="translate(17.917 234.065)">
        <path id="Path_8142" data-name="Path 8142" d="M1249.4,1809.862l-6.562-8.622-5.358,1.1a24.264,24.264,0,0,0,4.046,6.761C1244.611,1812.54,1249.4,1809.862,1249.4,1809.862Z" transform="translate(-1237.48 -1801.24)" fill="#eea886"/>
      </g>
      <g id="Group_6377" data-name="Group 6377" transform="translate(42.272 40.067)">
        <g id="Group_6376" data-name="Group 6376">
          <path id="Path_8143" data-name="Path 8143" d="M1337.689,1031.08a12.108,12.108,0,0,1,7.023,3.617,46.455,46.455,0,0,1,6.653,10.131c.793,1.728,11.889,17.736,12.466,18.1s6.154,2.224,9.851,3.469c5.7,1.919,17.139,6.076,17.139,6.076l-2.27,7.189s-21.5-7.035-26.885-8.363c-6.584-1.622-21.741-21.068-21.741-21.068S1328.621,1036.982,1337.689,1031.08Z" transform="translate(-1334.167 -1031.08)" fill="#434343"/>
        </g>
      </g>
      <g id="Group_6379" data-name="Group 6379" transform="translate(11.043 36.99)">
        <g id="Group_6378" data-name="Group 6378">
          <path id="Path_8144" data-name="Path 8144" d="M1237.961,1019.136a54.2,54.2,0,0,0,6.982,2.806c1.8.36,8.781,9.428,10.005,12.738s0,8.277-2.519,14.106-.144,7.773-1.295,13.6-.781,27.641-.564,30.877-33.688,8.149-40.381,2.247c0,0,4.532-19.655,9.9-25.265,1.161-1.214,1.038-9.3.247-11.313s-9.715-17.058-9.715-17.058-.655-15.257,3.239-18.28c3.383-2.627,12.6-3.564,14.257-4.139S1234.578,1018.632,1237.961,1019.136Z" transform="translate(-1210.19 -1018.865)" fill="#b8b8b8"/>
        </g>
      </g>
      <g id="Group_6381" data-name="Group 6381" transform="translate(28.96 24.189)">
        <g id="Group_6380" data-name="Group 6380">
          <path id="Path_8145" data-name="Path 8145" d="M1293.648,975.139s-.154,1.426-.332,3.355c-.068.763-.144,1.6-.214,2.469a58.544,58.544,0,0,0-.272,6.778s-5.386,5.4-11.509-6.3a16.066,16.066,0,0,0,.635-11.388C1280.018,963.487,1293.648,975.139,1293.648,975.139Z" transform="translate(-1281.32 -968.048)" fill="#eea886"/>
        </g>
      </g>
      <g id="Group_6382" data-name="Group 6382" transform="translate(53.805 55.201)">
        <path id="Path_8146" data-name="Path 8146" d="M1382.5,1105.024s1.3-8.622-.083-13.864a33.481,33.481,0,0,1-2.471,10.909Z" transform="translate(-1379.95 -1091.16)" fill="#183c59"/>
      </g>
      <g id="Group_6383" data-name="Group 6383" transform="translate(24.822 37.455)">
        <path id="Path_8147" data-name="Path 8147" d="M1264.89,1021.67s3.705,10.94,13.875,10.136,4.821-9.237,4.821-9.237a22.34,22.34,0,0,0-3.247-1.59c-.713-.136-11.244-.269-11.244-.269Z" transform="translate(-1264.89 -1020.71)" fill="#eea886"/>
      </g>
      <g id="Group_6384" data-name="Group 6384" transform="translate(43.517 39.311)">
        <path id="Path_8148" data-name="Path 8148" d="M1339.11,1028.08s5.328,14.733,5.328,29.751.428,39.479,2.29,47.2,7.154,31.615,7.154,31.615l4.149-2.146s-9.975-38.129-10.728-40.877.572-31.794,1.287-34.227,3.758-13.257,3.285-16.26c-.6-3.786-4.139-9.388-9.862-14.2Z" transform="translate(-1339.11 -1028.08)" fill="#434343"/>
      </g>
      <g id="Group_6385" data-name="Group 6385" transform="translate(4.353 37.953)">
        <path id="Path_8149" data-name="Path 8149" d="M1206.109,1022.69a153.248,153.248,0,0,1,4.987,24.176c1.678,13.577-5.149,76.6-9.728,90.9l-17.738-2.862s3.819-44.545,9-52.651,6.834-15.28,1.237-32.2,2.454-25.3,2.454-25.3S1204.555,1022.866,1206.109,1022.69Z" transform="translate(-1183.63 -1022.69)" fill="#434343"/>
      </g>
      <g id="Group_6386" data-name="Group 6386" transform="translate(0.552 68.563)">
        <path id="Path_8150" data-name="Path 8150" d="M1213.959,1158.555l-21.509,37.253-23.91-13.8,20.572-37.794Z" transform="translate(-1168.54 -1144.21)" fill="#616161"/>
      </g>
      <g id="Group_6387" data-name="Group 6387" transform="translate(3.041 71.45)">
        <path id="Path_8151" data-name="Path 8151" d="M1218.756,1168.411l-19.1,33.086-21.234-12.262,18.272-33.565Z" transform="translate(-1178.42 -1155.67)" fill="#e0cec7"/>
      </g>
      <g id="Group_6388" data-name="Group 6388" transform="translate(27.409 73.939)">
        <path id="Path_8152" data-name="Path 8152" d="M1284.082,1172.83l1.34-2.323-8.584-4.957-1.678,2.129Z" transform="translate(-1275.16 -1165.55)" fill="#616161"/>
      </g>
      <g id="Group_6394" data-name="Group 6394" transform="translate(25.444 96.07)">
        <g id="Group_6393" data-name="Group 6393">
          <g id="Group_6392" data-name="Group 6392">
            <g id="Group_6391" data-name="Group 6391">
              <g id="Group_6390" data-name="Group 6390">
                <g id="Group_6389" data-name="Group 6389">
                  <path id="Path_8153" data-name="Path 8153" d="M1277.221,1264.989a4.441,4.441,0,0,1-1.406-.2s-.75-.436-1.3-.713a4.514,4.514,0,0,0-.436-.2,8.1,8.1,0,0,1-2.4-1.015,54.754,54.754,0,0,1-4.317-4.559l1.589-2.418,1.166-2.476s7.071.456,8.028.97a2.539,2.539,0,0,1,.265.161,10.328,10.328,0,0,1,1.5,1.532c.136.116,1.41,1.365,1.365,1.9a1.74,1.74,0,0,1-.847,1.466,4.186,4.186,0,0,1-.892,2.111,2.59,2.59,0,0,1-1.247,1.917C1278.287,1263.458,1278.007,1264.8,1277.221,1264.989Z" transform="translate(-1267.36 -1253.41)" fill="#eea886"/>
                </g>
              </g>
            </g>
          </g>
        </g>
      </g>
      <g id="Group_6396" data-name="Group 6396" transform="translate(0 39.848)">
        <g id="Group_6395" data-name="Group 6395">
          <path id="Path_8154" data-name="Path 8154" d="M1187.08,1030.429s-6.532-1.871-10.275,5.325-3.723,10.267-4.224,13.783c-.474,3.318-2.6,12.378-2.821,13.315s-5.045,12.094-2.831,15.993c2.227,3.92,24.832,15.459,24.688,16.32s3.914-8.723,3.914-8.723-9.149-5.1-10.645-6.667c-2.433-2.549-7.567-5.3-6.512-8.461,1.239-3.715,4.96-16.252,5.824-18.088S1192.584,1032.769,1187.08,1030.429Z" transform="translate(-1166.349 -1030.21)" fill="#414141"/>
        </g>
      </g>
      <g id="Group_6401" data-name="Group 6401" transform="translate(26.753 2.6)">
        <g id="Group_6400" data-name="Group 6400">
          <g id="Group_6399" data-name="Group 6399">
            <g id="Group_6398" data-name="Group 6398">
              <g id="Group_6397" data-name="Group 6397">
                <path id="Path_8155" data-name="Path 8155" d="M1287.9,882.68s11.627,3.655,5.315,23.721-22.194-2.325-20.532-14.552S1287.9,882.68,1287.9,882.68Z" transform="translate(-1272.559 -882.34)" fill="#eea987"/>
              </g>
            </g>
          </g>
        </g>
      </g>
      <g id="Group_6406" data-name="Group 6406" transform="translate(25.835 0.987)">
        <g id="Group_6405" data-name="Group 6405">
          <g id="Group_6404" data-name="Group 6404">
            <g id="Group_6403" data-name="Group 6403">
              <g id="Group_6402" data-name="Group 6402">
                <path id="Path_8156" data-name="Path 8156" d="M1291.672,889.6a26.23,26.23,0,0,1-15.448,6.378s-3.716,4.358-4,6.068c0,0-8.627-14.706,1.977-23.522S1295.572,885.966,1291.672,889.6Z" transform="translate(-1268.912 -875.938)" fill="#0e2d3d"/>
              </g>
            </g>
          </g>
        </g>
      </g>
      <g id="Group_6411" data-name="Group 6411" transform="translate(29.229 17.411)">
        <g id="Group_6410" data-name="Group 6410">
          <g id="Group_6409" data-name="Group 6409">
            <g id="Group_6408" data-name="Group 6408">
              <g id="Group_6407" data-name="Group 6407">
                <path id="Path_8157" data-name="Path 8157" d="M1286.422,945.154c-.076-1.461-.975-4.784-3.146-3.854s.134,7.7,1.572,7.282C1284.851,948.583,1286.6,948.61,1286.422,945.154Z" transform="translate(-1282.386 -941.139)" fill="#eea987"/>
              </g>
            </g>
          </g>
        </g>
      </g>
      <g id="Group_6412" data-name="Group 6412" transform="translate(32.177 29.165)">
        <path id="Path_8158" data-name="Path 8158" d="M1302.866,993.271c-.068.763-.144,1.6-.214,2.469,0,0-5.133-.3-8.562-7.94C1294.314,988.132,1298.075,993.657,1302.866,993.271Z" transform="translate(-1294.09 -987.8)" fill="#a77860"/>
      </g>
    </g>
    <path id="Path_8167" data-name="Path 8167" d="M1924.725,389.053h-73.316A12.148,12.148,0,0,1,1839.26,376.9V313.289a12.148,12.148,0,0,1,12.149-12.149h73.316a12.148,12.148,0,0,1,12.149,12.149V376.9A12.146,12.146,0,0,1,1924.725,389.053Z" transform="translate(-1412.384 -238.978)" fill="#f1f1f1" opacity="0.95"/>
    <g id="Group_6420" data-name="Group 6420" transform="translate(471.44 133.448)">
      <rect id="Rectangle_720" data-name="Rectangle 720" width="7.743" height="1.433" fill="#464646"/>
    </g>
    <g id="Group_6436" data-name="Group 6436" transform="translate(456.725 52.775)">
      <g id="Group_6423" data-name="Group 6423" transform="translate(8.493)">
        <g id="Group_6422" data-name="Group 6422">
          <g id="Group_6421" data-name="Group 6421">
            <path id="Path_8168" data-name="Path 8168" d="M2008.571,265.561s6.237,3.426,4.257,11.849-2.733,9.534-1.124,12.937,3.023,17.665,1.308,20.275-19.116-12.726-21.049-25,2.418-17.479,3.963-19.424S2003.07,262.433,2008.571,265.561Z" transform="translate(-1991.477 -263.875)" fill="#464646"/>
          </g>
        </g>
      </g>
      <g id="Group_6424" data-name="Group 6424" transform="translate(19.344 31.395)">
        <path id="Path_8169" data-name="Path 8169" d="M2052.513,428.415h-6.678c-.322-3.295-.622-5.587-.559-5.927.1-.559-6.645-18.25-7.275-19.713s-3.106-5.383-3.428-9.078,4.491-5.186,4.491-5.186c6.5,1.164,8.705,10.161,8.705,10.161s2.731,18.242,4.111,23.376A32.673,32.673,0,0,1,2052.513,428.415Z" transform="translate(-2034.557 -388.51)" fill="#eea886"/>
      </g>
      <path id="Path_8170" data-name="Path 8170" d="M2049.484,398.311l-9.945,4.194s-9.141-22.686-1.479-20.151C2045.7,384.877,2049.134,389.623,2049.484,398.311Z" transform="translate(-2015.544 -352.362)" fill="#707070"/>
      <g id="Group_6425" data-name="Group 6425" transform="translate(3.135 28.485)">
        <path id="Path_8171" data-name="Path 8171" d="M1998.8,405.1c-.29,2.252-1.479,10.229-1.215,12.383.045.355.192,1.174.413,2.285h-23.98c.637-2.277,1.219-4.292,1.569-5.464,1.164-3.861.05-4.9-.539-7.988-.229-1.209-1.035-3.506-1.912-6.1-.295-.867-.6-1.771-.887-2.678a55.1,55.1,0,0,1-1.846-8.559c-1.446-9.224,5.648-10.111,5.648-10.111,2.637-.486,7.242-1.909,7.242-1.909l7.214,1.5a7.754,7.754,0,0,1,1.688,1s.005,0,.005.005a13.123,13.123,0,0,1,1.622,1.423,43.673,43.673,0,0,1,3.925,5.673c.479.781.959,1.582,1.413,2.37,1.466,2.539,2.509,4.585,2.476,6.894C2001.607,398.1,1999.088,402.852,1998.8,405.1Z" transform="translate(-1970.208 -376.96)" fill="#616161"/>
      </g>
      <path id="Path_8172" data-name="Path 8172" d="M2017.641,378.657s4.519,7.723,2.839,8.3-10.539-1.373-14-8.67C2006.48,378.287,2012.294,375.644,2017.641,378.657Z" transform="translate(-1994.208 -348.665)" fill="#eea886"/>
      <path id="Path_8173" data-name="Path 8173" d="M2021.506,352.763s-4.015,1.7-7.65-3.894c0,0,.977-6.35-1.088-10.023s9.025,4.4,9.025,4.4-.179.758-.365,1.874c-.1.572-.194,1.237-.267,1.945-.063.589-.111,1.207-.131,1.821A9.93,9.93,0,0,0,2021.506,352.763Z" transform="translate(-1998.721 -319.245)" fill="#eea886"/>
      <path id="Path_8174" data-name="Path 8174" d="M1985.943,431.29c-.826,4.252-6.756,9.577-6.756,9.577-.292-.869-.595-1.771-.887-2.675A38.764,38.764,0,0,0,1985.943,431.29Z" transform="translate(-1973.126 -389.119)" fill="#393d63"/>
      <g id="Group_6426" data-name="Group 6426" transform="translate(0.888 31.674)">
        <path id="Path_8175" data-name="Path 8175" d="M1971.729,403.5c-.375,1.549-2.106,17.24-1.917,17.776.111.307.948,3.937,1.786,7.97h-7.741a19.037,19.037,0,0,1-1.149-5.98c.494-5.292-1.3-22.164-1.3-22.164s-1.607-10.207,6.861-11.481c0,0,5,.657,5.3,4.353S1972.1,401.955,1971.729,403.5Z" transform="translate(-1961.287 -389.62)" fill="#eea886"/>
      </g>
      <path id="Path_8176" data-name="Path 8176" d="M1958.146,402.153l10.509,2.456s8.337-16.187.828-19.144C1961.57,382.352,1956.25,393.324,1958.146,402.153Z" transform="translate(-1957.761 -354.433)" fill="#707070"/>
      <g id="Group_6429" data-name="Group 6429" transform="translate(11.959 2.161)">
        <g id="Group_6428" data-name="Group 6428">
          <g id="Group_6427" data-name="Group 6427">
            <path id="Path_8177" data-name="Path 8177" d="M2017.9,272.877s9.133,3.353,3.345,19.114-17.607-2.69-15.822-12.376S2017.9,272.877,2017.9,272.877Z" transform="translate(-2005.239 -272.455)" fill="#eea987"/>
          </g>
        </g>
      </g>
      <g id="Group_6432" data-name="Group 6432" transform="translate(11.624 0.853)">
        <g id="Group_6431" data-name="Group 6431">
          <g id="Group_6430" data-name="Group 6430">
            <path id="Path_8178" data-name="Path 8178" d="M2021.646,278.575a20.946,20.946,0,0,1-12.557,4.5s-1.808,4.408-2.1,5.761c0,0-7.642-13.124,1.144-19.754S2024.89,275.826,2021.646,278.575Z" transform="translate(-2003.906 -267.263)" fill="#414141"/>
          </g>
        </g>
      </g>
      <g id="Group_6435" data-name="Group 6435" transform="translate(14.696 14.319)">
        <g id="Group_6434" data-name="Group 6434">
          <g id="Group_6433" data-name="Group 6433">
            <path id="Path_8179" data-name="Path 8179" d="M2019.256,324.016c-.005-1.166-.6-3.851-2.363-3.191s-.184,6.144.98,5.867C2017.873,326.691,2019.269,326.779,2019.256,324.016Z" transform="translate(-2016.103 -320.721)" fill="#eea987"/>
          </g>
        </g>
      </g>
      <path id="Path_8180" data-name="Path 8180" d="M2028.542,364.416a9.711,9.711,0,0,1-6-5.416c3.491,4.511,6.123,3.862,6.123,3.862C2028.6,363.451,2028.6,363.819,2028.542,364.416Z" transform="translate(-2006.223 -335.039)" fill="#a77860"/>
    </g>
    <g id="Group_6437" data-name="Group 6437" transform="translate(442.823 78.069)">
      <path id="Path_8181" data-name="Path 8181" d="M1958.631,364.293v1.4h8.255v7.748h1.4v-9.151Zm-56.061,9.149h1.4v-7.748h8.255v-1.4h-9.658Zm64.316,39.981v7.751h-8.255v1.4h9.658v-9.154Zm-62.913,0h-1.4v9.154h9.658v-1.4h-8.254Z" transform="translate(-1902.57 -364.29)" fill="#c9c9c9"/>
    </g>
    <g id="Group_6438" data-name="Group 6438" transform="translate(342.221 199.134)">
      <rect id="Rectangle_721" data-name="Rectangle 721" width="10.34" height="1.914" fill="#464646"/>
    </g>
    <g id="Group_6439" data-name="Group 6439" transform="translate(303.5 125.165)">
      <path id="Path_8182" data-name="Path 8182" d="M1424.35,551.26v1.871h11.028v10.35h1.872V551.26Zm-74.88,12.222h1.874v-10.35h11.028V551.26h-12.9v12.222Zm85.908,53.4v10.353H1424.35v1.871h12.9V616.878h-1.872Zm-84.034,0h-1.874v12.227h12.9v-1.872h-11.028V616.881Z" transform="translate(-1349.47 -551.26)" fill="#9f9f9f"/>
    </g>
    <g id="Group_6455" data-name="Group 6455" transform="translate(464.992 142.874)">
      <g id="Group_6440" data-name="Group 6440" transform="translate(2.836 59.008)">
        <path id="Path_8183" data-name="Path 8183" d="M2112.4,922.988h-8.746c-.159-.35-.29-.655-.4-.9-2.594-6.129-15.972-20.182-15.972-20.182v.03a.026.026,0,0,0-.008.015v.015c-.008.023-.015.038-.023.06s-.015.068-.03.116a.276.276,0,0,0-.015.076c-.007.023-.015.038-.022.06-.549,2.048-3.242,12.25-4.589,20.706h-59.19c-.136-.783-.3-1.531-.479-2.222a47.336,47.336,0,0,1-1.141-6.121c-.007-.1-.022-.191-.03-.29-.045-.358-.083-.715-.113-1.065a56.187,56.187,0,0,1-.1-9.8c-.167.358-1.363,4.743-2.93,10.156-.861,2.97-1.833,6.25-2.8,9.34H2001.84l17.539-50.6c.388-.3,4.94-2.5,8.26-4.088,3.388-1.615,7.476-3.982,11.169-6.008,1.889-1.035,3.67-1.972,5.214-2.68l.237-.106v-.008c2.549-1.164,4.247-1.935,4.247-1.935h.008c.06-.008.463-.045,1.1-.106,3.562-.343,14.617-1.378,18.315-1.592.3-.023.564-.03.761-.038a3,3,0,0,1,.373,0,46.387,46.387,0,0,1,5.741,1.965c.113.038.229.083.342.128.146.053.282.106.426.159.26.1.527.2.791.3.534.214,1.088.426,1.645.647l.587.229c5.99,2.375,12.857,5.32,14.486,6.494,1.081.768,4.438,7.1,8.328,14.922C2105.6,894.088,2110.719,913.441,2112.4,922.988Z" transform="translate(-2001.84 -855.817)" fill="#e5e5e5"/>
      </g>
      <g id="Group_6441" data-name="Group 6441" transform="translate(49.26 39.144)">
        <path id="Path_8184" data-name="Path 8184" d="M2206.841,795.112c-.159,7.957-15.562,12.31-15.562,12.31s-6.444-8.078-4.9-8.852c.6-.3.848-1.509.924-2.861a27.783,27.783,0,0,0-.088-3.61c-.045-.562-.088-.924-.088-.924s2.2-2.322,5-5.088c4.894-4.839,11.62-11.035,11.63-8.569a2.2,2.2,0,0,1-.058.469C2202.513,783.53,2206.841,795.112,2206.841,795.112Z" transform="translate(-2186.137 -776.958)" fill="#eea886"/>
      </g>
      <g id="Group_6442" data-name="Group 6442" transform="translate(48.802 45.641)">
        <path id="Path_8185" data-name="Path 8185" d="M2199.547,802.75h0c-.031.048-.685,1.025-1.8,2.428-2.365,2.975-6.811,7.862-11.809,9.824a27.783,27.783,0,0,0-.088-3.61,8.066,8.066,0,0,1-1.529-.184,47.409,47.409,0,0,1,3.35-4.9l3.093-.924Z" transform="translate(-2184.32 -802.75)" fill="#a77860"/>
      </g>
      <g id="Group_6443" data-name="Group 6443" transform="translate(38.416 13.069)">
        <path id="Path_8186" data-name="Path 8186" d="M2171.657,700.182c-1.333,2.9-2.6,5-2.957,5.834v0a10.31,10.31,0,0,1-1.8,2.426c-2.539,2.736-7.257,6.343-11.9,6.217a8.061,8.061,0,0,1-1.529-.184,7.273,7.273,0,0,1-5.3-3.663c-9.61-18.816-2.652-34.2-2.652-34.2s26.28-7.431,30.391.479C2178.8,682.637,2174.788,693.37,2171.657,700.182Z" transform="translate(-2143.086 -673.444)" fill="#eea886"/>
      </g>
      <g id="Group_6444" data-name="Group 6444" transform="translate(37.641)">
        <path id="Path_8187" data-name="Path 8187" d="M2143.22,637.795s-2.441-.136-3.043-4.763c-.6-4.572.61-5.839.61-5.839s10.849-4.542,14.746-5.131,13.476-1.159,15.721,1.411c0,0,5.456-1.267,6.942,7.789,2.358,14.368-8.035,28.32-8.035,28.32s.088-9.388-1.983-10.63-3.856,1.713-3.856,1.713l-4.234.758s6.431-13.887-1.285-14.4S2147.636,638.6,2143.22,637.795Z" transform="translate(-2140.011 -621.56)"/>
      </g>
      <g id="Group_6445" data-name="Group 6445" transform="translate(61.928 21.401)">
        <path id="Path_8188" data-name="Path 8188" d="M2236.566,710.484c.4-4.136,7.882-5.715,7.38-1.38s-4.184,8.5-5.884,8.353S2236.258,713.635,2236.566,710.484Z" transform="translate(-2236.429 -706.522)" fill="#eea886"/>
      </g>
      <g id="Group_6446" data-name="Group 6446" transform="translate(55.455 60.981)">
        <path id="Path_8189" data-name="Path 8189" d="M2261.115,886.922c-2.436-7.8-4.544-13.978-5.481-14.648-1.637-1.171-14.609-4.743-20.769-7.156-.2-.076-.4-.151-.587-.229-.557-.222-1.111-.433-1.645-.647-.267-.106-.534-.207-.791-.3l-.426-.159c-.113-.045-.229-.091-.343-.128-.007.008-.015.023-.03.03a101.029,101.029,0,0,0-6.8,8.693c-6.365,9.043-14.655,23.7-13.383,37.227.411,4.34.915,10.575,1.758,17.57.06.557.128,1.111.206,1.675h28.716c.35-7.323.975-16.97,1.92-20.706.007-.023.015-.038.022-.06a.27.27,0,0,1,.016-.076c.007-.038.022-.076.03-.116.008-.023.015-.038.023-.061v-.015a.026.026,0,0,1,.008-.015s6.95,10.864,7.307,21.048h18.073C2268.057,919.384,2265.294,900.316,2261.115,886.922Z" transform="translate(-2210.731 -863.65)" fill="#3c4145"/>
      </g>
      <g id="Group_6447" data-name="Group 6447" transform="translate(0 62.8)">
        <path id="Path_8190" data-name="Path 8190" d="M2035.714,870.963s-2.169,7.217-4.97,25.237v.007c-.1.6-.192,1.219-.29,1.849-.007.068-.022.144-.03.222-.068.411-.128.839-.192,1.264-.007.053-.015.1-.022.151-.046.282-.091.572-.129.867-.105.708-.214,1.438-.32,2.176-1.05,7.353-2.45,19.041-3.874,31.509h-11.351a52.919,52.919,0,0,1-1.148-8.779,1.052,1.052,0,0,0-.053.146c-.907,2.511-1.9,5.244-2.917,7.9-.091.244-.181.486-.275.731H1990.58l19.489-50.983c.388-.3,5.406-3.008,8.723-4.582,3.464-1.652,7.842-3.685,11.723-5.474,1.856-.862,3.6-1.66,5.078-2.338Z" transform="translate(-1990.58 -870.87)" fill="#3c4145"/>
      </g>
      <g id="Group_6448" data-name="Group 6448" transform="translate(55.456 60.983)">
        <path id="Path_8191" data-name="Path 8191" d="M2226.808,883.4l-7.5,4.232,3.2,3.267-7.033,37.958h-2.65c-.975-7.673-1.531-14.562-1.965-19.245-1.957-20.92,18.917-44.512,20.212-45.951,1,.38,2.086.8,3.2,1.242Z" transform="translate(-2210.736 -863.66)" fill="#51565c"/>
      </g>
      <g id="Group_6449" data-name="Group 6449" transform="translate(32.749 62.696)">
        <path id="Path_8192" data-name="Path 8192" d="M2133.089,870.46s-2.8,9.144-6.061,31.973c-1.05,7.345-2.459,19.041-3.882,31.509h-1.1l-1.454-35.865,3.569-3.867-3.174-3.967,6.791-17.343c1.857-.862,3.6-1.66,5.079-2.338Z" transform="translate(-2120.59 -870.46)" fill="#51565c"/>
      </g>
      <g id="Group_6450" data-name="Group 6450" transform="translate(54.402 57.298)">
        <path id="Path_8193" data-name="Path 8193" d="M2228.326,852.8l-6.215-3.773s-.174,3.408-15.562,12.31l4.371,12.31Z" transform="translate(-2206.55 -849.03)" fill="#d1d1d1"/>
      </g>
      <g id="Group_6451" data-name="Group 6451" transform="translate(45.248 59.014)">
        <path id="Path_8194" data-name="Path 8194" d="M2175.268,855.84s.242,3.678,4.094,10.592l-8.53,11.119-.622-18.033Z" transform="translate(-2170.209 -855.84)" fill="#d1d1d1"/>
      </g>
      <g id="Group_6452" data-name="Group 6452" transform="translate(49.235 69.606)">
        <path id="Path_8195" data-name="Path 8195" d="M2191.229,897.89s1.652,6.612,1.058,8.464c0,0-3.635,1.323-6.247-.33A29,29,0,0,1,2191.229,897.89Z" transform="translate(-2186.04 -897.89)" fill="#656565"/>
      </g>
      <g id="Group_6453" data-name="Group 6453" transform="translate(43.607 76.213)">
        <path id="Path_8196" data-name="Path 8196" d="M2172.509,939.994a166.27,166.27,0,0,0-1.1,34.089h-7.285q-.147-2.158-.281-4.507c-1.355-23.517,6.957-44.527,6.957-44.527l3.708-.93S2173.317,934.513,2172.509,939.994Z" transform="translate(-2163.697 -924.12)" fill="#777"/>
      </g>
      <g id="Group_6454" data-name="Group 6454" transform="translate(19.584 92.719)">
        <path id="Path_8197" data-name="Path 8197" d="M2071.783,1003.673c-.277,5.642-.237,10.653-.237,10.653v0c0,.028-.007.179-.02.431-.013-.1-.023-.189-.036-.282-.9,2.511-1.9,5.242-2.912,7.9a84.809,84.809,0,0,1-.226-8.61c.405-15.822,5.38-24.116,5.38-24.116C2072.592,992.408,2072.045,998.325,2071.783,1003.673Z" transform="translate(-2068.326 -989.65)" fill="#2d3133"/>
      </g>
    </g>
    <g id="Group_6478" data-name="Group 6478" transform="translate(373.282 205.96)">
      <g id="Group_6456" data-name="Group 6456" transform="translate(0 29.348)">
        <path id="Path_8198" data-name="Path 8198" d="M1673.153,1022.332l-23.277,12.794L1626.5,998.339l28.275-9.819Z" transform="translate(-1626.5 -988.52)" fill="#292c47"/>
      </g>
      <g id="Group_6457" data-name="Group 6457" transform="translate(1.549 30.434)">
        <path id="Path_8199" data-name="Path 8199" d="M1676.28,1024.45l-21.768,11.965-21.862-34.4,26.441-9.184Z" transform="translate(-1632.65 -992.83)" fill="#fff"/>
      </g>
      <g id="Group_6458" data-name="Group 6458" transform="translate(25.549 47.977)">
        <path id="Path_8200" data-name="Path 8200" d="M1755.529,1070.118s-4.05-1.937-5.829-2.949-6.353-2.4-6.723-2.733-13.56-1.144-14.361-1.834-1.577,1.617,1.841,2.368,8.177,2.579,8.436,3.917-3.511,1.652-3.894,2.753.108.854.647,1.091,4.486-1.95,6.222-1.33,4.388-.239,5.718.217,7.8,2.632,7.8,2.632Z" transform="translate(-1727.929 -1062.475)" fill="#eea886"/>
      </g>
      <g id="Group_6459" data-name="Group 6459" transform="translate(4.418 48.014)">
        <path id="Path_8201" data-name="Path 8201" d="M1661.862,1085.946s-3.4-3.063-5.05-4.345-4.738-5.05-5.194-5.269-6.358-12.333-7.32-12.819.909-2.116,2.947.814,5.615,6.7,6.975,6.426.189-3.952,1.078-4.741.846-.232,1.279.186-.091,4.988,1.171,6.38,1.484,4.227,2.431,5.3,5.514,6.323,5.514,6.323Z" transform="translate(-1644.038 -1062.622)" fill="#eea886"/>
      </g>
      <g id="Group_6460" data-name="Group 6460" transform="translate(95.543 234.416)">
        <path id="Path_8202" data-name="Path 8202" d="M2005.8,1803.283s.736,5.111.829,5.877,8.192-.451,8.192-.451l.655-6.083S2006.812,1802.563,2005.8,1803.283Z" transform="translate(-2005.8 -1802.624)" fill="#424773"/>
      </g>
      <g id="Group_6461" data-name="Group 6461" transform="translate(82.232 239.959)">
        <path id="Path_8203" data-name="Path 8203" d="M1967.008,1824.975a21.838,21.838,0,0,1-5.048,4.421c-2.481,1.342-6.381,1.874-7.849,3.264-1.061,1-3.859,5.32,6.448,5.234s15.277.61,16.38-1.045-1.6-12.219-1.6-12.219S1972.9,1825.506,1967.008,1824.975Z" transform="translate(-1952.953 -1824.63)" fill="#020202"/>
      </g>
      <g id="Group_6462" data-name="Group 6462" transform="translate(37.52 234.416)">
        <path id="Path_8204" data-name="Path 8204" d="M1775.45,1803.283s.735,5.111.829,5.877,8.192-.451,8.192-.451l.655-6.083S1776.46,1802.563,1775.45,1803.283Z" transform="translate(-1775.45 -1802.624)" fill="#424773"/>
      </g>
      <g id="Group_6463" data-name="Group 6463" transform="translate(19.446 239.957)">
        <path id="Path_8205" data-name="Path 8205" d="M1722.512,1824.968a21.835,21.835,0,0,1-5.048,4.421c-2.481,1.343-11.615,2.446-13.081,3.834-1.06,1-2.821,5.04,11.683,4.663,10.3-.27,15.278.61,16.381-1.046s-1.6-12.219-1.6-12.219S1728.547,1825.56,1722.512,1824.968Z" transform="translate(-1703.697 -1824.62)" fill="#020202"/>
      </g>
      <g id="Group_6464" data-name="Group 6464" transform="translate(70.26 103.76)">
        <path id="Path_8206" data-name="Path 8206" d="M1924.005,1283.93s7.61,12.091,7.043,23.018,2.758,22.859,3.9,34.275c1.275,12.728,6.489,42.857,6.678,49.666s-.809,28.547-.809,28.547l-10.438.24s-8.768-52.674-11.038-58.049-13.532-43.691-13.909-47.991S1924.005,1283.93,1924.005,1283.93Z" transform="translate(-1905.428 -1283.93)" fill="#343436"/>
      </g>
      <g id="Group_6465" data-name="Group 6465" transform="translate(36.109 101.676)">
        <path id="Path_8207" data-name="Path 8207" d="M1782.523,1279.378s-5.736,29.953-6.491,36.641-1.262,32.368-1.64,36.55-2.524,54.7-4.542,60.915H1783.2s10.245-36.728,10.245-54.107,7.914-37.779,13.025-49.245,16.8-11.738,19.945-33.011C1826.408,1277.121,1786.775,1272.629,1782.523,1279.378Z" transform="translate(-1769.85 -1275.656)" fill="#343436"/>
      </g>
      <g id="Group_6466" data-name="Group 6466" transform="translate(57.951 1.18)">
        <path id="Path_8208" data-name="Path 8208" d="M1874.75,877.629s-10.214-3.816-14.922,3.96-4.254,23.34.892,25.255,12.882.912,15.517-3.952,5.015-11.9,4.9-16.6S1877.433,878.984,1874.75,877.629Z" transform="translate(-1856.562 -876.693)" fill="#eea886"/>
      </g>
      <g id="Group_6467" data-name="Group 6467" transform="translate(62.915 21.989)">
        <path id="Path_8209" data-name="Path 8209" d="M1876.571,969s.426,2.758-.277,4.116,13.232,1.393,13.232,1.393a91.938,91.938,0,0,1,3.275-13.633C1894.947,954.636,1876.571,969,1876.571,969Z" transform="translate(-1876.268 -959.304)" fill="#eea886"/>
      </g>
      <g id="Group_6468" data-name="Group 6468" transform="translate(58.389)">
        <path id="Path_8210" data-name="Path 8210" d="M1879.361,895.572s-.962,1.587-4.887.97-8.715-5.839-10.355-6.413-1.655-1.537-1.655-1.537l-1.025,1.5-1.741.111s1.587-4.673-.808-6.577,2.486-15.124,15.076-10.723c0,0,9.67,2.665,9.318,8.166S1881.524,892.834,1879.361,895.572Z" transform="translate(-1858.3 -872.01)" fill="#3a3f47"/>
      </g>
      <g id="Group_6469" data-name="Group 6469" transform="translate(62.114 31.82)">
        <path id="Path_8211" data-name="Path 8211" d="M1873.09,1002.152s.045-2.594,1.222-2.844,12.985-1.385,14.431-.816v3.023S1885.956,1003.225,1873.09,1002.152Z" transform="translate(-1873.09 -998.334)" fill="#e2d2ca"/>
      </g>
      <g id="Group_6470" data-name="Group 6470" transform="translate(62.504 12.58)">
        <path id="Path_8212" data-name="Path 8212" d="M1874.944,923.956c.222-.922,2.567-3.559,3.464-.736s-1.358,6.62-2.615,6.295S1874.388,926.3,1874.944,923.956Z" transform="translate(-1874.636 -921.951)" fill="#eea886"/>
      </g>
      <g id="Group_6471" data-name="Group 6471" transform="translate(15.197 66.301)">
        <path id="Path_8213" data-name="Path 8213" d="M1686.882,1135.222a.049.049,0,0,1,.02,0C1686.818,1135.255,1686.806,1135.26,1686.882,1135.222Z" transform="translate(-1686.831 -1135.22)" fill="#323657"/>
      </g>
      <g id="Group_6472" data-name="Group 6472" transform="translate(15.265 35.001)">
        <path id="Path_8214" data-name="Path 8214" d="M1769.257,1108.521a108.175,108.175,0,0,1-16.945,3.023c-10.68,1.179-37.368-.426-37.537-1.688s5.741-46.988,5.406-49.343-.516-10.746-.516-10.746a59.04,59.04,0,0,1-5.3,16.809c-1.023,1.849-4.448,7.648-6.1,6.328-8-6.383-20.376-30.439-21.162-30.643.66-.287,5.867-2.685,6.6-2.927.64-.214,6.408,5.894,9.9,9.68,1.559,1.688,2.665,2.914,2.665,2.914,1.01-2.269,4.685-16.575,5.826-21.527,2.577-11.164,2.182-11.63,2.182-11.63,7.814-2.363,19.675-7.174,19.675-7.174l15.65-.637s14.363,3.161,20.021,5.718c.537.242.539,12.814,2.013,16.111l-4.69,9.894s-2.708,19.6-3.272,28.318C1763.411,1075,1769.257,1108.521,1769.257,1108.521Z" transform="translate(-1687.1 -1010.96)" fill="#9d9d9d"/>
      </g>
      <g id="Group_6473" data-name="Group 6473" transform="translate(83.025 40.716)">
        <path id="Path_8215" data-name="Path 8215" d="M1973.526,1066.081c-.408,1.32-2.265,2.433-3.469,2.922a4.481,4.481,0,0,1-2.506.252l-.612-.113h0l-10.726-1.99s-2.348-27.026,14.653-33.5C1971.312,1033.8,1977.279,1053.98,1973.526,1066.081Z" transform="translate(-1956.103 -1033.65)" fill="#9d9d9d"/>
      </g>
      <g id="Group_6474" data-name="Group 6474" transform="translate(93.858 62.397)">
        <path id="Path_8216" data-name="Path 8216" d="M2002.228,1133.393h0a4.486,4.486,0,0,1-2.506.252l-.612-.114h0l1.058-13.811Z" transform="translate(-1999.11 -1119.72)" fill="#373737"/>
      </g>
      <g id="Group_6475" data-name="Group 6475" transform="translate(31.764 73.054)">
        <path id="Path_8217" data-name="Path 8217" d="M1755.268,1164.942l-1.31,5.551s-1.423-5.569-1.355-8.463C1754.162,1163.715,1755.268,1164.942,1755.268,1164.942Z" transform="translate(-1752.6 -1162.03)" fill="#ab9546"/>
      </g>
      <g id="Group_6476" data-name="Group 6476" transform="translate(79.049 3.004)">
        <path id="Path_8218" data-name="Path 8218" d="M1940.32,883.965s13.386-1.678.227,20.683Z" transform="translate(-1940.32 -883.937)" fill="#3a3f47"/>
      </g>
      <g id="Group_6477" data-name="Group 6477" transform="translate(9.401 31.159)">
        <path id="Path_8219" data-name="Path 8219" d="M1665.18,1001.745l-1.36-2.338,10.718-3.7,1.36,2.325Z" transform="translate(-1663.82 -995.71)" fill="#292c47"/>
      </g>
    </g>
    <g id="Group_6479" data-name="Group 6479" transform="translate(557.651 134.828)" opacity="0.95">
      <path id="Path_8220" data-name="Path 8220" d="M2473.825,607.661h7.592l-2.325-4.821H2471.5Z" transform="translate(-2443.018 -599.51)" fill="#d2d2d2"/>
      <path id="Path_8221" data-name="Path 8221" d="M2459.722,607.661h1.809l-2.322-4.821H2457.4Z" transform="translate(-2432.47 -599.51)" fill="#d2d2d2"/>
      <path id="Path_8222" data-name="Path 8222" d="M2359.45,592.031H2390.2l-1.023-2.411H2358.43Z" transform="translate(-2358.43 -589.62)" fill="#d2d2d2"/>
    </g>
    <g id="Group_6486" data-name="Group 6486" transform="translate(381.24 56.459)">
      <g id="Group_6480" data-name="Group 6480">
        <path id="Path_8223" data-name="Path 8223" d="M1670.41,282.427H1658.8a.709.709,0,0,1-.71-.71V279.21a.709.709,0,0,1,.71-.71h11.61a.71.71,0,0,1,.71.71v2.506A.71.71,0,0,1,1670.41,282.427Z" transform="translate(-1658.09 -278.5)" fill="#d2d2d2"/>
      </g>
      <g id="Group_6481" data-name="Group 6481" transform="translate(0 9.416)">
        <path id="Path_8224" data-name="Path 8224" d="M1670.41,319.807H1658.8a.709.709,0,0,1-.71-.71V316.59a.709.709,0,0,1,.71-.71h11.61a.71.71,0,0,1,.71.71V319.1A.71.71,0,0,1,1670.41,319.807Z" transform="translate(-1658.09 -315.88)" fill="#d2d2d2"/>
      </g>
      <g id="Group_6482" data-name="Group 6482" transform="translate(0 18.832)">
        <path id="Path_8225" data-name="Path 8225" d="M1670.41,357.187H1658.8a.709.709,0,0,1-.71-.71V353.97a.709.709,0,0,1,.71-.71h11.61a.71.71,0,0,1,.71.71v2.506A.711.711,0,0,1,1670.41,357.187Z" transform="translate(-1658.09 -353.26)" fill="#d2d2d2"/>
      </g>
      <g id="Group_6483" data-name="Group 6483" transform="translate(18.411)">
        <path id="Path_8226" data-name="Path 8226" d="M1734.178,282.427h-2.287a.71.71,0,0,1-.711-.71V279.21a.71.71,0,0,1,.711-.71h2.287a.709.709,0,0,1,.71.71v2.506A.713.713,0,0,1,1734.178,282.427Z" transform="translate(-1731.18 -278.5)" fill="#d2d2d2"/>
      </g>
      <g id="Group_6484" data-name="Group 6484" transform="translate(18.411 9.416)">
        <path id="Path_8227" data-name="Path 8227" d="M1734.178,319.807h-2.287a.71.71,0,0,1-.711-.71V316.59a.71.71,0,0,1,.711-.71h2.287a.709.709,0,0,1,.71.71V319.1A.713.713,0,0,1,1734.178,319.807Z" transform="translate(-1731.18 -315.88)" fill="#d2d2d2"/>
      </g>
      <g id="Group_6485" data-name="Group 6485" transform="translate(18.411 18.832)">
        <path id="Path_8228" data-name="Path 8228" d="M1734.178,357.187h-2.287a.71.71,0,0,1-.711-.71V353.97a.71.71,0,0,1,.711-.71h2.287a.709.709,0,0,1,.71.71v2.506A.714.714,0,0,1,1734.178,357.187Z" transform="translate(-1731.18 -353.26)" fill="#d2d2d2"/>
      </g>
    </g>
    <g id="Group_6487" data-name="Group 6487" transform="translate(341.657 263.767)">
      <path id="Path_8229" data-name="Path 8229" d="M1530.441,1110.152h13.63l-4.171-8.653h-13.63Z" transform="translate(-1519.892 -1101.5)" fill="#d2d2d2"/>
      <path id="Path_8230" data-name="Path 8230" d="M1505.121,1110.152h3.25l-4.171-8.653h-3.249Z" transform="translate(-1500.95 -1101.5)" fill="#d2d2d2"/>
    </g>
  </g>
</svg>
