<svg id="Influence_" data-name="Influence " xmlns="http://www.w3.org/2000/svg" width="476.626" height="353.583" viewBox="0 0 476.626 353.583">
  <g id="Group_6538" data-name="Group 6538">
    <path id="Path_8231" data-name="Path 8231" d="M142.074,127.173s43.485-38.053,96.934-19.927S334.132,207.8,385.77,210.522s99.655-25.369,140.42-.91,48.017,130.456-29.9,141.329-121.393-28.08-154.915-26.27S226.324,367.247,162,349.13,39.7,205.99,142.074,127.173Z" transform="translate(-86.326 -60.754)" fill="#efefef"/>
    <g id="Group_6537" data-name="Group 6537" transform="translate(13.242)">
      <g id="Group_6516" data-name="Group 6516" transform="translate(86.583)">
        <g id="Group_6492" data-name="Group 6492" transform="translate(57.593)" opacity="0.46">
          <path id="Path_8232" data-name="Path 8232" d="M456.88,126.98H271a2.979,2.979,0,0,1-2.885-3.734l17.354-66.67a2.991,2.991,0,0,1,2.885-2.235h185.88a2.979,2.979,0,0,1,2.885,3.734l-17.354,66.67A2.976,2.976,0,0,1,456.88,126.98Z" transform="translate(-268.016 -54.34)" fill="#e4e4e4"/>
          <g id="Group_6491" data-name="Group 6491" transform="translate(23.501 14.261)">
            <line id="Line_410" data-name="Line 410" x2="64.678" transform="translate(4.973)" fill="none" stroke="#6e6e6e" stroke-linecap="round" stroke-linejoin="round" stroke-miterlimit="10" stroke-width="3.445"/>
            <line id="Line_411" data-name="Line 411" x2="64.678" transform="translate(0 29.848)" fill="none" stroke="#6e6e6e" stroke-linecap="round" stroke-linejoin="round" stroke-miterlimit="10" stroke-width="3.445"/>
            <line id="Line_412" data-name="Line 412" x2="64.678" transform="translate(27.197 18.576)" fill="none" stroke="#6e6e6e" stroke-linecap="round" stroke-linejoin="round" stroke-miterlimit="10" stroke-width="3.445"/>
            <line id="Line_413" data-name="Line 413" x2="19.399" transform="translate(3.318 9.946)" fill="none" stroke="#6e6e6e" stroke-linecap="round" stroke-linejoin="round" stroke-miterlimit="10" stroke-width="3.445"/>
            <line id="Line_414" data-name="Line 414" x2="19.408" transform="translate(0.658 18.576)" fill="none" stroke="#6e6e6e" stroke-linecap="round" stroke-linejoin="round" stroke-miterlimit="10" stroke-width="3.445"/>
            <line id="Line_415" data-name="Line 415" x2="23.055" transform="translate(79.935)" fill="none" stroke="#6e6e6e" stroke-linecap="round" stroke-linejoin="round" stroke-miterlimit="10" stroke-width="3.445"/>
            <path id="Path_8233" data-name="Path 8233" d="M395.091,120.426H360.669a.267.267,0,0,1-.26-.329l1.542-5.918a.278.278,0,0,1,.26-.2h34.423a.267.267,0,0,1,.26.329l-1.542,5.918A.278.278,0,0,1,395.091,120.426Z" transform="translate(-303.858 -76.568)" fill="none" stroke="#6e6e6e" stroke-miterlimit="10" stroke-width="1.148"/>
            <path id="Path_8234" data-name="Path 8234" d="M345.7,120.426H311.279a.267.267,0,0,1-.26-.329l1.542-5.918a.278.278,0,0,1,.26-.2h34.423a.267.267,0,0,1,.26.329l-1.542,5.918A.27.27,0,0,1,345.7,120.426Z" transform="translate(-297.26 -76.568)" fill="none" stroke="#6e6e6e" stroke-miterlimit="10" stroke-width="1.148"/>
          </g>
          <path id="Path_8235" data-name="Path 8235" d="M463.106,105.865c-1.767-2.348-8.924-4.063-10.9-6.411-1.014-1.2-1.014-3.431-.771-5.328a7.478,7.478,0,0,0,1.638-1.317A29.966,29.966,0,0,0,455,89.394a1.113,1.113,0,0,0,.823.347c.936-.026,4.514-4.9,3.6-6.03-.529-.641-1.378-.087-2.01.511.944-2.166,1.611-3.83,1.611-3.83h-.035c.087-.277.173-.546.243-.832,1.421-5.692-2.045-10.31-7.737-10.31s-11.463,4.618-12.884,10.31c-.069.277-.121.555-.173.832H438.4s-.165,1.664-.295,3.83c-.338-.6-.91-1.161-1.759-.511-1.482,1.126-.338,6,.589,6.03a1.8,1.8,0,0,0,1-.347,20.631,20.631,0,0,0,.234,3.414,4.186,4.186,0,0,0,1.317,1.62,11.567,11.567,0,0,1-3.31,5.025c-3.154,2.348-11.159,4.063-14.1,6.411-2.643,2.114-5,8.292-5.441,9.5h47.168C463.972,114.156,464.691,107.979,463.106,105.865Z" transform="translate(-287.87 -56.332)" fill="#8d8d8d"/>
        </g>
        <g id="Group_6498" data-name="Group 6498" transform="translate(21.767 48.095)">
          <g id="Group_6493" data-name="Group 6493">
            <path id="Path_8236" data-name="Path 8236" d="M419.55,188.23H233.67a2.979,2.979,0,0,1-2.885-3.734l17.354-66.67a2.991,2.991,0,0,1,2.885-2.235H436.9a2.979,2.979,0,0,1,2.885,3.734l-17.354,66.67A2.976,2.976,0,0,1,419.55,188.23Z" transform="translate(-227.203 -110.617)" fill="none" stroke="#646464" stroke-miterlimit="10" stroke-width="1.148"/>
            <path id="Path_8237" data-name="Path 8237" d="M415.53,182.49H229.65a2.979,2.979,0,0,1-2.885-3.734l17.354-66.67A2.991,2.991,0,0,1,247,109.85h185.88a2.979,2.979,0,0,1,2.885,3.734l-17.354,66.67A2.976,2.976,0,0,1,415.53,182.49Z" transform="translate(-226.666 -109.85)" fill="#c8c8c8"/>
            <line id="Line_416" data-name="Line 416" x2="93.035" transform="translate(61.319 72.64)" fill="none" stroke="#646464" stroke-miterlimit="10" stroke-width="1.148"/>
            <line id="Line_417" data-name="Line 417" x2="78.618" transform="translate(35.44)" fill="none" stroke="#7d7d7d" stroke-miterlimit="10" stroke-width="1.148"/>
          </g>
          <g id="Group_6497" data-name="Group 6497" transform="translate(129.339 13.429)">
            <path id="Path_8238" data-name="Path 8238" d="M420.466,174.606h-41.8a2.634,2.634,0,0,1-2.617-3.483l10.544-42.29a4.753,4.753,0,0,1,4.349-3.483h41.8a2.634,2.634,0,0,1,2.617,3.483l-10.544,42.29A4.753,4.753,0,0,1,420.466,174.606Z" transform="translate(-375.947 -125.35)" fill="#e1e1e1"/>
            <g id="Group_6496" data-name="Group 6496" transform="translate(3.451 4.151)">
              <path id="Path_8239" data-name="Path 8239" d="M400.49,179.747l3.656-14.668-6-2.539s-11.177,4.089-12.13,5.077c-.8.832-4.809,9.383-6.091,12.13h20.56Z" transform="translate(-379.93 -134.469)" fill="#979797"/>
              <path id="Path_8240" data-name="Path 8240" d="M424.373,179.747c.1-2.747.347-11.307-.035-12.13-.459-.988-9.591-5.077-9.591-5.077l-7.261,2.539-3.656,14.668Z" transform="translate(-383.123 -134.469)" fill="#979797"/>
              <path id="Path_8241" data-name="Path 8241" d="M406.822,180.442l5.736-12.7-12.312.71-1.2,11.991Z" transform="translate(-382.484 -135.164)" fill="#bebecf"/>
              <path id="Path_8242" data-name="Path 8242" d="M402.765,159.353l-2.677,1.689-1.759,4.237-.459,5.779,3.778-1.551,2.928,3.526,3.907-3.24,2.4,2.253,3.63-7.754-.641-4.8-1.516-.7Z" transform="translate(-382.327 -133.968)" fill="#dee0e8"/>
              <g id="Group_6495" data-name="Group 6495" transform="translate(17.801)">
                <path id="Path_8243" data-name="Path 8243" d="M403.936,146.442a1.707,1.707,0,0,0-2.747-.684c-1.845,1.36.312,6.611,1.655,5.034S403.936,146.442,403.936,146.442Z" transform="translate(-400.475 -132.165)" fill="#fb8e74"/>
                <path id="Path_8244" data-name="Path 8244" d="M419.516,146.3s1.75-2.166,3.076-.953-3.024,6.767-3.743,5.285S419.516,146.3,419.516,146.3Z" transform="translate(-402.903 -132.123)" fill="#fb8e74"/>
                <g id="Group_6494" data-name="Group 6494" transform="translate(1.061 19.467)">
                  <path id="Path_8245" data-name="Path 8245" d="M413.145,162.626l1.889-10.016-10.925.944-2.409,9.4s1.906,4.453,3.96,6.429C405.651,169.392,412,163.9,413.145,162.626Z" transform="translate(-401.7 -152.61)" fill="#fb8877"/>
                </g>
                <path id="Path_8246" data-name="Path 8246" d="M422.352,140.269c-.407,1.222-1.412,1.525-1.482,2.235a7.068,7.068,0,0,1-1.222,3.249,5.6,5.6,0,0,1-1.048.91s-9.375,2.643-14.131-1.014a8.116,8.116,0,0,1,.017-3.041c.321-1.638-.477-1.932.451-2.738a3.03,3.03,0,0,0,1.222-2.435,3.877,3.877,0,0,1,1.04-2.946c.953-.91,1.8-.606,2.729-1.421,0,0,1.369-2.3,3.171-2.556s5.614-1.222,7.876,1.568,1.222,5.224,1.871,6.091S422.352,140.269,422.352,140.269Z" transform="translate(-400.991 -130.141)" fill="#713336"/>
                <path id="Path_8247" data-name="Path 8247" d="M404.209,143.151s-4.427,12.182,3.908,13.1c7.365.173,9.972-8.811,11.029-13.421s.4-9.427-5.493-9.271S404.85,140.43,404.209,143.151Z" transform="translate(-400.817 -130.597)" fill="#fba990"/>
                <path id="Path_8248" data-name="Path 8248" d="M406.535,138.6a2.233,2.233,0,0,1,.043,1.958c-.5.988-1.88,1.36-2.079,2.66s-.806,4-1.178,4.124-.1-2.643-.043-3.587a15.946,15.946,0,0,1,2.729-7.339c1.967-2.487,3.18-3.535,6.68-4.1s6.152.9,7.122,3.041-.581,7.572-.581,7.572.234-2.582-.632-3.188-1.586-1.057-1.438-1.412-2.773.927-5.684-.009-3.856-.511-4.332-.208A1.965,1.965,0,0,0,406.535,138.6Z" transform="translate(-400.83 -130.416)" fill="#713336"/>
              </g>
              <path id="Path_8249" data-name="Path 8249" d="M396.914,166.44c-.069.286-4.064,9.8-4.064,9.8L396.359,178l-.988,1.975" transform="translate(-381.656 -134.99)" fill="none" stroke="#515151" stroke-miterlimit="10" stroke-width="0.488"/>
              <path id="Path_8250" data-name="Path 8250" d="M416.686,166.44c-.069.286-.823,9.8-.823,9.8L411.47,178v1.975" transform="translate(-384.143 -134.99)" fill="none" stroke="#515151" stroke-miterlimit="10" stroke-width="0.488"/>
            </g>
          </g>
          <path id="Path_8251" data-name="Path 8251" d="M420.466,174.606h-41.8a2.634,2.634,0,0,1-2.617-3.483l10.544-42.29a4.753,4.753,0,0,1,4.349-3.483h41.8a2.634,2.634,0,0,1,2.617,3.483l-10.544,42.29A4.753,4.753,0,0,1,420.466,174.606Z" transform="translate(-246.608 -111.921)" fill="none" stroke="#fff" stroke-miterlimit="10" stroke-width="1.148"/>
          <line id="Line_418" data-name="Line 418" x2="64.678" transform="translate(28.482 15.916)" fill="none" stroke="#afafaf" stroke-linecap="round" stroke-linejoin="round" stroke-miterlimit="10" stroke-width="3.445"/>
          <line id="Line_419" data-name="Line 419" x2="64.686" transform="translate(23.501 45.773)" fill="none" stroke="#afafaf" stroke-linecap="round" stroke-linejoin="round" stroke-miterlimit="10" stroke-width="3.445"/>
          <line id="Line_420" data-name="Line 420" x2="64.678" transform="translate(50.706 34.492)" fill="none" stroke="#afafaf" stroke-linecap="round" stroke-linejoin="round" stroke-miterlimit="10" stroke-width="3.445"/>
          <line id="Line_421" data-name="Line 421" x2="19.408" transform="translate(26.819 25.871)" fill="none" stroke="#a4a4a4" stroke-linecap="round" stroke-linejoin="round" stroke-miterlimit="10" stroke-width="3.445"/>
          <line id="Line_422" data-name="Line 422" x2="19.399" transform="translate(24.168 34.492)" fill="none" stroke="#afafaf" stroke-linecap="round" stroke-linejoin="round" stroke-miterlimit="10" stroke-width="3.445"/>
          <line id="Line_423" data-name="Line 423" x2="23.047" transform="translate(103.444 15.916)" fill="none" stroke="#afafaf" stroke-linecap="round" stroke-linejoin="round" stroke-miterlimit="10" stroke-width="3.445"/>
          <path id="Path_8252" data-name="Path 8252" d="M353.741,177.846H319.319a.267.267,0,0,1-.26-.329L320.6,171.6a.278.278,0,0,1,.26-.2h34.423a.267.267,0,0,1,.26.329L354,177.647A.268.268,0,0,1,353.741,177.846Z" transform="translate(-239.007 -118.072)" fill="none" stroke="#6b6b6b" stroke-miterlimit="10" stroke-width="1.148"/>
          <path id="Path_8253" data-name="Path 8253" d="M304.361,177.846H269.939a.267.267,0,0,1-.26-.329l1.542-5.918a.278.278,0,0,1,.26-.2H305.9a.267.267,0,0,1,.26.329l-1.542,5.918A.268.268,0,0,1,304.361,177.846Z" transform="translate(-232.411 -118.072)" fill="none" stroke="#6b6b6b" stroke-miterlimit="10" stroke-width="1.148"/>
        </g>
        <line id="Line_424" data-name="Line 424" x2="40.297" transform="translate(133.338 40.626)" fill="none" stroke="#d2d2d2" stroke-miterlimit="10" stroke-width="1.148"/>
        <g id="Group_6500" data-name="Group 6500" transform="translate(23.759 143.287)">
          <path id="Path_8254" data-name="Path 8254" d="M417.83,292.36H231.95a2.979,2.979,0,0,1-2.885-3.734l17.354-66.67a2.991,2.991,0,0,1,2.885-2.235h185.88a2.979,2.979,0,0,1,2.885,3.734l-17.354,66.67A2.976,2.976,0,0,1,417.83,292.36Z" transform="translate(-228.966 -219.72)" fill="#929292"/>
          <g id="Group_6499" data-name="Group 6499" transform="translate(23.501 14.261)">
            <line id="Line_425" data-name="Line 425" x2="64.686" transform="translate(4.973)" fill="none" stroke="#f8f8f8" stroke-linecap="round" stroke-linejoin="round" stroke-miterlimit="10" stroke-width="3.445"/>
            <line id="Line_426" data-name="Line 426" x2="64.678" transform="translate(0 29.857)" fill="none" stroke="#f8f8f8" stroke-linecap="round" stroke-linejoin="round" stroke-miterlimit="10" stroke-width="3.445"/>
            <line id="Line_427" data-name="Line 427" x2="64.686" transform="translate(27.197 18.576)" fill="none" stroke="#f8f8f8" stroke-linecap="round" stroke-linejoin="round" stroke-miterlimit="10" stroke-width="3.445"/>
            <line id="Line_428" data-name="Line 428" x2="19.399" transform="translate(3.318 9.955)" fill="none" stroke="#f8f8f8" stroke-linecap="round" stroke-linejoin="round" stroke-miterlimit="10" stroke-width="3.445"/>
            <line id="Line_429" data-name="Line 429" x2="19.399" transform="translate(0.667 18.576)" fill="none" stroke="#f8f8f8" stroke-linecap="round" stroke-linejoin="round" stroke-miterlimit="10" stroke-width="3.445"/>
            <line id="Line_430" data-name="Line 430" x2="23.055" transform="translate(79.935)" fill="none" stroke="#f8f8f8" stroke-linecap="round" stroke-linejoin="round" stroke-miterlimit="10" stroke-width="3.445"/>
            <path id="Path_8255" data-name="Path 8255" d="M356.041,285.806H321.619a.267.267,0,0,1-.26-.329l1.542-5.918a.278.278,0,0,1,.26-.2h34.423a.267.267,0,0,1,.26.329l-1.542,5.918A.268.268,0,0,1,356.041,285.806Z" transform="translate(-264.808 -241.948)" fill="none" stroke="#f8f8f8" stroke-miterlimit="10" stroke-width="1.148"/>
            <path id="Path_8256" data-name="Path 8256" d="M306.661,285.806H272.239a.267.267,0,0,1-.26-.329l1.542-5.918a.278.278,0,0,1,.26-.2H308.2a.267.267,0,0,1,.26.329l-1.542,5.918A.276.276,0,0,1,306.661,285.806Z" transform="translate(-258.211 -241.948)" fill="none" stroke="#f8f8f8" stroke-miterlimit="10" stroke-width="1.148"/>
          </g>
          <path id="Path_8257" data-name="Path 8257" d="M424.056,271.255c-1.767-2.348-8.924-4.063-10.9-6.411-1.014-1.2-1.014-3.431-.771-5.328a7.475,7.475,0,0,0,1.638-1.317,29.955,29.955,0,0,0,1.932-3.414,1.113,1.113,0,0,0,.823.347c.936-.026,4.514-4.9,3.6-6.03-.529-.641-1.378-.087-2.01.511.944-2.166,1.612-3.83,1.612-3.83h-.035c.087-.277.173-.546.243-.832,1.421-5.692-2.045-10.31-7.737-10.31s-11.463,4.618-12.884,10.31c-.069.277-.121.555-.173.832h-.035s-.165,1.664-.295,3.83c-.338-.6-.91-1.161-1.759-.511-1.482,1.126-.338,6,.589,6.03a1.8,1.8,0,0,0,1-.347,20.641,20.641,0,0,0,.234,3.414,4.186,4.186,0,0,0,1.317,1.62,11.566,11.566,0,0,1-3.31,5.025c-3.154,2.348-11.159,4.064-14.1,6.411-2.643,2.114-5,8.292-5.441,9.5h47.168C424.922,279.538,425.641,273.369,424.056,271.255Z" transform="translate(-248.82 -221.713)" fill="#ccc"/>
        </g>
        <g id="Group_6502" data-name="Group 6502" transform="translate(4.516 232.181)" opacity="0.46">
          <path id="Path_8258" data-name="Path 8258" d="M395.629,394.96H209.74a2.979,2.979,0,0,1-2.885-3.734l17.354-66.67a2.991,2.991,0,0,1,2.885-2.235h185.88a2.979,2.979,0,0,1,2.885,3.734l-17.354,66.67A2.973,2.973,0,0,1,395.629,394.96Z" transform="translate(-206.756 -322.32)" fill="#e4e4e4"/>
          <g id="Group_6501" data-name="Group 6501" transform="translate(23.509 14.261)">
            <line id="Line_431" data-name="Line 431" x2="64.678" transform="translate(4.973)" fill="none" stroke="#8d8d8d" stroke-linecap="round" stroke-linejoin="round" stroke-miterlimit="10" stroke-width="3.445"/>
            <line id="Line_432" data-name="Line 432" x2="64.678" transform="translate(0 29.857)" fill="none" stroke="#8d8d8d" stroke-linecap="round" stroke-linejoin="round" stroke-miterlimit="10" stroke-width="3.445"/>
            <line id="Line_433" data-name="Line 433" x2="64.678" transform="translate(27.197 18.576)" fill="none" stroke="#8d8d8d" stroke-linecap="round" stroke-linejoin="round" stroke-miterlimit="10" stroke-width="3.445"/>
            <line id="Line_434" data-name="Line 434" x2="19.408" transform="translate(3.31 9.955)" fill="none" stroke="#8d8d8d" stroke-linecap="round" stroke-linejoin="round" stroke-miterlimit="10" stroke-width="3.445"/>
            <line id="Line_435" data-name="Line 435" x2="19.408" transform="translate(0.658 18.576)" fill="none" stroke="#8d8d8d" stroke-linecap="round" stroke-linejoin="round" stroke-miterlimit="10" stroke-width="3.445"/>
            <line id="Line_436" data-name="Line 436" x2="23.055" transform="translate(79.935)" fill="none" stroke="#8d8d8d" stroke-linecap="round" stroke-linejoin="round" stroke-miterlimit="10" stroke-width="3.445"/>
            <path id="Path_8259" data-name="Path 8259" d="M333.841,388.406H299.419a.267.267,0,0,1-.26-.329l1.542-5.918a.278.278,0,0,1,.26-.2h34.423a.267.267,0,0,1,.26.329l-1.542,5.918A.268.268,0,0,1,333.841,388.406Z" transform="translate(-242.608 -344.548)" fill="none" stroke="#8d8d8d" stroke-miterlimit="10" stroke-width="1.148"/>
            <path id="Path_8260" data-name="Path 8260" d="M284.451,388.406H250.029a.267.267,0,0,1-.26-.329l1.542-5.918a.278.278,0,0,1,.26-.2h34.423a.267.267,0,0,1,.26.329l-1.542,5.918A.268.268,0,0,1,284.451,388.406Z" transform="translate(-236.01 -344.548)" fill="none" stroke="#8d8d8d" stroke-miterlimit="10" stroke-width="1.148"/>
          </g>
          <path id="Path_8261" data-name="Path 8261" d="M401.856,373.855c-1.767-2.348-8.924-4.063-10.9-6.411-1.014-1.2-1.014-3.431-.771-5.328a7.479,7.479,0,0,0,1.638-1.317,29.966,29.966,0,0,0,1.932-3.414,1.113,1.113,0,0,0,.823.347c.936-.026,4.514-4.9,3.6-6.03-.528-.641-1.378-.087-2.01.511.944-2.166,1.611-3.83,1.611-3.83h-.035c.087-.277.173-.546.243-.832,1.421-5.692-2.045-10.31-7.737-10.31s-11.463,4.618-12.884,10.31c-.069.277-.121.555-.173.832h-.035s-.165,1.664-.295,3.83c-.338-.6-.91-1.161-1.759-.511-1.482,1.126-.338,6,.589,6.03a1.8,1.8,0,0,0,1-.347,20.631,20.631,0,0,0,.234,3.414,4.186,4.186,0,0,0,1.317,1.62,11.566,11.566,0,0,1-3.31,5.025c-3.154,2.348-11.159,4.064-14.1,6.411-2.643,2.114-5,8.292-5.441,9.5h47.168C402.722,382.138,403.441,375.969,401.856,373.855Z" transform="translate(-226.612 -324.313)" fill="#ababab"/>
        </g>
        <line id="Line_437" data-name="Line 437" x2="33.175" transform="translate(156.22 305.159)" fill="none" stroke="#9e9e9e" stroke-miterlimit="10" stroke-width="1.148"/>
        <line id="Line_438" data-name="Line 438" x2="78.939" transform="translate(43.448 216.265)" fill="none" stroke="#8e8e8e" stroke-miterlimit="10" stroke-width="1.148"/>
        <line id="Line_439" data-name="Line 439" x2="19.234" transform="translate(140.469 216.265)" fill="none" stroke="#8e8e8e" stroke-miterlimit="10" stroke-width="1.148"/>
        <path id="Path_8262" data-name="Path 8262" d="M459.57,220.1h6.671a2.91,2.91,0,0,1,2.781,3.769l-2.816,9.167" transform="translate(-236.012 -76.483)" fill="none" stroke="#7094d8" stroke-miterlimit="10" stroke-width="1.148"/>
        <g id="Group_6506" data-name="Group 6506" transform="translate(0 19.902)">
          <g id="Group_6503" data-name="Group 6503" transform="translate(7.746)">
            <path id="Path_8263" data-name="Path 8263" d="M215.1,83.8h-3.4a1.164,1.164,0,0,1-1.161-1.542l.849-3.4a2.1,2.1,0,0,1,1.932-1.542h3.4a1.164,1.164,0,0,1,1.161,1.542l-.849,3.4A2.115,2.115,0,0,1,215.1,83.8Z" transform="translate(-210.483 -77.31)" fill="#d2d2d2"/>
          </g>
          <g id="Group_6504" data-name="Group 6504" transform="translate(5.259 9.972)">
            <path id="Path_8264" data-name="Path 8264" d="M212.228,95.309h-3.4a1.164,1.164,0,0,1-1.161-1.542l.849-3.4a2.1,2.1,0,0,1,1.932-1.542h3.405a1.164,1.164,0,0,1,1.161,1.542l-.849,3.4A2.115,2.115,0,0,1,212.228,95.309Z" transform="translate(-207.613 -88.82)" fill="#d2d2d2"/>
            <path id="Path_8265" data-name="Path 8265" d="M224.718,95.309h-3.4a1.164,1.164,0,0,1-1.161-1.542l.849-3.4a2.1,2.1,0,0,1,1.932-1.542h3.4a1.164,1.164,0,0,1,1.161,1.542l-.849,3.4A2.106,2.106,0,0,1,224.718,95.309Z" transform="translate(-209.282 -88.82)" fill="#d2d2d2"/>
            <path id="Path_8266" data-name="Path 8266" d="M237.218,95.309h-3.405a1.164,1.164,0,0,1-1.161-1.542l.849-3.4a2.1,2.1,0,0,1,1.932-1.542h3.4A1.164,1.164,0,0,1,240,90.362l-.849,3.4A2.123,2.123,0,0,1,237.218,95.309Z" transform="translate(-210.952 -88.82)" fill="#d2d2d2"/>
          </g>
          <g id="Group_6505" data-name="Group 6505" transform="translate(0 20.179)">
            <path id="Path_8267" data-name="Path 8267" d="M209.288,107.089h-3.4a1.164,1.164,0,0,1-1.161-1.542l.849-3.405A2.1,2.1,0,0,1,207.5,100.6h3.405a1.164,1.164,0,0,1,1.161,1.542l-.849,3.405A2.106,2.106,0,0,1,209.288,107.089Z" transform="translate(-201.961 -100.6)" fill="#d2d2d2"/>
            <path id="Path_8268" data-name="Path 8268" d="M206.158,119.669h-3.4a1.164,1.164,0,0,1-1.161-1.542l.849-3.405a2.1,2.1,0,0,1,1.932-1.542h3.4a1.164,1.164,0,0,1,1.161,1.542l-.849,3.405A2.123,2.123,0,0,1,206.158,119.669Z" transform="translate(-201.543 -102.281)" fill="#d2d2d2"/>
            <path id="Path_8269" data-name="Path 8269" d="M221.788,107.089h-3.4a1.164,1.164,0,0,1-1.161-1.542l.849-3.405A2.1,2.1,0,0,1,220,100.6h3.4a1.164,1.164,0,0,1,1.161,1.542l-.849,3.405A2.123,2.123,0,0,1,221.788,107.089Z" transform="translate(-203.631 -100.6)" fill="#d2d2d2"/>
            <path id="Path_8270" data-name="Path 8270" d="M216.308,129.039H212.9a1.164,1.164,0,0,1-1.161-1.542l.849-3.4a2.1,2.1,0,0,1,1.932-1.542h3.4a1.164,1.164,0,0,1,1.161,1.542l-.849,3.4A2.106,2.106,0,0,1,216.308,129.039Z" transform="translate(-202.899 -103.532)" fill="#d2d2d2"/>
          </g>
        </g>
        <g id="Group_6514" data-name="Group 6514" transform="translate(42.005 4.687)">
          <g id="Group_6510" data-name="Group 6510" transform="translate(0 1.863)">
            <g id="Group_6509" data-name="Group 6509">
              <g id="Group_6508" data-name="Group 6508">
                <g id="Group_6507" data-name="Group 6507">
                  <path id="Path_8271" data-name="Path 8271" d="M274.939,61.943h-.052a.955.955,0,0,1-.156-.017v.009c-.347-.026-.7-.035-1.066-.035-10.085,0-20.291,8.084-22.977,18.125l-.121.477h-.009a.736.736,0,0,1-.035.147l-.078.3h.009c-2.209,10.18,4.315,18.281,14.772,17.857,9.531-.39,19.148-8,22.016-17.432C290.352,71.153,284.7,62.619,274.939,61.943Zm6.957,19.1c-2.01,6.706-8.889,12.121-15.647,12.329-7.269.234-11.809-5.415-10.31-12.511l.208-.84h-.009c1.932-7.035,9.1-12.676,16.176-12.676.364,0,.728.017,1.074.052C280.146,67.956,284.036,73.908,281.9,81.039Z" transform="translate(-250.024 -61.9)" fill="#e2e2e2"/>
                  <path id="Path_8272" data-name="Path 8272" d="M273.952,65.147h0a2.05,2.05,0,0,0,1.412,2.643c5.51,1.456,8.456,6.914,6.533,13.308-2.01,6.706-8.889,12.121-15.647,12.329-6.637.208-10.995-4.462-10.57-10.674a2,2,0,0,0-2.123-2.2h0a3.673,3.673,0,0,0-3.483,3.18c-.6,8.855,5.666,15.517,15.171,15.128,9.531-.39,19.148-8,22.016-17.432,2.764-9.106-1.4-16.869-9.245-18.948A3.643,3.643,0,0,0,273.952,65.147Z" transform="translate(-250.026 -61.967)" fill="#9a9a9a"/>
                </g>
              </g>
            </g>
          </g>
          <g id="Group_6513" data-name="Group 6513" transform="translate(45.943)">
            <g id="Group_6512" data-name="Group 6512">
              <g id="Group_6511" data-name="Group 6511">
                <path id="Path_8273" data-name="Path 8273" d="M327.968,59.793h-.052c-.061,0-.13-.009-.191-.009-.338-.017-.684-.035-1.031-.035-10.2,0-20.534,8.266-23.073,18.472s3.665,18.472,13.863,18.472c.347,0,.693-.017,1.048-.035.069,0,.13-.009.2-.009h.052c9.712-.658,19.234-8.56,21.738-18.255a.914.914,0,0,0,.043-.165C342.992,68.44,337.4,60.452,327.968,59.793Zm-8.2,31.4h-.052c-.217.017-.433.026-.641.026h0c-.078,0-.147.009-.225.009-7.191,0-11.567-5.831-9.773-13.022s9.071-13.022,16.263-13.022c.078,0,.147.009.217.009.217,0,.424.009.632.026h.052c6.645.468,10.579,6.1,8.863,12.979-.017.052-.026.1-.043.165C333.288,85.179,326.591,90.733,319.763,91.192Z" transform="translate(-303.051 -59.75)" fill="#fff"/>
                <path id="Path_8274" data-name="Path 8274" d="M336.639,83.52a18.238,18.238,0,0,1-12.884,10.345,3.8,3.8,0,0,0-2.928,2.686h0a2.1,2.1,0,0,0,2.582,2.677A25.881,25.881,0,0,0,341.768,84.49c.736-1.681-.156-3.24-1.871-3.24h0A3.738,3.738,0,0,0,336.639,83.52Z" transform="translate(-305.414 -62.622)" fill="#9a9a9a"/>
              </g>
            </g>
          </g>
        </g>
        <path id="Path_8275" data-name="Path 8275" d="M269.9,133.826H235.479a.267.267,0,0,1-.26-.329l1.542-5.918a.278.278,0,0,1,.26-.2h34.423a.267.267,0,0,1,.26.329l-1.542,5.918A.278.278,0,0,1,269.9,133.826Z" transform="translate(-206.041 -64.097)" fill="#7b7b7b"/>
        <g id="Group_6515" data-name="Group 6515" transform="translate(192.696 65.506)">
          <ellipse id="Ellipse_319" data-name="Ellipse 319" cx="17.311" cy="13.499" rx="17.311" ry="13.499" transform="translate(0 22.916) rotate(-41.445)" fill="#747474"/>
          <path id="Path_8276" data-name="Path 8276" d="M474,173.135a5.711,5.711,0,0,1-5.224,4.185,3.156,3.156,0,0,1-3.136-4.185,5.711,5.711,0,0,1,5.224-4.185A3.165,3.165,0,0,1,474,173.135Z" transform="translate(-429.502 -135.156)" fill="#888"/>
          <path id="Path_8277" data-name="Path 8277" d="M443.844,161.714a1.452,1.452,0,0,1-1.2-.555L438.7,155.9a2.015,2.015,0,0,1,.658-2.66,1.865,1.865,0,0,1,2.66,0l2.954,3.934,10.544-8.439a1.866,1.866,0,0,1,2.66,0,2.016,2.016,0,0,1-.659,2.66l-12.208,9.773A2.439,2.439,0,0,1,443.844,161.714Z" transform="translate(-425.883 -132.382)" fill="#fff"/>
        </g>
      </g>
      <g id="Group_6528" data-name="Group 6528" transform="translate(333.023 48.426)">
        <ellipse id="Ellipse_320" data-name="Ellipse 320" cx="65.18" cy="5.476" rx="65.18" ry="5.476" transform="translate(0 294.205)" fill="#e8e8e8"/>
        <g id="Group_6524" data-name="Group 6524" transform="translate(1.855)">
          <g id="Group_6522" data-name="Group 6522">
            <path id="Path_8278" data-name="Path 8278" d="M563.637,119.8s-1.655,3.318-2.651,10.614,1.655,49.42,1.655,49.42l28.522-2.989-12.936-55.061Z" transform="translate(-497.825 -111.511)"/>
            <g id="Group_6520" data-name="Group 6520">
              <path id="Path_8279" data-name="Path 8279" d="M543.025,325.19l-9.955,49.256,19.408.494s4.973-43.78,2.989-43.78S543.025,325.19,543.025,325.19Z" transform="translate(-494.126 -138.949)" fill="#373737"/>
              <g id="Group_6517" data-name="Group 6517" transform="translate(83.72 184.836)">
                <path id="Path_8280" data-name="Path 8280" d="M595.034,447.02s-7.3,7.633-10.284,9.288c.667,1.326,11.281,1.326,15.258-.667S606.974,449,606.974,449l-.329,4.973h1.993s1.993-6.966,1.993-8.621-1.993-3.977-1.993-3.977Z" transform="translate(-584.75 -339.306)" fill="#464646"/>
                <path id="Path_8281" data-name="Path 8281" d="M593.18,333.1l7.3,89.561,8.621-.667s9.955-65.674,5.97-88.227S593.18,333.1,593.18,333.1Z" transform="translate(-585.876 -323.568)" fill="#ff8d68"/>
                <path id="Path_8282" data-name="Path 8282" d="M600.5,437.839s-2.651,6.966-6.3,10.284,5.64,3.318,9.617,0,4.315-5.311,5.64-5.97-.329-4.973-.329-4.973Z" transform="translate(-585.902 -338.745)" fill="#ff8d68"/>
              </g>
              <g id="Group_6518" data-name="Group 6518" transform="translate(22.404 186.672)">
                <path id="Path_8283" data-name="Path 8283" d="M525.685,445.658s-8.482,6.29-11.705,7.425c.433,1.421,10.891,3.206,15.154,1.915s7.988-5.363,7.988-5.363l-1.17,4.852,1.958.338s3.136-6.533,3.414-8.162-1.291-4.263-1.291-4.263Z" transform="translate(-513.98 -341.279)" fill="#464646"/>
                <path id="Path_8284" data-name="Path 8284" d="M541.982,332.786l-7.9,89.509,8.612.8s20.881-63.058,20.759-85.965S541.982,332.786,541.982,332.786Z" transform="translate(-516.665 -325.687)" fill="#ff8d68"/>
                <path id="Path_8285" data-name="Path 8285" d="M532.692,437.18s-3.786,6.42-7.945,9.071,5,4.219,9.479,1.62,5.147-4.505,6.567-4.939.511-4.956.511-4.956Z" transform="translate(-515.277 -340.581)" fill="#ff8d68"/>
              </g>
              <g id="Group_6519" data-name="Group 6519" transform="translate(0 45.753)">
                <path id="Path_8286" data-name="Path 8286" d="M505.284,169.119l-17.146-3.379s-.26,2.339,1.3,2.859l1.56.52s3.9,9.357,5.718,10.388,12.736,5.545,12.736,5.545l2.851-11Z" transform="translate(-488.121 -163.401)" fill="#ff7759"/>
                <path id="Path_8287" data-name="Path 8287" d="M519.458,182.63s-.165-1.161-2.461-5.814a47.479,47.479,0,0,1-3.119-7.278s-8.058-3.119-9.357-4.679a5.744,5.744,0,0,0-2.079-1.819s-1.56,2.859.78,4.939,4.419,3.639,4.419,3.639-.26,5.978.52,8.837a7.614,7.614,0,0,0,3.119,4.245Z" transform="translate(-489.966 -163.04)" fill="#ff8d68"/>
                <path id="Path_8288" data-name="Path 8288" d="M547.6,195.164s-11.61,18.576-11.939,16.912-14.928-27.2-14.928-27.2l-8.006,2.729s11.983,37.4,19.616,43.373c0,0,.667,1,2.989.667s20.231-18.905,20.231-18.905Z" transform="translate(-491.409 -165.958)" fill="#ff8d68"/>
              </g>
              <path id="Path_8289" data-name="Path 8289" d="M562.311,171.29s-6.221,2.487-9.2,6.8S541.5,201.97,541.5,201.97a26.635,26.635,0,0,0,15.258,11.281l14.59-26.867Z" transform="translate(-495.252 -118.389)" fill="#d9d9d9"/>
              <path id="Path_8290" data-name="Path 8290" d="M554.775,244.263s.494,7.962.494,10.943c0,0-11.939,57.712-12.442,71.15s9.453,40.8,9.453,40.8,42.792-1,56.724-3.977l1.49-28.86s1.993-50.252,0-64.678-10.449-21.894-10.449-21.894l-2.487-6.966Z" transform="translate(-495.427 -127.672)" fill="#373737"/>
              <path id="Path_8291" data-name="Path 8291" d="M591.72,167.27s11.194,5.224,14.677,10.7,13.932,35.072,13.932,35.072-11.688,4.228-21.894,4.228c0,0,1,9.453,1.993,12.442s-2.487,4.228-2.487,4.228-24.381,6.715-42.541,2.738c0,0-2.235-.494-2.235-1.49s.251-3.483.251-3.483-1.742-16.912-2.235-19.9-5.97-11.116-5.476-14.348,8.959-18.247,8.959-18.247,5.718-6.715,8.214-8.456,8.707-1.741,8.707-1.741Z" transform="translate(-495.81 -117.852)" fill="#d9d9d9"/>
              <path id="Path_8292" data-name="Path 8292" d="M573.723,155.138c.009.39,1.43,8.837-3.249,14.807-4.679,6.108,13.767,5.848,18.056-.39,3.9-5.588,3.509-6.5,3.509-6.5s-3.119-10.128-2.209-16.756C589.569,140.331,573.463,143.97,573.723,155.138Z" transform="translate(-499.022 -114.671)" fill="#ff8d68"/>
              <path id="Path_8293" data-name="Path 8293" d="M572.662,115.966s-5.38,1.378-8.422,9.635-1.014,25.8,1.014,27.872,8.2,1.274,16.757-1.551c9.037-2.98,12.1-12.381,13.707-18.585C598.81,121.476,588.491,109.26,572.662,115.966Z" transform="translate(-498.082 -110.744)" fill="#ff8d68"/>
              <path id="Path_8294" data-name="Path 8294" d="M562.15,124.829s4.973,11.939,23.878,12.606l4.393,21.106s8.049,3.864,11.194,5.6c0,0,3.648-38.313-4.973-47.6s-23.878-6.966-29.857-1.655S562.15,124.829,562.15,124.829Z" transform="translate(-497.993 -110.233)"/>
              <path id="Path_8295" data-name="Path 8295" d="M594.443,166.657l-4.228-3.977s-3.734,10.7-16.912,11.445a9.093,9.093,0,0,1-.745-6.715l-2.235,1.741s-4.731,6.715-4.228,8.707,6.8-1.49,6.8-1.49,7.46,4.479,10.449,4.731C586.316,181.334,593.949,167.4,594.443,166.657Z" transform="translate(-498.533 -117.239)" fill="#fff"/>
              <path id="Path_8296" data-name="Path 8296" d="M589.832,140.908s1.993-3.292,3.985-2.079-1.274,8.655-3.985,8.829S588.567,142.814,589.832,140.908Z" transform="translate(-501.503 -114.017)" fill="#ff7759"/>
            </g>
            <line id="Line_440" data-name="Line 440" x2="7.633" y2="27.197" transform="translate(93.008 70.983)" fill="none" stroke="#a5a5a5" stroke-miterlimit="10" stroke-width="1.148"/>
            <path id="Path_8297" data-name="Path 8297" d="M590.02,193.98a17.994,17.994,0,0,0,7.46,8.707" transform="translate(-501.734 -121.421)" fill="none" stroke="#a5a5a5" stroke-miterlimit="10" stroke-width="1.148"/>
            <path id="Path_8298" data-name="Path 8298" d="M600.07,185.36s1-6.966,8.959-7.46" transform="translate(-503.076 -119.272)" fill="none" stroke="#a5a5a5" stroke-miterlimit="10" stroke-width="1.148"/>
            <path id="Path_8299" data-name="Path 8299" d="M553.75,183.07s-8.127,13.351-8.04,16.505,5.311,12.1,5.311,12.1l6.472,16.912" transform="translate(-495.814 -119.963)" fill="none" stroke="#a5a5a5" stroke-miterlimit="10" stroke-width="1.148"/>
            <line id="Line_441" data-name="Line 441" y1="9.946" x2="8.707" transform="translate(86.042 108.628)" fill="none" stroke="#a5a5a5" stroke-miterlimit="10" stroke-width="1.148"/>
            <g id="Group_6521" data-name="Group 6521" transform="translate(2.867 51.48)">
              <path id="Path_8300" data-name="Path 8300" d="M501.636,172.57l-10.206-2.92a13.269,13.269,0,0,0,1.577,2.92c.667.667,7.8,3.154,7.8,3.154" transform="translate(-491.43 -169.65)" fill="none" stroke="#e66657" stroke-miterlimit="10" stroke-width="1.026"/>
              <path id="Path_8301" data-name="Path 8301" d="M493.26,173.02a18.165,18.165,0,0,0,1.49,3.483c.494.494,6.8,2.322,6.8,2.322" transform="translate(-491.674 -170.1)" fill="none" stroke="#e66657" stroke-miterlimit="10" stroke-width="1.026"/>
              <path id="Path_8302" data-name="Path 8302" d="M504.93,170.14l3.119,2.426,2.357-.6" transform="translate(-493.233 -169.715)" fill="none" stroke="#e66657" stroke-miterlimit="10" stroke-width="1.026"/>
            </g>
          </g>
          <g id="Group_6523" data-name="Group 6523" transform="translate(66.228 27.029)">
            <path id="Path_8303" data-name="Path 8303" d="M575.57,159.065a15.686,15.686,0,0,0,9.617-7.3" transform="translate(-566.031 -142.811)" fill="none" stroke="#e66657" stroke-miterlimit="10" stroke-width="1.026"/>
            <path id="Path_8304" data-name="Path 8304" d="M569.071,143.35l-1.161,6.3,2.157.494" transform="translate(-565.008 -141.687)" fill="none" stroke="#e66657" stroke-miterlimit="10" stroke-width="1.026"/>
            <path id="Path_8305" data-name="Path 8305" d="M568.87,154.271a10.2,10.2,0,0,0,6.472-1.161" transform="translate(-565.136 -142.99)" fill="none" stroke="#e66657" stroke-miterlimit="10" stroke-width="1.026"/>
            <path id="Path_8306" data-name="Path 8306" d="M581.514,146.607a3.067,3.067,0,1,1-3.067-3.067A3.067,3.067,0,0,1,581.514,146.607Z" transform="translate(-566.005 -141.712)" fill="#fa6157"/>
            <path id="Path_8307" data-name="Path 8307" d="M575.34,142.175a.745.745,0,1,1-.745-.745A.745.745,0,0,1,575.34,142.175Z" transform="translate(-565.801 -141.43)" fill="#024470"/>
            <path id="Path_8308" data-name="Path 8308" d="M566.05,142.175a.745.745,0,1,1-.745-.745A.745.745,0,0,1,566.05,142.175Z" transform="translate(-564.56 -141.43)" fill="#024470"/>
          </g>
          <path id="Path_8309" data-name="Path 8309" d="M560.16,255.228s13.681,4.228,26.616-1.248" transform="translate(-497.745 -129.436)" fill="none" stroke="#562525" stroke-miterlimit="10" stroke-width="1.148"/>
          <path id="Path_8310" data-name="Path 8310" d="M564.85,260.763s6.966,2.322,18.247-1.993" transform="translate(-498.371 -130.076)" fill="none" stroke="#562525" stroke-miterlimit="10" stroke-width="1.148"/>
        </g>
        <rect id="Rectangle_723" data-name="Rectangle 723" width="30.35" height="40.297" transform="matrix(0.866, -0.5, 0.5, 0.866, 39.052, 142.292)" fill="#fff"/>
        <g id="Group_6527" data-name="Group 6527" transform="translate(69.495 96.351)">
          <g id="Group_6525" data-name="Group 6525" transform="translate(0.115)">
            <path id="Path_8311" data-name="Path 8311" d="M586.932,271.525s-4.15,4.557-5.389,5.554-9.7,1.742-9.7,1.742-3.734,6.221-4.731,5.97-.745-1-.745-1-.251-11.194.494-12.442,12.936-4.731,12.936-4.731l1.49-1.742,5.649,6.645" transform="translate(-566.323 -227.243)" fill="#ff8d68"/>
            <path id="Path_8312" data-name="Path 8312" d="M621.75,221.44c.329,1,2.989,8.794,4.315,12.771s-28.522,24.875-33.166,28.522l-3.648,2.989-5.64-6.637,26.2-26.2L606,224.265Z" transform="translate(-568.632 -221.44)" fill="#ff8d68"/>
          </g>
          <g id="Group_6526" data-name="Group 6526" transform="translate(0 44.118)">
            <line id="Line_442" data-name="Line 442" y1="6.966" x2="1.577" transform="translate(0.91 6.472)" fill="none" stroke="#e66657" stroke-miterlimit="10" stroke-width="1.026"/>
            <line id="Line_443" data-name="Line 443" y1="3.977" x2="1.819" transform="translate(0 3.154)" fill="none" stroke="#e66657" stroke-miterlimit="10" stroke-width="1.026"/>
            <path id="Path_8313" data-name="Path 8313" d="M566.849,272.36,566.19,285.8h2.157l3.483-5.97" transform="translate(-566.19 -272.36)" fill="none" stroke="#e66657" stroke-miterlimit="10" stroke-width="1.026"/>
          </g>
        </g>
      </g>
      <g id="Group_6536" data-name="Group 6536" transform="translate(0 45.438)">
        <ellipse id="Ellipse_321" data-name="Ellipse 321" cx="65.18" cy="5.476" rx="65.18" ry="5.476" transform="translate(0 297.194)" fill="#e8e8e8"/>
        <g id="Group_6535" data-name="Group 6535" transform="translate(17.266)">
          <g id="Group_6534" data-name="Group 6534">
            <g id="Group_6533" data-name="Group 6533">
              <g id="Group_6529" data-name="Group 6529" transform="translate(14.175 203.835)">
                <path id="Path_8314" data-name="Path 8314" d="M146.272,435.444s1.386-2.963,6.515-2.175,5.727,1.776,6.325,4.349,2.374,5.337,3.552,5.926,5.528,3.552,9.089,4.15,3.951,2.764,3.162,3.752-14.226,1.776-17.19,1.386c0,0-10.076-.2-12.442-.988S146.073,436.432,146.272,435.444Z" transform="translate(-138.769 -354.215)" fill="#464646"/>
                <path id="Path_8315" data-name="Path 8315" d="M139.693,353.841a9.733,9.733,0,0,1,7.139-10.925c8.638-2.747,10.276,1.248,12.892,8.707s-2.244,71.2-2.244,71.2-9.946,1.7-12.5.191c0,0-7.581-41.493-7.053-52.877S139.693,353.841,139.693,353.841Z" transform="translate(-137.9 -342.047)" fill="#373737"/>
                <path id="Path_8316" data-name="Path 8316" d="M144.85,432.367s11.263-.988,14.816-1.577l-.2,5.138s-8.889,1.577-14.417.788Z" transform="translate(-138.828 -353.902)" fill="#858585"/>
              </g>
              <path id="Path_8317" data-name="Path 8317" d="M138.972,171.33s-7.113.4-11.454,16.592-7.113,35.947-5.528,41.085,18.567,18.966,24.892,18.966,6.715-4.739,5.528-8.69-13.429-14.616-13.429-14.616,9.877-31.607,9.479-39.9S143.313,171.33,138.972,171.33Z" transform="translate(-121.538 -115.406)" fill="#d9d9d9"/>
              <g id="Group_6531" data-name="Group 6531" transform="translate(105.296 21.016)">
                <path id="Path_8318" data-name="Path 8318" d="M244.248,164.958l-1.178.121,2.643-5.233s6.723-.425,7.8,2.417l-3.084,6.836Z" transform="translate(-243.07 -134.885)" fill="#ff8d68"/>
                <g id="Group_6530" data-name="Group 6530" transform="translate(0.974)">
                  <path id="Path_8319" data-name="Path 8319" d="M248.788,147.615s-.26-5.346,1.638-6.108,4.037.719,4.037.719,3.076-.312,4.064,1a5.937,5.937,0,0,1,.9,3.3,3.109,3.109,0,0,1,2.192,2.036c.451,1.655-.355,4.843-.355,4.843s-2.01,2.469-4.341,1.854C254.593,154.659,248.788,147.615,248.788,147.615Z" transform="translate(-244.806 -132.409)" fill="#ff7759"/>
                  <path id="Path_8320" data-name="Path 8320" d="M244.683,150.56s-.71-7,.043-7.928,8.465-11.593,8.465-11.593a3.878,3.878,0,0,1,.676,3.89c-.918,2.071-4.549,8.37-4.549,8.37l-.017,5.38A11.91,11.91,0,0,1,244.683,150.56Z" transform="translate(-244.219 -131.04)" fill="#ff7759"/>
                  <path id="Path_8321" data-name="Path 8321" d="M245.222,157.935s-1.845-11.237-.589-12.788,7.425-.641,8.595-.2,4.436,4.644,4.887,6.29-2.617,7.624-4.462,8.941S246.3,160.084,245.222,157.935Z" transform="translate(-244.194 -132.809)" fill="#ff8d68"/>
                </g>
              </g>
              <path id="Path_8322" data-name="Path 8322" d="M240.38,167.9l2.374-4.349s5.528-.988,8.3,3.362c.788,1.577.4,1.577.4,1.577l-1.776,3.552Z" transform="translate(-137.414 -114.355)" fill="#dee0e8"/>
              <path id="Path_8323" data-name="Path 8323" d="M171.465,113.38s5.848,1.5,9.158,10.466,1.1,28.046-1.1,30.29-8.915,1.386-18.212-1.681c-9.825-3.24-13.143-13.455-14.9-20.187C143.056,119.367,154.267,106.094,171.465,113.38Z" transform="translate(-124.782 -107.388)" fill="#ff8d68"/>
              <path id="Path_8324" data-name="Path 8324" d="M151.23,168.158l4.739-16.99s9.479-2.764,15.4,3.552l1.975,2.764v11.064A62.794,62.794,0,0,1,151.23,168.158Z" transform="translate(-125.505 -112.632)" fill="#ff8d68"/>
              <path id="Path_8325" data-name="Path 8325" d="M135.717,275.642a156.634,156.634,0,0,0,0,44.447c3.552,23.705,10.666,26.079,17.19,26.079s8.3-18.966,9.479-27.257,5.926-36.745-2.963-43.26S140.456,268.538,135.717,275.642Z" transform="translate(-123.222 -128.659)" fill="#373737"/>
              <path id="Path_8326" data-name="Path 8326" d="M164.368,303.572s-7.113-18.966,5.337-27.257,21.929-7.113,24.892,6.515,3.552,60.45-.589,69.928C189.849,362.246,175.034,347.43,164.368,303.572Z" transform="translate(-126.99 -128.734)" fill="#373737"/>
              <path id="Path_8327" data-name="Path 8327" d="M182.519,113.591a8.531,8.531,0,0,1,1.118,7.85c-1.681,4.211-7.85,5.892-7.85,5.892a6.744,6.744,0,0,1,0,6.732l-1.4,2.244s1.967,4.488,1.4,5.606-2.521.84-2.521.84-2.244-6.169-3.084-5.606-3.084,3.362-3.084,5.892.84,4.488.277,6.169-9.253,1.681-12.9,1.118-9.253-11.775-10.657-16.826c0,0-1.967-7.009.84-12.9,0,0-.563-5.051,4.211-10.094s19.91-3.362,22.431-1.4c0,0-.277-2.807,2.521-2.244S180.839,109.943,182.519,113.591Z" transform="translate(-124.425 -106.784)"/>
              <path id="Path_8328" data-name="Path 8328" d="M178.093,143.719s-.84-3.648-3.925-1.967.563,10.38,3.084,9.816S178.647,145.122,178.093,143.719Z" transform="translate(-128.411 -111.396)" fill="#ff7759"/>
              <path id="Path_8329" data-name="Path 8329" d="M148.34,169.9s1.326-4.653,2.513-5.043,15.8-1.975,23.705,2.764c3.552,2.764,3.162,4.739,3.162,4.739S154.128,167.842,148.34,169.9Z" transform="translate(-125.119 -114.466)" fill="#dee0e8"/>
              <path id="Path_8330" data-name="Path 8330" d="M143,169.137s24.493-1.577,41.874,5.926c7.9,3.951,25.975,21.825,25.975,21.825l14.227-29.631s8-2.868,11.159,4.644c0,0-8.985,34.96-16.5,46.024-4.739,3.951-27.361-8.889-27.361-8.889s3.552,45.825,2.374,66.376c-1.577,3.951-32.4,5.926-37.923,5.528s-24.892-6.715-25.282-7.9,2.764-48.6,1.975-54.125-3.162-32.794-2.374-36.745S135.486,170.714,143,169.137Z" transform="translate(-122.801 -114.79)" fill="#d9d9d9"/>
              <g id="Group_6532" data-name="Group 6532" transform="translate(44.404 206.428)">
                <path id="Path_8331" data-name="Path 8331" d="M174.653,436.814s1.386-2.963,6.515-2.175,5.727,1.776,6.325,4.349,2.374,5.337,3.552,5.926,5.528,3.552,9.089,4.15,3.951,2.764,3.162,3.752-14.227,1.776-17.19,1.386c0,0-10.076-.2-12.442-.988S174.453,437.8,174.653,436.814Z" transform="translate(-172.789 -356.991)" fill="#464646"/>
                <path id="Path_8332" data-name="Path 8332" d="M177.045,355.524a9.735,9.735,0,0,1,8.3-10.076c8.889-1.776,10.076,2.374,11.853,10.076s-10.076,70.517-10.076,70.517-10.076.589-12.442-1.187c0,0-2.963-42.073-1.187-53.336C175.269,360.272,177.045,355.524,177.045,355.524Z" transform="translate(-172.808 -345.04)" fill="#373737"/>
                <path id="Path_8333" data-name="Path 8333" d="M174,437.61s7.7,2.175,14.227.988l.589-4.54L173.8,433.07Z" transform="translate(-172.924 -356.799)" fill="#858585"/>
              </g>
              <path id="Path_8334" data-name="Path 8334" d="M161.95,303.45s8.3,26.668,14.521,39.708" transform="translate(-126.937 -133.056)" fill="none" stroke="#2a2e59" stroke-miterlimit="10" stroke-width="1.026"/>
              <path id="Path_8335" data-name="Path 8335" d="M181.44,355.227s5.034-2.963,10.076,0" transform="translate(-129.541 -139.797)" fill="none" stroke="#2a2e59" stroke-miterlimit="10" stroke-width="1.026"/>
              <path id="Path_8336" data-name="Path 8336" d="M180.41,359.114s4.15-2.374,11.263,2.669" transform="translate(-129.403 -140.417)" fill="none" stroke="#2a2e59" stroke-miterlimit="10" stroke-width="1.026"/>
              <path id="Path_8337" data-name="Path 8337" d="M144.51,351.14s3.258-2.963,10.666.295" transform="translate(-124.607 -139.262)" fill="none" stroke="#2a2e59" stroke-miterlimit="10" stroke-width="1.026"/>
              <path id="Path_8338" data-name="Path 8338" d="M147.24,354.631a8.9,8.9,0,0,1,9.184,1.187" transform="translate(-124.972 -139.789)" fill="none" stroke="#2a2e59" stroke-miterlimit="10" stroke-width="1.026"/>
              <line id="Line_444" data-name="Line 444" x1="1.776" y2="60.45" transform="translate(31.452 219.58)" fill="none" stroke="#2a2e59" stroke-miterlimit="10" stroke-width="1.026"/>
              <path id="Path_8339" data-name="Path 8339" d="M188.17,301.374s6.715,3.951,9.479-2.374" transform="translate(-130.44 -132.462)" fill="none" stroke="#2a2e59" stroke-miterlimit="10" stroke-width="1.026"/>
              <path id="Path_8340" data-name="Path 8340" d="M195.92,302.65s3.162,24.493,2.374,40.7" transform="translate(-131.475 -132.949)" fill="none" stroke="#2a2e59" stroke-miterlimit="10" stroke-width="1.026"/>
              <line id="Line_445" data-name="Line 445" x2="3.162" y2="33.972" transform="translate(8.345 77.653)" fill="none" stroke="#a5a5a5" stroke-miterlimit="10" stroke-width="1.026"/>
              <path id="Path_8341" data-name="Path 8341" d="M193.75,210.09s23.41,16.886,34.371,13.629" transform="translate(-131.185 -120.584)" fill="none" stroke="#a5a5a5" stroke-miterlimit="10" stroke-width="1.026"/>
              <path id="Path_8342" data-name="Path 8342" d="M225.9,205.3a9.78,9.78,0,0,1,4.445,8.889" transform="translate(-135.48 -119.944)" fill="none" stroke="#a5a5a5" stroke-miterlimit="10" stroke-width="1.026"/>
              <path id="Path_8343" data-name="Path 8343" d="M224.53,202.539a7.13,7.13,0,0,1,8,3.552" transform="translate(-135.297 -119.548)" fill="none" stroke="#a5a5a5" stroke-miterlimit="10" stroke-width="1.026"/>
              <path id="Path_8344" data-name="Path 8344" d="M191.651,178.97s-12.442,6.515-4.15,21.634" transform="translate(-129.97 -116.427)" fill="none" stroke="#a5a5a5" stroke-miterlimit="10" stroke-width="1.026"/>
              <path id="Path_8345" data-name="Path 8345" d="M172.38,156.23s2.071,5.337,9.037,4.445" transform="translate(-128.33 -113.389)" fill="none" stroke="#e66657" stroke-miterlimit="10" stroke-width="1.026"/>
              <path id="Path_8346" data-name="Path 8346" d="M249.78,143.251l2.322-2.071a3.576,3.576,0,0,1,2.5,1.031" transform="translate(-138.67 -111.379)" fill="none" stroke="#e66657" stroke-miterlimit="10" stroke-width="1.026"/>
              <path id="Path_8347" data-name="Path 8347" d="M252.97,143.673c0-.147,3.31-1.923,3.31-1.923s3.015.736,3.457,2.322a4,4,0,0,1,.1,2.417" transform="translate(-139.096 -111.455)" fill="none" stroke="#e66657" stroke-miterlimit="10" stroke-width="1.026"/>
              <path id="Path_8348" data-name="Path 8348" d="M257.48,147.279c.147-.052,4.193.2,4.193.2a3.537,3.537,0,0,1,1.43,2.911,15.267,15.267,0,0,1-.684,3.83,5.012,5.012,0,0,1-3.908,2" transform="translate(-139.699 -112.193)" fill="none" stroke="#e66657" stroke-miterlimit="10" stroke-width="1.026"/>
              <path id="Path_8349" data-name="Path 8349" d="M259.477,152.06a2.445,2.445,0,0,1-.147,2.218c-.641,1.43-1.421,5.181-4.219,6.94" transform="translate(-139.382 -112.832)" fill="none" stroke="#e66657" stroke-miterlimit="10" stroke-width="1.026"/>
            </g>
            <path id="Path_8350" data-name="Path 8350" d="M161.107,121.662c-5.779-2.816-13.187.589-13.187.589a7.671,7.671,0,0,1,5.034-5.181" transform="translate(-125.063 -108.158)" fill="none" stroke="#b1b1b1" stroke-miterlimit="10" stroke-width="1.368"/>
            <path id="Path_8351" data-name="Path 8351" d="M148.27,125.79s1.482-.147,3.4,2.816" transform="translate(-125.109 -109.323)" fill="none" stroke="#b1b1b1" stroke-miterlimit="10" stroke-width="1.368"/>
            <path id="Path_8352" data-name="Path 8352" d="M177.68,110.46s7.313,1.187,7.5,8.491" transform="translate(-129.038 -107.275)" fill="none" stroke="#b1b1b1" stroke-miterlimit="10" stroke-width="1.368"/>
          </g>
        </g>
      </g>
    </g>
  </g>
</svg>
