<svg xmlns="http://www.w3.org/2000/svg" width="38.211" height="38" viewBox="0 0 38.211 38">
  <g id="Learning_and_Development_" data-name="Learning and Development  " transform="translate(0 -1.376)">
    <g id="Group_6541" data-name="Group 6541" transform="translate(14.499 11.795)">
      <g id="Group_6540" data-name="Group 6540">
        <path id="Path_8367" data-name="Path 8367" d="M211.533,160.2a4.272,4.272,0,0,0-3.342-2.988l-4.022-.732v-.317a6.14,6.14,0,0,0,2.949-4.125,2.456,2.456,0,0,0,1.955-2.4V143.58a3.844,3.844,0,0,0-2.746-3.688l-.306-.306a7.547,7.547,0,0,0-12.883,5.337v4.711a2.456,2.456,0,0,0,1.955,2.4,6.14,6.14,0,0,0,2.949,4.125v.317l-4.022.731a4.274,4.274,0,0,0-3.342,2.989l-1.427,4.76H212.96Zm-4.3-9.507v-2.111a1.215,1.215,0,0,1,0,2.111Zm-12.258,0a1.215,1.215,0,0,1,0-2.111Zm0-4.12v.7a2.43,2.43,0,0,0-.613.254v-2.6a6.321,6.321,0,0,1,10.791-4.469l.541.541.165.04a2.619,2.619,0,0,1,1.988,2.545v3.943a2.408,2.408,0,0,0-.613-.254v-.7H205.29a5.331,5.331,0,0,1-4.244-2.121l-.487-.651-1.218,1.218a5.273,5.273,0,0,1-3.752,1.554Zm1.226,4.29v-3.093a6.487,6.487,0,0,0,4.006-1.885l.238-.238a6.565,6.565,0,0,0,4.844,2.151h.718v3.065a4.9,4.9,0,0,1-9.806,0Zm3.117,5.862a6.106,6.106,0,0,0,3.573,0l-1.787,1.34Zm.854,2.172-1.251,1.25-.811-2.434.39-.07Zm3.538-1.254.39.071-.811,2.434-1.251-1.25ZM190.9,163.731l.955-3.182a3.049,3.049,0,0,1,2.387-2.134l2.654-.482,1.494,4.482,2.719-2.72,2.719,2.719,1.494-4.482,2.654.482a3.052,3.052,0,0,1,2.387,2.134l.954,3.182Z" transform="translate(-189.248 -137.376)" fill="#fff"/>
      </g>
    </g>
    <g id="Group_6543" data-name="Group 6543" transform="translate(0 1.376)">
      <g id="Group_6542" data-name="Group 6542" transform="translate(0 0)">
        <path id="Path_8368" data-name="Path 8368" d="M15.935,11.286V7.4l-1.663-.443q-.074-.192-.161-.384l.864-1.492L12.229,2.336,10.737,3.2c-.127-.058-.256-.112-.383-.161L9.909,1.376H6.026L5.582,3.04Q5.39,3.114,5.2,3.2L3.707,2.336.961,5.082l.864,1.492c-.059.128-.112.256-.161.384L0,7.4v3.885l1.663.443c.049.128.1.256.161.384L.961,13.605l2.746,2.746L5.2,15.487c.127.058.256.112.383.161l.444,1.663H9.909l.444-1.664q.192-.074.383-.161l1.492.864L14.974,13.6l-.864-1.492c.058-.128.112-.256.161-.384ZM13.442,13.4l-1.415,1.415L10.78,14.1l-.3.153a5.581,5.581,0,0,1-.826.346l-.318.1-.37,1.389h-2L6.6,14.7l-.318-.1a5.648,5.648,0,0,1-.826-.346l-.3-.153-1.247.723L2.493,13.4l.722-1.247-.153-.3a5.48,5.48,0,0,1-.345-.826l-.1-.319-1.389-.37v-2l1.389-.37.1-.319a5.533,5.533,0,0,1,.345-.826l.153-.3L2.493,5.284,3.908,3.869l1.247.723.3-.153a5.581,5.581,0,0,1,.826-.346l.318-.1L6.967,2.6h2l.37,1.389.318.1a5.648,5.648,0,0,1,.826.346l.3.153,1.247-.723,1.415,1.415L12.72,6.531l.153.3a5.48,5.48,0,0,1,.345.826l.1.319,1.389.37v2l-1.389.37-.1.319a5.533,5.533,0,0,1-.345.826l-.153.3Z" transform="translate(0 -1.376)" fill="#fff"/>
      </g>
    </g>
    <g id="Group_6545" data-name="Group 6545" transform="translate(3.677 5.053)">
      <g id="Group_6544" data-name="Group 6544">
        <path id="Path_8369" data-name="Path 8369" d="M55.734,56.226a4.289,4.289,0,1,0-.828.842l-.748-.971a3.035,3.035,0,0,1-1.868.634,3.065,3.065,0,1,1,3.065-3.065,3.037,3.037,0,0,1-.6,1.828Z" transform="translate(-48 -49.376)" fill="#fff"/>
      </g>
    </g>
    <g id="Group_6547" data-name="Group 6547" transform="translate(26.355 1.376)">
      <g id="Group_6546" data-name="Group 6546" transform="translate(0 0)">
        <path id="Path_8370" data-name="Path 8370" d="M354.6,8.91l-.792.792v-2.2a6.136,6.136,0,0,0-6.129-6.129H344V2.6h3.677a4.909,4.909,0,0,1,4.9,4.9V9.7l-.792-.792-.867.867,2.272,2.272,2.272-2.272Z" transform="translate(-344 -1.376)" fill="#fff"/>
      </g>
    </g>
    <g id="Group_6549" data-name="Group 6549" transform="translate(0.18 28.703)">
      <g id="Group_6548" data-name="Group 6548">
        <path id="Path_8371" data-name="Path 8371" d="M5.229,362.608v-2.2l.792.792.867-.867-2.272-2.272-2.272,2.272.867.867L4,360.41v2.2a6.136,6.136,0,0,0,6.129,6.129v-1.226A4.909,4.909,0,0,1,5.229,362.608Z" transform="translate(-2.344 -358.064)" fill="#fff"/>
      </g>
    </g>
    <g id="Group_6551" data-name="Group 6551" transform="translate(0 19.763)">
      <g id="Group_6550" data-name="Group 6550">
        <rect id="Rectangle_724" data-name="Rectangle 724" width="15.935" height="1.226" fill="#fff"/>
      </g>
    </g>
    <g id="Group_6553" data-name="Group 6553" transform="translate(0 24.666)">
      <g id="Group_6552" data-name="Group 6552">
        <rect id="Rectangle_725" data-name="Rectangle 725" width="15.935" height="1.226" fill="#fff"/>
      </g>
    </g>
    <g id="Group_6555" data-name="Group 6555" transform="translate(0 22.215)">
      <g id="Group_6554" data-name="Group 6554">
        <rect id="Rectangle_726" data-name="Rectangle 726" width="7.355" height="1.226" fill="#fff"/>
      </g>
    </g>
    <g id="Group_6557" data-name="Group 6557" transform="translate(8.581 22.215)">
      <g id="Group_6556" data-name="Group 6556">
        <path id="Path_8372" data-name="Path 8372" d="M115.524,273.376H112V274.6h7.355v-1.226Z" transform="translate(-112 -273.376)" fill="#fff"/>
      </g>
    </g>
    <g id="Group_6559" data-name="Group 6559" transform="translate(23.903 1.376)">
      <g id="Group_6558" data-name="Group 6558" transform="translate(0 0)">
        <rect id="Rectangle_727" data-name="Rectangle 727" width="1.226" height="1.226" fill="#fff"/>
      </g>
    </g>
    <g id="Group_6561" data-name="Group 6561" transform="translate(21.452 1.376)">
      <g id="Group_6560" data-name="Group 6560" transform="translate(0 0)">
        <rect id="Rectangle_728" data-name="Rectangle 728" width="1.226" height="1.226" fill="#fff"/>
      </g>
    </g>
    <g id="Group_6563" data-name="Group 6563" transform="translate(9.194 38.15)">
      <g id="Group_6562" data-name="Group 6562">
        <rect id="Rectangle_729" data-name="Rectangle 729" width="1.226" height="1.226" fill="#fff"/>
      </g>
    </g>
    <g id="Group_6565" data-name="Group 6565" transform="translate(11.645 38.15)">
      <g id="Group_6564" data-name="Group 6564">
        <rect id="Rectangle_730" data-name="Rectangle 730" width="1.226" height="1.226" fill="#fff"/>
      </g>
    </g>
  </g>
</svg>
