<svg xmlns="http://www.w3.org/2000/svg" width="42.071" height="38" viewBox="0 0 42.071 38">
  <g id="Performance_Management_" data-name="Performance Management  " transform="translate(-8 -32)">
    <path id="Path_8360" data-name="Path 8360" d="M137.944,103.631H154.4a.679.679,0,0,0,.587-.339,10.179,10.179,0,1,0-17.632,0A.679.679,0,0,0,137.944,103.631Zm8.229-14.25A8.824,8.824,0,0,1,154,102.274H138.346a8.824,8.824,0,0,1,7.827-12.893Z" transform="translate(-117.137 -51.274)" fill="#fff"/>
    <path id="Path_8361" data-name="Path 8361" d="M161.357,201.357a.679.679,0,1,0,0-1.357h-.679a.679.679,0,1,0,0,1.357Z" transform="translate(-139.107 -153.75)" fill="#fff"/>
    <path id="Path_8362" data-name="Path 8362" d="M328.679,201.357h.679a.679.679,0,1,0,0-1.357h-.679a.679.679,0,0,0,0,1.357Z" transform="translate(-292.857 -153.75)" fill="#fff"/>
    <path id="Path_8363" data-name="Path 8363" d="M248.679,114.036a.679.679,0,0,0,.679-.679v-.679a.679.679,0,1,0-1.357,0v.679A.679.679,0,0,0,248.679,114.036Z" transform="translate(-219.643 -73.214)" fill="#fff"/>
    <path id="Path_8364" data-name="Path 8364" d="M205.93,165.48a2.035,2.035,0,1,0,3.558-1.809,2.013,2.013,0,0,0-.607-.517l-4.343-3.546a.679.679,0,0,0-1.04.82Zm2.144-1.232a.673.673,0,0,0,.122.08.671.671,0,0,1,.226.184.679.679,0,1,1-1.192.577.678.678,0,0,0-.049-.138l-1.137-2.36Z" transform="translate(-178.853 -116.646)" fill="#fff"/>
    <path id="Path_8365" data-name="Path 8365" d="M47.7,32H10.375A2.378,2.378,0,0,0,8,34.375V62.2a2.378,2.378,0,0,0,2.375,2.375H23.283l-.814,2.036H18.857a.679.679,0,0,0-.679.679v2.036a.679.679,0,0,0,.679.679H39.214a.679.679,0,0,0,.679-.679V67.286a.679.679,0,0,0-.679-.679H35.6l-.814-2.036H47.7A2.378,2.378,0,0,0,50.071,62.2V34.375A2.378,2.378,0,0,0,47.7,32ZM38.536,67.964v.679h-19v-.679Zm-14.6-1.357.814-2.036h8.581l.814,2.036ZM48.714,62.2A1.019,1.019,0,0,1,47.7,63.214H10.375A1.019,1.019,0,0,1,9.357,62.2V60.5H48.714Zm0-3.054H9.357V34.375a1.019,1.019,0,0,1,1.018-1.018H47.7a1.019,1.019,0,0,1,1.018,1.018Z" fill="#fff"/>
    <path id="Path_8366" data-name="Path 8366" d="M104.679,284.071h24.429a.679.679,0,0,0,.679-.679v-2.714a.679.679,0,0,0-.679-.679H104.679a.679.679,0,0,0-.679.679v2.714A.679.679,0,0,0,104.679,284.071Zm.679-2.714h23.071v1.357H105.357Z" transform="translate(-87.857 -226.964)" fill="#fff"/>
  </g>
</svg>
