<svg xmlns="http://www.w3.org/2000/svg" width="37.627" height="38" viewBox="0 0 37.627 38">
  <g id="Recruitment_and_Selection_" data-name="Recruitment and Selection " transform="translate(-2.512)">
    <g id="Group_6539" data-name="Group 6539" transform="translate(2.512 0)">
      <path id="Path_8353" data-name="Path 8353" d="M326.658,194.709h-9.6a.557.557,0,1,0,0,1.113h9.6a.557.557,0,0,0,0-1.113Z" transform="translate(-293.199 -180.258)" fill="#fff"/>
      <path id="Path_8354" data-name="Path 8354" d="M326.658,239.922h-9.6a.557.557,0,1,0,0,1.113h9.6a.557.557,0,0,0,0-1.113Z" transform="translate(-293.199 -222.115)" fill="#fff"/>
      <path id="Path_8355" data-name="Path 8355" d="M327.214,285.692a.557.557,0,0,0-.557-.557h-9.6a.557.557,0,1,0,0,1.113h9.6A.557.557,0,0,0,327.214,285.692Z" transform="translate(-293.199 -263.973)" fill="#fff"/>
      <path id="Path_8356" data-name="Path 8356" d="M317.06,330.348a.557.557,0,0,0,0,1.113h4.8a.557.557,0,0,0,0-1.113Z" transform="translate(-293.199 -305.83)" fill="#fff"/>
      <path id="Path_8357" data-name="Path 8357" d="M39.332,6.545,33.594.807A2.754,2.754,0,0,0,31.646,0H12.762a2.757,2.757,0,0,0-2.754,2.754v5.7a.557.557,0,0,0,1.113,0v-5.7a1.643,1.643,0,0,1,1.641-1.641H31.646A1.638,1.638,0,0,1,32,1.152V6.22a1.921,1.921,0,0,0,1.919,1.919h5.068a1.641,1.641,0,0,1,.039.354V35.246a1.643,1.643,0,0,1-1.641,1.641H29.908a2.509,2.509,0,0,0-.311-3.163l-5.061-5.061a1.3,1.3,0,0,0-1.365-.3l-1.09-1.09A10.8,10.8,0,1,0,19.6,29.751l1.09,1.09a1.3,1.3,0,0,0,.3,1.365l4.681,4.681H12.762a1.643,1.643,0,0,1-1.641-1.641V33.462a.557.557,0,0,0-1.113,0v1.784A2.757,2.757,0,0,0,12.762,38H37.385a2.757,2.757,0,0,0,2.754-2.754V8.493a2.759,2.759,0,0,0-.807-1.947ZM6.457,27.825a9.686,9.686,0,1,1,14.452-.846,9.829,9.829,0,0,1-1.6,1.6A9.69,9.69,0,0,1,6.457,27.825ZM20.48,29.049a10.953,10.953,0,0,0,.9-.9l.917.917-.9.9-.917-.917Zm6.361,7.431L21.78,31.419a.186.186,0,0,1,0-.263l.007-.007h0l1.7-1.7a.186.186,0,0,1,.263,0l5.061,5.061a1.392,1.392,0,0,1-1.969,1.969ZM33.113,6.22V1.9l5.126,5.126h-4.32A.807.807,0,0,1,33.113,6.22Z" transform="translate(-2.512 0)" fill="#fff"/>
      <path id="Path_8358" data-name="Path 8358" d="M162.695,48.663H151.652a1.2,1.2,0,0,0-1.2,1.2v2.133a1.2,1.2,0,0,0,1.2,1.2h11.043a1.2,1.2,0,0,0,1.2-1.2V49.86A1.2,1.2,0,0,0,162.695,48.663Zm.084,3.33a.084.084,0,0,1-.084.084H151.652a.084.084,0,0,1-.084-.084V49.86a.084.084,0,0,1,.084-.084h11.043a.084.084,0,0,1,.084.084v2.133Z" transform="translate(-139.475 -45.051)" fill="#fff"/>
      <path id="Path_8359" data-name="Path 8359" d="M48.153,181.724a8.579,8.579,0,1,0-14.547-7.371.557.557,0,1,0,1.1.168,7.466,7.466,0,1,1,13,6.052,2.407,2.407,0,0,0-1.2-1.142,10.844,10.844,0,0,0-2.5-.567l0-.7a3.266,3.266,0,0,0,1.293-2.117.988.988,0,0,0,.607-.917c0-.738,0-1.96,0-2.672a1.367,1.367,0,0,0-1.133-1.345,1.367,1.367,0,0,0-1.339-1.1H40.74a2.515,2.515,0,0,0-2.512,2.512v2.616a.983.983,0,0,0,.6.9,3.274,3.274,0,0,0,1.234,2.072l0,.767a10.844,10.844,0,0,0-2.491.588,2.348,2.348,0,0,0-1.13,1.077,7.407,7.407,0,0,1-1.713-3.6.557.557,0,1,0-1.1.191,8.58,8.58,0,0,0,14.518,4.589Zm-7.413-10.6h2.687a.251.251,0,0,1,.251.251.83.83,0,0,0,.829.829h.027a.251.251,0,0,1,.251.251v.3l-.673-.063a3.1,3.1,0,0,0-1.9.44,1.969,1.969,0,0,1-1.029.29H39.341v-.9a1.4,1.4,0,0,1,1.4-1.4Zm-1.4,3.9v-.485h1.846a3.081,3.081,0,0,0,1.61-.454,1.982,1.982,0,0,1,1.212-.281l.777.073c0,.343,0,.8,0,1.145a.691.691,0,0,0-.57.639,2.162,2.162,0,0,1-4.315,0A.7.7,0,0,0,39.341,175.02Zm2.722,3.78a3.272,3.272,0,0,0,.828-.107V179a.953.953,0,0,0,.092.4,1.7,1.7,0,0,1-.948.291h-.005a1.7,1.7,0,0,1-.942-.283.953.953,0,0,0,.089-.405v-.333A3.262,3.262,0,0,0,42.063,178.8Zm-4.748,2.6a1.261,1.261,0,0,1,.716-.916,8.877,8.877,0,0,1,2.027-.477,2.806,2.806,0,0,0,1.973.8h.008a2.806,2.806,0,0,0,1.982-.821,8.874,8.874,0,0,1,2.031.46,1.27,1.27,0,0,1,.769.98,7.479,7.479,0,0,1-9.505-.03Z" transform="translate(-31.292 -154.681)" fill="#fff"/>
    </g>
  </g>
</svg>
