<svg xmlns="http://www.w3.org/2000/svg" width="33.567" height="38" viewBox="0 0 33.567 38">
  <g id="Succession_Planning_" data-name="Succession Planning  " transform="translate(-39.988 -16)">
    <path id="Path_8373" data-name="Path 8373" d="M128.633,105.267h13.933a.633.633,0,0,0,0-1.267H128.633a.633.633,0,0,0,0,1.267Z" transform="translate(-81.045 -81.033)" fill="#fff"/>
    <path id="Path_8374" data-name="Path 8374" d="M128.633,153.267h13.933a.633.633,0,0,0,0-1.267H128.633a.633.633,0,0,0,0,1.267Z" transform="translate(-81.045 -125.233)" fill="#fff"/>
    <path id="Path_8375" data-name="Path 8375" d="M128.633,201.267h13.933a.633.633,0,0,0,0-1.267H128.633a.633.633,0,1,0,0,1.267Z" transform="translate(-81.045 -169.433)" fill="#fff"/>
    <path id="Path_8376" data-name="Path 8376" d="M128.633,249.267h13.933a.633.633,0,1,0,0-1.267H128.633a.633.633,0,1,0,0,1.267Z" transform="translate(-81.045 -213.633)" fill="#fff"/>
    <path id="Path_8377" data-name="Path 8377" d="M128.633,297.267H133.7a.633.633,0,0,0,0-1.267h-5.067a.633.633,0,1,0,0,1.267Z" transform="translate(-81.045 -257.833)" fill="#fff"/>
    <path id="Path_8378" data-name="Path 8378" d="M72.616,30.964a1.9,1.9,0,0,0-2.6.679l-1.527,2.606V18.533a.633.633,0,0,0-.633-.633h-4.8a24.834,24.834,0,0,0-1.979-1.873A.631.631,0,0,0,60.889,16H42.522a.633.633,0,0,0-.633.633v1.98a2.533,2.533,0,0,0,0,4.906v1.427a2.533,2.533,0,0,0,0,4.906V31.28a2.533,2.533,0,0,0,0,4.906v.794a2.533,2.533,0,0,0,0,4.906v3.88a.633.633,0,0,0,.633.633h.633v1.9a.633.633,0,0,0,.633.633H59.883l-.434.741a.628.628,0,0,0-.078.215s0,.007,0,.01l0,.01v0l-.507,3.36a.633.633,0,0,0,1.015.595l2.694-2.092c.173-.134.257-.216.244-.326l1.474-2.516h3.568a.633.633,0,0,0,.633-.633V41.764l4.805-8.2a1.9,1.9,0,0,0-.678-2.6ZM71.5,31.99a.633.633,0,0,1,.706.933l-.32.546-1.092-.64.32-.546a.629.629,0,0,1,.386-.293ZM61.955,50.408l-1.092-.64,8.325-14.207,1.092.64Zm-.432-32.246,2.271,2.271H61.522Zm8.306,16.306.32-.546,1.093.64-.32.546Zm-2.606-15.3v17.1a.637.637,0,0,0,.012.122l-1.279,2.182v-17.5a.632.632,0,0,0-.185-.447h0l-1.452-1.452Zm-24.067-1.9h17.1v3.8a.633.633,0,0,0,.633.633h3.8V40.732l-2.579,4.4H43.155V41.887a2.531,2.531,0,0,0,1.82-1.82.634.634,0,0,0-1.227-.316,1.263,1.263,0,0,1-.593.779V36.187a2.531,2.531,0,0,0,1.82-1.82.634.634,0,0,0-1.227-.316,1.263,1.263,0,0,1-.593.779V29.853a2.531,2.531,0,0,0,1.82-1.82.634.634,0,0,0-1.227-.316,1.263,1.263,0,0,1-.593.779V23.52a2.531,2.531,0,0,0,1.82-1.82.634.634,0,1,0-1.227-.316,1.263,1.263,0,0,1-.593.779Zm-1.9,3.8a1.267,1.267,0,0,1,.633-1.1v2.191A1.267,1.267,0,0,1,41.255,21.067Zm0,6.333a1.267,1.267,0,0,1,.633-1.1V28.5A1.267,1.267,0,0,1,41.255,27.4Zm0,6.333a1.267,1.267,0,0,1,.633-1.1v2.191A1.267,1.267,0,0,1,41.255,33.733Zm0,5.7a1.267,1.267,0,0,1,.633-1.1v2.191A1.267,1.267,0,0,1,41.255,39.433Zm3.167,8.233V46.4H61.367l-.742,1.267Zm16.06,3.347.572.335-.7.547Zm6.74-3.347H65.029l2.193-3.741Z" fill="#fff"/>
  </g>
</svg>
