<svg xmlns="http://www.w3.org/2000/svg" width="571.651" height="387.987" viewBox="0 0 571.651 387.987">
  <g id="Improve_Internal_" data-name="Improve Internal " transform="translate(-64.014 -31.051)">
    <g id="Group_6813" data-name="Group 6813" transform="translate(27.692 31.051)">
      <g id="Group_6713" data-name="Group 6713" transform="translate(98.758 71.874)">
        <path id="Path_8690" data-name="Path 8690" d="M1075.173,541.163H1058.26V503.436c-.262-.149-.522-.3-.782-.45h-5.043v-.019h-29.34v.019h-.024v5.656h.024v3.89h-.024v5.654h.024v3.9h-.024v5.656h.024v.019l-3.109-.019V498.16h-32.92v3.748h-.017v5.654h.017v4.971h-.017v5.654h.017v3.9h-.017v5.656h.017v3.611h-.017v5.656h.017v3.611h-.017v5.656h.017v3.4h-.017v3.592h.017v.392H949.96v32.367H936.1v8.151H921.149V580.146H894.26V541.993h-4.206v-3.8h-.6v3.8h-3.486v-.007h-17.44v-3.794h-.6v3.794h-4.544v19.185l-22.587-.106v11.842H821.645v-73.2H764.911v78.414H747.586v-42.4H690.85V810.041l387.679-1.477Z" transform="translate(-662.41 -493.928)" fill="#d9d9d9"/>
        <path id="Path_8691" data-name="Path 8691" d="M601.136,861.9v222.494h-28.5V861.9Z" transform="translate(-572.64 -770.155)" fill="#9b9b9b"/>
        <rect id="Rectangle_764" data-name="Rectangle 764" width="42.137" height="12.407" transform="translate(117.098 5.784)" fill="#bcbcbc"/>
        <rect id="Rectangle_765" data-name="Rectangle 765" width="42.137" height="12.407" transform="translate(117.098 24.88)" fill="#bcbcbc"/>
        <rect id="Rectangle_766" data-name="Rectangle 766" width="42.137" height="12.407" transform="translate(117.098 44.377)" fill="#bcbcbc"/>
        <rect id="Rectangle_767" data-name="Rectangle 767" width="42.137" height="12.407" transform="translate(117.098 64.183)" fill="#bcbcbc"/>
        <rect id="Rectangle_768" data-name="Rectangle 768" width="42.137" height="12.407" transform="translate(117.098 83.29)" fill="#bcbcbc"/>
        <g id="Group_6708" data-name="Group 6708" transform="translate(324.664 4.232)">
          <rect id="Rectangle_769" data-name="Rectangle 769" width="21.069" height="7.535" fill="#bcbcbc"/>
          <rect id="Rectangle_770" data-name="Rectangle 770" width="21.069" height="7.535" transform="translate(0 11.597)" fill="#bcbcbc"/>
          <rect id="Rectangle_771" data-name="Rectangle 771" width="21.069" height="7.535" transform="translate(0 23.436)" fill="#bcbcbc"/>
          <rect id="Rectangle_772" data-name="Rectangle 772" width="21.069" height="7.535" transform="translate(0 35.463)" fill="#bcbcbc"/>
          <rect id="Rectangle_773" data-name="Rectangle 773" width="21.069" height="7.535" transform="translate(0 47.069)" fill="#bcbcbc"/>
        </g>
        <g id="Group_6709" data-name="Group 6709" transform="translate(324.664 64.074)">
          <rect id="Rectangle_774" data-name="Rectangle 774" width="21.069" height="7.535" fill="#bcbcbc"/>
          <rect id="Rectangle_775" data-name="Rectangle 775" width="21.069" height="7.535" transform="translate(0 11.599)" fill="#bcbcbc"/>
          <rect id="Rectangle_776" data-name="Rectangle 776" width="21.069" height="7.535" transform="translate(0 23.438)" fill="#bcbcbc"/>
          <rect id="Rectangle_777" data-name="Rectangle 777" width="21.069" height="7.535" transform="translate(0 35.466)" fill="#bcbcbc"/>
          <rect id="Rectangle_778" data-name="Rectangle 778" width="21.069" height="7.535" transform="translate(0 47.072)" fill="#bcbcbc"/>
        </g>
        <g id="Group_6710" data-name="Group 6710" transform="translate(360.726 9.171)">
          <rect id="Rectangle_779" data-name="Rectangle 779" width="21.069" height="7.535" fill="#bcbcbc"/>
          <rect id="Rectangle_780" data-name="Rectangle 780" width="21.069" height="7.535" transform="translate(0 11.599)" fill="#bcbcbc"/>
          <rect id="Rectangle_781" data-name="Rectangle 781" width="21.069" height="7.535" transform="translate(0 23.438)" fill="#bcbcbc"/>
          <rect id="Rectangle_782" data-name="Rectangle 782" width="21.069" height="7.535" transform="translate(0 35.466)" fill="#bcbcbc"/>
          <rect id="Rectangle_783" data-name="Rectangle 783" width="21.069" height="7.535" transform="translate(0 47.072)" fill="#bcbcbc"/>
        </g>
        <g id="Group_6711" data-name="Group 6711" transform="translate(360.726 68.342)">
          <rect id="Rectangle_784" data-name="Rectangle 784" width="21.069" height="7.535" fill="#bcbcbc"/>
          <rect id="Rectangle_785" data-name="Rectangle 785" width="21.069" height="7.535" transform="translate(0 11.599)" fill="#bcbcbc"/>
          <rect id="Rectangle_786" data-name="Rectangle 786" width="21.069" height="7.535" transform="translate(0 23.438)" fill="#bcbcbc"/>
          <rect id="Rectangle_787" data-name="Rectangle 787" width="21.069" height="7.535" transform="translate(0 35.466)" fill="#bcbcbc"/>
          <rect id="Rectangle_788" data-name="Rectangle 788" width="21.069" height="7.535" transform="translate(0 47.072)" fill="#bcbcbc"/>
        </g>
        <g id="Group_6712" data-name="Group 6712" transform="translate(360.726 128.724)">
          <rect id="Rectangle_789" data-name="Rectangle 789" width="21.069" height="7.535" fill="#bcbcbc"/>
          <rect id="Rectangle_790" data-name="Rectangle 790" width="21.069" height="7.535" transform="translate(0 11.599)" fill="#bcbcbc"/>
          <rect id="Rectangle_791" data-name="Rectangle 791" width="21.069" height="7.535" transform="translate(0 23.438)" fill="#bcbcbc"/>
          <rect id="Rectangle_792" data-name="Rectangle 792" width="21.069" height="7.535" transform="translate(0 35.466)" fill="#bcbcbc"/>
          <rect id="Rectangle_793" data-name="Rectangle 793" width="21.069" height="7.535" transform="translate(0 47.072)" fill="#bcbcbc"/>
        </g>
        <rect id="Rectangle_794" data-name="Rectangle 794" width="1.044" height="15.374" transform="translate(294.457 44.637)" fill="#dfebfa"/>
        <rect id="Rectangle_795" data-name="Rectangle 795" width="1.626" height="29.771" transform="translate(312.071 31.436)" fill="#dfebfa"/>
        <rect id="Rectangle_796" data-name="Rectangle 796" width="0.678" height="5.483" transform="translate(106.267 0.303)" fill="#dfebfa"/>
        <rect id="Rectangle_797" data-name="Rectangle 797" width="0.678" height="5.483" transform="translate(120.628 0.303)" fill="#dfebfa"/>
        <rect id="Rectangle_798" data-name="Rectangle 798" width="0.678" height="5.483" transform="translate(153.553 0.303)" fill="#dfebfa"/>
        <rect id="Rectangle_799" data-name="Rectangle 799" width="0.522" height="4.232" transform="translate(327.924)" fill="#dfebfa"/>
        <rect id="Rectangle_800" data-name="Rectangle 800" width="0.522" height="4.232" transform="translate(352.637)" fill="#dfebfa"/>
        <rect id="Rectangle_801" data-name="Rectangle 801" width="0.678" height="5.483" transform="translate(140.681 0.303)" fill="#dfebfa"/>
      </g>
      <path id="Path_8692" data-name="Path 8692" d="M1425.456,650.621c-5.758-14.373-30.262-6.8-30.262-6.8s-13.966,27.966-18.841,29.165,7.273-26.241,7.273-26.241c-9.7.2-32.749,14.806-32.749,14.806s5.094,30.125.075,30.084-3.149-26.9-3.149-26.9c-8.95,3.869-16.344,15.706-16.344,15.706-8.76,18.894,15.954,29.167,15.954,29.167s1.54,10.478-3.542,23.3h0a35.991,35.991,0,0,0-2.252,6.357l2.529-.3q.191-1.054.457-2.043a.013.013,0,0,1,0-.012l.007-.029c.128-.411.31-1,.541-1.711v0a0,0,0,0,1,0,0c.6-1.6.986-2.781,1.222-3.628,0,0,0,0,0-.007,1.759-5.019,4.372-11.6,6.443-13.155a4.959,4.959,0,0,1-.676-1.1c.216.349.44.714.676,1.1,5.416,8.769,27.242,7.783,39.012,3.9s6.116-6.672-1.025-11.433-20.575-1.713-24.851-3.407,1.347-4.547,9.46-4.87,13.074,7.247,26.205,6.963,20.169-25.871,20.169-25.871c-8.642,3.833-25.3.768-26.282-2.252s22.866-5.5,26.468-6.862S1431.213,664.994,1425.456,650.621Z" transform="translate(-1048.709 -531.156)" fill="#ccc"/>
      <path id="Path_8693" data-name="Path 8693" d="M2019.17,1453.048c-4.165-19.178-36.39-14.878-36.39-14.878s-23.349,32.014-29.694,32.483,14.618-31.267,14.618-31.267c-12.157-1.8-44.052,11.6-44.052,11.6s.019,38.724-6.246,37.617,1.732-34.289,1.732-34.289c-12,2.95-23.737,16.184-23.737,16.184-14.929,21.771,13.793,39.816,13.793,39.816a51.1,51.1,0,0,1-1.992,11.412q-.249.9-.546,1.847h5.945a6.876,6.876,0,0,1,1.511-1.157,10.63,10.63,0,0,0,.555,1.157h51.277c-.635-.594-1.3-1.208-1.987-1.847-.255-.241-.515-.479-.777-.727-7.923-7.456-25.356-6.474-30.341-9.491s2.644-5.4,12.85-4.095,14.813,11.813,31.287,14.226q.379.058.758.087a13.142,13.142,0,0,0,2.276,0c15.143-1.336,27.627-28.171,27.627-28.171-11.611,2.969-31.784-4.374-32.374-8.353s29.737-2.055,34.527-3S2023.339,1472.225,2019.17,1453.048Zm-105.054,69.367a4.44,4.44,0,0,1-.33-.683,8.571,8.571,0,0,1-.281-.825c.108.27.221.544.332.825C1913.931,1521.956,1914.022,1522.182,1914.116,1522.415Z" transform="translate(-1475.132 -1135.592)" fill="#ccc"/>
      <path id="Path_8694" data-name="Path 8694" d="M324.545,812.62c3.638-13.976,27.2-9.852,27.2-9.852S367.96,827,372.61,827.536s-9.816-23.426-9.816-23.426c8.993-.96,32.044,9.847,32.044,9.847s-1.169,28.472,3.469,27.846-.25-25.264-.25-25.264c8.738,2.526,16.969,12.609,16.969,12.609,10.329,16.452-11.332,28.864-11.332,28.864a46.331,46.331,0,0,0,6.017,21.141h0a33.489,33.489,0,0,1,2.832,5.618l-2.375.024q-.3-.953-.662-1.838a.013.013,0,0,0,0-.01c0-.01-.007-.017-.01-.026-.166-.366-.4-.885-.7-1.518v0a0,0,0,0,0,0,0c-.739-1.412-1.241-2.456-1.557-3.212,0,0,0,0,0-.007-2.218-4.437-5.408-10.216-7.509-11.414a4.592,4.592,0,0,0,.5-1.095c-.159.349-.325.712-.5,1.095-3.979,8.753-24.293,10.405-35.641,8.195s-6.443-5.454-.4-10.7,18.838-4,22.592-6.075-1.783-4.049-9.328-3.392-11.245,8.243-23.429,9.525-21.7-21.567-21.7-21.567c8.447,2.531,23.5-2.266,24.054-5.175s-21.8-2.4-25.3-3.233S320.907,826.6,324.545,812.62Z" transform="translate(-284.633 -652.944)" fill="#ccc" opacity="0.5"/>
      <path id="Path_8695" data-name="Path 8695" d="M728.073,1787.579v.269a.727.727,0,0,1-.641.789H162.8a.73.73,0,0,1-.641-.789v-.269a.73.73,0,0,1,.641-.789H727.432A.727.727,0,0,1,728.073,1787.579Z" transform="translate(-123.359 -1400.651)"/>
      <path id="Path_8696" data-name="Path 8696" d="M880.067,1088.412l-278.939,4.143a4.656,4.656,0,0,1-4.581-3.508l-53.2-209.334a4.654,4.654,0,0,1,4.492-5.8l279.688-1.193a4.653,4.653,0,0,1,4.53,3.508l52.447,206.384A4.65,4.65,0,0,1,880.067,1088.412Z" transform="translate(-451.528 -706.498)" fill="#7e7e7e"/>
      <path id="Path_8697" data-name="Path 8697" d="M899.316,1088.377l-275.7,1.177c-3.024.012-7.285,1.937-8.031-.994L565.748,882.128a6.588,6.588,0,0,1,6.356-8.211l275.7-1.177a6.592,6.592,0,0,1,6.414,4.966l51.45,202.46A6.588,6.588,0,0,1,899.316,1088.377Z" transform="translate(-468.491 -706.513)" fill="#929292"/>
      <path id="Path_8698" data-name="Path 8698" d="M913,1093.183l-105.069.445-44.235.188-120.221.508a3.123,3.123,0,0,1-3.031-2.343L593.7,909.664l-3.922-15.3a3.116,3.116,0,0,1,3.005-3.891l264.253-1.119,5.271-.022a3.117,3.117,0,0,1,3.031,2.343l4.612,17.991,11.921,46.487,10.583,41.276,23.554,91.863A3.119,3.119,0,0,1,913,1093.183Z" transform="translate(-486.819 -719.111)" fill="#f8f8f8"/>
      <path id="Path_8699" data-name="Path 8699" d="M869.947,909.664H593.7l-3.922-15.3a3.116,3.116,0,0,1,3.005-3.891l264.253-1.119,5.271-.022a3.117,3.117,0,0,1,3.031,2.343Z" transform="translate(-486.819 -719.111)" fill="#c4c4c4"/>
      <g id="Group_6714" data-name="Group 6714" transform="translate(36.322 85.282)">
        <path id="Path_8700" data-name="Path 8700" d="M344.616,579.369l-31.486,4.492,20.9-14.241,1.061,4.564,7.658,1.388Z" transform="translate(-313.13 -561.604)" fill="#aaa"/>
        <path id="Path_8701" data-name="Path 8701" d="M313.13,582.091l26.2-13.509,25.681-1.292Z" transform="translate(-313.13 -559.834)" fill="#fff"/>
        <path id="Path_8702" data-name="Path 8702" d="M334.025,544.317l-20.9,14.24L329.3,536.3Z" transform="translate(-313.13 -536.3)" fill="#fff"/>
      </g>
      <g id="Group_6715" data-name="Group 6715" transform="translate(550.447 92.957)">
        <path id="Path_8703" data-name="Path 8703" d="M2538.72,613.249l32.935,4.7-21.855-14.9-1.111,4.776-8.01,1.451Z" transform="translate(-2517.387 -594.665)" fill="#aaafb5"/>
        <path id="Path_8704" data-name="Path 8704" d="M2504.318,616.1l-27.406-14.132-26.862-1.35Z" transform="translate(-2450.05 -592.82)" fill="#fff"/>
        <path id="Path_8705" data-name="Path 8705" d="M2584.77,576.585l21.855,14.9L2589.707,568.2Z" transform="translate(-2552.358 -568.2)" fill="#fff"/>
      </g>
      <g id="Group_6797" data-name="Group 6797" transform="translate(218.907)">
        <g id="Group_6716" data-name="Group 6716" transform="translate(82.287 67.363)">
          <circle id="Ellipse_334" data-name="Ellipse 334" cx="11.609" cy="11.609" r="11.609" fill="#dedede"/>
        </g>
        <g id="Group_6717" data-name="Group 6717" transform="translate(87.376 70.587)">
          <path id="Path_8706" data-name="Path 8706" d="M1446.81,478.947a3.727,3.727,0,1,1,3.727,3.727A3.727,3.727,0,0,1,1446.81,478.947Z" transform="translate(-1444.017 -475.22)" fill="#fff"/>
          <path id="Path_8707" data-name="Path 8707" d="M1441.72,506.2a6.519,6.519,0,0,0-6.52,6.52h13.043A6.523,6.523,0,0,0,1441.72,506.2Z" transform="translate(-1435.2 -498.746)" fill="#fff"/>
        </g>
        <g id="Group_6718" data-name="Group 6718" transform="translate(0 40.013)">
          <circle id="Ellipse_335" data-name="Ellipse 335" cx="7.831" cy="7.831" r="7.831" transform="translate(0 15.653) rotate(-88.092)" fill="#dedede"/>
        </g>
        <g id="Group_6719" data-name="Group 6719" transform="translate(3.688 41.938)">
          <circle id="Ellipse_336" data-name="Ellipse 336" cx="2.514" cy="2.514" r="2.514" transform="translate(1.384 4.894) rotate(-76.714)" fill="#fff"/>
          <path id="Path_8708" data-name="Path 8708" d="M1091.758,379.08a4.4,4.4,0,0,0-4.4,4.4h8.8A4.4,4.4,0,0,0,1091.758,379.08Z" transform="translate(-1087.36 -373.561)" fill="#fff"/>
        </g>
        <g id="Group_6734" data-name="Group 6734" transform="translate(63.9 8.282)">
          <g id="Group_6726" data-name="Group 6726">
            <g id="Group_6722" data-name="Group 6722">
              <g id="Group_6720" data-name="Group 6720">
                <path id="Path_8709" data-name="Path 8709" d="M1337.654,216.737a.682.682,0,1,1,.452.852A.682.682,0,0,1,1337.654,216.737Z" transform="translate(-1337.624 -216.254)" fill="#d5e5fb"/>
                <path id="Path_8710" data-name="Path 8710" d="M1350.184,220.6a.682.682,0,1,1,.452.852A.682.682,0,0,1,1350.184,220.6Z" transform="translate(-1347.14 -219.185)" fill="#d5e5fb"/>
                <path id="Path_8711" data-name="Path 8711" d="M1363.327,225.361a.682.682,0,1,1,.852-.452A.682.682,0,0,1,1363.327,225.361Z" transform="translate(-1356.776 -222.158)" fill="#d5e5fb"/>
              </g>
              <g id="Group_6721" data-name="Group 6721" transform="translate(9.126 2.808)">
                <path id="Path_8712" data-name="Path 8712" d="M1375.584,228.407a.682.682,0,1,1,.453.852A.682.682,0,0,1,1375.584,228.407Z" transform="translate(-1375.554 -227.924)" fill="#d5e5fb"/>
                <path id="Path_8713" data-name="Path 8713" d="M1388.114,232.27a.682.682,0,1,1,.452.852A.684.684,0,0,1,1388.114,232.27Z" transform="translate(-1385.069 -230.858)" fill="#d5e5fb"/>
                <path id="Path_8714" data-name="Path 8714" d="M1401.26,237.028a.682.682,0,1,1,.852-.452A.683.683,0,0,1,1401.26,237.028Z" transform="translate(-1394.709 -233.825)" fill="#d5e5fb"/>
              </g>
            </g>
            <g id="Group_6725" data-name="Group 6725" transform="translate(18.129 5.577)">
              <g id="Group_6723" data-name="Group 6723">
                <path id="Path_8715" data-name="Path 8715" d="M1413,239.917a.682.682,0,1,1,.452.852A.682.682,0,0,1,1413,239.917Z" transform="translate(-1412.974 -239.434)" fill="#d5e5fb"/>
                <path id="Path_8716" data-name="Path 8716" d="M1425.534,243.78a.682.682,0,1,1,.452.852A.684.684,0,0,1,1425.534,243.78Z" transform="translate(-1422.49 -242.368)" fill="#d5e5fb"/>
                <path id="Path_8717" data-name="Path 8717" d="M1438.677,248.538a.682.682,0,1,1,.852-.452A.682.682,0,0,1,1438.677,248.538Z" transform="translate(-1432.126 -245.335)" fill="#d5e5fb"/>
              </g>
              <g id="Group_6724" data-name="Group 6724" transform="translate(9.126 2.808)">
                <path id="Path_8718" data-name="Path 8718" d="M1450.935,251.587a.682.682,0,1,1,.452.852A.682.682,0,0,1,1450.935,251.587Z" transform="translate(-1450.904 -251.104)" fill="#d5e5fb"/>
                <path id="Path_8719" data-name="Path 8719" d="M1463.464,255.447a.682.682,0,1,1,.452.852A.682.682,0,0,1,1463.464,255.447Z" transform="translate(-1460.419 -254.035)" fill="#d5e5fb"/>
                <path id="Path_8720" data-name="Path 8720" d="M1476.607,260.208a.682.682,0,1,1,.852-.452A.682.682,0,0,1,1476.607,260.208Z" transform="translate(-1470.056 -257.005)" fill="#d5e5fb"/>
              </g>
            </g>
          </g>
          <g id="Group_6733" data-name="Group 6733" transform="translate(36.387 11.196)">
            <g id="Group_6729" data-name="Group 6729">
              <g id="Group_6727" data-name="Group 6727">
                <path id="Path_8721" data-name="Path 8721" d="M1488.894,263.269a.682.682,0,1,1,.452.852A.684.684,0,0,1,1488.894,263.269Z" transform="translate(-1488.864 -262.788)" fill="#d5e5fb"/>
                <path id="Path_8722" data-name="Path 8722" d="M1501.425,267.127a.682.682,0,1,1,.452.852A.681.681,0,0,1,1501.425,267.127Z" transform="translate(-1498.379 -265.716)" fill="#d5e5fb"/>
                <path id="Path_8723" data-name="Path 8723" d="M1514.577,271.891a.682.682,0,1,1,.852-.452A.682.682,0,0,1,1514.577,271.891Z" transform="translate(-1508.024 -268.688)" fill="#d5e5fb"/>
              </g>
              <g id="Group_6728" data-name="Group 6728" transform="translate(9.126 2.807)">
                <path id="Path_8724" data-name="Path 8724" d="M1526.824,274.937a.682.682,0,1,1,.452.852A.682.682,0,0,1,1526.824,274.937Z" transform="translate(-1526.794 -274.454)" fill="#d5e5fb"/>
                <path id="Path_8725" data-name="Path 8725" d="M1539.354,278.8a.682.682,0,1,1,.452.852A.684.684,0,0,1,1539.354,278.8Z" transform="translate(-1536.309 -277.388)" fill="#d5e5fb"/>
                <path id="Path_8726" data-name="Path 8726" d="M1552.5,283.558a.682.682,0,1,1,.852-.452A.682.682,0,0,1,1552.5,283.558Z" transform="translate(-1545.946 -280.355)" fill="#d5e5fb"/>
              </g>
            </g>
            <g id="Group_6732" data-name="Group 6732" transform="translate(18.129 5.578)">
              <g id="Group_6730" data-name="Group 6730">
                <path id="Path_8727" data-name="Path 8727" d="M1564.245,286.457a.682.682,0,1,1,.452.852A.682.682,0,0,1,1564.245,286.457Z" transform="translate(-1564.214 -285.974)" fill="#d5e5fb"/>
                <path id="Path_8728" data-name="Path 8728" d="M1576.774,290.309a.682.682,0,1,1,.452.852A.684.684,0,0,1,1576.774,290.309Z" transform="translate(-1573.729 -288.901)" fill="#d5e5fb"/>
                <path id="Path_8729" data-name="Path 8729" d="M1589.927,295.068a.682.682,0,1,1,.852-.452A.682.682,0,0,1,1589.927,295.068Z" transform="translate(-1583.374 -291.867)" fill="#d5e5fb"/>
              </g>
              <g id="Group_6731" data-name="Group 6731" transform="translate(9.126 2.809)">
                <path id="Path_8730" data-name="Path 8730" d="M1602.174,298.129a.682.682,0,1,1,.452.852A.684.684,0,0,1,1602.174,298.129Z" transform="translate(-1602.144 -297.648)" fill="#d5e5fb"/>
                <path id="Path_8731" data-name="Path 8731" d="M1614.7,301.977a.682.682,0,1,1,.452.852A.682.682,0,0,1,1614.7,301.977Z" transform="translate(-1611.66 -300.569)" fill="#d5e5fb"/>
                <path id="Path_8732" data-name="Path 8732" d="M1627.849,306.741a.682.682,0,1,1,.852-.452A.684.684,0,0,1,1627.849,306.741Z" transform="translate(-1621.299 -303.541)" fill="#d5e5fb"/>
              </g>
            </g>
          </g>
        </g>
        <g id="Group_6746" data-name="Group 6746" transform="translate(101.751 22.324)">
          <g id="Group_6738" data-name="Group 6738" transform="translate(0 30.711)">
            <g id="Group_6737" data-name="Group 6737">
              <g id="Group_6735" data-name="Group 6735" transform="translate(0 7.701)">
                <path id="Path_8733" data-name="Path 8733" d="M1495.229,456.812a.682.682,0,1,1,.953-.147A.681.681,0,0,1,1495.229,456.812Z" transform="translate(-1494.95 -450.456)" fill="#d5e5fb"/>
                <path id="Path_8734" data-name="Path 8734" d="M1502.979,446.232a.682.682,0,1,1,.953-.147A.681.681,0,0,1,1502.979,446.232Z" transform="translate(-1500.835 -442.421)" fill="#d5e5fb"/>
                <path id="Path_8735" data-name="Path 8735" d="M1511.782,435.365a.682.682,0,1,1-.147-.953A.681.681,0,0,1,1511.782,435.365Z" transform="translate(-1506.797 -434.28)" fill="#d5e5fb"/>
              </g>
              <g id="Group_6736" data-name="Group 6736" transform="translate(5.642)">
                <path id="Path_8736" data-name="Path 8736" d="M1518.679,424.8a.682.682,0,1,1,.952-.147A.681.681,0,0,1,1518.679,424.8Z" transform="translate(-1518.4 -418.445)" fill="#d5e5fb"/>
                <path id="Path_8737" data-name="Path 8737" d="M1526.429,414.222a.682.682,0,1,1,.953-.147A.681.681,0,0,1,1526.429,414.222Z" transform="translate(-1524.285 -410.411)" fill="#d5e5fb"/>
                <path id="Path_8738" data-name="Path 8738" d="M1535.232,403.355a.682.682,0,1,1-.147-.953A.681.681,0,0,1,1535.232,403.355Z" transform="translate(-1530.247 -402.27)" fill="#d5e5fb"/>
              </g>
            </g>
          </g>
          <g id="Group_6745" data-name="Group 6745" transform="translate(11.289)">
            <g id="Group_6741" data-name="Group 6741" transform="translate(0 15.302)">
              <g id="Group_6739" data-name="Group 6739" transform="translate(0 7.701)">
                <path id="Path_8739" data-name="Path 8739" d="M1542.149,392.762a.682.682,0,1,1,.953-.147A.681.681,0,0,1,1542.149,392.762Z" transform="translate(-1541.87 -386.405)" fill="#d5e5fb"/>
                <path id="Path_8740" data-name="Path 8740" d="M1549.9,382.182a.682.682,0,1,1,.953-.147A.681.681,0,0,1,1549.9,382.182Z" transform="translate(-1547.755 -378.371)" fill="#d5e5fb"/>
                <path id="Path_8741" data-name="Path 8741" d="M1558.7,371.315a.682.682,0,1,1-.146-.953A.681.681,0,0,1,1558.7,371.315Z" transform="translate(-1553.717 -370.23)" fill="#d5e5fb"/>
              </g>
              <g id="Group_6740" data-name="Group 6740" transform="translate(5.642)">
                <path id="Path_8742" data-name="Path 8742" d="M1565.6,360.742a.682.682,0,1,1,.953-.147A.681.681,0,0,1,1565.6,360.742Z" transform="translate(-1565.32 -354.388)" fill="#d5e5fb"/>
                <path id="Path_8743" data-name="Path 8743" d="M1573.349,350.172a.682.682,0,1,1,.953-.147A.681.681,0,0,1,1573.349,350.172Z" transform="translate(-1571.205 -346.361)" fill="#d5e5fb"/>
                <path id="Path_8744" data-name="Path 8744" d="M1582.152,339.305a.682.682,0,1,1-.147-.953A.681.681,0,0,1,1582.152,339.305Z" transform="translate(-1577.167 -338.22)" fill="#d5e5fb"/>
              </g>
            </g>
            <g id="Group_6744" data-name="Group 6744" transform="translate(11.209)">
              <g id="Group_6742" data-name="Group 6742" transform="translate(0 7.701)">
                <path id="Path_8745" data-name="Path 8745" d="M1588.739,329.162a.682.682,0,1,1,.953-.147A.681.681,0,0,1,1588.739,329.162Z" transform="translate(-1588.46 -322.805)" fill="#d5e5fb"/>
                <path id="Path_8746" data-name="Path 8746" d="M1596.489,318.582a.682.682,0,1,1,.953-.147A.681.681,0,0,1,1596.489,318.582Z" transform="translate(-1594.346 -314.771)" fill="#d5e5fb"/>
                <path id="Path_8747" data-name="Path 8747" d="M1605.292,307.715a.681.681,0,1,1-.146-.953A.681.681,0,0,1,1605.292,307.715Z" transform="translate(-1600.307 -306.63)" fill="#d5e5fb"/>
              </g>
              <g id="Group_6743" data-name="Group 6743" transform="translate(5.642)">
                <path id="Path_8748" data-name="Path 8748" d="M1612.189,297.152a.682.682,0,1,1,.953-.147A.681.681,0,0,1,1612.189,297.152Z" transform="translate(-1611.91 -290.795)" fill="#d5e5fb"/>
                <path id="Path_8749" data-name="Path 8749" d="M1619.939,286.572a.682.682,0,1,1,.953-.147A.681.681,0,0,1,1619.939,286.572Z" transform="translate(-1617.795 -282.761)" fill="#d5e5fb"/>
                <path id="Path_8750" data-name="Path 8750" d="M1628.742,275.705a.682.682,0,1,1-.147-.953A.681.681,0,0,1,1628.742,275.705Z" transform="translate(-1623.757 -274.62)" fill="#d5e5fb"/>
              </g>
            </g>
          </g>
        </g>
        <g id="Group_6758" data-name="Group 6758" transform="translate(107.663 68.256)">
          <g id="Group_6750" data-name="Group 6750" transform="translate(0 6.159)">
            <g id="Group_6749" data-name="Group 6749">
              <g id="Group_6747" data-name="Group 6747" transform="translate(0 1.545)">
                <path id="Path_8751" data-name="Path 8751" d="M1519.532,502.614a.681.681,0,1,1,.782.563A.681.681,0,0,1,1519.532,502.614Z" transform="translate(-1519.523 -500.795)" fill="#d5e5fb"/>
                <path id="Path_8752" data-name="Path 8752" d="M1532.472,500.494a.681.681,0,1,1,.782.563A.681.681,0,0,1,1532.472,500.494Z" transform="translate(-1529.35 -499.186)" fill="#d5e5fb"/>
                <path id="Path_8753" data-name="Path 8753" d="M1546.374,498.907a.681.681,0,1,1,.563-.782A.681.681,0,0,1,1546.374,498.907Z" transform="translate(-1539.313 -497.553)" fill="#d5e5fb"/>
              </g>
              <g id="Group_6748" data-name="Group 6748" transform="translate(9.422)">
                <path id="Path_8754" data-name="Path 8754" d="M1558.692,496.194a.681.681,0,1,1,.782.563A.681.681,0,0,1,1558.692,496.194Z" transform="translate(-1558.683 -494.376)" fill="#d5e5fb"/>
                <path id="Path_8755" data-name="Path 8755" d="M1571.632,494.074a.681.681,0,1,1,.782.563A.681.681,0,0,1,1571.632,494.074Z" transform="translate(-1568.51 -492.766)" fill="#d5e5fb"/>
                <path id="Path_8756" data-name="Path 8756" d="M1585.534,492.487a.681.681,0,1,1,.563-.782A.681.681,0,0,1,1585.534,492.487Z" transform="translate(-1578.473 -491.133)" fill="#d5e5fb"/>
              </g>
            </g>
          </g>
          <g id="Group_6757" data-name="Group 6757" transform="translate(18.853)">
            <g id="Group_6753" data-name="Group 6753" transform="translate(0 3.068)">
              <g id="Group_6751" data-name="Group 6751" transform="translate(0 1.545)">
                <path id="Path_8757" data-name="Path 8757" d="M1597.892,489.764a.681.681,0,1,1,.782.563A.681.681,0,0,1,1597.892,489.764Z" transform="translate(-1597.883 -487.946)" fill="#d5e5fb"/>
                <path id="Path_8758" data-name="Path 8758" d="M1610.832,487.644a.681.681,0,1,1,.782.563A.681.681,0,0,1,1610.832,487.644Z" transform="translate(-1607.709 -486.336)" fill="#d5e5fb"/>
                <path id="Path_8759" data-name="Path 8759" d="M1624.724,486.057a.681.681,0,1,1,.563-.782A.68.68,0,0,1,1624.724,486.057Z" transform="translate(-1617.666 -484.703)" fill="#d5e5fb"/>
              </g>
              <g id="Group_6752" data-name="Group 6752" transform="translate(9.422)">
                <path id="Path_8760" data-name="Path 8760" d="M1637.052,483.344a.681.681,0,1,1,.782.563A.68.68,0,0,1,1637.052,483.344Z" transform="translate(-1637.043 -481.526)" fill="#d5e5fb"/>
                <path id="Path_8761" data-name="Path 8761" d="M1649.992,481.224a.681.681,0,1,1,.782.563A.681.681,0,0,1,1649.992,481.224Z" transform="translate(-1646.87 -479.916)" fill="#d5e5fb"/>
                <path id="Path_8762" data-name="Path 8762" d="M1663.884,479.637a.681.681,0,1,1,.563-.782A.681.681,0,0,1,1663.884,479.637Z" transform="translate(-1656.826 -478.283)" fill="#d5e5fb"/>
              </g>
            </g>
            <g id="Group_6756" data-name="Group 6756" transform="translate(18.718)">
              <g id="Group_6754" data-name="Group 6754" transform="translate(0 1.545)">
                <path id="Path_8763" data-name="Path 8763" d="M1675.692,477.014a.681.681,0,1,1,.782.563A.68.68,0,0,1,1675.692,477.014Z" transform="translate(-1675.683 -475.196)" fill="#d5e5fb"/>
                <path id="Path_8764" data-name="Path 8764" d="M1688.632,474.894a.681.681,0,1,1,.782.563A.681.681,0,0,1,1688.632,474.894Z" transform="translate(-1685.509 -473.586)" fill="#d5e5fb"/>
                <path id="Path_8765" data-name="Path 8765" d="M1702.524,473.307a.681.681,0,1,1,.563-.782A.681.681,0,0,1,1702.524,473.307Z" transform="translate(-1695.465 -471.953)" fill="#d5e5fb"/>
              </g>
              <g id="Group_6755" data-name="Group 6755" transform="translate(9.422)">
                <path id="Path_8766" data-name="Path 8766" d="M1714.852,470.594a.681.681,0,1,1,.782.563A.681.681,0,0,1,1714.852,470.594Z" transform="translate(-1714.843 -468.776)" fill="#d5e5fb"/>
                <path id="Path_8767" data-name="Path 8767" d="M1727.792,468.474a.681.681,0,1,1,.782.563A.681.681,0,0,1,1727.792,468.474Z" transform="translate(-1724.67 -467.166)" fill="#d5e5fb"/>
                <path id="Path_8768" data-name="Path 8768" d="M1741.684,466.887a.681.681,0,1,1,.563-.782A.681.681,0,0,1,1741.684,466.887Z" transform="translate(-1734.625 -465.533)" fill="#d5e5fb"/>
              </g>
            </g>
          </g>
        </g>
        <g id="Group_6770" data-name="Group 6770" transform="translate(72.429 12.604)">
          <g id="Group_6762" data-name="Group 6762" transform="translate(11.592 36.262)">
            <g id="Group_6761" data-name="Group 6761">
              <g id="Group_6759" data-name="Group 6759" transform="translate(2.91 9.094)">
                <path id="Path_8769" data-name="Path 8769" d="M1442.273,449.219a.682.682,0,1,1,.443-.856A.681.681,0,0,1,1442.273,449.219Z" transform="translate(-1439.45 -441.837)" fill="#d5e5fb"/>
                <path id="Path_8770" data-name="Path 8770" d="M1438.283,436.726a.682.682,0,1,1,.443-.857A.68.68,0,0,1,1438.283,436.726Z" transform="translate(-1436.42 -432.349)" fill="#d5e5fb"/>
                <path id="Path_8771" data-name="Path 8771" d="M1434.678,423.212a.682.682,0,1,1-.856-.443A.68.68,0,0,1,1434.678,423.212Z" transform="translate(-1433.347 -422.738)" fill="#d5e5fb"/>
              </g>
              <g id="Group_6760" data-name="Group 6760">
                <path id="Path_8772" data-name="Path 8772" d="M1430.183,411.419a.682.682,0,1,1,.443-.857A.681.681,0,0,1,1430.183,411.419Z" transform="translate(-1427.359 -404.037)" fill="#d5e5fb"/>
                <path id="Path_8773" data-name="Path 8773" d="M1426.193,398.926a.682.682,0,1,1,.443-.856A.68.68,0,0,1,1426.193,398.926Z" transform="translate(-1424.33 -394.549)" fill="#d5e5fb"/>
                <path id="Path_8774" data-name="Path 8774" d="M1422.586,385.412a.682.682,0,1,1-.857-.443A.681.681,0,0,1,1422.586,385.412Z" transform="translate(-1421.254 -384.938)" fill="#d5e5fb"/>
              </g>
            </g>
          </g>
          <g id="Group_6769" data-name="Group 6769">
            <g id="Group_6765" data-name="Group 6765" transform="translate(5.774 18.066)">
              <g id="Group_6763" data-name="Group 6763" transform="translate(2.909 9.094)">
                <path id="Path_8775" data-name="Path 8775" d="M1418.093,373.586a.682.682,0,1,1,.443-.857A.681.681,0,0,1,1418.093,373.586Z" transform="translate(-1415.269 -366.204)" fill="#d5e5fb"/>
                <path id="Path_8776" data-name="Path 8776" d="M1414.1,361.1a.682.682,0,1,1,.443-.857A.682.682,0,0,1,1414.1,361.1Z" transform="translate(-1412.239 -356.719)" fill="#d5e5fb"/>
                <path id="Path_8777" data-name="Path 8777" d="M1410.5,347.582a.682.682,0,1,1-.857-.443A.681.681,0,0,1,1410.5,347.582Z" transform="translate(-1409.164 -347.108)" fill="#d5e5fb"/>
              </g>
              <g id="Group_6764" data-name="Group 6764">
                <path id="Path_8778" data-name="Path 8778" d="M1406.013,335.786a.682.682,0,1,1,.442-.857A.681.681,0,0,1,1406.013,335.786Z" transform="translate(-1403.187 -328.404)" fill="#d5e5fb"/>
                <path id="Path_8779" data-name="Path 8779" d="M1402.013,323.3a.682.682,0,1,1,.443-.856A.682.682,0,0,1,1402.013,323.3Z" transform="translate(-1400.149 -318.919)" fill="#d5e5fb"/>
                <path id="Path_8780" data-name="Path 8780" d="M1398.406,309.782a.682.682,0,1,1-.856-.443A.68.68,0,0,1,1398.406,309.782Z" transform="translate(-1397.074 -309.307)" fill="#d5e5fb"/>
              </g>
            </g>
            <g id="Group_6768" data-name="Group 6768">
              <g id="Group_6766" data-name="Group 6766" transform="translate(2.906 9.094)">
                <path id="Path_8781" data-name="Path 8781" d="M1394.083,298.5a.682.682,0,1,1,.443-.857A.68.68,0,0,1,1394.083,298.5Z" transform="translate(-1391.259 -291.114)" fill="#d5e5fb"/>
                <path id="Path_8782" data-name="Path 8782" d="M1390.093,286.006a.682.682,0,1,1,.443-.856A.681.681,0,0,1,1390.093,286.006Z" transform="translate(-1388.229 -281.629)" fill="#d5e5fb"/>
                <path id="Path_8783" data-name="Path 8783" d="M1386.486,272.492a.682.682,0,1,1-.857-.443A.68.68,0,0,1,1386.486,272.492Z" transform="translate(-1385.154 -272.018)" fill="#d5e5fb"/>
              </g>
              <g id="Group_6767" data-name="Group 6767">
                <path id="Path_8784" data-name="Path 8784" d="M1382,260.7a.682.682,0,1,1,.442-.856A.681.681,0,0,1,1382,260.7Z" transform="translate(-1379.179 -253.314)" fill="#d5e5fb"/>
                <path id="Path_8785" data-name="Path 8785" d="M1378.013,248.206a.682.682,0,1,1,.442-.857A.681.681,0,0,1,1378.013,248.206Z" transform="translate(-1376.149 -243.829)" fill="#d5e5fb"/>
                <path id="Path_8786" data-name="Path 8786" d="M1374.406,234.692a.682.682,0,1,1-.856-.443A.681.681,0,0,1,1374.406,234.692Z" transform="translate(-1373.074 -234.218)" fill="#d5e5fb"/>
              </g>
            </g>
          </g>
        </g>
        <g id="Group_6782" data-name="Group 6782" transform="translate(12.327 12.536)">
          <g id="Group_6774" data-name="Group 6774" transform="translate(0 21.627)">
            <g id="Group_6773" data-name="Group 6773">
              <g id="Group_6771" data-name="Group 6771" transform="translate(0 5.423)">
                <path id="Path_8787" data-name="Path 8787" d="M1123.388,362.425a.681.681,0,1,1,.948.173A.68.68,0,0,1,1123.388,362.425Z" transform="translate(-1123.266 -357.75)" fill="#d5e5fb"/>
                <path id="Path_8788" data-name="Path 8788" d="M1134.177,354.985a.681.681,0,1,1,.948.173A.68.68,0,0,1,1134.177,354.985Z" transform="translate(-1131.46 -352.1)" fill="#d5e5fb"/>
                <path id="Path_8789" data-name="Path 8789" d="M1146.065,347.609a.681.681,0,1,1,.173-.948A.681.681,0,0,1,1146.065,347.609Z" transform="translate(-1139.768 -346.366)" fill="#d5e5fb"/>
              </g>
              <g id="Group_6772" data-name="Group 6772" transform="translate(7.858)">
                <path id="Path_8790" data-name="Path 8790" d="M1156.047,339.885a.682.682,0,1,1,.948.173A.681.681,0,0,1,1156.047,339.885Z" transform="translate(-1155.926 -335.21)" fill="#d5e5fb"/>
                <path id="Path_8791" data-name="Path 8791" d="M1166.838,332.435a.681.681,0,1,1,.948.173A.68.68,0,0,1,1166.838,332.435Z" transform="translate(-1164.12 -329.552)" fill="#d5e5fb"/>
                <path id="Path_8792" data-name="Path 8792" d="M1178.725,325.069a.681.681,0,1,1,.173-.948A.68.68,0,0,1,1178.725,325.069Z" transform="translate(-1172.429 -323.826)" fill="#d5e5fb"/>
              </g>
            </g>
          </g>
          <g id="Group_6781" data-name="Group 6781" transform="translate(15.723)">
            <g id="Group_6777" data-name="Group 6777" transform="translate(0 10.774)">
              <g id="Group_6775" data-name="Group 6775" transform="translate(0 5.425)">
                <path id="Path_8793" data-name="Path 8793" d="M1188.738,317.325a.681.681,0,1,1,.948.173A.681.681,0,0,1,1188.738,317.325Z" transform="translate(-1188.616 -312.65)" fill="#d5e5fb"/>
                <path id="Path_8794" data-name="Path 8794" d="M1199.528,309.875a.681.681,0,1,1,.948.173A.681.681,0,0,1,1199.528,309.875Z" transform="translate(-1196.81 -306.992)" fill="#d5e5fb"/>
                <path id="Path_8795" data-name="Path 8795" d="M1211.415,302.509a.681.681,0,1,1,.173-.948A.68.68,0,0,1,1211.415,302.509Z" transform="translate(-1205.118 -301.266)" fill="#d5e5fb"/>
              </g>
              <g id="Group_6776" data-name="Group 6776" transform="translate(7.858)">
                <path id="Path_8796" data-name="Path 8796" d="M1221.4,294.786a.681.681,0,1,1,.948.173A.68.68,0,0,1,1221.4,294.786Z" transform="translate(-1221.276 -290.107)" fill="#d5e5fb"/>
                <path id="Path_8797" data-name="Path 8797" d="M1232.188,287.335a.681.681,0,1,1,.948.173A.68.68,0,0,1,1232.188,287.335Z" transform="translate(-1229.47 -284.45)" fill="#d5e5fb"/>
                <path id="Path_8798" data-name="Path 8798" d="M1244.076,279.959a.681.681,0,1,1,.173-.948A.681.681,0,0,1,1244.076,279.959Z" transform="translate(-1237.779 -278.716)" fill="#d5e5fb"/>
              </g>
            </g>
            <g id="Group_6780" data-name="Group 6780" transform="translate(15.61)">
              <g id="Group_6778" data-name="Group 6778" transform="translate(0 5.423)">
                <path id="Path_8799" data-name="Path 8799" d="M1253.618,272.545a.681.681,0,1,1,.948.173A.68.68,0,0,1,1253.618,272.545Z" transform="translate(-1253.496 -267.868)" fill="#d5e5fb"/>
                <path id="Path_8800" data-name="Path 8800" d="M1264.407,265.1a.681.681,0,1,1,.948.173A.68.68,0,0,1,1264.407,265.1Z" transform="translate(-1261.69 -262.21)" fill="#d5e5fb"/>
                <path id="Path_8801" data-name="Path 8801" d="M1276.3,257.719a.681.681,0,1,1,.173-.948A.68.68,0,0,1,1276.3,257.719Z" transform="translate(-1269.998 -256.476)" fill="#d5e5fb"/>
              </g>
              <g id="Group_6779" data-name="Group 6779" transform="translate(7.858)">
                <path id="Path_8802" data-name="Path 8802" d="M1286.277,250.005a.681.681,0,1,1,.948.173A.68.68,0,0,1,1286.277,250.005Z" transform="translate(-1286.156 -245.328)" fill="#d5e5fb"/>
                <path id="Path_8803" data-name="Path 8803" d="M1297.067,242.555a.681.681,0,1,1,.948.173A.68.68,0,0,1,1297.067,242.555Z" transform="translate(-1294.35 -239.67)" fill="#d5e5fb"/>
                <path id="Path_8804" data-name="Path 8804" d="M1308.956,235.179a.681.681,0,1,1,.173-.948A.681.681,0,0,1,1308.956,235.179Z" transform="translate(-1302.659 -233.936)" fill="#d5e5fb"/>
              </g>
            </g>
          </g>
        </g>
        <g id="Group_6791" data-name="Group 6791" transform="translate(142.591 34.75)">
          <g id="Group_6786" data-name="Group 6786">
            <g id="Group_6785" data-name="Group 6785">
              <g id="Group_6783" data-name="Group 6783">
                <path id="Path_8805" data-name="Path 8805" d="M1664.909,326.454a.682.682,0,1,1-.022.965A.683.683,0,0,1,1664.909,326.454Z" transform="translate(-1664.699 -326.266)" fill="#d5e5fb"/>
                <path id="Path_8806" data-name="Path 8806" d="M1673.986,335.924a.682.682,0,1,1-.021.965A.683.683,0,0,1,1673.986,335.924Z" transform="translate(-1671.592 -333.457)" fill="#d5e5fb"/>
                <path id="Path_8807" data-name="Path 8807" d="M1683.154,346.479a.682.682,0,1,1,.965.022A.684.684,0,0,1,1683.154,346.479Z" transform="translate(-1678.571 -340.74)" fill="#d5e5fb"/>
              </g>
              <g id="Group_6784" data-name="Group 6784" transform="translate(6.606 6.895)">
                <path id="Path_8808" data-name="Path 8808" d="M1692.366,355.114a.682.682,0,1,1-.022.965A.683.683,0,0,1,1692.366,355.114Z" transform="translate(-1692.155 -354.926)" fill="#d5e5fb"/>
                <path id="Path_8809" data-name="Path 8809" d="M1701.436,364.574a.683.683,0,1,1-.021.965A.684.684,0,0,1,1701.436,364.574Z" transform="translate(-1699.043 -362.11)" fill="#d5e5fb"/>
                <path id="Path_8810" data-name="Path 8810" d="M1710.614,375.129a.682.682,0,1,1,.965.022A.683.683,0,0,1,1710.614,375.129Z" transform="translate(-1706.03 -369.392)" fill="#d5e5fb"/>
              </g>
            </g>
          </g>
          <g id="Group_6790" data-name="Group 6790" transform="translate(13.217 13.793)">
            <g id="Group_6789" data-name="Group 6789">
              <g id="Group_6787" data-name="Group 6787">
                <path id="Path_8811" data-name="Path 8811" d="M1719.847,383.784a.683.683,0,1,1-.019.965A.683.683,0,0,1,1719.847,383.784Z" transform="translate(-1719.637 -383.596)" fill="#d5e5fb"/>
                <path id="Path_8812" data-name="Path 8812" d="M1728.916,393.254a.682.682,0,1,1-.021.965A.683.683,0,0,1,1728.916,393.254Z" transform="translate(-1726.524 -390.787)" fill="#d5e5fb"/>
                <path id="Path_8813" data-name="Path 8813" d="M1738.084,403.809a.682.682,0,1,1,.965.022A.683.683,0,0,1,1738.084,403.809Z" transform="translate(-1733.502 -398.07)" fill="#d5e5fb"/>
              </g>
              <g id="Group_6788" data-name="Group 6788" transform="translate(6.604 6.895)">
                <path id="Path_8814" data-name="Path 8814" d="M1747.3,412.444a.682.682,0,1,1-.022.965A.683.683,0,0,1,1747.3,412.444Z" transform="translate(-1747.085 -412.256)" fill="#d5e5fb"/>
                <path id="Path_8815" data-name="Path 8815" d="M1756.366,421.914a.682.682,0,1,1-.021.965A.683.683,0,0,1,1756.366,421.914Z" transform="translate(-1753.973 -419.447)" fill="#d5e5fb"/>
                <path id="Path_8816" data-name="Path 8816" d="M1765.544,432.469a.683.683,0,1,1,.965.022A.684.684,0,0,1,1765.544,432.469Z" transform="translate(-1760.96 -426.73)" fill="#d5e5fb"/>
              </g>
            </g>
          </g>
        </g>
        <g id="Group_6792" data-name="Group 6792" transform="translate(59.799)">
          <circle id="Ellipse_337" data-name="Ellipse 337" cx="9.648" cy="9.648" r="9.648" fill="#dedede"/>
        </g>
        <g id="Group_6793" data-name="Group 6793" transform="translate(64.026 2.68)">
          <path id="Path_8817" data-name="Path 8817" d="M1347.81,196.066a3.1,3.1,0,1,1,3.1,3.1A3.1,3.1,0,0,1,1347.81,196.066Z" transform="translate(-1345.486 -192.97)" fill="#fff"/>
          <path id="Path_8818" data-name="Path 8818" d="M1343.57,218.71a5.42,5.42,0,0,0-5.42,5.421h10.839A5.418,5.418,0,0,0,1343.57,218.71Z" transform="translate(-1338.15 -212.517)" fill="#fff"/>
        </g>
        <g id="Group_6794" data-name="Group 6794" transform="translate(121.429 11.799)">
          <circle id="Ellipse_338" data-name="Ellipse 338" cx="14.869" cy="14.869" r="14.869" fill="#dedede"/>
        </g>
        <g id="Group_6795" data-name="Group 6795" transform="translate(127.946 15.932)">
          <circle id="Ellipse_339" data-name="Ellipse 339" cx="4.771" cy="4.771" r="4.771" transform="translate(3.58)" fill="#fff"/>
          <path id="Path_8819" data-name="Path 8819" d="M1612.181,287.71a8.351,8.351,0,0,0-8.351,8.351h16.7A8.351,8.351,0,0,0,1612.181,287.71Z" transform="translate(-1603.83 -278.168)" fill="#fff"/>
        </g>
        <path id="Path_8820" data-name="Path 8820" d="M1751.53,430.328a10.038,10.038,0,1,1,10.037,10.037A10.038,10.038,0,0,1,1751.53,430.328Z" transform="translate(-1588.048 -362.919)" fill="#dedede"/>
        <g id="Group_6796" data-name="Group 6796" transform="translate(169.205 60.201)">
          <path id="Path_8821" data-name="Path 8821" d="M1780.82,441.645a1.585,1.585,0,0,0-.079-.544,1.156,1.156,0,0,0-.279-.431,2.165,2.165,0,0,0-.5-.359,5.883,5.883,0,0,0-.758-.327,14.779,14.779,0,0,1-1.4-.589,4.741,4.741,0,0,1-1.073-.7,2.793,2.793,0,0,1-.686-.919,3.117,3.117,0,0,1,.007-2.377,2.632,2.632,0,0,1,.645-.885,3.307,3.307,0,0,1,.991-.606,4.41,4.41,0,0,1,1.287-.286l.021-1.569,1.263.019-.024,1.59a3.877,3.877,0,0,1,1.227.378,3.031,3.031,0,0,1,.928.717,3.067,3.067,0,0,1,.582,1.032,3.9,3.9,0,0,1,.19,1.326l-2.281-.034a1.929,1.929,0,0,0-.371-1.323,1.345,1.345,0,0,0-1.039-.452,1.7,1.7,0,0,0-.613.091,1.131,1.131,0,0,0-.426.265,1.062,1.062,0,0,0-.251.4,1.569,1.569,0,0,0-.087.505,1.472,1.472,0,0,0,.072.493,1.065,1.065,0,0,0,.267.411,2.131,2.131,0,0,0,.507.358,7.424,7.424,0,0,0,.789.354q.762.3,1.385.606a4.708,4.708,0,0,1,1.068.71,2.677,2.677,0,0,1,.917,2.161,2.875,2.875,0,0,1-.241,1.155,2.571,2.571,0,0,1-.649.878,3.174,3.174,0,0,1-1,.587,4.667,4.667,0,0,1-1.295.274l-.022,1.46L1778.64,446l.022-1.453a5.264,5.264,0,0,1-1.263-.306,3.34,3.34,0,0,1-1.075-.65,2.992,2.992,0,0,1-.743-1.056,3.648,3.648,0,0,1-.262-1.516l2.281.034a2.258,2.258,0,0,0,.133.871,1.462,1.462,0,0,0,.382.563,1.4,1.4,0,0,0,.554.3,2.36,2.36,0,0,0,.635.094,1.936,1.936,0,0,0,.652-.087,1.332,1.332,0,0,0,.474-.258,1.119,1.119,0,0,0,.292-.395A1.272,1.272,0,0,0,1780.82,441.645Z" transform="translate(-1775.317 -432.05)" fill="#fff"/>
        </g>
      </g>
      <g id="Group_6800" data-name="Group 6800" transform="translate(180.293 128.115)">
        <path id="Path_8848" data-name="Path 8848" d="M1375.531,901.488s-43.121-14.962-135.015,2.923c-28.431,5.534-64,16.731-102.343,26.224L1115.5,851.351c.209-.053.43-.111.661-.171,11.592-2.986,50.382-13.776,95.327-30.5,40.576-15.095,86.394-34.758,120.1-72.861l32.557,113.841Z" transform="translate(-1066.427 -739.763)" fill="#aeaeae"/>
        <path id="Path_8849" data-name="Path 8849" d="M1366.23,861.661c-14.527-3.443-57.6-10.372-132.007,4.011-28.955,5.6-65.165,17.01-104.208,26.655L1118.25,851.18c11.591-2.986,50.382-13.776,95.327-30.5,40.576-15.095,86.394-34.758,120.1-72.861Z" transform="translate(-1068.516 -739.763)" fill="#f3f3f3"/>
        <path id="Path_8850" data-name="Path 8850" d="M2056.959,881.369h0a2.478,2.478,0,0,1-3.063-1.7L2007.518,717.49a2.477,2.477,0,0,1,1.7-3.063h0a2.478,2.478,0,0,1,3.063,1.7l46.379,162.178A2.474,2.474,0,0,1,2056.959,881.369Z" transform="translate(-1743.76 -714.332)" fill="#9e9b99"/>
        <path id="Path_8851" data-name="Path 8851" d="M936.823,1270.943l46.567-13.317-22.7-79.366-46.567,13.317a3.589,3.589,0,0,0-2.456,4.422l20.729,72.488A3.589,3.589,0,0,0,936.823,1270.943Z" transform="translate(-911.532 -1066.643)" fill="#888"/>
        <path id="Path_8852" data-name="Path 8852" d="M1346.528,1512.591l-41.353.175-20.633-43.693-7.622-16.151.014,0,37.713-11.907.681,1.53,7,15.725Z" transform="translate(-1189.011 -1266.177)" fill="#888"/>
        <path id="Path_8853" data-name="Path 8853" d="M1370.586,1567.055l-41.353.176-20.634-43.694,37.79-10.807Z" transform="translate(-1213.069 -1320.642)" fill="#9b9b9b"/>
      </g>
      <g id="Group_6801" data-name="Group 6801" transform="translate(486.602 145.516)">
        <path id="Path_8854" data-name="Path 8854" d="M2229.281,787.635h0a2.687,2.687,0,0,1-.373,3.772l-39.847,32.672a2.688,2.688,0,0,1-3.773-.373h0a2.687,2.687,0,0,1,.373-3.772l39.846-32.672A2.69,2.69,0,0,1,2229.281,787.635Z" transform="translate(-2184.684 -786.658)" fill="#5d5d5d"/>
        <path id="Path_8855" data-name="Path 8855" d="M2289.094,1113.985h0a2.687,2.687,0,0,1-2.933,2.4l-51.28-5.074a2.688,2.688,0,0,1-2.4-2.933h0a2.687,2.687,0,0,1,2.933-2.4l51.279,5.074A2.691,2.691,0,0,1,2289.094,1113.985Z" transform="translate(-2220.969 -1029.142)" fill="#5d5d5d"/>
        <path id="Path_8856" data-name="Path 8856" d="M2299.962,956.351h0a2.69,2.69,0,0,1-2.158,3.118l-71.852,13.069a2.69,2.69,0,0,1-3.118-2.158h0a2.69,2.69,0,0,1,2.158-3.118l71.853-13.069A2.689,2.689,0,0,1,2299.962,956.351Z" transform="translate(-2213.621 -913.852)" fill="#5d5d5d"/>
      </g>
      <g id="Group_6802" data-name="Group 6802" transform="translate(334.509 199.164)">
        <path id="Path_8857" data-name="Path 8857" d="M1634.21,1719.746a15.182,15.182,0,0,1,.4-3.715c.4-.926,1.855-4.7,1.855-4.7h5.695a35.1,35.1,0,0,1,1.126,4.569c.067,1.126,0,3.847,0,3.847Z" transform="translate(-1614.556 -1542.51)" fill="#5d5d5d"/>
        <path id="Path_8858" data-name="Path 8858" d="M1755.788,1719.746a15.173,15.173,0,0,0-.4-3.715c-.4-.926-1.855-4.7-1.855-4.7h-5.7a34.74,34.74,0,0,0-1.126,4.569c-.067,1.126,0,3.847,0,3.847Z" transform="translate(-1699.971 -1542.51)" fill="#5d5d5d"/>
        <path id="Path_8859" data-name="Path 8859" d="M1666.685,1085.589s-.2,6.21-1,8.991l-6.289,4.388,23.677,3.544-5.647-7.8s-1.706-8.324-.811-11.4S1666.685,1085.589,1666.685,1085.589Z" transform="translate(-1633.686 -1064.858)" fill="#ffb27d"/>
        <path id="Path_8860" data-name="Path 8860" d="M1689.53,1099.37s1.871,4.506,5.4,4.408,4.33-4.088,4.33-4.088Z" transform="translate(-1656.567 -1077.781)" fill="#ed985f"/>
        <path id="Path_8861" data-name="Path 8861" d="M1673.313,1027.578a56.405,56.405,0,0,0-1.934-7.408c-.794-1.723-1.458-9.405,7.35-9.8,0,0,3.378.4,5.233-.729,0,0,0,1.126-.464,1.523a5.854,5.854,0,0,1,5.43,1.92c2.384,2.649-1.588,11.921-1.39,14.106Z" transform="translate(-1642.454 -1009.64)" fill="#2c3a64"/>
        <path id="Path_8862" data-name="Path 8862" d="M1687.379,1056.684c-2.555-.046-7.259-3.448-7.259-7.66v-6.575a2.625,2.625,0,0,1,2.384-2.8h9.749a2.623,2.623,0,0,1,2.384,2.8v6.2C1694.637,1053.07,1690.309,1056.737,1687.379,1056.684Z" transform="translate(-1649.42 -1032.43)" fill="#ffb27d"/>
        <path id="Path_8863" data-name="Path 8863" d="M1679.094,1041.255s.015-3.951,3.142-4.559,10.134,1.925,11.128-.955-13.538-2.832-14.27-.994S1679.094,1041.255,1679.094,1041.255Z" transform="translate(-1648.395 -1027.727)" fill="#2c3a64"/>
        <path id="Path_8864" data-name="Path 8864" d="M1633.541,1344.94s1,30.43-.493,47.794.01,41.526.01,41.526a11.269,11.269,0,0,0,9.932,0s5.666-33.543,5.63-41.526c-.038-8.5,6.167-46.465,6.167-46.465Z" transform="translate(-1613.173 -1264.27)" fill="#575757"/>
        <path id="Path_8865" data-name="Path 8865" d="M1715.078,1434.09a11.264,11.264,0,0,1-9.929,0s-5.664-33.543-5.63-41.526c.017-3.59-1.08-12.438-2.355-21.458-1.742-12.34-3.813-25.007-3.813-25.007l22.068-1.378s-1.819,30.483-.33,47.844S1715.078,1434.09,1715.078,1434.09Z" transform="translate(-1659.467 -1264.103)" fill="#575757"/>
        <path id="Path_8866" data-name="Path 8866" d="M1669.326,1189.19a110.477,110.477,0,0,1-17.991,1.821,87.051,87.051,0,0,1-11.048-.844c-3.58-.474-6.147-.977-6.147-.977s-1.908.166-.782-9.236c.857-7.157.587-13.617.4-20.265-.022-.738,0-1.614.04-2.586.366-7.752,2.709-21.7,4.5-22.454a32.745,32.745,0,0,1,7.35-1.468c0,.092,2.724,4.073,5.957,4.521a11.2,11.2,0,0,0,5.784-4.391,62.984,62.984,0,0,1,9.066,1.749s.336,1.477,1.614,27.125C1668.568,1172.341,1672.035,1189.223,1669.326,1189.19Z" transform="translate(-1613.639 -1103.457)" fill="#fff"/>
        <path id="Path_8867" data-name="Path 8867" d="M1711.555,1442.472c.017-3.589-1.08-12.439-2.355-21.458a42.458,42.458,0,0,1,4.54-10.574C1717.815,1421.866,1711.555,1442.472,1711.555,1442.472Z" transform="translate(-1671.504 -1314.011)" fill="#3a3a3a"/>
        <path id="Path_8868" data-name="Path 8868" d="M1563.943,1169.3c-.224.188.558,2.127,1.711,4.653,2.372,5.192,6.313,12.86,6.313,12.86a22.773,22.773,0,0,1-1.2,3.5,83.438,83.438,0,0,1-13.63-13.036c-3.835-4.778-4.622-7.518-4.622-7.518,14.758-30.04,25.145-31.149,25.145-31.149l-1.227,19.854S1564.627,1168.73,1563.943,1169.3Z" transform="translate(-1552.52 -1107.581)" fill="#fff"/>
        <path id="Path_8869" data-name="Path 8869" d="M1628.371,1334.15s3.578-3.311,5.033-1.458,1.723,4.769.6,4.569-3.443-1.258-3.775-.729-1.814,1.542-2.266.739S1628.371,1334.15,1628.371,1334.15Z" transform="translate(-1609.71 -1254.541)" fill="#ffb27d"/>
        <path id="Path_8870" data-name="Path 8870" d="M1586.555,1298.37a22.757,22.757,0,0,1-1.2,3.5,83.441,83.441,0,0,1-13.629-13.035,17.006,17.006,0,0,0,8.515-3.325C1582.614,1290.7,1586.555,1298.37,1586.555,1298.37Z" transform="translate(-1567.108 -1219.138)" fill="#ffb27d"/>
        <path id="Path_8871" data-name="Path 8871" d="M1792.454,1170.683s-.787,2.74-4.622,7.518a83.436,83.436,0,0,1-13.629,13.035,22.776,22.776,0,0,1-1.2-3.5s3.941-7.667,6.313-12.86c1.153-2.526,1.934-4.465,1.711-4.653-.532-.44-7.745-6.71-10.964-9.506-.933-.813-1.53-1.33-1.53-1.33l-.736-19.558S1777.693,1140.643,1792.454,1170.683Z" transform="translate(-1716.005 -1108.507)" fill="#fff"/>
        <path id="Path_8872" data-name="Path 8872" d="M1772.728,1334.15s-3.578-3.311-5.033-1.458-1.723,4.769-.6,4.569,3.443-1.258,3.775-.729,1.814,1.542,2.264.739S1772.728,1334.15,1772.728,1334.15Z" transform="translate(-1714.943 -1254.541)" fill="#ffb27d"/>
        <path id="Path_8873" data-name="Path 8873" d="M1789.43,1298.37a22.8,22.8,0,0,0,1.2,3.5,83.447,83.447,0,0,0,13.629-13.035,17,17,0,0,1-8.514-3.325C1793.371,1290.7,1789.43,1298.37,1789.43,1298.37Z" transform="translate(-1732.431 -1219.138)" fill="#ffb27d"/>
        <path id="Path_8874" data-name="Path 8874" d="M1682.65,1126.88a2.515,2.515,0,0,0-1.35,1.631s4.218,4.338,6.977,4.4Z" transform="translate(-1650.317 -1098.673)" fill="#757575"/>
        <path id="Path_8875" data-name="Path 8875" d="M1710.3,1132.223l5.442-6.253a2.551,2.551,0,0,1,1.107,1.956S1712.639,1132.389,1710.3,1132.223Z" transform="translate(-1672.339 -1097.982)" fill="#757575"/>
        <path id="Path_8876" data-name="Path 8876" d="M1696.709,1149.951s-4.155,35.863-2.707,40.234a30,30,0,0,0,2.533,5.555,1.473,1.473,0,0,0,2.548,0c1.1-1.915,2.546-4.687,2.546-6.094,0-2.279-3.152-39.722-3.152-39.722Z" transform="translate(-1659.73 -1116.17)" fill="#979797"/>
        <path id="Path_8877" data-name="Path 8877" d="M1700.632,1142.275a26.027,26.027,0,0,1,4.039-.1.424.424,0,0,1,.324.628c-.428.772-1.3,2.107-2.216,2.107C1701.493,1144.917,1699.491,1142.364,1700.632,1142.275Z" transform="translate(-1664.74 -1110.252)" fill="#787878"/>
        <path id="Path_8878" data-name="Path 8878" d="M1701.83,1092.31a2.8,2.8,0,0,0,2.187,1.037,2.6,2.6,0,0,0,2.042-1.037A13.854,13.854,0,0,0,1701.83,1092.31Z" transform="translate(-1665.907 -1072.29)" fill="#fff"/>
      </g>
      <g id="Group_6806" data-name="Group 6806" transform="translate(353.761 174.041)">
        <path id="Path_8879" data-name="Path 8879" d="M1669.738,946.994l-1.935,1.388-1.944-1.374a2.379,2.379,0,0,1,3.878-.014Z" transform="translate(-1657.844 -936.189)" fill="#fff"/>
        <g id="Group_6803" data-name="Group 6803" transform="translate(5.255 6.431)">
          <path id="Path_8880" data-name="Path 8880" d="M1659.086,931.95a5.747,5.747,0,0,0-4.707,2.447l1.227.861a4.254,4.254,0,0,1,6.939-.024l1.222-.878A5.753,5.753,0,0,0,1659.086,931.95Z" transform="translate(-1654.38 -931.95)" fill="#fff"/>
        </g>
        <g id="Group_6804" data-name="Group 6804">
          <path id="Path_8881" data-name="Path 8881" d="M1642.5,905.22a12.171,12.171,0,0,0-9.961,5.173l1.227.861a10.679,10.679,0,0,1,17.416-.065l1.217-.878A12.153,12.153,0,0,0,1642.5,905.22Z" transform="translate(-1632.54 -905.22)" fill="#fff"/>
        </g>
        <g id="Group_6805" data-name="Group 6805" transform="translate(2.858 3.517)">
          <path id="Path_8882" data-name="Path 8882" d="M1651.522,919.84a8.7,8.7,0,0,0-7.1,3.669l1.227.861a7.216,7.216,0,0,1,11.72-.043l1.217-.871A8.7,8.7,0,0,0,1651.522,919.84Z" transform="translate(-1644.42 -919.84)" fill="#fff"/>
        </g>
      </g>
      <g id="Group_6808" data-name="Group 6808" transform="translate(75.069 198.334)">
        <path id="Path_8883" data-name="Path 8883" d="M829.743,1062.487s-2.87-5.1,0-6.137,4.17-.082,4.3,1.08-1.092,5.74-1.092,5.74Z" transform="translate(-743.228 -1043.945)" fill="#ffb27d"/>
        <path id="Path_8884" data-name="Path 8884" d="M713.593,1111.794a92.711,92.711,0,0,1-14.387,1.478,80.175,80.175,0,0,1-11.058-.5q-1.3-.152-2.507-.335a49.788,49.788,0,0,1-13.151-3.563s7.742-16.2,13.993-15.583c7.336.732,19.769,7.314,21,5.469,1.391-2.081,2.555-19.921,2.555-19.921,3.253-2.228,5.194.12,5.194.12S721.595,1110.35,713.593,1111.794Z" transform="translate(-624.778 -1060.632)" fill="#757575"/>
        <path id="Path_8885" data-name="Path 8885" d="M756.923,1190.729a92.68,92.68,0,0,1-14.387,1.477,80.177,80.177,0,0,1-11.058-.5c-1.951-6.207-3.356-12.549.57-8.727C738.973,1189.725,756.923,1190.729,756.923,1190.729Z" transform="translate(-668.108 -1139.567)" fill="#7e7c7b"/>
        <path id="Path_8886" data-name="Path 8886" d="M669.7,1754.767s-.556,6.441.806,7.112l17.426-.036s0-2.011-2.8-2.458-7.716-2.086-8.548-5.736S669.7,1754.767,669.7,1754.767Z" transform="translate(-622.57 -1572.772)" fill="#161616"/>
        <path id="Path_8887" data-name="Path 8887" d="M653.289,1374.888c-.087,4.213-.289,8.558-.686,12.463-1.881,18.528-2.543,40.917-2.815,45.231-.469,7.492-1.949,19.461-1.949,19.461s-2.935,2.786-8.659,1.458a194.772,194.772,0,0,1-5.8-35.394c-.017-.3-.034-.6-.048-.9-.123-2.4-.253-5.144-.383-8.1-.871-19.82-1.819-49.264-1.819-49.264L653,1354.71S653.5,1364.389,653.289,1374.888Z" transform="translate(-593.369 -1270.859)" fill="#575757"/>
        <path id="Path_8888" data-name="Path 8888" d="M632.959,1409.118c-.871-19.82-1.819-49.264-1.819-49.264l21.867-5.134S637.191,1402.075,632.959,1409.118Z" transform="translate(-593.376 -1270.866)" fill="#3a3a3a"/>
        <path id="Path_8889" data-name="Path 8889" d="M478.728,1361.6s-3.558,4.184-3.878,5.346-.89,5.341-.585,6.6,2.671-3.5,3.532-4.011-.647,1.894-.351,2.293,1.992-1.4,2.656-2.011.6-3.893,1.393-5.832S478.728,1361.6,478.728,1361.6Z" transform="translate(-474.177 -1276.091)" fill="#ffb27d"/>
        <path id="Path_8890" data-name="Path 8890" d="M481.491,1727.973s-3.1,2.829-2.5,4.841,3.4,3.352,3.782,5.81,1.891,3.8,3.253,3.8h6.491s1-1.73-1.42-2.252-3.334-3.409-3.183-6.092a47.281,47.281,0,0,0-.226-6.258l-5.144-1.191Z" transform="translate(-477.776 -1553.298)" fill="#161616"/>
        <path id="Path_8891" data-name="Path 8891" d="M542.091,1356.915s-20.472,43.8-31.363,63.018-14.3,24.581-14.3,24.581-6.241-2.459-6.809-4.134c0,0,4.165-37.1,11.462-46.145,4.121-5.11,8.964-20.448,9.191-25.811s5.009-18.165,5.009-18.165Z" transform="translate(-485.905 -1267.479)" fill="#575757"/>
        <path id="Path_8892" data-name="Path 8892" d="M617.245,1185.977a35.479,35.479,0,0,1-19.661,4.937c-5.057-.221-15.088-1.655-16.7-5.675-.38-.943-.1-2.144.469-3.982,1.48-4.781,4.93-13.882,3.888-34.063a33.427,33.427,0,0,1,.135-5.3c1.085-9.941,6.782-15.828,12.289-17.751,13.43-4.694,17.9,1.809,17.9,1.809s5.935,4.7,6.83,14.517C624.181,1160.1,617.245,1185.977,617.245,1185.977Z" transform="translate(-555.075 -1094.475)" fill="#757575"/>
        <path id="Path_8893" data-name="Path 8893" d="M667.52,1085.559s6.161,3.748,12.845,2.687c0,0,1.321-.337.671-1.886a20.082,20.082,0,0,0,.594-2.069,31,31,0,0,0,.765-3.375l-3.792-3.987-3.592-3.809C674.018,1082.224,667.52,1085.559,667.52,1085.559Z" transform="translate(-621.003 -1057.017)" fill="#ffb27d"/>
        <path id="Path_8894" data-name="Path 8894" d="M696.26,1087.47s2.064,5.517,7.2,7.718c.587-2.141.967-4.381.967-4.381l-3.994-2.981Z" transform="translate(-642.829 -1067.914)" fill="#ed985f"/>
        <path id="Path_8895" data-name="Path 8895" d="M704.464,1044.021s-11.763,1.47-12.588-5.757-2.9-11.9,4.576-13.151,9.251,1.354,10.122,3.7S707.5,1043.451,704.464,1044.021Z" transform="translate(-638.816 -1020.316)" fill="#ffb27d"/>
        <path id="Path_8896" data-name="Path 8896" d="M676.5,1009.812c-.1-.125-.342-.233-.885-.284a2.216,2.216,0,0,1,1.027-.248,2.742,2.742,0,0,1,1.913-2.355,1.635,1.635,0,0,0-.837,1.148c1.569-1.494,4.846-2.5,13.779-1.453,11.772,1.379,7.593,8.791,6.032,9.633s-5.317-1.773-8.173-1.655-3.553,4.213-4.54,4.742-.57-.457-1.855-1.1-1.492,1.521-1.167,2.942-1.542,3.212-1.542,3.212l-1.742-2.023c-1.742-2.024-3.14-10.367-2.247-12.1C676.337,1010.123,676.414,1009.966,676.5,1009.812Z" transform="translate(-627.147 -1006.189)" fill="#303030"/>
        <g id="Group_6807" data-name="Group 6807" transform="translate(64.173 5.812)">
          <path id="Path_8897" data-name="Path 8897" d="M765.124,1055.409l-19.967.176-.137-3,19.906-1.542Z" transform="translate(-744.03 -1046.061)" fill="#878787"/>
          <path id="Path_8898" data-name="Path 8898" d="M821.828,1049.736l-21.74.315-.248-5.461,21.677-1.679Z" transform="translate(-785.661 -1039.887)" fill="#5d5d5d"/>
          <path id="Path_8899" data-name="Path 8899" d="M893.238,1044.62l-18.333.024-.334-7.374,18.258-1.66Z" transform="translate(-842.412 -1034.343)" fill="#070707"/>
          <path id="Path_8900" data-name="Path 8900" d="M948.508,1041.866h0a1.025,1.025,0,0,0,.977-1.071l-.431-9.472a1.025,1.025,0,0,0-1.071-.977h0a1.024,1.024,0,0,0-.977,1.07l.43,9.472A1.022,1.022,0,0,0,948.508,1041.866Z" transform="translate(-897.42 -1030.345)" fill="#a4a4a4"/>
          <path id="Path_8901" data-name="Path 8901" d="M741.971,1059.1h0a.913.913,0,0,1-.953-.869l-.111-2.456a.913.913,0,0,1,.868-.953h0a.914.914,0,0,1,.953.869l.111,2.456A.912.912,0,0,1,741.971,1059.1Z" transform="translate(-740.906 -1048.929)" fill="#474747"/>
        </g>
        <path id="Path_8902" data-name="Path 8902" d="M583.37,1242.59c1.48-4.78,4.93-13.882,3.888-34.063a33.438,33.438,0,0,1,.135-5.3h0c4.42-.38,11.175,4.4,11.175,4.4S594.408,1232.993,583.37,1242.59Z" transform="translate(-557.099 -1155.809)" fill="#7e7c7b"/>
        <path id="Path_8903" data-name="Path 8903" d="M530.546,1124.82s-11.332,1.949-17.243,9.164-15.417,17.39-17.664,20.951-8.488,27.807-8.488,27.807.411.78,2.132,1.234a4.064,4.064,0,0,0,2.841-.238s8.267-14.149,11.38-21.218c1.292-2.938,23.65-14.568,32.056-13.363C538.863,1149.63,530.546,1124.82,530.546,1124.82Z" transform="translate(-484.029 -1096.278)" fill="#757575"/>
        <path id="Path_8904" data-name="Path 8904" d="M828.09,1044.932s2.437,1.492,3.9.859,1.33-1.208,1.33-1.208S828.91,1043.363,828.09,1044.932Z" transform="translate(-742.942 -1035.003)" fill="#ffb27d"/>
        <path id="Path_8905" data-name="Path 8905" d="M574.023,1155.933s-4.973,31.4-40.258,40.54l-3.845,7.583,6.751,1.143s40.169-11.637,39.628-49.819Z" transform="translate(-516.509 -1119.486)" fill="#cecece"/>
        <path id="Path_8906" data-name="Path 8906" d="M704.879,1136.85l-1.629.159v2.358l2.4,2.495,2.281-.556v-3.272l-1.641-1.184Z" transform="translate(-648.137 -1105.414)" fill="#6a6a6a"/>
        <path id="Path_8907" data-name="Path 8907" d="M667.11,1110.89s-1.576.356-5.18,3.351c0,0,3.585,7.608,11.146,8.52a25.3,25.3,0,0,1,.424-5.627S667.507,1114.99,667.11,1110.89Z" transform="translate(-616.758 -1085.7)" fill="#7e7c7b"/>
        <path id="Path_8908" data-name="Path 8908" d="M710.02,1130.25s3.691,1.959,3.962,5.012c0,0,1.41-2.235,1-3.782a12.6,12.6,0,0,0-1.675-3.32S713.439,1130.022,710.02,1130.25Z" transform="translate(-653.278 -1098.815)" fill="#7e7c7b"/>
      </g>
      <path id="Path_8933" data-name="Path 8933" d="M778.338,1740.82h409.92a5.185,5.185,0,0,1,5.185,5.184v1.133a5.185,5.185,0,0,1-5.192,5.185l-410.045-.46a5.187,5.187,0,0,1-5.093-6.13l.125-.672A5.188,5.188,0,0,1,778.338,1740.82Z" transform="translate(-626.056 -1365.74)" fill="#929292"/>
      <g id="Group_6814" data-name="Group 6814" transform="translate(529.794 204.21)">
        <g id="Group_6798" data-name="Group 6798" transform="translate(49.141 100.495)">
          <path id="Path_8822" data-name="Path 8822" d="M2760.322,1474.3l-17.366,2.476a4.163,4.163,0,0,1-4.694-3.524l-1.072-7.526a4.16,4.16,0,0,1,3.524-4.694l17.366-2.476a4.162,4.162,0,0,1,4.694,3.525l1.073,7.526A4.162,4.162,0,0,1,2760.322,1474.3Z" transform="translate(-2737.147 -1456.262)" fill="#233862"/>
          <path id="Path_8823" data-name="Path 8823" d="M2746.7,1458.278l1.085,7.612a4.174,4.174,0,0,0,2.452,3.224,4.109,4.109,0,0,0,1.352.342h0a4.1,4.1,0,0,0,.9-.029l17.335-2.471a4.178,4.178,0,0,0,3.536-4.711l-1.085-7.613a4.181,4.181,0,0,0-4.714-3.537l-5.969.852-.231-1.624a1.377,1.377,0,0,0-1.554-1.167l-.655.094-3.631.517-.9.13a1.377,1.377,0,0,0-1.167,1.554l.231,1.624-3.457.491c-.137.019-.27.046-.4.077h0a4.189,4.189,0,0,0-2.878,2.512h0A4.177,4.177,0,0,0,2746.7,1458.278Zm14.051-6.212-6.2.885-.231-1.624a.513.513,0,0,1,.436-.58l1.556-.221,2.859-.409.772-.111a.47.47,0,0,1,.154,0,.51.51,0,0,1,.426.433Z" transform="translate(-2744.369 -1449.143)" fill="#636363"/>
        </g>
        <path id="Path_8824" data-name="Path 8824" d="M2778.58,1427.238a6.032,6.032,0,0,1,.948,1.7c.246,3.289-1.258,3.746,2.635,5.572,0,0,1.663.633,1.689-.657s-1.153-1.311-.936-3.118c.25-2.084.223-2.1-1.143-3.19l-.9-1.5Z" transform="translate(-2719.471 -1331.111)" fill="#ffb27d"/>
        <path id="Path_8825" data-name="Path 8825" d="M2780.23,1437s-.878.914-.934,1.3c-.178,1.222-.587,1.751-.383,1.884.426.277.989-.628,1.256-1.441A3.687,3.687,0,0,0,2780.23,1437Z" transform="translate(-2719.682 -1339.426)" fill="#ffb27d"/>
        <path id="Path_8826" data-name="Path 8826" d="M2628,1737.377l.921-6.629-3.866-3.229-1.217,8.775Z" transform="translate(-2601.96 -1560.049)" fill="#ffb27d"/>
        <path id="Path_8827" data-name="Path 8827" d="M2587.79,1766.612h15.759a8.657,8.657,0,0,0-.445-4.225c-.789-1.75-2.016-2.827-2.127-4.167a4.731,4.731,0,0,1-4.511,1.388,17.3,17.3,0,0,1-2.733,3.544C2592.7,1763.893,2588.107,1763.628,2587.79,1766.612Z" transform="translate(-2574.583 -1583.364)" fill="#5d5d5d"/>
        <path id="Path_8828" data-name="Path 8828" d="M2600.855,1369.27c1.03,8.291,1.875,16.105,2.56,23.39,3.667,38.812,2.947,62.535,2.947,62.535s.265.7,2.538.712a12.975,12.975,0,0,0,2.543-.274s8.211-25.344,7.578-39.768a22.114,22.114,0,0,0-.64-4.667c-1.971-7.379,7.29-35.6-2.777-46.107S2600.382,1365.466,2600.855,1369.27Z" transform="translate(-2584.483 -1281.436)" fill="#5d5d5d"/>
        <path id="Path_8829" data-name="Path 8829" d="M2600.855,1369.27c1.03,8.291,1.875,16.105,2.56,23.39l15.607,23.2a22.114,22.114,0,0,0-.64-4.667c-1.971-7.379,7.29-35.6-2.777-46.107S2600.382,1365.466,2600.855,1369.27Z" transform="translate(-2584.483 -1281.436)" fill="#505050"/>
        <path id="Path_8830" data-name="Path 8830" d="M2536.868,1040.2s.38-1.893.808-3.339c.19-.64-1.131-4.841-2.043-5.358s-3.291,2.312-2.617,4.484c.346,1.116.914,4.747.914,4.747Z" transform="translate(-2532.898 -1031.442)" fill="#ffb27d"/>
        <path id="Path_8831" data-name="Path 8831" d="M2549.4,1054.8s.5-1.1.943-1.275.929-1.973,1.258-2.685c0,0-.317-.467-.873.132-.339.366-1.094,1.436-1.094,1.436Z" transform="translate(-2545.43 -1046.044)" fill="#ffb27d"/>
        <path id="Path_8832" data-name="Path 8832" d="M2734.539,1732.7c.224-2.124.279-7.713.279-7.713s-5.695-1.822-5.486-.57a40.291,40.291,0,0,1,.75,9.188l2.3,1.376Z" transform="translate(-2682.068 -1557.358)" fill="#ffb27d"/>
        <path id="Path_8833" data-name="Path 8833" d="M2620.72,1391.182s22,60.307,26.33,86.464a4.381,4.381,0,0,0,2.875.462,3.218,3.218,0,0,0,2.7-1.735s3.975-31.351-3.924-42.238c-5.427-7.478,2.341-40.321-10.3-42.955S2620.72,1391.182,2620.72,1391.182Z" transform="translate(-2599.591 -1303.742)" fill="#5d5d5d"/>
        <path id="Path_8834" data-name="Path 8834" d="M2633.893,1127.994a6.753,6.753,0,0,0,.332.736,5.906,5.906,0,0,0,.64.984,8.692,8.692,0,0,1-.267-1.14v0c-.036-.2-.065-.416-.094-.65a24.368,24.368,0,0,1-.053-4.331,23.8,23.8,0,0,0,.368,4.3c.034.183.072.366.113.546a9.982,9.982,0,0,0,.544,1.732c.041.1.087.2.135.3a44.426,44.426,0,0,1,5.016,5.623c1.232,1.583,2.479,3.311,3.657,5.053.454.671.9,1.342,1.33,2.006l0,0c.183.282.359.556.534.832a0,0,0,0,1,0,0c.219.344.428.683.635,1.022.577.936,1.114,1.845,1.592,2.707.111.2.219.39.32.58,1.487,2.726,2.373,4.889,2.17,5.719,0,0,.1-.068.272-.188l.168-.115c.609-.421,1.807-1.244,3.323-2.274l.1-.305.758-2.348a5.465,5.465,0,0,1-.058,2.115c2.379-1.607,5.345-3.59,8.036-5.31l0,0c2.009-1.287,3.861-2.43,5.2-3.166a33.987,33.987,0,0,0-.842-3.4c.784.349,1.535,1.995,1.888,2.865.089-.046.176-.084.255-.118,0,0,.146-6.725-8.633-13.067-4.6-3.325-7.863-4.9-7.177-8.151s1.282-17.583-8.852-15.316a6.312,6.312,0,0,0-2.141-.912,1.905,1.905,0,0,1,.79.529,7.551,7.551,0,0,0-4.141.171,6.31,6.31,0,0,0-2.512,2.721l0,0c-.053.094-.106.183-.161.281-.361.631-.713,1.34-1.054,2.1a35.527,35.527,0,0,0-1.6,4.43v0c-.152.519-.291,1.042-.421,1.571a.5.5,0,0,0-.02.079v0C2633.026,1120.449,2632.707,1124.965,2633.893,1127.994Z" transform="translate(-2609.017 -1086.786)"/>
        <path id="Path_8835" data-name="Path 8835" d="M2644.869,1187.994c-.034.01,2.836,2.088,5.271,1.795,2.291-.272,4.153-2.914,4.124-2.923-.9-.325-.982-1.646-.144-7.146l-.434.019-7.295.349s-.17,2.255-.479,4.355C2645.658,1186.209,2645.3,1187.866,2644.869,1187.994Z" transform="translate(-2617.93 -1144.046)" fill="#ffb27d"/>
        <path id="Path_8836" data-name="Path 8836" d="M2649.7,1180.159s-.17,2.254-.479,4.355c3.982.479,6.616-2.827,7.773-4.7Z" transform="translate(-2621.234 -1144.114)" fill="#ed975d"/>
        <path id="Path_8837" data-name="Path 8837" d="M2649.74,1128.81a21.071,21.071,0,0,0,3.483-5.707c.655-1.951.738-9.532-6.886-9.573a10.269,10.269,0,0,0-4.444.964c-1.783.854-4.475,2.871-2.822,9.742l.354,2.291Z" transform="translate(-2613.135 -1093.779)" fill="#272727"/>
        <path id="Path_8838" data-name="Path 8838" d="M2594.7,1254.9s12.94,4.314,24.856,1.415c.14-.034,6.953-6.063,6.953-6.063-.166-.455-1.417-7.927-1.581-8.344-2.115-5.457-5.978-35.069-9.207-36.529-.825.9-3.181,1.513-5.2,1.333-2.322-.2-3.1-1.208-2.907-2.288-2.569,1.215-4.544,2.343-4.544,2.343C2600.725,1210.283,2594.7,1254.9,2594.7,1254.9Z" transform="translate(-2579.831 -1162.803)" fill="#fff"/>
        <path id="Path_8839" data-name="Path 8839" d="M2638.7,1139.84s9.358,1.549,10.234-4.292,2.673-9.578-3.265-10.815-7.437.818-8.2,2.7S2636.288,1139.287,2638.7,1139.84Z" transform="translate(-2611.855 -1102.003)" fill="#ffb27d"/>
        <path id="Path_8840" data-name="Path 8840" d="M2655.77,1119.886s1.549,7.237,5.339,8.837,5.658.8,5.658.8a11.29,11.29,0,0,1-2.671-7.139S2658.193,1116.912,2655.77,1119.886Z" transform="translate(-2626.208 -1097.935)" fill="#202020"/>
        <path id="Path_8841" data-name="Path 8841" d="M2641.13,1121.028a8.354,8.354,0,0,0-2.834,2.663c-.688,1.42-1.355,4.451-2.233,4.213,0,0-1.241-4.947,1.326-7.261C2640.11,1118.194,2641.13,1121.028,2641.13,1121.028Z" transform="translate(-2611.015 -1098.425)" fill="#163560"/>
        <path id="Path_8842" data-name="Path 8842" d="M2536.728,1066.746a6,6,0,0,1,1.672-.517,5.214,5.214,0,0,1,1.47.154s2.639,16.413,2.837,17.282,11.324,13.406,14.325,13.355c2.709-.046,5.918,2.045,6.515,2.449,0,0-5.43,9.794-6.657,19.984-1.035,8.6-3.575,40.585-3.575,40.585s.195,1.954-3.457.9-4.564-1.92-4.564-1.92,3.354-33.062,4.057-43.342c.094-1.381.7-6.188.012-7.138-4.615-6.335-11.9-16.6-12.308-18.781C2536.458,1086.554,2536.728,1066.746,2536.728,1066.746Z" transform="translate(-2535.76 -1057.852)" fill="#575757"/>
        <path id="Path_8843" data-name="Path 8843" d="M2696.42,1766.612h15.759a8.659,8.659,0,0,0-.445-4.225c-.79-1.75-2.016-2.827-2.127-4.167a4.732,4.732,0,0,1-4.511,1.388,17.283,17.283,0,0,1-2.733,3.544C2701.328,1763.893,2696.735,1763.628,2696.42,1766.612Z" transform="translate(-2657.078 -1583.364)" fill="#5d5d5d"/>
        <path id="Path_8844" data-name="Path 8844" d="M2664.736,1267.542s1.063,5.139,5.936,4.814,11.936-2.767,11.936-2.767-.33-5.355-.861-12.86c-.518-7.278-1.225-16.574-2.016-24.952-1.081-11.44-2.305-21.165-3.393-21.687a39.122,39.122,0,0,0-8.194-2.541s-3.575,15.278-4.188,22.823C2663.382,1237.432,2664.736,1267.542,2664.736,1267.542Z" transform="translate(-2632.316 -1165.18)" fill="#575757"/>
        <path id="Path_8845" data-name="Path 8845" d="M2645.836,1174.011a4.193,4.193,0,0,1-2.478.467c-.919-.137-1.128-1.229-1.128-1.229a3.615,3.615,0,0,1,1.66,0A7.144,7.144,0,0,1,2645.836,1174.011Z" transform="translate(-2615.926 -1139.064)" fill="#fff"/>
        <path id="Path_8846" data-name="Path 8846" d="M2705.38,1282.25s.07,16.757,5.9,28.642c.921,1.881,1.581,2.629,2.031,2.567-.518-7.278-1.225-16.574-2.016-24.952Z" transform="translate(-2663.882 -1221.908)" fill="#4e4e4e"/>
        <path id="Path_8847" data-name="Path 8847" d="M2702.534,1214.01s5.375,1.583,7.807,5.057,10.3,23.041,12.39,30.22,3.01,17.775,3.01,17.775a10.913,10.913,0,0,1-6.407,0s-4.478-16-6.176-17.775-11.668-19.683-11.668-19.683Z" transform="translate(-2660.929 -1170.086)" fill="#4e4e4e"/>
      </g>
    </g>
  </g>
</svg>
