<svg id="Organize_e-learning_in_one_location" data-name="Organize e-learning in one location" xmlns="http://www.w3.org/2000/svg" width="42.155" height="42" viewBox="0 0 42.155 42">
  <path id="Path_8682" data-name="Path 8682" d="M209.3,70.4a4.19,4.19,0,1,0,4.19,4.19A4.195,4.195,0,0,0,209.3,70.4Zm0,7.145a2.955,2.955,0,1,1,2.955-2.955A2.958,2.958,0,0,1,209.3,77.546Z" transform="translate(-188.222 -64.682)" fill="#fff"/>
  <circle id="Ellipse_330" data-name="Ellipse 330" cx="0.88" cy="0.88" r="0.88" transform="translate(2.482 35.142) rotate(-10.894)" fill="#fff"/>
  <path id="Path_8683" data-name="Path 8683" d="M64.515,429.96h7.308a.617.617,0,1,0,0-1.235H64.515a.617.617,0,1,0,0,1.235Z" transform="translate(-58.637 -393.504)" fill="#fff"/>
  <circle id="Ellipse_331" data-name="Ellipse 331" cx="0.88" cy="0.88" r="0.88" transform="translate(2.427 38.051) rotate(-16.858)" fill="#fff"/>
  <path id="Path_8684" data-name="Path 8684" d="M64.515,464.011h7.308a.617.617,0,1,0,0-1.235H64.515a.617.617,0,1,0,0,1.235Z" transform="translate(-58.637 -424.751)" fill="#fff"/>
  <path id="Path_8685" data-name="Path 8685" d="M40.63,29.644H34.552v-4.03a1.2,1.2,0,0,0-1.194-1.194H21.695V20.757h.666a1.327,1.327,0,0,0,1.325-1.325V18.355A7.9,7.9,0,0,0,24.541,18l.762.762a1.326,1.326,0,0,0,1.874,0l1.815-1.815a1.326,1.326,0,0,0,0-1.874l-.761-.761a7.923,7.923,0,0,0,.355-.855h1.076a1.327,1.327,0,0,0,1.325-1.325V9.565a1.327,1.327,0,0,0-1.325-1.325H28.585a7.888,7.888,0,0,0-.355-.855l.761-.761a1.317,1.317,0,0,0,.388-.938,1.332,1.332,0,0,0-.039-.318.617.617,0,1,0-1.2.3.1.1,0,0,1,0,.023.089.089,0,0,1-.026.064L27.036,6.832a.618.618,0,0,0-.1.739,6.672,6.672,0,0,1,.6,1.454.617.617,0,0,0,.594.45h1.529a.091.091,0,0,1,.09.09v2.566a.091.091,0,0,1-.09.09H28.132a.617.617,0,0,0-.594.45,6.68,6.68,0,0,1-.6,1.454.618.618,0,0,0,.1.739l1.082,1.082a.091.091,0,0,1,0,.128L26.3,17.889a.09.09,0,0,1-.128,0l-1.082-1.082a.618.618,0,0,0-.739-.1,6.681,6.681,0,0,1-1.454.6.618.618,0,0,0-.45.594v1.529a.091.091,0,0,1-.09.09H19.794a.091.091,0,0,1-.09-.09V17.9a.617.617,0,0,0-.45-.594,6.677,6.677,0,0,1-1.454-.6.618.618,0,0,0-.739.1l-1.082,1.082a.09.09,0,0,1-.128,0l-1.815-1.815a.09.09,0,0,1,0-.128l1.082-1.082a.618.618,0,0,0,.1-.739,6.676,6.676,0,0,1-.6-1.454.617.617,0,0,0-.594-.45H12.494a.091.091,0,0,1-.09-.09V9.565a.091.091,0,0,1,.09-.09h1.529a.617.617,0,0,0,.594-.45,6.676,6.676,0,0,1,.6-1.454.618.618,0,0,0-.1-.739L14.036,5.75a.09.09,0,0,1,0-.128l1.814-1.815a.09.09,0,0,1,.128,0l1.082,1.082a.618.618,0,0,0,.739.1,6.681,6.681,0,0,1,1.454-.6.618.618,0,0,0,.45-.594V2.264a.091.091,0,0,1,.09-.09H22.36a.091.091,0,0,1,.09.09V3.794a.617.617,0,0,0,.45.594,6.677,6.677,0,0,1,1.454.6.618.618,0,0,0,.739-.1l1.082-1.082a.09.09,0,0,1,.128,0l.048.048a.617.617,0,1,0,.873-.873l-.048-.048a1.326,1.326,0,0,0-1.874,0l-.761.762a7.915,7.915,0,0,0-.855-.355V2.264A1.327,1.327,0,0,0,22.36.939H19.794a1.327,1.327,0,0,0-1.325,1.325V3.341a7.9,7.9,0,0,0-.855.355l-.762-.762a1.325,1.325,0,0,0-1.874,0L13.163,4.749a1.325,1.325,0,0,0,0,1.875l.761.761a7.9,7.9,0,0,0-.355.855H12.494a1.327,1.327,0,0,0-1.325,1.325v2.566a1.327,1.327,0,0,0,1.325,1.325H13.57a7.907,7.907,0,0,0,.355.855l-.761.761a1.325,1.325,0,0,0,0,1.874l1.815,1.815a1.325,1.325,0,0,0,1.874,0L17.614,18a7.921,7.921,0,0,0,.855.355v1.076a1.327,1.327,0,0,0,1.325,1.325h.666v3.664H8.618a1.2,1.2,0,0,0-1.194,1.194v4.03h-5.9A1.526,1.526,0,0,0,0,31.168V41.415a1.526,1.526,0,0,0,1.524,1.524H3.06a.618.618,0,0,0,0-1.235H1.524a.289.289,0,0,1-.289-.289v-6.76h13.97v6.76a.289.289,0,0,1-.289.289H5.942a.618.618,0,0,0,0,1.235h8.974a1.526,1.526,0,0,0,1.524-1.524V31.168a1.526,1.526,0,0,0-1.524-1.524H8.659V25.656H33.317v3.989H27.238a1.526,1.526,0,0,0-1.524,1.524V41.415a1.526,1.526,0,0,0,1.524,1.524H40.63a1.526,1.526,0,0,0,1.524-1.524V31.168a1.526,1.526,0,0,0-1.524-1.524ZM15.205,31.168V33.42H1.235V31.168a.289.289,0,0,1,.289-.289H14.916a.289.289,0,0,1,.289.289Zm11.744,0a.289.289,0,0,1,.289-.289H40.63a.289.289,0,0,1,.289.289V33.42H26.949ZM40.92,41.415a.289.289,0,0,1-.289.289H27.238a.289.289,0,0,1-.289-.289v-6.76H40.92Z" transform="translate(0 -0.939)" fill="#fff"/>
  <circle id="Ellipse_332" data-name="Ellipse 332" cx="0.88" cy="0.88" r="0.88" transform="translate(28.139 35.242) rotate(-16.858)" fill="#fff"/>
  <path id="Path_8686" data-name="Path 8686" d="M376.836,429.96h7.308a.617.617,0,1,0,0-1.235h-7.308a.617.617,0,1,0,0,1.235Z" transform="translate(-345.243 -393.504)" fill="#fff"/>
  <circle id="Ellipse_333" data-name="Ellipse 333" cx="0.88" cy="0.88" r="0.88" transform="translate(28.198 37.949) rotate(-10.894)" fill="#fff"/>
  <path id="Path_8687" data-name="Path 8687" d="M376.836,464.011h7.308a.617.617,0,1,0,0-1.235h-7.308a.617.617,0,1,0,0,1.235Z" transform="translate(-345.243 -424.751)" fill="#fff"/>
</svg>
