<svg id="Provide_professional_development_opportunities_" data-name="Provide professional development opportunities " xmlns="http://www.w3.org/2000/svg" width="45" height="42" viewBox="0 0 45 42">
  <path id="Path_8661" data-name="Path 8661" d="M275.083,101.967A7.786,7.786,0,0,0,276,90.145,7.361,7.361,0,0,0,270.689,88a7.618,7.618,0,0,0-7.393,7.688,7.738,7.738,0,0,0,3.215,6.283.4.4,0,0,1,.16.331v1a2.249,2.249,0,0,0,.375,4.069v.879a2.253,2.253,0,0,0,2.25,2.25h3a2.253,2.253,0,0,0,2.25-2.25v-.879a2.249,2.249,0,0,0,.375-4.069v-1A.4.4,0,0,1,275.083,101.967ZM264.8,95.683a6.113,6.113,0,0,1,5.915-6.185h.086a5.878,5.878,0,0,1,4.15,1.716,6.286,6.286,0,0,1-.735,9.533,1.907,1.907,0,0,0-.791,1.553v.7h-5.25v-.7a1.9,1.9,0,0,0-.789-1.551A6.235,6.235,0,0,1,264.8,95.683ZM272.3,109h-3a.751.751,0,0,1-.75-.75v-.75h4.5v.75A.751.751,0,0,1,272.3,109Zm1.5-3h-6a.75.75,0,0,1,0-1.5h6a.75.75,0,0,1,0,1.5Z" transform="translate(-240.112 -83.498)" fill="#fff"/>
  <path id="Path_8662" data-name="Path 8662" d="M351.76,124.58a3.39,3.39,0,0,1,1.954,2.215.75.75,0,1,0,1.444-.406,4.9,4.9,0,0,0-2.83-3.2.75.75,0,1,0-.568,1.388Z" transform="translate(-319.86 -115.341)" fill="#fff"/>
  <path id="Path_8663" data-name="Path 8663" d="M336.8,42.25v-1.5a.75.75,0,0,0-1.5,0v1.5a.75.75,0,0,0,1.5,0Z" transform="translate(-305.366 -40)" fill="#fff"/>
  <path id="Path_8664" data-name="Path 8664" d="M284.591,53.935a.75.75,0,0,0,.684-1.055l-.61-1.37a.75.75,0,1,0-1.37.61l.61,1.37A.75.75,0,0,0,284.591,53.935Z" transform="translate(-258.177 -50.027)" fill="#fff"/>
  <path id="Path_8665" data-name="Path 8665" d="M242.039,84.855a.75.75,0,0,0,.5-1.307l-1.115-1a.75.75,0,0,0-1,1.115l1.115,1A.747.747,0,0,0,242.039,84.855Z" transform="translate(-219.158 -78.381)" fill="#fff"/>
  <path id="Path_8666" data-name="Path 8666" d="M216.451,129.89a.75.75,0,0,0-.482-.945l-1.427-.463a.75.75,0,1,0-.463,1.427l1.427.464a.749.749,0,0,0,.945-.482Z" transform="translate(-195.04 -120.153)" fill="#fff"/>
  <path id="Path_8667" data-name="Path 8667" d="M210.163,179.711l-1.492.157a.75.75,0,1,0,.157,1.492l1.492-.157a.75.75,0,0,0-.157-1.492Z" transform="translate(-189.999 -166.609)" fill="#fff"/>
  <path id="Path_8668" data-name="Path 8668" d="M447.356,181.2l1.492.157a.75.75,0,1,0,.157-1.492l-1.492-.157a.75.75,0,1,0-.157,1.492Z" transform="translate(-406.308 -166.609)" fill="#fff"/>
  <path id="Path_8669" data-name="Path 8669" d="M442.56,130.408a.749.749,0,0,0,.232-.037l1.427-.463a.75.75,0,1,0-.464-1.427l-1.426.463a.75.75,0,0,0,.231,1.464Z" transform="translate(-401.89 -120.153)" fill="#fff"/>
  <path id="Path_8670" data-name="Path 8670" d="M419.783,84.664l1.115-1a.75.75,0,1,0-1-1.115l-1.115,1a.75.75,0,1,0,1,1.115Z" transform="translate(-380.794 -78.383)" fill="#fff"/>
  <path id="Path_8671" data-name="Path 8671" d="M381.6,53.935a.75.75,0,0,0,.686-.445l.61-1.37a.75.75,0,1,0-1.37-.61l-.61,1.37a.75.75,0,0,0,.684,1.055Z" transform="translate(-346.65 -50.027)" fill="#fff"/>
  <path id="Path_8672" data-name="Path 8672" d="M58.75,293.5H49v-.75c0-1.126-1.466-1.946-1.915-2.171a.759.759,0,0,0-.12-.048l-7.341-2.2c-.465-.41-2.125-1.851-4.155-3.313-3.241-2.333-5.754-3.516-7.47-3.516H22v-.75a.75.75,0,0,0-.75-.75h-4.5a.75.75,0,0,0-.75.75v16.5a.75.75,0,0,0,.75.75h4.5a.75.75,0,0,0,.75-.75v-.75h2.215c.468.062,4.3.818,7.679,1.486,6.767,1.336,7.723,1.514,7.934,1.514H58.75A2.253,2.253,0,0,0,61,297.25v-1.5A2.253,2.253,0,0,0,58.75,293.5Zm-38.25,3h-3v-15h3Zm39,.75a.751.751,0,0,1-.75.75H39.863c-.468-.062-4.3-.818-7.678-1.486C25.417,295.178,24.461,295,24.25,295H22V283h6c2.838,0,8.721,4.734,10.748,6.558a.751.751,0,0,0,.286.161l7.434,2.23a2.8,2.8,0,0,1,1.031.824v1.477a.751.751,0,0,1-.688.748l-7.295-1.459-5.144-2.94a.75.75,0,1,0-.744,1.3l5.25,3a.75.75,0,0,0,.225.084l7.5,1.5a.756.756,0,0,0,.147.014,2.254,2.254,0,0,0,2.121-1.5H58.75a.751.751,0,0,1,.75.75Z" transform="translate(-16 -257.5)" fill="#fff"/>
</svg>
