<svg id="Reduce_Learning_and_Development_costs_" data-name="Reduce Learning and Development costs " xmlns="http://www.w3.org/2000/svg" width="27.34" height="42" viewBox="0 0 27.34 42">
  <path id="Path_8680" data-name="Path 8680" d="M207.3,90.945v-1.6h.376a3.578,3.578,0,1,0,0-7.156H205.1a1.026,1.026,0,0,1,0-2.051h4.356V77.681H207.3v-1.6H204.84v1.606a3.486,3.486,0,0,0,.256,6.963h2.58a1.117,1.117,0,1,1,0,2.234h-5.56v2.461h2.723v1.6Z" transform="translate(-192.403 -69.845)" fill="#fff"/>
  <path id="Path_8681" data-name="Path 8681" d="M116.7,13.67A13.67,13.67,0,1,0,99.265,26.812v4.773H94.877L103.031,42l8.154-10.415H106.8V26.813a13.7,13.7,0,0,0,9.9-13.143Zm-24.88,0A11.209,11.209,0,1,1,103.032,24.88,11.222,11.222,0,0,1,91.823,13.67Zm14.311,20.375-3.1,3.962-3.1-3.962h1.8V27.278c.43.041.866.063,1.306.063s.875-.022,1.3-.063v6.768Z" transform="translate(-89.362)" fill="#fff"/>
</svg>
