<svg xmlns="http://www.w3.org/2000/svg" xmlns:xlink="http://www.w3.org/1999/xlink" width="433.284" height="431.943" viewBox="0 0 433.284 431.943">
  <defs>
    <linearGradient id="linear-gradient" x1="-11.41" y1="7.129" x2="-13.369" y2="11.555" gradientUnits="objectBoundingBox">
      <stop offset="0" stop-color="#febbba"/>
      <stop offset="1" stop-color="#ff928e"/>
    </linearGradient>
    <linearGradient id="linear-gradient-2" x1="-178.032" y1="0.5" x2="-177.033" y2="0.5" xlink:href="#linear-gradient"/>
    <linearGradient id="linear-gradient-3" x1="-168.877" y1="0.5" x2="-167.877" y2="0.5" xlink:href="#linear-gradient"/>
    <linearGradient id="linear-gradient-4" x1="1.342" y1="-5.474" x2="0.074" y2="3.524" gradientUnits="objectBoundingBox">
      <stop offset="0" stop-color="#09005d"/>
      <stop offset="1" stop-color="#1a0f91"/>
    </linearGradient>
    <linearGradient id="linear-gradient-5" x1="-41.113" y1="0.5" x2="-40.113" y2="0.5" xlink:href="#linear-gradient"/>
    <linearGradient id="linear-gradient-6" x1="-11.383" y1="5.639" x2="-13.541" y2="9.062" xlink:href="#linear-gradient"/>
    <linearGradient id="linear-gradient-7" x1="-54.44" y1="-1.142" x2="-57.09" y2="2.815" xlink:href="#linear-gradient"/>
    <linearGradient id="linear-gradient-8" x1="-54.645" y1="1.937" x2="-55.863" y2="3.233" xlink:href="#linear-gradient"/>
    <linearGradient id="linear-gradient-9" x1="-158.325" y1="7.5" x2="-155.624" y2="4.962" xlink:href="#linear-gradient"/>
  </defs>
  <g id="Simplified_and_" data-name="Simplified and " transform="translate(-50.771 -49.057)">
    <g id="Illustration" transform="translate(50.771 49.057)">
      <g id="Group_6843" data-name="Group 6843">
        <path id="Path_8934" data-name="Path 8934" d="M853.959,846.589c-8.9,9.133-17.316,15.023-23.966,19.676-78.184,54.7-170.7,38.755-190.358,34.862-29.033-5.751-85.155-16.865-125.73-63.391-61.386-70.391-51.827-181.289-4.212-254.494,8.71-13.39,54.717-87.711,148.225-99.629,56.59-7.212,122.558,7.335,170.328,46.36C928.519,611.89,921.382,777.378,853.959,846.589Z" transform="translate(-470.898 -477.633)" fill="#eee"/>
        <g id="Group_6817" data-name="Group 6817" transform="translate(49.836)">
          <path id="Path_8935" data-name="Path 8935" d="M818.038,457.752c-14,38.507-87.943,264.182,75.921,329.942,0,0,80.524-143.564-70.86-331.912C821.774,454.133,818.953,455.236,818.038,457.752Z" transform="translate(-789.297 -455)" fill="#e2e2e2"/>
          <path id="Path_8936" data-name="Path 8936" d="M1018.585,693.327s-.272,4.569-.487,12.583-.377,19.468-.153,33.211.823,29.77,2.082,46.9c1.279,17.127,3.2,35.36,6.034,53.453,1.41,9.047,3.037,18.059,4.884,26.878s3.94,17.437,6.226,25.7,4.78,16.173,7.428,23.569,5.447,14.276,8.291,20.506,5.71,11.817,8.466,16.643c.678,1.213,1.387,2.356,2.043,3.475l.975,1.643.986,1.553,1.855,2.914,1.773,2.6c1.1,1.661,2.172,3.082,3.088,4.329q.688.934,1.273,1.726l1.108,1.4,2.03,2.564.025.031a1.044,1.044,0,1,1-1.637,1.3l0,0s-.714-.908-2.051-2.611q-.5-.638-1.119-1.424l-1.283-1.756c-.923-1.268-2-2.714-3.112-4.4q-.847-1.254-1.786-2.641-.892-1.413-1.866-2.958l-.991-1.575-.98-1.665c-.657-1.135-1.37-2.295-2.05-3.522-2.766-4.888-5.632-10.542-8.477-16.832s-5.633-13.232-8.264-20.684-5.107-15.411-7.37-23.722-4.318-16.975-6.145-25.827-3.411-17.9-4.788-26.976c-2.769-18.152-4.617-36.427-5.827-53.588-1.19-17.164-1.734-33.217-1.891-46.977-.33-27.526.83-45.861.83-45.861a.443.443,0,0,1,.468-.415A.433.433,0,0,1,1018.585,693.327Z" transform="translate(-981.201 -655.634)" fill="#aaa"/>
        </g>
        <g id="Group_6818" data-name="Group 6818" transform="translate(1.04 38.168)">
          <path id="Path_8937" data-name="Path 8937" d="M590.929,915.013S459.252,868.622,479.7,702.147c.341-2.775,4.721-4.311,7.225-2.532C510.231,716.153,590.038,782.424,590.929,915.013Z" transform="translate(-477.542 -698.853)" fill="#dfdfdf"/>
          <path id="Path_8938" data-name="Path 8938" d="M634.235,932.322l11.825,24.663c3.539,7.4,7.638,16.054,12,25.339,2.151,4.656,4.373,9.466,6.632,14.354l3.386,7.392q1.674,3.728,3.359,7.476c2.232,4.995,4.466,9.989,6.663,14.905,2.179,4.926,4.322,9.772,6.4,14.463,2.029,4.711,3.991,9.265,5.852,13.583s3.569,8.422,5.173,12.2c.806,1.886,1.556,3.7,2.257,5.439s1.377,3.375,2.008,4.918,1.219,2.988,1.764,4.325,1.019,2.573,1.46,3.688c1.748,4.458,2.748,7,2.748,7a.389.389,0,0,1-.72.3l0,0s-1.075-2.514-2.96-6.91c-.468-1.1-.985-2.32-1.546-3.647l-1.866-4.278c-1.337-3.052-2.844-6.5-4.487-10.252s-3.426-7.826-5.348-12.113-3.95-8.809-6.048-13.486-4.264-9.51-6.468-14.422c-2.223-4.9-4.48-9.883-6.737-14.865-4.519-9.96-9.039-19.919-13.276-29.255-4.209-9.351-8.136-18.078-11.5-25.56-3.387-7.472-6.209-13.7-8.184-18.058-.992-2.177-1.772-3.888-2.3-5.054s-.827-1.783-.827-1.783a.418.418,0,0,1,.754-.358Z" transform="translate(-609.04 -895.581)" fill="#878787"/>
        </g>
        <g id="Group_6820" data-name="Group 6820" transform="translate(3.47 129.636)">
          <path id="Path_8939" data-name="Path 8939" d="M512.764,1289.59l375.8-6.35c15.129-.255,27.274,12.72,26.375,28.183l-12.935,222.448a22.911,22.911,0,0,1-22.414,21.828l-361.235,3.572a16.662,16.662,0,0,1-16.633-16.233l-8.643-232.165A20.3,20.3,0,0,1,512.764,1289.59Z" transform="translate(-493.065 -1283.236)"/>
          <path id="Path_8940" data-name="Path 8940" d="M552.325,1327.463l365.992-6.042A25.314,25.314,0,0,1,944,1348.235l-12.6,211.637a22.081,22.081,0,0,1-21.828,20.769l-351.806,3.4a16.055,16.055,0,0,1-16.2-15.444l-8.418-220.883A19.509,19.509,0,0,1,552.325,1327.463Z" transform="translate(-526.866 -1315.441)" fill="#a4a4a4"/>
          <path id="Path_8941" data-name="Path 8941" d="M604,1402.093l349.591-5.661c14.074-.229,25.372,11.341,24.535,25.126l-12.033,198.315a20.92,20.92,0,0,1-20.85,19.46L609.2,1642.519a15.21,15.21,0,0,1-15.474-14.472l-8.041-206.979A18.438,18.438,0,0,1,604,1402.093Z" transform="translate(-571.177 -1378.712)" fill="#fff"/>
          <g id="Group_6819" data-name="Group 6819" transform="translate(32.994 30.89)">
            <path id="Path_8942" data-name="Path 8942" d="M807.487,1566.635,705,1566.9a.388.388,0,0,1-.388-.385l-.022-8.332a.389.389,0,0,1,.385-.388l102.487-.269a.389.389,0,0,1,.388.385l.022,8.332A.386.386,0,0,1,807.487,1566.635Z" transform="translate(-704.476 -1545.487)" fill="#8f8f8f" opacity="0.53"/>
            <path id="Path_8943" data-name="Path 8943" d="M1581.674,1566.815l-35.49.094a.373.373,0,0,1-.373-.369l-.022-8.363a.373.373,0,0,1,.369-.373l35.49-.094a.373.373,0,0,1,.373.37l.022,8.363A.37.37,0,0,1,1581.674,1566.815Z" transform="translate(-1414.01 -1545.639)" fill="#8f8f8f" opacity="0.53"/>
            <path id="Path_8944" data-name="Path 8944" d="M1895.98,1565.495l-70.378.185a.59.59,0,0,1-.592-.589l-.021-7.925a.59.59,0,0,1,.589-.592l70.378-.185a.59.59,0,0,1,.592.588l.02,7.925A.591.591,0,0,1,1895.98,1565.495Z" transform="translate(-1649.51 -1544.526)" fill="#8f8f8f" opacity="0.53"/>
            <path id="Path_8945" data-name="Path 8945" d="M730.974,1670.155l-26.5.071a.591.591,0,0,1-.592-.588l-.02-7.925a.59.59,0,0,1,.589-.592l26.5-.07a.59.59,0,0,1,.592.588l.02,7.925A.591.591,0,0,1,730.974,1670.155Z" transform="translate(-703.86 -1632.804)" fill="#8f8f8f" opacity="0.53"/>
            <path id="Path_8946" data-name="Path 8946" d="M960.833,1668.975l-74.322.2a.388.388,0,0,1-.388-.385l-.022-8.332a.388.388,0,0,1,.385-.388l74.324-.2a.388.388,0,0,1,.388.385l.022,8.332A.387.387,0,0,1,960.833,1668.975Z" transform="translate(-857.576 -1631.809)" fill="#8f8f8f" opacity="0.53"/>
            <path id="Path_8947" data-name="Path 8947" d="M1583.8,1669.155l-35.49.094a.373.373,0,0,1-.372-.369l-.022-8.363a.373.373,0,0,1,.369-.373l35.49-.094a.373.373,0,0,1,.373.37l.022,8.363A.371.371,0,0,1,1583.8,1669.155Z" transform="translate(-1415.807 -1631.961)" fill="#8f8f8f" opacity="0.53"/>
            <path id="Path_8948" data-name="Path 8948" d="M2091.25,1666.836l-103.648.272a.59.59,0,0,1-.592-.589l-.021-7.926a.591.591,0,0,1,.589-.592l103.648-.272a.59.59,0,0,1,.592.589l.021,7.926A.589.589,0,0,1,2091.25,1666.836Z" transform="translate(-1786.153 -1630.004)" fill="#8f8f8f" opacity="0.53"/>
            <path id="Path_8949" data-name="Path 8949" d="M731.114,1772.336l-26.5.071a.59.59,0,0,1-.592-.589l-.02-7.926a.59.59,0,0,1,.589-.592l26.5-.07a.59.59,0,0,1,.592.588l.02,7.925A.59.59,0,0,1,731.114,1772.336Z" transform="translate(-703.978 -1718.991)" fill="#8f8f8f" opacity="0.53"/>
            <path id="Path_8950" data-name="Path 8950" d="M960.864,1771.175l-74.324.2a.388.388,0,0,1-.388-.385l-.022-8.332a.388.388,0,0,1,.385-.388l74.324-.2a.388.388,0,0,1,.388.385l.022,8.332A.387.387,0,0,1,960.864,1771.175Z" transform="translate(-857.601 -1718.012)" fill="#8f8f8f" opacity="0.53"/>
            <path id="Path_8951" data-name="Path 8951" d="M1583.9,1771.345l-35.49.094a.373.373,0,0,1-.373-.369l-.022-8.363a.373.373,0,0,1,.369-.372l35.49-.094a.373.373,0,0,1,.373.369l.022,8.363A.37.37,0,0,1,1583.9,1771.345Z" transform="translate(-1415.891 -1718.156)" fill="#8f8f8f" opacity="0.53"/>
            <path id="Path_8952" data-name="Path 8952" d="M2205.251,1768.276l-135.419.357a.591.591,0,0,1-.592-.589l-.02-7.926a.591.591,0,0,1,.588-.592l135.419-.357a.591.591,0,0,1,.592.588l.02,7.927A.589.589,0,0,1,2205.251,1768.276Z" transform="translate(-1855.513 -1715.566)" fill="#8f8f8f" opacity="0.53"/>
            <path id="Path_8953" data-name="Path 8953" d="M732.8,1874.676l-26.5.071a.591.591,0,0,1-.592-.589l-.02-7.926a.591.591,0,0,1,.589-.592l26.5-.07a.59.59,0,0,1,.592.588l.02,7.925A.591.591,0,0,1,732.8,1874.676Z" transform="translate(-705.403 -1805.313)" fill="#8f8f8f" opacity="0.53"/>
            <path id="Path_8954" data-name="Path 8954" d="M963.654,1873.5l-74.324.2a.388.388,0,0,1-.388-.385l-.022-8.331a.388.388,0,0,1,.385-.388l74.324-.2a.388.388,0,0,1,.388.385l.022,8.332A.384.384,0,0,1,963.654,1873.5Z" transform="translate(-859.954 -1804.326)" fill="#8f8f8f" opacity="0.53"/>
            <path id="Path_8955" data-name="Path 8955" d="M1586.034,1873.685l-35.489.094a.373.373,0,0,1-.373-.369l-.022-8.363a.373.373,0,0,1,.369-.373l35.49-.094a.373.373,0,0,1,.373.369l.022,8.363A.371.371,0,0,1,1586.034,1873.685Z" transform="translate(-1417.688 -1804.477)" fill="#8f8f8f" opacity="0.53"/>
            <path id="Path_8956" data-name="Path 8956" d="M2210.1,1870.615l-135.419.357a.591.591,0,0,1-.592-.589l-.021-7.925a.591.591,0,0,1,.589-.592l135.419-.357a.59.59,0,0,1,.591.589l.021,7.926A.587.587,0,0,1,2210.1,1870.615Z" transform="translate(-1859.603 -1801.888)" fill="#8f8f8f" opacity="0.53"/>
            <path id="Path_8957" data-name="Path 8957" d="M732.544,1980.876l-26.5.07a.59.59,0,0,1-.592-.588l-.02-7.926a.591.591,0,0,1,.589-.592l26.5-.071a.591.591,0,0,1,.592.589l.02,7.926A.59.59,0,0,1,732.544,1980.876Z" transform="translate(-705.184 -1894.89)" fill="#8f8f8f" opacity="0.53"/>
            <path id="Path_8958" data-name="Path 8958" d="M962.993,1979.705l-74.323.2a.389.389,0,0,1-.388-.385l-.022-8.332a.389.389,0,0,1,.385-.388l74.324-.2a.389.389,0,0,1,.388.385l.022,8.332A.388.388,0,0,1,962.993,1979.705Z" transform="translate(-859.398 -1893.903)" fill="#8f8f8f" opacity="0.53"/>
            <path id="Path_8959" data-name="Path 8959" d="M1585.614,1979.875l-35.49.094a.373.373,0,0,1-.373-.369l-.022-8.363a.372.372,0,0,1,.369-.372l35.49-.094a.373.373,0,0,1,.373.369l.022,8.363A.369.369,0,0,1,1585.614,1979.875Z" transform="translate(-1417.333 -1894.046)" fill="#8f8f8f" opacity="0.53"/>
            <path id="Path_8960" data-name="Path 8960" d="M2208.651,1976.815l-135.419.357a.591.591,0,0,1-.592-.589l-.02-7.925a.59.59,0,0,1,.588-.592l135.419-.357a.59.59,0,0,1,.592.588l.02,7.926A.589.589,0,0,1,2208.651,1976.815Z" transform="translate(-1858.38 -1891.465)" fill="#8f8f8f" opacity="0.53"/>
            <path id="Path_8961" data-name="Path 8961" d="M734.234,2083.206l-26.5.071a.591.591,0,0,1-.592-.589l-.02-7.926a.59.59,0,0,1,.589-.592l26.5-.071a.59.59,0,0,1,.592.588l.02,7.926A.587.587,0,0,1,734.234,2083.206Z" transform="translate(-706.61 -1981.203)" fill="#8f8f8f" opacity="0.53"/>
            <path id="Path_8962" data-name="Path 8962" d="M965.783,2082.035l-74.323.2a.388.388,0,0,1-.388-.385l-.022-8.332a.388.388,0,0,1,.385-.388l74.324-.2a.388.388,0,0,1,.388.385l.022,8.332A.387.387,0,0,1,965.783,2082.035Z" transform="translate(-861.751 -1980.217)" fill="#8f8f8f" opacity="0.53"/>
            <path id="Path_8963" data-name="Path 8963" d="M1587.744,2082.215l-35.49.094a.373.373,0,0,1-.372-.369l-.022-8.363a.373.373,0,0,1,.369-.373l35.49-.094a.373.373,0,0,1,.373.369l.022,8.363A.37.37,0,0,1,1587.744,2082.215Z" transform="translate(-1419.13 -1980.368)" fill="#8f8f8f" opacity="0.53"/>
            <path id="Path_8964" data-name="Path 8964" d="M1909.462,2080.687l-82.51.218a.591.591,0,0,1-.592-.588l-.02-7.927a.59.59,0,0,1,.588-.591l82.51-.218a.59.59,0,0,1,.592.588l.021,7.927A.588.588,0,0,1,1909.462,2080.687Z" transform="translate(-1650.648 -1979.078)" fill="#8f8f8f" opacity="0.53"/>
            <path id="Path_8965" data-name="Path 8965" d="M811.36,2184.235l-103.05.271a.388.388,0,0,1-.388-.385l-.022-8.332a.388.388,0,0,1,.385-.388l103.05-.271a.388.388,0,0,1,.388.385l.022,8.332A.385.385,0,0,1,811.36,2184.235Z" transform="translate(-707.268 -2066.42)" fill="#8f8f8f" opacity="0.53"/>
            <path id="Path_8966" data-name="Path 8966" d="M1587.844,2184.405l-35.49.094a.373.373,0,0,1-.373-.369l-.022-8.363a.373.373,0,0,1,.369-.372l35.49-.094a.373.373,0,0,1,.372.369l.022,8.363A.369.369,0,0,1,1587.844,2184.405Z" transform="translate(-1419.214 -2066.563)" fill="#8f8f8f" opacity="0.53"/>
            <path id="Path_8967" data-name="Path 8967" d="M2050.89,2182.225l-103.158.272a.591.591,0,0,1-.592-.588l-.02-7.925a.591.591,0,0,1,.589-.592l103.158-.272a.591.591,0,0,1,.592.588l.02,7.927A.59.59,0,0,1,2050.89,2182.225Z" transform="translate(-1752.524 -2064.724)" fill="#8f8f8f" opacity="0.53"/>
            <path id="Path_8968" data-name="Path 8968" d="M735.386,2287.756l-25.394.067a.59.59,0,0,1-.592-.588l-.02-7.926a.591.591,0,0,1,.589-.592l25.394-.067a.591.591,0,0,1,.592.589l.02,7.926A.589.589,0,0,1,735.386,2287.756Z" transform="translate(-708.516 -2153.737)" fill="#8f8f8f" opacity="0.53"/>
            <path id="Path_8969" data-name="Path 8969" d="M968.6,2286.575l-74.324.2a.389.389,0,0,1-.388-.385l-.022-8.332a.389.389,0,0,1,.385-.388l74.324-.2a.388.388,0,0,1,.388.385l.022,8.332A.386.386,0,0,1,968.6,2286.575Z" transform="translate(-864.129 -2152.741)" fill="#8f8f8f" opacity="0.53"/>
            <path id="Path_8970" data-name="Path 8970" d="M1589.974,2286.745l-35.49.094a.373.373,0,0,1-.373-.369l-.022-8.363a.373.373,0,0,1,.369-.373l35.49-.094a.373.373,0,0,1,.373.369l.022,8.363A.37.37,0,0,1,1589.974,2286.745Z" transform="translate(-1421.011 -2152.885)" fill="#8f8f8f" opacity="0.53"/>
            <path id="Path_8971" data-name="Path 8971" d="M2190.21,2283.675l-140.058.369a.59.59,0,0,1-.592-.588l-.021-7.925a.59.59,0,0,1,.589-.591l140.058-.37a.591.591,0,0,1,.592.588l.02,7.927A.587.587,0,0,1,2190.21,2283.675Z" transform="translate(-1838.913 -2150.295)" fill="#8f8f8f" opacity="0.53"/>
            <path id="Path_8972" data-name="Path 8972" d="M733.2,2593.156l-26.5.071a.591.591,0,0,1-.592-.589l-.02-7.926a.59.59,0,0,1,.589-.591l26.5-.071a.591.591,0,0,1,.592.589l.02,7.926A.589.589,0,0,1,733.2,2593.156Z" transform="translate(-705.741 -2411.335)" fill="#8f8f8f" opacity="0.53"/>
            <path id="Path_8973" data-name="Path 8973" d="M964.982,2591.985l-74.322.2a.388.388,0,0,1-.388-.385l-.022-8.332a.389.389,0,0,1,.385-.388l74.324-.2a.388.388,0,0,1,.388.385l.022,8.331A.387.387,0,0,1,964.982,2591.985Z" transform="translate(-861.076 -2410.349)" fill="#8f8f8f" opacity="0.53"/>
            <path id="Path_8974" data-name="Path 8974" d="M1586.714,2592.165l-35.49.094a.373.373,0,0,1-.373-.369l-.022-8.363a.373.373,0,0,1,.37-.373l35.49-.094a.373.373,0,0,1,.373.369l.022,8.363A.371.371,0,0,1,1586.714,2592.165Z" transform="translate(-1418.261 -2410.5)" fill="#8f8f8f" opacity="0.53"/>
            <path id="Path_8975" data-name="Path 8975" d="M1908.432,2590.636l-82.51.218a.59.59,0,0,1-.592-.588l-.021-7.926a.591.591,0,0,1,.589-.592l82.51-.218a.591.591,0,0,1,.592.589l.02,7.925A.59.59,0,0,1,1908.432,2590.636Z" transform="translate(-1649.779 -2409.209)" fill="#8f8f8f" opacity="0.53"/>
            <path id="Path_8976" data-name="Path 8976" d="M810.56,2694.185l-103.05.271a.388.388,0,0,1-.388-.385l-.022-8.332a.388.388,0,0,1,.385-.388l103.05-.271a.388.388,0,0,1,.388.385l.022,8.332A.386.386,0,0,1,810.56,2694.185Z" transform="translate(-706.593 -2496.552)" fill="#8f8f8f" opacity="0.53"/>
            <path id="Path_8977" data-name="Path 8977" d="M1586.814,2694.354l-35.49.094a.373.373,0,0,1-.373-.37l-.022-8.363a.373.373,0,0,1,.369-.373l35.49-.094a.373.373,0,0,1,.372.369l.022,8.363A.37.37,0,0,1,1586.814,2694.354Z" transform="translate(-1418.346 -2496.695)" fill="#8f8f8f" opacity="0.53"/>
            <path id="Path_8978" data-name="Path 8978" d="M2049.5,2692.167l-103.158.272a.59.59,0,0,1-.592-.588l-.021-7.926a.591.591,0,0,1,.589-.592l103.158-.272a.59.59,0,0,1,.592.588l.02,7.926A.592.592,0,0,1,2049.5,2692.167Z" transform="translate(-1751.351 -2494.848)" fill="#8f8f8f" opacity="0.53"/>
            <path id="Path_8979" data-name="Path 8979" d="M734.346,2797.706l-25.394.067a.59.59,0,0,1-.592-.589l-.02-7.926a.59.59,0,0,1,.589-.592l25.394-.067a.591.591,0,0,1,.592.588l.02,7.926A.589.589,0,0,1,734.346,2797.706Z" transform="translate(-707.639 -2583.869)" fill="#8f8f8f" opacity="0.53"/>
            <path id="Path_8980" data-name="Path 8980" d="M967.8,2796.515l-74.324.2a.388.388,0,0,1-.388-.385l-.022-8.332a.389.389,0,0,1,.385-.389l74.324-.2a.389.389,0,0,1,.388.385l.022,8.332A.385.385,0,0,1,967.8,2796.515Z" transform="translate(-863.455 -2582.865)" fill="#8f8f8f" opacity="0.53"/>
            <path id="Path_8981" data-name="Path 8981" d="M1588.944,2796.7l-35.49.094a.373.373,0,0,1-.373-.37l-.022-8.363a.372.372,0,0,1,.369-.372l35.49-.094a.373.373,0,0,1,.373.369l.022,8.363A.37.37,0,0,1,1588.944,2796.7Z" transform="translate(-1420.142 -2583.017)" fill="#8f8f8f" opacity="0.53"/>
            <path id="Path_8982" data-name="Path 8982" d="M2188.82,2793.616l-140.058.369a.591.591,0,0,1-.592-.588l-.02-7.926a.59.59,0,0,1,.588-.592l140.058-.369a.59.59,0,0,1,.592.588l.021,7.925A.589.589,0,0,1,2188.82,2793.616Z" transform="translate(-1837.74 -2580.419)" fill="#8f8f8f" opacity="0.53"/>
            <path id="Path_8983" data-name="Path 8983" d="M733.676,2391.846l-25.394.067a.59.59,0,0,1-.592-.588l-.02-7.927a.59.59,0,0,1,.589-.591l25.394-.067a.591.591,0,0,1,.592.589l.02,7.926A.59.59,0,0,1,733.676,2391.846Z" transform="translate(-707.074 -2241.534)" fill="#8f8f8f" opacity="0.53"/>
            <path id="Path_8984" data-name="Path 8984" d="M965.214,2390.665l-74.324.2a.388.388,0,0,1-.388-.385l-.022-8.332a.388.388,0,0,1,.385-.388l74.324-.2a.388.388,0,0,1,.388.385l.022,8.332A.385.385,0,0,1,965.214,2390.665Z" transform="translate(-861.27 -2240.539)" fill="#8f8f8f" opacity="0.53"/>
            <path id="Path_8985" data-name="Path 8985" d="M1587.544,2390.835l-35.49.094a.373.373,0,0,1-.373-.369l-.022-8.363a.372.372,0,0,1,.369-.372l35.49-.094a.373.373,0,0,1,.373.369l.022,8.363A.369.369,0,0,1,1587.544,2390.835Z" transform="translate(-1418.962 -2240.683)" fill="#8f8f8f" opacity="0.53"/>
            <path id="Path_8986" data-name="Path 8986" d="M2183.59,2387.776l-140.058.369a.59.59,0,0,1-.592-.588l-.02-7.926a.59.59,0,0,1,.588-.591l140.058-.37a.59.59,0,0,1,.592.588l.021,7.927A.591.591,0,0,1,2183.59,2387.776Z" transform="translate(-1833.329 -2238.101)" fill="#8f8f8f" opacity="0.53"/>
            <path id="Path_8987" data-name="Path 8987" d="M735.306,2494.187l-25.394.067a.59.59,0,0,1-.592-.588l-.02-7.927a.591.591,0,0,1,.589-.591l25.394-.067a.591.591,0,0,1,.592.589l.02,7.926A.59.59,0,0,1,735.306,2494.187Z" transform="translate(-708.448 -2327.856)" fill="#8f8f8f" opacity="0.53"/>
            <path id="Path_8988" data-name="Path 8988" d="M968,2493l-74.324.2a.389.389,0,0,1-.388-.385l-.022-8.332a.389.389,0,0,1,.385-.388l74.324-.2a.389.389,0,0,1,.388.385l.022,8.332A.387.387,0,0,1,968,2493Z" transform="translate(-863.623 -2326.861)" fill="#8f8f8f" opacity="0.53"/>
            <path id="Path_8989" data-name="Path 8989" d="M1589.674,2493.175l-35.49.094a.373.373,0,0,1-.373-.37l-.022-8.363a.373.373,0,0,1,.369-.373l35.49-.094a.372.372,0,0,1,.372.37l.022,8.362A.369.369,0,0,1,1589.674,2493.175Z" transform="translate(-1420.758 -2327.005)" fill="#8f8f8f" opacity="0.53"/>
            <path id="Path_8990" data-name="Path 8990" d="M2188.6,2490.115l-140.058.37a.591.591,0,0,1-.592-.589l-.02-7.925a.59.59,0,0,1,.588-.591l140.058-.37a.59.59,0,0,1,.592.588l.021,7.927A.59.59,0,0,1,2188.6,2490.115Z" transform="translate(-1837.555 -2324.423)" fill="#8f8f8f" opacity="0.53"/>
            <path id="Path_8991" data-name="Path 8991" d="M1452.107,1704.982l-2.91.008a.217.217,0,0,1-.217-.216l-.59-223.958a.218.218,0,0,1,.216-.218l2.91-.008a.218.218,0,0,1,.218.216l.59,223.958A.216.216,0,0,1,1452.107,1704.982Z" transform="translate(-1331.855 -1480.59)" fill="#8f8f8f" opacity="0.53"/>
          </g>
        </g>
        <g id="Group_6835" data-name="Group 6835" transform="translate(10.605 39.764)">
          <g id="Group_6821" data-name="Group 6821" transform="translate(36.804 297.016)">
            <path id="Path_8992" data-name="Path 8992" d="M978.213,3173.05H777.046a3.256,3.256,0,1,0,0,6.511H978.213a3.256,3.256,0,1,0,0-6.511Z" transform="translate(-773.79 -3084.398)" fill="#7e7e7e"/>
            <path id="Path_8993" data-name="Path 8993" d="M1078.4,2961.53H934.22a7.87,7.87,0,0,0-7.87,7.87v25.238h159.921V2969.4A7.87,7.87,0,0,0,1078.4,2961.53Z" transform="translate(-902.471 -2905.985)" fill="#c5c5c5"/>
            <path id="Path_8994" data-name="Path 8994" d="M1125.216,2871.68H1002.37a7.87,7.87,0,0,0-7.87,7.87v6.192h138.587v-6.192A7.871,7.871,0,0,0,1125.216,2871.68Z" transform="translate(-959.954 -2830.199)" fill="#929292"/>
            <path id="Path_8995" data-name="Path 8995" d="M1274.791,2648.141H1200.78v-39.5a1.982,1.982,0,0,1,1.982-1.982h70.046a1.982,1.982,0,0,1,1.982,1.982v39.5Z" transform="translate(-1133.947 -2606.66)" fill="#b9b9b9"/>
          </g>
          <g id="Group_6824" data-name="Group 6824" transform="translate(8.987 137.529)">
            <g id="Group_6822" data-name="Group 6822">
              <path id="Path_8996" data-name="Path 8996" d="M658.249,1826.14a4.533,4.533,0,0,0-.354,6.3l101.275,118.263a4.534,4.534,0,0,0,6.5.365l8.617-7.934L662.746,1822Z" transform="translate(-647.283 -1785.329)" fill="#575757"/>
              <path id="Path_8997" data-name="Path 8997" d="M620.9,1590.527a9.149,9.149,0,0,0-12.8-.4l-9.083,8.363a9.149,9.149,0,0,0-.659,12.789l120.841,137.8,25.33-23.323a4.97,4.97,0,0,0,.207-7.111Z" transform="translate(-596.067 -1587.712)" fill="#575757"/>
              <path id="Path_8998" data-name="Path 8998" d="M792.4,1779.86l-.95.875a7.241,7.241,0,0,0-.423,10.23l63.768,69.257a7.241,7.241,0,0,0,10.23.423l.95-.875a7.241,7.241,0,0,0,.423-10.23l-63.768-69.257A7.241,7.241,0,0,0,792.4,1779.86Z" transform="translate(-758.9 -1748.171)" fill="#aeaeae"/>
              <rect id="Rectangle_803" data-name="Rectangle 803" width="3.639" height="108.624" transform="translate(31.682 33.373) rotate(-42.633)" fill="#fff"/>
            </g>
            <g id="Group_6823" data-name="Group 6823" transform="translate(97.617 115.69)">
              <circle id="Ellipse_340" data-name="Ellipse 340" cx="32.284" cy="32.284" r="32.284" transform="translate(2.594 2.591)" fill="#404040"/>
              <circle id="Ellipse_341" data-name="Ellipse 341" cx="24.66" cy="24.66" r="24.66" transform="translate(0 34.874) rotate(-45)" fill="#cfcfcf"/>
            </g>
          </g>
          <g id="Group_6827" data-name="Group 6827" transform="translate(0 16.037)">
            <g id="Group_6825" data-name="Group 6825" transform="translate(11.623)">
              <path id="Path_8999" data-name="Path 8999" d="M752.31,1106.866l8,4.948a3.64,3.64,0,0,0,5.067-1.274l61.912-108.629a3.638,3.638,0,0,0-1.237-4.918l-4.173-2.583Z" transform="translate(-730.491 -965.782)" fill="#393939"/>
              <path id="Path_9000" data-name="Path 9000" d="M701.8,812.609l8.432,5.217a7.345,7.345,0,0,1,2.46,9.984l-74.376,127L614.8,940.266a3.993,3.993,0,0,1-1.243-5.577l78.206-119.826A7.349,7.349,0,0,1,701.8,812.609Z" transform="translate(-612.912 -811.508)" fill="#4a4a4a"/>
              <path id="Path_9001" data-name="Path 9001" d="M805.547,1007.187l-41.588,67.224a6.332,6.332,0,1,0,10.77,6.663l41.588-67.224a6.332,6.332,0,1,0-10.77-6.663Z" transform="translate(-739.517 -974.027)" fill="#d1d1d1"/>
              <rect id="Rectangle_804" data-name="Rectangle 804" width="91.714" height="2.922" transform="matrix(0.526, -0.85, 0.85, 0.526, 25.249, 108.337)" fill="#fff"/>
            </g>
            <g id="Group_6826" data-name="Group 6826" transform="translate(0 108.199)">
              <circle id="Ellipse_342" data-name="Ellipse 342" cx="25.925" cy="25.925" r="25.925" transform="translate(2.083 2.082)" fill="#292929"/>
              <circle id="Ellipse_343" data-name="Ellipse 343" cx="19.803" cy="19.803" r="19.803" transform="translate(0 28.005) rotate(-45)" fill="#d5d5d5"/>
            </g>
          </g>
          <g id="Group_6828" data-name="Group 6828" transform="translate(100.877 8.414)">
            <path id="Path_9002" data-name="Path 9002" d="M1269.758,816.613l-4.044,6.649c-1.631,2.681-4.581,3.886-6.64,2.711l-75.924-42.907,11.279-18.543c.914-1.5,2.584-2.144,3.7-1.418l70.985,46.366C1271.1,810.758,1271.389,813.932,1269.758,816.613Z" transform="translate(-1183.15 -762.805)" fill="#434343"/>
          </g>
          <g id="Group_6829" data-name="Group 6829" transform="translate(90.738)">
            <circle id="Ellipse_344" data-name="Ellipse 344" cx="20.349" cy="20.349" r="20.349" fill="#2c2c2c"/>
            <circle id="Ellipse_345" data-name="Ellipse 345" cx="15.544" cy="15.544" r="15.544" transform="matrix(0.085, -0.996, 0.996, 0.085, 3.537, 34.514)" fill="#d8d8d8"/>
          </g>
          <path id="Path_9003" data-name="Path 9003" d="M1818.5,1052.534l17-12.274,23.56,28.651-3.572,4.218-21.3-22.849-13.159,9.631Z" transform="translate(-1618.177 -988.419)" fill="#1a1a1a"/>
          <g id="Group_6833" data-name="Group 6833" transform="translate(178.402 16.452)">
            <g id="Group_6830" data-name="Group 6830" transform="translate(105.015)" opacity="0.3">
              <path id="Path_9004" data-name="Path 9004" d="M2349.447,815.976a2.38,2.38,0,0,1,2.629-1.792c2.664.36,5.35.844,7.987,1.432a2.38,2.38,0,0,1,1.8,2.841c0,.016-.008.03-.011.046a2.38,2.38,0,0,1-2.83,1.758c-2.5-.56-5.057-1.017-7.587-1.362a2.38,2.38,0,0,1-2.038-2.678A2.083,2.083,0,0,1,2349.447,815.976Zm20.1,5.059a2.5,2.5,0,0,1,.083-.271,2.379,2.379,0,0,1,3.06-1.4c2.53.944,5.043,2,7.471,3.152a2.379,2.379,0,1,1-2.034,4.3c-2.309-1.091-4.7-2.1-7.1-2.994A2.379,2.379,0,0,1,2369.549,821.034Zm18.488,9.358a2.409,2.409,0,0,1,.324-.743,2.38,2.38,0,0,1,3.295-.682c2.25,1.479,4.465,3.074,6.583,4.743a2.379,2.379,0,0,1-2.945,3.738c-2.01-1.584-4.114-3.1-6.251-4.5A2.379,2.379,0,0,1,2388.037,830.393Zm15.934,13.259a2.38,2.38,0,0,1,4.029-1.08c1.864,1.947,3.667,4,5.358,6.095a2.38,2.38,0,0,1-3.707,2.986c-1.606-1.993-3.318-3.94-5.09-5.79A2.383,2.383,0,0,1,2403.971,843.652Zm12.578,16.482a2.379,2.379,0,0,1,4.351-.661c1.382,2.306,2.686,4.7,3.874,7.126a2.379,2.379,0,1,1-4.273,2.094c-1.128-2.3-2.367-4.581-3.682-6.773A2.37,2.37,0,0,1,2416.549,860.133Zm8.618,18.85a2.38,2.38,0,0,1,4.573-.182c.84,2.559,1.581,5.186,2.2,7.807a2.38,2.38,0,0,1-4.631,1.1c-.59-2.492-1.293-4.987-2.091-7.417A2.348,2.348,0,0,1,2425.167,878.983Zm-15.146,86.049a2.385,2.385,0,0,1,.439-.9c1.579-2.011,3.091-4.117,4.494-6.261a2.379,2.379,0,1,1,3.982,2.6c-1.478,2.259-3.069,4.477-4.731,6.594a2.38,2.38,0,0,1-4.184-2.033Zm19.369-65.77a2.38,2.38,0,0,1,4.682.343c.25,2.681.387,5.406.405,8.1a2.379,2.379,0,1,1-4.758.033c-.017-2.557-.147-5.145-.385-7.692A2.38,2.38,0,0,1,2429.39,899.262Zm-8.488,48.129a2.51,2.51,0,0,1,.158-.452c1.089-2.315,2.093-4.707,2.983-7.109a2.38,2.38,0,1,1,4.462,1.654c-.937,2.528-1.994,5.046-3.14,7.482a2.379,2.379,0,0,1-4.464-1.575Zm8.075-27.415a2.379,2.379,0,0,1,4.669.881c-.357,2.667-.833,5.354-1.417,7.987,0,.016-.008.033-.011.05a2.379,2.379,0,0,1-4.635-1.078c.554-2.5,1.006-5.054,1.345-7.588A2.432,2.432,0,0,1,2428.977,919.976Z" transform="translate(-2349.38 -814.162)" fill="#787878"/>
              <path id="Path_9005" data-name="Path 9005" d="M2663.2,1832.05a2.367,2.367,0,0,1,.734-1.216c.918-.812,1.836-1.657,2.728-2.512a2.378,2.378,0,1,1,3.293,3.433c-.936.9-1.9,1.787-2.869,2.644a2.379,2.379,0,0,1-3.887-2.348Z" transform="translate(-2614.025 -1669.025)" fill="#787878"/>
            </g>
            <g id="Group_6831" data-name="Group 6831" transform="translate(0 19.708)" opacity="0.3">
              <path id="Path_9006" data-name="Path 9006" d="M2223.688,1992.975a2.381,2.381,0,0,1,2.5-1.806c1.222.1,2.468.174,3.7.221a2.379,2.379,0,0,1-.185,4.755c-1.3-.052-2.609-.13-3.9-.233a2.377,2.377,0,0,1-2.18-2.562A2.418,2.418,0,0,1,2223.688,1992.975Z" transform="translate(-2138.289 -1826.644)" fill="#787878"/>
              <path id="Path_9007" data-name="Path 9007" d="M1681.152,1053.863q.39-1.6.834-3.19a2.38,2.38,0,0,1,4.584,1.282c-.686,2.453-1.271,4.927-1.744,7.383a2.38,2.38,0,0,1-4.674-.9C1680.447,1056.922,1680.783,1055.381,1681.152,1053.863Zm5.039-15.028a2.5,2.5,0,0,1,.128-.383c1.053-2.437,2.224-4.855,3.475-7.189a2.379,2.379,0,0,1,4.193,2.249c-1.19,2.216-2.3,4.514-3.3,6.829a2.379,2.379,0,0,1-4.5-1.506Zm-7.544,32.035a2.38,2.38,0,0,1,4.688.693c-.133,2.511-.161,5.06-.082,7.58a2.379,2.379,0,1,1-4.757.15c-.084-2.653-.055-5.339.086-7.983A2.4,2.4,0,0,1,1678.647,1070.871Zm17.658-49.753a2.376,2.376,0,0,1,.39-.837c1.562-2.143,3.235-4.245,4.971-6.248a2.38,2.38,0,0,1,3.6,3.118c-1.648,1.9-3.237,3.9-4.721,5.934a2.38,2.38,0,0,1-4.236-1.966Zm-16.477,70.1a2.38,2.38,0,0,1,4.658.163c.421,2.476.957,4.969,1.587,7.411a2.379,2.379,0,0,1-4.606,1.191c-.665-2.57-1.227-5.2-1.672-7.8A2.359,2.359,0,0,1,1679.828,1091.222Zm5.618,19.6a2.378,2.378,0,0,1,4.512-.341c.957,2.332,2.022,4.65,3.168,6.89a2.379,2.379,0,1,1-4.237,2.165c-1.205-2.359-2.328-4.8-3.332-7.252A2.343,2.343,0,0,1,1685.446,1110.821Zm9.756,17.909a2.38,2.38,0,0,1,4.264-.8c1.441,2.069,2.986,4.1,4.592,6.037a2.379,2.379,0,0,1-3.663,3.036c-1.689-2.038-3.315-4.176-4.833-6.353A2.377,2.377,0,0,1,1695.2,1128.73Zm13.431,15.353a2.379,2.379,0,0,1,3.918-1.19c1.86,1.7,3.811,3.347,5.8,4.883a2.379,2.379,0,0,1-2.907,3.768c-2.1-1.618-4.154-3.348-6.111-5.142A2.376,2.376,0,0,1,1708.633,1144.083Zm16.479,12.036a2.418,2.418,0,0,1,.247-.618,2.379,2.379,0,0,1,3.246-.884c2.184,1.247,4.448,2.42,6.733,3.483a2.379,2.379,0,1,1-2.007,4.315c-2.406-1.119-4.791-2.351-7.089-3.666A2.383,2.383,0,0,1,1725.112,1156.12Zm18.707,8.115c.011-.047.025-.1.039-.142a2.379,2.379,0,0,1,2.976-1.57c1.772.548,3.581,1.049,5.38,1.487q.977.237,1.953.454a2.377,2.377,0,0,1,1.809,2.836,2.353,2.353,0,0,1-2.836,1.811q-1.028-.228-2.055-.477c-1.892-.462-3.8-.988-5.66-1.563A2.381,2.381,0,0,1,1743.819,1164.235Z" transform="translate(-1678.449 -1001.765)" fill="#787878"/>
              <path id="Path_9008" data-name="Path 9008" d="M1880.415,944.338a2.373,2.373,0,0,1,.743-1.225c.969-.848,1.975-1.692,2.988-2.509a2.379,2.379,0,0,1,2.983,3.706c-.962.775-1.917,1.578-2.838,2.382a2.378,2.378,0,0,1-3.877-2.354Z" transform="translate(-1848.745 -940.077)" fill="#787878"/>
            </g>
            <g id="Group_6832" data-name="Group 6832" transform="translate(25.781 24.486)">
              <path id="Path_9009" data-name="Path 9009" d="M1875.1,979.74a1.114,1.114,0,0,0-.626,1.128l1.531,13.448a58.967,58.967,0,0,0-12.783,14.195l-13.525-.108a1.113,1.113,0,0,0-1.056.74l-5.416,15.3a1.112,1.112,0,0,0,.355,1.241l10.584,8.422a58.981,58.981,0,0,0,1.011,19.075l-9.646,9.493a1.113,1.113,0,0,0-.224,1.271l6.993,14.652a1.112,1.112,0,0,0,1.13.626l13.448-1.529a58.966,58.966,0,0,0,14.195,12.783l-.108,13.525a1.113,1.113,0,0,0,.74,1.056l15.3,5.416a1.113,1.113,0,0,0,1.241-.355l8.422-10.584a58.947,58.947,0,0,0,19.075-1.011l9.495,9.646a1.112,1.112,0,0,0,1.271.224l14.652-6.993a1.111,1.111,0,0,0,.626-1.129l-1.531-13.448a58.936,58.936,0,0,0,12.783-14.195l13.526.108a1.113,1.113,0,0,0,1.057-.74l5.416-15.3a1.112,1.112,0,0,0-.355-1.241l-10.584-8.422a58.99,58.99,0,0,0-1.011-19.075l9.646-9.493a1.113,1.113,0,0,0,.224-1.271l-6.993-14.652a1.111,1.111,0,0,0-1.128-.626l-13.448,1.529a58.969,58.969,0,0,0-14.2-12.783l.108-13.525a1.111,1.111,0,0,0-.742-1.057l-15.3-5.416a1.113,1.113,0,0,0-1.241.355l-8.422,10.584a58.988,58.988,0,0,0-19.075,1.011l-9.493-9.646a1.113,1.113,0,0,0-1.271-.224Z" transform="translate(-1843.163 -970.603)" fill="#3d3d3d"/>
              <path id="Path_9010" data-name="Path 9010" d="M2186.411,1325.822a16.337,16.337,0,1,1-.394,2.365A16.066,16.066,0,0,1,2186.411,1325.822Zm28,6.865a12.674,12.674,0,0,0,.307-1.83,12.485,12.485,0,1,0-.307,1.83Z" transform="translate(-2132.293 -1259.726)" fill="#fff" opacity="0.7"/>
              <path id="Path_9011" data-name="Path 9011" d="M2035.963,1193.85a41.029,41.029,0,0,1,1.177-3.952h0q.218-.618.456-1.225a40.535,40.535,0,0,1,2.8-5.782l.044-.075.127-.213c.083-.138.166-.276.25-.412a.952.952,0,0,1,1.035-.426.938.938,0,0,1,.275.116.951.951,0,0,1,.31,1.308,38.253,38.253,0,0,0,19.776,56.127,38.8,38.8,0,0,0,3.771,1.124,38.225,38.225,0,1,0,1.417-74.631.952.952,0,1,1-.379-1.866,40.011,40.011,0,0,1,17.415.348q1.974.481,3.907,1.163a40.128,40.128,0,0,1-22.808,76.836,41.105,41.105,0,0,1-3.957-1.178,40.129,40.129,0,0,1-25.62-47.262Z" transform="translate(-2004.823 -1133.012)" fill="#fff" opacity="0.7"/>
            </g>
          </g>
          <g id="Group_6834" data-name="Group 6834" transform="translate(175.519 52.694)">
            <path id="Path_9012" data-name="Path 9012" d="M1681.395,1050.223l-7.408-4.467a.343.343,0,0,0-.47.116l-13.44,22.287a.343.343,0,0,0,.116.47l7.408,4.467a.343.343,0,0,0,.469-.116l13.441-22.287A.343.343,0,0,0,1681.395,1050.223Z" transform="translate(-1660.027 -1045.707)" fill="#464646"/>
            <path id="Path_9013" data-name="Path 9013" d="M1776.06,1241.166l-2.62,20.806,36.44,6.936,1.99-5.156-30.265-7.737,2.144-16.166Z" transform="translate(-1755.688 -1209.462)" fill="#1a1a1a"/>
            <path id="Path_9014" data-name="Path 9014" d="M1755.11,1125.212a13.167,13.167,0,1,0,13.741-22.192Z" transform="translate(-1740.228 -1094.049)" fill="#474747"/>
            <path id="Path_9015" data-name="Path 9015" d="M1694.726,1077.849l-2.151,3.567a1.411,1.411,0,0,0,.545,1.917l6.613,3.988a1.41,1.41,0,0,0,1.949-.413l17.148-28.438a1.409,1.409,0,0,0-.545-1.916l-6.613-3.988a1.411,1.411,0,0,0-1.949.413l-1.97,3.268Z" transform="translate(-1687.325 -1051.306)" fill="#ababab"/>
          </g>
        </g>
        <g id="Group_6839" data-name="Group 6839" transform="translate(258.68 218.753)">
          <g id="Group_6836" data-name="Group 6836" transform="translate(46.564)" opacity="0.3">
            <path id="Path_9016" data-name="Path 9016" d="M2421.08,1854.3a1.355,1.355,0,0,1,1.2-1.36c1.52-.177,3.069-.291,4.606-.34a1.354,1.354,0,0,1,1.4,1.312v.027a1.354,1.354,0,0,1-1.312,1.369c-1.46.045-2.934.154-4.376.323a1.353,1.353,0,0,1-1.5-1.188C2421.084,1854.39,2421.081,1854.343,2421.08,1854.3Zm11.8-.053a1.509,1.509,0,0,1,.008-.161,1.355,1.355,0,0,1,1.49-1.2c1.528.163,3.064.393,4.566.682a1.354,1.354,0,1,1-.514,2.659c-1.428-.275-2.886-.493-4.339-.648A1.353,1.353,0,0,1,2432.879,1854.243Zm11.519,2.548a1.37,1.37,0,0,1,.073-.455,1.355,1.355,0,0,1,1.721-.842c1.451.5,2.9,1.064,4.3,1.684a1.353,1.353,0,1,1-1.094,2.476c-1.332-.589-2.707-1.127-4.083-1.6A1.351,1.351,0,0,1,2444.4,1856.791Zm10.661,5.059a1.353,1.353,0,0,1,2.069-1.165c1.3.811,2.587,1.686,3.816,2.6a1.354,1.354,0,0,1-1.62,2.171c-1.167-.872-2.387-1.7-3.625-2.473A1.352,1.352,0,0,1,2455.059,1861.85Zm9.265,7.309a1.355,1.355,0,0,1,2.307-.98c1.087,1.075,2.146,2.215,3.143,3.383a1.354,1.354,0,0,1-2.06,1.759c-.947-1.11-1.953-2.191-2.988-3.215A1.351,1.351,0,0,1,2464.323,1869.159Zm7.417,9.177a1.355,1.355,0,0,1,2.5-.745c.825,1.293,1.6,2.636,2.316,3.994a1.354,1.354,0,0,1-2.4,1.259c-.678-1.29-1.418-2.567-2.2-3.8A1.34,1.34,0,0,1,2471.741,1878.336Zm3.811,49.591a1.338,1.338,0,0,1,.116-.561c.587-1.332,1.123-2.708,1.594-4.088a1.354,1.354,0,1,1,2.563.873c-.5,1.454-1.059,2.9-1.678,4.306a1.355,1.355,0,0,1-2.6-.531Zm1.384-39.005a1.355,1.355,0,0,1,2.631-.473c.516,1.443.978,2.927,1.368,4.409a1.355,1.355,0,0,1-2.62.692c-.371-1.407-.809-2.816-1.3-4.187A1.383,1.383,0,0,1,2476.936,1888.922Zm2.123,27.739a1.279,1.279,0,0,1,.023-.271c.274-1.43.488-2.891.64-4.342a1.355,1.355,0,1,1,2.7.282c-.16,1.526-.387,3.065-.673,4.569a1.355,1.355,0,0,1-2.686-.238Zm.578-16.258a1.355,1.355,0,0,1,2.7-.176c.18,1.522.3,3.07.348,4.6a.18.18,0,0,0,0,.028,1.354,1.354,0,0,1-2.708.06c-.049-1.457-.16-2.928-.332-4.373C2479.64,1900.5,2479.637,1900.449,2479.636,1900.4Z" transform="translate(-2421.08 -1852.595)" fill="#cfcfcf"/>
            <path id="Path_9017" data-name="Path 9017" d="M2739.689,2369.884a1.352,1.352,0,0,1,.233-.775c.393-.578.778-1.174,1.149-1.77a1.354,1.354,0,1,1,2.3,1.429c-.39.628-.8,1.255-1.208,1.863a1.354,1.354,0,0,1-2.475-.746Z" transform="translate(-2689.82 -2286.23)" fill="#cfcfcf"/>
          </g>
          <g id="Group_6837" data-name="Group 6837" transform="translate(0 21.163)" opacity="0.3">
            <path id="Path_9018" data-name="Path 9018" d="M2518.119,2520.664a1.355,1.355,0,0,1,1.124-1.349c.689-.119,1.385-.254,2.073-.4a1.355,1.355,0,0,1,.57,2.648c-.723.155-1.458.3-2.182.423a1.355,1.355,0,0,1-1.565-1.1A1.464,1.464,0,0,1,2518.119,2520.664Z" transform="translate(-2456.366 -2435.759)" fill="#cfcfcf"/>
            <path id="Path_9019" data-name="Path 9019" d="M2123.587,2064.487q-.012-.935.009-1.877a1.354,1.354,0,1,1,2.708.06c-.031,1.449,0,2.9.083,4.318a1.355,1.355,0,0,1-2.7.165C2123.631,2066.272,2123.6,2065.375,2123.587,2064.487Zm.654-9a1.264,1.264,0,0,1,.017-.23c.236-1.493.54-2.992.9-4.457a1.354,1.354,0,0,1,2.629.648c-.343,1.39-.629,2.814-.854,4.232a1.355,1.355,0,0,1-2.692-.194Zm.369,18.73a1.355,1.355,0,0,1,2.683-.282c.282,1.4.626,2.813,1.027,4.192a1.354,1.354,0,1,1-2.6.754c-.421-1.451-.786-2.936-1.082-4.414A1.212,1.212,0,0,1,2124.611,2074.217Zm2.7-29.93a1.361,1.361,0,0,1,.1-.516c.559-1.4,1.183-2.8,1.858-4.148a1.355,1.355,0,0,1,2.423,1.211c-.64,1.282-1.235,2.608-1.764,3.94a1.355,1.355,0,0,1-2.614-.487Zm.823,40.986a1.355,1.355,0,0,1,2.592-.568c.582,1.305,1.23,2.606,1.924,3.863a1.354,1.354,0,1,1-2.372,1.309c-.729-1.324-1.412-2.692-2.025-4.066A1.321,1.321,0,0,1,2128.139,2085.274Zm5.868,10.013a1.354,1.354,0,0,1,2.44-.826c.858,1.15,1.772,2.279,2.72,3.353a1.354,1.354,0,1,1-2.03,1.792c-1-1.13-1.961-2.316-2.863-3.528A1.341,1.341,0,0,1,2134.007,2095.287Zm7.912,8.5a1.355,1.355,0,0,1,2.238-1.042c1.088.938,2.227,1.839,3.385,2.68a1.355,1.355,0,1,1-1.592,2.193c-1.219-.884-2.418-1.834-3.562-2.82A1.342,1.342,0,0,1,2141.919,2103.783Zm9.575,6.569a1.353,1.353,0,0,1,1.992-1.208c1.266.676,2.575,1.307,3.89,1.872a1.355,1.355,0,0,1-1.071,2.489c-1.385-.6-2.764-1.26-4.1-1.971A1.365,1.365,0,0,1,2151.494,2110.352Zm10.789,4.307a1.356,1.356,0,0,1,1.714-1.322c1.38.38,2.794.706,4.206.969a1.354,1.354,0,0,1-.5,2.663c-1.486-.277-2.974-.62-4.427-1.019A1.358,1.358,0,0,1,2162.282,2114.659Zm11.464,1.83c0-.028,0-.057,0-.085a1.355,1.355,0,0,1,1.42-1.286c1.055.052,2.123.072,3.177.059.382,0,.762-.014,1.141-.026a1.354,1.354,0,0,1,1.4,1.309,1.34,1.34,0,0,1-1.308,1.4c-.4.014-.8.023-1.2.028-1.108.013-2.234-.008-3.342-.062A1.352,1.352,0,0,1,2173.746,2116.489Z" transform="translate(-2123.583 -2030.881)" fill="#cfcfcf"/>
            <path id="Path_9020" data-name="Path 9020" d="M2182.459,1990.938a1.358,1.358,0,0,1,.236-.781c.415-.6.85-1.213,1.293-1.806a1.354,1.354,0,1,1,2.169,1.622c-.421.563-.834,1.141-1.229,1.715a1.353,1.353,0,0,1-2.47-.75Z" transform="translate(-2173.244 -1987.807)" fill="#cfcfcf"/>
          </g>
          <g id="Group_6838" data-name="Group 6838" transform="translate(13.685 13.276)">
            <path id="Path_9021" data-name="Path 9021" d="M2222.275,1950.075a.635.635,0,0,0-.186.711l2.745,7.2a33.561,33.561,0,0,0-5.042,9.634l-7.474,1.852a.633.633,0,0,0-.479.559l-.823,9.205a.632.632,0,0,0,.371.634l7.026,3.148a33.565,33.565,0,0,0,3.254,10.376l-3.977,6.6a.631.631,0,0,0,.056.732l5.927,7.091a.635.635,0,0,0,.711.186l7.2-2.744a33.557,33.557,0,0,0,9.634,5.042l1.852,7.474a.636.636,0,0,0,.559.479l9.205.823a.632.632,0,0,0,.634-.373l3.148-7.026a33.567,33.567,0,0,0,10.376-3.254l6.6,3.977a.632.632,0,0,0,.732-.056l7.091-5.927a.635.635,0,0,0,.186-.711l-2.745-7.2a33.555,33.555,0,0,0,5.042-9.634l7.474-1.852a.637.637,0,0,0,.479-.559l.822-9.205a.634.634,0,0,0-.371-.634l-7.026-3.147a33.567,33.567,0,0,0-3.254-10.376l3.977-6.6a.632.632,0,0,0-.056-.733l-5.927-7.09a.634.634,0,0,0-.71-.186l-7.2,2.744a33.552,33.552,0,0,0-9.634-5.042l-1.852-7.474a.632.632,0,0,0-.559-.477l-9.2-.823a.634.634,0,0,0-.634.371l-3.148,7.026a33.564,33.564,0,0,0-10.376,3.254l-6.6-3.977a.633.633,0,0,0-.733.056Z" transform="translate(-2211.015 -1937.414)" fill="#3d3d3d"/>
            <path id="Path_9022" data-name="Path 9022" d="M2412.526,2148.308a9.295,9.295,0,1,1,.116,1.36A9.569,9.569,0,0,1,2412.526,2148.308Zm16.413-.174a7.548,7.548,0,0,0-.089-1.053,7.11,7.11,0,1,0,.089,1.053Z" transform="translate(-2380.985 -2107.375)" fill="#fff" opacity="0.7"/>
            <path id="Path_9023" data-name="Path 9023" d="M2326.821,2076.384a23.213,23.213,0,0,1,.091-2.346h0c.022-.247.048-.495.078-.74a23.177,23.177,0,0,1,.729-3.584c0-.015.01-.031.014-.048.013-.045.027-.091.041-.135l.08-.263a.543.543,0,0,1,.51-.382.568.568,0,0,1,.167.025.543.543,0,0,1,.357.678,21.778,21.778,0,0,0,7.524,23.732,21.629,21.629,0,0,0,11.315,4.421,21.863,21.863,0,0,0,2.238.086,21.759,21.759,0,1,0-9.769-41.353.541.541,0,1,1-.473-.974,22.753,22.753,0,0,1,9.653-2.269,22.842,22.842,0,0,1,23.037,24.873,22.848,22.848,0,0,1-22.436,20.81,23.128,23.128,0,0,1-2.35-.091,22.845,22.845,0,0,1-20.808-22.439Z" transform="translate(-2308.693 -2035.102)" fill="#fff" opacity="0.7"/>
          </g>
        </g>
        <g id="Group_6842" data-name="Group 6842" transform="translate(310.015 225.467)">
          <g id="Group_6841" data-name="Group 6841">
            <path id="Path_9024" data-name="Path 9024" d="M2565.329,2372.587l-.419-3.621c8.482-1.343,14.46-6.419,16.993-7.876a54.627,54.627,0,0,1,6.363,10.528C2577.745,2376.221,2565.329,2372.587,2565.329,2372.587Z" transform="translate(-2547.169 -2288.214)" fill="url(#linear-gradient)"/>
            <path id="Path_9025" data-name="Path 9025" d="M3134.214,3140.01s1.569,2.473,1.964,9.4a1.129,1.129,0,0,1-1.121,1.2h-12.274a.723.723,0,0,1-.689-.952c.72-2.128,2.894-7.319,7.746-10.283Z" transform="translate(-3017.109 -2944.676)" fill="#484848"/>
            <path id="Path_9026" data-name="Path 9026" d="M3172.269,3110l-.7,5.821a1.1,1.1,0,0,1-.956.962,9.732,9.732,0,0,1-2.6-.025,1.8,1.8,0,0,1-1.482-1.783v-5.621Z" transform="translate(-3054.63 -2919.364)" fill="url(#linear-gradient-2)"/>
            <path id="Path_9027" data-name="Path 9027" d="M2898.7,3139.361a17.141,17.141,0,0,1,2.3,8.663,2.168,2.168,0,0,1-2.18,2.121h-19.062a.913.913,0,0,1-.524-1.661c3.608-2.532,10.7-7.264,15.824-9.125h3.644Z" transform="translate(-2811.965 -2944.667)" fill="#484848"/>
            <path id="Path_9028" data-name="Path 9028" d="M2987.561,3084.152l-1.481,7.189a1.482,1.482,0,0,1-1.753,1.166,5.379,5.379,0,0,1-1.677-.7,1.7,1.7,0,0,1-.76-1.737l1.532-8.708Z" transform="translate(-2898.86 -2895.746)" fill="url(#linear-gradient-3)"/>
            <path id="Path_9029" data-name="Path 9029" d="M3010.317,2460.62s5.147,4.539,6.117,10-2.746,94.221-2.746,94.221-5.148.856-7.8-.751c0,0-3.147-57.6-5.541-70.915,0,0-12.548,59.671-16.025,70.452,0,0-4.96.6-6.56-.339,0,0,3.287-77.35,7.417-91.1Z" transform="translate(-2895.399 -2372.165)" fill="#414141"/>
            <path id="Path_9030" data-name="Path 9030" d="M3120,2589.071a.557.557,0,0,0,.54-.418l2.132-8.178,4.541-2.913a.559.559,0,0,0-.6-.941l-4.725,3.03a.56.56,0,0,0-.24.329l-2.187,8.39a.559.559,0,0,0,.4.682A.566.566,0,0,0,3120,2589.071Z" transform="translate(-3014.905 -2469.935)" fill="url(#linear-gradient-4)"/>
            <path id="Path_9031" data-name="Path 9031" d="M2755.362,2121.234c21.673-1.8,27.338,2.686,27.338,2.686l-10.415,16.443s-21.3-.421-36.555-12.182a37.222,37.222,0,0,0,6.11-9.12A28.7,28.7,0,0,0,2755.362,2121.234Z" transform="translate(-2691.251 -2084.066)" fill="#858585"/>
            <path id="Path_9032" data-name="Path 9032" d="M2640.269,1926.268a.664.664,0,0,1,1.265-.254l2.766,5.9a6.158,6.158,0,0,1,.492,3.658l-.97,3.434a5.928,5.928,0,0,0,1.21,4.719,41.255,41.255,0,0,0,15.657,12.18,37.275,37.275,0,0,1-6.11,9.121,37.381,37.381,0,0,1-13.01-18.064,2.9,2.9,0,0,1-2.047-2.883Z" transform="translate(-2610.098 -1920.913)" fill="url(#linear-gradient-5)"/>
            <path id="Path_9033" data-name="Path 9033" d="M2692.128,2120.635c7.63-8.222,22.163-11.937,30.578-13.462a7.718,7.718,0,0,1,8.626,4.895c3.786,10.178,14.085,36.66,16.081,41.212,1.637,3.735,3.348,7.38,4.434,9.661a2.737,2.737,0,0,1-1.277,3.647c-7.079,3.412-19.817,7.273-24.983,8.779a1.77,1.77,0,0,1-2.266-1.7,5.537,5.537,0,0,0-.789-2.849l-19.559-32.592c-12.19,13.517-19.68,18.944-27.817,19.745-2.684-2.734-7.1-8.521-5.654-11.268C2679.924,2141.243,2692.128,2120.635,2692.128,2120.635Z" transform="translate(-2635.151 -2073.934)" fill="#acacac"/>
            <path id="Path_9034" data-name="Path 9034" d="M2472.758,2406.754l-8.608,8.823-12.589,3.208c.479-1.861,8.594-6.682,8.594-6.682s5.982-7.678,7.87-9.473c1.568-1.49,3.484.98,4.088,1.859.124.18.192.293.192.293Z" transform="translate(-2451.56 -2322.857)" fill="url(#linear-gradient-6)"/>
            <path id="Path_9035" data-name="Path 9035" d="M2881.921,2011.38l6.5,15.86s-7.468,5.168-13.477,4.677l-3.243-14.261Z" transform="translate(-2805.939 -1993.241)" fill="url(#linear-gradient-7)"/>
            <g id="Group_6840" data-name="Group 6840" transform="translate(58.761)">
              <path id="Path_9036" data-name="Path 9036" d="M2841.512,1937.288c-.148.211-4.7,16.659-4.7,16.659l9.447,2.4,6.632-14.948S2844.005,1933.757,2841.512,1937.288Z" transform="translate(-2835.271 -1929.959)" fill="url(#linear-gradient-8)"/>
              <path id="Path_9037" data-name="Path 9037" d="M2841.041,1909.2l-2.875,8.142a1.2,1.2,0,0,1-.15.291c-.39.554-1.873,2.364-3.63.734-1.595-1.478-3.073-2.8-4.437-3.044a1.206,1.206,0,0,0-1.373.865,52.126,52.126,0,0,0-1.589,7.936,1.2,1.2,0,0,0,.979,1.3,38.879,38.879,0,0,0,9.023.75,1.2,1.2,0,0,0,1.016-.7c.9-1.968,3.658-7.934,4.683-9.477.962-1.449,3.323-1.409,4.313-1.321a1.185,1.185,0,0,0,.889-.291c.866-.759,2.514-2.7.2-5.017a1.207,1.207,0,0,1,.028-1.739,3.132,3.132,0,0,0,.4-4.655,4.418,4.418,0,0,0-5.274-1.262,1.207,1.207,0,0,1-1.453-.537.954.954,0,0,0-.984-.46,1.189,1.189,0,0,1-1.268-1.218,3.6,3.6,0,0,0-2.781-3.758c-4.127-1.285-6.7,2.7-6.956,5.677s4.3,4.113,6.977,3.913c2.036-.152,3.546,1.866,4.154,2.841A1.183,1.183,0,0,1,2841.041,1909.2Z" transform="translate(-2826.981 -1895.487)" fill="#1d1d1d"/>
              <path id="Path_9038" data-name="Path 9038" d="M2920.47,2016.037s.667-5.165,2.816-5.417,4.24,1.512,2.1,4.411C2922.731,2018.637,2920.47,2016.037,2920.47,2016.037Z" transform="translate(-2905.837 -1992.579)" fill="url(#linear-gradient-9)"/>
            </g>
          </g>
        </g>
      </g>
    </g>
  </g>
</svg>
