<svg id="Stay_up-to-date_" data-name="Stay up-to-date " xmlns="http://www.w3.org/2000/svg" width="32.998" height="42" viewBox="0 0 32.998 42">
  <g id="Group_6707" data-name="Group 6707" transform="translate(0 0)">
    <g id="Group_6706" data-name="Group 6706">
      <path id="Path_8654" data-name="Path 8654" d="M75.835,5.5h-3.8V3.8c0-.55-.6-.8-1.15-.8h-2.95a4.472,4.472,0,0,0-4.45-3,4.55,4.55,0,0,0-4.45,3h-2.9c-.55,0-1.1.25-1.1.8V5.5h-3.8a4.25,4.25,0,0,0-4.2,4.05V38.2a4.023,4.023,0,0,0,4.2,3.8h24.6a4.023,4.023,0,0,0,4.2-3.8V9.553A4.25,4.25,0,0,0,75.835,5.5ZM57.036,5h2.75a1.1,1.1,0,0,0,.95-.9,2.9,2.9,0,0,1,2.75-2.25,2.85,2.85,0,0,1,2.7,2.25,1.1,1.1,0,0,0,1,.9h2.85V9h-13Zm21,33.2a2.028,2.028,0,0,1-2.2,1.8h-24.6a2.028,2.028,0,0,1-2.2-1.8V9.553a2.25,2.25,0,0,1,2.2-2.05h3.8v2.55a1.05,1.05,0,0,0,1.1.95H70.885a1.1,1.1,0,0,0,1.15-.95V7.5h3.8a2.25,2.25,0,0,1,2.2,2.05V38.2Z" transform="translate(-47.037 0)" fill="#fff"/>
      <path id="Path_8655" data-name="Path 8655" d="M107.021,230.623a1,1,0,0,0-1.4-.05l-3.2,3.05-1.35-1.4a1,1,0,0,0-1.4-.05,1.05,1.05,0,0,0,0,1.45l2.05,2.1a.9.9,0,0,0,.7.3,1,1,0,0,0,.7-.3l3.9-3.7a.95.95,0,0,0,.058-1.342C107.06,230.661,107.041,230.642,107.021,230.623Z" transform="translate(-94.372 -208.272)" fill="#fff"/>
      <path id="Path_8656" data-name="Path 8656" d="M211.047,256.034h-11.5a1,1,0,0,0,0,2h11.5a1,1,0,0,0,0-2Z" transform="translate(-184.049 -231.533)" fill="#fff"/>
      <path id="Path_8657" data-name="Path 8657" d="M107.021,147.031a1,1,0,0,0-1.4-.05l-3.2,3.05-1.35-1.4a1,1,0,0,0-1.4-.05,1.05,1.05,0,0,0,0,1.45l2.05,2.1a.9.9,0,0,0,.7.3,1,1,0,0,0,.7-.3l3.9-3.7a.95.95,0,0,0,.058-1.342C107.06,147.069,107.041,147.05,107.021,147.031Z" transform="translate(-94.372 -132.679)" fill="#fff"/>
      <path id="Path_8658" data-name="Path 8658" d="M211.047,172.442h-11.5a1,1,0,0,0,0,2h11.5a1,1,0,0,0,0-2Z" transform="translate(-184.049 -155.94)" fill="#fff"/>
      <path id="Path_8659" data-name="Path 8659" d="M107.021,314.214a1,1,0,0,0-1.4-.05l-3.2,3.05-1.35-1.4a1,1,0,0,0-1.4-.05,1.05,1.05,0,0,0,0,1.45l2.05,2.1a.9.9,0,0,0,.7.3,1,1,0,0,0,.7-.3l3.9-3.7a.95.95,0,0,0,.058-1.342C107.06,314.252,107.041,314.233,107.021,314.214Z" transform="translate(-94.372 -283.864)" fill="#fff"/>
      <path id="Path_8660" data-name="Path 8660" d="M211.047,339.626h-11.5a1,1,0,1,0,0,2h11.5a1,1,0,1,0,0-2Z" transform="translate(-184.049 -307.125)" fill="#fff"/>
    </g>
  </g>
</svg>
