<svg xmlns="http://www.w3.org/2000/svg" width="43.5" height="43.5" viewBox="0 0 43.5 43.5">
  <g id="Track_learner_progress_and_performance_" data-name="Track learner progress and performance " transform="translate(0.75 0.75)">
    <path id="Path_8688" data-name="Path 8688" d="M33.706,16.059a3.705,3.705,0,0,0,3.34-5.31L41.2,6.535a3.7,3.7,0,0,0,4.953-.156l3.777,3.651A3.705,3.705,0,1,0,57.174,11.2l3.57-2.4a3.7,3.7,0,1,0-1.1-2.629,3.757,3.757,0,0,0,.019.377l-3.319,2.23a3.7,3.7,0,0,0-4.929-.75l-4.139-4c.01-.108.015-.217.015-.327a3.706,3.706,0,1,0-7.363.6L35.3,9.006a3.706,3.706,0,1,0-1.589,7.053Z" transform="translate(-27.529 0)" fill="#fff" stroke="#000" stroke-width="1.5"/>
    <path id="Path_8689" data-name="Path 8689" d="M38.294,177.176V153.706H33.353v23.471H28.412V157.412H23.471v19.765H18.529V150H13.588v27.176H8.647V159.882H3.706v17.294H0v2.471H42v-2.471Z" transform="translate(0 -137.647)" fill="#fff" stroke="#000" stroke-width="1.5"/>
  </g>
</svg>
