<svg xmlns="http://www.w3.org/2000/svg" width="710.206" height="382.57" viewBox="0 0 710.206 382.57">
  <g id="Training_Management_" data-name="Training Management " transform="translate(-18.346 -24.937)">
    <g id="Group_5831" data-name="Group 5831" transform="translate(18.346 24.937)">
      <g id="Group_5804" data-name="Group 5804">
        <path id="Path_7007" data-name="Path 7007" d="M877.413,580.177s84.122-90.321,14.226-188.1c-62.015-86.763-134.321-80.83-187.369-45.622-22.595,15-87.736,1.848-143.18-86.436C485.481,139.622,208.44,201.294,257.25,398.672c22.225,89.867-56.455,92.092-8.811,181.694Z" transform="translate(-211.974 -198.515)" fill="#f1f1f1"/>
        <path id="Path_7008" data-name="Path 7008" d="M146.862,1784.727H855.444a.814.814,0,0,0,.812-.812v-.293a.814.814,0,0,0-.812-.812H146.862a.814.814,0,0,0-.812.812v.293A.814.814,0,0,0,146.862,1784.727Z" transform="translate(-146.05 -1402.157)" fill="#2e3552"/>
      </g>
      <g id="Group_5811" data-name="Group 5811" transform="translate(199.984 239.378)">
        <g id="Group_5806" data-name="Group 5806" transform="translate(75.51 56.394)">
          <path id="Path_7009" data-name="Path 7009" d="M1347.712,1453.44s-9.882-11.528-.61-18.851c0,0,6.773-4.1,12.3-3.767,0,0-7.826,13.124-5.293,14.428s7.667-15.252,7.667-15.252,15.413-1.495,20.372.889c0,0-13.176,10.783-10.4,11.425s17.008-9.943,17.008-9.943,14.346,2.442,13.58,11.192-5.709,11.454-7.881,11.221-14.882-5.084-15.158-3.3,7.374,7.6,12.729,7.869c0,0-10.113,11.153-16.835,7.936s-7.294-8.323-11.485-10.235-7.768-1.91-6.038.043,9.313,3.849,11.71,8.088,4.546,7.1-2.407,6.049-18.258-6.134-18.755-11.963Z" transform="translate(-1331.008 -1429.535)" fill="#afafaf"/>
          <g id="Group_5805" data-name="Group 5805" transform="translate(0 14.196)">
            <path id="Path_7010" data-name="Path 7010" d="M1382.339,1488.686s-38.964-1.5-47.568,9.641a28.177,28.177,0,0,1-7.759,10.889l-.913,2.487s6.752-7.119,9.169-7.549C1335.269,1504.154,1331.489,1490.348,1382.339,1488.686Z" transform="translate(-1318.068 -1488.618)" fill="#dfdfdf"/>
            <path id="Path_7011" data-name="Path 7011" d="M1301.615,1571.249a24.467,24.467,0,0,0-8.945,17.237l1.518.135s2.672-11.428,7.5-15.9S1301.615,1571.249,1301.615,1571.249Z" transform="translate(-1292.67 -1550.651)" fill="#c9c9c9"/>
          </g>
        </g>
        <g id="Group_5808" data-name="Group 5808" transform="translate(0 25.097)">
          <path id="Path_7012" data-name="Path 7012" d="M1036.056,1339.978s15.721-8.8,8.383-20.749c0,0-5.87-7.335-12.158-9.222,0,0,3.354,17.816,0,18.236s-2.307-20.122-2.307-20.122-16.559-7.965-23.056-7.335c0,0,10.269,17.4,6.917,16.977s-14.882-18.025-14.882-18.025-16.977-3.145-19.7,6.917,1.677,15.091,4.193,15.721,18.654.418,18.236,2.516-11.319,5.449-17.4,3.563c0,0,6.708,16.559,15.509,15.72s11.528-6.287,16.977-6.708,9.433,1.047,6.708,2.516-11.946.48-16.348,4.221-7.965,6.048.209,7.725,22.847.63,25.781-5.658Z" transform="translate(-978.393 -1299.273)" fill="#d4d4d4"/>
          <g id="Group_5807" data-name="Group 5807" transform="translate(8.618 10.523)">
            <path id="Path_7013" data-name="Path 7013" d="M1014.26,1343.07s44.017,14.253,49.046,30.182a33.443,33.443,0,0,0,4.192,15.3v3.145s-4.61-10.689-7.126-12.157C1060.372,1379.54,1070.223,1365.706,1014.26,1343.07Z" transform="translate(-1014.26 -1343.07)" fill="#b7b7b7"/>
            <path id="Path_7014" data-name="Path 7014" d="M1229.183,1526.182s6.788,10.307,2.919,22.854l-1.747-.469s1.7-13.82-1.857-20.771S1229.183,1526.182,1229.183,1526.182Z" transform="translate(-1175.947 -1480.699)" fill="#b7b7b7"/>
          </g>
        </g>
        <g id="Group_5810" data-name="Group 5810" transform="translate(69.05)">
          <path id="Path_7015" data-name="Path 7015" d="M1279.4,1248.479s-20.72-11.6-11.052-27.352c0,0,7.737-9.67,16.026-12.157,0,0-4.421,23.486,0,24.036s3.04-26.523,3.04-26.523,21.825-10.5,30.391-9.671c0,0-13.539,22.931-9.118,22.379s19.615-23.76,19.615-23.76,22.378-4.144,25.97,9.118-2.21,19.894-5.526,20.721-24.589.552-24.036,3.316,14.921,7.184,22.931,4.7c0,0-8.841,21.826-20.444,20.721s-15.2-8.289-22.378-8.842-12.434,1.381-8.842,3.316,15.749.634,21.55,5.567,10.5,7.972-.277,10.182-30.115.829-33.983-7.46S1279.4,1248.479,1279.4,1248.479Z" transform="translate(-1265.782 -1194.818)" fill="#d4d4d4"/>
          <g id="Group_5809" data-name="Group 5809" transform="translate(2.678 13.876)">
            <path id="Path_7016" data-name="Path 7016" d="M1369.657,1252.57s-58.022,18.787-64.651,39.786a44.068,44.068,0,0,1-5.526,20.168v4.144s6.079-14.091,9.395-16.026C1308.875,1300.642,1295.888,1282.409,1369.657,1252.57Z" transform="translate(-1294.062 -1252.57)" fill="#b7b7b7"/>
            <path id="Path_7017" data-name="Path 7017" d="M1282.347,1493.945s-8.948,13.587-3.847,30.127l2.3-.617s-2.235-18.217,2.446-27.381S1282.347,1493.945,1282.347,1493.945Z" transform="translate(-1276.928 -1433.992)" fill="#b7b7b7"/>
          </g>
        </g>
        <path id="Path_7018" data-name="Path 7018" d="M1191.221,1648.431a40.592,40.592,0,0,0,40.59-40.59H1150.63A40.591,40.591,0,0,0,1191.221,1648.431Z" transform="translate(-1109.247 -1508.605)" fill="#9f9f9f"/>
        <path id="Path_7019" data-name="Path 7019" d="M1269.68,1648.111a40.623,40.623,0,0,0,45.631-40.281h-10.084A40.6,40.6,0,0,1,1269.68,1648.111Z" transform="translate(-1199.693 -1508.598)" fill="#d9d9d9"/>
        <path id="Path_7020" data-name="Path 7020" d="M1230.6,1769.537h-82.3a5.007,5.007,0,0,1,5.007-5.007h72.287a5.007,5.007,0,0,1,5.007,5.007Z" transform="translate(-1107.477 -1627.648)" fill="#ababab"/>
        <rect id="Rectangle_488" data-name="Rectangle 488" width="83.44" height="1.245" transform="translate(40.049 99.233)" fill="#7b7b7b"/>
      </g>
      <g id="Group_5813" data-name="Group 5813" transform="translate(206.367 16.019)">
        <rect id="Rectangle_489" data-name="Rectangle 489" width="181.411" height="256.071" transform="translate(256.071 0) rotate(89.993)" fill="#c9c9c9"/>
        <rect id="Rectangle_490" data-name="Rectangle 490" width="249.344" height="174.683" transform="translate(252.729 178.049) rotate(179.993)" fill="#fefefe"/>
        <g id="Group_5812" data-name="Group 5812" transform="translate(21.751 24.568)">
          <path id="Path_7021" data-name="Path 7021" d="M1363.8,846.421l-87.46.01a3.135,3.135,0,0,1-3.135-3.136h0a3.135,3.135,0,0,1,3.135-3.135l87.46-.01a3.135,3.135,0,0,1,3.135,3.135h0A3.141,3.141,0,0,1,1363.8,846.421Z" transform="translate(-1230.51 -726.574)" fill="#d5d5d5"/>
          <path id="Path_7022" data-name="Path 7022" d="M1363.807,923.131l-87.462.01a3.135,3.135,0,0,1-3.135-3.135h0a3.135,3.135,0,0,1,3.135-3.135l87.46-.01A3.135,3.135,0,0,1,1366.94,920h0A3.137,3.137,0,0,1,1363.807,923.131Z" transform="translate(-1230.51 -784.853)" fill="#d5d5d5"/>
          <rect id="Rectangle_491" data-name="Rectangle 491" width="202.434" height="1.619" transform="translate(0 101.099)" fill="#cecece"/>
          <path id="Path_7023" data-name="Path 7023" d="M1928.6,784.387V777.77l9.075,3.309Z" transform="translate(-1728.432 -679.181)" fill="#c5c5c5"/>
          <rect id="Rectangle_492" data-name="Rectangle 492" width="107.625" height="1.694" transform="translate(9.442 112.791) rotate(-90.007)" fill="#cecece"/>
          <path id="Path_7024" data-name="Path 7024" d="M1123.86,375.676h6.919l-3.46-8.236Z" transform="translate(-1117.044 -367.44)" fill="#c5c5c5"/>
          <path id="Path_7025" data-name="Path 7025" d="M1204.181,844.1h-.524a5.688,5.688,0,0,1-5.687-5.687h0a5.686,5.686,0,0,1,5.687-5.687h.524a5.686,5.686,0,0,1,5.687,5.687h0A5.686,5.686,0,0,1,1204.181,844.1Z" transform="translate(-1173.347 -720.936)" fill="#171717"/>
          <path id="Path_7026" data-name="Path 7026" d="M1204.191,912.084h-.524a5.688,5.688,0,0,1-5.687-5.687h0a5.687,5.687,0,0,1,5.688-5.687h.524a5.686,5.686,0,0,1,5.687,5.687h0A5.687,5.687,0,0,1,1204.191,912.084Z" transform="translate(-1173.355 -772.583)" fill="#d4d4d4"/>
          <path id="Path_7027" data-name="Path 7027" d="M1342.51,409.39l-11.627.971,1.528,3.013-36.491,17.181-34.089,57.3-40.232-34.49-32.456,15.74-.094.043-20.689,19.272.944.93,20.543-19.137,31.537-15.291,40.793,34.968,34.714-58.349,36.112-17,1.509,2.974Z" transform="translate(-1150.852 -399.311)" fill="#929292"/>
          <path id="Path_7028" data-name="Path 7028" d="M1241.324,653.014h-.387a4.207,4.207,0,0,1-4.207-4.207h0a4.207,4.207,0,0,1,4.207-4.207h.387a4.207,4.207,0,0,1,4.207,4.207h0A4.209,4.209,0,0,1,1241.324,653.014Z" transform="translate(-1202.795 -578.008)" fill="#171717"/>
          <path id="Path_7029" data-name="Path 7029" d="M1686.774,494.024h-.387a4.207,4.207,0,0,1-4.207-4.207h0a4.207,4.207,0,0,1,4.207-4.207h.387a4.207,4.207,0,0,1,4.207,4.207h0A4.207,4.207,0,0,1,1686.774,494.024Z" transform="translate(-1541.218 -457.218)" fill="#171717"/>
          <path id="Path_7030" data-name="Path 7030" d="M1374.964,591.024h-.386a4.207,4.207,0,0,1-4.207-4.207h0a4.207,4.207,0,0,1,4.207-4.207h.386a4.207,4.207,0,0,1,4.207,4.207h0A4.207,4.207,0,0,1,1374.964,591.024Z" transform="translate(-1304.326 -530.912)" fill="#171717"/>
          <path id="Path_7031" data-name="Path 7031" d="M1543.584,726.154h-.387a4.207,4.207,0,0,1-4.207-4.207h0a4.207,4.207,0,0,1,4.207-4.207h.387a4.207,4.207,0,0,1,4.208,4.207h0A4.211,4.211,0,0,1,1543.584,726.154Z" transform="translate(-1432.432 -633.575)" fill="#d4d4d4"/>
        </g>
      </g>
      <g id="Group_5817" data-name="Group 5817" transform="translate(45.277 44.145)">
        <path id="Path_7032" data-name="Path 7032" d="M618.83,548.147S627.9,558.9,639.442,554.4c0,0,2.484-6.007,2.518-10.435,0-.545.01-1.074.019-1.576.062-4.988.231-7.785.231-7.785l-.012,0c-.526-.219-17.65-7.249-17.635-6.665C624.856,541.427,618.83,548.147,618.83,548.147Z" transform="translate(-550.513 -492.91)" fill="#ffb27d"/>
        <path id="Path_7033" data-name="Path 7033" d="M649.8,541.032c1.651,3.061,7.318,9.049,15.7,11.237.063-4.988.231-7.785.231-7.785l-.012,0C665.249,544.355,649.315,540.131,649.8,541.032Z" transform="translate(-574.038 -502.786)" fill="#ed975d"/>
        <path id="Path_7034" data-name="Path 7034" d="M652.611,453.289s-19.26,4.527-21.893-7.508-6.9-19.56,5.291-22.957,15.589.668,17.443,4.471S657.551,451.8,652.611,453.289Z" transform="translate(-557.327 -412.107)" fill="#ffb27d"/>
        <path id="Path_7035" data-name="Path 7035" d="M600.342,419.2c-.262.168-4.406,1.442-12.254-14.193a13.617,13.617,0,0,1,.8-12.455c2.871-4.69,13.054-8.38,21.513-9.986s10.49,3.155,12.484,7.938c2.09,5.022,8.131,9.157,8.131,9.157-7.294,4.075-16.081-1.754-19.125-.8s-4.118,5.757-4.349,7.294-.579,2.816-4.406,1.442-1.73,5.425-1.117,6.725C602.017,414.331,602.536,417.793,600.342,419.2Z" transform="translate(-526.293 -382.248)"/>
        <g id="Group_5814" data-name="Group 5814" transform="translate(0 147.863)">
          <path id="Path_7036" data-name="Path 7036" d="M358.93,1694.293H347.268c-2.444,0-5.161-2.448-5.841-6.929s-5.706-6.93-6.792-10.6,4.483-8.832,4.483-8.832l.932-1.2.968-1.247,9.238,2.172s.228,2.2.37,5c.1,2.023.154,4.361.038,6.413-.272,4.892,1.37,10.158,5.716,11.11S358.93,1694.293,358.93,1694.293Z" transform="translate(-334.493 -1505.033)" fill="#9e9e9e"/>
          <path id="Path_7037" data-name="Path 7037" d="M669.638,1732.15h-30.91a2.831,2.831,0,0,1-.656-.19c-2.064-1.034-1.418-8.935-1.17-11.377.048-.451.082-.718.082-.718s10.87-8.693,12.364-2.037c.048.206.1.411.161.612v0c1.886,6.228,10.322,9.058,15.194,9.846C668.425,1728.9,669.391,1731.066,669.638,1732.15Z" transform="translate(-564.02 -1542.89)" fill="#9e9e9e"/>
          <path id="Path_7038" data-name="Path 7038" d="M602.3,1034.442s-1.651,20.6-3.592,45.353c-2.638,33.63-5.807,74.941-6.122,82.767-.543,13.589-2.72,35.326-2.72,35.326s-5.161,5.163-15.487,2.989c0,0-9.2-31.031-11.833-63.863-.041-.538-.082-1.081-.123-1.622-2.446-33.423-6.249-103.8-6.249-103.8Z" transform="translate(-502.909 -1023.438)" fill="#858585"/>
          <path id="Path_7039" data-name="Path 7039" d="M602.3,1034.442s-1.651,20.6-3.592,45.352l-36.16,57.219c-.041-.538-.082-1.081-.123-1.622-2.446-33.423-6.249-103.8-6.249-103.8Z" transform="translate(-502.916 -1023.438)" fill="#7b7b7b"/>
          <path id="Path_7040" data-name="Path 7040" d="M440.966,1011.11s-29.755,74.591-49.319,109.643-25.68,44.836-25.68,44.836-11.208-4.483-12.227-7.539c0,0,7.482-67.671,20.584-84.168,7.4-9.322,16.1-37.294,16.509-47.077s2.65-29.144,2.65-29.144Z" transform="translate(-349.116 -997.66)" fill="#bcbcbc"/>
        </g>
        <g id="Group_5815" data-name="Group 5815" transform="translate(14 56.432)">
          <path id="Path_7041" data-name="Path 7041" d="M402.756,991.684l-.315,4.8a10.335,10.335,0,0,1-5.7,12.893s-3.794,1.531-3.947-1.422.331-1.843.024-6,1.326-8.09,4.077-9.416l2.258-2.6Z" transform="translate(-392.761 -900.356)" fill="#ffb27d"/>
          <path id="Path_7042" data-name="Path 7042" d="M406.989,711.941c3.294,1.057,3.82.82,3.82.82s16.03-29.185,17.652-31.855S462.5,648.179,462.5,648.179l-8.33-31.059s-36.862,47.736-40.843,54.586c-6.579,11.319-10.432,37.606-10.432,37.606A9.66,9.66,0,0,0,406.989,711.941Z" transform="translate(-400.456 -617.12)" fill="#363636"/>
        </g>
        <path id="Path_7043" data-name="Path 7043" d="M512.515,700.56c8.145,4.813,15.834,8.383,24.762,10.267,10.579,2.3,23.5,1.319,27.837,1.865a1.854,1.854,0,0,0,1.266-.324c.317-.2,2.021-13.251,3.645-29.767.043-.38.087-.781.118-1.18.021-.267.038-.536.043-.793l.029-.233c.178-1.716.348-3.465.507-5.233.4-4.407.745-8.931,1.064-13.443q.047-.645.091-1.3c.5-7.28.872-14.452.988-20.831,0-.154.007-.305.007-.456a138.469,138.469,0,0,0-.341-13.907c-.07-.8-.149-1.55-.245-2.256-1.264-9.575-5.9-16.309-10.25-21.369l-4.255-4.829c-4.085.358-7.619.5-11.607-2.055-4.32-2.77-7.112-5.379-7.987-4.889-6.687,3.911-13.928,13.534-17.556,26.6a148.346,148.346,0,0,0-4.315,23.279q-.519,4.8-.8,9.75a320.851,320.851,0,0,1-5.322,41.583c-.461,2.528-.824,4.536-1.023,5.927C508.971,698.227,511.436,699.921,512.515,700.56Z" transform="translate(-467.194 -539.911)" fill="#505050"/>
        <path id="Path_7044" data-name="Path 7044" d="M650.98,706.83s3.638,40.225,26.91,63.526c.022-.267.039-.536.043-.793l.029-.233c.178-1.716.348-3.465.507-5.233.4-4.406.745-8.931,1.064-13.443q.047-.645.091-1.295c.5-7.28.872-14.452.988-20.831,0-.154.007-.305.007-.457-.046-3.813-.158-7.289-.341-10.343C672.82,711.777,663.149,707.623,650.98,706.83Z" transform="translate(-574.939 -628.844)" fill="#363636"/>
        <g id="Group_5816" data-name="Group 5816" transform="translate(149.003 29.524)">
          <path id="Path_7045" data-name="Path 7045" d="M959.266,633.982l43.3-127.257c.2-.579.466-1.134-.11-1.343l-.526-.192c-.591-.214-.764.166-.978.757L954.8,631.375a2.426,2.426,0,0,0,1.295,3.047l1.069.475A1.555,1.555,0,0,0,959.266,633.982Z" transform="translate(-954.651 -505.129)" fill="#828282"/>
        </g>
        <path id="Path_7046" data-name="Path 7046" d="M1009.124,779.439c.022-1.862,4.935-6.17,5.262-5.649.236.375-.274,2.331-.548,3.153,2.042-1.367,2.506-6.194,5.954-8.349.954-.6,4.356,8.734,1.132,12.121s-4.772,3.008-10.142,6.141l-3.89.262-1.922-6.045S1007.043,780.313,1009.124,779.439Z" transform="translate(-843.877 -675.746)" fill="#ffb27d"/>
        <path id="Path_7047" data-name="Path 7047" d="M708.387,684.134c.255-3.669-4.584-5.793-4.584-5.793s-36.864,3.842-40.036,2.845S636.9,646.191,636.9,646.191s-10.394-11.723-18.9-9.133c-7.4,2.249-10.286,8.018-11.271,13.513a16.186,16.186,0,0,0,7.518,16.617c12.729,7.809,35,29.33,41,31.088,13.359,3.916,51.516-8.885,51.516-8.885A13.178,13.178,0,0,0,708.387,684.134Z" transform="translate(-541.129 -575.552)" fill="#646464"/>
      </g>
      <g id="Group_5830" data-name="Group 5830" transform="translate(468.88 121.803)">
        <g id="Group_5825" data-name="Group 5825" transform="translate(11.929)">
          <g id="Group_5823" data-name="Group 5823">
            <path id="Path_7048" data-name="Path 7048" d="M2738.638,1076.533a332.88,332.88,0,0,1,3.839-40.782c2.754-15.925,5.233-25.086,5.262-25.182.363-1.4,5.6-7.066,17.256-6.891s10.549,7.607,10.549,7.607h0a2.36,2.36,0,0,1-.085.661c-.112.382-10.807,39.163-10.346,89.237.008.7.084,1.917.037,2.727,0,0-27,.7-27.008,0C2737.2,1099.529,2737.658,1087.4,2738.638,1076.533Z" transform="translate(-2595.766 -932.024)" fill="#b4b5b5"/>
            <path id="Path_7049" data-name="Path 7049" d="M2725.951,1100.932c.007.7.376,1.257.826,1.257h.01c.45-.01.808-.57.813-1.257h23.14c.008.7.378,1.257.827,1.257h.009c.457-.01.819-.587.815-1.293a349.423,349.423,0,0,1,1.92-39.531c3.075-29.459,8.763-49.149,8.844-49.42a2.448,2.448,0,0,0,.084-.661s1.105-7.431-10.545-7.607-16.893,5.493-17.256,6.893c-.022.075-1.426,5.262-3.292,14.589-.617,3.09-1.286,6.633-1.97,10.593a332.938,332.938,0,0,0-3.839,40.783C2725.354,1087.4,2725.011,1096.557,2725.951,1100.932Z" transform="translate(-2586.476 -932.023)" fill="#d6d6d6"/>
            <path id="Path_7050" data-name="Path 7050" d="M2558,1390.286H2467.28s2.112-8.549,54.654-7.275C2559.115,1383.912,2558,1390.286,2558,1390.286Z" transform="translate(-2390.375 -1220.121)" fill="#c5c5c5"/>
            <g id="Group_5818" data-name="Group 5818" transform="translate(159.631 171.488)">
              <path id="Path_7051" data-name="Path 7051" d="M2826.972,1507.182c-10.519-53.25-7.814-85.927-7.8-86.339.026-.82-1.485-1.564-2.3-1.591s-4.454-.242-4.873.459c-.55.92-2.67,41.179,13.009,87.469h1.963Z" transform="translate(-2811.593 -1419.205)" fill="#b4b4b4"/>
            </g>
            <g id="Group_5819" data-name="Group 5819" transform="translate(90.304 171.488)">
              <path id="Path_7052" data-name="Path 7052" d="M2523.05,1507.182c10.519-53.25,7.813-85.927,7.8-86.339-.026-.82,1.485-1.564,2.3-1.591s4.455-.242,4.873.459c.551.92,2.669,41.179-13.008,87.469h-1.964Z" transform="translate(-2523.05 -1419.205)" fill="#b4b4b4"/>
            </g>
            <g id="Group_5820" data-name="Group 5820" transform="translate(73.517 171.488)">
              <path id="Path_7053" data-name="Path 7053" d="M2453.179,1507.182c10.519-53.25,7.815-85.927,7.8-86.339-.027-.82,1.484-1.564,2.3-1.591s4.455-.242,4.874.459c.549.92,2.668,41.179-13.009,87.469h-1.964Z" transform="translate(-2453.179 -1419.205)" fill="#b4b4b4"/>
            </g>
            <g id="Group_5821" data-name="Group 5821" transform="translate(142.731 171.488)">
              <path id="Path_7054" data-name="Path 7054" d="M2756.632,1507.182c-10.519-53.25-7.813-85.927-7.8-86.339.027-.82-1.484-1.564-2.3-1.591s-4.454-.242-4.873.459c-.55.92-2.67,41.179,13.008,87.469h1.963Z" transform="translate(-2741.253 -1419.205)" fill="#b4b4b4"/>
            </g>
            <path id="Path_7055" data-name="Path 7055" d="M2461.177,1409.448H2551.9a1.866,1.866,0,0,0,1.86-1.86v-1.22a1.863,1.863,0,0,0-1.857-1.857H2461.18a1.866,1.866,0,0,0-1.861,1.859v1.22A1.864,1.864,0,0,0,2461.177,1409.448Z" transform="translate(-2384.328 -1236.553)" fill="#9f9f9f"/>
            <g id="Group_5822" data-name="Group 5822">
              <path id="Path_7056" data-name="Path 7056" d="M2379.352,1063.4l-30.156-6.533-1.776,4.33s33.275,19.8,36.394,18.83S2379.352,1063.4,2379.352,1063.4Z" transform="translate(-2299.314 -972.439)" fill="#ffb27d"/>
              <path id="Path_7057" data-name="Path 7057" d="M2518.023,1575.714a2.685,2.685,0,0,1,.478,2.866.023.023,0,0,1-.008.014c-.691,1.91-2.974,4.044-5.626,6.175q-.509.41-.9.752c-.069.06-.136.12-.2.183-.053.046-.107.1-.156.142-2.475,2.28-1.543,2.8-5.988,7.432-5.067,5.271-8.556,5.368-9.548,4.887-.841-.409.868-3.205,2.756-6.348l.276-.459c.252-.418.5-.844.752-1.261,2.216-3.782,1.646-5.557,1.122-11.187-.428-4.575-7.117-25.557-7.117-25.557l9.711-1.672s2.924,16.708,6.147,19.281c1.723,1.372,3.652,1.389,5.307,2.405.118.07.233.144.344.219A12.687,12.687,0,0,1,2518.023,1575.714Z" transform="translate(-2410.568 -1348.363)" fill="#ffb27d"/>
              <path id="Path_7058" data-name="Path 7058" d="M2524.317,1644.28a2.684,2.684,0,0,1,.478,2.866.02.02,0,0,1-.008.015c-.845,1.908-3.073,4.032-5.636,6.154-.334.278-.63.533-.893.771-.07.06-.137.12-.2.182-.053.046-.106.1-.156.142-2.475,2.28-1.543,2.8-5.988,7.431-5.067,5.272-8.556,5.368-9.548,4.887-.841-.409.867-3.205,2.755-6.348a21.581,21.581,0,0,0,9.035-6.656c3.052-3.894,5.086-8.9,7.165-11.795.118.07.233.144.343.219A12.756,12.756,0,0,1,2524.317,1644.28Z" transform="translate(-2416.863 -1416.929)" fill="#434343"/>
              <path id="Path_7059" data-name="Path 7059" d="M2176.346,1560.289c-.6,3-4.872,2.5-9.646,1.331s-3.64.221-10.432-.531-8.852-3.285-9.061-4.3c-.185-.9,3.171-1.213,6.774-1.626.451-.051.907-.106,1.362-.164,4.065-.509,7.042-3.133,10.736-5.288,3.5-2.04,8.719-10.355,8.719-10.355l9.318.737s-4.889,7.427-6.78,10.656c-1.113,1.9-1.053,4.411-.916,6.351A11.9,11.9,0,0,1,2176.346,1560.289Z" transform="translate(-2147.199 -1339.003)" fill="#ffb27d"/>
              <path id="Path_7060" data-name="Path 7060" d="M2166.7,1611.6c-4.774-1.168-3.64.221-10.432-.531s-8.852-3.285-9.061-4.3c-.185-.9,3.171-1.213,6.774-1.627l.033.07a19.168,19.168,0,0,0,9.731,3.025c4.608.113,9.493-1.208,12.674-1.158a11.92,11.92,0,0,1-.072,3.189C2175.747,1613.268,2171.474,1612.769,2166.7,1611.6Z" transform="translate(-2147.199 -1388.985)" fill="#434343"/>
              <path id="Path_7061" data-name="Path 7061" d="M2305.359,1036.463s-2.22-5.44-4.661-5.661-10.211-1.445-10.766-.334,0,5.106,1.665,6.55,11.989,3.775,11.989,3.775Z" transform="translate(-2255.48 -952.031)" fill="#ffb27d"/>
              <path id="Path_7062" data-name="Path 7062" d="M2417.13,1331.261l20.082,54.043a18.414,18.414,0,0,0,6.042-.552,25.964,25.964,0,0,0,5.841-2.845s-4.981-51.891-14.113-62.683S2417.13,1331.261,2417.13,1331.261Z" transform="translate(-2352.275 -1169.556)" fill="#262626"/>
              <path id="Path_7063" data-name="Path 7063" d="M2361.689,1237.1s-57.7-19.512-70.57-15.36-51.509,81.025-51.509,81.025a7.459,7.459,0,0,0,3.253,2.052c2.216.832,7.574.776,7.574.776s34.87-29.889,39.021-38.606,5.812-17.02,9.964-16.189,53.551,20.341,64.759,8.717,8.278-26.725,8.278-26.725Z" transform="translate(-2217.407 -1097.253)" fill="#656565"/>
              <path id="Path_7064" data-name="Path 7064" d="M2583.666,754.539c-.92-1.9-1.951-5.281-2.456-11.3.076.6,1.117,8.2,4.036,12.5,12,7.878,35,34.185,34.545,39.171,0,0,8.1-13.741,8.241-13.822,0,0,14.944-19.005-2.768-29.892-9-5.533-8.958-12.633-8.581-18.8s-2.456-32.722-20.49-25.773c0,0-2.893-1.285-4.191-1.093a3.525,3.525,0,0,1,1.6.759,14,14,0,0,0-7.573,1.449C2579.419,711.481,2573.5,745.185,2583.666,754.539Z" transform="translate(-2474.645 -705.463)" fill="#434343"/>
              <path id="Path_7065" data-name="Path 7065" d="M2610.488,860.135c-.06.026,5.8,3.066,10.2,1.862,4.142-1.129,6.848-6.5,6.792-6.511-1.754-.349-2.26-2.758-2.222-13.116l-.793.156-13.334,2.638s.3,4.2.313,8.15C2611.449,856.632,2611.247,859.78,2610.488,860.135Z" transform="translate(-2499.175 -809.476)" fill="#ffb27d"/>
              <path id="Path_7066" data-name="Path 7066" d="M2613.15,845.651s.3,4.195.312,8.15c7.461-.211,11.406-7.016,13.02-10.79Z" transform="translate(-2501.198 -809.962)" fill="#ed975d"/>
              <path id="Path_7067" data-name="Path 7067" d="M2601.306,750.345s3.91-6.177,4.849-11.461c.67-3.772-1.251-17.751-15.3-15.737a19.087,19.087,0,0,0-7.916,2.991c-3.05,2.059-7.453,6.509-2.531,18.707l1.279,4.121Z" transform="translate(-2474.643 -718.748)" fill="#2c3a64"/>
              <path id="Path_7068" data-name="Path 7068" d="M2584.188,775.4s17.653.291,17.664-10.7,2.3-18.363-8.972-19.015-13.464,3.542-14.361,7.213S2579.6,775.035,2584.188,775.4Z" transform="translate(-2474.727 -735.964)" fill="#ffb27d"/>
              <path id="Path_7069" data-name="Path 7069" d="M2605.5,736.292s4.834,12.9,12.25,14.808,10.635-.079,10.635-.079a70.64,70.64,0,0,1-3.895-14.527S2609.145,730.151,2605.5,736.292Z" transform="translate(-2495.386 -726.85)" fill="#434343"/>
              <path id="Path_7070" data-name="Path 7070" d="M2582.215,742.468s-3.609,2.881-4.49,5.68-1.276,8.565-2.955,8.368c0,0-3.642-8.77.452-13.729C2579.56,737.528,2582.215,742.468,2582.215,742.468Z" transform="translate(-2470.905 -731.978)" fill="#434343"/>
              <path id="Path_7071" data-name="Path 7071" d="M2539.806,949.067c1.742-7.3-4.183-21.468-10.365-33.2-5.61-10.632-11.434-19.255-11.956-18.945-14.8,8.782-16.133,1.48-16.133,1.48v0c-.006,0-13.441,1.783-17.247,8.335-4.721,8.128-9.82,30.841-14.887,35.139.779,2.381.444,3.65-.379,6.6q-.267.948-.587,1.8a34.593,34.593,0,0,1-2.542,5.221c2.576,1.564,7.548,4.541,11.211,2.4,5.584-3.268,9.942-13.219,12.395-17.181a.309.309,0,0,0,.027-.046c5.331,30.173-1.918,37.045,1.75,40.228,3.876,3.359,9.412-1.6,21.589,3.679,7.986,3.465,19.072,8.474,26.532,9.346,3.914.459,6.833-.221,7.785-2.864C2549.767,983.384,2536.483,962.985,2539.806,949.067Z" transform="translate(-2389.182 -850.916)" fill="#c1c1c1"/>
              <path id="Path_7072" data-name="Path 7072" d="M2598.135,839.007s-.33,1.4-3.8,1.182c0,0-2.917-.18-2.827-1.716A9.38,9.38,0,0,1,2598.135,839.007Z" transform="translate(-2484.751 -806.242)" fill="#fff"/>
              <path id="Path_7073" data-name="Path 7073" d="M2693.342,1094.032c-.951,2.643-3.874,3.323-7.784,2.864-5.164-2.251-27.475-10.894-27.225-16.749.37-8.671,4.289-8.948,1.523-19.652-2.222-8.594,18.393-24.572,21.679-28.046,6.182,11.73,6.353,12.285,4.614,19.584C2682.823,1065.955,2696.108,1086.354,2693.342,1094.032Z" transform="translate(-2535.523 -953.886)" fill="#9f9f9f"/>
              <path id="Path_7074" data-name="Path 7074" d="M2713.237,959.808a32.726,32.726,0,0,0-10.791-9.971c.625-1.607-16.641-22.775-16.641-26.057,0-3.32-4.606-26.84-4.606-26.84s14.388.889,19.369,7.835C2706.8,913.465,2719.734,946.9,2713.237,959.808Z" transform="translate(-2552.897 -850.934)" fill="#c1c1c1"/>
              <path id="Path_7075" data-name="Path 7075" d="M2678.72,1117.1l-28.751,7.5,2.7,4.844s34.988-.245,36.841-2.374S2678.72,1117.1,2678.72,1117.1Z" transform="translate(-2529.171 -1018.197)" fill="#ffb27d"/>
              <path id="Path_7076" data-name="Path 7076" d="M2489.316,1079.24c-2.452,3.962-6.809,13.913-12.4,17.181-3.663,2.138-8.635-.836-11.211-2.4a34.55,34.55,0,0,0,2.542-5.221c2.055.471,4.563,1.072,6.179,1.56C2477.579,1091.308,2489.316,1079.24,2489.316,1079.24Z" transform="translate(-2389.182 -989.434)" fill="#9f9f9f"/>
              <path id="Path_7077" data-name="Path 7077" d="M2587.5,1141.843s-9.03-2.554-11.18-1.958-9.519,5.476-8.481,6.8,7.528-.793,10.515-.392,5.295,1.874,7.447,1.557a25.083,25.083,0,0,0,4.4-1.163Z" transform="translate(-2466.695 -1035.439)" fill="#ffb27d"/>
              <path id="Path_7078" data-name="Path 7078" d="M2629.437,1136.73s-4.415-2.268-5.673-3.561a.35.35,0,0,0-.548.063c-.335.531-.65,1.557.9,2.575A8.32,8.32,0,0,0,2629.437,1136.73Z" transform="translate(-2508.637 -1030.327)" fill="#ffb27d"/>
            </g>
          </g>
          <g id="Group_5824" data-name="Group 5824" transform="translate(13.116 73.232)">
            <path id="Path_7079" data-name="Path 7079" d="M2476.33,1190.577h42.121a3.357,3.357,0,0,0-3.357-3.357h-38.762v3.357Z" transform="translate(-2410.368 -1144.702)" fill="#777"/>
            <path id="Path_7080" data-name="Path 7080" d="M2270.911,1010.26H2205.79l15.62,45.874h65.544Z" transform="translate(-2204.829 -1010.26)" fill="#9a9a9a"/>
            <path id="Path_7081" data-name="Path 7081" d="M2201.79,1010.26l15.625,45.872h65.542l-16.043-45.872Z" transform="translate(-2201.79 -1010.26)" fill="#fff"/>
            <path id="Path_7082" data-name="Path 7082" d="M2347.662,1093.924a4.231,4.231,0,0,0,3.907,3.174,2.444,2.444,0,0,0,2.441-3.174,4.234,4.234,0,0,0-3.907-3.174A2.443,2.443,0,0,0,2347.662,1093.924Z" transform="translate(-2312.55 -1071.411)" fill="#afafaf"/>
            <path id="Path_7083" data-name="Path 7083" d="M2201.79,1010.26l15.622,45.872h43.406c-28.752-9.815-36.407-39.737-37.69-45.872Z" transform="translate(-2201.79 -1010.26)" fill="#c4c4c4"/>
          </g>
        </g>
        <g id="Group_5827" data-name="Group 5827" transform="translate(189.2 126.175)">
          <g id="Group_5826" data-name="Group 5826">
            <path id="Path_7084" data-name="Path 7084" d="M2909.913,1363.9a1.684,1.684,0,0,1-1.669-1.37l-8.179-46.359-11.766-66.676-3.289-18.645,8.38-.24,1.453,10.824,10.209,76.061,6.052,45.084A1.181,1.181,0,0,1,2909.913,1363.9Z" transform="translate(-2885.01 -1230.61)" fill="#b9b9b9"/>
          </g>
          <path id="Path_7085" data-name="Path 7085" d="M2894.854,1241.444a12.028,12.028,0,0,0-6.544,8.061l-3.29-18.645,8.381-.24Z" transform="translate(-2885.018 -1230.618)" fill="#8f8f8f"/>
        </g>
        <g id="Group_5829" data-name="Group 5829" transform="translate(4.478 126.175)">
          <g id="Group_5828" data-name="Group 5828">
            <path id="Path_7086" data-name="Path 7086" d="M2117.393,1363.9a1.68,1.68,0,0,0,1.667-1.37l8.179-46.359,11.766-66.676,3.289-18.645-8.381-.24-1.453,10.824-10.209,76.061-6.052,45.084A1.184,1.184,0,0,0,2117.393,1363.9Z" transform="translate(-2116.189 -1230.61)" fill="#b9b9b9"/>
          </g>
          <path id="Path_7087" data-name="Path 7087" d="M2183.909,1241.444a12.021,12.021,0,0,1,6.543,8.061l3.289-18.645-8.38-.24Z" transform="translate(-2167.638 -1230.618)" fill="#8f8f8f"/>
        </g>
        <path id="Path_7088" data-name="Path 7088" d="M2317.244,1215.789H2102.66a5.125,5.125,0,0,1-5.111-5.11v-4.419a5.125,5.125,0,0,1,5.111-5.11h214.584a5.124,5.124,0,0,1,5.11,5.11v4.419A5.124,5.124,0,0,1,2317.244,1215.789Z" transform="translate(-2097.55 -1082.053)" fill="#b9b9b9"/>
      </g>
    </g>
  </g>
</svg>
