<svg id="Unlimited_access_to_e-learning_materials_" data-name="Unlimited access to e-learning materials " xmlns="http://www.w3.org/2000/svg" width="42" height="42" viewBox="0 0 42 42">
  <path id="Path_8673" data-name="Path 8673" d="M40.688,35.55V11.156a3.285,3.285,0,0,0-3.281-3.281H34.125V4.594a1.971,1.971,0,0,0-1.969-1.969H31.5V1.969A1.971,1.971,0,0,0,29.531,0H24.056a3.26,3.26,0,0,0-2.32.961L21,1.7,20.264.961A3.26,3.26,0,0,0,17.944,0H12.469A1.971,1.971,0,0,0,10.5,1.969v.656H9.844A1.971,1.971,0,0,0,7.875,4.594V7.875H4.594a3.285,3.285,0,0,0-3.281,3.281V35.55A1.972,1.972,0,0,0,0,37.406v1.313A3.285,3.285,0,0,0,3.281,42H38.719A3.285,3.285,0,0,0,42,38.719V37.406A1.972,1.972,0,0,0,40.688,35.55ZM9.844,21.656h9.3a1.971,1.971,0,0,0,3.713,0h9.3a1.971,1.971,0,0,0,1.969-1.969V11.813H36.75v21H5.25v-21H7.875v7.875A1.971,1.971,0,0,0,9.844,21.656ZM22.664,1.889a1.956,1.956,0,0,1,1.392-.577h5.475a.657.657,0,0,1,.656.656V15.75a.657.657,0,0,1-.656.656H24.056a3.273,3.273,0,0,0-2.4,1.041V2.9Zm-10.851.08a.657.657,0,0,1,.656-.656h5.475a1.956,1.956,0,0,1,1.392.577L20.344,2.9v14.55a3.273,3.273,0,0,0-2.4-1.041H12.469a.657.657,0,0,1-.656-.656ZM9.188,4.594a.657.657,0,0,1,.656-.656H10.5V15.75a1.971,1.971,0,0,0,1.969,1.969h5.475a1.956,1.956,0,0,1,1.392.577c1.276,1.276,1.372,1.523,1.915,1.342.175-.076.133-.062,1.413-1.342a1.956,1.956,0,0,1,1.392-.577h5.475A1.971,1.971,0,0,0,31.5,15.75V3.938h.656a.657.657,0,0,1,.656.656V19.688a.657.657,0,0,1-.656.656H22.313a.656.656,0,0,0-.656.656.656.656,0,0,1-1.312,0,.656.656,0,0,0-.656-.656H9.844a.657.657,0,0,1-.656-.656ZM2.625,11.156A1.971,1.971,0,0,1,4.594,9.188H7.875V10.5H4.594a.656.656,0,0,0-.656.656V33.469a.656.656,0,0,0,.656.656H37.406a.656.656,0,0,0,.656-.656V11.156a.656.656,0,0,0-.656-.656H34.125V9.188h3.281a1.971,1.971,0,0,1,1.969,1.969V35.438H25.594a.656.656,0,0,0-.464.192l-1.12,1.12H17.991l-1.12-1.12a.656.656,0,0,0-.464-.192H2.625ZM40.688,38.719a1.971,1.971,0,0,1-1.969,1.969H3.281a1.971,1.971,0,0,1-1.969-1.969V37.406a.657.657,0,0,1,.656-.656H16.134l1.12,1.12a.656.656,0,0,0,.464.192h6.562a.656.656,0,0,0,.464-.192l1.12-1.12H40.031a.657.657,0,0,1,.656.656Z" fill="#fff"/>
  <path id="Path_8674" data-name="Path 8674" d="M280.648,50.625a.654.654,0,0,0,.464-.192l.544-.544a1.956,1.956,0,0,1,1.392-.577h2.194a.656.656,0,0,0,0-1.312h-2.194a3.26,3.26,0,0,0-2.32.961l-.544.544A.657.657,0,0,0,280.648,50.625Z" transform="translate(-257.023 -44.063)" fill="#fff"/>
  <path id="Path_8675" data-name="Path 8675" d="M280.648,98.625a.654.654,0,0,0,.464-.192l.544-.544a1.956,1.956,0,0,1,1.392-.577h2.194a.656.656,0,0,0,0-1.312h-2.194a3.26,3.26,0,0,0-2.32.961l-.544.544A.657.657,0,0,0,280.648,98.625Z" transform="translate(-257.023 -88.125)" fill="#fff"/>
  <path id="Path_8676" data-name="Path 8676" d="M280.648,146.625a.654.654,0,0,0,.464-.192l.544-.544a1.956,1.956,0,0,1,1.392-.577h2.194a.656.656,0,0,0,0-1.312h-2.194a3.26,3.26,0,0,0-2.32.961l-.544.544A.657.657,0,0,0,280.648,146.625Z" transform="translate(-257.023 -132.188)" fill="#fff"/>
  <path id="Path_8677" data-name="Path 8677" d="M160.656,49.313h2.194a1.956,1.956,0,0,1,1.392.577l.544.544a.656.656,0,0,0,.928-.928l-.544-.544A3.26,3.26,0,0,0,162.85,48h-2.194a.656.656,0,1,0,0,1.312Z" transform="translate(-146.875 -44.063)" fill="#fff"/>
  <path id="Path_8678" data-name="Path 8678" d="M160.656,97.313h2.194a1.956,1.956,0,0,1,1.392.577l.544.544a.656.656,0,0,0,.928-.928l-.544-.544A3.26,3.26,0,0,0,162.85,96h-2.194a.656.656,0,0,0,0,1.313Z" transform="translate(-146.875 -88.125)" fill="#fff"/>
  <path id="Path_8679" data-name="Path 8679" d="M160.656,145.313h2.194a1.956,1.956,0,0,1,1.392.577l.544.544a.656.656,0,0,0,.928-.928l-.544-.544a3.26,3.26,0,0,0-2.32-.961h-2.194a.656.656,0,0,0,0,1.313Z" transform="translate(-146.875 -132.188)" fill="#fff"/>
</svg>
