<svg xmlns="http://www.w3.org/2000/svg" width="467.656" height="436.985" viewBox="0 0 467.656 436.985">
  <g id="Access_real-time_" data-name="Access real-time " transform="translate(-8.41 -30.445)">
    <g id="Floor" transform="translate(8.41 197.416)">
      <ellipse id="Floor_1_" cx="233.828" cy="135.007" rx="233.828" ry="135.007" fill="#f9f9f9"/>
    </g>
    <g id="Shadows" transform="translate(25.752 223.489)">
      <ellipse id="Shadow_28_" cx="46.845" cy="27.042" rx="46.845" ry="27.042" transform="translate(297.729 141.719)" fill="#e0e0e0"/>
      <path id="Shadow_3_" d="M66.294,385.757,27.883,363.583c-2.167-1.253-2.167-3.275,0-4.528l223.431-129a8.646,8.646,0,0,1,7.842,0l38.411,22.174c2.167,1.253,2.167,3.275,0,4.528l-223.421,129A8.666,8.666,0,0,1,66.294,385.757Z" transform="translate(-26.257 -229.113)" fill="#e0e0e0"/>
    </g>
    <g id="Clouds" transform="translate(40.641 47.366)">
      <path id="Cloud_1_" d="M92.545,52.6l-8.687,5.014c.039-.389.078-.777.078-1.147V53.952c0-4.48-3.148-6.3-7.025-4.052a13.579,13.579,0,0,0-4.188,4.023c-.632-5.636-5.053-7.725-10.417-4.635-5.8,3.352-10.5,11.5-10.5,18.2v3.76a9.843,9.843,0,0,0,.894,4.363l-7.22,4.169a8.628,8.628,0,0,0-3.9,6.744c0,2.488,1.739,3.488,3.9,2.245L92.545,61.6a8.628,8.628,0,0,0,3.9-6.744C96.432,52.369,94.693,51.358,92.545,52.6Z" transform="translate(-41.58 -47.859)" fill="#ebebeb"/>
      <path id="Cloud" d="M139.2,74.056l-6.559,3.79c.029-.292.058-.583.058-.865V75.086c0-3.381-2.371-4.752-5.3-3.061a10.185,10.185,0,0,0-3.158,3.041c-.476-4.246-3.809-5.83-7.861-3.5a17.514,17.514,0,0,0-7.929,13.73v2.837a7.524,7.524,0,0,0,.67,3.294l-5.441,3.148a6.5,6.5,0,0,0-2.944,5.092c0,1.875,1.312,2.633,2.944,1.7l35.525-20.512a6.5,6.5,0,0,0,2.944-5.092C142.144,73.881,140.822,73.123,139.2,74.056Z" transform="translate(-43.255 -48.5)" fill="#ebebeb"/>
    </g>
    <g id="Device" transform="translate(54.293 30.445)">
      <g id="Monitor_2_">
        <g id="XMLID_7999_" transform="translate(92.476 213.641)">
          <g id="XMLID_8004_">
            <path id="XMLID_8250_" d="M207.9,346.838l33.018-19.094c3.4-1.963,5.1-4.538,5.1-7.113s.01-4.6.01-4.6l-34.262-19.317a7.258,7.258,0,0,1-3.284-5.694V250.31L150.8,283.639v40.714a7.257,7.257,0,0,0,3.284,5.694l29.141,16.791C190.047,350.764,201.085,350.764,207.9,346.838Z" transform="translate(-150.8 -250.31)" fill="#263238"/>
          </g>
          <path id="XMLID_8003_" d="M164.656,332.34v4.577l-10.572-6.093a7.254,7.254,0,0,1-3.284-5.694v-40.7l10.99-6.335c.223,2.789.476,5.675.7,8.483l-7.706,4.46v31.8a7.2,7.2,0,0,0,3.284,5.694Z" transform="translate(-150.8 -251.096)"/>
          <path id="XMLID_8002_" d="M154.91,322.252a7.257,7.257,0,0,0,3.284,5.694l25.167,14.5c6.812,3.926,17.85,3.935,24.652,0l33.038-19.094c6.812-3.926,6.812-10.3,0-14.235l-25.177-14.507a7.258,7.258,0,0,1-3.284-5.694V257.1l-57.68,33.329v31.823Z" transform="translate(-150.916 -250.502)"/>
          <path id="XMLID_8001_" d="M222.569,298.485h0l-6.695-3.867a7.258,7.258,0,0,1-3.284-5.694V257.11l-57.68,33.329v31.813a7.257,7.257,0,0,0,3.284,5.694l6.578,3.8Z" transform="translate(-150.916 -250.502)" fill="#202020"/>
          <path id="XMLID_8000_" d="M247.356,317.95v4.6c0,2.585-1.71,5.14-5.1,7.113l-33.028,19.084a24.766,24.766,0,0,1-11.767,2.925v-4.577a24.683,24.683,0,0,0,11.767-2.925l33.028-19.1C245.646,323.11,247.356,320.535,247.356,317.95Z" transform="translate(-152.121 -252.225)" fill="#676767"/>
        </g>
        <path id="XMLID_7156_" d="M59.488,355.374a8.83,8.83,0,0,0,7.968-.146c28.354-16.373,194.7-112.415,223.052-128.788a9.077,9.077,0,0,0,4.11-7.113V38.291a8.8,8.8,0,0,0-3.858-6.967,8.83,8.83,0,0,0-7.968.146L59.74,160.258a9.077,9.077,0,0,0-4.11,7.113V348.407A8.828,8.828,0,0,0,59.488,355.374Z" transform="translate(-55.63 -30.445)" fill="#6d6d6d"/>
        <path id="XMLID_7143_" d="M67.671,355.362,290.732,226.583a9.077,9.077,0,0,0,4.11-7.113V38.435c0-2.624-1.836-3.683-4.11-2.371L67.68,164.842a9.077,9.077,0,0,0-4.11,7.113V352.991C63.57,355.614,65.406,356.674,67.671,355.362Z" transform="translate(-55.855 -30.588)" fill="#27debf"/>
        <path id="XMLID_7140_" d="M67.671,355.362,290.732,226.583a9.077,9.077,0,0,0,4.11-7.113V38.435c0-2.624-1.836-3.683-4.11-2.371L67.68,164.842a9.077,9.077,0,0,0-4.11,7.113V352.991C63.57,355.614,65.406,356.674,67.671,355.362Z" transform="translate(-55.855 -30.588)" fill="#545454"/>
        <path id="XMLID_7139_" d="M66.843,368.823a8.832,8.832,0,0,1-7.365-.155,8.811,8.811,0,0,1-3.848-6.986V345.25l7.706,4.46v16.431C63.336,368.541,64.851,369.62,66.843,368.823Z" transform="translate(-55.63 -39.356)" fill="#333"/>
        <path id="XMLID_7138_" d="M63.56,345.959l.01,16.422c0,2.624,1.836,3.683,4.11,2.371L290.742,235.973a9.077,9.077,0,0,0,4.11-7.113V212.4Z" transform="translate(-55.854 -35.595)"/>
        <path id="XMLID_7137_" d="M63.57,345.92v16.46c0,2.624,1.836,3.683,4.11,2.371L290.742,235.973a9.077,9.077,0,0,0,4.11-7.113V212.4Z" transform="translate(-55.855 -35.595)" opacity="0.2"/>
        <path id="XMLID_7133_" d="M71.5,320.7V174.888a5.431,5.431,0,0,1,2.468-4.266L284.884,48.84c1.36-.787,2.468-.146,2.468,1.419l.01,145.822a5.431,5.431,0,0,1-2.468,4.266L73.958,322.129C72.6,322.916,71.5,322.274,71.5,320.7Z" transform="translate(-56.079 -30.956)" fill="#a8a8a8"/>
        <path id="XMLID_7132_" d="M71.5,320.7V174.888a5.431,5.431,0,0,1,2.468-4.266L284.884,48.84c1.36-.787,2.468-.146,2.468,1.419l.01,145.822a5.431,5.431,0,0,1-2.468,4.266L73.958,322.129C72.6,322.916,71.5,322.274,71.5,320.7Z" transform="translate(-56.079 -30.956)" opacity="0.3"/>
        <path id="XMLID_7130_" d="M182.458,286.485a8.531,8.531,0,0,0-3.858,6.676c0,2.458,1.73,3.459,3.858,2.225a8.531,8.531,0,0,0,3.858-6.676C186.315,286.251,184.586,285.251,182.458,286.485Z" transform="translate(-59.111 -37.678)" fill="#455a64"/>
        <path id="XMLID_7129_" d="M64.55,171.621a8.747,8.747,0,0,0-1.215,4.062v169l-7.706-4.46V171.242a8.525,8.525,0,0,1,1.215-4.062Z" transform="translate(-55.63 -34.315)" fill="#333"/>
      </g>
    </g>
    <g id="Spreadsheets" transform="translate(97.048 37.215)">
      <g id="Window_1_" transform="translate(0 0)">
        <g id="Window_5_">
          <g id="XMLID_7126_" transform="translate(0.01 0.002)">
            <path id="Path_9872" data-name="Path 9872" d="M326.929,37.634a2.034,2.034,0,0,0-2.1.165L102.516,166.189a6.355,6.355,0,0,0-2.876,4.985V321.047a2.81,2.81,0,0,0,1.215,2.507c.466.253,2.944,1.691,3.683,2.089a1.655,1.655,0,0,0,1.671-.1l222.3-128.438a6.35,6.35,0,0,0,2.886-4.985V41.55a2,2,0,0,0-.894-1.895C329.98,39.383,327.453,37.945,326.929,37.634Z" transform="translate(-99.64 -37.414)" fill="#858585"/>
          </g>
          <g id="XMLID_7118_" transform="translate(0 2.077)">
            <g id="XMLID_7120_" transform="translate(3.692)">
              <path id="Path_9873" data-name="Path 9873" d="M105.368,325.417c-.8,0-1.448-.991-1.448-2.2V173.337a5.924,5.924,0,0,1,2.633-4.567L328.867,40.38a2.153,2.153,0,0,1,1.04-.33c.69,0,1.108.583,1.108,1.574V192.2a5.89,5.89,0,0,1-2.633,4.557L106.077,325.2A1.487,1.487,0,0,1,105.368,325.417Z" transform="translate(-103.444 -39.564)" fill="#fafafa"/>
              <path id="Path_9874" data-name="Path 9874" d="M329.9,40.522h0c.544,0,.622.68.622,1.088V192.193a5.364,5.364,0,0,1-2.4,4.139L105.82,324.761a.986.986,0,0,1-.466.146c-.515,0-.962-.8-.962-1.71V173.323a5.4,5.4,0,0,1,2.39-4.149L329.1,40.784a1.707,1.707,0,0,1,.806-.262m0-.972a2.616,2.616,0,0,0-1.283.389l-222.314,128.4a6.355,6.355,0,0,0-2.876,4.985V323.2c0,1.448.807,2.682,1.934,2.682a1.872,1.872,0,0,0,.952-.282l222.3-128.438a6.35,6.35,0,0,0,2.886-4.985V41.61c-.01-1.3-.661-2.06-1.6-2.06Z" transform="translate(-103.43 -39.55)" fill="#e0e0e0"/>
            </g>
            <path id="XMLID_7119_" d="M100.845,327.723c.311.165,2.546,1.438,3.527,2a2.931,2.931,0,0,1-1.059-2.42V186.847L99.63,184.69V325.216A2.82,2.82,0,0,0,100.845,327.723Z" transform="translate(-99.63 -43.659)" fill="#f0f0f0"/>
          </g>
          <g id="XMLID_7112_">
            <path id="XMLID_7117_" d="M331.5,41.581c-.01-1.817-1.292-2.556-2.876-1.642l-222.314,128.4a6.355,6.355,0,0,0-2.876,4.985v9.416L331.5,51.035Z" transform="translate(-99.738 -37.472)" fill="#4b4b4b"/>
            <g id="XMLID_7114_" transform="translate(0.875)" opacity="0.4">
              <path id="Path_9875" data-name="Path 9875" d="M328.528,39.878l-222.3,128.4a5.98,5.98,0,0,0-2.031,2.138L100.53,168.3a5.713,5.713,0,0,1,2-2.1L324.855,37.8a2.043,2.043,0,0,1,2.089-.175c.515.321,2.905,1.671,3.518,2A2.121,2.121,0,0,0,328.528,39.878Z" transform="translate(-100.53 -37.412)" fill="#fff"/>
            </g>
            <path id="XMLID_7113_" d="M99.63,184.344v-9.357a5.917,5.917,0,0,1,.875-2.876l3.663,2.109a5.833,5.833,0,0,0-.865,2.857v9.416Z" transform="translate(-99.63 -41.225)" opacity="0.15"/>
          </g>
          <g id="XMLID_7076_" transform="translate(0 13.563)">
            <path id="XMLID_7111_" d="M103.43,183.073l-.01,16.966L331.5,68.355V51.37Z" transform="translate(-99.737 -51.37)" fill="#ebebeb"/>
            <g id="XMLID_7078_" transform="translate(13.176 9.387)">
              <path id="XMLID_7110_" d="M113.2,185.373l14.75-8.483v8.463l-14.76,8.512Z" transform="translate(-113.19 -64.31)" fill="#e0e0e0"/>
              <g id="XMLID_7103_" transform="translate(18.404 93.448)">
                <path id="XMLID_7109_" d="M132.13,174.566v3.343l7.356-4.256V170.32Z" transform="translate(-132.13 -157.571)" fill="#e0e0e0"/>
                <path id="XMLID_7108_" d="M132.13,179.876v3.343l7.356-4.246V175.63Z" transform="translate(-132.13 -157.722)" fill="#e0e0e0"/>
                <path id="XMLID_7107_" d="M143.48,168.006l.01,3.343,7.356-4.246V163.76Z" transform="translate(-132.451 -157.386)" fill="#e0e0e0"/>
                <path id="XMLID_7106_" d="M143.48,173.316l.01,3.343,7.356-4.246V169.07Z" transform="translate(-132.451 -157.536)" fill="#e0e0e0"/>
                <path id="XMLID_7105_" d="M154.84,161.446v3.343l7.356-4.246V157.2Z" transform="translate(-132.773 -157.2)" fill="#e0e0e0"/>
                <path id="XMLID_7104_" d="M154.84,166.756V170.1l7.356-4.246V162.51Z" transform="translate(-132.773 -157.35)" fill="#e0e0e0"/>
              </g>
              <g id="XMLID_7096_" transform="translate(73.577 61.596)">
                <path id="XMLID_7102_" d="M188.91,141.776v3.343l7.356-4.246V137.53Z" transform="translate(-188.91 -124.791)" fill="#e0e0e0"/>
                <path id="XMLID_7101_" d="M188.91,147.086v3.343l7.356-4.246V142.84Z" transform="translate(-188.91 -124.941)" fill="#e0e0e0"/>
                <path id="XMLID_7100_" d="M200.27,135.226v3.343l7.356-4.256V130.97Z" transform="translate(-189.232 -124.605)" fill="#e0e0e0"/>
                <path id="XMLID_7099_" d="M200.27,140.536v3.343l7.356-4.256V136.28Z" transform="translate(-189.232 -124.756)" fill="#e0e0e0"/>
                <path id="XMLID_7098_" d="M211.62,128.666l.01,3.343,7.356-4.256V124.42Z" transform="translate(-189.553 -124.42)" fill="#e0e0e0"/>
                <path id="XMLID_7097_" d="M211.62,133.976l.01,3.343,7.356-4.256V129.73Z" transform="translate(-189.553 -124.57)" fill="#e0e0e0"/>
              </g>
              <path id="XMLID_7095_" d="M166.2,154.711l18.394-10.621v8.493L166.2,163.2Z" transform="translate(-114.691 -63.381)" fill="#e0e0e0"/>
              <path id="XMLID_7094_" d="M222.99,121.983l14.75-8.473v8.454l-14.76,8.522Z" transform="translate(-116.298 -62.516)" fill="#e0e0e0"/>
              <g id="XMLID_7087_" transform="translate(125.076 31.862)">
                <path id="XMLID_7093_" d="M241.91,111.176l.01,3.343,7.356-4.246V106.93Z" transform="translate(-241.91 -94.191)" fill="#e0e0e0"/>
                <path id="XMLID_7092_" d="M241.91,116.486l.01,3.343,7.356-4.246V112.24Z" transform="translate(-241.91 -94.341)" fill="#e0e0e0"/>
                <path id="XMLID_7091_" d="M253.27,104.626v3.333l7.356-4.246V100.37Z" transform="translate(-242.232 -94.005)" fill="#e0e0e0"/>
                <path id="XMLID_7090_" d="M253.27,109.936v3.333l7.356-4.246V105.68Z" transform="translate(-242.232 -94.156)" fill="#e0e0e0"/>
                <path id="XMLID_7089_" d="M264.63,98.066v3.343l7.356-4.256V93.82Z" transform="translate(-242.553 -93.82)" fill="#e0e0e0"/>
                <path id="XMLID_7088_" d="M264.63,103.376v3.343l7.356-4.256V99.13Z" transform="translate(-242.553 -93.97)" fill="#e0e0e0"/>
              </g>
              <g id="XMLID_7080_" transform="translate(180.259)">
                <path id="XMLID_7086_" d="M298.7,78.4v3.343l7.356-4.256V74.15Z" transform="translate(-298.7 -61.401)" fill="#e0e0e0"/>
                <path id="XMLID_7085_" d="M298.7,83.706v3.343l7.356-4.256V79.46Z" transform="translate(-298.7 -61.552)" fill="#e0e0e0"/>
                <path id="XMLID_7084_" d="M310.06,71.836v3.343l7.356-4.246V67.59Z" transform="translate(-299.022 -61.216)" fill="#e0e0e0"/>
                <path id="XMLID_7083_" d="M310.06,77.146v3.343l7.356-4.246V72.9Z" transform="translate(-299.022 -61.366)" fill="#e0e0e0"/>
                <path id="XMLID_7082_" d="M321.41,65.276v3.343l7.365-4.246V61.03Z" transform="translate(-299.343 -61.03)" fill="#e0e0e0"/>
                <path id="XMLID_7081_" d="M321.41,70.586v3.343l7.365-4.246V66.34Z" transform="translate(-299.343 -61.18)" fill="#e0e0e0"/>
              </g>
              <path id="XMLID_7079_" d="M275.99,91.321,294.384,80.7v8.5L275.99,99.813Z" transform="translate(-117.798 -61.587)" fill="#e0e0e0"/>
            </g>
            <path id="XMLID_7077_" d="M103.322,186.847,99.63,184.69v16.995l3.683,2.128Z" transform="translate(-99.63 -55.144)" fill="#e0e0e0"/>
          </g>
          <g id="XMLID_7073_" transform="translate(172.903 12.122)">
            <path id="XMLID_7075_" d="M277.57,78.623v.622c0,1,.7,1.409,1.564.9l44.688-25.8a3.466,3.466,0,0,0,1.564-2.721v-.622c0-1-.7-1.409-1.564-.9L279.134,75.9A3.481,3.481,0,0,0,277.57,78.623Z" transform="translate(-277.57 -49.887)" fill="#f5f5f5"/>
            <path id="XMLID_7074_" d="M326.566,51.639v-.622c0-1-.7-1.409-1.564-.9l-5.791,3.343h0V57.7h0L325,54.36A3.481,3.481,0,0,0,326.566,51.639Z" transform="translate(-278.749 -49.887)" fill="#455a64"/>
          </g>
        </g>
        <g id="Spreadsheets_2_" transform="translate(6.918 36.145)">
          <path id="XMLID_7072_" d="M107.21,202.828,327.92,75.42v8.473L125.594,200.72V311.153L107.21,321.763Z" transform="translate(-106.763 -74.633)" fill="#f0f0f0"/>
          <path id="XMLID_7071_" d="M126.13,204.061l18.384-10.611v8.473l-18.384,10.63Z" transform="translate(-107.299 -77.974)" fill="#a2a2a2"/>
          <path id="XMLID_7070_" d="M126.13,273.991l18.384-10.611v8.473l-18.384,10.63Z" transform="translate(-107.299 -79.954)" fill="#a2a2a2"/>
          <g id="XMLID_7067_" transform="translate(18.831 191.919)">
            <path id="XMLID_7069_" d="M126.13,282.731l18.384-10.611v8.473l-18.384,10.63Z" transform="translate(-126.13 -272.12)" fill="#2e2e2e"/>
            <path id="XMLID_7068_" d="M126.13,282.731l18.384-10.611v8.473l-18.384,10.63Z" transform="translate(-126.13 -272.12)" fill="#3a3a3a" opacity="0.8"/>
          </g>
          <g id="XMLID_7064_" transform="translate(129.177 119.713)">
            <path id="XMLID_7066_" d="M239.69,208.421l18.375-10.611v8.473l-18.375,10.63Z" transform="translate(-239.69 -197.81)" fill="#929292"/>
            <path id="XMLID_7065_" d="M239.69,208.421l18.375-10.611v8.473l-18.375,10.63Z" transform="translate(-239.69 -197.81)" fill="#929292" opacity="0.3"/>
          </g>
          <g id="XMLID_7061_" transform="translate(129.177 128.205)">
            <path id="XMLID_7063_" d="M239.69,217.161l18.375-10.611v8.473l-18.375,10.63Z" transform="translate(-239.69 -206.55)" fill="#d2d2d2"/>
            <path id="XMLID_7062_" d="M239.69,217.161l18.375-10.611v8.473l-18.375,10.63Z" transform="translate(-239.69 -206.55)" fill="#d2d2d2" opacity="0.4"/>
          </g>
          <g id="XMLID_7058_" transform="translate(129.177 136.707)">
            <path id="XMLID_7060_" d="M239.69,225.911,258.065,215.3v8.473L239.69,234.4Z" transform="translate(-239.69 -215.3)" fill="#d2d2d2"/>
            <path id="XMLID_7059_" d="M239.69,225.911,258.065,215.3v8.473L239.69,234.4Z" transform="translate(-239.69 -215.3)" fill="#d2d2d2" opacity="0.5"/>
          </g>
          <g id="XMLID_7055_" transform="translate(129.177 145.2)">
            <path id="XMLID_7057_" d="M239.69,234.651l18.375-10.611v8.473l-18.375,10.63Z" transform="translate(-239.69 -224.04)" fill="#929292"/>
            <path id="XMLID_7056_" d="M239.69,234.651l18.375-10.611v8.473l-18.375,10.63Z" transform="translate(-239.69 -224.04)" fill="#929292" opacity="0.3"/>
          </g>
          <path id="XMLID_7054_" d="M220.78,149.411,239.155,138.8v42.473L220.78,191.9Z" transform="translate(-109.978 -76.427)" fill="#444"/>
          <path id="XMLID_7053_" d="M220.78,201.871l18.375-10.611v59.458l-18.375,10.63Z" transform="translate(-109.978 -77.912)" fill="#444"/>
          <g id="XMLID_7050_" transform="translate(37.216 155.821)">
            <path id="XMLID_7052_" d="M145.05,245.581l18.375-10.611v8.473l-18.375,10.63Z" transform="translate(-145.05 -234.97)" fill="#a2a2a2"/>
            <path id="XMLID_7051_" d="M145.05,245.581l18.375-10.611v8.473l-18.375,10.63Z" transform="translate(-145.05 -234.97)" fill="#a2a2a2" opacity="0.3"/>
          </g>
          <g id="XMLID_7047_" transform="translate(74.014 92.107)">
            <path id="XMLID_7049_" d="M182.92,180.011,201.3,169.4v8.473L182.92,188.494Z" transform="translate(-182.92 -169.4)" fill="#a2a2a2"/>
            <path id="XMLID_7048_" d="M182.92,180.011,201.3,169.4v8.473L182.92,188.494Z" transform="translate(-182.92 -169.4)" fill="#a2a2a2" opacity="0.6"/>
          </g>
          <g id="XMLID_7044_" transform="translate(165.985 89.979)">
            <path id="XMLID_7046_" d="M277.57,177.821l18.375-10.611v8.473l-18.375,10.63Z" transform="translate(-277.57 -167.21)" fill="#a2a2a2"/>
            <path id="XMLID_7045_" d="M277.57,177.821l18.375-10.611v8.473l-18.375,10.63Z" transform="translate(-277.57 -167.21)" fill="#a2a2a2" opacity="0.8"/>
          </g>
          <path id="XMLID_7043_" d="M277.57,195.311,295.945,184.7v8.473L277.57,203.8Z" transform="translate(-111.585 -77.726)" fill="#a2a2a2"/>
          <path id="XMLID_2338_" d="M106.973,202.426l-.223.126V322.537L328.14,194.711l.224-.126V74.61ZM327.46,185.587l-17.481,10.1V188.23l17.481-10.1ZM107.654,211.57l17.481-10.1v7.453l-17.481,10.1Zm109.451-12.2v7.453l-17.49,10.1v-7.453Zm-17.49,9.046v-7.453l17.49-10.1v7.453Zm18.394-9.571,17.49-10.1V196.2l-17.49,10.1Zm0-1.049v-7.453l17.49-10.1V187.7Zm0-8.493v-7.453l17.49-10.1V179.2Zm0-8.5v-7.453l17.49-10.1V170.7Zm-.9.525-17.49,10.1v-7.453l17.49-10.1Zm0,1.049v7.453l-17.49,10.1v-7.453Zm-18.394,18.073-17.49,10.1v-7.453l17.49-10.1Zm0,1.04v7.453l-17.49,10.1V211.58Zm0,8.5v7.453l-17.49,10.1v-7.453Zm0,8.493v7.453l-17.49,10.1v-7.453Zm.9-.525,17.49-10.1v7.453l-17.49,10.1Zm17.49-1.594v7.453l-17.49,10.1v-7.453Zm.9-.525,17.49-10.1v7.453l-17.49,10.1Zm0-1.049v-7.453l17.49-10.1v7.453ZM236.4,196.723l17.49-10.1v7.453l-17.49,10.1Zm0-1.049V188.22l17.49-10.1v7.453Zm0-8.493v-7.453l17.49-10.1v7.453Zm0-8.5v-7.453l17.49-10.1v7.453Zm0-8.493v-7.453l17.49-10.1v7.453Zm0-8.5V154.23l17.49-10.1v7.453Zm-.9.525-17.49,10.1v-7.453l17.49-10.1Zm-18.394,10.621-17.49,10.1v-7.453l17.49-10.1Zm-18.394,10.621-17.49,10.1v-7.453l17.49-10.1Zm0,1.04v7.453l-17.49,10.1v-7.453Zm-18.394,18.073-17.49,10.1v-7.453l17.49-10.1Zm0,1.049v7.453l-17.49,10.1v-7.453Zm0,8.493v7.453l-17.49,10.1V222.2Zm0,8.5v7.453l-17.49,10.1V230.7Zm0,8.493v7.453l-17.49,10.1V239.2Zm0,8.5v7.453l-17.49,10.1V247.7Zm.9-.525,17.49-10.1v7.453l-17.49,10.1Zm17.49-1.6v7.453l-17.49,10.1V245.57Zm.9-.525,17.49-10.1v7.453l-17.49,10.1Zm18.394-10.611,17.49-10.1V221.7l-17.49,10.1ZM236.4,213.717l17.49-10.1v7.453l-17.49,10.1Zm0-1.049v-7.453l17.49-10.1v7.453ZM254.8,194.595l17.49-10.1v7.453l-17.49,10.1Zm0-1.04V186.1l17.49-10.1v7.453Zm0-8.5V177.6l17.49-10.1v7.453Zm0-8.493v-7.453l17.49-10.1v7.453Zm0-8.5V160.6l17.49-10.1v7.453Zm0-8.493v-7.453l17.49-10.1v7.453Zm0-8.5V143.61l17.49-10.1v7.453Zm0-8.493v-7.453l17.49-10.1v7.453Zm-.9.515-17.49,10.1v-7.453l17.49-10.1ZM235.5,153.706l-17.49,10.1v-7.453l17.49-10.1Zm-18.394,10.621-17.49,10.1v-7.453l17.49-10.1Zm-18.394,10.621-17.49,10.1V177.59l17.49-10.1Zm-18.394,10.621-17.49,10.1v-7.453l17.49-10.1Zm0,1.049v7.453l-17.49,10.1v-7.453Zm-18.394,18.064-17.49,10.1v-7.453l17.49-10.1Zm0,1.049v7.453l-17.49,10.1v-7.453Zm0,8.493v7.453l-17.49,10.1v-7.453Zm0,8.5v7.453l-17.49,10.1v-7.453Zm0,8.493v7.453l-17.49,10.1v-7.453Zm0,8.5v7.453l-17.49,10.1v-7.453Zm0,8.493v7.453l-17.49,10.1v-7.453Zm0,8.5v7.453l-17.49,10.1v-7.453Zm.9-.525,17.49-10.1v7.453l-17.49,10.1Zm17.49-1.594v7.453l-17.49,10.1v-7.453Zm.9-.525,17.49-10.1v7.453l-17.49,10.1Zm18.394-10.621,17.49-10.1v7.453l-17.49,10.1Zm18.394-10.621,17.49-10.1v7.453l-17.49,10.1ZM236.4,222.21l17.49-10.1v7.453l-17.49,10.1ZM254.8,211.589l17.49-10.1v7.453l-17.49,10.1Zm0-1.04V203.1l17.49-10.1v7.453Zm18.394-18.073,17.49-10.1v7.453l-17.49,10.1Zm0-1.049v-7.453l17.49-10.1v7.453Zm0-8.493v-7.453l17.49-10.1v7.453Zm0-8.5v-7.453l17.49-10.1v7.453Zm0-8.493v-7.453l17.49-10.1v7.453Zm0-8.5v-7.453l17.49-10.1v7.453Zm0-8.493v-7.453l17.49-10.1v7.453Zm0-8.5v-7.453l17.49-10.1v7.453Zm0-8.493V124.5l17.49-10.1v7.453Zm0-8.5v-7.453l17.49-10.1v7.453Zm-.9.525-17.49,10.1v-7.453l17.49-10.1Zm-18.394,10.621-17.49,10.1v-7.453l17.49-10.1ZM235.5,145.213l-17.49,10.1v-7.453l17.49-10.1Zm-18.394,10.621-17.49,10.1v-7.453l17.49-10.1Zm-18.394,10.621-17.49,10.1V169.1l17.49-10.1Zm-18.394,10.611-17.49,10.1v-7.453l17.49-10.1Zm-18.394,10.621-17.49,10.1v-7.453l17.49-10.1Zm0,1.049v7.453l-17.49,10.1v-7.453Zm-18.394,18.073-17.49,10.1v-7.453l17.49-10.1Zm0,1.04V215.3l-17.49,10.1v-7.453Zm0,8.5V223.8l-17.49,10.1v-7.453Zm0,8.493V232.3l-17.49,10.1v-7.453Zm0,8.5V240.8l-17.49,10.1v-7.453Zm0,8.493v7.453l-17.49,10.1v-7.453Zm0,8.5v7.453l-17.49,10.1v-7.453Zm0,8.493v7.453l-17.49,10.1v-7.453Zm0,8.5v7.453l-17.49,10.1v-7.453Zm0,8.493v7.453l-17.49,10.1v-7.453Zm.9-.515,17.49-10.1v7.453l-17.49,10.1Zm17.49-1.6v7.453l-17.49,10.1v-7.453Zm.9-.525,17.49-10.1v7.453l-17.49,10.1Zm18.394-10.621,17.49-10.1v7.453l-17.49,10.1Zm18.394-10.621,17.49-10.1V249.3l-17.49,10.1Zm18.394-10.611,17.49-10.1v7.453l-17.49,10.1ZM236.4,230.712l17.49-10.1v7.453l-17.49,10.1ZM254.8,220.092l17.49-10.1v7.453l-17.49,10.1Zm18.394-10.621,17.49-10.1v7.453l-17.49,10.1Zm0-1.049v-7.453l17.49-10.1v7.453Zm18.394-18.064,17.49-10.1v7.443l-17.49,10.1Zm0-1.049v-7.453l17.49-10.1v7.453Zm0-8.5v-7.453l17.49-10.1v7.453Zm0-8.493v-7.453l17.49-10.1v7.453Zm0-8.5v-7.453l17.49-10.1v7.453Zm0-8.493v-7.453l17.49-10.1v7.453Zm0-8.5v-7.453l17.49-10.1v7.453Zm0-8.493v-7.453l17.49-10.1v7.453Zm0-8.5v-7.453l17.49-10.1v7.453Zm0-8.493v-7.453l17.49-10.1v7.453Zm0-8.5v-7.453l17.49-10.1v7.453Zm0-8.493V96.891l17.49-10.1v7.443Zm-.913.525-17.49,10.1v-7.443l17.49-10.1Zm-18.384,10.621-17.49,10.1v-7.443l17.49-10.1ZM253.893,126.09l-17.49,10.1v-7.443l17.49-10.1ZM235.5,136.711l-17.49,10.1v-7.443l17.49-10.1Zm-18.394,10.621-17.49,10.1v-7.443l17.49-10.1Zm-18.394,10.621-17.49,10.1V160.6l17.49-10.1Zm-18.394,10.621-17.49,10.1v-7.443l17.49-10.1Zm-18.394,10.621-17.49,10.1v-7.443l17.49-10.1Zm-18.394,10.621-17.49,10.1v-7.443l17.49-10.1Zm0,1.04v7.453l-17.49,10.1v-7.453Zm-35.875,29.219,17.481-10.1v7.453l-17.481,10.1Zm0,8.493,17.481-10.1v7.453l-17.481,10.1Zm0,8.5,17.481-10.1v7.453l-17.481,10.1Zm0,8.493,17.481-10.1v7.453l-17.481,10.1Zm0,8.5,17.481-10.1v7.453l-17.49,10.1Zm0,8.493,17.49-10.1v7.453l-17.49,10.1Zm0,8.5,17.49-10.1v7.453l-17.49,10.1Zm0,8.493,17.49-10.1v7.453L107.654,287Zm0,8.5,17.49-10.1v7.453l-17.49,10.1Zm0,8.493,17.49-10.1V293.9L107.654,304Zm0,8.5,17.49-10.1V302.4l-17.49,10.1Zm18.384-10.621,17.49-10.1v7.453l-17.49,10.1v-7.453Zm17.49-1.6v7.424l-17.49,10.1v-7.424Zm.9-.525,17.49-10.1v7.424l-17.49,10.1Zm18.394-10.611,17.49-10.1v7.424l-17.49,10.1Zm18.394-10.621,17.49-10.1v7.424l-17.49,10.1Zm18.394-10.621,17.49-10.1v7.424l-17.49,10.1Zm18.394-10.621,17.49-10.1v7.424l-17.49,10.1ZM236.4,239.2l17.49-10.1v7.424l-17.49,10.1ZM254.8,228.584l17.49-10.1v7.424l-17.49,10.1Zm18.394-10.621,17.49-10.1v7.424l-17.49,10.1Zm18.394-10.611,17.49-10.1v7.424l-17.49,10.1Zm0-1.049v-7.453l17.49-10.1v7.453Zm35.875-29.209-17.481,10.1v-7.453l17.481-10.1Zm0-8.5-17.481,10.1v-7.453l17.481-10.1Zm0-8.493-17.481,10.1v-7.453l17.481-10.1Zm0-8.5-17.481,10.1V154.24l17.481-10.1Zm0-8.493-17.481,10.1v-7.453l17.481-10.1Zm0-8.5-17.481,10.1v-7.453l17.481-10.1Zm0-8.493-17.481,10.1v-7.453l17.481-10.1Zm0-8.5-17.481,10.1V120.25l17.481-10.1Zm0-8.493-17.481,10.1v-7.453l17.481-10.1Zm0-8.5-17.481,10.1v-7.453l17.481-10.1Zm0-8.493-17.481,10.1V94.763l17.481-10.1Zm0-8.5-17.481,10.1V86.27l17.481-10.1ZM125.134,192.982v7.443l-17.481,10.1v-7.443ZM107.654,313.539l17.49-10.1v7.424l-17.49,10.1ZM309.979,204.156v-7.424l17.481-10.1v7.424Z" transform="translate(-106.75 -74.61)" fill="#e0e0e0"/>
          <g id="XMLID_2284_" transform="translate(147.552 9.27)">
            <path id="XMLID_2337_" d="M258.6,126.613,332.206,84.15v42.492L258.6,169.086Z" transform="translate(-258.6 -84.15)" fill="#fafafa" stroke="#e0e0e0" stroke-miterlimit="10" stroke-width="1"/>
            <g id="XMLID_2285_" transform="translate(3.722 21.165)">
              <path id="XMLID_2336_" d="M262.43,159.143l9.95-27.159,11,6.578,11.058-11.272,11.029,7.278,11.029-27.159,11.029,5.655" transform="translate(-262.43 -105.973)" fill="none" stroke="#455a64" stroke-linecap="round" stroke-linejoin="round" stroke-miterlimit="10" stroke-width="0.75"/>
              <path id="XMLID_2335_" d="M272.638,131.376a2.447,2.447,0,0,0-1.108,1.924c0,.709.5,1,1.108.641a2.462,2.462,0,0,0,1.108-1.924C273.745,131.307,273.25,131.016,272.638,131.376Z" transform="translate(-262.688 -106.647)" fill="#27debf"/>
              <path id="XMLID_2329_" d="M283.988,138.136a2.447,2.447,0,0,0-1.108,1.924c0,.709.5,1,1.108.641a2.462,2.462,0,0,0,1.108-1.924C285.1,138.077,284.6,137.786,283.988,138.136Z" transform="translate(-263.009 -106.839)" fill="#27debf"/>
              <path id="XMLID_2328_" d="M295.338,126.546a2.447,2.447,0,0,0-1.108,1.924c0,.709.5,1,1.108.641a2.462,2.462,0,0,0,1.108-1.924C296.445,126.487,295.95,126.2,295.338,126.546Z" transform="translate(-263.33 -106.511)" fill="#27debf"/>
              <path id="XMLID_2327_" d="M306.688,134.026a2.447,2.447,0,0,0-1.108,1.924c0,.709.5,1,1.108.641a2.462,2.462,0,0,0,1.108-1.924C307.8,133.958,307.3,133.676,306.688,134.026Z" transform="translate(-263.651 -106.722)" fill="#27debf"/>
              <path id="XMLID_2326_" d="M318.038,106.086a2.447,2.447,0,0,0-1.108,1.924c0,.709.5,1,1.108.641a2.462,2.462,0,0,0,1.108-1.924C319.145,106.017,318.65,105.726,318.038,106.086Z" transform="translate(-263.973 -105.931)" fill="#27debf"/>
              <path id="XMLID_2290_" d="M329.388,111.906a2.447,2.447,0,0,0-1.108,1.924c0,.709.5,1,1.108.641a2.462,2.462,0,0,0,1.108-1.924C330.5,111.837,330,111.546,329.388,111.906Z" transform="translate(-264.294 -106.096)" fill="#27debf"/>
            </g>
          </g>
        </g>
      </g>
    </g>
    <g id="Charts" transform="translate(133.029 239.111)">
      <g id="Charts_4_" transform="translate(125.903)">
        <g id="XMLID_2279_" transform="translate(77.25)">
          <path id="XMLID_2283_" d="M365.3,245.19l-19.57,11.3,19.57,11.3,19.57-11.3Z" transform="translate(-345.73 -245.19)" fill="#455a64"/>
          <path id="XMLID_2282_" d="M385.44,256.8v44.941l-19.57,11.3V268.13Z" transform="translate(-346.3 -245.519)" fill="#37474f"/>
          <path id="XMLID_2281_" d="M365.3,268.13v44.912l-19.57-11.3V256.8Z" transform="translate(-345.73 -245.519)" fill="#263238"/>
        </g>
        <g id="XMLID_2271_" transform="translate(51.5 34.359)">
          <path id="XMLID_2278_" d="M338.8,280.55l-19.57,11.3,19.57,11.3,19.57-11.3Z" transform="translate(-319.23 -280.55)" fill="#757575"/>
          <path id="XMLID_2277_" d="M338.8,280.55l-19.57,11.3,19.57,11.3,19.57-11.3Z" transform="translate(-319.23 -280.55)" fill="#fff" opacity="0.3"/>
          <path id="XMLID_2276_" d="M358.94,292.15v25.458l-19.57,11.3V303.48Z" transform="translate(-319.8 -280.878)"/>
          <path id="XMLID_2275_" d="M338.8,303.48v25.429l-19.57-11.3V292.16Z" transform="translate(-319.23 -280.879)" fill="#848484"/>
          <path id="XMLID_2274_" d="M338.8,303.48v25.429l-19.57-11.3V292.16Z" transform="translate(-319.23 -280.879)" opacity="0.1"/>
        </g>
        <g id="XMLID_2178_" transform="translate(25.75 38.654)">
          <path id="XMLID_2269_" d="M312.3,284.97l-19.57,11.3,19.57,11.3,19.57-11.3Z" transform="translate(-292.73 -284.97)" fill="#4d4d4d"/>
          <path id="XMLID_2189_" d="M312.3,284.97l-19.57,11.3,19.57,11.3,19.57-11.3Z" transform="translate(-292.73 -284.97)" fill="#fff" opacity="0.88"/>
          <path id="XMLID_2188_" d="M332.44,296.58V332.6l-19.57,11.3v-36Z" transform="translate(-293.3 -285.299)"/>
          <path id="XMLID_2187_" d="M332.44,296.58V332.6l-19.57,11.3v-36Z" transform="translate(-293.3 -285.299)" fill="#fff" opacity="0.75"/>
          <path id="XMLID_2186_" d="M312.3,307.9v36l-19.57-11.3V296.58Z" transform="translate(-292.73 -285.299)"/>
          <path id="XMLID_2180_" d="M312.3,307.9v36l-19.57-11.3V296.58Z" transform="translate(-292.73 -285.299)" fill="#fff" opacity="0.6"/>
        </g>
        <g id="XMLID_2271_2" data-name="XMLID_2271_" transform="translate(-3.5 67.956)">
          <path id="XMLID_2278_2" data-name="XMLID_2278_" d="M338.8,280.55l-19.57,11.3,19.57,11.3,19.57-11.3Z" transform="translate(-319.23 -280.55)" fill="#757575"/>
          <path id="XMLID_2277_2" data-name="XMLID_2277_" d="M338.8,280.55l-19.57,11.3,19.57,11.3,19.57-11.3Z" transform="translate(-319.23 -280.55)" fill="#fff" opacity="0.3"/>
          <path id="XMLID_2276_2" data-name="XMLID_2276_" d="M358.94,292.15v25.458l-19.57,11.3V303.48Z" transform="translate(-319.8 -280.878)"/>
          <path id="XMLID_2275_2" data-name="XMLID_2275_" d="M338.8,303.48v25.429l-19.57-11.3V292.16Z" transform="translate(-319.23 -280.879)" fill="#848484"/>
          <path id="XMLID_2274_2" data-name="XMLID_2274_" d="M338.8,303.48v25.429l-19.57-11.3V292.16Z" transform="translate(-319.23 -280.879)" opacity="0.1"/>
        </g>
      </g>
      <g id="Charts_1_" transform="translate(0 111.721)">
        <g id="XMLID_1951_" transform="translate(0 23.96)">
          <path id="XMLID_2142_" d="M176.437,405.021v7.4l-7.317-19.891V385.14l.01.01Z" transform="translate(-137.578 -384.832)" fill="#263238"/>
          <path id="XMLID_2141_" d="M176.66,405.3v7.4l30.181-10.475v-7.4Z" transform="translate(-137.791 -385.107)" fill="#37474f"/>
          <path id="XMLID_2129_" d="M169.12,385.131l7.317,19.881,30.181-10.465C198.339,387.317,183.938,383.7,169.12,385.131Z" transform="translate(-137.578 -384.823)" fill="#363636"/>
          <path id="XMLID_2117_" d="M136.67,407.02a1.723,1.723,0,0,0-.01.224l.01-.224Z" transform="translate(-136.659 -385.452)" fill="#27debf"/>
          <path id="XMLID_1999_" d="M172.516,414.994l-4.479,21.086c-18.3-1.788-31.512-11.038-31.357-21.62l-.01.019V407.25c0,10.494,13.186,19.648,31.366,21.426l3.08-14.488Z" transform="translate(-136.659 -385.458)"/>
          <path id="XMLID_1965_" d="M172.516,414.994l-4.479,21.086c-18.3-1.788-31.512-11.038-31.357-21.62l-.01.019V407.25c0,10.494,13.186,19.648,31.366,21.426l3.08-14.488Z" transform="translate(-136.659 -385.458)" opacity="0.4"/>
          <g id="XMLID_1960_" transform="translate(12.283 5.701)">
            <path id="XMLID_1964_" d="M172.48,428.833v7.4a58.408,58.408,0,0,0,22.271-3.041c8.629-2.993,14.721-7.744,17.15-13.38a13.385,13.385,0,0,0,1.137-5.169c.01-.7,0-7.647,0-7.647s-2.089-.165-4.538-2.779l-5.655,1.963-25.886,8.978Z" transform="translate(-149.956 -391.073)" fill="#171717"/>
            <path id="XMLID_1963_" d="M172.48,428.833v7.4a58.408,58.408,0,0,0,22.271-3.041c8.629-2.993,14.721-7.744,17.15-13.38a13.385,13.385,0,0,0,1.137-5.169c.01-.7,0-7.647,0-7.647s-2.089-.165-4.538-2.779l-5.655,1.963-25.886,8.978Z" transform="translate(-149.956 -391.073)" fill="#fff" opacity="0.6"/>
            <path id="XMLID_1962_" d="M149.3,398.094l22.485,12.982v-7.4L149.3,390.69Z" transform="translate(-149.3 -390.69)" fill="#7e7e7e"/>
            <path id="XMLID_1961_" d="M149.3,398.094l22.485,12.982v-7.4L149.3,390.69Z" transform="translate(-149.3 -390.69)" opacity="0.1"/>
          </g>
          <g id="XMLID_1954_" transform="translate(0 0.725)">
            <path id="XMLID_1959_" d="M136.942,404.15c-2.458,11.573,11.379,22.174,31.084,24.1l4.48-21.086L146.484,392.14C141.062,395.551,137.933,399.486,136.942,404.15Z" transform="translate(-136.659 -385.756)" fill="#1e1e1e"/>
            <path id="XMLID_1958_" d="M136.942,404.15c-2.458,11.573,11.379,22.174,31.084,24.1l4.48-21.086L146.484,392.14C141.062,395.551,137.933,399.486,136.942,404.15Z" transform="translate(-136.659 -385.756)" opacity="0.3"/>
            <path id="XMLID_1957_" d="M172.606,428.005l-.136.612a58.407,58.407,0,0,0,22.271-3.041c8.629-2.993,14.721-7.744,17.15-13.38,2.293-5.315,1.079-10.815-3.4-15.6l-5.655,1.963-25.886,8.978Z" transform="translate(-137.673 -385.882)"/>
            <path id="XMLID_1956_" d="M172.606,428.005l-.136.612a58.407,58.407,0,0,0,22.271-3.041c8.629-2.993,14.721-7.744,17.15-13.38,2.293-5.315,1.079-10.815-3.4-15.6l-5.655,1.963-25.886,8.978Z" transform="translate(-137.673 -385.882)" fill="#fff" opacity="0.75"/>
            <path id="XMLID_1955_" d="M149.3,390.545l22.485,12.982-6.608-17.957A46.047,46.047,0,0,0,149.3,390.545Z" transform="translate(-137.017 -385.57)" fill="#acacac"/>
          </g>
          <path id="XMLID_1953_" d="M173.429,415v-7.4l-4.479,21.086v7.4Z" transform="translate(-137.573 -385.468)" fill="#b5b5b5"/>
          <path id="XMLID_1952_" d="M173.429,415v-7.4l-4.479,21.086v7.4Z" transform="translate(-137.573 -385.468)" opacity="0.55"/>
        </g>
        <g id="XMLID_1414_" transform="translate(59.644)">
          <g id="XMLID_1429_" transform="translate(0 13.161)">
            <path id="XMLID_1950_" d="M202.937,373.71l-4.9,2.828,4.9,2.828,4.9-2.828Z" transform="translate(-198.04 -373.71)" fill="#242424"/>
            <path id="XMLID_1949_" d="M202.937,373.71l-4.9,2.828,4.9,2.828,4.9-2.828Z" transform="translate(-198.04 -373.71)" opacity="0.3"/>
            <path id="XMLID_1928_" d="M207.977,376.62v2.837l-4.9,2.828v-2.837Z" transform="translate(-198.183 -373.792)" fill="#ccc"/>
            <path id="XMLID_1927_" d="M207.977,376.62v2.837l-4.9,2.828v-2.837Z" transform="translate(-198.183 -373.792)" opacity="0.4"/>
            <path id="XMLID_1926_" d="M202.937,379.448v2.837l-4.9-2.828V376.62Z" transform="translate(-198.04 -373.792)" fill="#f3f3f3"/>
            <path id="XMLID_1922_" d="M202.937,379.448v2.837l-4.9-2.828V376.62Z" transform="translate(-198.04 -373.792)" opacity="0.55"/>
          </g>
          <path id="XMLID_1419_" d="M210.755,371.131l18.151-10.475a4.194,4.194,0,0,1,3.8-.068c1.02.583.962,1.564-.117,2.2l-18.151,10.475a4.194,4.194,0,0,1-3.8.068C209.618,372.744,209.667,371.762,210.755,371.131Z" transform="translate(-198.376 -360.165)" fill="#e0e0e0"/>
        </g>
        <g id="XMLID_1414_2" data-name="XMLID_1414_" transform="translate(74.644 12)">
          <g id="XMLID_1429_2" data-name="XMLID_1429_" transform="translate(0 13.161)">
            <path id="XMLID_1950_2" data-name="XMLID_1950_" d="M202.937,373.71l-4.9,2.828,4.9,2.828,4.9-2.828Z" transform="translate(-198.04 -373.71)" fill="#242424"/>
            <path id="XMLID_1949_2" data-name="XMLID_1949_" d="M202.937,373.71l-4.9,2.828,4.9,2.828,4.9-2.828Z" transform="translate(-198.04 -373.71)" opacity="0.3"/>
            <path id="XMLID_1928_2" data-name="XMLID_1928_" d="M207.977,376.62v2.837l-4.9,2.828v-2.837Z" transform="translate(-198.183 -373.792)" fill="#ccc"/>
            <path id="XMLID_1927_2" data-name="XMLID_1927_" d="M207.977,376.62v2.837l-4.9,2.828v-2.837Z" transform="translate(-198.183 -373.792)" opacity="0.4"/>
            <path id="XMLID_1926_2" data-name="XMLID_1926_" d="M202.937,379.448v2.837l-4.9-2.828V376.62Z" transform="translate(-198.04 -373.792)" fill="#f3f3f3"/>
            <path id="XMLID_1922_2" data-name="XMLID_1922_" d="M202.937,379.448v2.837l-4.9-2.828V376.62Z" transform="translate(-198.04 -373.792)" opacity="0.55"/>
          </g>
          <path id="XMLID_1419_2" data-name="XMLID_1419_" d="M210.755,371.131l18.151-10.475a4.194,4.194,0,0,1,3.8-.068c1.02.583.962,1.564-.117,2.2l-18.151,10.475a4.194,4.194,0,0,1-3.8.068C209.618,372.744,209.667,371.762,210.755,371.131Z" transform="translate(-198.376 -360.165)" fill="#e0e0e0"/>
        </g>
        <g id="XMLID_1414_3" data-name="XMLID_1414_" transform="translate(87.644 23.961)">
          <g id="XMLID_1429_3" data-name="XMLID_1429_" transform="translate(0 13.161)">
            <path id="XMLID_1950_3" data-name="XMLID_1950_" d="M202.937,373.71l-4.9,2.828,4.9,2.828,4.9-2.828Z" transform="translate(-198.04 -373.71)" fill="#242424"/>
            <path id="XMLID_1949_3" data-name="XMLID_1949_" d="M202.937,373.71l-4.9,2.828,4.9,2.828,4.9-2.828Z" transform="translate(-198.04 -373.71)" opacity="0.3"/>
            <path id="XMLID_1928_3" data-name="XMLID_1928_" d="M207.977,376.62v2.837l-4.9,2.828v-2.837Z" transform="translate(-198.183 -373.792)" fill="#ccc"/>
            <path id="XMLID_1927_3" data-name="XMLID_1927_" d="M207.977,376.62v2.837l-4.9,2.828v-2.837Z" transform="translate(-198.183 -373.792)" opacity="0.4"/>
            <path id="XMLID_1926_3" data-name="XMLID_1926_" d="M202.937,379.448v2.837l-4.9-2.828V376.62Z" transform="translate(-198.04 -373.792)" fill="#f3f3f3"/>
            <path id="XMLID_1922_3" data-name="XMLID_1922_" d="M202.937,379.448v2.837l-4.9-2.828V376.62Z" transform="translate(-198.04 -373.792)" opacity="0.55"/>
          </g>
          <path id="XMLID_1419_3" data-name="XMLID_1419_" d="M210.755,371.131l18.151-10.475a4.194,4.194,0,0,1,3.8-.068c1.02.583.962,1.564-.117,2.2l-18.151,10.475a4.194,4.194,0,0,1-3.8.068C209.618,372.744,209.667,371.762,210.755,371.131Z" transform="translate(-198.376 -360.165)" fill="#e0e0e0"/>
        </g>
        <g id="XMLID_1414_4" data-name="XMLID_1414_" transform="translate(102.644 35.961)">
          <g id="XMLID_1429_4" data-name="XMLID_1429_" transform="translate(0 13.161)">
            <path id="XMLID_1950_4" data-name="XMLID_1950_" d="M202.937,373.71l-4.9,2.828,4.9,2.828,4.9-2.828Z" transform="translate(-198.04 -373.71)" fill="#242424"/>
            <path id="XMLID_1949_4" data-name="XMLID_1949_" d="M202.937,373.71l-4.9,2.828,4.9,2.828,4.9-2.828Z" transform="translate(-198.04 -373.71)" opacity="0.3"/>
            <path id="XMLID_1928_4" data-name="XMLID_1928_" d="M207.977,376.62v2.837l-4.9,2.828v-2.837Z" transform="translate(-198.183 -373.792)" fill="#ccc"/>
            <path id="XMLID_1927_4" data-name="XMLID_1927_" d="M207.977,376.62v2.837l-4.9,2.828v-2.837Z" transform="translate(-198.183 -373.792)" opacity="0.4"/>
            <path id="XMLID_1926_4" data-name="XMLID_1926_" d="M202.937,379.448v2.837l-4.9-2.828V376.62Z" transform="translate(-198.04 -373.792)" fill="#f3f3f3"/>
            <path id="XMLID_1922_4" data-name="XMLID_1922_" d="M202.937,379.448v2.837l-4.9-2.828V376.62Z" transform="translate(-198.04 -373.792)" opacity="0.55"/>
          </g>
          <path id="XMLID_1419_4" data-name="XMLID_1419_" d="M210.755,371.131l18.151-10.475a4.194,4.194,0,0,1,3.8-.068c1.02.583.962,1.564-.117,2.2l-18.151,10.475a4.194,4.194,0,0,1-3.8.068C209.618,372.744,209.667,371.762,210.755,371.131Z" transform="translate(-198.376 -360.165)" fill="#e0e0e0"/>
        </g>
      </g>
    </g>
    <g id="Character" transform="translate(312.962 194.616)">
      <g id="Character_1_">
        <g id="XMLID_46_">
          <g id="XMLID_82_" transform="translate(71.318 35.059)">
            <path id="XMLID_83_" d="M395.23,235.48c6.734-.039,9.931,1.895,12.36,8.347s8.862,21.231,8.978,25.624c.126,4.557-14.546,18.375-14.022,18.132.165-.078-4.47-8.376-4.47-8.376l8.25-10.115-4.732-13.73Z" transform="translate(-395.23 -235.479)" fill="#ffa8a7"/>
          </g>
          <g id="XMLID_72_" transform="translate(27.932 76.122)">
            <g id="XMLID_80_" transform="translate(33.645 100.464)">
              <path id="XMLID_81_" d="M403.283,390.575c.408.389.5.777.476,2.215s.593,3.041-.146,4.382c-.554,1-3.362,1.691-4.79.952a14.934,14.934,0,0,1-3.3-2.964,23.689,23.689,0,0,0-2.886-2.789c-1.215-.9-2.624-1.506-3.887-2.332a7.775,7.775,0,0,1-3.527-5.82,3.793,3.793,0,0,1,.447-2.215,2.5,2.5,0,0,1,2.536-.826c1.37.224,6.015,2.818,7.084,3.556C396.647,385.648,402.856,390.167,403.283,390.575Z" transform="translate(-385.205 -381.129)" fill="#263238"/>
            </g>
            <path id="XMLID_79_" d="M396.587,384.7c-.049,1.03-4.392-1.38-6.17-1.147-.019,0-.029.019-.049.019-1.652.8-.282,3.119,1.263,4.3s6.569,4.878,6.569,4.878l1.03-5.956Z" transform="translate(-351.686 -280.733)" fill="#ffa8a7"/>
            <g id="XMLID_77_" transform="translate(0 120.744)">
              <path id="XMLID_78_" d="M376.631,402c.806,0,1.166,2.633,1.312,4.674.117,1.574.709,4.139.155,5.3s-2.682,1.875-5.956,1.817c-2.118-.049-5.441,1.351-7.725,2.585a11.779,11.779,0,0,1-7.356.923c-2.905-.379-5.908-2.109-6.365-3.323s.155-1.788,7.064-4.625c.068-.029,7.288-3.177,10.65-6.8Z" transform="translate(-350.581 -402)" fill="#263238"/>
            </g>
            <path id="XMLID_76_" d="M357.9,409.37c-.952.389-1.778.738-2.507,1.049-.185.651.068,1.691,3.109,2.2,4.654.777,18.316-9.513,18.316-9.513s-1.963.534-2.322-.583l-5.937.049C365.183,406.193,357.964,409.341,357.9,409.37Z" transform="translate(-350.716 -281.27)" fill="#ffa8a7"/>
            <g id="XMLID_74_" transform="translate(16.916)">
              <path id="XMLID_75_" d="M405.565,353.853a59.4,59.4,0,0,0-1.331-13.477s.806-17.354.9-28.257c.185-21.572-.223-24.739-4.995-34.038,0,0-27.858-3.255-29.034,10.319-1.458,16.907-3.158,45.2-3.119,53.249.029,6,.709,12.5,1.04,26.09.214,8.706,1.127,21.008-.117,31.308,1.574,2.643,5.84,2.594,8.269.534.7-10.086,5.7-29.4,6.481-36.147a57,57,0,0,0-.593-14.566s3.692-28.8,4.334-33.183a81.465,81.465,0,0,1,1.613,14.07c-.019,1.914.661,8.327,1.759,19.113.67,6.569,5.315,32.241,6.326,40.49,2.332,2.254,5.344.7,5.48-.282C403.36,379.01,405.565,360.139,405.565,353.853Z" transform="translate(-367.989 -277.738)" fill="#ffa8a7"/>
            </g>
            <path id="XMLID_73_" d="M387.97,316.215l2.458-13.983a19.112,19.112,0,0,0,10.97-5.762s-1.477,5.6-8.716,7.492l-2.876,12.651-.486,11.534Z" transform="translate(-351.639 -278.268)" opacity="0.15"/>
          </g>
          <g id="XMLID_69_" transform="translate(57.277 28.306)">
            <g id="XMLID_70_">
              <path id="XMLID_71_" d="M380.78,230.59l1.156,12.671,11.136-.67-.855-14.06Z" transform="translate(-380.78 -228.53)" fill="#ffa8a7"/>
            </g>
          </g>
          <g id="XMLID_66_" transform="translate(45.39 35.062)">
            <g id="XMLID_67_">
              <path id="XMLID_68_" d="M402.783,280.285a51.288,51.288,0,0,0-4.82-9.629c4.761-15.333,6.287-20.493,5.354-27.042-.593-4.169-3.867-8.337-7.929-8.123h-3.119c-.185,2.905-8.259,3.051-11.32,1.049l-2.818.078c-1.992.709-8.784,10.64-9.523,17.238-.612,5.364,3.6,10.008,3.6,10.008a50.462,50.462,0,0,1-.4,6.792s.019,12.972,0,19.424c0,0,1.574,4.975,17.908,3.42,14.536-1.38,14.886-6.355,14.886-6.355A30.226,30.226,0,0,0,402.783,280.285Z" transform="translate(-368.547 -235.482)" fill="#4d4d4d"/>
            </g>
          </g>
          <g id="XMLID_5_" transform="translate(45.39 35.062)" opacity="0.3">
            <g id="XMLID_6_">
              <path id="XMLID_7_" d="M402.783,280.285a51.288,51.288,0,0,0-4.82-9.629c4.761-15.333,6.287-20.493,5.354-27.042-.593-4.169-3.867-8.337-7.929-8.123h-3.119c-.185,2.905-8.259,3.051-11.32,1.049l-2.818.078c-1.992.709-8.784,10.64-9.523,17.238-.612,5.364,3.6,10.008,3.6,10.008a50.462,50.462,0,0,1-.4,6.792s.019,12.972,0,19.424c0,0,1.574,4.975,17.908,3.42,14.536-1.38,14.886-6.355,14.886-6.355A30.226,30.226,0,0,0,402.783,280.285Z" transform="translate(-368.547 -235.482)"/>
            </g>
          </g>
          <g id="XMLID_59_" transform="translate(46.87)">
            <path id="XMLID_65_" d="M382.18,200.127a10.332,10.332,0,0,0-8.949,3.245c-5.694,6.413.554,11.136.554,11.136l8.4-14.381" transform="translate(-370.092 -199.417)"/>
            <g id="XMLID_63_" transform="translate(0 16.432)">
              <path id="XMLID_64_" d="M372.256,216.31s-2.478,3.722-2.157,4.12a5.791,5.791,0,0,0,1.885.816Z" transform="translate(-370.071 -216.31)" fill="#f28f8f"/>
            </g>
            <g id="XMLID_61_" transform="translate(1.782 3.678)">
              <path id="XMLID_62_" d="M379.868,204.152c-2.4,1.234-6.549,3.508-7.637,12.331-1.117,9.056.894,12.214,2.128,13.409.836.807,5.131,1.108,7.385.418,2.808-.865,8.9-3.858,11.767-8.522,3.372-5.49,4.081-12.826.214-15.712C388.283,202,381.9,203.112,379.868,204.152Z" transform="translate(-371.904 -203.185)" fill="#ffa8a7"/>
            </g>
            <path id="XMLID_60_" d="M378.757,214.471c-5.024-2.556-3.741-9.221-3.741-9.221s7.171-10.251,20.406-3.615c4.577,2.293,7.327,7.5,7.21,13.6h0A14.365,14.365,0,0,1,388.27,229.6h0a8.366,8.366,0,0,1-8.366-8.366v-.554l.428.136a4.249,4.249,0,0,0,3.906-1.04c2.206-1.895,2.468-5.616-.321-6.559-2.769-.933-4.246,2.293-4.246,2.293h0l-1.079,2.964a2.108,2.108,0,0,1-1.263-2.7A2,2,0,0,1,378.757,214.471Z" transform="translate(-370.206 -199.399)"/>
          </g>
          <g id="XMLID_51_" transform="translate(1.171 17.113)">
            <path id="XMLID_58_" d="M346.924,217.01,323.04,228.972l11.233,32.377,22.31-12.02Z" transform="translate(-323.04 -217.01)"/>
            <path id="XMLID_57_" d="M345.866,220.23,325.83,230.268l9.95,27.839,18.715-10.076Z" transform="translate(-323.119 -217.101)" fill="#f5f5f5"/>
            <path id="XMLID_56_" d="M341.782,223.193s-.165-.447-.369-.991-1.866-.253-3.7.661l-3.527,1.749c-1.846.913-3.168,2.1-2.964,2.643l.369.991Z" transform="translate(-323.271 -217.149)" opacity="0.15"/>
            <g id="XMLID_52_" transform="translate(5.938 1.72)">
              <path id="XMLID_55_" d="M341.4,219.169c-.126-.34-.845-.3-1.613.1l-1.38.719s-.806-2.138-3.984-.719-2.5,3.9-2.5,3.9l-1.467.777c-.806.428-1.39,1.059-1.3,1.409l.165.632,12.3-6.161A5.508,5.508,0,0,0,341.4,219.169Z" transform="translate(-329.151 -218.78)" fill="#37474f"/>
              <path id="XMLID_54_" d="M340.135,220.606c-1.147.534-1.594.8-1.283,1.642.36.962.69,1.652.69,1.652l-5.441,2.73s-.428-1.224-.622-1.7-.583-.7-1.448-.272l-.311-.34,8.58-4.2Z" transform="translate(-329.224 -218.818)" fill="#263238"/>
              <path id="XMLID_53_" d="M342.012,223.253s-.165-.447-.369-.991-1.866-.253-3.7.661l-3.527,1.749c-1.846.913-3.168,2.1-2.964,2.643l.369.991Z" transform="translate(-329.216 -218.871)" fill="#37474f"/>
            </g>
          </g>
          <g id="XMLID_48_" transform="translate(26.648 36.182)">
            <g id="XMLID_49_">
              <path id="XMLID_50_" d="M377.595,236.64c-3.76-.058-6.034.272-11.165,7.89S351.777,266.179,350.669,268c-1.555,2.526-1.9,6.4-.641,8.774,1.185,2.206,3.255,2.973,9.173-3.3,4.382-4.654,13.584-17.014,13.584-17.014S379.946,243.092,377.595,236.64Z" transform="translate(-349.259 -236.635)" fill="#ffa8a7"/>
            </g>
          </g>
          <path id="XMLID_47_" d="M351.583,278.43c-3.1.962-14.469-12.583-17.636-16.655a46.683,46.683,0,0,0-8.881-9.008c-4.382-3.352-3.654-8.376-1.642-12.953.7-1.584,2.954-.505,2.954-.505l.768,2.206,1.322,3.819c.923.884,1.458,1.185,1.526.923.126-.486-.651-2.536-.593-4.664.068-2.556,1.827-.845,2.352.058a31.053,31.053,0,0,1,1.817,4.256c.855,2.3.447,4.616,1.506,6.19s16.509,14.41,16.509,14.41Z" transform="translate(-321.835 -200.518)" fill="#ffa8a7"/>
        </g>
        <path id="XMLID_45_" d="M397.927,271.68s-10.9,6.433-26.158,0A226.941,226.941,0,0,0,369,295.865c-.544,10.319-1.739,32.464-1.739,32.464s4.509,5.257,20.58,4.188c15.44-1.02,18.171-5.053,18.171-5.053s.039-19.891.117-28.587C406.235,287.752,404.68,281.669,397.927,271.68Z" transform="translate(-323.121 -201.445)" fill="#fff"/>
        <path id="XMLID_1_" d="M397.927,271.68s-10.9,6.433-26.158,0A226.941,226.941,0,0,0,369,295.865c-.544,10.319-1.739,32.464-1.739,32.464s4.509,5.257,20.58,4.188c15.44-1.02,18.171-5.053,18.171-5.053s.039-19.891.117-28.587C406.235,287.752,404.68,281.669,397.927,271.68Z" transform="translate(-323.121 -201.445)" opacity="0.5"/>
        <path id="XMLID_44_" d="M403.966,211.2l2.546-2.332a2.226,2.226,0,0,0-3.77,2.157c-.321-.029-.632-.049-.962-.049V231.47a10.637,10.637,0,0,0,10.64,10.64V221.617A10.623,10.623,0,0,0,403.966,211.2Z" transform="translate(-324.098 -199.646)"/>
      </g>
    </g>
  </g>
</svg>
