<svg xmlns="http://www.w3.org/2000/svg" width="51" height="35.664" viewBox="0 0 51 35.664">
  <g id="Effective_shipment_management" data-name="Effective shipment management" transform="translate(0.5 0.5)">
    <g id="Group_6885" data-name="Group 6885" transform="translate(31.46 22.059)">
      <g id="Group_6884" data-name="Group 6884">
        <path id="Path_9222" data-name="Path 9222" d="M328.454,304.4a6.3,6.3,0,1,0,6.3,6.3A6.31,6.31,0,0,0,328.454,304.4Zm0,9.454a3.151,3.151,0,1,1,3.151-3.151A3.155,3.155,0,0,1,328.454,313.857Z" transform="translate(-322.151 -304.403)" fill="#fff" stroke="#000" stroke-width="1"/>
      </g>
    </g>
    <g id="Group_6887" data-name="Group 6887" transform="translate(9.926 22.059)">
      <g id="Group_6886" data-name="Group 6886">
        <path id="Path_9223" data-name="Path 9223" d="M107.95,304.4a6.3,6.3,0,1,0,6.3,6.3A6.31,6.31,0,0,0,107.95,304.4Zm0,9.454a3.151,3.151,0,1,1,3.151-3.151A3.155,3.155,0,0,1,107.95,313.857Z" transform="translate(-101.647 -304.403)" fill="#fff" stroke="#000" stroke-width="1"/>
      </g>
    </g>
    <g id="Group_6889" data-name="Group 6889" transform="translate(32.3 3.151)">
      <g id="Group_6888" data-name="Group 6888">
        <path id="Path_9224" data-name="Path 9224" d="M340.462,111.658a1.576,1.576,0,0,0-1.408-.868h-8.3v3.151h7.327l4.29,8.534,2.816-1.416Z" transform="translate(-330.756 -110.79)" fill="#fff" stroke="#000" stroke-width="1"/>
      </g>
    </g>
    <g id="Group_6891" data-name="Group 6891" transform="translate(21.113 26.838)">
      <g id="Group_6890" data-name="Group 6890">
        <rect id="Rectangle_805" data-name="Rectangle 805" width="11.922" height="3.151" fill="#fff" stroke="#000" stroke-width="1"/>
      </g>
    </g>
    <g id="Group_6893" data-name="Group 6893" transform="translate(4.464 26.838)">
      <g id="Group_6892" data-name="Group 6892">
        <path id="Path_9225" data-name="Path 9225" d="M52.753,353.345H47.291a1.576,1.576,0,1,0,0,3.151h5.462a1.576,1.576,0,1,0,0-3.151Z" transform="translate(-45.715 -353.345)" fill="#fff" stroke="#000" stroke-width="1"/>
      </g>
    </g>
    <g id="Group_6895" data-name="Group 6895" transform="translate(4.464 0)">
      <g id="Group_6894" data-name="Group 6894">
        <path id="Path_9226" data-name="Path 9226" d="M90.92,95.727l-3.1-3.992a1.573,1.573,0,0,0-1.244-.609H75.127V80.1a1.575,1.575,0,0,0-1.576-1.576H47.291a1.576,1.576,0,1,0,0,3.151H71.975V92.7a1.575,1.575,0,0,0,1.576,1.576H85.8L88.1,97.233v8.126H83.74a1.576,1.576,0,1,0,0,3.151h5.935a1.576,1.576,0,0,0,1.576-1.576V96.693A1.578,1.578,0,0,0,90.92,95.727Z" transform="translate(-45.715 -78.521)" fill="#fff" stroke="#000" stroke-width="1"/>
      </g>
    </g>
    <g id="Group_6897" data-name="Group 6897" transform="translate(2.574 18.855)">
      <g id="Group_6896" data-name="Group 6896">
        <path id="Path_9227" data-name="Path 9227" d="M35.177,271.6H27.929a1.576,1.576,0,0,0,0,3.151h7.248a1.576,1.576,0,0,0,0-3.151Z" transform="translate(-26.353 -271.597)" fill="#fff" stroke="#000" stroke-width="1"/>
      </g>
    </g>
    <g id="Group_6899" data-name="Group 6899" transform="translate(0 12.658)">
      <g id="Group_6898" data-name="Group 6898">
        <path id="Path_9228" data-name="Path 9228" d="M15.021,208.134H1.576a1.576,1.576,0,0,0,0,3.151H15.021a1.576,1.576,0,0,0,0-3.151Z" transform="translate(0 -208.134)" fill="#fff" stroke="#000" stroke-width="1"/>
      </g>
    </g>
    <g id="Group_6901" data-name="Group 6901" transform="translate(2.574 6.46)">
      <g id="Group_6900" data-name="Group 6900">
        <path id="Path_9229" data-name="Path 9229" d="M41.374,144.672H27.929a1.576,1.576,0,1,0,0,3.151H41.374a1.576,1.576,0,1,0,0-3.151Z" transform="translate(-26.353 -144.672)" fill="#fff" stroke="#000" stroke-width="1"/>
      </g>
    </g>
  </g>
</svg>
