<svg id="Efficient_labor_management_" data-name="Efficient labor management " xmlns="http://www.w3.org/2000/svg" width="42" height="42" viewBox="0 0 42 42">
  <path id="Path_9251" data-name="Path 9251" d="M33.437,36.887l-3.363-.841-.322-.967a5.447,5.447,0,0,0,2.108-2.53h.4a2.7,2.7,0,0,0,2.212-4.265l.007-.014A4.643,4.643,0,0,0,32.4,22.04l-.15-.075A3.039,3.039,0,0,0,29.218,19H24.806a4.747,4.747,0,0,0-4.733,4.453l-.132.132a4.2,4.2,0,0,0-1.016,4.3l.185.554a2.7,2.7,0,0,0,2.309,4.109h.4a5.447,5.447,0,0,0,2.108,2.53l-.322.967-3.363.841A5.6,5.6,0,0,0,16,42.317v6.489H37.677V42.317a5.6,5.6,0,0,0-4.241-5.43Zm-8.672,1.9-.415,2.074-1.442-3.244.923-.23Zm1.275.535h1.6L28.375,43l-1.536,3.456L25.3,43Zm3.288,1.538-.415-2.074.934-1.4.923.23Zm2.931-9.667h-.047a5.446,5.446,0,0,0,.047-.677V28.484a1.355,1.355,0,0,1,0,2.71ZM20.9,24.543l.521-.521v-.28a3.391,3.391,0,0,1,3.387-3.387h4.412a1.684,1.684,0,0,1,.534,3.282l-.417.139.427,1.286.418-.14a3.03,3.03,0,0,0,1.778-1.575,3.263,3.263,0,0,1,1.655,2.845,3.3,3.3,0,0,1-.227,1.19,2.7,2.7,0,0,0-1.128-.253h-.125a2.029,2.029,0,0,0-1.908-1.355H23.452a2.029,2.029,0,0,0-1.908,1.355h-.125a2.676,2.676,0,0,0-1.216.3,2.839,2.839,0,0,1,.7-2.887Zm.521,6.65a1.355,1.355,0,1,1,0-2.71v2.032a5.452,5.452,0,0,0,.047.677Zm1.355-.677v-2.71a.678.678,0,0,1,.677-.677h6.774a.678.678,0,0,1,.677.677v2.71a4.065,4.065,0,0,1-8.129,0Zm4.065,5.419a5.408,5.408,0,0,0,1.68-.27l.283.847-.97,1.454H25.846l-.97-1.455.282-.847A5.388,5.388,0,0,0,26.839,35.935Zm-9.484,6.382A4.243,4.243,0,0,1,20.569,38.2l1-.251,4.223,9.5H21.419V43.832a3.366,3.366,0,0,0-.992-2.4l-.561-.561-.958.958.561.561a2.019,2.019,0,0,1,.6,1.437v3.619h-2.71Zm18.968,5.134h-2.71V43.832a2.021,2.021,0,0,1,.6-1.437l.561-.561-.958-.958-.561.561a3.366,3.366,0,0,0-.992,2.4v3.619H27.881l4.223-9.5,1,.251a4.245,4.245,0,0,1,3.214,4.116Z" transform="translate(-5.839 -6.806)" fill="#fff"/>
  <path id="Path_9252" data-name="Path 9252" d="M47.129,17.258A8.129,8.129,0,1,0,39,9.129,8.138,8.138,0,0,0,47.129,17.258Zm-4.6-3.167a4.716,4.716,0,0,1,2.234-2.979l2.362,2.361,2.362-2.362a4.715,4.715,0,0,1,2.234,2.979,6.734,6.734,0,0,1-9.193,0ZM45.1,7.1a2.032,2.032,0,1,1,2.032,2.032A2.035,2.035,0,0,1,45.1,7.1Zm2.032,3.387a4.788,4.788,0,0,1,.971.1l-.971.971-.971-.971A4.788,4.788,0,0,1,47.129,10.484Zm0-8.129A6.77,6.77,0,0,1,52.755,12.9a6.061,6.061,0,0,0-3.336-3.32,3.387,3.387,0,1,0-4.579,0A6.057,6.057,0,0,0,41.5,12.9,6.77,6.77,0,0,1,47.129,2.355Z" transform="translate(-13.258 -1)" fill="#fff"/>
  <path id="Path_9253" data-name="Path 9253" d="M9.129,17.258A8.129,8.129,0,1,0,1,9.129,8.138,8.138,0,0,0,9.129,17.258Zm-4.6-3.167a4.711,4.711,0,0,1,2.011-2.838,2.692,2.692,0,0,0,5.17,0,4.716,4.716,0,0,1,2.011,2.838,6.734,6.734,0,0,1-9.193,0ZM7.1,7.1A2.032,2.032,0,1,1,9.129,9.129,2.035,2.035,0,0,1,7.1,7.1Zm3.367,3.579a1.348,1.348,0,0,1-2.67,0,4.729,4.729,0,0,1,2.67,0ZM9.129,2.355A6.77,6.77,0,0,1,14.755,12.9a6.061,6.061,0,0,0-3.336-3.32,3.387,3.387,0,1,0-4.579,0A6.057,6.057,0,0,0,3.5,12.9,6.77,6.77,0,0,1,9.129,2.355Z" transform="translate(-1 -1)" fill="#fff"/>
  <path id="Path_9254" data-name="Path 9254" d="M50,27h1.355v1.355H50Z" transform="translate(-16.806 -9.387)" fill="#fff"/>
  <path id="Path_9255" data-name="Path 9255" d="M48.387,35.742H45V37.1h4.742V31H48.387Z" transform="translate(-15.194 -10.677)" fill="#fff"/>
  <path id="Path_9256" data-name="Path 9256" d="M53.806,50.806V42H45v1.355h7.452v7.452Z" transform="translate(-15.194 -14.226)" fill="#fff"/>
  <path id="Path_9257" data-name="Path 9257" d="M56.032,57a2.032,2.032,0,1,0,2.032,2.032A2.035,2.035,0,0,0,56.032,57Zm0,2.71a.677.677,0,1,1,.677-.677A.678.678,0,0,1,56.032,59.71Z" transform="translate(-18.097 -19.065)" fill="#fff"/>
  <path id="Path_9258" data-name="Path 9258" d="M12,27h1.355v1.355H12Z" transform="translate(-4.548 -9.387)" fill="#fff"/>
  <path id="Path_9259" data-name="Path 9259" d="M16.742,35.742H13.355V31H12v6.1h4.742Z" transform="translate(-4.548 -10.677)" fill="#fff"/>
  <path id="Path_9260" data-name="Path 9260" d="M6,50.806H7.355V43.355h7.452V42H6Z" transform="translate(-2.613 -14.226)" fill="#fff"/>
  <path id="Path_9261" data-name="Path 9261" d="M6.032,57a2.032,2.032,0,1,0,2.032,2.032A2.035,2.035,0,0,0,6.032,57Zm0,2.71a.677.677,0,1,1,.677-.677A.678.678,0,0,1,6.032,59.71Z" transform="translate(-1.968 -19.065)" fill="#fff"/>
</svg>
