<svg id="Enhanced_inventory_visibility_" data-name="Enhanced inventory visibility " xmlns="http://www.w3.org/2000/svg" width="40.361" height="42" viewBox="0 0 40.361 42">
  <path id="Path_9235" data-name="Path 9235" d="M232.171,224.113a2.1,2.1,0,0,0-2.614-1.41l-18.777,5.618a.7.7,0,0,0-.279.161l-2.281,2.144a.7.7,0,0,0,.359,1.2l3.084.539a.7.7,0,0,0,.321-.019l15.236-4.559.066,1.442-4.841,1.448.4,1.341,5.365-1.605a.7.7,0,0,0,.5-.7l-.107-2.337,2.159-.646a2.1,2.1,0,0,0,1.41-2.614Zm-20.43,6.843-1.542-.269,1.141-1.072,3.195-.956.4,1.341Zm4.536-1.357-.4-1.341,11.212-3.355.066,1.442Zm14.5-4.552a.7.7,0,0,1-.415.338l-1.824.546-.066-1.442,1.488-.445a.7.7,0,0,1,.817,1Z" transform="translate(-191.899 -204.535)" fill="#fff"/>
  <path id="Path_9236" data-name="Path 9236" d="M49.9,235.2H38V224.7a.7.7,0,0,0-.7-.7H24.7a.7.7,0,0,0-.7.7v22.4a.7.7,0,0,0,.7.7H49.9a.7.7,0,0,0,.7-.7V235.9A.7.7,0,0,0,49.9,235.2Zm-7.7,1.4H45v2.8H42.2ZM29.6,225.4h2.8v2.8H29.6Zm-4.2,0h2.8v3.5a.7.7,0,0,0,.7.7h4.2a.7.7,0,0,0,.7-.7v-3.5h2.8v9.8H25.4Zm4.2,11.2h2.8v2.8H29.6Zm-4.2,0h2.8v3.5a.7.7,0,0,0,.7.7h4.2a.7.7,0,0,0,.7-.7v-3.5h2.8v9.8H25.4Zm23.8,9.8H38v-9.8h2.8v3.5a.7.7,0,0,0,.7.7h4.2a.7.7,0,0,0,.7-.7v-3.5h2.8Z" transform="translate(-24 -205.8)" fill="#fff"/>
  <path id="Path_9237" data-name="Path 9237" d="M280,448h1.4v1.4H280Z" transform="translate(-257.6 -410.2)" fill="#fff"/>
  <path id="Path_9238" data-name="Path 9238" d="M136,448h1.4v1.4H136Z" transform="translate(-126.2 -410.2)" fill="#fff"/>
  <path id="Path_9239" data-name="Path 9239" d="M136,320h1.4v1.4H136Z" transform="translate(-126.2 -293.4)" fill="#fff"/>
  <path id="Path_9240" data-name="Path 9240" d="M137.4,21.6a1.4,1.4,0,0,1,1.4-1.4H143v1.4h-3.5a.7.7,0,0,0-.7.7V32.8h1.4V23H157V34.2h1.4V22.3a.7.7,0,0,0-.7-.7h-3.5V20.2h4.2a1.4,1.4,0,0,1,1.4,1.4V33.5h1.4V21.6a2.8,2.8,0,0,0-2.8-2.8h-6.8l.483-1.93A.7.7,0,0,0,151.4,16h-5.6a.7.7,0,0,0-.679.87l.483,1.93h-6.8a2.8,2.8,0,0,0-2.8,2.8V32.8h1.4Zm7-1.4h2.1a.7.7,0,0,0,.679-.87L146.7,17.4H150.5l-.483,1.93a.7.7,0,0,0,.679.87h2.1v1.4h-8.4Z" transform="translate(-126.2 -16)" fill="#fff"/>
  <path id="Path_9241" data-name="Path 9241" d="M349.6,342.3a1.4,1.4,0,0,1-1.4,1.4H344v1.4h4.2a2.8,2.8,0,0,0,2.8-2.8V336h-1.4Z" transform="translate(-316 -308)" fill="#fff"/>
  <path id="Path_9242" data-name="Path 9242" d="M348.2,348.9V344h-1.4v4.2H344v1.4h3.5A.7.7,0,0,0,348.2,348.9Z" transform="translate(-316 -315.3)" fill="#fff"/>
  <path id="Path_9243" data-name="Path 9243" d="M204.2,112.7a.7.7,0,0,0-.7-.7h-2.8a.7.7,0,0,0-.7.7v2.8a.7.7,0,0,0,.7.7h2.8a.7.7,0,0,0,.7-.7Zm-1.4,2.1h-1.4v-1.4h1.4Z" transform="translate(-184.6 -103.6)" fill="#fff"/>
  <path id="Path_9244" data-name="Path 9244" d="M203.5,184h-2.8a.7.7,0,0,0-.7.7v2.8a.7.7,0,0,0,.7.7h2.8a.7.7,0,0,0,.7-.7v-2.8A.7.7,0,0,0,203.5,184Zm-.7,2.8h-1.4v-1.4h1.4Z" transform="translate(-184.6 -169.3)" fill="#fff"/>
  <path id="Path_9245" data-name="Path 9245" d="M264,112h1.4v1.4H264Z" transform="translate(-243 -103.6)" fill="#fff"/>
  <path id="Path_9246" data-name="Path 9246" d="M264,144h8.4v1.4H264Z" transform="translate(-243 -132.8)" fill="#fff"/>
  <path id="Path_9247" data-name="Path 9247" d="M296,112h5.6v1.4H296Z" transform="translate(-272.2 -103.6)" fill="#fff"/>
  <path id="Path_9248" data-name="Path 9248" d="M264,184h1.4v1.4H264Z" transform="translate(-243 -169.3)" fill="#fff"/>
  <path id="Path_9249" data-name="Path 9249" d="M264,216h8.4v1.4H264Z" transform="translate(-243 -198.5)" fill="#fff"/>
  <path id="Path_9250" data-name="Path 9250" d="M296,184h5.6v1.4H296Z" transform="translate(-272.2 -169.3)" fill="#fff"/>
</svg>
