<svg id="Improved_employee_morale_" data-name="Improved employee morale " xmlns="http://www.w3.org/2000/svg" width="43.096" height="42" viewBox="0 0 43.096 42">
  <path id="Path_9262" data-name="Path 9262" d="M109.337,378.465h-7.256v-4.349l.4.4a.631.631,0,1,0,.893-.893l-1.478-1.478h0l-.027-.025a.63.63,0,0,0-.865.025h0l-1.476,1.478a.631.631,0,1,0,.894.892l.4-.4V379.1a.631.631,0,0,0,.631.631h7.888a.631.631,0,0,0,0-1.263Z" transform="translate(-90.981 -341.199)" fill="#fff"/>
  <path id="Path_9263" data-name="Path 9263" d="M284.191,73.43h7.254v4.349l-.4-.4a.631.631,0,1,0-.893.893l1.478,1.478h0a.63.63,0,0,0,.87.02.18.18,0,0,0,.023-.021L294,78.271a.631.631,0,0,0-.893-.893l-.4.4V72.8a.631.631,0,0,0-.631-.631h-7.885a.631.631,0,0,0,0,1.263Z" transform="translate(-259.692 -66.641)" fill="#fff"/>
  <path id="Path_9264" data-name="Path 9264" d="M281.082,204.34c-.255-.145-.519-.3-.79-.458l-2.159-1.3a7.528,7.528,0,0,0,2-3.474,4.7,4.7,0,0,0,.12-1.034v-5.093c0-2.257-1.705-4.3-4.344-5.194-2.327-.792-4.632-.422-5.848.913-1.246.2-3.033,1.177-2.971,5.09,0,.037,0,.067,0,.09v4.194a4.7,4.7,0,0,0,.121,1.035,7.545,7.545,0,0,0,2,3.472l-2.159,1.3c-.271.162-.535.313-.79.458-1.641.933-3.059,1.739-3.059,4.173v4.521a1.151,1.151,0,0,0,.3.854,1.052,1.052,0,0,0,.786.267h.112l.119,0h1.821a.631.631,0,0,0,0-1.263h-1.872v-4.376c0-1.7.86-2.188,2.42-3.075q.232-.132.475-.272l2.676,1.734.026.016c.1.056.18.113.26.168a1.386,1.386,0,0,0,.763.3.936.936,0,0,0,.578-.213l.165.647-1.519,3.293a.658.658,0,0,0,.031.664l.656,1.113h-1.854a.631.631,0,0,0,0,1.263h13.92a1.052,1.052,0,0,0,.786-.267,1.151,1.151,0,0,0,.3-.853v-4.521C284.141,206.079,282.724,205.274,281.082,204.34Zm-2.307.1-2.142,1.387c-.123.072-.226.142-.31.2l0,0-.5-.533-.012-.012-.857-.908c.14-.042.284-.09.433-.145a7.182,7.182,0,0,0,1.754-.969Zm-8.337-14.516a.631.631,0,0,0,.445-.244c.957-1.242,3.009-1.246,4.617-.7s3.488,1.924,3.488,4v2.2h-.463a3.034,3.034,0,0,1-2.076-1.15,4.933,4.933,0,0,0-3.555-1.707h-1.38c-1.56,0-1.825,1.292-1.983,2.063-.2.979-.328,1.227-1.027,1.227h-.153v-1.732c0-.028,0-.065,0-.11C268.324,192.106,268.665,190.084,270.438,189.928Zm-2,8.905a3.431,3.431,0,0,1-.089-.755v-1.2h.153c1.805,0,2.092-1.4,2.264-2.236.188-.916.286-1.054.747-1.054h1.38a3.689,3.689,0,0,1,2.691,1.365,4.2,4.2,0,0,0,2.94,1.492h.463v1.634a3.432,3.432,0,0,1-.089.754,6.769,6.769,0,0,1-3.961,4.413,3.193,3.193,0,0,1-2.537,0A6.777,6.777,0,0,1,268.441,198.834Zm6.2,7.259-.294,1.155h-1.369l-.294-1.149.981-1.039Zm-3.625-.066,0,0c-.084-.058-.187-.127-.31-.2l-2.142-1.388,1.641-.985a7.17,7.17,0,0,0,1.753.969c.149.056.293.1.433.146Zm3.855,6.862h-2.418l-.887-1.506,1.325-2.873h1.542l1.323,2.873Zm8,0H276.34l.656-1.113a.658.658,0,0,0,.031-.664l-1.517-3.294.166-.651a.937.937,0,0,0,.583.217,1.385,1.385,0,0,0,.763-.3c.081-.055.164-.112.26-.168l.026-.016,2.676-1.734c.162.094.32.184.475.272,1.561.887,2.42,1.376,2.42,3.075Z" transform="translate(-241.045 -172.154)" fill="#fff"/>
  <path id="Path_9265" data-name="Path 9265" d="M17.884,23.477c-.256-.146-.521-.3-.792-.459l-2.159-1.3a7.526,7.526,0,0,0,2-3.475,4.663,4.663,0,0,0,.123-1.032V12.122c0-2.258-1.707-4.3-4.349-5.2-2.326-.791-4.63-.421-5.844.913-1.247.2-3.034,1.18-2.973,5.091,0,.036,0,.066,0,.089v4.2a4.658,4.658,0,0,0,.123,1.032,7.526,7.526,0,0,0,2,3.476l-2.159,1.3c-.271.163-.536.314-.792.459C1.416,24.409,0,25.214,0,27.649V32.17a1.149,1.149,0,0,0,.3.852,1.057,1.057,0,0,0,.79.268H3.308a.631.631,0,0,0,0-1.263H1.263V27.649c0-1.7.859-2.188,2.417-3.074.156-.088.315-.179.478-.274l2.676,1.732.023.014c.1.056.178.113.258.168a1.389,1.389,0,0,0,.768.3.931.931,0,0,0,.577-.213l.165.647L7.107,30.247a.659.659,0,0,0,.034.667l.654,1.111H6.221a.631.631,0,1,0,0,1.263H19.854a1.056,1.056,0,0,0,.79-.268,1.149,1.149,0,0,0,.3-.852V27.649C20.94,25.214,19.524,24.409,17.884,23.477Zm-2.31.1-2.142,1.386c-.122.072-.224.142-.308.2l0,0-1.374-1.455c.141-.042.285-.09.435-.146a7.175,7.175,0,0,0,1.751-.967ZM7.24,9.062a.632.632,0,0,0,.445-.244c.955-1.241,3-1.245,4.613-.7s3.493,1.925,3.493,4v2.194h-.463a3.038,3.038,0,0,1-2.078-1.15,4.935,4.935,0,0,0-3.554-1.7H8.316c-1.562,0-1.826,1.292-1.985,2.063C6.131,14.5,6,14.752,5.3,14.752H5.15V13.018c0-.027,0-.064,0-.108-.026-1.669.316-3.691,2.091-3.848Zm-2,8.9a3.4,3.4,0,0,1-.091-.751v-1.2H5.3c1.807,0,2.094-1.4,2.265-2.236.188-.916.286-1.054.748-1.054H9.694a3.691,3.691,0,0,1,2.691,1.363,4.2,4.2,0,0,0,2.942,1.491h.463v1.636a3.4,3.4,0,0,1-.091.752,6.764,6.764,0,0,1-3.958,4.413,3.552,3.552,0,0,1-1.272.263A3.576,3.576,0,0,1,9.2,22.379a6.764,6.764,0,0,1-3.958-4.413Zm6.2,7.261-.294,1.156H9.782l-.293-1.15.981-1.04Zm-3.125-.6h0l-.5.53,0,0c-.084-.058-.186-.127-.307-.2L5.367,23.579l1.64-.985a7.173,7.173,0,0,0,1.751.967c.149.056.293.1.434.146Zm3.356,7.393H9.259l-.886-1.507L9.7,27.646h1.542l1.324,2.87Zm8,0H13.14l.647-1.1a.652.652,0,0,0,.041-.674l-1.52-3.295.166-.651a.933.933,0,0,0,.583.218,1.386,1.386,0,0,0,.765-.3c.08-.055.164-.112.26-.169l.024-.015L16.782,24.3c.163.094.322.185.478.274,1.559.886,2.417,1.374,2.417,3.074v4.376Z" transform="translate(0 -6.512)" fill="#fff"/>
</svg>
