<svg xmlns="http://www.w3.org/2000/svg" width="42" height="42" viewBox="0 0 42 42">
  <path id="Inbound_and_outbound_optimization" data-name="Inbound and outbound optimization" d="M50.505,16.2,48.61,18.1H46.1a.7.7,0,0,0-.7.7v2.51L43.01,23.7H40.5a.7.7,0,0,0-.7.7v2.51L37.41,29.3H34.9a.7.7,0,0,0-.7.7v2.51L31.11,35.6H28.717a8.369,8.369,0,0,1,3.761-5.68l-.755-1.179A9.8,9.8,0,0,0,37,46.8h8.991A13.3,13.3,0,0,1,23.7,37H22.3a14.682,14.682,0,0,0,.422,3.5H17.4v-7H23a.7.7,0,0,0,.647-.432l1.131-2.73a.7.7,0,0,0-.152-.763l-3.96-3.96,4.95-4.95,3.96,3.96a.7.7,0,0,0,.763.152l2.73-1.131A.7.7,0,0,0,33.5,23V17.4h7v4.2h1.4V16.7a.7.7,0,0,0-.7-.7H32.8a.7.7,0,0,0-.7.7v5.832l-1.865.773-4.124-4.124a.7.7,0,0,0-.99,0l-5.94,5.94a.7.7,0,0,0,0,.99L23.3,30.235,22.532,32.1H16.7a.7.7,0,0,0-.7.7v8.4a.7.7,0,0,0,.7.7h5.832l.773,1.865-4.124,4.124a.7.7,0,0,0,0,.99l5.94,5.94a.7.7,0,0,0,.99,0L30.235,50.7l1.865.773V57.3a.7.7,0,0,0,.7.7h8.4a.7.7,0,0,0,.7-.7V51.468l1.865-.773,4.124,4.124a.7.7,0,0,0,.99,0l5.94-5.94a.7.7,0,0,0,0-.99L53.73,46.8H57.3a.7.7,0,0,0,.7-.7V22.3a.7.7,0,0,0-.7-.7H51.7a.7.7,0,0,0-.7.7v4.9H46.1a.7.7,0,0,0-.7.7v3.5H40.5a.7.7,0,0,0-.7.7v4.2H34.9a.7.7,0,0,0-.7.7v2.8H29.08A8.362,8.362,0,0,1,28.6,37h2.8a.7.7,0,0,0,.495-.2l3.295-3.3H37.7a.7.7,0,0,0,.7-.7V30.29l2.39-2.39H43.3a.7.7,0,0,0,.7-.7V24.69l2.39-2.39H48.9a.7.7,0,0,0,.7-.7V19.09l1.69-1.69H58V16H51a.7.7,0,0,0-.495.2ZM25.616,53.334l-4.95-4.95,3.766-3.766a14.814,14.814,0,0,0,4.95,4.95ZM33.5,56.6V51.278a14.7,14.7,0,0,0,7,0V56.6Zm19.834-8.216-4.95,4.95-3.765-3.765A14.7,14.7,0,0,0,47.956,46.8H51.75ZM52.4,23h4.2V45.4H52.4Zm-5.6,5.6H51V45.4H46.8Zm-5.6,4.2h4.2V45.4H41.2Zm-5.6,4.9h4.2v7.7H37a8.417,8.417,0,0,1-1.4-.117Zm-1.4,3.5v3.72a8.445,8.445,0,0,1-4.472-3.72ZM37,32.1H35.6V30.7H37Zm5.6-5.6H41.2V25.1h1.4Zm5.6-5.6H46.8V19.5h1.4Z" transform="translate(-16 -16)" fill="#fff"/>
</svg>
