<svg id="Lower_operating_expense" data-name="Lower operating expense" xmlns="http://www.w3.org/2000/svg" width="42" height="42" viewBox="0 0 42 42">
  <path id="Path_9230" data-name="Path 9230" d="M55.333,35.8a.7.7,0,0,0-.633-.4H51.2V27.7a.7.7,0,0,0-.7-.7H44.9a.7.7,0,0,0-.7.7v7.7H40.7a.7.7,0,0,0-.538,1.148l7,8.4a.7.7,0,0,0,1.077,0l7-8.4A.7.7,0,0,0,55.333,35.8Zm-7.634,7.6L42.194,36.8H44.9a.7.7,0,0,0,.7-.7V28.4h4.2v7.7a.7.7,0,0,0,.7.7h2.706Z" transform="translate(-13.4 -9.5)" fill="#fff"/>
  <path id="Path_9231" data-name="Path 9231" d="M11.163,19.948a.7.7,0,0,0,1.075,0l7-8.4A.7.7,0,0,0,18.7,10.4H15.2V2.7a.7.7,0,0,0-.7-.7H8.9a.7.7,0,0,0-.7.7v7.7H4.7a.7.7,0,0,0-.538,1.148ZM8.9,11.8a.7.7,0,0,0,.7-.7V3.4h4.2v7.7a.7.7,0,0,0,.7.7h2.706L11.7,18.407,6.195,11.8Z" transform="translate(-2.6 -2)" fill="#fff"/>
  <path id="Path_9232" data-name="Path 9232" d="M28.7,18a7.7,7.7,0,1,0,7.7,7.7A7.7,7.7,0,0,0,28.7,18Zm0,14A6.3,6.3,0,1,1,35,25.7,6.3,6.3,0,0,1,28.7,32Z" transform="translate(-7.7 -6.8)" fill="#fff"/>
  <path id="Path_9233" data-name="Path 9233" d="M32.6,25.5v-.7a.7.7,0,0,0-.7-.7H29.1a.7.7,0,0,0-.7.7v.7a.7.7,0,0,0,.7.7h2.8A2.106,2.106,0,0,1,34,28.3V29a2.106,2.106,0,0,1-2.1,2.1h-.7v.7H29.8v-.7h-.7A2.106,2.106,0,0,1,27,29h1.4a.7.7,0,0,0,.7.7h2.8a.7.7,0,0,0,.7-.7v-.7a.7.7,0,0,0-.7-.7H29.1A2.106,2.106,0,0,1,27,25.5v-.7a2.106,2.106,0,0,1,2.1-2.1h.7V22h1.4v.7h.7A2.106,2.106,0,0,1,34,24.8v.7Z" transform="translate(-9.5 -8)" fill="#fff"/>
  <path id="Path_9234" data-name="Path 9234" d="M36.181,50.319A2.8,2.8,0,0,0,34.2,49.5H28.089a2.692,2.692,0,0,0,.07-.581,2.806,2.806,0,0,0-1.176-2.289L17.82,39.84a.7.7,0,0,0-.518-.133l-4.851.693H7.6v-.7a.7.7,0,0,0-.7-.7H2.7a.7.7,0,0,0-.7.7V50.9a.7.7,0,0,0,.7.7H6.9a.7.7,0,0,0,.7-.7v-.7h3.962l6.111,4.753a.716.716,0,0,0,.427.147H34.2a2.8,2.8,0,0,0,1.981-4.781ZM6.2,50.2H3.4V40.4H6.2Zm28,3.5H18.338l-6.111-4.753A.672.672,0,0,0,11.8,48.8H7.6v-7h4.9a.465.465,0,0,0,.1-.007l4.613-.658,8.953,6.629a1.392,1.392,0,0,1,.6,1.155,1.367,1.367,0,0,1-.252.8,1.4,1.4,0,0,1-1.946.343L18.94,46.126l-.8,1.148,5.614,3.934a2.8,2.8,0,0,0,3.57-.308H34.2a1.4,1.4,0,0,1,0,2.8Z" transform="translate(-2 -13.1)" fill="#fff"/>
</svg>
