<svg id="Optimized_supply_chain_" data-name="Optimized supply chain " xmlns="http://www.w3.org/2000/svg" width="41.3" height="42" viewBox="0 0 41.3 42">
  <path id="Path_9266" data-name="Path 9266" d="M267.051,267.158v-1.314l1.719-1.552a.7.7,0,0,0,.178-.787l-.941-2.271a.7.7,0,0,0-.682-.431l-2.314.118-.929-.929.118-2.313a.7.7,0,0,0-.431-.682l-2.271-.941a.7.7,0,0,0-.788.178l-1.552,1.719h-1.314l-1.552-1.719a.7.7,0,0,0-.787-.178l-2.271.941a.7.7,0,0,0-.431.682l.118,2.314-.929.929-2.313-.118a.7.7,0,0,0-.682.431l-.941,2.271a.7.7,0,0,0,.178.787l1.719,1.552v1.314l-1.719,1.552a.7.7,0,0,0-.178.787l.941,2.271a.7.7,0,0,0,.682.431l2.313-.118.929.929-.118,2.313a.7.7,0,0,0,.431.683l2.271.941a.7.7,0,0,0,.788-.178l1.552-1.719h1.314l1.552,1.719a.7.7,0,0,0,.787.178l2.271-.941a.7.7,0,0,0,.431-.683l-.118-2.313.929-.929,2.313.118a.7.7,0,0,0,.682-.431l.941-2.271a.7.7,0,0,0-.178-.787Zm-.148,3.619-2.131-.109a.7.7,0,0,0-.531.2l-1.369,1.369a.7.7,0,0,0-.2.531l.109,2.131-1.358.563-1.43-1.583a.7.7,0,0,0-.52-.231h-1.936a.7.7,0,0,0-.519.231l-1.43,1.584-1.358-.563.109-2.131a.7.7,0,0,0-.2-.531l-1.369-1.37a.7.7,0,0,0-.531-.2l-2.131.109-.563-1.358,1.583-1.43a.7.7,0,0,0,.231-.52v-1.936a.7.7,0,0,0-.231-.519l-1.584-1.43.563-1.358,2.131.109a.7.7,0,0,0,.531-.2l1.369-1.369a.7.7,0,0,0,.2-.531l-.109-2.131,1.358-.562,1.43,1.583a.7.7,0,0,0,.52.231h1.936a.7.7,0,0,0,.519-.231l1.43-1.584,1.358.562-.109,2.131a.7.7,0,0,0,.2.531l1.369,1.369a.7.7,0,0,0,.531.2l2.131-.109.563,1.358-1.583,1.43a.7.7,0,0,0-.231.52v1.936a.7.7,0,0,0,.231.519l1.584,1.43Z" transform="translate(-227.701 -235.001)" fill="#fff"/>
  <path id="Path_9267" data-name="Path 9267" d="M316.9,320a4.9,4.9,0,1,0,4.9,4.9A4.9,4.9,0,0,0,316.9,320Zm0,8.4a3.5,3.5,0,1,1,3.5-3.5A3.5,3.5,0,0,1,316.9,328.4Z" transform="translate(-286.1 -293.4)" fill="#fff"/>
  <path id="Path_9268" data-name="Path 9268" d="M73.642,222.808l-1.377-.253A16.243,16.243,0,0,0,72,225.481h1.4a14.841,14.841,0,0,1,.243-2.676Z" transform="translate(-67.1 -204.482)" fill="#fff"/>
  <path id="Path_9269" data-name="Path 9269" d="M197.456,416.642a16.049,16.049,0,0,0,3.66.767l.126-1.394a14.647,14.647,0,0,1-3.34-.7Z" transform="translate(-181.579 -380.374)" fill="#fff"/>
  <path id="Path_9270" data-name="Path 9270" d="M416.064,201.91l1.4-.062a16.063,16.063,0,0,0-.816-4.391l-1.327.445A14.663,14.663,0,0,1,416.064,201.91Z" transform="translate(-380.379 -181.579)" fill="#fff"/>
  <path id="Path_9271" data-name="Path 9271" d="M210.213,73.4a14.729,14.729,0,0,1,4.009.553L214.6,72.6a16.2,16.2,0,0,0-8.781,0l.381,1.348A14.731,14.731,0,0,1,210.213,73.4Z" transform="translate(-189.214 -67.096)" fill="#fff"/>
  <path id="Path_9272" data-name="Path 9272" d="M320.7,67.2h11.2a.7.7,0,0,0,.7-.7v-7a.7.7,0,0,0-.074-.313h0l-1.4-2.8A.7.7,0,0,0,330.5,56h-8.4a.7.7,0,0,0-.626.387l-1.4,2.8h0A.7.7,0,0,0,320,59.5v7A.7.7,0,0,0,320.7,67.2Zm10.5-1.4h-9.8V60.2h2.1v2.1a.7.7,0,0,0,.7.7h4.2a.7.7,0,0,0,.7-.7V60.2h2.1Zm-3.5-5.6v1.4h-2.8V60.2Zm-2.6-1.4.35-1.4h1.707l.35,1.4Zm5.671,0h-1.821l-.35-1.4h1.471Zm-8.235-1.4H324l-.35,1.4h-1.821Z" transform="translate(-293.4 -52.5)" fill="#fff"/>
  <path id="Path_9273" data-name="Path 9273" d="M20.2,32.8V31.4H17.4v-14h7v2.8h1.4V16.7a.7.7,0,0,0-.7-.7H16.7a.7.7,0,0,0-.7.7V32.1a.7.7,0,0,0,.7.7Z" transform="translate(-16 -16)" fill="#fff"/>
  <path id="Path_9274" data-name="Path 9274" d="M48,48h1.4v1.4H48Z" transform="translate(-45.2 -45.2)" fill="#fff"/>
  <path id="Path_9275" data-name="Path 9275" d="M80,48h1.4v1.4H80Z" transform="translate(-74.4 -45.2)" fill="#fff"/>
  <path id="Path_9276" data-name="Path 9276" d="M48,80h1.4v1.4H48Z" transform="translate(-45.2 -74.4)" fill="#fff"/>
  <path id="Path_9277" data-name="Path 9277" d="M48,112h1.4v1.4H48Z" transform="translate(-45.2 -103.6)" fill="#fff"/>
  <path id="Path_9278" data-name="Path 9278" d="M48,144h1.4v1.4H48Z" transform="translate(-45.2 -132.8)" fill="#fff"/>
  <path id="Path_9279" data-name="Path 9279" d="M89.1,80H80.7a.7.7,0,0,0-.7.7v9.8a.7.7,0,0,0,.7.7h8.4a.7.7,0,0,0,.7-.7V80.7A.7.7,0,0,0,89.1,80Zm-.7,9.8h-7V81.4h7Z" transform="translate(-74.4 -74.4)" fill="#fff"/>
  <path id="Path_9280" data-name="Path 9280" d="M112,144h1.4v1.4H112Z" transform="translate(-103.6 -132.8)" fill="#fff"/>
  <path id="Path_9281" data-name="Path 9281" d="M144,144h1.4v1.4H144Z" transform="translate(-132.8 -132.8)" fill="#fff"/>
  <path id="Path_9282" data-name="Path 9282" d="M112,112h1.4v1.4H112Z" transform="translate(-103.6 -103.6)" fill="#fff"/>
  <path id="Path_9283" data-name="Path 9283" d="M144,112h1.4v1.4H144Z" transform="translate(-132.8 -103.6)" fill="#fff"/>
  <path id="Path_9284" data-name="Path 9284" d="M34.5,270.961h-.373a4.2,4.2,0,1,0-6.254,0H27.5a3.5,3.5,0,0,0-3.5,3.5v6.3a2.1,2.1,0,0,0,2.1,2.1v1.4h1.4v-1.4a2.1,2.1,0,0,0,2.1-2.1v-1.4a.7.7,0,0,0-.205-.495L28.2,277.671v-1.81H26.8v2.1a.7.7,0,0,0,.205.495l1.195,1.195v1.11a.7.7,0,0,1-.7.7H26.1a.7.7,0,0,1-.7-.7v-6.3a2.1,2.1,0,0,1,2.1-2.1h7a2.1,2.1,0,0,1,2.1,2.1v6.3a.7.7,0,0,1-.7.7H34.5a.7.7,0,0,1-.7-.7v-1.11l1.195-1.195a.7.7,0,0,0,.205-.495v-2.1H33.8v1.81L32.6,278.866a.7.7,0,0,0-.205.495v1.4a2.1,2.1,0,0,0,2.1,2.1v1.4h1.4v-1.4a2.1,2.1,0,0,0,2.1-2.1v-6.3A3.5,3.5,0,0,0,34.5,270.961Zm-6.3-2.8a2.8,2.8,0,1,1,2.8,2.8A2.8,2.8,0,0,1,28.2,268.161Z" transform="translate(-23.3 -242.261)" fill="#fff"/>
  <path id="Path_9285" data-name="Path 9285" d="M112.351,222.124a12.657,12.657,0,0,0-.351,2.964h1.4a11.255,11.255,0,0,1,.312-2.636Z" transform="translate(-103.6 -204.088)" fill="#fff"/>
  <path id="Path_9286" data-name="Path 9286" d="M196.7,373.959a12.515,12.515,0,0,0,3.707,1.028l.163-1.39a11.115,11.115,0,0,1-3.293-.913Z" transform="translate(-180.889 -341.473)" fill="#fff"/>
  <path id="Path_9287" data-name="Path 9287" d="M373.655,201.229l1.4-.081a12.506,12.506,0,0,0-1.093-4.448l-1.275.578A11.112,11.112,0,0,1,373.655,201.229Z" transform="translate(-341.474 -180.889)" fill="#fff"/>
  <path id="Path_9288" data-name="Path 9288" d="M209.623,113.4a11.156,11.156,0,0,1,3.953.717l.494-1.31a12.65,12.65,0,0,0-8.894,0l.494,1.31A11.156,11.156,0,0,1,209.623,113.4Z" transform="translate(-188.623 -103.602)" fill="#fff"/>
</svg>
