<svg xmlns="http://www.w3.org/2000/svg" width="560.89" height="265.8" viewBox="0 0 560.89 265.8">
  <g id="Smarter_use_of_storage_" data-name="Smarter use of storage " transform="translate(-86.853 -48.943)">
    <path id="Path_9876" data-name="Path 9876" d="M705.92,438.714l-488.36-.541c-35.575-18.585-51.071-100.4-2.794-130.452,43.644-27.168,16.03-43.945,45.684-59.135,46.231-23.682,70.923-2.98,87.387-22.351,30.39-35.756,105.24-58.575,218.81-49.032,203.12,17.069,162.567,139.284,157.218,150.374-4.657,9.659-25.016,23.069,7.634,54.571C764.583,414.07,707.4,438.146,705.92,438.714Z" transform="translate(-94.041 -126.082)" fill="#efefef"/>
    <g id="Group_7136" data-name="Group 7136" transform="translate(314.642 104.827)">
      <g id="Group_7134" data-name="Group 7134">
        <path id="Path_9877" data-name="Path 9877" d="M1343.49,500.359v23.279a3.738,3.738,0,0,0,3.739,3.739h41.464l11.519,7.431-3.516-7.451,4.839.02h0a3.738,3.738,0,0,0,3.739-3.739V500.359a3.74,3.74,0,0,0-3.739-3.739h-54.306A3.739,3.739,0,0,0,1343.49,500.359Z" transform="translate(-1343.49 -496.62)" fill="#9a9a9a"/>
      </g>
      <g id="Group_7135" data-name="Group 7135" transform="translate(5.18 6.923)">
        <path id="Path_9878" data-name="Path 9878" d="M1531.764,633.02h-32.35a1.173,1.173,0,0,0-1.174,1.173h0a1.173,1.173,0,0,0,1.174,1.174h32.35a1.173,1.173,0,0,0,1.174-1.174h0A1.173,1.173,0,0,0,1531.764,633.02Z" transform="translate(-1481.513 -620.633)" fill="#fff"/>
        <path id="Path_9879" data-name="Path 9879" d="M1405.473,589.27h-24.219a1.173,1.173,0,0,0-1.174,1.174h0a1.173,1.173,0,0,0,1.174,1.174h24.219a1.173,1.173,0,0,0,1.174-1.174h0A1.174,1.174,0,0,0,1405.473,589.27Z" transform="translate(-1380.08 -583.077)" fill="#fff"/>
        <path id="Path_9880" data-name="Path 9880" d="M1614.989,589.27h-18.626a1.173,1.173,0,0,0-1.173,1.174h0a1.173,1.173,0,0,0,1.173,1.174h18.626a1.173,1.173,0,0,0,1.174-1.174h0A1.173,1.173,0,0,0,1614.989,589.27Z" transform="translate(-1564.738 -583.077)" fill="#fff"/>
        <path id="Path_9881" data-name="Path 9881" d="M1430.331,545.52h-49.078a1.173,1.173,0,0,0-1.173,1.174h0a1.173,1.173,0,0,0,1.173,1.174h49.078a1.173,1.173,0,0,0,1.173-1.174h0A1.173,1.173,0,0,0,1430.331,545.52Z" transform="translate(-1380.08 -545.52)" fill="#fff"/>
      </g>
    </g>
    <path id="Path_9882" data-name="Path 9882" d="M272.6,1829.413H816.754a1.527,1.527,0,0,0,1.436-1.6h0a1.527,1.527,0,0,0-1.436-1.6H272.6a1.527,1.527,0,0,0-1.436,1.6h0A1.526,1.526,0,0,0,272.6,1829.413Z" transform="translate(-184.307 -1514.67)"/>
    <g id="Group_7147" data-name="Group 7147" transform="translate(388.89 53.259)">
      <rect id="Rectangle_835" data-name="Rectangle 835" width="2.266" height="207.289" transform="translate(39.873 51.16)" fill="#184655"/>
      <g id="Group_7139" data-name="Group 7139" transform="translate(37.93 160.237)">
        <rect id="Rectangle_836" data-name="Rectangle 836" width="42.83" height="33.645" transform="translate(42.83 33.645) rotate(180)" fill="#787878"/>
        <rect id="Rectangle_837" data-name="Rectangle 837" width="15.153" height="33.645" transform="translate(42.83 33.645) rotate(180)" fill="#474747"/>
        <rect id="Rectangle_838" data-name="Rectangle 838" width="9.149" height="4.478" transform="translate(18.856 4.478) rotate(180)" fill="#afafaf"/>
      </g>
      <g id="Group_7140" data-name="Group 7140" transform="translate(71.621 160.237)">
        <rect id="Rectangle_839" data-name="Rectangle 839" width="42.83" height="33.645" transform="translate(42.83 33.645) rotate(180)" fill="#717171"/>
        <rect id="Rectangle_840" data-name="Rectangle 840" width="15.153" height="33.645" transform="translate(42.83 33.645) rotate(180)" fill="#535150"/>
        <rect id="Rectangle_841" data-name="Rectangle 841" width="9.149" height="4.478" transform="translate(18.856 4.478) rotate(180)" fill="#aaa"/>
      </g>
      <g id="Group_7141" data-name="Group 7141" transform="translate(48.325 126.592)">
        <rect id="Rectangle_842" data-name="Rectangle 842" width="49.718" height="33.645" transform="translate(49.718 33.645) rotate(180)" fill="#8d8d8d"/>
        <rect id="Rectangle_843" data-name="Rectangle 843" width="17.59" height="33.645" transform="translate(49.717 33.645) rotate(180)" fill="#707070"/>
        <rect id="Rectangle_844" data-name="Rectangle 844" width="10.62" height="4.478" transform="translate(21.887 4.478) rotate(180)" fill="#c1c1c1"/>
      </g>
      <g id="Group_7142" data-name="Group 7142" transform="translate(105.526 105.53)">
        <rect id="Rectangle_845" data-name="Rectangle 845" width="107.171" height="88.495" transform="translate(107.171 88.495) rotate(180)" fill="#ababab"/>
        <rect id="Rectangle_846" data-name="Rectangle 846" width="2.189" height="88.495" transform="translate(53.9 88.495) rotate(180)" fill="#5b5b5b"/>
        <rect id="Rectangle_847" data-name="Rectangle 847" width="2.189" height="88.495" transform="translate(26.331 88.495) rotate(180)" fill="#676767"/>
        <rect id="Rectangle_848" data-name="Rectangle 848" width="1.76" height="107.171" transform="translate(107.172 29.646) rotate(90)" fill="#676767"/>
        <rect id="Rectangle_849" data-name="Rectangle 849" width="1.76" height="107.171" transform="translate(107.171 59.951) rotate(90)" fill="#676767"/>
        <rect id="Rectangle_850" data-name="Rectangle 850" width="28.825" height="88.495" transform="translate(107.17 88.495) rotate(180)" fill="#9d9c9c" opacity="0.6"/>
        <rect id="Rectangle_851" data-name="Rectangle 851" width="10.277" height="2.393" transform="translate(71.262 2.393) rotate(180)" fill="#7e7e7d"/>
        <rect id="Rectangle_852" data-name="Rectangle 852" width="10.277" height="2.393" transform="translate(43.044 2.393) rotate(180)" fill="#7e7e7d"/>
        <rect id="Rectangle_853" data-name="Rectangle 853" width="10.277" height="2.393" transform="translate(15.679 2.393) rotate(180)" fill="#7e7e7d"/>
        <rect id="Rectangle_854" data-name="Rectangle 854" width="10.277" height="2.393" transform="translate(71.262 33.8) rotate(180)" fill="#7e7e7d"/>
        <rect id="Rectangle_855" data-name="Rectangle 855" width="10.277" height="2.393" transform="translate(43.044 33.8) rotate(180)" fill="#646464"/>
        <rect id="Rectangle_856" data-name="Rectangle 856" width="10.277" height="2.393" transform="translate(15.679 33.8) rotate(180)" fill="#7e7e7d"/>
        <rect id="Rectangle_857" data-name="Rectangle 857" width="10.277" height="2.393" transform="translate(71.262 64.105) rotate(180)" fill="#646464"/>
        <rect id="Rectangle_858" data-name="Rectangle 858" width="10.277" height="2.393" transform="translate(43.044 64.105) rotate(180)" fill="#7e7e7d"/>
        <rect id="Rectangle_859" data-name="Rectangle 859" width="10.277" height="2.393" transform="translate(15.679 64.105) rotate(180)" fill="#7e7e7d"/>
      </g>
      <rect id="Rectangle_860" data-name="Rectangle 860" width="219.018" height="6.867" transform="translate(219.018 200.75) rotate(180)" fill="#b9b9b9"/>
      <rect id="Rectangle_861" data-name="Rectangle 861" width="39.58" height="6.867" transform="translate(219.017 200.75) rotate(180)" fill="#d2d2d2"/>
      <rect id="Rectangle_862" data-name="Rectangle 862" width="2.268" height="207.289" transform="translate(0.293 51.16)" fill="#184655"/>
      <rect id="Rectangle_863" data-name="Rectangle 863" width="41.846" height="2.118" transform="translate(42.14 53.277) rotate(180)" fill="#184655"/>
      <rect id="Rectangle_876" data-name="Rectangle 876" width="41.846" height="2.118" transform="translate(220.151 53.277) rotate(180)" fill="#184655"/>
      <rect id="Rectangle_877" data-name="Rectangle 877" width="219.018" height="6.867" transform="translate(219.018 94.846) rotate(180)" fill="#b9b9b9"/>
      <rect id="Rectangle_878" data-name="Rectangle 878" width="39.58" height="6.867" transform="translate(219.017 94.846) rotate(180)" fill="#d2d2d2"/>
      <rect id="Rectangle_879" data-name="Rectangle 879" width="2.268" height="207.289" transform="translate(217.884 51.16)" fill="#184655"/>
      <rect id="Rectangle_880" data-name="Rectangle 880" width="2.268" height="207.289" transform="translate(178.304 51.16)" fill="#184655"/>
      <g id="Group_7155" data-name="Group 7155" transform="translate(71.622 43.989)">
        <rect id="Rectangle_836-2" data-name="Rectangle 836" width="55.998" height="43.99" transform="translate(55.998 43.99) rotate(180)" fill="#787878"/>
        <rect id="Rectangle_837-2" data-name="Rectangle 837" width="19.812" height="43.99" transform="translate(55.999 43.99) rotate(180)" fill="#474747"/>
        <rect id="Rectangle_838-2" data-name="Rectangle 838" width="11.962" height="5.855" transform="translate(24.653 5.855) rotate(180)" fill="#afafaf"/>
      </g>
      <g id="Group_7156" data-name="Group 7156" transform="translate(115.673 43.989)">
        <rect id="Rectangle_839-2" data-name="Rectangle 839" width="55.998" height="43.99" transform="translate(55.998 43.99) rotate(180)" fill="#717171"/>
        <rect id="Rectangle_840-2" data-name="Rectangle 840" width="19.812" height="43.99" transform="translate(55.999 43.99) rotate(180)" fill="#535150"/>
        <rect id="Rectangle_841-2" data-name="Rectangle 841" width="11.962" height="5.855" transform="translate(24.653 5.855) rotate(180)" fill="#aaa"/>
      </g>
      <g id="Group_7157" data-name="Group 7157" transform="translate(85.214 0)">
        <rect id="Rectangle_842-2" data-name="Rectangle 842" width="65.004" height="43.99" transform="translate(65.004 43.99) rotate(180)" fill="#8d8d8d"/>
        <rect id="Rectangle_843-2" data-name="Rectangle 843" width="22.999" height="43.99" transform="translate(65.003 43.99) rotate(180)" fill="#707070"/>
        <rect id="Rectangle_844-2" data-name="Rectangle 844" width="13.885" height="5.855" transform="translate(28.616 5.855) rotate(180)" fill="#c1c1c1"/>
      </g>
    </g>
    <g id="Group_7154" data-name="Group 7154" transform="translate(238.827 129.337)">
      <path id="Path_9908" data-name="Path 9908" d="M1292.789,1228.6l-3.819-.961,27.909-97.586,39.876-22.117a1.787,1.787,0,0,1,2.43.7h0a1.786,1.786,0,0,1-.7,2.43l-38.564,21.388-24.832,90.018Z" transform="translate(-1259.706 -1054.065)" fill="#6b6b6b"/>
      <g id="Group_7148" data-name="Group 7148" transform="translate(14.687 156.136)">
        <path id="Path_9909" data-name="Path 9909" d="M1233.037,1694.589a12.854,12.854,0,1,1-12.853-12.859A12.857,12.857,0,0,1,1233.037,1694.589Z" transform="translate(-1207.33 -1681.73)" fill="#1a1a1a"/>
      </g>
      <path id="Path_9910" data-name="Path 9910" d="M1739.52,992.052c2.03-1.121,7.334-20.913,15.664-25.761,0,0,3.31-2.282,7.742,1.359,4.358,3.644-13.968,30.315-18.057,32.586-6.1,3.389-29.835-3.582-35.329-4.774l.6-3.948S1737.722,993.047,1739.52,992.052Z" transform="translate(-1605.185 -937.315)" fill="#f48c7f"/>
      <path id="Path_9911" data-name="Path 9911" d="M1882.159,1004.83s-7.315,13.968-8.269,16.251c0,0,9.711,6.056,12.009,8.215,0,0,3.562-11.65,3.562-12.234S1882.159,1004.83,1882.159,1004.83Z" transform="translate(-1740.191 -969.552)" fill="#646464"/>
      <path id="Path_9912" data-name="Path 9912" d="M1706.929,1114.134l-1.873-.314-.466.506.007.375,1.368.882s2.167-.857,2.166-.934A8.376,8.376,0,0,0,1706.929,1114.134Z" transform="translate(-1601.119 -1059.082)" fill="#f48c7f"/>
      <path id="Path_9913" data-name="Path 9913" d="M1813.274,1150.05l-1.867-.35-.477.5v.375l1.35.909s2.185-.815,2.185-.889A7.937,7.937,0,0,0,1813.274,1150.05Z" transform="translate(-1688.472 -1088.556)" fill="#f7a491"/>
      <path id="Path_9914" data-name="Path 9914" d="M1688.529,1116.175l-24.6-8.345-2.41,2.186,25.182,8.558Z" transform="translate(-1565.739 -1054.162)" fill="#6b6b6b"/>
      <path id="Path_9915" data-name="Path 9915" d="M2178.413,1728.225s1.887,1.846,1.93,2.523.168,7.936-.6,8.615-3.033,1.159-2.3,1.921c.55.577,4.78.453,7.581.3.818-.045,1.845-6.592,2.168-7.554.471-1.4,1.616-4.546,1.187-5.519a8.167,8.167,0,0,0-2.612-2.36,12.856,12.856,0,0,1-2.892-3.089Z" transform="translate(-1989.422 -1559.544)" fill="#f48c7f"/>
      <path id="Path_9916" data-name="Path 9916" d="M2040.03,1775.593s1.689,4.783,1.691,4.8c.125.759.619,2.63.619,3.319,0,2.589-11.637-2.2-9.031-3.344a2.77,2.77,0,0,0,1.055-1.814,6.078,6.078,0,0,0-.98-3.06Z" transform="translate(-1870.833 -1602.613)" fill="#f7a491"/>
      <g id="Group_7149" data-name="Group 7149" transform="translate(147.803 81.459)">
        <path id="Path_9917" data-name="Path 9917" d="M1956.016,1277.19s-.848,8.575-.848,8.7c0,13.871-2.742,40.967-2.221,43.576,1.271,6.362,14.963,38.811,14.963,38.811l7.4-.887-9.641-38.852,3.548-15.637,5.02-30.912Z" transform="translate(-1952.881 -1274.742)" fill="#8f8f8f"/>
        <path id="Path_9918" data-name="Path 9918" d="M2006.657,1263.48l1.85,18.162,3.8,33.449,14.468,32.692s-2.035,4.756-5.037,5.424l-23.025-33.565L1984.84,1268.5l.072-1.344Z" transform="translate(-1979.134 -1263.48)" fill="#ababab"/>
      </g>
      <path id="Path_9919" data-name="Path 9919" d="M2182.179,1740.1s-4.348,12.279-6.051,12.871c-.451.157-2.621.557-3.03,1.518a4.178,4.178,0,0,0,0,1.257h9.063s1.147-5.41,1.6-7.787c0,0,2.4-5.808,2.132-6.335S2182.179,1740.1,2182.179,1740.1Z" transform="translate(-1985.931 -1573.542)" fill="#4a4a4a"/>
      <path id="Path_9920" data-name="Path 9920" d="M2001.5,1806.873l-1.333-4.223s-2.8,1.187-4.2.989a42.376,42.376,0,0,1-4.131-.989c-5.587,1.844-10.163,2.739-9.331,4.223h19Z" transform="translate(-1829.335 -1624.924)" fill="#4a4a4a"/>
      <path id="Path_9921" data-name="Path 9921" d="M1923.139,1020.715l1.782-15.143s-11.537-22.165-11.361-33.534c.105-5.04,5.215-7.677,5.887-7.822,3.348-.72,11.2-4.492,16.791-.653,6.586,4.614,13.664,19.744,13.028,56.39C1949.268,1019.954,1930.237,1022.966,1923.139,1020.715Z" transform="translate(-1772.777 -934.258)" fill="#515151"/>
      <path id="Path_9922" data-name="Path 9922" d="M1841.876,1003.716c2.052-1.08-2.591-27.012,5.831-31.694,0,0,3.355-2.216,7.713,1.51,4.285,3.73-2.437,39.114-6.569,41.3-6.169,3.267-28.8-5.885-34.272-7.185l.859-4.962S1840.058,1004.674,1841.876,1003.716Z" transform="translate(-1691.47 -942.065)" fill="#f7a491"/>
      <path id="Path_9923" data-name="Path 9923" d="M1967.267,997.741c-.214-8.993.2-22.581,5.831-25.709,0,0,3.355-2.216,7.713,1.51,2.494,2.171,4.137,16.544,2.193,27.8C1979.233,999.247,1971.679,997.691,1967.267,997.741Z" transform="translate(-1816.861 -942.073)" fill="#646464"/>
      <path id="Path_9924" data-name="Path 9924" d="M1776.15,1134.347s-3.71-2.957-4.855-2.957a9.552,9.552,0,0,0-3.189.382c-.377.245-2.812,4.721-2.166,5.376.393.4,2.432-3.257,2.432-3.257s-2.33,3.765-1.287,4.032c.579.148,2.637-3.642,2.637-3.642s-1.778,3.137-1.573,3.256c.557.327,1.652-.626,2.739-1.732.669-.682,3.362-.268,3.362-.268Z" transform="translate(-1651.426 -1073.515)" fill="#f7a491"/>
      <path id="Path_9925" data-name="Path 9925" d="M1907.068,808.552s3.2-3.378,5.782.732a2.561,2.561,0,0,1,3.378.871s3.587-1.08,4.458,4.283c0,0,1.846-.348,2.089,1.846a5.422,5.422,0,0,1-.871,3.657s1.037.778.566,2.794a2.494,2.494,0,0,1-1.819,1.977s-.384,2.891-1.637,3.762a4.087,4.087,0,0,1-2.96.453,1.934,1.934,0,0,1-1.916,1.428c-1.462-.139-3.275-1.532-4.91-.905s-5.885-.036-5.885-.036-4.77-2.125-3.344-7a3.567,3.567,0,0,1-.314-4.98s-1.6-4.249,1.567-6.756S1907.068,808.552,1907.068,808.552Z" transform="translate(-1760.64 -807.246)" fill="#07345a"/>
      <path id="Path_9926" data-name="Path 9926" d="M1943.324,911.829l-.58,4.3s-1.3,6.2.371,7.394,7.108-7.572,7.108-7.572l-.575-10.9Z" transform="translate(-1796.356 -887.587)" fill="#f7a491"/>
      <path id="Path_9927" data-name="Path 9927" d="M1952.454,908.593a12.368,12.368,0,0,1-7,6.892l.491-3.648,6.326-6.778Z" transform="translate(-1798.974 -887.596)" fill="#f47458"/>
      <path id="Path_9928" data-name="Path 9928" d="M1925.231,839.47a5.75,5.75,0,0,0-7.526,4.582,43.322,43.322,0,0,0-.466,5.521c-.091,5.026,2.51,9.916,4.792,9.916s8.59-3.253,8.818-10.388C1930.989,844.7,1928.791,840.7,1925.231,839.47Z" transform="translate(-1775.798 -833.462)" fill="#f7a491"/>
      <path id="Path_9929" data-name="Path 9929" d="M1984.06,888.777a1.674,1.674,0,1,0,1.641-2.007A1.852,1.852,0,0,0,1984.06,888.777Z" transform="translate(-1830.69 -872.571)" fill="#f7a491"/>
      <path id="Path_9930" data-name="Path 9930" d="M1895.195,819.835c-2.357,1.868-3.183,4.7-1.844,6.338s4.333,1.443,6.692-.425,3.184-4.7,1.845-6.338S1897.551,817.967,1895.195,819.835Z" transform="translate(-1755.65 -816.326)" fill="#07345a"/>
      <path id="Path_9931" data-name="Path 9931" d="M1941.15,828.709c0,.813.98,1.47,2.189,1.47s2.189-.657,2.189-1.47-.98-1.469-2.189-1.469S1941.15,827.9,1941.15,828.709Z" transform="translate(-1795.442 -823.67)" fill="#07345a"/>
      <path id="Path_9932" data-name="Path 9932" d="M1904.67,861.759a1.869,1.869,0,1,0,1.869-1.889A1.88,1.88,0,0,0,1904.67,861.759Z" transform="translate(-1765.475 -850.474)" fill="#07345a"/>
      <g id="Group_7150" data-name="Group 7150" transform="translate(33.168 95.842)">
        <rect id="Rectangle_881" data-name="Rectangle 881" width="36.143" height="31.492" transform="translate(34.94 39.7) rotate(-165.162)" fill="#9d9d9d"/>
        <rect id="Rectangle_882" data-name="Rectangle 882" width="12.788" height="31.492" transform="translate(34.938 39.701) rotate(-165.162)" fill="#414141" opacity="0.5"/>
        <rect id="Rectangle_883" data-name="Rectangle 883" width="7.72" height="4.192" transform="translate(22.373 8.128) rotate(-165.162)" fill="#787878"/>
      </g>
      <g id="Group_7151" data-name="Group 7151" transform="translate(10.371 122.082)">
        <rect id="Rectangle_884" data-name="Rectangle 884" width="51.462" height="40.426" transform="translate(49.749 52.26) rotate(-165.162)" fill="#a1a1a1"/>
        <rect id="Rectangle_885" data-name="Rectangle 885" width="18.206" height="40.426" transform="translate(49.747 52.259) rotate(-165.162)" fill="#7a7a7a"/>
        <rect id="Rectangle_886" data-name="Rectangle 886" width="10.993" height="5.381" transform="translate(30.875 11.006) rotate(-165.162)" fill="#585858"/>
      </g>
      <g id="Group_7152" data-name="Group 7152" transform="translate(0.682 127.318)">
        <rect id="Rectangle_887" data-name="Rectangle 887" width="37.227" height="32.781" transform="translate(35.987 41.223) rotate(-165.162)" fill="#828282"/>
        <rect id="Rectangle_888" data-name="Rectangle 888" width="13.171" height="32.781" transform="translate(35.982 41.224) rotate(-165.162)" fill="#434343" opacity="0.5"/>
        <rect id="Rectangle_889" data-name="Rectangle 889" width="7.952" height="4.364" transform="translate(23.123 8.415) rotate(-165.162)" fill="#e8e8e8"/>
      </g>
      <path id="Path_9933" data-name="Path 9933" d="M1669.929,1098.72s-3.769-2.883-4.912-2.86a9.532,9.532,0,0,0-3.18.445c-.371.252-2.719,4.774-2.061,5.419.4.391,2.368-3.3,2.368-3.3s-2.255,3.81-1.207,4.057c.582.136,2.564-3.694,2.564-3.694s-1.716,3.171-1.509,3.287c.562.316,1.639-.659,2.7-1.786.657-.694,3.355-.334,3.355-.334Z" transform="translate(-1564.211 -1044.328)" fill="#f48c7f"/>
      <path id="Path_9934" data-name="Path 9934" d="M1126.031,1696.69l-.961,4.415,60.674,15.958,1.032-4.639Z" transform="translate(-1125.07 -1537.883)" fill="#6b6b6b"/>
      <path id="Path_9935" data-name="Path 9935" d="M1438.82,1273.874l-3.46-.9,26.5-96.063,39.876-22.117a1.787,1.787,0,0,1,1.734,3.126l-38.565,21.388Z" transform="translate(-1379.958 -1092.558)" fill="#6b6b6b"/>
      <g id="Group_7153" data-name="Group 7153" transform="translate(45.431 156.136)">
        <path id="Path_9936" data-name="Path 9936" d="M1405.227,1694.589a12.854,12.854,0,1,1-12.854-12.859A12.857,12.857,0,0,1,1405.227,1694.589Z" transform="translate(-1379.52 -1681.73)" fill="#b4b4b4"/>
        <path id="Path_9937" data-name="Path 9937" d="M1419.3,1712.12a8.943,8.943,0,1,1-8.465-8.465A8.946,8.946,0,0,1,1419.3,1712.12Z" transform="translate(-1397.513 -1699.731)" fill="#9e9da2"/>
        <path id="Path_9938" data-name="Path 9938" d="M1429.959,1725.833a5.981,5.981,0,1,1-5.578-5.58A5.984,5.984,0,0,1,1429.959,1725.833Z" transform="translate(-1411.139 -1713.365)" fill="#d8d9dd"/>
      </g>
      <path id="Path_9939" data-name="Path 9939" d="M1932.168,918.5l-4.988-.4a2.215,2.215,0,0,0,2.156,2.175C1932.006,920.566,1932.168,918.5,1932.168,918.5Z" transform="translate(-1783.966 -898.307)" fill="#fff"/>
    </g>
    <g id="Group_7078" data-name="Group 7078" transform="translate(111.648 143.013)">
      <rect id="Rectangle_814" data-name="Rectangle 814" width="2.024" height="46.367" transform="translate(17.276 123.829) rotate(10.737)" fill="#d6d6d6"/>
      <path id="Path_9660" data-name="Path 9660" d="M1330.128,1796.248h2.392l-8.915-46.147-1.985.378Z" transform="translate(-1227.521 -1626.282)" fill="#d6d6d6"/>
      <path id="Path_9661" data-name="Path 9661" d="M1549.888,1796.248h2.389l-8.911-46.147-1.986.378Z" transform="translate(-1517.093 -1626.282)" fill="#d6d6d6"/>
      <path id="Path_9662" data-name="Path 9662" d="M1372.641,1796.692l-1.941.025,8.546-45.966,1.985.378Z" transform="translate(-1291.824 -1626.725)" fill="#184655"/>
      <path id="Path_9663" data-name="Path 9663" d="M1355.673,1434.72c-10.614,1.137-24.35,2.335-38.141,25.739-15.072,25.577-7.139,63.782,4.759,74.4s50.747,23.725,83.409,4.1c0,0,19.722-11.894,9.6-31.632-15.573-30.374-13.375-36.709-20.338-48.612S1378.2,1432.309,1355.673,1434.72Z" transform="translate(-1309.265 -1410.913)" fill="#9f9f9f"/>
      <path id="Path_9664" data-name="Path 9664" d="M1337.706,1464.918c9.414-15.973,18.8-21.6,27.185-23.928a70.172,70.172,0,0,0-9.823,13.263c-15.071,25.578-7.139,63.782,4.758,74.4,10.551,9.416,42.3,20.786,72.128,9.553a30.364,30.364,0,0,1-6.08,5.214c-32.662,19.623-71.512,6.515-83.409-4.1S1322.635,1490.5,1337.706,1464.918Z" transform="translate(-1329.44 -1415.372)" fill="#777"/>
      <path id="Path_9665" data-name="Path 9665" d="M1395.778,1557.66l2.729,8.187-8.317-3.272Z" transform="translate(-1315.292 -1494.977)" fill="#f79c8d"/>
      <path id="Path_9666" data-name="Path 9666" d="M1395.562,1480.99c.556.022,2.075.531,4.3,4.711,2.837,5.343,6.982,21.482,6.982,21.482l-12.374,4.594-1.589-3.368-2.618-25.933S1395.407,1480.983,1395.562,1480.99Z" transform="translate(-1323.648 -1442.664)" fill="#8b8b8b"/>
      <path id="Path_9667" data-name="Path 9667" d="M1445.234,1473.67c3.539,0,12.294,1.032,16.357,2.329,0,0,2.986,25.571-2.687,45-1.271,4.35,1.052,18.032,1.052,18.032l-36.668-.483s4.343-33.074,2.707-38.418-1.674-23.96-1.674-23.96.251-.038,8.237-1.414A83.479,83.479,0,0,1,1445.234,1473.67Z" transform="translate(-1389.677 -1437.67)" fill="#818181"/>
      <path id="Path_9668" data-name="Path 9668" d="M1491.855,1828.8s.81,9.331,2.3,11.913-.08,6.976-.156,7.58-3.138,1.465-8.005.947-4.788-1.636-4.4-3.443,2.984-4.134,3.139-5.858-1.49-7.923-1.49-7.923Z" transform="translate(-1440.571 -1679.979)" fill="#f7a491"/>
      <path id="Path_9669" data-name="Path 9669" d="M1372.485,1653.94s25.31-1.4,30.962,2.011-1.023,10.417-1.023,10.417-20.605,8.93-55.1,10.913c-8.167.47-8.873-21.228-7.345-23.023S1372.485,1653.94,1372.485,1653.94Z" transform="translate(-1306.346 -1560.279)" fill="#8e8e8e"/>
      <path id="Path_9670" data-name="Path 9670" d="M1484.028,1876.769c-5.013-.531-4.39-2.986-3.987-4.848.254-1.166,1.69-2.542,2.548-3.841a8.316,8.316,0,0,0,3.351,1.624c2.259.664,5.359-.651,7.332-1.478a24.045,24.045,0,0,1,.67,6.443C1493.863,1875.292,1489.038,1877.3,1484.028,1876.769Z" transform="translate(-1439.212 -1706.781)" fill="#3a3a3a"/>
      <path id="Path_9671" data-name="Path 9671" d="M1502.594,1672.517c1.01,7.628,6.017,45.592,6.017,45.592l-11.618,1.436s-14.286-49.553-13.555-57.133,6.081-8.218,6.081-8.218S1499.916,1652.332,1502.594,1672.517Z" transform="translate(-1455.011 -1560.813)" fill="#d2d2d2"/>
      <path id="Path_9672" data-name="Path 9672" d="M1415.994,1490.406c3.428-1.28,5.106,29.5,5.569,42.173,6.071.581,16.653,0,19.287-.194,1.239-.092,4.095-1.137,5.327-1.3a12.345,12.345,0,0,1,3.028-.143c.229.038,6.557,2.618,7.1,3.183.67.7,2.487,2.472,2.179,3.237s-3.491-2.132-3.491-2.132l-1.557-.87c1.938,1.887,5.633,4.371,5.1,5.273-.518.883-3.853-1.64-6.227-3.358,2.037,1.833,4.569,5.118,3.987,5.629-.524.461-3.4-3.339-6.481-4.435-1.14-.406-2.278.719-3.174.855a6.547,6.547,0,0,1-2.326.13l-3.332-.941c-1.134.1-1.162.772-2.31,1.013-1.331.283-3.513.578-5.207.991-9.759,2.376-13.013,3.479-16,3.479C1408.418,1543,1407.891,1493.434,1415.994,1490.406Z" transform="translate(-1381.751 -1449.063)" fill="#f7a491"/>
      <path id="Path_9673" data-name="Path 9673" d="M1521.3,1513.127c-.642-12.981-.55-28.977,6.751-31.706,2.881-1.077,7.958,5.4,7.046,31.969C1531.2,1513.712,1525.475,1513.968,1521.3,1513.127Z" transform="translate(-1493.561 -1442.883)" fill="#818181"/>
      <path id="Path_9674" data-name="Path 9674" d="M1354.894,1853.93s-1.013,3.241.8,5.382,9.359,4.244,10.347,5.4a3.234,3.234,0,0,1,.915,2.148l-21.17-.581.232-6.373.975-4.578Z" transform="translate(-1269.636 -1697.126)" fill="#f7a491"/>
      <path id="Path_9675" data-name="Path 9675" d="M1347.907,1873.189s-5.439,2.192-8.066.9-2.548-1.658-3.307-1.176-1.033,7-1.033,7l23.8.159c1.655-.038,2.494-1.255,1.147-2.294a19.157,19.157,0,0,0-2.6-1.538C1356,1875.169,1347.907,1873.189,1347.907,1873.189Z" transform="translate(-1260.534 -1709.936)" fill="#3a3a3a"/>
      <path id="Path_9676" data-name="Path 9676" d="M1335.529,1661.033c1.636-3.431,5.356-7.9,11.9-5.206,6.246,2.567,7.92,8.873,5.95,15.332s-14.941,44.428-15.4,49.649l-10.357.069s1.881-30.066,2.345-37.332C1330.424,1676.55,1332.7,1666.971,1335.529,1661.033Z" transform="translate(-1251.075 -1561.395)" fill="#d2d2d2"/>
      <path id="Path_9677" data-name="Path 9677" d="M1393.661,1563.91h-34.618a2.254,2.254,0,0,0-2.087,1.4l-10.658,26H1327.21a.966.966,0,0,0-.966.966h0a.965.965,0,0,0,.966.966h54.322a3.794,3.794,0,0,0,3.459-2.239l10.734-23.91A2.261,2.261,0,0,0,1393.661,1563.91Z" transform="translate(-1292.395 -1499.242)" fill="#6e6e6e"/>
      <path id="Path_9678" data-name="Path 9678" d="M1395.639,1606.156a1.905,1.905,0,1,1-1.43-2.484A2.036,2.036,0,0,1,1395.639,1606.156Z" transform="translate(-1313.011 -1526.349)" fill="#fff"/>
      <path id="Path_9679" data-name="Path 9679" d="M1460.836,1437.747l-1.693,11.164s6.185,13.292,9.88,12.139c3.1-.966,1.191-12.729,1.191-12.729s-1.69-6.315-1.182-9.476S1460.836,1437.747,1460.836,1437.747Z" transform="translate(-1409.485 -1412.708)" fill="#f7a491"/>
      <path id="Path_9680" data-name="Path 9680" d="M1472.343,1438.841c.506-3.161-8.193-1.1-8.193-1.1l-.14.925a5.15,5.15,0,0,0,.944,1.556,11.466,11.466,0,0,0,7.609,3.444A17.285,17.285,0,0,1,1472.343,1438.841Z" transform="translate(-1412.799 -1412.705)" fill="#f47458" opacity="0.2"/>
      <g id="Group_7077" data-name="Group 7077" transform="translate(42.953)">
        <path id="Path_9681" data-name="Path 9681" d="M1448.89,1381.958c-.244-.089-1.97,12.714,1.3,16.24s9.655,4.677,11.942,1.9c2.533-3.068,2.405-16.83-2.687-20.455S1448.89,1381.958,1448.89,1381.958Z" transform="translate(-1441.921 -1372.715)" fill="#f7a491"/>
        <path id="Path_9682" data-name="Path 9682" d="M1469.524,1360.43a14.132,14.132,0,0,0-7.418,4.231c-1.785.21-4.216,1.2-6.722,5.35-3.085,5.105-.807,10.76,2.782,13.536s3.54,5.979,3.54,5.979l.568-1.658a9.263,9.263,0,0,0,.452-3.9,7.6,7.6,0,0,0-.582-2.348c-.864-1.852,1.855-3.085,2.618-4.626.588-1.188.617-3.9,1.541-5.864l1.105-1.5s2.548-1.983,5.039-1.424S1474.576,1359.4,1469.524,1360.43Z" transform="translate(-1453.936 -1360.351)" fill="#4d4d4d"/>
        <path id="Path_9683" data-name="Path 9683" d="M1486.655,1413.883c.026,1.563-.683,2.839-1.585,2.855s-1.655-1.239-1.681-2.8.683-2.839,1.585-2.856S1486.629,1412.319,1486.655,1413.883Z" transform="translate(-1476 -1394.964)" fill="#f7a491"/>
      </g>
      <path id="Path_9684" data-name="Path 9684" d="M1453.941,1432.984l4.934-.254a2.159,2.159,0,0,1-2.182,2.055C1454.048,1435,1453.941,1432.984,1453.941,1432.984Z" transform="translate(-1395.912 -1409.736)" fill="#fff"/>
    </g>
  </g>
</svg>
