<svg id="Warehouse_Inventory_Management_" data-name="Warehouse/Inventory Management " xmlns="http://www.w3.org/2000/svg" xmlns:xlink="http://www.w3.org/1999/xlink" width="541.837" height="542" viewBox="0 0 541.837 542">
  <defs>
    <linearGradient id="linear-gradient" x1="-0.442" y1="-0.028" x2="-0.467" y2="-1.175" gradientUnits="objectBoundingBox">
      <stop offset="0" stop-color="#febbba"/>
      <stop offset="1" stop-color="#ff928e"/>
    </linearGradient>
    <linearGradient id="linear-gradient-2" x1="59.162" y1="-0.888" x2="57.921" y2="-0.108" xlink:href="#linear-gradient"/>
    <linearGradient id="linear-gradient-3" x1="253.959" y1="-3.859" x2="248.619" y2="-1.543" xlink:href="#linear-gradient"/>
    <linearGradient id="linear-gradient-4" x1="0.311" y1="-0.394" x2="0.746" y2="1.885" xlink:href="#linear-gradient"/>
    <linearGradient id="linear-gradient-5" x1="-0.165" y1="-3.58" x2="0.749" y2="2.625" xlink:href="#linear-gradient"/>
    <linearGradient id="linear-gradient-6" x1="-1.22" y1="1.603" x2="-0.185" y2="-1.187" xlink:href="#linear-gradient"/>
    <linearGradient id="linear-gradient-7" x1="0.848" y1="-0.083" x2="2.145" y2="-2.53" gradientUnits="objectBoundingBox">
      <stop offset="0" stop-color="#09005d"/>
      <stop offset="1" stop-color="#1a0f91"/>
    </linearGradient>
    <linearGradient id="linear-gradient-8" x1="0.367" y1="1.602" x2="1.401" y2="-1.187" xlink:href="#linear-gradient"/>
    <linearGradient id="linear-gradient-9" x1="0.075" y1="0.5" x2="1.075" y2="0.5" xlink:href="#linear-gradient-7"/>
    <linearGradient id="linear-gradient-10" x1="7.586" y1="1.129" x2="6.472" y2="1.91" xlink:href="#linear-gradient"/>
    <linearGradient id="linear-gradient-11" x1="9.029" y1="1.778" x2="9.576" y2="3.617" xlink:href="#linear-gradient"/>
    <linearGradient id="linear-gradient-12" x1="5.189" y1="1.119" x2="5.481" y2="1.661" xlink:href="#linear-gradient"/>
    <linearGradient id="linear-gradient-13" x1="159.329" y1="11.719" x2="158.186" y2="13.481" xlink:href="#linear-gradient"/>
    <linearGradient id="linear-gradient-14" x1="674.022" y1="435.931" x2="672.807" y2="437.691" gradientUnits="objectBoundingBox">
      <stop offset="0" stop-color="#8d55d1"/>
      <stop offset="0.996" stop-color="#1c2873"/>
    </linearGradient>
    <linearGradient id="linear-gradient-15" x1="129.339" y1="7.397" x2="127.788" y2="9.167" xlink:href="#linear-gradient"/>
    <linearGradient id="linear-gradient-16" x1="17.45" y1="3.36" x2="19.318" y2="1.411" xlink:href="#linear-gradient"/>
    <linearGradient id="linear-gradient-17" x1="-10.289" y1="-31.35" x2="-8.86" y2="-30.621" xlink:href="#linear-gradient"/>
    <linearGradient id="linear-gradient-18" x1="-43.091" y1="-100.505" x2="-37.047" y2="-98.196" xlink:href="#linear-gradient"/>
  </defs>
  <g id="Group_5788" data-name="Group 5788">
    <path id="Path_6801" data-name="Path 6801" d="M931.759,936.229c-11.073,11.51-21.552,18.933-29.828,24.8-97.308,68.937-212.448,48.843-236.918,43.935-36.135-7.247-105.985-21.253-156.484-79.89-76.4-88.712-64.5-228.477-5.242-320.736,10.841-16.876,68.1-110.54,184.48-125.563,70.433-9.091,152.533,9.244,211.99,58.427C1024.558,640.441,1015.674,849,931.759,936.229Z" transform="translate(-455.003 -472.281)" fill="#efefef"/>
    <g id="Group_5728" data-name="Group 5728" transform="translate(376.906)">
      <g id="Group_5726" data-name="Group 5726" transform="translate(16.376 54.686)">
        <path id="Path_6802" data-name="Path 6802" d="M2607.648,739.22a2.878,2.878,0,0,0-5.577.26c-5.6,28.382-22.625,102.347-54.553,143.4-51.985,66.845-81.871,171.093-41.292,220.671C2506.224,1103.552,2701.168,1051.569,2607.648,739.22Z" transform="translate(-2487.329 -737.171)" fill="#e6e6e6"/>
        <path id="Path_6803" data-name="Path 6803" d="M2726.035,952.667c0,.913-.07,1.666-.112,2.481l-.175,2.4-.4,4.784c-.291,3.187-.627,6.368-.966,9.55q-1.051,9.538-2.314,19.053c-1.7,12.683-3.737,25.319-5.968,37.921-2.212,12.607-4.778,25.151-7.607,37.636s-5.86,24.928-9.285,37.271a614.365,614.365,0,0,1-24.794,72.7c-5.043,11.781-10.4,23.437-16.416,34.755A332.489,332.489,0,0,1,2637.965,1244a.5.5,0,0,1-.838-.561l0-.006a372.074,372.074,0,0,0,19.012-33.176c5.8-11.353,10.939-23.032,15.766-34.828s9.165-23.8,13.234-35.879,7.63-24.338,11.125-36.6c6.885-24.57,12.457-49.5,17.339-74.555q3.623-18.8,6.514-37.741,1.469-9.463,2.742-18.956l1.19-9.5.546-4.755.246-2.378c.068-.78.155-1.618.185-2.3l.006-.112a.5.5,0,0,1,1,.023Z" transform="translate(-2608.075 -910.562)" fill="#b9b9b9" opacity="0.43"/>
      </g>
      <g id="Group_5727" data-name="Group 5727">
        <path id="Path_6804" data-name="Path 6804" d="M2438.2,455.823a2.754,2.754,0,0,0-5.045,1.759c2.6,27.558,7.172,100.031-10.909,146.389-29.437,75.482-28.406,179.235,22.332,213.631C2444.584,817.6,2609.177,716.75,2438.2,455.823Z" transform="translate(-2402.706 -454.574)" fill="#e6e6e6"/>
        <path id="Path_6805" data-name="Path 6805" d="M2622.12,652.706c.252.838.391,1.548.575,2.307l.493,2.245.939,4.5c.605,3,1.163,6.01,1.72,9.02q1.643,9.033,3.079,18.1c1.906,12.094,3.483,24.239,4.879,36.4,1.412,12.164,2.483,24.369,3.294,36.591s1.427,24.46,1.654,36.713a587.613,587.613,0,0,1-2.906,73.44c-1.413,12.18-3.145,24.328-5.579,36.352a317.564,317.564,0,0,1-9.437,35.525.492.492,0,0,1-.938-.292V943.6a355.681,355.681,0,0,0,8.375-35.61c2.222-11.994,3.745-24.106,4.95-36.237s1.909-24.321,2.347-36.512.356-24.4.214-36.6c-.387-24.41-2.08-48.789-4.433-73.1q-1.806-18.229-4.317-36.386-1.234-9.08-2.651-18.132l-1.5-9.037-.8-4.509-.422-2.249c-.151-.733-.3-1.527-.457-2.162l-.027-.106a.488.488,0,0,1,.942-.255Z" transform="translate(-2577.847 -614.084)" fill="#b9b9b9" opacity="0.43"/>
      </g>
    </g>
    <g id="Group_5737" data-name="Group 5737" transform="translate(2.415 2.252)">
      <g id="Group_5732" data-name="Group 5732" transform="translate(0 34.915)">
        <g id="Group_5729" data-name="Group 5729" transform="translate(43.925 57.092)" opacity="0.3">
          <path id="Path_6806" data-name="Path 6806" d="M858.819,941.694a1.987,1.987,0,0,1,2.233,1.444c.587,2.167,1.089,4.393,1.49,6.614a1.988,1.988,0,0,1-1.6,2.311l-.039.006a1.987,1.987,0,0,1-2.272-1.608c-.381-2.111-.859-4.224-1.417-6.283a1.988,1.988,0,0,1,1.606-2.483Zm2.634,17.12a1.891,1.891,0,0,1,.234-.023,1.988,1.988,0,0,1,2.071,1.9c.095,2.253.095,4.534,0,6.775a1.988,1.988,0,0,1-3.973-.169c.091-2.132.091-4.3,0-6.438A1.99,1.99,0,0,1,861.453,958.814Zm-1.2,17.273a1.989,1.989,0,0,1,2.272,2.324c-.408,2.214-.917,4.437-1.513,6.608a1.989,1.989,0,0,1-3.836-1.053c.567-2.063,1.051-4.172,1.438-6.276A1.993,1.993,0,0,1,860.251,976.087Zm-5.033,16.574a1.988,1.988,0,0,1,2.14,2.752c-.894,2.067-1.887,4.122-2.953,6.105a1.988,1.988,0,1,1-3.5-1.881c1.012-1.883,1.956-3.833,2.8-5.8A1.989,1.989,0,0,1,855.218,992.661Zm-8.6,15.036a1.989,1.989,0,0,1,1.922,3.137c-1.326,1.813-2.75,3.6-4.228,5.3a1.988,1.988,0,1,1-3-2.61c1.407-1.616,2.759-3.311,4.019-5.033A1.969,1.969,0,0,1,846.614,1007.7ZM834.9,1020.454a1.988,1.988,0,0,1,1.626,3.462c-1.7,1.478-3.479,2.9-5.3,4.23a1.988,1.988,0,1,1-2.347-3.21c1.726-1.264,3.419-2.615,5.031-4.019A1.992,1.992,0,0,1,834.9,1020.454Zm-71.168,16.286a2,2,0,0,1,.84.044c2.061.563,4.174,1.043,6.28,1.426a1.989,1.989,0,0,1-.714,3.913c-2.218-.4-4.445-.91-6.614-1.5a1.988,1.988,0,0,1,.209-3.882Zm56.928-6.448a1.988,1.988,0,0,1,1.256,3.715c-1.984,1.064-4.037,2.053-6.105,2.943a1.989,1.989,0,0,1-1.572-3.654c1.964-.844,3.913-1.784,5.8-2.794A1.961,1.961,0,0,1,820.658,1030.292Zm-39.811,9.1a2.1,2.1,0,0,1,.4-.025c2.136.087,4.3.083,6.442-.012a1.988,1.988,0,1,1,.176,3.973c-2.25.1-4.532.1-6.779.014a1.989,1.989,0,0,1-.238-3.95Zm23.729-2.686a1.988,1.988,0,0,1,.838,3.882c-2.169.592-4.393,1.1-6.609,1.5a.281.281,0,0,1-.043.008,1.988,1.988,0,0,1-.673-3.919c2.105-.385,4.217-.867,6.277-1.428A1.636,1.636,0,0,1,804.575,1036.7Z" transform="translate(-748.977 -941.668)" fill="#888"/>
          <path id="Path_6807" data-name="Path 6807" d="M696.144,1407.635a1.981,1.981,0,0,1,1.175.17c.923.443,1.873.875,2.819,1.285a1.988,1.988,0,1,1-1.573,3.652c-1-.429-1.993-.882-2.967-1.351a1.988,1.988,0,0,1,.546-3.756Z" transform="translate(-694.47 -1317.444)" fill="#bdd0fb"/>
        </g>
        <g id="Group_5730" data-name="Group 5730" opacity="0.3">
          <path id="Path_6808" data-name="Path 6808" d="M489.113,1172.564a1.987,1.987,0,0,1,2.2,1.339c.321.974.668,1.956,1.031,2.922a1.989,1.989,0,0,1-3.721,1.4c-.383-1.016-.749-2.051-1.086-3.075a1.989,1.989,0,0,1,1.266-2.512A1.836,1.836,0,0,1,489.113,1172.564Z" transform="translate(-483.577 -1070.771)" fill="#bdd0fb"/>
          <path id="Path_6809" data-name="Path 6809" d="M534.111,647.665q1.356-.218,2.727-.393a1.989,1.989,0,0,1,.5,3.946c-2.111.269-4.207.621-6.25,1.057a1.989,1.989,0,0,1-.824-3.892C531.528,648.115,532.823,647.874,534.111,647.665Zm13.207-1a1.961,1.961,0,0,1,.339-.025c2.218.019,4.461.136,6.663.341a1.987,1.987,0,1,1-.372,3.957c-2.092-.2-4.222-.3-6.33-.323a1.988,1.988,0,0,1-.3-3.95Zm-27.115,4.6a1.988,1.988,0,0,1,.989,3.834c-1.976.712-3.948,1.519-5.862,2.4a1.988,1.988,0,1,1-1.66-3.613c2.016-.927,4.093-1.777,6.173-2.527A2.054,2.054,0,0,1,520.2,651.26Zm44.042-2.562a1.961,1.961,0,0,1,.77.029c2.158.507,4.319,1.113,6.425,1.8a1.988,1.988,0,0,1-1.233,3.779c-2-.652-4.052-1.227-6.1-1.707a1.989,1.989,0,0,1,.139-3.9Zm-59.325,10.08a1.989,1.989,0,0,1,1.387,3.64c-1.771,1.128-3.516,2.351-5.192,3.628a1.988,1.988,0,0,1-2.413-3.16c1.763-1.347,3.6-2.632,5.465-3.822A2.013,2.013,0,0,1,504.92,658.778Zm-13.267,10.69a1.987,1.987,0,0,1,1.728,3.363c-1.484,1.494-2.924,3.067-4.277,4.677a1.988,1.988,0,1,1-3.044-2.558c1.424-1.693,2.938-3.35,4.5-4.921A1.99,1.99,0,0,1,491.653,669.468ZM481.035,682.8a1.967,1.967,0,0,1,1.378.283,1.987,1.987,0,0,1,.619,2.742c-1.124,1.782-2.187,3.63-3.156,5.5a1.989,1.989,0,0,1-3.53-1.835c1.02-1.962,2.138-3.909,3.323-5.784A1.98,1.98,0,0,1,481.035,682.8Zm-7.46,15.326a1.988,1.988,0,0,1,2.187,2.632c-.708,1.984-1.339,4.021-1.875,6.053a1.987,1.987,0,1,1-3.843-1.014c.565-2.142,1.229-4.286,1.974-6.374A1.985,1.985,0,0,1,473.575,698.123Zm-3.915,16.6a1.994,1.994,0,0,1,2.293,2.2c-.252,2.086-.418,4.211-.493,6.314a1.989,1.989,0,1,1-3.975-.143c.079-2.216.255-4.453.521-6.647A1.984,1.984,0,0,1,469.66,714.719Zm-.172,17.039c.041-.006.081-.012.122-.015a1.988,1.988,0,0,1,2.175,1.782c.153,1.542.356,3.1.6,4.625.089.553.186,1.1.286,1.651a1.987,1.987,0,0,1-1.6,2.315,1.966,1.966,0,0,1-2.315-1.595q-.16-.865-.3-1.738c-.259-1.606-.472-3.243-.633-4.865A1.985,1.985,0,0,1,469.488,731.758Z" transform="translate(-467.483 -646.639)" fill="#676767"/>
          <path id="Path_6810" data-name="Path 6810" d="M1043.758,686.792a1.969,1.969,0,0,1,1.184.174c.968.47,1.945.971,2.9,1.486a1.989,1.989,0,1,1-1.885,3.5c-.91-.49-1.837-.964-2.756-1.411a1.989,1.989,0,0,1,.553-3.752Z" transform="translate(-930.892 -679)" fill="#bdd0fb"/>
        </g>
        <g id="Group_5731" data-name="Group 5731" transform="translate(19.552 20.165)">
          <path id="Path_6811" data-name="Path 6811" d="M662.863,761.663a.927.927,0,0,0-1.072-.114l-9.857,5.546a49.246,49.246,0,0,0-15.081-5.231l-4.309-10.448a.93.93,0,0,0-.913-.573l-13.542.8a.928.928,0,0,0-.84.677L614.2,763.2a49.236,49.236,0,0,0-14.357,6.974L589.4,765.835a.927.927,0,0,0-1.051.24l-9.01,10.142a.927.927,0,0,0-.114,1.072l5.546,9.858a49.289,49.289,0,0,0-5.231,15.08l-10.448,4.31a.93.93,0,0,0-.573.913l.8,13.542a.93.93,0,0,0,.677.84l10.883,3.046a49.238,49.238,0,0,0,6.974,14.357l-4.344,10.442a.927.927,0,0,0,.24,1.051l10.142,9.008a.93.93,0,0,0,1.072.116l9.858-5.546a49.189,49.189,0,0,0,15.081,5.231l4.31,10.45a.93.93,0,0,0,.913.573l13.542-.8a.928.928,0,0,0,.84-.677l3.046-10.883a49.232,49.232,0,0,0,14.357-6.974l10.442,4.344a.927.927,0,0,0,1.051-.24l9.008-10.142a.93.93,0,0,0,.116-1.072l-5.546-9.858a49.287,49.287,0,0,0,5.231-15.08l10.45-4.309a.93.93,0,0,0,.573-.913l-.8-13.542a.928.928,0,0,0-.677-.84l-10.883-3.046a49.233,49.233,0,0,0-6.974-14.357l4.344-10.442a.927.927,0,0,0-.24-1.051Z" transform="translate(-568.522 -750.842)" fill="#d2d2d2"/>
          <path id="Path_6812" data-name="Path 6812" d="M818.835,989.859a13.638,13.638,0,1,1-1.949.463A14.164,14.164,0,0,1,818.835,989.859Zm3.81,23.791a10.624,10.624,0,0,0,1.509-.358,10.429,10.429,0,1,0-1.509.358Z" transform="translate(-761.143 -943.467)" fill="#fff"/>
          <path id="Path_6813" data-name="Path 6813" d="M731.78,888.523q1.689-.273,3.425-.377h0q.546-.032,1.091-.047a33.734,33.734,0,0,1,5.362.282l.072.01.205.029c.133.019.267.039.4.06a.8.8,0,0,1,.664.658.769.769,0,0,1,0,.25.8.8,0,0,1-.908.664,31.981,31.981,0,0,0-32.824,16.069,31.749,31.749,0,0,0-3.967,17.385,32.551,32.551,0,0,0,.36,3.267,31.941,31.941,0,1,0,57.918-23.146.8.8,0,0,1,1.314-.9,33.4,33.4,0,0,1,5.387,13.521q.27,1.678.374,3.385a33.532,33.532,0,0,1-66.565,7.392c-.182-1.128-.308-2.274-.377-3.429a33.537,33.537,0,0,1,28.069-35.076Z" transform="translate(-677.502 -861.528)" fill="#fff"/>
        </g>
      </g>
      <g id="Group_5736" data-name="Group 5736" transform="translate(115.173)">
        <g id="Group_5733" data-name="Group 5733" transform="translate(48.585 29.48)" opacity="0.3">
          <path id="Path_6814" data-name="Path 6814" d="M1560.753,618.564a1.226,1.226,0,0,1,1.3.683c.449.94.877,1.908,1.269,2.874a1.228,1.228,0,1,1-2.276.925c-.374-.921-.782-1.842-1.209-2.74a1.228,1.228,0,0,1,.579-1.637A1.244,1.244,0,0,1,1560.753,618.564Z" transform="translate(-1512.115 -618.549)" fill="#bdd0fb"/>
          <path id="Path_6815" data-name="Path 6815" d="M1365.627,664.355a1.227,1.227,0,0,1,1.38.894,53.085,53.085,0,0,1,1.13,5.283c.06.373.116.747.17,1.124a1.272,1.272,0,0,1-1.047,1.388,1.23,1.23,0,0,1-1.388-1.045q-.075-.54-.161-1.074a51.492,51.492,0,0,0-1.078-5.039,1.227,1.227,0,0,1,.869-1.5C1365.546,664.37,1365.586,664.363,1365.627,664.355Zm1.767,12.629a1.06,1.06,0,0,1,.176-.016,1.228,1.228,0,0,1,1.25,1.208,53.333,53.333,0,0,1-.288,6.529,1.228,1.228,0,0,1-2.442-.259,50.7,50.7,0,0,0,.275-6.229A1.224,1.224,0,0,1,1367.394,676.984Zm-1.351,12.677a1.2,1.2,0,0,1,.476.017,1.23,1.23,0,0,1,.916,1.476,52.91,52.91,0,0,1-1.887,6.262,1.228,1.228,0,0,1-2.3-.851,50.269,50.269,0,0,0,1.8-5.972A1.236,1.236,0,0,1,1366.043,689.661Zm-4.425,11.959a1.217,1.217,0,0,1,.759.122,1.23,1.23,0,0,1,.526,1.656,53.389,53.389,0,0,1-3.359,5.608,1.227,1.227,0,1,1-2.024-1.389,50.879,50.879,0,0,0,3.2-5.349A1.224,1.224,0,0,1,1361.617,701.62Zm-7.21,10.515a1.228,1.228,0,0,1,1.116,2.026,53.647,53.647,0,0,1-4.619,4.621,1.228,1.228,0,1,1-1.629-1.838,51.246,51.246,0,0,0,4.406-4.41A1.239,1.239,0,0,1,1354.407,712.135Zm-9.544,8.445a1.229,1.229,0,0,1,.892,2.225,53.01,53.01,0,0,1-5.606,3.356,1.228,1.228,0,0,1-1.128-2.181,50.262,50.262,0,0,0,5.345-3.2A1.19,1.19,0,0,1,1344.863,720.58Zm-11.316,5.854a1.228,1.228,0,0,1,.619,2.365,53.486,53.486,0,0,1-6.26,1.879,1.228,1.228,0,0,1-.561-2.392,50.651,50.651,0,0,0,5.972-1.79A1.282,1.282,0,0,1,1333.547,726.434Zm-18.8,3.193a1.148,1.148,0,0,1,.217-.016,50.362,50.362,0,0,0,5.418-.207c.273-.023.542-.05.809-.079a1.228,1.228,0,0,1,.265,2.442c-.284.031-.571.06-.857.083a53.091,53.091,0,0,1-5.676.215,1.227,1.227,0,0,1-.176-2.438Z" transform="translate(-1313.719 -655.478)" fill="#bdd0fb"/>
        </g>
        <g id="Group_5734" data-name="Group 5734" opacity="0.3">
          <path id="Path_6816" data-name="Path 6816" d="M1104.141,467.007a1.227,1.227,0,0,1,.406,2.421,50.9,50.9,0,0,0-5.964,1.418,1.227,1.227,0,1,1-.712-2.349,53.335,53.335,0,0,1,6.254-1.486Zm6.243-.708a1,1,0,0,1,.133-.013,53.6,53.6,0,0,1,6.43.045,1.228,1.228,0,1,1-.163,2.45,51.107,51.107,0,0,0-6.136-.043,1.228,1.228,0,0,1-.265-2.438Zm-18.242,4.346a1.228,1.228,0,0,1,.693,2.336,50.713,50.713,0,0,0-5.447,2.821,1.228,1.228,0,0,1-1.26-2.109,53.068,53.068,0,0,1,5.71-2.955A1.14,1.14,0,0,1,1092.141,470.645Zm30.759-3.5a1.27,1.27,0,0,1,.428.006,52.727,52.727,0,0,1,6.233,1.6,1.228,1.228,0,1,1-.755,2.338,50.666,50.666,0,0,0-5.943-1.523,1.227,1.227,0,0,1,.037-2.417Zm-41.522,9.927a1.228,1.228,0,0,1,.95,2.183,50.255,50.255,0,0,0-4.608,4.046,1.229,1.229,0,1,1-1.73-1.745,53.2,53.2,0,0,1,4.832-4.242A1.2,1.2,0,0,1,1081.378,477.075Zm-8.906,8.824a1.228,1.228,0,0,1,1.159,1.974,50.991,50.991,0,0,0-3.508,5.031,1.227,1.227,0,1,1-2.094-1.279,53.678,53.678,0,0,1,3.677-5.275A1.214,1.214,0,0,1,1072.473,485.9Zm-6.537,10.705a1.229,1.229,0,0,1,1.314,1.722,50.2,50.2,0,0,0-2.2,5.726,1.228,1.228,0,0,1-2.342-.739,53.145,53.145,0,0,1,2.3-6.007A1.228,1.228,0,0,1,1065.936,496.6Z" transform="translate(-1062.652 -466.209)" fill="#fff"/>
          <path id="Path_6817" data-name="Path 6817" d="M1431.65,491a1.236,1.236,0,0,1,.712.1c.954.443,1.9.915,2.808,1.4a1.229,1.229,0,1,1-1.165,2.163c-.866-.466-1.768-.919-2.678-1.341a1.228,1.228,0,0,1,.323-2.326Z" transform="translate(-1359.41 -486.188)" fill="#bdd0fb"/>
        </g>
        <g id="Group_5735" data-name="Group 5735" transform="translate(10.63 13.39)">
          <path id="Path_6818" data-name="Path 6818" d="M1180.715,542.647a.622.622,0,0,0-.718-.077l-6.595,3.711a33,33,0,0,0-10.09-3.5l-2.883-6.992a.62.62,0,0,0-.612-.383l-9.062.536a.62.62,0,0,0-.561.453l-2.039,7.284a33.043,33.043,0,0,0-9.608,4.666l-6.988-2.906a.623.623,0,0,0-.7.161l-6.028,6.786a.624.624,0,0,0-.077.718l3.712,6.595a32.952,32.952,0,0,0-3.5,10.092l-6.991,2.883a.62.62,0,0,0-.383.612l.536,9.062a.618.618,0,0,0,.453.561l7.284,2.04a32.959,32.959,0,0,0,4.666,9.608l-2.907,6.988a.623.623,0,0,0,.161.7l6.786,6.028a.623.623,0,0,0,.718.077l6.595-3.712a32.951,32.951,0,0,0,10.09,3.5l2.883,6.992a.62.62,0,0,0,.612.383l9.062-.536a.62.62,0,0,0,.561-.453l2.04-7.284a33.008,33.008,0,0,0,9.608-4.666l6.988,2.907a.623.623,0,0,0,.7-.161l6.028-6.787a.623.623,0,0,0,.077-.718l-3.71-6.595a32.939,32.939,0,0,0,3.5-10.092l6.992-2.883a.62.62,0,0,0,.383-.611l-.536-9.062a.62.62,0,0,0-.453-.561l-7.284-2.04a32.984,32.984,0,0,0-4.666-9.608l2.906-6.988a.623.623,0,0,0-.161-.7Z" transform="translate(-1117.584 -535.404)" fill="#d2d2d2"/>
          <path id="Path_6819" data-name="Path 6819" d="M1284.39,694.5a9.3,9.3,0,1,1-1.337.317A9.229,9.229,0,0,1,1284.39,694.5Zm2.547,15.92a6.833,6.833,0,1,0-3.146-13.261h0a6.833,6.833,0,0,0,3.146,13.261Z" transform="translate(-1245.797 -663.615)" fill="#bdd0fb" opacity="0.56"/>
          <path id="Path_6820" data-name="Path 6820" d="M1223.85,623.957q1.149-.186,2.338-.257a23.385,23.385,0,0,1,4.71.2l.209.031a1.229,1.229,0,0,1,1.026,1.016,1.232,1.232,0,0,1-1.4,1.411,20.737,20.737,0,0,0-4.4-.205h0c-.081,0-.162.01-.242.016a20.481,20.481,0,0,0-9.621,3.158,20.7,20.7,0,0,0-4.249,3.6l-.031.035-.093.1a20.55,20.55,0,0,0-5.182,14.953,21.257,21.257,0,0,0,.232,2.115,20.678,20.678,0,0,0,41.048-4.559,20.21,20.21,0,0,0-.231-2.088,20.611,20.611,0,0,0-3.322-8.337,1.228,1.228,0,0,1,2.028-1.385,23.051,23.051,0,0,1,3.718,9.327q.186,1.158.257,2.336a23.134,23.134,0,0,1-45.925,5.1q-.188-1.167-.261-2.365A23.167,23.167,0,0,1,1223.85,623.957Z" transform="translate(-1187.616 -606.581)" fill="#fff"/>
        </g>
      </g>
    </g>
    <g id="Group_5738" data-name="Group 5738" transform="translate(0.648 137.02)">
      <path id="Path_6821" data-name="Path 6821" d="M1550.858,2577.16l-10.908,97.829H1666.5l-16.484-97.829Z" transform="translate(-1330.646 -2303.431)" fill="#ccc"/>
      <path id="Path_6822" data-name="Path 6822" d="M458.35,1188.346V1418.9a34.973,34.973,0,0,0,34.074,34.964c84.209,2.171,378.73,7.437,458.893,6.254a25.736,25.736,0,0,0,25.337-25c1.546-53.56,4.056-182.355-5.235-242.15a26.481,26.481,0,0,0-25.321-22.414c-70.557-2.257-382.769-9.424-462.893-7.625A25.424,25.424,0,0,0,458.35,1188.346Z" transform="translate(-458.35 -1162.638)" fill="#d1d1d1"/>
      <path id="Path_6823" data-name="Path 6823" d="M533.1,1224.57v219.041a20.265,20.265,0,0,0,19.961,20.263l447.005,5.523a19.722,19.722,0,0,0,20.017-19.645l.747-217.083a14.424,14.424,0,0,0-14.072-14.473l-457.65-9.246A15.625,15.625,0,0,0,533.1,1224.57Z" transform="translate(-518.635 -1199.984)" fill="#fff"/>
      <path id="Path_6824" data-name="Path 6824" d="M1020.456,2560.941h-.012L530.1,2552.587a.719.719,0,0,1,.023-1.437l490.348,8.354a.719.719,0,0,1-.011,1.438Z" transform="translate(-515.643 -2282.455)" fill="#b2b2b2"/>
      <path id="Path_6825" data-name="Path 6825" d="M1529.567,3071.856H1344.347c-5.031,0-8.811-3.582-7.837-7.429l2.377-9.4c.714-2.827,3.824-4.9,7.518-5.018l178.557-5.571c3.859-.12,7.276,1.928,8.115,4.865l4.285,14.97C1538.476,3068.164,1534.679,3071.856,1529.567,3071.856Z" transform="translate(-1166.451 -2680.282)" fill="#b9b9b9"/>
    </g>
    <g id="Group_5742" data-name="Group 5742" transform="translate(86.155 330.008)">
      <path id="Path_6826" data-name="Path 6826" d="M982.606,2307.82l-80.023-.127a2.276,2.276,0,0,1-2.363-2.169v-5.091a2.256,2.256,0,0,1,2.363-2.152l80.023.449a2.161,2.161,0,0,1,2.2,2.1v4.908A2.144,2.144,0,0,1,982.606,2307.82Z" transform="translate(-900.22 -2271.507)" fill="#fff"/>
      <path id="Path_6827" data-name="Path 6827" d="M928.46,2356.83l6.879,25.23a3.8,3.8,0,0,0,3.781,2.678l53.272-.6a3.728,3.728,0,0,0,3.6-2.692l6.489-24.564Zm19.748,23.752a1.915,1.915,0,0,1-1.96,1.833l-1.87.019a1.872,1.872,0,0,1-1.966-1.8v-19.554a1.9,1.9,0,0,1,1.966-1.817h1.87a1.89,1.89,0,0,1,1.96,1.811Zm10.4-.1a1.9,1.9,0,0,1-1.943,1.825l-1.854.019a1.859,1.859,0,0,1-1.949-1.788v-19.468a1.884,1.884,0,0,1,1.949-1.809h1.854a1.878,1.878,0,0,1,1.943,1.8Zm10.3-.1a1.889,1.889,0,0,1-1.925,1.817l-1.836.019a1.846,1.846,0,0,1-1.931-1.781v-19.38a1.87,1.87,0,0,1,1.931-1.8h1.836a1.864,1.864,0,0,1,1.925,1.8Zm10.212-.1a1.873,1.873,0,0,1-1.908,1.807l-1.821.02a1.834,1.834,0,0,1-1.914-1.772v-19.294a1.857,1.857,0,0,1,1.914-1.793h1.821a1.851,1.851,0,0,1,1.908,1.788Zm10.121-.095a1.859,1.859,0,0,1-1.891,1.8l-1.8.02a1.82,1.82,0,0,1-1.9-1.765v-19.208a1.846,1.846,0,0,1,1.9-1.786h1.8a1.837,1.837,0,0,1,1.891,1.78Z" transform="translate(-922.995 -2318.727)" fill="#fff"/>
      <g id="Group_5741" data-name="Group 5741" transform="translate(9.611)">
        <g id="Group_5739" data-name="Group 5739">
          <path id="Path_6828" data-name="Path 6828" d="M954.729,2265.643a3.105,3.105,0,0,1-4.124-.288,2.54,2.54,0,0,1,.284-3.8,3.1,3.1,0,0,1,4.122.3A2.54,2.54,0,0,1,954.729,2265.643Z" transform="translate(-949.884 -2241.37)" fill="#fff"/>
          <path id="Path_6829" data-name="Path 6829" d="M991.685,2160.228a1.411,1.411,0,0,0-1.852.106l-25.339,20.121c-.636.505-.818,1.27-.408,1.705a1.456,1.456,0,0,0,1.892-.124l25.306-20.125C991.908,2161.416,992.086,2160.663,991.685,2160.228Z" transform="translate(-961.161 -2159.929)" fill="#fff"/>
        </g>
        <g id="Group_5740" data-name="Group 5740" transform="translate(36.173 0.127)">
          <path id="Path_6830" data-name="Path 6830" d="M1263.094,2268.21a2.881,2.881,0,0,0,3.913-.228,2.524,2.524,0,0,0-.269-3.7,2.884,2.884,0,0,0-3.913.221A2.524,2.524,0,0,0,1263.094,2268.21Z" transform="translate(-1237.888 -2243.687)" fill="#fff"/>
          <path id="Path_6831" data-name="Path 6831" d="M1137.028,2160.858a1.409,1.409,0,0,1,1.841.168l24.587,20.453c.6.5.778,1.249.387,1.668a1.364,1.364,0,0,1-1.8-.149l-24.619-20.448C1136.805,2162.037,1136.627,2161.278,1137.028,2160.858Z" transform="translate(-1136.814 -2160.586)" fill="#fff"/>
        </g>
      </g>
    </g>
    <g id="Group_5752" data-name="Group 5752" transform="translate(394.125 173.952)">
      <circle id="Ellipse_298" data-name="Ellipse 298" cx="41.282" cy="41.282" r="41.282" fill="#e1e1e1"/>
      <g id="Group_5751" data-name="Group 5751" transform="translate(12.763 15.081)">
        <path id="Path_6832" data-name="Path 6832" d="M2586.458,1484.909q-.688,0-1.377-.031c-15.76-.695-28.055-13.242-27.412-27.97a25.709,25.709,0,0,1,9.249-18.566,29.483,29.483,0,0,1,20.5-6.887c15.76.695,28.056,13.242,27.412,27.97v0a25.708,25.708,0,0,1-9.249,18.565A29.371,29.371,0,0,1,2586.458,1484.909Zm-.416-49.715a25.593,25.593,0,0,0-16.679,6.018,21.975,21.975,0,0,0-7.926,15.858c-.554,12.652,10.128,23.437,23.81,24.04a25.734,25.734,0,0,0,17.89-5.993,21.982,21.982,0,0,0,7.927-15.86c.553-12.652-10.129-23.437-23.812-24.04C2586.847,1435.2,2586.442,1435.193,2586.042,1435.193Z" transform="translate(-2557.644 -1431.424)" fill="#7e7e7e"/>
        <g id="Group_5750" data-name="Group 5750" transform="translate(3.662 1.892)">
          <g id="Group_5743" data-name="Group 5743" transform="translate(17.456 0.14)">
            <path id="Path_6833" data-name="Path 6833" d="M2683.742,1469.431a75.174,75.174,0,0,1-1.076,13.1c-.2,1.08-.42,2.154-.689,3.218a30.355,30.355,0,0,1-.963,3.149,15.1,15.1,0,0,1-1.436,2.968,5.99,5.99,0,0,1-1.078,1.264,3.1,3.1,0,0,1-.707.457,2.057,2.057,0,0,1-1.657.043,2.883,2.883,0,0,1-.722-.432,5.585,5.585,0,0,1-1.1-1.242,14.449,14.449,0,0,1-1.457-2.957,30.29,30.29,0,0,1-.974-3.146c-.271-1.062-.5-2.136-.7-3.216-.393-2.16-.66-4.339-.839-6.523s-.27-4.379-.281-6.571c-.006-1.1.025-2.193.064-3.288s.1-2.19.182-3.283c.161-2.187.4-4.368.763-6.531.18-1.081.391-2.158.642-3.226a31.764,31.764,0,0,1,.912-3.162c.184-.517.383-1.03.611-1.529a11.3,11.3,0,0,1,.784-1.451,5.346,5.346,0,0,1,1.078-1.25,2.768,2.768,0,0,1,.712-.428,1.987,1.987,0,0,1,.819-.145,2.168,2.168,0,0,1,.809.19,3.151,3.151,0,0,1,.705.442,6.077,6.077,0,0,1,1.1,1.229,14.767,14.767,0,0,1,1.509,2.924,30.213,30.213,0,0,1,1.035,3.124c.292,1.058.538,2.127.751,3.2A69.047,69.047,0,0,1,2683.742,1469.431Zm-.323,0q.006-3.277-.259-6.545a63.088,63.088,0,0,0-.852-6.492c-.2-1.072-.435-2.14-.714-3.195a29.974,29.974,0,0,0-.994-3.116,14.594,14.594,0,0,0-1.463-2.91,5.934,5.934,0,0,0-1.064-1.217,3.007,3.007,0,0,0-.676-.433,2.013,2.013,0,0,0-.77-.19,1.881,1.881,0,0,0-.777.147,2.551,2.551,0,0,0-.68.42,5.216,5.216,0,0,0-1.039,1.235,11.081,11.081,0,0,0-.759,1.441c-.221.5-.414,1.007-.59,1.523a31.111,31.111,0,0,0-.873,3.152c-.24,1.064-.437,2.138-.6,3.218-.333,2.157-.551,4.335-.687,6.514s-.186,4.366-.182,6.55.068,4.368.229,6.547.412,4.35.785,6.5c.188,1.076.407,2.145.668,3.2a30.168,30.168,0,0,0,.942,3.13,14.273,14.273,0,0,0,1.413,2.926,5.447,5.447,0,0,0,1.054,1.209,2.741,2.741,0,0,0,.674.411,1.841,1.841,0,0,0,.762.145,1.91,1.91,0,0,0,.755-.186,2.915,2.915,0,0,0,.66-.435,5.766,5.766,0,0,0,1.033-1.23,14.689,14.689,0,0,0,1.391-2.937,30.449,30.449,0,0,0,.931-3.133c.26-1.059.476-2.13.66-3.2.372-2.152.618-4.323.782-6.5S2683.419,1471.615,2683.419,1469.431Z" transform="translate(-2669.43 -1444.599)" fill="#7e7e7e"/>
            <path id="Path_6834" data-name="Path 6834" d="M2674.255,1491.737a2.732,2.732,0,0,1-1.008-.2,3.5,3.5,0,0,1-.88-.524,6.094,6.094,0,0,1-1.23-1.384,14.877,14.877,0,0,1-1.527-3.09,30.813,30.813,0,0,1-.995-3.214c-.263-1.026-.494-2.092-.707-3.261-.375-2.071-.652-4.222-.847-6.585-.176-2.146-.271-4.373-.282-6.62-.006-1.175.029-2.334.064-3.313.042-1.115.1-2.228.184-3.307.176-2.374.425-4.53.767-6.589.2-1.173.409-2.243.651-3.271a31.7,31.7,0,0,1,.93-3.226c.207-.586.415-1.1.635-1.583a11.957,11.957,0,0,1,.828-1.533,5.956,5.956,0,0,1,1.209-1.4,3.308,3.308,0,0,1,.881-.526,2.638,2.638,0,0,1,1.075-.19,2.747,2.747,0,0,1,1.041.244,3.769,3.769,0,0,1,.847.528,6.563,6.563,0,0,1,1.222,1.359,15.249,15.249,0,0,1,1.579,3.052,30.907,30.907,0,0,1,1.059,3.191c.284,1.029.532,2.092.762,3.249a68.993,68.993,0,0,1,1.213,13.205v0a75.434,75.434,0,0,1-1.086,13.209c-.211,1.167-.439,2.235-.7,3.263a31.317,31.317,0,0,1-.983,3.214,15.47,15.47,0,0,1-1.5,3.1,6.427,6.427,0,0,1-1.2,1.4,3.8,3.8,0,0,1-.854.551,2.718,2.718,0,0,1-1.076.252Zm-.332-48.442a1.245,1.245,0,0,0-.482.1,2.041,2.041,0,0,0-.517.321,4.589,4.589,0,0,0-.909,1.086,10.264,10.264,0,0,0-.712,1.356c-.2.441-.384.923-.571,1.471a29.934,29.934,0,0,0-.854,3.085c-.224,1-.42,2.036-.6,3.175-.313,2.02-.536,4.131-.681,6.456-.125,1.987-.186,4.116-.181,6.507-.006,2.208.069,4.4.226,6.5.172,2.311.427,4.418.778,6.438.2,1.13.412,2.163.658,3.16a29.276,29.276,0,0,0,.921,3.062,13.559,13.559,0,0,0,1.346,2.794,4.714,4.714,0,0,0,.925,1.066,2.072,2.072,0,0,0,.513.315,1.384,1.384,0,0,0,.5.1,1.277,1.277,0,0,0,.511-.128,2.256,2.256,0,0,0,.512-.341,5.05,5.05,0,0,0,.914-1.093,14.033,14.033,0,0,0,1.328-2.806,29.513,29.513,0,0,0,.909-3.065c.242-.991.455-2.024.652-3.162.345-2,.6-4.11.775-6.44.16-2.1.242-4.288.24-6.5v0c0-2.2-.082-4.387-.258-6.492a62.209,62.209,0,0,0-.842-6.428c-.209-1.121-.439-2.15-.7-3.15a29.174,29.174,0,0,0-.973-3.048,14.026,14.026,0,0,0-1.4-2.783,5.258,5.258,0,0,0-.944-1.084,2.436,2.436,0,0,0-.532-.344,1.346,1.346,0,0,0-.522-.132A.092.092,0,0,1,2673.922,1443.294Z" transform="translate(-2666.777 -1441.921)" fill="#7e7e7e"/>
          </g>
          <g id="Group_5744" data-name="Group 5744" transform="translate(5.033)">
            <path id="Path_6835" data-name="Path 6835" d="M2642.967,1468.848a32.068,32.068,0,0,1-1.13,8.369,27.014,27.014,0,0,1-3.487,7.675,22.056,22.056,0,0,1-2.665,3.274,18.514,18.514,0,0,1-3.28,2.65,15.856,15.856,0,0,1-3.826,1.757,14.239,14.239,0,0,1-8.319,0,15.811,15.811,0,0,1-3.83-1.753,18.712,18.712,0,0,1-3.284-2.647,22.11,22.11,0,0,1-2.668-3.274,27.037,27.037,0,0,1-3.5-7.677,30.641,30.641,0,0,1-.847-4.149,31.277,31.277,0,0,1,0-8.453,30.652,30.652,0,0,1,.85-4.149,27.016,27.016,0,0,1,3.5-7.673,22.089,22.089,0,0,1,2.668-3.271,18.674,18.674,0,0,1,3.282-2.643,15.876,15.876,0,0,1,3.826-1.748,14.161,14.161,0,0,1,8.308,0,15.86,15.86,0,0,1,3.824,1.75,18.664,18.664,0,0,1,3.278,2.646,22.083,22.083,0,0,1,2.665,3.27,26.981,26.981,0,0,1,3.493,7.669A32.094,32.094,0,0,1,2642.967,1468.848Zm-.369,0a31.711,31.711,0,0,0-1.083-8.278,26.892,26.892,0,0,0-3.377-7.623,21.737,21.737,0,0,0-2.6-3.265,18.149,18.149,0,0,0-3.22-2.651,15.541,15.541,0,0,0-3.777-1.753,13.8,13.8,0,0,0-8.225,0,15.526,15.526,0,0,0-3.775,1.755,18.219,18.219,0,0,0-3.216,2.653,21.859,21.859,0,0,0-2.6,3.267,26.84,26.84,0,0,0-3.368,7.618,30.5,30.5,0,0,0-.809,4.1,32.008,32.008,0,0,0,0,8.342,30.487,30.487,0,0,0,.813,4.1,26.818,26.818,0,0,0,3.373,7.615,21.88,21.88,0,0,0,2.6,3.263,18.116,18.116,0,0,0,3.216,2.649,15.54,15.54,0,0,0,3.772,1.75,13.714,13.714,0,0,0,8.21,0,15.607,15.607,0,0,0,3.775-1.747,18.272,18.272,0,0,0,3.22-2.645,21.955,21.955,0,0,0,2.6-3.261,26.926,26.926,0,0,0,3.383-7.616A32,32,0,0,0,2642.6,1468.848Z" transform="translate(-2605.217 -1443.877)" fill="#7e7e7e"/>
            <path id="Path_6836" data-name="Path 6836" d="M2621.786,1491.155a14.982,14.982,0,0,1-4.344-.646,16.347,16.347,0,0,1-3.983-1.825,19.364,19.364,0,0,1-3.4-2.738,22.831,22.831,0,0,1-2.746-3.369,27.639,27.639,0,0,1-3.582-7.859,31.252,31.252,0,0,1-.865-4.24,31.922,31.922,0,0,1,0-8.621,31.263,31.263,0,0,1,.867-4.236,27.6,27.6,0,0,1,3.588-7.857,22.635,22.635,0,0,1,2.748-3.365,19.4,19.4,0,0,1,3.4-2.734,16.41,16.41,0,0,1,3.98-1.817,14.794,14.794,0,0,1,8.675,0,16.443,16.443,0,0,1,3.977,1.819,19.289,19.289,0,0,1,3.392,2.736,22.671,22.671,0,0,1,2.742,3.365,27.551,27.551,0,0,1,3.576,7.851,32.7,32.7,0,0,1,1.159,8.538v.008a32.569,32.569,0,0,1-1.153,8.536,27.537,27.537,0,0,1-3.572,7.858,22.806,22.806,0,0,1-2.742,3.369,19.339,19.339,0,0,1-3.392,2.74,16.423,16.423,0,0,1-3.982,1.827A14.883,14.883,0,0,1,2621.786,1491.155Zm0-48.541a13.62,13.62,0,0,0-3.925.6,14.872,14.872,0,0,0-3.62,1.686,17.552,17.552,0,0,0-3.1,2.56,21.208,21.208,0,0,0-2.521,3.172,26.1,26.1,0,0,0-3.286,7.436,30.48,30.48,0,0,0-.793,4.014,31.32,31.32,0,0,0,0,8.178,30.352,30.352,0,0,0,.8,4.014,26.078,26.078,0,0,0,3.292,7.431,21.17,21.17,0,0,0,2.521,3.168,17.594,17.594,0,0,0,3.1,2.556,15.01,15.01,0,0,0,3.614,1.678,13.07,13.07,0,0,0,7.839,0,14.965,14.965,0,0,0,3.62-1.676,17.583,17.583,0,0,0,3.1-2.552,21.251,21.251,0,0,0,2.527-3.166,26.149,26.149,0,0,0,3.3-7.435,31.452,31.452,0,0,0,.006-16.218,26.141,26.141,0,0,0-3.3-7.439,21.177,21.177,0,0,0-2.527-3.17,17.626,17.626,0,0,0-3.108-2.558,14.817,14.817,0,0,0-3.621-1.679A13.435,13.435,0,0,0,2621.782,1442.615Z" transform="translate(-2602.58 -1441.2)" fill="#7e7e7e"/>
          </g>
          <g id="Group_5745" data-name="Group 5745" transform="translate(1.937 14.606)">
            <path id="Path_6837" data-name="Path 6837" d="M2589.892,1520.071l5.57-.045,5.569-.025,11.138-.021,11.139.023,5.569.027,5.569.048a.016.016,0,0,1,.016.017s-.008.016-.016.016l-5.569.048-5.569.027-11.139.023-11.138-.021-5.569-.025-5.57-.045a.033.033,0,0,1-.023-.011C2589.867,1520.083,2589.879,1520.071,2589.892,1520.071Z" transform="translate(-2589.233 -1519.341)" fill="#7e7e7e"/>
            <path id="Path_6838" data-name="Path 6838" d="M2609.519,1518.19l-16.714-.047-5.836-.048-.389-.389v-.286l.013-.623.641-.025,11.141-.071,11.142-.02,16.712.05,6.2.054.016,1.289-.652.015-11.137.077Z" transform="translate(-2586.58 -1516.68)" fill="#7e7e7e"/>
          </g>
          <g id="Group_5746" data-name="Group 5746" transform="translate(8.395 5.244)">
            <path id="Path_6839" data-name="Path 6839" d="M2623.282,1471.681c1.318-.021,2.636-.029,3.954-.045l3.954-.025c1.318-.012,2.636-.01,3.955-.014l3.955-.008,7.908.023,3.954.029c1.317.017,2.635.027,3.953.048a.021.021,0,0,1,.016.008c0,.017-.007.025-.016.025-1.318.023-2.636.033-3.953.048l-3.954.027-7.908.023-3.955-.008c-1.317,0-2.635,0-3.955-.014l-3.954-.025c-1.317-.015-2.635-.023-3.954-.045a.024.024,0,0,1-.023-.025A.023.023,0,0,1,2623.282,1471.681Z" transform="translate(-2622.618 -1470.953)" fill="#7e7e7e"/>
            <path id="Path_6840" data-name="Path 6840" d="M2636.432,1469.807l-4.983-.01c-.978,0-1.957,0-2.934-.012l-5.273-.038c-.881-.01-1.761-.018-2.64-.031l-.627-.01-.025-1.292.65-.023c.852-.014,1.7-.021,2.556-.031l5.359-.041q1.39-.012,2.784-.01l5.126-.01,13.308.068c.839.01,1.679.017,2.521.033l.648.012-.029,1.283-.631.016c-.869.016-1.749.025-2.63.033l-5.275.042Z" transform="translate(-2619.95 -1468.3)" fill="#7e7e7e"/>
          </g>
          <g id="Group_5747" data-name="Group 5747" transform="translate(0 23.97)">
            <path id="Path_6841" data-name="Path 6841" d="M2579.892,1568.471l6.053-.044,6.053-.025,12.106-.021,12.106.023,6.053.029,6.053.049a.016.016,0,0,1,.016.017s-.008.016-.016.016l-6.053.049-6.053.027-12.106.023-12.106-.021-6.053-.025-6.053-.044a.023.023,0,0,1-.023-.025A.022.022,0,0,1,2579.892,1568.471Z" transform="translate(-2579.23 -1567.739)" fill="#7e7e7e"/>
            <path id="Path_6842" data-name="Path 6842" d="M2601.446,1566.579l-18.165-.047-6.686-.05-.025-1.3.656-.025,12.11-.07,12.108-.021,18.163.05,6.324.052.383.391-.026.9-.631.017-12.1.078Z" transform="translate(-2576.57 -1565.07)" fill="#7e7e7e"/>
          </g>
          <g id="Group_5748" data-name="Group 5748" transform="translate(1.937 33.337)">
            <path id="Path_6843" data-name="Path 6843" d="M2589.892,1616.861l5.57-.044,5.569-.025,11.138-.021,11.139.023,5.569.029,5.569.048a.022.022,0,0,1,.016.008c0,.018-.008.025-.016.025l-5.569.048-5.569.027-11.139.023-11.138-.021-5.569-.025-5.57-.044a.024.024,0,0,1-.023-.025A.022.022,0,0,1,2589.892,1616.861Z" transform="translate(-2589.233 -1616.131)" fill="#7e7e7e"/>
            <path id="Path_6844" data-name="Path 6844" d="M2609.519,1614.977l-16.714-.046-5.836-.046-.389-.389v-.287l.013-.625.641-.024,11.141-.071,11.142-.02,16.712.05,6.2.054.016,1.289-.652.015-11.137.078Z" transform="translate(-2586.58 -1613.47)" fill="#7e7e7e"/>
          </g>
          <g id="Group_5749" data-name="Group 5749" transform="translate(9.134 42.732)">
            <path id="Path_6845" data-name="Path 6845" d="M2658.779,1665.49h-31.634a.085.085,0,0,1,0-.17h31.634a.085.085,0,0,1,0,.17Z" transform="translate(-2626.423 -1664.681)" fill="#7e7e7e"/>
            <path id="Path_6846" data-name="Path 6846" d="M2656.125,1663.467h-31.634a.724.724,0,0,1,0-1.448h31.634a.724.724,0,0,1,0,1.448Z" transform="translate(-2623.77 -1662.02)" fill="#7e7e7e"/>
          </g>
        </g>
      </g>
    </g>
    <g id="Group_5762" data-name="Group 5762" transform="translate(304.498 49.649)">
      <circle id="Ellipse_299" data-name="Ellipse 299" cx="42.941" cy="42.941" r="42.941" fill="#d2d2d2"/>
      <g id="Group_5761" data-name="Group 5761" transform="translate(12.023 28.764)">
        <g id="Group_5754" data-name="Group 5754">
          <g id="Group_5753" data-name="Group 5753">
            <path id="Path_6847" data-name="Path 6847" d="M2130.818,886.669h-25.01a1.467,1.467,0,0,1-1.428-1.13,2.532,2.532,0,0,0-.2-.559c-.01-.019-.019-.04-.029-.062a3.976,3.976,0,0,0-.36-.644,4.531,4.531,0,0,0-3.75-2,4.59,4.59,0,0,0-3.769,2,3.889,3.889,0,0,0-.36.643l-.029.062a2.49,2.49,0,0,0-.2.557,1.466,1.466,0,0,1-1.428,1.132h-1.248a2.348,2.348,0,0,1-2.346-2.345v-22.2a2.348,2.348,0,0,1,2.346-2.345h37.813a2.349,2.349,0,0,1,2.347,2.345v22.2A2.349,2.349,0,0,1,2130.818,886.669Zm-23.98-2.934h23.392V862.715h-36.638v20.307c.081-.137.168-.275.261-.41a7.466,7.466,0,0,1,12.362.008,6.752,6.752,0,0,1,.605,1.076Z" transform="translate(-2090.66 -859.78)" fill="#fff"/>
          </g>
        </g>
        <g id="Group_5756" data-name="Group 5756" transform="translate(43.266 4.829)">
          <g id="Group_5755" data-name="Group 5755">
            <path id="Path_6848" data-name="Path 6848" d="M2329.57,906.793H2328.5a1.467,1.467,0,0,1-1.428-1.132,2.619,2.619,0,0,0-.2-.559l-.029-.06a3.882,3.882,0,0,0-.36-.642,4.549,4.549,0,0,0-7.539,0,3.96,3.96,0,0,0-.36.642l-.029.06a2.523,2.523,0,0,0-.2.557,1.466,1.466,0,0,1-1.429,1.132h-.334a2.349,2.349,0,0,1-2.347-2.347V887.086a2.348,2.348,0,0,1,2.347-2.345h3.783a11.1,11.1,0,0,1,11.543,12.331v7.375A2.347,2.347,0,0,1,2329.57,906.793Zm-6.86-7.33a7.518,7.518,0,0,1,6.185,3.272l.087.128V896.99c0-.058,0-.116.01-.174a8.17,8.17,0,0,0-8.514-9.14c-.024,0-.048,0-.072,0h-3.23v14.239A7.509,7.509,0,0,1,2322.71,899.463Z" transform="translate(-2314.24 -884.734)" fill="#fff"/>
          </g>
        </g>
        <g id="Group_5758" data-name="Group 5758" transform="translate(5.414 24.832)">
          <g id="Group_5757" data-name="Group 5757">
            <path id="Path_6849" data-name="Path 6849" d="M2122.6,996.03a3.969,3.969,0,0,1-3.965-3.965,3.919,3.919,0,0,1,.96-2.564,3.9,3.9,0,0,1,5.989,0,3.949,3.949,0,0,1-2.984,6.529Zm0-4.995a.913.913,0,0,0-.739.333c-.014.017-.027.033-.041.048a.976.976,0,0,0-.25.648,1.022,1.022,0,1,0,2.043,0,.969.969,0,0,0-.25-.648c-.014-.015-.027-.031-.041-.048A.908.908,0,0,0,2122.6,991.036Z" transform="translate(-2118.64 -988.1)" fill="#fff"/>
          </g>
        </g>
        <g id="Group_5760" data-name="Group 5760" transform="translate(47.771 24.832)">
          <g id="Group_5759" data-name="Group 5759">
            <path id="Path_6850" data-name="Path 6850" d="M2341.485,996.03a3.969,3.969,0,0,1-3.965-3.965,3.913,3.913,0,0,1,.962-2.564,3.919,3.919,0,0,1,6.006,0,3.919,3.919,0,0,1,.96,2.564A3.966,3.966,0,0,1,2341.485,996.03Zm0-4.995a.938.938,0,0,0-.739.333c-.013.017-.027.033-.041.048a.972.972,0,0,0-.249.648,1.031,1.031,0,0,0,2.063,0,.971.971,0,0,0-.25-.648l-.041-.048A.951.951,0,0,0,2341.485,991.036Z" transform="translate(-2337.52 -988.1)" fill="#fff"/>
          </g>
        </g>
      </g>
    </g>
    <g id="Group_5764" data-name="Group 5764" transform="translate(149.055 40.503)">
      <circle id="Ellipse_300" data-name="Ellipse 300" cx="42.757" cy="42.757" r="42.757" fill="#d2d2d2"/>
      <g id="Group_5763" data-name="Group 5763" transform="translate(10.724 21.174)">
        <path id="Path_6851" data-name="Path 6851" d="M1427.607,785.766h13.873a1.9,1.9,0,0,0,1.9-1.9V775.2a1.9,1.9,0,0,0-1.9-1.9h-13.873a1.9,1.9,0,0,0-1.9,1.9v8.675A1.9,1.9,0,0,0,1427.607,785.766Zm.938-2.835v-6.8h11.994v6.8Z" transform="translate(-1397.644 -773.3)" fill="#fff"/>
        <path id="Path_6852" data-name="Path 6852" d="M1346.861,848.564a3.114,3.114,0,0,0-2.709-1.594h-7.617v-1.924a1.9,1.9,0,0,0-1.9-1.9h-13.873a1.9,1.9,0,0,0-1.9,1.9v8.038l-1.13.008v-8.046a1.9,1.9,0,0,0-1.9-1.9H1301.97a1.9,1.9,0,0,0-1.9,1.9v8.176l-16.448.13a2.98,2.98,0,0,0-2.431,4.662l6.727,9.788a6.74,6.74,0,0,0,5.55,2.92h38.548a5.645,5.645,0,0,0,4.807-2.669l9.964-16.313A3.126,3.126,0,0,0,1346.861,848.564Zm-25.157,4.5v-7.077H1333.7v.985h-3.739a5.251,5.251,0,0,0-4.325,2.277l-2.624,3.8Zm-18.8-7.077H1314.9v7.127l-11.723.085-.269,0v-7.214Zm41.464,4.265-9.96,16.307a2.812,2.812,0,0,1-2.4,1.326h-38.548a3.9,3.9,0,0,1-3.212-1.691l-6.721-9.778a.139.139,0,0,1-.01-.155.123.123,0,0,1,.118-.073l19.555-.153,14.831-.1,2.268-.02h0l3.473-.029a1.414,1.414,0,0,0,1.155-.613l3.044-4.412a2.416,2.416,0,0,1,1.989-1.051h14.181a.262.262,0,0,1,.244.143A.276.276,0,0,1,1344.373,850.252Z" transform="translate(-1280.675 -829.633)" fill="#fff"/>
      </g>
    </g>
    <g id="Group_5768" data-name="Group 5768" transform="translate(56.662 165.766)">
      <circle id="Ellipse_301" data-name="Ellipse 301" cx="41.468" cy="41.468" r="41.468" fill="#e1e1e1"/>
      <g id="Group_5767" data-name="Group 5767" transform="translate(15.621 17.627)">
        <g id="Group_5766" data-name="Group 5766" transform="translate(14.165 10.003)">
          <path id="Path_6853" data-name="Path 6853" d="M941.994,1506.522H910.571a1.511,1.511,0,1,1,0-3.023h31.423a1.511,1.511,0,1,1,0,3.023Z" transform="translate(-907.641 -1493.915)" fill="#9a9a9a"/>
          <g id="Group_5765" data-name="Group 5765" transform="translate(11.261 1.064)">
            <path id="Path_6854" data-name="Path 6854" d="M961.431,1491.291c-.834,0-1.511-1.113-1.511-2.487v-26.848c0-1.374.675-2.487,1.511-2.487s1.511,1.113,1.511,2.487V1488.8C962.942,1490.178,962.267,1491.291,961.431,1491.291Z" transform="translate(-959.92 -1459.47)" fill="#9a9a9a"/>
            <path id="Path_6855" data-name="Path 6855" d="M1020.761,1491.291c-.834,0-1.511-1.113-1.511-2.487v-26.848c0-1.374.675-2.487,1.511-2.487s1.512,1.113,1.512,2.487V1488.8C1022.273,1490.178,1021.6,1491.291,1020.761,1491.291Z" transform="translate(-1007.769 -1459.47)" fill="#9a9a9a"/>
          </g>
          <path id="Path_6856" data-name="Path 6856" d="M941.032,1561.162H910.743a1.52,1.52,0,1,1,0-3.023h30.289a1.52,1.52,0,1,1,0,3.023Z" transform="translate(-907.641 -1537.981)" fill="#9a9a9a"/>
          <path id="Path_6857" data-name="Path 6857" d="M936.8,1487.78H903.682a1.953,1.953,0,0,1-1.953-1.953v-29.905a1.952,1.952,0,0,1,1.953-1.953H936.8a1.953,1.953,0,0,1,1.953,1.953v29.905A1.954,1.954,0,0,1,936.8,1487.78Zm-31.169-3.9h29.219v-26H905.635Z" transform="translate(-901.73 -1453.97)" fill="#9a9a9a"/>
        </g>
        <path id="Path_6858" data-name="Path 6858" d="M844.649,1446.093H830.484a1.95,1.95,0,0,1-1.943-2.138l3.832-39.91a1.952,1.952,0,0,1,1.943-1.765h6.843a1.953,1.953,0,0,1,1.945,1.782l3.491,39.91a1.95,1.95,0,0,1-1.945,2.121Zm-12.017-3.9h9.888l-3.148-36.007H836.09Z" transform="translate(-828.531 -1402.28)" fill="#9a9a9a"/>
      </g>
    </g>
    <g id="Group_5771" data-name="Group 5771" transform="translate(373.315 365.805)">
      <g id="Group_5769" data-name="Group 5769" transform="translate(0 70.158)">
        <path id="Path_6859" data-name="Path 6859" d="M2384.15,2796.983V2724.87a17.278,17.278,0,0,1,17.089-17.287c28.433-.31,87.077-.325,135.061,3.719a12.989,12.989,0,0,1,11.878,12.486l4.483,69.719a16.507,16.507,0,0,1-16.183,17.1l-135.812,2.581A16.21,16.21,0,0,1,2384.15,2796.983Z" transform="translate(-2384.15 -2707.462)" fill="#777"/>
        <path id="Path_6860" data-name="Path 6860" d="M2768.888,2770.161l19.52,2.1a4.4,4.4,0,0,0,4.861-4.7L2789,2709.5c-8.184-.26-16.253-.449-24.042-.583v56.864A4.4,4.4,0,0,0,2768.888,2770.161Z" transform="translate(-2691.269 -2708.637)" fill="#fff" opacity="0.37"/>
        <path id="Path_6861" data-name="Path 6861" d="M2814.261,2760.864a1.962,1.962,0,0,0,1.958,1.85c.039,0,.077,0,.116,0a1.961,1.961,0,0,0,1.846-2.072l-2.943-50.677c-1.32-.033-2.63-.062-3.938-.092Z" transform="translate(-2728.641 -2709.404)" fill="#fff"/>
      </g>
      <g id="Group_5770" data-name="Group 5770" transform="translate(22.796)">
        <path id="Path_6862" data-name="Path 6862" d="M2501.95,2407.779v-50.642a12.135,12.135,0,0,1,12-12.141c19.968-.217,61.151-.229,94.848,2.61a9.124,9.124,0,0,1,8.342,8.769l3.148,48.961a11.591,11.591,0,0,1-11.365,12.009l-95.377,1.813A11.381,11.381,0,0,1,2501.95,2407.779Z" transform="translate(-2501.95 -2344.91)" fill="#b7b7b7"/>
        <path id="Path_6863" data-name="Path 6863" d="M2772.14,2388.938l13.708,1.479a3.09,3.09,0,0,0,3.413-3.3l-3-40.779c-5.748-.182-11.415-.315-16.884-.408v39.933A3.091,3.091,0,0,0,2772.14,2388.938Z" transform="translate(-2717.628 -2345.732)" fill="#fff" opacity="0.37"/>
        <path id="Path_6864" data-name="Path 6864" d="M2804.018,2382.411a1.379,1.379,0,0,0,1.376,1.3c.027,0,.054,0,.081,0a1.378,1.378,0,0,0,1.3-1.455l-2.066-35.59c-.927-.023-1.846-.043-2.766-.063Z" transform="translate(-2743.888 -2346.273)" fill="#fff"/>
      </g>
    </g>
    <g id="Group_5781" data-name="Group 5781" transform="translate(144.469 158.114)">
      <g id="Group_5776" data-name="Group 5776">
        <g id="Group_5772" data-name="Group 5772">
          <path id="Path_6865" data-name="Path 6865" d="M1427.684,1434.656l-7.282-8.7a9.386,9.386,0,0,1-1.831-8.48,100.217,100.217,0,0,0,3.387-22.6,9.388,9.388,0,0,1,4.242-7.58l9.527-6.183a11.219,11.219,0,0,0,4.779-12.118l-3.447-13.869a11.219,11.219,0,0,0-9.9-8.47l-11.313-1a9.388,9.388,0,0,1-7.3-4.712,100.211,100.211,0,0,0-13.571-18.384,9.384,9.384,0,0,1-2.353-8.35l2.363-11.1a11.222,11.222,0,0,0-5.188-11.949l-12.245-7.369a11.219,11.219,0,0,0-12.988,1.01l-8.7,7.281a9.385,9.385,0,0,1-8.48,1.831,100.192,100.192,0,0,0-22.6-3.386,9.389,9.389,0,0,1-7.58-4.242l-6.183-9.527a11.224,11.224,0,0,0-12.118-4.782l-13.869,3.447a11.222,11.222,0,0,0-8.47,9.9l-1,11.313a9.389,9.389,0,0,1-4.713,7.3,100.233,100.233,0,0,0-18.384,13.571,9.385,9.385,0,0,1-8.35,2.354l-11.1-2.363a11.219,11.219,0,0,0-11.948,5.188l-7.369,12.245a11.216,11.216,0,0,0,1.01,12.987l7.282,8.7a9.385,9.385,0,0,1,1.831,8.48,100.214,100.214,0,0,0-3.386,22.6,9.393,9.393,0,0,1-4.242,7.58l-9.526,6.183a11.219,11.219,0,0,0-4.78,12.118l3.447,13.869a11.222,11.222,0,0,0,9.9,8.47l11.313,1a9.388,9.388,0,0,1,7.3,4.712,100.18,100.18,0,0,0,13.571,18.384,9.385,9.385,0,0,1,2.353,8.35l-2.363,11.1a11.222,11.222,0,0,0,5.188,11.949l12.244,7.369a11.22,11.22,0,0,0,12.988-1.01l8.7-7.281a9.383,9.383,0,0,1,8.48-1.831,100.247,100.247,0,0,0,22.6,3.386,9.393,9.393,0,0,1,7.58,4.241l6.182,9.527a11.224,11.224,0,0,0,12.118,4.781l13.869-3.447a11.222,11.222,0,0,0,8.47-9.9l1-11.312a9.389,9.389,0,0,1,4.713-7.3,100.225,100.225,0,0,0,18.384-13.571,9.386,9.386,0,0,1,8.35-2.353l11.1,2.363a11.22,11.22,0,0,0,11.949-5.188l7.369-12.244A11.222,11.222,0,0,0,1427.684,1434.656ZM1285.715,1466.5a83.164,83.164,0,1,1,110.7-39.727A83.163,83.163,0,0,1,1285.715,1466.5Z" transform="translate(-1201.563 -1271.647)" fill="#dcdcdc"/>
        </g>
        <g id="Group_5775" data-name="Group 5775" transform="translate(39.698 21.369)">
          <path id="Path_6866" data-name="Path 6866" d="M1544.109,1748.5s35.682-8.952,73.38-3.553a36.655,36.655,0,0,1,25.726,16.749c10.314,16.321,24.9,45.406,21.811,75.741l-16.187,4s-11.187-36-23.779-50.648c0,0-14.912,33.991-14.157,52.657.021.528.054,1.043.1,1.544,1.71,18.262-71.585,3.408-71.585,3.408Z" transform="translate(-1513.739 -1673.327)" fill="#373737"/>
          <path id="Path_6867" data-name="Path 6867" d="M1730.2,1589.331l-7.6,24.2a5.491,5.491,0,0,0,1.761,6.02c4.066,3.131,12.1,8.118,21.921,7.975a3.625,3.625,0,0,0,3.433-3.441l2.7-40.442Z" transform="translate(-1661.251 -1544.634)" fill="url(#linear-gradient)"/>
          <g id="Group_5773" data-name="Group 5773" transform="translate(51.849)">
            <path id="Path_6868" data-name="Path 6868" d="M1774.376,1474.4s2.951,19.055,1.094,28.162-1.455,15.439-12.307,14.519-18.237-8.387-20.625-18.571c0,0-3.8-15.725-.654-20.93S1774.376,1474.4,1774.376,1474.4Z" transform="translate(-1727.866 -1456.219)" fill="url(#linear-gradient-2)"/>
            <path id="Path_6869" data-name="Path 6869" d="M1694.549,1418.867l1.312.344s-2.493-12.509,2.769-13.207,25.083.406,30.9-5.2c5.6-5.407,4.3-14.637-.312-18.335a.723.723,0,0,0-.975.095l-.648.7a.729.729,0,0,1-1.266-.474h0a.726.726,0,0,0-1.213-.524c-1.767,1.67-5.985,4.033-15.446,3.326-13.426-1-23.253,1.957-25.786,10.752a.729.729,0,0,1-1.242.29c-.793-.824-2.235-1.492-4.7-.323-4.292,2.032-4.869,10.08,1.181,18.413a.723.723,0,0,1-.331,1.12c-1.637.542-4.288,2.16.352,6.464,4.745,4.4,8.1,4.938,9.412,4.946a.731.731,0,0,0,.726-.588l1.575-7.969a.728.728,0,0,1,.9-.563Z" transform="translate(-1674.643 -1382.073)"/>
            <path id="Path_6870" data-name="Path 6870" d="M1742.6,1539.119s.031-11.669-5.672-9.894-.674,12.907,3.156,14.351Z" transform="translate(-1722.807 -1500.601)" fill="url(#linear-gradient-3)"/>
          </g>
          <g id="Group_5774" data-name="Group 5774" transform="translate(0 75.168)">
            <path id="Path_6871" data-name="Path 6871" d="M1437.3,1843.283c-1.581-11.162,9.977-27.568,14.757-33.793a10.342,10.342,0,0,0,2.152-6.2c.139-15.806-6.5-25.958-17.132-32.775,0,0-38.6,44.965-28.767,79.551a29.086,29.086,0,0,0,4.787,9.7C1414.647,1846.727,1429.71,1843.884,1437.3,1843.283Z" transform="translate(-1406.709 -1770.51)" fill="#373737"/>
            <path id="Path_6872" data-name="Path 6872" d="M1562.391,1999.536l-1.471-.168c1.246-10.945,10.85-24.456,14.922-29.759l1.175.9C1573.018,1975.715,1563.594,1988.959,1562.391,1999.536Z" transform="translate(-1531.078 -1931.081)" fill="#fff"/>
            <path id="Path_6873" data-name="Path 6873" d="M1464.226,2148.106a12.963,12.963,0,0,1-.3-1.546c-7.592.6-22.653,3.444-24.2,16.476,17.225,22.781,64.7,14.562,64.7,14.562v-8.865S1467.959,2161.961,1464.226,2148.106Z" transform="translate(-1433.332 -2073.79)" fill="url(#linear-gradient-4)"/>
          </g>
          <path id="Path_6874" data-name="Path 6874" d="M1750.48,2244.58s7.009-16.541,19.361-10.675,11.381,9.707,11.381,9.707Z" transform="translate(-1683.956 -2068.049)" fill="url(#linear-gradient-5)"/>
          <path id="Path_6875" data-name="Path 6875" d="M1742.31,2262.257h0a2.344,2.344,0,0,0,2.419,2.159l64-2.233a2.342,2.342,0,0,0,2.156-1.643l1.858-5.944a2.344,2.344,0,0,0-2.113-3.04l-23.34-1.24a2.3,2.3,0,0,0-.631.052l-42.521,9.416A2.345,2.345,0,0,0,1742.31,2262.257Z" transform="translate(-1677.361 -2082.296)" fill="#8a8a8a"/>
          <path id="Path_6876" data-name="Path 6876" d="M1964.05,2265.777l1.761-8.207,23.974,1.144-1.577,6.81Z" transform="translate(-1856.197 -2088.15)" fill="#717171"/>
          <path id="Path_6877" data-name="Path 6877" d="M1862.043,1805.739c-1.356,11.086-7.46,56.133-9.207,69a2.955,2.955,0,0,0,3.019,3.35l103.547-2.963a2.959,2.959,0,0,0,2.8-2.316l16.108-72.54a2.959,2.959,0,0,0-3.062-3.6l-110.442,6.469A2.954,2.954,0,0,0,1862.043,1805.739Z" transform="translate(-1766.482 -1716.443)" fill="#6e6e6e"/>
          <path id="Path_6878" data-name="Path 6878" d="M2051.843,2064.5l-15.3,43.436,35.584.755,2.963-43.929a3.414,3.414,0,0,0-3.632-3.636l-16.619,1.1A3.409,3.409,0,0,0,2051.843,2064.5Z" transform="translate(-1914.66 -1929.715)" fill="#b4b4b4"/>
          <path id="Path_6879" data-name="Path 6879" d="M1961.6,2291h0a1.848,1.848,0,0,0,1.755,2.425h55.728a1.849,1.849,0,0,0,1.848-1.848v-2.39a1.849,1.849,0,0,0-1.927-1.846l-55.728,2.39A1.844,1.844,0,0,0,1961.6,2291Z" transform="translate(-1854.145 -2112.159)" fill="#777"/>
        </g>
        <path id="Path_6880" data-name="Path 6880" d="M1889.385,1869.724l-.735-.093,5.087-40.123a5.225,5.225,0,0,1,4.865-4.555l95.44-5.763.045.739-95.441,5.763a4.484,4.484,0,0,0-4.176,3.909Z" transform="translate(-1755.69 -1713.233)" fill="#fff"/>
        <rect id="Rectangle_483" data-name="Rectangle 483" width="8.756" height="0.741" transform="matrix(0.125, -0.992, 0.992, 0.125, 130.436, 176.503)" fill="#bdd0fb"/>
      </g>
      <g id="Group_5780" data-name="Group 5780" transform="translate(102.706 23.964)">
        <g id="Group_5778" data-name="Group 5778" transform="translate(6.94 36.658)">
          <g id="Group_5777" data-name="Group 5777">
            <path id="Path_6881" data-name="Path 6881" d="M1786.418,1596.486c-11.5.869-18.182-11.021-18.248-11.143l.77-.424c.064.114,6.483,11.514,17.412,10.689Z" transform="translate(-1768.17 -1584.92)" fill="#fff"/>
          </g>
          <path id="Path_6882" data-name="Path 6882" d="M1862.689,1637.254a1.234,1.234,0,0,1-1.235,1.235h-3.29a1.234,1.234,0,0,1-1.234-1.235h0a1.234,1.234,0,0,1,1.234-1.234h3.29a1.234,1.234,0,0,1,1.235,1.234Z" transform="translate(-1839.754 -1626.131)" fill="#fff"/>
        </g>
        <g id="Group_5779" data-name="Group 5779">
          <path id="Path_6883" data-name="Path 6883" d="M1759.536,1419.378s4.128-21.168,16.286-23.166a8.225,8.225,0,0,0-7.035.147c-3.589,1.881-12.663,12.184-12.293,23.541C1758.963,1420.789,1759.536,1419.378,1759.536,1419.378Z" transform="translate(-1751.805 -1395.484)" fill="#fff"/>
          <path id="Path_6884" data-name="Path 6884" d="M1737.924,1513.376c-6.322,1.283-5.544,9.277-5.544,9.277-.455,5.8,1.239,8.677,3.408,10.047a4.994,4.994,0,0,0,7.644-3.857c.116-1.579.25-3.079.368-3.613C1744.084,1523.938,1744.246,1512.093,1737.924,1513.376Z" transform="translate(-1732.306 -1490.484)" fill="#fff"/>
        </g>
        <path id="Path_6885" data-name="Path 6885" d="M1745.31,1524.05a2.873,2.873,0,0,0-3.135,1.691c-3.777,8.752.861,14.446,3.137,14.564,2.4.126,2.351-11.421,1.843-14.382A2.1,2.1,0,0,0,1745.31,1524.05Z" transform="translate(-1739.111 -1499.136)" fill="#fff"/>
      </g>
    </g>
    <g id="Group_5787" data-name="Group 5787" transform="translate(1.603 263.646)">
      <g id="Group_5782" data-name="Group 5782" transform="translate(51.239 178.634)">
        <path id="Path_6886" data-name="Path 6886" d="M747.044,2740.11l.706,13s-4.04,43.507-4.886,62.77a15.1,15.1,0,0,0,2.233,8.578l8.267,13.424-21.01-12.4-.418-2.563,3.439-4.73-4.505-53.947a16.554,16.554,0,0,1,1.883-9.155l4.346-8.164Z" transform="translate(-730.282 -2740.11)" fill="url(#linear-gradient-6)"/>
        <path id="Path_6887" data-name="Path 6887" d="M752.537,3172.344h-6.705a4.037,4.037,0,0,1-3.2-1.572c-2.09-2.716-6.421-8.015-8.491-8.152-2.789-.186-2.431,9.724-2.431,9.724h-1.562l-1.98-12.315a7.289,7.289,0,0,1,3.826-7.619h0s.637,4.712,4.093,6.8,14.061,9.55,14.061,9.55a9.566,9.566,0,0,1,2.725.071A1.774,1.774,0,0,1,752.537,3172.344Z" transform="translate(-728.072 -3072.625)" fill="url(#linear-gradient-7)"/>
      </g>
      <g id="Group_5783" data-name="Group 5783" transform="translate(33.173 178.634)">
        <path id="Path_6888" data-name="Path 6888" d="M653.684,2740.11l1.42,8.352s-4.754,48.158-5.6,67.42a15.1,15.1,0,0,0,2.233,8.578L660,2837.884l-21.01-12.4-.418-2.564,3.439-4.729-4.505-53.948a16.554,16.554,0,0,1,1.883-9.155l4.346-8.164Z" transform="translate(-636.922 -2740.11)" fill="url(#linear-gradient-8)"/>
        <path id="Path_6889" data-name="Path 6889" d="M659.177,3172.344h-6.705a4.04,4.04,0,0,1-3.2-1.572c-2.09-2.716-6.421-8.015-8.491-8.152-2.788-.186-2.431,9.724-2.431,9.724h-1.562l-1.98-12.315a7.289,7.289,0,0,1,3.826-7.619h0s.637,4.712,4.093,6.8,14.061,9.55,14.061,9.55a9.567,9.567,0,0,1,2.725.071A1.774,1.774,0,0,1,659.177,3172.344Z" transform="translate(-634.712 -3072.625)" fill="url(#linear-gradient-9)"/>
      </g>
      <path id="Path_6890" data-name="Path 6890" d="M792.24,1978.094s3.062-.023,8.22,3.309,14.459,12.7,14.459,12.7l-9.387-26.043,6.889-1.775s17.35,31.483,14.092,37-19.969,4-28.489-10.469C793.581,1982.21,792.24,1978.094,792.24,1978.094Z" transform="translate(-728.583 -1937.4)" fill="url(#linear-gradient-10)"/>
      <path id="Path_6891" data-name="Path 6891" d="M598.095,2031.694c-.788.612,13.039,29.914,13.068,53.77,0,0,13.265,2.887,24.324-2.372,0,0,10.825-32.04,10.43-35.808-.447-4.269-9.037-24.545-9.037-24.545S617.512,2016.625,598.095,2031.694Z" transform="translate(-571.981 -1981.935)"/>
      <path id="Path_6892" data-name="Path 6892" d="M741.43,2192.972a3.909,3.909,0,0,0-2.837-1.852l-11.495-1.508s-.5-1.294,1.624-2.81.894-4.014.894-4.014-2.843,2.3-6.959,5.844a11.4,11.4,0,0,0-3.607,6.75l3.59,2.837a49.232,49.232,0,0,0,19.862-3.479Z" transform="translate(-669.556 -2112.003)" fill="url(#linear-gradient-11)"/>
      <path id="Path_6893" data-name="Path 6893" d="M535.706,2074.13s-21.923,19.614-12.766,43.61,41.634-8.559,41.634-8.559l-2.461-5.708s-21.691,12.84-27.1,7.992c-3.969-3.555,3.044-16.081,7.063-22.506a6.5,6.5,0,0,0-.459-7.543Z" transform="translate(-509.592 -2024.371)" fill="url(#linear-gradient-12)"/>
      <g id="Group_5785" data-name="Group 5785" transform="translate(65.296 13.627)">
        <path id="Path_6894" data-name="Path 6894" d="M817.217,1948.308a9.5,9.5,0,0,1-3.3-3c-.909-1.693-3.427-3.429-2.243-3.936s1.316-.789,2.841.966S823.212,1949.593,817.217,1948.308Z" transform="translate(-809.302 -1930.62)" fill="url(#linear-gradient-13)"/>
        <g id="Group_5784" data-name="Group 5784">
          <path id="Path_6895" data-name="Path 6895" d="M809.1,1887.938a1.213,1.213,0,0,0-1.858-.163l-6.332,6.387a.685.685,0,0,0-.047.914l14.378,17.871a.368.368,0,0,0,.25.135.374.374,0,0,0,.273-.081l5.964-4.888a1.212,1.212,0,0,0,.228-1.627Z" transform="translate(-800.711 -1887.417)"/>
          <path id="Path_6896" data-name="Path 6896" d="M814.686,1901.488a.687.687,0,0,0-1.057-.072l-4.1,4.311a.687.687,0,0,0-.037.9l12.259,15.208a.371.371,0,0,0,.54.041l3.983-3.654a.371.371,0,0,0,.05-.49Z" transform="translate(-807.674 -1898.534)" fill="#fcfcfc"/>
          <path id="Path_6897" data-name="Path 6897" d="M813.411,1909.3c.048.05.012.166-.085.259l-1.415,1.372c-.1.093-.213.128-.261.078l-.048-.049c-.048-.05-.012-.167.085-.259l1.415-1.372c.1-.093.213-.128.261-.077Z" transform="translate(-809.477 -1905.01)" fill="url(#linear-gradient-14)"/>
        </g>
        <path id="Path_6898" data-name="Path 6898" d="M847.218,1901.815c-1.2.26-5.178-1.817-4.855-.507s1.78,2.461,1.918,3.019.71,3.774,1.927,4.648a53.925,53.925,0,0,1,4.263,4.081,1.173,1.173,0,0,0,1.939-1.231C852.332,1911.614,848.414,1901.555,847.218,1901.815Z" transform="translate(-834.288 -1898.267)" fill="url(#linear-gradient-15)"/>
      </g>
      <path id="Path_6899" data-name="Path 6899" d="M708.029,1936.84s-2.31,12.009-4.106,17.284a3.2,3.2,0,0,0,1.682,3.936,11.642,11.642,0,0,0,7.82.447,3.39,3.39,0,0,0,2.564-3.251l.192-13.087Z" transform="translate(-657.218 -1913.649)" fill="url(#linear-gradient-16)"/>
      <g id="Group_5786" data-name="Group 5786">
        <path id="Path_6900" data-name="Path 6900" d="M737.34,1860.831s3.741,4.814,3.106,13.763-4.956,10.823-8.333,9.521-8.013-3.989-10.393-11.334S732.343,1854.811,737.34,1860.831Z" transform="translate(-671.477 -1850.917)" fill="url(#linear-gradient-17)"/>
        <path id="Path_6901" data-name="Path 6901" d="M702.642,1836.943s2.108-12.431,11.361-7.407l1.316,2.72s6.587-3.857,2.593-9.7a13.486,13.486,0,0,0-20.147-1.891c-6.529,6.135-7.847,11.717-5.929,17.476s5.8,2.62,5.8,2.62-.265-4.53,1.6-5.827,2.665,1.978,2.665,1.978Z" transform="translate(-646.958 -1816.996)"/>
        <path id="Path_6902" data-name="Path 6902" d="M724.241,1899.245s1.12-6.384-2.564-5.656-.735,6.065.526,7.965Z" transform="translate(-670.233 -1878.721)" fill="url(#linear-gradient-18)"/>
        <path id="Path_6903" data-name="Path 6903" d="M512.029,1827.651a2.635,2.635,0,0,0,.37-4.652c-5.722-3.731-15.547-6.974-25.42,4.428-11.119,12.844-17.35,18.962-20.9,18.929a2.647,2.647,0,0,0-2.127,4.371c1.146,1.291,3.1,2.444,6.328,3.119C495.2,1859.066,500.47,1832.176,512.029,1827.651Z" transform="translate(-463.286 -1819.039)"/>
      </g>
      <path id="Path_6904" data-name="Path 6904" d="M603.42,2358.153c1.144-9.211,11.965-20.172,11.965-20.172,17.205,2.572,25.313-3.361,25.313-3.361s3.613,12.135,3.661,21.625,1.875,70.6,1.875,70.6c-16.838,7.057-37.971,3.164-37.971,3.164C609.566,2408.069,602.277,2367.364,603.42,2358.153Z" transform="translate(-576.204 -2234.453)" fill="#b5b5b5"/>
    </g>
  </g>
</svg>
