<svg id="Configurable_Dashboards" data-name="Configurable Dashboards" xmlns="http://www.w3.org/2000/svg" width="40" height="40" viewBox="0 0 40 40">
  <path id="Path_7462" data-name="Path 7462" d="M41.421,26.758l-1.667-.389a11.3,11.3,0,0,0-.337-1.261l1.242-1.165a.667.667,0,0,0,.152-.761,13.369,13.369,0,0,0-1.329-2.294.666.666,0,0,0-.735-.248l-1.616.491A11.312,11.312,0,0,0,36.2,20.2l.492-1.615a.667.667,0,0,0-.248-.735q-.538-.388-1.112-.721V5.333A3.337,3.337,0,0,0,32,2H5.333A3.337,3.337,0,0,0,2,5.333V22.667A3.337,3.337,0,0,0,5.333,26h7.049L10.2,32H6.667A.666.666,0,0,0,6,32.667,3.337,3.337,0,0,0,9.333,36h8.23c.1.147.185.3.288.445a.665.665,0,0,0,.735.248L20.2,36.2a11.31,11.31,0,0,0,.929.929l-.492,1.615a.667.667,0,0,0,.248.735,13.277,13.277,0,0,0,2.295,1.329.664.664,0,0,0,.761-.152l1.164-1.243a11.157,11.157,0,0,0,1.261.337l.389,1.668a.667.667,0,0,0,.584.512c.449.045.9.067,1.324.067s.875-.023,1.325-.067a.667.667,0,0,0,.584-.512l.389-1.668a11.2,11.2,0,0,0,1.261-.337l1.164,1.243a.666.666,0,0,0,.761.152,13.329,13.329,0,0,0,2.293-1.329.667.667,0,0,0,.249-.735L36.2,37.13a11.412,11.412,0,0,0,.929-.929l1.616.491a.668.668,0,0,0,.735-.248,13.362,13.362,0,0,0,1.329-2.294.666.666,0,0,0-.152-.761l-1.242-1.165a11.272,11.272,0,0,0,.337-1.261l1.667-.389a.666.666,0,0,0,.512-.583c.043-.448.066-.894.066-1.324s-.023-.876-.067-1.325a.665.665,0,0,0-.511-.583ZM5.333,3.333H32a2,2,0,0,1,2,2V16.481a.662.662,0,0,0-.61.193l-1.164,1.243a11.158,11.158,0,0,0-1.261-.337l-.389-1.668a.667.667,0,0,0-.584-.512,13.234,13.234,0,0,0-2.65,0,.667.667,0,0,0-.584.512l-.389,1.668a11.2,11.2,0,0,0-1.261.337l-1.164-1.243a.668.668,0,0,0-.761-.152,13.329,13.329,0,0,0-2.293,1.329.667.667,0,0,0-.249.735l.228.747H7.333v-8H14V10H7.333V6H30v8h1.333V5.333a.666.666,0,0,0-.667-.667h-24A.666.666,0,0,0,6,5.333v14H3.333v-14a2,2,0,0,1,2-2ZM20.667,20.667c-.155.155-.319.3-.465.464l-1.527-.464Zm-17.333,2v-2H18.139a.657.657,0,0,0-.288.221,13.361,13.361,0,0,0-1.329,2.294.666.666,0,0,0,.152.761l.772.723H5.333a2,2,0,0,1-2-2ZM13.8,26h3.867c-.03.123-.062.245-.087.369l-1.667.389a.666.666,0,0,0-.512.583c-.044.449-.067.9-.067,1.325s.023.875.067,1.325a.666.666,0,0,0,.512.583l1.667.389c.072.35.172.693.277,1.035H11.619ZM9.333,34.667a2,2,0,0,1-1.886-1.333h9.287l-.061.057a.667.667,0,0,0-.152.761c.079.175.178.343.265.515Zm31.311-5.279-1.618.378a.666.666,0,0,0-.506.541,9.956,9.956,0,0,1-.5,1.874.666.666,0,0,0,.169.721l1.2,1.129a11.981,11.981,0,0,1-.722,1.247L37.1,34.8a.664.664,0,0,0-.709.214,10.063,10.063,0,0,1-1.379,1.379.667.667,0,0,0-.214.709l.477,1.567a12.2,12.2,0,0,1-1.247.723l-1.128-1.2a.666.666,0,0,0-.721-.168,9.969,9.969,0,0,1-1.875.5.666.666,0,0,0-.541.506l-.377,1.618a11.574,11.574,0,0,1-1.443,0l-.377-1.618a.666.666,0,0,0-.541-.506,10.034,10.034,0,0,1-1.875-.5.666.666,0,0,0-.721.168l-1.128,1.2a11.928,11.928,0,0,1-1.247-.723l.477-1.567a.668.668,0,0,0-.214-.709,10.064,10.064,0,0,1-1.379-1.379.666.666,0,0,0-.709-.214l-1.567.476a12.058,12.058,0,0,1-.723-1.247l1.2-1.129a.666.666,0,0,0,.169-.721,9.977,9.977,0,0,1-.5-1.875.666.666,0,0,0-.506-.541l-1.618-.378c-.016-.244-.024-.485-.024-.721s.008-.477.023-.721l1.618-.378a.666.666,0,0,0,.506-.541,9.929,9.929,0,0,1,.5-1.874.666.666,0,0,0-.168-.721l-1.2-1.129a12.053,12.053,0,0,1,.722-1.247l1.567.476a.668.668,0,0,0,.709-.214,10.1,10.1,0,0,1,1.379-1.379.667.667,0,0,0,.214-.709l-.477-1.567A12.2,12.2,0,0,1,23.3,17.94l1.128,1.2a.666.666,0,0,0,.721.168,9.969,9.969,0,0,1,1.875-.5.666.666,0,0,0,.541-.506l.377-1.618a11.574,11.574,0,0,1,1.443,0l.377,1.618a.666.666,0,0,0,.541.506,10.034,10.034,0,0,1,1.875.5.668.668,0,0,0,.721-.168l1.128-1.2a11.928,11.928,0,0,1,1.247.723L34.8,20.229a.668.668,0,0,0,.214.709,10.063,10.063,0,0,1,1.379,1.379.665.665,0,0,0,.709.214l1.567-.476a12.06,12.06,0,0,1,.723,1.247l-1.2,1.129a.666.666,0,0,0-.169.721,9.976,9.976,0,0,1,.5,1.875.666.666,0,0,0,.506.541l1.618.378c.016.245.024.487.024.722S40.659,29.143,40.644,29.388Z" transform="translate(-2 -2)"/>
  <path id="Path_7463" data-name="Path 7463" d="M44.333,39.667a4.667,4.667,0,1,0-4.667,4.667A4.672,4.672,0,0,0,44.333,39.667ZM39.667,43A3.333,3.333,0,1,1,43,39.667,3.337,3.337,0,0,1,39.667,43Z" transform="translate(-13 -13)"/>
  <path id="Path_7464" data-name="Path 7464" d="M32.988,35.751l-1.079-.782a7.979,7.979,0,0,0-.734,1.232l1.2.577A6.674,6.674,0,0,1,32.988,35.751Z" transform="translate(-11.725 -12.99)"/>
  <path id="Path_7465" data-name="Path 7465" d="M40.779,31.346l-.063-1.332a8.077,8.077,0,0,0-1.421.195l.3,1.3A6.745,6.745,0,0,1,40.779,31.346Z" transform="translate(-14.432 -11.338)"/>
  <path id="Path_7466" data-name="Path 7466" d="M49.036,32.593l-.829,1.044a6.76,6.76,0,0,1,.868.824l1-.881a8.164,8.164,0,0,0-1.039-.987Z" transform="translate(-17.402 -12.198)"/>
  <path id="Path_7467" data-name="Path 7467" d="M31.721,44.681l-1.285.355a7.862,7.862,0,0,0,.506,1.342l1.2-.581A6.608,6.608,0,0,1,31.721,44.681Z" transform="translate(-11.479 -16.227)"/>
  <path id="Path_7468" data-name="Path 7468" d="M36.323,32.618l-.637-1.172a8.108,8.108,0,0,0-1.193.793l.835,1.04A6.677,6.677,0,0,1,36.323,32.618Z" transform="translate(-12.831 -11.815)"/>
  <path id="Path_7469" data-name="Path 7469" d="M51.841,43.176l1.313.237a8.077,8.077,0,0,0,.127-1.427v-.029l-1.333.029A6.736,6.736,0,0,1,51.841,43.176Z" transform="translate(-18.614 -15.319)"/>
  <path id="Path_7470" data-name="Path 7470" d="M42.459,51.91l.06,1.332a8.072,8.072,0,0,0,1.421-.192l-.3-1.3A6.724,6.724,0,0,1,42.459,51.91Z" transform="translate(-15.486 -18.583)"/>
  <path id="Path_7471" data-name="Path 7471" d="M50.094,47.363l1.078.785a8,8,0,0,0,.736-1.231l-1.2-.579A6.774,6.774,0,0,1,50.094,47.363Z" transform="translate(-18.031 -16.779)"/>
  <path id="Path_7472" data-name="Path 7472" d="M51.42,38.452l1.285-.357a7.837,7.837,0,0,0-.51-1.342l-1.2.584A6.514,6.514,0,0,1,51.42,38.452Z" transform="translate(-18.332 -13.584)"/>
  <path id="Path_7473" data-name="Path 7473" d="M46.745,50.475l.633,1.173a7.967,7.967,0,0,0,1.2-.791l-.832-1.041A6.745,6.745,0,0,1,46.745,50.475Z" transform="translate(-16.915 -17.939)"/>
  <path id="Path_7474" data-name="Path 7474" d="M37.3,52.43a7.941,7.941,0,0,0,1.366.441l.293-1.3a6.557,6.557,0,0,1-1.135-.367Z" transform="translate(-13.765 -18.401)"/>
  <path id="Path_7475" data-name="Path 7475" d="M33.978,48.59l-1,.879a8.046,8.046,0,0,0,1.038.989l.829-1.043A6.607,6.607,0,0,1,33.978,48.59Z" transform="translate(-12.325 -17.53)"/>
  <path id="Path_7476" data-name="Path 7476" d="M45.854,30.729a7.9,7.9,0,0,0-1.367-.439l-.292,1.3a6.561,6.561,0,0,1,1.136.365Z" transform="translate(-16.065 -11.43)"/>
  <path id="Path_7477" data-name="Path 7477" d="M31.437,40.117l-1.313-.234A8.044,8.044,0,0,0,30,41.294v.015l1.333-.015A6.8,6.8,0,0,1,31.437,40.117Z" transform="translate(-11.333 -14.628)"/>
  <path id="Path_7478" data-name="Path 7478" d="M32.138,11.293l-.943.943,1.529,1.529H24.333A3.337,3.337,0,0,0,21,17.1v4h1.333v-4a2,2,0,0,1,2-2h8.391L31.2,16.626l.943.943L34.8,14.9a.666.666,0,0,0,0-.943Z" transform="translate(-8.333 -5.098)"/>
  <path id="Path_7479" data-name="Path 7479" d="M12,10h1.333v1.333H12Z" transform="translate(-5.333 -4.667)"/>
  <path id="Path_7480" data-name="Path 7480" d="M16,10h1.333v1.333H16Z" transform="translate(-6.667 -4.667)"/>
  <path id="Path_7481" data-name="Path 7481" d="M20,10h1.333v1.333H20Z" transform="translate(-8 -4.667)"/>
</svg>
