<svg id="Custom_Entity_Manager" data-name="Custom Entity Manager" xmlns="http://www.w3.org/2000/svg" width="40" height="40" viewBox="0 0 40 40">
  <path id="Path_10864" data-name="Path 10864" d="M162.3,217.333a4,4,0,0,0,1.033-2.667v-.287A3.333,3.333,0,0,0,162,208h-7.467a1.206,1.206,0,0,0-1.2,1.2v2.133a3.333,3.333,0,0,0,2,3.047v.287a4,4,0,0,0,1.033,2.667A4.667,4.667,0,0,0,152,222v8a.667.667,0,0,0,1.333,0v-8a3.334,3.334,0,0,1,3.333-3.333h.78a2,2,0,0,0,.46,2.067l-.573,4.52a.665.665,0,0,0,.107.447l1.333,2a.666.666,0,0,0,1.106,0l1.333-2a.665.665,0,0,0,.107-.447l-.567-4.527a2,2,0,0,0,.467-2.06H162A3.333,3.333,0,0,1,165.334,222v8a.667.667,0,0,0,1.333,0v-8A4.667,4.667,0,0,0,162.3,217.333Zm-5.633-2.667V212H162v2.667a2.667,2.667,0,1,1-5.333,0Zm-2-3.333v-2H162a1.993,1.993,0,0,1,1.333,3.48v-1.48a.667.667,0,0,0-.667-.667H156a.667.667,0,0,0-.667.667v1.48A2,2,0,0,1,154.667,211.333Zm4.667,14.8-.667-.967.507-3.833h.32l.507,3.833Zm.667-6.8a.667.667,0,1,1-.667-.667A.666.666,0,0,1,160,219.333Zm0,0" transform="translate(-139.334 -190.667)"/>
  <path id="Path_10865" data-name="Path 10865" d="M184.667,376a.667.667,0,0,0-.667.667V384a.667.667,0,0,0,1.333,0v-7.333A.667.667,0,0,0,184.667,376Zm0,0" transform="translate(-168.667 -344.667)"/>
  <path id="Path_10866" data-name="Path 10866" d="M280.667,376a.667.667,0,0,0-.667.667V384a.667.667,0,0,0,1.333,0v-7.333A.667.667,0,0,0,280.667,376Zm0,0" transform="translate(-256.667 -344.667)"/>
  <path id="Path_10867" data-name="Path 10867" d="M329.143,224.206a3.333,3.333,0,0,0,.84-2.207v-2.667A3.334,3.334,0,0,0,326.65,216h-2.667a.667.667,0,0,0-.667.667V222a3.334,3.334,0,0,0,.84,2.207,3.26,3.26,0,0,0-1.04.627.666.666,0,1,0,.88,1,1.832,1.832,0,0,1,.407-.28l1.58,2.667V234a.667.667,0,1,0,1.333,0v-5.813l1.58-2.667a2,2,0,0,1,1.087,1.813V234a.667.667,0,1,0,1.333,0v-6.667a3.333,3.333,0,0,0-2.173-3.127ZM324.65,222v-2h4v2a2,2,0,0,1-4,0Zm0-4.667h2a2,2,0,0,1,1.887,1.333H324.65Zm2,9.373-.82-1.373h1.64Zm0,0" transform="translate(-295.983 -198)"/>
  <path id="Path_10868" data-name="Path 10868" d="M64.36,224.974a3.422,3.422,0,0,0-1.2-.767A3.333,3.333,0,0,0,64,222v-4a2,2,0,0,0-2-2H59.333a2,2,0,0,0-2,2v4a3.333,3.333,0,0,0,.84,2.207A3.333,3.333,0,0,0,56,227.334V234a.667.667,0,0,0,1.333,0v-6.667a2,2,0,0,1,1.087-1.78L60,228.22V234a.667.667,0,0,0,1.333,0v-5.813l1.58-2.667a1.9,1.9,0,0,1,.5.367.669.669,0,0,0,.947-.947ZM58.666,222v-2h4v2a2,2,0,1,1-4,0Zm0-4a.667.667,0,0,1,.667-.667H62a.667.667,0,0,1,.667.667v.667h-4Zm2,8.707-.82-1.373h1.64Zm0,0" transform="translate(-51.333 -198)"/>
  <path id="Path_10869" data-name="Path 10869" d="M104.667,16.667a.667.667,0,0,0,.667-.667V1.333h20V16a.667.667,0,1,0,1.333,0V.667A.667.667,0,0,0,126,0H104.667A.667.667,0,0,0,104,.667V16A.667.667,0,0,0,104.667,16.667Zm0,0" transform="translate(-95.333)"/>
  <path id="Path_10870" data-name="Path 10870" d="M173.333,35.333a.667.667,0,0,0-.667-.667H161.333V33.333h11.333a.667.667,0,1,0,0-1.333h-12a.667.667,0,0,0-.667.667v2.667a.667.667,0,0,0,.667.667h12A.667.667,0,0,0,173.333,35.333Zm0,0" transform="translate(-146.667 -29.333)"/>
  <path id="Path_10871" data-name="Path 10871" d="M140.667,120a.667.667,0,0,0-.667.667V124a.667.667,0,0,0,.667.667H144a.667.667,0,0,0,.667-.667v-3.333A.667.667,0,0,0,144,120Zm2.667,3.333h-2v-2h2Zm0,0" transform="translate(-128.333 -110)"/>
  <path id="Path_10872" data-name="Path 10872" d="M216,121.333A.667.667,0,0,0,216,120h-3.333a.667.667,0,0,0-.667.667V124a.667.667,0,0,0,.667.667H216a.667.667,0,0,0,0-1.333h-2.667v-2Zm0,0" transform="translate(-194.333 -110)"/>
  <path id="Path_10873" data-name="Path 10873" d="M284.667,124.667H288a.667.667,0,0,0,.667-.667v-3.333A.667.667,0,0,0,288,120h-3.333a.667.667,0,0,0-.667.667V124A.667.667,0,0,0,284.667,124.667Zm.667-3.333h2v2h-2Zm0,0" transform="translate(-260.333 -110)"/>
  <path id="Path_10874" data-name="Path 10874" d="M398.667,88h-6a.667.667,0,1,0,0,1.333H398v1.333h-5.333a.667.667,0,1,0,0,1.333H398v1.333h-5.333a.667.667,0,1,0,0,1.333H398V96h-5.333a.667.667,0,1,0,0,1.333H398v1.333h-3.333a.667.667,0,1,0,0,1.333H398v1.333h-2.667a.667.667,0,0,0,0,1.333H398v14a.667.667,0,0,0,1.333,0v-28A.667.667,0,0,0,398.667,88Zm0,0" transform="translate(-359.333 -80.667)"/>
  <path id="Path_10875" data-name="Path 10875" d="M7.333,32.667A.667.667,0,0,0,6.667,32h-6A.667.667,0,0,0,0,32.667V65.333a.667.667,0,0,0,1.333,0v-32H6.667A.667.667,0,0,0,7.333,32.667Zm0,0" transform="translate(0 -29.333)"/>
  <path id="Path_10876" data-name="Path 10876" d="M36,73.333A.667.667,0,1,0,36,72H32.667a.667.667,0,0,0-.667.667v2.667a.667.667,0,0,0,.667.667H36a.667.667,0,1,0,0-1.333H33.333V73.333Zm0,0" transform="translate(-29.333 -66)"/>
  <path id="Path_10877" data-name="Path 10877" d="M36,145.333A.667.667,0,1,0,36,144H32.667a.667.667,0,0,0-.667.667v2.667a.667.667,0,0,0,.667.667H36a.667.667,0,1,0,0-1.333H33.333v-1.333Zm0,0" transform="translate(-29.333 -132)"/>
  <path id="Path_10878" data-name="Path 10878" d="M33.333,218.667v-1.333H34A.667.667,0,1,0,34,216H32.667a.667.667,0,0,0-.667.667v2.667a.667.667,0,0,0,.667.667h.667a.667.667,0,1,0,0-1.333Zm0,0" transform="translate(-29.333 -198)"/>
</svg>
