<svg xmlns="http://www.w3.org/2000/svg" width="34.599" height="34.631" viewBox="0 0 34.599 34.631">
  <g id="Data_Approval_and_" data-name="Data Approval and " transform="translate(0.3 0.302)">
    <path id="Path_7492" data-name="Path 7492" d="M29.441,22.565l-6.812,6.812L19.023,25.77l-.8.8,4.007,4.007a.567.567,0,0,0,.8,0l7.212-7.212Z" transform="translate(-9.03 -10.911)" stroke="#000" stroke-width="0.6"/>
    <path id="Path_7493" data-name="Path 7493" d="M34.3,24.665h-.567v-1.7A3.97,3.97,0,0,0,31.29,19.3a13.859,13.859,0,0,0,.176-2.108V7.1a.559.559,0,0,0-.4-.538L16.9,2.027a.5.5,0,0,0-.34,0L2.4,6.56A.559.559,0,0,0,2,7.1V17.2A14.13,14.13,0,0,0,7.054,28.042l9.316,7.825a.569.569,0,0,0,.725,0l4.17-3.5V34.3a1.705,1.705,0,0,0,1.7,1.7H34.3A1.705,1.705,0,0,0,36,34.3V26.364A1.705,1.705,0,0,0,34.3,24.665Zm-1.7-1.7v1.7H31.465v-1.7a1.705,1.705,0,0,0-1.7-1.7H27.5a1.705,1.705,0,0,0-1.7,1.7v1.7H24.666v-1.7A2.833,2.833,0,0,1,27.5,20.131h2.267A2.833,2.833,0,0,1,32.6,22.965Zm-2.267,0v1.7h-3.4v-1.7A.567.567,0,0,1,27.5,22.4h2.267A.567.567,0,0,1,30.332,22.965Zm-9.066,3.4v4.516l-4.533,3.808L7.78,27.169A12.989,12.989,0,0,1,3.133,17.2V7.512l13.6-4.352,13.6,4.352V17.2a13.19,13.19,0,0,1-.142,1.825A3.56,3.56,0,0,0,29.765,19H27.5a3.971,3.971,0,0,0-3.966,3.966v1.7h-.567a1.705,1.705,0,0,0-1.7,1.7Zm13.6,7.933a.567.567,0,0,1-.567.567H22.966A.567.567,0,0,1,22.4,34.3V26.364a.567.567,0,0,1,.567-.567H34.3a.567.567,0,0,1,.567.567Z" transform="translate(-2 -1.997)" stroke="#000" stroke-width="0.6"/>
    <path id="Path_7494" data-name="Path 7494" d="M49.237,46.584l-2.267-.567a.566.566,0,0,0-.275,0l-2.267.567a.567.567,0,0,0-.429.55v1.894a2.814,2.814,0,0,0,.83,2l1.6,1.6a.567.567,0,0,0,.8,0l1.6-1.6a2.814,2.814,0,0,0,.83-2V47.133a.567.567,0,0,0-.429-.55Zm-.7,2.444a1.711,1.711,0,0,1-.5,1.2l-1.2,1.2-1.2-1.2a1.711,1.711,0,0,1-.5-1.2V47.576l1.7-.425,1.7.425Z" transform="translate(-20.201 -21.066)" stroke="#000" stroke-width="0.6"/>
  </g>
</svg>
