<svg id="Data_Security_and_" data-name="Data Security and " xmlns="http://www.w3.org/2000/svg" width="40" height="38.333" viewBox="0 0 40 38.333">
  <path id="Path_7495" data-name="Path 7495" d="M22,33.333a.836.836,0,0,1-.323-.065C21.28,33.1,12,29.09,12,20.893V13.929a.834.834,0,0,1,.567-.79l9.167-3.095a.835.835,0,0,1,.533,0l9.167,3.095a.833.833,0,0,1,.567.79v6.965c0,8.2-9.28,12.207-9.677,12.375A.836.836,0,0,1,22,33.333Zm-8.333-18.8v6.365c0,6.307,6.758,9.93,8.333,10.688,1.573-.76,8.333-4.4,8.333-10.688V14.528L22,11.713Z" transform="translate(8 5)"/>
  <path id="Path_7496" data-name="Path 7496" d="M19.166,22a.391.391,0,0,1-.045,0,.827.827,0,0,1-.605-.312L15.183,17.52a.834.834,0,1,1,1.3-1.042l2.75,3.438,5.175-5.173a.833.833,0,0,1,1.178,1.178l-5.833,5.833A.83.83,0,0,1,19.166,22Z" transform="translate(10 8)"/>
  <path id="Path_7497" data-name="Path 7497" d="M30.833,12.667h-25A5.833,5.833,0,1,1,5.833,1h25a5.833,5.833,0,0,1,0,11.667Zm-25-10a4.167,4.167,0,1,0,0,8.333h25a4.167,4.167,0,1,0,0-8.333Z" transform="translate(0 -1)"/>
  <path id="Path_7498" data-name="Path 7498" d="M5.5,8A2.5,2.5,0,1,1,8,5.5,2.5,2.5,0,0,1,5.5,8Zm0-3.333a.833.833,0,1,0,.833.833A.836.836,0,0,0,5.5,4.667Z" transform="translate(2 0.333)"/>
  <path id="Path_7499" data-name="Path 7499" d="M10.5,8A2.5,2.5,0,1,1,13,5.5,2.5,2.5,0,0,1,10.5,8Zm0-3.333a.833.833,0,1,0,.833.833A.836.836,0,0,0,10.5,4.667Z" transform="translate(5.333 0.333)"/>
  <path id="Path_7500" data-name="Path 7500" d="M15.833,18.667h-10A5.833,5.833,0,0,1,5.833,7h25A5.715,5.715,0,0,1,34.38,8.21a.834.834,0,1,1-1.025,1.315,4.058,4.058,0,0,0-2.522-.858h-25a4.167,4.167,0,1,0,0,8.333h10a.833.833,0,1,1,0,1.667Z" transform="translate(0 3)"/>
  <path id="Path_7501" data-name="Path 7501" d="M5.5,14A2.5,2.5,0,1,1,8,11.5,2.5,2.5,0,0,1,5.5,14Zm0-3.333a.833.833,0,1,0,.833.833A.836.836,0,0,0,5.5,10.667Z" transform="translate(2 4.333)"/>
  <path id="Path_7502" data-name="Path 7502" d="M10.5,14A2.5,2.5,0,1,1,13,11.5,2.5,2.5,0,0,1,10.5,14Zm0-3.333a.833.833,0,1,0,.833.833A.836.836,0,0,0,10.5,10.667Z" transform="translate(5.333 4.333)"/>
  <path id="Path_7503" data-name="Path 7503" d="M15.833,24.667h-10A5.833,5.833,0,0,1,5.833,13h10a.833.833,0,0,1,0,1.667h-10a4.167,4.167,0,1,0,0,8.333h10a.833.833,0,0,1,0,1.667Z" transform="translate(0 7)"/>
  <path id="Path_7504" data-name="Path 7504" d="M5.5,20A2.5,2.5,0,1,1,8,17.5,2.5,2.5,0,0,1,5.5,20Zm0-3.333a.833.833,0,1,0,.833.833A.836.836,0,0,0,5.5,16.667Z" transform="translate(2 8.333)"/>
  <path id="Path_7505" data-name="Path 7505" d="M10.5,20A2.5,2.5,0,1,1,13,17.5,2.5,2.5,0,0,1,10.5,20Zm0-3.333a.833.833,0,1,0,.833.833A.836.836,0,0,0,10.5,16.667Z" transform="translate(5.333 8.333)"/>
</svg>
