<svg id="Defined_Data_Structure" data-name="Defined Data Structure" xmlns="http://www.w3.org/2000/svg" width="52.723" height="40" viewBox="0 0 52.723 40">
  <g id="Group_6141" data-name="Group 6141" transform="translate(0 0)">
    <path id="Path_7486" data-name="Path 7486" d="M50.585,75.344H46.412V69.949a.962.962,0,0,0-1.018-1.018H27.379V64.555h4.173a2.087,2.087,0,0,0,2.137-2.137V52.137A2.087,2.087,0,0,0,31.552,50H21.17a2.087,2.087,0,0,0-2.137,2.137V62.519a2.087,2.087,0,0,0,2.137,2.137h4.173v4.275H7.328A.962.962,0,0,0,6.31,69.949v5.394H2.137A2.087,2.087,0,0,0,0,77.481V87.863A2.087,2.087,0,0,0,2.137,90H12.519a2.087,2.087,0,0,0,2.137-2.137V77.481a2.087,2.087,0,0,0-2.137-2.137H8.346V70.967h17v4.377H21.17a2.087,2.087,0,0,0-2.137,2.137V87.863A2.087,2.087,0,0,0,21.17,90H31.552a2.087,2.087,0,0,0,2.137-2.137V77.481a2.087,2.087,0,0,0-2.137-2.137H27.379V70.967h17v4.377H40.2a2.087,2.087,0,0,0-2.137,2.137V87.863A2.087,2.087,0,0,0,40.2,90H50.585a2.087,2.087,0,0,0,2.137-2.137V77.481A2.15,2.15,0,0,0,50.585,75.344ZM12.621,77.481c-.1-.1,0-.1,0,0V87.863c0,.1,0,.1-.1.1H2.137c-.1,0-.1,0-.1-.1V77.481c0-.1,0-.1.1-.1Zm19.033,0c-.1-.1,0-.1,0,0V87.863c0,.1,0,.1-.1.1H21.17c-.1,0-.1,0-.1-.1V77.481c0-.1,0-.1.1-.1ZM21.069,62.417c.1.1,0,.1,0,0V52.137c0-.1,0-.1.1-.1H31.552c.1,0,.1,0,.1.1V62.519c0,.1,0,.1-.1.1ZM50.687,87.761c0,.1-.1.1,0,0l-10.483.1c-.1,0-.1,0-.1-.1V77.481c0-.1,0-.1.1-.1H50.585c.1,0,.1,0,.1.1Z" transform="translate(0 -50)"/>
  </g>
</svg>
