<svg xmlns="http://www.w3.org/2000/svg" width="41.089" height="35.11" viewBox="0 0 41.089 35.11">
  <g id="Dynamic_Reporting_" data-name="Dynamic Reporting " transform="translate(0.2 0.2)">
    <path id="Path_7487" data-name="Path 7487" d="M0,7.988V42.7H40.689V7.988Zm34.9,11.6V14.163h4.611v-.187H34.9V9.111h4.664V25.522a1.937,1.937,0,0,0-.159-.132h.107V25.2h-.4a1.872,1.872,0,0,0-1.812,0h-.753L34.9,24.159V19.776h4.611v-.187Zm1.946,5.8h.168c-.024.02-.049.039-.073.06Zm1.364.327a1.2,1.2,0,1,1-1.2,1.2A1.2,1.2,0,0,1,38.212,25.717ZM34.9,25.044l.25.158H34.9Zm-6.289-3.7a1.2,1.2,0,0,1,.489-.961V22.31A1.2,1.2,0,0,1,28.613,21.348Zm.675-1.075a1.187,1.187,0,0,1,.525-.126,1.2,1.2,0,1,1,0,2.4,1.186,1.186,0,0,1-.525-.126Zm1.668-.5h3.758v4.264l-3.1-1.959a1.929,1.929,0,0,0-.661-2.3ZM29.289,9.111h5.426v4.865H29.289Zm5.426,5.052v5.426H30.64a1.827,1.827,0,0,0-1.351-.109V14.163ZM23.675,9.111H29.1v4.865H23.675Zm0,5.052H29.1v5.375c-.039.015-.076.033-.114.051H23.675Zm0,5.613h5a1.915,1.915,0,0,0-.562,2.5L24.016,25.2h-.341V19.776Zm.079,5.613-.079.056V25.39Zm-1.3,0h1.036v.19l-.54.386A1.961,1.961,0,0,0,22.452,25.39Zm-4.39-1.526L19.388,25.2H18.062Zm3.2,1.853a1.2,1.2,0,1,1-1.2,1.2A1.2,1.2,0,0,1,21.257,25.717Zm-3.2-16.607h5.426v4.865H18.062Zm0,5.052h5.426v5.426H18.062Zm5.426,5.613V25.2H22.163a1.875,1.875,0,0,0-1.753-.032L18.062,22.8V19.776Zm-5.613,2.835-2.808-2.835h2.808Zm-5.426-13.5h5.426v4.865H12.448Zm5.426,5.052v5.426H14.881l-.542-.547a1.924,1.924,0,0,0,.2-.844,1.952,1.952,0,0,0-1.949-1.949c-.048,0-.094.011-.141.014v-2.1ZM11.389,18.2a1.2,1.2,0,0,1,.872-1.149v2.3A1.2,1.2,0,0,1,11.389,18.2Zm1.059-1.187A1.175,1.175,0,0,1,12.59,17a1.2,1.2,0,1,1,0,2.4,1.175,1.175,0,0,1-.141-.014Zm-5.613-7.9h5.426v4.865H6.835Zm0,5.052h5.426v2.119A1.949,1.949,0,0,0,10.641,18.2a1.928,1.928,0,0,0,.223.887l-.348.5H6.835V14.163Zm3.552,5.613-3.551,5.14v-5.14ZM6.648,9.111v4.865H1.175v.187H6.648v5.426H1.175v.187H6.648v5.411l-.01.015H1.175v.187H6.508L5.672,26.6a1.928,1.928,0,0,0-1.248-.465A1.947,1.947,0,0,0,3.04,29.454L1.713,30.816H1.175V31h.356l-.408.419V9.111ZM3.223,28.085a1.2,1.2,0,1,1,1.2,1.2A1.2,1.2,0,0,1,3.223,28.085ZM6.648,36.43H1.175v.187H6.648v4.959H1.123V32.495L2.575,31H6.648Zm-3.89-5.613.911-.935a1.926,1.926,0,0,0,.756.153,1.952,1.952,0,0,0,1.949-1.949,1.919,1.919,0,0,0-.215-.871l.49-.709v4.312Zm9.5,10.759H6.835V36.617h5.426Zm0-5.146H6.835V31h5.426Zm0-5.613H6.835V26.234l.583-.844h4.843ZM7.548,25.2,11.3,19.776h.159a1.933,1.933,0,0,0,.806.338V25.2ZM17.875,41.575H12.448V36.617h5.426Zm0-5.146H12.448V31h5.426Zm0-5.613H12.448V25.39h5.426ZM12.448,25.2v-5.07c.048,0,.093.014.141.014a1.933,1.933,0,0,0,1.135-.371h.288l3.862,3.9V25.2Zm11.04,16.373H18.062V36.617h5.426Zm0-5.146H18.062V31h5.426Zm-5.426-5.613V25.39h1.512l.235.237a1.946,1.946,0,1,0,3.4,1.291,1.959,1.959,0,0,0-.02-.2l.3-.216v4.315ZM29.1,41.575H23.675V36.617H29.1Zm0-5.146H23.675V31H29.1Zm0-5.613H23.675v-4.45l1.365-.976H29.1ZM25.3,25.2l3.286-2.351a1.941,1.941,0,0,0,.513.306V25.2Zm9.412,16.373H29.289V36.617h5.426Zm0-5.146H29.289V31h5.426Zm0-5.613H29.289V25.39h5.426ZM29.289,25.2V23.216a1.919,1.919,0,0,0,.525.081,1.941,1.941,0,0,0,1.394-.591l3.508,2.22V25.2ZM34.9,41.575V36.617h4.611V36.43H34.9V31h4.611v-.187H34.9V25.39h.546l1.031.652a1.927,1.927,0,0,0-.218.876,1.946,1.946,0,0,0,3.3,1.4V41.575H34.9Z" transform="translate(0 -7.988)" stroke="#000" stroke-width="0.4"/>
  </g>
</svg>
