<svg xmlns="http://www.w3.org/2000/svg" width="40.4" height="40.4" viewBox="0 0 40.4 40.4">
  <g id="External_System_" data-name="External System " transform="translate(0.2 0.2)">
    <g id="Group_6142" data-name="Group 6142" transform="translate(0 0)">
      <path id="Path_7488" data-name="Path 7488" d="M20.586,14.16v-12A2.166,2.166,0,0,0,18.422,0H2.164A2.166,2.166,0,0,0,0,2.164v2.23a.586.586,0,0,0,1.172,0V2.164a.993.993,0,0,1,.992-.992H18.422a.993.993,0,0,1,.992.992V12.627H1.172v-5.5A.586.586,0,0,0,0,7.128V14.16a2.167,2.167,0,0,0,2.164,2.164H6.983l-.915,3.09h-.51a.586.586,0,0,0,0,1.172h9.47a.586.586,0,1,0,0-1.172h-.51l-.915-3.09h4.819A2.167,2.167,0,0,0,20.586,14.16ZM13.3,19.414H7.29l.915-3.09h4.176Zm5.125-4.262H2.164a.994.994,0,0,1-.992-.992V13.8H19.414v.361A.994.994,0,0,1,18.422,15.152Z" transform="translate(0 0)" stroke="#000" stroke-width="0.4"/>
      <path id="Path_7489" data-name="Path 7489" d="M268.5,252.83a.586.586,0,0,0,.586-.586v-1.58a2.166,2.166,0,0,0-2.164-2.164H250.664a2.166,2.166,0,0,0-2.164,2.164v12a2.167,2.167,0,0,0,2.164,2.164h4.819l-.915,3.09h-.51a.586.586,0,1,0,0,1.172h9.47a.586.586,0,0,0,0-1.172h-.51l-.915-3.09h4.819a2.167,2.167,0,0,0,2.164-2.164v-7.681a.586.586,0,0,0-1.172,0v6.148H255.232a.586.586,0,1,0,0,1.172h12.682v.361a.993.993,0,0,1-.992.992H250.664a.993.993,0,0,1-.992-.992V262.3H252.5a.586.586,0,0,0,0-1.172h-2.826V250.664a.993.993,0,0,1,.992-.992h16.258a.993.993,0,0,1,.992.992v1.58A.586.586,0,0,0,268.5,252.83Zm-6.7,15.084h-6.007l.915-3.09h4.176Z" transform="translate(-229.086 -229.086)" stroke="#000" stroke-width="0.4"/>
      <path id="Path_7490" data-name="Path 7490" d="M117.117,290.927h-5.429a1.856,1.856,0,0,0-1.167-1.167v-8.349a.586.586,0,0,0-1.172,0v8.349a1.848,1.848,0,1,0,2.339,2.339h5.429a.586.586,0,1,0,0-1.172Zm-7.182,1.263a.677.677,0,1,1,.677-.677A.678.678,0,0,1,109.936,292.189Z" transform="translate(-99.643 -258.885)" stroke="#000" stroke-width="0.4"/>
      <path id="Path_7491" data-name="Path 7491" d="M281.411,73.146h5.429a1.856,1.856,0,0,0,1.167,1.167v8.349a.586.586,0,0,0,1.172,0V74.313a1.848,1.848,0,1,0-2.339-2.339h-5.429a.586.586,0,0,0,0,1.172Zm7.182-1.263a.677.677,0,1,1-.677.677A.678.678,0,0,1,288.593,71.883Z" transform="translate(-258.885 -65.187)" stroke="#000" stroke-width="0.4"/>
    </g>
  </g>
</svg>
