<svg xmlns="http://www.w3.org/2000/svg" width="40.8" height="40.8" viewBox="0 0 40.8 40.8">
  <path id="No_Code_Platform" data-name="No Code Platform" d="M27.656,4.687A4.693,4.693,0,0,0,22.969,0H4.687A4.693,4.693,0,0,0,0,4.687V22.969a4.693,4.693,0,0,0,4.687,4.688h7.5v3.125h3.125V27.656h7.656a4.693,4.693,0,0,0,4.688-4.687v-7.5H30.7V12.344H27.656ZM24.531,22.969a1.564,1.564,0,0,1-1.562,1.563H4.687a1.564,1.564,0,0,1-1.562-1.562V4.687A1.564,1.564,0,0,1,4.687,3.125H22.969a1.564,1.564,0,0,1,1.563,1.562ZM36.875,33.75H40v3.125A3.125,3.125,0,0,1,36.875,40H33.828V36.875h3.047ZM21.328,36.875h3.125V40H21.328Zm6.25,0H30.7V40H27.578ZM40,15.469v3.125H36.875V15.469H33.828V12.344h3.047A3.125,3.125,0,0,1,40,15.469Zm-3.125,6.094H40v3.125H36.875Zm0,6.094H40v3.125H36.875ZM15.312,36.875h3.047V40H15.312a3.125,3.125,0,0,1-3.125-3.125V33.75h3.125ZM18.2,12.031h3.125v9.375H11.953V18.281h4.04l-5.575-5.575,2.21-2.209L18.2,16.071Zm0,0" transform="translate(0.4 0.4)" stroke="#fff" stroke-width="0.8"/>
</svg>
