<svg xmlns="http://www.w3.org/2000/svg" width="50.6" height="34.645" viewBox="0 0 50.6 34.645">
  <g id="Single_Platform_Multiple_" data-name="Single Platform, Multiple " transform="translate(0.3 0.3)">
    <g id="Group_6140" data-name="Group 6140" transform="translate(0 0)">
      <path id="Path_7482" data-name="Path 7482" d="M80.656,47.578l-1.431,2.3a2.232,2.232,0,0,0-1.524-.091l-1.41-2.53a5.008,5.008,0,0,0-1.075.583l1.451,2.6a2.244,2.244,0,1,0,3.512.216l1.456-2.342A5.06,5.06,0,0,0,80.656,47.578Zm-2.319,5.8a1.441,1.441,0,1,1,1.441-1.441A1.443,1.443,0,0,1,78.337,53.383Z" transform="translate(-42.962 -35.01)" stroke="#000" stroke-width="0.6"/>
      <path id="Path_7483" data-name="Path 7483" d="M92.92,29.195l3.791-6.1a2.255,2.255,0,1,0-1.037-.647l-3.757,6.044A8.268,8.268,0,0,1,92.92,29.195Zm4.412-9.7a1.441,1.441,0,1,1-1.441,1.441A1.443,1.443,0,0,1,97.332,19.5Z" transform="translate(-52.501 -18.695)" stroke="#000" stroke-width="0.6"/>
      <path id="Path_7484" data-name="Path 7484" d="M28.086,29.638a2.186,2.186,0,0,0,1.024-.04l1.554,2.787a8.192,8.192,0,0,1,1.07-.591l-1.579-2.832a2.244,2.244,0,1,0-3.16.123L21.948,39.613a2.233,2.233,0,0,0-.633-.092,2.206,2.206,0,0,0-.61.087l-4.527-8.369a2.244,2.244,0,1,0-3.9-.725L3.752,35.828A2.247,2.247,0,1,0,4.4,36.864l8.556-5.329a2.222,2.222,0,0,0,2.219.419l4.489,8.3a2.245,2.245,0,1,0,3.324.022Zm.428-3.645a1.441,1.441,0,1,1-1.441,1.441A1.443,1.443,0,0,1,28.514,25.993ZM2.245,38.928a1.441,1.441,0,1,1,1.442-1.441A1.443,1.443,0,0,1,2.245,38.928Zm12.179-7.646a1.441,1.441,0,1,1,1.441-1.441A1.443,1.443,0,0,1,14.424,31.282Zm6.891,11.926a1.441,1.441,0,1,1,1.442-1.442A1.444,1.444,0,0,1,21.315,43.208Z" transform="translate(0 -22.405)" stroke="#000" stroke-width="0.6"/>
      <path id="Path_7485" data-name="Path 7485" d="M86.171,63.288,77.2,52.988a7.678,7.678,0,1,0-1.537,1.338l8.972,10.3a1.019,1.019,0,0,0,1.537-1.339ZM75.143,52.178a5.637,5.637,0,1,1,.547-7.953A5.644,5.644,0,0,1,75.143,52.178Z" transform="translate(-36.422 -31.01)" stroke="#000" stroke-width="0.6"/>
    </g>
  </g>
</svg>
