<svg id="Workflow_and_Business_" data-name="Workflow and Business " xmlns="http://www.w3.org/2000/svg" width="45.644" height="36.81" viewBox="0 0 45.644 36.81">
  <path id="Path_7506" data-name="Path 7506" d="M29.626,23a6.626,6.626,0,1,0,6.626,6.626A6.634,6.634,0,0,0,29.626,23Zm0,11.779a5.153,5.153,0,1,1,5.153-5.153A5.159,5.159,0,0,1,29.626,34.779Z" transform="translate(-6.804 -11.221)"/>
  <path id="Path_7507" data-name="Path 7507" d="M40.019,14.362h5.89a.736.736,0,0,0,.736-.736V7.736A.736.736,0,0,0,45.908,7h-5.89a.736.736,0,0,0-.736.736V9.945H37.074a.736.736,0,0,0-.736.736V24.669H35.6v-.736a.736.736,0,0,0-.639-.73l-1.888-.252A9.432,9.432,0,0,0,32.1,20.6l1.16-1.517a.736.736,0,0,0-.064-.967L31.11,16.035a.735.735,0,0,0-.967-.064l-1.517,1.16a9.488,9.488,0,0,0-2.35-.978l-.252-1.888a.736.736,0,0,0-.73-.639H22.35a.736.736,0,0,0-.73.639l-.252,1.888a9.432,9.432,0,0,0-2.35.978L17.5,15.971a.736.736,0,0,0-.967.064l-2.083,2.083a.736.736,0,0,0-.064.967l1.16,1.517a9.488,9.488,0,0,0-.978,2.35l-1.888.252a.736.736,0,0,0-.639.73v.736h-.736V10.681a.736.736,0,0,0-.736-.736H8.362V7.736A.736.736,0,0,0,7.626,7H1.736A.736.736,0,0,0,1,7.736v5.89a.736.736,0,0,0,.736.736h5.89a.736.736,0,0,0,.736-.736V11.417H9.834V24.669H8.362V22.46a.736.736,0,0,0-.736-.736H1.736A.736.736,0,0,0,1,22.46v5.89a.736.736,0,0,0,.736.736h5.89a.736.736,0,0,0,.736-.736V26.141H9.834V39.393H8.362V37.184a.736.736,0,0,0-.736-.736H1.736A.736.736,0,0,0,1,37.184v5.89a.736.736,0,0,0,.736.736h5.89a.736.736,0,0,0,.736-.736V40.865h2.209a.736.736,0,0,0,.736-.736V26.141h.736v.736a.736.736,0,0,0,.639.73l1.888.252a9.432,9.432,0,0,0,.978,2.35l-1.16,1.517a.736.736,0,0,0,.064.967l2.083,2.083a.736.736,0,0,0,.967.064l1.517-1.16a9.488,9.488,0,0,0,2.35.978l.252,1.888a.736.736,0,0,0,.73.639h2.945a.736.736,0,0,0,.73-.639l.252-1.888a9.432,9.432,0,0,0,2.35-.978l1.517,1.16a.735.735,0,0,0,.967-.064l2.083-2.083a.736.736,0,0,0,.064-.967L32.1,30.209a9.488,9.488,0,0,0,.978-2.35l1.888-.252a.736.736,0,0,0,.639-.73v-.736h.736V40.129a.736.736,0,0,0,.736.736h2.209v2.209a.736.736,0,0,0,.736.736h5.89a.736.736,0,0,0,.736-.736v-5.89a.736.736,0,0,0-.736-.736h-5.89a.736.736,0,0,0-.736.736v2.209H37.81V26.141h1.472V28.35a.736.736,0,0,0,.736.736h5.89a.736.736,0,0,0,.736-.736V22.46a.736.736,0,0,0-.736-.736h-5.89a.736.736,0,0,0-.736.736v2.209H37.81V11.417h1.472v2.209A.736.736,0,0,0,40.019,14.362Zm.736-5.89h4.417V12.89H40.755ZM6.89,12.89H2.472V8.472H6.89Zm0,14.724H2.472V23.2H6.89Zm0,14.724H2.472V37.92H6.89Zm27.239-16.1-1.752.233a.736.736,0,0,0-.624.582,8.007,8.007,0,0,1-1.165,2.8.736.736,0,0,0,.03.852L31.7,32.108l-1.171,1.171L29.117,32.2a.736.736,0,0,0-.852-.03,8.007,8.007,0,0,1-2.8,1.165.737.737,0,0,0-.582.624l-.233,1.752H22.995l-.233-1.752a.736.736,0,0,0-.582-.624,8.007,8.007,0,0,1-2.8-1.165.737.737,0,0,0-.852.03L17.12,33.279l-1.171-1.171L17.026,30.7a.736.736,0,0,0,.03-.852,8.007,8.007,0,0,1-1.165-2.8.737.737,0,0,0-.624-.582l-1.753-.233V24.577l1.752-.233a.736.736,0,0,0,.624-.582,8.007,8.007,0,0,1,1.165-2.8.736.736,0,0,0-.03-.852L15.949,18.7l1.171-1.171,1.408,1.077a.737.737,0,0,0,.852.03,8.007,8.007,0,0,1,2.8-1.165.737.737,0,0,0,.582-.624l.233-1.753H24.65l.233,1.752a.736.736,0,0,0,.582.624,8.007,8.007,0,0,1,2.8,1.165.735.735,0,0,0,.852-.03l1.408-1.077L31.7,18.7,30.618,20.11a.736.736,0,0,0-.03.852,8.007,8.007,0,0,1,1.165,2.8.737.737,0,0,0,.624.582l1.753.233ZM40.755,37.92h4.417v4.417H40.755Zm0-14.724h4.417v4.417H40.755Z" transform="translate(-1 -7)"/>
</svg>
