<svg xmlns="http://www.w3.org/2000/svg" xmlns:xlink="http://www.w3.org/1999/xlink" width="400" height="278.704" viewBox="0 0 400 278.704">
  <defs>
    <linearGradient id="linear-gradient" x1="1.491" y1="0.5" x2="-0.431" y2="0.5" gradientUnits="objectBoundingBox">
      <stop offset="0" stop-color="#eebe63"/>
      <stop offset="1" stop-color="#dc3b57"/>
    </linearGradient>
    <linearGradient id="linear-gradient-2" x1="1.38" y1="0.5" x2="-0.399" y2="0.5" xlink:href="#linear-gradient"/>
    <linearGradient id="linear-gradient-3" x1="2.127" y1="0.5" x2="-0.615" y2="0.5" xlink:href="#linear-gradient"/>
    <linearGradient id="linear-gradient-4" x1="0.5" y1="0.155" x2="0.5" y2="1.196" gradientUnits="objectBoundingBox">
      <stop offset="0" stop-color="#d3d8de"/>
      <stop offset="1" stop-color="#fff"/>
    </linearGradient>
  </defs>
  <g id="Asset_management_" data-name="Asset management " transform="translate(-155.556 -44.79)">
    <path id="Path_7346" data-name="Path 7346" d="M1511.932,408.559c-38.771,2.163-95.088,19.212-163.105-46.976-56.01-54.5-152.644-23.122-174.459,49.248-23.161,76.836,33.729,139.527,74.849,163.728,50.667,29.819,151.141,34.039,206.053,12.914,55.092-21.194,93.653-59.025,106.2-88.377C1581.436,452.384,1560.644,405.844,1511.932,408.559Z" transform="translate(-1013.449 -284.788)" fill="#efefef"/>
    <g id="Group_6121" data-name="Group 6121" transform="translate(183.193 37.778)">
      <g id="Group_6120" data-name="Group 6120">
        <g id="Group_5921" data-name="Group 5921" transform="translate(180.86 105.707)">
          <path id="Path_7348" data-name="Path 7348" d="M2164.3,848.4h-75.55a5.753,5.753,0,0,1-5.753-5.753v-89.6a5.753,5.753,0,0,1,5.753-5.753h75.55a5.753,5.753,0,0,1,5.753,5.753v89.6A5.754,5.754,0,0,1,2164.3,848.4Z" transform="translate(-2083 -747.29)" fill="#f4f4f4"/>
        </g>
        <g id="Group_5930" data-name="Group 5930" transform="translate(190.506 132.884)">
          <g id="Group_5923" data-name="Group 5923">
            <g id="Group_5922" data-name="Group 5922">
              <path id="Path_7349" data-name="Path 7349" d="M2168.485,881.188a22.247,22.247,0,1,0-41.9,14.983c.167.47.351.935.548,1.387a22.248,22.248,0,0,0,41.348-16.37Zm-15.332,23.2a16.663,16.663,0,0,1-20.911-9.049q-.222-.51-.411-1.04a16.68,16.68,0,1,1,21.322,10.089Z" transform="translate(-2125.283 -866.426)" fill="#292929"/>
            </g>
          </g>
          <g id="Group_5925" data-name="Group 5925" transform="translate(1.017 0.008)">
            <g id="Group_5924" data-name="Group 5924">
              <path id="Path_7350" data-name="Path 7350" d="M2135.055,883.733l-5.315-1.661a22.282,22.282,0,0,1,20.574-15.612l.167,5.566a16.713,16.713,0,0,0-15.425,11.707Z" transform="translate(-2129.74 -866.46)" fill="#cbcbcb"/>
            </g>
          </g>
          <g id="Group_5927" data-name="Group 5927" transform="translate(0 15.622)">
            <g id="Group_5926" data-name="Group 5926">
              <path id="Path_7351" data-name="Path 7351" d="M2132.243,948.2l-5.105,2.222c-.2-.452-.381-.917-.547-1.387a22.138,22.138,0,0,1-.29-14.123l5.315,1.661a16.587,16.587,0,0,0,.216,10.587C2131.958,947.511,2132.1,947.858,2132.243,948.2Z" transform="translate(-2125.284 -934.91)" fill="#cbcbcb"/>
            </g>
          </g>
          <g id="Group_5929" data-name="Group 5929" transform="translate(1.854 28.91)">
            <g id="Group_5928" data-name="Group 5928">
              <path id="Path_7352" data-name="Path 7352" d="M2136.859,1000.921a22.111,22.111,0,0,1-3.449-5.539l5.105-2.222a16.518,16.518,0,0,0,2.585,4.152Z" transform="translate(-2133.41 -993.16)" fill="#cbcbcb"/>
            </g>
          </g>
        </g>
        <g id="Group_5937" data-name="Group 5937" transform="translate(239.857 160.349)">
          <g id="Group_5932" data-name="Group 5932" transform="translate(0)">
            <g id="Group_5931" data-name="Group 5931">
              <path id="Path_7353" data-name="Path 7353" d="M2354.768,987.712a9.2,9.2,0,1,0-7.872,16.639c.187.089.376.171.565.246a9.114,9.114,0,0,0,2.628.611,9.206,9.206,0,0,0,4.679-17.5Zm2.3,11.269a6.9,6.9,0,0,1-6.793,3.928,6.791,6.791,0,0,1-1.971-.458c-.142-.057-.285-.119-.425-.185a6.9,6.9,0,1,1,9.188-3.285Z" transform="translate(-2341.625 -986.826)" fill="#292929"/>
            </g>
          </g>
          <g id="Group_5934" data-name="Group 5934" transform="translate(0 2.893)">
            <g id="Group_5933" data-name="Group 5933">
              <path id="Path_7354" data-name="Path 7354" d="M2344.719,1009.025l-2.042,1.07a9.214,9.214,0,0,1,1.453-10.585l1.677,1.579a6.922,6.922,0,0,0-1.088,7.936Z" transform="translate(-2341.624 -999.51)" fill="#d5d5d5"/>
            </g>
          </g>
          <g id="Group_5936" data-name="Group 5936" transform="translate(1.051 12.406)">
            <g id="Group_5935" data-name="Group 5935">
              <path id="Path_7355" data-name="Path 7355" d="M2351.857,1044.429l-.844,2.145c-.189-.075-.378-.157-.565-.246a9.16,9.16,0,0,1-4.218-4.047l2.042-1.07a6.875,6.875,0,0,0,3.16,3.034C2351.575,1044.313,2351.716,1044.372,2351.857,1044.429Z" transform="translate(-2346.23 -1041.21)" fill="#d5d5d5"/>
            </g>
          </g>
        </g>
        <g id="Group_5946" data-name="Group 5946" transform="translate(239.858 132.324)">
          <g id="Group_5939" data-name="Group 5939" transform="translate(0 0)">
            <g id="Group_5938" data-name="Group 5938">
              <path id="Path_7356" data-name="Path 7356" d="M2359.154,877.115a9.2,9.2,0,0,0-16.639-7.872c-.086.187-.168.376-.244.566a9.2,9.2,0,0,0,16.883,7.307Zm-11.271,2.3a6.9,6.9,0,0,1-3.928-6.793,6.826,6.826,0,0,1,.458-1.971c.058-.141.119-.285.185-.424a6.9,6.9,0,1,1,3.285,9.188Z" transform="translate(-2341.63 -863.974)" fill="#292929"/>
            </g>
          </g>
          <g id="Group_5941" data-name="Group 5941" transform="translate(4.93 0)">
            <g id="Group_5940" data-name="Group 5940">
              <path id="Path_7357" data-name="Path 7357" d="M2364.312,867.067l-1.072-2.039a9.217,9.217,0,0,1,10.585,1.451l-1.579,1.677a6.906,6.906,0,0,0-7.934-1.088Z" transform="translate(-2363.24 -863.974)" fill="#cbcbcb"/>
            </g>
          </g>
          <g id="Group_5943" data-name="Group 5943" transform="translate(0.641 1.053)">
            <g id="Group_5942" data-name="Group 5942">
              <path id="Path_7358" data-name="Path 7358" d="M2346.582,874.215l-2.142-.844c.075-.189.157-.379.244-.566a9.166,9.166,0,0,1,4.047-4.216l1.072,2.039a6.847,6.847,0,0,0-3.034,3.162C2346.7,873.93,2346.639,874.072,2346.582,874.215Z" transform="translate(-2344.44 -868.59)" fill="#cbcbcb"/>
            </g>
          </g>
          <g id="Group_5945" data-name="Group 5945" transform="translate(0.03 5.837)">
            <g id="Group_5944" data-name="Group 5944">
              <path id="Path_7359" data-name="Path 7359" d="M2341.76,892.188a9.113,9.113,0,0,1,.612-2.628l2.142.844a6.877,6.877,0,0,0-.459,1.971Z" transform="translate(-2341.76 -889.56)" fill="#cbcbcb"/>
            </g>
          </g>
        </g>
        <g id="Group_5947" data-name="Group 5947" transform="translate(229.05 177.96)">
          <path id="Path_7360" data-name="Path 7360" d="M2311.434,1070.865H2294.25v-.342h16.844v-6.492h.34Z" transform="translate(-2294.25 -1064.03)" fill="#e5f2fd"/>
        </g>
        <g id="Group_5948" data-name="Group 5948" transform="translate(191.522 173.827)">
          <path id="Path_7361" data-name="Path 7361" d="M2152.091,1056.878H2129.74v-.342h22.009V1045.91h.342Z" transform="translate(-2129.74 -1045.91)" fill="#e5f2fd"/>
        </g>
        <g id="Group_5949" data-name="Group 5949" transform="translate(191.522 180.898)">
          <rect id="Rectangle_590" data-name="Rectangle 590" width="15.38" height="2.048" fill="#ccc"/>
        </g>
        <g id="Group_5950" data-name="Group 5950" transform="translate(229.05 180.898)">
          <rect id="Rectangle_591" data-name="Rectangle 591" width="9.045" height="2.048" fill="#ccc"/>
        </g>
        <g id="Group_5951" data-name="Group 5951" transform="translate(188.039 114.387)">
          <rect id="Rectangle_592" data-name="Rectangle 592" width="7.359" height="1.574" transform="translate(0 0)" fill="#a1a1a1"/>
        </g>
        <g id="Group_5952" data-name="Group 5952" transform="translate(218.723 120.309)">
          <rect id="Rectangle_593" data-name="Rectangle 593" width="11.419" height="1.574" transform="translate(0 0)" fill="#a1a1a1"/>
        </g>
        <g id="Group_5953" data-name="Group 5953" transform="translate(203.957 120.309)">
          <rect id="Rectangle_594" data-name="Rectangle 594" width="6.971" height="1.574" transform="translate(0 0)" fill="#a1a1a1"/>
        </g>
        <g id="Group_5954" data-name="Group 5954" transform="translate(188.039 120.309)">
          <rect id="Rectangle_595" data-name="Rectangle 595" width="13.81" height="1.574" transform="translate(0 0)" fill="#a1a1a1"/>
        </g>
        <g id="Group_5955" data-name="Group 5955" transform="translate(197.638 114.387)">
          <rect id="Rectangle_596" data-name="Rectangle 596" width="10.906" height="1.574" transform="translate(0 0)" fill="#a1a1a1"/>
        </g>
        <g id="Group_5956" data-name="Group 5956" transform="translate(213.111 120.309)">
          <rect id="Rectangle_597" data-name="Rectangle 597" width="2.995" height="1.574" transform="translate(0 0)" fill="#a1a1a1"/>
        </g>
        <g id="Group_5957" data-name="Group 5957" transform="translate(221.994 114.473)">
          <rect id="Rectangle_598" data-name="Rectangle 598" width="8.148" height="1.572" transform="translate(0 0)" fill="#a1a1a1"/>
        </g>
        <g id="Group_5958" data-name="Group 5958" transform="translate(233.049 120.309)">
          <rect id="Rectangle_599" data-name="Rectangle 599" width="6.948" height="1.574" transform="translate(0 0)" fill="#a1a1a1"/>
        </g>
        <g id="Group_5959" data-name="Group 5959" transform="translate(211.227 114.473)">
          <rect id="Rectangle_600" data-name="Rectangle 600" width="8.636" height="1.572" transform="translate(0 0)" fill="#a1a1a1"/>
        </g>
        <g id="Group_5961" data-name="Group 5961" transform="translate(17.771 67.002)">
          <path id="Path_7362" data-name="Path 7362" d="M1436.963,613.528c5.021,10.954,7.84,21.32,4.145,25.946a5.873,5.873,0,0,1-.716.75c-2.847,2.509-8.447,2.564-17.9-1.168-25.161-9.939-26.354-27.091-31.444-43.842-5.016-16.541-22.54-13.746-22.987-13.671C1408.891,567.32,1428.445,594.957,1436.963,613.528Z" transform="translate(-1368.06 -577.62)" fill="#b5b5b5"/>
          <g id="Group_5960" data-name="Group 5960" transform="translate(35.78 15.266)">
            <path id="Path_7363" data-name="Path 7363" d="M1562.177,691.126a5.887,5.887,0,0,1-.716.75c-4.727-2.847-13.776-8.883-18.042-15.66a100.9,100.9,0,0,1-5.5-10.6c-3.385-7.2-6.894-14.636-13.012-20.344l.682-.734c6.259,5.842,9.8,13.37,13.235,20.654a98.2,98.2,0,0,0,5.441,10.489C1548.427,682.3,1557.569,688.354,1562.177,691.126Z" transform="translate(-1524.91 -644.54)" fill="#6a6a6a"/>
          </g>
        </g>
        <g id="Group_5963" data-name="Group 5963" transform="translate(52.146 43.625)">
          <path id="Path_7364" data-name="Path 7364" d="M1548.906,538.9c-.3.728-.488,1.141-.509,1.189-.078-.4-.153-.8-.228-1.189-3.356-17.2-7.845-19-21.3-34.039-13.765-15.386-5.849-29.721-5.849-29.721C1567.127,488.464,1552.04,531.213,1548.906,538.9Z" transform="translate(-1518.751 -475.14)" fill="#b5b5b5"/>
          <g id="Group_5962" data-name="Group 5962" transform="translate(13.477 17.964)">
            <path id="Path_7365" data-name="Path 7365" d="M1594.507,599.687c-.3.728-.488,1.141-.509,1.188-.077-.4-.153-.8-.228-1.188,1.494-14.869-7.475-32.315-10.292-35.445a32.869,32.869,0,0,1-5.393-9.38c-.114-.278-.221-.543-.256-.6l.65-.367a7.525,7.525,0,0,1,.3.693,32.1,32.1,0,0,0,5.256,9.157C1587.6,567.709,1595.879,585.24,1594.507,599.687Z" transform="translate(-1577.83 -553.89)" fill="#6a6a6a"/>
          </g>
        </g>
        <path id="Path_7366" data-name="Path 7366" d="M1830.5,447.033H1628.5a10.658,10.658,0,0,1-10.657-10.658v-61.6A10.658,10.658,0,0,1,1628.5,364.12H1830.5a10.658,10.658,0,0,1,10.657,10.658v61.6A10.657,10.657,0,0,1,1830.5,447.033Z" transform="translate(-1543.09 -345.821)" fill="#f4f4f4"/>
        <rect id="Rectangle_601" data-name="Rectangle 601" width="27.292" height="2.737" transform="translate(251.734 42.101)" fill="#d4d4d4"/>
        <rect id="Rectangle_602" data-name="Rectangle 602" width="31.368" height="2.737" transform="translate(251.734 50.578)" fill="#d4d4d4"/>
        <rect id="Rectangle_603" data-name="Rectangle 603" width="16.23" height="2.737" transform="translate(251.686 59.009)" fill="#d4d4d4"/>
        <rect id="Rectangle_604" data-name="Rectangle 604" width="25.004" height="2.737" transform="translate(251.686 67.438)" fill="#d4d4d4"/>
        <rect id="Rectangle_605" data-name="Rectangle 605" width="83.728" height="2.801" transform="translate(86.445 198.137)" fill="#fff"/>
        <rect id="Rectangle_606" data-name="Rectangle 606" width="62.182" height="2.801" transform="translate(86.445 185.066)" fill="url(#linear-gradient)"/>
        <rect id="Rectangle_607" data-name="Rectangle 607" width="67.189" height="2.801" transform="translate(86.445 191.602)" fill="url(#linear-gradient-2)"/>
        <rect id="Rectangle_608" data-name="Rectangle 608" width="43.598" height="2.801" transform="translate(86.445 198.137)" fill="url(#linear-gradient-3)"/>
        <rect id="Rectangle_609" data-name="Rectangle 609" width="24.326" height="2.997" transform="translate(103.892 93.596)" fill="#d4d4d4"/>
        <rect id="Rectangle_610" data-name="Rectangle 610" width="36.129" height="2.997" transform="translate(97.99 88.258)" fill="#d4d4d4"/>
        <path id="Path_7367" data-name="Path 7367" d="M1784.174,469.2a6.282,6.282,0,1,1-6.282-6.282A6.282,6.282,0,0,1,1784.174,469.2Z" transform="translate(-1661.783 -422.083)" fill="#9d9d9d"/>
        <path id="Path_7368" data-name="Path 7368" d="M1771.771,541.705v11.944a27.632,27.632,0,0,1-22.771,0V541.705a11.385,11.385,0,0,1,22.771,0Z" transform="translate(-1644.33 -474.108)" fill="#9d9d9d"/>
        <rect id="Rectangle_611" data-name="Rectangle 611" width="58.507" height="3.771" transform="translate(155.361 37.833)" fill="#fff"/>
        <rect id="Rectangle_612" data-name="Rectangle 612" width="22.736" height="3.771" transform="translate(220.153 37.833)" fill="#fff"/>
        <rect id="Rectangle_613" data-name="Rectangle 613" width="27.474" height="3.771" transform="translate(155.361 29.242)" fill="#fff"/>
        <g id="Group_5964" data-name="Group 5964" transform="translate(87.759 26.154)">
          <path id="Path_7369" data-name="Path 7369" d="M1703.166,455.139a28.075,28.075,0,0,1-11.7-2.521,28.3,28.3,0,1,1,23.389,0A28.032,28.032,0,0,1,1703.166,455.139Zm0-55.095a26.806,26.806,0,0,0-11.075,51.214,26.872,26.872,0,0,0,22.15,0,26.806,26.806,0,0,0-11.075-51.214Z" transform="translate(-1674.87 -398.55)" fill="url(#linear-gradient-4)"/>
        </g>
        <g id="Group_5965" data-name="Group 5965" transform="translate(213.387 194.314)">
          <path id="Path_7370" data-name="Path 7370" d="M2243.748,1157.719h-14.319a3.839,3.839,0,0,1-3.839-3.839v-14.319a3.842,3.842,0,0,1,3.842-3.842h14.317a3.841,3.841,0,0,1,3.841,3.839v14.319A3.843,3.843,0,0,1,2243.748,1157.719Z" transform="translate(-2225.59 -1135.72)" fill="#fff"/>
          <rect id="Rectangle_614" data-name="Rectangle 614" width="2.083" height="8.753" transform="translate(9.96 6.624)" fill="#c5cacf"/>
          <rect id="Rectangle_615" data-name="Rectangle 615" width="2.08" height="8.753" transform="translate(15.375 9.961) rotate(90)" fill="#c5cacf"/>
        </g>
        <g id="Group_5978" data-name="Group 5978" transform="translate(159.52 48.748)">
          <g id="Group_5966" data-name="Group 5966">
            <rect id="Rectangle_616" data-name="Rectangle 616" width="1.494" height="36.225" fill="#c9c9c9"/>
          </g>
          <g id="Group_5967" data-name="Group 5967" transform="translate(6.864)">
            <rect id="Rectangle_617" data-name="Rectangle 617" width="1.494" height="36.225" fill="#c9c9c9"/>
          </g>
          <g id="Group_5968" data-name="Group 5968" transform="translate(13.726)">
            <rect id="Rectangle_618" data-name="Rectangle 618" width="1.494" height="36.225" fill="#c9c9c9"/>
          </g>
          <g id="Group_5969" data-name="Group 5969" transform="translate(20.592)">
            <rect id="Rectangle_619" data-name="Rectangle 619" width="1.494" height="36.225" fill="#c9c9c9"/>
          </g>
          <g id="Group_5970" data-name="Group 5970" transform="translate(27.456)">
            <rect id="Rectangle_620" data-name="Rectangle 620" width="1.494" height="36.225" fill="#c9c9c9"/>
          </g>
          <g id="Group_5971" data-name="Group 5971" transform="translate(34.32)">
            <rect id="Rectangle_621" data-name="Rectangle 621" width="1.494" height="36.225" fill="#c9c9c9"/>
          </g>
          <g id="Group_5972" data-name="Group 5972" transform="translate(41.184)">
            <rect id="Rectangle_622" data-name="Rectangle 622" width="1.494" height="36.225" fill="#c9c9c9"/>
          </g>
          <g id="Group_5973" data-name="Group 5973" transform="translate(48.048)">
            <rect id="Rectangle_623" data-name="Rectangle 623" width="1.494" height="36.225" fill="#c9c9c9"/>
          </g>
          <g id="Group_5974" data-name="Group 5974" transform="translate(54.912)">
            <rect id="Rectangle_624" data-name="Rectangle 624" width="1.494" height="36.225" fill="#c9c9c9"/>
          </g>
          <g id="Group_5975" data-name="Group 5975" transform="translate(61.776)">
            <rect id="Rectangle_625" data-name="Rectangle 625" width="1.494" height="36.225" fill="#c9c9c9"/>
          </g>
          <g id="Group_5976" data-name="Group 5976" transform="translate(68.64)">
            <rect id="Rectangle_626" data-name="Rectangle 626" width="1.494" height="36.225" fill="#c9c9c9"/>
          </g>
          <g id="Group_5977" data-name="Group 5977" transform="translate(75.504)">
            <rect id="Rectangle_627" data-name="Rectangle 627" width="1.494" height="36.225" fill="#c9c9c9"/>
          </g>
        </g>
        <g id="Group_5991" data-name="Group 5991" transform="translate(159.52 53.977)">
          <g id="Group_5979" data-name="Group 5979" transform="translate(0 5.603)">
            <rect id="Rectangle_628" data-name="Rectangle 628" width="1.494" height="25.394" fill="#363636"/>
          </g>
          <g id="Group_5980" data-name="Group 5980" transform="translate(6.864 14.378)">
            <rect id="Rectangle_629" data-name="Rectangle 629" width="1.494" height="16.618" fill="#363636"/>
          </g>
          <g id="Group_5981" data-name="Group 5981" transform="translate(13.726)">
            <rect id="Rectangle_630" data-name="Rectangle 630" width="1.494" height="30.996" fill="#363636"/>
          </g>
          <g id="Group_5982" data-name="Group 5982" transform="translate(20.592 21.972)">
            <rect id="Rectangle_631" data-name="Rectangle 631" width="1.494" height="9.024" fill="#363636"/>
          </g>
          <g id="Group_5983" data-name="Group 5983" transform="translate(27.456 12.884)">
            <rect id="Rectangle_632" data-name="Rectangle 632" width="1.494" height="18.112" fill="#363636"/>
          </g>
          <g id="Group_5984" data-name="Group 5984" transform="translate(34.32 6.1)">
            <rect id="Rectangle_633" data-name="Rectangle 633" width="1.494" height="24.897" fill="#363636"/>
          </g>
          <g id="Group_5985" data-name="Group 5985" transform="translate(41.184 14.939)">
            <rect id="Rectangle_634" data-name="Rectangle 634" width="1.494" height="16.057" fill="#363636"/>
          </g>
          <g id="Group_5986" data-name="Group 5986" transform="translate(48.048 3.798)">
            <rect id="Rectangle_635" data-name="Rectangle 635" width="1.494" height="27.198" fill="#363636"/>
          </g>
          <g id="Group_5987" data-name="Group 5987" transform="translate(54.912 16.059)">
            <rect id="Rectangle_636" data-name="Rectangle 636" width="1.494" height="14.937" fill="#363636"/>
          </g>
          <g id="Group_5988" data-name="Group 5988" transform="translate(61.776 7.097)">
            <rect id="Rectangle_637" data-name="Rectangle 637" width="1.494" height="23.9" fill="#363636"/>
          </g>
          <g id="Group_5989" data-name="Group 5989" transform="translate(68.64 19.045)">
            <rect id="Rectangle_638" data-name="Rectangle 638" width="1.494" height="11.951" fill="#363636"/>
          </g>
          <g id="Group_5990" data-name="Group 5990" transform="translate(75.504 7.097)">
            <rect id="Rectangle_639" data-name="Rectangle 639" width="1.494" height="23.9" fill="#363636"/>
          </g>
        </g>
        <g id="Group_6003" data-name="Group 6003" transform="translate(35.213 105.707)">
          <path id="Path_7371" data-name="Path 7371" d="M1576.951,875.795H1452.427a7.907,7.907,0,0,1-7.906-7.906V755.2a7.907,7.907,0,0,1,7.906-7.906h124.524a7.907,7.907,0,0,1,7.906,7.906V867.888A7.9,7.9,0,0,1,1576.951,875.795Z" transform="translate(-1444.52 -747.29)" fill="#f4f4f4"/>
          <g id="Group_5996" data-name="Group 5996" transform="translate(13.676 12.531)">
            <g id="Group_5992" data-name="Group 5992" transform="translate(0 0.002)">
              <path id="Path_7372" data-name="Path 7372" d="M1542.806,828.625a19.721,19.721,0,0,0-10.71-24.748c-.4-.173-.812-.338-1.232-.486a19.74,19.74,0,1,0,11.942,25.234Zm-23.571,7.286a14.8,14.8,0,0,1,9.969-27.871c.315.112.62.235.921.365a14.8,14.8,0,0,1-10.89,27.506Z" transform="translate(-1504.471 -802.232)" fill="#292929"/>
            </g>
            <g id="Group_5993" data-name="Group 5993" transform="translate(0.009 0.901)">
              <path id="Path_7373" data-name="Path 7373" d="M1519.837,810.887l-1.474-4.717a19.771,19.771,0,0,0-13.854,18.254l4.939.148a14.82,14.82,0,0,1,10.388-13.685Z" transform="translate(-1504.51 -806.17)" fill="#cbcbcb"/>
            </g>
            <g id="Group_5994" data-name="Group 5994" transform="translate(13.865)">
              <path id="Path_7374" data-name="Path 7374" d="M1577.039,808.4l1.973-4.53c-.4-.173-.812-.338-1.232-.486a19.657,19.657,0,0,0-12.53-.258l1.474,4.717a14.734,14.734,0,0,1,9.4.192C1576.43,808.146,1576.738,808.267,1577.039,808.4Z" transform="translate(-1565.25 -802.222)" fill="#cbcbcb"/>
            </g>
            <g id="Group_5995" data-name="Group 5995" transform="translate(25.654 1.647)">
              <path id="Path_7375" data-name="Path 7375" d="M1623.817,812.5a19.582,19.582,0,0,0-4.914-3.059l-1.973,4.531a14.718,14.718,0,0,1,3.686,2.295Z" transform="translate(-1616.93 -809.44)" fill="#cbcbcb"/>
            </g>
          </g>
          <g id="Group_5997" data-name="Group 5997" transform="translate(107.993 78.999)">
            <rect id="Rectangle_640" data-name="Rectangle 640" width="6.85" height="23.466" fill="#a1a1a1"/>
          </g>
          <g id="Group_5998" data-name="Group 5998" transform="translate(97.807 85.582)">
            <rect id="Rectangle_641" data-name="Rectangle 641" width="6.85" height="16.885" fill="#a1a1a1"/>
          </g>
          <g id="Group_5999" data-name="Group 5999" transform="translate(117.872 68.125)">
            <rect id="Rectangle_642" data-name="Rectangle 642" width="6.85" height="34.341" fill="#a1a1a1"/>
          </g>
          <g id="Group_6000" data-name="Group 6000" transform="translate(58.829 50.227)">
            <path id="Path_7376" data-name="Path 7376" d="M1767.2,968.211l-.121-.741L1749,970.431l-5.861,12.492-19.492,1.325-6.314,9.314-14.9-.37-.018.75,15.311.379,6.339-9.35,19.57-1.328,5.878-12.535Z" transform="translate(-1702.41 -967.47)" fill="#b7b7b7"/>
          </g>
          <path id="Path_7377" data-name="Path 7377" d="M1882.046,818.583h19.483a2.226,2.226,0,0,0,2.226-2.226h0a2.227,2.227,0,0,0-2.226-2.227h-19.483a2.227,2.227,0,0,0-2.227,2.227h0A2.224,2.224,0,0,0,1882.046,818.583Z" transform="translate(-1780.521 -798.883)" fill="#a1a1a1"/>
          <path id="Path_7378" data-name="Path 7378" d="M1882.046,852.643h19.483a2.226,2.226,0,0,0,2.226-2.226h0a2.226,2.226,0,0,0-2.226-2.226h-19.483a2.227,2.227,0,0,0-2.227,2.226h0A2.224,2.224,0,0,0,1882.046,852.643Z" transform="translate(-1780.521 -825.173)" fill="#ccc"/>
          <path id="Path_7379" data-name="Path 7379" d="M1882.046,886.7h19.483a2.227,2.227,0,0,0,2.226-2.229h0a2.226,2.226,0,0,0-2.226-2.226h-19.483a2.227,2.227,0,0,0-2.227,2.226h0A2.224,2.224,0,0,0,1882.046,886.7Z" transform="translate(-1780.521 -851.456)" fill="#ccc"/>
          <g id="Group_6001" data-name="Group 6001" transform="translate(55.115 17.257)">
            <path id="Path_7380" data-name="Path 7380" d="M1697.273,829.234H1686.13v-.427H1697.1l5.867-5.867h7.186v.429h-7.008Z" transform="translate(-1686.13 -822.94)" fill="#b7b7b7"/>
          </g>
          <g id="Group_6002" data-name="Group 6002" transform="translate(57.832 38.066)">
            <path id="Path_7381" data-name="Path 7381" d="M1717.026,919.11h-14.339l-4.647-4.647.3-.3,4.521,4.524h14.164Z" transform="translate(-1698.04 -914.16)" fill="#b7b7b7"/>
          </g>
          <rect id="Rectangle_643" data-name="Rectangle 643" width="14.864" height="1.825" transform="translate(73.009 20.088)" fill="#a1a1a1"/>
          <rect id="Rectangle_644" data-name="Rectangle 644" width="11.965" height="1.823" transform="translate(68.474 38.686)" fill="#a1a1a1"/>
        </g>
        <g id="Group_6008" data-name="Group 6008" transform="translate(0 152.947)">
          <path id="Path_7382" data-name="Path 7382" d="M1293.951,954.56c3.744-1.791,7.471,10.131,7.471,10.131,6.365,8.411,15.259-2.778,14.39,9.793-1.524,22,25.321,6.919,12.936,29.885s10.934,12.987,3.239,31.507,2.279,40.609-9.3,31.53c0,0-10.2-22.36-20.713-29.279s6.3-15.126,3.011-24.522c-4.779-13.648-16.294-13.112-7.991-27.778S1281.223,960.648,1293.951,954.56Z" transform="translate(-1290.157 -954.377)" fill="#bfbfbf"/>
          <g id="Group_6004" data-name="Group 6004" transform="translate(15.075 23.323)">
            <path id="Path_7383" data-name="Path 7383" d="M1377.363,1137.916c-5.021-3.531-10.9-28.131-11.244-42.783-.18-7.5-2.4-10.632-4.355-13.393-1.871-2.637-3.488-4.914-2.546-10.144,1.8-9.994-2.931-14.308-2.979-14.351l.547-.625c.212.185,5.137,4.633,3.249,15.122-.878,4.886.57,6.93,2.406,9.517,1.926,2.715,4.323,6.093,4.51,13.851.376,15.726,6.383,38.953,10.893,42.124Z" transform="translate(-1356.24 -1056.62)" fill="#fff"/>
          </g>
          <g id="Group_6005" data-name="Group 6005" transform="translate(31.86 57.165)">
            <path id="Path_7384" data-name="Path 7384" d="M1436.039,1254.25a10.78,10.78,0,0,1-2.122-.23,4.631,4.631,0,0,1-3.771-3.034c-1.353-3.869,1.782-10.156,4.327-13.187a19.342,19.342,0,0,0,3.846-12.471c-.075-1.209-.2-2.329-.312-3.315-.32-2.856-.552-4.918.675-6.3,1.081-1.216,3.166-1.74,6.976-1.759,6.679-.03,9.323-2.8,11.445-5.019a12.09,12.09,0,0,1,2.788-2.4h0c3.328-1.818,6.855-2.085,8.385-.636.726.689,1.341,2.037.137,4.553a17.593,17.593,0,0,1-3.672,4.923c-1.54,1.574-2.56,2.612-2.03,4.686.125.486.269.976.413,1.469,1.029,3.522,2.2,7.514-3.83,10.224-1.28.575-2.445,1.031-3.474,1.435-4.209,1.652-6.748,2.648-9.615,8.7-.554,1.173-1.045,2.281-1.519,3.355C1442.42,1250.374,1440.711,1254.25,1436.039,1254.25Zm24.249-46.983a11.347,11.347,0,0,0-2.584,2.245c-2.231,2.336-5.007,5.244-12.04,5.276-3.5.016-5.463.472-6.36,1.48-.981,1.1-.767,3.009-.47,5.653.112,1,.24,2.126.317,3.356a19.832,19.832,0,0,1-4.04,13.055c-2.518,3-5.372,8.969-4.179,12.38a3.855,3.855,0,0,0,3.151,2.493c5.678,1.147,7.245-2.4,9.843-8.29.474-1.079.967-2.195,1.528-3.376,3.007-6.351,5.815-7.452,10.062-9.117,1.02-.4,2.176-.853,3.436-1.421,5.37-2.413,4.4-5.726,3.374-9.234-.148-.5-.294-1-.42-1.5-.646-2.523.627-3.826,2.242-5.47a16.676,16.676,0,0,0,3.518-4.7c.545-1.141.995-2.687.041-3.591-1.257-1.193-4.446-.867-7.418.757Z" transform="translate(-1429.821 -1204.973)" fill="#bfbfbf"/>
          </g>
          <g id="Group_6006" data-name="Group 6006" transform="translate(35.213 63.796)">
            <path id="Path_7385" data-name="Path 7385" d="M1445.35,1281.479l-.83-.043c.041-.78,1.088-19.137,8.458-24.511,8.087-5.895,10.637-12.229,11.851-16.481,1.43-5.01,8.714-6.349,9.024-6.4l.144.816c-.071.014-7.081,1.3-8.369,5.815-1.248,4.371-3.867,10.879-12.161,16.924C1446.413,1262.737,1445.362,1281.292,1445.35,1281.479Z" transform="translate(-1444.52 -1234.04)" fill="#bbbcbc"/>
          </g>
          <path id="Path_7386" data-name="Path 7386" d="M1426.189,1035.688c-5.24-1.8-4.152,8.3-6.365,15.774s-24.63,3.26-15.22,21.97-11.9,6.257-5.534,22.584.554,33.789,7.471,29.347,3.887-25,11.082-27.445,8.37-5.292,1.245-11.933,18.667-13.235,12.3-26.646S1432.244,1037.764,1426.189,1035.688Z" transform="translate(-1373.293 -1016.977)" fill="#a1a1a1"/>
          <g id="Group_6007" data-name="Group 6007" transform="translate(33.205 42.134)">
            <path id="Path_7387" data-name="Path 7387" d="M1438.975,1204.549c-.659-2.794-6.287-27.392-1.036-30.365,4.626-2.621,4.514-12.813,3.791-22.437-.641-8.52,10.3-12.5,10.77-12.667l.276.782c-.107.039-10.81,3.938-10.219,11.823.741,9.885.821,20.373-4.211,23.222-3.988,2.258-.317,22.025,1.435,29.452Z" transform="translate(-1435.72 -1139.08)" fill="#fff"/>
          </g>
          <path id="Path_7388" data-name="Path 7388" d="M1395.009,1387.68l-7.48,28.38H1370.81l-7.48-28.38Z" transform="translate(-1346.638 -1288.837)" fill="#828282"/>
          <path id="Path_7389" data-name="Path 7389" d="M1395.009,1387.68s-16.468,3.093-16.468,28.38h-7.731l-7.48-28.38Z" transform="translate(-1346.638 -1288.837)" fill="#989898"/>
        </g>
        <g id="Group_6009" data-name="Group 6009" transform="translate(67.728 7.012)">
          <path id="Path_7390" data-name="Path 7390" d="M1612.928,314.64v2.409h-23.462v23.459h-2.406V314.64Z" transform="translate(-1587.06 -314.64)" fill="#888a8e"/>
        </g>
        <g id="Group_6096" data-name="Group 6096" transform="translate(33.308 164.543)">
          <g id="Group_6010" data-name="Group 6010" transform="translate(38.278 50.382)">
            <rect id="Rectangle_650" data-name="Rectangle 650" width="23.567" height="1.398" fill="#dcd0c8"/>
          </g>
          <g id="Group_6011" data-name="Group 6011" transform="translate(41.437 55.421)">
            <rect id="Rectangle_651" data-name="Rectangle 651" width="2.064" height="63.622" transform="translate(2.064 63.622) rotate(180)" fill="#6d6865"/>
          </g>
          <g id="Group_6012" data-name="Group 6012" transform="translate(58.156 49.985)">
            <rect id="Rectangle_652" data-name="Rectangle 652" width="16.381" height="1.998" fill="#c6bbb5"/>
          </g>
          <g id="Group_6013" data-name="Group 6013" transform="translate(63.245 32.94)">
            <rect id="Rectangle_653" data-name="Rectangle 653" width="6.202" height="18.84" fill="#948c87"/>
          </g>
          <g id="Group_6014" data-name="Group 6014" transform="translate(29.824 51.803)">
            <rect id="Rectangle_654" data-name="Rectangle 654" width="90.761" height="3.618" fill="#c5c5c5"/>
          </g>
          <g id="Group_6015" data-name="Group 6015" transform="translate(5.033 23.834)">
            <path id="Path_7391" data-name="Path 7391" d="M1465.6,1115.767s-.992,13.922,1.727,15.587c1.7,1.043,8.5,4.565,8.3,5.224s-3.837,5.874-3.837,5.874-13.051-8.593-13.47-11.3c-.41-2.646.641-20.382,2.436-21.2,1.344-.611,2.053-.107,3.746,1.152C1466.877,1112.866,1465.6,1115.767,1465.6,1115.767Z" transform="translate(-1458.232 -1109.693)" fill="#464646"/>
          </g>
          <g id="Group_6018" data-name="Group 6018" transform="translate(23.129 109.992)">
            <g id="Group_6017" data-name="Group 6017">
              <g id="Group_6016" data-name="Group 6016">
                <path id="Path_7392" data-name="Path 7392" d="M1542.891,1487.75s-.406,2.817-.456,3.239-4.514-.249-4.514-.249l-.361-3.353S1542.335,1487.353,1542.891,1487.75Z" transform="translate(-1537.56 -1487.387)" fill="#454971"/>
              </g>
            </g>
          </g>
          <g id="Group_6021" data-name="Group 6021" transform="translate(22.428 113.045)">
            <g id="Group_6020" data-name="Group 6020">
              <g id="Group_6019" data-name="Group 6019">
                <path id="Path_7393" data-name="Path 7393" d="M1540.11,1500.962a12.027,12.027,0,0,0,2.783,2.436c1.366.741,3.517,1.033,4.325,1.8.584.552,2.126,2.931-3.554,2.884s-8.42.335-9.029-.575.88-6.736.88-6.736A12,12,0,0,0,1540.11,1500.962Z" transform="translate(-1534.489 -1500.77)" fill="#8a8a8a"/>
              </g>
            </g>
          </g>
          <g id="Group_6024" data-name="Group 6024" transform="translate(51.725 110.02)">
            <g id="Group_6023" data-name="Group 6023">
              <g id="Group_6022" data-name="Group 6022">
                <path id="Path_7394" data-name="Path 7394" d="M1668.251,1487.87s-.406,2.817-.456,3.239-4.515-.249-4.515-.249l-.36-3.353S1667.694,1487.473,1668.251,1487.87Z" transform="translate(-1662.92 -1487.507)" fill="#454971"/>
              </g>
            </g>
          </g>
          <g id="Group_6027" data-name="Group 6027" transform="translate(51.029 113.073)">
            <g id="Group_6026" data-name="Group 6026">
              <g id="Group_6025" data-name="Group 6025">
                <path id="Path_7395" data-name="Path 7395" d="M1665.487,1501.082a12.034,12.034,0,0,0,2.783,2.436c1.368.739,6.4,1.348,7.21,2.112.584.552,1.556,2.778-6.437,2.571-5.678-.148-8.42.335-9.029-.575s.88-6.736.88-6.736S1662.161,1501.408,1665.487,1501.082Z" transform="translate(-1659.869 -1500.89)" fill="#8a8a8a"/>
              </g>
            </g>
          </g>
          <g id="Group_6030" data-name="Group 6030" transform="translate(10.018 61.701)">
            <g id="Group_6029" data-name="Group 6029">
              <g id="Group_6028" data-name="Group 6028">
                <path id="Path_7396" data-name="Path 7396" d="M1484.13,1275.69s16.226,2.747,19.894,3.321,23.539,5.521,26.023,7.029c1.978,1.2-1.038,30.006-1.743,41h-7.826l-.568-32.967c-9.394.235-16.1-2.2-22.935-1.159s-12.544,2.514-16.89-3.314C1480.083,1289.594,1479.923,1276.963,1484.13,1275.69Z" transform="translate(-1480.084 -1275.69)" fill="#c1c1c1"/>
              </g>
            </g>
          </g>
          <g id="Group_6033" data-name="Group 6033" transform="translate(6.823 65.211)">
            <g id="Group_6032" data-name="Group 6032">
              <g id="Group_6031" data-name="Group 6031">
                <path id="Path_7397" data-name="Path 7397" d="M1489.314,1338.941l-7.628-.472-.744-32.523a46.406,46.406,0,0,1-8.7-.552l-6.159-14.314c5.4,1.079,22.693,5.44,25,6.839C1493.06,1299.119,1490.019,1327.95,1489.314,1338.941Z" transform="translate(-1466.08 -1291.08)" fill="#c1c1c1"/>
              </g>
            </g>
          </g>
          <g id="Group_6036" data-name="Group 6036" transform="translate(17.446 0.59)">
            <g id="Group_6035" data-name="Group 6035">
              <g id="Group_6034" data-name="Group 6034">
                <path id="Path_7398" data-name="Path 7398" d="M1516.734,1008.08s5.949-1.643,8.219,2.975,1.241,13.372-1.757,14.2-7.309-.125-8.554-3-2.238-6.958-1.941-9.6S1515.156,1008.711,1516.734,1008.08Z" transform="translate(-1512.648 -1007.796)" fill="#dba585"/>
              </g>
            </g>
          </g>
          <g id="Group_6039" data-name="Group 6039" transform="translate(18.48 13.073)">
            <g id="Group_6038" data-name="Group 6038">
              <g id="Group_6037" data-name="Group 6037">
                <path id="Path_7399" data-name="Path 7399" d="M1525.141,1066.566s-.066,3.513.322,4.261-8.283.561-8.283.561a17.6,17.6,0,0,0,.591-7.811C1517,1060.022,1525.141,1066.566,1525.141,1066.566Z" transform="translate(-1517.18 -1062.52)" fill="#dba585"/>
              </g>
            </g>
          </g>
          <g id="Group_6042" data-name="Group 6042" transform="translate(17.103)">
            <g id="Group_6041" data-name="Group 6041">
              <g id="Group_6040" data-name="Group 6040">
                <path id="Path_7400" data-name="Path 7400" d="M1512.646,1018.012s.466.942,2.708.789,5.2-2.858,6.157-3.1,1.01-.785,1.01-.785l.5.9.976.148s-.664-2.715.78-3.668-.65-8.65-7.968-6.8c0,0-5.586,1.022-5.659,4.143S1511.56,1016.361,1512.646,1018.012Z" transform="translate(-1511.146 -1005.211)" fill="#3e4148"/>
              </g>
            </g>
          </g>
          <g id="Group_6045" data-name="Group 6045" transform="translate(18.589 18.981)">
            <g id="Group_6044" data-name="Group 6044">
              <g id="Group_6043" data-name="Group 6043">
                <path id="Path_7401" data-name="Path 7401" d="M1526.287,1090.73s-.025-1.43-.673-1.569-6.816-.985-7.612-.673l-.342,1.889S1519.2,1091.323,1526.287,1090.73Z" transform="translate(-1517.66 -1088.419)" fill="#dcd0c8"/>
              </g>
            </g>
          </g>
          <g id="Group_6048" data-name="Group 6048" transform="translate(26.506 7.48)">
            <g id="Group_6047" data-name="Group 6047">
              <g id="Group_6046" data-name="Group 6046">
                <path id="Path_7402" data-name="Path 7402" d="M1554.861,1039.587c-.167-1.173-1.5-2.519-2.263-.694s.516,4.487,1.371,4.344S1555.087,1041.179,1554.861,1039.587Z" transform="translate(-1552.364 -1037.999)" fill="#dba585"/>
              </g>
            </g>
          </g>
          <g id="Group_6051" data-name="Group 6051" transform="translate(53.037 38.191)">
            <g id="Group_6050" data-name="Group 6050">
              <g id="Group_6049" data-name="Group 6049">
                <path id="Path_7403" data-name="Path 7403" d="M1668.681,1172.632a.016.016,0,0,0-.011,0C1668.718,1172.65,1668.722,1172.653,1668.681,1172.632Z" transform="translate(-1668.67 -1172.63)" fill="#363957"/>
              </g>
            </g>
          </g>
          <g id="Group_6054" data-name="Group 6054" transform="translate(16.164 1.71)">
            <g id="Group_6053" data-name="Group 6053">
              <g id="Group_6052" data-name="Group 6052">
                <path id="Path_7404" data-name="Path 7404" d="M1510.661,1012.706s-7.254-.342-1.266,10.982Z" transform="translate(-1507.027 -1012.705)" fill="#3e4148"/>
              </g>
            </g>
          </g>
          <g id="Group_6056" data-name="Group 6056" transform="translate(3.638 108.312)">
            <g id="Group_6055" data-name="Group 6055">
              <path id="Path_7405" data-name="Path 7405" d="M1452.12,1488.64l.538,1.517,22.8-7.062-1.093-3.075Z" transform="translate(-1452.12 -1480.02)" fill="#7b7b7b"/>
            </g>
          </g>
          <g id="Group_6058" data-name="Group 6058" transform="translate(25.166 85.518)">
            <g id="Group_6057" data-name="Group 6057">
              <rect id="Rectangle_655" data-name="Rectangle 655" width="2.591" height="24.785" fill="#7b7b7b"/>
            </g>
          </g>
          <g id="Group_6060" data-name="Group 6060" transform="translate(18.82 84.202)">
            <g id="Group_6059" data-name="Group 6059">
              <rect id="Rectangle_656" data-name="Rectangle 656" width="15.284" height="1.46" fill="#5d5955"/>
            </g>
          </g>
          <g id="Group_6062" data-name="Group 6062" transform="translate(26.149 108.12)">
            <g id="Group_6061" data-name="Group 6061">
              <path id="Path_7406" data-name="Path 7406" d="M1574.136,1487.992l-.538,1.517-22.8-7.062,1-3.267Z" transform="translate(-1550.8 -1479.18)" fill="#7b7b7b"/>
            </g>
          </g>
          <g id="Group_6064" data-name="Group 6064" transform="translate(26.149 108.12)">
            <g id="Group_6063" data-name="Group 6063">
              <path id="Path_7407" data-name="Path 7407" d="M1558.075,1489.347v1.766l-7.275-8.666,1-3.267Z" transform="translate(-1550.8 -1479.18)" fill="#8c8581"/>
            </g>
          </g>
          <g id="Group_6066" data-name="Group 6066" transform="translate(47.355 116.912)">
            <g id="Group_6065" data-name="Group 6065">
              <path id="Path_7408" data-name="Path 7408" d="M1648.021,1519.851a2.131,2.131,0,1,1-2.131-2.131A2.13,2.13,0,0,1,1648.021,1519.851Z" transform="translate(-1643.76 -1517.72)" fill="#3a3a3a"/>
            </g>
          </g>
          <g id="Group_6068" data-name="Group 6068" transform="translate(29.343 116.912)">
            <g id="Group_6067" data-name="Group 6067">
              <path id="Path_7409" data-name="Path 7409" d="M1569.061,1519.851a2.131,2.131,0,1,1-2.131-2.131A2.13,2.13,0,0,1,1569.061,1519.851Z" transform="translate(-1564.8 -1517.72)" fill="#3a3a3a"/>
            </g>
          </g>
          <g id="Group_6070" data-name="Group 6070" transform="translate(1.508 116.912)">
            <g id="Group_6069" data-name="Group 6069">
              <path id="Path_7410" data-name="Path 7410" d="M1447.041,1519.851a2.131,2.131,0,1,1-2.13-2.131A2.131,2.131,0,0,1,1447.041,1519.851Z" transform="translate(-1442.78 -1517.72)" fill="#3a3a3a"/>
            </g>
          </g>
          <g id="Group_6071" data-name="Group 6071" transform="translate(8.459 78.673)">
            <path id="Path_7411" data-name="Path 7411" d="M1506.929,1355.62h-31.154a2.525,2.525,0,0,1-2.525-2.525v-.479a2.525,2.525,0,0,1,2.525-2.525h31.154a2.525,2.525,0,0,1,2.525,2.525v.479A2.524,2.524,0,0,1,1506.929,1355.62Z" transform="translate(-1473.25 -1350.09)" fill="#bbb"/>
          </g>
          <g id="Group_6072" data-name="Group 6072" transform="translate(106.907 55.421)">
            <rect id="Rectangle_657" data-name="Rectangle 657" width="2.064" height="63.622" fill="#6d6865"/>
          </g>
          <g id="Group_6073" data-name="Group 6073" transform="translate(39.562 4.227)">
            <path id="Path_7412" data-name="Path 7412" d="M1660.646,1061.527h-48.525a2.522,2.522,0,0,1-2.521-2.521V1026.26a2.52,2.52,0,0,1,2.521-2.521h48.525a2.52,2.52,0,0,1,2.521,2.518V1059A2.52,2.52,0,0,1,1660.646,1061.527Z" transform="translate(-1609.6 -1023.74)" fill="#c5c5c5"/>
          </g>
          <g id="Group_6074" data-name="Group 6074" transform="translate(41.661 6.271)">
            <rect id="Rectangle_658" data-name="Rectangle 658" width="49.369" height="29.824" fill="#fff"/>
          </g>
          <g id="Group_6075" data-name="Group 6075" transform="translate(84.859 37.37)">
            <path id="Path_7413" data-name="Path 7413" d="M1812.148,1170.565a2.056,2.056,0,1,1-1.989-1.535A1.806,1.806,0,0,1,1812.148,1170.565Z" transform="translate(-1808.17 -1169.03)" fill="#8c8480"/>
          </g>
          <g id="Group_6076" data-name="Group 6076" transform="translate(63.25 46.999)">
            <path id="Path_7414" data-name="Path 7414" d="M1727.624,1216.094v-.673s-.947-4.181-7.633-4.181-6.552,4.854-6.552,4.854h14.184Z" transform="translate(-1713.439 -1211.24)" fill="#948c87"/>
          </g>
          <g id="Group_6078" data-name="Group 6078" transform="translate(61.695 45.029)">
            <g id="Group_6077" data-name="Group 6077">
              <path id="Path_7415" data-name="Path 7415" d="M1708.1,1205.2a6.588,6.588,0,0,0,1.987-.434c.531-.322,3.716-2.464,4.464-2.119s5.726,1.868,5.552,2.6-.634.657-.986.529a25.672,25.672,0,0,0-4.284-.76s3.552,1.3,3.565,2.24-.744,1.175-1.079,1.533-.741,1.245-1.656,1.314-5.379-1.485-6.3-1.556a22.24,22.24,0,0,1-2.735-.094A24.82,24.82,0,0,1,1708.1,1205.2Z" transform="translate(-1706.622 -1202.606)" fill="#dba585"/>
            </g>
          </g>
          <g id="Group_6081" data-name="Group 6081" transform="translate(6.451 20.941)">
            <g id="Group_6080" data-name="Group 6080">
              <g id="Group_6079" data-name="Group 6079">
                <path id="Path_7416" data-name="Path 7416" d="M1494.723,1099.344c-4.631-.814-9.506-1.982-9.506-1.982l-8.625-.351s-7.916,1.743-11.034,3.15c-.294.135-.3,7.063-1.109,8.881l2.584,5.454s1.492,10.8,1.8,15.608c.142,2.206-.4,21.315-.4,21.315s.776.383,6.663,1.031,20.6-.235,20.69-.931-2.849-25.891-2.979-27.2c-.2-2,.579-11.258.579-11.258,1.109,1.49,3.937,8.219,6.885,11.42,1.734,1.884,10.318,3.039,11.938,3.091,3.522.119,9.948.819,10.135.477.151-.205.561-5.7.157-5.837-.351-.119-12.284-.805-15.343-2.427-1.118-.593-4.462-7.884-4.462-7.884S1497.278,1100.491,1494.723,1099.344Z" transform="translate(-1464.45 -1097.01)" fill="#444"/>
              </g>
            </g>
          </g>
          <g id="Group_6082" data-name="Group 6082" transform="translate(0 40.212)">
            <path id="Path_7417" data-name="Path 7417" d="M1456.287,1216.073H1441.02a4.85,4.85,0,0,1-4.85-4.85V1186.34a4.85,4.85,0,0,1,4.85-4.85h15.268a4.85,4.85,0,0,1,4.85,4.85v24.88A4.848,4.848,0,0,1,1456.287,1216.073Z" transform="translate(-1436.17 -1181.49)" fill="#bbb"/>
          </g>
          <g id="Group_6083" data-name="Group 6083" transform="translate(7.527 62.289)">
            <path id="Path_7418" data-name="Path 7418" d="M1482.183,1298.805a11.442,11.442,0,0,1-8.876-3.675c-4.991-5.511-4.095-15.2-4.054-15.608a1.389,1.389,0,1,1,2.765.274c-.011.109-.807,8.889,3.354,13.475a8.658,8.658,0,0,0,6.809,2.756,1.389,1.389,0,0,1,0,2.779Z" transform="translate(-1469.166 -1278.27)" fill="#bbb"/>
          </g>
          <g id="Group_6086" data-name="Group 6086" transform="translate(45.162 8.645)">
            <g id="Group_6085" data-name="Group 6085">
              <g id="Group_6084" data-name="Group 6084">
                <path id="Path_7419" data-name="Path 7419" d="M1648.25,1044.687H1634.51a.361.361,0,0,1-.36-.361v-.855a.361.361,0,0,1,.36-.361h13.739a.361.361,0,0,1,.36.361v.853A.361.361,0,0,1,1648.25,1044.687Z" transform="translate(-1634.15 -1043.11)" fill="#e9e9e9"/>
              </g>
            </g>
          </g>
          <g id="Group_6089" data-name="Group 6089" transform="translate(45.162 12.024)">
            <g id="Group_6088" data-name="Group 6088">
              <g id="Group_6087" data-name="Group 6087">
                <path id="Path_7420" data-name="Path 7420" d="M1648.25,1059.5H1634.51a.361.361,0,0,1-.36-.36v-.855a.361.361,0,0,1,.36-.36h13.739a.361.361,0,0,1,.36.36v.853A.36.36,0,0,1,1648.25,1059.5Z" transform="translate(-1634.15 -1057.92)" fill="#e9e9e9"/>
              </g>
            </g>
          </g>
          <g id="Group_6092" data-name="Group 6092" transform="translate(45.16 15.902)">
            <g id="Group_6091" data-name="Group 6091">
              <g id="Group_6090" data-name="Group 6090">
                <path id="Path_7421" data-name="Path 7421" d="M1647.389,1092.736h-12.033a1.215,1.215,0,0,1-1.216-1.214v-15.389a1.215,1.215,0,0,1,1.216-1.214h12.033a1.213,1.213,0,0,1,1.214,1.214v15.389A1.213,1.213,0,0,1,1647.389,1092.736Z" transform="translate(-1634.14 -1074.92)" fill="#e9e9e9"/>
              </g>
            </g>
          </g>
          <g id="Group_6095" data-name="Group 6095" transform="translate(62.543 8.645)">
            <g id="Group_6094" data-name="Group 6094">
              <g id="Group_6093" data-name="Group 6093">
                <path id="Path_7422" data-name="Path 7422" d="M1734.171,1068.182h-21.908a1.923,1.923,0,0,1-1.923-1.923v-21.226a1.923,1.923,0,0,1,1.923-1.923h21.908a1.925,1.925,0,0,1,1.923,1.923v21.226A1.923,1.923,0,0,1,1734.171,1068.182Z" transform="translate(-1710.34 -1043.11)" fill="#e9e9e9"/>
              </g>
            </g>
          </g>
        </g>
        <g id="Group_6119" data-name="Group 6119" transform="translate(258.078 131.145)">
          <g id="Group_6097" data-name="Group 6097" transform="translate(0 17.833)">
            <path id="Path_7423" data-name="Path 7423" d="M2449.853,957.529l-14.146,7.774L2421.5,942.948l17.184-5.968Z" transform="translate(-2421.5 -936.98)" fill="#2e3048"/>
          </g>
          <g id="Group_6098" data-name="Group 6098" transform="translate(0.942 18.492)">
            <path id="Path_7424" data-name="Path 7424" d="M2452.144,959.087l-13.231,7.272-13.283-20.907,16.068-5.582Z" transform="translate(-2425.63 -939.87)" fill="#fff"/>
          </g>
          <g id="Group_6099" data-name="Group 6099" transform="translate(15.527 29.152)">
            <path id="Path_7425" data-name="Path 7425" d="M2506.341,991.247s-2.463-1.177-3.542-1.793-3.859-1.46-4.085-1.661-8.24-.7-8.728-1.115-.961.983,1.12,1.439,4.969,1.569,5.126,2.379-2.133,1-2.366,1.674.064.518.392.661,2.727-1.184,3.782-.807,2.665-.144,3.475.132,4.735,1.6,4.735,1.6Z" transform="translate(-2489.567 -986.601)" fill="#dba585"/>
          </g>
          <g id="Group_6100" data-name="Group 6100" transform="translate(2.689 29.176)">
            <path id="Path_7426" data-name="Path 7426" d="M2444.118,1000.882s-2.069-1.862-3.068-2.642-2.881-3.07-3.155-3.2-3.864-7.5-4.448-7.79.552-1.287,1.789.495,3.412,4.072,4.238,3.905.114-2.4.657-2.881.516-.141.778.114-.055,3.03.711,3.878.9,2.568,1.478,3.223,3.351,3.842,3.351,3.842Z" transform="translate(-2433.289 -986.706)" fill="#dba585"/>
          </g>
          <g id="Group_6101" data-name="Group 6101" transform="translate(58.065 142.456)">
            <path id="Path_7427" data-name="Path 7427" d="M2676.04,1483.7s.447,3.1.5,3.572,4.978-.274,4.978-.274l.4-3.7S2676.656,1483.258,2676.04,1483.7Z" transform="translate(-2676.04 -1483.296)" fill="#454971"/>
          </g>
          <g id="Group_6102" data-name="Group 6102" transform="translate(49.973 145.824)">
            <path id="Path_7428" data-name="Path 7428" d="M2649.109,1498.27a13.325,13.325,0,0,1-3.068,2.687c-1.508.817-3.878,1.138-4.77,1.982-.643.609-2.345,3.235,3.919,3.18s9.285.372,9.955-.634-.972-7.425-.972-7.425A13.245,13.245,0,0,1,2649.109,1498.27Z" transform="translate(-2640.568 -1498.06)" fill="#a5a5a5"/>
          </g>
          <g id="Group_6103" data-name="Group 6103" transform="translate(22.802 142.456)">
            <path id="Path_7429" data-name="Path 7429" d="M2521.46,1483.7s.447,3.1.5,3.572,4.978-.274,4.978-.274l.4-3.7S2522.073,1483.258,2521.46,1483.7Z" transform="translate(-2521.46 -1483.296)" fill="#454971"/>
          </g>
          <g id="Group_6104" data-name="Group 6104" transform="translate(11.818 145.824)">
            <path id="Path_7430" data-name="Path 7430" d="M2484.74,1498.27a13.3,13.3,0,0,1-3.066,2.687c-1.508.817-7.056,1.485-7.952,2.329-.644.609-1.713,3.064,7.1,2.833,6.262-.162,9.284.372,9.955-.634s-.971-7.425-.971-7.425S2488.408,1498.63,2484.74,1498.27Z" transform="translate(-2473.306 -1498.06)" fill="#a5a5a5"/>
          </g>
          <g id="Group_6105" data-name="Group 6105" transform="translate(42.698 63.055)">
            <path id="Path_7431" data-name="Path 7431" d="M2619.966,1135.22s4.624,7.348,4.279,13.988,1.677,13.892,2.373,20.829c.773,7.735,3.944,26.044,4.058,30.182s-.49,17.348-.49,17.348l-6.344.146s-5.329-32.012-6.709-35.278-8.224-26.553-8.454-29.165S2619.966,1135.22,2619.966,1135.22Z" transform="translate(-2608.675 -1135.22)" fill="#3b3b3b"/>
          </g>
          <g id="Group_6106" data-name="Group 6106" transform="translate(21.942 61.788)">
            <path id="Path_7432" data-name="Path 7432" d="M2525.393,1131.93s-3.485,18.2-3.944,22.267-.767,19.67-1,22.212-1.533,33.246-2.76,37.019h8.112s6.225-22.321,6.225-32.881,4.811-22.96,7.916-29.929,10.21-7.133,12.12-20.061C2552.064,1130.559,2527.976,1127.831,2525.393,1131.93Z" transform="translate(-2517.69 -1129.669)" fill="#3b3b3b"/>
          </g>
          <g id="Group_6107" data-name="Group 6107" transform="translate(35.219 0.713)">
            <path id="Path_7433" data-name="Path 7433" d="M2586.944,862.5s-6.207-2.32-9.07,2.4-2.584,14.184.543,15.348,7.829.554,9.431-2.4,3.047-7.229,2.977-10.087S2588.573,863.328,2586.944,862.5Z" transform="translate(-2575.89 -861.933)" fill="#dba585"/>
          </g>
          <g id="Group_6108" data-name="Group 6108" transform="translate(38.235 13.362)">
            <path id="Path_7434" data-name="Path 7434" d="M2589.3,923.274a5.346,5.346,0,0,1-.168,2.5c-.427.826,8.043.846,8.043.846a55.715,55.715,0,0,1,1.992-8.285C2600.465,914.544,2589.3,923.274,2589.3,923.274Z" transform="translate(-2589.112 -917.382)" fill="#dba585"/>
          </g>
          <g id="Group_6109" data-name="Group 6109" transform="translate(35.486 0)">
            <path id="Path_7435" data-name="Path 7435" d="M2589.859,873.123s-.586.965-2.97.591-5.3-3.55-6.294-3.9-1.006-.933-1.006-.933l-.623.91-1.059.068s.965-2.84-.491-4,1.51-9.191,9.162-6.517c0,0,5.876,1.62,5.664,4.962S2591.173,871.458,2589.859,873.123Z" transform="translate(-2577.06 -858.805)" fill="#3e4148"/>
          </g>
          <g id="Group_6110" data-name="Group 6110" transform="translate(37.749 19.336)">
            <path id="Path_7436" data-name="Path 7436" d="M2586.98,945.888s.028-1.578.744-1.729,7.893-.842,8.769-.495V945.5S2594.8,946.54,2586.98,945.888Z" transform="translate(-2586.98 -943.568)" fill="#dcd0c8"/>
          </g>
          <g id="Group_6111" data-name="Group 6111" transform="translate(37.986 7.643)">
            <path id="Path_7437" data-name="Path 7437" d="M2588.207,893.527c.134-.561,1.561-2.162,2.105-.447s-.826,4.024-1.59,3.826S2587.869,894.949,2588.207,893.527Z" transform="translate(-2588.019 -892.309)" fill="#dba585"/>
          </g>
          <g id="Group_6112" data-name="Group 6112" transform="translate(9.237 40.289)">
            <path id="Path_7438" data-name="Path 7438" d="M2462.022,1035.424a.011.011,0,0,1,.012,0C2461.986,1035.445,2461.979,1035.447,2462.022,1035.424Z" transform="translate(-2461.993 -1035.423)" fill="#363957"/>
          </g>
          <g id="Group_6113" data-name="Group 6113" transform="translate(9.28 21.271)">
            <path id="Path_7439" data-name="Path 7439" d="M2512.1,1011.337a65.766,65.766,0,0,1-10.3,1.836c-6.492.716-22.709-.258-22.812-1.027s3.488-28.556,3.285-29.988-.315-6.529-.315-6.529a35.847,35.847,0,0,1-3.221,10.215c-.621,1.122-2.7,4.647-3.707,3.846-4.859-3.88-12.382-18.5-12.859-18.621.4-.173,3.565-1.631,4.008-1.779.39-.13,3.894,3.582,6.018,5.883.947,1.024,1.62,1.77,1.62,1.77.614-1.38,2.847-10.071,3.543-13.08,1.565-6.784,1.325-7.067,1.325-7.067,4.75-1.437,11.956-4.359,11.956-4.359l9.51-.388s8.73,1.921,12.168,3.474c.326.148.328,7.788,1.223,9.791l-2.852,6.013s-1.645,11.91-1.987,17.207C2508.553,990.964,2512.1,1011.337,2512.1,1011.337Z" transform="translate(-2462.18 -952.05)" fill="#fff"/>
          </g>
          <g id="Group_6114" data-name="Group 6114" transform="translate(50.454 24.743)">
            <path id="Path_7440" data-name="Path 7440" d="M2653.268,986.979a3.76,3.76,0,0,1-2.11,1.775,2.723,2.723,0,0,1-1.521.153l-.374-.068h0l-6.518-1.209s-1.425-16.424,8.9-20.359C2651.924,967.359,2655.548,979.625,2653.268,986.979Z" transform="translate(-2642.677 -967.27)" fill="#fff"/>
          </g>
          <g id="Group_6115" data-name="Group 6115" transform="translate(57.038 37.919)">
            <path id="Path_7441" data-name="Path 7441" d="M2673.436,1033.338h0a2.723,2.723,0,0,1-1.521.153l-.374-.068h0l.643-8.393Z" transform="translate(-2671.541 -1025.03)" fill="#762020"/>
          </g>
          <g id="Group_6116" data-name="Group 6116" transform="translate(19.304 44.392)">
            <path id="Path_7442" data-name="Path 7442" d="M2507.745,1055.18l-.8,3.374a26.7,26.7,0,0,1-.824-5.144C2507.072,1054.437,2507.745,1055.18,2507.745,1055.18Z" transform="translate(-2506.124 -1053.41)" fill="#762020"/>
          </g>
          <g id="Group_6117" data-name="Group 6117" transform="translate(48.041 1.822)">
            <path id="Path_7443" data-name="Path 7443" d="M2632.1,866.812s8.133-1.017.137,12.569Z" transform="translate(-2632.1 -866.794)" fill="#3e4148"/>
          </g>
          <g id="Group_6118" data-name="Group 6118" transform="translate(5.714 18.935)">
            <path id="Path_7444" data-name="Path 7444" d="M2447.376,945.478l-.826-1.421,6.513-2.247.828,1.412Z" transform="translate(-2446.55 -941.81)" fill="#2e3048"/>
          </g>
        </g>
      </g>
    </g>
  </g>
</svg>
