<svg xmlns="http://www.w3.org/2000/svg" width="44.263" height="38.848" viewBox="0 0 44.263 38.848">
  <g id="coding" transform="translate(0 0)">
    <g id="Group_3879" data-name="Group 3879" transform="translate(0 0)">
      <path id="Path_3756" data-name="Path 3756" d="M44.263,33.713a2.4,2.4,0,0,0-2.395-2.395H2.395A2.4,2.4,0,0,0,0,33.713v25.8a.648.648,0,1,0,1.3,0V39.776H42.966v1.747a.648.648,0,0,0,1.3,0ZM1.3,38.479V33.713a1.1,1.1,0,0,1,1.1-1.1H41.868a1.1,1.1,0,0,1,1.1,1.1v4.766Z" transform="translate(0 -31.318)"/>
      <path id="Path_3757" data-name="Path 3757" d="M427.765,68.112a1.048,1.048,0,1,0,1.048,1.048A1.048,1.048,0,0,0,427.765,68.112Z" transform="translate(-389.827 -64.931)"/>
      <path id="Path_3758" data-name="Path 3758" d="M386.349,68.112A1.048,1.048,0,1,0,387.4,69.16,1.048,1.048,0,0,0,386.349,68.112Z" transform="translate(-351.992 -64.931)"/>
      <circle id="Ellipse_140" data-name="Ellipse 140" cx="1.048" cy="1.048" r="1.048" transform="translate(29.729 3.181)"/>
      <path id="Path_3759" data-name="Path 3759" d="M43.614,176.863a.648.648,0,0,0-.648.648v23.222a1.1,1.1,0,0,1-1.1,1.1H2.395a1.1,1.1,0,0,1-1.1-1.1v-5.229a.648.648,0,0,0-1.3,0v5.229a2.4,2.4,0,0,0,2.395,2.395H41.868a2.4,2.4,0,0,0,2.395-2.395V177.511A.648.648,0,0,0,43.614,176.863Z" transform="translate(0 -164.281)"/>
      <path id="Path_3760" data-name="Path 3760" d="M86.87,401.681v2.8a.648.648,0,0,0,.648.648h27.946a.648.648,0,0,0,.648-.648v-2.8a.648.648,0,0,0-.648-.648h-2.3a.648.648,0,1,0,0,1.3h1.653v1.5H88.167v-1.5h21.97a.648.648,0,1,0,0-1.3H87.518A.648.648,0,0,0,86.87,401.681Z" transform="translate(-79.36 -369.071)"/>
      <path id="Path_3761" data-name="Path 3761" d="M278.882,158.944l1.4,2.42a.649.649,0,0,0,.725.3l2.45-.639a6.732,6.732,0,0,0,1.33.769l.671,2.441a.648.648,0,0,0,.625.477h2.795a.648.648,0,0,0,.625-.477l.671-2.441a6.73,6.73,0,0,0,1.331-.769l2.45.639a.648.648,0,0,0,.725-.3l1.4-2.42a.648.648,0,0,0-.1-.78l-1.779-1.8a6.686,6.686,0,0,0,0-1.535l1.779-1.8a.648.648,0,0,0,.1-.78l-1.4-2.42a.649.649,0,0,0-.725-.3l-2.45.639a6.725,6.725,0,0,0-1.331-.769l-.671-2.441a.648.648,0,0,0-.625-.477h-2.795a.648.648,0,0,0-.625.477l-.671,2.441a6.73,6.73,0,0,0-1.33.769l-2.45-.639a.648.648,0,0,0-.725.3l-1.4,2.42a.648.648,0,0,0,.1.78l1.779,1.8a6.677,6.677,0,0,0,0,1.535l-1.779,1.8A.648.648,0,0,0,278.882,158.944Zm3.027-1.9a.648.648,0,0,0,.178-.56,5.437,5.437,0,0,1,0-1.781.648.648,0,0,0-.178-.56l-1.656-1.678.9-1.564,2.281.6a.649.649,0,0,0,.575-.126,5.443,5.443,0,0,1,1.541-.89.649.649,0,0,0,.4-.435l.625-2.273h1.806l.625,2.273a.649.649,0,0,0,.4.435,5.443,5.443,0,0,1,1.541.89.648.648,0,0,0,.575.126l2.281-.6.9,1.564-1.656,1.678a.648.648,0,0,0-.178.56,5.441,5.441,0,0,1,0,1.781.648.648,0,0,0,.178.56l1.656,1.678-.9,1.564-2.281-.6a.649.649,0,0,0-.575.126,5.444,5.444,0,0,1-1.541.891.649.649,0,0,0-.4.435l-.625,2.273h-1.806l-.625-2.273a.648.648,0,0,0-.4-.435,5.44,5.44,0,0,1-1.541-.891.649.649,0,0,0-.575-.126l-2.281.6-.9-1.564Z" transform="translate(-254.694 -136.52)"/>
      <path id="Path_3762" data-name="Path 3762" d="M357.619,232.391a2.046,2.046,0,1,0-2.046-2.046A2.048,2.048,0,0,0,357.619,232.391Zm0-2.795a.749.749,0,1,1-.749.749A.75.75,0,0,1,357.619,229.6Z" transform="translate(-324.833 -211.271)"/>
      <path id="Path_3763" data-name="Path 3763" d="M87.948,178.8H85.5a.648.648,0,1,0,0,1.3h2.445a.648.648,0,1,0,0-1.3Z" transform="translate(-77.518 -166.051)"/>
      <path id="Path_3764" data-name="Path 3764" d="M154.845,178.8h-8.733a.648.648,0,1,0,0,1.3h8.733a.648.648,0,1,0,0-1.3Z" transform="translate(-132.889 -166.051)"/>
      <path id="Path_3765" data-name="Path 3765" d="M102.026,217.432a.648.648,0,0,0,.648.648h7.336a.648.648,0,1,0,0-1.3h-7.336A.648.648,0,0,0,102.026,217.432Z" transform="translate(-93.206 -200.75)"/>
      <path id="Path_3766" data-name="Path 3766" d="M32.973,218.081H36.2a.648.648,0,1,0,0-1.3H32.973a.648.648,0,1,0,0,1.3Z" transform="translate(-29.53 -200.75)"/>
      <path id="Path_3767" data-name="Path 3767" d="M222.211,218.081a.648.648,0,1,0,0-1.3h-2.358a.648.648,0,1,0,0,1.3Z" transform="translate(-200.255 -200.75)"/>
      <path id="Path_3768" data-name="Path 3768" d="M108.264,254.765h-5.589a.648.648,0,0,0,0,1.3h5.589a.648.648,0,1,0,0-1.3Z" transform="translate(-93.207 -235.448)"/>
      <path id="Path_3769" data-name="Path 3769" d="M32.973,256.062H36.2a.648.648,0,0,0,0-1.3H32.973a.648.648,0,1,0,0,1.3Z" transform="translate(-29.53 -235.448)"/>
      <path id="Path_3770" data-name="Path 3770" d="M199,255.413a.648.648,0,0,0,.648.648h4.1a.648.648,0,0,0,0-1.3h-4.1A.648.648,0,0,0,199,255.413Z" transform="translate(-181.798 -235.448)"/>
      <path id="Path_3771" data-name="Path 3771" d="M102.674,332.027h3.842a.648.648,0,1,0,0-1.3h-3.842a.648.648,0,0,0,0,1.3Z" transform="translate(-93.206 -304.846)"/>
      <path id="Path_3772" data-name="Path 3772" d="M32.973,332.027H36.2a.648.648,0,1,0,0-1.3H32.973a.648.648,0,1,0,0,1.3Z" transform="translate(-29.53 -304.846)"/>
      <path id="Path_3773" data-name="Path 3773" d="M102.674,294.045h3.842a.648.648,0,0,0,0-1.3h-3.842a.648.648,0,0,0,0,1.3Z" transform="translate(-93.206 -270.147)"/>
      <path id="Path_3774" data-name="Path 3774" d="M32.973,294.045H36.2a.648.648,0,0,0,0-1.3H32.973a.648.648,0,0,0,0,1.3Z" transform="translate(-29.53 -270.147)"/>
      <path id="Path_3775" data-name="Path 3775" d="M178.8,293.4a.648.648,0,0,0,.648.648H185.3a.648.648,0,0,0,0-1.3h-5.851A.648.648,0,0,0,178.8,293.4Z" transform="translate(-163.342 -270.147)"/>
      <path id="Path_3776" data-name="Path 3776" d="M35.227,146.719a.648.648,0,0,0-.911-.1l-1.747,1.4a.648.648,0,0,0,0,1.013l1.747,1.4a.648.648,0,1,0,.81-1.012l-1.114-.891,1.114-.891A.648.648,0,0,0,35.227,146.719Z" transform="translate(-29.531 -136.521)"/>
      <path id="Path_3777" data-name="Path 3777" d="M102.674,370.008h9.606a.648.648,0,0,0,0-1.3h-9.606a.648.648,0,1,0,0,1.3Z" transform="translate(-93.206 -339.543)"/>
      <path id="Path_3778" data-name="Path 3778" d="M32.973,370.008H36.2a.648.648,0,1,0,0-1.3H32.973a.648.648,0,1,0,0,1.3Z" transform="translate(-29.53 -339.543)"/>
      <path id="Path_3779" data-name="Path 3779" d="M246.621,336.629a.648.648,0,0,0,.1.911l1.114.891-1.114.891a.648.648,0,1,0,.81,1.012l1.747-1.4a.648.648,0,0,0,0-1.012l-1.747-1.4A.648.648,0,0,0,246.621,336.629Z" transform="translate(-225.171 -310.012)"/>
    </g>
  </g>
</svg>
