<svg xmlns="http://www.w3.org/2000/svg" width="418.747" height="243.102" viewBox="0 0 418.747 243.102">
  <g id="Contract_Management" data-name="Contract Management" transform="translate(-129.356 -155.158)">
    <g id="Group_6252" data-name="Group 6252" transform="translate(129.356 141.26)">
      <path id="Path_7673" data-name="Path 7673" d="M513.839,478.843s80.3-123.229-4.952-156.933c-21.473-8.49-28.964-127.343-124.346-67.917-37.932,23.633-92.551-4.966-144.856,10.665-48.037,14.356-49.141,55.766-43.066,70.674,6.636,16.29-19.828,35.765-46.933,49.141-42.515,20.981-11.252,94.717,28.912,95.07S513.839,478.843,513.839,478.843Z" transform="translate(-129.356 -222.732)" fill="#f1f1f1"/>
      <path id="Path_7674" data-name="Path 7674" d="M2012.39,442.029s29.963-48.44,45.943-42.947-38.953,43.946-38.953,43.946Z" transform="translate(-1724.746 -359.33)" fill="#dedede"/>
      <path id="Path_7675" data-name="Path 7675" d="M2175.85,573.982s20.973-21.473,30.962-16.479S2200.82,571.985,2175.85,573.982Z" transform="translate(-1863.237 -493.281)" fill="#dedede"/>
      <path id="Path_7676" data-name="Path 7676" d="M727.184,1401.712l216.045.333s-15.645-12.317-26.964-7.989-33.621,1.332-36.617-7.656-13.982-18.309-42.277-19.64-40.946,14.648-54.926,18.975a48.408,48.408,0,0,1-21.073,1.616c-5.73-20.672-20.037-61.475-43.547-60.728-31.461,1-4.494,13.983,4.994,19.976,6.057,3.825,18.827,25.148,27.273,40.072a40.968,40.968,0,0,0-8.967,1.827c-6.161-10.725-17.816-27.093-31.289-26.419-19.976,1-6.492,12.485,3.995,18.477,5.449,3.113,13.861,7.574,20.688,11.142C728.018,1396.123,727.184,1401.712,727.184,1401.712Z" transform="translate(-612.455 -1145.545)" fill="#dedede"/>
      <path id="Path_7677" data-name="Path 7677" d="M576.35,1818.606H189.688a.46.46,0,0,1-.458-.458h0a.459.459,0,0,1,.458-.458H576.35a.459.459,0,0,1,.458.458h0A.46.46,0,0,1,576.35,1818.606Z" transform="translate(-180.084 -1561.606)" fill="#aaa"/>
      <g id="Group_6212" data-name="Group 6212" transform="translate(76.827)">
        <path id="Path_7678" data-name="Path 7678" d="M840.913,319.909l-5.649-.13c1.815,2.352,2.223,4.52,1.092,6.353-1.13,1.871-3.834,3.408-7.873,4.575A72.9,72.9,0,0,0,811.7,253.615a73.086,73.086,0,0,0-80-15.651c-1.074.463-2.149.944-3.186,1.445l-.009,0c-3.138-.958-6.194-1.743-9.144-2.34-14.888-3.021-25.452-.933-29.743,5.88-4.083,6.478-1.861,16.232,6.243,27.606,0,0,0,0,0,.006-1.092,2.019-2.074,4.094-2.982,6.242-.686,1.612-1.3,3.223-1.853,4.871-15.225.907-23.376,3.587-26.34,8.44-3.445,5.649,1.26,13.232,16.319,20.6,2.074,1.019,4.3,2.019,6.631,3.02a71.3,71.3,0,0,0,5.243,19.857,72.983,72.983,0,0,0,134.162.686c7.427-1.537,12.318-3.946,14.263-7.132C842.655,324.947,842.488,322.5,840.913,319.909Zm-17.431,11.947a112.609,112.609,0,0,1-18.318,1.482,268.562,268.562,0,0,1-37.553-2.53q1.707-3.719,3.344-7.632a103.129,103.129,0,0,0,12.161,3.306,61.578,61.578,0,0,0,12.143,1.35c8.5,0,14.593-2.455,17.6-7.23a12.524,12.524,0,0,0,1.21-2.5h-4.334c-.072.131-.148.263-.228.389-2.235,3.547-7.228,5.379-14.238,5.377A57.8,57.8,0,0,1,783.9,322.6a99.251,99.251,0,0,1-11.446-3.1q1.565-3.916,3.038-7.972c2.641-7.283,4.9-14.5,6.732-21.438a184,184,0,0,0,26.795,1.847q8.879,0,18.4-.716a69.139,69.139,0,0,1,1.418,13.98A68.314,68.314,0,0,1,823.482,331.856ZM733.2,368.027c-2.108-.764-3.177-3.79-3.7-6.193-.833-3.8-.982-9.132-.435-15.427.276-3.183.723-6.568,1.321-10.108a187.641,187.641,0,0,1,25.525,8.832c-1.876,3.235-3.775,6.236-5.672,8.956-3.614,5.181-7.151,9.179-10.222,11.561C738.065,367.155,735.3,368.791,733.2,368.027Zm24.615-26.282a191.456,191.456,0,0,0-26.74-9.26q.479-2.465,1.049-5.012,3.776.859,7.656,1.66c7.566,1.547,15.114,2.861,22.5,3.924Q760.087,337.6,757.811,341.746Zm-16.366-15.354q-4.386-.9-8.635-1.882c1.333-5.547,2.97-11.328,4.882-17.22a168.914,168.914,0,0,0,29.61,14.6q-1.8,4.3-3.692,8.365C756.342,329.214,748.906,327.921,741.445,326.392Zm-24.27-74.867a45.1,45.1,0,0,0,2.687,4.726A64.19,64.19,0,0,0,736.2,273a80.15,80.15,0,0,0,8.6,5.353c-2.776,6.048-5.418,12.5-7.849,19.2q-.681,1.874-1.324,3.741c-14.516-9.449-26.807-20.292-34.869-30.785l0,0a68.977,68.977,0,0,1,6.924-9.757c1.074-1.26,2.186-2.482,3.353-3.668l.481-.481A69.8,69.8,0,0,1,717.175,251.525Zm62.072-10.471c2.108.764,3.177,3.79,3.7,6.193.832,3.8.982,9.132.435,15.427a153.721,153.721,0,0,1-4.033,23.046q-3.719-.639-7.26-1.451a104.413,104.413,0,0,1-22.212-7.658,156.793,156.793,0,0,1,12.33-21.618c3.614-5.181,7.151-9.179,10.222-11.56,1.6-1.242,3.761-2.572,5.65-2.572A3.385,3.385,0,0,1,779.247,241.054Zm-8.284,46.92q3.622.841,7.43,1.5c-1.783,6.7-3.976,13.687-6.533,20.738q-1.478,4.076-3.057,8.015a165.494,165.494,0,0,1-29.825-14.8q.777-2.271,1.606-4.557c2.375-6.55,4.954-12.854,7.658-18.76A108.033,108.033,0,0,0,770.964,287.974ZM808.7,256.6a68.5,68.5,0,0,1,17.817,30.814,201.785,201.785,0,0,1-43.335-1.083,157.22,157.22,0,0,0,4.054-23.32c.671-7.72.59-16.864-2.54-22.01q1.088.419,2.166.874A68.254,68.254,0,0,1,808.7,256.6Zm-48.585-20.135a68.879,68.879,0,0,1,14.021,1.43c-5.4,2.351-10.911,8.892-15.1,14.889a160.732,160.732,0,0,0-12.6,22.061,76,76,0,0,1-7.723-4.8,59.565,59.565,0,0,1-15.466-15.667,40.66,40.66,0,0,1-2.928-5.233,68.77,68.77,0,0,1,8.883-5.36l0,0q1.893-.955,3.856-1.792c.095-.04.188-.082.283-.122l.066-.027q.417-.176.839-.345l.226-.09A68.263,68.263,0,0,1,760.116,236.462Zm-67.145,8.6c2.235-3.547,7.228-5.377,14.238-5.377a57.8,57.8,0,0,1,11.367,1.271q2.39.483,4.875,1.138a.006.006,0,0,1,0,0,71.73,71.73,0,0,0-14.944,11.519c-.944.926-1.853,1.89-2.742,2.89-1.111,1.222-2.168,2.5-3.187,3.8a73.754,73.754,0,0,0-4.52,6.465s0,0,0,.006C691.865,257.573,690,249.773,692.971,245.064Zm3.8,33.391c.611-1.408,1.24-2.8,1.926-4.149a.005.005,0,0,1,0,0c8.49,10.61,21,21.459,35.623,30.866-2.073,6.309-3.842,12.511-5.269,18.453a282.908,282.908,0,0,1-29.132-8.6c-1.815-.648-3.574-1.315-5.261-1.983-1-.39-1.981-.8-2.945-1.2-.148-1.482-.26-2.982-.3-4.483-.018-.723-.037-1.427-.037-2.149,0-.834.018-1.686.037-2.519a69.578,69.578,0,0,1,3.148-18.227c.315-1,.648-1.981,1.019-2.963C695.953,280.472,696.341,279.455,696.767,278.455Zm-12.391,30.081c-13.132-6.41-19.134-12.6-16.449-16.985,2.168-3.556,10.057-5.965,22.136-6.854a71.009,71.009,0,0,0-2.742,15.411c-.112,1.555-.167,3.112-.185,4.686v.408c0,1.575.055,3.148.148,4.7C686.284,309.462,685.32,309,684.376,308.535Zm9.966,7.873c1.778.668,3.593,1.334,5.464,1.983,8.6,2.98,18.241,5.75,28.553,8.208q-.561,2.507-1.037,4.939-1.265-.307-2.53-.6a153.784,153.784,0,0,0-29.914-4.017,67.291,67.291,0,0,1-2.7-11.348Zm2.426,15.54q-.236-.559-.46-1.123a158.6,158.6,0,0,1,27.771,3.915q1.272.291,2.542.6c-.645,3.759-1.12,7.354-1.415,10.73-.556,6.4-.6,13.775,1.188,19.042a69.125,69.125,0,0,1-29.627-33.166Zm90.1,36.583a68.974,68.974,0,0,1-47.589,2.194c5.085-2.666,10.193-8.785,14.127-14.425,2.029-2.909,4.057-6.127,6.058-9.6a194.321,194.321,0,0,1,33.067,19.13Q789.768,367.3,786.864,368.531ZM808.7,353.806a68.283,68.283,0,0,1-12.5,9.909,198.223,198.223,0,0,0-34.842-20.4c1.676-3.07,3.327-6.315,4.94-9.7a296.852,296.852,0,0,0,31.678,2.6c2.556.073,5.038.073,7.447.055a132.544,132.544,0,0,0,16.56-1.112A68.3,68.3,0,0,1,808.7,353.806Z" transform="translate(-658.829 -218.342)" fill="#d6d6d6"/>
      </g>
      <g id="Group_6214" data-name="Group 6214" transform="translate(362.246 105.96)">
        <path id="Path_7685" data-name="Path 7685" d="M2541.659,834.92h-39.22a1.675,1.675,0,0,0-1.669,1.67v16.968a1.675,1.675,0,0,0,1.669,1.67h2.226v4.45l6.938-4.45h30.058a1.675,1.675,0,0,0,1.67-1.67V836.589A1.678,1.678,0,0,0,2541.659,834.92Z" transform="translate(-2500.77 -834.92)" fill="#e1e1e1"/>
        <g id="Group_6213" data-name="Group 6213" transform="translate(4.453 4.592)">
          <path id="Path_7686" data-name="Path 7686" d="M2562.463,867.2h-31.431a1.115,1.115,0,0,1-1.112-1.112h0a1.115,1.115,0,0,1,1.112-1.112h31.431a1.115,1.115,0,0,1,1.112,1.112h0A1.116,1.116,0,0,1,2562.463,867.2Z" transform="translate(-2529.92 -864.98)" fill="#c8c8c8"/>
          <path id="Path_7687" data-name="Path 7687" d="M2562.463,893.6h-31.431a1.115,1.115,0,0,1-1.112-1.112h0a1.115,1.115,0,0,1,1.112-1.112h31.431a1.115,1.115,0,0,1,1.112,1.112h0A1.116,1.116,0,0,1,2562.463,893.6Z" transform="translate(-2529.92 -887.347)" fill="#c8c8c8"/>
          <path id="Path_7688" data-name="Path 7688" d="M2562.463,920h-31.431a1.115,1.115,0,0,1-1.112-1.112h0a1.115,1.115,0,0,1,1.112-1.112h31.431a1.115,1.115,0,0,1,1.112,1.112h0A1.115,1.115,0,0,1,2562.463,920Z" transform="translate(-2529.92 -909.714)" fill="#c8c8c8"/>
        </g>
      </g>
      <g id="Group_6216" data-name="Group 6216" transform="translate(17.671 56.023)">
        <path id="Path_7689" data-name="Path 7689" d="M246.71,508.01h39.22a1.675,1.675,0,0,1,1.67,1.67v16.968a1.675,1.675,0,0,1-1.67,1.67H283.7v4.45l-6.938-4.45H246.71a1.675,1.675,0,0,1-1.67-1.67v-16.97A1.674,1.674,0,0,1,246.71,508.01Z" transform="translate(-245.04 -508.01)" fill="#e1e1e1"/>
        <g id="Group_6215" data-name="Group 6215" transform="translate(4.453 4.59)">
          <path id="Path_7690" data-name="Path 7690" d="M275.3,540.284h31.431a1.115,1.115,0,0,0,1.112-1.112h0a1.115,1.115,0,0,0-1.112-1.112H275.3a1.115,1.115,0,0,0-1.112,1.112h0A1.114,1.114,0,0,0,275.3,540.284Z" transform="translate(-274.19 -538.06)" fill="#bebebe"/>
          <path id="Path_7691" data-name="Path 7691" d="M275.3,566.684h31.431a1.115,1.115,0,0,0,1.112-1.112h0a1.115,1.115,0,0,0-1.112-1.112H275.3a1.115,1.115,0,0,0-1.112,1.112h0A1.113,1.113,0,0,0,275.3,566.684Z" transform="translate(-274.19 -560.427)" fill="#bebebe"/>
          <path id="Path_7692" data-name="Path 7692" d="M275.3,593.094h31.431a1.115,1.115,0,0,0,1.112-1.112h0a1.115,1.115,0,0,0-1.112-1.112H275.3a1.115,1.115,0,0,0-1.112,1.112h0A1.114,1.114,0,0,0,275.3,593.094Z" transform="translate(-274.19 -582.803)" fill="#bebebe"/>
        </g>
      </g>
      <g id="Group_6217" data-name="Group 6217" transform="translate(109.63 74.454)">
        <path id="Path_7693" data-name="Path 7693" d="M1519.233,1025.861l9.517,113.163s1,6.86-4.106,6.872c-8.389.02-41.757,0-41.757,0s6.313-1.428,6.237-4.641c-.09-3.787-11.124-116.465-11.124-116.465Z" transform="translate(-1381.618 -964.281)" fill="#acacac"/>
        <path id="Path_7694" data-name="Path 7694" d="M1506.494,1132.454c-8.171.105-40.04,0-41.692,0,.62,0,5.414-.118,6.092-3.726a4.807,4.807,0,0,0,.079-.915c0-.706-.391-5.183-1.02-12.005-.562-6.118-1.32-14.121-2.169-22.979-3.287-34.326-7.934-81.48-7.934-81.48l41.232,1.071,6.762,80.409,1.32,15.694,1.187,14.119.248,2.941S1511.764,1132.387,1506.494,1132.454Z" transform="translate(-1366.24 -952.894)" fill="#cecece"/>
        <path id="Path_7695" data-name="Path 7695" d="M1084.788,628.67l-23.182,93.12-3.174,12.753-10.8,43.372H847.04l39.8-149.245Z" transform="translate(-847.04 -628.67)" fill="#e3e3e3"/>
        <path id="Path_7696" data-name="Path 7696" d="M2197.373,628.67l3.214,1.071-36.1,151.414-4.271-3.24Z" transform="translate(-1959.624 -628.67)" fill="#d5d5d5"/>
        <path id="Path_7697" data-name="Path 7697" d="M1051.906,1608.93H852.545l-5.505-3.24h200.6Z" transform="translate(-847.04 -1456.445)" fill="#c1c1c1"/>
        <rect id="Rectangle_665" data-name="Rectangle 665" width="43.164" height="2.052" transform="translate(91.691 179.607)" fill="#8a8a8a"/>
        <path id="Path_7699" data-name="Path 7699" d="M1533.961,1749.723c-8.171.105-40.04,0-41.692,0,.62,0,5.414-.118,6.092-3.726,3.283.17,21.532.751,39.457-6.087l.247,2.941S1539.232,1749.656,1533.961,1749.723Z" transform="translate(-1393.708 -1570.162)" fill="#aaa" opacity="0.4"/>
        <path id="Path_7700" data-name="Path 7700" d="M1791.22,1413.89l-7.294,29.3H1716.39c28.556-9.072,42.073-22.344,47.521-29.3Z" transform="translate(-1583.592 -1293.943)" fill="#aaa" opacity="0.4"/>
        <path id="Path_7701" data-name="Path 7701" d="M929.428,628.67,897.4,748.616h-.087L929.147,628.67Z" transform="translate(-889.631 -628.67)" fill="#9ed9f0"/>
        <path id="Path_7702" data-name="Path 7702" d="M1139.889,641.59l-28.608,117.973H913.86L945.919,641.59Z" transform="translate(-903.653 -639.616)" fill="#f3f3f3"/>
        <path id="Path_7703" data-name="Path 7703" d="M895.609,1413.89h2.441l-.489,1.8-2.362-.267Z" transform="translate(-887.843 -1293.943)" fill="#b2b2b2"/>
        <path id="Path_7704" data-name="Path 7704" d="M2395.373,628.67v1.974h-1.833l.478-1.974Z" transform="translate(-2157.304 -628.67)" fill="#c2c2c2"/>
      </g>
      <g id="Group_6225" data-name="Group 6225" transform="translate(153.529 86.771)">
        <path id="Path_7705" data-name="Path 7705" d="M1134.42,808.2h73.575l24.659-98.9h-73.575Z" transform="translate(-1134.42 -709.3)" fill="#fff"/>
        <g id="Group_6224" data-name="Group 6224" transform="translate(10.391 6.853)">
          <g id="Group_6219" data-name="Group 6219" transform="translate(7.429 18.731)" opacity="0.5">
            <g id="Group_6218" data-name="Group 6218" transform="translate(4.402)">
              <path id="Path_7706" data-name="Path 7706" d="M1299.636,993.239h48.74a1.506,1.506,0,0,0,1.372-1.1l.1-.412a.831.831,0,0,0-.825-1.1h-48.738a1.5,1.5,0,0,0-1.372,1.1l-.1.412A.831.831,0,0,0,1299.636,993.239Z" transform="translate(-1295.895 -973.239)" fill="#d1d1d1"/>
              <path id="Path_7707" data-name="Path 7707" d="M1328.015,879.389h48.738a1.5,1.5,0,0,0,1.372-1.1l.1-.412a.832.832,0,0,0-.825-1.1h-48.74a1.506,1.506,0,0,0-1.372,1.1l-.1.412A.833.833,0,0,0,1328.015,879.389Z" transform="translate(-1319.937 -876.78)" fill="#d1d1d1"/>
              <path id="Path_7708" data-name="Path 7708" d="M1318.16,918.939h48.74a1.5,1.5,0,0,0,1.372-1.1l.1-.412a.831.831,0,0,0-.825-1.1h-48.74a1.505,1.505,0,0,0-1.372,1.1l-.1.412A.832.832,0,0,0,1318.16,918.939Z" transform="translate(-1311.589 -910.288)" fill="#d1d1d1"/>
              <path id="Path_7709" data-name="Path 7709" d="M1308.9,956.089h48.74a1.506,1.506,0,0,0,1.372-1.1l.1-.412a.831.831,0,0,0-.825-1.1h-48.74a1.5,1.5,0,0,0-1.372,1.1l-.1.412A.831.831,0,0,0,1308.9,956.089Z" transform="translate(-1303.74 -941.764)" fill="#d1d1d1"/>
              <path id="Path_7710" data-name="Path 7710" d="M1280.758,1068.959H1329.5a1.5,1.5,0,0,0,1.372-1.1l.1-.412a.831.831,0,0,0-.825-1.1h-48.738a1.5,1.5,0,0,0-1.372,1.1l-.1.412A.832.832,0,0,0,1280.758,1068.959Z" transform="translate(-1279.899 -1037.392)" fill="#d1d1d1"/>
              <path id="Path_7711" data-name="Path 7711" d="M1290.018,1031.809h48.74a1.505,1.505,0,0,0,1.372-1.1l.1-.412a.831.831,0,0,0-.825-1.1h-48.74a1.5,1.5,0,0,0-1.372,1.1l-.1.412A.832.832,0,0,0,1290.018,1031.809Z" transform="translate(-1287.744 -1005.917)" fill="#d1d1d1"/>
            </g>
            <path id="Path_7712" data-name="Path 7712" d="M1252.1,1185.709h11.837a1.787,1.787,0,0,0,1.63-1.3h0a.988.988,0,0,0-.979-1.3H1252.75a1.787,1.787,0,0,0-1.63,1.3h0A.989.989,0,0,0,1252.1,1185.709Z" transform="translate(-1251.08 -1136.308)" fill="#d1d1d1"/>
            <path id="Path_7713" data-name="Path 7713" d="M1489.508,1185.709h11.839a1.787,1.787,0,0,0,1.63-1.3h0a.988.988,0,0,0-.979-1.3h-11.839a1.787,1.787,0,0,0-1.63,1.3h0A.988.988,0,0,0,1489.508,1185.709Z" transform="translate(-1452.224 -1136.308)" fill="#d1d1d1"/>
          </g>
          <g id="Group_6220" data-name="Group 6220" transform="translate(0 73.711)">
            <path id="Path_7714" data-name="Path 7714" d="M1221.078,1245.159h-17.263a1.346,1.346,0,0,1-1.094-.5,1.425,1.425,0,0,1-.222-1.252l1.245-4.992a2.348,2.348,0,0,1,2.146-1.717h17.261a1.347,1.347,0,0,1,1.094.5,1.426,1.426,0,0,1,.222,1.253l-1.245,4.992A2.346,2.346,0,0,1,1221.078,1245.159Zm-15.189-8.319a2.2,2.2,0,0,0-2.012,1.612l-1.245,4.992a1.292,1.292,0,0,0,.2,1.134,1.214,1.214,0,0,0,.985.444h17.263a2.2,2.2,0,0,0,2.012-1.612l1.245-4.992a1.293,1.293,0,0,0-.2-1.133,1.213,1.213,0,0,0-.985-.445Z" transform="translate(-1202.446 -1236.7)" fill="#9b9b9b"/>
          </g>
          <g id="Group_6221" data-name="Group 6221" transform="translate(36.325 73.711)">
            <path id="Path_7715" data-name="Path 7715" d="M1458.878,1245.159h-17.263a1.347,1.347,0,0,1-1.094-.5,1.425,1.425,0,0,1-.221-1.252l1.245-4.992a2.348,2.348,0,0,1,2.146-1.717h17.263a1.347,1.347,0,0,1,1.094.5,1.426,1.426,0,0,1,.221,1.253l-1.245,4.992A2.347,2.347,0,0,1,1458.878,1245.159Zm-15.188-8.319a2.2,2.2,0,0,0-2.012,1.612l-1.245,4.992a1.292,1.292,0,0,0,.2,1.134,1.213,1.213,0,0,0,.985.444h17.263a2.2,2.2,0,0,0,2.012-1.612l1.245-4.992a1.292,1.292,0,0,0-.2-1.133,1.209,1.209,0,0,0-.985-.445Z" transform="translate(-1440.246 -1236.7)" fill="#b8b8b8"/>
          </g>
          <g id="Group_6222" data-name="Group 6222" transform="translate(23.273)">
            <path id="Path_7716" data-name="Path 7716" d="M1354.984,757.412a4.809,4.809,0,0,1,4.346-3.252,2.227,2.227,0,0,1,2.1,1.025l-1.14.952a1.531,1.531,0,0,0-1.387-.7,2.823,2.823,0,0,0-2.473,1.977c-.354,1.078.1,1.977,1.176,1.977a3.167,3.167,0,0,0,1.9-.736l.571.944a4.373,4.373,0,0,1-2.93,1.069C1355.292,760.664,1354.385,759.236,1354.984,757.412Z" transform="translate(-1354.8 -754.16)"/>
            <path id="Path_7717" data-name="Path 7717" d="M1397.251,757.412a4.893,4.893,0,0,1,4.419-3.252c1.942,0,2.86,1.447,2.267,3.252a4.893,4.893,0,0,1-4.419,3.252C1397.576,760.664,1396.658,759.218,1397.251,757.412Zm5.238,0c.354-1.078-.142-1.977-1.257-1.977a2.841,2.841,0,0,0-2.536,1.977c-.354,1.078.142,1.977,1.257,1.977A2.842,2.842,0,0,0,1402.489,757.412Z" transform="translate(-1390.615 -754.16)"/>
            <path id="Path_7718" data-name="Path 7718" d="M1445.373,754.86h1.276l1.677,3.872,1.271-3.872h1.366l-2.064,6.29h-1.178l-1.734-4-1.312,4h-1.365Z" transform="translate(-1429.79 -754.753)"/>
            <path id="Path_7719" data-name="Path 7719" d="M1499.524,756.136h-1.914l.418-1.276h5.212l-.419,1.276h-1.914l-1.645,5.013h-1.384Z" transform="translate(-1475.795 -754.753)"/>
            <path id="Path_7720" data-name="Path 7720" d="M1529.964,754.86h2.875a1.838,1.838,0,0,1,1.624.638,1.643,1.643,0,0,1,.061,1.456,3.012,3.012,0,0,1-1.987,1.949l.8,2.247h-1.618l-.706-2.013h-1.069l-.66,2.013H1527.9Zm1.784,3.055a1.352,1.352,0,0,0,1.358-.907c.194-.593-.119-.9-.793-.9h-1.375l-.593,1.806Z" transform="translate(-1501.458 -754.753)"/>
            <path id="Path_7721" data-name="Path 7721" d="M1571.684,754.56h1.275l.617,6.335h-1.447l-.111-1.411h-2.66l-1.037,1.411h-1.412Zm.241,3.7-.167-2.039-1.5,2.039Z" transform="translate(-1534.509 -754.499)"/>
            <path id="Path_7722" data-name="Path 7722" d="M1618.177,757.412a4.809,4.809,0,0,1,4.347-3.252,2.228,2.228,0,0,1,2.1,1.025l-1.14.952a1.53,1.53,0,0,0-1.387-.7,2.823,2.823,0,0,0-2.473,1.977c-.354,1.078.1,1.977,1.176,1.977a3.166,3.166,0,0,0,1.9-.736l.571.944a4.373,4.373,0,0,1-2.93,1.069C1618.485,760.664,1617.58,759.236,1618.177,757.412Z" transform="translate(-1577.79 -754.16)"/>
            <path id="Path_7723" data-name="Path 7723" d="M1667.414,756.136H1665.5l.419-1.276h5.212l-.418,1.276H1668.8l-1.645,5.013h-1.384Z" transform="translate(-1618.039 -754.753)"/>
          </g>
          <path id="Path_7724" data-name="Path 7724" d="M1489.423,1232.215q-3.934,1.625-7.807,3.552.153-.433.275-.869c.066-.232-.249-.388-.443-.131-.086.113-.177.221-.274.325.066-.208-.18-.324-.391-.173l-.04.032c.1-.28-.333-.322-.5-.05l-.243.4a1.705,1.705,0,0,1-.782.522,1.31,1.31,0,0,1-.114-.435.194.194,0,0,0-.2-.185c0-.142-.133-.226-.322-.142a1.752,1.752,0,0,0-.594.438c-.13-.241-.544-.069-.767.163l.018-.04c.105-.224-.09-.48-.353-.254a3.182,3.182,0,0,0-.965,1.414,5.453,5.453,0,0,1-.493.487c-.085.073-.486.444-.577.412s-.041-.261,0-.423l.043-.059c.333-.463,1.937-2.643.807-2.623a.409.409,0,0,0-.315.191,7.528,7.528,0,0,0-.926,1.974c-.037.128-.089.293-.131.467-.032.044-.066.089-.1.131a5.16,5.16,0,0,1-1.8,1.728,8,8,0,0,1,.75-2.979q.227-.625.474-1.25a.347.347,0,0,0,.156-.081,1.989,1.989,0,0,0,.752-2.3c-.1-.189-.416-.017-.506.185-.541,1.214-1.034,2.433-1.471,3.655a7.029,7.029,0,0,0-.667,3.228c.017.105.141.145.255.119a4.224,4.224,0,0,0,2.134-1.654.349.349,0,0,0,.228.2c.386.114.914-.315,1.292-.674a1.538,1.538,0,0,0,.067.365c.041.127.172.156.327.093a3.008,3.008,0,0,0,.976-.652,2.116,2.116,0,0,0,.978-.784,5.344,5.344,0,0,0,.481-.479.736.736,0,0,0,.134.246c.141.162.5.015.724-.089a2.389,2.389,0,0,0,.6-.392,1.212,1.212,0,0,0,.411-.112.326.326,0,0,0,.1.1.426.426,0,0,0,.474-.044c-.037.105-.075.211-.116.316q-.564.284-1.128.576c-.247.128-.305.507-.027.486.345-.026.689-.052,1.034-.08a.413.413,0,0,0,.347-.261c.061-.138.119-.276.176-.414q4.044-2.026,8.162-3.729C1489.889,1232.521,1489.772,1232.071,1489.423,1232.215Zm-12.014,3.967a1.722,1.722,0,0,1-.085.215c-.023.049-.049.1-.076.144A1.87,1.87,0,0,1,1477.409,1236.182Zm-.759.648a.644.644,0,0,0-.009.392,2.322,2.322,0,0,1-.258.171,1.525,1.525,0,0,1,.029-.483c.119-.141.232-.287.336-.435A2.572,2.572,0,0,0,1476.65,1236.83Z" transform="translate(-1430.727 -1159.166)"/>
          <g id="Group_6223" data-name="Group 6223" transform="translate(4.376 71.326)">
            <path id="Path_7725" data-name="Path 7725" d="M1237.162,1221.208c-.929,1.725-1.448,3.5-2.2,5.241a13.99,13.99,0,0,1-1.363,2.5c-.391.559-1.245,1.775-1.968,1.512-.18-.066-.231-.22-.171-.431.012-.046.029-.095.046-.142a.4.4,0,0,0,.376-.044,1.343,1.343,0,0,0,.533-.594c.108-.235.092-.48-.1-.583a.534.534,0,0,0-.59.165,1.946,1.946,0,0,0-.377.667,2.076,2.076,0,0,0-.255.839c.026.4.457.539.877.448a2.671,2.671,0,0,0,1.306-.964,11.415,11.415,0,0,0,1.071-1.509,20.877,20.877,0,0,0,1.494-3.251,31.954,31.954,0,0,1,1.605-3.773C1237.555,1221.091,1237.272,1221,1237.162,1221.208Zm-5.026,7.835c.032.122-.087.283-.183.394a.625.625,0,0,1-.11.109.337.337,0,0,1-.078.046.092.092,0,0,0-.024.006.107.107,0,0,0-.1-.055c.041-.092.082-.182.124-.267C1231.828,1229.146,1232.07,1228.786,1232.136,1229.042Z" transform="translate(-1231.092 -1221.092)"/>
            <path id="Path_7726" data-name="Path 7726" d="M1263.917,1254.628a2.052,2.052,0,0,1-.59.244.547.547,0,0,1-.151,0,.953.953,0,0,0,.292-.457c.035-.25-.241-.307-.474-.179a.719.719,0,0,0-.358.539.368.368,0,0,0,.029.177,1.312,1.312,0,0,1-.761.306,2.766,2.766,0,0,0,.7-.692.145.145,0,0,0,.011-.157.462.462,0,0,0-.59-.046,1.177,1.177,0,0,0-.505.609.905.905,0,0,0-.064.223,1.75,1.75,0,0,1-.748.17v0c.078-.073.156-.147.231-.221.113-.113.046-.229-.06-.243a.483.483,0,0,0-.481.376,7.264,7.264,0,0,1-1.185.859c-.105.061-.248.183-.318.105a3.641,3.641,0,0,0,.481-.425c.286-.3.567-.837.23-1.023a.2.2,0,0,0-.24.058l-.444.591a2.521,2.521,0,0,0-.342.53.731.731,0,0,0-.049.185,3.277,3.277,0,0,1-.47.243l-.04.017c.087-.07.174-.139.261-.211a1.089,1.089,0,0,0,.481-.712.8.8,0,0,0-.31-.6c-.043-.041-.142-.021-.2.026a3.19,3.19,0,0,0-1.054,1.353.531.531,0,0,0-.016.443q-.632.484-1.282.944c-.046.032-.157.135-.2.119s-.024-.112-.024-.157a3.225,3.225,0,0,1,.02-.362,3.645,3.645,0,0,1,.2-.811,4.483,4.483,0,0,1,.328-.7.171.171,0,0,0,.18-.033,1.1,1.1,0,0,0,.455-.936c-.011-.113-.194-.1-.278,0a4.544,4.544,0,0,0-1.24,3.031c.009.217.108.4.4.278a2.065,2.065,0,0,0,.377-.241c.157-.113.315-.226.472-.341q.442-.323.878-.655a1.508,1.508,0,0,0,.519-.116,3.593,3.593,0,0,0,.6-.287.3.3,0,0,0,.315.149,1.638,1.638,0,0,0,.525-.266c.176-.105.348-.217.516-.338s.321-.24.475-.37c.035.049.1.064.2.067a1.791,1.791,0,0,0,.443-.047,2.342,2.342,0,0,0,.478-.168.289.289,0,0,0,.078.053.864.864,0,0,0,.648-.04,2.513,2.513,0,0,0,.609-.342.609.609,0,0,0,.179.047,1.788,1.788,0,0,0,.944-.29C1264.2,1254.794,1264.13,1254.515,1263.917,1254.628Zm-6.316,1.462a2.76,2.76,0,0,1,.672-.834.377.377,0,0,1,.066.526,1.983,1.983,0,0,1-.348.307l-.4.316-.105.081C1257.437,1256.394,1257.55,1256.189,1257.6,1256.09Zm1.813-.851a1.338,1.338,0,0,1-.347.5c-.021.021-.043.041-.066.061C1259.122,1255.609,1259.27,1255.422,1259.414,1255.239Zm2.822-.639a2.194,2.194,0,0,1-.411.387C1261.908,1254.8,1262.1,1254.59,1262.235,1254.6Zm.774-.009c.02-.032.111-.136.1-.066a.57.57,0,0,1-.131.162A.264.264,0,0,1,1263.01,1254.591Z" transform="translate(-1251.63 -1249.121)"/>
          </g>
        </g>
      </g>
      <g id="Group_6249" data-name="Group 6249" transform="translate(12.226 87.006)">
        <path id="Path_7755" data-name="Path 7755" d="M590.74,1698.482l3.605-.049s-5.421-6.017-7.086-9.08l-4.577-8.453-5.993,1.482,7.606,10.777Z" transform="translate(-520.583 -1532.718)" fill="#e49963"/>
        <path id="Path_7756" data-name="Path 7756" d="M245.726,712.092a7.769,7.769,0,0,0-4.2-.8,1.951,1.951,0,0,1,.884-.42,6.5,6.5,0,0,0-2.322.606c-9.993-3.851-11.564,10.864-11.354,14.281s-3.358,4.534-8.557,7.227C210.261,738.121,209.39,745,209.39,745c.078.046.157.1.244.156.492-.834,1.5-2.4,2.36-2.637a35.565,35.565,0,0,0-1.375,3.347c2.927,2.226,8.4,7.16,12.216,10.656a5.623,5.623,0,0,1,.26-2.166l.472,2.838c2.042,1.877,3.449,3.2,3.449,3.2-.252-2.762,12.494-17.341,19.143-21.707,1.619-2.383,2.194-6.593,2.238-6.924a18.18,18.18,0,0,1-1.361,6.264C252.667,732.85,249.389,714.172,245.726,712.092Z" transform="translate(-209.39 -710.837)"/>
        <path id="Path_7757" data-name="Path 7757" d="M395.3,840.014c.034.015-3.211,1.7-5.651,1.033-2.3-.626-3.794-3.6-3.764-3.608.972-.193,1.253-1.529,1.231-7.268l.44.087,7.389,1.463s-.168,2.325-.173,4.515C394.77,838.072,394.882,839.817,395.3,840.014Z" transform="translate(-358.926 -811.941)" fill="#e49963"/>
        <path id="Path_7758" data-name="Path 7758" d="M392.83,724.921a5.907,5.907,0,0,1,8.221-.2A32.087,32.087,0,0,0,392.83,724.921Z" transform="translate(-364.809 -721.257)" fill="#ececec"/>
        <path id="Path_7759" data-name="Path 7759" d="M404.227,832.183s-.168,2.325-.173,4.516c-4.135-.116-6.319-3.888-7.215-5.979Z" transform="translate(-368.206 -812.407)" fill="#d68d5d"/>
        <path id="Path_7760" data-name="Path 7760" d="M376.585,741.255A21.745,21.745,0,0,1,373.9,734.9c-.371-2.09.694-9.837,8.478-8.721a10.572,10.572,0,0,1,4.386,1.659c1.689,1.141,4.129,3.607,1.4,10.366l-.709,2.284Z" transform="translate(-348.715 -723.746)"/>
        <path id="Path_7761" data-name="Path 7761" d="M405.369,1246.883l-3.917.121-4.239.13a83.686,83.686,0,0,1-15.285-28.379c-.128-.406-.263-.817-.406-1.233-3.006-8.765-9.237-19.766-12.521-29.725-.522-1.586-.991-3.079-1.413-4.492-.134-.452-.266-.9-.391-1.335a105.693,105.693,0,0,1-3.767-19.829l20.969.168A641.833,641.833,0,0,0,405.369,1246.883Z" transform="translate(-339.899 -1093.201)" fill="#ababab"/>
        <path id="Path_7762" data-name="Path 7762" d="M382.807,903.723c.278,11.281,1.656,16.125,1.656,16.125a31.863,31.863,0,0,1-22.22,1.361c-.142-.044.782-46.616,4.2-47.9.787.981,3.133,1.934,5.22,1.886,2.4-.053,3.183-1.081,3.058-2.206C377.287,874.417,382.409,887.57,382.807,903.723Z" transform="translate(-338.883 -848.22)" fill="#e9e9e9"/>
        <path id="Path_7763" data-name="Path 7763" d="M399.34,762.332s-9.782.162-9.789-5.932-1.274-10.177,4.972-10.537,7.462,1.963,7.959,4S401.885,762.133,399.34,762.332Z" transform="translate(-361.938 -740.481)" fill="#e49963"/>
        <path id="Path_7764" data-name="Path 7764" d="M384.744,738.979c-1.509-1.83-2.65-1.431-3.292-.883-2.114-3.159-8.8,1.41-8.8,1.41a12.919,12.919,0,0,0-3.807,6.877s1.783,1.1,5.893.044c3.235-.832,5.582-5.437,6.436-7.36a7.758,7.758,0,0,1,2.177,2.882c.487,1.552.707,4.746,1.637,4.638C384.993,746.587,387.011,741.727,384.744,738.979Z" transform="translate(-344.492 -732.989)"/>
        <path id="Path_7765" data-name="Path 7765" d="M711.93,896.03a6.106,6.106,0,0,1,6.843-4.268c.626.2,2.459.927,1.288,2.889-.863,1.447-1.237.7-2.6,2.643a4.327,4.327,0,0,1-4.515,2.149Z" transform="translate(-635.164 -864.068)" fill="#e49963"/>
        <path id="Path_7766" data-name="Path 7766" d="M363.864,1703.692c-.333-1.831-.967-5-.967-5l.147-11.235H356.22l2.553,10.752a10.958,10.958,0,0,1-.524,4.491s-.655,2.985,2.285,3.042S364.2,1705.523,363.864,1703.692Z" transform="translate(-333.791 -1538.276)" fill="#e49963"/>
        <path id="Path_7767" data-name="Path 7767" d="M367.554,1786.826a16.653,16.653,0,0,0-.251,4.65h6.177a18.223,18.223,0,0,0-.515-4.726S370.883,1789.878,367.554,1786.826Z" transform="translate(-343.095 -1622.399)" fill="#707070"/>
        <path id="Path_7768" data-name="Path 7768" d="M624.807,1756.993a.284.284,0,0,1-.06-.032,5.252,5.252,0,0,1-4.213-1.966c-4.005-4.512-6.255-5.017-7.042-5.015-.675,1.393-1.422,2.959-.461,4.723l1.434,5.618h1.546l.015-5.305a3.641,3.641,0,0,1,2.455,1.641c1.082,2.165,1.833,3.663,2.838,3.663h6.95S628.136,1758.492,624.807,1756.993Z" transform="translate(-550.985 -1591.245)" fill="#707070"/>
        <path id="Path_7769" data-name="Path 7769" d="M484.962,880.192s-6.42,3.59-8.715,4.625c-1.308.59-4.317,2-6.437,3a3.308,3.308,0,0,1-3.921-.845c-3.481-4.066-12.5-12.885-21.807-13.968l.012.023L444.04,873s5.66,13.982,5.826,16.811.666,46.271.666,46.271-.333,2,3.5,1.165,4.827-1.665,4.827-1.665-3.662-26.8-2.663-36.119a20.727,20.727,0,0,0-.4-6.035,47.643,47.643,0,0,0,12.379,4.981,69.441,69.441,0,0,0,11.874-7.213c2.152-1.576,5.934-7.592,5.934-7.592Z" transform="translate(-408.196 -848.229)" fill="#d8d8d8"/>
        <path id="Path_7770" data-name="Path 7770" d="M422.355,1342.284l-4.239.13a83.684,83.684,0,0,1-15.285-28.379c-.128-.406-.263-.817-.406-1.233-3.006-8.765-9.237-19.766-12.521-29.725-.522-1.586-.991-3.079-1.413-4.493-.134-.452-.266-.9-.391-1.335l3.492-2.65s10.484,16.977,13.73,32.954C408.14,1321.432,419.432,1338.131,422.355,1342.284Z" transform="translate(-360.801 -1188.482)" fill="#8a8a8a"/>
        <path id="Path_7771" data-name="Path 7771" d="M476.943,1009.468l-.206.632-10.975-3.567a.425.425,0,0,1-.07-.391.312.312,0,0,1,.275-.243Z" transform="translate(-426.521 -960.828)" fill="#9a9a9a"/>
        <path id="Path_7772" data-name="Path 7772" d="M312.608,1284.031c.06,7.769-.333,25.632-1.344,33.027h-3.755c-2.076,0-3.112-.031-3.112-.031-2.539-12.857-4.344-23.5-5.66-32.665-1.078-7.523-2.038-13.973-2.774-19.525-.742-5.588-1.259-10.267-1.444-14.22q-.044-.933-.061-1.816t-.011-1.723l20.489-2C314.68,1258.7,312.575,1279.516,312.608,1284.031Z" transform="translate(-281.454 -1163.472)" fill="#ababab"/>
        <path id="Path_7773" data-name="Path 7773" d="M307.909,1347.771c-2.076,0-3.112-.03-3.112-.03-2.539-12.858-4.344-23.5-5.66-32.665-1.078-7.523-2.038-13.973-2.774-19.525-.742-5.588-1.259-10.267-1.444-14.22l7.519,4.422s-4.8,1.693-2.968,14.509S305.361,1345.958,307.909,1347.771Z" transform="translate(-281.855 -1194.184)" fill="#8a8a8a"/>
        <path id="Path_7774" data-name="Path 7774" d="M283.511,937.03s-1.444,5.215-6.437,4.549-12.094-3.662-12.094-3.662,2.134-6.743,4.787-15.6c3.212-10.723,7.189-24.549,9.063-33.269a54,54,0,0,0,1.019-5.945l4.2-8s6.115,13.829,6.448,17.324S283.511,937.03,283.511,937.03Z" transform="translate(-256.488 -850.008)" fill="#d8d8d8"/>
        <path id="Path_7775" data-name="Path 7775" d="M309.842,977.1c-.223,5.66-1.555,16.644-13.427,22.525-.032.015-.063.032-.095.044,3.212-10.723,7.189-24.549,9.063-33.269C307.563,969.66,309.963,973.983,309.842,977.1Z" transform="translate(-283.041 -927.361)" fill="#c8c8c8"/>
        <path id="Path_7776" data-name="Path 7776" d="M406.349,1013.162c-.006.678-1.963,5.408-5.411,8.232a3.752,3.752,0,0,1-1.628.886,71.651,71.651,0,0,1-14.44,3.4v-6.263c4.885-.313,10.9-.64,13.381-.773a7.316,7.316,0,0,0,1.046-2.5,3.708,3.708,0,0,1,3.622-3.316C405.322,1012.519,406.355,1012.485,406.349,1013.162Z" transform="translate(-358.065 -966.519)" fill="#e49963"/>
        <g id="Group_6248" data-name="Group 6248" transform="translate(75.59 25.767)">
          <path id="Path_7777" data-name="Path 7777" d="M711.984,881.361l11.1,7.218a.639.639,0,0,1,.194.568l-5.34,18.072c-.075.254-.331.295-.544.137l-10.766-8.062c-.125-.093-.218-.2-.176-.348l4.9-17.3A.466.466,0,0,1,711.984,881.361Z" transform="translate(-706.104 -881.039)" fill="#777"/>
          <path id="Path_7778" data-name="Path 7778" d="M709.725,879.58l11.2,7.288a.379.379,0,0,1,.156.425l-5.34,18.073a.378.378,0,0,1-.59.2L704.388,897.5a.379.379,0,0,1-.138-.406l4.9-17.3A.38.38,0,0,1,709.725,879.58Z" transform="translate(-704.236 -879.518)" fill="#a7a7a7"/>
          <path id="Path_7779" data-name="Path 7779" d="M715.846,885.12l10.861,6.929-4.931,15.909-10.236-7.407Z" transform="translate(-710.424 -884.264)" fill="#fff"/>
          <path id="Path_7780" data-name="Path 7780" d="M734.24,1009.824a.444.444,0,1,1,.444.445A.445.445,0,0,1,734.24,1009.824Z" transform="translate(-729.657 -989.543)" fill="#919191"/>
          <g id="Group_6247" data-name="Group 6247" transform="translate(3.862 2.933)">
            <path id="Path_7781" data-name="Path 7781" d="M734.758,917l-5.238-3.662,3.611-14.623,5.238,3.66Z" transform="translate(-729.52 -898.72)" fill="#fff"/>
            <g id="Group_6246" data-name="Group 6246" transform="translate(1.046 1.672)">
              <g id="Group_6241" data-name="Group 6241" transform="translate(0.666 2.706)" opacity="0.5">
                <g id="Group_6240" data-name="Group 6240" transform="translate(0.631)">
                  <path id="Path_7782" data-name="Path 7782" d="M751.137,947.036l-3.471-2.426a.23.23,0,0,1-.038-.217l.015-.061c.021-.089.075-.137.118-.108l3.471,2.426a.229.229,0,0,1,.038.217l-.015.061C751.234,947.017,751.18,947.066,751.137,947.036Z" transform="translate(-747.198 -941.644)" fill="#afafaf"/>
                  <path id="Path_7783" data-name="Path 7783" d="M755.3,930.2l-3.471-2.426a.23.23,0,0,1-.038-.217l.015-.061c.021-.09.075-.137.118-.109l3.471,2.426a.23.23,0,0,1,.038.217l-.015.061C755.394,930.187,755.34,930.234,755.3,930.2Z" transform="translate(-750.722 -927.384)" fill="#afafaf"/>
                  <path id="Path_7784" data-name="Path 7784" d="M753.847,936.046l-3.471-2.426a.23.23,0,0,1-.038-.217l.015-.061c.021-.089.075-.137.118-.108l3.471,2.426a.23.23,0,0,1,.038.217l-.015.061C753.944,936.027,753.892,936.076,753.847,936.046Z" transform="translate(-749.494 -932.333)" fill="#afafaf"/>
                  <path id="Path_7785" data-name="Path 7785" d="M752.5,941.546l-3.471-2.426a.229.229,0,0,1-.038-.217l.015-.061c.021-.089.075-.137.119-.108l3.471,2.426a.23.23,0,0,1,.038.217l-.015.061C752.594,941.527,752.54,941.575,752.5,941.546Z" transform="translate(-748.35 -936.993)" fill="#afafaf"/>
                  <path id="Path_7786" data-name="Path 7786" d="M748.377,958.236l-3.471-2.426a.23.23,0,0,1-.038-.217l.015-.061c.021-.089.075-.138.118-.109l3.471,2.426a.23.23,0,0,1,.038.217l-.015.061C748.473,958.216,748.42,958.265,748.377,958.236Z" transform="translate(-744.859 -951.133)" fill="#afafaf"/>
                  <path id="Path_7787" data-name="Path 7787" d="M749.727,952.736l-3.471-2.426a.23.23,0,0,1-.038-.217l.015-.061c.021-.089.075-.137.118-.108l3.471,2.426a.23.23,0,0,1,.038.217l-.015.061C749.824,952.717,749.77,952.766,749.727,952.736Z" transform="translate(-746.003 -946.473)" fill="#afafaf"/>
                </g>
                <path id="Path_7788" data-name="Path 7788" d="M758.537,985.6l-.843-.59a.271.271,0,0,1-.046-.258h0c.026-.105.09-.163.141-.128l.843.59a.272.272,0,0,1,.046.258h0C758.651,985.578,758.588,985.634,758.537,985.6Z" transform="translate(-755.054 -975.871)" fill="#afafaf"/>
                <path id="Path_7789" data-name="Path 7789" d="M741.627,973.789l-.843-.59a.271.271,0,0,1-.046-.258h0c.026-.105.09-.163.141-.128l.843.59a.271.271,0,0,1,.046.258h0C741.742,973.766,741.679,973.824,741.627,973.789Z" transform="translate(-740.727 -965.865)" fill="#afafaf"/>
              </g>
              <g id="Group_6242" data-name="Group 6242" transform="translate(2.586 12.567)">
                <path id="Path_7790" data-name="Path 7790" d="M754.646,994.072a.07.07,0,0,1-.044-.015l-1.23-.859a.354.354,0,0,1-.061-.338l.182-.738c.027-.108.086-.183.147-.183a.078.078,0,0,1,.046.015l1.23.858a.354.354,0,0,1,.061.338l-.182.738C754.765,994,754.705,994.072,754.646,994.072Zm-1.007-2.116c-.052,0-.107.07-.131.171l-.182.738a.339.339,0,0,0,.055.321l1.23.858a.066.066,0,0,0,.037.012c.052,0,.107-.07.131-.171l.182-.738a.34.34,0,0,0-.055-.321l-1.23-.858A.071.071,0,0,0,753.639,991.957Z" transform="translate(-753.296 -991.94)" fill="#476ba7"/>
              </g>
              <g id="Group_6243" data-name="Group 6243" transform="translate(0 10.76)">
                <path id="Path_7791" data-name="Path 7791" d="M737.716,982.242a.071.071,0,0,1-.044-.015l-1.23-.859a.353.353,0,0,1-.061-.338l.182-.738c.028-.108.086-.183.147-.183a.071.071,0,0,1,.044.015l1.23.858a.354.354,0,0,1,.061.338l-.182.738C737.835,982.169,737.775,982.242,737.716,982.242Zm-1.007-2.116c-.052,0-.107.07-.131.171l-.182.738a.339.339,0,0,0,.055.321l1.23.858a.07.07,0,0,0,.037.012c.052,0,.107-.07.131-.171l.182-.738a.34.34,0,0,0-.055-.321l-1.23-.859A.059.059,0,0,0,736.709,980.127Z" transform="translate(-736.366 -980.11)" fill="#476ba7"/>
              </g>
              <g id="Group_6244" data-name="Group 6244" transform="translate(2.918)">
                <path id="Path_7792" data-name="Path 7792" d="M755.5,910.015c.066-.264.215-.414.353-.318a.394.394,0,0,1,.136.272l-.093.1a.273.273,0,0,0-.09-.185c-.075-.054-.162.04-.2.2s-.018.33.058.383c.05.035.093.015.145-.026l.028.183a.152.152,0,0,1-.223.029A.645.645,0,0,1,755.5,910.015Z" transform="translate(-755.469 -909.668)" fill="#232323"/>
                <path id="Path_7793" data-name="Path 7793" d="M758.513,912.13c.066-.264.218-.411.357-.315a.656.656,0,0,1,.119.646c-.066.264-.22.411-.358.315A.647.647,0,0,1,758.513,912.13Zm.373.261a.4.4,0,0,0-.064-.387c-.079-.055-.167.037-.206.2a.4.4,0,0,0,.063.386C758.758,912.645,758.846,912.553,758.885,912.391Z" transform="translate(-758.022 -911.462)" fill="#232323"/>
                <path id="Path_7794" data-name="Path 7794" d="M761.849,913.58l.09.064.069.719.142-.573.1.069-.229.93-.084-.058-.07-.742-.147.591-.1-.067Z" transform="translate(-760.68 -912.982)" fill="#232323"/>
                <path id="Path_7795" data-name="Path 7795" d="M765.783,916.024l-.136-.095.047-.189.371.26-.047.189-.136-.095-.183.741-.1-.069Z" transform="translate(-764.052 -914.813)" fill="#232323"/>
                <path id="Path_7796" data-name="Path 7796" d="M767.869,917.79l.2.144a.274.274,0,0,1,.107.185.579.579,0,0,1-.015.241c-.037.15-.1.217-.167.221l.027.408-.115-.081-.024-.365-.076-.054-.073.3-.1-.069Zm.087.59c.047.034.089,0,.108-.081a.167.167,0,0,0-.044-.186l-.1-.069-.066.267Z" transform="translate(-765.781 -916.549)" fill="#232323"/>
                <path id="Path_7797" data-name="Path 7797" d="M770.825,920.56l.09.064-.04,1.071-.1-.072.011-.237-.19-.133-.093.18-.1-.07Zm-.031.62.015-.344-.134.26Z" transform="translate(-768.119 -918.896)" fill="#232323"/>
                <path id="Path_7798" data-name="Path 7798" d="M774.24,923.115c.066-.264.215-.414.353-.318a.393.393,0,0,1,.136.272l-.093.1a.273.273,0,0,0-.09-.185c-.075-.053-.162.04-.2.2s-.018.33.058.383c.05.035.093.015.145-.026l.027.183a.152.152,0,0,1-.223.029A.647.647,0,0,1,774.24,923.115Z" transform="translate(-771.346 -920.767)" fill="#232323"/>
                <path id="Path_7799" data-name="Path 7799" d="M777.752,924.383l-.136-.095.047-.188.371.26-.046.189-.136-.095-.183.741-.1-.069Z" transform="translate(-774.194 -921.895)" fill="#232323"/>
              </g>
              <path id="Path_7800" data-name="Path 7800" d="M757.313,993.506a4.178,4.178,0,0,0-.6.194c.011-.043.021-.086.031-.128s-.012-.076-.029-.044a.325.325,0,0,1-.024.04c.008-.031-.009-.063-.026-.047l0,0c.011-.041-.02-.07-.035-.034l-.023.055a.083.083,0,0,1-.063.047.626.626,0,0,1,0-.076.044.044,0,0,0-.012-.04c0-.023-.006-.044-.021-.04a.1.1,0,0,0-.047.043c-.006-.046-.038-.038-.057-.011,0,0,0,0,0-.006.011-.032,0-.082-.021-.059a.435.435,0,0,0-.087.185.577.577,0,0,1-.041.055c-.008.008-.04.049-.047.038a.144.144,0,0,1,.006-.069l0-.008c.029-.059.173-.338.092-.391-.009-.006-.018,0-.024.015a1.483,1.483,0,0,0-.092.278c0,.02-.011.044-.015.07l-.009.017c-.04.075-.095.183-.151.194a2.207,2.207,0,0,1,.093-.452l.05-.182s.008,0,.012-.006a.458.458,0,0,0,.084-.341c0-.037-.029-.023-.038,0-.055.173-.105.348-.153.527a2.052,2.052,0,0,0-.09.5c0,.018.008.031.017.032.061.012.122-.073.174-.165a.089.089,0,0,0,.014.044c.026.038.069-.006.1-.046a.429.429,0,0,0,0,.063c0,.023.011.034.021.032a.145.145,0,0,0,.078-.058c.029,0,.055-.035.079-.079.014-.017.027-.035.041-.055a.419.419,0,0,0,.006.047c.008.033.035.027.054.021a.114.114,0,0,0,.047-.035.036.036,0,0,0,.031,0,.089.089,0,0,0,.006.021c.009.023.021.024.033.017,0,.015-.008.031-.012.046l-.087.038c-.02.009-.029.069-.009.078l.075.038c.011.006.021,0,.027-.026l.018-.059a4.135,4.135,0,0,1,.631-.206C757.342,993.58,757.339,993.5,757.313,993.506Zm-.907.053c0,.011-.006.021-.009.03s0,.014-.008.02C756.393,993.593,756.4,993.577,756.405,993.56Zm-.063.069a.246.246,0,0,0-.006.064.107.107,0,0,1-.021.015.452.452,0,0,1,.009-.078.474.474,0,0,0,.029-.055C756.349,993.593,756.346,993.612,756.343,993.628Z" transform="translate(-752.975 -980.088)" fill="#5a5a5a"/>
              <g id="Group_6245" data-name="Group 6245" transform="translate(0.391 10.758)">
                <path id="Path_7801" data-name="Path 7801" d="M739.482,980.1c-.089.237-.15.5-.226.752a2.32,2.32,0,0,1-.13.344c-.035.072-.112.229-.16.15a.1.1,0,0,1-.006-.079l0-.021a.018.018,0,0,0,.027.011.13.13,0,0,0,.046-.07.151.151,0,0,0,0-.1c-.011-.023-.029-.023-.044,0a.3.3,0,0,0-.035.09.484.484,0,0,0-.029.125c0,.067.026.111.057.118s.076-.044.105-.093a1.527,1.527,0,0,0,.1-.194,4.259,4.259,0,0,0,.15-.46c.05-.183.1-.37.163-.539C739.511,980.1,739.491,980.074,739.482,980.1Zm-.461,1.036a.1.1,0,0,1-.018.055.072.072,0,0,1-.009.012l-.006,0h0c0-.008,0-.012-.006-.014s.008-.026.012-.038S739.019,981.093,739.02,981.139Z" transform="translate(-738.929 -980.091)" fill="#5a5a5a"/>
                <path id="Path_7802" data-name="Path 7802" d="M741.344,986.039a.064.064,0,0,1-.046.011.041.041,0,0,1-.011-.006.14.14,0,0,0,.028-.061c.006-.04-.014-.063-.032-.053a.127.127,0,0,0-.032.1c-.017.014-.044.029-.058.012a.223.223,0,0,0,.06-.079.05.05,0,0,0,0-.026c-.006-.032-.023-.044-.041-.036s-.034.041-.044.075a.253.253,0,0,0-.008.033.059.059,0,0,1-.055-.009h0l.02-.024a.039.039,0,0,0,0-.043c-.017-.017-.032.007-.04.038a.4.4,0,0,1-.1.082c-.008,0-.02.018-.024,0a.237.237,0,0,0,.04-.046.189.189,0,0,0,.031-.157c0-.008-.012-.014-.018,0s-.026.05-.04.075a.376.376,0,0,0-.032.07.174.174,0,0,0-.006.027.127.127,0,0,1-.037.017h0l.021-.021a.145.145,0,0,0,.044-.093.3.3,0,0,0-.014-.113c0-.009-.009-.011-.015-.006a.38.38,0,0,0-.093.17.2.2,0,0,0-.008.072c-.034.032-.069.063-.1.092,0,0-.012.014-.015.009s0-.02,0-.027,0-.04.006-.058a1.062,1.062,0,0,1,.025-.124.893.893,0,0,1,.032-.1c0,.006.008.009.014,0a.2.2,0,0,0,.044-.131c0-.02-.012-.026-.02-.014a.979.979,0,0,0-.128.435c0,.037,0,.07.024.066a.093.093,0,0,0,.031-.021l.038-.032c.024-.021.047-.041.072-.064a.049.049,0,0,0,.038.006.111.111,0,0,0,.046-.017c0,.02.009.035.02.04s.029-.011.041-.017.028-.018.041-.029a.287.287,0,0,0,.038-.037.034.034,0,0,0,.014.021.073.073,0,0,0,.032.014.076.076,0,0,0,.037,0,.1.1,0,0,0,0,.012.042.042,0,0,0,.047.026.1.1,0,0,0,.047-.026.065.065,0,0,0,.012.017c.021.02.047.011.07,0S741.361,986.031,741.344,986.039Zm-.469-.073a.293.293,0,0,1,.06-.1.13.13,0,0,1,0,.09.121.121,0,0,1-.029.034l-.032.032a.041.041,0,0,1-.009.008A.185.185,0,0,1,740.875,985.965Zm.141-.05a.149.149,0,0,1-.032.064.012.012,0,0,1-.006.006Zm.209.036a.139.139,0,0,1-.035.043C741.2,985.968,741.216,985.942,741.225,985.952Zm.055.037s.009-.017.008-.006a.064.064,0,0,1-.012.02Z" transform="translate(-740.419 -984.834)" fill="#5a5a5a"/>
              </g>
            </g>
          </g>
        </g>
        <path id="Path_7803" data-name="Path 7803" d="M539.124,1029.871l-.79-.611-.2.634Z" transform="translate(-487.913 -980.619)" fill="#163560"/>
        <path id="Path_7804" data-name="Path 7804" d="M307.825,875.09s-10.2.68-12.637,6.116-3.219,23.524-.112,28.851c0,0,4.277,1.219,11.843-.2l.28-.054s2.413-5.909.249-7.074c0,0-6.381.333-5.715-1.775S307.825,875.09,307.825,875.09Z" transform="translate(-280.261 -850)" fill="#d8d8d8"/>
      </g>
      <g id="man_2_1_" transform="translate(252.849 121.25)">
        <path id="Path_7805" data-name="Path 7805" d="M1903.373,1756.005s.434,7.193-.875,7.3c-.174.014-6.646.014-6.646.014l-8.261-.052a2.821,2.821,0,0,1,2.469-2.589c2.415-.452,6.657-2.109,7.375-5.8S1903.373,1756.005,1903.373,1756.005Z" transform="translate(-1871.859 -1628.458)" fill="#474747"/>
        <path id="Path_7806" data-name="Path 7806" d="M1800.393,1756.005s.434,7.193-.875,7.3c-.174.014-6.646.014-6.646.014l-8.261-.052a2.821,2.821,0,0,1,2.469-2.589c2.415-.452,6.657-2.109,7.375-5.8S1800.393,1756.005,1800.393,1756.005Z" transform="translate(-1784.61 -1628.458)" fill="#474747"/>
        <path id="Path_7807" data-name="Path 7807" d="M2113.87,1163.724l7.241,2.5s4.607-9.379,5.729-10.652c1.28-1.453,2.2-12.633,2.78-22.747.506-8.844.752-16.872.752-16.872s-2.464.561-4.073,4.722c-2.757,7.132-2.737,21.059-4.272,28.24C2121.141,1153.045,2115.361,1163.136,2113.87,1163.724Z" transform="translate(-2063.574 -1088.31)" fill="#d5d5d5"/>
        <path id="Path_7808" data-name="Path 7808" d="M2161.26,1260.1c2.76-3.211,4.607-9.379,5.728-10.652,1.28-1.453,7.337-9.709,1.677-22.692-2.774,8.211-.46,12.685-1.332,17.532C2166.471,1249.1,2161.512,1256.892,2161.26,1260.1Z" transform="translate(-2103.725 -1182.193)" fill="#c8c8c8"/>
        <path id="Path_7809" data-name="Path 7809" d="M2298.11,1655.387a3.56,3.56,0,0,0,2.281.6c1.818,0,2.281-.6,2.281-.6V1629.86h-4.561Z" transform="translate(-2219.67 -1523.718)" fill="#9f9f9f"/>
        <path id="Path_7810" data-name="Path 7810" d="M2132.559,1358.276c0,.018,0,.038.007.058a23.716,23.716,0,0,0,.656,3.162,18.8,18.8,0,0,0,1.844,4.484c2.47,4.167,7.157,8.8,18.39,10.318.544.072,1.106.141,1.682.2q1.572.16,3.307.24c.073,0,.146.006.221.008s.146.006.223.008a54.382,54.382,0,0,0,11-1.648c8.371-1.986,13.824-6.075,17.272-11.047a0,0,0,0,0,0,0c.293-.423.571-.851.837-1.285a27.546,27.546,0,0,0,1.793-3.492,36.574,36.574,0,0,0,2.717-13.769,45.426,45.426,0,0,0-1.454-10.8,19.6,19.6,0,0,0-2.661-5.924,15.785,15.785,0,0,0-1.017-1.352,15.024,15.024,0,0,0-4.129-3.477c-4-2.279-17.151-4.549-28.292,1.331C2134.453,1336.1,2131.366,1349.468,2132.559,1358.276Z" transform="translate(-2079.22 -1262.505)" fill="#b9b9b9"/>
        <path id="Path_7811" data-name="Path 7811" d="M2140.817,1577.514c3.271,3.807,6.216,7.706,17.451,8.956.544.06,1.106.115,1.682.162q1.573.135,3.307.2c.073,0,.147.006.222.006s.146.006.223.008a54.416,54.416,0,0,0,11-1.648c8.371-1.986,13.824-6.075,17.272-11.047a0,0,0,0,0,0,0q.44-.635.837-1.285c-6.352-1.515-19.916-4.172-33.392-3.087-7.311.59-14.9,1.24-21.389,1.813C2137.813,1571.607,2139.738,1576.259,2140.817,1577.514Z" transform="translate(-2084.032 -1472.597)" fill="#979797"/>
        <path id="Path_7812" data-name="Path 7812" d="M2237.1,1119.764q-.158-.646-.334-1.272c-1.605-5.68-4.222-9.8-8.334-10.471-.516,1.405-5.549,3.738-9.954,3.51a2.878,2.878,0,0,1-1.211-.687c-3.478-.49-5.133-2.355-4.971-2.606-.147.012-3.652.993-3.652.993-3.043,13.3-3.406,20.7.255,39.674,1.337,6.931-.707,10.7-.255,11.15.793.794,9.558,1.022,16.6,1.3.846.032,1.68.061,2.493.089,5.151.168,9.395.228,9.395.228.35-.435.995-4.458,1.433-10.12C2239.272,1142.5,2239.457,1129.279,2237.1,1119.764Z" transform="translate(-2141.846 -1081.592)" fill="#d5d5d5"/>
        <path id="Path_7813" data-name="Path 7813" d="M2276.959,1058.664l-4.188,3.471-6.381-.985c.06-.614.377-3.277.651-5.55.224-1.856.42-3.449.42-3.449l7.621-3.049.229-.092c0,.038,0,.076-.006.115q-.032.456-.042.9A18.911,18.911,0,0,0,2276.959,1058.664Z" transform="translate(-2192.795 -1031.596)" fill="#e49963"/>
        <path id="Path_7814" data-name="Path 7814" d="M1887.812,1467.553c-21.328,1.531-27.966,1.256-28.715,2.281-4.708,6.451-5.185,7.564-14.735,20.492-1.823,2.467-3.973,5.363-6.55,8.808h-9.972s10.757-20.527,19.359-34.434c3.394-5.49,6.454-9.947,8.383-11.7,6.666-6.075,33.221-5.933,33.221-5.933s23.057-.557,24.872,2.858C1914.069,1450.662,1903.869,1466.4,1887.812,1467.553Z" transform="translate(-1821.237 -1368.815)" fill="#606060"/>
        <path id="Path_7815" data-name="Path 7815" d="M1979.45,1467.553c-21.328,1.531-27.967,1.256-28.715,2.281-4.708,6.451-5.185,7.564-14.735,20.492l2.838-25.626c3.394-5.49,6.454-9.947,8.383-11.7,6.667-6.075,33.221-5.933,33.221-5.933s23.057-.557,24.872,2.858C2005.707,1450.662,1995.507,1466.4,1979.45,1467.553Z" transform="translate(-1912.874 -1368.815)" fill="#4b4b4b"/>
        <path id="Path_7816" data-name="Path 7816" d="M2274.939,1129.066l-4.2-.446a.621.621,0,0,0-.425.776,5.23,5.23,0,0,0,2.006,2.541C2272.845,1132.026,2276.076,1130.282,2274.939,1129.066Z" transform="translate(-2196.113 -1099.045)" fill="#a7a7a7"/>
        <path id="Path_7817" data-name="Path 7817" d="M2001.183,1452.006s-.712,12.916-16.771,14.069c-21.328,1.532-25.727,1.027-27.122,2.329-6.856,6.408-2.325,7.768-18.4,29.273H1928.8s12.322-40.813,17.9-45.7c6.778-5.93,34.46-6.377,34.46-6.377s18.451-1.421,20.266,1.993C2001.821,1448.343,2001.183,1452.006,2001.183,1452.006Z" transform="translate(-1906.774 -1367.36)" fill="#6b6b6b"/>
        <g id="Group_6250" data-name="Group 6250" transform="translate(74.234 64.926)">
          <path id="Path_7818" data-name="Path 7818" d="M2270.58,1408.908a22.909,22.909,0,0,0,3.42.435c.489.023.984.03,1.491.026.043,0,.087,0,.13,0l.393-.008a54.5,54.5,0,0,0,11-1.648c10.934-2.594,16.89-8.777,19.906-15.825a36.573,36.573,0,0,0,2.717-13.769,45.437,45.437,0,0,0-1.454-10.8,19.617,19.617,0,0,0-2.661-5.924c-.237-.351-.489-.7-.755-1.029-.085-.109-.172-.215-.263-.324C2296.971,1367.919,2274.2,1392.969,2270.58,1408.908Z" transform="translate(-2270.58 -1360.04)" fill="#6b6b6b"/>
          <path id="Path_7819" data-name="Path 7819" d="M2274.32,1410.7a22.926,22.926,0,0,0,3.42.435c.3.014.609.023.919.026.043,0,.087,0,.13,0l.393-.008a54.513,54.513,0,0,0,11-1.648c10.934-2.594,16.89-8.777,19.906-15.825a36.574,36.574,0,0,0,2.718-13.769,45.46,45.46,0,0,0-1.455-10.8,19.621,19.621,0,0,0-2.661-5.924c-.237-.351-.489-.7-.754-1.029C2300.109,1370.38,2277.9,1394.976,2274.32,1410.7Z" transform="translate(-2273.749 -1361.836)" fill="#b8b8b8"/>
        </g>
        <g id="Group_6251" data-name="Group 6251" transform="translate(70.445 25.147)">
          <path id="Path_7820" data-name="Path 7820" d="M2249.419,1100.71s.7,3.119,2.541,4.627l-2.841,3.7s-3.442-4.074-3.341-6.988A23.022,23.022,0,0,1,2249.419,1100.71Z" transform="translate(-2245.775 -1100.545)" fill="#acacac"/>
          <path id="Path_7821" data-name="Path 7821" d="M2249.431,1100.71a8.472,8.472,0,0,0,2.374,4.444l-2.729,3.361s-3-3.481-3.286-6.47A23.041,23.041,0,0,1,2249.431,1100.71Z" transform="translate(-2245.787 -1100.545)" fill="#c1c1c1"/>
          <path id="Path_7822" data-name="Path 7822" d="M2292.355,1100.71s-4.344,4.117-7.186,4.444l1.945,4.855s8.462-5.014,8.489-8.017A12.721,12.721,0,0,0,2292.355,1100.71Z" transform="translate(-2279.152 -1100.545)" fill="#7a7a7a"/>
          <path id="Path_7823" data-name="Path 7823" d="M2292.045,1099.63s-4.034,4.282-6.875,4.609l1.575,4.474s8.522-4.8,8.548-7.8A12.7,12.7,0,0,0,2292.045,1099.63Z" transform="translate(-2279.152 -1099.63)" fill="#c1c1c1"/>
        </g>
        <path id="Path_7824" data-name="Path 7824" d="M2330.784,1253.834c-.44,5.662-.321,8.621-2.068,10.287,0,0-3.536,1.332-8.759-.394a7.691,7.691,0,0,1-3.864-3.879c-3.44-8.544,3.106-15.645,3.438-21.3s5.521-9.793,5.521-9.793S2331.489,1244.792,2330.784,1253.834Z" transform="translate(-2234.063 -1183.88)" fill="#c8c8c8"/>
        <path id="Path_7825" data-name="Path 7825" d="M2261.564,1146.043s.8,7.508.936,10.019c.4,7.066.544,28.3.544,28.3a4.826,4.826,0,0,1-1.028,3.333,19.009,19.009,0,0,1-2.529,2.491,9.356,9.356,0,0,1-2.536-4.573c-.479-1.986.671-18.662,1.832-29.771a99.835,99.835,0,0,1,1.546-9.955S2261.276,1145.726,2261.564,1146.043Z" transform="translate(-2184.703 -1113.642)" fill="#a7a7a7"/>
        <path id="Path_7826" data-name="Path 7826" d="M2205.287,1767.22h-49.9c2.375-5.194,12.642-9.1,24.948-9.1S2202.912,1762.026,2205.287,1767.22Z" transform="translate(-2098.751 -1632.385)" fill="#818181"/>
        <path id="Path_7827" data-name="Path 7827" d="M2272.932,1400.37a31.446,31.446,0,0,0-4.494,1.5c-1.109.611-3.336,3.536-2.837,3.995,2.505,2.3,2.892-.249,5.971-1.082.559-.151,3.135-3.023,3.135-3.023Z" transform="translate(-2192.066 -1329.284)" fill="#e49963"/>
        <path id="Path_7828" data-name="Path 7828" d="M2106.756,1349.29l-5.081-17.57H2072.64l5.243,18.282H2116v-.712Z" transform="translate(-2028.641 -1271.12)" fill="#fff"/>
        <path id="Path_7829" data-name="Path 7829" d="M2167.147,1383.164a.847.847,0,0,1,.83-1.164,1.667,1.667,0,0,1,1.5,1.164.848.848,0,0,1-.83,1.164A1.672,1.672,0,0,1,2167.147,1383.164Z" transform="translate(-2108.673 -1313.72)" fill="#acacac"/>
        <path id="Path_7830" data-name="Path 7830" d="M2315.71,1108.02s5.765.938,8.651,3.933,7.768,27.519,6.547,30.959-10.984,10.43-17.976,13.316c0,0-3.44-1.553-3.662-4.216,0,0,11.874-9.987,12.428-12.65S2315.71,1108.02,2315.71,1108.02Z" transform="translate(-2229.125 -1081.592)" fill="#d5d5d5"/>
        <path id="Path_7831" data-name="Path 7831" d="M2278.914,1049.624c-.021.3-.035.6-.041.9-1.474,1.59-4.941,4.978-8.223,5.579.225-1.856.42-3.449.42-3.449l7.621-3.049Z" transform="translate(-2196.405 -1032.096)" fill="#d68d5d"/>
        <path id="Path_7832" data-name="Path 7832" d="M2252.92,988.513s9.14.417,9.312-5.278,1.468-9.478-4.36-9.985-7.028,1.631-7.548,3.52S2250.547,988.258,2252.92,988.513Z" transform="translate(-2179.051 -967.345)" fill="#e49963"/>
        <path id="Path_7833" data-name="Path 7833" d="M2254.154,950.9s-.683-7.6-8.824-7.328-4.619-7.428,2.377-8.563c0,0-.73,2.713,3.671,3.142C2260.614,939.052,2254.976,949.694,2254.154,950.9Z" transform="translate(-2170.973 -935.01)" fill="#515151"/>
      </g>
      <path id="Path_7834" data-name="Path 7834" d="M1468.252,1483.606a6.784,6.784,0,0,1,6.362-5.327,4.262,4.262,0,0,1,4.291,5.327,6.783,6.783,0,0,1-6.362,5.327A4.264,4.264,0,0,1,1468.252,1483.606Z" transform="translate(-1263.644 -1274.043)" fill="#b9b9b9"/>
      <g id="Group_6253" data-name="Group 6253" transform="translate(258.021 87.006)">
        <path id="Path_7705-2" data-name="Path 7705" d="M1134.42,757.037h35.512l11.9-47.737h-35.512Z" transform="translate(-1134.42 -709.3)" fill="#fff"/>
        <g id="Group_6224-2" data-name="Group 6224" transform="translate(5.016 3.308)">
          <g id="Group_6219-2" data-name="Group 6219" transform="translate(3.586 9.041)" opacity="0.5">
            <g id="Group_6218-2" data-name="Group 6218" transform="translate(2.125)">
              <path id="Path_7706-2" data-name="Path 7706" d="M1299.193,991.889h23.525a.727.727,0,0,0,.662-.53l.05-.2a.4.4,0,0,0-.4-.53h-23.525a.726.726,0,0,0-.662.53l-.049.2A.4.4,0,0,0,1299.193,991.889Z" transform="translate(-1297.387 -982.236)" fill="#d1d1d1"/>
              <path id="Path_7707-2" data-name="Path 7707" d="M1327.571,878.039H1351.1a.726.726,0,0,0,.662-.53l.049-.2a.4.4,0,0,0-.4-.53h-23.525a.727.727,0,0,0-.662.53l-.049.2A.4.4,0,0,0,1327.571,878.039Z" transform="translate(-1323.672 -876.78)" fill="#d1d1d1"/>
              <path id="Path_7708-2" data-name="Path 7708" d="M1317.716,917.589h23.525a.726.726,0,0,0,.662-.53l.049-.2a.4.4,0,0,0-.4-.53H1318.03a.727.727,0,0,0-.662.53l-.049.2A.4.4,0,0,0,1317.716,917.589Z" transform="translate(-1314.545 -913.414)" fill="#d1d1d1"/>
              <path id="Path_7709-2" data-name="Path 7709" d="M1308.453,954.739h23.525a.727.727,0,0,0,.662-.53l.049-.2a.4.4,0,0,0-.4-.53h-23.525a.726.726,0,0,0-.662.53l-.049.2A.4.4,0,0,0,1308.453,954.739Z" transform="translate(-1305.964 -947.825)" fill="#d1d1d1"/>
              <path id="Path_7710-2" data-name="Path 7710" d="M1280.313,1067.609h23.524a.726.726,0,0,0,.662-.53l.049-.2a.4.4,0,0,0-.4-.53h-23.525a.726.726,0,0,0-.662.53l-.049.2A.4.4,0,0,0,1280.313,1067.609Z" transform="translate(-1279.899 -1052.373)" fill="#d1d1d1"/>
              <path id="Path_7711-2" data-name="Path 7711" d="M1289.573,1030.459H1313.1a.727.727,0,0,0,.662-.53l.05-.2a.4.4,0,0,0-.4-.53h-23.525a.726.726,0,0,0-.662.53l-.049.2A.4.4,0,0,0,1289.573,1030.459Z" transform="translate(-1288.476 -1017.962)" fill="#d1d1d1"/>
            </g>
            <path id="Path_7712-2" data-name="Path 7712" d="M1251.572,1184.359h5.713a.863.863,0,0,0,.787-.63h0a.477.477,0,0,0-.473-.63h-5.714a.863.863,0,0,0-.787.63h0A.477.477,0,0,0,1251.572,1184.359Z" transform="translate(-1251.08 -1160.515)" fill="#d1d1d1"/>
            <path id="Path_7713-2" data-name="Path 7713" d="M1488.981,1184.359h5.714a.863.863,0,0,0,.787-.63h0a.477.477,0,0,0-.473-.63H1489.3a.863.863,0,0,0-.787.63h0A.477.477,0,0,0,1488.981,1184.359Z" transform="translate(-1470.985 -1160.515)" fill="#d1d1d1"/>
          </g>
          <g id="Group_6220-2" data-name="Group 6220" transform="translate(0 35.578)">
            <path id="Path_7714-2" data-name="Path 7714" d="M1211.439,1240.783h-8.332a.65.65,0,0,1-.528-.24.688.688,0,0,1-.107-.6l.6-2.41a1.133,1.133,0,0,1,1.036-.829h8.332a.65.65,0,0,1,.528.24.688.688,0,0,1,.107.6l-.6,2.409A1.133,1.133,0,0,1,1211.439,1240.783Zm-7.331-4.015a1.063,1.063,0,0,0-.971.778l-.6,2.41a.624.624,0,0,0,.095.547.586.586,0,0,0,.476.215h8.332a1.063,1.063,0,0,0,.971-.778l.6-2.409a.624.624,0,0,0-.095-.547.586.586,0,0,0-.476-.214Z" transform="translate(-1202.446 -1236.7)" fill="#9b9b9b"/>
          </g>
          <g id="Group_6221-2" data-name="Group 6221" transform="translate(17.533 35.578)">
            <path id="Path_7715-2" data-name="Path 7715" d="M1449.239,1240.783h-8.332a.65.65,0,0,1-.528-.24.687.687,0,0,1-.107-.6l.6-2.41a1.134,1.134,0,0,1,1.036-.829h8.332a.65.65,0,0,1,.528.24.688.688,0,0,1,.107.6l-.6,2.409A1.133,1.133,0,0,1,1449.239,1240.783Zm-7.331-4.015a1.064,1.064,0,0,0-.971.778l-.6,2.41a.623.623,0,0,0,.1.547.586.586,0,0,0,.476.215h8.332a1.063,1.063,0,0,0,.971-.778l.6-2.409a.624.624,0,0,0-.1-.547.584.584,0,0,0-.476-.214Z" transform="translate(-1440.246 -1236.7)" fill="#b8b8b8"/>
          </g>
          <g id="Group_6222-2" data-name="Group 6222" transform="translate(11.233)">
            <path id="Path_7716-2" data-name="Path 7716" d="M1354.889,755.73a2.322,2.322,0,0,1,2.1-1.57,1.075,1.075,0,0,1,1.013.495l-.55.459a.739.739,0,0,0-.67-.338,1.363,1.363,0,0,0-1.194.954c-.171.521.047.954.568.954a1.528,1.528,0,0,0,.915-.355l.276.456a2.111,2.111,0,0,1-1.414.516A1.08,1.08,0,0,1,1354.889,755.73Z" transform="translate(-1354.8 -754.16)"/>
            <path id="Path_7717-2" data-name="Path 7717" d="M1397.159,755.73a2.362,2.362,0,0,1,2.133-1.57,1.094,1.094,0,0,1,1.094,1.57,2.362,2.362,0,0,1-2.133,1.57A1.094,1.094,0,0,1,1397.159,755.73Zm2.528,0c.171-.52-.069-.954-.607-.954a1.372,1.372,0,0,0-1.224.954c-.171.521.069.954.607.954A1.371,1.371,0,0,0,1399.687,755.73Z" transform="translate(-1393.956 -754.16)"/>
            <path id="Path_7718-2" data-name="Path 7718" d="M1444.306,754.86h.616l.809,1.869.613-1.869H1447l-1,3.036h-.568l-.837-1.93-.633,1.93h-.659Z" transform="translate(-1436.784 -754.808)"/>
            <path id="Path_7719-2" data-name="Path 7719" d="M1498.534,755.476h-.924l.2-.616h2.516l-.2.616h-.924l-.794,2.42h-.668Z" transform="translate(-1487.081 -754.808)"/>
            <path id="Path_7720-2" data-name="Path 7720" d="M1528.9,754.86h1.388a.887.887,0,0,1,.784.308.793.793,0,0,1,.029.7,1.454,1.454,0,0,1-.959.941l.386,1.085h-.781l-.341-.972h-.516l-.318.972h-.668Zm.861,1.475a.653.653,0,0,0,.655-.438c.094-.286-.057-.434-.383-.434h-.664l-.286.871Z" transform="translate(-1515.137 -754.808)"/>
            <path id="Path_7721-2" data-name="Path 7721" d="M1569.214,754.56h.615l.3,3.058h-.7l-.054-.681h-1.284l-.5.681h-.681Zm.116,1.787-.08-.984-.726.984Z" transform="translate(-1551.271 -754.53)"/>
            <path id="Path_7722-2" data-name="Path 7722" d="M1618.082,755.73a2.321,2.321,0,0,1,2.1-1.57,1.076,1.076,0,0,1,1.013.495l-.55.459a.739.739,0,0,0-.67-.338,1.363,1.363,0,0,0-1.194.954c-.171.521.047.954.568.954a1.528,1.528,0,0,0,.915-.355l.276.456a2.111,2.111,0,0,1-1.414.516A1.081,1.081,0,0,1,1618.082,755.73Z" transform="translate(-1598.589 -754.16)"/>
            <path id="Path_7723-2" data-name="Path 7723" d="M1666.424,755.476h-.924l.2-.616h2.516l-.2.616h-.924l-.794,2.42h-.668Z" transform="translate(-1642.592 -754.808)"/>
          </g>
          <path id="Path_7724-2" data-name="Path 7724" d="M1480.35,1232.2q-1.9.784-3.768,1.714.074-.209.133-.42c.032-.112-.12-.187-.214-.063q-.062.082-.132.157c.032-.1-.087-.156-.189-.083l-.019.015c.049-.135-.161-.156-.24-.024l-.117.2a.824.824,0,0,1-.378.252.629.629,0,0,1-.055-.21.093.093,0,0,0-.1-.089c0-.069-.064-.109-.156-.069a.839.839,0,0,0-.287.212c-.063-.117-.263-.033-.37.079l.009-.019c.051-.108-.043-.232-.17-.122a1.536,1.536,0,0,0-.466.683,2.626,2.626,0,0,1-.238.235c-.041.036-.234.215-.279.2s-.02-.126,0-.2l.021-.029c.161-.223.935-1.276.389-1.266a.2.2,0,0,0-.152.092,3.631,3.631,0,0,0-.447.953c-.018.062-.043.142-.063.226l-.048.063a2.491,2.491,0,0,1-.867.834,3.863,3.863,0,0,1,.362-1.438q.11-.3.229-.6a.167.167,0,0,0,.075-.039.96.96,0,0,0,.363-1.111c-.049-.091-.2-.008-.244.089-.261.586-.5,1.175-.71,1.764a3.394,3.394,0,0,0-.322,1.558c.008.051.068.07.123.057a2.037,2.037,0,0,0,1.03-.8.169.169,0,0,0,.11.1c.187.055.441-.152.624-.325a.737.737,0,0,0,.032.176c.02.061.083.075.158.045a1.453,1.453,0,0,0,.471-.315,1.021,1.021,0,0,0,.472-.378,2.584,2.584,0,0,0,.232-.231.352.352,0,0,0,.065.119c.068.078.24.007.349-.043a1.151,1.151,0,0,0,.288-.19.58.58,0,0,0,.2-.054.155.155,0,0,0,.047.049.206.206,0,0,0,.229-.021c-.018.051-.036.1-.056.152q-.272.137-.544.278c-.119.062-.147.245-.013.234l.5-.038a.2.2,0,0,0,.167-.126c.03-.067.057-.134.085-.2q1.952-.978,3.939-1.8C1480.575,1232.348,1480.518,1232.131,1480.35,1232.2Zm-5.8,1.915a.831.831,0,0,1-.041.1c-.011.024-.024.046-.037.069A.909.909,0,0,1,1474.551,1234.115Zm-.366.313a.312.312,0,0,0,0,.19,1.132,1.132,0,0,1-.124.083.732.732,0,0,1,.014-.233c.057-.068.112-.139.162-.21A1.232,1.232,0,0,0,1474.185,1234.428Z" transform="translate(-1452.019 -1196.942)"/>
          <g id="Group_6223-2" data-name="Group 6223" transform="translate(2.112 34.427)">
            <path id="Path_7725-2" data-name="Path 7725" d="M1234.022,1221.148c-.448.833-.7,1.688-1.063,2.53a6.74,6.74,0,0,1-.658,1.209c-.189.27-.6.857-.95.73-.087-.032-.111-.106-.083-.208.006-.022.014-.046.022-.068a.193.193,0,0,0,.181-.021.647.647,0,0,0,.257-.287c.052-.114.044-.231-.047-.282a.258.258,0,0,0-.285.08.937.937,0,0,0-.182.322,1,1,0,0,0-.123.4c.012.192.22.26.423.216a1.289,1.289,0,0,0,.63-.465,5.507,5.507,0,0,0,.517-.729,10.068,10.068,0,0,0,.721-1.569,15.428,15.428,0,0,1,.775-1.821C1234.211,1221.092,1234.075,1221.05,1234.022,1221.148Zm-2.426,3.782c.016.059-.042.136-.089.19a.3.3,0,0,1-.053.052.162.162,0,0,1-.038.022l-.012,0a.052.052,0,0,0-.047-.026c.02-.044.04-.088.06-.129C1231.447,1224.979,1231.564,1224.805,1231.6,1224.929Z" transform="translate(-1231.092 -1221.092)"/>
            <path id="Path_7726-2" data-name="Path 7726" d="M1259.476,1254.394a.99.99,0,0,1-.285.118.258.258,0,0,1-.073,0,.46.46,0,0,0,.141-.22c.017-.121-.116-.148-.229-.086a.348.348,0,0,0-.173.26.178.178,0,0,0,.014.085.633.633,0,0,1-.367.148,1.339,1.339,0,0,0,.338-.334.07.07,0,0,0,.005-.076.223.223,0,0,0-.285-.022.567.567,0,0,0-.244.294.43.43,0,0,0-.031.108.846.846,0,0,1-.361.082v0c.038-.035.075-.071.111-.107.055-.055.022-.111-.029-.117a.233.233,0,0,0-.232.182,3.5,3.5,0,0,1-.572.414c-.051.029-.12.089-.153.051a1.746,1.746,0,0,0,.232-.2c.138-.145.274-.4.111-.494a.1.1,0,0,0-.116.028l-.214.285a1.227,1.227,0,0,0-.165.256.357.357,0,0,0-.024.089,1.575,1.575,0,0,1-.227.117l-.019.008.126-.1a.525.525,0,0,0,.232-.344.385.385,0,0,0-.15-.288c-.021-.02-.069-.01-.1.013a1.54,1.54,0,0,0-.509.653.257.257,0,0,0-.007.214q-.305.233-.619.456c-.022.015-.076.065-.1.057s-.012-.054-.012-.076a1.541,1.541,0,0,1,.01-.175,1.765,1.765,0,0,1,.1-.391,2.159,2.159,0,0,1,.159-.339.082.082,0,0,0,.087-.016.532.532,0,0,0,.22-.452c-.005-.055-.094-.047-.134,0a2.193,2.193,0,0,0-.6,1.463c0,.1.052.193.192.134a.993.993,0,0,0,.182-.116l.228-.164q.214-.156.424-.316a.73.73,0,0,0,.251-.056,1.724,1.724,0,0,0,.289-.139.145.145,0,0,0,.152.072.793.793,0,0,0,.254-.128c.085-.051.168-.1.249-.163s.155-.116.229-.179c.017.024.046.031.1.033a.856.856,0,0,0,.214-.023,1.119,1.119,0,0,0,.231-.081.142.142,0,0,0,.038.026.417.417,0,0,0,.313-.019,1.209,1.209,0,0,0,.294-.165.3.3,0,0,0,.086.023.864.864,0,0,0,.456-.14C1259.613,1254.474,1259.579,1254.339,1259.476,1254.394Zm-3.049.705a1.331,1.331,0,0,1,.324-.4.182.182,0,0,1,.032.254.964.964,0,0,1-.168.148l-.193.153-.051.039C1256.349,1255.246,1256.4,1255.147,1256.427,1255.1Zm.875-.411a.646.646,0,0,1-.167.24l-.032.03C1257.162,1254.867,1257.233,1254.777,1257.3,1254.689Zm1.362-.308a1.064,1.064,0,0,1-.2.187C1258.507,1254.477,1258.6,1254.375,1258.665,1254.38Zm.374,0c.009-.015.054-.066.046-.031a.277.277,0,0,1-.063.078A.13.13,0,0,1,1259.038,1254.376Z" transform="translate(-1253.546 -1251.736)"/>
          </g>
        </g>
      </g>
      <g id="Group_6254" data-name="Group 6254" transform="translate(244.541 137.937)">
        <path id="Path_7705-3" data-name="Path 7705" d="M1134.42,757.037h35.512l11.9-47.737h-35.512Z" transform="translate(-1134.42 -709.3)" fill="#fff"/>
        <g id="Group_6224-3" data-name="Group 6224" transform="translate(5.016 3.308)">
          <g id="Group_6219-3" data-name="Group 6219" transform="translate(3.586 9.041)" opacity="0.5">
            <g id="Group_6218-3" data-name="Group 6218" transform="translate(2.125)">
              <path id="Path_7706-3" data-name="Path 7706" d="M1299.193,991.889h23.525a.727.727,0,0,0,.662-.53l.05-.2a.4.4,0,0,0-.4-.53h-23.525a.726.726,0,0,0-.662.53l-.049.2A.4.4,0,0,0,1299.193,991.889Z" transform="translate(-1297.387 -982.236)" fill="#d1d1d1"/>
              <path id="Path_7707-3" data-name="Path 7707" d="M1327.571,878.039H1351.1a.726.726,0,0,0,.662-.53l.049-.2a.4.4,0,0,0-.4-.53h-23.525a.727.727,0,0,0-.662.53l-.049.2A.4.4,0,0,0,1327.571,878.039Z" transform="translate(-1323.672 -876.78)" fill="#d1d1d1"/>
              <path id="Path_7708-3" data-name="Path 7708" d="M1317.716,917.589h23.525a.726.726,0,0,0,.662-.53l.049-.2a.4.4,0,0,0-.4-.53H1318.03a.727.727,0,0,0-.662.53l-.049.2A.4.4,0,0,0,1317.716,917.589Z" transform="translate(-1314.545 -913.414)" fill="#d1d1d1"/>
              <path id="Path_7709-3" data-name="Path 7709" d="M1308.453,954.739h23.525a.727.727,0,0,0,.662-.53l.049-.2a.4.4,0,0,0-.4-.53h-23.525a.726.726,0,0,0-.662.53l-.049.2A.4.4,0,0,0,1308.453,954.739Z" transform="translate(-1305.964 -947.825)" fill="#d1d1d1"/>
              <path id="Path_7710-3" data-name="Path 7710" d="M1280.313,1067.609h23.524a.726.726,0,0,0,.662-.53l.049-.2a.4.4,0,0,0-.4-.53h-23.525a.726.726,0,0,0-.662.53l-.049.2A.4.4,0,0,0,1280.313,1067.609Z" transform="translate(-1279.899 -1052.373)" fill="#d1d1d1"/>
              <path id="Path_7711-3" data-name="Path 7711" d="M1289.573,1030.459H1313.1a.727.727,0,0,0,.662-.53l.05-.2a.4.4,0,0,0-.4-.53h-23.525a.726.726,0,0,0-.662.53l-.049.2A.4.4,0,0,0,1289.573,1030.459Z" transform="translate(-1288.476 -1017.962)" fill="#d1d1d1"/>
            </g>
            <path id="Path_7712-3" data-name="Path 7712" d="M1251.572,1184.359h5.713a.863.863,0,0,0,.787-.63h0a.477.477,0,0,0-.473-.63h-5.714a.863.863,0,0,0-.787.63h0A.477.477,0,0,0,1251.572,1184.359Z" transform="translate(-1251.08 -1160.515)" fill="#d1d1d1"/>
            <path id="Path_7713-3" data-name="Path 7713" d="M1488.981,1184.359h5.714a.863.863,0,0,0,.787-.63h0a.477.477,0,0,0-.473-.63H1489.3a.863.863,0,0,0-.787.63h0A.477.477,0,0,0,1488.981,1184.359Z" transform="translate(-1470.985 -1160.515)" fill="#d1d1d1"/>
          </g>
          <g id="Group_6220-3" data-name="Group 6220" transform="translate(0 35.578)">
            <path id="Path_7714-3" data-name="Path 7714" d="M1211.439,1240.783h-8.332a.65.65,0,0,1-.528-.24.688.688,0,0,1-.107-.6l.6-2.41a1.133,1.133,0,0,1,1.036-.829h8.332a.65.65,0,0,1,.528.24.688.688,0,0,1,.107.6l-.6,2.409A1.133,1.133,0,0,1,1211.439,1240.783Zm-7.331-4.015a1.063,1.063,0,0,0-.971.778l-.6,2.41a.624.624,0,0,0,.095.547.586.586,0,0,0,.476.215h8.332a1.063,1.063,0,0,0,.971-.778l.6-2.409a.624.624,0,0,0-.095-.547.586.586,0,0,0-.476-.214Z" transform="translate(-1202.446 -1236.7)" fill="#9b9b9b"/>
          </g>
          <g id="Group_6221-3" data-name="Group 6221" transform="translate(17.533 35.578)">
            <path id="Path_7715-3" data-name="Path 7715" d="M1449.239,1240.783h-8.332a.65.65,0,0,1-.528-.24.687.687,0,0,1-.107-.6l.6-2.41a1.134,1.134,0,0,1,1.036-.829h8.332a.65.65,0,0,1,.528.24.688.688,0,0,1,.107.6l-.6,2.409A1.133,1.133,0,0,1,1449.239,1240.783Zm-7.331-4.015a1.064,1.064,0,0,0-.971.778l-.6,2.41a.623.623,0,0,0,.1.547.586.586,0,0,0,.476.215h8.332a1.063,1.063,0,0,0,.971-.778l.6-2.409a.624.624,0,0,0-.1-.547.584.584,0,0,0-.476-.214Z" transform="translate(-1440.246 -1236.7)" fill="#b8b8b8"/>
          </g>
          <g id="Group_6222-3" data-name="Group 6222" transform="translate(11.233)">
            <path id="Path_7716-3" data-name="Path 7716" d="M1354.889,755.73a2.322,2.322,0,0,1,2.1-1.57,1.075,1.075,0,0,1,1.013.495l-.55.459a.739.739,0,0,0-.67-.338,1.363,1.363,0,0,0-1.194.954c-.171.521.047.954.568.954a1.528,1.528,0,0,0,.915-.355l.276.456a2.111,2.111,0,0,1-1.414.516A1.08,1.08,0,0,1,1354.889,755.73Z" transform="translate(-1354.8 -754.16)"/>
            <path id="Path_7717-3" data-name="Path 7717" d="M1397.159,755.73a2.362,2.362,0,0,1,2.133-1.57,1.094,1.094,0,0,1,1.094,1.57,2.362,2.362,0,0,1-2.133,1.57A1.094,1.094,0,0,1,1397.159,755.73Zm2.528,0c.171-.52-.069-.954-.607-.954a1.372,1.372,0,0,0-1.224.954c-.171.521.069.954.607.954A1.371,1.371,0,0,0,1399.687,755.73Z" transform="translate(-1393.956 -754.16)"/>
            <path id="Path_7718-3" data-name="Path 7718" d="M1444.306,754.86h.616l.809,1.869.613-1.869H1447l-1,3.036h-.568l-.837-1.93-.633,1.93h-.659Z" transform="translate(-1436.784 -754.808)"/>
            <path id="Path_7719-3" data-name="Path 7719" d="M1498.534,755.476h-.924l.2-.616h2.516l-.2.616h-.924l-.794,2.42h-.668Z" transform="translate(-1487.081 -754.808)"/>
            <path id="Path_7720-3" data-name="Path 7720" d="M1528.9,754.86h1.388a.887.887,0,0,1,.784.308.793.793,0,0,1,.029.7,1.454,1.454,0,0,1-.959.941l.386,1.085h-.781l-.341-.972h-.516l-.318.972h-.668Zm.861,1.475a.653.653,0,0,0,.655-.438c.094-.286-.057-.434-.383-.434h-.664l-.286.871Z" transform="translate(-1515.137 -754.808)"/>
            <path id="Path_7721-3" data-name="Path 7721" d="M1569.214,754.56h.615l.3,3.058h-.7l-.054-.681h-1.284l-.5.681h-.681Zm.116,1.787-.08-.984-.726.984Z" transform="translate(-1551.271 -754.53)"/>
            <path id="Path_7722-3" data-name="Path 7722" d="M1618.082,755.73a2.321,2.321,0,0,1,2.1-1.57,1.076,1.076,0,0,1,1.013.495l-.55.459a.739.739,0,0,0-.67-.338,1.363,1.363,0,0,0-1.194.954c-.171.521.047.954.568.954a1.528,1.528,0,0,0,.915-.355l.276.456a2.111,2.111,0,0,1-1.414.516A1.081,1.081,0,0,1,1618.082,755.73Z" transform="translate(-1598.589 -754.16)"/>
            <path id="Path_7723-3" data-name="Path 7723" d="M1666.424,755.476h-.924l.2-.616h2.516l-.2.616h-.924l-.794,2.42h-.668Z" transform="translate(-1642.592 -754.808)"/>
          </g>
          <path id="Path_7724-3" data-name="Path 7724" d="M1480.35,1232.2q-1.9.784-3.768,1.714.074-.209.133-.42c.032-.112-.12-.187-.214-.063q-.062.082-.132.157c.032-.1-.087-.156-.189-.083l-.019.015c.049-.135-.161-.156-.24-.024l-.117.2a.824.824,0,0,1-.378.252.629.629,0,0,1-.055-.21.093.093,0,0,0-.1-.089c0-.069-.064-.109-.156-.069a.839.839,0,0,0-.287.212c-.063-.117-.263-.033-.37.079l.009-.019c.051-.108-.043-.232-.17-.122a1.536,1.536,0,0,0-.466.683,2.626,2.626,0,0,1-.238.235c-.041.036-.234.215-.279.2s-.02-.126,0-.2l.021-.029c.161-.223.935-1.276.389-1.266a.2.2,0,0,0-.152.092,3.631,3.631,0,0,0-.447.953c-.018.062-.043.142-.063.226l-.048.063a2.491,2.491,0,0,1-.867.834,3.863,3.863,0,0,1,.362-1.438q.11-.3.229-.6a.167.167,0,0,0,.075-.039.96.96,0,0,0,.363-1.111c-.049-.091-.2-.008-.244.089-.261.586-.5,1.175-.71,1.764a3.394,3.394,0,0,0-.322,1.558c.008.051.068.07.123.057a2.037,2.037,0,0,0,1.03-.8.169.169,0,0,0,.11.1c.187.055.441-.152.624-.325a.737.737,0,0,0,.032.176c.02.061.083.075.158.045a1.453,1.453,0,0,0,.471-.315,1.021,1.021,0,0,0,.472-.378,2.584,2.584,0,0,0,.232-.231.352.352,0,0,0,.065.119c.068.078.24.007.349-.043a1.151,1.151,0,0,0,.288-.19.58.58,0,0,0,.2-.054.155.155,0,0,0,.047.049.206.206,0,0,0,.229-.021c-.018.051-.036.1-.056.152q-.272.137-.544.278c-.119.062-.147.245-.013.234l.5-.038a.2.2,0,0,0,.167-.126c.03-.067.057-.134.085-.2q1.952-.978,3.939-1.8C1480.575,1232.348,1480.518,1232.131,1480.35,1232.2Zm-5.8,1.915a.831.831,0,0,1-.041.1c-.011.024-.024.046-.037.069A.909.909,0,0,1,1474.551,1234.115Zm-.366.313a.312.312,0,0,0,0,.19,1.132,1.132,0,0,1-.124.083.732.732,0,0,1,.014-.233c.057-.068.112-.139.162-.21A1.232,1.232,0,0,0,1474.185,1234.428Z" transform="translate(-1452.019 -1196.942)"/>
          <g id="Group_6223-3" data-name="Group 6223" transform="translate(2.112 34.427)">
            <path id="Path_7725-3" data-name="Path 7725" d="M1234.022,1221.148c-.448.833-.7,1.688-1.063,2.53a6.74,6.74,0,0,1-.658,1.209c-.189.27-.6.857-.95.73-.087-.032-.111-.106-.083-.208.006-.022.014-.046.022-.068a.193.193,0,0,0,.181-.021.647.647,0,0,0,.257-.287c.052-.114.044-.231-.047-.282a.258.258,0,0,0-.285.08.937.937,0,0,0-.182.322,1,1,0,0,0-.123.4c.012.192.22.26.423.216a1.289,1.289,0,0,0,.63-.465,5.507,5.507,0,0,0,.517-.729,10.068,10.068,0,0,0,.721-1.569,15.428,15.428,0,0,1,.775-1.821C1234.211,1221.092,1234.075,1221.05,1234.022,1221.148Zm-2.426,3.782c.016.059-.042.136-.089.19a.3.3,0,0,1-.053.052.162.162,0,0,1-.038.022l-.012,0a.052.052,0,0,0-.047-.026c.02-.044.04-.088.06-.129C1231.447,1224.979,1231.564,1224.805,1231.6,1224.929Z" transform="translate(-1231.092 -1221.092)"/>
            <path id="Path_7726-3" data-name="Path 7726" d="M1259.476,1254.394a.99.99,0,0,1-.285.118.258.258,0,0,1-.073,0,.46.46,0,0,0,.141-.22c.017-.121-.116-.148-.229-.086a.348.348,0,0,0-.173.26.178.178,0,0,0,.014.085.633.633,0,0,1-.367.148,1.339,1.339,0,0,0,.338-.334.07.07,0,0,0,.005-.076.223.223,0,0,0-.285-.022.567.567,0,0,0-.244.294.43.43,0,0,0-.031.108.846.846,0,0,1-.361.082v0c.038-.035.075-.071.111-.107.055-.055.022-.111-.029-.117a.233.233,0,0,0-.232.182,3.5,3.5,0,0,1-.572.414c-.051.029-.12.089-.153.051a1.746,1.746,0,0,0,.232-.2c.138-.145.274-.4.111-.494a.1.1,0,0,0-.116.028l-.214.285a1.227,1.227,0,0,0-.165.256.357.357,0,0,0-.024.089,1.575,1.575,0,0,1-.227.117l-.019.008.126-.1a.525.525,0,0,0,.232-.344.385.385,0,0,0-.15-.288c-.021-.02-.069-.01-.1.013a1.54,1.54,0,0,0-.509.653.257.257,0,0,0-.007.214q-.305.233-.619.456c-.022.015-.076.065-.1.057s-.012-.054-.012-.076a1.541,1.541,0,0,1,.01-.175,1.765,1.765,0,0,1,.1-.391,2.159,2.159,0,0,1,.159-.339.082.082,0,0,0,.087-.016.532.532,0,0,0,.22-.452c-.005-.055-.094-.047-.134,0a2.193,2.193,0,0,0-.6,1.463c0,.1.052.193.192.134a.993.993,0,0,0,.182-.116l.228-.164q.214-.156.424-.316a.73.73,0,0,0,.251-.056,1.724,1.724,0,0,0,.289-.139.145.145,0,0,0,.152.072.793.793,0,0,0,.254-.128c.085-.051.168-.1.249-.163s.155-.116.229-.179c.017.024.046.031.1.033a.856.856,0,0,0,.214-.023,1.119,1.119,0,0,0,.231-.081.142.142,0,0,0,.038.026.417.417,0,0,0,.313-.019,1.209,1.209,0,0,0,.294-.165.3.3,0,0,0,.086.023.864.864,0,0,0,.456-.14C1259.613,1254.474,1259.579,1254.339,1259.476,1254.394Zm-3.049.705a1.331,1.331,0,0,1,.324-.4.182.182,0,0,1,.032.254.964.964,0,0,1-.168.148l-.193.153-.051.039C1256.349,1255.246,1256.4,1255.147,1256.427,1255.1Zm.875-.411a.646.646,0,0,1-.167.24l-.032.03C1257.162,1254.867,1257.233,1254.777,1257.3,1254.689Zm1.362-.308a1.064,1.064,0,0,1-.2.187C1258.507,1254.477,1258.6,1254.375,1258.665,1254.38Zm.374,0c.009-.015.054-.066.046-.031a.277.277,0,0,1-.063.078A.13.13,0,0,1,1259.038,1254.376Z" transform="translate(-1253.546 -1251.736)"/>
          </g>
        </g>
      </g>
    </g>
  </g>
</svg>
