<svg xmlns="http://www.w3.org/2000/svg" xmlns:xlink="http://www.w3.org/1999/xlink" width="370.236" height="300.108" viewBox="0 0 370.236 300.108">
  <defs>
    <linearGradient id="linear-gradient" x1="120.21" y1="0.531" x2="121.218" y2="0.531" gradientUnits="objectBoundingBox">
      <stop offset="0" stop-color="#febbba"/>
      <stop offset="1" stop-color="#ff928e"/>
    </linearGradient>
    <linearGradient id="linear-gradient-2" x1="140.102" y1="0.549" x2="141.116" y2="0.549" xlink:href="#linear-gradient"/>
    <linearGradient id="linear-gradient-3" x1="23.161" y1="0.495" x2="24.154" y2="0.495" xlink:href="#linear-gradient"/>
    <linearGradient id="linear-gradient-4" x1="0.198" y1="1.541" x2="0.536" y2="0.206" xlink:href="#linear-gradient"/>
    <linearGradient id="linear-gradient-5" x1="166.925" y1="0.664" x2="168.926" y2="-1.117" xlink:href="#linear-gradient"/>
    <linearGradient id="linear-gradient-6" x1="18.461" y1="0.528" x2="19.463" y2="0.528" xlink:href="#linear-gradient"/>
    <linearGradient id="linear-gradient-7" x1="46.169" y1="0.518" x2="47.16" y2="0.518" xlink:href="#linear-gradient"/>
    <linearGradient id="linear-gradient-8" x1="-17.891" y1="9.251" x2="-18.215" y2="8.185" xlink:href="#linear-gradient"/>
    <linearGradient id="linear-gradient-9" x1="-59.427" y1="42.097" x2="-60.374" y2="37.484" xlink:href="#linear-gradient"/>
    <linearGradient id="linear-gradient-10" x1="55.526" y1="0.5" x2="56.526" y2="0.5" xlink:href="#linear-gradient"/>
    <linearGradient id="linear-gradient-11" y1="0.5" x2="1" y2="0.5" gradientUnits="objectBoundingBox">
      <stop offset="0" stop-color="#dae3fe"/>
      <stop offset="1" stop-color="#e9effd"/>
    </linearGradient>
    <radialGradient id="radial-gradient" cx="-1.913" cy="0.472" r="1.172" gradientTransform="matrix(-2.364, 0, 0, 1, 20817.055, 0)" gradientUnits="objectBoundingBox">
      <stop offset="0.03" stop-color="#fedfcb"/>
      <stop offset="0.778" stop-color="#f9b69e"/>
      <stop offset="0.995" stop-color="#f2a78c"/>
    </radialGradient>
    <radialGradient id="radial-gradient-2" cx="0.133" cy="1.073" r="1.17" gradientTransform="matrix(-0.579, 0.077, 0.045, 0.997, 1727.991, -84.868)" xlink:href="#radial-gradient"/>
    <radialGradient id="radial-gradient-3" cx="0.917" cy="0.571" r="0.335" gradientTransform="matrix(-2.134, 0, 0, 1, 3785.703, 0)" gradientUnits="objectBoundingBox">
      <stop offset="0" stop-color="#fff"/>
      <stop offset="1"/>
    </radialGradient>
    <radialGradient id="radial-gradient-4" cx="0.24" cy="0.218" r="1.088" gradientTransform="matrix(-0.59, 0, 0, 1, 1466.531, 0)" gradientUnits="objectBoundingBox">
      <stop offset="0.03" stop-color="#fedfcb"/>
      <stop offset="1" stop-color="#f9b69e"/>
    </radialGradient>
    <radialGradient id="radial-gradient-5" cx="0.066" cy="-0.613" r="2.146" gradientTransform="matrix(-0.465, 0, 0, 1, 1351.011, 0)" xlink:href="#radial-gradient"/>
    <radialGradient id="radial-gradient-6" cx="0.817" cy="0.424" r="0.618" gradientTransform="matrix(-1.345, 0, 0, 1, 2864.347, 0)" xlink:href="#radial-gradient-4"/>
    <linearGradient id="linear-gradient-12" x1="1440.851" y1="0.982" x2="1440.646" y2="0.348" gradientUnits="objectBoundingBox">
      <stop offset="0.035" stop-color="#9d9eb3"/>
      <stop offset="0.581" stop-color="#d4d1d8"/>
      <stop offset="1" stop-color="#eeebf2"/>
    </linearGradient>
    <radialGradient id="radial-gradient-7" cx="0.455" cy="0.619" r="0.736" gradientTransform="matrix(-0.548, 0, 0, 1, 1490.949, 0)" xlink:href="#radial-gradient-3"/>
    <radialGradient id="radial-gradient-8" cx="-0.351" cy="-0.432" r="1.604" gradientTransform="matrix(-0.866, 0, 0, 1, 3388.643, 0)" xlink:href="#radial-gradient-4"/>
    <radialGradient id="radial-gradient-9" cx="0.095" cy="0.51" r="0.77" gradientTransform="matrix(-1.295, 0, 0, 1, 2801.247, 0)" xlink:href="#radial-gradient-4"/>
    <linearGradient id="linear-gradient-13" x1="2255.468" y1="-102.006" x2="2259.249" y2="-102.819" gradientUnits="objectBoundingBox">
      <stop offset="0.091" stop-color="#25054d"/>
      <stop offset="0.471" stop-color="#330a68"/>
      <stop offset="0.894" stop-color="#45108a"/>
    </linearGradient>
    <radialGradient id="radial-gradient-10" cx="0.5" cy="0.5" r="0.543" gradientTransform="matrix(-0.859, 0, 0, 1, 1784.736, 0)" xlink:href="#radial-gradient-3"/>
    <radialGradient id="radial-gradient-11" cx="0.862" cy="0.264" r="0.65" gradientTransform="matrix(-1.384, 0.112, 0.156, 0.994, 4043.337, -190.34)" xlink:href="#radial-gradient-4"/>
    <radialGradient id="radial-gradient-12" cx="1.008" cy="-1.431" r="3.459" gradientTransform="matrix(-0.283, 0.077, 0.022, 0.997, 1804.306, -109.18)" xlink:href="#radial-gradient-4"/>
    <radialGradient id="radial-gradient-13" cx="0.334" cy="-0.245" r="2.188" gradientTransform="matrix(-0.377, 0, 0, 1, 3626.243, 0)" xlink:href="#radial-gradient-4"/>
  </defs>
  <g id="Customer_Relationship_Management" data-name="Customer Relationship Management" transform="translate(-1249.5 -2010.892)">
    <g id="Group_4233" data-name="Group 4233" transform="translate(1249.5 2011.393)">
      <rect id="Rectangle_190" data-name="Rectangle 190" width="7.462" height="0.215" transform="translate(232.923 270.286)" fill="#ebebeb"/>
      <rect id="Rectangle_191" data-name="Rectangle 191" width="16.479" height="0.215" transform="translate(296.521 259.981)" fill="#ebebeb"/>
      <rect id="Rectangle_192" data-name="Rectangle 192" width="37.089" height="0.215" transform="translate(1.007 261.424)" fill="#ebebeb"/>
      <rect id="Rectangle_193" data-name="Rectangle 193" width="5.436" height="0.215" transform="translate(45.747 261.424)" fill="#ebebeb"/>
      <rect id="Rectangle_194" data-name="Rectangle 194" width="80.446" height="0.215" transform="translate(68.854 265.048)" fill="#ebebeb"/>
      <path id="Path_3347" data-name="Path 3347" d="M163.478,370.626h-3.306a1.024,1.024,0,0,1-1.022-1.022V292h5.341v77.6A1.012,1.012,0,0,1,163.478,370.626Z" transform="translate(-66.525 -115.496)" fill="#f0f0f0"/>
      <rect id="Rectangle_196" data-name="Rectangle 196" width="46.337" height="6.99" transform="translate(211.774 169.522)" fill="#e6e6e6"/>
      <path id="Path_3348" data-name="Path 3348" d="M202.048,370.626h-3.306a1.024,1.024,0,0,1-1.022-1.022V292h5.341v77.6A1.017,1.017,0,0,1,202.048,370.626Z" transform="translate(-71.975 -115.496)" fill="#e6e6e6"/>
      <path id="Path_3349" data-name="Path 3349" d="M346.358,370.626h-3.306a1.024,1.024,0,0,1-1.022-1.022V292h5.341v77.6A1.017,1.017,0,0,1,346.358,370.626Z" transform="translate(-92.361 -115.496)" fill="#e6e6e6"/>
      <rect id="Rectangle_197" data-name="Rectangle 197" width="135.457" height="6.99" transform="translate(89.533 169.522)" fill="#f5f5f5"/>
      <path id="Path_3350" data-name="Path 3350" d="M307.788,370.626h-3.306a1.024,1.024,0,0,1-1.022-1.022V292H308.8v77.6A1.006,1.006,0,0,1,307.788,370.626Z" transform="translate(-86.912 -115.496)" fill="#f0f0f0"/>
      <path id="Path_3358" data-name="Path 3358" d="M113.507,302.1c.069.1-.472.687,1.443.644,4.706-.12,12.993-1,15.827-5.479,4.045-6.4-6.191-5.144-5.419-8.579s11.988-1.426,13.817-6.372-6.131-3.469-5.925-5.96,8.836.137,11.275-5.135-4.74-2.061-3.684-4.251,9.8-11.593,5.882-13.3-12.074,8.055-14.9,9.223-4.1-7.772-7.7-4.508-.2,16.668-4.517,18.652c-3.22,1.477-1.743-3.512-5.805-3.049C108.286,274.621,107.736,293.77,113.507,302.1Z" transform="translate(-59.501 -110.053)" fill="#ebebeb"/>
      <path id="Path_3359" data-name="Path 3359" d="M131.446,277.789a15.632,15.632,0,0,0-4.1.326,29.563,29.563,0,0,1,3.3-3.3.361.361,0,0,0,.06-.49.351.351,0,0,0-.481-.06,40.74,40.74,0,0,0-6.715,7.557,30.708,30.708,0,0,1,4.3-16.221.261.261,0,1,0-.438-.283,31.127,31.127,0,0,0-4.345,17.175c-.584.842-1.176,1.752-1.778,2.722a65.231,65.231,0,0,0-5.324,10.966,23.683,23.683,0,0,1-1.434-10.794.26.26,0,0,0-.232-.283.266.266,0,0,0-.283.232,23.71,23.71,0,0,0,1.683,11.541A80.229,80.229,0,0,0,111,320.271a.345.345,0,0,0,.326.361h.043a.336.336,0,0,0,.318-.326,76.079,76.079,0,0,1,7.222-29.266,9.436,9.436,0,0,1,5.857-2.439.27.27,0,0,0,.249-.266.253.253,0,0,0-.266-.249,9.672,9.672,0,0,0-5.29,1.863,57.473,57.473,0,0,1,7.316-11.146,14.061,14.061,0,0,1,4.672-.5.259.259,0,0,0,.266-.249A.3.3,0,0,0,131.446,277.789Z" transform="translate(-59.723 -111.71)" fill="#e0e0e0"/>
      <g id="Group_3773" data-name="Group 3773" transform="translate(2.052 138.397)">
        <path id="Path_3360" data-name="Path 3360" d="M92.812,304.434c-5.316.1-14.392-4.835-17.956-9.635-3.615-4.869,6.552-1.846,5.513-5.676s-13.585-1-15.9-6.475,6.732-4.216,6.372-7.024-9.729-2.233-12.744-8.055,5.238-2.559,3.942-4.972S50.408,250.025,54.727,247.9s14.015,8.467,17.261,9.644,4-6.131,8.227-2.636,1.065,18.78,6.037,20.8c3.7,1.5,2.13-5.5,6.389-3.727C100.12,275.066,94.968,304.391,92.812,304.434Z" transform="translate(-53.678 -247.624)" fill="#e6e6e6"/>
        <g id="Group_3772" data-name="Group 3772" transform="translate(0 0)" opacity="0.3">
          <path id="Path_3361" data-name="Path 3361" d="M92.812,304.434c-5.316.1-14.392-4.835-17.956-9.635-3.615-4.869,6.552-1.846,5.513-5.676s-13.585-1-15.9-6.475,6.732-4.216,6.372-7.024-9.729-2.233-12.744-8.055,5.238-2.559,3.942-4.972S50.408,250.025,54.727,247.9s14.015,8.467,17.261,9.644,4-6.131,8.227-2.636,1.065,18.78,6.037,20.8c3.7,1.5,2.13-5.5,6.389-3.727C100.12,275.066,94.968,304.391,92.812,304.434Z" transform="translate(-53.678 -247.624)" fill="#e6e6e6"/>
        </g>
      </g>
      <path id="Path_3362" data-name="Path 3362" d="M93.358,299.945a.334.334,0,0,0,.189-.155,28,28,0,0,0,2.387-14.246.358.358,0,0,0-.713.06,28.424,28.424,0,0,1-2.155,13.542,109.5,109.5,0,0,0-8.089-17.123c.936-11.413-4.9-20.756-4.963-20.85a.355.355,0,1,0-.6.378,36.873,36.873,0,0,1,4.929,19.364,99.463,99.463,0,0,0-13.594-18.171.474.474,0,1,0-.661.678A93.122,93.122,0,0,1,80.46,276.536a27.967,27.967,0,0,0-10.047-1.769.356.356,0,0,0,0,.713h.009a27.281,27.281,0,0,1,10.717,2.087,111.257,111.257,0,0,1,5.779,9.944A12.009,12.009,0,0,0,77,285.767a.354.354,0,0,0-.249.438.347.347,0,0,0,.438.249,11.452,11.452,0,0,1,10.477,2.533,96.32,96.32,0,0,1,10.3,38.961.473.473,0,0,0,.472.455h.017a.477.477,0,0,0,.455-.49A93.554,93.554,0,0,0,93.358,299.945Z" transform="translate(-53.924 -111.118)" fill="#f5f5f5"/>
      <path id="Path_3363" data-name="Path 3363" d="M113.649,375.009c4.122-11.73,6.827-28.682,6.827-36.118a25.87,25.87,0,0,0-5.032-15.861H94.362a25.943,25.943,0,0,0-5.032,15.861c0,7.428,2.705,24.388,6.827,36.118Z" transform="translate(-56.663 -119.879)" fill="#e6e6e6"/>
      <path id="Path_3364" data-name="Path 3364" d="M104.266,304.3c.069.06-.206.558,1.108.206,3.246-.867,8.836-2.851,10.056-6.423,1.735-5.1-5.144-2.533-5.178-5.041s8.072-2.98,8.519-6.715-4.826-1.383-5.092-3.143,6.149-1.374,6.956-5.436-3.624-.635-3.263-2.327,4.86-9.669,1.863-10.193-7.024,7.591-8.785,8.871-4.131-4.706-6.088-1.838,2.636,11.584-.026,13.671c-1.984,1.563-1.795-2.138-4.534-1.142C96.073,286.136,98.881,299.489,104.266,304.3Z" transform="translate(-57.902 -111.71)" fill="#f5f5f5"/>
      <path id="Path_3365" data-name="Path 3365" d="M112.755,285.023a11.185,11.185,0,0,0-2.782.91,21.434,21.434,0,0,1,1.735-2.834.245.245,0,1,0-.386-.3,29.184,29.184,0,0,0-3.4,6.355A21.833,21.833,0,0,1,108.2,277.2a.182.182,0,0,0-.343-.12,22.2,22.2,0,0,0-.155,12.623c-.266.678-.524,1.408-.781,2.181a46.254,46.254,0,0,0-1.863,8.484,16.944,16.944,0,0,1-2.791-7.239.182.182,0,0,0-.361.052,17.111,17.111,0,0,0,3.083,7.72,57.038,57.038,0,0,0,.661,16.986.242.242,0,0,0,.283.2c.009,0,.017-.009.026-.009a.246.246,0,0,0,.172-.275,54.089,54.089,0,0,1,.137-21.477,6.76,6.76,0,0,1,3.65-2.662.19.19,0,0,0,.129-.223.186.186,0,0,0-.223-.129,6.907,6.907,0,0,0-3.358,2.173,40.753,40.753,0,0,1,3.212-8.939,10.016,10.016,0,0,1,3.16-1.125.2.2,0,0,0,.146-.215A.2.2,0,0,0,112.755,285.023Z" transform="translate(-58.439 -113.371)" fill="#e0e0e0"/>
      <rect id="Rectangle_199" data-name="Rectangle 199" width="55.706" height="74.117" transform="translate(103.934 181.012)" fill="#f5f5f5"/>
      <rect id="Rectangle_200" data-name="Rectangle 200" width="10.623" height="74.117" transform="translate(159.64 181.012)" fill="#e6e6e6"/>
      <rect id="Rectangle_201" data-name="Rectangle 201" width="48.184" height="17.999" transform="translate(107.841 186.517)" fill="#fafafa"/>
      <path id="Path_3366" data-name="Path 3366" d="M197.61,303.66l.215,2.4a1.533,1.533,0,0,0,1.529,1.4h9.094a1.533,1.533,0,0,0,1.529-1.4l.206-2.4Z" transform="translate(-71.959 -117.143)" fill="#ebebeb"/>
      <rect id="Rectangle_202" data-name="Rectangle 202" width="48.184" height="17.999" transform="translate(107.841 206.482)" fill="#fafafa"/>
      <path id="Path_3367" data-name="Path 3367" d="M197.61,326.91l.215,2.4a1.533,1.533,0,0,0,1.529,1.4h9.094a1.533,1.533,0,0,0,1.529-1.4l.206-2.4Z" transform="translate(-71.959 -120.428)" fill="#ebebeb"/>
      <rect id="Rectangle_203" data-name="Rectangle 203" width="48.184" height="17.999" transform="translate(107.841 226.448)" fill="#fafafa"/>
      <path id="Path_3368" data-name="Path 3368" d="M197.61,350.16l.215,2.4a1.533,1.533,0,0,0,1.529,1.4h9.094a1.533,1.533,0,0,0,1.529-1.4l.206-2.4Z" transform="translate(-71.959 -123.712)" fill="#ebebeb"/>
      <ellipse id="_x3C_Path_x3E__1_" cx="166.5" cy="9.721" rx="166.5" ry="9.721" transform="translate(0 270.166)" fill="#f5f5f5"/>
      <g id="Group_3778" data-name="Group 3778" transform="translate(59.194 0)">
        <path id="Path_3369" data-name="Path 3369" d="M343.877,253.973H123.552a3.335,3.335,0,0,1-3.332-3.332V89.792a3.335,3.335,0,0,1,3.332-3.332H343.877a3.335,3.335,0,0,1,3.332,3.332V250.633A3.332,3.332,0,0,1,343.877,253.973Z" transform="translate(-120.22 -86.46)" fill="#fff" stroke="#d8d8d8" stroke-width="1"/>
        <path id="Path_3370" data-name="Path 3370" d="M343.877,253.973H123.552a3.335,3.335,0,0,1-3.332-3.332V89.792a3.335,3.335,0,0,1,3.332-3.332H343.877a3.335,3.335,0,0,1,3.332,3.332V250.633A3.332,3.332,0,0,1,343.877,253.973Z" transform="translate(-120.22 -86.46)" fill="#fff" opacity="0.6"/>
      </g>
      <path id="Path_3371" data-name="Path 3371" d="M164.453,86.46H124.471a4.249,4.249,0,0,0-4.251,4.251V249.723a4.249,4.249,0,0,0,4.251,4.251h39.983Z" transform="translate(-61.027 -86.46)" fill="#fff" opacity="0.3"/>
      <path id="Path_3372" data-name="Path 3372" d="M342.967,86.46h-218.5a4.249,4.249,0,0,0-4.251,4.251v11.078H347.209V90.711A4.248,4.248,0,0,0,342.967,86.46Z" transform="translate(-61.027 -86.46)" fill="#b4b4b4"/>
      <g id="Group_3779" data-name="Group 3779" transform="translate(65.874 3.967)">
        <path id="Path_3373" data-name="Path 3373" d="M128.738,92.557a.739.739,0,0,1,0-1.477h5.848a.739.739,0,1,1,0,1.477Z" transform="translate(-128 -91.08)" fill="#fff"/>
        <path id="Path_3374" data-name="Path 3374" d="M128.738,96.007a.739.739,0,0,1,0-1.477h5.848a.739.739,0,1,1,0,1.477Z" transform="translate(-128 -91.567)" fill="#fff"/>
        <path id="Path_3375" data-name="Path 3375" d="M128.738,99.467a.739.739,0,0,1,0-1.477h5.848a.739.739,0,1,1,0,1.477Z" transform="translate(-128 -92.056)" fill="#fff"/>
      </g>
      <path id="Path_3376" data-name="Path 3376" d="M180.83,117.671v49.248a1.88,1.88,0,0,0,1.881,1.881h15.371a1.88,1.88,0,0,0,1.881-1.881V117.671a1.88,1.88,0,0,0-1.881-1.881H182.711A1.88,1.88,0,0,0,180.83,117.671Z" transform="translate(-69.588 -90.604)" fill="#d4d4d4" opacity="0.7"/>
      <path id="Path_3377" data-name="Path 3377" d="M208.68,117.671v49.248a1.88,1.88,0,0,0,1.881,1.881h15.371a1.88,1.88,0,0,0,1.881-1.881V117.671a1.88,1.88,0,0,0-1.881-1.881H210.561A1.88,1.88,0,0,0,208.68,117.671Z" transform="translate(-73.522 -90.604)" fill="#d4d4d4" opacity="0.4"/>
      <path id="Path_3378" data-name="Path 3378" d="M236.53,117.671v49.248a1.88,1.88,0,0,0,1.881,1.881h15.371a1.88,1.88,0,0,0,1.881-1.881V117.671a1.88,1.88,0,0,0-1.881-1.881H238.411A1.88,1.88,0,0,0,236.53,117.671Z" transform="translate(-77.457 -90.604)" fill="#d4d4d4" opacity="0.7"/>
      <path id="Path_3379" data-name="Path 3379" d="M264.38,117.671v49.248a1.88,1.88,0,0,0,1.881,1.881h15.371a1.88,1.88,0,0,0,1.881-1.881V117.671a1.88,1.88,0,0,0-1.881-1.881H266.261A1.88,1.88,0,0,0,264.38,117.671Z" transform="translate(-81.392 -90.604)" fill="#d4d4d4" opacity="0.4"/>
      <path id="Path_3380" data-name="Path 3380" d="M292.23,117.671v49.248a1.88,1.88,0,0,0,1.881,1.881h15.371a1.88,1.88,0,0,0,1.881-1.881V117.671a1.88,1.88,0,0,0-1.881-1.881H294.111A1.88,1.88,0,0,0,292.23,117.671Z" transform="translate(-85.325 -90.604)" fill="#d4d4d4" opacity="0.7"/>
      <path id="Path_3381" data-name="Path 3381" d="M320.08,117.671v49.248a1.88,1.88,0,0,0,1.881,1.881h15.371a1.88,1.88,0,0,0,1.881-1.881V117.671a1.88,1.88,0,0,0-1.881-1.881H321.961A1.88,1.88,0,0,0,320.08,117.671Z" transform="translate(-89.259 -90.604)" fill="#d4d4d4" opacity="0.4"/>
      <path id="Path_3382" data-name="Path 3382" d="M347.93,117.671v49.248a1.88,1.88,0,0,0,1.881,1.881h15.371a1.88,1.88,0,0,0,1.881-1.881V117.671a1.88,1.88,0,0,0-1.881-1.881H349.811A1.886,1.886,0,0,0,347.93,117.671Z" transform="translate(-93.194 -90.604)" fill="#c4c4c4" opacity="0.7"/>
      <path id="Path_3383" data-name="Path 3383" d="M238.3,214.836h-.678v.876h-.945v-.876h-2.25v-.653l1.975-2.654h1.013l-1.829,2.516h1.125v-.781h.919v.781h.678v.79Z" transform="translate(-77.16 -104.128)"/>
      <path id="Path_3384" data-name="Path 3384" d="M241.971,213.452a1.156,1.156,0,0,1,.421.945,1.282,1.282,0,0,1-.189.7,1.367,1.367,0,0,1-.584.507,2.159,2.159,0,0,1-.962.189,2.979,2.979,0,0,1-.867-.12,2.287,2.287,0,0,1-.73-.335l.386-.739a1.739,1.739,0,0,0,.55.275,2,2,0,0,0,.635.094,1.018,1.018,0,0,0,.575-.146.464.464,0,0,0,.206-.4.434.434,0,0,0-.215-.4,1.47,1.47,0,0,0-.756-.137h-1.073l.215-2.353h2.55v.781h-1.743l-.069.8h.343A2.026,2.026,0,0,1,241.971,213.452Z" transform="translate(-77.814 -104.127)"/>
      <path id="Path_3385" data-name="Path 3385" d="M243.542,213.461a1.206,1.206,0,0,1-.292-.842,1.182,1.182,0,0,1,.292-.842,1,1,0,0,1,.747-.318.956.956,0,0,1,.747.318,1.2,1.2,0,0,1,.283.842,1.217,1.217,0,0,1-.283.842.972.972,0,0,1-.747.318A.943.943,0,0,1,243.542,213.461Zm1.065-.343a1.092,1.092,0,0,0,0-1,.359.359,0,0,0-.318-.163.377.377,0,0,0-.318.172,1.056,1.056,0,0,0,0,.979.377.377,0,0,0,.318.172A.342.342,0,0,0,244.607,213.117Zm2.173-1.6h.713l-2.86,4.182h-.713Zm-.189,4.088a.989.989,0,0,1-.369-.4,1.507,1.507,0,0,1,0-1.219.934.934,0,0,1,.369-.4,1,1,0,0,1,.532-.137.944.944,0,0,1,.747.318,1.206,1.206,0,0,1,.292.841,1.182,1.182,0,0,1-.292.842,1,1,0,0,1-.747.318A1.129,1.129,0,0,1,246.59,215.608Zm.859-.515a.857.857,0,0,0,.12-.49.794.794,0,0,0-.12-.489.367.367,0,0,0-.318-.172.391.391,0,0,0-.318.163,1.092,1.092,0,0,0,0,1,.369.369,0,0,0,.318.163A.377.377,0,0,0,247.449,215.092Z" transform="translate(-78.406 -104.118)"/>
      <path id="Path_3386" data-name="Path 3386" d="M314.058,213.235a1.29,1.29,0,0,1,.524.455,1.233,1.233,0,0,1,.189.687,1.347,1.347,0,0,1-.206.738,1.289,1.289,0,0,1-.575.49,1.887,1.887,0,0,1-.807.172,1.767,1.767,0,0,1-1.374-.541,2.205,2.205,0,0,1-.5-1.537,2.558,2.558,0,0,1,.266-1.219,1.906,1.906,0,0,1,.747-.773,2.332,2.332,0,0,1,1.116-.266,2.647,2.647,0,0,1,.644.077,1.716,1.716,0,0,1,.524.215l-.361.713a1.393,1.393,0,0,0-.781-.206,1.142,1.142,0,0,0-.842.309,1.307,1.307,0,0,0-.335.9,1.391,1.391,0,0,1,1.031-.369A1.6,1.6,0,0,1,314.058,213.235Zm-.421,1.649a.578.578,0,0,0,.2-.455.552.552,0,0,0-.2-.455.855.855,0,0,0-1.039.009.6.6,0,0,0-.009.9.759.759,0,0,0,.541.172A.818.818,0,0,0,313.637,214.884Z" transform="translate(-88.021 -104.116)"/>
      <path id="Path_3387" data-name="Path 3387" d="M318.46,213.452a1.156,1.156,0,0,1,.421.945,1.282,1.282,0,0,1-.189.7,1.366,1.366,0,0,1-.584.507,2.173,2.173,0,0,1-.97.189,2.979,2.979,0,0,1-.867-.12,2.286,2.286,0,0,1-.73-.335l.386-.739a1.739,1.739,0,0,0,.55.275,2,2,0,0,0,.635.094,1.018,1.018,0,0,0,.575-.146.464.464,0,0,0,.206-.4.426.426,0,0,0-.223-.4,1.47,1.47,0,0,0-.756-.137h-1.073l.215-2.353h2.55v.781h-1.743l-.069.8h.343A2.063,2.063,0,0,1,318.46,213.452Z" transform="translate(-88.619 -104.127)"/>
      <path id="Path_3388" data-name="Path 3388" d="M320.022,213.461a1.168,1.168,0,0,1-.292-.842,1.182,1.182,0,0,1,.292-.842,1,1,0,0,1,.747-.318.944.944,0,0,1,.747.318,1.2,1.2,0,0,1,.283.842,1.218,1.218,0,0,1-.283.842,1.037,1.037,0,0,1-1.494,0Zm1.073-.343a.868.868,0,0,0,.12-.5.805.805,0,0,0-.12-.5.359.359,0,0,0-.318-.163.377.377,0,0,0-.318.172,1.056,1.056,0,0,0,0,.979.377.377,0,0,0,.318.172A.342.342,0,0,0,321.1,213.117Zm2.173-1.6h.713l-2.86,4.182h-.713Zm-.189,4.088a.989.989,0,0,1-.369-.4,1.508,1.508,0,0,1,0-1.219.934.934,0,0,1,.369-.4,1,1,0,0,1,.532-.137.944.944,0,0,1,.747.318,1.168,1.168,0,0,1,.292.841,1.182,1.182,0,0,1-.292.842,1,1,0,0,1-.747.318A1.1,1.1,0,0,1,323.079,215.608Zm.859-.515a.857.857,0,0,0,.12-.49.794.794,0,0,0-.12-.489.367.367,0,0,0-.318-.172.391.391,0,0,0-.318.163,1.092,1.092,0,0,0,0,1,.369.369,0,0,0,.318.163A.377.377,0,0,0,323.938,215.092Z" transform="translate(-89.21 -104.118)"/>
      <path id="Path_3389" data-name="Path 3389" d="M328.857,97.228a1.726,1.726,0,0,1-1.03.429v.67h-.6v-.653a3.393,3.393,0,0,1-.842-.155,2.053,2.053,0,0,1-.644-.326l.326-.73a2.233,2.233,0,0,0,.532.283,2.66,2.66,0,0,0,.627.146v-1a5.631,5.631,0,0,1-.721-.223,1.236,1.236,0,0,1-.49-.369,1.011,1.011,0,0,1-.2-.644,1.136,1.136,0,0,1,.361-.85,1.7,1.7,0,0,1,1.048-.429V92.72h.6v.653a2.722,2.722,0,0,1,1.211.361l-.3.739a2.333,2.333,0,0,0-.919-.309v1.013a4.088,4.088,0,0,1,.7.215,1.371,1.371,0,0,1,.489.361,1,1,0,0,1,.2.635A1.1,1.1,0,0,1,328.857,97.228Zm-1.967-2.37a1.05,1.05,0,0,0,.326.163v-.85a.617.617,0,0,0-.335.172.414.414,0,0,0-.112.275A.381.381,0,0,0,326.891,94.858Zm1.254,1.855a.357.357,0,0,0,.112-.258.309.309,0,0,0-.112-.249,1,1,0,0,0-.318-.163v.824A.688.688,0,0,0,328.145,96.713Z" transform="translate(-90.059 -87.345)" fill="#fff"/>
      <path id="Path_3390" data-name="Path 3390" d="M331.763,93.539v4.182h-.97V94.311h-.833V93.53h1.8Z" transform="translate(-90.656 -87.459)" fill="#fff"/>
      <path id="Path_3391" data-name="Path 3391" d="M336,96.929v.79h-3.16v-.627l1.614-1.529a1.635,1.635,0,0,0,.344-.421.76.76,0,0,0,.086-.352.471.471,0,0,0-.172-.386.819.819,0,0,0-.5-.137,1.174,1.174,0,0,0-.5.1.875.875,0,0,0-.369.318l-.7-.455a1.64,1.64,0,0,1,.678-.567,2.256,2.256,0,0,1,.988-.206,2,2,0,0,1,.816.155,1.3,1.3,0,0,1,.541.429,1.128,1.128,0,0,1,.2.653,1.468,1.468,0,0,1-.146.635,2.4,2.4,0,0,1-.558.678l-.962.91H336Z" transform="translate(-91.034 -87.449)" fill="#fff"/>
      <path id="Path_3392" data-name="Path 3392" d="M337.223,98.118a.614.614,0,0,1,0-.833.627.627,0,0,1,.824,0,.531.531,0,0,1,.163.412.563.563,0,0,1-.163.421.6.6,0,0,1-.824,0Z" transform="translate(-91.658 -87.968)" fill="#fff"/>
      <path id="Path_3393" data-name="Path 3393" d="M339.687,97.53a1.707,1.707,0,0,1-.635-.747,3.014,3.014,0,0,1,0-2.319,1.764,1.764,0,0,1,.635-.747,1.707,1.707,0,0,1,2.49.747,3.014,3.014,0,0,1,0,2.319,1.817,1.817,0,0,1-.635.747,1.8,1.8,0,0,1-1.855,0Zm1.529-.893a1.873,1.873,0,0,0,.215-1.013,1.854,1.854,0,0,0-.215-1.013.672.672,0,0,0-.6-.326.686.686,0,0,0-.592.326,1.873,1.873,0,0,0-.215,1.013,1.854,1.854,0,0,0,.215,1.013.668.668,0,0,0,.592.326A.655.655,0,0,0,341.216,96.637Z" transform="translate(-91.906 -87.449)" fill="#fff"/>
      <path id="Path_3394" data-name="Path 3394" d="M346.373,93.988a2.165,2.165,0,0,1,.5,1.537,2.558,2.558,0,0,1-.266,1.219,1.906,1.906,0,0,1-.747.773,2.237,2.237,0,0,1-1.116.266,2.646,2.646,0,0,1-.644-.077,1.715,1.715,0,0,1-.524-.215l.361-.713a1.374,1.374,0,0,0,.781.206,1.114,1.114,0,0,0,.842-.318,1.329,1.329,0,0,0,.335-.91,1.416,1.416,0,0,1-1.039.378,1.6,1.6,0,0,1-.73-.163,1.29,1.29,0,0,1-.524-.455,1.233,1.233,0,0,1-.189-.687,1.346,1.346,0,0,1,.206-.739,1.314,1.314,0,0,1,.567-.489,1.988,1.988,0,0,1,2.19.386Zm-.781,1.262a.564.564,0,0,0,.2-.455.573.573,0,0,0-.2-.447.793.793,0,0,0-.532-.172.749.749,0,0,0-.507.163.623.623,0,0,0,0,.91.761.761,0,0,0,.515.172A.718.718,0,0,0,345.591,95.251Z" transform="translate(-92.556 -87.445)" fill="#fff"/>
      <path id="Path_3395" data-name="Path 3395" d="M351.316,95.926a1,1,0,0,1,.163.575,1.091,1.091,0,0,1-.223.678,1.345,1.345,0,0,1-.618.447,2.86,2.86,0,0,1-1.855,0,1.408,1.408,0,0,1-.618-.447,1.1,1.1,0,0,1-.215-.678.985.985,0,0,1,.163-.575,1.154,1.154,0,0,1,.472-.4,1.036,1.036,0,0,1-.361-.361.957.957,0,0,1-.129-.5,1.025,1.025,0,0,1,.206-.635,1.282,1.282,0,0,1,.567-.412,2.474,2.474,0,0,1,1.675,0,1.328,1.328,0,0,1,.575.412,1.025,1.025,0,0,1,.206.635.956.956,0,0,1-.129.5,1.035,1.035,0,0,1-.361.361A1.026,1.026,0,0,1,351.316,95.926Zm-1.022.988a.554.554,0,0,0,0-.876.9.9,0,0,0-.575-.163.873.873,0,0,0-.567.163.537.537,0,0,0-.206.438.515.515,0,0,0,.206.438.873.873,0,0,0,.567.163A.915.915,0,0,0,350.294,96.914Zm-1.048-2.6a.5.5,0,0,0-.009.764.72.72,0,0,0,.472.137.761.761,0,0,0,.481-.137.449.449,0,0,0,.18-.378.465.465,0,0,0-.18-.386.745.745,0,0,0-.481-.137A.726.726,0,0,0,349.247,94.312Z" transform="translate(-93.196 -87.451)" fill="#fff"/>
      <path id="Path_3396" data-name="Path 3396" d="M352.783,98.118a.613.613,0,0,1,0-.833.627.627,0,0,1,.824,0,.531.531,0,0,1,.163.412.563.563,0,0,1-.163.421.6.6,0,0,1-.824,0Z" transform="translate(-93.856 -87.968)" fill="#fff"/>
      <path id="Path_3397" data-name="Path 3397" d="M357.191,95.462a1.156,1.156,0,0,1,.421.945,1.283,1.283,0,0,1-.189.7,1.367,1.367,0,0,1-.584.507,2.158,2.158,0,0,1-.962.189,2.98,2.98,0,0,1-.867-.12,2.287,2.287,0,0,1-.73-.335l.386-.739a1.738,1.738,0,0,0,.55.275,2,2,0,0,0,.635.094,1.018,1.018,0,0,0,.575-.146.464.464,0,0,0,.206-.4.434.434,0,0,0-.215-.4,1.47,1.47,0,0,0-.756-.137h-1.073l.215-2.353h2.55v.781h-1.743l-.069.8h.343A2.042,2.042,0,0,1,357.191,95.462Z" transform="translate(-94.09 -87.459)" fill="#fff"/>
      <path id="Path_3398" data-name="Path 3398" d="M359.487,97.53a1.707,1.707,0,0,1-.635-.747,3.014,3.014,0,0,1,0-2.319,1.764,1.764,0,0,1,.635-.747,1.707,1.707,0,0,1,2.49.747,3.014,3.014,0,0,1,0,2.319,1.764,1.764,0,0,1-.635.747,1.714,1.714,0,0,1-.927.258A1.673,1.673,0,0,1,359.487,97.53Zm1.529-.893a1.873,1.873,0,0,0,.215-1.013,1.853,1.853,0,0,0-.215-1.013.672.672,0,0,0-.6-.326.686.686,0,0,0-.592.326,1.873,1.873,0,0,0-.215,1.013,1.853,1.853,0,0,0,.215,1.013.709.709,0,0,0,1.194,0Z" transform="translate(-94.705 -87.449)" fill="#fff"/>
      <path id="Path_3399" data-name="Path 3399" d="M364.883,93.539v4.182h-.97V94.311h-.833V93.53h1.8Z" transform="translate(-95.335 -87.459)" fill="#fff"/>
      <path id="Path_3400" data-name="Path 3400" d="M366.163,98.118a.613.613,0,0,1,0-.833.627.627,0,0,1,.824,0,.531.531,0,0,1,.163.412.563.563,0,0,1-.163.421.6.6,0,0,1-.824,0Z" transform="translate(-95.746 -87.968)" fill="#fff"/>
      <path id="Path_3401" data-name="Path 3401" d="M368.627,97.53a1.707,1.707,0,0,1-.635-.747,3.014,3.014,0,0,1,0-2.319,1.765,1.765,0,0,1,.635-.747,1.707,1.707,0,0,1,2.49.747,3.014,3.014,0,0,1,0,2.319,1.764,1.764,0,0,1-.635.747,1.8,1.8,0,0,1-1.855,0Zm1.529-.893a1.873,1.873,0,0,0,.215-1.013,1.854,1.854,0,0,0-.215-1.013.672.672,0,0,0-.6-.326.686.686,0,0,0-.593.326,1.873,1.873,0,0,0-.215,1.013,1.853,1.853,0,0,0,.215,1.013.668.668,0,0,0,.593.326A.655.655,0,0,0,370.156,96.637Z" transform="translate(-95.994 -87.449)" fill="#fff"/>
      <path id="Path_3402" data-name="Path 3402" d="M373.357,97.53a1.707,1.707,0,0,1-.635-.747,3.014,3.014,0,0,1,0-2.319,1.764,1.764,0,0,1,.635-.747,1.707,1.707,0,0,1,2.49.747,3.014,3.014,0,0,1,0,2.319,1.764,1.764,0,0,1-.635.747,1.8,1.8,0,0,1-1.855,0Zm1.529-.893a1.873,1.873,0,0,0,.215-1.013,1.854,1.854,0,0,0-.215-1.013.672.672,0,0,0-.6-.326.686.686,0,0,0-.592.326,1.872,1.872,0,0,0-.215,1.013,1.853,1.853,0,0,0,.215,1.013.668.668,0,0,0,.592.326A.655.655,0,0,0,374.886,96.637Z" transform="translate(-96.664 -87.449)" fill="#fff"/>
      <path id="Path_3403" data-name="Path 3403" d="M189.583,185.239v4.182h-.97v-3.409h-.833v-.781h1.8Z" transform="translate(-70.57 -100.413)"/>
      <path id="Path_3404" data-name="Path 3404" d="M191.04,185.24h1.9a2.665,2.665,0,0,1,1.2.258,1.982,1.982,0,0,1,.816.73,2.215,2.215,0,0,1,0,2.2,1.925,1.925,0,0,1-.816.73,2.69,2.69,0,0,1-1.2.258h-1.9Zm1.846,3.392a1.418,1.418,0,0,0,1-.352,1.37,1.37,0,0,0,0-1.889,1.418,1.418,0,0,0-1-.352H192v2.593Z" transform="translate(-71.031 -100.414)"/>
      <path id="Path_3405" data-name="Path 3405" d="M216.263,185.239v4.182h-.97v-3.409h-.833v-.781h1.8Z" transform="translate(-74.34 -100.413)"/>
      <path id="Path_3406" data-name="Path 3406" d="M223.981,185.24l-1.365,4.182h-1.039l-.919-2.834-.953,2.834h-1.03L217.3,185.24h1l.945,2.945.988-2.945h.893l.953,2.963.97-2.963Z" transform="translate(-74.74 -100.414)"/>
      <path id="Path_3407" data-name="Path 3407" d="M244.833,185.239v4.182h-.97v-3.409h-.833v-.781h1.8Z" transform="translate(-78.375 -100.413)"/>
      <path id="Path_3408" data-name="Path 3408" d="M250.093,189.432l-.009-2.508-1.228,2.07h-.438l-1.228-2.018v2.456h-.91V185.25h.8l1.563,2.6,1.546-2.6h.8l.009,4.182Z" transform="translate(-78.834 -100.416)"/>
      <path id="Path_3409" data-name="Path 3409" d="M278.578,191.806H269.9a3.434,3.434,0,0,1-3.435-3.435v-2.7a3.434,3.434,0,0,1,3.435-3.435h8.673a3.434,3.434,0,0,1,3.435,3.435v2.7A3.434,3.434,0,0,1,278.578,191.806Z" transform="translate(-81.687 -99.991)" fill="#dcdcdc"/>
      <g id="Group_3787" data-name="Group 3787" transform="translate(187.926 84.808)">
        <path id="Path_3410" data-name="Path 3410" d="M273.17,187.35a1.125,1.125,0,0,1,.292.79,1.236,1.236,0,0,1-.189.67,1.281,1.281,0,0,1-.584.489,2.283,2.283,0,0,1-.962.189,2.98,2.98,0,0,1-.867-.12,2.285,2.285,0,0,1-.73-.335l.378-.738a1.74,1.74,0,0,0,.55.275,2.017,2.017,0,0,0,.644.094,1.02,1.02,0,0,0,.575-.137.449.449,0,0,0,.206-.4c0-.343-.258-.515-.781-.515h-.438v-.644l.859-.97h-1.778v-.781h2.928v.627l-.945,1.073A1.668,1.668,0,0,1,273.17,187.35Z" transform="translate(-270.13 -185.22)" fill="#fff"/>
        <path id="Path_3411" data-name="Path 3411" d="M278.643,189.432l-.009-2.508-1.228,2.07h-.438l-1.228-2.018v2.456h-.91V185.25h.8l1.563,2.6,1.546-2.6h.8l.009,4.182Z" transform="translate(-270.794 -185.224)" fill="#fff"/>
      </g>
      <path id="Path_3412" data-name="Path 3412" d="M300.848,186.955a1.29,1.29,0,0,1,.524.455,1.233,1.233,0,0,1,.189.687,1.347,1.347,0,0,1-.206.738,1.289,1.289,0,0,1-.575.49,1.886,1.886,0,0,1-.807.172,1.767,1.767,0,0,1-1.374-.541,2.165,2.165,0,0,1-.5-1.537,2.558,2.558,0,0,1,.266-1.219,1.907,1.907,0,0,1,.747-.773,2.331,2.331,0,0,1,1.116-.266,2.647,2.647,0,0,1,.644.077,1.716,1.716,0,0,1,.524.215l-.361.713a1.393,1.393,0,0,0-.781-.206,1.142,1.142,0,0,0-.842.309,1.306,1.306,0,0,0-.335.9,1.391,1.391,0,0,1,1.03-.369A1.5,1.5,0,0,1,300.848,186.955Zm-.421,1.64a.623.623,0,0,0,0-.91.855.855,0,0,0-1.039.009.6.6,0,0,0-.009.9.884.884,0,0,0,1.048,0Z" transform="translate(-86.156 -100.403)"/>
      <path id="Path_3413" data-name="Path 3413" d="M306.653,189.432l-.009-2.508-1.228,2.07h-.438l-1.228-2.018v2.456h-.91V185.25h.8l1.563,2.6,1.546-2.6h.8l.009,4.182Z" transform="translate(-86.825 -100.416)"/>
      <path id="Path_3414" data-name="Path 3414" d="M329.363,185.239v4.182h-.97v-3.409h-.833v-.781h1.8Z" transform="translate(-90.317 -100.413)"/>
      <path id="Path_3415" data-name="Path 3415" d="M332.723,187.946v1.486h-.97v-1.494l-1.623-2.688h1.03l1.116,1.863,1.116-1.863h.953Z" transform="translate(-90.679 -100.416)"/>
      <path id="Path_3416" data-name="Path 3416" d="M357.73,187.35a1.125,1.125,0,0,1,.292.79,1.236,1.236,0,0,1-.189.67,1.281,1.281,0,0,1-.584.489,2.284,2.284,0,0,1-.962.189,2.98,2.98,0,0,1-.867-.12,2.284,2.284,0,0,1-.73-.335l.378-.738a1.737,1.737,0,0,0,.55.275,2.017,2.017,0,0,0,.644.094,1.02,1.02,0,0,0,.575-.137.45.45,0,0,0,.206-.4c0-.343-.258-.515-.781-.515h-.447v-.644l.859-.97H354.9v-.781h2.928v.627l-.945,1.073A1.662,1.662,0,0,1,357.73,187.35Z" transform="translate(-94.149 -100.412)"/>
      <path id="Path_3417" data-name="Path 3417" d="M361.233,187.946v1.486h-.97v-1.494l-1.623-2.688h1.03l1.116,1.863,1.116-1.863h.953Z" transform="translate(-94.707 -100.416)"/>
      <path id="Path_3418" data-name="Path 3418" d="M178.038,154.892h0a1.194,1.194,0,0,1,1-1.357l22.585-3.392,24.079-9.987,24.2-3.229,23.744,8.313,23.718-10.279h23.967l22.6-7.531a1.2,1.2,0,0,1,1.511.756h0a1.2,1.2,0,0,1-.756,1.511l-22.963,7.66H297.866l-24.122,10.451-24.088-8.433L226.179,142.5l-24.053,9.987L179.395,155.9A1.2,1.2,0,0,1,178.038,154.892Z" transform="translate(-69.192 -92.239)" fill="#191919"/>
      <path id="Path_3419" data-name="Path 3419" d="M201.577,159.3l-23.409-19.115A1.2,1.2,0,0,1,178,138.5h0a1.2,1.2,0,0,1,1.683-.172l22.568,18.437,23.272-3.881,23.813-8.733,24.019-11.593,24.148-6.441L321.37,129.3l22.516-7.883a1.194,1.194,0,0,1,1.52.73h0a1.194,1.194,0,0,1-.73,1.52l-23.057,8.072-23.967-3.194-23.581,6.286L250.258,146.34l-24.242,8.871Z" transform="translate(-69.151 -91.39)" fill="#b2b1b1"/>
      <circle id="Ellipse_129" data-name="Ellipse 129" cx="6.509" cy="6.509" r="6.509" transform="translate(73.491 33.723) rotate(-76.714)" fill="#c2c2c2"/>
      <path id="Path_3420" data-name="Path 3420" d="M158.9,142.247h-31.43a1.323,1.323,0,0,1-1.322-1.322v-6.612a1.323,1.323,0,0,1,1.322-1.322H158.9a1.323,1.323,0,0,1,1.322,1.322v6.612A1.323,1.323,0,0,1,158.9,142.247Z" transform="translate(-61.864 -93.033)" fill="#fff" stroke="#c5c5c5" stroke-width="1" opacity="0.5"/>
      <path id="Path_3421" data-name="Path 3421" d="M130.928,139.419l-1.357.713.258-1.511-1.1-1.073,1.52-.223.678-1.374.678,1.374,1.52.223-1.1,1.073.258,1.511Z" transform="translate(-62.228 -93.452)"/>
      <path id="Path_3422" data-name="Path 3422" d="M138.278,139.419l-1.357.713.258-1.511-1.1-1.073,1.52-.223.678-1.374.678,1.374,1.52.223-1.1,1.073.258,1.511Z" transform="translate(-63.266 -93.452)"/>
      <path id="Path_3423" data-name="Path 3423" d="M145.62,139.419l-1.357.713.266-1.511-1.1-1.073,1.511-.223.678-1.374.687,1.374,1.511.223-1.1,1.073.266,1.511Z" transform="translate(-64.306 -93.452)"/>
      <path id="Path_3424" data-name="Path 3424" d="M152.968,139.419l-1.357.713.258-1.511-1.1-1.073,1.52-.223.678-1.374.678,1.374,1.52.223-1.1,1.073.258,1.511Z" transform="translate(-65.342 -93.452)" fill="#d1d1d1" opacity="0.9"/>
      <path id="Path_3425" data-name="Path 3425" d="M160.318,139.419l-1.357.713.258-1.511-1.1-1.073,1.52-.223.678-1.374.678,1.374,1.52.223-1.1,1.073.258,1.511Z" transform="translate(-66.38 -93.452)" fill="#d1d1d1" opacity="0.9"/>
      <rect id="Rectangle_204" data-name="Rectangle 204" width="6.964" height="13.182" transform="translate(111.242 142.112)"/>
      <rect id="Rectangle_205" data-name="Rectangle 205" width="6.964" height="18.214" transform="translate(128.055 137.08)"/>
      <rect id="Rectangle_206" data-name="Rectangle 206" width="6.964" height="27.471" transform="translate(144.861 127.831)"/>
      <g id="Group_3798" data-name="Group 3798" transform="translate(119.649 132.451)">
        <rect id="Rectangle_207" data-name="Rectangle 207" width="6.964" height="20.756" transform="translate(0 2.095)" fill="#cbcbcb"/>
        <rect id="Rectangle_208" data-name="Rectangle 208" width="6.964" height="22.842" transform="translate(16.805 0)" fill="#cbcbcb"/>
        <rect id="Rectangle_209" data-name="Rectangle 209" width="6.964" height="22.301" transform="translate(33.619 0.541)" fill="#cbcbcb"/>
      </g>
      <rect id="Rectangle_213" data-name="Rectangle 213" width="6.964" height="30.107" transform="translate(161.676 125.186)"/>
      <path id="Path_3445" data-name="Path 3445" d="M316.208,262.347h-57.4l3.89-13.182,7.995-7.565,8.407,11.644,8.407-13.74,8.407,9.111,8.407-8.57,8.407-7.806h3.478Z" transform="translate(-80.604 -107.054)"/>
      <path id="Path_3446" data-name="Path 3446" d="M316.208,262.347h-57.4l3.89-8.8,7.995-6.475,8.407,6.174,8.407-7.17,8.407,2.542,8.407-2,8.407-3.426,3.478-10.949Z" transform="translate(-80.604 -107.054)" fill="#fff" opacity="0.8"/>
      <path id="Path_3447" data-name="Path 3447" d="M351.159,214.449h13.989a13.989,13.989,0,1,0-27.978,0h13.989Z" transform="translate(-91.674 -102.565)" fill="#ccffbd"/>
      <path id="Path_3448" data-name="Path 3448" d="M351.159,214.449h13.989a13.989,13.989,0,1,0-27.978,0h13.989Z" transform="translate(-91.674 -102.565)" fill="#c4c4c4"/>
      <path id="Path_3449" data-name="Path 3449" d="M361.051,204.556a13.99,13.99,0,0,0-23.881,9.893h13.989Z" transform="translate(-91.674 -102.565)" fill="#c4c4c4"/>
      <path id="Path_3450" data-name="Path 3450" d="M341.93,204.536l9.893,9.893V200.44A13.919,13.919,0,0,0,341.93,204.536Z" transform="translate(-92.347 -102.562)" opacity="0.2"/>
      <path id="Path_3451" data-name="Path 3451" d="M341.93,204.536l9.893,9.893V200.44A13.919,13.919,0,0,0,341.93,204.536Z" transform="translate(-92.347 -102.562)" fill="#407bff"/>
      <path id="Path_3452" data-name="Path 3452" d="M341.93,204.536l9.893,9.893V200.44A13.919,13.919,0,0,0,341.93,204.536Z" transform="translate(-92.347 -102.562)"/>
      <path id="Path_3453" data-name="Path 3453" d="M360.931,208.775l-1-1-6.329,6.312a1.407,1.407,0,0,0-.378-.077,1.46,1.46,0,1,0,1.46,1.46,1.339,1.339,0,0,0-.077-.378Z" transform="translate(-93.736 -103.597)"/>
      <path id="Path_3454" data-name="Path 3454" d="M351.159,240.059h13.989a13.989,13.989,0,1,0-27.978,0h13.989Z" transform="translate(-91.674 -106.182)" fill="#407bff"/>
      <path id="Path_3455" data-name="Path 3455" d="M351.159,240.059h13.989a13.989,13.989,0,1,0-27.978,0h13.989Z" transform="translate(-91.674 -106.182)"/>
      <path id="Path_3456" data-name="Path 3456" d="M361.051,230.156a13.99,13.99,0,0,0-23.881,9.893h13.989Z" transform="translate(-91.674 -106.181)" fill="#fff" opacity="0.7"/>
      <path id="Path_3457" data-name="Path 3457" d="M341.93,230.136l9.893,9.893V226.04A13.955,13.955,0,0,0,341.93,230.136Z" transform="translate(-92.347 -106.178)" fill="#a8a8a8"/>
      <path id="Path_3459" data-name="Path 3459" d="M353.923,239.542V231.41H352.5v8.132a1.438,1.438,0,0,0-.747,1.254,1.46,1.46,0,0,0,2.92,0A1.405,1.405,0,0,0,353.923,239.542Z" transform="translate(-93.734 -106.937)"/>
      <path id="Path_3460" data-name="Path 3460" d="M351.159,265.659h13.989a13.989,13.989,0,0,0-27.978,0h13.989Z" transform="translate(-91.674 -109.799)" fill="#d9d9d9"/>
      <path id="Path_3463" data-name="Path 3463" d="M341.93,255.746l9.893,9.893V251.65A13.955,13.955,0,0,0,341.93,255.746Z" transform="translate(-92.347 -109.796)" fill="#b1b1b1"/>
      <path id="Path_3465" data-name="Path 3465" d="M360.931,259.985l-1-1-6.329,6.312a1.407,1.407,0,0,0-.378-.077,1.46,1.46,0,1,0,1.46,1.46,1.339,1.339,0,0,0-.077-.378Z" transform="translate(-93.736 -110.831)"/>
      <path id="Path_3466" data-name="Path 3466" d="M373.682,102.86l-9.4.1a2.351,2.351,0,0,0-2.319,2.362l.086,7.866a2.346,2.346,0,0,0,2.361,2.319l2.722-.017,1.176,1.821a.992.992,0,0,0,1.683-.026l1.116-1.863,2.7-.017a2.335,2.335,0,0,0,2.319-2.362l-.086-7.849A2.333,2.333,0,0,0,373.682,102.86Z" transform="translate(-95.175 -88.777)" fill="#070707"/>
      <g id="Group_3805" data-name="Group 3805" transform="translate(269.265 19.141)">
        <path id="Path_3467" data-name="Path 3467" d="M366.859,110.065a.9.9,0,0,1,.515.833.952.952,0,0,1-.155.541,1.018,1.018,0,0,1-.421.361,1.323,1.323,0,0,1-.584.129,1.282,1.282,0,0,1-1-.4,1.61,1.61,0,0,1-.361-1.125,1.93,1.93,0,0,1,.2-.893,1.346,1.346,0,0,1,.55-.567,1.66,1.66,0,0,1,.816-.189,2.152,2.152,0,0,1,.472.052,1.214,1.214,0,0,1,.387.155l-.258.524a1.008,1.008,0,0,0-.575-.155.835.835,0,0,0-.618.232.967.967,0,0,0-.249.661,1.033,1.033,0,0,1,.756-.275A1.01,1.01,0,0,1,366.859,110.065Zm-.309,1.2a.457.457,0,0,0,0-.67.636.636,0,0,0-.756.009.4.4,0,0,0-.146.326.417.417,0,0,0,.146.326.576.576,0,0,0,.395.129A.553.553,0,0,0,366.55,111.267Z" transform="translate(-364.85 -108.751)" fill="#fff"/>
        <path id="Path_3468" data-name="Path 3468" d="M368.736,111.73a1.277,1.277,0,0,1-.464-.55,2.189,2.189,0,0,1,0-1.7,1.2,1.2,0,0,1,.464-.541,1.224,1.224,0,0,1,.678-.189,1.2,1.2,0,0,1,.678.189,1.3,1.3,0,0,1,.464.541,2.19,2.19,0,0,1,0,1.7,1.277,1.277,0,0,1-.464.55,1.2,1.2,0,0,1-.678.189A1.276,1.276,0,0,1,368.736,111.73Zm1.116-.653a1.418,1.418,0,0,0,.163-.747,1.339,1.339,0,0,0-.163-.747.5.5,0,0,0-.438-.24.505.505,0,0,0-.438.24,1.417,1.417,0,0,0-.163.747,1.339,1.339,0,0,0,.163.747.519.519,0,0,0,.876,0Z" transform="translate(-365.309 -108.75)" fill="#fff"/>
        <path id="Path_3469" data-name="Path 3469" d="M371.715,110.228a.9.9,0,0,1-.215-.618.861.861,0,0,1,.215-.618.707.707,0,0,1,.55-.232.72.72,0,0,1,.55.232.9.9,0,0,1,.215.618.861.861,0,0,1-.215.618.707.707,0,0,1-.55.232A.771.771,0,0,1,371.715,110.228Zm.781-.258a.623.623,0,0,0,.086-.361.588.588,0,0,0-.086-.361.264.264,0,0,0-.232-.12.273.273,0,0,0-.232.129.8.8,0,0,0,0,.721.264.264,0,0,0,.232.12A.273.273,0,0,0,372.5,109.971Zm1.589-1.168h.524l-2.1,3.066h-.524Zm-.137,3a.677.677,0,0,1-.266-.292,1.1,1.1,0,0,1,0-.893.677.677,0,0,1,.266-.292.752.752,0,0,1,.395-.1.72.72,0,0,1,.55.232.9.9,0,0,1,.215.618.861.861,0,0,1-.215.618.72.72,0,0,1-.55.232A1.011,1.011,0,0,1,373.947,111.8Zm.627-.386a.8.8,0,0,0,0-.721.273.273,0,0,0-.232-.129.285.285,0,0,0-.232.12.623.623,0,0,0-.086.361.588.588,0,0,0,.086.361.264.264,0,0,0,.232.12A.213.213,0,0,0,374.574,111.413Z" transform="translate(-365.789 -108.751)" fill="#fff"/>
      </g>
      <path id="Path_3470" data-name="Path 3470" d="M364.447,148.318l9.4-.1a2.351,2.351,0,0,0,2.319-2.362l-.086-7.866a2.346,2.346,0,0,0-2.361-2.319l-2.722.017-1.176-1.82a.992.992,0,0,0-1.683.026l-1.116,1.863-2.7.017A2.335,2.335,0,0,0,362,138.133l.086,7.849A2.333,2.333,0,0,0,364.447,148.318Z" transform="translate(-95.181 -93.093)" fill="#9b9b9b"/>
      <g id="Group_3807" data-name="Group 3807" transform="translate(269.24 47.917)">
        <path id="Path_3471" data-name="Path 3471" d="M366.95,143.718a.858.858,0,0,1,.309.7.915.915,0,0,1-.137.507.967.967,0,0,1-.429.369,1.585,1.585,0,0,1-.7.137,2.268,2.268,0,0,1-.635-.086,1.791,1.791,0,0,1-.532-.24l.283-.541a1.49,1.49,0,0,0,.4.206,1.464,1.464,0,0,0,.472.069.743.743,0,0,0,.421-.1.337.337,0,0,0,.155-.292.331.331,0,0,0-.163-.3,1.067,1.067,0,0,0-.55-.1h-.781l.155-1.726h1.872v.567h-1.279l-.052.584H366A1.459,1.459,0,0,1,366.95,143.718Z" transform="translate(-364.82 -142.267)" fill="#fff"/>
        <path id="Path_3472" data-name="Path 3472" d="M368.625,145.231a1.3,1.3,0,0,1-.464-.541,2.19,2.19,0,0,1,0-1.7,1.2,1.2,0,0,1,.464-.541,1.225,1.225,0,0,1,.678-.189,1.2,1.2,0,0,1,.678.189,1.3,1.3,0,0,1,.464.541,2.19,2.19,0,0,1,0,1.7,1.217,1.217,0,0,1-1.142.73A1.225,1.225,0,0,1,368.625,145.231Zm1.116-.653a1.417,1.417,0,0,0,.163-.747,1.339,1.339,0,0,0-.163-.747.486.486,0,0,0-.438-.24.505.505,0,0,0-.438.24,1.416,1.416,0,0,0-.163.747,1.339,1.339,0,0,0,.163.747.519.519,0,0,0,.876,0Z" transform="translate(-365.268 -142.26)" fill="#fff"/>
        <path id="Path_3473" data-name="Path 3473" d="M371.6,143.728a.9.9,0,0,1-.215-.618.861.861,0,0,1,.215-.618.707.707,0,0,1,.55-.232.72.72,0,0,1,.55.232.9.9,0,0,1,.215.618.861.861,0,0,1-.215.618.707.707,0,0,1-.55.232A.751.751,0,0,1,371.6,143.728Zm.781-.258a.623.623,0,0,0,.086-.361.588.588,0,0,0-.086-.361.264.264,0,0,0-.232-.12.273.273,0,0,0-.232.129.8.8,0,0,0,0,.721.273.273,0,0,0,.232.129A.278.278,0,0,0,372.386,143.471Zm1.6-1.168h.524l-2.1,3.066h-.524Zm-.137,3a.678.678,0,0,1-.266-.292,1.1,1.1,0,0,1,0-.893.678.678,0,0,1,.266-.292.753.753,0,0,1,.395-.1.72.72,0,0,1,.55.232.9.9,0,0,1,.215.618.861.861,0,0,1-.215.618.72.72,0,0,1-.55.232A.929.929,0,0,1,373.846,145.3Zm.627-.386a.8.8,0,0,0,0-.721.273.273,0,0,0-.232-.129.285.285,0,0,0-.232.12.623.623,0,0,0-.086.361.588.588,0,0,0,.086.361.264.264,0,0,0,.232.12A.225.225,0,0,0,374.473,144.913Z" transform="translate(-365.748 -142.26)" fill="#fff"/>
      </g>
      <g id="Group_3809" data-name="Group 3809" transform="translate(178.747 107.006)">
        <path id="Path_3474" data-name="Path 3474" d="M260.565,213.32a1.125,1.125,0,0,1,0-2.25H295.5a1.125,1.125,0,0,1,0,2.25Z" transform="translate(-259.44 -211.07)" fill="#dcdcdc"/>
        <path id="Path_3475" data-name="Path 3475" d="M260.565,222.8a1.125,1.125,0,0,1,0-2.25h28.124a1.125,1.125,0,0,1,0,2.25Z" transform="translate(-259.44 -212.409)" fill="#dcdcdc"/>
        <path id="Path_3476" data-name="Path 3476" d="M260.565,218.06a1.125,1.125,0,0,1,0-2.25h25.247a1.125,1.125,0,0,1,0,2.25Z" transform="translate(-259.44 -211.74)" fill="#dcdcdc"/>
      </g>
      <g id="Group_3812" data-name="Group 3812" transform="translate(111.242 107.006)">
        <path id="Path_3480" data-name="Path 3480" d="M181.955,213.32a1.125,1.125,0,0,1,0-2.25h34.933a1.125,1.125,0,1,1,0,2.25Z" transform="translate(-180.83 -211.07)" fill="#dcdcdc"/>
        <path id="Path_3481" data-name="Path 3481" d="M181.955,222.8a1.125,1.125,0,0,1,0-2.25H202.41a1.125,1.125,0,0,1,0,2.25Z" transform="translate(-180.83 -212.409)" fill="#dcdcdc"/>
        <path id="Path_3482" data-name="Path 3482" d="M181.955,218.06a1.125,1.125,0,1,1,0-2.25h29.626a1.125,1.125,0,0,1,0,2.25Z" transform="translate(-180.83 -211.74)" fill="#dcdcdc"/>
      </g>
      <circle id="Ellipse_295" data-name="Ellipse 295" cx="6.509" cy="6.509" r="6.509" transform="translate(73.678 71.542) rotate(-76.714)" fill="#c2c2c2"/>
      <path id="Path_6782" data-name="Path 6782" d="M158.9,142.247h-31.43a1.323,1.323,0,0,1-1.322-1.322v-6.612a1.323,1.323,0,0,1,1.322-1.322H158.9a1.323,1.323,0,0,1,1.322,1.322v6.612A1.323,1.323,0,0,1,158.9,142.247Z" transform="translate(-61.676 -55.214)" fill="#fff" stroke="#c5c5c5" stroke-width="1" opacity="0.5"/>
      <path id="Path_6783" data-name="Path 6783" d="M130.928,139.419l-1.357.713.258-1.511-1.1-1.073,1.52-.223.678-1.374.678,1.374,1.52.223-1.1,1.073.258,1.511Z" transform="translate(-62.041 -55.632)"/>
      <path id="Path_6784" data-name="Path 6784" d="M138.278,139.419l-1.357.713.258-1.511-1.1-1.073,1.52-.223.678-1.374.678,1.374,1.52.223-1.1,1.073.258,1.511Z" transform="translate(-63.078 -55.632)"/>
      <path id="Path_6785" data-name="Path 6785" d="M145.62,139.419l-1.357.713.266-1.511-1.1-1.073,1.511-.223.678-1.374.687,1.374,1.511.223-1.1,1.073.266,1.511Z" transform="translate(-64.119 -55.632)"/>
      <path id="Path_6786" data-name="Path 6786" d="M152.968,139.419l-1.357.713.258-1.511-1.1-1.073,1.52-.223.678-1.374.678,1.374,1.52.223-1.1,1.073.258,1.511Z" transform="translate(-65.154 -55.632)" fill="#d1d1d1" opacity="0.9"/>
      <path id="Path_6787" data-name="Path 6787" d="M160.318,139.419l-1.357.713.258-1.511-1.1-1.073,1.52-.223.678-1.374.678,1.374,1.52.223-1.1,1.073.258,1.511Z" transform="translate(-66.191 -55.632)" fill="#d1d1d1" opacity="0.9"/>
      <circle id="Ellipse_296" data-name="Ellipse 296" cx="6.509" cy="6.509" r="6.509" transform="translate(73.477 108.845) rotate(-76.714)" fill="#c2c2c2"/>
      <path id="Path_6788" data-name="Path 6788" d="M158.9,142.247h-31.43a1.323,1.323,0,0,1-1.322-1.322v-6.612a1.323,1.323,0,0,1,1.322-1.322H158.9a1.323,1.323,0,0,1,1.322,1.322v6.612A1.323,1.323,0,0,1,158.9,142.247Z" transform="translate(-61.877 -17.911)" fill="#fff" stroke="#c5c5c5" stroke-width="1" opacity="0.5"/>
      <path id="Path_6789" data-name="Path 6789" d="M130.928,139.419l-1.357.713.258-1.511-1.1-1.073,1.52-.223.678-1.374.678,1.374,1.52.223-1.1,1.073.258,1.511Z" transform="translate(-62.242 -18.329)"/>
      <path id="Path_6790" data-name="Path 6790" d="M138.278,139.419l-1.357.713.258-1.511-1.1-1.073,1.52-.223.678-1.374.678,1.374,1.52.223-1.1,1.073.258,1.511Z" transform="translate(-63.279 -18.329)"/>
      <path id="Path_6791" data-name="Path 6791" d="M145.62,139.419l-1.357.713.266-1.511-1.1-1.073,1.511-.223.678-1.374.687,1.374,1.511.223-1.1,1.073.266,1.511Z" transform="translate(-64.32 -18.329)"/>
      <path id="Path_6792" data-name="Path 6792" d="M152.968,139.419l-1.357.713.258-1.511-1.1-1.073,1.52-.223.678-1.374.678,1.374,1.52.223-1.1,1.073.258,1.511Z" transform="translate(-65.355 -18.329)" fill="#d1d1d1" opacity="0.9"/>
      <path id="Path_6793" data-name="Path 6793" d="M160.318,139.419l-1.357.713.258-1.511-1.1-1.073,1.52-.223.678-1.374.678,1.374,1.52.223-1.1,1.073.258,1.511Z" transform="translate(-66.393 -18.329)" fill="#d1d1d1" opacity="0.9"/>
      <circle id="Ellipse_297" data-name="Ellipse 297" cx="6.509" cy="6.509" r="6.509" transform="translate(73.477 144.147) rotate(-76.714)" fill="#c2c2c2"/>
      <path id="Path_6794" data-name="Path 6794" d="M158.9,142.247h-31.43a1.323,1.323,0,0,1-1.322-1.322v-6.612a1.323,1.323,0,0,1,1.322-1.322H158.9a1.323,1.323,0,0,1,1.322,1.322v6.612A1.323,1.323,0,0,1,158.9,142.247Z" transform="translate(-61.877 17.392)" fill="#fff" stroke="#c5c5c5" stroke-width="1" opacity="0.5"/>
      <path id="Path_6795" data-name="Path 6795" d="M130.928,139.419l-1.357.713.258-1.511-1.1-1.073,1.52-.223.678-1.374.678,1.374,1.52.223-1.1,1.073.258,1.511Z" transform="translate(-62.242 16.974)"/>
      <path id="Path_6796" data-name="Path 6796" d="M138.278,139.419l-1.357.713.258-1.511-1.1-1.073,1.52-.223.678-1.374.678,1.374,1.52.223-1.1,1.073.258,1.511Z" transform="translate(-63.279 16.974)"/>
      <path id="Path_6797" data-name="Path 6797" d="M145.62,139.419l-1.357.713.266-1.511-1.1-1.073,1.511-.223.678-1.374.687,1.374,1.511.223-1.1,1.073.266,1.511Z" transform="translate(-64.32 16.974)"/>
      <path id="Path_6798" data-name="Path 6798" d="M152.968,139.419l-1.357.713.258-1.511-1.1-1.073,1.52-.223.678-1.374.678,1.374,1.52.223-1.1,1.073.258,1.511Z" transform="translate(-65.355 16.974)" fill="#d1d1d1" opacity="0.9"/>
      <path id="Path_6799" data-name="Path 6799" d="M160.318,139.419l-1.357.713.258-1.511-1.1-1.073,1.52-.223.678-1.374.678,1.374,1.52.223-1.1,1.073.258,1.511Z" transform="translate(-66.393 16.974)" fill="#d1d1d1" opacity="0.9"/>
      <g id="Group_4967" data-name="Group 4967" transform="translate(19.55 67.125)">
        <path id="Path_5222" data-name="Path 5222" d="M1509.544,3088.97s-.8,4.279-1.209,8.517a2.923,2.923,0,0,0,2.765,3.193c5.647.289,17.727.863,22.064.709a.951.951,0,0,0,.849-1.294h0a2.135,2.135,0,0,0-1.078-1.159l-19.873-9.363Z" transform="translate(-1464.294 -2884.221)" fill="#a1a1a1"/>
        <path id="Path_5223" data-name="Path 5223" d="M1512.37,3068.613l.559,5.133s3.481,1.661,5.886-.149l-1.394-5.726Z" transform="translate(-1467.716 -2866.388)" fill="url(#linear-gradient)"/>
        <path id="Path_5224" data-name="Path 5224" d="M1434.368,2449.6c-.276,1.336-2.047,66.785,4.67,96.187a1,1,0,0,1-.594,1.152,17.324,17.324,0,0,1-5.709,1.1,1.717,1.717,0,0,1-1.689-1.246c-1.936-6.825-11.194-41.017-12.134-73.6-1.05-36.413.012-1.238.012-1.238l1.035-22.493Z" transform="translate(-1388.337 -2343.736)" fill="#d2d2d2"/>
        <path id="Path_5225" data-name="Path 5225" d="M1354.229,3102s-1.226,2.152-2.446,7.889a1.785,1.785,0,0,0,1.548,2.152c1.865.2,4.734.463,7.034.469a1.776,1.776,0,0,0,1.779-1.966,14.992,14.992,0,0,0-3.422-8.258Z" transform="translate(-1331.961 -2895.233)" fill="#a1a1a1"/>
        <path id="Path_5226" data-name="Path 5226" d="M1361.37,3057.965l1.348,7.766s1.395,1.059,4.182.326l-.6-8.346Z" transform="translate(-1340.098 -2857.801)" fill="url(#linear-gradient-2)"/>
        <path id="Path_5227" data-name="Path 5227" d="M1328.546,2443.306c-6.053,34.484.427,85.373,2.68,95.344a1.551,1.551,0,0,0,1.242,1.19,10.406,10.406,0,0,0,4.478-.137,1.419,1.419,0,0,0,1.035-1.3c.392-8.04.3-57.416,5.814-76.878a4.449,4.449,0,0,1,1.733-2.43l10.42-7.259.907-11.886Z" transform="translate(-1310.229 -2335.699)" fill="#d2d2d2"/>
        <g id="Group_4962" data-name="Group 4962" transform="translate(16.426 16.411)">
          <path id="Path_5228" data-name="Path 5228" d="M1369.052,2026.857c-17.147-.447-36.116,4.16-36.116,4.16-5.4,29.779-1.507,64.225-1.507,64.225,13.244,3.607,28.275-1.86,28.275-1.86,2.325-12.446,12.956-47.437,12.956-47.437a56.489,56.489,0,0,0,21.03-6.454c-4.288-5.068-6.271-11.482-7.123-15.271A57.5,57.5,0,0,1,1369.052,2026.857Z" transform="translate(-1330.073 -2000.754)"/>
          <path id="Path_5229" data-name="Path 5229" d="M1728.3,1874a3.279,3.279,0,0,0-3.806-1.108c-2.626,10.636-15.941,19.155-29.577,23.25.852,3.789,2.835,10.2,7.123,15.271C1724.726,1898.94,1728.3,1874,1728.3,1874Z" transform="translate(-1638.426 -1872.673)" fill="url(#linear-gradient-3)"/>
        </g>
        <g id="Group_4963" data-name="Group 4963" transform="translate(102.538)">
          <path id="Path_5230" data-name="Path 5230" d="M1889.538,1784.941c.171.562-1.878,1.4-3.058-.908-.031-1.1-.655-5.811.011-6.7,3.541-4.732,10.376-10.643,10.376-10.643a1.613,1.613,0,0,1,.181,2.242l-3.321,3.394a15.824,15.824,0,0,1,1.883,3.814,4.607,4.607,0,0,1-.492,3.386c-.587,1.035-1.387,2.379-2.142,3.43A4.548,4.548,0,0,1,1889.538,1784.941Z" transform="translate(-1886.185 -1766.69)" fill="url(#linear-gradient-4)"/>
          <path id="Path_5231" data-name="Path 5231" d="M1903.706,1817.35l-3.021,2.512-.965,2.519,2.643,2.989s.946-5.01,1.624-6.089S1904.324,1817.673,1903.706,1817.35Z" transform="translate(-1897.625 -1809.506)" fill="url(#linear-gradient-5)"/>
        </g>
        <path id="Path_5232" data-name="Path 5232" d="M1251.88,2084.78l-6.42-16.669s-16.123,10.731-18.889,24.506a37.911,37.911,0,0,1,13.889,3.865C1241.71,2089.976,1251.88,2084.78,1251.88,2084.78Z" transform="translate(-1226.171 -2021.437)" fill="#a2a2a2"/>
        <path id="Path_5233" data-name="Path 5233" d="M1263.551,2234.292s-18.083,9.992-24.067,1.256a6.816,6.816,0,0,1-1.2-5.312,37.9,37.9,0,0,0-13.89-3.865,19.044,19.044,0,0,0,1.946,13.077c10.445,19.545,39.551-.7,39.551-.7Z" transform="translate(-1223.991 -2155.19)" fill="url(#linear-gradient-6)"/>
        <path id="Path_5234" data-name="Path 5234" d="M1439.694,1950.26l-5.607,15.73a.569.569,0,0,0,.253.687c1.48.836,6.817,3.264,13.314-.768a2.676,2.676,0,0,0,1.251-1.9l1.9-13.642Z" transform="translate(-1401.526 -1921.835)" fill="url(#linear-gradient-7)"/>
        <g id="Group_4964" data-name="Group 4964" transform="translate(27.864 5.719)">
          <path id="Path_5235" data-name="Path 5235" d="M1471.5,1856.62s5.884,11.336,5.073,15.886-8.235,4.152-14.684.389l-4.414-12.222Z" transform="translate(-1449.181 -1848.414)" fill="url(#linear-gradient-8)"/>
          <path id="Path_5236" data-name="Path 5236" d="M1416.983,1822.125a.464.464,0,0,0,.209-.679,12.145,12.145,0,0,1-1.633-3.555s-1.07-.7,2.756-1.578,9.537-2.242,10.765-5.481c1.2-3.159-1.793-11.158-6.747-4.854a.465.465,0,0,1-.737,0c-.791-1.052-2.88-3.238-5.819-1.953-2.752,1.2-3.078,3.207-3.05,4.219a.462.462,0,0,1-.553.467,5.363,5.363,0,0,0-6.288,2.859c-1.3,2.8-.49,4.395.26,5.178a.464.464,0,0,1-.206.769,2.791,2.791,0,0,0-2,3.165c.135,2.95,3.433,2.722,4.373,2.6a.469.469,0,0,1,.412.15c.8.9,4.385,4.713,8.306,5.208a.468.468,0,0,0,.5-.615l-1.65-4.953a.465.465,0,0,1,.259-.575Z" transform="translate(-1403.935 -1803.623)"/>
          <path id="Path_5237" data-name="Path 5237" d="M1467.5,1919.585s-4.238-2.968-4.574-.506,3.807,3.608,5.875,2.708Z" transform="translate(-1453.775 -1900.375)" fill="url(#linear-gradient-9)"/>
        </g>
        <g id="Group_4966" data-name="Group 4966" transform="translate(35.824 57.638)">
          <g id="Group_4965" data-name="Group 4965">
            <path id="Path_5238" data-name="Path 5238" d="M1455.385,2176.177l9.849-34.4a1,1,0,0,1,.849-.721c1.785-.207,6.956-.793,12.926-1.3,7.193-.608,15.544-1.1,20.536-.68a1,1,0,0,1,.823,1.448c-2.838,5.742-14.512,29.1-20.359,36.75a1.007,1.007,0,0,1-.813.4l-22.854-.212A1.006,1.006,0,0,1,1455.385,2176.177Z" transform="translate(-1455.346 -2138.92)" fill="#4e4e4e"/>
            <path id="Path_5239" data-name="Path 5239" d="M1465.783,2261.842s-1.372-5.642-.819-7.643,1.626-4.576,5.2-4a52.266,52.266,0,0,1,7.792,2.078,2.047,2.047,0,0,1-2.93,1.767l1.685,1.3s-.242,2.088-2.535.973l1.567,1.727a1.827,1.827,0,0,1-2.674.615C1471.38,2257.558,1470.571,2262.521,1465.783,2261.842Z" transform="translate(-1463.364 -2232.897)" fill="url(#linear-gradient-10)"/>
          </g>
          <path id="Path_5240" data-name="Path 5240" d="M1603.93,2194.861a2.891,2.891,0,1,0,2.891-2.891A2.891,2.891,0,0,0,1603.93,2194.861Z" transform="translate(-1580.923 -2183.756)" fill="#fff"/>
          <path id="Path_5241" data-name="Path 5241" d="M1522.388,2164l-.737-.219,2.005-6.8a3.1,3.1,0,0,1,2.334-2.171c6.356-1.327,23.1-1.6,23.807-1.609l.013.768c-.174,0-17.378.281-23.664,1.592a2.33,2.33,0,0,0-1.752,1.637Z" transform="translate(-1511.384 -2150.989)" fill="url(#linear-gradient-11)"/>
        </g>
      </g>
    </g>
    <g id="Group_5717" data-name="Group 5717" transform="translate(1485.234 2049.945)">
      <path id="Path_3966" data-name="Path 3966" d="M322.9,185.519c-17.271,7.215-25.793,1.488-38.735-6C271.18,172.036,269.737,164.64,279.7,160c18.8-8.793,29.536.09,42.478,7.576C335.166,175.012,333.092,181.28,322.9,185.519Z" transform="translate(-196.738 23.822)" opacity="0.1"/>
      <path id="Path_3967" data-name="Path 3967" d="M309.389,194.913c-18.894,7.215-27.462,1.714-40.4-5.772-12.987-7.485-18.623-13.934-4.464-19.525,13.844-5.5,27.642.271,40.629,7.8C318.092,184.857,319.67,190.99,309.389,194.913Z" transform="translate(-256.231 62.768)" opacity="0.1"/>
      <path id="Path_3968" data-name="Path 3968" d="M267.56,153.17a20.939,20.939,0,0,0,2.074,7.17c.857,1.8,1.173,3.878,2.119,3.562.947-.361-.27-8.748-.27-8.748Z" transform="translate(-216.476 12.701)" fill="url(#radial-gradient)"/>
      <path id="Path_3969" data-name="Path 3969" d="M258.036,178.22s-.947,3.653-.226,5.186,4.1,2.751,6.764,1.443c2.705-1.308,3.878-4.1,4.87-4.825,1.037-.722,6.764-1.4,11.093-5.05,4.284-3.653,3.7-7.666-.586-7.711-4.284-.09-12.13,1.894-14.881,3.7C262.32,172.809,258.036,178.22,258.036,178.22Z" transform="translate(-251.64 62.145)" fill="#c9c9c9"/>
      <path id="Path_3970" data-name="Path 3970" d="M259.918,182.06c3.066.631,6.989-2.029,8.838-3.562,1.8-1.533,5.05-.722,9.2-4.013s5.637-5.547,3.7-6.629c-1.894-1.082-8.793-.767-14.2,2.119-5.411,2.931-9.019,5.005-9.019,5.005s-1.308,4.013-.676,4.87C258.475,180.753,258.16,181.7,259.918,182.06Z" transform="translate(-251.493 62.228)" fill="#fff"/>
      <path id="Path_3971" data-name="Path 3971" d="M261,150.15a70.534,70.534,0,0,0-.766,22.321c1.533,12.491-.857,37.518-1.443,46.4-.541,8.883-3.607,19.751.857,22.006,2.57,1.308,7.215.541,10.822-3.607s4.374-8.207,3.923-8.974-1.082-4.149.316-11.5c1.443-7.35,4.284-25.162,4.058-30.979s-2.3-33.053-2.3-33.053Z" transform="translate(-252.619 2.103)" fill="#9e9e9e"/>
      <path id="Path_3972" data-name="Path 3972" d="M272.016,184.766c.225,5.817-2.615,23.629-4.058,30.979s-.767,10.732-.316,11.5-.315,4.825-3.923,8.974a12.737,12.737,0,0,1-4.509,3.382c1.578-2.931,3.878-9.019,3.878-19.029,0-15.106,3.156-34.361,3.562-44.868.271-6.133-1.172-17.767-1.172-25.252l4.284,1.263C269.717,151.758,271.791,178.994,272.016,184.766Z" transform="translate(-245.779 3.156)" fill="#d1d3d4"/>
      <path id="Path_3973" data-name="Path 3973" d="M268.557,136.073s9.379-.947,13.122.857,9.785,7.666,9.785,9.56c0,1.668-5.05,3.878-8.117,3.021-3.021-.857-3.382-1.308-5.862-1.849a47.331,47.331,0,0,1-9.154-3.066C266.528,143.649,268.557,136.073,268.557,136.073Z" transform="translate(-216.391 -48.169)" fill="url(#radial-gradient-2)"/>
      <path id="Path_3974" data-name="Path 3974" d="M302.158,156.436l1.217,7.08a45.5,45.5,0,0,1-5.1,2.57c-1.623.5-4.239-.5-5.547,1.172s-6.719,5.952-11.138,6.854c-4.825.947-8.162-.586-8.252-1.984s1.173-3.653,5.546-6.494,8.117-9.785,8.117-9.785Z" transform="translate(-196.196 22.106)" fill="#959595"/>
      <path id="Path_3975" data-name="Path 3975" d="M302.079,160.735c-.676.812-8.7,2.706-10.01,4.374-1.488,1.894-9.019,6.538-12.806,7.17-3.472.586-6.088-1.127-5.772-2.435.5-1.894,3.653-3.653,6.4-5.772s5.772-6.989,5.772-6.989l16.5-1.172Z" transform="translate(-195.756 22.316)" fill="#fff"/>
      <path id="Path_3976" data-name="Path 3976" d="M304.2,158.945l.135,6.584-2.976,2.976-.947-.361a20.473,20.473,0,0,1-7.666,8.523c-4.96,3.2-10.912,2.435-12.355,1.263s-1.443-2.255,2.21-7.17c3.653-4.87,8.883-11.95,8.883-11.95Z" transform="translate(-174.608 32.494)" fill="#959595"/>
      <path id="Path_3977" data-name="Path 3977" d="M303.419,161.841s-5.321,4.915-7.17,7.8c-2.751,4.329-10.056,7.666-14.88,6.088-4.825-1.623,1.668-6.629,2.976-8.838s5.05-7.666,5.05-7.666l14.2-.135Z" transform="translate(-174.189 33.476)" fill="#fff"/>
      <path id="Path_3978" data-name="Path 3978" d="M277.168,138.03s-1.488,31.43-1.263,38.96,4.555,27.191,3.788,30.663c-.767,3.517-2.39,6.584-2.841,8.748-.451,2.21-1.082,5.186-1.082,5.186s4.69,4.464,10.056,3.833c5.366-.676,8.162-1.623,8.658-2.976.5-1.308-.767-35.579-.767-35.579l.722-44.327Z" transform="translate(-187.665 -40.43)" fill="#8f8f8f"/>
      <path id="Path_3979" data-name="Path 3979" d="M283.526,212.071c.767-8.748-1.759-19.616-4.509-31.43-2.3-9.965-1.082-34.135-.631-41.531l9.244,2.48-.541,41.576s1.263,34.226.767,35.578c-.5,1.263-3.021,2.21-7.936,2.841C281.542,218.564,283.256,214.776,283.526,212.071Z" transform="translate(-181.037 -36.64)" fill="#d1d3d4"/>
      <path id="Path_3980" data-name="Path 3980" d="M279.38,139.122s2.119,24.982,2.706,36.03a219.673,219.673,0,0,0,4.69,32.377c1.443,5.817,3.066,14.024,2.615,18.037-.451,4.058-2.3,7.215.09,8.974s10.507,2.751,12.49,1.759,3.607-.767,3.607-4.69-.541-26.154-2.074-34.992c-1.533-8.883.947-39.907.992-43.876.09-9.289-3.517-14.43-3.517-14.43Z" transform="translate(-174.996 -39.447)" fill="#8f8f8f"/>
      <path id="Path_3981" data-name="Path 3981" d="M295.84,121.42c3.923,1.082,8.883.767,4.6,10.958s-19.706,44.868-19.706,44.868-5.231-12.581-4.464-23.539,7.35-29.671,7.35-29.671Z" transform="translate(-186.181 -98.72)" fill="#efefef"/>
      <path id="Path_3982" data-name="Path 3982" d="M286.985,124.741l-1.669-.721-1.082,1.172.451,2.39s-4.69,9.109-6.4,14.655c-1.759,5.546-2.119,13.077-1.443,16.549.676,3.517,3.878,8.613,3.878,8.613s2.345-16.775,3.066-20.788,2.976-18.308,2.976-18.308l1.668-1.037Z" transform="translate(-185.036 -89.596)"/>
      <path id="Path_3983" data-name="Path 3983" d="M291.413,121.541a11.935,11.935,0,0,0-8.613,2.751c-2.661,2.435-4.149,5.546-4.96,11.679-.721,5.456.225,17.5,0,20.562s-1.217,22.411-1.759,28.454c-.541,6-2.39,12.9.992,16.324,3.382,3.382,6.989,5.141,7.891,3.157.857-1.984,3.518-19.57,2.074-24.846-1.443-5.231-5.366-15.963-5.141-22.411s3.066-23.764,4.915-27.146S291.413,121.541,291.413,121.541Z" transform="translate(-190.051 -98.435)"/>
      <path id="Path_3984" data-name="Path 3984" d="M276.091,146.231c.451-6,.586-10.642.586-10.642l2.3-1.263-1.533-2.706s2.8-1.623,3.743-3.743c.812-1.849,2.976-4.149,4.645-6.358h0a9.992,9.992,0,0,1,2.3.09s-2.751,5.141-4.6,8.523-4.69,20.7-4.915,27.146c-.135,3.968,1.308,9.6,2.8,14.565-.722-1.578-1.984-4.825-2.255-5.727C277.624,161.021,275.64,152.228,276.091,146.231Z" transform="translate(-186.768 -98.459)" fill="#d1d3d4"/>
      <path id="Path_3985" data-name="Path 3985" d="M276.225,145.645c.451-6,.586-10.642.586-10.642l2.705-.722-1.894-3.472a5.767,5.767,0,0,0,3.021-2.8,16.345,16.345,0,0,1,4.825-6.493h0a9.993,9.993,0,0,1,2.3.09s-2.751,5.141-4.6,8.523-4.69,20.7-4.915,27.146c-.135,3.968,1.308,9.6,2.8,14.565-.722-1.578-1.984-4.825-2.255-5.727C277.217,161.021,275.774,151.642,276.225,145.645Z" transform="translate(-186.362 -98.459)" fill="#929292"/>
      <path id="Path_3986" data-name="Path 3986" d="M287.013,138.3s3.607,5.141,3.517,14.43c-.045,3.968-2.525,34.992-.992,43.876s2.074,31.069,2.074,34.992-1.623,3.7-3.607,4.69a10.237,10.237,0,0,1-4.419.316,29.052,29.052,0,0,0,3.608-12.806c.947-12.626-3.653-26.7-3.021-38.239.541-10.191.857-33.143-.812-46.852Z" transform="translate(-161.03 -39.483)" fill="#d1d3d4"/>
      <path id="Path_3987" data-name="Path 3987" d="M281.186,123.529l9.785-2.119c3.021.857,6.674.857,6.178,5.456-2.074,3.562-4.735,7.846-6.4,9.47a73.464,73.464,0,0,0-5.411,5.862l-2.841-10.1-4.825,6.584s-.271-5.772.135-7.666C278.075,130.113,279.7,126.686,281.186,123.529Z" transform="translate(-181.312 -98.755)" fill="#d1d3d4"/>
      <path id="Path_3988" data-name="Path 3988" d="M281.133,123.529l9.785-2.119c3.021.857,6.674.857,6.178,5.456-2.074,3.562-4.735,7.846-6.4,9.47a36.414,36.414,0,0,1-5.231,4.374l-2.976-8.613-4.69,5.1a26.8,26.8,0,0,1,0-6.178C278.022,130.113,279.645,126.686,281.133,123.529Z" transform="translate(-181.259 -98.755)" fill="#111"/>
      <path id="Path_3989" data-name="Path 3989" d="M295.476,121.48s3.066.947,1.4,5.321-8.3,11.724-12.626,21.825c-4.284,10.056-7.215,20.7-6.944,32.918.27,12.175,1.172,23.133,3.923,26.019,3.111,3.247,12.626,6.944,22.682,5.186s12.987-5.637,11.9-8.027-6.989-27.507-7.44-31.2,3.066-13.618,4.148-17.586c1.082-3.923,2.976-11.9,1.624-16.279-1.4-4.374-3.878-4.87-6.4-7.531-1.668-1.713-4.194-4.194-7.124-6.764C298.993,124.005,297.46,122.066,295.476,121.48Z" transform="translate(-182.344 -98.509)"/>
      <path id="Path_3990" data-name="Path 3990" d="M284.014,148.556C288.3,138.5,294.972,131.1,296.64,126.731c1.443-3.743-.586-4.96-1.217-5.231h0a14.585,14.585,0,0,1,4.915,2.841c.361,2.931.586,3.607-.631,8.838-1.308,5.546-.992,7.8-.992,7.8l-3.7.812v3.653s-1.623-1.353-6.539,6.584c-4.96,7.982-8.477,12.085-11.138,21.645A82.269,82.269,0,0,1,284.014,148.556Z" transform="translate(-182.156 -98.439)" fill="#d1d3d4"/>
      <path id="Path_3991" data-name="Path 3991" d="M283.979,148.556c4.284-10.056,10.958-17.451,12.626-21.825,1.443-3.743-.586-4.96-1.217-5.231h0a14.586,14.586,0,0,1,4.915,2.841c.361,2.931.586,3.607-.631,8.838-1.308,5.546-1.669,6.764-1.669,6.764l-3.7.812v3.652s-2.525-.316-7.08,7.846c-4.239,7.621-7.26,11.859-9.875,21.374A81.022,81.022,0,0,1,283.979,148.556Z" transform="translate(-182.12 -98.439)" fill="#fff"/>
      <path id="Path_3992" data-name="Path 3992" d="M286.865,150.063c4.555-8.162,7.125-8.117,7.125-8.117v-3.653l3.7-.812s.361-1.263,1.668-6.764c1.173-5.051.9-6,.586-8.658a1.209,1.209,0,0,1,.361.316c.361,2.931.586,3.607-.631,8.838-1.308,5.546-1.669,6.764-1.669,6.764l-3.7.812v3.653s-2.525-.316-7.08,7.846c-4.239,7.621-7.26,11.86-9.875,21.374.09-1.082.271-1.759.451-2.841C280.191,161.066,283.032,156.917,286.865,150.063Z" transform="translate(-182.121 -96.474)" fill="url(#radial-gradient-3)"/>
      <path id="Path_3993" data-name="Path 3993" d="M294.288,135.7s-3.066,1.217-6.268,2.21-7.08,1.984-7.08,1.984.045,4.735,1.939,4.78c1.894.09,11.589-2.48,12.175-3.653S294.288,135.7,294.288,135.7Z" transform="translate(-169.522 -48.607)" fill="#d1d3d4"/>
      <path id="Path_3994" data-name="Path 3994" d="M294.288,135.7s-3.066,1.217-6.268,2.21-7.08,1.984-7.08,1.984.271,3.878,2.209,3.923c1.894.09,11.589-2.48,12.175-3.653S294.288,135.7,294.288,135.7Z" transform="translate(-169.522 -48.607)" fill="#5d5d5d"/>
      <path id="Path_3995" data-name="Path 3995" d="M273.762,134.87a13.668,13.668,0,0,0,1.443,6.719,23.914,23.914,0,0,0,4.87,5.817s.5-6.629-1.217-9.109A10.524,10.524,0,0,0,273.762,134.87Z" transform="translate(-194.766 -51.52)" fill="#a2a2a2"/>
      <path id="Path_3996" data-name="Path 3996" d="M292.741,135.08a9.382,9.382,0,0,1-3.833,1.849c-1.668.135-7.26-.045-9.109.586-1.759.586-7.215,2.255-7.35,3.7-.135,1.488,1.849.5,3.427.271s4.194-.406,4.194-.406a34.518,34.518,0,0,1-5.231,4.464c-1.984,1.127-5.186,1.668-5.727,2.8s.135,2.21,1.759,3.337c2.435,1.713,4.464,1.127,6.539,1.218,3.652.135,7.846-1.353,9.56-2.751,1.668-1.4,6.448-5.186,7.53-5.817s4.96-2.074,4.96-2.074l-6.493-7.35Z" transform="translate(-211.671 -51.414)" fill="url(#radial-gradient-4)"/>
      <path id="Path_3997" data-name="Path 3997" d="M270.881,148.692c-1.623-1.127-2.3-2.21-1.759-3.337a1.8,1.8,0,0,1,.5-.541c1.353,1.713,5.637,2.57,8.342,1.984,2.841-.631,10.191-5.546,12.311-7.621,1.082-1.037,4.644-2.39,7.891-3.427l1.308,3.517s-3.878,1.443-4.96,2.074-5.817,4.419-7.531,5.817c-1.668,1.4-5.907,2.886-9.56,2.751C275.346,149.819,273.362,150.405,270.881,148.692Z" transform="translate(-211.636 -48.431)" fill="url(#radial-gradient-5)"/>
      <path id="Path_3998" data-name="Path 3998" d="M289.332,186.231c-.136-8.072-5.321-18.263-7.8-24.305s.721-24.305,4.509-32.242c3.066-6.448,12.04-4.239,16.594-2.21.631,4.509-.992,11.138-1.939,14.655-1.082,3.923-4.6,13.844-4.148,17.586.451,3.7,6.358,28.815,7.44,31.2s-1.8,6.268-11.9,8.027a28.147,28.147,0,0,1-5.1.451A40.3,40.3,0,0,0,289.332,186.231Z" transform="translate(-170.519 -84.753)" fill="#303030"/>
      <path id="Path_3999" data-name="Path 3999" d="M324.064,125.161c4.239,1.353,4.509,9.515,1.8,15.512-1.759,3.923-5.862,12.761-7.305,16.549s-3.788,11.589-7.891,13.8-14.79,5.772-19.029,7.576-11.544,5.1-11.544,5.1a36.212,36.212,0,0,0-3.066-8.162,16.663,16.663,0,0,0-3.292-4.374s14.43-6.764,19.39-9.56c4.96-2.751,7.531-4.284,8.613-6.854s4.644-13.618,5.817-16.324C310.491,131.654,313.963,121.959,324.064,125.161Z" transform="translate(-194.789 -87.805)" fill="#262626"/>
      <path id="Path_4000" data-name="Path 4000" d="M263.217,179.157s-1.624,4.735.361,5.772a9.061,9.061,0,0,0,7.531.5c2.48-1.082,3.517-2.21,6.133-2.21s12.851-5.05,14.79-7.531c1.984-2.48,0-5.321-4.87-4.96s-11.9.947-13.122,1.4C272.731,172.573,263.217,179.157,263.217,179.157Z" transform="translate(-233.913 74.195)" fill="#c9c9c9"/>
      <path id="Path_4001" data-name="Path 4001" d="M265.107,182.806c4.6.541,6.042-.722,10.281-1.623,4.239-.857,16.278-5.772,16.053-8.432-.226-2.706-2.976-2.119-5.321-1.894s-9.785.721-10.372.721-12.671,5.456-12.671,5.456-.857,3.923-.09,4.509C263.8,182.175,263.89,182.671,265.107,182.806Z" transform="translate(-233.639 74.018)" fill="#fff"/>
      <path id="Path_4002" data-name="Path 4002" d="M262.222,153.3s-2.75,5.907-.09,16.1c2.615,10.191,5.682,22.231,5.817,35.128.09,12.9-1.443,46.266.541,48.16,1.984,1.849,8.883,2.48,11.724.451,4.554-3.337,6.989-8.117,6.583-9.74-.451-1.623-3.923-7.531-2.751-12.806,1.217-5.231,5.231-23.4,4.464-35.759s-2.841-44.642-2.841-44.642Z" transform="translate(-239.592 2.243)" fill="#9e9e9e"/>
      <path id="Path_4003" data-name="Path 4003" d="M276.992,128.892c2.886,1.4,5.817,3.788,6,11.093.135,7.3.225,10.777-1.218,11.724s-2.57,0-2.841,2.029a24.371,24.371,0,0,0,.27,5.411l-15.918-3.562a7.682,7.682,0,0,0,.09-5.186c-1.037-2.615-5.637-7.711-2.119-15.242C264.727,127.63,273.565,127.179,276.992,128.892Z" transform="translate(-243.179 -75.394)" fill="url(#radial-gradient-6)"/>
      <path id="Path_4004" data-name="Path 4004" d="M283.663,135.646c.045,1.4-.812,3.653-2.751,3.788a2.93,2.93,0,0,0-2.48,3.562c.451,1.082.135,1.4.135,1.4s-1.443-.586-2.119.586.225,3.653.676,4.6-2.841,3.878-5.546,4.1-6.358-.09-7.53-1.443a15.088,15.088,0,0,1-3.923-13.483c1.533-7.44,8.387-11.9,14.745-10.642C281.183,129.288,283.573,133.662,283.663,135.646Z" transform="translate(-243.717 -75.97)" fill="#676767"/>
      <path id="Path_4005" data-name="Path 4005" d="M306.486,140.991a4.669,4.669,0,0,1,1.668,4.239c-.361,2.751-2.976,6.989-2.976,6.989l-27.642-1.533s-21.329-.9-20.382-9.6c.9-8.3,6.583-7.891,18.894-4.69s17.135,3.7,21.149,4.1C301.209,140.856,306.486,140.991,306.486,140.991Z" transform="translate(-253.102 -53.627)" fill="#fff"/>
      <path id="Path_4006" data-name="Path 4006" d="M280.04,144.643s-1.714-6-5.321-6.719c-3.562-.721-6.719-.271-9.109-1.4a9.77,9.77,0,0,1-3.7-3.157s-2.75.767-.721,3.247C263.265,139.1,280.04,144.643,280.04,144.643Z" transform="translate(-241.446 -56.784)" fill="url(#linear-gradient-12)"/>
      <path id="Path_4007" data-name="Path 4007" d="M306.877,143.691c-1.037,2.074-1.713,3.2-1.713,3.2l-27.642-1.533s-21.239-.9-20.382-9.56c5.1,1.263,17.947,6.493,29.671,7.125C297.543,143.511,304.081,143.646,306.877,143.691Z" transform="translate(-253.133 -48.256)" fill="#d1d3d4"/>
      <path id="Path_4008" data-name="Path 4008" d="M264.61,151.307l8.252-1.127s2.075,32.287,2.841,44.642-3.292,30.528-4.464,35.759c-1.218,5.231,2.3,11.138,2.751,12.806.406,1.488-1.578,5.592-5.411,8.838a116.753,116.753,0,0,0-.361-19.029c-.5-5.682,3.788-26.289,2.615-38.645C269.706,183.82,265.647,157.846,264.61,151.307Z" transform="translate(-226.829 2.208)" fill="#d1d3d4"/>
      <path id="Path_4009" data-name="Path 4009" d="M280.5,137.082a38.54,38.54,0,0,1-6.719-3.156,61.83,61.83,0,0,0-7.981.361,8.308,8.308,0,0,0-7.08,8.613,119.429,119.429,0,0,0,3.292,20.157,46,46,0,0,1,.361,20.878c-1.4,7.666-6.178,24.441-5.817,26.244s4.509,8.3,14.069,11.679c9.56,3.337,25.432,4.149,31.881-3.2,6.4-7.35-1.894-32.738-2.255-45.138s4.149-17.586-1.082-23.99-11.138-10.281-14.52-11.138A40.539,40.539,0,0,1,280.5,137.082Z" transform="translate(-255.164 -54.859)" fill="#2c2c2c"/>
      <path id="Path_4010" data-name="Path 4010" d="M283.738,144.418c-1.533-2.029-4.6-4.825-7.44-5.186s-8.342-1.488-10.146-2.841c-2.074-1.533-2.345-2.841-2.345-2.841l-4.284,1.578s-.361,5.1,5.591,6.9c6,1.8,12.716,1.758,17.045,4.284a40.833,40.833,0,0,1,6.628,4.735Z" transform="translate(-244.694 -56.152)" fill="#d1d3d4"/>
      <path id="Path_4011" data-name="Path 4011" d="M283.735,144.418c-1.533-2.029-4.6-4.825-7.44-5.186s-8.342-1.488-10.146-2.841c-2.074-1.533-2.345-2.841-2.345-2.841l-4.284,1.578s.045,4.149,6.042,6c6,1.8,13.8,2.345,17.586,5.186a57.978,57.978,0,0,1,5.682,4.735Z" transform="translate(-244.691 -56.152)" fill="#676767"/>
      <path id="Path_4012" data-name="Path 4012" d="M259.936,133.87c.09.857.812,4.194,6.042,5.772,6,1.8,13.8,2.345,17.586,5.186,1.443,1.082,2.57,1.984,3.472,2.751l1.8,2.345a57.958,57.958,0,0,0-5.682-4.735c-3.788-2.841-11.589-3.337-17.586-5.186-6-1.8-6.043-6-6.043-6Z" transform="translate(-244.656 -55.029)" fill="url(#radial-gradient-7)"/>
      <path id="Path_4013" data-name="Path 4013" d="M292.369,121.16l1.217,2.706s-3.7,6.133-6.493,7.891c-2.751,1.759-6.042,3.7-6.989,2.345a25.461,25.461,0,0,1-1.984-5.186Z" transform="translate(-179.418 -99.632)" fill="url(#radial-gradient-8)"/>
      <path id="Path_4014" data-name="Path 4014" d="M295.524,138.8l-1.533.09s-4.69,5.411-7.531,6.584-5.637,1.308-6.854-.676-3.066-14.024-2.029-18.759,7.711-13.708,17.5-7.215,2.841,17.947,2.48,18.308S295.524,138.8,295.524,138.8Z" transform="translate(-182.392 -115.828)" fill="url(#radial-gradient-9)"/>
      <path id="Path_4015" data-name="Path 4015" d="M297.833,137.869s1.443-3.247.135-4.194a1.4,1.4,0,0,0-.586-.271,1.958,1.958,0,0,0-1.984.631l-1.353,1.488s-.225-1.533-.9-4.419c-.451-1.849-2.751-3.517-7.576-3.066-2.57.226-5.772,1.533-7.531.135s-.361-4.374.5-5.817,9.109-9.921,17.812-3.743C305.048,124.746,300.178,135.569,297.833,137.869Z" transform="translate(-182.673 -116.386)" fill="#676767"/>
      <path id="Path_4016" data-name="Path 4016" d="M266.124,140.592c4.1-6.087,10.011-1.217,14.249,2.931-.09,4.1-1.668,9.019-1.443,16.594.361,12.4,8.658,37.788,2.255,45.138-3.111,3.562-8.387,5.186-14.159,5.592a73.134,73.134,0,0,0,1.082-10.056c.5-10.687-2.706-16.594-4.013-30.934C262.787,155.563,260.8,148.574,266.124,140.592Z" transform="translate(-233.799 -41.504)" fill="#d1d3d4"/>
      <path id="Path_4017" data-name="Path 4017" d="M260,130.43a16.62,16.62,0,0,0,7.531,3.111,24.823,24.823,0,0,0,10.867-.631,2.2,2.2,0,0,0,.045,1.217c.451,1.082.135,1.4.135,1.4s-1.443-.586-2.119.586.225,3.653.676,4.6-2.841,3.878-5.547,4.1-6.358-.09-7.531-1.443A15.352,15.352,0,0,1,260,130.43Z" transform="translate(-243.731 -67.101)" fill="#676767"/>
      <g id="Group_4092" data-name="Group 4092" transform="translate(38.323 166.502)">
        <path id="Path_4018" data-name="Path 4018" d="M268.383,160.345v30.708l-3.653-2.119V158.09Z" transform="translate(-264.73 -136.536)" fill="#434343"/>
        <path id="Path_4019" data-name="Path 4019" d="M265.54,175.435v30.709l37.382-21.464V153.79Z" transform="translate(-261.887 -151.625)" fill="#fff"/>
        <path id="Path_4020" data-name="Path 4020" d="M269.3,163.254v2.074a1.013,1.013,0,0,0,1.533.857l2.841-1.623a1.967,1.967,0,0,0,.947-1.668V161.36a1.013,1.013,0,0,0-1.533-.857l-3.337,1.894A1.078,1.078,0,0,0,269.3,163.254Z" transform="translate(-248.693 -128.577)"/>
        <g id="Group_4091" data-name="Group 4091" transform="translate(3.652 2.21)">
          <path id="Path_4021" data-name="Path 4021" d="M265.54,175.4v9.334A2.165,2.165,0,0,0,267.7,186.9h15.2a5.629,5.629,0,0,0,4.329-2.074l13.888-17.406a8.531,8.531,0,0,0,1.849-5.276V153.8Z" transform="translate(-265.54 -153.8)" fill="#202020"/>
          <path id="Path_4022" data-name="Path 4022" d="M265.54,175.4v9.334A2.165,2.165,0,0,0,267.7,186.9h15.2a5.629,5.629,0,0,0,4.329-2.074l13.888-17.406a8.531,8.531,0,0,0,1.849-5.276V153.8Z" transform="translate(-265.54 -153.8)" fill="#202020"/>
        </g>
        <path id="Path_4023" data-name="Path 4023" d="M305.765,155.474l-37.382,21.645-3.653-2.255,37.427-21.555Z" transform="translate(-264.73 -153.31)"/>
        <path id="Path_4024" data-name="Path 4024" d="M271.879,157.037l4.825-2.8a2.989,2.989,0,0,1,3.021-.271l1.217.586-.18.9a4.543,4.543,0,0,1,.135,1.127v3.156l-1.082.631-.271,1.533-1.262-.631v-2.841a1.28,1.28,0,0,0-2.074-1.218l-3.788,2.21a4.585,4.585,0,0,0-2.074,3.607v2.841l-1.172.676-.18,1.443-1.263-.631v-3.157A9.161,9.161,0,0,1,271.879,157.037Z" transform="translate(-254.203 -152.031)" fill="#434343"/>
        <path id="Path_4025" data-name="Path 4025" d="M281.177,156.807v3.157l-2.615,1.488V158.61a1.28,1.28,0,0,0-2.074-1.217L272.7,159.6a4.585,4.585,0,0,0-2.074,3.607v2.841l-2.615,1.488v-3.157a9.2,9.2,0,0,1,4.193-7.215l4.825-2.8C279.283,153.064,281.177,154.146,281.177,156.807Z" transform="translate(-253.22 -151.531)" fill="url(#linear-gradient-13)"/>
        <path id="Path_4026" data-name="Path 4026" d="M268.292,180.507l-.27-10.191-3.292-2.435,3.743,1.668L294.085,155.3l-25.252,14.836Z" transform="translate(-264.73 -146.326)" fill="url(#radial-gradient-10)"/>
      </g>
      <path id="Path_4027" data-name="Path 4027" d="M275.191,151.34a70.319,70.319,0,0,1,5.952,8.432c.992,1.849.947,2.164.5,5.952-.226,1.759-.541,3.021-1.488,3.157-.451.045-.18-.992-.18-.992s-.18,1.759-1.308,2.029-.541-1.127-.541-1.127-.316,1.849-1.488,2.074-.5-1.263-.5-1.263-.406,1.939-1.308,2.3c-.9.316-1.082-.27-1.082-1.623,0-1.578-.676-2.976-2.074-5.456-1.488-2.661-2.751-3.878-2.615-6.358a7.064,7.064,0,0,0-1.939-4.645Z" transform="translate(-218.02 6.279)" fill="url(#radial-gradient-11)"/>
      <path id="Path_4028" data-name="Path 4028" d="M274.55,137.961c-5.1-1.759-10.1,1.4-11.318,6.719s1.4,25.523,3.427,31.159,14.745,30.8,14.745,30.8a32.774,32.774,0,0,0,7.215-1.8,9.383,9.383,0,0,0,4.1-3.788s-8.748-21.645-10.416-26.7-1.082-17.812-1.623-23.494C280.006,143.868,279.465,139.674,274.55,137.961Z" transform="translate(-232.756 -42.39)" fill="#212121"/>
      <path id="Path_4029" data-name="Path 4029" d="M286.232,137.342c.541.631.225,2.074-1.578,2.21-1.8.18-5.772-.271-7.26-.271s-8.793-2.841-8.793-2.841Z" transform="translate(-212.827 -46.01)" fill="#9e9e9e"/>
      <path id="Path_4030" data-name="Path 4030" d="M277.895,136.015c1.759.992,4.464,1.578,5.907,2.3s2.706.316,3.066.992.135,2.435-3.472,1.623c-3.562-.812-5.591-1.308-7.711-1.217s-6.268.045-7.034-1.127.721-2.706.721-2.706Z" transform="translate(-213.418 -47.975)" fill="url(#radial-gradient-12)"/>
      <path id="Path_4031" data-name="Path 4031" d="M281.485,138.539c.361-.676-3.2-.541-4.284-.135a50.172,50.172,0,0,0-5.682,2.48c-.631.406-1.488,1.037.812,1.172C276.75,142.326,280.178,140.974,281.485,138.539Z" transform="translate(-205.014 -40.307)" fill="url(#radial-gradient-13)"/>
    </g>
  </g>
</svg>
