<svg xmlns="http://www.w3.org/2000/svg" width="408.545" height="263.671" viewBox="0 0 408.545 263.671">
  <g id="Data_analytics_" data-name="Data analytics " transform="translate(-1267.673 -3928.692)">
    <path id="Path_6905" data-name="Path 6905" d="M333.444,564.158s-51.074-41.946-27.8-96.685,65.4,28.81,94.767-48.454,35.942-136.41,114.114-112.013,46.128,88.428,87.04,94.86,73.238,29.62,54.49,79.76,27.8,83.07,27.8,83.07Z" transform="translate(968.107 3627.254)" fill="#ececec"/>
    <path id="Path_6906" data-name="Path 6906" d="M2092.633,350.6l-15.718,1.6,4.9,4-39.352,47.221-23.8-30.13-27.121,30.4-10.857-16.93L1959.45,408.3l6.843,6.843,12.73-12.73,11.583,17.2,27.937-31.533,23.318,30.47,47.455-56.241,4.914,4.007Z" transform="translate(-443.407 3587.082)" fill="#b9b9b9"/>
    <g id="Group_5795" data-name="Group 5795" transform="translate(1543.24 4098.538)">
      <g id="Group_5790" data-name="Group 5790" transform="translate(49.55 37.004)">
        <path id="Path_6907" data-name="Path 6907" d="M2425.645,1448.25s-6.485-7.566-.4-12.372c0,0,4.446-2.692,8.068-2.472,0,0-5.135,8.612-3.474,9.467s5.031-10.009,5.031-10.009,10.115-.98,13.368.583c0,0-8.646,7.075-6.826,7.5s11.16-6.525,11.16-6.525,9.414,1.6,8.911,7.344-3.745,7.516-5.172,7.362-9.765-3.335-9.946-2.169,4.839,4.985,8.354,5.164c0,0-6.637,7.321-11.047,5.206s-4.788-5.461-7.538-6.717-5.1-1.253-3.961.027,6.112,2.526,7.685,5.307,2.982,4.658-1.58,3.97-11.982-4.027-12.308-7.851S2425.645,1448.25,2425.645,1448.25Z" transform="translate(-2414.684 -1432.561)" fill="#8d8d8d"/>
        <g id="Group_5789" data-name="Group 5789" transform="translate(0 9.317)">
          <path id="Path_6908" data-name="Path 6908" d="M2444.857,1483.551s-25.569-.985-31.216,6.328a18.5,18.5,0,0,1-5.091,7.146l-.6,1.633s4.431-4.672,6.017-4.954C2413.967,1493.7,2411.487,1484.643,2444.857,1483.551Z" transform="translate(-2402.68 -1483.507)" fill="#7d7d7d"/>
          <path id="Path_6909" data-name="Path 6909" d="M2385,1554.547a16.056,16.056,0,0,0-5.871,11.311l1,.09s1.752-7.5,4.921-10.431S2385,1554.547,2385,1554.547Z" transform="translate(-2379.13 -1541.031)" fill="#9b9b9b"/>
        </g>
      </g>
      <g id="Group_5792" data-name="Group 5792" transform="translate(0 16.464)">
        <path id="Path_6910" data-name="Path 6910" d="M2146.012,1346.955s10.316-5.777,5.5-13.617c0,0-3.851-4.813-7.977-6.051,0,0,2.2,11.691,0,11.967s-1.512-13.205-1.512-13.205-10.813-2.163-15.076-1.752c0,0,6.686,8.354,4.486,8.078s-9.765-11.828-9.765-11.828-11.141-2.063-12.929,4.539,1.1,9.9,2.751,10.316,12.241.274,11.967,1.649-7.428,3.577-11.417,2.339c0,0,4.4,10.866,10.179,10.316s7.565-4.126,11.14-4.4,6.19.688,4.4,1.649-7.84.316-10.729,2.771-5.227,3.968.137,5.069,14.992.413,16.917-3.714Z" transform="translate(-2108.175 -1320.242)" fill="#b8b9b9"/>
        <g id="Group_5791" data-name="Group 5791" transform="translate(5.652 6.907)">
          <path id="Path_6911" data-name="Path 6911" d="M2139.08,1358.01s28.885,9.352,32.185,19.807a21.966,21.966,0,0,0,2.751,10.042v2.063s-3.026-7.015-4.676-7.977C2169.34,1381.944,2175.8,1372.867,2139.08,1358.01Z" transform="translate(-2139.08 -1358.01)" fill="#929292"/>
          <path id="Path_6912" data-name="Path 6912" d="M2323.962,1515.492a19.049,19.049,0,0,1,1.914,15l-1.146-.307s1.112-9.068-1.218-13.631S2323.962,1515.492,2323.962,1515.492Z" transform="translate(-2289.024 -1485.644)" fill="#a3a4a7"/>
        </g>
      </g>
      <g id="Group_5794" data-name="Group 5794" transform="translate(45.31)">
        <path id="Path_6913" data-name="Path 6913" d="M2364.884,1265.422s-13.6-7.615-7.253-17.949c0,0,5.076-6.345,10.515-7.977,0,0-2.9,15.411,0,15.774s2-17.406,2-17.406,14.323-6.889,19.944-6.346c0,0-8.884,15.049-5.984,14.687s12.873-15.594,12.873-15.594,14.686-2.719,17.043,5.984-1.45,13.053-3.626,13.6-16.137.362-15.774,2.176,9.791,4.715,15.048,3.081c0,0-5.8,14.323-13.417,13.6s-9.972-5.438-14.687-5.8-8.159.907-5.8,2.176,10.334.415,14.141,3.654,6.891,5.232-.181,6.682-19.763.543-22.3-4.9Z" transform="translate(-2355.944 -1230.21)" fill="#c4c4c4"/>
        <g id="Group_5793" data-name="Group 5793" transform="translate(1.758 9.103)">
          <path id="Path_6914" data-name="Path 6914" d="M2431.053,1279.99s-38.076,12.329-42.427,26.109a28.929,28.929,0,0,1-3.626,13.236v2.717s3.989-9.246,6.165-10.515C2391.165,1311.537,2382.643,1299.57,2431.053,1279.99Z" transform="translate(-2381.444 -1279.99)" fill="#ababab"/>
          <path id="Path_6915" data-name="Path 6915" d="M2369.113,1487.567a25.107,25.107,0,0,0-2.524,19.77l1.511-.406s-1.467-11.954,1.605-17.967S2369.113,1487.567,2369.113,1487.567Z" transform="translate(-2365.557 -1448.224)" fill="#699dee"/>
        </g>
      </g>
      <path id="Path_6916" data-name="Path 6916" d="M2283.306,1612.927a26.637,26.637,0,0,0,26.637-26.637H2256.67A26.635,26.635,0,0,0,2283.306,1612.927Z" transform="translate(-2229.514 -1521.173)" fill="#a7a7a7"/>
      <path id="Path_6917" data-name="Path 6917" d="M2304.356,1612.732a26.65,26.65,0,0,1-29.946-26.432h6.618A26.642,26.642,0,0,0,2304.356,1612.732Z" transform="translate(-2244.01 -1521.181)" fill="#ccc"/>
      <path id="Path_6918" data-name="Path 6918" d="M2305.373,1721.39h-47.437a3.287,3.287,0,0,0-3.286,3.286h54.01A3.287,3.287,0,0,0,2305.373,1721.39Z" transform="translate(-2227.864 -1631.567)" fill="#b1b1b1"/>
      <rect id="Rectangle_485" data-name="Rectangle 485" width="54.756" height="0.817" transform="translate(26.278 65.117)" fill="gray"/>
    </g>
    <g id="Group_5796" data-name="Group 5796" transform="translate(1283.064 3972.361)">
      <path id="Path_6919" data-name="Path 6919" d="M1317.146,941.755l-11.512,136.877s-1.207,8.3,4.965,8.312c10.147.024,50.508,0,50.508,0s-7.637-1.728-7.545-5.612c.109-4.581,13.454-140.871,13.454-140.871Z" transform="translate(-1192.143 -867.271)" fill="#888"/>
      <path id="Path_6920" data-name="Path 6920" d="M1379.209,1073.363c-2,.005-40.545.126-50.427,0-4.306-.053-5.062-3.829-5.1-6.273a12.094,12.094,0,0,1,.132-2.037l.3-3.557.763-9.067.673-8.012.867-10.294.73-8.688,8.18-97.261,49.871-1.295s-5.622,57.036-9.6,98.555c-.444,4.627-.867,9.062-1.256,13.2q-.189,1.983-.367,3.873c-.369,3.928-.706,7.536-1,10.72-.156,1.679-.3,3.239-.427,4.667-.506,5.6-.8,9.175-.808,9.855a5.7,5.7,0,0,0,.1,1.108C1372.66,1073.22,1378.459,1073.363,1379.209,1073.363Z" transform="translate(-1206.968 -856.174)" fill="#e1e1e1"/>
      <path id="Path_6921" data-name="Path 6921" d="M946.154,540.24H706.72l28.04,112.633L738.6,668.3l13.061,52.461H994.291Z" transform="translate(-702.832 -540.24)" fill="#fff"/>
      <path id="Path_6922" data-name="Path 6922" d="M689.346,540.24l-3.886,1.3,43.661,183.142,5.166-3.917Z" transform="translate(-685.46 -540.24)" fill="#d5d5d5"/>
      <path id="Path_6923" data-name="Path 6923" d="M924.21,1531.3h241.138l6.659-3.917H929.376Z" transform="translate(-880.549 -1346.859)" fill="#d5d5d5"/>
      <rect id="Rectangle_486" data-name="Rectangle 486" width="52.21" height="2.482" transform="translate(180.55 219.725) rotate(180)" fill="#b7b7b7"/>
      <path id="Path_6924" data-name="Path 6924" d="M1379.59,1548.8l-.271,1.9-49.1,9.919.673-8.01.322-3.806Z" transform="translate(-1212.311 -1364.362)" fill="#e6e6e6"/>
      <path id="Path_6925" data-name="Path 6925" d="M1379.216,1658.777c-2,.005-40.545.126-50.427,0-4.306-.053-5.062-3.829-5.1-6.273l48.869-9.195c-.507,5.6-.8,9.175-.808,9.855a5.718,5.718,0,0,0,.1,1.108C1372.667,1658.635,1378.466,1658.777,1379.216,1658.777Z" transform="translate(-1206.975 -1441.589)" fill="#dbdbdb"/>
      <path id="Path_6926" data-name="Path 6926" d="M1016.424,1333.352l-103.431,35.464-8.833-35.487Z" transform="translate(-864.166 -1188.295)" fill="#ebebeb" opacity="0.2"/>
      <path id="Path_6927" data-name="Path 6927" d="M946.145,540.24H706.71L742.8,685.275l242.036.048Z" transform="translate(-702.824 -540.24)" fill="#dbdbdb"/>
    </g>
    <path id="Path_6928" data-name="Path 6928" d="M1592.9,1405.083a8.2,8.2,0,0,0-7.695-6.443,5.155,5.155,0,0,0-5.19,6.443,8.2,8.2,0,0,0,7.7,6.443A5.155,5.155,0,0,0,1592.9,1405.083Z" transform="translate(-133.263 2730.7)" fill="#dcdcdc"/>
    <path id="Path_6929" data-name="Path 6929" d="M1018.023,713.763H793.84l-25.388-101.14-1.946-7.756-1.662-6.616L760.95,582.74H981.9l4.276,15.511L988,604.868l2.138,7.756Z" transform="translate(535.919 3397.395)" fill="#fff"/>
    <path id="Path_6930" data-name="Path 6930" d="M981.9,582.74H760.95l3.893,15.511H986.178Z" transform="translate(535.919 3397.395)" fill="#c4c4c4"/>
    <g id="Group_5797" data-name="Group 5797" transform="translate(1305.949 3985.206)">
      <path id="Path_6931" data-name="Path 6931" d="M812.118,610.47a1.465,1.465,0,0,0-1.456,1.938,2.647,2.647,0,0,0,2.423,1.938,1.465,1.465,0,0,0,1.456-1.938A2.65,2.65,0,0,0,812.118,610.47Z" transform="translate(-810.603 -610.47)" fill="#e9f3fe"/>
      <path id="Path_6932" data-name="Path 6932" d="M847.358,610.47a1.465,1.465,0,0,0-1.456,1.938,2.647,2.647,0,0,0,2.423,1.938,1.465,1.465,0,0,0,1.456-1.938A2.653,2.653,0,0,0,847.358,610.47Z" transform="translate(-839.398 -610.47)" fill="#e9f3fe"/>
      <path id="Path_6933" data-name="Path 6933" d="M887.711,612.409a2.647,2.647,0,0,0-2.423-1.938,1.465,1.465,0,0,0-1.456,1.938,2.647,2.647,0,0,0,2.423,1.938A1.464,1.464,0,0,0,887.711,612.409Z" transform="translate(-870.392 -610.47)" fill="#e9f3fe"/>
    </g>
    <g id="Group_5798" data-name="Group 5798" transform="translate(1539.018 4044.238)">
      <path id="Path_6934" data-name="Path 6934" d="M2358.526,1645.51l-2.333,9.83-3.495-.02-.128-9.809Z" transform="translate(-2303.656 -1515.262)" fill="#e49963"/>
      <path id="Path_6935" data-name="Path 6935" d="M2183.127,1642.023l-6.638,9.411-2.59-3.323,4-7.381Z" transform="translate(-2157.66 -1511.356)" fill="#e49963"/>
      <path id="Path_6936" data-name="Path 6936" d="M2301.833,934.374a6.771,6.771,0,0,1,3.665-.7,1.717,1.717,0,0,0-.774-.368,5.684,5.684,0,0,1,2.028.529c8.725-3.361,10.1,9.484,9.911,12.468s2.932,3.959,7.47,6.311c8.661,4.486,9.422,10.5,9.422,10.5-.068.04-.137.086-.212.137-.43-.728-1.315-2.1-2.062-2.3a30.9,30.9,0,0,1,1.2,2.922c-2.554,1.944-7.334,6.251-10.665,9.3a4.9,4.9,0,0,0-.227-1.891l-.411,2.478c-1.783,1.638-3.012,2.793-3.012,2.793.219-2.412-10.908-15.138-16.713-18.951-1.414-2.081-1.916-5.757-1.953-6.046a15.816,15.816,0,0,0,1.189,5.47C2295.773,952.5,2298.635,936.191,2301.833,934.374Z" transform="translate(-2259.102 -933.278)" fill="#3a3a3a"/>
      <path id="Path_6937" data-name="Path 6937" d="M2318.559,1028.9c-.029.013,2.8,1.483,4.934.9,2-.547,3.313-3.146,3.286-3.151-.848-.168-1.094-1.335-1.075-6.346l-.384.075-6.45,1.276s.146,2.03.152,3.943C2319.025,1027.2,2318.928,1028.723,2318.559,1028.9Z" transform="translate(-2275.865 -1004.386)" fill="#e49963"/>
      <path id="Path_6938" data-name="Path 6938" d="M2326.378,943.8a5.156,5.156,0,0,0-7.178-.174A28.067,28.067,0,0,1,2326.378,943.8Z" transform="translate(-2276.388 -940.606)" fill="#fff"/>
      <path id="Path_6939" data-name="Path 6939" d="M2320.26,1022s.146,2.03.151,3.943c3.61-.1,5.517-3.394,6.3-5.219Z" transform="translate(-2277.255 -1004.73)" fill="#d68d5d"/>
      <path id="Path_6940" data-name="Path 6940" d="M2309.228,957.644a18.983,18.983,0,0,0,2.346-5.545c.324-1.825-.605-8.588-7.4-7.615a9.22,9.22,0,0,0-3.829,1.448c-1.476,1-3.6,3.149-1.223,9.05l.618,1.993Z" transform="translate(-2259.106 -942.358)" fill="#163560"/>
      <path id="Path_6941" data-name="Path 6941" d="M2179.67,1336.395l3.42.1,3.7.113a73.061,73.061,0,0,0,13.344-24.776c.111-.355.23-.713.355-1.077,2.624-7.653,8.064-17.257,10.932-25.952.457-1.385.867-2.688,1.235-3.922.117-.395.232-.783.342-1.165a92.169,92.169,0,0,0,3.288-17.311l-20.7.167A386.288,386.288,0,0,1,2179.67,1336.395Z" transform="translate(-2162.375 -1202.221)" fill="#acacac"/>
      <path id="Path_6942" data-name="Path 6942" d="M2269.116,1078.379c.053,9.851-1.444,14.079-1.444,14.079a27.813,27.813,0,0,0,19.4,1.189c.124-.038,8.723-2,8.723-2-.176-.4-1.745-7.039-1.916-7.4-2.224-4.777-3.914-6.87-4.177-8.339a31.215,31.215,0,0,1-.256-8.253,66.129,66.129,0,0,1,2.554-12.962,67.539,67.539,0,0,1-8.548-2.92,6.671,6.671,0,0,1-4.61,1.71c-2.1-.046-2.78-.945-2.67-1.926-2.236,1.245-4.021,2.419-4.021,2.419-1.9,3.3-5.755,6.509-6.035,11.572C2266.047,1066.787,2269.115,1078.1,2269.116,1078.379Z" transform="translate(-2233.01 -1029.921)" fill="#f6f6f6"/>
      <path id="Path_6943" data-name="Path 6943" d="M2138.421,1063.744c3.039-3.55,10.914-11.25,19.039-12.194l-7.011,13.661a6.047,6.047,0,0,1-2.47,3.705,40.683,40.683,0,0,1-11.552,4.821,60.747,60.747,0,0,1-10.365-6.3c-1.88-1.377-5.181-6.629-5.181-6.629l.891-2.981s5.6,3.135,7.607,4.038c1.141.516,3.769,1.745,5.619,2.615A2.891,2.891,0,0,0,2138.421,1063.744Z" transform="translate(-2114.336 -1029.921)" fill="#c7c7c7"/>
      <path id="Path_6944" data-name="Path 6944" d="M2300.963,973.212s8.54.141,8.545-5.179,1.112-8.884-4.34-9.2-6.514,1.714-6.947,3.489S2298.741,973.039,2300.963,973.212Z" transform="translate(-2259.162 -954.135)" fill="#e49963"/>
      <path id="Path_6945" data-name="Path 6945" d="M2315.39,953.43s2.339,6.241,5.927,7.163,5.146-.038,5.146-.038a10.17,10.17,0,0,1-3.325-6S2317.154,950.46,2315.39,953.43Z" transform="translate(-2273.275 -948.861)" fill="#363636"/>
      <path id="Path_6946" data-name="Path 6946" d="M2299.237,956.483a7.546,7.546,0,0,0-2.173,2.749c-.426,1.355-.618,4.144-1.43,4.049,0,0-1.761-4.243.218-6.642C2297.953,954.092,2299.237,956.483,2299.237,956.483Z" transform="translate(-2256.542 -951.408)" fill="#363636"/>
      <path id="Path_6947" data-name="Path 6947" d="M2092.527,1068.962a5.331,5.331,0,0,0-5.975-3.727c-.547.172-2.147.81-1.125,2.522.754,1.262,1.081.611,2.266,2.308a3.775,3.775,0,0,0,3.942,1.876Z" transform="translate(-2085.094 -1041.055)" fill="#e49963"/>
      <path id="Path_6948" data-name="Path 6948" d="M2352.815,1696.25a9.476,9.476,0,0,0,.444,4.031s.573,2.606-1.995,2.656-3.2-.194-2.906-1.792.843-4.363.843-4.363Z" transform="translate(-2300.161 -1556.723)" fill="#e49963"/>
      <path id="Path_6949" data-name="Path 6949" d="M2347.321,1721.765a1.672,1.672,0,0,0,.161.086h5.025a1.08,1.08,0,0,0,.143-.086,12.577,12.577,0,0,0-.185-3.769c-2.908,2.664-4.728-.066-4.728-.066A13.664,13.664,0,0,0,2347.321,1721.765Z" transform="translate(-2299.365 -1574.439)" fill="#434343"/>
      <path id="Path_6950" data-name="Path 6950" d="M2140.072,1689.018s4.733-5.254,6.187-7.928l3.521,1.8-7.867,7.388-1.842-.241Z" transform="translate(-2130.017 -1544.336)" fill="#e49963"/>
      <path id="Path_6951" data-name="Path 6951" d="M2124.02,1699.795h6.477a9.2,9.2,0,0,0,1.931-2.994,3.179,3.179,0,0,1,2.144-1.432v4.375h1.344l1.273-4.651c.838-1.54.066-2.937-.525-4.153-.686,0-2.531.468-6.028,4.407a4.584,4.584,0,0,1-3.679,1.715.429.429,0,0,1-.052.027C2124.8,1698.041,2124.192,1699.219,2124.02,1699.795Z" transform="translate(-2116.902 -1552.384)" fill="#434343"/>
      <path id="Path_6952" data-name="Path 6952" d="M2263.323,1051.54s-4.942,12.207-5.086,14.677-.582,40.4-.582,40.4.292,1.745-3.052,1.017-4.213-1.454-4.213-1.454,3.2-23.4,2.324-31.533,6.684-21.411,6.684-21.411Z" transform="translate(-2220.162 -1029.913)" fill="#929292"/>
      <path id="Path_6953" data-name="Path 6953" d="M2198.36,1403.522l3.7.113a73.052,73.052,0,0,0,13.344-24.775q.167-.532.355-1.077c2.624-7.653,8.065-17.258,10.932-25.951.457-1.384.866-2.688,1.234-3.923.117-.4.233-.783.342-1.165l-3.048-2.313s-9.153,14.822-11.988,28.771C2210.77,1385.317,2200.913,1399.9,2198.36,1403.522Z" transform="translate(-2177.647 -1269.242)" fill="#7d7d7d"/>
      <path id="Path_6954" data-name="Path 6954" d="M2251.51,1151.576l.179.552,9.583-3.115a.37.37,0,0,0,.061-.342.272.272,0,0,0-.24-.212Z" transform="translate(-2221.077 -1109.109)" fill="#3d3d3d"/>
      <path id="Path_6955" data-name="Path 6955" d="M2334.4,1356.905c-.053,6.783.291,22.378,1.174,28.835h3.279c1.812,0,2.716-.025,2.716-.025,2.217-11.227,3.792-20.515,4.941-28.519.942-6.569,1.78-12.2,2.423-17.047.647-4.879,1.1-8.962,1.26-12.415q.038-.814.053-1.585c.011-.516.013-1.017.01-1.5l-17.889-1.745C2332.595,1334.787,2334.433,1352.962,2334.4,1356.905Z" transform="translate(-2287.15 -1251.649)" fill="#acacac"/>
      <path id="Path_6956" data-name="Path 6956" d="M2367.84,1407.337c1.812,0,2.716-.026,2.716-.026,2.217-11.227,3.793-20.515,4.941-28.519.942-6.569,1.78-12.2,2.423-17.047.647-4.879,1.1-8.963,1.26-12.415l-6.563,3.86s4.189,1.478,2.591,12.668S2370.066,1405.754,2367.84,1407.337Z" transform="translate(-2316.134 -1273.245)" fill="#7d7d7d"/>
      <path id="Path_6957" data-name="Path 6957" d="M2335.909,1107.017s1.26,4.554,5.62,3.972,10.559-3.2,10.559-3.2-1.864-5.886-4.179-13.62c-2.805-9.363-6.276-21.433-7.913-29.046a47.014,47.014,0,0,1-.889-5.19l-3.617-7.017s-5.393,12.1-5.684,15.155S2335.909,1107.017,2335.909,1107.017Z" transform="translate(-2285.048 -1031.041)" fill="#929292"/>
      <path id="Path_6958" data-name="Path 6958" d="M2311.74,1067.6l-4.773-14.7a73.614,73.614,0,0,1,9.056,3.319s1.89,2.439,3.061,8.065c0,0,1.236,13.507-1.525,18.448,0,0-8.72,1.745-22.669-3.052v-3.2s15.259.8,18.382,1.163Z" transform="translate(-2256.524 -1031.024)" fill="#e49963"/>
      <path id="Path_6959" data-name="Path 6959" d="M2364.262,1129c.194,4.941,1.357,14.531,11.723,19.666.027.013.055.028.082.038-2.805-9.363-6.277-21.433-7.913-29.046C2366.252,1122.505,2364.157,1126.28,2364.262,1129Z" transform="translate(-2313.207 -1085.576)" fill="#b9b9b9"/>
      <path id="Path_6960" data-name="Path 6960" d="M2358.63,1052.9s8.849.624,10.98,5.371,2.809,20.539.1,25.189c0,0-3.734,1.064-10.339-.172l-.245-.046s-2.107-5.159-.218-6.176c0,0,5.571.291,4.989-1.551S2358.63,1052.9,2358.63,1052.9Z" transform="translate(-2308.189 -1031.024)" fill="#c7c7c7"/>
      <path id="Path_6961" data-name="Path 6961" d="M2269.341,1159.425a7.625,7.625,0,0,1-1.473-2.977,3.239,3.239,0,0,0-3.162-2.9c-2.1-.276-3-.305-3,.285a15.666,15.666,0,0,0,4.726,7.187C2269.446,1163.49,2269.341,1159.425,2269.341,1159.425Z" transform="translate(-2229.412 -1113.115)" fill="#e49963"/>
      <path id="Path_6962" data-name="Path 6962" d="M2247.74,1166.034l.69-.534.179.554Z" transform="translate(-2217.996 -1123.033)" fill="#163560"/>
    </g>
    <path id="Path_6963" data-name="Path 6963" d="M1857.684,934.126a.389.389,0,0,1-.208-.059l-55.961-34.029a.4.4,0,1,1,.419-.689l55.961,34.029a.4.4,0,0,1-.21.748Z" transform="translate(-314.196 3138.732)" fill="#163560"/>
    <g id="Group_5801" data-name="Group 5801" transform="translate(1331.143 4017.528)">
      <g id="Group_5799" data-name="Group 5799" transform="translate(0 3.69)">
        <path id="Path_6964" data-name="Path 6964" d="M1004.406,821.37c-1.185,1-3.584,2.89-4.542,3.69l2.427,30.353-24.982-11.166-4.543,3.69a30.453,30.453,0,1,0,59.975,7.476C1032.74,838.6,1021.223,821.37,1004.406,821.37Z" transform="translate(-967.548 -818.815)" fill="#b1b1b1"/>
        <path id="Path_6965" data-name="Path 6965" d="M975.466,807.4a30.466,30.466,0,0,0-27.1,22.877l29.525,7.476,4.543-3.69Z" transform="translate(-948.37 -807.4)" fill="#b4b4b4"/>
      </g>
      <g id="Group_5800" data-name="Group 5800" transform="translate(4.543)">
        <path id="Path_6966" data-name="Path 6966" d="M1027.13,820.85q-1.226,0-2.427.1l2.427,30.353-29.525-7.476a30.454,30.454,0,1,0,29.525-22.974Z" transform="translate(-992.388 -814.7)" fill="#d2d2d2"/>
        <path id="Path_6967" data-name="Path 6967" d="M1000.306,787.22a30.466,30.466,0,0,0-27.1,22.877l29.525,7.476Z" transform="translate(-973.21 -787.22)" fill="#5e5e5e"/>
      </g>
    </g>
    <path id="Path_6968" data-name="Path 6968" d="M1099.738,766.471a.4.4,0,0,1-.285-.689l18.181-18.181h116.929a.4.4,0,0,1,0,.8H1117.969l-17.945,17.945A.4.4,0,0,1,1099.738,766.471Z" transform="translate(259.414 3262.683)" fill="#163560"/>
    <path id="Path_6969" data-name="Path 6969" d="M1293.748,945.472a.4.4,0,0,1-.285-.689l19.573-19.573h86.186a.4.4,0,1,1,0,.8h-85.851l-19.335,19.335A.39.39,0,0,1,1293.748,945.472Z" transform="translate(100.885 3117.554)" fill="#163560"/>
    <path id="Path_6970" data-name="Path 6970" d="M1307.96,714.719H1188.619l-2.419-3.709h119.341Z" transform="translate(188.437 3292.581)" fill="#e5e5e5"/>
    <path id="Path_6971" data-name="Path 6971" d="M1475.971,895.06H1389.69l-2.419-3.711h86.281Z" transform="translate(24.136 3145.219)" fill="#e5e5e5"/>
    <path id="Path_6972" data-name="Path 6972" d="M1518.158,1035.1h-31.792L1471.05,980.63h31.792Z" transform="translate(-44.323 3072.268)" fill="#e5e5e5"/>
    <path id="Path_6973" data-name="Path 6973" d="M1736.278,1035.1h-31.793L1689.17,980.63h31.792Z" transform="translate(-222.555 3072.268)" fill="#e5e5e5"/>
    <g id="Group_5802" data-name="Group 5802" transform="translate(1465.171 4033.255)">
      <path id="Path_6974" data-name="Path 6974" d="M1816.55,1009.31s10.811,12.134,11.331,16.773-5.148,11.9-5.148,11.9Z" transform="translate(-1791.81 -984.424)" fill="#b9b9b9"/>
      <path id="Path_6975" data-name="Path 6975" d="M1726.8,1697.985a28.265,28.265,0,0,1-.9,5.848H1712.39a2.508,2.508,0,0,1,1.991-1.575c2.118-.408,5.66-2.046,6.942-5.129C1722.675,1693.884,1726.8,1697.985,1726.8,1697.985Z" transform="translate(-1706.699 -1545.438)" fill="#777"/>
      <path id="Path_6976" data-name="Path 6976" d="M1815.022,1697.985a28.335,28.335,0,0,1-.894,5.848H1800.61a2.506,2.506,0,0,1,1.991-1.575c2.116-.408,5.66-2.046,6.942-5.129C1810.893,1693.884,1815.022,1697.985,1815.022,1697.985Z" transform="translate(-1778.786 -1545.438)" fill="#777"/>
      <path id="Path_6977" data-name="Path 6977" d="M1747.35,1278.153s1.895,13.35,8.96,37.048,8.028,33.961,8.028,33.961l7.58-.234s.064-25.9-3.191-37.816-.7-42.962-.7-42.962Z" transform="translate(-1735.266 -1195.929)" fill="#828282"/>
      <path id="Path_6978" data-name="Path 6978" d="M1727.154,1272.15a356.394,356.394,0,0,0,2.891,44.818c3.16,24.7,2.089,35.186,2.089,35.186l7.565.278s4.521-24.71,3.224-37.074,6.19-42.425,6.19-42.425Z" transform="translate(-1718.758 -1199.197)" fill="#b2b2b2"/>
      <path id="Path_6979" data-name="Path 6979" d="M1763.225,970.266l-4.031,2.913-5.824-1.2c.08-.517.464-2.666.816-4.612.022-.115.042-.23.062-.342.3-1.655.559-3.078.559-3.078l5.44-2.646,2.028-.986c-.005.035-.157,1.838-.179,2.1A16.64,16.64,0,0,0,1763.225,970.266Z" transform="translate(-1740.184 -944.392)" fill="#ffb27d"/>
      <path id="Path_6980" data-name="Path 6980" d="M1746.229,1056.736c-1.17,5.881-20.639,6.578-25.659,1.24-.571-.609-.6-3.44-.384-7.256.421-7.458,1.774-18.677,1.827-24.408a49.856,49.856,0,0,1,.83-8.169,71.686,71.686,0,0,1,2.469-9.778s9.509-3.389,11.289-2.811C1745.176,1008.328,1747.4,1050.855,1746.229,1056.736Z" transform="translate(-1712.968 -981.3)" fill="#afafaf"/>
      <path id="Path_6981" data-name="Path 6981" d="M1720.75,1102.3c.42-7.458,1.774-18.677,1.827-24.408a49.916,49.916,0,0,1,.83-8.169l5.72-1.112S1734.719,1093.784,1720.75,1102.3Z" transform="translate(-1713.53 -1032.879)" fill="#d8d8d8"/>
      <path id="Path_6982" data-name="Path 6982" d="M1730.406,1191.6a1.591,1.591,0,0,1-.43,1.717,3,3,0,0,0-1.163,2.624c.188.816,1.984,2.149,2.606,1.933s1.889-1.291,1.754-1.721.852-3.78-.666-5.069A1.2,1.2,0,0,0,1730.406,1191.6Z" transform="translate(-1720.088 -1132.578)" fill="#ffb27d"/>
      <path id="Path_6983" data-name="Path 6983" d="M1697.981,1012.96s-5.579,1.15-10.025,8.37-7.37,12.587-6.55,15.189,8.282,11.625,9.57,11.625a3.567,3.567,0,0,0,3.48-3.352s-5.256-8.679-4.221-9.979c.443-.556,6.823-6.264,7.734-3.685C1699.477,1035.395,1697.981,1012.96,1697.981,1012.96Z" transform="translate(-1681.268 -987.406)" fill="#aaa"/>
      <path id="Path_6984" data-name="Path 6984" d="M1765.333,966.905c-1.194,2.231-5.647,4.158-7.5,4.868.022-.115.042-.23.062-.342.3-1.655.559-3.078.559-3.078l5.441-2.646C1765.094,965.691,1765.825,965.987,1765.333,966.905Z" transform="translate(-1743.829 -948.794)" fill="#fca56b"/>
      <path id="Path_6985" data-name="Path 6985" d="M1745.113,907.166s8.763,3.012,10.382-3.03,3.841-9.725-1.688-11.9-7.236-.229-8.222,1.644S1742.874,906.226,1745.113,907.166Z" transform="translate(-1732.542 -887.97)" fill="#ffb27d"/>
      <path id="Path_6986" data-name="Path 6986" d="M1750.788,878.546s.559,7.033,1.878,6.728,2.516-.532,2.322,1.587-2.023,4.568,2.044,4.943,9.914-11.185,8.8-13.372C1762.607,872.117,1746.128,870.844,1750.788,878.546Z" transform="translate(-1737.401 -873.224)" fill="#676767"/>
      <path id="Path_6987" data-name="Path 6987" d="M1751.11,997.522c.114-.053,7.015-2.3,7.765-2.024s1.194,1.871,1.194,1.871l-11.289,2.812A6.025,6.025,0,0,1,1751.11,997.522Z" transform="translate(-1736.434 -973.118)" fill="#9b9b9b"/>
    </g>
    <path id="Path_7006" data-name="Path 7006" d="M538.133,1739.348H145.681a.4.4,0,0,1-.351-.439h0a.4.4,0,0,1,.351-.439H538.133a.4.4,0,0,1,.351.439h0A.4.4,0,0,1,538.133,1739.348Z" transform="translate(1137.734 2453.016)" fill="#283250"/>
  </g>
</svg>
