<svg id="email_5_" data-name="email (5)" xmlns="http://www.w3.org/2000/svg" width="51.17" height="51.17" viewBox="0 0 51.17 51.17">
  <path id="Path_5598" data-name="Path 5598" d="M154.27,144H133.625l10.323,8.848Zm0,0" transform="translate(-118.363 -127.552)" fill="#fff"/>
  <path id="Path_5599" data-name="Path 5599" d="M131.879,163.283a.912.912,0,0,1-.595-.22L120,153.391v17.2h23.758v-17.2l-11.284,9.672a.912.912,0,0,1-.595.22Zm0,0" transform="translate(-106.294 -135.871)" fill="#fff"/>
  <path id="Path_5600" data-name="Path 5600" d="M25.585,0A25.585,25.585,0,1,0,51.17,25.585,25.585,25.585,0,0,0,25.585,0ZM39.291,35.636a.914.914,0,0,1-.914.914H12.792a.914.914,0,0,1-.914-.914v-20.1a.914.914,0,0,1,.914-.914H38.377a.914.914,0,0,1,.914.914Zm0,0" fill="#fff"/>
</svg>
