<svg xmlns="http://www.w3.org/2000/svg" width="66.696" height="66.68" viewBox="0 0 66.696 66.68">
  <g id="goal" transform="translate(0 -0.063)">
    <g id="Group_4946" data-name="Group 4946" transform="translate(56.17 49.161)">
      <g id="Group_4945" data-name="Group 4945">
        <path id="Path_5173" data-name="Path 5173" d="M433.416,377.35a1.3,1.3,0,1,0,.382.921A1.314,1.314,0,0,0,433.416,377.35Z" transform="translate(-431.193 -376.968)"/>
      </g>
    </g>
    <g id="Group_4948" data-name="Group 4948" transform="translate(0 0.063)">
      <g id="Group_4947" data-name="Group 4947" transform="translate(0 0)">
        <path id="Path_5174" data-name="Path 5174" d="M65.873,64.236l-7.1-2.92V55.471a1.3,1.3,0,0,0-2.6,0v4.772l-3.647-1.5V44.907a1.3,1.3,0,1,0-2.6,0V57.672l-3.647-1.5V42.389h9.9v2.737a1.3,1.3,0,1,0,2.6,0V41.1s0,0,0-.007,0-.005,0-.008h0l0-9.641L66.235,18.28a3.56,3.56,0,0,0,.462-1.752,3.552,3.552,0,0,0-6.366-2.168l-2.07,2.552a1.3,1.3,0,0,0,.01-.152v-.585a7.027,7.027,0,0,0-8.624-6.849l-3.327-3.2,3.841-3.84A1.3,1.3,0,0,0,49.238.063h-11.6a1.3,1.3,0,0,0-1.3,1.3V3.978H33.357a1.3,1.3,0,0,0-1.3,1.3V23.188a3.8,3.8,0,0,0-1.228-.2H20.935a7,7,0,0,0,1.574-4.428V16.987c0-.038,0-.076-.006-.113s.006-.075.006-.113v-.585a7.033,7.033,0,1,0-14.065,0v.585c0,.038,0,.076.006.113,0,.017,0,.034,0,.051l-2.08-2.564a3.5,3.5,0,0,0-3.948-1.2A3.506,3.506,0,0,0,0,16.529,3.56,3.56,0,0,0,.463,18.28L7.924,31.445V61.311L.808,64.235a1.3,1.3,0,1,0,.99,2.409l31.559-12.97,31.526,12.97a1.3,1.3,0,1,0,.991-2.409ZM51.237,11.747a4.435,4.435,0,0,1,4.37,3.711H54.166a4.982,4.982,0,0,1-3.827-1.786,1.3,1.3,0,0,0-2.3.837.888.888,0,0,1-.861.891l-.3.01A4.435,4.435,0,0,1,51.237,11.747Zm-4.444,6.272L47.267,18a3.484,3.484,0,0,0,2.59-1.278,7.58,7.58,0,0,0,4.309,1.338h1.483v.493a4.428,4.428,0,1,1-8.856,0v-.537Zm5.385,7.569-.966,3.1-.965-3.1ZM46.094,2.668,43.538,5.224a1.3,1.3,0,0,0,.018,1.859l2.45,2.357H38.94V2.668ZM34.659,15.7h7.257a1.3,1.3,0,0,0,1.3-1.3V12.044h2.332A6.993,6.993,0,0,0,44.2,16.175v.585c0,.007,0,.015,0,.022a1.308,1.308,0,0,0-.018.2v1.569a7,7,0,0,0,1.574,4.428H35.871a3.8,3.8,0,0,0-1.212.2V15.7Zm0-9.117h1.677v4.159a1.3,1.3,0,0,0,1.3,1.3h2.976v1.05H34.659ZM15.476,11.747a4.435,4.435,0,0,1,4.362,3.663l-.3-.01a.888.888,0,0,1-.861-.891,1.3,1.3,0,0,0-2.3-.837,4.981,4.981,0,0,1-3.827,1.786H11.106A4.435,4.435,0,0,1,15.476,11.747Zm-4.428,6.315h1.5a7.581,7.581,0,0,0,4.309-1.338A3.484,3.484,0,0,0,19.447,18l.457.016v.537a4.428,4.428,0,1,1-8.856,0v-.493Zm5.393,7.526-.965,3.1-.966-3.1Zm3.983,30.585-3.647,1.5V44.907a1.3,1.3,0,1,0-2.6,0V58.742l-3.647,1.5V42.389h9.9V56.173Zm0-25.505v9.116h-9.9V31.1a1.3,1.3,0,0,0-.169-.642L2.729,17a.949.949,0,0,1-.123-.467.921.921,0,0,1,.645-.9.921.921,0,0,1,1.057.324l.025.032,7.24,8.925,2.661,8.545a1.3,1.3,0,0,0,2.487,0l2.449-7.869H30.826A1.212,1.212,0,0,1,31,28l-9.462,1.379A1.3,1.3,0,0,0,20.424,30.668ZM43.667,41.094s0,.006,0,.008v14l-9.815-4.038a1.3,1.3,0,0,0-.991,0L23.03,55.1v-14c0-.006,0-9.309,0-9.309l8.347-1.217a3.772,3.772,0,0,0,.678-.164V41.866a1.3,1.3,0,0,0,2.6,0V30.418a3.758,3.758,0,0,0,.661.159l8.347,1.217v9.292h0S43.667,41.091,43.667,41.094Zm1.491-11.715L35.7,28a1.212,1.212,0,0,1,.175-2.411H47.519l2.449,7.869a1.3,1.3,0,0,0,2.487,0l2.656-8.529,7.253-8.941.025-.032a.948.948,0,0,1,1.7.574.948.948,0,0,1-.123.467L56.338,30.46a1.3,1.3,0,0,0-.169.642v8.682h-9.9V30.668A1.3,1.3,0,0,0,45.158,29.379Z" transform="translate(0 -0.063)"/>
      </g>
    </g>
    <g id="Group_4950" data-name="Group 4950" transform="translate(32.055 45.905)">
      <g id="Group_4949" data-name="Group 4949">
        <path id="Path_5175" data-name="Path 5175" d="M248.294,352.356a1.3,1.3,0,1,0,.382.921A1.312,1.312,0,0,0,248.294,352.356Z" transform="translate(-246.071 -351.974)"/>
      </g>
    </g>
  </g>
</svg>
