<svg xmlns="http://www.w3.org/2000/svg" xmlns:xlink="http://www.w3.org/1999/xlink" width="733.964" height="561" viewBox="0 0 733.964 561">
  <defs>
    <linearGradient id="linear-gradient" x1="-78.476" y1="0.5" x2="-77.476" y2="0.5" gradientUnits="objectBoundingBox">
      <stop offset="0" stop-color="#ff928e"/>
      <stop offset="1" stop-color="#feb3b1"/>
    </linearGradient>
    <linearGradient id="linear-gradient-2" x1="-85.189" y1="0.5" x2="-84.189" y2="0.5" xlink:href="#linear-gradient"/>
    <linearGradient id="linear-gradient-3" x1="-21.966" y1="0.5" x2="-20.966" y2="0.5" xlink:href="#linear-gradient"/>
    <linearGradient id="linear-gradient-4" x1="-36.482" y1="0.5" x2="-35.482" y2="0.5" xlink:href="#linear-gradient"/>
    <linearGradient id="linear-gradient-5" x1="1.122" y1="-1.063" x2="0.281" y2="1.294" xlink:href="#linear-gradient"/>
    <linearGradient id="linear-gradient-6" x1="2.899" y1="-0.089" x2="0.396" y2="0.511" xlink:href="#linear-gradient"/>
    <linearGradient id="linear-gradient-7" x1="-106.533" y1="-56.382" x2="-103.281" y2="-58.77" xlink:href="#linear-gradient"/>
  </defs>
  <g id="Group_4237" data-name="Group 4237" transform="translate(-351.309 -2054.443)">
    <path id="Path_3564" data-name="Path 3564" d="M818.208,492.579c-67.471-53.125-64.176-19.732-53.662-93.11s22.942-282.4-124.426-273.506-154.32,109.225-271.4,42.741S105.163,276.345,183.725,384.394C259.532,488.656,2.807,494.137,173.257,636.2c12.626,10.523,27.3,16.446,42.472,16.446,0,0,578.514-1.952,579.194-1.952C856.687,650.5,863.6,528.322,818.208,492.579Z" transform="translate(237.725 1928.755)" fill="#f8f8f8"/>
    <ellipse id="_x3C_Path_x3E__352_" cx="307.674" cy="12.589" rx="307.674" ry="12.589" transform="translate(366.654 2590.265)" fill="#e9e9e9"/>
    <g id="Group_3823" data-name="Group 3823" transform="translate(569.19 2299.652)">
      <path id="Path_3565" data-name="Path 3565" d="M1930.775,816.63c.281-2.87-4.355-4.746-6.247-2.524-18.285,21.489-68.594,76.3-121.25,95.658-85.733,31.522-163.127,105.869-139.659,168.2C1663.622,1077.964,1900.271,1129.5,1930.775,816.63Z" transform="translate(-1659.364 -813.128)" fill="#e1e1e1"/>
      <path id="Path_3566" data-name="Path 3566" d="M1953.153,900.709c-.421.837-.833,1.447-1.246,2.153l-1.27,2.029-2.6,4.012c-1.752,2.66-3.546,5.291-5.352,7.918-3.609,5.25-7.336,10.412-11.085,15.563q-11.344,15.377-23.506,30.136a699.086,699.086,0,0,1-51.637,56.359c-9.118,8.92-18.6,17.452-28.285,25.753q-14.586,12.377-30.07,23.654-15.569,11.128-32.074,20.862c-5.588,3.085-11.114,6.268-16.858,9.044-5.641,2.981-11.517,5.468-17.324,8.087a.468.468,0,0,1-.619-.235.463.463,0,0,1,.227-.615l.016-.008a378.5,378.5,0,0,0,33.572-17.947q16.231-9.94,31.579-21.229c10.169-7.588,20.145-15.435,29.77-23.712,9.608-8.293,18.944-16.895,28.095-25.7q13.651-13.274,26.6-27.258l6.429-7.027,6.326-7.122c4.185-4.775,8.363-9.563,12.445-14.429q12.285-14.567,23.856-29.724c3.847-5.056,7.674-10.128,11.385-15.287q2.79-3.866,5.51-7.773l2.7-3.922,1.319-1.979c.417-.651.891-1.365,1.217-1.934l.066-.115a.465.465,0,0,1,.631-.173A.48.48,0,0,1,1953.153,900.709Z" transform="translate(-1701.569 -864.197)" fill="#959595"/>
    </g>
    <g id="Group_3842" data-name="Group 3842" transform="translate(431.804 2160.797)">
      <path id="Path_3573" data-name="Path 3573" d="M1033.909,166.357a15.824,15.824,0,0,0-11.36-4.8l-324.167.19a15.823,15.823,0,0,0-15.807,16.317l12.849,414.109a15.686,15.686,0,0,0,15.817,15.171h299.153a15.687,15.687,0,0,0,15.82-15.2l12.166-414.382A15.631,15.631,0,0,0,1033.909,166.357Z" transform="translate(-682.567 -161.56)" fill="#b4b4b4"/>
      <path id="Path_3574" data-name="Path 3574" d="M1051.332,224.4a14.462,14.462,0,0,0-10.384-4.384l-296.291.173a14.469,14.469,0,0,0-14.451,14.914l11.746,378.451A14.325,14.325,0,0,0,756.41,627.41h273.425a14.325,14.325,0,0,0,14.458-13.875l11.12-378.708A14.269,14.269,0,0,0,1051.332,224.4Z" transform="translate(-714.332 -200.545)" fill="#fff"/>
      <g id="Group_3840" data-name="Group 3840" transform="translate(44.804 28.956)">
        <g id="Group_3830" data-name="Group 3830" transform="translate(101.055)">
          <ellipse id="Ellipse_136" data-name="Ellipse 136" cx="32.05" cy="32.05" rx="32.05" ry="32.05" fill="#d5d5d5"/>
        </g>
        <g id="Group_3831" data-name="Group 3831" transform="translate(101.055 316.469)">
          <ellipse id="Ellipse_138" data-name="Ellipse 138" cx="32.05" cy="32.05" rx="32.05" ry="32.05" fill="#d5d5d5"/>
        </g>
        <path id="Path_3575" data-name="Path 3575" d="M1142.644,565.8l-37.094,36.911,36.911,37.094,37.094-36.911Z" transform="translate(-1009.446 -460.092)" fill="#d5d5d5"/>
        <g id="Group_3832" data-name="Group 3832" transform="translate(197.602 212.416)">
          <path id="Path_3577" data-name="Path 3577" d="M1477.608,906.561A20.44,20.44,0,0,1,1457.168,927h-26.5a20.44,20.44,0,0,1-20.441-20.441h0a20.44,20.44,0,0,1,20.441-20.441h26.5a20.44,20.44,0,0,1,20.441,20.441Z" transform="translate(-1410.23 -886.12)" fill="#d5d5d5"/>
        </g>
        <g id="Group_3833" data-name="Group 3833" transform="translate(99.939 212.416)">
          <path id="Path_3579" data-name="Path 3579" d="M1184.439,906.561A20.44,20.44,0,0,1,1164,927h-26.5a20.44,20.44,0,0,1-20.441-20.441h0A20.44,20.44,0,0,1,1137.5,886.12H1164a20.442,20.442,0,0,1,20.441,20.441Z" transform="translate(-1117.06 -886.12)" fill="#d5d5d5"/>
        </g>
        <g id="Group_3834" data-name="Group 3834" transform="translate(0 212.416)">
          <path id="Path_3581" data-name="Path 3581" d="M884.439,906.561A20.44,20.44,0,0,1,864,927H837.5a20.44,20.44,0,0,1-20.441-20.441h0A20.44,20.44,0,0,1,837.5,886.12H864a20.44,20.44,0,0,1,20.441,20.441Z" transform="translate(-817.06 -886.12)" fill="#d5d5d5"/>
        </g>
        <g id="Group_3835" data-name="Group 3835" transform="translate(128.454 67.432)">
          <path id="Path_3583" data-name="Path 3583" d="M1215.906,481.941a1.137,1.137,0,0,1-1.136-1.136V452.036a1.136,1.136,0,1,1,2.272,0V480.8A1.135,1.135,0,0,1,1215.906,481.941Z" transform="translate(-1210.736 -450.9)" fill="#40394a"/>
          <path id="Path_3584" data-name="Path 3584" d="M1211.961,527.03l-4.651,8.058-4.65-8.058Z" transform="translate(-1202.66 -501.669)" fill="#40394a"/>
        </g>
        <g id="Group_3836" data-name="Group 3836" transform="translate(128.454 181.752)">
          <path id="Path_3585" data-name="Path 3585" d="M1215.906,817.542a1.137,1.137,0,0,1-1.136-1.136v-21.2a1.136,1.136,0,0,1,2.272,0v21.2A1.135,1.135,0,0,1,1215.906,817.542Z" transform="translate(-1210.736 -794.07)" fill="#40394a"/>
          <path id="Path_3586" data-name="Path 3586" d="M1211.961,847.48l-4.651,8.055-4.65-8.055Z" transform="translate(-1202.66 -829.687)" fill="#40394a"/>
        </g>
        <g id="Group_3837" data-name="Group 3837" transform="translate(127.292 277.147)">
          <path id="Path_3587" data-name="Path 3587" d="M1211.366,1110.714a1.137,1.137,0,0,1-1.136-1.136v-28.013a1.136,1.136,0,1,1,2.272,0v28.013A1.135,1.135,0,0,1,1211.366,1110.714Z" transform="translate(-1206.546 -1080.43)" fill="#40394a"/>
          <path id="Path_3588" data-name="Path 3588" d="M1208.471,1154.3l-4.651,8.055-4.65-8.055Z" transform="translate(-1199.17 -1129.692)" fill="#40394a"/>
        </g>
        <g id="Group_3838" data-name="Group 3838" transform="translate(24.731 141.25)">
          <path id="Path_3589" data-name="Path 3589" d="M904.546,728.892a1.137,1.137,0,0,1-1.136-1.136v-54.13a1.137,1.137,0,0,1,1.136-1.136h62.462a1.136,1.136,0,0,1,0,2.272H905.682v53A1.132,1.132,0,0,1,904.546,728.892Z" transform="translate(-899.376 -672.49)" fill="#40394a"/>
          <path id="Path_3590" data-name="Path 3590" d="M900.6,836.12l-4.654,8.055-4.65-8.055Z" transform="translate(-891.3 -781.61)" fill="#40394a"/>
        </g>
        <g id="Group_3839" data-name="Group 3839" transform="translate(174.506 141.247)">
          <path id="Path_3591" data-name="Path 3591" d="M1404.5,728.885a1.137,1.137,0,0,1-1.136-1.136v-53h-61.326a1.136,1.136,0,1,1,0-2.272H1404.5a1.138,1.138,0,0,1,1.136,1.136v54.133A1.133,1.133,0,0,1,1404.5,728.885Z" transform="translate(-1340.9 -672.48)" fill="#40394a"/>
          <path id="Path_3592" data-name="Path 3592" d="M1518.24,836.12l4.65,8.055,4.651-8.055Z" transform="translate(-1459.163 -781.607)" fill="#40394a"/>
        </g>
        <path id="Path_3593" data-name="Path 3593" d="M1110.478,1041.406h-208.2a1.137,1.137,0,0,1-1.136-1.136v-20.064a1.136,1.136,0,1,1,2.272,0v18.928h205.93v-18.928a1.136,1.136,0,1,1,2.272,0v20.064A1.137,1.137,0,0,1,1110.478,1041.406Z" transform="translate(-873.131 -762.364)" fill="#40394a"/>
      </g>
      <g id="Group_3841" data-name="Group 3841" transform="translate(34.203 38.47)">
        <path id="Path_3594" data-name="Path 3594" d="M873.063,282.087a4.793,4.793,0,0,1-4.794,4.794H790.034a4.793,4.793,0,0,1-4.794-4.794v-.253a4.793,4.793,0,0,1,4.794-4.794h78.232a4.793,4.793,0,0,1,4.794,4.794v.253Z" transform="translate(-785.24 -277.04)" fill="#a4a4a4"/>
        <path id="Path_3595" data-name="Path 3595" d="M873.063,348a4.793,4.793,0,0,1-4.794,4.794H790.034A4.793,4.793,0,0,1,785.24,348v-.253a4.793,4.793,0,0,1,4.794-4.794h78.232a4.793,4.793,0,0,1,4.794,4.794V348Z" transform="translate(-785.24 -320.993)" fill="#a4a4a4"/>
      </g>
    </g>
    <g id="Group_3845" data-name="Group 3845" transform="translate(777.808 2093.773)">
      <g id="Group_3843" data-name="Group 3843" transform="translate(0 0)">
        <path id="Path_3596" data-name="Path 3596" d="M1796.9,231.078a1.229,1.229,0,0,1-1.059-.607l-2.541-4.33a24.476,24.476,0,0,1-6.953-1.37l-3.993,3.047a1.225,1.225,0,0,1-1.425.046l-5.443-3.62a1.227,1.227,0,0,1-.509-1.333l1.267-4.861a24.5,24.5,0,0,1-3.952-5.883l-4.976-.669a1.233,1.233,0,0,1-1.04-.974l-1.29-6.41a1.226,1.226,0,0,1,.584-1.3l4.33-2.54a24.476,24.476,0,0,1,1.37-6.953l-3.047-3.993a1.23,1.23,0,0,1-.046-1.427l3.619-5.443a1.228,1.228,0,0,1,1.333-.509l4.861,1.267a24.437,24.437,0,0,1,5.883-3.952l.669-4.976a1.23,1.23,0,0,1,.976-1.04l6.407-1.29a1.229,1.229,0,0,1,1.3.582l2.541,4.33a24.481,24.481,0,0,1,6.953,1.37l3.993-3.047a1.23,1.23,0,0,1,1.425-.046l5.443,3.62a1.227,1.227,0,0,1,.508,1.333l-1.267,4.861a24.5,24.5,0,0,1,3.952,5.883l4.976.669a1.226,1.226,0,0,1,1.04.976l1.29,6.41a1.229,1.229,0,0,1-.584,1.3l-4.33,2.541a24.512,24.512,0,0,1-1.37,6.955l3.047,3.993a1.226,1.226,0,0,1,.046,1.425l-3.62,5.443a1.226,1.226,0,0,1-1.333.509l-4.861-1.267a24.439,24.439,0,0,1-5.883,3.952l-.669,4.976a1.23,1.23,0,0,1-.976,1.04l-6.41,1.29A1.426,1.426,0,0,1,1796.9,231.078Zm-10.82-8.068.4.151a22.974,22.974,0,0,0,7.3,1.439l.431.014,2.854,4.863,5.942-1.2.751-5.59.392-.179a22.9,22.9,0,0,0,6.174-4.149l.314-.3,5.461,1.423,3.356-5.047-3.422-4.485.151-.4a22.964,22.964,0,0,0,1.439-7.3l.014-.431,4.866-2.854-1.2-5.942-5.59-.751-.179-.392a22.906,22.906,0,0,0-4.149-6.174l-.3-.314,1.423-5.461-5.047-3.356L1802.987,180l-.4-.151a22.973,22.973,0,0,0-7.3-1.439l-.431-.014L1792,173.535l-5.942,1.2-.752,5.59-.392.179a22.934,22.934,0,0,0-6.174,4.149l-.314.3-5.461-1.423-3.356,5.047,3.422,4.485-.151.4a22.974,22.974,0,0,0-1.439,7.3l-.014.431-4.866,2.854,1.2,5.942,5.59.751.179.392a22.9,22.9,0,0,0,4.149,6.174l.3.314-1.423,5.461,5.047,3.356Zm-18.558-13.06Zm27.1,8.183a16.572,16.572,0,0,1-16.2-13.3,16.643,16.643,0,0,1-.325-3.51.79.79,0,0,1,.793-.77.781.781,0,0,1,.77.793,15.206,15.206,0,0,0,.3,3.18,14.987,14.987,0,1,0,4.614-14.054.782.782,0,1,1-1.051-1.157,16.556,16.556,0,1,1,14.4,28.484A16.818,16.818,0,0,1,1794.621,218.133Z" transform="translate(-1764.965 -171.935)" fill="gray"/>
        <path id="Path_3597" data-name="Path 3597" d="M1871.889,285.443a6.594,6.594,0,0,1-5.952-3.746h0a6.588,6.588,0,1,1,5.952,3.746Zm-4.543-4.419a5.023,5.023,0,1,0,2.367-6.7,5.03,5.03,0,0,0-2.367,6.7Z" transform="translate(-1842.311 -249.288)" fill="gray"/>
      </g>
      <g id="Group_3844" data-name="Group 3844" transform="translate(60.077 38.099)">
        <path id="Path_3598" data-name="Path 3598" d="M2039.267,367.169a1.018,1.018,0,0,1-.286-.041l-3.01-.9a.994.994,0,0,1-.708-.916l-.087-2.2a12.117,12.117,0,0,1-2.394-1.954l-2.169.353a1,1,0,0,1-1.038-.511l-1.489-2.77a1,1,0,0,1,.145-1.148l1.491-1.615a12.165,12.165,0,0,1-.309-3.074l-1.785-1.285a1,1,0,0,1-.371-1.1l.9-3.01a1,1,0,0,1,.912-.708l2.2-.087a12.13,12.13,0,0,1,1.954-2.394l-.353-2.169a1,1,0,0,1,.511-1.038l2.77-1.489a1,1,0,0,1,1.148.144l1.615,1.491a12.043,12.043,0,0,1,3.074-.309l1.285-1.785a1,1,0,0,1,1.095-.371l3.01.9a.994.994,0,0,1,.708.916l.087,2.2a12.13,12.13,0,0,1,2.395,1.954l2.169-.353a1,1,0,0,1,1.038.511l1.489,2.77a1,1,0,0,1-.146,1.15l-1.489,1.613a12.155,12.155,0,0,1,.309,3.074l1.785,1.285a.993.993,0,0,1,.371,1.095l-.9,3.01a1,1,0,0,1-.914.708l-2.2.087a12.107,12.107,0,0,1-1.955,2.394l.353,2.169a1,1,0,0,1-.511,1.038l-2.77,1.489a1,1,0,0,1-1.148-.144l-1.615-1.491a12.149,12.149,0,0,1-3.074.309l-1.285,1.785A.989.989,0,0,1,2039.267,367.169Zm-.458-1.326Zm-2-1,2.238.674,1.549-2.149.431.027a10.673,10.673,0,0,0,3.429-.344l.417-.112,1.945,1.8,2.06-1.106-.424-2.614.323-.286a10.62,10.62,0,0,0,2.179-2.671l.215-.373,2.646-.105.674-2.238-2.149-1.549.027-.431a10.669,10.669,0,0,0-.344-3.429l-.112-.417,1.8-1.945-1.106-2.06-2.614.424-.286-.323a10.627,10.627,0,0,0-2.671-2.179l-.373-.215-.105-2.646-2.238-.674-1.549,2.149-.431-.027a10.669,10.669,0,0,0-3.429.344l-.417.112-1.945-1.8-2.06,1.107.424,2.614-.323.286a10.63,10.63,0,0,0-2.179,2.671l-.215.373-2.646.105-.674,2.238,2.149,1.549-.028.431a10.6,10.6,0,0,0,.344,3.429l.112.417-1.8,1.945,1.106,2.06,2.614-.424.286.323a10.622,10.622,0,0,0,2.671,2.179l.374.215Zm-6.318-4.1h0Zm23.488-13.466Zm-12.222,13.818a8.4,8.4,0,0,1-7.381-4.41,8.567,8.567,0,0,1-.674-1.649.781.781,0,0,1,1.5-.433,6.871,6.871,0,0,0,.548,1.342,6.8,6.8,0,1,0,.151-6.712.78.78,0,1,1-1.34-.8,8.368,8.368,0,1,1,7.2,12.662Z" transform="translate(-2027.214 -338.243)" fill="gray"/>
      </g>
    </g>
    <g id="Group_3859" data-name="Group 3859" transform="translate(805.732 2192.659)">
      <g id="Group_3858" data-name="Group 3858" transform="translate(0 0)">
        <path id="Path_3609" data-name="Path 3609" d="M1770.363,601.311H1610.809a12.535,12.535,0,0,1-12.481-11.361l-10.057-106.685a12.533,12.533,0,0,1,12.242-13.71l169.609-3.229a12.537,12.537,0,0,1,12.775,12.535V588.775A12.53,12.53,0,0,1,1770.363,601.311Z" transform="translate(-1588.214 -466.323)" fill="#b4b4b4"/>
        <path id="Path_3610" data-name="Path 3610" d="M1618.214,517.153l7.132,92.252a7.752,7.752,0,0,0,7.65,7.155l153.137,1.6a7.752,7.752,0,0,0,7.834-7.753V511.09a7.754,7.754,0,0,0-8.019-7.749L1625.68,508.8A7.758,7.758,0,0,0,1618.214,517.153Z" transform="translate(-1607.957 -490.701)" fill="#f8f8f8"/>
        <path id="Path_3611" data-name="Path 3611" d="M1854.8,536.343l86.356-2.584a1.57,1.57,0,0,1,1.618,1.57v1.389a1.571,1.571,0,0,1-1.55,1.57l-86.355,1.192a1.569,1.569,0,0,1-1.591-1.57h0A1.567,1.567,0,0,1,1854.8,536.343Z" transform="translate(-1762.791 -510.737)" fill="#e5e5e5"/>
        <path id="Path_3612" data-name="Path 3612" d="M1853.27,564.11v.594a1.571,1.571,0,0,0,1.57,1.57H1941.2a1.57,1.57,0,0,0,1.57-1.57v-.594a1.57,1.57,0,0,0-1.57-1.57H1854.84A1.571,1.571,0,0,0,1853.27,564.11Z" transform="translate(-1762.785 -529.693)" fill="#e5e5e5"/>
        <g id="Group_3848" data-name="Group 3848" transform="translate(68.633 87.413)">
          <path id="Path_3613" data-name="Path 3613" d="M1790.021,747.038a.7.7,0,0,1-.7-.7l-.007-2.113a.705.705,0,0,1,.7-.707h0a.7.7,0,0,1,.7.7l.007,2.113a.706.706,0,0,1-.707.707Zm-.017-7.046a.7.7,0,0,1-.7-.7l-.007-2.113a.705.705,0,0,1,.7-.707h0a.7.7,0,0,1,.7.7l.007,2.113a.7.7,0,0,1-.707.707Zm-.017-7.043a.7.7,0,0,1-.7-.7l-.007-2.113a.705.705,0,0,1,.7-.707h0a.7.7,0,0,1,.7.7l.007,2.113a.71.71,0,0,1-.707.707Zm-.017-7.046a.7.7,0,0,1-.7-.7l-.007-2.113a.705.705,0,0,1,.7-.707h0a.7.7,0,0,1,.7.7l.007,2.113a.705.705,0,0,1-.7.707Z" transform="translate(-1789.26 -722.38)" fill="#fcfcfc"/>
        </g>
        <g id="Group_3849" data-name="Group 3849" transform="translate(104.079 78.363)">
          <path id="Path_3614" data-name="Path 3614" d="M1893.793,727.571a.7.7,0,0,1-.7-.7v-2.113a.7.7,0,1,1,1.406,0v2.113A.7.7,0,0,1,1893.793,727.571Zm0-7.046a.7.7,0,0,1-.7-.7v-2.113a.7.7,0,1,1,1.406,0v2.113A.7.7,0,0,1,1893.793,720.525Zm0-7.043a.7.7,0,0,1-.7-.7v-2.113a.7.7,0,1,1,1.406,0v2.113A.7.7,0,0,1,1893.793,713.482Zm0-7.046a.7.7,0,0,1-.7-.7v-2.113a.7.7,0,1,1,1.406,0v2.113A.7.7,0,0,1,1893.793,706.436Zm0-7.046a.7.7,0,0,1-.7-.7v-2.113a.7.7,0,1,1,1.406,0v2.113A.7.7,0,0,1,1893.793,699.39Z" transform="translate(-1893.09 -695.87)" fill="#fcfcfc"/>
        </g>
        <g id="Group_3850" data-name="Group 3850" transform="translate(129.72 70.961)">
          <path id="Path_3615" data-name="Path 3615" d="M1970.251,719.115a.7.7,0,0,1-.7-.683l-.038-1.263a.706.706,0,0,1,.683-.727.693.693,0,0,1,.727.683l.037,1.263a.705.705,0,0,1-.683.727Zm-.191-6.193a.7.7,0,0,1-.7-.683l-.065-2.113a.705.705,0,0,1,1.41-.044l.065,2.113a.705.705,0,0,1-.683.727Zm-.218-7.042a.7.7,0,0,1-.7-.683l-.065-2.113a.705.705,0,0,1,.682-.727.726.726,0,0,1,.727.683l.065,2.113a.706.706,0,0,1-.683.727Zm-.219-7.039a.7.7,0,0,1-.7-.683l-.065-2.113a.705.705,0,0,1,1.41-.044l.065,2.113a.705.705,0,0,1-.683.727Zm-.218-7.043a.7.7,0,0,1-.7-.683l-.065-2.113a.706.706,0,0,1,1.41-.044l.064,2.113a.705.705,0,0,1-.683.727Zm-.219-7.043a.7.7,0,0,1-.7-.683l-.065-2.113a.706.706,0,0,1,.683-.727.7.7,0,0,1,.727.683l.065,2.113a.706.706,0,0,1-.683.727Zm-.219-7.043a.7.7,0,0,1-.7-.683l-.065-2.113a.706.706,0,0,1,.683-.727.7.7,0,0,1,.727.683l.065,2.113a.706.706,0,0,1-.683.727Z" transform="translate(-1968.199 -674.189)" fill="#fcfcfc"/>
        </g>
        <g id="Group_3851" data-name="Group 3851" transform="translate(156.723 52.06)">
          <path id="Path_3616" data-name="Path 3616" d="M2048,678.7a.7.7,0,0,1-.7-.7v-2.113a.7.7,0,0,1,1.407,0V678A.7.7,0,0,1,2048,678.7Zm0-7.043a.7.7,0,0,1-.7-.7v-2.113a.7.7,0,0,1,1.407,0v2.113A.7.7,0,0,1,2048,671.659Zm0-7.046a.7.7,0,0,1-.7-.7V661.8a.7.7,0,0,1,1.407,0v2.113A.7.7,0,0,1,2048,664.613Zm0-7.046a.7.7,0,0,1-.7-.7V654.75a.7.7,0,0,1,1.407,0v2.113A.7.7,0,0,1,2048,657.567Zm0-7.046a.7.7,0,0,1-.7-.7V647.7a.7.7,0,0,1,1.407,0v2.113A.7.7,0,0,1,2048,650.521Zm0-7.046a.7.7,0,0,1-.7-.7v-2.113a.7.7,0,0,1,1.407,0v2.113A.7.7,0,0,1,2048,643.474Zm0-7.043a.7.7,0,0,1-.7-.7v-2.113a.7.7,0,0,1,1.407,0v2.113A.7.7,0,0,1,2048,636.432Zm0-7.046a.7.7,0,0,1-.7-.7v-2.113a.7.7,0,0,1,1.407,0v2.113A.7.7,0,0,1,2048,629.386Zm0-7.046a.7.7,0,0,1-.7-.7v-2.113a.7.7,0,0,1,1.407,0v2.113A.7.7,0,0,1,2048,622.34Z" transform="translate(-2047.3 -618.82)" fill="#fcfcfc"/>
        </g>
        <g id="Group_3853" data-name="Group 3853" transform="translate(20.823 31.498)">
          <path id="Path_3617" data-name="Path 3617" d="M1664.568,649.964a1.058,1.058,0,0,1-1.051-.966l-7.224-85.3a1.057,1.057,0,0,1,2.107-.181l7.224,85.3a1.061,1.061,0,0,1-.963,1.143C1664.626,649.961,1664.6,649.964,1664.568,649.964Z" transform="translate(-1653.872 -561.202)" fill="#40394a"/>
          <g id="Group_3852" data-name="Group 3852">
            <path id="Path_3618" data-name="Path 3618" d="M1649.469,565.5l3.267-3.875,3.871,3.27-.256-3.031-3.871-3.27-3.271,3.875Z" transform="translate(-1649.21 -558.59)" fill="#40394a"/>
          </g>
        </g>
        <g id="Group_3855" data-name="Group 3855" transform="translate(24.981 111.6)">
          <path id="Path_3619" data-name="Path 3619" d="M1811.065,802.737H1662.448a1.058,1.058,0,0,1,0-2.117h148.617a1.058,1.058,0,0,1,0,2.117Z" transform="translate(-1661.39 -798.097)" fill="#40394a"/>
          <g id="Group_3854" data-name="Group 3854" transform="translate(145.466)">
            <path id="Path_3620" data-name="Path 3620" d="M2087.5,800.4l3.584-3.585-3.584-3.581h3.042l3.584,3.581-3.584,3.585Z" transform="translate(-2087.5 -793.23)" fill="#40394a"/>
          </g>
        </g>
        <g id="Group_3856" data-name="Group 3856" transform="translate(36.646 47.251)">
          <path id="Path_3621" data-name="Path 3621" d="M1696.616,649.214a1.058,1.058,0,0,1-.136-2.106c.782-.1,78.593-10.76,121.19-42.167a1.056,1.056,0,1,1,1.253,1.7c-43.038,31.735-121.381,42.458-122.167,42.563A.964.964,0,0,1,1696.616,649.214Z" transform="translate(-1695.562 -604.734)"/>
        </g>
        <g id="Group_3857" data-name="Group 3857" transform="translate(152.133 46.178)">
          <path id="Path_3622" data-name="Path 3622" d="M2041.428,609.344a.748.748,0,0,1-.085,0,1.054,1.054,0,0,1-.969-1.137l.327-4.151-5.851-.348a1.057,1.057,0,0,1-.993-1.116,1.046,1.046,0,0,1,1.116-.993l6.926.41a1.058,1.058,0,0,1,.99,1.14l-.409,5.227A1.057,1.057,0,0,1,2041.428,609.344Z" transform="translate(-2033.854 -601.591)"/>
        </g>
      </g>
    </g>
    <g id="Group_3878" data-name="Group 3878" transform="translate(704.901 2333.879)">
      <g id="Group_3872" data-name="Group 3872" transform="translate(124.414 157.542)">
        <rect id="Rectangle_217" data-name="Rectangle 217" width="7.287" height="78.801" transform="translate(37.654 18.767)" fill="#7d7d7d"/>
        <path id="Path_3720" data-name="Path 3720" d="M1969.589,1478.582H1905.77v-3.633a1.107,1.107,0,0,1,1.109-1.109h61.514a1.2,1.2,0,0,1,1.2,1.2Z" transform="translate(-1896.38 -1379.493)" fill="#7d7d7d"/>
        <path id="Path_3721" data-name="Path 3721" d="M1968.279,1260.91a8.354,8.354,0,0,1-8.33,8.33H1891.33a8.354,8.354,0,0,1-8.33-8.33v-7.53a8.354,8.354,0,0,1,8.33-8.33h68.623a8.354,8.354,0,0,1,8.33,8.33v7.53Z" transform="translate(-1883 -1245.05)" fill="#7d7d7d"/>
      </g>
      <g id="Group_3874" data-name="Group 3874" transform="translate(62.422 0)">
        <path id="Path_3722" data-name="Path 3722" d="M1859.626,1442.611s-20.808,15-17.2,25.073c0,0,22.767-9.823,25.518-17.559s-.466-11.155-.466-11.155Z" transform="translate(-1796.921 -1201.461)" fill="#58525e"/>
        <path id="Path_3723" data-name="Path 3723" d="M1879.177,1417.32l3.4,9.835a3.42,3.42,0,0,1-1.328,4.012,8.9,8.9,0,0,1-2.817,1.089,3.983,3.983,0,0,1-4.4-2l-4.07-7.662Z" transform="translate(-1813.345 -1188.739)" fill="url(#linear-gradient)"/>
        <path id="Path_3724" data-name="Path 3724" d="M1878.027,1202.63s-42.738,7.406-61.073,24.343,16.829,70.957,16.829,70.957,5.761-.037,12.742-6.021c0,0-20.846-40.631-2.883-52.479,20.2-13.32,43.477-16.322,43.477-16.322l-8.681-19.175Z" transform="translate(-1779.086 -1062.581)" fill="#d6d6d6"/>
        <path id="Path_3725" data-name="Path 3725" d="M1841.105,1478.517c4.577-2.12,17.534-11.188,19.716-11.588s5.971,2.165,5.971,2.165.92,1.658-.066,4.548c-3.039,3.678-9.794,10.693-18.87,13.307-6.676,1.922-11.349.132-14.256-1.967A19.353,19.353,0,0,1,1841.105,1478.517Z" transform="translate(-1791.979 -1217.866)" fill="#6c6673"/>
        <path id="Path_3726" data-name="Path 3726" d="M1845.966,1496.587c9.077-2.614,15.831-9.629,18.87-13.307-.668,1.955-2.2,4.47-5.485,7.419-8.14,7.315-23.683,9.951-26.994,9.443-2.652-.408-2.4-2.854-.652-5.522C1834.617,1496.715,1839.29,1498.509,1845.966,1496.587Z" transform="translate(-1790.085 -1227.499)" fill="#242424"/>
        <path id="Path_3727" data-name="Path 3727" d="M1906.366,1451.478c-.05,1.262-2.627,5.584-4.136,8.012a3.928,3.928,0,0,1-3.328,1.86,10.135,10.135,0,0,1-2.75-.33,2.547,2.547,0,0,1-1.711-3.171l2.945-10.05Z" transform="translate(-1827.669 -1206.649)" fill="url(#linear-gradient-2)"/>
        <path id="Path_3728" data-name="Path 3728" d="M1967.756,1171.53s9.493,25.378,0,33.1-32.132,16.408-37.192,31.782-13.641,45.25-25.13,55.827c0,0-8.07-.783-11.093-4,0,0,6.54-44.6,10.858-56.042,3.736-9.909,9.241-24.214,19.794-32.21,3.019-2.289,2.495-5.914,1.093-9.435l-2.548-6.412Z" transform="translate(-1827.672 -1044.306)" fill="#d6d6d6"/>
        <path id="Path_3729" data-name="Path 3729" d="M1831.791,1086.986c15.914.961,10.957-24.466,10.668-25.476l24.153,17.06s-1.279,13.6-21.361,20.73a24.944,24.944,0,0,1-13.831,1A21.964,21.964,0,0,0,1831.791,1086.986Z" transform="translate(-1790.698 -979.656)" fill="#363636"/>
        <path id="Path_3730" data-name="Path 3730" d="M1742.991,1102.118c5.93-4.124,12.648,0,12.648,0,7.93,5.188,13.794,7.39,18.124,7.654a21.992,21.992,0,0,1-.367,13.316c-8.883-1.909-15.237-8.338-18-11.637a2.868,2.868,0,0,0-3.971-.433c-1.233.973-2.433,2.309-2.219,3.716.429,2.771-2.788,3.654-3.031,2.647s1.1-6.965,1.1-6.965-6.433,6.466-8.941,8.953-5.666,0-5.666,0S1737.061,1106.246,1742.991,1102.118Z" transform="translate(-1732.67 -1002.441)" fill="url(#linear-gradient-3)"/>
        <path id="Path_3731" data-name="Path 3731" d="M1915.731,964.739s-23.151-9.27-66.24,26.3c0,0-3.6,7.452.326,14.078s41.336,38.94,46.479,56.858c0,0,22.289,7.241,45.337-9.93C1941.633,1052.051,1939.6,1002.183,1915.731,964.739Z" transform="translate(-1800.432 -922.151)"/>
        <path id="Path_3732" data-name="Path 3732" d="M1879.35,946.23l11.4,13.819a4.541,4.541,0,0,1,.6,4.879c-1.584,3.229-5.336,7.926-13.662,7.274a7,7,0,0,1-5.753-3.922l-7.971-16.474Z" transform="translate(-1809.819 -911.914)" fill="url(#linear-gradient-4)"/>
        <path id="Path_3733" data-name="Path 3733" d="M2020.766,1025.466c2.689-10.944-24.536-35.349-24.536-35.349l6.611-23.827s58.788,39.134,43.806,70.607a22.936,22.936,0,0,1-8.305,9.786C2033.608,1033.94,2026.066,1028.1,2020.766,1025.466Z" transform="translate(-1887.545 -923.702)" fill="#3a3a3a"/>
        <path id="Path_3734" data-name="Path 3734" d="M2019.9,1053.728a.643.643,0,0,0,.623-.491c2.75-11.192-23.608-34.974-24.734-35.98a.642.642,0,0,0-.858.957c.268.239,26.907,24.268,24.343,34.718a.645.645,0,0,0,.47.779A1.093,1.093,0,0,0,2019.9,1053.728Z" transform="translate(-1886.654 -953.556)" fill="#ccffbd"/>
        <path id="Path_3735" data-name="Path 3735" d="M1917.021,1106.777s32.276,12.532,40.157,3.105a5.249,5.249,0,0,0,1.076-2.165c5.3,2.631,12.841,8.474,17.576,21.217-16.978,10.85-45.992-6.033-53.84-11.01a5.851,5.851,0,0,0-4.334-.8c-3.027.627-8.256,1.551-11.072,1.118-4.124-.635-10.049,13.913-16.734,9.427C1889.846,1127.668,1895.57,1102.377,1917.021,1106.777Z" transform="translate(-1825.033 -1005.954)" fill="url(#linear-gradient-5)"/>
        <g id="Group_3873" data-name="Group 3873" transform="translate(37.687)">
          <path id="Path_3736" data-name="Path 3736" d="M1841.135,892.183c-.115.445,2.672,30.648,2.672,30.648l17.212-1.959,1.613-29.019S1843.053,884.744,1841.135,892.183Z" transform="translate(-1834.092 -878.161)" fill="url(#linear-gradient-6)"/>
          <path id="Path_3737" data-name="Path 3737" d="M1848.115,882.72l.346,15.344a2.088,2.088,0,0,1-.066.577c-.3,1.167-1.625,5.105-5.571,3.505-3.584-1.452-6.87-2.726-9.291-2.268a2.141,2.141,0,0,0-1.736,2.3,92.938,92.938,0,0,0,2.355,14.19,2.138,2.138,0,0,0,2.441,1.538,69.071,69.071,0,0,0,15.468-4.433,2.144,2.144,0,0,0,1.249-1.8c.26-3.835,1.085-15.489,1.819-18.7.689-3.015,4.635-4.433,6.334-4.911a2.112,2.112,0,0,0,1.295-1.043c.961-1.806,2.483-6.066-2.833-8.462a2.144,2.144,0,0,1-1.047-2.907c1.064-2.181,1.79-5.612-2.264-7.988-4.12-2.417-7.608-.462-9.563,1.221a2.143,2.143,0,0,1-2.751.021,1.693,1.693,0,0,0-1.926-.144,2.112,2.112,0,0,1-2.874-1.229,6.4,6.4,0,0,0-6.99-4.495c-7.666.462-9.435,8.709-7.988,13.814s9.732,4.132,14.058,2.111c3.287-1.534,7.068.866,8.693,2.107A2.127,2.127,0,0,1,1848.115,882.72Z" transform="translate(-1824.061 -863.015)" fill="#40394a"/>
          <path id="Path_3738" data-name="Path 3738" d="M1898.633,932.9s-2.145-9,1.27-10.775,8-.157,6.272,6.008C1904.027,935.8,1898.633,932.9,1898.633,932.9Z" transform="translate(-1867.491 -897.353)" fill="url(#linear-gradient-7)"/>
        </g>
      </g>
      <g id="Group_3875" data-name="Group 3875" transform="translate(4.608 64.048)">
        <path id="Path_3739" data-name="Path 3739" d="M1814.6,1158.7c-.054,0-.1,0-.157,0l-67.724-.074a3.031,3.031,0,1,1,.008-6.062l67.724.074a3.031,3.031,0,0,1,.148,6.058Z" transform="translate(-1681.332 -1097.212)" fill="#6c6673"/>
        <path id="Path_3740" data-name="Path 3740" d="M1596.978,1018.33h56.4a10.752,10.752,0,0,1,9.724,6.165l26.074,55.287h-70.091a6.53,6.53,0,0,1-6.074-4.132l-20.219-51.163A4.5,4.5,0,0,1,1596.978,1018.33Z" transform="translate(-1592.471 -1018.33)" fill="#6c6673"/>
      </g>
      <g id="Group_3877" data-name="Group 3877" transform="translate(0 124.894)">
        <g id="Group_3876" data-name="Group 3876" transform="translate(15.413 6.057)">
          <path id="Path_3741" data-name="Path 3741" d="M1621.518,1320.409a2.916,2.916,0,0,1-1.122-.227,2.723,2.723,0,0,1-1.489-3.621l59.687-134.327a2.886,2.886,0,0,1,3.74-1.443,2.723,2.723,0,0,1,1.489,3.621l-59.687,134.327A2.858,2.858,0,0,1,1621.518,1320.409Z" transform="translate(-1618.675 -1180.568)" fill="#d9d9d9"/>
          <path id="Path_3742" data-name="Path 3742" d="M1699.519,1320.412a2.848,2.848,0,0,1-2.614-1.666l-59.687-134.327a2.723,2.723,0,0,1,1.489-3.621,2.884,2.884,0,0,1,3.74,1.443l59.687,134.327a2.723,2.723,0,0,1-1.489,3.621A3.023,3.023,0,0,1,1699.519,1320.412Z" transform="translate(-1629.434 -1180.572)" fill="#d9d9d9"/>
          <path id="Path_3743" data-name="Path 3743" d="M2069.548,1320.409a2.91,2.91,0,0,1-1.121-.227,2.723,2.723,0,0,1-1.489-3.621l59.683-134.327a2.886,2.886,0,0,1,3.74-1.443,2.723,2.723,0,0,1,1.489,3.621l-59.688,134.327A2.852,2.852,0,0,1,2069.548,1320.409Z" transform="translate(-1881.948 -1180.568)" fill="#d9d9d9"/>
          <path id="Path_3744" data-name="Path 3744" d="M2147.54,1320.412a2.848,2.848,0,0,1-2.615-1.666l-59.687-134.327a2.723,2.723,0,0,1,1.489-3.621,2.884,2.884,0,0,1,3.74,1.443l59.687,134.327a2.723,2.723,0,0,1-1.489,3.621A3.006,3.006,0,0,1,2147.54,1320.412Z" transform="translate(-1892.702 -1180.572)" fill="#d9d9d9"/>
        </g>
        <path id="Path_3745" data-name="Path 3745" d="M1858.551,1169.455a3.258,3.258,0,0,0-.565-2.482,2.583,2.583,0,0,0-2.07-1.093H1584.388a3.019,3.019,0,0,0-2.6,1.6,3.818,3.818,0,0,0-.2,3.315l2.944,7.13a4.113,4.113,0,0,0,3.74,2.676h265.788a3.238,3.238,0,0,0,3.064-2.829Z" transform="translate(-1581.299 -1165.88)" fill="#d9d9d9"/>
      </g>
    </g>
    <g id="Plant" transform="translate(383.266 2490.45)">
      <g id="Group_3588" data-name="Group 3588">
        <g id="Group_3586" data-name="Group 3586">
          <path id="Path_3074" data-name="Path 3074" d="M395.806,329.546c-2.837-17.787,4.936-41.114,14.79-39.4C418.76,291.572,397.5,324.113,395.806,329.546Z" transform="translate(-369.825 -290.059)"/>
          <path id="Path_3075" data-name="Path 3075" d="M391.21,339.574c9.276-13.171,3.548-40.242-6.243-40.865C375.255,298.1,390.41,332.948,391.21,339.574Z" transform="translate(-368.333 -291.016)" fill="#d2d2d2"/>
          <path id="Path_3076" data-name="Path 3076" d="M392.9,348.37c-1.058-28.432,16.275-42.768,24.03-39.371C424.876,312.476,398.961,332.619,392.9,348.37Z" transform="translate(-369.564 -292.101)"/>
          <path id="Path_3077" data-name="Path 3077" d="M388.184,367.259c9.267-20.037,1.325-51.359-13.411-47.971C362.554,322.108,386,358.828,388.184,367.259Z" transform="translate(-367.175 -293.266)"/>
          <path id="Path_3078" data-name="Path 3078" d="M388.316,374.785c-1.023-19.21-6.839-43.711-18.809-41.443C358.043,335.521,384.741,358.021,388.316,374.785Z" transform="translate(-366.666 -294.833)" fill="#d2d2d2"/>
          <path id="Path_3079" data-name="Path 3079" d="M387.7,385.989c2.917-28.343,27.2-44.164,26.947-33.439C414.389,364.058,395.855,371.537,387.7,385.989Z" transform="translate(-368.993 -296.601)"/>
          <path id="Path_3080" data-name="Path 3080" d="M388.532,381.16c3.4-10.138-4.6-23.905-13-20.97C368.566,362.636,386.344,377.461,388.532,381.16Z" transform="translate(-367.469 -297.776)"/>
          <path id="Path_3081" data-name="Path 3081" d="M390.542,373.061c-3.664-21.744,15.065-59.15,31.972-51.11C438.94,329.778,398.546,348.089,390.542,373.061Z" transform="translate(-369.257 -293.466)" fill="#d2d2d2"/>
        </g>
        <g id="Group_3587" data-name="Group 3587" transform="translate(4.217 79.836)">
          <path id="Path_3082" data-name="Path 3082" d="M396.818,412.4H380.65a6.594,6.594,0,0,1-6.314-4.66,58.383,58.383,0,0,1-2.864-20.054,38.328,38.328,0,0,1,.863-6.368,1.89,1.89,0,0,1,1.832-1.485H403.31a1.89,1.89,0,0,1,1.832,1.485,37.543,37.543,0,0,1,.863,6.368,58.381,58.381,0,0,1-2.864,20.054A6.6,6.6,0,0,1,396.818,412.4Z" transform="translate(-371.408 -379.83)"/>
          <path id="Path_3083" data-name="Path 3083" d="M406,387.683H371.48a38.35,38.35,0,0,1,.863-6.368,1.89,1.89,0,0,1,1.832-1.485h29.143a1.89,1.89,0,0,1,1.832,1.485A38.337,38.337,0,0,1,406,387.683Z" transform="translate(-371.416 -379.83)" fill="#fff" opacity="0.5"/>
        </g>
      </g>
    </g>
  </g>
</svg>
