<svg xmlns="http://www.w3.org/2000/svg" width="333" height="290.108" viewBox="0 0 333 290.108">
  <g id="Group_4233" data-name="Group 4233" transform="translate(0 0.5)">
    <rect id="Rectangle_190" data-name="Rectangle 190" width="7.462" height="0.215" transform="translate(232.923 270.286)" fill="#ebebeb"/>
    <rect id="Rectangle_191" data-name="Rectangle 191" width="16.479" height="0.215" transform="translate(296.521 259.981)" fill="#ebebeb"/>
    <rect id="Rectangle_192" data-name="Rectangle 192" width="37.089" height="0.215" transform="translate(1.007 261.424)" fill="#ebebeb"/>
    <rect id="Rectangle_193" data-name="Rectangle 193" width="5.436" height="0.215" transform="translate(45.747 261.424)" fill="#ebebeb"/>
    <rect id="Rectangle_194" data-name="Rectangle 194" width="80.446" height="0.215" transform="translate(68.854 265.048)" fill="#ebebeb"/>
    <path id="Path_3347" data-name="Path 3347" d="M163.478,370.626h-3.306a1.024,1.024,0,0,1-1.022-1.022V292h5.341v77.6A1.012,1.012,0,0,1,163.478,370.626Z" transform="translate(-66.525 -115.496)" fill="#f0f0f0"/>
    <rect id="Rectangle_196" data-name="Rectangle 196" width="46.337" height="6.99" transform="translate(211.774 169.522)" fill="#e6e6e6"/>
    <path id="Path_3348" data-name="Path 3348" d="M202.048,370.626h-3.306a1.024,1.024,0,0,1-1.022-1.022V292h5.341v77.6A1.017,1.017,0,0,1,202.048,370.626Z" transform="translate(-71.975 -115.496)" fill="#e6e6e6"/>
    <path id="Path_3349" data-name="Path 3349" d="M346.358,370.626h-3.306a1.024,1.024,0,0,1-1.022-1.022V292h5.341v77.6A1.017,1.017,0,0,1,346.358,370.626Z" transform="translate(-92.361 -115.496)" fill="#e6e6e6"/>
    <rect id="Rectangle_197" data-name="Rectangle 197" width="135.457" height="6.99" transform="translate(89.533 169.522)" fill="#f5f5f5"/>
    <path id="Path_3350" data-name="Path 3350" d="M307.788,370.626h-3.306a1.024,1.024,0,0,1-1.022-1.022V292H308.8v77.6A1.006,1.006,0,0,1,307.788,370.626Z" transform="translate(-86.912 -115.496)" fill="#f0f0f0"/>
    <rect id="Rectangle_198" data-name="Rectangle 198" width="2.267" height="141.932" transform="translate(307.093 254.047) rotate(180)" fill="#ebebeb"/>
    <path id="Path_3351" data-name="Path 3351" d="M428.819,197.134c0,7.248-5.144,13.559-12.769,16.934h-25.29c-7.634-3.366-12.769-9.687-12.769-16.934s5.144-13.559,12.769-16.934h25.29C423.683,183.575,428.819,189.9,428.819,197.134Z" transform="translate(-97.44 -99.702)" fill="#f0f0f0"/>
    <g id="Group_3764" data-name="Group 3764" transform="translate(279.905 79.874)">
      <path id="Path_3352" data-name="Path 3352" d="M390.98,213.408c-6.535-3.066-12.452-8.656-12.452-16.376,0-7.7,5.925-13.31,12.452-16.376.747-.352.095-1.46-.653-1.116-6.939,3.263-13.087,9.334-13.087,17.484s6.149,14.221,13.087,17.484c.747.361,1.4-.747.653-1.1Z" transform="translate(-377.24 -179.474)" fill="#e0e0e0"/>
    </g>
    <g id="Group_3765" data-name="Group 3765" transform="translate(292.464 79.867)">
      <path id="Path_3353" data-name="Path 3353" d="M398.584,179.65c-8.957,8.562-8.965,26.217,0,34.77.6.575,1.511-.335.91-.91-8.459-8.072-8.459-24.878,0-32.95.6-.575-.309-1.486-.91-.91Z" transform="translate(-391.864 -179.466)" fill="#e0e0e0"/>
    </g>
    <g id="Group_3766" data-name="Group 3766" transform="translate(305.324 79.881)">
      <path id="Path_3354" data-name="Path 3354" d="M406.84,180.107v33.86a.644.644,0,0,0,1.288,0v-33.86a.644.644,0,0,0-1.288,0Z" transform="translate(-406.84 -179.483)" fill="#e0e0e0"/>
    </g>
    <g id="Group_3767" data-name="Group 3767" transform="translate(311.635 79.867)">
      <path id="Path_3355" data-name="Path 3355" d="M414.388,180.56c8.459,8.072,8.459,24.878,0,32.95-.6.575.309,1.486.91.91,8.957-8.562,8.965-26.217,0-34.77-.6-.575-1.511.335-.91.91Z" transform="translate(-414.191 -179.466)" fill="#e0e0e0"/>
    </g>
    <g id="Group_3768" data-name="Group 3768" transform="translate(317.953 79.885)">
      <path id="Path_3356" data-name="Path 3356" d="M421.876,180.657c6.535,3.066,12.452,8.656,12.452,16.376,0,7.7-5.925,13.31-12.452,16.376-.747.352-.094,1.46.653,1.116,6.939-3.263,13.087-9.334,13.087-17.484s-6.148-14.221-13.087-17.484c-.747-.361-1.4.747-.653,1.1Z" transform="translate(-421.546 -179.487)" fill="#e0e0e0"/>
    </g>
    <path id="Path_3357" data-name="Path 3357" d="M389.04,382.92H420.9a3.892,3.892,0,0,0-3.89-3.89H392.93a3.887,3.887,0,0,0-3.89,3.89Z" transform="translate(-99.001 -127.791)" fill="#ebebeb"/>
    <path id="Path_3358" data-name="Path 3358" d="M113.507,302.1c.069.1-.472.687,1.443.644,4.706-.12,12.993-1,15.827-5.479,4.045-6.4-6.191-5.144-5.419-8.579s11.988-1.426,13.817-6.372-6.131-3.469-5.925-5.96,8.836.137,11.275-5.135-4.74-2.061-3.684-4.251,9.8-11.593,5.882-13.3-12.074,8.055-14.9,9.223-4.1-7.772-7.7-4.508-.2,16.668-4.517,18.652c-3.22,1.477-1.743-3.512-5.805-3.049C108.286,274.621,107.736,293.77,113.507,302.1Z" transform="translate(-59.501 -110.053)" fill="#ebebeb"/>
    <path id="Path_3359" data-name="Path 3359" d="M131.446,277.789a15.632,15.632,0,0,0-4.1.326,29.563,29.563,0,0,1,3.3-3.3.361.361,0,0,0,.06-.49.351.351,0,0,0-.481-.06,40.74,40.74,0,0,0-6.715,7.557,30.708,30.708,0,0,1,4.3-16.221.261.261,0,1,0-.438-.283,31.127,31.127,0,0,0-4.345,17.175c-.584.842-1.176,1.752-1.778,2.722a65.231,65.231,0,0,0-5.324,10.966,23.683,23.683,0,0,1-1.434-10.794.26.26,0,0,0-.232-.283.266.266,0,0,0-.283.232,23.71,23.71,0,0,0,1.683,11.541A80.229,80.229,0,0,0,111,320.271a.345.345,0,0,0,.326.361h.043a.336.336,0,0,0,.318-.326,76.079,76.079,0,0,1,7.222-29.266,9.436,9.436,0,0,1,5.857-2.439.27.27,0,0,0,.249-.266.253.253,0,0,0-.266-.249,9.672,9.672,0,0,0-5.29,1.863,57.473,57.473,0,0,1,7.316-11.146,14.061,14.061,0,0,1,4.672-.5.259.259,0,0,0,.266-.249A.3.3,0,0,0,131.446,277.789Z" transform="translate(-59.723 -111.71)" fill="#e0e0e0"/>
    <g id="Group_3773" data-name="Group 3773" transform="translate(2.052 138.397)">
      <path id="Path_3360" data-name="Path 3360" d="M92.812,304.434c-5.316.1-14.392-4.835-17.956-9.635-3.615-4.869,6.552-1.846,5.513-5.676s-13.585-1-15.9-6.475,6.732-4.216,6.372-7.024-9.729-2.233-12.744-8.055,5.238-2.559,3.942-4.972S50.408,250.025,54.727,247.9s14.015,8.467,17.261,9.644,4-6.131,8.227-2.636,1.065,18.78,6.037,20.8c3.7,1.5,2.13-5.5,6.389-3.727C100.12,275.066,94.968,304.391,92.812,304.434Z" transform="translate(-53.678 -247.624)" fill="#e6e6e6"/>
      <g id="Group_3772" data-name="Group 3772" transform="translate(0 0)" opacity="0.3">
        <path id="Path_3361" data-name="Path 3361" d="M92.812,304.434c-5.316.1-14.392-4.835-17.956-9.635-3.615-4.869,6.552-1.846,5.513-5.676s-13.585-1-15.9-6.475,6.732-4.216,6.372-7.024-9.729-2.233-12.744-8.055,5.238-2.559,3.942-4.972S50.408,250.025,54.727,247.9s14.015,8.467,17.261,9.644,4-6.131,8.227-2.636,1.065,18.78,6.037,20.8c3.7,1.5,2.13-5.5,6.389-3.727C100.12,275.066,94.968,304.391,92.812,304.434Z" transform="translate(-53.678 -247.624)" fill="#e6e6e6"/>
      </g>
    </g>
    <path id="Path_3362" data-name="Path 3362" d="M93.358,299.945a.334.334,0,0,0,.189-.155,28,28,0,0,0,2.387-14.246.358.358,0,0,0-.713.06,28.424,28.424,0,0,1-2.155,13.542,109.5,109.5,0,0,0-8.089-17.123c.936-11.413-4.9-20.756-4.963-20.85a.355.355,0,1,0-.6.378,36.873,36.873,0,0,1,4.929,19.364,99.463,99.463,0,0,0-13.594-18.171.474.474,0,1,0-.661.678A93.122,93.122,0,0,1,80.46,276.536a27.967,27.967,0,0,0-10.047-1.769.356.356,0,0,0,0,.713h.009a27.281,27.281,0,0,1,10.717,2.087,111.257,111.257,0,0,1,5.779,9.944A12.009,12.009,0,0,0,77,285.767a.354.354,0,0,0-.249.438.347.347,0,0,0,.438.249,11.452,11.452,0,0,1,10.477,2.533,96.32,96.32,0,0,1,10.3,38.961.473.473,0,0,0,.472.455h.017a.477.477,0,0,0,.455-.49A93.554,93.554,0,0,0,93.358,299.945Z" transform="translate(-53.924 -111.118)" fill="#f5f5f5"/>
    <path id="Path_3363" data-name="Path 3363" d="M113.649,375.009c4.122-11.73,6.827-28.682,6.827-36.118a25.87,25.87,0,0,0-5.032-15.861H94.362a25.943,25.943,0,0,0-5.032,15.861c0,7.428,2.705,24.388,6.827,36.118Z" transform="translate(-56.663 -119.879)" fill="#e6e6e6"/>
    <path id="Path_3364" data-name="Path 3364" d="M104.266,304.3c.069.06-.206.558,1.108.206,3.246-.867,8.836-2.851,10.056-6.423,1.735-5.1-5.144-2.533-5.178-5.041s8.072-2.98,8.519-6.715-4.826-1.383-5.092-3.143,6.149-1.374,6.956-5.436-3.624-.635-3.263-2.327,4.86-9.669,1.863-10.193-7.024,7.591-8.785,8.871-4.131-4.706-6.088-1.838,2.636,11.584-.026,13.671c-1.984,1.563-1.795-2.138-4.534-1.142C96.073,286.136,98.881,299.489,104.266,304.3Z" transform="translate(-57.902 -111.71)" fill="#f5f5f5"/>
    <path id="Path_3365" data-name="Path 3365" d="M112.755,285.023a11.185,11.185,0,0,0-2.782.91,21.434,21.434,0,0,1,1.735-2.834.245.245,0,1,0-.386-.3,29.184,29.184,0,0,0-3.4,6.355A21.833,21.833,0,0,1,108.2,277.2a.182.182,0,0,0-.343-.12,22.2,22.2,0,0,0-.155,12.623c-.266.678-.524,1.408-.781,2.181a46.254,46.254,0,0,0-1.863,8.484,16.944,16.944,0,0,1-2.791-7.239.182.182,0,0,0-.361.052,17.111,17.111,0,0,0,3.083,7.72,57.038,57.038,0,0,0,.661,16.986.242.242,0,0,0,.283.2c.009,0,.017-.009.026-.009a.246.246,0,0,0,.172-.275,54.089,54.089,0,0,1,.137-21.477,6.76,6.76,0,0,1,3.65-2.662.19.19,0,0,0,.129-.223.186.186,0,0,0-.223-.129,6.907,6.907,0,0,0-3.358,2.173,40.753,40.753,0,0,1,3.212-8.939,10.016,10.016,0,0,1,3.16-1.125.2.2,0,0,0,.146-.215A.2.2,0,0,0,112.755,285.023Z" transform="translate(-58.439 -113.371)" fill="#e0e0e0"/>
    <rect id="Rectangle_199" data-name="Rectangle 199" width="55.706" height="74.117" transform="translate(103.934 181.012)" fill="#f5f5f5"/>
    <rect id="Rectangle_200" data-name="Rectangle 200" width="10.623" height="74.117" transform="translate(159.64 181.012)" fill="#e6e6e6"/>
    <rect id="Rectangle_201" data-name="Rectangle 201" width="48.184" height="17.999" transform="translate(107.841 186.517)" fill="#fafafa"/>
    <path id="Path_3366" data-name="Path 3366" d="M197.61,303.66l.215,2.4a1.533,1.533,0,0,0,1.529,1.4h9.094a1.533,1.533,0,0,0,1.529-1.4l.206-2.4Z" transform="translate(-71.959 -117.143)" fill="#ebebeb"/>
    <rect id="Rectangle_202" data-name="Rectangle 202" width="48.184" height="17.999" transform="translate(107.841 206.482)" fill="#fafafa"/>
    <path id="Path_3367" data-name="Path 3367" d="M197.61,326.91l.215,2.4a1.533,1.533,0,0,0,1.529,1.4h9.094a1.533,1.533,0,0,0,1.529-1.4l.206-2.4Z" transform="translate(-71.959 -120.428)" fill="#ebebeb"/>
    <rect id="Rectangle_203" data-name="Rectangle 203" width="48.184" height="17.999" transform="translate(107.841 226.448)" fill="#fafafa"/>
    <path id="Path_3368" data-name="Path 3368" d="M197.61,350.16l.215,2.4a1.533,1.533,0,0,0,1.529,1.4h9.094a1.533,1.533,0,0,0,1.529-1.4l.206-2.4Z" transform="translate(-71.959 -123.712)" fill="#ebebeb"/>
    <ellipse id="_x3C_Path_x3E__1_" cx="166.5" cy="9.721" rx="166.5" ry="9.721" transform="translate(0 270.166)" fill="#f5f5f5"/>
    <g id="Group_3778" data-name="Group 3778" transform="translate(59.194 0)">
      <path id="Path_3369" data-name="Path 3369" d="M343.877,253.973H123.552a3.335,3.335,0,0,1-3.332-3.332V89.792a3.335,3.335,0,0,1,3.332-3.332H343.877a3.335,3.335,0,0,1,3.332,3.332V250.633A3.332,3.332,0,0,1,343.877,253.973Z" transform="translate(-120.22 -86.46)" fill="#fff" stroke="#d8d8d8" stroke-width="1"/>
      <path id="Path_3370" data-name="Path 3370" d="M343.877,253.973H123.552a3.335,3.335,0,0,1-3.332-3.332V89.792a3.335,3.335,0,0,1,3.332-3.332H343.877a3.335,3.335,0,0,1,3.332,3.332V250.633A3.332,3.332,0,0,1,343.877,253.973Z" transform="translate(-120.22 -86.46)" fill="#fff" opacity="0.6"/>
    </g>
    <path id="Path_3371" data-name="Path 3371" d="M164.453,86.46H124.471a4.249,4.249,0,0,0-4.251,4.251V249.723a4.249,4.249,0,0,0,4.251,4.251h39.983Z" transform="translate(-61.027 -86.46)" fill="#fff" opacity="0.3"/>
    <path id="Path_3372" data-name="Path 3372" d="M342.967,86.46h-218.5a4.249,4.249,0,0,0-4.251,4.251v11.078H347.209V90.711A4.248,4.248,0,0,0,342.967,86.46Z" transform="translate(-61.027 -86.46)" fill="#b4b4b4"/>
    <g id="Group_3779" data-name="Group 3779" transform="translate(65.874 3.967)">
      <path id="Path_3373" data-name="Path 3373" d="M128.738,92.557a.739.739,0,0,1,0-1.477h5.848a.739.739,0,1,1,0,1.477Z" transform="translate(-128 -91.08)" fill="#fff"/>
      <path id="Path_3374" data-name="Path 3374" d="M128.738,96.007a.739.739,0,0,1,0-1.477h5.848a.739.739,0,1,1,0,1.477Z" transform="translate(-128 -91.567)" fill="#fff"/>
      <path id="Path_3375" data-name="Path 3375" d="M128.738,99.467a.739.739,0,0,1,0-1.477h5.848a.739.739,0,1,1,0,1.477Z" transform="translate(-128 -92.056)" fill="#fff"/>
    </g>
    <path id="Path_3376" data-name="Path 3376" d="M180.83,117.671v49.248a1.88,1.88,0,0,0,1.881,1.881h15.371a1.88,1.88,0,0,0,1.881-1.881V117.671a1.88,1.88,0,0,0-1.881-1.881H182.711A1.88,1.88,0,0,0,180.83,117.671Z" transform="translate(-69.588 -90.604)" fill="#d4d4d4" opacity="0.7"/>
    <path id="Path_3377" data-name="Path 3377" d="M208.68,117.671v49.248a1.88,1.88,0,0,0,1.881,1.881h15.371a1.88,1.88,0,0,0,1.881-1.881V117.671a1.88,1.88,0,0,0-1.881-1.881H210.561A1.88,1.88,0,0,0,208.68,117.671Z" transform="translate(-73.522 -90.604)" fill="#d4d4d4" opacity="0.4"/>
    <path id="Path_3378" data-name="Path 3378" d="M236.53,117.671v49.248a1.88,1.88,0,0,0,1.881,1.881h15.371a1.88,1.88,0,0,0,1.881-1.881V117.671a1.88,1.88,0,0,0-1.881-1.881H238.411A1.88,1.88,0,0,0,236.53,117.671Z" transform="translate(-77.457 -90.604)" fill="#d4d4d4" opacity="0.7"/>
    <path id="Path_3379" data-name="Path 3379" d="M264.38,117.671v49.248a1.88,1.88,0,0,0,1.881,1.881h15.371a1.88,1.88,0,0,0,1.881-1.881V117.671a1.88,1.88,0,0,0-1.881-1.881H266.261A1.88,1.88,0,0,0,264.38,117.671Z" transform="translate(-81.392 -90.604)" fill="#d4d4d4" opacity="0.4"/>
    <path id="Path_3380" data-name="Path 3380" d="M292.23,117.671v49.248a1.88,1.88,0,0,0,1.881,1.881h15.371a1.88,1.88,0,0,0,1.881-1.881V117.671a1.88,1.88,0,0,0-1.881-1.881H294.111A1.88,1.88,0,0,0,292.23,117.671Z" transform="translate(-85.325 -90.604)" fill="#d4d4d4" opacity="0.7"/>
    <path id="Path_3381" data-name="Path 3381" d="M320.08,117.671v49.248a1.88,1.88,0,0,0,1.881,1.881h15.371a1.88,1.88,0,0,0,1.881-1.881V117.671a1.88,1.88,0,0,0-1.881-1.881H321.961A1.88,1.88,0,0,0,320.08,117.671Z" transform="translate(-89.259 -90.604)" fill="#d4d4d4" opacity="0.4"/>
    <path id="Path_3382" data-name="Path 3382" d="M347.93,117.671v49.248a1.88,1.88,0,0,0,1.881,1.881h15.371a1.88,1.88,0,0,0,1.881-1.881V117.671a1.88,1.88,0,0,0-1.881-1.881H349.811A1.886,1.886,0,0,0,347.93,117.671Z" transform="translate(-93.194 -90.604)" fill="#c4c4c4" opacity="0.7"/>
    <path id="Path_3383" data-name="Path 3383" d="M238.3,214.836h-.678v.876h-.945v-.876h-2.25v-.653l1.975-2.654h1.013l-1.829,2.516h1.125v-.781h.919v.781h.678v.79Z" transform="translate(-77.16 -104.128)"/>
    <path id="Path_3384" data-name="Path 3384" d="M241.971,213.452a1.156,1.156,0,0,1,.421.945,1.282,1.282,0,0,1-.189.7,1.367,1.367,0,0,1-.584.507,2.159,2.159,0,0,1-.962.189,2.979,2.979,0,0,1-.867-.12,2.287,2.287,0,0,1-.73-.335l.386-.739a1.739,1.739,0,0,0,.55.275,2,2,0,0,0,.635.094,1.018,1.018,0,0,0,.575-.146.464.464,0,0,0,.206-.4.434.434,0,0,0-.215-.4,1.47,1.47,0,0,0-.756-.137h-1.073l.215-2.353h2.55v.781h-1.743l-.069.8h.343A2.026,2.026,0,0,1,241.971,213.452Z" transform="translate(-77.814 -104.127)"/>
    <path id="Path_3385" data-name="Path 3385" d="M243.542,213.461a1.206,1.206,0,0,1-.292-.842,1.182,1.182,0,0,1,.292-.842,1,1,0,0,1,.747-.318.956.956,0,0,1,.747.318,1.2,1.2,0,0,1,.283.842,1.217,1.217,0,0,1-.283.842.972.972,0,0,1-.747.318A.943.943,0,0,1,243.542,213.461Zm1.065-.343a1.092,1.092,0,0,0,0-1,.359.359,0,0,0-.318-.163.377.377,0,0,0-.318.172,1.056,1.056,0,0,0,0,.979.377.377,0,0,0,.318.172A.342.342,0,0,0,244.607,213.117Zm2.173-1.6h.713l-2.86,4.182h-.713Zm-.189,4.088a.989.989,0,0,1-.369-.4,1.507,1.507,0,0,1,0-1.219.934.934,0,0,1,.369-.4,1,1,0,0,1,.532-.137.944.944,0,0,1,.747.318,1.206,1.206,0,0,1,.292.841,1.182,1.182,0,0,1-.292.842,1,1,0,0,1-.747.318A1.129,1.129,0,0,1,246.59,215.608Zm.859-.515a.857.857,0,0,0,.12-.49.794.794,0,0,0-.12-.489.367.367,0,0,0-.318-.172.391.391,0,0,0-.318.163,1.092,1.092,0,0,0,0,1,.369.369,0,0,0,.318.163A.377.377,0,0,0,247.449,215.092Z" transform="translate(-78.406 -104.118)"/>
    <path id="Path_3386" data-name="Path 3386" d="M314.058,213.235a1.29,1.29,0,0,1,.524.455,1.233,1.233,0,0,1,.189.687,1.347,1.347,0,0,1-.206.738,1.289,1.289,0,0,1-.575.49,1.887,1.887,0,0,1-.807.172,1.767,1.767,0,0,1-1.374-.541,2.205,2.205,0,0,1-.5-1.537,2.558,2.558,0,0,1,.266-1.219,1.906,1.906,0,0,1,.747-.773,2.332,2.332,0,0,1,1.116-.266,2.647,2.647,0,0,1,.644.077,1.716,1.716,0,0,1,.524.215l-.361.713a1.393,1.393,0,0,0-.781-.206,1.142,1.142,0,0,0-.842.309,1.307,1.307,0,0,0-.335.9,1.391,1.391,0,0,1,1.031-.369A1.6,1.6,0,0,1,314.058,213.235Zm-.421,1.649a.578.578,0,0,0,.2-.455.552.552,0,0,0-.2-.455.855.855,0,0,0-1.039.009.6.6,0,0,0-.009.9.759.759,0,0,0,.541.172A.818.818,0,0,0,313.637,214.884Z" transform="translate(-88.021 -104.116)"/>
    <path id="Path_3387" data-name="Path 3387" d="M318.46,213.452a1.156,1.156,0,0,1,.421.945,1.282,1.282,0,0,1-.189.7,1.366,1.366,0,0,1-.584.507,2.173,2.173,0,0,1-.97.189,2.979,2.979,0,0,1-.867-.12,2.286,2.286,0,0,1-.73-.335l.386-.739a1.739,1.739,0,0,0,.55.275,2,2,0,0,0,.635.094,1.018,1.018,0,0,0,.575-.146.464.464,0,0,0,.206-.4.426.426,0,0,0-.223-.4,1.47,1.47,0,0,0-.756-.137h-1.073l.215-2.353h2.55v.781h-1.743l-.069.8h.343A2.063,2.063,0,0,1,318.46,213.452Z" transform="translate(-88.619 -104.127)"/>
    <path id="Path_3388" data-name="Path 3388" d="M320.022,213.461a1.168,1.168,0,0,1-.292-.842,1.182,1.182,0,0,1,.292-.842,1,1,0,0,1,.747-.318.944.944,0,0,1,.747.318,1.2,1.2,0,0,1,.283.842,1.218,1.218,0,0,1-.283.842,1.037,1.037,0,0,1-1.494,0Zm1.073-.343a.868.868,0,0,0,.12-.5.805.805,0,0,0-.12-.5.359.359,0,0,0-.318-.163.377.377,0,0,0-.318.172,1.056,1.056,0,0,0,0,.979.377.377,0,0,0,.318.172A.342.342,0,0,0,321.1,213.117Zm2.173-1.6h.713l-2.86,4.182h-.713Zm-.189,4.088a.989.989,0,0,1-.369-.4,1.508,1.508,0,0,1,0-1.219.934.934,0,0,1,.369-.4,1,1,0,0,1,.532-.137.944.944,0,0,1,.747.318,1.168,1.168,0,0,1,.292.841,1.182,1.182,0,0,1-.292.842,1,1,0,0,1-.747.318A1.1,1.1,0,0,1,323.079,215.608Zm.859-.515a.857.857,0,0,0,.12-.49.794.794,0,0,0-.12-.489.367.367,0,0,0-.318-.172.391.391,0,0,0-.318.163,1.092,1.092,0,0,0,0,1,.369.369,0,0,0,.318.163A.377.377,0,0,0,323.938,215.092Z" transform="translate(-89.21 -104.118)"/>
    <path id="Path_3389" data-name="Path 3389" d="M328.857,97.228a1.726,1.726,0,0,1-1.03.429v.67h-.6v-.653a3.393,3.393,0,0,1-.842-.155,2.053,2.053,0,0,1-.644-.326l.326-.73a2.233,2.233,0,0,0,.532.283,2.66,2.66,0,0,0,.627.146v-1a5.631,5.631,0,0,1-.721-.223,1.236,1.236,0,0,1-.49-.369,1.011,1.011,0,0,1-.2-.644,1.136,1.136,0,0,1,.361-.85,1.7,1.7,0,0,1,1.048-.429V92.72h.6v.653a2.722,2.722,0,0,1,1.211.361l-.3.739a2.333,2.333,0,0,0-.919-.309v1.013a4.088,4.088,0,0,1,.7.215,1.371,1.371,0,0,1,.489.361,1,1,0,0,1,.2.635A1.1,1.1,0,0,1,328.857,97.228Zm-1.967-2.37a1.05,1.05,0,0,0,.326.163v-.85a.617.617,0,0,0-.335.172.414.414,0,0,0-.112.275A.381.381,0,0,0,326.891,94.858Zm1.254,1.855a.357.357,0,0,0,.112-.258.309.309,0,0,0-.112-.249,1,1,0,0,0-.318-.163v.824A.688.688,0,0,0,328.145,96.713Z" transform="translate(-90.059 -87.345)" fill="#fff"/>
    <path id="Path_3390" data-name="Path 3390" d="M331.763,93.539v4.182h-.97V94.311h-.833V93.53h1.8Z" transform="translate(-90.656 -87.459)" fill="#fff"/>
    <path id="Path_3391" data-name="Path 3391" d="M336,96.929v.79h-3.16v-.627l1.614-1.529a1.635,1.635,0,0,0,.344-.421.76.76,0,0,0,.086-.352.471.471,0,0,0-.172-.386.819.819,0,0,0-.5-.137,1.174,1.174,0,0,0-.5.1.875.875,0,0,0-.369.318l-.7-.455a1.64,1.64,0,0,1,.678-.567,2.256,2.256,0,0,1,.988-.206,2,2,0,0,1,.816.155,1.3,1.3,0,0,1,.541.429,1.128,1.128,0,0,1,.2.653,1.468,1.468,0,0,1-.146.635,2.4,2.4,0,0,1-.558.678l-.962.91H336Z" transform="translate(-91.034 -87.449)" fill="#fff"/>
    <path id="Path_3392" data-name="Path 3392" d="M337.223,98.118a.614.614,0,0,1,0-.833.627.627,0,0,1,.824,0,.531.531,0,0,1,.163.412.563.563,0,0,1-.163.421.6.6,0,0,1-.824,0Z" transform="translate(-91.658 -87.968)" fill="#fff"/>
    <path id="Path_3393" data-name="Path 3393" d="M339.687,97.53a1.707,1.707,0,0,1-.635-.747,3.014,3.014,0,0,1,0-2.319,1.764,1.764,0,0,1,.635-.747,1.707,1.707,0,0,1,2.49.747,3.014,3.014,0,0,1,0,2.319,1.817,1.817,0,0,1-.635.747,1.8,1.8,0,0,1-1.855,0Zm1.529-.893a1.873,1.873,0,0,0,.215-1.013,1.854,1.854,0,0,0-.215-1.013.672.672,0,0,0-.6-.326.686.686,0,0,0-.592.326,1.873,1.873,0,0,0-.215,1.013,1.854,1.854,0,0,0,.215,1.013.668.668,0,0,0,.592.326A.655.655,0,0,0,341.216,96.637Z" transform="translate(-91.906 -87.449)" fill="#fff"/>
    <path id="Path_3394" data-name="Path 3394" d="M346.373,93.988a2.165,2.165,0,0,1,.5,1.537,2.558,2.558,0,0,1-.266,1.219,1.906,1.906,0,0,1-.747.773,2.237,2.237,0,0,1-1.116.266,2.646,2.646,0,0,1-.644-.077,1.715,1.715,0,0,1-.524-.215l.361-.713a1.374,1.374,0,0,0,.781.206,1.114,1.114,0,0,0,.842-.318,1.329,1.329,0,0,0,.335-.91,1.416,1.416,0,0,1-1.039.378,1.6,1.6,0,0,1-.73-.163,1.29,1.29,0,0,1-.524-.455,1.233,1.233,0,0,1-.189-.687,1.346,1.346,0,0,1,.206-.739,1.314,1.314,0,0,1,.567-.489,1.988,1.988,0,0,1,2.19.386Zm-.781,1.262a.564.564,0,0,0,.2-.455.573.573,0,0,0-.2-.447.793.793,0,0,0-.532-.172.749.749,0,0,0-.507.163.623.623,0,0,0,0,.91.761.761,0,0,0,.515.172A.718.718,0,0,0,345.591,95.251Z" transform="translate(-92.556 -87.445)" fill="#fff"/>
    <path id="Path_3395" data-name="Path 3395" d="M351.316,95.926a1,1,0,0,1,.163.575,1.091,1.091,0,0,1-.223.678,1.345,1.345,0,0,1-.618.447,2.86,2.86,0,0,1-1.855,0,1.408,1.408,0,0,1-.618-.447,1.1,1.1,0,0,1-.215-.678.985.985,0,0,1,.163-.575,1.154,1.154,0,0,1,.472-.4,1.036,1.036,0,0,1-.361-.361.957.957,0,0,1-.129-.5,1.025,1.025,0,0,1,.206-.635,1.282,1.282,0,0,1,.567-.412,2.474,2.474,0,0,1,1.675,0,1.328,1.328,0,0,1,.575.412,1.025,1.025,0,0,1,.206.635.956.956,0,0,1-.129.5,1.035,1.035,0,0,1-.361.361A1.026,1.026,0,0,1,351.316,95.926Zm-1.022.988a.554.554,0,0,0,0-.876.9.9,0,0,0-.575-.163.873.873,0,0,0-.567.163.537.537,0,0,0-.206.438.515.515,0,0,0,.206.438.873.873,0,0,0,.567.163A.915.915,0,0,0,350.294,96.914Zm-1.048-2.6a.5.5,0,0,0-.009.764.72.72,0,0,0,.472.137.761.761,0,0,0,.481-.137.449.449,0,0,0,.18-.378.465.465,0,0,0-.18-.386.745.745,0,0,0-.481-.137A.726.726,0,0,0,349.247,94.312Z" transform="translate(-93.196 -87.451)" fill="#fff"/>
    <path id="Path_3396" data-name="Path 3396" d="M352.783,98.118a.613.613,0,0,1,0-.833.627.627,0,0,1,.824,0,.531.531,0,0,1,.163.412.563.563,0,0,1-.163.421.6.6,0,0,1-.824,0Z" transform="translate(-93.856 -87.968)" fill="#fff"/>
    <path id="Path_3397" data-name="Path 3397" d="M357.191,95.462a1.156,1.156,0,0,1,.421.945,1.283,1.283,0,0,1-.189.7,1.367,1.367,0,0,1-.584.507,2.158,2.158,0,0,1-.962.189,2.98,2.98,0,0,1-.867-.12,2.287,2.287,0,0,1-.73-.335l.386-.739a1.738,1.738,0,0,0,.55.275,2,2,0,0,0,.635.094,1.018,1.018,0,0,0,.575-.146.464.464,0,0,0,.206-.4.434.434,0,0,0-.215-.4,1.47,1.47,0,0,0-.756-.137h-1.073l.215-2.353h2.55v.781h-1.743l-.069.8h.343A2.042,2.042,0,0,1,357.191,95.462Z" transform="translate(-94.09 -87.459)" fill="#fff"/>
    <path id="Path_3398" data-name="Path 3398" d="M359.487,97.53a1.707,1.707,0,0,1-.635-.747,3.014,3.014,0,0,1,0-2.319,1.764,1.764,0,0,1,.635-.747,1.707,1.707,0,0,1,2.49.747,3.014,3.014,0,0,1,0,2.319,1.764,1.764,0,0,1-.635.747,1.714,1.714,0,0,1-.927.258A1.673,1.673,0,0,1,359.487,97.53Zm1.529-.893a1.873,1.873,0,0,0,.215-1.013,1.853,1.853,0,0,0-.215-1.013.672.672,0,0,0-.6-.326.686.686,0,0,0-.592.326,1.873,1.873,0,0,0-.215,1.013,1.853,1.853,0,0,0,.215,1.013.709.709,0,0,0,1.194,0Z" transform="translate(-94.705 -87.449)" fill="#fff"/>
    <path id="Path_3399" data-name="Path 3399" d="M364.883,93.539v4.182h-.97V94.311h-.833V93.53h1.8Z" transform="translate(-95.335 -87.459)" fill="#fff"/>
    <path id="Path_3400" data-name="Path 3400" d="M366.163,98.118a.613.613,0,0,1,0-.833.627.627,0,0,1,.824,0,.531.531,0,0,1,.163.412.563.563,0,0,1-.163.421.6.6,0,0,1-.824,0Z" transform="translate(-95.746 -87.968)" fill="#fff"/>
    <path id="Path_3401" data-name="Path 3401" d="M368.627,97.53a1.707,1.707,0,0,1-.635-.747,3.014,3.014,0,0,1,0-2.319,1.765,1.765,0,0,1,.635-.747,1.707,1.707,0,0,1,2.49.747,3.014,3.014,0,0,1,0,2.319,1.764,1.764,0,0,1-.635.747,1.8,1.8,0,0,1-1.855,0Zm1.529-.893a1.873,1.873,0,0,0,.215-1.013,1.854,1.854,0,0,0-.215-1.013.672.672,0,0,0-.6-.326.686.686,0,0,0-.593.326,1.873,1.873,0,0,0-.215,1.013,1.853,1.853,0,0,0,.215,1.013.668.668,0,0,0,.593.326A.655.655,0,0,0,370.156,96.637Z" transform="translate(-95.994 -87.449)" fill="#fff"/>
    <path id="Path_3402" data-name="Path 3402" d="M373.357,97.53a1.707,1.707,0,0,1-.635-.747,3.014,3.014,0,0,1,0-2.319,1.764,1.764,0,0,1,.635-.747,1.707,1.707,0,0,1,2.49.747,3.014,3.014,0,0,1,0,2.319,1.764,1.764,0,0,1-.635.747,1.8,1.8,0,0,1-1.855,0Zm1.529-.893a1.873,1.873,0,0,0,.215-1.013,1.854,1.854,0,0,0-.215-1.013.672.672,0,0,0-.6-.326.686.686,0,0,0-.592.326,1.872,1.872,0,0,0-.215,1.013,1.853,1.853,0,0,0,.215,1.013.668.668,0,0,0,.592.326A.655.655,0,0,0,374.886,96.637Z" transform="translate(-96.664 -87.449)" fill="#fff"/>
    <path id="Path_3403" data-name="Path 3403" d="M189.583,185.239v4.182h-.97v-3.409h-.833v-.781h1.8Z" transform="translate(-70.57 -100.413)"/>
    <path id="Path_3404" data-name="Path 3404" d="M191.04,185.24h1.9a2.665,2.665,0,0,1,1.2.258,1.982,1.982,0,0,1,.816.73,2.215,2.215,0,0,1,0,2.2,1.925,1.925,0,0,1-.816.73,2.69,2.69,0,0,1-1.2.258h-1.9Zm1.846,3.392a1.418,1.418,0,0,0,1-.352,1.37,1.37,0,0,0,0-1.889,1.418,1.418,0,0,0-1-.352H192v2.593Z" transform="translate(-71.031 -100.414)"/>
    <path id="Path_3405" data-name="Path 3405" d="M216.263,185.239v4.182h-.97v-3.409h-.833v-.781h1.8Z" transform="translate(-74.34 -100.413)"/>
    <path id="Path_3406" data-name="Path 3406" d="M223.981,185.24l-1.365,4.182h-1.039l-.919-2.834-.953,2.834h-1.03L217.3,185.24h1l.945,2.945.988-2.945h.893l.953,2.963.97-2.963Z" transform="translate(-74.74 -100.414)"/>
    <path id="Path_3407" data-name="Path 3407" d="M244.833,185.239v4.182h-.97v-3.409h-.833v-.781h1.8Z" transform="translate(-78.375 -100.413)"/>
    <path id="Path_3408" data-name="Path 3408" d="M250.093,189.432l-.009-2.508-1.228,2.07h-.438l-1.228-2.018v2.456h-.91V185.25h.8l1.563,2.6,1.546-2.6h.8l.009,4.182Z" transform="translate(-78.834 -100.416)"/>
    <path id="Path_3409" data-name="Path 3409" d="M278.578,191.806H269.9a3.434,3.434,0,0,1-3.435-3.435v-2.7a3.434,3.434,0,0,1,3.435-3.435h8.673a3.434,3.434,0,0,1,3.435,3.435v2.7A3.434,3.434,0,0,1,278.578,191.806Z" transform="translate(-81.687 -99.991)" fill="#dcdcdc"/>
    <g id="Group_3787" data-name="Group 3787" transform="translate(187.926 84.808)">
      <path id="Path_3410" data-name="Path 3410" d="M273.17,187.35a1.125,1.125,0,0,1,.292.79,1.236,1.236,0,0,1-.189.67,1.281,1.281,0,0,1-.584.489,2.283,2.283,0,0,1-.962.189,2.98,2.98,0,0,1-.867-.12,2.285,2.285,0,0,1-.73-.335l.378-.738a1.74,1.74,0,0,0,.55.275,2.017,2.017,0,0,0,.644.094,1.02,1.02,0,0,0,.575-.137.449.449,0,0,0,.206-.4c0-.343-.258-.515-.781-.515h-.438v-.644l.859-.97h-1.778v-.781h2.928v.627l-.945,1.073A1.668,1.668,0,0,1,273.17,187.35Z" transform="translate(-270.13 -185.22)" fill="#fff"/>
      <path id="Path_3411" data-name="Path 3411" d="M278.643,189.432l-.009-2.508-1.228,2.07h-.438l-1.228-2.018v2.456h-.91V185.25h.8l1.563,2.6,1.546-2.6h.8l.009,4.182Z" transform="translate(-270.794 -185.224)" fill="#fff"/>
    </g>
    <path id="Path_3412" data-name="Path 3412" d="M300.848,186.955a1.29,1.29,0,0,1,.524.455,1.233,1.233,0,0,1,.189.687,1.347,1.347,0,0,1-.206.738,1.289,1.289,0,0,1-.575.49,1.886,1.886,0,0,1-.807.172,1.767,1.767,0,0,1-1.374-.541,2.165,2.165,0,0,1-.5-1.537,2.558,2.558,0,0,1,.266-1.219,1.907,1.907,0,0,1,.747-.773,2.331,2.331,0,0,1,1.116-.266,2.647,2.647,0,0,1,.644.077,1.716,1.716,0,0,1,.524.215l-.361.713a1.393,1.393,0,0,0-.781-.206,1.142,1.142,0,0,0-.842.309,1.306,1.306,0,0,0-.335.9,1.391,1.391,0,0,1,1.03-.369A1.5,1.5,0,0,1,300.848,186.955Zm-.421,1.64a.623.623,0,0,0,0-.91.855.855,0,0,0-1.039.009.6.6,0,0,0-.009.9.884.884,0,0,0,1.048,0Z" transform="translate(-86.156 -100.403)"/>
    <path id="Path_3413" data-name="Path 3413" d="M306.653,189.432l-.009-2.508-1.228,2.07h-.438l-1.228-2.018v2.456h-.91V185.25h.8l1.563,2.6,1.546-2.6h.8l.009,4.182Z" transform="translate(-86.825 -100.416)"/>
    <path id="Path_3414" data-name="Path 3414" d="M329.363,185.239v4.182h-.97v-3.409h-.833v-.781h1.8Z" transform="translate(-90.317 -100.413)"/>
    <path id="Path_3415" data-name="Path 3415" d="M332.723,187.946v1.486h-.97v-1.494l-1.623-2.688h1.03l1.116,1.863,1.116-1.863h.953Z" transform="translate(-90.679 -100.416)"/>
    <path id="Path_3416" data-name="Path 3416" d="M357.73,187.35a1.125,1.125,0,0,1,.292.79,1.236,1.236,0,0,1-.189.67,1.281,1.281,0,0,1-.584.489,2.284,2.284,0,0,1-.962.189,2.98,2.98,0,0,1-.867-.12,2.284,2.284,0,0,1-.73-.335l.378-.738a1.737,1.737,0,0,0,.55.275,2.017,2.017,0,0,0,.644.094,1.02,1.02,0,0,0,.575-.137.45.45,0,0,0,.206-.4c0-.343-.258-.515-.781-.515h-.447v-.644l.859-.97H354.9v-.781h2.928v.627l-.945,1.073A1.662,1.662,0,0,1,357.73,187.35Z" transform="translate(-94.149 -100.412)"/>
    <path id="Path_3417" data-name="Path 3417" d="M361.233,187.946v1.486h-.97v-1.494l-1.623-2.688h1.03l1.116,1.863,1.116-1.863h.953Z" transform="translate(-94.707 -100.416)"/>
    <path id="Path_3418" data-name="Path 3418" d="M178.038,154.892h0a1.194,1.194,0,0,1,1-1.357l22.585-3.392,24.079-9.987,24.2-3.229,23.744,8.313,23.718-10.279h23.967l22.6-7.531a1.2,1.2,0,0,1,1.511.756h0a1.2,1.2,0,0,1-.756,1.511l-22.963,7.66H297.866l-24.122,10.451-24.088-8.433L226.179,142.5l-24.053,9.987L179.395,155.9A1.2,1.2,0,0,1,178.038,154.892Z" transform="translate(-69.192 -92.239)" fill="#191919"/>
    <path id="Path_3419" data-name="Path 3419" d="M201.577,159.3l-23.409-19.115A1.2,1.2,0,0,1,178,138.5h0a1.2,1.2,0,0,1,1.683-.172l22.568,18.437,23.272-3.881,23.813-8.733,24.019-11.593,24.148-6.441L321.37,129.3l22.516-7.883a1.194,1.194,0,0,1,1.52.73h0a1.194,1.194,0,0,1-.73,1.52l-23.057,8.072-23.967-3.194-23.581,6.286L250.258,146.34l-24.242,8.871Z" transform="translate(-69.151 -91.39)" fill="#b2b1b1"/>
    <circle id="Ellipse_129" data-name="Ellipse 129" cx="6.509" cy="6.509" r="6.509" transform="translate(73.491 33.723) rotate(-76.714)" fill="#c2c2c2"/>
    <path id="Path_3420" data-name="Path 3420" d="M158.9,142.247h-31.43a1.323,1.323,0,0,1-1.322-1.322v-6.612a1.323,1.323,0,0,1,1.322-1.322H158.9a1.323,1.323,0,0,1,1.322,1.322v6.612A1.323,1.323,0,0,1,158.9,142.247Z" transform="translate(-61.864 -93.033)" fill="#fff" stroke="#c5c5c5" stroke-width="1" opacity="0.5"/>
    <path id="Path_3421" data-name="Path 3421" d="M130.928,139.419l-1.357.713.258-1.511-1.1-1.073,1.52-.223.678-1.374.678,1.374,1.52.223-1.1,1.073.258,1.511Z" transform="translate(-62.228 -93.452)"/>
    <path id="Path_3422" data-name="Path 3422" d="M138.278,139.419l-1.357.713.258-1.511-1.1-1.073,1.52-.223.678-1.374.678,1.374,1.52.223-1.1,1.073.258,1.511Z" transform="translate(-63.266 -93.452)"/>
    <path id="Path_3423" data-name="Path 3423" d="M145.62,139.419l-1.357.713.266-1.511-1.1-1.073,1.511-.223.678-1.374.687,1.374,1.511.223-1.1,1.073.266,1.511Z" transform="translate(-64.306 -93.452)"/>
    <path id="Path_3424" data-name="Path 3424" d="M152.968,139.419l-1.357.713.258-1.511-1.1-1.073,1.52-.223.678-1.374.678,1.374,1.52.223-1.1,1.073.258,1.511Z" transform="translate(-65.342 -93.452)" fill="#d1d1d1" opacity="0.9"/>
    <path id="Path_3425" data-name="Path 3425" d="M160.318,139.419l-1.357.713.258-1.511-1.1-1.073,1.52-.223.678-1.374.678,1.374,1.52.223-1.1,1.073.258,1.511Z" transform="translate(-66.38 -93.452)" fill="#d1d1d1" opacity="0.9"/>
    <circle id="Ellipse_130" data-name="Ellipse 130" cx="6.509" cy="6.509" r="6.509" transform="translate(73.483 69.53) rotate(-76.714)" fill="#b2b2b2"/>
    <path id="Path_3426" data-name="Path 3426" d="M158.9,183.947h-31.43a1.323,1.323,0,0,1-1.322-1.322v-6.612a1.323,1.323,0,0,1,1.322-1.322H158.9a1.323,1.323,0,0,1,1.322,1.322v6.612A1.323,1.323,0,0,1,158.9,183.947Z" transform="translate(-61.864 -98.924)" fill="#fff" opacity="0.5"/>
    <path id="Path_3427" data-name="Path 3427" d="M130.928,181.111l-1.357.721.258-1.52-1.1-1.065,1.52-.223.678-1.374.678,1.374,1.52.223-1.1,1.065.258,1.52Z" transform="translate(-62.228 -99.342)" fill="#407bff"/>
    <path id="Path_3428" data-name="Path 3428" d="M138.278,181.111l-1.357.721.258-1.52-1.1-1.065,1.52-.223.678-1.374.678,1.374,1.52.223-1.1,1.065.258,1.52Z" transform="translate(-63.266 -99.342)" fill="#407bff"/>
    <path id="Path_3429" data-name="Path 3429" d="M145.62,181.111l-1.357.721.266-1.52-1.1-1.065,1.511-.223.678-1.374.687,1.374,1.511.223-1.1,1.065.266,1.52Z" transform="translate(-64.306 -99.342)" fill="#fff" opacity="0.9"/>
    <path id="Path_3430" data-name="Path 3430" d="M152.968,181.111l-1.357.721.258-1.52-1.1-1.065,1.52-.223.678-1.374.678,1.374,1.52.223-1.1,1.065.258,1.52Z" transform="translate(-65.342 -99.342)" fill="#fff" opacity="0.9"/>
    <path id="Path_3431" data-name="Path 3431" d="M160.318,181.111l-1.357.721.258-1.52-1.1-1.065,1.52-.223.678-1.374.678,1.374,1.52.223-1.1,1.065.258,1.52Z" transform="translate(-66.38 -99.342)" fill="#fff" opacity="0.9"/>
    <circle id="Ellipse_132" data-name="Ellipse 132" cx="6.509" cy="6.509" r="6.509" transform="translate(72.108 100.483) rotate(-45)" fill="#407bff"/>
    <circle id="Ellipse_133" data-name="Ellipse 133" cx="6.509" cy="6.509" r="6.509" transform="translate(72.108 100.483) rotate(-45)" fill="#fff" opacity="0.3"/>
    <path id="Path_3432" data-name="Path 3432" d="M158.9,225.647h-31.43a1.323,1.323,0,0,1-1.322-1.322v-6.612a1.323,1.323,0,0,1,1.322-1.322H158.9a1.323,1.323,0,0,1,1.322,1.322v6.612A1.323,1.323,0,0,1,158.9,225.647Z" transform="translate(-61.864 -104.815)" fill="#fff" opacity="0.5"/>
    <path id="Path_3433" data-name="Path 3433" d="M130.928,222.811l-1.357.713.258-1.511-1.1-1.065,1.52-.223.678-1.374.678,1.374,1.52.223-1.1,1.065.258,1.511Z" transform="translate(-62.228 -105.233)" fill="#407bff"/>
    <path id="Path_3434" data-name="Path 3434" d="M138.278,222.811l-1.357.713.258-1.511-1.1-1.065,1.52-.223.678-1.374.678,1.374,1.52.223-1.1,1.065.258,1.511Z" transform="translate(-63.266 -105.233)" fill="#407bff"/>
    <path id="Path_3435" data-name="Path 3435" d="M145.62,222.811l-1.357.713.266-1.511-1.1-1.065,1.511-.223.678-1.374.687,1.374,1.511.223-1.1,1.065.266,1.511Z" transform="translate(-64.306 -105.233)" fill="#407bff"/>
    <path id="Path_3436" data-name="Path 3436" d="M152.968,222.811l-1.357.713.258-1.511-1.1-1.065,1.52-.223.678-1.374.678,1.374,1.52.223-1.1,1.065.258,1.511Z" transform="translate(-65.342 -105.233)" fill="#407bff"/>
    <path id="Path_3437" data-name="Path 3437" d="M160.318,222.811l-1.357.713.258-1.511-1.1-1.065,1.52-.223.678-1.374.678,1.374,1.52.223-1.1,1.065.258,1.511Z" transform="translate(-66.38 -105.233)" fill="#fff" opacity="0.9"/>
    <circle id="Ellipse_134" data-name="Ellipse 134" cx="6.509" cy="6.509" r="6.509" transform="translate(72.11 136.292) rotate(-45)" fill="#263238"/>
    <circle id="Ellipse_135" data-name="Ellipse 135" cx="6.509" cy="6.509" r="6.509" transform="translate(72.11 136.292) rotate(-45)" fill="#fff" opacity="0.5"/>
    <path id="Path_3438" data-name="Path 3438" d="M158.9,267.337h-31.43a1.323,1.323,0,0,1-1.322-1.322V259.4a1.323,1.323,0,0,1,1.322-1.322H158.9a1.323,1.323,0,0,1,1.322,1.322v6.612A1.323,1.323,0,0,1,158.9,267.337Z" transform="translate(-61.864 -110.704)" fill="#fff" opacity="0.5"/>
    <path id="Path_3439" data-name="Path 3439" d="M130.928,264.509l-1.357.713.258-1.511-1.1-1.073,1.52-.215.678-1.383.678,1.383,1.52.215-1.1,1.073.258,1.511Z" transform="translate(-62.228 -111.122)" fill="#407bff"/>
    <path id="Path_3440" data-name="Path 3440" d="M138.278,264.509l-1.357.713.258-1.511-1.1-1.073,1.52-.215.678-1.383.678,1.383,1.52.215-1.1,1.073.258,1.511Z" transform="translate(-63.266 -111.122)" fill="#407bff"/>
    <path id="Path_3441" data-name="Path 3441" d="M145.62,264.509l-1.357.713.266-1.511-1.1-1.073,1.511-.215.678-1.383.687,1.383,1.511.215-1.1,1.073.266,1.511Z" transform="translate(-64.306 -111.122)" fill="#fff" opacity="0.9"/>
    <path id="Path_3442" data-name="Path 3442" d="M145.62,264.509l-1.357.713.266-1.511-1.1-1.073,1.511-.215.678-1.383Z" transform="translate(-64.306 -111.122)" fill="#407bff"/>
    <path id="Path_3443" data-name="Path 3443" d="M152.968,264.509l-1.357.713.258-1.511-1.1-1.073,1.52-.215.678-1.383.678,1.383,1.52.215-1.1,1.073.258,1.511Z" transform="translate(-65.342 -111.122)" fill="#fff" opacity="0.9"/>
    <path id="Path_3444" data-name="Path 3444" d="M160.318,264.509l-1.357.713.258-1.511-1.1-1.073,1.52-.215.678-1.383.678,1.383,1.52.215-1.1,1.073.258,1.511Z" transform="translate(-66.38 -111.122)" fill="#fff" opacity="0.9"/>
    <rect id="Rectangle_204" data-name="Rectangle 204" width="6.964" height="13.182" transform="translate(111.242 142.112)"/>
    <rect id="Rectangle_205" data-name="Rectangle 205" width="6.964" height="18.214" transform="translate(128.055 137.08)"/>
    <rect id="Rectangle_206" data-name="Rectangle 206" width="6.964" height="27.471" transform="translate(144.861 127.831)"/>
    <g id="Group_3798" data-name="Group 3798" transform="translate(119.649 132.451)">
      <rect id="Rectangle_207" data-name="Rectangle 207" width="6.964" height="20.756" transform="translate(0 2.095)" fill="#cbcbcb"/>
      <rect id="Rectangle_208" data-name="Rectangle 208" width="6.964" height="22.842" transform="translate(16.805 0)" fill="#cbcbcb"/>
      <rect id="Rectangle_209" data-name="Rectangle 209" width="6.964" height="22.301" transform="translate(33.619 0.541)" fill="#cbcbcb"/>
    </g>
    <rect id="Rectangle_213" data-name="Rectangle 213" width="6.964" height="30.107" transform="translate(161.676 125.186)"/>
    <path id="Path_3445" data-name="Path 3445" d="M316.208,262.347h-57.4l3.89-13.182,7.995-7.565,8.407,11.644,8.407-13.74,8.407,9.111,8.407-8.57,8.407-7.806h3.478Z" transform="translate(-80.604 -107.054)"/>
    <path id="Path_3446" data-name="Path 3446" d="M316.208,262.347h-57.4l3.89-8.8,7.995-6.475,8.407,6.174,8.407-7.17,8.407,2.542,8.407-2,8.407-3.426,3.478-10.949Z" transform="translate(-80.604 -107.054)" fill="#fff" opacity="0.8"/>
    <path id="Path_3447" data-name="Path 3447" d="M351.159,214.449h13.989a13.989,13.989,0,1,0-27.978,0h13.989Z" transform="translate(-91.674 -102.565)" fill="#ccffbd"/>
    <path id="Path_3448" data-name="Path 3448" d="M351.159,214.449h13.989a13.989,13.989,0,1,0-27.978,0h13.989Z" transform="translate(-91.674 -102.565)" fill="#fff" opacity="0.5"/>
    <path id="Path_3449" data-name="Path 3449" d="M361.051,204.556a13.99,13.99,0,0,0-23.881,9.893h13.989Z" transform="translate(-91.674 -102.565)" fill="#fff" opacity="0.7"/>
    <path id="Path_3450" data-name="Path 3450" d="M341.93,204.536l9.893,9.893V200.44A13.919,13.919,0,0,0,341.93,204.536Z" transform="translate(-92.347 -102.562)" opacity="0.2"/>
    <path id="Path_3451" data-name="Path 3451" d="M341.93,204.536l9.893,9.893V200.44A13.919,13.919,0,0,0,341.93,204.536Z" transform="translate(-92.347 -102.562)" fill="#407bff"/>
    <path id="Path_3452" data-name="Path 3452" d="M341.93,204.536l9.893,9.893V200.44A13.919,13.919,0,0,0,341.93,204.536Z" transform="translate(-92.347 -102.562)" fill="#fff" opacity="0.5"/>
    <path id="Path_3453" data-name="Path 3453" d="M360.931,208.775l-1-1-6.329,6.312a1.407,1.407,0,0,0-.378-.077,1.46,1.46,0,1,0,1.46,1.46,1.339,1.339,0,0,0-.077-.378Z" transform="translate(-93.736 -103.597)"/>
    <path id="Path_3454" data-name="Path 3454" d="M351.159,240.059h13.989a13.989,13.989,0,1,0-27.978,0h13.989Z" transform="translate(-91.674 -106.182)" fill="#407bff"/>
    <path id="Path_3455" data-name="Path 3455" d="M351.159,240.059h13.989a13.989,13.989,0,1,0-27.978,0h13.989Z" transform="translate(-91.674 -106.182)" fill="#fff" opacity="0.5"/>
    <path id="Path_3456" data-name="Path 3456" d="M361.051,230.156a13.99,13.99,0,0,0-23.881,9.893h13.989Z" transform="translate(-91.674 -106.181)" fill="#fff" opacity="0.7"/>
    <path id="Path_3457" data-name="Path 3457" d="M341.93,230.136l9.893,9.893V226.04A13.955,13.955,0,0,0,341.93,230.136Z" transform="translate(-92.347 -106.178)" fill="#7eca9c"/>
    <path id="Path_3458" data-name="Path 3458" d="M341.93,230.136l9.893,9.893V226.04A13.955,13.955,0,0,0,341.93,230.136Z" transform="translate(-92.347 -106.178)" fill="#fff" opacity="0.5"/>
    <path id="Path_3459" data-name="Path 3459" d="M353.923,239.542V231.41H352.5v8.132a1.438,1.438,0,0,0-.747,1.254,1.46,1.46,0,0,0,2.92,0A1.405,1.405,0,0,0,353.923,239.542Z" transform="translate(-93.734 -106.937)"/>
    <path id="Path_3460" data-name="Path 3460" d="M351.159,265.659h13.989a13.989,13.989,0,0,0-27.978,0h13.989Z" transform="translate(-91.674 -109.799)" fill="#d9d9d9"/>
    <path id="Path_3463" data-name="Path 3463" d="M341.93,255.746l9.893,9.893V251.65A13.955,13.955,0,0,0,341.93,255.746Z" transform="translate(-92.347 -109.796)" fill="#b1b1b1"/>
    <path id="Path_3465" data-name="Path 3465" d="M360.931,259.985l-1-1-6.329,6.312a1.407,1.407,0,0,0-.378-.077,1.46,1.46,0,1,0,1.46,1.46,1.339,1.339,0,0,0-.077-.378Z" transform="translate(-93.736 -110.831)"/>
    <path id="Path_3466" data-name="Path 3466" d="M373.682,102.86l-9.4.1a2.351,2.351,0,0,0-2.319,2.362l.086,7.866a2.346,2.346,0,0,0,2.361,2.319l2.722-.017,1.176,1.821a.992.992,0,0,0,1.683-.026l1.116-1.863,2.7-.017a2.335,2.335,0,0,0,2.319-2.362l-.086-7.849A2.333,2.333,0,0,0,373.682,102.86Z" transform="translate(-95.175 -88.777)" fill="#070707"/>
    <g id="Group_3805" data-name="Group 3805" transform="translate(269.265 19.141)">
      <path id="Path_3467" data-name="Path 3467" d="M366.859,110.065a.9.9,0,0,1,.515.833.952.952,0,0,1-.155.541,1.018,1.018,0,0,1-.421.361,1.323,1.323,0,0,1-.584.129,1.282,1.282,0,0,1-1-.4,1.61,1.61,0,0,1-.361-1.125,1.93,1.93,0,0,1,.2-.893,1.346,1.346,0,0,1,.55-.567,1.66,1.66,0,0,1,.816-.189,2.152,2.152,0,0,1,.472.052,1.214,1.214,0,0,1,.387.155l-.258.524a1.008,1.008,0,0,0-.575-.155.835.835,0,0,0-.618.232.967.967,0,0,0-.249.661,1.033,1.033,0,0,1,.756-.275A1.01,1.01,0,0,1,366.859,110.065Zm-.309,1.2a.457.457,0,0,0,0-.67.636.636,0,0,0-.756.009.4.4,0,0,0-.146.326.417.417,0,0,0,.146.326.576.576,0,0,0,.395.129A.553.553,0,0,0,366.55,111.267Z" transform="translate(-364.85 -108.751)" fill="#fff"/>
      <path id="Path_3468" data-name="Path 3468" d="M368.736,111.73a1.277,1.277,0,0,1-.464-.55,2.189,2.189,0,0,1,0-1.7,1.2,1.2,0,0,1,.464-.541,1.224,1.224,0,0,1,.678-.189,1.2,1.2,0,0,1,.678.189,1.3,1.3,0,0,1,.464.541,2.19,2.19,0,0,1,0,1.7,1.277,1.277,0,0,1-.464.55,1.2,1.2,0,0,1-.678.189A1.276,1.276,0,0,1,368.736,111.73Zm1.116-.653a1.418,1.418,0,0,0,.163-.747,1.339,1.339,0,0,0-.163-.747.5.5,0,0,0-.438-.24.505.505,0,0,0-.438.24,1.417,1.417,0,0,0-.163.747,1.339,1.339,0,0,0,.163.747.519.519,0,0,0,.876,0Z" transform="translate(-365.309 -108.75)" fill="#fff"/>
      <path id="Path_3469" data-name="Path 3469" d="M371.715,110.228a.9.9,0,0,1-.215-.618.861.861,0,0,1,.215-.618.707.707,0,0,1,.55-.232.72.72,0,0,1,.55.232.9.9,0,0,1,.215.618.861.861,0,0,1-.215.618.707.707,0,0,1-.55.232A.771.771,0,0,1,371.715,110.228Zm.781-.258a.623.623,0,0,0,.086-.361.588.588,0,0,0-.086-.361.264.264,0,0,0-.232-.12.273.273,0,0,0-.232.129.8.8,0,0,0,0,.721.264.264,0,0,0,.232.12A.273.273,0,0,0,372.5,109.971Zm1.589-1.168h.524l-2.1,3.066h-.524Zm-.137,3a.677.677,0,0,1-.266-.292,1.1,1.1,0,0,1,0-.893.677.677,0,0,1,.266-.292.752.752,0,0,1,.395-.1.72.72,0,0,1,.55.232.9.9,0,0,1,.215.618.861.861,0,0,1-.215.618.72.72,0,0,1-.55.232A1.011,1.011,0,0,1,373.947,111.8Zm.627-.386a.8.8,0,0,0,0-.721.273.273,0,0,0-.232-.129.285.285,0,0,0-.232.12.623.623,0,0,0-.086.361.588.588,0,0,0,.086.361.264.264,0,0,0,.232.12A.213.213,0,0,0,374.574,111.413Z" transform="translate(-365.789 -108.751)" fill="#fff"/>
    </g>
    <path id="Path_3470" data-name="Path 3470" d="M364.447,148.318l9.4-.1a2.351,2.351,0,0,0,2.319-2.362l-.086-7.866a2.346,2.346,0,0,0-2.361-2.319l-2.722.017-1.176-1.82a.992.992,0,0,0-1.683.026l-1.116,1.863-2.7.017A2.335,2.335,0,0,0,362,138.133l.086,7.849A2.333,2.333,0,0,0,364.447,148.318Z" transform="translate(-95.181 -93.093)" fill="#9b9b9b"/>
    <g id="Group_3807" data-name="Group 3807" transform="translate(269.24 47.917)">
      <path id="Path_3471" data-name="Path 3471" d="M366.95,143.718a.858.858,0,0,1,.309.7.915.915,0,0,1-.137.507.967.967,0,0,1-.429.369,1.585,1.585,0,0,1-.7.137,2.268,2.268,0,0,1-.635-.086,1.791,1.791,0,0,1-.532-.24l.283-.541a1.49,1.49,0,0,0,.4.206,1.464,1.464,0,0,0,.472.069.743.743,0,0,0,.421-.1.337.337,0,0,0,.155-.292.331.331,0,0,0-.163-.3,1.067,1.067,0,0,0-.55-.1h-.781l.155-1.726h1.872v.567h-1.279l-.052.584H366A1.459,1.459,0,0,1,366.95,143.718Z" transform="translate(-364.82 -142.267)" fill="#fff"/>
      <path id="Path_3472" data-name="Path 3472" d="M368.625,145.231a1.3,1.3,0,0,1-.464-.541,2.19,2.19,0,0,1,0-1.7,1.2,1.2,0,0,1,.464-.541,1.225,1.225,0,0,1,.678-.189,1.2,1.2,0,0,1,.678.189,1.3,1.3,0,0,1,.464.541,2.19,2.19,0,0,1,0,1.7,1.217,1.217,0,0,1-1.142.73A1.225,1.225,0,0,1,368.625,145.231Zm1.116-.653a1.417,1.417,0,0,0,.163-.747,1.339,1.339,0,0,0-.163-.747.486.486,0,0,0-.438-.24.505.505,0,0,0-.438.24,1.416,1.416,0,0,0-.163.747,1.339,1.339,0,0,0,.163.747.519.519,0,0,0,.876,0Z" transform="translate(-365.268 -142.26)" fill="#fff"/>
      <path id="Path_3473" data-name="Path 3473" d="M371.6,143.728a.9.9,0,0,1-.215-.618.861.861,0,0,1,.215-.618.707.707,0,0,1,.55-.232.72.72,0,0,1,.55.232.9.9,0,0,1,.215.618.861.861,0,0,1-.215.618.707.707,0,0,1-.55.232A.751.751,0,0,1,371.6,143.728Zm.781-.258a.623.623,0,0,0,.086-.361.588.588,0,0,0-.086-.361.264.264,0,0,0-.232-.12.273.273,0,0,0-.232.129.8.8,0,0,0,0,.721.273.273,0,0,0,.232.129A.278.278,0,0,0,372.386,143.471Zm1.6-1.168h.524l-2.1,3.066h-.524Zm-.137,3a.678.678,0,0,1-.266-.292,1.1,1.1,0,0,1,0-.893.678.678,0,0,1,.266-.292.753.753,0,0,1,.395-.1.72.72,0,0,1,.55.232.9.9,0,0,1,.215.618.861.861,0,0,1-.215.618.72.72,0,0,1-.55.232A.929.929,0,0,1,373.846,145.3Zm.627-.386a.8.8,0,0,0,0-.721.273.273,0,0,0-.232-.129.285.285,0,0,0-.232.12.623.623,0,0,0-.086.361.588.588,0,0,0,.086.361.264.264,0,0,0,.232.12A.225.225,0,0,0,374.473,144.913Z" transform="translate(-365.748 -142.26)" fill="#fff"/>
    </g>
    <g id="Group_3809" data-name="Group 3809" transform="translate(178.747 107.006)">
      <path id="Path_3474" data-name="Path 3474" d="M260.565,213.32a1.125,1.125,0,0,1,0-2.25H295.5a1.125,1.125,0,0,1,0,2.25Z" transform="translate(-259.44 -211.07)" fill="#dcdcdc"/>
      <path id="Path_3475" data-name="Path 3475" d="M260.565,222.8a1.125,1.125,0,0,1,0-2.25h28.124a1.125,1.125,0,0,1,0,2.25Z" transform="translate(-259.44 -212.409)" fill="#dcdcdc"/>
      <path id="Path_3476" data-name="Path 3476" d="M260.565,218.06a1.125,1.125,0,0,1,0-2.25h25.247a1.125,1.125,0,0,1,0,2.25Z" transform="translate(-259.44 -211.74)" fill="#dcdcdc"/>
    </g>
    <g id="Group_3812" data-name="Group 3812" transform="translate(111.242 107.006)">
      <path id="Path_3480" data-name="Path 3480" d="M181.955,213.32a1.125,1.125,0,0,1,0-2.25h34.933a1.125,1.125,0,1,1,0,2.25Z" transform="translate(-180.83 -211.07)" fill="#dcdcdc"/>
      <path id="Path_3481" data-name="Path 3481" d="M181.955,222.8a1.125,1.125,0,0,1,0-2.25H202.41a1.125,1.125,0,0,1,0,2.25Z" transform="translate(-180.83 -212.409)" fill="#dcdcdc"/>
      <path id="Path_3482" data-name="Path 3482" d="M181.955,218.06a1.125,1.125,0,1,1,0-2.25h29.626a1.125,1.125,0,0,1,0,2.25Z" transform="translate(-180.83 -211.74)" fill="#dcdcdc"/>
    </g>
    <path id="Path_3486" data-name="Path 3486" d="M352.3,219.772H337.371a1.485,1.485,0,0,1-1.451-1.34L333.979,196.2a1.2,1.2,0,0,1,1.219-1.34h14.933a1.485,1.485,0,0,1,1.451,1.34l1.941,22.233A1.2,1.2,0,0,1,352.3,219.772Z" transform="translate(-91.223 -101.773)" fill="purple"/>
    <path id="Path_3487" data-name="Path 3487" d="M353.3,219.772H338.371a1.485,1.485,0,0,1-1.451-1.34L334.979,196.2a1.2,1.2,0,0,1,1.219-1.34h14.933a1.485,1.485,0,0,1,1.451,1.34l1.941,22.233A1.2,1.2,0,0,1,353.3,219.772Z" transform="translate(-91.365 -101.773)" fill="#ccffbd"/>
    <path id="Path_3488" data-name="Path 3488" d="M353.3,219.772H338.371a1.485,1.485,0,0,1-1.451-1.34L334.979,196.2a1.2,1.2,0,0,1,1.219-1.34h14.933a1.485,1.485,0,0,1,1.451,1.34l1.941,22.233A1.2,1.2,0,0,1,353.3,219.772Z" transform="translate(-91.365 -101.773)" fill="#727272"/>
    <path id="Path_3490" data-name="Path 3490" d="M354.158,218.712l-1.915-21.932L338.46,219.056a.524.524,0,0,0,.335.129h14.933A.426.426,0,0,0,354.158,218.712Z" transform="translate(-91.857 -102.045)" fill="#fff" opacity="0.3"/>
    <path id="Path_3491" data-name="Path 3491" d="M349.644,208.325h-7.729a1,1,0,0,1-.97-.893l-.4-4.568a.805.805,0,0,1,.816-.893h7.729a1,1,0,0,1,.97.893l.4,4.568A.822.822,0,0,1,349.644,208.325Z" transform="translate(-92.15 -102.778)" fill="#fff" opacity="0.9"/>
    <path id="Path_3492" data-name="Path 3492" d="M350.443,217.575h-7.729a1,1,0,0,1-.97-.893l-.4-4.568a.805.805,0,0,1,.816-.893h7.729a1,1,0,0,1,.97.893l.395,4.568A.8.8,0,0,1,350.443,217.575Z" transform="translate(-92.265 -104.085)" fill="#fff" opacity="0.9"/>
    <g id="Group_3818" data-name="Group 3818" transform="translate(249.598 100.48)">
      <g id="Group_3816" data-name="Group 3816" transform="translate(0 0)">
        <path id="Path_3493" data-name="Path 3493" d="M342.242,204.02a.3.3,0,0,1-.292-.275.246.246,0,0,1,.249-.275h6.209a.3.3,0,0,1,.292.275.246.246,0,0,1-.249.275Z" transform="translate(-341.948 -203.47)" fill="#263238"/>
        <path id="Path_3494" data-name="Path 3494" d="M342.432,206.31a.3.3,0,0,1-.292-.275.246.246,0,0,1,.249-.275h5.152a.3.3,0,0,1,.292.275.246.246,0,0,1-.249.275Z" transform="translate(-341.975 -203.793)" fill="#263238"/>
        <path id="Path_3495" data-name="Path 3495" d="M342.332,205.17a.3.3,0,0,1-.292-.275.246.246,0,0,1,.249-.275h4.1a.3.3,0,0,1,.292.275.246.246,0,0,1-.249.275Z" transform="translate(-341.961 -203.632)" fill="#263238"/>
      </g>
      <g id="Group_3817" data-name="Group 3817" transform="translate(0 0)" opacity="0.5">
        <path id="Path_3496" data-name="Path 3496" d="M342.242,204.02a.3.3,0,0,1-.292-.275.246.246,0,0,1,.249-.275h6.209a.3.3,0,0,1,.292.275.246.246,0,0,1-.249.275Z" transform="translate(-341.948 -203.47)" fill="#fff"/>
        <path id="Path_3497" data-name="Path 3497" d="M342.432,206.31a.3.3,0,0,1-.292-.275.246.246,0,0,1,.249-.275h5.152a.3.3,0,0,1,.292.275.246.246,0,0,1-.249.275Z" transform="translate(-341.975 -203.793)" fill="#fff"/>
        <path id="Path_3498" data-name="Path 3498" d="M342.332,205.17a.3.3,0,0,1-.292-.275.246.246,0,0,1,.249-.275h4.1a.3.3,0,0,1,.292.275.246.246,0,0,1-.249.275Z" transform="translate(-341.961 -203.632)" fill="#fff"/>
      </g>
    </g>
    <g id="Group_3821" data-name="Group 3821" transform="translate(250.304 108.544)">
      <g id="Group_3819" data-name="Group 3819" transform="translate(0 0)">
        <path id="Path_3499" data-name="Path 3499" d="M343.062,213.41a.3.3,0,0,1-.292-.275.246.246,0,0,1,.249-.275h6.209a.3.3,0,0,1,.292.275.246.246,0,0,1-.249.275Z" transform="translate(-342.768 -212.86)" fill="#263238"/>
        <path id="Path_3500" data-name="Path 3500" d="M343.162,214.55a.3.3,0,0,1-.292-.275.246.246,0,0,1,.249-.275h4.1a.3.3,0,0,1,.292.275.246.246,0,0,1-.249.275Z" transform="translate(-342.782 -213.021)" fill="#263238"/>
      </g>
      <g id="Group_3820" data-name="Group 3820" transform="translate(0 0)" opacity="0.5">
        <path id="Path_3501" data-name="Path 3501" d="M343.062,213.41a.3.3,0,0,1-.292-.275.246.246,0,0,1,.249-.275h6.209a.3.3,0,0,1,.292.275.246.246,0,0,1-.249.275Z" transform="translate(-342.768 -212.86)" fill="#fff"/>
        <path id="Path_3502" data-name="Path 3502" d="M343.162,214.55a.3.3,0,0,1-.292-.275.246.246,0,0,1,.249-.275h4.1a.3.3,0,0,1,.292.275.246.246,0,0,1-.249.275Z" transform="translate(-342.782 -213.021)" fill="#fff"/>
      </g>
    </g>
    <path id="Path_3503" data-name="Path 3503" d="M370.667,179.072c.146-.5-.009-.97-.335-1.065s-.7.232-.842.73.009.97.335,1.065S370.521,179.57,370.667,179.072Z" transform="translate(-96.233 -99.391)" fill="#263238"/>
    <path id="Path_3504" data-name="Path 3504" d="M369.486,180.12l-3.8,2.43a3.375,3.375,0,0,0,2.619,1.537Z" transform="translate(-95.703 -99.691)" fill="#d6a19b"/>
    <path id="Path_3505" data-name="Path 3505" d="M387.324,183.478c-2.542,6-3.5,8.6-7.7,10.665-5.874,1.537-13.173-1.348-12.469-7.995.627-5.985,4.671-14.779,11.567-15.131a8.9,8.9,0,0,1,9.343,8.441A9,9,0,0,1,387.324,183.478Z" transform="translate(-95.902 -98.404)" fill="#e5b0aa"/>
    <path id="Path_3506" data-name="Path 3506" d="M371.957,177.777a.315.315,0,0,1-.206-.2,2.4,2.4,0,0,0-1.477-1.606.3.3,0,1,1,.172-.575,3.007,3.007,0,0,1,1.889,2.009.289.289,0,0,1-.172.378c-.009,0-.009,0-.017.009A.357.357,0,0,1,371.957,177.777Z" transform="translate(-96.319 -99.023)" fill="#263238"/>
    <path id="Path_3507" data-name="Path 3507" d="M373.347,194.178s-4.371.885-6.1-2.928c.584,3.057,3.134,5.015,6.2,5.779l1.056-.738-.567-1.554Z" transform="translate(-95.923 -101.263)" opacity="0.2"/>
    <path id="Path_3508" data-name="Path 3508" d="M381.715,204.438s-3.778-1.846-1.056-9.042c0,0-3.014-2.988-6.148-1.717s-.507,7.892-4.191,8.914C370.329,202.592,372.252,205.263,381.715,204.438Z" transform="translate(-96.357 -101.562)" fill="#e5b0aa"/>
    <path id="Path_3509" data-name="Path 3509" d="M370.529,178a1.5,1.5,0,0,1-.919-.7,1.165,1.165,0,0,0,.781.936Z" transform="translate(-96.256 -99.293)" fill="#263238"/>
    <path id="Path_3510" data-name="Path 3510" d="M368.24,203.983s2.25-3.512,8.321-2.808,4.869,4.362,4.869,4.362Z" transform="translate(-96.063 -102.652)" fill="#a1a1a1"/>
    <path id="Path_3512" data-name="Path 3512" d="M373.93,181.589a9.886,9.886,0,0,1,1.76-4.963c1.735-2.585.756-4.251.85-5.882s8.467-3.28,11.687,2.3c0,0,5.8,5.006,1.717,11.018s-5.728,10.605-10.665,9.841C374.342,193.156,377.15,184.99,373.93,181.589Z" transform="translate(-96.867 -98.146)" fill="#40394a"/>
    <path id="Path_3513" data-name="Path 3513" d="M389.181,173.054a7.916,7.916,0,0,0-6.346-3.8c-1.28,2.851,2.1,6.011,2.1,6.011s-4.963,1.228-4.173,5.29,6.578,1.924,6.578,1.924-3.65,3.538-.979,5.625a1.909,1.909,0,0,0,1.666.429c.859-1.331,1.778-2.842,2.877-4.457C394.978,178.061,389.181,173.054,389.181,173.054Z" transform="translate(-97.82 -98.156)" opacity="0.4"/>
    <path id="Path_3514" data-name="Path 3514" d="M389.741,173.413a7.2,7.2,0,0,0-1.288-1.623,7,7,0,0,0-3.813,6.234c0,5.788,5.127,6.878,6.44,6.982.129-.189.249-.378.387-.575C395.537,178.419,389.741,173.413,389.741,173.413Z" transform="translate(-98.379 -98.515)" fill="#ccffbd"/>
    <path id="Path_3515" data-name="Path 3515" d="M374.07,181.351a5.015,5.015,0,0,0-2.035,3.263c-.275,1.743,1.34,2.43,2.885,1.786,1.4-.584,3.2-2.19,2.774-3.873A2.269,2.269,0,0,0,374.07,181.351Z" transform="translate(-96.595 -99.797)" fill="#e5b0aa"/>
    <path id="Path_3516" data-name="Path 3516" d="M387.444,175.122s-4.448-4.946-.721-7.823c3.006-2.319,5.324,3.538,5.324,3.538s-.489-6.544,4.122-5.8c4.654.756,1.82,6.44,1.82,6.44s4.079-2.576,5.8.215-3.28,4.629-3.28,4.629,5.642,3.323,2.963,5.633-5.255-.447-5.255-.447,1.614,4.465-1.391,5.17c-2.722.635-3.538-3.5-3.538-3.5s-2.044,4.938-4.508,3.006.1-5.2.1-5.2-4.551,1.975-5.281-1.778C382.849,175.457,387.444,175.122,387.444,175.122Z" transform="translate(-98.222 -97.553)" fill="#40394a"/>
    <path id="Path_3517" data-name="Path 3517" d="M393.7,222.77s8.167,17.553,4.234,19.141S382,246.2,382,246.2l-5.771,2.087-3.349-2.173.85-5.625,8.45,1.846,10.133-4.543-4.792-10.665Z" transform="translate(-96.719 -105.716)" fill="#e5b0aa"/>
    <path id="Path_3518" data-name="Path 3518" d="M391.908,211.77a.569.569,0,0,1,.936.155c1.872,4.337,10.674,25.152,8.218,28.184-1.829,2.25-10.657,3.435-10.657,3.435l-1.881-5.049,5.359-2.473-6.028-13.74C387.846,222.3,387.211,217.043,391.908,211.77Z" transform="translate(-98.83 -104.137)" fill="#5a5a5a"/>
    <path id="Path_3519" data-name="Path 3519" d="M387.845,222.328l3.212,7.325c2.662-15.835.85-17.853.85-17.853C387.21,217.073,387.845,222.328,387.845,222.328Z" transform="translate(-98.828 -104.166)" opacity="0.2"/>
    <path id="Path_3520" data-name="Path 3520" d="M389.31,386.584l4.6,15.655,4.672-.275L397.6,384.97Z" transform="translate(-99.039 -128.63)" fill="#e5b0aa"/>
    <path id="Path_3521" data-name="Path 3521" d="M360.663,251.624s-5.685,11.421-.223,32.426,27.316,94.177,27.316,94.177l6.157-.739s.387-26.26-8.27-47.445c0,0-4.156-36.024-2.13-44.491,1.417-5.917,2.276-10.863-.163-19.837a62.952,62.952,0,0,0-3.942-11.155c-1.606-3.2-1.134-4.431-1.134-4.431Z" transform="translate(-94.626 -109.581)" fill="#d6d6d6"/>
    <path id="Path_3522" data-name="Path 3522" d="M392.523,398.719l6.157-.738s.017-1.013-.026-2.791l-6.9.936C392.248,397.792,392.523,398.719,392.523,398.719Z" transform="translate(-99.384 -130.073)" opacity="0.5"/>
    <path id="Path_3523" data-name="Path 3523" d="M368.609,314.464c7.892-21.941,5.719-37.87,5.719-37.87l-4.938-.644-3.864,6.87-2.7,11.258C364.367,299.642,366.377,306.727,368.609,314.464Z" transform="translate(-95.299 -113.229)" opacity="0.4"/>
    <path id="Path_3524" data-name="Path 3524" d="M393.167,404.432l5.556-.773a.517.517,0,0,1,.55.343l2.653,5.075a.864.864,0,0,1-.524,1.108,1.379,1.379,0,0,1-.18.043c-2.319.24-4.388.361-7.265.713-3.4.412-2.482.713-6.475,1.254-2.4.326-3.177-2.362-2.173-2.619,4.6-1.151,4.912-2.619,6.509-4.508A2.1,2.1,0,0,1,393.167,404.432Z" transform="translate(-98.415 -131.269)" fill="#40394a"/>
    <path id="Path_3525" data-name="Path 3525" d="M391.07,397.795l8.536-1.065-.137,2.542-7.523.927Z" transform="translate(-99.289 -130.291)" fill="#b4b4b4"/>
    <path id="Path_3526" data-name="Path 3526" d="M361.84,388.08l2.009,15.6h4.723l1.219-15.311Z" transform="translate(-95.159 -129.069)" fill="#e5b0aa"/>
    <path id="Path_3527" data-name="Path 3527" d="M351.506,249.83a14.835,14.835,0,0,1-1.142,4.088,55.544,55.544,0,0,0-3.555,27.995c2.508,21.554,14.04,97.046,14.04,97.046h6.209s4.251-25.65-.764-48.252c0,0-1.778-31.808.867-40.1,1.846-5.771,7.059-11.361,5.719-23.564s-4.577-16.376-4.577-16.376Z" transform="translate(-92.975 -109.539)" fill="#d6d6d6"/>
    <path id="Path_3528" data-name="Path 3528" d="M362.72,396.94c.275,1.795.429,2.808.429,2.808h6.209s.172-1.022.4-2.808Z" transform="translate(-95.283 -130.321)" opacity="0.5"/>
    <path id="Path_3529" data-name="Path 3529" d="M362.451,405.68l5.522.12a.522.522,0,0,1,.5.412l1.056,5.213a.855.855,0,0,1-.661,1.013,1.27,1.27,0,0,1-.18.017c-2.3-.086-4.345-.249-7.213-.292-3.383-.06-2.533.361-6.509.343-2.4-.008-2.782-2.739-1.769-2.86,4.663-.5,6.028-1.9,7.849-3.529A2.164,2.164,0,0,1,362.451,405.68Z" transform="translate(-93.864 -131.555)" fill="#40394a"/>
    <path id="Path_3530" data-name="Path 3530" d="M361.84,398.68h8.6l-.481,2.5h-7.591Z" transform="translate(-95.159 -130.566)" fill="#b4b4b4"/>
    <path id="Path_3531" data-name="Path 3531" d="M381.9,254.01c-8.8-12.125,6.544-39.072,4.749-44.113s-29.764-13.422-33.43.859-1.726,24.062-2.276,30.262c-.816,9.12-4.568,12.769-4.568,12.769S365.795,261.095,381.9,254.01Z" transform="translate(-92.973 -102.899)"/>
    <path id="Path_3532" data-name="Path 3532" d="M352.01,223.189a99.851,99.851,0,0,0-.292,12.58c10.4-12.057,8.1-23.469,8.1-23.469l-.85.532-3.761,3.109C355.213,215.958,353.719,219.161,352.01,223.189Z" transform="translate(-93.72 -104.237)" opacity="0.2"/>
    <path id="Path_3533" data-name="Path 3533" d="M332.855,220.9s2.911,15.2,6.234,17.836S353.9,222.584,353.9,222.584l-5.676-3.392-7.875,10.588-4.646-10.9.919-5.814-1.511-3.564a1.241,1.241,0,0,0-2.215.094l-1.717,3.8a3.381,3.381,0,0,0-.1,2.525Z" transform="translate(-90.786 -103.752)" fill="#e5b0aa"/>
    <path id="Path_3534" data-name="Path 3534" d="M340.856,228.316l-2.722-6.586L334.51,227.1s1.8,12.821,6.415,11.627c4.405-1.142,14.375-16.136,16.531-21.915s-.764-11.413-.764-11.413-3.529-.919-8.072,9.738C344.72,224.289,340.856,228.316,340.856,228.316Z" transform="translate(-91.298 -103.259)" fill="#5a5a5a"/>
    <path id="Path_3535" data-name="Path 3535" d="M122.293,198.1a2.038,2.038,0,0,0-3.091.593c-3.486,6.277-13.5,25.255-10.313,30.537,3.839,6.363,22.078,5.848,22.078,5.848l.876-5.393-11.7-6.054s3.607-7.2,4.706-9.644C126.535,210.228,129.052,203.813,122.293,198.1Z" transform="translate(-59.339 -102.165)" fill="#5a5a5a"/>
    <path id="Path_3536" data-name="Path 3536" d="M121.677,223.986s3.607-7.2,4.706-9.644c1.219-2.722,2.868-6.818,1.142-11.043l-2.988-3.169-2.86.9s-5.8,27.952.017,33.688c1.992.309,3.959.5,5.659.6,2.044-1.185,3.538-3.753,4.526-6.054Z" transform="translate(-60.87 -102.518)" fill="#400240" opacity="0.4"/>
    <path id="Path_3537" data-name="Path 3537" d="M144.54,167.177c-.163-.567.009-1.108.378-1.219s.8.266.962.833-.009,1.108-.378,1.219S144.7,167.743,144.54,167.177Z" transform="translate(-64.454 -97.688)" fill="#263238"/>
    <path id="Path_3538" data-name="Path 3538" d="M145.42,168.39l4.328,2.774a3.871,3.871,0,0,1-2.988,1.76Z" transform="translate(-64.586 -98.034)" fill="#cb9f9a"/>
    <path id="Path_3539" data-name="Path 3539" d="M121.85,172.21c2.9,6.853,3.985,9.815,8.793,12.168,6.7,1.752,15.028-1.537,14.221-9.12-.721-6.827-5.333-16.857-13.19-17.261a10.158,10.158,0,0,0-10.657,9.626A10.019,10.019,0,0,0,121.85,172.21Z" transform="translate(-61.137 -96.564)" fill="#e5b0aa"/>
    <path id="Path_3540" data-name="Path 3540" d="M142.874,165.711a.354.354,0,0,0,.232-.223,2.73,2.73,0,0,1,1.683-1.838.34.34,0,0,0,.232-.421.357.357,0,0,0-.429-.24,3.426,3.426,0,0,0-2.155,2.293.331.331,0,0,0,.2.429c.009,0,.009,0,.017.009A.389.389,0,0,0,142.874,165.711Z" transform="translate(-64.162 -97.27)" fill="#263238"/>
    <path id="Path_3541" data-name="Path 3541" d="M140.364,184.42s4.981,1.013,6.956-3.34c-.67,3.5-3.572,5.719-7.067,6.6l-1.2-.842.653-1.769Z" transform="translate(-63.686 -99.827)" opacity="0.2"/>
    <path id="Path_3542" data-name="Path 3542" d="M129.34,197.58s4.809-2.353,1.34-11.516c0,0,3.839-3.8,7.832-2.19s.644,10.056,5.333,11.361C143.853,195.227,141.4,198.619,129.34,197.58Z" transform="translate(-62.315 -100.165)" fill="#e5b0aa"/>
    <path id="Path_3543" data-name="Path 3543" d="M130.391,193.714s-.867-3.117,4.465-4.431,9.772.3,10.485,2.636S130.391,193.714,130.391,193.714Z" transform="translate(-62.457 -100.92)" fill="#989898"/>
    <path id="Path_3545" data-name="Path 3545" d="M139.44,169.88a1.935,1.935,0,0,0,0-3.066c-1.752-1.606-4.311-2.98-3.564-5.2s-2.679-3.753-2.679-3.753,3.358-2.19,1.391-3.942c-2.027-1.8-2.86,1.537-7.591,3.4-5.444,2.155-11.533,7.325-7.814,14.118s7.007,12.486,11.464,11.387,6.569-9.712,6.569-9.712Z" transform="translate(-60.718 -95.918)" fill="#40394a"/>
    <path id="Path_3546" data-name="Path 3546" d="M140.837,169.789a5.733,5.733,0,0,1,2.319,3.718c.318,1.992-1.529,2.774-3.289,2.035-1.6-.661-3.658-2.5-3.169-4.414A2.592,2.592,0,0,1,140.837,169.789Z" transform="translate(-63.343 -98.154)" fill="#e5b0aa"/>
    <path id="Path_3547" data-name="Path 3547" d="M153.73,392.363l1.692,11.447,6.887-.249.524-11.851Z" transform="translate(-65.759 -129.582)" fill="#e5b0aa"/>
    <path id="Path_3548" data-name="Path 3548" d="M161.844,404.559l-6.793.146a.641.641,0,0,0-.61.507l-1.305,6.406a1.05,1.05,0,0,0,.807,1.245,1,1,0,0,0,.223.026c2.825-.1,5.341-.3,8.862-.361,4.156-.077,3.109.438,7.995.421,2.945-.017,3.426-3.375,2.173-3.512-5.728-.618-7.4-2.327-9.644-4.337A2.5,2.5,0,0,0,161.844,404.559Z" transform="translate(-65.673 -131.396)" fill="#40394a"/>
    <path id="Path_3549" data-name="Path 3549" d="M114.537,392.363l-.447,10.15,7.153.936,2.4-11.739Z" transform="translate(-60.161 -129.582)" fill="#e5b0aa"/>
    <path id="Path_3550" data-name="Path 3550" d="M120.41,403.169l-6.775-.429a.631.631,0,0,0-.644.455l-1.838,6.277a1.046,1.046,0,0,0,.7,1.305,1.908,1.908,0,0,0,.215.043c2.825.137,5.35.146,8.862.386,4.148.275,3.066.7,7.935,1.091,2.937.232,3.693-3.074,2.456-3.315-5.65-1.09-7.188-2.937-9.249-5.126A2.525,2.525,0,0,0,120.41,403.169Z" transform="translate(-59.739 -131.14)" fill="#40394a"/>
    <path id="Path_3551" data-name="Path 3551" d="M133.234,235.16l4.216,1.013,7.127-1.8,1.151,3.143.885,4.414-5.668.97-4.663-2.808-5.942-.12Z" transform="translate(-62.457 -107.355)" fill="#b97964"/>
    <path id="Path_3552" data-name="Path 3552" d="M121.979,198.47l3.478,48.888,37.372.292s4.56-13.5-1.073-32.632l-5.5-18.454a4.565,4.565,0,0,0-3.28-3.134c-5.539-1.365-19.012-3.006-29.523,2.43A2.71,2.71,0,0,0,121.979,198.47Z" transform="translate(-61.273 -101.381)"/>
    <path id="Path_3553" data-name="Path 3553" d="M123.374,256.608a97.739,97.739,0,0,0-2.611,21.013c.009,1.606.094,2.928.206,3.993a58.75,58.75,0,0,1,.258,9.678l-.052.833c-.575,9.309-.678,18.815-.661,25.084v.129A38.406,38.406,0,0,1,118.6,329.42c-.2.61-.4,1.228-.575,1.863C112.743,349.394,113.2,378.3,113.2,378.3l10.245.575,28.2-124.044H125.478A2.184,2.184,0,0,0,123.374,256.608Z" transform="translate(-60.033 -110.245)" fill="#d6d6d6"/>
    <path id="Path_3554" data-name="Path 3554" d="M141.956,278.215l-3.512-.807-2.164-2.628s.223,19.639,5.908,38.772l5.547-24.405Z" transform="translate(-63.296 -113.063)" opacity="0.2"/>
    <path id="Path_3555" data-name="Path 3555" d="M112.14,396.29l.146,3.014,11.662.481.524-3.066Z" transform="translate(-59.885 -130.229)" fill="#b4b4b4"/>
    <path id="Path_3557" data-name="Path 3557" d="M136.833,254.827c-2.387,14.341-.919,22.507.67,26.784.155.421.309.8.464,1.142a29.212,29.212,0,0,1,2.344,8.166c.017.137.034.266.052.4a254.28,254.28,0,0,0,6.011,29.257c.009.034.017.06.026.094a22.277,22.277,0,0,1,.567,8.716c-.129.953-.232,1.975-.309,3.049-1.125,16.694,4.362,47.127,4.362,47.127l10.03-.927,4.388-122.378a1.371,1.371,0,0,0-1.322-1.451H136.833Z" transform="translate(-63.195 -110.242)" fill="#d6d6d6"/>
    <path id="Path_3558" data-name="Path 3558" d="M152.05,398.122l.859,2.945,11.267-.979.172-3.109Z" transform="translate(-65.523 -130.326)" fill="#b4b4b4"/>
    <rect id="Rectangle_214" data-name="Rectangle 214" width="18.935" height="2.628" transform="translate(73.834 146.672)" fill="#fff"/>
    <path id="Path_3560" data-name="Path 3560" d="M133.1,257.26h-7.273l-.4,2.628H133.1Z" transform="translate(-61.762 -110.588)" fill="#fff"/>
    <rect id="Rectangle_215" data-name="Rectangle 215" width="5.771" height="2.628" transform="translate(95.33 146.672)" fill="#fff"/>
    <path id="Path_3561" data-name="Path 3561" d="M166.839,216.353l-2.971-9.961-2.035-2.834-2.628-2.018-1.245,3.066a24.783,24.783,0,0,0,10.1,16.522Q167.556,218.809,166.839,216.353Z" transform="translate(-66.358 -102.717)" opacity="0.4"/>
    <path id="Path_3562" data-name="Path 3562" d="M189.06,197.121l1.812-3.933-.318-6.123a3.026,3.026,0,0,1,.739-2.147l1.048-1.211a3.039,3.039,0,0,1,4.611.017l.6.7a2.978,2.978,0,0,1,.721,2.052l-.086,3.461a3.039,3.039,0,0,1-.79,1.967l-2.894,3.186-1.271,5.805Z" transform="translate(-70.752 -100.05)" fill="#e5b0aa"/>
    <path id="Path_3563" data-name="Path 3563" d="M161.1,194.679l17.638,14.195,6.166-11.928,5.29,2.216s-3.77,21.176-8.587,21.511-16.891-5.376-21.855-12.16c-3.615-4.938-1.975-10.588-.807-13.3A1.387,1.387,0,0,1,161.1,194.679Z" transform="translate(-66.299 -101.704)" fill="#5a5a5a"/>
  </g>
</svg>
