<svg xmlns="http://www.w3.org/2000/svg" xmlns:xlink="http://www.w3.org/1999/xlink" width="527.683" height="450.535" viewBox="0 0 527.683 450.535">
  <defs>
    <linearGradient id="linear-gradient" x1="-0.317" y1="2.017" x2="-0.317" y2="0.974" gradientUnits="objectBoundingBox">
      <stop offset="0" stop-color="#b5a6e7"/>
      <stop offset="1" stop-color="#7760bf"/>
    </linearGradient>
    <linearGradient id="linear-gradient-2" x1="-1.308" y1="7.89" x2="-0.204" y2="7.89" gradientUnits="objectBoundingBox">
      <stop offset="0" stop-color="#8b8be0"/>
      <stop offset="1" stop-color="#a177b7"/>
    </linearGradient>
    <linearGradient id="linear-gradient-3" x1="-0.176" y1="3.493" x2="-0.176" y2="2.974" gradientUnits="objectBoundingBox">
      <stop offset="0" stop-color="#fff"/>
      <stop offset="1" stop-color="#a177b7"/>
    </linearGradient>
    <linearGradient id="linear-gradient-4" x1="-0.607" y1="2.025" x2="-0.607" y2="0.944" gradientUnits="objectBoundingBox">
      <stop offset="0"/>
      <stop offset="1" stop-color="#fff"/>
    </linearGradient>
    <linearGradient id="linear-gradient-5" y1="0.5" x2="1" y2="0.5" gradientUnits="objectBoundingBox">
      <stop offset="0" stop-color="#9e8cef"/>
      <stop offset="1" stop-color="#caafee"/>
    </linearGradient>
    <linearGradient id="linear-gradient-6" x1="2.514" y1="0.5" x2="3.514" y2="0.5" xlink:href="#linear-gradient-5"/>
    <linearGradient id="linear-gradient-7" x1="0.5" y1="1" x2="0.5" gradientUnits="objectBoundingBox">
      <stop offset="0" stop-color="#d5cdf8"/>
      <stop offset="1" stop-color="#f3edfb"/>
    </linearGradient>
    <linearGradient id="linear-gradient-8" y1="0.5" x2="1" y2="0.5" gradientUnits="objectBoundingBox">
      <stop offset="0" stop-color="#ccf"/>
      <stop offset="1" stop-color="#755cbb"/>
    </linearGradient>
    <linearGradient id="linear-gradient-9" x1="0.501" y1="1.001" x2="0.501" gradientUnits="objectBoundingBox">
      <stop offset="0.016" stop-color="#ffc2a9"/>
      <stop offset="1" stop-color="#ff9595"/>
    </linearGradient>
    <linearGradient id="linear-gradient-10" x1="0.499" y1="1" x2="0.499" gradientUnits="objectBoundingBox">
      <stop offset="0" stop-color="#ffeadb"/>
      <stop offset="0.994" stop-color="#c27cb6"/>
    </linearGradient>
    <linearGradient id="linear-gradient-11" x1="0.5" y1="1" x2="0.5" y2="0" xlink:href="#linear-gradient-9"/>
    <linearGradient id="linear-gradient-13" x1="0.5" y1="1" x2="0.5" y2="0" xlink:href="#linear-gradient-10"/>
    <linearGradient id="linear-gradient-14" x1="0.5" y1="1.001" x2="0.5" gradientUnits="objectBoundingBox">
      <stop offset="0" stop-color="#ffb0b0"/>
      <stop offset="0.984" stop-color="#ffc2a9"/>
    </linearGradient>
    <linearGradient id="linear-gradient-15" x1="0.5" y1="1" x2="0.5" y2="0" xlink:href="#linear-gradient-14"/>
    <linearGradient id="linear-gradient-16" y1="0.5" x2="1" y2="0.5" gradientUnits="objectBoundingBox">
      <stop offset="0.016" stop-color="#d1a1d6"/>
      <stop offset="0.994" stop-color="#bd89c4"/>
    </linearGradient>
    <linearGradient id="linear-gradient-17" x1="0.5" y1="1" x2="0.5" y2="0" xlink:href="#linear-gradient-8"/>
    <linearGradient id="linear-gradient-18" x1="0.5" y1="1" x2="0.5" y2="0" xlink:href="#linear-gradient-8"/>
    <linearGradient id="linear-gradient-19" x1="0.5" y1="1" x2="0.5" y2="0" xlink:href="#linear-gradient-8"/>
    <linearGradient id="linear-gradient-20" x1="0.5" y1="1" x2="0.5" gradientUnits="objectBoundingBox">
      <stop offset="0" stop-color="#ccedff"/>
      <stop offset="1" stop-color="#755cbb"/>
    </linearGradient>
    <linearGradient id="linear-gradient-21" x1="0.501" y1="1" x2="0.501" y2="0" xlink:href="#linear-gradient-8"/>
    <linearGradient id="linear-gradient-22" x1="0.5" y1="1" x2="0.5" y2="0" xlink:href="#linear-gradient-9"/>
    <linearGradient id="linear-gradient-23" x1="0.471" y1="0.934" x2="0.517" y2="0.115" gradientUnits="objectBoundingBox">
      <stop offset="0" stop-color="#e1616a"/>
      <stop offset="1" stop-color="#ff8883"/>
    </linearGradient>
    <linearGradient id="linear-gradient-24" x1="0.5" y1="1.001" x2="0.5" gradientUnits="objectBoundingBox">
      <stop offset="0" stop-color="#cf6074"/>
      <stop offset="1" stop-color="#f37270"/>
    </linearGradient>
    <linearGradient id="linear-gradient-25" x1="0.499" y1="1" x2="0.499" gradientUnits="objectBoundingBox">
      <stop offset="0" stop-color="#cf6074"/>
      <stop offset="1" stop-color="#ff817f"/>
    </linearGradient>
    <linearGradient id="linear-gradient-26" x1="0.5" y1="1" x2="0.5" y2="0" xlink:href="#linear-gradient-10"/>
    <linearGradient id="linear-gradient-27" x1="0.5" y1="1" x2="0.5" y2="-0.001" gradientUnits="objectBoundingBox">
      <stop offset="0" stop-color="#776d7e"/>
      <stop offset="1" stop-color="#9d68c2"/>
    </linearGradient>
    <linearGradient id="linear-gradient-28" x1="-0.937" y1="0.969" x2="2.113" y2="0.036" gradientUnits="objectBoundingBox">
      <stop offset="0" stop-color="#1852a0"/>
      <stop offset="1" stop-color="#067ed3"/>
    </linearGradient>
  </defs>
  <g id="Group_5111" data-name="Group 5111" transform="translate(-719.208 -4266.957)">
    <path id="Path_5420" data-name="Path 5420" d="M148.244,196.15c.011-.284.148-.41.41-.41l7.636.228a5.815,5.815,0,0,1,1.923.341,3.181,3.181,0,0,1,1.263.853,3.138,3.138,0,0,1,.671,1.3,5.564,5.564,0,0,1,.171,1.673l-.068,2.094a6.112,6.112,0,0,1-.273,1.661,3.1,3.1,0,0,1-.751,1.252,3.308,3.308,0,0,1-1.309.774,5.827,5.827,0,0,1-1.935.228l-4.108-.125-.853-2.4h-.114l-.068,2.378-2.879-.091Zm2.663,7.2,4.882.148a1.587,1.587,0,0,0,1.183-.33,1.882,1.882,0,0,0,.387-1.274l.057-1.707a1.805,1.805,0,0,0-.307-1.309,1.606,1.606,0,0,0-1.161-.376l-4.666-.137a.247.247,0,0,0-.159.057.24.24,0,0,0-.057.148Z" transform="translate(665.311 4274.257)" fill="#f1f1f4"/>
    <path id="Path_5421" data-name="Path 5421" d="M162.832,200.46h-.1l-.091,3.05a.182.182,0,0,0,.193.2l8.58.262-.08,2.64-11.254-.341c-.273-.011-.4-.148-.4-.432l.284-9.343a.37.37,0,0,1,.421-.41l10.936.33c.284.011.421.148.41.432l-.08,2.64-2.7.91h-.114l.046-1.354c0-.1-.046-.159-.137-.159l-5.769-.171a.165.165,0,0,0-.148.057.3.3,0,0,0-.034.137l-.034,1.274,4.757.148-.068,2.071-3.983-.125Z" transform="translate(666.928 4274.305)" fill="#f1f1f4"/>
    <path id="Path_5422" data-name="Path 5422" d="M180.352,200.223h-.114l.034-1.115c0-.114-.046-.171-.159-.171l-5.371-.159a.569.569,0,0,0-.41.114.558.558,0,0,0-.125.364l-.011.25a.455.455,0,0,0,.091.376.864.864,0,0,0,.376.137l6.293,1.07a4.735,4.735,0,0,1,1.013.285,1.987,1.987,0,0,1,.671.478,1.634,1.634,0,0,1,.353.717,3.84,3.84,0,0,1,.08,1l-.023.808a3.543,3.543,0,0,1-.193,1.1,1.913,1.913,0,0,1-.523.8,2.253,2.253,0,0,1-.933.467,5.2,5.2,0,0,1-1.411.125l-9.058-.273.08-2.64,8.125.25a.672.672,0,0,0,.489-.114.756.756,0,0,0,.137-.467l.011-.285a.612.612,0,0,0-.08-.376.538.538,0,0,0-.353-.148l-6.077-.956a4.464,4.464,0,0,1-1.047-.284,2.12,2.12,0,0,1-.706-.467,1.665,1.665,0,0,1-.387-.694,3.142,3.142,0,0,1-.091-.967l.023-.717a2.4,2.4,0,0,1,.637-1.7,2.6,2.6,0,0,1,1.98-.546l9.047.273a.389.389,0,0,1,.421.455l-.068,2.094Z" transform="translate(668.48 4274.36)" fill="#f1f1f4"/>
    <path id="Path_5423" data-name="Path 5423" d="M182.57,206.953l.307-10.173,2.879.091-.307,10.173Z" transform="translate(670.086 4274.4)" fill="#f1f1f4"/>
    <path id="Path_5424" data-name="Path 5424" d="M195.629,202.973c0-.148,0-.307-.011-.467s-.023-.307-.034-.432v-.125l2.856.091-.148,5c-.011.262-.125.387-.364.376l-7.658-.228a5.815,5.815,0,0,1-1.923-.341,3.181,3.181,0,0,1-1.263-.853,3.009,3.009,0,0,1-.671-1.3,5.564,5.564,0,0,1-.171-1.673l.068-2.094a6.112,6.112,0,0,1,.273-1.661,3.1,3.1,0,0,1,.751-1.252,3.308,3.308,0,0,1,1.309-.774,5.827,5.827,0,0,1,1.935-.228l7.613.228c.273.011.4.148.4.432l-.068,2.2-2.7.9h-.114l.034-.979c0-.091-.034-.137-.125-.148l-4.859-.148a2.6,2.6,0,0,0-.706.057.967.967,0,0,0-.478.25,1.183,1.183,0,0,0-.284.5,3.386,3.386,0,0,0-.114.774l-.057,1.787a1.823,1.823,0,0,0,.307,1.3,1.559,1.559,0,0,0,1.161.4l4.825.148a.139.139,0,0,0,.159-.159Z" transform="translate(670.592 4274.432)" fill="#f1f1f4"/>
    <path id="Path_5425" data-name="Path 5425" d="M202.911,197.387a.849.849,0,0,1,.455.114.93.93,0,0,1,.239.319l3.641,7.431a.281.281,0,0,0,.262.171h.148c.148,0,.228-.068.228-.216l.228-7.658,2.617.08-.3,9.775c-.011.273-.137.4-.4.387l-4.142-.125a.66.66,0,0,1-.694-.432l-3.778-7.419a.27.27,0,0,0-.262-.171h-.137c-.148,0-.228.068-.228.216l-.228,7.647-2.617-.08.3-9.764c.011-.285.137-.41.4-.41Z" transform="translate(672.208 4274.465)" fill="#f1f1f4"/>
    <circle id="Ellipse_250" data-name="Ellipse 250" cx="176.406" cy="176.406" r="176.406" transform="translate(767.938 4266.957)" fill="#f8f8f8"/>
    <path id="Path_5426" data-name="Path 5426" d="M158.488,186.887a27.051,27.051,0,0,0-12.005-10.537l-2.674,1.252,6.02,10.924a11.753,11.753,0,0,1-3.687,6.509l-.011-.023a11.73,11.73,0,0,1-7.363-1.354l-4.518-11.63-2.674,1.252a27.127,27.127,0,0,0,.376,15.977s1.138,2.629,1.343,2.868c1.058,1.24,3.824,2.663,9.172,2.333L160.9,239.632a9.64,9.64,0,1,0,9.957-4.654l-15.146-36.7c3.607-3.8,4.37-6.794,4.1-8.523A28.518,28.518,0,0,0,158.488,186.887Zm15.158,60.664-4.882,2.287-4.415-3.084.467-5.371L169.7,239.1l4.415,3.084Z" transform="translate(662.908 4271.582)" fill="#c1c1c1"/>
    <path id="Path_5427" data-name="Path 5427" d="M159.658,189.407a27.051,27.051,0,0,0-12.005-10.537l-2.674,1.252L151,191.046a11.753,11.753,0,0,1-3.687,6.509l-.011-.023a11.73,11.73,0,0,1-7.363-1.354l-4.518-11.63-2.674,1.252a27.127,27.127,0,0,0,.376,15.977s4.165,5.587,10.5,5.2l18.435,35.174a9.639,9.639,0,1,0,9.957-4.654L156.87,200.8C161.274,196.19,159.658,189.407,159.658,189.407Zm15.169,60.664-4.882,2.287-4.415-3.084L166,243.9l4.882-2.287,4.415,3.084Z" transform="translate(663.07 4271.93)"/>
    <rect id="Rectangle_308" data-name="Rectangle 308" width="2.947" height="3.164" transform="translate(794.491 4454.862) rotate(-25.043)" fill="#e5e2ff"/>
    <rect id="Rectangle_309" data-name="Rectangle 309" width="2.947" height="3.164" transform="translate(806.709 4449.176) rotate(-25.043)" fill="#e5e2ff"/>
    <rect id="Rectangle_310" data-name="Rectangle 310" width="5.394" height="3.164" transform="translate(831.681 4521.412) rotate(-25.043)" fill="#e5e2ff"/>
    <g id="Group_5061" data-name="Group 5061" transform="translate(810.654 4477.382)">
      <path id="Path_5428" data-name="Path 5428" d="M145.66,206.359l14.9,28.62a7.265,7.265,0,0,0,6.008-2.811l-12.119-29.917A11.479,11.479,0,0,0,145.66,206.359Zm19.755,26.048a8.374,8.374,0,0,1-1.923,1.263,7.4,7.4,0,0,1-2.06.614l-14.919-28.028A15.285,15.285,0,0,1,150.1,203.9a12.91,12.91,0,0,1,3.687-1.092Z" transform="translate(-145.66 -202.227)" fill="url(#linear-gradient)"/>
      <path id="Path_5429" data-name="Path 5429" d="M163.609,228.779l1.149-.239a6.46,6.46,0,0,1-6.008,2.811l.876-.694A8.118,8.118,0,0,0,163.609,228.779Z" transform="translate(-143.854 -198.6)" fill="#e5e2ff"/>
      <path id="Path_5430" data-name="Path 5430" d="M145.66,206.361l.853-.114a13.9,13.9,0,0,1,7.272-3.437l.649-.546a11.139,11.139,0,0,0-8.774,4.1Z" transform="translate(-145.66 -202.23)" opacity="0.62" fill="url(#linear-gradient-2)"/>
    </g>
    <path id="Path_5431" data-name="Path 5431" d="M142.19,204.309a32.919,32.919,0,0,0,13.269-6.179l1.935,4.688s-2.2-2.173-7.021-.2c-5.633,2.3-5.326,6.828-5.326,6.828Z" transform="translate(664.515 4274.587)" opacity="0.62" fill="url(#linear-gradient-3)"/>
    <path id="Path_5432" data-name="Path 5432" d="M155.907,202.383a5.736,5.736,0,0,0-2.947-1.013l14.418,34.821,1.741-1.8Z" transform="translate(666.001 4275.034)" opacity="0.5" fill="url(#linear-gradient-4)"/>
    <path id="Path_5433" data-name="Path 5433" d="M155.581,202.26s-1.513,4.654,2.834,6.862Z" transform="translate(666.328 4275.156)" fill="#fff"/>
    <g id="Group_5065" data-name="Group 5065" transform="translate(888.84 4600.918)">
      <path id="Path_5434" data-name="Path 5434" d="M364.421,412.307H310.937c-5.6-31.089-18.617-71.543-18.617-71.543-3.164-1.878-9.343.432-9.343.432l-19.55,71.111H214.564c-2.595-43.88,21.416-93.688,21.416-93.688l-.011-.011a5.377,5.377,0,0,1-.637-2.72,6.464,6.464,0,0,1,1.821-2.117c1.32-1.206,2.89-2.412,2.89-2.412l91.161-.569s.922.467,2.094,1.172h.011C335.3,313.168,338,315.035,338,316.4a6.219,6.219,0,0,1-.922,3.368l-.046.057C356.58,356.718,364.421,412.307,364.421,412.307Z" transform="translate(-214.368 -310.79)" fill="#989898"/>
      <path id="Path_5435" data-name="Path 5435" d="M259.545,378.755c-6.543,28.358-20.745,49.3-31.726,46.77s-14.566-27.573-8.023-55.93,20.745-49.3,31.726-46.77S266.088,350.386,259.545,378.755Z" transform="translate(-214.07 -309.158)" opacity="0.5"/>
      <path id="Path_5436" data-name="Path 5436" d="M342.641,368.152c7.852,28.028,5.428,53.211-5.417,56.249s-26-17.217-33.865-45.245-5.428-53.211,5.417-56.249S334.789,340.124,342.641,368.152Z" transform="translate(-202.727 -309.16)" opacity="0.5"/>
      <g id="Group_5063" data-name="Group 5063" transform="translate(42.175 30.201)">
        <path id="Path_5437" data-name="Path 5437" d="M251.988,408.691l-.558-.091c6.225-36.642,22.008-67.367,22.167-67.674l.068-.08,4.017-3.516.375.432-3.983,3.482C273.358,342.61,258.076,372.811,251.988,408.691Z" transform="translate(-251.43 -337.33)" fill="url(#linear-gradient-5)"/>
      </g>
      <g id="Group_5064" data-name="Group 5064" transform="translate(77.759 30.19)">
        <path id="Path_5438" data-name="Path 5438" d="M308.77,408.692c-6.1-35.9-21.8-66.4-22.509-67.754l-3.562-3.2.376-.421,3.664,3.311c.159.307,16.364,31.328,22.588,67.97Z" transform="translate(-282.7 -337.32)" fill="url(#linear-gradient-6)"/>
      </g>
      <path id="Path_5439" data-name="Path 5439" d="M335.66,316.4a6.219,6.219,0,0,1-.922,3.368l-.046.057c-18.981,4.29-33.422,22.008-33.422,22.008,10.344,19.846,27.6,70.473,27.6,70.473H308.6c-5.6-31.089-18.617-71.543-18.617-71.543-3.164-1.878-9.343.432-9.343.432l-19.55,71.111H248.436c4.529-29.792,17.9-66.161,17.9-66.161-13.143-15.306-32.693-27.527-32.693-27.527l-.011-.011-2.321-1.457,1.684-1.263c8.455,8.114,35.72,18.708,36.562,19.038l-34.742-21.155c1.32-1.206,2.89-2.412,2.89-2.412l91.161-.569s.922.467,2.094,1.172l-24.9,13.7Z" transform="translate(-212.03 -310.79)" opacity="0.76"/>
      <path id="Path_5440" data-name="Path 5440" d="M282.87,337.967l10.64-6.907-2.526,6.907-1.855,20.779Z" transform="translate(-204.918 -307.994)" fill="#929292" opacity="0.76"/>
      <path id="Path_5441" data-name="Path 5441" d="M278.88,339.566,267.8,333.3,244.07,322.61l30.213,19.971,1.8,7.158Z" transform="translate(-210.27 -309.159)" fill="#d1d1d1" opacity="0.76"/>
    </g>
    <path id="Path_5442" data-name="Path 5442" d="M306.486,153.525c.068.489.125.751.125.751a65.165,65.165,0,0,1-1.889,6.441,52.35,52.35,0,0,1-7.089,13.792,27.146,27.146,0,0,1-3.1,3.619c-16.6-5.212-24.785-21.45-27.925-29.53a.409.409,0,0,1-.046-.125c-.6-1.525-1-2.754-1.252-3.55v-.011c-.193-.637-.285-.99-.285-.99.068-.137.137-.285.2-.421l.034-.057c.273-.569.546-1.149.8-1.707a80.981,80.981,0,0,0,4.552-12.711c.808-2.981,1.24-5.28,1.445-6.5.1-.626.148-.967.148-.967l7.738,4.085,26.662,14.111a43.865,43.865,0,0,0-.569,6.759c-.023,1.422.023,2.7.1,3.778.08,1.32.216,2.367.319,3.05v.011A.783.783,0,0,0,306.486,153.525Z" transform="translate(681.462 4264.023)" fill="#fe9083"/>
    <path id="Path_5443" data-name="Path 5443" d="M299.064,177.255a22.873,22.873,0,0,1-5.508,4.028.85.85,0,0,1-.137.08s-.057-.034-.159-.091l-.011-.011c-.58-.353-2.56-1.57-5.223-3.573-6.964-5.246-18.594-15.852-21.917-30.144-.011-.023-.011-.034-.023-.057a35.44,35.44,0,0,1-.8-5.223v-.011c-.034-.467-.068-.933-.08-1.411a73.32,73.32,0,0,0,6.316,11.288c4.711,6.9,11.778,14.418,20.221,14.463,7.306.046,11.05-4.95,12.95-9.559a26.079,26.079,0,0,0,1.536-5.235.035.035,0,0,0,.011-.023c.08-.41.137-.774.193-1.081v-.011c.023-.159.046-.3.057-.421.068-.512.091-.808.091-.808S309.385,166.933,299.064,177.255Z" transform="translate(681.487 4266.684)" fill="url(#linear-gradient-7)"/>
    <path id="Path_5444" data-name="Path 5444" d="M299.064,177.255a22.873,22.873,0,0,1-5.508,4.028h-.137l-.159-.011-.011-.011c-.58-.353-2.56-1.57-5.223-3.573-6.964-5.246-18.594-15.852-21.917-30.144-.011-.023-.011-.034-.023-.057a35.44,35.44,0,0,1-.8-5.223v-.011c-.034-.467-.068-.933-.08-1.411a73.32,73.32,0,0,0,6.316,11.288s4.6,12.631,14.543,18.89c4.984,3.129,8.762,2.674,11.539.831s4.575-5.03,5.633-7.442a17.5,17.5,0,0,0,1.457-6.35q.017-.563,0-1.024a26.079,26.079,0,0,0,1.536-5.235.035.035,0,0,0,.011-.023c.08-.41.137-.774.193-1.081v-.011c.023-.159.046-.3.057-.421.068-.512.091-.808.091-.808S309.385,166.933,299.064,177.255Z" transform="translate(681.487 4266.684)" opacity="0.5" fill="url(#linear-gradient-8)"/>
    <path id="Path_5445" data-name="Path 5445" d="M373.627,280.669a2.02,2.02,0,0,0-.182.091c-.933.114-3.835-.523-7.636-3.812l-.011-.011q0-.017-.034-.034c-.011-.011-.023-.034-.046-.046-3.186-2.788-7.01-7.442-10.822-15.066-7.624-15.237-9.809-25.411-10.162-27.186l-.046-.273-4.449,7.055c-3.016,9.069-8.728,46.6-8.626,48.215s5.064,9.491,4.961,10.458a.035.035,0,0,1-.011.023c-.137.979-2.367,3.129-3,5.474-.432,1.559,2.595,6.475,4.722,10.151v.011c1.1,1.912,1.957,3.482,1.957,4.074,0,1.718-5.394,10.128-5.394,10.128v4.529l-.08.08-.25.228-.2.171c-2.048,1.616-10.731,6.907-37.86,8.364-32.147,1.718-53.563-8.626-53.563-8.626l1.616-4.427s-1.5-1.286-1.616-1.935,1.183-2.162,1.183-2.162-3.232-1.718-3.232-3.88,6.475-8.831,6.259-14.554-5.178-10.776-5.826-14.008,8.409-11.209,8.409-11.209c-7.761-24.58-9.274-57.569-9.274-57.569l-1.5-1.73s-9.274,21.132-17.684,31.476c-1,1.229-2.06,2.447-3.152,3.619a92.149,92.149,0,0,1-7.237,7c-5.826,5.075-11.118,8.409-12.461,8.148-2.162-.432-10.788-17.468-10.39-34.935.182-8.307,5.189-17.6,10.39-25.058.558-.8,1.115-1.582,1.684-2.344a119.365,119.365,0,0,1,8.922-10.754c.66-.706,1.036-1.081,1.036-1.081s-1.183-3.812-1.991-7.124a1.821,1.821,0,0,0-.057-.239.4.4,0,0,0-.023-.114.356.356,0,0,0-.023-.08c-.478-2.037-.774-3.8-.5-4.233.717-1.149,4.893-2.447,5.61-3.3s3.732-15.385,6.031-16.967c2.208-1.513,6.088-2.617,19.027-7.7.637-.25,1.286-.5,1.969-.774C254.563,152.979,268.8,146,268.8,146l5.462-6.714H276.7L275.9,141l-.034.057c.387,1.73.831,3.391,1.331,4.973a.407.407,0,0,0,.046.125c7.51,23.692,26.833,31.328,26.833,31.328,13.428-9.912,13.166-25.649,13.166-25.649v-2.162l2.515.751,1.718,4.1s2.913,4.529,14.452,9.6a68.649,68.649,0,0,1,6.338,3.243c10.56,6,22.3,15.271,23.2,17.24a6.378,6.378,0,0,1,.307.979v.011c1.24,4.87,3.789,23.112,6.156,29.621a14.9,14.9,0,0,0,5.53,7.465c.011.011.011.011.023.011a8.657,8.657,0,0,0,2.208,1.149q.273,1.5.512,2.97C385.155,258.013,375.744,279.19,373.627,280.669Z" transform="translate(670.831 4266.47)"/>
    <path id="Path_5446" data-name="Path 5446" d="M248.319,218.385l-9.377,3.152-1.5-1.73s-9.274,21.132-17.684,31.476c-1,1.229-2.06,2.447-3.152,3.619a92.143,92.143,0,0,1-7.237,7l-7.146-30.8-3.63-23.385a119.366,119.366,0,0,1,8.922-10.754c.66-.706,1.036-1.081,1.036-1.081s-1.183-3.812-1.991-7.124a1.816,1.816,0,0,0-.057-.239.4.4,0,0,0-.023-.114.355.355,0,0,0-.023-.08c-.478-2.037-.774-3.8-.5-4.233.717-1.149,4.893-2.447,5.61-3.3s3.732-15.385,6.031-16.967c0,0-1.5,13.94,6.475,31.624l3.88,5.462,11.357,9.126S243.619,215.756,248.319,218.385Z" transform="translate(672.296 4269.854)" fill="#b3b3b5" opacity="0.5"/>
    <path id="Path_5447" data-name="Path 5447" d="M224.349,242.3c-2.014,14.941-24.284,26.446-24.284,26.446-4.961,0-10.5-8.626-15.533-19.266s-5.337-41.205-5.6-43.094-3.072-5.667-3.243-7.283,4.529-4.961,4.529-4.961l-.034-.08-.034-.08c-.489-1.047-3.243-6.953-3.05-8.034.216-1.183,5.485-3.767,5.485-3.767l.33,5.815s12.267-2.321,16.421-11.823l.728-2.913,2.048,1.366v12.506s.421,1.946,1.07,1.946,5.428-2.39,6.429-2.06,2,7.021,3.346,7.875,4.893,3.346,5.428,4.529a21.676,21.676,0,0,1,.284,4.723,48.248,48.248,0,0,0,.467,7.9C219.9,215.376,226.364,227.347,224.349,242.3Z" transform="translate(669.136 4271.156)"/>
    <path id="Path_5448" data-name="Path 5448" d="M405.153,225.483c-1,1.582-6.031,4.893-7.328,6.19s0,5.542,0,5.542c-21.132,22.429-43.163,33.661-45.382,34.753a2.02,2.02,0,0,0-.182.091c-13.269-8.922-12.131-23.613-7.727-35.994a93.426,93.426,0,0,1,11.744-22.054l.011-.011.011-.011a27.773,27.773,0,0,1,6.737-1.866,4.091,4.091,0,0,1,2.492.774c1.616,1,2.981,2.583,4.3,1.923,1.946-.979,6.293-11.254,9.24-11.539,2.06-.193,4.916,1.9,6.816,3.1.831.523,1.479.876,1.8.785,1.081-.285,4.745-4.677,5.041-4.791s1.957,1.1,1.957,1.1l-1.172,1.457a39.813,39.813,0,0,0,7.693,17.32l3.949-5.781S406.166,223.9,405.153,225.483Z" transform="translate(692.015 4275.17)" fill="#bbb"/>
    <path id="Path_5449" data-name="Path 5449" d="M305.865,152.964c-.023.148-.046.3-.057.444a8.782,8.782,0,0,1-.216.91.035.035,0,0,1-.011.023c-1.354,5.018-6.828,10.151-13.735,7.681-7.545-2.7-21.906-33.114-21.906-33.114l1.445-6.5,34.082,27.766.376,2.629Z" transform="translate(682.139 4264.141)" fill="#cb4d7a"/>
    <g id="Group_5066" data-name="Group 5066" transform="translate(838.181 4373.057)">
      <path id="Path_5450" data-name="Path 5450" d="M205.705,149.035s-2.082-11.5-1.149-19.982a92.111,92.111,0,0,0-.239-18.116,4.621,4.621,0,0,0-3.573,0c-1.513.865-5.03,9.627-3.448,16.671s.364,23.931.364,23.931h-2.367l-5.178-7.112-2.515-.717s-14.486,13.655-14.27,21.78l1.889,7.226,17.832-.614,11.641-13.291Z" transform="translate(-169.37 -110.552)" fill="#ee8183"/>
      <path id="Path_5451" data-name="Path 5451" d="M188.069,139.69a93.025,93.025,0,0,0,2.4,16.819,4.025,4.025,0,0,1-4.062,3.391l-.922-1.024s-.649,3.607-3.937,3.88l-3.129-3.129.808,2.583a4.408,4.408,0,0,1-4.1,2.64s-4.961-3.88-5.28-8.944l4.9-4.154v-3.175l5.826-4.1.1-2.321A14.11,14.11,0,0,1,188.069,139.69Z" transform="translate(-169.85 -106.533)" fill="url(#linear-gradient-9)"/>
      <path id="Path_5452" data-name="Path 5452" d="M203.2,124.67a8.158,8.158,0,0,1-2.117,3.084c-1.24.865-4.836,1.525-4.836,1.525l-.159,20.324h-2.367l-5.178-7.112s2.629,4.063,2.788,7.112l-2.048,1-1.775-6.088-.842,4.381.842,5.451a14.314,14.314,0,0,1,8.626-2.742l.831,1.513s-10.048,8.318-12.358,13.223c0,0,4.961-6.3,16.284-13.257l1.081-3.346,1.434-7.977C203.386,141.762,202.032,130.269,203.2,124.67Z" transform="translate(-167.814 -108.605)" opacity="0.6" fill="url(#linear-gradient-10)"/>
      <path id="Path_5453" data-name="Path 5453" d="M212.965,159.394c-.933,2.8-10.708,14.441-11.789,16.967a34.172,34.172,0,0,0-1.73,5.815c-4.8,10.39-16.421,11.823-16.421,11.823l-.535-9.377s-6.247-3.6-7.306-5.565l-.011-.034-.125-.33a78.294,78.294,0,0,1-.046-8.626l10.936-4.427c4.745-6.145,16.284-13.257,16.284-13.257l.535-3.22c-8.284-4.074-6.9-16.4-5.5-17.911a6.139,6.139,0,0,1,3.983-1.5s3.027,9.912,4.961,14.554S213.9,156.594,212.965,159.394Z" transform="translate(-169.154 -107.904)" fill="url(#linear-gradient-11)"/>
      <path id="Path_5454" data-name="Path 5454" d="M179.4,141.87s1.218,11.323,4.8,16.705a26.428,26.428,0,0,1-4.9-14.4Z" transform="translate(-168.546 -106.232)" fill="#e28183"/>
      <path id="Path_5455" data-name="Path 5455" d="M174.18,147.51s1.183,9.115,6.794,14.179c0,0-4.961-2.481-6.794-10.993Z" transform="translate(-169.253 -105.454)" fill="#e28183"/>
      <path id="Path_5456" data-name="Path 5456" d="M201.769,168.59s-12.324,11.971-20.2,10.674l.535,9.377A20.806,20.806,0,0,0,199.254,173.9,35.9,35.9,0,0,1,201.769,168.59Z" transform="translate(-168.233 -102.546)" fill="#979797" opacity="0.91"/>
    </g>
    <g id="Group_5067" data-name="Group 5067" transform="translate(1065.524 4412.37)">
      <path id="Path_5457" data-name="Path 5457" d="M436.462,188.1s-11.323,20.7-24.58,27.061h-4.529L396.9,231.016s-6.759-4.245-7.26-18.184a12.716,12.716,0,0,0,2.947-5.257s-3.732-2.936-4.745-5.087-1.366-8.626-2.082-11.288-6.828-8.193-8.193-8.91-7.545-1.081-7.545-1.081-.865-2.23,0-3.3,10.492-4.825,15.738-1.229a23.631,23.631,0,0,0,.933,4.176c.58,1.434,5.178,6.532,5.895,6.532s3.812-2.583,5.178-4.6c1.309-1.935,8.262-16.921,9.946-21.985a.562.562,0,0,1,.046-.148c.023-.08.057-.159.068-.228a1.052,1.052,0,0,0,.046-.148c.011-.023.023-.034.023-.057,1.3-4.381,8.842-12.791,12.87-15.089,0,0,1.718-.432,2.651,1.718,0,0-3.232,9.206-6.612,14.668-.569.922-1.183,2-1.821,3.164h-.011c-2.879,5.291-6.122,12.222-6.589,13.234l-.057.125,1.8.922,4.859-4.609,4.984-4.723L431.4,181.708l-1.127,1.434-3.573,4.586,1.809.33,4.21-4.654Z" transform="translate(-369.632 -145.099)" fill="url(#linear-gradient-11)"/>
      <path id="Path_5458" data-name="Path 5458" d="M431.028,190.6l-3.619,5.314S407.552,180.6,403.239,179.3s-5.895-.432-5.895-.432l-4.449,5.678s8.193,7.26,8.91,17.035c0,0-2.731-12.358-12.005-16.1.717,0,3.812-2.583,5.178-4.6,1.309-1.935,8.262-16.921,9.946-21.985a5.646,5.646,0,0,0,.182,3.88c.979,1.809,6.737.1,7.078,0h.011l-6.6,13.234-.057.125,1.8.922,4.859-4.609-2.435,5.656,17.729,3.129-3.573,4.586,1.809.33Z" transform="translate(-366.85 -143.195)" opacity="0.6" fill="url(#linear-gradient-13)"/>
      <path id="Path_5459" data-name="Path 5459" d="M414.888,166.662s3.448-.5,5.678,3.949l-.5,1.434s3.357.66,6.612,6.111a18.427,18.427,0,0,1-9.991,7.613s-3.311-.933-3.88-3.732l.649-1.8-2.583,1.946s-3.1.933-4.461-3.664Z" transform="translate(-364.559 -142.126)" fill="url(#linear-gradient-14)"/>
      <path id="Path_5460" data-name="Path 5460" d="M430.437,182.292a5.334,5.334,0,0,0-2.8-5.462l-6.828,7.545a3.52,3.52,0,0,0,3.164,2.947S428.639,185.74,430.437,182.292Z" transform="translate(-362.572 -140.721)" fill="url(#linear-gradient-15)"/>
      <path id="Path_5461" data-name="Path 5461" d="M385.63,195.53a50.591,50.591,0,0,0,19.516,12.677l-5.007,7.579L389.7,202.528l.671-1.912S386.2,197.476,385.63,195.53Z" transform="translate(-367.425 -138.142)" opacity="0.91" fill="url(#linear-gradient-16)"/>
      <path id="Path_5462" data-name="Path 5462" d="M419.29,171.4s-3.311,5.462-6.612,8.193l-.649,1.8s6.418-4.336,8.774-9.331A3.872,3.872,0,0,0,419.29,171.4Z" transform="translate(-363.783 -141.47)" fill="#e28183"/>
    </g>
    <path id="Path_5463" data-name="Path 5463" d="M407.338,228.691c-1,1.582-6.031,4.893-7.328,6.19s0,5.542,0,5.542c-21.132,22.429-43.163,33.661-45.382,34.753a2.025,2.025,0,0,0-.182.091c-1.73.216-10.139-2.151-18.549-18.97-7.624-15.237-9.809-25.411-10.162-27.186l-.046-.273,1.855-2.515L330.3,195.28l1.935,6.247c7.328-8.842,14.236-22.418,14.236-22.418l.307.979v.011c1.24,4.87,3.789,23.112,6.156,29.621a14.9,14.9,0,0,0,5.53,7.465l.011.023-.011.011c-6.748,6.156-10.094,15.01-11.744,22.054a61.093,61.093,0,0,0-1.616,11.414,76.738,76.738,0,0,1,7.761-19.3,41.537,41.537,0,0,1,8.341-10.071,66.969,66.969,0,0,1,6.509-5.212c1.616,1,2.981,2.583,4.3,1.923-8.876,13.325-8.66,39.7-.319,34.673S381.939,237,381.939,237c-1.969-13.007-1.377-27.675.2-30.463,1.923.068,7.419,3.926,7.738,3.835a45.067,45.067,0,0,0,6.691,25.524l4.745-7.34a45.53,45.53,0,0,1-6.4-22.975c.284-.125,1.957,1.1,1.957,1.1l-1.172,1.457a39.814,39.814,0,0,0,7.693,17.32l3.949-5.781C407.338,219.678,408.351,227.109,407.338,228.691Z" transform="translate(689.83 4271.963)" opacity="0.5"/>
    <path id="Path_5464" data-name="Path 5464" d="M336.54,325.068V329.6l-.08.08-.25.228-.2.171c-2.048,1.616-10.731,6.907-37.86,8.364-32.147,1.718-53.563-8.626-53.563-8.626l1.616-4.427s-1.5-1.286-1.616-1.935,1.183-2.162,1.183-2.162-3.232-1.718-3.232-3.88c0-1.946,5.28-7.579,6.134-12.87a7.69,7.69,0,0,0,.125-1.684c-.216-5.69-5.132-10.731-5.815-13.963a.179.179,0,0,1-.011-.046c-.649-3.232,8.409-11.209,8.409-11.209-7.761-24.58-9.274-57.569-9.274-57.569l-1.5-1.73s-9.274,21.132-17.684,31.476-20.7,19.2-22.85,18.765c-4.961,0-10.5-8.626-15.533-19.266s-5.337-41.205-5.6-43.094-3.072-5.667-3.243-7.283c5.394,9.274,13.985,6.543,13.985,6.543-6.225.137-9.456-11.5-9.456-11.5l-.034-.08-.034-.08-3.038-8.023c.341.387,7.454,8.341,14.327,3.437,7.044-5.03,10.674-14.771,10.674-14.771v12.506s.421,1.946,1.07,1.946a152.656,152.656,0,0,1-3.118,19.675c-3.2,14.941-7.579,29.371-7.579,29.371s11.88-6.464,16.057-22.85a69.116,69.116,0,0,0,2.128-19.618,49.181,49.181,0,0,0-.956-8.2,1.816,1.816,0,0,0-.057-.239.4.4,0,0,0-.023-.114.493.493,0,0,0-.011-.057l1.149,2.435,2.185,5.417c2.538,21.029-2.7,52.721-2.7,52.721,7.624-9.491,9.206-30.474,8.876-35.572-.148-2.435-.341-5.439-.467-7.9-.171-2.686-.284-4.723-.284-4.723l15.6,9.308-2.879-9.126,11.357,9.126s10.207,12.29,20.7,13.724,49.012.58,49.012.58-33.49,2.151-43.265,5.03-11.641,6.179-11.641,6.179c7.067,35.948,46.178,48.067,47.4,48.431-35.481-5.326-51.993-35.493-51.993-35.493s-.58,16.967,2.151,23.43,18.833,22.281,39.533,25.581a47.66,47.66,0,0,0,5.155.523c17.456.819,31.908-8.1,33.388-9.058a1.063,1.063,0,0,1,.125-.08.594.594,0,0,1-.034.057c-.558.853-7.715,10.913-36.619,12.017-1.752.068-3.459.057-5.121-.011h-.023c-26.787-1.127-40.431-18.97-40.431-18.97s-9.912,5.326-3.585,13.223c.068.08.137.171.2.25,1.866,2.151,5.974,4.779,10.833,7.488.137.08.273.159.4.228,5.872,3.243,12.756,6.589,18.082,9.354a.559.559,0,0,1,.08.034,67.4,67.4,0,0,1,7.419,4.245.011.011,0,0,1,.011.011c1.5,1.092,1.809,1.8.341,1.969-7.476.865-35.789-5.314-36.938-3.6s1.4,6.179,1.4,6.179c25.991,12.882,81.6,6.532,83.355,6.338-46.542,11.914-84.618-3.175-84.618-3.175l1.263,4.461a166.513,166.513,0,0,0,45.165,7.761c24.443.569,39.68-5.678,39.68-5.678Z" transform="translate(669.137 4271.321)" opacity="0.5"/>
    <path id="Path_5465" data-name="Path 5465" d="M300.31,216.87s18.514,1,30.747,4.245l-6.3,9.57A84.312,84.312,0,0,0,300.31,216.87Z" transform="translate(686.329 4277.172)" fill="#b7b7b7" opacity="0.5"/>
    <path id="Path_5466" data-name="Path 5466" d="M320.988,261.71s-11.55,9.638-22.907,14.088A76.377,76.377,0,0,1,275.8,280.68s6.532,1.946,22.588-.649,21.564-11.289,21.564-11.289Z" transform="translate(682.947 4283.358)" fill="#aeaeae" opacity="0.5"/>
    <path id="Path_5467" data-name="Path 5467" d="M325.912,296.214h0c-21.371,5.53-48.5-2.39-48.272-3.357s7.431.432,24.136-2.913c16.193-3.243,22.065-9,22.418-9.354-.137.979-2.367,3.129-3,5.474C320.757,287.623,323.784,292.538,325.912,296.214Z" transform="translate(683.201 4285.962)" fill="#aeaeae" opacity="0.5"/>
    <path id="Path_5468" data-name="Path 5468" d="M276.753,222.616c-18.253,1.855-23.169,6.942-23.169,6.942-5.132.649-16.66-12.495-16.66-12.495l-1.5-1.73s-9.274,21.132-17.684,31.476c-1,1.229-2.06,2.447-3.152,3.619l1.195-2.686s1.957-.933,2.526-11.209S214,210.952,213.961,208.87s-.751-12.62-.751-12.62l15.6,9.308-2.879-9.126,11.357,9.126s4.449,6.691,15.681,12.267C263.564,223.094,275.445,222.673,276.753,222.616Z" transform="translate(674.313 4274.327)" fill="#bbb" opacity="0.5"/>
    <path id="Path_5469" data-name="Path 5469" d="M232.73,213.192l10.879-1.422a81.659,81.659,0,0,0,13.075,6.429l-7.272,10.731s2.89,15.294,11.175,23.908c0,0-21.985-12.21-25.081-22.475Z" transform="translate(677.006 4276.468)" fill="#bbb" opacity="0.5"/>
    <path id="Path_5470" data-name="Path 5470" d="M176.94,185.794l3.107,8.182s3.164,11.038,9.456,11.5,12.438-18.515,12.438-18.515V174.46s-6.691,14.338-13.917,15.954S176.94,185.794,176.94,185.794Z" transform="translate(669.309 4271.321)" fill="#d3d7d9" opacity="0.5"/>
    <path id="Path_5471" data-name="Path 5471" d="M209.99,180.787S215.6,192,222.5,195.444c0,0-8.2-19.914-6.475-31.624C216.021,163.82,213.006,165.7,209.99,180.787Z" transform="translate(673.869 4269.854)" opacity="0.5"/>
    <path id="Path_5472" data-name="Path 5472" d="M330.293,193.32l1.935,6.247,1.957,51.265a123.217,123.217,0,0,1-8.455-23.681l1.809-2.788S330.589,205.041,330.293,193.32Z" transform="translate(689.835 4273.923)" opacity="0.76" fill="url(#linear-gradient-17)"/>
    <path id="Path_5473" data-name="Path 5473" d="M382.167,206.58s-1.092,25.183,9.6,27.356l.535,2.7S378.457,236.121,382.167,206.58Z" transform="translate(697.534 4275.752)" opacity="0.5" fill="url(#linear-gradient-18)"/>
    <path id="Path_5474" data-name="Path 5474" d="M369.182,213.543s-.41.9-4.3-1.923c0,0-13.462,9.536-18.651,22.975,0,0,8.3-12.347,12.711-13.678s5.485,3.6,5.485,3.6S366.178,217.56,369.182,213.543Z" transform="translate(692.664 4276.448)" opacity="0.3" fill="url(#linear-gradient-19)"/>
    <path id="Path_5475" data-name="Path 5475" d="M175.693,195.97s5.178,9.547,14.884,6.555c0,0-5.815,3.915-11.641.728C178.936,203.253,175.318,197.051,175.693,195.97Z" transform="translate(669.134 4274.289)" opacity="0.5" fill="url(#linear-gradient-20)"/>
    <path id="Path_5476" data-name="Path 5476" d="M206.889,185.35s7.124,26.628-11.459,46.633c0,0,12.062-6.19,14.8-20.529A44.116,44.116,0,0,0,206.889,185.35Z" transform="translate(671.86 4272.824)" fill="#c1c1c1" opacity="0.5"/>
    <path id="Path_5477" data-name="Path 5477" d="M320.519,166.65s-.8,12.017-6.566,20.642-17.183,14.441-17.183,14.441,14.338-5.28,20.916-12.722S320.519,166.65,320.519,166.65Z" transform="translate(685.84 4270.244)" fill="#f1f3f5" opacity="0.5"/>
    <path id="Path_5478" data-name="Path 5478" d="M253.492,150.76a76.038,76.038,0,0,0,3.232,20.29c3.232,10.242,31.305,28.142,31.305,28.142s-28.938-12.017-34.537-22.827S253.492,150.76,253.492,150.76Z" transform="translate(679.526 4268.052)" fill="#f1f3f5" opacity="0.5"/>
    <path id="Path_5486" data-name="Path 5486" d="M311.672,154.516c-.888,10.583-4.108,17.957-7.545,22.93-4.734,6.828-9.855,9.161-9.855,9.161a59.126,59.126,0,0,1-13.382-8.068,68.24,68.24,0,0,1-21.86-32.432c6.85,16.546,16.91,26.571,24.534,32.215a49.247,49.247,0,0,0,10.708,6.282v-5.291a35.162,35.162,0,0,1-3.528-1.548c-13.428-6.771-20.483-20.881-23.783-30.008-.011-.023-.011-.034-.023-.057a64.815,64.815,0,0,1-2.481-8.409h2.435L266.1,141l-.034.057c.387,1.73.831,3.391,1.331,4.973a.408.408,0,0,0,.046.125c7.51,23.692,26.833,31.328,26.833,31.328,13.428-9.912,13.166-25.649,13.166-25.649v-2.162l2.515.751Z" transform="translate(680.634 4266.47)" fill="#d5d5d5" opacity="0.5"/>
    <path id="Path_5487" data-name="Path 5487" d="M375.494,203.21s-3.653,11.926-.2,30.463c0,0,1.73-23.5,3.016-25.547s4.916-1.081,4.916-1.081A81.543,81.543,0,0,0,375.494,203.21Z" transform="translate(696.468 4275.288)" opacity="0.3" fill="url(#linear-gradient-21)"/>
    <path id="Path_5488" data-name="Path 5488" d="M346.714,271.364c-3.186-2.788-7.01-7.442-10.822-15.066-7.624-15.237-9.809-25.411-10.162-27.186l1.809-2.788,2.424-23.442,2.265-1.354a95.908,95.908,0,0,0,14.236-22.418,6.383,6.383,0,0,1,.307.979v.011c1.24,4.87,3.789,23.112,6.156,29.621a14.9,14.9,0,0,0,5.53,7.465s-14.008,20.779-14.691,35.607C343.163,266.289,346.168,270.681,346.714,271.364Z" transform="translate(689.835 4271.963)" opacity="0.5"/>
    <path id="Path_5489" data-name="Path 5489" d="M276.082,301.466s-25.251-4.142-35.561-10.788a.011.011,0,0,1-.011-.011,7.69,7.69,0,0,0,.125-1.684c-.216-5.69-5.132-10.731-5.815-13.963.114.307.853,2.014,4.438,5.087a76.176,76.176,0,0,0,10.833,7.488c.137.08.273.159.4.228,7.283,4.3,13.553,7.215,18.082,9.354a.559.559,0,0,1,.08.034c4.074,1.912,6.714,3.175,7.419,4.245A.011.011,0,0,1,276.082,301.466Z" transform="translate(677.294 4285.194)" fill="#aeaeae" opacity="0.5"/>
    <path id="Path_5490" data-name="Path 5490" d="M324.194,280.59c-.137.979-2.367,3.129-3,5.474,0,0-9.263,9.809-43.549,6.794.228-.967,7.431.432,24.136-2.913C317.969,286.7,323.841,280.943,324.194,280.59Z" transform="translate(683.201 4285.962)" fill="#dcdcdc" opacity="0.5"/>
    <path id="Path_5491" data-name="Path 5491" d="M336.19,169.809l-21.917,7.1-6.418,2.981-.034.011-4.176.011-5.644.011-3.528.284-1.866.137-5.314.421-2.674.216-26.287-9.513-4.7-1.7-21.621-7.829c.637-.25,1.286-.5,1.969-.774,14.509-5.747,28.745-12.722,28.745-12.722l5.462-6.714h2.435a80.981,80.981,0,0,0,4.552-12.711l1.445-6.5c.1-.626.148-.967.148-.967l7.738,4.085,26.093,20.87c-.023,1.422.023,2.7.1,3.778l.376,2.629c.068-.512.091-.808.091-.808l2.515.751,1.718,4.1s2.913,4.529,14.452,9.6A68.631,68.631,0,0,1,336.19,169.809Z" transform="translate(676.906 4264.023)" opacity="0.5"/>
    <g id="Group_5069" data-name="Group 5069" transform="translate(943.26 4308.874)">
      <path id="Path_5492" data-name="Path 5492" d="M314.088,156.983a35.7,35.7,0,0,1-21.5-3.164c-11.277-5.462-20.756-21.564-21.337-25.581s4.313-14.52,4.313-22.714-4.017-22.281,2.731-29.905,37.8-8.762,47.874,1.013c0,0,3.118,7.829,3.118,12.256a32.245,32.245,0,0,1-.478,4.449c-.091.671-.216,1.388-.33,2.128-.9,5.36-2.139,11.9-1.559,14.771a14.383,14.383,0,0,0,.9,2.8v.011c1.24,2.868,3.084,5.155,3.414,7.636C331.67,123.925,327.323,146.923,314.088,156.983Z" transform="translate(-260.946 -52.018)" fill="#febbba"/>
      <path id="Path_5493" data-name="Path 5493" d="M276.733,100s-2.788-7-9.8-7.1c0,0-4.1,1.616-4.745,4.745,0,0,1.513,11.323,3.232,16.6s8.045,4.518,8.045,4.518S278.975,110.333,276.733,100Z" transform="translate(-262.19 -48.804)" fill="url(#linear-gradient-22)"/>
      <path id="Path_5494" data-name="Path 5494" d="M298.63,119.5s2.333-.182,3.334.569,4.677,4.313,9.308,5.28,7.749-2.981,8.728-3.175,2.071,1.195,2.071,1.195a3.866,3.866,0,0,0-2.845-2.344s-.979,3.721-7.693,2.447-9.582-4.256-9.582-4.256l-.341-.615A19.183,19.183,0,0,0,298.63,119.5Z" transform="translate(-257.163 -45.259)" fill="url(#linear-gradient-23)"/>
      <path id="Path_5496" data-name="Path 5496" d="M289.4,90.7s.649-4.233,7.8-5.929c7.966-1.889,14.441-3.482,14.441-3.482s-1.411,4.643-4.062,6.384c0,0-8.432-.307-12.688.66C290.606,89.313,289.4,90.7,289.4,90.7Z" transform="translate(-258.436 -50.406)"/>
      <path id="Path_5497" data-name="Path 5497" d="M322.654,84.57s-4.04,3.118-6.794,10.56c0,0,2.64-3.448,5.064-3.391a1.393,1.393,0,0,1,1.4,1.684A15.626,15.626,0,0,0,322.654,84.57Z" transform="translate(-254.786 -49.953)"/>
      <path id="Path_5498" data-name="Path 5498" d="M291.75,101.449s.432-8.944,9.161-11.209a18.237,18.237,0,0,1,3.448,8.626S299.727,98,291.75,101.449Z" transform="translate(-258.112 -49.171)" fill="url(#linear-gradient-24)"/>
      <path id="Path_5499" data-name="Path 5499" d="M313.73,104.4s.706-7.124,4.8-9.752c0,0,2.788,2.094,2.5,8.057C321.024,102.7,318.578,101.819,313.73,104.4Z" transform="translate(-255.08 -48.563)" fill="url(#linear-gradient-25)"/>
      <path id="Path_5500" data-name="Path 5500" d="M291.75,100.418s2.833,3.482,10.776,4.165c0,0,1.513-2.3,1.366-6.816C303.892,97.778,296.6,97.084,291.75,100.418Z" transform="translate(-258.112 -48.14)" fill="#ffebed"/>
      <path id="Path_5501" data-name="Path 5501" d="M313.73,103.443v1.047s1.218,2.549,5.61,2.981a12.249,12.249,0,0,0,1.536-5.769C320.865,101.7,318.077,101,313.73,103.443Z" transform="translate(-255.08 -47.603)" fill="#ffebed"/>
      <path id="Path_5502" data-name="Path 5502" d="M299.433,97.622a9.827,9.827,0,0,0-1.832,6.316,29.149,29.149,0,0,0,4.119.683,10.706,10.706,0,0,0,1.366-6.816A11.13,11.13,0,0,0,299.433,97.622Z" transform="translate(-257.306 -48.167)"/>
      <path id="Path_5503" data-name="Path 5503" d="M317.544,101.824s-1.138,1.218-1.354,4.961a8.557,8.557,0,0,0,2.8.683,10.446,10.446,0,0,0,1.536-5.769A5.178,5.178,0,0,0,317.544,101.824Z" transform="translate(-254.741 -47.611)"/>
      <path id="Path_5504" data-name="Path 5504" d="M298.64,104.2s-.717-4.836,2.048-6.68l2.265.284a9.775,9.775,0,0,1-1.366,6.816S299.334,104.359,298.64,104.2Z" transform="translate(-257.173 -48.167)"/>
      <path id="Path_5505" data-name="Path 5505" d="M318.442,101.62a20.819,20.819,0,0,0-1.5,5.5,6.32,6.32,0,0,0,1.946.364,9.5,9.5,0,0,0,1.536-5.769A4.583,4.583,0,0,0,318.442,101.62Z" transform="translate(-254.637 -47.613)"/>
      <path id="Path_5506" data-name="Path 5506" d="M291.75,100.455s5.28-3.072,14.281-1.32l-1.673-1.263A15.061,15.061,0,0,0,291.75,100.455Z" transform="translate(-258.112 -48.178)" fill="#131163"/>
      <path id="Path_5507" data-name="Path 5507" d="M313.73,103.534a14.217,14.217,0,0,1,9.172-1.058l-2.037-1.5S317.553,100.462,313.73,103.534Z" transform="translate(-255.08 -47.695)" fill="#131163"/>
      <path id="Path_5508" data-name="Path 5508" d="M296.77,100.094a3.12,3.12,0,0,1,2.731.99A2.465,2.465,0,0,1,296.77,100.094Z" transform="translate(-257.42 -47.817)" fill="#fff"/>
      <path id="Path_5509" data-name="Path 5509" d="M315.43,103.771s2.253-.432,3.027.592C318.468,104.363,317.262,105.182,315.43,103.771Z" transform="translate(-254.845 -47.317)" fill="#fff"/>
      <path id="Path_5510" data-name="Path 5510" d="M292.21,100.55a20.7,20.7,0,0,0,10.685,5.03l.171-2.39-.6,1.013S296.147,103.827,292.21,100.55Z" transform="translate(-258.049 -47.749)" fill="#c6659c"/>
      <path id="Path_5511" data-name="Path 5511" d="M313.73,104.14s.728,2.629,6.077,3.812l-.171-1.286-.3.455C319.329,107.121,315.528,106.632,313.73,104.14Z" transform="translate(-255.08 -47.254)" fill="#c6659c"/>
      <path id="Path_5512" data-name="Path 5512" d="M304.3,113.383a18.966,18.966,0,0,1,5.656,0c3.664.432,7.784,1.434,10.037,0,0,0-2.993,2.993-5.587,3.448s-6.543-1.821-6.543-1.821l-1.73.034A4.946,4.946,0,0,1,304.3,113.383Z" transform="translate(-256.381 -46.005)" fill="#cb5f7d"/>
      <path id="Path_5513" data-name="Path 5513" d="M306.15,114.865a2.716,2.716,0,0,1,1.65-.432c.751.148,1.525,1.24,1.525,1.24A7.525,7.525,0,0,0,306.15,114.865Z" transform="translate(-256.126 -45.837)" fill="#9f4a8b"/>
      <path id="Path_5514" data-name="Path 5514" d="M319.43,114.585c.956-.933-4.006-9.764-6.373-10.094s-4.6,9.9-4.6,9.9,3.3.467,6.5.888S319.43,114.585,319.43,114.585Z" transform="translate(-255.807 -47.206)" fill="#ffbcaf"/>
      <path id="Path_5515" data-name="Path 5515" d="M322.251,88.92c-1.343-.171-6.088,5.6-6.088,5.6s-3.016,9.343-2.424,12.108,7.92,4.245,7.92,4.245l.307-.489v-.011a14.387,14.387,0,0,1-.9-2.8c-.58-2.868.66-9.411,1.559-14.771a11,11,0,0,0,.33-2.128C322.991,89.808,322.866,88.989,322.251,88.92Z" transform="translate(-255.089 -49.354)" opacity="0.6" fill="url(#linear-gradient-26)"/>
      <path id="Path_5516" data-name="Path 5516" d="M328.066,131.656c-1.513-3.164-.58-4.814-13.724-6.532-18.606-2.447-20.2,3.232-23.362,2.367a3.036,3.036,0,0,1-.376-.137c-3.425-1.331-11.493-9.263-11.7-19.948-.216-11.106,7.226-18.981,7.226-18.981-2.7-2.265-3.778-8.831-.865-11.641s7.875-2.151,20.051-.865,12.187.546,12.187.546c3.869.99,6.088,4.62,6.714,5.781.125.228.182.364.182.364l1.513-1.4A19.818,19.818,0,0,1,329.261,93.6s6.68-13.587,5.917-15.51c-1.388-3.55-5.246-8.728-5.485-9.058l-.011-.011s-1.081-10.344-4.313-10.344S308.334,61.8,308.334,61.8a19.6,19.6,0,0,0,1.3-7.647l-.057.057c-4.506,4.04-8.91,4.484-15.146,7.374a15.782,15.782,0,0,0-5.838,4.233l-.421.5-.444.535c-.432.546-.876,1.1-1.411,1.673a.373.373,0,0,1-.068.068l-.034.034a17.842,17.842,0,0,1-1.809,1.7c-4.1,3.334-13.109,5.565-14.19,9.092s1.366,8.33,2.663,13.291a27.007,27.007,0,0,1,.694,9.343,18.35,18.35,0,0,1,2.868,13.621c-1.263,7.249-4.028,8.432-4.028,8.432a12.413,12.413,0,0,0-1.024,7.727c3.983,15.84,20.46,25.274,20.46,25.274,14.657,5.462,24.3,3.084,24.3,3.084l.011-.011c10.663-6.953,14.315-29.962,14.475-31.032C330.444,129.426,328.464,132.5,328.066,131.656Zm-6.577,14.668c-2.583-.432-3.129-6.976-3.983-7.84s-5.542-.5-5.542-.5-4.313,4.893-6.031,5.03-10.924-3.6-8.933-9.195,8.933-6.327,8.933-6.327a16.845,16.845,0,0,0,8.978,3.368c5.394.353,7.34-.637,7.977-.922s4.119,1.286,4.028,6.179C326.86,139.519,324.083,146.757,321.489,146.324Z" transform="translate(-261.12 -54.15)"/>
      <path id="Path_5517" data-name="Path 5517" d="M314.853,106.21s4.643,5.769,4.2,7.943c-.489,2.378-5.872,3.641-5.872,3.641s4.313-1.491,5.2-3.641A28.29,28.29,0,0,0,314.853,106.21Z" transform="translate(-255.156 -46.968)" fill="#d2726c"/>
      <path id="Path_5518" data-name="Path 5518" d="M322.476,91.8a19.818,19.818,0,0,0-3.346-12.392A33.106,33.106,0,0,0,322.9,67.22l.011.011a41.775,41.775,0,0,1,1.752,8.079l3.732.979C329.155,78.213,322.476,91.8,322.476,91.8Z" transform="translate(-254.335 -52.347)" fill="#2e2e2e" opacity="0.6"/>
      <path id="Path_5519" data-name="Path 5519" d="M324.22,82.246c-.626-1.161-2.845-4.791-6.714-5.781,0,0,0,.751-12.187-.546s-17.138-1.935-20.051.865-1.832,9.377.865,11.641c0,0-7.442,7.875-7.226,18.981.2,10.685,8.273,18.617,11.7,19.948l-.159,1.183S291.048,153,297,154.95s18.276.933,19.425,2.082c1.092,1.092-.159,2.97-.273,3.141l-.011.011s-9.638,2.378-24.3-3.084c0,0-16.478-9.434-20.46-25.274a12.413,12.413,0,0,1,1.024-7.727s2.765-1.183,4.028-8.432a18.35,18.35,0,0,0-2.868-13.621,27.008,27.008,0,0,0-.694-9.343c-1.3-4.961-3.744-9.775-2.663-13.291A15.518,15.518,0,0,0,281.638,76.9s1.206-1.673,6.543-2.538,26.787,1.3,26.787,1.3a18.43,18.43,0,0,0-6.68-2.97c-4.279-1.127-18.89.182-20.46.307,1.673-.3,18.241-3.141,20.13-2.572,2,.592,9.172,3.88,9.172,3.88-.649-3.289-7.067-11.209-7.067-11.209a100.683,100.683,0,0,0-14.987,1.4,19.387,19.387,0,0,0-8.762,4.028l1.411-1.673.444-.535.421-.5,2.071-.353,10.4-4.2c3.494-1.866,7.966-6.486,8.512-7.055l.057-.057a19.6,19.6,0,0,1-1.3,7.647c8.785-1.081,11.755-.535,11.755-.535C324.083,66.918,324.22,82.246,324.22,82.246Z" transform="translate(-261.12 -54.15)" opacity="0.6"/>
      <path id="Path_5520" data-name="Path 5520" d="M289.19,144.741A54.794,54.794,0,0,1,302.7,143.8c8.125.33,12.8.364,10.788,4.028C313.485,147.825,303.278,150.135,289.19,144.741Z" transform="translate(-258.465 -41.79)" opacity="0.5" fill="url(#linear-gradient-27)"/>
      <path id="Path_5521" data-name="Path 5521" d="M315.435,60.749s4.939-1.923,6.9-1.616a3.827,3.827,0,0,0-1.582-1.252c-.808-.216-17.069,3.391-17.069,3.391S313.819,60.1,315.435,60.749Z" transform="translate(-256.466 -53.637)" fill="#babcbe"/>
      <path id="Path_5522" data-name="Path 5522" d="M308.612,62.029s-.387,5.383-2.105,7.328l-20.13,2.572-5.906-1.047a14.925,14.925,0,0,0,4.8-3.9C287.776,64.043,300.908,61.164,308.612,62.029Z" transform="translate(-259.668 -53.085)" fill="#fff"/>
      <path id="Path_5523" data-name="Path 5523" d="M322.44,67.22a45.308,45.308,0,0,1,1.764,8.091l3.732.979S326.8,72.284,322.44,67.22Z" transform="translate(-253.878 -52.347)" fill="#babcbe"/>
      <path id="Path_5524" data-name="Path 5524" d="M275.731,109.007s-1.411-6.794-4.882-10.151a8.174,8.174,0,0,0-7.419-2.287s1.081,12.6,2.208,15.67,2.856,3.88,2.856,3.88a9.734,9.734,0,0,1-2.754-6.293c-.319-4.165-.432-10.037.489-10.742s4.62,2.037,4.62,2.037-1.172,1.434-1.866,5.144,1.889,6.407,2.856,6.35-.057-4.29.1-5.519C272.1,105.889,274.252,106.151,275.731,109.007Z" transform="translate(-262.019 -48.32)" fill="#787878" opacity="0.8"/>
      <path id="Path_5526" data-name="Path 5526" d="M325.026,120.05s-4.711,21.473-14.486,31.043C310.54,151.093,321.692,146.712,325.026,120.05Z" transform="translate(-255.52 -45.059)" fill="#b5c3c8"/>
      <path id="Path_5527" data-name="Path 5527" d="M318.68,57.89s2.481,1.935,2.959,8.637S319.2,80.695,319.2,80.695s3.732-5.576,4.1-11.687C323.641,62.9,320.649,58.664,318.68,57.89Z" transform="translate(-254.397 -53.634)" fill="#858d8f"/>
    </g>
    <path id="Path_5528" data-name="Path 5528" d="M292.24,70.28a58.283,58.283,0,0,0,12.051,2.515c6.3.558,7.6.683,7.6.683s-2.538-2.458-7.932-3.2A54.711,54.711,0,0,0,292.24,70.28Z" transform="translate(685.215 4256.904)" fill="#787c80"/>
    <path id="Path_5531" data-name="Path 5531" d="M323.56,163.96S343.167,178.275,345.7,183.2s3.573,20.369,7.01,27.061c0,0-2.356-10.936-4.006-19.5s-1.252-8.694-2.174-10.8C345.636,177.854,330.991,167.692,323.56,163.96Z" transform="translate(689.536 4269.873)" fill="#a9aaab"/>
    <path id="Path_5532" data-name="Path 5532" d="M321.566,234s-9.445,40.443-9.024,43.174,6.543,8.307,6.828,9.832c0,0-4.677,6.259-4.461,7.647s8.193,10.151,7.977,12.87c-.057.785-5.235,9.32-5.235,9.32s5.849-8.387,6.134-9.729-7.169-12.552-7.385-13.69c-.569-2.947,3.721-5.121,3.858-7.055s-5.792-6.68-5.849-9.843C314.385,273.373,321.566,234,321.566,234Z" transform="translate(688.014 4279.535)" fill="#d2d2d2"/>
    <path id="Path_5533" data-name="Path 5533" d="M322.16,318.73s20.426,46.235,27.391,92.481C349.551,411.211,348.39,366.08,322.16,318.73Z" transform="translate(689.343 4291.224)" fill="#333"/>
    <path id="Path_5534" data-name="Path 5534" d="M209.4,157.864s-5.28-1.127-7.476-5.735-.762-11.288-.762-11.288,4.142,7.943,6.2,10.651S209.985,157.283,209.4,157.864Z" transform="translate(672.588 4266.684)" fill="#ffbcaf"/>
    <path id="Path_5535" data-name="Path 5535" d="M351.661,135.733,355.325,240.2a7.706,7.706,0,0,0,7.693,7.431H542.962a7.7,7.7,0,0,0,7.693-7.51l2.515-105.682a7.7,7.7,0,0,0-7.749-7.886L359.3,127.768A7.683,7.683,0,0,0,351.661,135.733Z" transform="translate(693.412 4264.712)" opacity="0.6"/>
    <g id="Group_5071" data-name="Group 5071" transform="translate(1044.783 4390.966)">
      <path id="Path_5536" data-name="Path 5536" d="M543,247.937H363.052a7.946,7.946,0,0,1-7.977-7.7l-3.664-104.464a7.988,7.988,0,0,1,7.932-8.262l186.135-1.218a8.028,8.028,0,0,1,5.747,2.39,7.91,7.91,0,0,1,2.287,5.781L551,240.142A7.969,7.969,0,0,1,543,247.937Zm2.515-121.078h-.045l-186.135,1.218a7.406,7.406,0,0,0-7.363,7.67l3.664,104.464a7.38,7.38,0,0,0,7.408,7.158H542.985a7.449,7.449,0,0,0,7.408-7.237l2.515-105.682a7.345,7.345,0,0,0-2.128-5.371A7.258,7.258,0,0,0,545.511,126.859Z" transform="translate(-351.405 -126.29)"/>
    </g>
    <path id="Path_5537" data-name="Path 5537" d="M351.9,141.041H552.935l.319-5.508a8.442,8.442,0,0,0-8.489-8.933l-186.055,1.468a6.98,6.98,0,0,0-6.919,7.112Z" transform="translate(693.43 4264.719)" opacity="0.6"/>
    <path id="Path_5538" data-name="Path 5538" d="M360.78,146.739v60.448h61.529V146.42Z" transform="translate(694.671 4267.453)" opacity="0.3"/>
    <rect id="Rectangle_313" data-name="Rectangle 313" width="26.765" height="26.765" transform="translate(1176.45 4418.243)" opacity="0.3"/>
    <rect id="Rectangle_314" data-name="Rectangle 314" width="26.765" height="26.765" transform="translate(1208.028 4418.243)" opacity="0.3"/>
    <rect id="Rectangle_315" data-name="Rectangle 315" width="26.765" height="26.765" transform="translate(1144.336 4418.243)" opacity="0.3"/>
    <rect id="Rectangle_316" data-name="Rectangle 316" width="68.448" height="6.407" transform="translate(1166.345 4460.62)"/>
    <rect id="Rectangle_317" data-name="Rectangle 317" width="85.574" height="1.98" transform="translate(1149.229 4470.373)"/>
    <rect id="Rectangle_318" data-name="Rectangle 318" width="16.375" height="1.98" transform="translate(1150.038 4448.42)" fill="#040404"/>
    <rect id="Rectangle_319" data-name="Rectangle 319" width="16.375" height="1.98" transform="translate(1181.649 4448.42)" fill="#040404"/>
    <rect id="Rectangle_320" data-name="Rectangle 320" width="16.375" height="1.98" transform="translate(1213.228 4448.42)" fill="#040404"/>
    <rect id="Rectangle_321" data-name="Rectangle 321" width="27.527" height="1.98" transform="translate(1144.336 4473.604)"/>
    <rect id="Rectangle_322" data-name="Rectangle 322" width="85.574" height="1.98" transform="translate(1149.229 4476.79)"/>
    <rect id="Rectangle_323" data-name="Rectangle 323" width="90.456" height="1.98" transform="translate(1144.336 4479.977)"/>
    <rect id="Rectangle_324" data-name="Rectangle 324" width="90.456" height="1.98" transform="translate(1144.336 4483.164)"/>
    <rect id="Rectangle_325" data-name="Rectangle 325" width="85.574" height="1.98" transform="translate(1149.229 4496.046)"/>
    <rect id="Rectangle_326" data-name="Rectangle 326" width="90.456" height="1.98" transform="translate(1144.336 4499.23)"/>
    <rect id="Rectangle_327" data-name="Rectangle 327" width="90.456" height="1.98" transform="translate(1144.336 4502.418)"/>
    <rect id="Rectangle_328" data-name="Rectangle 328" width="86.826" height="1.98" transform="translate(1144.336 4486.349)"/>
    <rect id="Rectangle_329" data-name="Rectangle 329" width="85.574" height="1.98" transform="translate(1149.229 4489.536)"/>
    <rect id="Rectangle_330" data-name="Rectangle 330" width="73.296" height="1.98" transform="translate(1144.336 4492.721)"/>
    <g id="Group_5072" data-name="Group 5072" transform="translate(1055.189 4427.517)">
      <path id="Path_5539" data-name="Path 5539" d="M378.052,193.413a17.5,17.5,0,1,1,17.5-17.5A17.522,17.522,0,0,1,378.052,193.413Zm0-33.877A16.364,16.364,0,1,0,394.415,175.9,16.381,16.381,0,0,0,378.052,159.537Z" transform="translate(-360.55 -158.41)" fill="#e0ffff"/>
    </g>
    <circle id="Ellipse_251" data-name="Ellipse 251" cx="9.513" cy="9.513" r="9.513" transform="translate(1063.178 4435.494)" fill="#fff"/>
    <g id="Group_5073" data-name="Group 5073" transform="translate(1099.478 4396.372)">
      <path id="Path_5540" data-name="Path 5540" d="M416.972,166.043a17.5,17.5,0,1,1,17.5-17.5A17.522,17.522,0,0,1,416.972,166.043Zm0-33.877a16.364,16.364,0,1,0,16.364,16.364A16.381,16.381,0,0,0,416.972,132.167Z" transform="translate(-399.47 -131.04)" fill="#e0ffff"/>
    </g>
    <circle id="Ellipse_252" data-name="Ellipse 252" cx="8.956" cy="8.956" r="8.956" transform="translate(1106.719 4421.341) rotate(-81.06)" fill="#fff"/>
    <g id="Group_5074" data-name="Group 5074" transform="translate(1052.378 4395.621)">
      <path id="Path_5541" data-name="Path 5541" d="M358.08,132.315l1.286-1.935,6.919,6.054-1.07,1.479Z" transform="translate(-358.08 -130.38)" fill="#fff"/>
      <path id="Path_5542" data-name="Path 5542" d="M366.433,132.315l-1.274-1.935-6.919,6.054,1.058,1.479Z" transform="translate(-358.058 -130.38)" fill="#fff"/>
    </g>
    <rect id="Rectangle_331" data-name="Rectangle 331" width="61.95" height="3.107" transform="translate(1179.556 4396.928)" fill="#fff"/>
    <path id="Path_5543" data-name="Path 5543" d="M183.35,92.223v26.89l32.159.273.432-28.016Z" transform="translate(670.194 4259.859)" fill="#777" opacity="0.81"/>
    <path id="Path_5545" data-name="Path 5545" d="M188.4,100.623l2.97-4.313,16.045,13.473-2.458,3.289Z" transform="translate(670.89 4260.541)" fill="#fff"/>
    <path id="Path_5546" data-name="Path 5546" d="M207.787,100.623l-2.97-4.313L188.76,109.783l2.458,3.289Z" transform="translate(670.94 4260.541)" fill="#fff"/>
    <path id="Path_5547" data-name="Path 5547" d="M263.951,383.306H153.923a9.021,9.021,0,0,1-9.013-8.808l-2.06-90.251a9.014,9.014,0,0,1,9.013-9.217H266.421a9.017,9.017,0,0,1,9.013,9.263l-2.481,90.251A9,9,0,0,1,263.951,383.306Z" transform="translate(664.606 4285.195)" fill="#777" opacity="0.81"/>
    <g id="Group_5077" data-name="Group 5077" transform="translate(807.17 4559.941)">
      <path id="Path_5548" data-name="Path 5548" d="M263.986,383.625H153.957a9.354,9.354,0,0,1-9.3-9.081l-2.06-90.251a9.308,9.308,0,0,1,9.3-9.513H266.455a9.29,9.29,0,0,1,9.286,9.547l-2.481,90.251A9.221,9.221,0,0,1,263.986,383.625ZM151.909,275.36a8.725,8.725,0,0,0-8.717,8.933l2.06,90.251a8.771,8.771,0,0,0,8.728,8.523H264.009a8.7,8.7,0,0,0,8.728-8.489l2.481-90.251a8.726,8.726,0,0,0-8.728-8.967Z" transform="translate(-142.598 -274.78)" fill="#473da2"/>
    </g>
    <g id="Group_5078" data-name="Group 5078" transform="translate(837.123 4578.694)">
      <rect id="Rectangle_334" data-name="Rectangle 334" width="57.865" height="2.481" transform="translate(0 0)" fill="#fff"/>
      <rect id="Rectangle_335" data-name="Rectangle 335" width="28.927" height="2.481" transform="translate(0 6.02)" fill="#fff"/>
      <rect id="Rectangle_336" data-name="Rectangle 336" width="28.927" height="2.481" transform="translate(0 11.061)" fill="#fff"/>
      <rect id="Rectangle_337" data-name="Rectangle 337" width="23.021" height="2.481" transform="translate(32.181 11.061)" fill="#fff"/>
      <rect id="Rectangle_338" data-name="Rectangle 338" width="46.645" height="2.481" transform="translate(0 16.091)" fill="#fff"/>
      <rect id="Rectangle_339" data-name="Rectangle 339" width="16.603" height="2.481" transform="translate(0 21.12)" fill="#fff"/>
      <rect id="Rectangle_340" data-name="Rectangle 340" width="28.711" height="2.481" transform="translate(20.017 36.21)" fill="#fff"/>
      <rect id="Rectangle_341" data-name="Rectangle 341" width="52.039" height="2.481" transform="translate(0 26.15)" fill="#fff"/>
      <rect id="Rectangle_342" data-name="Rectangle 342" width="40.033" height="2.481" transform="translate(0 31.18)" fill="#fff"/>
      <rect id="Rectangle_343" data-name="Rectangle 343" width="18.833" height="2.481" transform="translate(0 36.21)" fill="#fff"/>
      <rect id="Rectangle_344" data-name="Rectangle 344" width="28.927" height="2.481" transform="translate(0 41.239)" fill="#fff"/>
      <rect id="Rectangle_345" data-name="Rectangle 345" width="8.296" height="2.481" transform="translate(0 46.269)" fill="#fff"/>
      <rect id="Rectangle_346" data-name="Rectangle 346" width="30.11" height="2.481" transform="translate(11.721 46.269)" fill="#fff"/>
      <rect id="Rectangle_347" data-name="Rectangle 347" width="28.711" height="2.481" transform="translate(20.017 51.151)" fill="#fff"/>
      <rect id="Rectangle_348" data-name="Rectangle 348" width="18.833" height="2.481" transform="translate(0 51.151)" fill="#fff"/>
      <rect id="Rectangle_349" data-name="Rectangle 349" width="28.927" height="2.481" transform="translate(0 56.181)" fill="#fff"/>
      <rect id="Rectangle_350" data-name="Rectangle 350" width="8.296" height="2.481" transform="translate(0 61.21)" fill="#fff"/>
      <rect id="Rectangle_351" data-name="Rectangle 351" width="30.11" height="2.481" transform="translate(11.721 61.21)" fill="#fff"/>
    </g>
    <path id="Path_5549" data-name="Path 5549" d="M509.953,109.457a5.087,5.087,0,1,1-5.087-5.087A5.085,5.085,0,0,1,509.953,109.457Z" transform="translate(713.846 4261.652)"/>
    <path id="Path_5550" data-name="Path 5550" d="M91.354,213.247a6.327,6.327,0,1,1-6.327-6.327A6.328,6.328,0,0,1,91.354,213.247Z" transform="translate(655.757 4275.799)" fill="#6a6a6a"/>
    <circle id="Ellipse_253" data-name="Ellipse 253" cx="5.087" cy="5.087" r="5.087" transform="translate(1228.556 4366.021)"/>
    <circle id="Ellipse_254" data-name="Ellipse 254" cx="3.596" cy="3.596" r="3.596" transform="translate(902.122 4402.482)"/>
    <circle id="Ellipse_255" data-name="Ellipse 255" cx="3.596" cy="3.596" r="3.596" transform="translate(1142.981 4561.147)" fill="#e3e3e3"/>
    <circle id="Ellipse_256" data-name="Ellipse 256" cx="3.209" cy="3.209" r="3.209" transform="translate(769.528 4597.39)" fill="#6a6a6a"/>
    <path id="Path_5551" data-name="Path 5551" d="M168.376,289.208H112.844a8.283,8.283,0,0,1-8.284-8.011l-1.229-36.528a8.286,8.286,0,0,1,8.284-8.569h57.876a8.287,8.287,0,0,1,8.284,8.546l-1.115,36.528A8.287,8.287,0,0,1,168.376,289.208Z" transform="translate(659.154 4279.825)" fill="#777" opacity="0.73"/>
    <g id="Group_5086" data-name="Group 5086" transform="translate(762.195 4515.64)">
      <path id="Path_5552" data-name="Path 5552" d="M168.411,289.527H112.878a8.547,8.547,0,0,1-8.569-8.284l-1.229-36.528a8.572,8.572,0,0,1,8.569-8.865h57.876a8.572,8.572,0,0,1,8.569,8.842l-1.115,36.528A8.528,8.528,0,0,1,168.411,289.527Zm-56.761-53.1a7.99,7.99,0,0,0-8,8.273l1.229,36.528a7.98,7.98,0,0,0,8,7.738h55.532a7.977,7.977,0,0,0,8-7.761l1.115-36.528a8.007,8.007,0,0,0-8-8.25H111.649Z" transform="translate(-103.076 -235.85)" fill="#953da2"/>
    </g>
    <g id="Group_5087" data-name="Group 5087" transform="translate(773.113 4529.057)">
      <path id="Path_5553" data-name="Path 5553" d="M126.36,247.64l-13.69,15.874,13.951,11.835v-6.111l-8.068-6.987,7.488-8.466Z" transform="translate(-112.67 -247.64)" fill="#fff"/>
    </g>
    <g id="Group_5088" data-name="Group 5088" transform="translate(809.71 4529.774)">
      <path id="Path_5554" data-name="Path 5554" d="M145.991,248.27l13.7,15.863L145.74,275.968v-6.1l8.068-6.987-8.978-9.5Z" transform="translate(-144.83 -248.27)" fill="#fff"/>
    </g>
    <g id="Group_5089" data-name="Group 5089" transform="translate(789.795 4530.479)">
      <path id="Path_5555" data-name="Path 5555" d="M127.33,275.177l11.926-26.287h5.61l-13.519,26.287Z" transform="translate(-127.33 -248.89)" fill="#fff"/>
    </g>
    <path id="Path_5556" data-name="Path 5556" d="M498.687,356.872H429.215a10.373,10.373,0,0,1-10.367-10.014L417.3,301.17a10.37,10.37,0,0,1,10.367-10.72h72.408a10.376,10.376,0,0,1,10.367,10.685l-1.4,45.689A10.347,10.347,0,0,1,498.687,356.872Z" transform="translate(702.467 4287.323)" fill="#777" opacity="0.81"/>
    <g id="Group_5091" data-name="Group 5091" transform="translate(1119.477 4577.5)">
      <path id="Path_5557" data-name="Path 5557" d="M498.722,357.19H429.25A10.614,10.614,0,0,1,418.6,346.9l-1.548-45.689a10.652,10.652,0,0,1,10.651-11H500.11a10.651,10.651,0,0,1,10.651,10.97l-1.388,45.689A10.613,10.613,0,0,1,498.722,357.19Zm-71.008-66.422a10.088,10.088,0,0,0-10.082,10.424l1.548,45.689a10.04,10.04,0,0,0,10.082,9.741h69.472a10.039,10.039,0,0,0,10.082-9.775l1.4-45.689a10.087,10.087,0,0,0-10.082-10.39Z" transform="translate(-417.044 -290.21)" fill="#777"/>
    </g>
    <rect id="Rectangle_360" data-name="Rectangle 360" width="63.623" height="37.791" transform="translate(1133.708 4585.124)" fill="#d2d2d2"/>
    <path id="Path_5558" data-name="Path 5558" d="M452.55,305.15v19.038l16.261-10.39Z" transform="translate(707.331 4289.351)" fill="#fff"/>
    <rect id="Rectangle_361" data-name="Rectangle 361" width="63.623" height="3.459" transform="translate(1133.708 4629.88)" fill="#4d4d4d"/>
    <rect id="Rectangle_362" data-name="Rectangle 362" width="16.466" height="3.459" transform="translate(1133.708 4629.88)" fill="#fff"/>
    <g id="Group_5093" data-name="Group 5093" transform="translate(1066.807 4558.905)">
      <path id="Path_5559" data-name="Path 5559" d="M391.038,288.151l-3.323,9.5C389.559,292.4,392.2,288.993,391.038,288.151Zm-3.311,9.491-3.323,9.5C385.235,306.893,385.883,302.9,387.727,297.642Zm3.311-9.491-3.323,9.5C389.559,292.4,392.2,288.993,391.038,288.151Zm-3.311,9.491-3.323,9.5C385.235,306.893,385.883,302.9,387.727,297.642Zm9.582,8.239,3.22,1.832,3.482-9.5-3.732-.626c.068-.353.137-.706.182-1.058a24.231,24.231,0,0,0,.319-4.734l3.9-2.447-1.775-8.375-3.744,3.573a10.986,10.986,0,0,0-1.912-2.788,6.706,6.706,0,0,0-.649-.626l2.287-5.28-6.088-1.98h0l-1.457,5.326a9.944,9.944,0,0,0-4.119.967l-.671-5.03-6.7,5.075,1.548,4.461a25.387,25.387,0,0,0-3.266,4.757l-3.232-1.821-3.482,9.5,3.732.626a25.654,25.654,0,0,0-.489,5.792l-3.9,2.447,1.775,8.375,3.744-3.573a10.6,10.6,0,0,0,2.56,3.414l-2.287,5.291,5.986,2.333.922-3.368.626-2.3a10.157,10.157,0,0,0,4.131-.956l.66,5.03,6.7-5.075-1.548-4.461a25.565,25.565,0,0,0,2.64-3.641C396.9,306.632,397.1,306.256,397.308,305.881Zm-9.582-8.239c-1.843,5.246,0,10.663-3.323,9.5s-4.552-6.373-2.708-11.607,6.031-8.546,9.354-7.385S389.559,292.4,387.727,297.642Zm3.311-9.491-3.323,9.5C389.559,292.4,392.2,288.993,391.038,288.151Zm-3.311,9.491-3.323,9.5C385.235,306.893,385.883,302.9,387.727,297.642Z" transform="translate(-370.76 -273.87)" fill="#818487" fill-rule="evenodd"/>
    </g>
    <path id="Path_5560" data-name="Path 5560" d="M401.367,308.086l3.482-9.5L401.3,296.9l-.569-.273.376-5.235,3.937-1.923-1.3-8.125-8.592-2.8,1.582,3.767,2.993-6.1-6.088-1.98-2.5-.819-6-2.333-1.115,4.1L378.8,272.7l-6.7,5.075,2.037,5.485-6.27,17.365-3.1,11.277,5.952.649-1.935,4.472,6,2.333,8.58,2.8-1.377-2.754-.865-1.65,3.175,1.036,5.417,1.764,6.7-5.075-4.142-4.882,5.235-3.22Zm-18.856-12.165c1.844-5.246,6.031-8.546,9.354-7.385l-3.323,9.5-3.323,9.5C381.885,306.357,380.667,301.156,382.511,295.922Z" transform="translate(695.221 4284.65)" fill="#e6e6e6" fill-rule="evenodd"/>
    <g id="Group_5094" data-name="Group 5094" transform="translate(1058.227 4555.753)">
      <path id="Path_5561" data-name="Path 5561" d="M392.989,305.284l3.482-9.5-3.732-.626a26.319,26.319,0,0,0,.5-5.781l3.9-2.447-1.775-8.375-3.744,3.573a10.439,10.439,0,0,0-2.56-3.414l2.287-5.28-6-2.333-1.548,5.678a10.251,10.251,0,0,0-4.119.956l-.66-5.03-6.7,5.064,1.548,4.461A25.482,25.482,0,0,0,370.605,287l-3.232-1.821-3.482,9.5,3.732.626a26.318,26.318,0,0,0-.5,5.781l-3.9,2.447L365,311.907l3.744-3.573a10.44,10.44,0,0,0,2.56,3.414l-2.287,5.28,6,2.333,1.548-5.678a10.251,10.251,0,0,0,4.119-.956l.66,5.03,6.7-5.064-1.548-4.461a25.481,25.481,0,0,0,3.266-4.768Zm-16.148-.558c-3.334-1.172-4.54-6.361-2.708-11.607s6.031-8.546,9.365-7.385,4.54,6.361,2.708,11.607S380.175,305.887,376.841,304.727Z" transform="translate(-363.22 -271.1)" fill="#060606" fill-rule="evenodd"/>
    </g>
    <path id="Path_5562" data-name="Path 5562" d="M402.083,287.8l-8.58-2.788-3.9,2.447,8.58,2.788Z" transform="translate(698.647 4286.572)" fill="#601734" fill-rule="evenodd" opacity="0.5"/>
    <path id="Path_5563" data-name="Path 5563" d="M393.809,310.979l-8.592-2.8-1.548-4.449,8.592,2.8Z" transform="translate(697.828 4289.155)" fill="#7d7d7d" fill-rule="evenodd"/>
    <path id="Path_5564" data-name="Path 5564" d="M385.92,278.43l4.711,1.366,1.593-1.525,3.129,1.013,1.445-3.346-8.58-2.788Z" transform="translate(698.139 4284.936)" fill="#601734" fill-rule="evenodd" opacity="0.5"/>
    <path id="Path_5565" data-name="Path 5565" d="M374.93,308.647l4.495,1.866-.375-2.833C379.061,307.68,376.637,308.966,374.93,308.647Z" transform="translate(696.623 4289.7)" fill="#601734" fill-rule="evenodd" opacity="0.5"/>
    <path id="Path_5566" data-name="Path 5566" d="M375.54,286.193l7.567,4.006a11.646,11.646,0,0,1,1.946-2.06C385.065,288.139,383.085,279.786,375.54,286.193Z" transform="translate(696.707 4286.402)" fill="#601734" fill-rule="evenodd" opacity="0.5"/>
    <path id="Path_5567" data-name="Path 5567" d="M223.324,36.96l7.294,14.623-4.87,2.219L218.92,40.374Z" transform="translate(675.101 4252.353)"/>
    <path id="Path_5568" data-name="Path 5568" d="M78.34,336.623l6.759,7.419,2.651-3.061-6.384-7.021Z" transform="translate(655.707 4293.325)" fill="#6a6a6a"/>
    <path id="Path_5569" data-name="Path 5569" d="M381.265,116.023l-6.8,4.131-2.72-5.178,7.442-4.336Z" transform="translate(696.183 4262.517)"/>
    <path id="Path_5570" data-name="Path 5570" d="M411.073,345.537l-9.752,6.93L398.59,347.3l9.468-5.53Z" transform="translate(699.887 4294.402)" fill="#464646"/>
    <path id="Path_5571" data-name="Path 5571" d="M398.44,88.944l-1.65-38.3h50.15l-2.06,38.19Z" transform="translate(699.638 4254.24)" fill="#777" fill-rule="evenodd"/>
    <path id="Path_5572" data-name="Path 5572" d="M396.972,50.64l-1.5,2.253,1.5,36.05h1.65Z" transform="translate(699.456 4254.24)" fill-rule="evenodd" fill="url(#linear-gradient-28)"/>
    <path id="Path_5573" data-name="Path 5573" d="M412.373,57.462l-7.863-.842,1.07,26.241,6.794-.66v-2.72l-3.937.091-.444-20.233,4.381.125Z" transform="translate(700.703 4255.065)" fill="#fff"/>
    <path id="Path_5574" data-name="Path 5574" d="M425.59,57.462l7.863-.842-1.081,26.241-6.782-.66v-2.72l3.926.091.455-20.233-4.381.125Z" transform="translate(703.612 4255.065)" fill="#fff"/>
    <path id="Path_5575" data-name="Path 5575" d="M98.358,161.146l1.127-26.116H65.3l1.4,26.036Z" transform="translate(653.908 4265.882)" fill="#777" fill-rule="evenodd" opacity="0.81"/>
    <path id="Path_5576" data-name="Path 5576" d="M95.477,135.03l1.024,1.548-1.024,24.568H94.35Z" transform="translate(657.916 4265.882)" fill-rule="evenodd"/>
    <path id="Path_5577" data-name="Path 5577" d="M83.814,139.654a22.75,22.75,0,0,1,4.415.159c.66.307-.171,6.418-.171,6.418l1.491,1.377-1.4,1.354s.068,6.19-.808,6.7-3.892,0-3.892,0v-1.548s2.458.159,2.868-.171.364-5.735.364-5.735l.66-.728-.66-.785s.125-3.858.046-4.916c-.046-.706-2.913-.74-2.913-.74v-1.388Z" transform="translate(656.412 4266.515)" fill="#fff"/>
    <path id="Path_5578" data-name="Path 5578" d="M76.915,139.654a22.75,22.75,0,0,0-4.415.159c-.66.307.171,6.418.171,6.418l-1.491,1.377,1.4,1.354s-.068,6.19.808,6.7,3.892,0,3.892,0v-1.548s-2.458.159-2.868-.171-.364-5.735-.364-5.735l-.66-.728.66-.785s-.125-3.858-.046-4.916c.046-.706,2.913-.74,2.913-.74v-1.388Z" transform="translate(654.719 4266.515)" fill="#fff"/>
    <g id="Group_5102" data-name="Group 5102" transform="translate(1032.373 4324.703)">
      <path id="Path_5579" data-name="Path 5579" d="M348.875,89.988,340.5,68.06l21.724,4.54ZM341.4,68.834l7.647,20.005,12.176-15.863Z" transform="translate(-340.5 -68.06)"/>
    </g>
    <g id="Group_5103" data-name="Group 5103" transform="translate(1100.325 4647.145)">
      <rect id="Rectangle_371" data-name="Rectangle 371" width="12.449" height="0.569" transform="translate(0 10.04) rotate(-53.757)" fill="#744ca2"/>
    </g>
    <g id="Group_5104" data-name="Group 5104" transform="translate(1023.804 4554.729)">
      <path id="Path_5580" data-name="Path 5580" d="M340.879,280.4l-7.909-9.843.444-.353,7.909,9.843Z" transform="translate(-332.97 -270.2)" fill="#744ca2"/>
    </g>
    <g id="Group_5105" data-name="Group 5105" transform="translate(772.032 4622.119)">
      <path id="Path_5581" data-name="Path 5581" d="M127.5,341.323,111.72,329.875l.33-.455,15.783,11.448Z" transform="translate(-111.72 -329.42)" fill="#6a6a6a"/>
    </g>
    <g id="Group_5106" data-name="Group 5106" transform="translate(773.962 4620.157)">
      <rect id="Rectangle_372" data-name="Rectangle 372" width="19.493" height="0.569" transform="matrix(0.606, -0.795, 0.795, 0.606, 0, 15.507)" fill="#6a6a6a"/>
    </g>
    <g id="Group_5107" data-name="Group 5107" transform="translate(752.122 4460.29)">
      <rect id="Rectangle_373" data-name="Rectangle 373" width="0.569" height="11.539" transform="translate(0 0.504) rotate(-62.282)" fill="#744ca2"/>
    </g>
    <g id="Group_5108" data-name="Group 5108" transform="translate(1154.339 4314.632)">
      <path id="Path_5582" data-name="Path 5582" d="M448.1,73.048l-.421-.376,11.8-13.462.421.376Z" transform="translate(-447.68 -59.21)" fill="#744ca2"/>
    </g>
    <g id="Group_5109" data-name="Group 5109" transform="translate(924.986 4361.027)">
      <rect id="Rectangle_374" data-name="Rectangle 374" width="0.569" height="11.846" transform="translate(0 0.253) rotate(-26.45)" fill="#744ca2"/>
    </g>
    <g id="Group_5110" data-name="Group 5110" transform="translate(841.502 4539.481)">
      <rect id="Rectangle_375" data-name="Rectangle 375" width="17.684" height="0.569" transform="translate(0 11.346) rotate(-39.913)" fill="#744ca2"/>
    </g>
  </g>
</svg>
