<svg xmlns="http://www.w3.org/2000/svg" width="333" height="271.062" viewBox="0 0 333 271.062">
  <g id="Group_4254" data-name="Group 4254" transform="translate(-167.946 -3279.871)">
    <path id="Path_4678" data-name="Path 4678" d="M783.559,1252.977s20.075,4.209,19.061,7.9-22.032-6.3-22.032-6.3-15.5,13.859-17.654,20.923c0,0,22.633-3.2,20.742.122s-25.286,7.75-25.286,7.75-10.638,16.385-1.3,23.591,16.5,4.784,18.247,2.426,8.518-19.318,10.527-17.972.8,14.191-3.81,19.728c0,0,20.214.16,23.149-9.406s-1.58-14.774.341-20.651,5.179-9.406,5.535-5.922-4.672,12.7-2.665,18.918,2.872,10.945,8.164,3.126,10.552-23.609,5.249-29.4c-.231-.252-.452-.492-.663-.724a3.719,3.719,0,0,1,.663.724c1.573-1.195,6.938-1.742,10.981-1.99.669,0,1.616-.038,2.918-.143h0c.578-.021,1.05-.034,1.38-.042,8.785.109,21.138,7.1,21.138,7.1l1.248-1.622c-11.44-9.479-25.154-6.847-25.154-6.847a37.846,37.846,0,0,1-17.81-2.245s-2.394-20.244-18.06-17.751C798.463,1244.264,788.254,1247.221,783.559,1252.977Z" transform="translate(-552.322 2232.262)" fill="#f5f5f5"/>
    <path id="Path_4679" data-name="Path 4679" d="M1660.932,421.257c-5.348-19.747-38.67-13.575-38.67-13.575s-22.627,34.557-29.209,35.379,13.575-33.322,13.575-33.322c-12.752-1.235-45.252,14.4-45.252,14.4s2.057,40.317-4.525,39.492,0-35.79,0-35.79c-12.342,3.7-23.86,18.1-23.86,18.1-14.4,23.45,16.455,40.727,16.455,40.727s.412,13.987-8.227,30.032h0a47.542,47.542,0,0,0-3.932,8h3.366q.413-1.354.913-2.613a.019.019,0,0,1,.006-.015c0-.013.01-.023.015-.036.231-.52.562-1.26.974-2.16,0,0,0,0,0,0s0,0,0,0c1.029-2.013,1.723-3.5,2.163-4.571,0,0,0-.006,0-.01,3.08-6.317,7.516-14.547,10.476-16.274a6.5,6.5,0,0,1-.719-1.544c.229.492.469,1.006.719,1.544,5.76,12.342,34.557,14.4,50.6,11.107s9.05-7.817.412-15.161-26.74-5.409-32.089-8.288,2.468-5.76,13.165-4.937,16.045,11.52,33.322,13.165,30.442-30.854,30.442-30.854c-11.93,3.7-33.322-2.88-34.144-6.993s30.854-3.7,35.789-4.937S1666.281,441,1660.932,421.257Z" transform="translate(-1165.007 2893.406)" fill="#f5f5f5"/>
    <path id="Path_4680" data-name="Path 4680" d="M620.692,461.612c7.367-11.791,27.825-1.216,27.825-1.216s7.912,26.931,12.031,28.761-2.27-24.346-2.27-24.346c8.537,1.708,26.6,18.275,26.6,18.275s-9.275,25.816-4.832,26.578,7.047-23.279,7.047-23.279c7.3,4.838,11.955,16.472,11.955,16.472,4.748,18.087-18.721,23.25-18.721,23.25a44.609,44.609,0,0,0-.562,21.152h0a32.446,32.446,0,0,1,.982,5.977l-2.188-.663c0-.642-.027-1.268-.08-1.879a.009.009,0,0,0,0-.011c0-.008,0-.017,0-.027-.048-.383-.118-.93-.208-1.6v-.006c-.271-1.51-.431-2.615-.5-3.4v-.006c-.759-4.714-2.026-10.941-3.61-12.647a4.424,4.424,0,0,0,.772-.862l-.772.862c-6.176,6.894-25.311,2.56-35.1-2.739s-4.348-6.866,2.718-9.942,18.457,1.748,22.5.928-.471-4.233-7.59-5.8-12.7,4.334-24.266,2-13.724-26.062-13.724-26.062c7.03,4.756,22.24,4.687,23.584,2.175s-19.339-8.482-22.307-10.258S613.325,473.4,620.692,461.612Z" transform="translate(-444.243 2854.502)" fill="#f5f5f5"/>
    <path id="Path_4681" data-name="Path 4681" d="M1243.481,460.2c-5.156-8.587-20.027-1.231-20.027-1.231s-6.044,19.3-9.033,20.563,1.946-17.509,1.946-17.509c-6.172,1.121-19.392,12.824-19.392,12.824s6.351,18.714,3.141,19.206-4.78-16.859-4.78-16.859c-5.318,3.391-8.823,11.711-8.823,11.711-3.652,12.967,13.188,16.987,13.188,16.987a32.128,32.128,0,0,1,.135,15.243h0a23.429,23.429,0,0,0-.785,4.291l1.584-.45c.008-.461.036-.913.082-1.353v-.008c0-.006,0-.013,0-.019.04-.276.1-.669.17-1.149v0c.215-1.086.345-1.879.408-2.442v0c.608-3.387,1.6-7.855,2.762-9.065a3.173,3.173,0,0,1-.545-.631c.174.2.355.41.545.631,4.361,5.045,18.2,2.169,25.318-1.525s3.219-4.891-1.83-7.2-13.316,1.022-16.221.381.393-3.042,5.541-4.083,9.094,3.284,17.454,1.752,10.22-18.6,10.22-18.6c-5.125,3.336-16.08,3.092-17.017,1.264s14.038-5.863,16.2-7.1S1248.638,468.787,1243.481,460.2Z" transform="translate(-894.031 2854.505)" fill="#f5f5f5"/>
    <path id="Path_4683" data-name="Path 4683" d="M1226.724,984.558l-10.119,120.307s-1.06,7.293,4.365,7.306c8.92.021,44.394,0,44.394,0s-6.713-1.519-6.631-4.933c.1-4.026,11.827-123.818,11.827-123.818Z" transform="translate(-918.135 2438.065)" fill="#3d3d3d"/>
    <path id="Path_4684" data-name="Path 4684" d="M1279.188,1101.8c-1.754,0-35.636.111-44.322,0-3.784-.046-4.449-3.366-4.481-5.514a10.836,10.836,0,0,1,.116-1.79l.263-3.126.671-7.971.593-7.041.761-9.048.641-7.636,7.191-85.487,43.834-1.138s-4.939,50.132-8.436,86.625c-.389,4.066-.762,7.965-1.1,11.6q-.168,1.742-.322,3.4c-.324,3.452-.621,6.622-.877,9.422-.137,1.475-.261,2.846-.374,4.1-.446,4.921-.707,8.063-.711,8.661a4.9,4.9,0,0,0,.086.974C1273.433,1101.674,1278.53,1101.8,1279.188,1101.8Z" transform="translate(-929.081 2446.253)"/>
    <path id="Path_4685" data-name="Path 4685" d="M758.97,677.63l24.647,99,3.374,13.558,11.48,46.11H1011.73L969.421,677.63Z" transform="translate(-556.837 2679.525)" fill="#f9f9f9"/>
    <path id="Path_4686" data-name="Path 4686" d="M746.154,677.63l-3.414,1.138,38.373,160.973,4.542-3.444Z" transform="translate(-544.021 2679.525)" fill="#b7b7b7"/>
    <path id="Path_4687" data-name="Path 4687" d="M925.15,1435.314H1137.1l5.853-3.444H929.692Z" transform="translate(-688.058 2083.953)" fill="#d6d6d6"/>
    <rect id="Rectangle_274" data-name="Rectangle 274" width="45.889" height="2.182" transform="translate(357.412 3550.279) rotate(180)" fill="#ababab"/>
    <path id="Path_4688" data-name="Path 4688" d="M1001.4,807.06,966.8,679.727h-207.3l-.524-2.1H969.421l34.487,129.146Z" transform="translate(-556.837 2679.525)" fill="#8e8e8e"/>
    <path id="Path_4689" data-name="Path 4689" d="M1278.764,1448.24l-.238,1.666-43.157,8.72.593-7.043.282-3.343Z" transform="translate(-933.018 2071.026)" fill="#4a4a4a"/>
    <path id="Path_4690" data-name="Path 4690" d="M1279.193,1534.046c-1.754,0-35.636.111-44.322,0-3.784-.046-4.449-3.366-4.481-5.514l42.953-8.082c-.446,4.92-.707,8.063-.711,8.661a4.894,4.894,0,0,0,.086.974C1273.437,1533.92,1278.534,1534.046,1279.193,1534.046Z" transform="translate(-929.086 2014.007)" fill="#828282" opacity="0.4"/>
    <path id="Path_4691" data-name="Path 4691" d="M997.332,1226.669,903.65,1258.79l-11.48-46.11Z" transform="translate(-662.016 2257.032)" fill="#d1d1d1"/>
    <path id="Path_4692" data-name="Path 4692" d="M758.97,677.63H969.421l34.145,127.518H790.716Z" transform="translate(-556.837 2679.525)" fill="#9f9f9f"/>
    <ellipse id="Ellipse_240" data-name="Ellipse 240" cx="5.139" cy="6.239" rx="5.139" ry="6.239" transform="matrix(0.672, -0.74, 0.74, 0.672, 340.165, 3500.409)" fill="#d9d9d9"/>
    <path id="Path_4693" data-name="Path 4693" d="M1026.363,825.261H829.319L807,736.366l-1.71-6.818-1.46-5.815L800.41,710.1H994.616l3.757,13.634,1.6,5.815,1.879,6.818Z" transform="translate(-589.559 2653.886)" fill="#fff"/>
    <path id="Path_4694" data-name="Path 4694" d="M998.373,723.734H803.833L800.41,710.1H994.616Z" transform="translate(-589.559 2653.886)" fill="#646464"/>
    <path id="Path_4695" data-name="Path 4695" d="M838.4,732.994a1.287,1.287,0,0,1,1.279-1.7,2.328,2.328,0,0,1,2.129,1.7,1.287,1.287,0,0,1-1.279,1.7A2.33,2.33,0,0,1,838.4,732.994Z" transform="translate(-619.517 2637.154)" fill="#e9f3fe"/>
    <path id="Path_4696" data-name="Path 4696" d="M865.322,732.994a1.288,1.288,0,0,1,1.279-1.7,2.328,2.328,0,0,1,2.129,1.7,1.287,1.287,0,0,1-1.279,1.7A2.33,2.33,0,0,1,865.322,732.994Z" transform="translate(-640.774 2637.154)" fill="#e9f3fe"/>
    <path id="Path_4697" data-name="Path 4697" d="M894.312,732.994a1.288,1.288,0,0,1,1.279-1.7,2.329,2.329,0,0,1,2.129,1.7,1.287,1.287,0,0,1-1.279,1.7A2.33,2.33,0,0,1,894.312,732.994Z" transform="translate(-663.666 2637.154)" fill="#e9f3fe"/>
    <path id="Path_4698" data-name="Path 4698" d="M1036.927,892.855H890.97L868.76,805.69h143.9Z" transform="translate(-643.53 2578.405)" fill="#e8e8e8"/>
    <path id="Path_4699" data-name="Path 4699" d="M1611.018,825.971h-33.08l-6.048-20.281h33.482Z" transform="translate(-1198.746 2578.405)" fill="#e6e6e6"/>
    <path id="Path_4700" data-name="Path 4700" d="M1259.677,835.088h-18.929l-.778-2.918H1258.9Z" transform="translate(-936.651 2557.496)" fill="#b7b7b7"/>
    <path id="Path_4701" data-name="Path 4701" d="M1374.014,835.088H1343.05l-.78-2.918h30.966Z" transform="translate(-1017.43 2557.496)" fill="#b2b2b2"/>
    <path id="Path_4702" data-name="Path 4702" d="M1219.846,872.468h-33.568l-.778-2.918h33.568Z" transform="translate(-893.639 2527.98)" fill="#b2b2b2"/>
    <path id="Path_4703" data-name="Path 4703" d="M1377.6,872.468h-17.4l-.778-2.918h17.4Z" transform="translate(-1030.972 2527.98)" fill="gray"/>
    <path id="Path_4704" data-name="Path 4704" d="M1286.827,936.81H1267.9l-.778-2.92h18.929Z" transform="translate(-958.089 2477.173)" fill="#b2b2b2"/>
    <path id="Path_4705" data-name="Path 4705" d="M1401.172,936.81h-30.964l-.778-2.92h30.964Z" transform="translate(-1038.877 2477.173)" fill="#b2b2b2"/>
    <path id="Path_4706" data-name="Path 4706" d="M1247,974.188h-33.566l-.781-2.918h33.568Z" transform="translate(-915.078 2447.657)" fill="#fff"/>
    <path id="Path_4707" data-name="Path 4707" d="M1404.748,974.188h-17.4l-.781-2.918h17.4Z" transform="translate(-1052.411 2447.657)" fill="#fff"/>
    <path id="Path_4708" data-name="Path 4708" d="M1036.014,1032.04H971.978l-.778-2.92h64.036Z" transform="translate(-724.421 2401.978)" fill="#b7b7b7"/>
    <path id="Path_4709" data-name="Path 4709" d="M1314.767,1032.04h-18.929l-.778-2.92h18.927Z" transform="translate(-980.151 2401.978)" fill="#b2b2b2"/>
    <path id="Path_4710" data-name="Path 4710" d="M1429.1,1032.04H1398.14l-.781-2.92h30.966Z" transform="translate(-1060.931 2401.978)" fill="#b2b2b2"/>
    <path id="Path_4711" data-name="Path 4711" d="M1000.877,1069.418H981.948l-.778-2.918H1000.1Z" transform="translate(-732.294 2372.461)" fill="#fff"/>
    <path id="Path_4712" data-name="Path 4712" d="M1274.937,1069.418h-33.568l-.778-2.918h33.568Z" transform="translate(-937.14 2372.461)" fill="gray"/>
    <path id="Path_4713" data-name="Path 4713" d="M1115.214,1069.418H1084.25l-.781-2.918h30.966Z" transform="translate(-813.072 2372.461)" fill="#b2b2b2"/>
    <path id="Path_4714" data-name="Path 4714" d="M1432.688,1069.418h-17.4l-.778-2.918h17.4Z" transform="translate(-1074.473 2372.461)" fill="#b2b2b2"/>
    <path id="Path_4715" data-name="Path 4715" d="M1070.566,1135.228H1006.53l-.78-2.918h64.038Z" transform="translate(-751.703 2320.496)" fill="#b7b7b7"/>
    <path id="Path_4716" data-name="Path 4716" d="M1349.325,1135.228H1330.4l-.778-2.918h18.927Z" transform="translate(-1007.441 2320.496)" fill="#b2b2b2"/>
    <path id="Path_4717" data-name="Path 4717" d="M1035.437,1172.608h-18.929l-.778-2.918h18.927Z" transform="translate(-759.583 2290.979)" fill="#fff"/>
    <path id="Path_4718" data-name="Path 4718" d="M1309.5,1172.608h-33.568l-.779-2.918h33.566Z" transform="translate(-964.43 2290.979)" fill="gray"/>
    <path id="Path_4719" data-name="Path 4719" d="M1149.774,1172.608H1118.81l-.78-2.918H1149Z" transform="translate(-840.363 2290.979)" fill="#b2b2b2"/>
    <path id="Path_4720" data-name="Path 4720" d="M1467.248,1172.608h-17.4l-.778-2.918h17.4Z" transform="translate(-1101.763 2290.979)" fill="#b2b2b2"/>
    <path id="Path_4721" data-name="Path 4721" d="M1623.749,926.963l-14.557.044-.322-1.321,14.557-.046Z" transform="translate(-1227.946 2483.689)" fill="#c7c7c7"/>
    <path id="Path_4722" data-name="Path 4722" d="M1694.346,926.851l-5.474.017-.322-1.321,5.474-.017Z" transform="translate(-1290.865 2483.775)" fill="#c7c7c7"/>
    <path id="Path_4723" data-name="Path 4723" d="M1731.319,926.691l-9.677.029-.322-1.321,9.675-.029Z" transform="translate(-1316.741 2483.901)" fill="#c7c7c7"/>
    <path id="Path_4724" data-name="Path 4724" d="M1621.043,942.951l-7.981.025-.322-1.321,7.981-.025Z" transform="translate(-1231.003 2471.062)" fill="#c7c7c7"/>
    <path id="Path_4725" data-name="Path 4725" d="M1667.638,942.781l-10.306.034-.322-1.323,10.306-.031Z" transform="translate(-1265.959 2471.197)" fill="#c7c7c7"/>
    <path id="Path_4726" data-name="Path 4726" d="M1727.174,942.581l-11.812.038-.322-1.323,11.812-.036Z" transform="translate(-1311.782 2471.354)" fill="#c7c7c7"/>
    <path id="Path_4727" data-name="Path 4727" d="M1632.021,960.921l-14.557.044-.324-1.321,14.56-.044Z" transform="translate(-1234.477 2456.872)" fill="#c7c7c7"/>
    <path id="Path_4728" data-name="Path 4728" d="M1702.618,960.8l-5.476.017-.322-1.323,5.474-.017Z" transform="translate(-1297.395 2456.968)" fill="#c7c7c7"/>
    <path id="Path_4729" data-name="Path 4729" d="M1739.6,960.643l-9.675.029-.322-1.323,9.675-.03Z" transform="translate(-1323.278 2457.094)" fill="#c7c7c7"/>
    <path id="Path_4730" data-name="Path 4730" d="M1629.323,976.9l-7.981.025-.322-1.323,7.981-.025Z" transform="translate(-1237.54 2444.255)" fill="#c7c7c7"/>
    <path id="Path_4731" data-name="Path 4731" d="M1675.91,976.733l-10.308.032-.322-1.323,10.308-.031Z" transform="translate(-1272.489 2444.387)" fill="#c7c7c7"/>
    <path id="Path_4732" data-name="Path 4732" d="M1735.446,976.533l-11.814.036-.322-1.321,11.812-.038Z" transform="translate(-1318.312 2444.547)" fill="#c7c7c7"/>
    <path id="Path_4733" data-name="Path 4733" d="M1599.972,816.085l-8.766.027-.2-.8,8.768-.025Z" transform="translate(-1213.843 2570.826)" fill="#fff"/>
    <path id="Path_4734" data-name="Path 4734" d="M1642.49,816.015l-3.3.01-.194-.8,3.3-.01Z" transform="translate(-1251.738 2570.882)" fill="#fff"/>
    <path id="Path_4735" data-name="Path 4735" d="M1664.75,815.917l-5.825.017-.2-.8,5.827-.019Z" transform="translate(-1267.317 2570.958)" fill="#fff"/>
    <path id="Path_4736" data-name="Path 4736" d="M1598.35,825.707l-4.807.015-.194-.8,4.8-.015Z" transform="translate(-1215.692 2563.229)" fill="#fff"/>
    <path id="Path_4737" data-name="Path 4737" d="M1626.4,825.607l-6.208.019-.194-.8,6.208-.019Z" transform="translate(-1236.735 2563.308)" fill="#fff"/>
    <path id="Path_4738" data-name="Path 4738" d="M1662.256,825.487l-7.113.021-.194-.8,7.113-.021Z" transform="translate(-1264.333 2563.405)" fill="#fff"/>
    <path id="Path_4739" data-name="Path 4739" d="M1604.959,836.527l-8.766.027-.194-.8,8.766-.027Z" transform="translate(-1217.784 2554.686)" fill="#fff"/>
    <path id="Path_4740" data-name="Path 4740" d="M1647.47,836.465l-3.3.01-.194-.8,3.3-.008Z" transform="translate(-1255.67 2554.732)" fill="#fff"/>
    <path id="Path_4741" data-name="Path 4741" d="M1669.738,836.365l-5.825.019-.194-.8,5.825-.017Z" transform="translate(-1271.258 2554.812)" fill="#fff"/>
    <path id="Path_4742" data-name="Path 4742" d="M1603.33,846.157l-4.807.015-.194-.8,4.807-.015Z" transform="translate(-1219.624 2547.082)" fill="#fff"/>
    <path id="Path_4743" data-name="Path 4743" d="M1631.389,846.055l-6.206.019-.194-.8,6.206-.019Z" transform="translate(-1240.675 2547.161)" fill="#fff"/>
    <path id="Path_4744" data-name="Path 4744" d="M1667.238,845.935l-7.115.023-.194-.8,7.113-.021Z" transform="translate(-1268.265 2547.255)" fill="#fff"/>
    <path id="Path_4745" data-name="Path 4745" d="M1646.169,1018.933l-14.557.044-.322-1.321,14.557-.046Z" transform="translate(-1245.65 2411.066)" fill="#c7c7c7"/>
    <path id="Path_4746" data-name="Path 4746" d="M1716.758,1018.821l-5.474.017-.324-1.321,5.476-.017Z" transform="translate(-1308.56 2411.153)" fill="#c7c7c7"/>
    <path id="Path_4747" data-name="Path 4747" d="M1753.736,1018.661l-9.675.03-.322-1.321,9.675-.029Z" transform="translate(-1334.445 2411.279)" fill="#c7c7c7"/>
    <path id="Path_4748" data-name="Path 4748" d="M1643.463,1034.921l-7.981.025-.322-1.321,7.981-.025Z" transform="translate(-1248.706 2398.439)" fill="#c7c7c7"/>
    <path id="Path_4749" data-name="Path 4749" d="M1690.05,1034.751l-10.306.034-.324-1.323,10.308-.032Z" transform="translate(-1283.656 2398.573)" fill="#c7c7c7"/>
    <path id="Path_4750" data-name="Path 4750" d="M1749.586,1034.551l-11.812.038-.324-1.323,11.812-.036Z" transform="translate(-1329.477 2398.732)" fill="#c7c7c7"/>
    <path id="Path_4751" data-name="Path 4751" d="M1660.029,1075.793l-14.557.044-.322-1.321,14.557-.046Z" transform="translate(-1256.594 2366.168)" fill="#c7c7c7"/>
    <path id="Path_4752" data-name="Path 4752" d="M1730.617,1075.681l-5.474.017-.324-1.321,5.476-.017Z" transform="translate(-1319.504 2366.255)" fill="#c7c7c7"/>
    <path id="Path_4753" data-name="Path 4753" d="M1767.6,1075.521l-9.675.03-.322-1.321,9.675-.03Z" transform="translate(-1345.389 2366.382)" fill="#c7c7c7"/>
    <path id="Path_4754" data-name="Path 4754" d="M1657.323,1091.783l-7.981.023-.322-1.321,7.981-.025Z" transform="translate(-1259.65 2353.542)" fill="#c7c7c7"/>
    <path id="Path_4755" data-name="Path 4755" d="M1703.91,1091.613l-10.308.031-.322-1.323,10.308-.031Z" transform="translate(-1294.599 2353.677)" fill="#c7c7c7"/>
    <path id="Path_4756" data-name="Path 4756" d="M1763.446,1091.411l-11.814.038-.322-1.323,11.812-.036Z" transform="translate(-1340.422 2353.835)" fill="#c7c7c7"/>
    <path id="Path_4757" data-name="Path 4757" d="M1672.511,1127.023l-14.56.044-.322-1.323,14.559-.044Z" transform="translate(-1266.449 2325.717)" fill="#c7c7c7"/>
    <path id="Path_4758" data-name="Path 4758" d="M1743.108,1126.911l-5.476.017-.322-1.321,5.474-.017Z" transform="translate(-1329.367 2325.803)" fill="#c7c7c7"/>
    <path id="Path_4759" data-name="Path 4759" d="M1780.087,1126.751l-9.675.029-.322-1.321,9.675-.029Z" transform="translate(-1355.251 2325.93)" fill="#c7c7c7"/>
    <path id="Path_4760" data-name="Path 4760" d="M1669.813,1143.011l-7.981.025-.322-1.321,7.981-.025Z" transform="translate(-1269.513 2313.09)" fill="#c7c7c7"/>
    <path id="Path_4761" data-name="Path 4761" d="M1716.4,1142.841l-10.308.034-.322-1.323,10.308-.031Z" transform="translate(-1304.462 2313.224)" fill="#c7c7c7"/>
    <path id="Path_4762" data-name="Path 4762" d="M1775.934,1142.641l-11.812.038-.322-1.323,11.812-.036Z" transform="translate(-1350.284 2313.383)" fill="#c7c7c7"/>
    <path id="Path_4763" data-name="Path 4763" d="M1739.724,1176.326a6.131,6.131,0,0,1-5.482-4.243c-.684-2.339.665-4.243,3-4.243a6.131,6.131,0,0,1,5.482,4.243C1743.412,1174.422,1742.064,1176.326,1739.724,1176.326Zm-2.251-7.71a2.513,2.513,0,0,0-2.455,3.469,5.012,5.012,0,0,0,4.481,3.469,2.513,2.513,0,0,0,2.455-3.469A5.009,5.009,0,0,0,1737.474,1168.616Z" transform="translate(-1326.804 2292.441)"/>
    <path id="Path_4764" data-name="Path 4764" d="M1745.685,1183.591a.887.887,0,0,1-.475-.2l-2.381-1.906a.7.7,0,0,1-.246-.913.65.65,0,0,1,.919.021l1.683,1.346.863-1.994c.124-.288.509-.353.86-.145a.786.786,0,0,1,.408.9l-1.134,2.621a.45.45,0,0,1-.4.265A.681.681,0,0,1,1745.685,1183.591Z" transform="translate(-1333.458 2283.09)"/>
    <path id="Path_4765" data-name="Path 4765" d="M1795.4,1176.326a6.131,6.131,0,0,1-5.482-4.243c-.684-2.339.665-4.243,3-4.243a6.131,6.131,0,0,1,5.482,4.243C1799.092,1174.422,1797.744,1176.326,1795.4,1176.326Zm-2.251-7.71a2.513,2.513,0,0,0-2.455,3.469,5.012,5.012,0,0,0,4.481,3.469,2.512,2.512,0,0,0,2.455-3.469A5.009,5.009,0,0,0,1793.154,1168.616Z" transform="translate(-1370.771 2292.441)" fill="#d9d9d9"/>
    <path id="Path_4766" data-name="Path 4766" d="M1806.738,1180.042h0a.869.869,0,0,1-.776-.6l-.526-1.8a.435.435,0,0,1,.425-.6h0a.87.87,0,0,1,.776.6l.526,1.8A.435.435,0,0,1,1806.738,1180.042Z" transform="translate(-1383.141 2285.177)" fill="#d9d9d9"/>
    <path id="Path_4767" data-name="Path 4767" d="M1810.828,1194.029h-.13a.774.774,0,0,1-.692-.534h0a.387.387,0,0,1,.379-.534h.13a.774.774,0,0,1,.692.534h0A.388.388,0,0,1,1810.828,1194.029Z" transform="translate(-1386.752 2272.606)" fill="#d9d9d9"/>
    <path id="Path_4768" data-name="Path 4768" d="M1687.281,875.343a3.36,3.36,0,0,1-3.006-2.327,1.686,1.686,0,0,1,1.647-2.327,3.36,3.36,0,0,1,3.006,2.327A1.686,1.686,0,0,1,1687.281,875.343Zm-1.235-4.226a1.378,1.378,0,0,0-1.346,1.9,2.749,2.749,0,0,0,2.457,1.9,1.378,1.378,0,0,0,1.346-1.9A2.744,2.744,0,0,0,1686.046,871.117Z" transform="translate(-1287.412 2527.079)" fill="#6d6d6d"/>
    <path id="Path_4769" data-name="Path 4769" d="M1690.552,879.329a.485.485,0,0,1-.261-.107l-1.3-1.046a.381.381,0,0,1-.135-.5.356.356,0,0,1,.5.01l.921.738.473-1.094c.069-.158.28-.193.471-.08a.429.429,0,0,1,.223.494l-.623,1.437a.248.248,0,0,1-.221.145A.123.123,0,0,1,1690.552,879.329Z" transform="translate(-1291.063 2521.953)" fill="#6d6d6d"/>
    <path id="Path_4770" data-name="Path 4770" d="M1655.641,875.343a3.36,3.36,0,0,1-3.006-2.327,1.686,1.686,0,0,1,1.647-2.327,3.36,3.36,0,0,1,3.006,2.327A1.686,1.686,0,0,1,1655.641,875.343Zm-1.235-4.226a1.378,1.378,0,0,0-1.346,1.9,2.748,2.748,0,0,0,2.457,1.9,1.378,1.378,0,0,0,1.346-1.9A2.745,2.745,0,0,0,1654.406,871.117Z" transform="translate(-1262.427 2527.079)" fill="#6d6d6d"/>
    <path id="Path_4771" data-name="Path 4771" d="M1658.911,879.329a.484.484,0,0,1-.261-.107l-1.3-1.046a.381.381,0,0,1-.135-.5.356.356,0,0,1,.5.01l.922.738.473-1.094c.069-.158.28-.193.471-.08a.43.43,0,0,1,.223.494l-.623,1.437a.247.247,0,0,1-.221.145A.122.122,0,0,1,1658.911,879.329Z" transform="translate(-1266.079 2521.953)" fill="#6d6d6d"/>
    <path id="Path_4772" data-name="Path 4772" d="M1622.861,875.343a3.361,3.361,0,0,1-3.006-2.327,1.686,1.686,0,0,1,1.647-2.327,3.36,3.36,0,0,1,3.006,2.327A1.685,1.685,0,0,1,1622.861,875.343Zm-1.233-4.226a1.378,1.378,0,0,0-1.346,1.9,2.748,2.748,0,0,0,2.457,1.9,1.378,1.378,0,0,0,1.346-1.9A2.747,2.747,0,0,0,1621.628,871.117Z" transform="translate(-1236.543 2527.079)" fill="#6d6d6d"/>
    <path id="Path_4773" data-name="Path 4773" d="M1626.141,879.329a.486.486,0,0,1-.261-.107l-1.3-1.046a.381.381,0,0,1-.135-.5.356.356,0,0,1,.5.01l.921.738.473-1.094c.069-.158.28-.193.471-.08a.429.429,0,0,1,.223.494l-.623,1.437a.248.248,0,0,1-.221.145A.124.124,0,0,1,1626.141,879.329Z" transform="translate(-1240.203 2521.953)" fill="#6d6d6d"/>
    <path id="Path_4774" data-name="Path 4774" d="M1717.81,875.343a3.36,3.36,0,0,1-3.006-2.327,1.686,1.686,0,0,1,1.647-2.327,3.361,3.361,0,0,1,3.006,2.327A1.686,1.686,0,0,1,1717.81,875.343Zm-1.235-4.226a1.378,1.378,0,0,0-1.346,1.9,2.748,2.748,0,0,0,2.457,1.9,1.378,1.378,0,0,0,1.346-1.9A2.748,2.748,0,0,0,1716.576,871.117Z" transform="translate(-1311.519 2527.079)" fill="#a1a1a1"/>
    <path id="Path_4775" data-name="Path 4775" d="M1724.032,877.385h0a.475.475,0,0,1-.425-.328l-.288-.989a.238.238,0,0,1,.233-.328h0a.475.475,0,0,1,.425.328l.288.989A.239.239,0,0,1,1724.032,877.385Z" transform="translate(-1318.308 2523.091)" fill="#a1a1a1"/>
    <path id="Path_4776" data-name="Path 4776" d="M1726.266,885.047h-.072a.423.423,0,0,1-.379-.294h0a.213.213,0,0,1,.208-.292h.071a.423.423,0,0,1,.379.292h0A.214.214,0,0,1,1726.266,885.047Z" transform="translate(-1320.281 2516.207)" fill="#a1a1a1"/>
    <path id="Path_4815" data-name="Path 4815" d="M567.491,1593.432H235.248c-.208,0-.378-.273-.378-.608v-.206c0-.334.17-.608.378-.608H567.492c.208,0,.378.273.378.608v.206C567.869,1593.159,567.7,1593.432,567.491,1593.432Z" transform="translate(-66.924 1957.501)" fill="#a1a1a1"/>
    <path id="Path_4816" data-name="Path 4816" d="M2303.638,1275.266c1.513,5.655,12.691,8.983,24.92,10.935h45.63c11-5.385,10.983-11.808,11.867-29.542,1.822-36.629-17.445-54.312-26.039-51.395-.357.122-.722.252-1.092.4-2.5,1-5.292,2.779-8.015,7,0,0-8.541,14.233-15.569,22.724-2.264,2.733-4.37,4.874-5.981,5.749a.5.5,0,0,1-.057.03c-.086.046-.168.086-.252.124a56.729,56.729,0,0,0-13.767,9.786h0C2307.845,1258.071,2301.5,1267.3,2303.638,1275.266Z" transform="translate(-1888.66 2263.132)" fill="#d6d6d6"/>
    <path id="Path_4817" data-name="Path 4817" d="M2360.56,1269.717c6.4,1.965,39.326,11.471,47.076,1.393,5.611-7.3,2.119-26-.982-38.1a5.722,5.722,0,0,0-10.386-1.832l-.082.126s-8.541,14.233-15.569,22.724c-2.034,2.682-4.039,4.75-5.98,5.75a.515.515,0,0,1-.057.029c-.084.046-.168.086-.253.124A56.717,56.717,0,0,0,2360.56,1269.717Z" transform="translate(-1933.938 2244.497)" fill="#c9c9c9"/>
    <path id="Path_4818" data-name="Path 4818" d="M2408.734,1204.57s-2.282,3.376-3.583,10.474c-1.14,6.216-2.139,8.511-3.785,9.786s-10.817,5.038-10.817,5.038l.686,1.607s13.443-1.83,14.953-4.077,7.266-15.521,6.82-18.578S2408.734,1204.57,2408.734,1204.57Z" transform="translate(-1957.619 2263.436)" fill="#f4a269"/>
    <path id="Path_4819" data-name="Path 4819" d="M2273.692,1522.2c.122,1.311-1.7,1.63-3.818,1.735s-1.474.539-4.371,1.062-4.058-.267-4.268-.658c-.187-.347,1.159-.89,2.6-1.5.181-.076.362-.156.543-.236,1.615-.711,2.522-2.158,3.78-3.5,1.193-1.273,2.325-5.345,2.325-5.345l3.936-.842s-1.1,3.667-1.49,5.232a4.84,4.84,0,0,0,.4,2.733A5.071,5.071,0,0,1,2273.692,1522.2Z" transform="translate(-1855.493 2019.959)" fill="#ffb27d"/>
    <path id="Path_4820" data-name="Path 4820" d="M2269.874,1553.829c-2.114.105-1.474.539-4.371,1.063s-4.058-.267-4.268-.658c-.187-.347,1.159-.89,2.6-1.5l.023.025a8.244,8.244,0,0,0,4.388.053c1.917-.52,3.77-1.666,5.089-2.036a5.151,5.151,0,0,1,.362,1.325C2273.814,1553.406,2271.988,1553.724,2269.874,1553.829Z" transform="translate(-1855.493 1990.064)"/>
    <path id="Path_4821" data-name="Path 4821" d="M2342.066,1324.1s-26.159-1.969-31.084,1.14-12.822,39.311-12.822,39.311a3.211,3.211,0,0,0,1.576.509,13.232,13.232,0,0,0,3.242-.486s11.352-16.2,12.151-20.28.6-7.722,2.426-7.819,24.516,2.76,27.95-3.288a13.936,13.936,0,0,0,.595-12.035Z" transform="translate(-1884.665 2171.379)" fill="#292929"/>
    <path id="Path_4822" data-name="Path 4822" d="M2321.272,1542.17c.122,1.311-1.7,1.63-3.818,1.736s-1.475.539-4.372,1.062-4.058-.267-4.268-.658c-.187-.347,1.159-.89,2.6-1.5.181-.076.362-.156.543-.235,1.615-.711,2.522-2.158,3.78-3.5,1.193-1.273,2.326-5.345,2.326-5.345l3.936-.841s-1.1,3.667-1.489,5.232a4.843,4.843,0,0,0,.4,2.733A5.062,5.062,0,0,1,2321.272,1542.17Z" transform="translate(-1893.064 2004.191)" fill="#ffb27d"/>
    <path id="Path_4823" data-name="Path 4823" d="M2317.464,1573.809c-2.114.105-1.475.538-4.372,1.062s-4.058-.267-4.268-.658c-.187-.347,1.159-.89,2.6-1.5l.023.025a8.246,8.246,0,0,0,4.388.053c1.917-.52,3.77-1.666,5.089-2.036a5.141,5.141,0,0,1,.362,1.325C2321.4,1573.384,2319.576,1573.7,2317.464,1573.809Z" transform="translate(-1893.072 1974.288)"/>
    <path id="Path_4824" data-name="Path 4824" d="M2383.622,1342.87s-23.237,1.1-28.038,4.4-11.284,39.781-11.284,39.781a3.2,3.2,0,0,0,1.594.446,13.239,13.239,0,0,0,3.221-.612s10.712-16.627,11.352-20.736.3-7.739,2.118-7.908,24.6,1.8,27.8-4.373S2383.622,1342.87,2383.622,1342.87Z" transform="translate(-1921.099 2154.229)" fill="#363636"/>
    <path id="Path_4825" data-name="Path 4825" d="M2482.348,1114.586a14.119,14.119,0,0,1-1.38-4.788,14.966,14.966,0,0,0,2.094,5.255c5.383,3.042,16.019,13.689,15.967,15.843,0,0,3.088-6.136,3.145-6.176,0,0,5.878-8.6-2.045-12.765-4.026-2.12-4.212-5.173-4.226-7.834s-1.992-13.991-9.542-10.489a5.067,5.067,0,0,0-1.832-.349,1.533,1.533,0,0,1,.709.28,6.027,6.027,0,0,0-3.212.839C2479.292,1096.2,2477.714,1110.856,2482.348,1114.586Z" transform="translate(-2027.781 2351.562)"/>
    <path id="Path_4826" data-name="Path 4826" d="M2500.818,1185.746a26.086,26.086,0,0,0-4.327,0,13.85,13.85,0,0,0-3.755.942c-2.049.856-1.833,4.483,2.463,3.81S2501.119,1186.821,2500.818,1185.746Z" transform="translate(-2037.317 2278.372)" fill="#ffb27d"/>
    <path id="Path_4827" data-name="Path 4827" d="M2497.716,1168.417c-.025.013-.612,3.12,2.2,3,1.847-.082,5.831-2.316,5.48-3.9a19.6,19.6,0,0,1-1.845-7.155l-.337.09-5.655,1.517s.25,1.794.368,3.492C2498.029,1166.883,2498.033,1168.242,2497.716,1168.417Z" transform="translate(-2042.118 2298.344)" fill="#ffb27d"/>
    <path id="Path_4828" data-name="Path 4828" d="M2497.57,1162.3s.25,1.795.368,3.492c3.2-.305,4.7-3.343,5.286-5.009Z" transform="translate(-2042.126 2298.013)" fill="#f4a269"/>
    <path id="Path_4829" data-name="Path 4829" d="M2488.105,1114.221a16.832,16.832,0,0,0,1.754-5.063c.181-1.641-1.045-7.592-7.026-6.326a8.228,8.228,0,0,0-3.316,1.512c-1.252.972-3.017,3.01-.551,8.112l.667,1.733Z" transform="translate(-2026.457 2343.909)"/>
    <path id="Path_4830" data-name="Path 4830" d="M2481.292,1127.1s7.594-.381,7.285-5.106.461-7.958-4.4-7.914-5.684,1.908-5.964,3.511S2479.309,1127.077,2481.292,1127.1Z" transform="translate(-2026.811 2334.891)" fill="#ffb27d"/>
    <path id="Path_4831" data-name="Path 4831" d="M2490.24,1110.518s2.446,5.4,5.688,6.012,4.567-.338,4.567-.338a9.042,9.042,0,0,1-3.307-5.135S2491.63,1107.777,2490.24,1110.518Z" transform="translate(-2036.338 2338.565)"/>
    <path id="Path_4832" data-name="Path 4832" d="M2479.064,1113.531a6.731,6.731,0,0,0-1.767,2.568c-.3,1.229-.3,3.717-1.031,3.681,0,0-1.816-3.665-.2-5.913C2477.781,1111.484,2479.064,1113.531,2479.064,1113.531Z" transform="translate(-2024.618 2335.968)"/>
    <path id="Path_4833" data-name="Path 4833" d="M2456.32,1217.845c.614.734,2.533.961,4.584,1.3a13.765,13.765,0,0,1,4.514,1.308c2.737,1.607,11.682,7.039,14.3,6.793,1.016-.1.827-2.036.21-4.611-.97-4.066-3-9.71-3-12.165a71.243,71.243,0,0,0-1.042-8.135c-.048-.292-.1-.587-.147-.884-1.178-7.047-2.808-15.359-2.808-15.359s-1.82,3.97-5.365,3.97-2.72-3.027-2.72-3.027-3.233.381-4,1.2a31.6,31.6,0,0,0-3.086,5.35s-.078,1.235,2.979,1.822a40.1,40.1,0,0,0-.833,5.585c-.065,1.649,1.125,6.814,1.468,10.028a5.972,5.972,0,0,1-.046,2.436,4.72,4.72,0,0,1-1.873,1.542C2457.738,1216,2455.59,1216.972,2456.32,1217.845Z" transform="translate(-2009.438 2278.027)"/>
    <path id="Path_4834" data-name="Path 4834" d="M2470.567,1264.585c-1.962,3.345,5.32,4.35,6.526,5.057,2.737,1.607,11.109,7.434,13.73,7.188,1.016-.1.827-2.036.211-4.611-.97-4.066-3-9.711-3-12.166a71.291,71.291,0,0,0-1.041-8.135l-3.155-3.029s-3.381,8.739-6.6,10.171a27.241,27.241,0,0,1-4.75,1.546,5.958,5.958,0,0,1-.046,2.436A4.715,4.715,0,0,1,2470.567,1264.585Z" transform="translate(-2020.54 2228.438)" fill="#414141"/>
    <path id="Path_4835" data-name="Path 4835" d="M2476.259,1196.9s2.7-1.639,5.305,1.471-1.854,25.326-5.72,26.466c-4.294,1.269-16.695-.2-16.695-.2l.24-1.937s13.2-2.531,13.752-3.238S2474.887,1197.26,2476.259,1196.9Z" transform="translate(-2011.788 2269.833)" fill="#ffb27d"/>
    <path id="Path_4836" data-name="Path 4836" d="M2530.129,1186.09s5.541.5,7.15,2.323,2.078,6.761,2.078,6.761-4.878,3.938-10.758,2.411Z" transform="translate(-2066.628 2278.027)" fill="#7b7b7b"/>
    <rect id="Rectangle_277" data-name="Rectangle 277" width="7.319" height="0.865" transform="translate(446.068 3496.369) rotate(180)" fill="#d4d4d4"/>
    <path id="Path_4837" data-name="Path 4837" d="M2344.748,1298.537c-.072-.286-6.728-10.737-6.728-10.737h-14.81l7.428,10.457Z" transform="translate(-1904.445 2197.713)" fill="#9b9b9b"/>
    <path id="Path_4838" data-name="Path 4838" d="M2344.132,1298.647c-.072-.286-6.749-10.857-6.749-10.857H2323.22l7.066,10.857Z" transform="translate(-1904.453 2197.721)" fill="#d4d4d4"/>
    <path id="Path_4839" data-name="Path 4839" d="M2363.1,1310.888a1.182,1.182,0,0,0,1.031.766.528.528,0,0,0,.5-.766,1.186,1.186,0,0,0-1.031-.768A.529.529,0,0,0,2363.1,1310.888Z" transform="translate(-1935.912 2180.089)" fill="#646464"/>
    <path id="Path_4840" data-name="Path 4840" d="M2436.45,1318.129s-4.3-.833-4.784-.625-3.189,2.636-2.911,3.12a2.368,2.368,0,0,0,2.634.417c1.248-.417,3.953-.625,4.437-1.248A4.075,4.075,0,0,0,2436.45,1318.129Z" transform="translate(-1987.771 2174.284)" fill="#ffb27d"/>
    <path id="Path_4841" data-name="Path 4841" d="M1483.021,620.409H1347.747L1337.38,586.46h135.274Z" transform="translate(-1013.569 2751.518)" fill="#fafdff"/>
    <path id="Path_4842" data-name="Path 4842" d="M1510.326,628.838l1.239,4.06a2.326,2.326,0,0,1-2.257,3.248H1397.237A4.787,4.787,0,0,1,1393,632.9l-1.239-4.06a2.327,2.327,0,0,1,2.257-3.248h112.071A4.782,4.782,0,0,1,1510.326,628.838Z" transform="translate(-1056.391 2720.619)" fill="#ccc"/>
    <path id="Path_4843" data-name="Path 4843" d="M1842.2,643.078h-1.719l-.162-.528h2.4l.139.454-.637,2.966h-.675Z" transform="translate(-1410.707 2707.226)"/>
    <path id="Path_4844" data-name="Path 4844" d="M1855.841,644.039c-.3-.976.057-1.769.955-1.769a2.337,2.337,0,0,1,2.026,1.769c.3.976-.057,1.769-.955,1.769A2.332,2.332,0,0,1,1855.841,644.039Zm2.36,0c-.206-.673-.721-1.226-1.25-1.226s-.7.536-.49,1.226c.206.673.715,1.226,1.25,1.226S1858.409,644.723,1858.2,644.039Z" transform="translate(-1422.881 2707.448)"/>
    <path id="Path_4845" data-name="Path 4845" d="M1871.408,643.235c-.145-.473.061-.875.543-.875a1.2,1.2,0,0,1,1.069.875c.145.473-.061.875-.543.875A1.2,1.2,0,0,1,1871.408,643.235ZM1874,642.4h.484l-1.458,3.421h-.484Zm-1.416.835a.654.654,0,0,0-.528-.5c-.229,0-.3.225-.215.5a.648.648,0,0,0,.528.5C1872.6,643.734,1872.669,643.509,1872.584,643.235Zm1.424,1.75c-.145-.473.061-.875.545-.875a1.2,1.2,0,0,1,1.069.875c.145.473-.061.875-.543.875A1.205,1.205,0,0,1,1874.009,644.985Zm1.176,0a.653.653,0,0,0-.528-.5c-.229,0-.3.225-.215.5a.646.646,0,0,0,.528.5C1875.2,645.484,1875.269,645.259,1875.185,644.985Z" transform="translate(-1435.22 2707.375)"/>
    <path id="Path_4846" data-name="Path 4846" d="M1469.813,625.59l3.225,10.558h-75.78a4.771,4.771,0,0,1-3.858-2.386,4,4,0,0,1-.383-.865l-1.239-4.06a2.327,2.327,0,0,1,2.257-3.248Z" transform="translate(-1056.406 2720.619)" fill="#cbcbcb"/>
    <path id="Path_4847" data-name="Path 4847" d="M1414.068,625.59l-3.2,10.558h-6.995a4.771,4.771,0,0,1-3.858-2.386l2.472-8.173Z" transform="translate(-1063.031 2720.619)"/>
    <path id="Path_4848" data-name="Path 4848" d="M1505.648,625.59l-3.2,10.556H1490.88l3.2-10.556Z" transform="translate(-1134.777 2720.619)"/>
    <path id="Path_4849" data-name="Path 4849" d="M1599.92,625.59l-3.193,10.556H1585.15l3.2-10.556Z" transform="translate(-1209.216 2720.619)"/>
    <path id="Path_4850" data-name="Path 4850" d="M1694.21,625.59l-3.2,10.556H1679.44l3.194-10.556Z" transform="translate(-1283.671 2720.619)"/>
    <path id="Path_4851" data-name="Path 4851" d="M1438.5,700.265h-20.239l-.427-1.395h20.241Z" transform="translate(-1077.095 2662.754)" fill="#ccc"/>
    <path id="Path_4852" data-name="Path 4852" d="M1438.634,718.825h-14.707l-.427-1.395h14.707Z" transform="translate(-1081.573 2648.098)" fill="#ccc"/>
    <path id="Path_4853" data-name="Path 4853" d="M1506.938,718.825h-8.791l-.427-1.395h8.791Z" transform="translate(-1140.179 2648.098)" fill="#ccc"/>
    <path id="Path_4854" data-name="Path 4854" d="M1560.595,718.825h-13.43l-.425-1.395h13.428Z" transform="translate(-1178.887 2648.098)" fill="#ccc"/>
    <path id="Path_4855" data-name="Path 4855" d="M1527.835,700.265h-6.128l-.427-1.395h6.13Z" transform="translate(-1158.783 2662.754)" fill="#ccc"/>
    <path id="Path_4856" data-name="Path 4856" d="M1583.091,700.265h-22.284l-.427-1.395h22.286Z" transform="translate(-1189.657 2662.754)" fill="#ccc"/>
    <path id="Path_4857" data-name="Path 4857" d="M749.014,809.6H653.853L639.06,761.16h95.164Z" transform="translate(-434.044 2613.568)" fill="#f6f6f6"/>
    <path id="Path_4858" data-name="Path 4858" d="M762.408,799.014H679.316L673.03,778.43h83.091Z" transform="translate(-460.868 2599.932)" fill="#dbdbdb"/>
    <path id="Path_4859" data-name="Path 4859" d="M713.77,794.188H699.694l-.335-1.1h14.074Z" transform="translate(-481.658 2588.356)" fill="#a4a4a4"/>
    <path id="Path_4860" data-name="Path 4860" d="M794.221,794.188h-11.7l-.337-1.1h11.707Z" transform="translate(-547.056 2588.356)" fill="#a4a4a4"/>
    <path id="Path_4861" data-name="Path 4861" d="M876.861,794.188h-24.2l-.334-1.1h24.194Z" transform="translate(-602.449 2588.356)" fill="#a4a4a4"/>
    <path id="Path_4862" data-name="Path 4862" d="M719.48,812.9H705.4l-.334-1.1h14.076Z" transform="translate(-486.168 2573.583)" fill="#a4a4a4"/>
    <path id="Path_4863" data-name="Path 4863" d="M799.941,812.9H788.234l-.335-1.1h11.7Z" transform="translate(-551.573 2573.583)" fill="#a4a4a4"/>
    <path id="Path_4864" data-name="Path 4864" d="M865.651,812.9h-11.7l-.337-1.1h11.707Z" transform="translate(-603.46 2573.583)" fill="#a4a4a4"/>
    <path id="Path_4865" data-name="Path 4865" d="M950.649,815.07H926.454l-.334-1.1h24.194Z" transform="translate(-660.716 2571.87)" fill="#a4a4a4"/>
    <path id="Path_4866" data-name="Path 4866" d="M726.72,836.608H712.644l-.334-1.1h14.076Z" transform="translate(-491.884 2554.86)" fill="#a4a4a4"/>
    <path id="Path_4867" data-name="Path 4867" d="M807.181,836.608H795.474l-.334-1.1h11.7Z" transform="translate(-557.29 2554.86)" fill="#a4a4a4"/>
    <path id="Path_4868" data-name="Path 4868" d="M889.811,836.608H865.617l-.337-1.1h24.194Z" transform="translate(-612.675 2554.86)" fill="#a4a4a4"/>
    <path id="Path_4869" data-name="Path 4869" d="M732.43,855.318H718.357l-.337-1.1H732.1Z" transform="translate(-496.393 2540.086)" fill="#a4a4a4"/>
    <path id="Path_4870" data-name="Path 4870" d="M812.891,855.318H801.184l-.334-1.1h11.707Z" transform="translate(-561.798 2540.086)" fill="#a4a4a4"/>
    <path id="Path_4871" data-name="Path 4871" d="M878.611,855.318H866.9l-.334-1.1h11.7Z" transform="translate(-613.693 2540.086)" fill="#a4a4a4"/>
    <path id="Path_4872" data-name="Path 4872" d="M963.6,857.5H939.4l-.334-1.1h24.194Z" transform="translate(-670.942 2538.364)" fill="#a4a4a4"/>
    <path id="Path_4873" data-name="Path 4873" d="M938.1,913.446a8.6,8.6,0,0,1-7.636-5.848c-.984-3.225.837-5.848,4.062-5.848a8.6,8.6,0,0,1,7.636,5.848C943.15,910.823,941.328,913.446,938.1,913.446Zm-3.246-10.63c-2.636,0-4.125,2.144-3.322,4.782a7.028,7.028,0,0,0,6.241,4.782c2.636,0,4.125-2.144,3.322-4.782A7.029,7.029,0,0,0,934.857,902.817Z" transform="translate(-663.938 2502.554)"/>
    <path id="Path_4874" data-name="Path 4874" d="M946.314,923.471a1.237,1.237,0,0,1-.661-.271l-3.318-2.627a.968.968,0,0,1-.356-1.258.894.894,0,0,1,1.266.027l2.343,1.858,1.153-2.747c.166-.4.7-.486,1.182-.2a1.1,1.1,0,0,1,.579,1.243l-1.515,3.612a.614.614,0,0,1-.549.366C946.4,923.475,946.358,923.475,946.314,923.471Z" transform="translate(-673.146 2489.656)"/>
    <path id="Path_4875" data-name="Path 4875" d="M858.543,913.446a8.6,8.6,0,0,1-7.636-5.848c-.985-3.225.837-5.848,4.062-5.848a8.6,8.6,0,0,1,7.636,5.848C863.59,910.823,861.768,913.446,858.543,913.446Zm-3.246-10.63c-2.636,0-4.125,2.144-3.322,4.782a7.029,7.029,0,0,0,6.242,4.782c2.636,0,4.125-2.144,3.322-4.782A7.029,7.029,0,0,0,855.3,902.817Z" transform="translate(-601.115 2502.554)"/>
    <path id="Path_4876" data-name="Path 4876" d="M866.764,923.471a1.237,1.237,0,0,1-.661-.271l-3.318-2.627a.968.968,0,0,1-.355-1.258.894.894,0,0,1,1.266.027l2.344,1.858,1.153-2.747c.166-.4.7-.486,1.182-.2a1.1,1.1,0,0,1,.578,1.243l-1.515,3.612a.614.614,0,0,1-.549.366C866.848,923.475,866.806,923.475,866.764,923.471Z" transform="translate(-610.33 2489.656)"/>
    <path id="Path_4877" data-name="Path 4877" d="M776.141,913.446a8.593,8.593,0,0,1-7.634-5.848c-.984-3.225.837-5.848,4.062-5.848A8.593,8.593,0,0,1,780.2,907.6C781.19,910.823,779.366,913.446,776.141,913.446Zm-3.246-10.63c-2.636,0-4.125,2.144-3.322,4.782a7.026,7.026,0,0,0,6.242,4.782c2.636,0,4.125-2.144,3.322-4.782A7.028,7.028,0,0,0,772.9,902.817Z" transform="translate(-536.049 2502.554)"/>
    <path id="Path_4878" data-name="Path 4878" d="M784.354,923.471a1.237,1.237,0,0,1-.661-.271l-3.318-2.627a.968.968,0,0,1-.355-1.258.894.894,0,0,1,1.266.027l2.344,1.858,1.153-2.747c.166-.4.7-.486,1.182-.2a1.1,1.1,0,0,1,.578,1.243l-1.515,3.612a.614.614,0,0,1-.549.366C784.438,923.475,784.4,923.475,784.354,923.471Z" transform="translate(-545.256 2489.656)"/>
    <path id="Path_4879" data-name="Path 4879" d="M1014.861,913.446a8.593,8.593,0,0,1-7.634-5.848c-.985-3.225.837-5.848,4.062-5.848a8.593,8.593,0,0,1,7.634,5.848C1019.91,910.823,1018.086,913.446,1014.861,913.446Zm-3.246-10.63c-2.636,0-4.125,2.144-3.322,4.782a7.026,7.026,0,0,0,6.242,4.782c2.638,0,4.125-2.144,3.322-4.782A7.029,7.029,0,0,0,1011.615,902.817Z" transform="translate(-724.55 2502.554)" fill="#bebebe"/>
    <path id="Path_4880" data-name="Path 4880" d="M1030.378,918.568h0a1.218,1.218,0,0,1-1.079-.827l-.76-2.484a.592.592,0,0,1,.574-.827h0a1.218,1.218,0,0,1,1.079.827l.76,2.484A.592.592,0,0,1,1030.378,918.568Z" transform="translate(-741.56 2492.542)" fill="#bebebe"/>
    <path id="Path_4881" data-name="Path 4881" d="M1036.266,937.827h-.179a1.087,1.087,0,0,1-.963-.738h0a.529.529,0,0,1,.513-.739h.179a1.087,1.087,0,0,1,.963.739h0A.53.53,0,0,1,1036.266,937.827Z" transform="translate(-746.763 2475.233)" fill="#bebebe"/>
    <path id="Path_4882" data-name="Path 4882" d="M2125.53,945.56s12.038,12.479,12.605,17.176-5.766,12.029-5.766,12.029Z" transform="translate(-1748.35 2467.958)" fill="#434343"/>
    <path id="Path_4883" data-name="Path 4883" d="M2038.578,1552.327s-.425,6.62-1.706,6.711c-.17.013-6.5,0-6.5,0l-8.076-.065a2.62,2.62,0,0,1,2.419-2.352c2.363-.406,6.315-2.057,7.752-5.173C2033.984,1548.168,2038.578,1552.327,2038.578,1552.327Z" transform="translate(-1666.837 1990.527)"/>
    <path id="Path_4884" data-name="Path 4884" d="M2124.078,1552.51s-.425,6.62-1.706,6.711c-.17.013-6.5,0-6.5,0l-8.076-.065a2.62,2.62,0,0,1,2.419-2.352c2.363-.406,6.315-2.057,7.752-5.173C2119.484,1548.353,2124.078,1552.51,2124.078,1552.51Z" transform="translate(-1734.35 1990.381)"/>
    <path id="Path_4885" data-name="Path 4885" d="M2057.9,1184.232s2.083,13.512,9.911,37.508,8.877,34.382,8.877,34.382l8.453-.219s.128-26.205-3.475-38.272-.69-43.472-.69-43.472Z" transform="translate(-1694.947 2287.449)" fill="#c9c9c9"/>
    <path id="Path_4886" data-name="Path 4886" d="M2038.415,1177.4a327.914,327.914,0,0,0,3.124,45.355c3.467,25,2.251,35.607,2.251,35.607l8.433.3s5.1-24.991,3.677-37.5,7-42.911,7-42.911Z" transform="translate(-1679.554 2284.891)" fill="#d6d6d6"/>
    <path id="Path_4887" data-name="Path 4887" d="M2075.3,913.364l-4.5,2.937-6.492-1.224c.09-.524.524-2.7.919-4.664.023-.116.048-.231.069-.345.339-1.674.631-3.111.631-3.111l6.071-2.663,2.264-.993c-.006.036-.179,1.858-.2,2.125A15.454,15.454,0,0,0,2075.3,913.364Z" transform="translate(-1700.009 2501.33)" fill="#ffb27d"/>
    <path id="Path_4888" data-name="Path 4888" d="M2062.472,936.261c.126-.053,7.825-2.308,8.663-2.03s1.327,1.9,1.327,1.9l-12.592,2.819A6.235,6.235,0,0,1,2062.472,936.261Z" transform="translate(-1696.503 2476.924)" fill="#c5c5c5"/>
    <path id="Path_4889" data-name="Path 4889" d="M2060.726,994.9c-1.317,5.947-23.027,6.605-28.612,1.193-.635-.616-.661-3.482-.412-7.344.486-7.546,2.019-18.893,2.089-24.691a45.887,45.887,0,0,1,.945-8.263,67.117,67.117,0,0,1,2.775-9.887s10.611-3.406,12.593-2.817C2059.655,945.92,2062.042,988.955,2060.726,994.9Z" transform="translate(-1674.145 2469.962)"/>
    <path id="Path_4890" data-name="Path 4890" d="M2032.25,1032.527c.486-7.546,2.019-18.893,2.089-24.691a45.886,45.886,0,0,1,.945-8.263l6.38-1.113S2047.844,1023.944,2032.25,1032.527Z" transform="translate(-1674.694 2426.188)" fill="#7b7b7b"/>
    <path id="Path_4891" data-name="Path 4891" d="M2041.93,1106.715a1.5,1.5,0,0,1-.482,1.736,2.912,2.912,0,0,0-1.3,2.651c.206.827,2.207,2.179,2.9,1.963s2.11-1.3,1.958-1.738.959-3.822-.73-5.131A1.367,1.367,0,0,0,2041.93,1106.715Z" transform="translate(-1680.896 2341.488)" fill="#ffb27d"/>
    <path id="Path_4892" data-name="Path 4892" d="M2012.9,949.53s-6.223,1.151-11.2,8.444-8.246,12.717-7.337,15.353,9.21,11.783,10.645,11.787,3.753-1.035,3.887-3.383c0,0-5.84-8.8-4.683-10.108.494-.562,7.622-6.322,8.631-3.711C2014.513,972.233,2012.9,949.53,2012.9,949.53Z" transform="translate(-1644.656 2464.824)" fill="#434343"/>
    <path id="Path_4893" data-name="Path 4893" d="M2077.047,909.229c-1.336,2.253-6.3,4.195-8.377,4.908.023-.116.048-.231.069-.345.339-1.675.631-3.111.631-3.111l6.071-2.663C2076.784,908,2077.6,908.3,2077.047,909.229Z" transform="translate(-1703.452 2497.604)" fill="#fca56b"/>
    <path id="Path_4894" data-name="Path 4894" d="M2056.579,858.562s9.765,3.069,11.583-3.042,4.3-9.83-1.855-12.048-8.067-.248-9.171,1.643S2054.086,857.607,2056.579,858.562Z" transform="translate(-1692.947 2549.347)" fill="#ffb27d"/>
    <path id="Path_4895" data-name="Path 4895" d="M2062.181,832s.608,7.117,2.081,6.812,2.806-.532,2.587,1.614-2.266,4.618,2.268,5.007,11.078-11.292,9.839-13.51C2075.373,825.53,2057,824.2,2062.181,832Z" transform="translate(-1697.607 2561.872)"/>
    <path id="Path_4896" data-name="Path 4896" d="M1100.76,595.343V593.61h1.786v1.733Z" transform="translate(-826.725 2745.872)" fill="#f5f5f5"/>
    <path id="Path_4897" data-name="Path 4897" d="M1100.76,578.673V576.94h1.786v1.734Z" transform="translate(-826.725 2759.033)" fill="#f5f5f5"/>
    <path id="Path_4898" data-name="Path 4898" d="M1100.76,562V560.27h1.786V562Z" transform="translate(-826.725 2772.197)" fill="#f5f5f5"/>
    <path id="Path_4899" data-name="Path 4899" d="M1100.76,545.333V543.6h1.786v1.734Z" transform="translate(-826.725 2785.361)" fill="#f5f5f5"/>
    <path id="Path_4900" data-name="Path 4900" d="M1100.76,528.673V526.94h1.786v1.734Z" transform="translate(-826.725 2798.515)" fill="#f5f5f5"/>
    <path id="Path_4901" data-name="Path 4901" d="M1100.76,512V510.27h1.786V512Z" transform="translate(-826.725 2811.679)" fill="#f5f5f5"/>
    <path id="Path_4902" data-name="Path 4902" d="M1100.76,495.333V493.6h1.786v1.733Z" transform="translate(-826.725 2824.843)" fill="#f5f5f5"/>
    <path id="Path_4903" data-name="Path 4903" d="M1100.76,478.663V476.93h1.786v1.733Z" transform="translate(-826.725 2838.004)" fill="#f5f5f5"/>
    <path id="Path_4904" data-name="Path 4904" d="M1100.76,461.993V460.26h1.786v1.733Z" transform="translate(-826.725 2851.168)" fill="#f5f5f5"/>
    <path id="Path_4905" data-name="Path 4905" d="M1100.76,445.323V443.59h1.786v1.733Z" transform="translate(-826.725 2864.332)" fill="#f5f5f5"/>
    <path id="Path_4906" data-name="Path 4906" d="M1100.76,428.663V426.93h1.786v1.733Z" transform="translate(-826.725 2877.486)" fill="#f5f5f5"/>
    <path id="Path_4907" data-name="Path 4907" d="M1100.76,411.993V410.26h1.786v1.733Z" transform="translate(-826.725 2890.65)" fill="#f5f5f5"/>
    <path id="Path_4908" data-name="Path 4908" d="M1100.76,395.323V393.59h1.786v1.733Z" transform="translate(-826.725 2903.814)" fill="#f5f5f5"/>
    <path id="Path_4909" data-name="Path 4909" d="M1100.76,378.653V376.92h1.786v1.733Z" transform="translate(-826.725 2916.975)" fill="#f5f5f5"/>
    <path id="Path_4910" data-name="Path 4910" d="M1100.76,361.983V360.25h1.786v1.733Z" transform="translate(-826.725 2930.139)" fill="#f5f5f5"/>
    <path id="Path_4911" data-name="Path 4911" d="M1100.76,345.323V343.59h1.786v1.733Z" transform="translate(-826.725 2943.293)" fill="#f5f5f5"/>
    <path id="Path_4912" data-name="Path 4912" d="M1100.76,328.653V326.92h1.786v1.733Z" transform="translate(-826.725 2956.457)" fill="#f5f5f5"/>
    <path id="Path_4913" data-name="Path 4913" d="M1100.76,311.983V310.25h1.786v1.733Z" transform="translate(-826.725 2969.621)" fill="#f5f5f5"/>
    <path id="Path_4914" data-name="Path 4914" d="M1074.81,495.333V493.6h1.786v1.733Z" transform="translate(-806.235 2824.843)" fill="#f5f5f5"/>
    <path id="Path_4915" data-name="Path 4915" d="M1074.81,478.663V476.93h1.786v1.733Z" transform="translate(-806.235 2838.004)" fill="#f5f5f5"/>
    <path id="Path_4916" data-name="Path 4916" d="M1074.81,461.993V460.26h1.786v1.733Z" transform="translate(-806.235 2851.168)" fill="#f5f5f5"/>
    <path id="Path_4917" data-name="Path 4917" d="M1074.81,445.323V443.59h1.786v1.733Z" transform="translate(-806.235 2864.332)" fill="#f5f5f5"/>
    <path id="Path_4918" data-name="Path 4918" d="M1074.81,428.663V426.93h1.786v1.733Z" transform="translate(-806.235 2877.486)" fill="#f5f5f5"/>
    <path id="Path_4919" data-name="Path 4919" d="M1074.81,411.993V410.26h1.786v1.733Z" transform="translate(-806.235 2890.65)" fill="#f5f5f5"/>
    <path id="Path_4920" data-name="Path 4920" d="M1074.81,395.323V393.59h1.786v1.733Z" transform="translate(-806.235 2903.814)" fill="#f5f5f5"/>
    <path id="Path_4921" data-name="Path 4921" d="M1074.81,378.653V376.92h1.786v1.733Z" transform="translate(-806.235 2916.975)" fill="#f5f5f5"/>
    <path id="Path_4922" data-name="Path 4922" d="M1074.81,361.983V360.25h1.786v1.733Z" transform="translate(-806.235 2930.139)" fill="#f5f5f5"/>
    <path id="Path_4923" data-name="Path 4923" d="M1074.81,345.323V343.59h1.786v1.733Z" transform="translate(-806.235 2943.293)" fill="#f5f5f5"/>
    <path id="Path_4924" data-name="Path 4924" d="M1074.81,328.653V326.92h1.786v1.733Z" transform="translate(-806.235 2956.457)" fill="#f5f5f5"/>
    <path id="Path_4925" data-name="Path 4925" d="M1074.81,311.983V310.25h1.786v1.733Z" transform="translate(-806.235 2969.621)" fill="#f5f5f5"/>
    <path id="Path_4926" data-name="Path 4926" d="M1048.37,595.343V593.61h1.786v1.733Z" transform="translate(-785.357 2745.872)" fill="#f5f5f5"/>
    <path id="Path_4927" data-name="Path 4927" d="M1048.37,578.673V576.94h1.786v1.734Z" transform="translate(-785.357 2759.033)" fill="#f5f5f5"/>
    <path id="Path_4928" data-name="Path 4928" d="M1048.37,562V560.27h1.786V562Z" transform="translate(-785.357 2772.197)" fill="#f5f5f5"/>
    <path id="Path_4929" data-name="Path 4929" d="M1048.37,545.333V543.6h1.786v1.734Z" transform="translate(-785.357 2785.361)" fill="#f5f5f5"/>
    <path id="Path_4930" data-name="Path 4930" d="M1048.37,528.673V526.94h1.786v1.734Z" transform="translate(-785.357 2798.515)" fill="#f5f5f5"/>
    <path id="Path_4931" data-name="Path 4931" d="M1048.37,512V510.27h1.786V512Z" transform="translate(-785.357 2811.679)" fill="#f5f5f5"/>
    <path id="Path_4932" data-name="Path 4932" d="M1048.37,495.333V493.6h1.786v1.733Z" transform="translate(-785.357 2824.843)" fill="#f5f5f5"/>
    <path id="Path_4933" data-name="Path 4933" d="M1048.37,478.663V476.93h1.786v1.733Z" transform="translate(-785.357 2838.004)" fill="#f5f5f5"/>
    <path id="Path_4934" data-name="Path 4934" d="M1048.37,461.993V460.26h1.786v1.733Z" transform="translate(-785.357 2851.168)" fill="#f5f5f5"/>
    <path id="Path_4935" data-name="Path 4935" d="M1048.37,445.323V443.59h1.786v1.733Z" transform="translate(-785.357 2864.332)" fill="#f5f5f5"/>
    <path id="Path_4936" data-name="Path 4936" d="M1048.37,428.663V426.93h1.786v1.733Z" transform="translate(-785.357 2877.486)" fill="#f5f5f5"/>
    <path id="Path_4937" data-name="Path 4937" d="M1048.37,411.993V410.26h1.786v1.733Z" transform="translate(-785.357 2890.65)" fill="#f5f5f5"/>
    <path id="Path_4938" data-name="Path 4938" d="M1048.37,395.323V393.59h1.786v1.733Z" transform="translate(-785.357 2903.814)" fill="#f5f5f5"/>
    <path id="Path_4939" data-name="Path 4939" d="M1048.37,378.653V376.92h1.786v1.733Z" transform="translate(-785.357 2916.975)" fill="#f5f5f5"/>
    <path id="Path_4940" data-name="Path 4940" d="M1048.37,361.983V360.25h1.786v1.733Z" transform="translate(-785.357 2930.139)" fill="#f5f5f5"/>
    <path id="Path_4941" data-name="Path 4941" d="M1048.37,345.323V343.59h1.786v1.733Z" transform="translate(-785.357 2943.293)" fill="#f5f5f5"/>
    <path id="Path_4942" data-name="Path 4942" d="M1048.37,328.653V326.92h1.786v1.733Z" transform="translate(-785.357 2956.457)" fill="#f5f5f5"/>
    <path id="Path_4943" data-name="Path 4943" d="M1048.37,311.983V310.25h1.786v1.733Z" transform="translate(-785.357 2969.621)" fill="#f5f5f5"/>
    <path id="Path_4944" data-name="Path 4944" d="M1026.1,628.673V626.94h1.786v1.733Z" transform="translate(-767.772 2719.551)" fill="#f5f5f5"/>
    <path id="Path_4945" data-name="Path 4945" d="M1026.1,612.013V610.28h1.786v1.733Z" transform="translate(-767.772 2732.708)" fill="#f5f5f5"/>
    <path id="Path_4946" data-name="Path 4946" d="M1026.1,595.343V593.61h1.786v1.733Z" transform="translate(-767.772 2745.872)" fill="#f5f5f5"/>
    <path id="Path_4947" data-name="Path 4947" d="M1026.1,578.673V576.94h1.786v1.734Z" transform="translate(-767.772 2759.033)" fill="#f5f5f5"/>
    <path id="Path_4948" data-name="Path 4948" d="M1026.1,562V560.27h1.786V562Z" transform="translate(-767.772 2772.197)" fill="#f5f5f5"/>
    <path id="Path_4949" data-name="Path 4949" d="M1026.1,545.333V543.6h1.786v1.734Z" transform="translate(-767.772 2785.361)" fill="#f5f5f5"/>
    <path id="Path_4950" data-name="Path 4950" d="M1026.1,528.673V526.94h1.786v1.734Z" transform="translate(-767.772 2798.515)" fill="#f5f5f5"/>
    <path id="Path_4951" data-name="Path 4951" d="M1026.1,512V510.27h1.786V512Z" transform="translate(-767.772 2811.679)" fill="#f5f5f5"/>
    <path id="Path_4952" data-name="Path 4952" d="M1026.1,495.333V493.6h1.786v1.733Z" transform="translate(-767.772 2824.843)" fill="#f5f5f5"/>
    <path id="Path_4953" data-name="Path 4953" d="M1026.1,478.663V476.93h1.786v1.733Z" transform="translate(-767.772 2838.004)" fill="#f5f5f5"/>
    <path id="Path_4954" data-name="Path 4954" d="M1026.1,461.993V460.26h1.786v1.733Z" transform="translate(-767.772 2851.168)" fill="#f5f5f5"/>
    <path id="Path_4955" data-name="Path 4955" d="M1026.1,445.323V443.59h1.786v1.733Z" transform="translate(-767.772 2864.332)" fill="#f5f5f5"/>
    <path id="Path_4956" data-name="Path 4956" d="M1026.1,428.663V426.93h1.786v1.733Z" transform="translate(-767.772 2877.486)" fill="#f5f5f5"/>
    <path id="Path_4957" data-name="Path 4957" d="M1026.1,411.993V410.26h1.786v1.733Z" transform="translate(-767.772 2890.65)" fill="#f5f5f5"/>
    <path id="Path_4958" data-name="Path 4958" d="M1026.1,395.323V393.59h1.786v1.733Z" transform="translate(-767.772 2903.814)" fill="#f5f5f5"/>
    <path id="Path_4959" data-name="Path 4959" d="M1026.1,378.653V376.92h1.786v1.733Z" transform="translate(-767.772 2916.975)" fill="#f5f5f5"/>
    <path id="Path_4960" data-name="Path 4960" d="M1026.1,361.983V360.25h1.786v1.733Z" transform="translate(-767.772 2930.139)" fill="#f5f5f5"/>
    <path id="Path_4961" data-name="Path 4961" d="M1026.1,345.323V343.59h1.786v1.733Z" transform="translate(-767.772 2943.293)" fill="#f5f5f5"/>
    <path id="Path_4962" data-name="Path 4962" d="M1026.1,328.653V326.92h1.786v1.733Z" transform="translate(-767.772 2956.457)" fill="#f5f5f5"/>
    <path id="Path_4963" data-name="Path 4963" d="M1026.1,311.983V310.25h1.786v1.733Z" transform="translate(-767.772 2969.621)" fill="#f5f5f5"/>
    <path id="Path_4964" data-name="Path 4964" d="M996.72,478.663V476.93h1.786v1.733Z" transform="translate(-744.572 2838.004)" fill="#f5f5f5"/>
    <path id="Path_4965" data-name="Path 4965" d="M996.72,461.993V460.26h1.786v1.733Z" transform="translate(-744.572 2851.168)" fill="#f5f5f5"/>
    <path id="Path_4966" data-name="Path 4966" d="M996.72,445.323V443.59h1.786v1.733Z" transform="translate(-744.572 2864.332)" fill="#f5f5f5"/>
    <path id="Path_4967" data-name="Path 4967" d="M996.72,428.663V426.93h1.786v1.733Z" transform="translate(-744.572 2877.486)" fill="#f5f5f5"/>
    <path id="Path_4968" data-name="Path 4968" d="M996.72,411.993V410.26h1.786v1.733Z" transform="translate(-744.572 2890.65)" fill="#f5f5f5"/>
    <path id="Path_4969" data-name="Path 4969" d="M996.72,395.323V393.59h1.786v1.733Z" transform="translate(-744.572 2903.814)" fill="#f5f5f5"/>
    <path id="Path_4970" data-name="Path 4970" d="M996.72,378.653V376.92h1.786v1.733Z" transform="translate(-744.572 2916.975)" fill="#f5f5f5"/>
    <path id="Path_4971" data-name="Path 4971" d="M996.72,361.983V360.25h1.786v1.733Z" transform="translate(-744.572 2930.139)" fill="#f5f5f5"/>
    <path id="Path_4972" data-name="Path 4972" d="M996.72,345.323V343.59h1.786v1.733Z" transform="translate(-744.572 2943.293)" fill="#f5f5f5"/>
    <path id="Path_4973" data-name="Path 4973" d="M996.72,328.653V326.92h1.786v1.733Z" transform="translate(-744.572 2956.457)" fill="#f5f5f5"/>
    <path id="Path_4974" data-name="Path 4974" d="M996.72,311.983V310.25h1.786v1.733Z" transform="translate(-744.572 2969.621)" fill="#f5f5f5"/>
    <path id="Path_4777" data-name="Path 4777" d="M657.742,1199.14s3.507.9,5.737.229,6.065.431,6.683,1.243.391,1.136-.711,1.416-5.009,1.946-7.575.982a20.487,20.487,0,0,0-5.916-1Z" transform="translate(-434.298 2266.502)" fill="#e5b0aa"/>
    <path id="Path_4778" data-name="Path 4778" d="M520.36,1039.66s3.94,28,10.462,30.505c3.219,1.237,17.444,4.043,21.651,4.325,0,0,1.031-.837.781-4.241,0,0-14.9-5.472-17.021-8.446-3.151-4.428,1.956-18.092-2-22.25S523.623,1033.607,520.36,1039.66Z" transform="translate(-327.224 2395.52)" fill="#949494"/>
    <path id="Path_4779" data-name="Path 4779" d="M524.523,1403.06h1.9a1.778,1.778,0,0,0,1.773-1.774v-44.133a1.778,1.778,0,0,0-1.773-1.773h-1.9a1.778,1.778,0,0,0-1.773,1.773v44.133A1.778,1.778,0,0,0,524.523,1403.06Z" transform="translate(-329.111 2143.131)" fill="#d1d1d1"/>
    <path id="Path_4780" data-name="Path 4780" d="M455.78,1573.028c1.763-3.648,8.621-6.368,16.813-6.368s15.05,2.72,16.813,6.368Z" transform="translate(-276.229 1976.298)" fill="#d1d1d1"/>
    <path id="Path_4781" data-name="Path 4781" d="M475.3,1530.92h24.67a.473.473,0,0,0,.471-.471v-.978a.473.473,0,0,0-.471-.471H475.3a.473.473,0,0,0-.471.471v.978A.47.47,0,0,0,475.3,1530.92Z" transform="translate(-291.272 2006.035)" fill="#d1d1d1"/>
    <path id="Path_4782" data-name="Path 4782" d="M507.79,1273.022a48.946,48.946,0,0,0,3.848,5.505c4.235,5.345,8.844,9.753,9.645,13.918a18.667,18.667,0,0,0,.745,2.665c.334.955.749,1.959,1.229,3a92.416,92.416,0,0,0,7.165,12.252c4.636,6.873,9,12.605,9,12.605l8-.341c-.32-.8-3.808-10.289-8.474-21.884-1.9-4.708-3.909-9.715-5.852-14.543q-.388-.968-.774-1.923c-.6-1.477-1.178-2.932-1.75-4.348l-7.872-19.558s-17.511-6.633-19.331-2.335C501.867,1261.576,503.089,1265.05,507.79,1273.022Z" transform="translate(-313.327 2221.145)" fill="#c1c1c1"/>
    <path id="Path_4783" data-name="Path 4783" d="M678.22,1557.254s.408,6.6,1.685,6.694c.17.012,6.475.012,6.475.012l8.049-.046a2.612,2.612,0,0,0-2.4-2.35c-2.354-.41-6.292-2.064-7.716-5.173C682.808,1553.121,678.22,1557.254,678.22,1557.254Z" transform="translate(-451.875 1985.401)" fill="#464646"/>
    <path id="Path_4784" data-name="Path 4784" d="M571.2,1475.61s-5.562,3.574-5.024,4.735c.072.153,3.145,5.661,3.145,5.661l3.965,7.005a2.611,2.611,0,0,0,.879-3.246c-.789-2.255-1.264-6.5.755-9.26C577.044,1477.6,571.2,1475.61,571.2,1475.61Z" transform="translate(-363.37 2048.194)" fill="#464646"/>
    <path id="Path_4785" data-name="Path 4785" d="M528.856,1260.54s21.674,13.495,24.127,22.694-29.239,28.829-29.239,28.829-3.475-3.067-4.09-5.316c0,0,14.326-17.161,17.433-21.009,1.908-2.362-28.216-8.179-31.9-13.9s-2.362-10.542-2.362-10.542Z" transform="translate(-313.198 2218.02)" fill="#d6d6d6"/>
    <path id="Path_4786" data-name="Path 4786" d="M422.637,1355.441h44.985a1.641,1.641,0,0,0,1.637-1.637v-9a1.641,1.641,0,0,0-1.637-1.637H422.637a1.641,1.641,0,0,0-1.637,1.637v9A1.643,1.643,0,0,0,422.637,1355.441Z" transform="translate(-248.766 2152.773)" fill="#b2b2b2"/>
    <path id="Path_4787" data-name="Path 4787" d="M537.687,989.18a12.445,12.445,0,0,1,3.349,3.034c-5.266,1.361-14-3.517-14-3.517a12.922,12.922,0,0,0,4.645-7.281c.063-.253.122-.511.172-.776a15.912,15.912,0,0,0,.286-2.739l2.419,2.167,4.022,3.6a34.214,34.214,0,0,1-.6,4.066Q537.86,988.409,537.687,989.18Z" transform="translate(-332.498 2441.201)" fill="#e5b0aa"/>
    <path id="Path_4788" data-name="Path 4788" d="M500.009,1046.733c.753,10.144-.238,25.572.618,28.244.738,2.306,9.153.934,12.51.166,1.243-.284,2.75-.692,4.3-1.174,4.338-1.342,9.065-3.261,9.572-4.685a1.281,1.281,0,0,0,.046-.164,1.332,1.332,0,0,0-.008-.6,10.152,10.152,0,0,1-.9-3.307c-.086-2.007-.074-4.369-.147-6.908,0-.286-.008-.6-.04-.884l0-.105c0-.055,0-.107,0-.162-.074-2.834-.221-5.812-.393-8.766-.109-1.856-.236-3.692-.381-5.453a72.907,72.907,0,0,0-1.563-11.141,17.879,17.879,0,0,0-5.747-8.871l-1.6-1.374a9.266,9.266,0,0,1-5.808-.774c-2.068-.982-2.781-1.685-3.141-1.42C502.553,1023.044,499.117,1034.332,500.009,1046.733Z" transform="translate(-311.043 2408.51)"/>
    <path id="Path_4789" data-name="Path 4789" d="M553.773,1188.173c4.338-1.342,9.065-3.261,9.572-4.685a1.285,1.285,0,0,0,.046-.164c0-.2,0-.4-.008-.6a10.149,10.149,0,0,1-.9-3.307c-.086-2.007-.074-4.369-.147-6.908,0-.286-.008-.6-.04-.884l0-.105c0-.055,0-.107,0-.162l-16.383-7.43S544.965,1177.137,553.773,1188.173Z" transform="translate(-347.376 2294.307)" fill="#7b7b7b"/>
    <path id="Path_4790" data-name="Path 4790" d="M555.112,991.794a34.21,34.21,0,0,1-.6,4.066,10.67,10.67,0,0,1-6.3-6.322c-.168-.425-.242-.688-.242-.688s.151-.034.414-.088c.551-.118,1.593-.339,2.7-.572Z" transform="translate(-349.026 2433.077)" fill="#d68d5d"/>
    <path id="Path_4791" data-name="Path 4791" d="M552.962,951.29s-8.629.974-9.153-4.409-1.99-8.884,3.5-9.732,6.759,1.1,7.371,2.855S555.192,950.9,552.962,951.29Z" transform="translate(-345.286 2473.544)" fill="#e5b0aa"/>
    <path id="Path_4792" data-name="Path 4792" d="M535.35,934.29a8.864,8.864,0,0,1,8.4-7.885c5.381-.507,2.381-5.137,1.807-5.875,0,0-4.121.566-8.347,1.262C528.343,923.256,534.479,933.177,535.35,934.29Z" transform="translate(-336.789 2486.505)" fill="#7a7a7a"/>
    <rect id="Rectangle_275" data-name="Rectangle 275" width="0.795" height="20.797" transform="translate(241.09 3472.902) rotate(-162.007)"/>
    <rect id="Rectangle_276" data-name="Rectangle 276" width="21.823" height="1.306" transform="matrix(-1, -0.021, 0.021, -1, 241.093, 3472.892)"/>
    <path id="Path_4793" data-name="Path 4793" d="M648.017,1219.6s3.387,1.281,5.676.86,5.981,1.1,6.507,1.973.263,1.172-.862,1.329-5.192,1.382-7.638.141a20.453,20.453,0,0,0-5.768-1.645Z" transform="translate(-426.379 2250.349)" fill="#e5b0aa"/>
    <path id="Path_4794" data-name="Path 4794" d="M528.62,1047.555s.829,28.263,7.035,31.473c3.063,1.584,16.89,5.941,21.043,6.685,0,0,1.117-.717,1.243-4.127,0,0-14.208-7.081-15.986-10.272-2.644-4.748,3.938-17.765.467-22.334S532.531,1041.9,528.62,1047.555Z" transform="translate(-333.747 2388.776)" fill="#5a5a5a"/>
  </g>
</svg>
