<svg xmlns="http://www.w3.org/2000/svg" width="386.843" height="303.501" viewBox="0 0 386.843 303.501">
  <g id="Human_Resource_Management" data-name="Human Resource Management" transform="translate(-244 -1501.906)">
    <path id="Path_6781" data-name="Path 6781" d="M766.338,669.827c-29.171,68.686-106.875,107.163-174.261,96.784-10.965-1.689-41.026-6.72-67.641-30.455-51.235-45.69-62.192-136.165-20.862-199.925,30.081-46.406,84-72.712,135.241-71.4,11.037.283,53.333,2.03,90.5,32.681a139.426,139.426,0,0,1,28.355,32.171C783.158,569.54,785.349,625.064,766.338,669.827Z" transform="translate(-206.109 1037.117)" fill="#f1f1f1"/>
    <g id="_18940" data-name="18940" transform="translate(244 1533.376)">
      <g id="Group_5713" data-name="Group 5713" transform="translate(0 0)">
        <g id="Group_5529" data-name="Group 5529" transform="translate(299.341)">
          <path id="Path_6619" data-name="Path 6619" d="M487.616,50.364a25.807,25.807,0,0,0-2.734-6.6l2.786-4.19L483.8,35.711l-3.865-3.865-4.19,2.786a25.7,25.7,0,0,0-6.6-2.734l-.99-4.929H457.224l-.99,4.929a25.808,25.808,0,0,0-6.6,2.734l-4.19-2.786-3.865,3.865-3.865,3.865,2.786,4.19a25.7,25.7,0,0,0-2.734,6.6l-4.929.99V62.29l4.929.99a25.806,25.806,0,0,0,2.734,6.6l-2.786,4.19,3.865,3.865,3.865,3.865,4.19-2.786a25.7,25.7,0,0,0,6.6,2.734l.99,4.929H468.16l.99-4.929a25.808,25.808,0,0,0,6.6-2.734l4.19,2.786,3.865-3.865,3.865-3.865-2.786-4.19a25.7,25.7,0,0,0,2.734-6.6l4.929-.99V51.354ZM462.685,75.975a19.153,19.153,0,1,1,19.153-19.153A19.158,19.158,0,0,1,462.685,75.975Z" transform="translate(-432.84 -26.97)" fill="#c2c2c2"/>
        </g>
        <g id="Group_5530" data-name="Group 5530" transform="translate(336.449 59.143)">
          <path id="Path_6620" data-name="Path 6620" d="M508.183,117.739a11.6,11.6,0,0,0-1.256-3.022l1.278-1.921-1.773-1.773-1.773-1.773-1.921,1.278a11.712,11.712,0,0,0-3.022-1.256l-.458-2.261h-5.01l-.458,2.261a11.605,11.605,0,0,0-3.022,1.256l-1.921-1.278-1.773,1.773L485.3,112.8l1.278,1.921a11.713,11.713,0,0,0-1.256,3.022l-2.261.458v5.01l2.261.458a11.606,11.606,0,0,0,1.256,3.022l-1.278,1.921,1.773,1.773,1.773,1.773,1.921-1.278a11.713,11.713,0,0,0,3.022,1.256l.458,2.261h5.01l.458-2.261a11.606,11.606,0,0,0,3.022-1.256l1.921,1.278,1.773-1.773,1.773-1.773-1.278-1.921a11.711,11.711,0,0,0,1.256-3.022l2.261-.458V118.2ZM496.752,129.48a8.778,8.778,0,1,1,8.778-8.778A8.779,8.779,0,0,1,496.752,129.48Z" transform="translate(-483.06 -107.01)" fill="#c2c2c2"/>
        </g>
        <g id="Group_5531" data-name="Group 5531" transform="translate(202.747 162.338)">
          <rect id="Rectangle_457" data-name="Rectangle 457" width="26.889" height="81.672" transform="translate(26.889 81.672) rotate(180)" fill="#b8b8b8"/>
        </g>
        <g id="Group_5532" data-name="Group 5532" transform="translate(100.1 37.891)">
          <path id="Path_6621" data-name="Path 6621" d="M175.008,242.037H383.573a11.808,11.808,0,0,0,11.808-11.808V90.058A11.8,11.8,0,0,0,383.573,78.25H175.008A11.808,11.808,0,0,0,163.2,90.058V230.229A11.808,11.808,0,0,0,175.008,242.037Z" transform="translate(-163.2 -78.25)" fill="#dcdcdc"/>
        </g>
        <g id="Group_5533" data-name="Group 5533" transform="translate(109.194 20.459)">
          <rect id="Rectangle_458" data-name="Rectangle 458" width="213.996" height="155.556" transform="translate(213.996 155.556) rotate(180)" fill="#fff"/>
        </g>
        <g id="Group_5534" data-name="Group 5534" transform="translate(109.196 20.453)">
          <path id="Path_6622" data-name="Path 6622" d="M175.51,73.441h214V54.65h-214Z" transform="translate(-175.51 -54.65)" fill="#ccc"/>
        </g>
        <g id="Group_5535" data-name="Group 5535" transform="translate(208.706 180.265)">
          <path id="Path_6623" data-name="Path 6623" d="M310.18,278.423a7.489,7.489,0,1,0,7.493-7.493A7.493,7.493,0,0,0,310.18,278.423Z" transform="translate(-310.18 -270.93)" fill="#aeaeae"/>
        </g>
        <g id="Group_5538" data-name="Group 5538" transform="translate(178.824 52.603)">
          <g id="Group_5537" data-name="Group 5537">
            <g id="Group_5536" data-name="Group 5536">
              <path id="Path_6624" data-name="Path 6624" d="M272.341,103.731h63.916a2.6,2.6,0,0,0,2.6-2.6v-.369a2.6,2.6,0,0,0-2.6-2.6H272.341a2.6,2.6,0,0,0-2.6,2.6v.369A2.6,2.6,0,0,0,272.341,103.731Z" transform="translate(-269.74 -98.16)" fill="#ececec"/>
            </g>
          </g>
        </g>
        <g id="Group_5541" data-name="Group 5541" transform="translate(178.824 62.645)">
          <g id="Group_5540" data-name="Group 5540">
            <g id="Group_5539" data-name="Group 5539">
              <path id="Path_6625" data-name="Path 6625" d="M272.341,117.321h63.916a2.6,2.6,0,0,0,2.6-2.6v-.369a2.6,2.6,0,0,0-2.6-2.6H272.341a2.6,2.6,0,0,0-2.6,2.6v.369A2.6,2.6,0,0,0,272.341,117.321Z" transform="translate(-269.74 -111.75)" fill="#ececec"/>
            </g>
          </g>
        </g>
        <g id="Group_5544" data-name="Group 5544" transform="translate(178.824 72.687)">
          <g id="Group_5543" data-name="Group 5543">
            <g id="Group_5542" data-name="Group 5542">
              <path id="Path_6626" data-name="Path 6626" d="M272.341,130.911h63.916a2.6,2.6,0,0,0,2.6-2.6v-.369a2.6,2.6,0,0,0-2.6-2.6H272.341a2.6,2.6,0,0,0-2.6,2.6v.369A2.6,2.6,0,0,0,272.341,130.911Z" transform="translate(-269.74 -125.34)" fill="#ececec"/>
            </g>
          </g>
        </g>
        <g id="Group_5548" data-name="Group 5548" transform="translate(119.098 92.002)">
          <g id="Group_5547" data-name="Group 5547">
            <g id="Group_5546" data-name="Group 5546">
              <g id="Group_5545" data-name="Group 5545">
                <path id="Path_6627" data-name="Path 6627" d="M281.259,224.544H201.043a12.146,12.146,0,0,1-12.133-12.133v-48.8a12.146,12.146,0,0,1,12.133-12.133h80.216a12.146,12.146,0,0,1,12.133,12.133v48.8A12.141,12.141,0,0,1,281.259,224.544ZM201.043,153.01a10.621,10.621,0,0,0-10.611,10.611v48.8a10.621,10.621,0,0,0,10.611,10.611h80.216a10.621,10.621,0,0,0,10.611-10.611v-48.8a10.621,10.621,0,0,0-10.611-10.611Z" transform="translate(-188.91 -151.48)" fill="#dfe1e8"/>
              </g>
            </g>
          </g>
        </g>
        <g id="Group_5551" data-name="Group 5551" transform="translate(132.221 98.667)">
          <g id="Group_5550" data-name="Group 5550">
            <g id="Group_5549" data-name="Group 5549">
              <path id="Path_6628" data-name="Path 6628" d="M212.027,172.234h67.529a5.361,5.361,0,0,0,5.357-5.357v-1.02a5.361,5.361,0,0,0-5.357-5.357H212.027a5.361,5.361,0,0,0-5.357,5.357v1.02A5.361,5.361,0,0,0,212.027,172.234Z" transform="translate(-206.67 -160.5)" fill="#e4e4e4"/>
            </g>
          </g>
        </g>
        <rect id="Rectangle_459" data-name="Rectangle 459" width="120.967" height="6.163" transform="translate(155.711 240.93)" fill="#c2c2c2"/>
        <g id="Group_5560" data-name="Group 5560" transform="translate(264.301 90.635)">
          <path id="Path_6629" data-name="Path 6629" d="M420.245,167.039a17.4,17.4,0,0,1-11.926,16.529c-.1.037-.207.066-.318.1a17.413,17.413,0,1,1,12.244-16.633Z" transform="translate(-385.42 -149.63)" fill="#efefef"/>
          <g id="Group_5552" data-name="Group 5552" transform="translate(13.161 8.015)">
            <path id="Path_6630" data-name="Path 6630" d="M403.319,168.031s-1.19-7.692,5.18-7.552,6.288,3.946,6.17,7.722-2.557,3.5.2,8.741-2.387,5.254-2.387,5.254l-3.99-5.483Z" transform="translate(-403.231 -160.477)" fill="#3c4145"/>
          </g>
          <g id="Group_5553" data-name="Group 5553" transform="translate(13.235 8.666)">
            <path id="Path_6631" data-name="Path 6631" d="M407.83,161.448s-4.315.68-4.485,6.813,1.167,7.441,4.943,6.163,4.965-7.692,5.054-8.69S413.653,160.709,407.83,161.448Z" transform="translate(-403.331 -161.358)" fill="#eea886"/>
          </g>
          <g id="Group_5554" data-name="Group 5554" transform="translate(9.507 23.984)">
            <path id="Path_6632" data-name="Path 6632" d="M414.094,188.193a4.16,4.16,0,0,1-2.416,3.85c-.1.037-.207.066-.318.1a17.449,17.449,0,0,1-12.909-1.027c-.525-1.049.236-2.534,1.781-4.818,1.057-1.566,2.1-3.17,3.879-3.946,2.623-.421,5.4-.443,7.36.665C413.03,183.9,414.072,185.5,414.094,188.193Z" transform="translate(-398.287 -182.088)" fill="#5b5b5b"/>
          </g>
          <g id="Group_5555" data-name="Group 5555" transform="translate(10.315 24.731)">
            <path id="Path_6633" data-name="Path 6633" d="M401.36,186.469l-1.98,3.126c.007-.015.133-.488.362-1.862.044-.259.089-.554.14-.879.015-.1.037-.192.059-.288h0c.85-1.958,3.5-3.414,3.591-3.466Z" transform="translate(-399.38 -183.1)" fill="#727272"/>
          </g>
          <g id="Group_5556" data-name="Group 5556" transform="translate(20.357 24.878)">
            <path id="Path_6634" data-name="Path 6634" d="M418.815,190.866a17.3,17.3,0,0,1-3.3,1.493c-.1.037-.207.066-.318.1-.443-1.138-.82-2.121-.9-2.372-.022-.074-.081-.214-.155-.4a13.229,13.229,0,0,1-1.168-4.315c-.007-.975.318-1.773,1.293-2a2.517,2.517,0,0,1,1.042-.037,3.058,3.058,0,0,1,2.091,2.054.105.105,0,0,1,.015.044,6.894,6.894,0,0,1,.392,1.389s.015.066.052.192c.059.244.177.7.333,1.308C418.357,189.019,418.578,189.905,418.815,190.866Z" transform="translate(-412.97 -183.298)" fill="#eea886"/>
          </g>
          <g id="Group_5557" data-name="Group 5557" transform="translate(15.079 18.878)">
            <path id="Path_6635" data-name="Path 6635" d="M411.371,175.268a32.777,32.777,0,0,0-.768,5.091s-5.276,2-4.736.865a4.369,4.369,0,0,0,.325-1.751,7.373,7.373,0,0,0-.059-1.064c-.015-.118-.022-.185-.022-.185S411.741,174.566,411.371,175.268Z" transform="translate(-405.828 -175.179)" fill="#eea886"/>
          </g>
          <g id="Group_5558" data-name="Group 5558" transform="translate(13.241 8.569)">
            <path id="Path_6636" data-name="Path 6636" d="M406.074,165.818s2.217,3.606,4.227,5.025.99,2.557.99,2.557,5.261-11.076.259-11.837-8.069-.82-8.209,6.672C403.347,168.227,405.623,165.759,406.074,165.818Z" transform="translate(-403.34 -161.226)" fill="#3c4145"/>
          </g>
          <g id="Group_5559" data-name="Group 5559" transform="translate(15.377 21.658)">
            <path id="Path_6637" data-name="Path 6637" d="M409.237,178.94c-.813,1.2-2.948,1.515-2.948,1.515h0a7.378,7.378,0,0,0-.059-1.064A6.012,6.012,0,0,0,409.237,178.94Z" transform="translate(-406.23 -178.94)" fill="#a77860"/>
          </g>
          <path id="Path_6638" data-name="Path 6638" d="M400.077,186.533h0a4.179,4.179,0,0,0-.207,1.19l.776-1.175s1.389-1.988,1.862-2.512a7.286,7.286,0,0,1,1.167-.975S400.9,184.383,400.077,186.533Z" transform="translate(-389.193 -158.358)" fill="#858585"/>
          <path id="Path_6639" data-name="Path 6639" d="M413.934,189.551a29.3,29.3,0,0,1,4.389-1.4s-.68-5.438-4.012-4.862S413.934,189.551,413.934,189.551Z" transform="translate(-392.55 -158.406)" fill="#858585"/>
          <path id="Path_6640" data-name="Path 6640" d="M405.526,182.235s-2.49,3.828-1.648,4.16,5.4-.443,7.337-4.079A6.766,6.766,0,0,0,405.526,182.235Z" transform="translate(-390.194 -157.984)" fill="#eea886"/>
        </g>
        <rect id="Rectangle_460" data-name="Rectangle 460" width="27.133" height="2.483" transform="matrix(1, -0.008, 0.008, 1, 69.326, 199.135)" fill="#8f8f8f"/>
        <rect id="Rectangle_461" data-name="Rectangle 461" width="27.133" height="2.483" transform="translate(94.12 200.689) rotate(-72.993)" fill="#8f8f8f"/>
        <g id="Group_5561" data-name="Group 5561" transform="translate(143.112 204.649)">
          <rect id="Rectangle_462" data-name="Rectangle 462" width="2.121" height="65.231" fill="#676767"/>
        </g>
        <g id="Group_5562" data-name="Group 5562" transform="translate(63.679 200.945)">
          <rect id="Rectangle_463" data-name="Rectangle 463" width="93.059" height="3.709" transform="translate(93.059 3.709) rotate(180)" fill="#929292"/>
        </g>
        <g id="Group_5563" data-name="Group 5563" transform="translate(75.584 204.655)">
          <rect id="Rectangle_464" data-name="Rectangle 464" width="2.121" height="65.231" transform="translate(2.121 65.231) rotate(180)" fill="#676767"/>
        </g>
        <rect id="Rectangle_465" data-name="Rectangle 465" width="2.542" height="32.128" transform="translate(33.052 227.053)" fill="#bfbfbf"/>
        <path id="Path_6641" data-name="Path 6641" d="M114.122,372.02a13.436,13.436,0,0,0,.488,3.074c.34,1.212,1.02,5.911,1.884,6.562s3.665,2.394,3.251,4.182-.761,3.037-3.776,1.973-5.032-1.663-5.616-4.315a16.583,16.583,0,0,0-2.232-5.062l-2.18,5.424-1.153-.466s1.736-5.86,1.589-6.384.8-5.18,4.448-6.332C114.477,369.545,114.122,372.02,114.122,372.02Z" transform="translate(-47.849 -116.63)"/>
        <path id="Path_6642" data-name="Path 6642" d="M142.688,374.536a13.718,13.718,0,0,0,1.6,2.667c.768,1,3.148,5.106,4.2,5.387s4.293.857,4.581,2.667.429,3.1-2.764,3.244-5.291.333-6.82-1.906a16.755,16.755,0,0,0-3.961-3.865v5.845h-1.241s-.569-6.089-.909-6.517-1.19-5.106,1.766-7.537S142.688,374.536,142.688,374.536Z" transform="translate(-56.257 -117.431)"/>
        <path id="Path_6643" data-name="Path 6643" d="M100.74,265.371s.709-2.52.776-2.845a5.221,5.221,0,0,1,1.581-1.663,6.232,6.232,0,0,1,2.453-1.175.969.969,0,0,1,.68.406,1.775,1.775,0,0,1,.333.857,1.108,1.108,0,0,1,.584.887.966.966,0,0,1,.429.983.807.807,0,0,1,.392.8,7.432,7.432,0,0,0-.85.968,15.046,15.046,0,0,1-3.288,2.571C103.821,267.159,101.76,268.681,100.74,265.371Z" transform="translate(-46.792 -87.729)" fill="#eea886"/>
        <path id="Path_6644" data-name="Path 6644" d="M104.92,264.667a5.6,5.6,0,0,1,.244,1.4c-.067.34,2.424.392,2.424.392S106.22,264.327,104.92,264.667Z" transform="translate(-47.883 -89.02)" fill="#cf8c6c"/>
        <path id="Path_6645" data-name="Path 6645" d="M66.764,271.506c1-1.626,2.342-2.357,6.591.584s3.251,2.365,4.271,3.3a47.652,47.652,0,0,0,5.483,3.266,39.972,39.972,0,0,0,3.857-4.434c1.411-2.076,4.352-7.618,4.352-7.618l4.123,3.066s-8.01,14.527-9.687,15.6-6.717-.724-9.34-1.825-5.4-2.534-6.6-2.837S64.149,275.74,66.764,271.506Z" transform="translate(-37.71 -89.535)"/>
        <rect id="Rectangle_466" data-name="Rectangle 466" width="9.318" height="0.791" transform="translate(57.263 174.188) rotate(-77.626)" fill="#9c9c9c"/>
        <path id="Path_6646" data-name="Path 6646" d="M106.285,259.857s-2.076,1.781-1.833,2.15a.691.691,0,0,0,.562.355l-.525,1.123s.074.938,1.071.584c0,0-.022.887.9.429,0,0,.244.591.709.451a9.065,9.065,0,0,0,1.759-1.337s.155-.377-.392-.8a.946.946,0,0,0-.429-.983,1.034,1.034,0,0,0-.584-.887s-.022-1.19-1.012-1.264C106.507,259.687,106.367,259.783,106.285,259.857Z" transform="translate(-47.756 -87.728)" fill="#db9c7c"/>
        <path id="Path_6647" data-name="Path 6647" d="M101.83,262.969a9.282,9.282,0,0,1,2.453-1.611c.244-.081.488-.111.65.081s.1.68-.48,1.256a6.867,6.867,0,0,0-1.057,1.581S102.635,264.69,101.83,262.969Z" transform="translate(-47.077 -88.149)" fill="#eea886"/>
        <path id="Path_6648" data-name="Path 6648" d="M93.5,283.277a9.605,9.605,0,0,0-.148-5.387,7.033,7.033,0,0,1-.687,4.16C91.889,283.306,93.5,283.277,93.5,283.277Z" transform="translate(-44.629 -92.482)" fill="#152c3d"/>
        <path id="Path_6649" data-name="Path 6649" d="M112.667,277.372s2.246-16.633,6.155-23.882h-5.756s-6.443,11.357-5.239,22.832Z" transform="translate(-48.603 -86.112)" fill="#fff"/>
        <path id="Path_6650" data-name="Path 6650" d="M116.3,268.344s.658-1.227.813-1.626.805.3.709.805S116.3,268.344,116.3,268.344Z" transform="translate(-50.855 -89.534)" fill="#eea886"/>
        <path id="Path_6651" data-name="Path 6651" d="M120.432,271.39a3.015,3.015,0,0,1-.377.828s-.4.377-.672.672a2.163,2.163,0,0,0-.2.229,5.268,5.268,0,0,1-1.049,1.286c-.576.466-2.771,1.892-2.771,1.892l-1.552-1.655-1.241-1.293s1.049-3.938,1.537-4.433a.831.831,0,0,1,.148-.133,7.13,7.13,0,0,1,1.2-.643c.1-.059,1.086-.621,1.4-.5a1.1,1.1,0,0,1,.746.783,2.64,2.64,0,0,1,1.131.924,1.652,1.652,0,0,1,.946,1.108C119.686,270.466,120.454,270.88,120.432,271.39Z" transform="translate(-49.881 -89.802)" fill="#eea886"/>
        <path id="Path_6652" data-name="Path 6652" d="M130.577,330.11s-3.805,8.557-6.517,14.66c-.458,1.027-.879,1.988-1.256,2.823-.436.983-.8,1.788-1.042,2.35-1.729,3.887-5.978,12.362-5.978,12.362s-3.2.126-3.384-2.594c0,0,3.066-5.882,3.066-10.02s.554-16.315,4.507-18.946C124.784,327.546,127.91,326.94,130.577,330.11Z" transform="translate(-49.836 -105.57)" fill="#eea886"/>
        <path id="Path_6653" data-name="Path 6653" d="M82.332,307.786a4.454,4.454,0,0,0,1.478.99c.68.185,12.03,1.049,17.276,2.778s12.222,2.837,13.515,4.323,3.458,9.628,3.392,11.172,4.611,27.539,5.195,29.571c.31,1.079-4.227.665-4.227.665s-6.443-15.362-7.818-18.2c-2.527-5.217-2.653-11.6-3.576-12.591s-11.231-3.207-17.158-3.207-19.19.5-20.608-.31-10.308-6.665-6.606-14.5S82.332,307.786,82.332,307.786Z" transform="translate(-36.756 -99.509)" fill="#eea886"/>
        <path id="Path_6654" data-name="Path 6654" d="M107.735,312.833l-9.4,18.081s-2.83-6.709-7.773-7.869-24.65-.532-24.65-.532-9.044-11.438-1.3-17.446,16.788.946,16.788.946,1.869,2.025,2.771,2.069C90.755,308.414,97.768,309.634,107.735,312.833Z" transform="translate(-36.541 -98.94)"/>
        <path id="Path_6655" data-name="Path 6655" d="M149,382.744s-2.86.717-3.961,0-4.825-7.02-6.059-7.4c0,0,1.2-2.431,4.227-.665C143.207,374.69,148.187,381.7,149,382.744Z" transform="translate(-56.776 -117.586)" fill="#eea886"/>
        <path id="Path_6656" data-name="Path 6656" d="M118.309,381.691s-2.919-.406-3.672-1.478-1.862-8.313-2.867-9.118c0,0,2.017-1.81,4.167.961C115.945,372.055,117.955,380.42,118.309,381.691Z" transform="translate(-49.672 -116.665)" fill="#eea886"/>
        <path id="Path_6657" data-name="Path 6657" d="M77.589,231.977a7.64,7.64,0,0,1,8.032,7,18.492,18.492,0,0,1-.569,2.882c-.392,1.264.746,5,.451,5.187a8.189,8.189,0,0,1-1.522.421s-1.315,4.079-2.749,4.049a11.88,11.88,0,0,1-9.414-6.236C69.262,240.209,68.471,232.421,77.589,231.977Z" transform="translate(-38.796 -80.493)" fill="#eea886"/>
        <path id="Path_6658" data-name="Path 6658" d="M80.115,254.293s-.177.569-.377,1.419c-.1.436-.214.938-.3,1.478a10.113,10.113,0,0,0-.03,4.389s-3.17,1.1-5.667-3.377c0,0,1.071-4.825-.325-7.751S80.115,254.293,80.115,254.293Z" transform="translate(-39.615 -85.127)" fill="#eea886"/>
        <path id="Path_6659" data-name="Path 6659" d="M85.423,238.642s-3.465,3.111-7.123,2.86c-3.717-.251-6.133,4.4-6.133,4.4s-5.534-6.946-1.071-12.569S86.214,231.674,85.423,238.642Z" transform="translate(-38.598 -80.152)" fill="#040404"/>
        <path id="Path_6660" data-name="Path 6660" d="M78.344,244.882a1.121,1.121,0,0,0-1.958-.8c-1.153.961.4,4.308,1.345,3.983S78.358,245.614,78.344,244.882Z" transform="translate(-40.327 -83.555)" fill="#eea886"/>
        <path id="Path_6661" data-name="Path 6661" d="M80.359,256.89c-.1.436-.214.938-.3,1.478a15.789,15.789,0,0,1-4.426-4.138A17.758,17.758,0,0,0,80.359,256.89Z" transform="translate(-40.236 -86.305)" fill="#a77860"/>
        <path id="Path_6662" data-name="Path 6662" d="M85.862,275.223c-.665,3.089-2.424,3.251-2.313,5.534s.791,2.475-.392,6.081a16.39,16.39,0,0,0-.539,2.135c-.015.089-.037.177-.052.266-.074.414-.14.835-.2,1.249-.1.761-.177,1.507-.236,2.195a4.549,4.549,0,0,0,1.167,3.148s-11.549,6.924-19.478,5.948c0,0,2.054-8.63,3.185-11.594s.791-16.662-.044-19.6c-1.227-4.337,1.227-10.84,4.574-11.69l5.2,2.409s5.239,6.251,6.414,7.2S86.534,272.09,85.862,275.223Z" transform="translate(-37.153 -87.524)"/>
        <path id="Path_6663" data-name="Path 6663" d="M69.878,263.276c1.47-1.219,3.591-3.318,6.695.828s5.35,6.805,6.022,8.01,6.5,9.613,6.5,9.613,3.1-2.874,4.862-4.219c2-1.522,7.426-7.182,7.426-7.182l3.591,3.983S92.5,288.14,90.575,288.628s-7.323-4.367-9.465-6.251-8.135-8.734-9.177-9.4S66.051,266.468,69.878,263.276Z" transform="translate(-38.356 -88.242)"/>
        <path id="Path_6664" data-name="Path 6664" d="M127.271,347.452c-.458,1.027-.879,1.988-1.256,2.823-1.4-4.5-1.286-12.015-1.286-12.015A43.426,43.426,0,0,0,127.271,347.452Z" transform="translate(-53.055 -108.244)" fill="#a77860"/>
        <rect id="Rectangle_467" data-name="Rectangle 467" width="40.034" height="4.404" transform="translate(13.995 223.573)" fill="#c2c2c2"/>
        <path id="Path_6665" data-name="Path 6665" d="M74.1,310.53s-1.012,4.079,3.739,5.01,10.6,2.113,10.6,9.443H71.96Z" transform="translate(-39.278 -101.004)" fill="#c2c2c2"/>
        <path id="Path_6666" data-name="Path 6666" d="M107.93,249.949l.68-1.249.089,1.419Z" transform="translate(-48.669 -84.861)" fill="#eea886"/>
        <path id="Path_6667" data-name="Path 6667" d="M41.725,314.482,27.73,255.665s25.3-3.953,28.315,7.411,7.973,45.111,14,47.194S41.725,314.482,41.725,314.482Z" transform="translate(-27.73 -86.506)" fill="#c2c2c2"/>
        <path id="Path_6668" data-name="Path 6668" d="M88.347,291.927s-.259,1.079-.532,1.973l-6.155-7.98Z" transform="translate(-41.81 -94.579)" fill="#152c3d"/>
        <path id="Path_6669" data-name="Path 6669" d="M69.83,244.385s2.431,6.429,1.773,8.187a5.428,5.428,0,0,0,3.1-5.837C74.012,242.523,69.83,244.385,69.83,244.385Z" transform="translate(-38.722 -83.627)" fill="#040404"/>
        <path id="Path_6670" data-name="Path 6670" d="M79.141,261.241v-1.271l-5.4-2.631L71.87,259.5Z" transform="translate(-39.254 -87.117)" fill="#1d3b54"/>
        <path id="Path_6671" data-name="Path 6671" d="M106.142,388.211a2.091,2.091,0,1,1-2.091-2.091A2.094,2.094,0,0,1,106.142,388.211Z" transform="translate(-47.111 -120.74)" fill="#585858"/>
        <path id="Path_6672" data-name="Path 6672" d="M43.84,383.158l.532,1.485L66.761,377.7,65.69,374.69Z" transform="translate(-31.936 -117.756)" fill="#bfbfbf"/>
        <path id="Path_6673" data-name="Path 6673" d="M96.688,383.09l-.532,1.485-22.4-6.938.99-3.207Z" transform="translate(-39.748 -117.688)" fill="#bfbfbf"/>
        <path id="Path_6674" data-name="Path 6674" d="M80.905,384.42v1.729l-7.145-8.512.99-3.207Z" transform="translate(-39.748 -117.688)" fill="#bfbfbf"/>
        <path id="Path_6675" data-name="Path 6675" d="M82.2,388.211a2.091,2.091,0,1,1-2.091-2.091A2.094,2.094,0,0,1,82.2,388.211Z" transform="translate(-40.86 -120.74)" fill="#585858"/>
        <circle id="Ellipse_294" data-name="Ellipse 294" cx="2.091" cy="2.091" r="2.091" transform="translate(9.813 265.38)" fill="#585858"/>
        <g id="Group_5573" data-name="Group 5573" transform="translate(265.041 47.108)">
          <path id="Path_6676" data-name="Path 6676" d="M413.994,90.812a16.98,16.98,0,0,1-5.9,12.891c-.194.167-.395.333-.6.495-.228.183-.461.356-.7.528a16.942,16.942,0,0,1-7.751,3q-.758.092-1.534.117c-.183.006-.372.011-.561.011-.55,0-1.095-.028-1.634-.078a15.474,15.474,0,0,1-1.773-.267,16.866,16.866,0,0,1-6.962-3.178,17.159,17.159,0,0,1-1.723-1.517c-.106-.106-.211-.211-.311-.322q-.575-.608-1.083-1.267a17.04,17.04,0,1,1,30.528-10.413Z" transform="translate(-379.91 -73.77)" fill="#efefef"/>
          <g id="Group_5572" data-name="Group 5572" transform="translate(3.562 7.476)">
            <g id="Group_5564" data-name="Group 5564" transform="translate(2.384 15)">
              <path id="Path_6677" data-name="Path 6677" d="M412.808,118.187l-1.256,4.506a16.941,16.941,0,0,1-7.751,3q-.759.092-1.534.117c-.183.006-.372.011-.561.011-.55,0-1.095-.028-1.634-.078a15.479,15.479,0,0,1-1.773-.267,16.866,16.866,0,0,1-6.962-3.178c-.239-1.489-.5-3.139-.728-4.684,1.25-.467,5.24-1.823,7.751-2.673l.106-.033c.056-.022.111-.039.161-.056.15-.05.289-.1.428-.144s.267-.089.389-.133c.517-.172.878-.295,1.006-.339h0l.05-.017h.028l3.384.256.567.044.178.011.078.017c.206.05.795.206,1.584.445h.006C408.335,115.615,411.586,116.776,412.808,118.187Z" transform="translate(-390.61 -114.22)" fill="#fff"/>
            </g>
            <g id="Group_5565" data-name="Group 5565" transform="translate(9.457 1.058)">
              <path id="Path_6678" data-name="Path 6678" d="M408.257,89.174s4.056.683,3.367,7.035-4.267,5.79-4.506,5.779-3.6.078-3.779-7.69C403.334,94.3,403.284,88.562,408.257,89.174Z" transform="translate(-403.339 -89.128)" fill="#eea987"/>
            </g>
            <g id="Group_5566" data-name="Group 5566" transform="translate(10.819 11.346)">
              <path id="Path_6679" data-name="Path 6679" d="M411.119,108.38a14.772,14.772,0,0,0,.106,3.184c.25.567-3.256,2.367-5.434.317a22.759,22.759,0,0,0,.306-3.867C405.962,107,411.119,108.38,411.119,108.38Z" transform="translate(-405.79 -107.643)" fill="#eea987"/>
            </g>
            <g id="Group_5567" data-name="Group 5567" transform="translate(17.557 6.136)">
              <path id="Path_6680" data-name="Path 6680" d="M418.186,98.475s.45-.472.606.011-.717,2.623-.667,2.723c0,0-.083.183-.189.083A24.471,24.471,0,0,1,418.186,98.475Z" transform="translate(-417.918 -98.268)" fill="#eea987"/>
            </g>
            <g id="Group_5568" data-name="Group 5568" transform="translate(8.865 5.956)">
              <path id="Path_6681" data-name="Path 6681" d="M402.911,98.164s-.433-.489-.606-.011a8.218,8.218,0,0,0,.55,2.745s.139.217.25.122A24.276,24.276,0,0,0,402.911,98.164Z" transform="translate(-402.275 -97.943)" fill="#eea987"/>
            </g>
            <g id="Group_5569" data-name="Group 5569" transform="translate(9.171)">
              <path id="Path_6682" data-name="Path 6682" d="M411.735,93.029c-.139.867-.272,1.517-.272,1.517l-.589.772a15.8,15.8,0,0,0-.056-1.973c-.033-.1-.072-.283-.117-.478-.067-.322-.139-.683-.183-.806a8.7,8.7,0,0,0-6.507.206,5.022,5.022,0,0,1,.022.556c0,.339-.039.722-.194.778-.289.106-.167,1.995-.167,1.995l-.472-.545s-.139-.989-.272-2.123v-.006c-.028-.267-.061-.539-.089-.806-.067-1.139.044-3.212,1.528-4.429a7.309,7.309,0,0,1,5.268.022,1.815,1.815,0,0,1,.783.206C412.085,89.75,411.735,93.029,411.735,93.029Z" transform="translate(-402.824 -87.225)" fill="#363636"/>
            </g>
            <path id="Path_6683" data-name="Path 6683" d="M406.84,110.75a2.588,2.588,0,0,0,2.15.867,2.918,2.918,0,0,0,2.156-.817,2.621,2.621,0,0,1-2.161,1.473A2.662,2.662,0,0,1,406.84,110.75Z" transform="translate(-395.438 -97.678)" fill="#c78d71"/>
            <path id="Path_6684" data-name="Path 6684" d="M405.05,114.754a4.422,4.422,0,0,0,3.151,2.073c1.311.111,2.439-1.545,2.973-2.362A7.917,7.917,0,0,0,405.05,114.754Z" transform="translate(-394.643 -99.115)" fill="#eea987"/>
            <path id="Path_6685" data-name="Path 6685" d="M413.315,113.77a11.17,11.17,0,0,1-2.595,2.25l1.1,1.695,1.873-3.345Z" transform="translate(-397.162 -99.02)" fill="#eddad3"/>
            <path id="Path_6686" data-name="Path 6686" d="M405.426,114.23a7.537,7.537,0,0,0,2.656,1.995l-1.206,1.745-2.106-3.051Z" transform="translate(-394.518 -99.224)" fill="#eddad3"/>
            <path id="Path_6687" data-name="Path 6687" d="M409.947,117.82l.939,1.434a1.955,1.955,0,0,1-1.906-.033Z" transform="translate(-396.389 -100.819)" fill="#5073ab"/>
            <path id="Path_6688" data-name="Path 6688" d="M424.446,118.2s-.011.033-.028.094c-.106.367-.5,1.784-1.017,3.662-.194.167-.395.333-.6.495-.228.183-.461.356-.7.528a16.942,16.942,0,0,1-7.751,3c.25-5.9.95-11.13.95-11.13.55.144,1.078.289,1.572.433h.006a35.634,35.634,0,0,1,7.262,2.745c.005,0,.011.006.017.011A2.694,2.694,0,0,1,424.446,118.2Z" transform="translate(-398.775 -99.5)" fill="#0e0e0e"/>
            <path id="Path_6689" data-name="Path 6689" d="M396.857,126.065a16.867,16.867,0,0,1-6.962-3.178,17.165,17.165,0,0,1-1.723-1.517c-.106-.106-.211-.211-.311-.322-.3-1.267-.495-2.095-.511-2.145h0s2.106-1.384,9.563-3.373v.006C396.918,115.7,396.924,120.486,396.857,126.065Z" transform="translate(-386.778 -99.802)" fill="#0e0e0e"/>
            <path id="Path_6690" data-name="Path 6690" d="M409.895,120.267c-.067,1.55-.078,4.568-.05,8.007-.183.006-.372.011-.561.011-.55,0-1.095-.028-1.634-.078a51.668,51.668,0,0,1,1.134-7.94c.083-.345.133-.517.133-.517l1,.167C409.906,120.022,409.9,120.139,409.895,120.267Z" transform="translate(-395.798 -101.677)" fill="#2a2a2a"/>
            <g id="Group_5570" data-name="Group 5570" transform="translate(24.027 18.523)">
              <path id="Path_6691" data-name="Path 6691" d="M432.066,122.566a16.881,16.881,0,0,1-1.906,1.928c-.194.167-.395.333-.6.495l1.339-4.429h0c.006.006.011.006.017.011a1.149,1.149,0,0,1,.261.261A8.058,8.058,0,0,1,432.066,122.566Z" transform="translate(-429.56 -120.56)" fill="#323657"/>
            </g>
            <g id="Group_5571" data-name="Group 5571" transform="translate(0 19.095)">
              <path id="Path_6692" data-name="Path 6692" d="M387.715,124.063c-.106-.106-.211-.211-.311-.322q-.575-.608-1.083-1.267a1.972,1.972,0,0,1,.572-.883h0Z" transform="translate(-386.32 -121.59)" fill="#323657"/>
            </g>
          </g>
        </g>
        <path id="Path_6693" data-name="Path 6693" d="M215.578,69.664H190.159a2.55,2.55,0,0,1-2.549-2.549v-2a2.55,2.55,0,0,1,2.549-2.549h25.419a2.55,2.55,0,0,1,2.549,2.549v2A2.55,2.55,0,0,1,215.578,69.664Z" transform="translate(-69.473 -36.265)" fill="#fff"/>
        <g id="Group_5589" data-name="Group 5589" transform="translate(120.796 51.353)">
          <g id="Group_5576" data-name="Group 5576" transform="translate(0 0)">
            <g id="Group_5575" data-name="Group 5575">
              <g id="Group_5574" data-name="Group 5574">
                <path id="Path_6694" data-name="Path 6694" d="M201.17,125.014a14.662,14.662,0,0,0,19.36-13.7c.007-.333,0-.658-.022-.983A14.646,14.646,0,0,0,206.054,96.47a14.659,14.659,0,0,0-4.884,28.544Zm-6.3-14.032a10.99,10.99,0,0,1,21.318-3.613v.007a10.894,10.894,0,0,1,.643,3.155c.015.244.015.488.015.739a10.989,10.989,0,1,1-21.975-.288Z" transform="translate(-191.208 -96.468)" fill="#9b9b9b"/>
              </g>
            </g>
          </g>
          <g id="Group_5579" data-name="Group 5579" transform="translate(9.962 21.385)">
            <g id="Group_5578" data-name="Group 5578">
              <g id="Group_5577" data-name="Group 5577">
                <path id="Path_6695" data-name="Path 6695" d="M218.079,125.41l2.9,2.246a14.684,14.684,0,0,1-16.293,4.914l1.175-3.473a11,11,0,0,0,12.214-3.687Z" transform="translate(-204.69 -125.41)" fill="#414141"/>
              </g>
            </g>
          </g>
        </g>
        <g id="Group_5594" data-name="Group 5594" transform="translate(231.612 92.778)">
          <g id="Group_5590" data-name="Group 5590">
            <path id="Path_6699" data-name="Path 6699" d="M354.089,168.853h-9.495a3.415,3.415,0,0,1-3.414-3.414v-9.5a3.415,3.415,0,0,1,3.414-3.414h9.495a3.415,3.415,0,0,1,3.414,3.414v9.5A3.406,3.406,0,0,1,354.089,168.853Z" transform="translate(-341.18 -152.53)" fill="#c2c2c2"/>
          </g>
          <g id="Group_5593" data-name="Group 5593" transform="translate(3.236 4.563)">
            <g id="Group_5592" data-name="Group 5592">
              <g id="Group_5591" data-name="Group 5591">
                <path id="Path_6700" data-name="Path 6700" d="M349.971,165.9l-4.131-3.6a.812.812,0,0,1,1.064-1.227l2.919,2.542,4.16-4.64a.811.811,0,1,1,1.2,1.086Z" transform="translate(-345.56 -158.706)" fill="#f3f3f3"/>
              </g>
            </g>
          </g>
        </g>
        <g id="Group_5599" data-name="Group 5599" transform="translate(231.612 113.704)">
          <g id="Group_5595" data-name="Group 5595">
            <path id="Path_6701" data-name="Path 6701" d="M354.089,197.173h-9.495a3.415,3.415,0,0,1-3.414-3.414v-9.5a3.415,3.415,0,0,1,3.414-3.414h9.495a3.415,3.415,0,0,1,3.414,3.414v9.5A3.406,3.406,0,0,1,354.089,197.173Z" transform="translate(-341.18 -180.85)" fill="#c2c2c2"/>
          </g>
          <g id="Group_5598" data-name="Group 5598" transform="translate(3.236 4.563)">
            <g id="Group_5597" data-name="Group 5597">
              <g id="Group_5596" data-name="Group 5596">
                <path id="Path_6702" data-name="Path 6702" d="M349.971,194.219l-4.131-3.6a.812.812,0,0,1,1.064-1.227l2.919,2.542,4.16-4.64a.811.811,0,1,1,1.2,1.086Z" transform="translate(-345.56 -187.026)" fill="#f3f3f3"/>
              </g>
            </g>
          </g>
        </g>
        <g id="Group_5601" data-name="Group 5601" transform="translate(231.612 134.637)">
          <g id="Group_5600" data-name="Group 5600">
            <path id="Path_6703" data-name="Path 6703" d="M354.089,225.5h-9.495a3.415,3.415,0,0,1-3.414-3.414v-9.5a3.415,3.415,0,0,1,3.414-3.414h9.495a3.415,3.415,0,0,1,3.414,3.414v9.5A3.406,3.406,0,0,1,354.089,225.5Z" transform="translate(-341.18 -209.18)" fill="#c2c2c2"/>
          </g>
        </g>
        <g id="Group_5618" data-name="Group 5618" transform="translate(167.903 118.052)">
          <g id="Group_5604" data-name="Group 5604" transform="translate(3.936 125.594)">
            <g id="Group_5603" data-name="Group 5603">
              <g id="Group_5602" data-name="Group 5602">
                <path id="Path_6704" data-name="Path 6704" d="M268.314,360.721s.5,3.31.82,4.722,3.384,5.461,3.332,6.148-1.345,1.5-2,.946-4.965-4.988-5.882-6.887-3.975-4.374-4.286-5.217,3.6-3.31,4.6-3.7S268.314,360.721,268.314,360.721Z" transform="translate(-260.286 -356.706)" fill="#131313"/>
              </g>
            </g>
          </g>
          <path id="Path_6705" data-name="Path 6705" d="M259.442,282.08a12.248,12.248,0,0,0,.7,2.5,18.469,18.469,0,0,1,1.182,2.631c.081.273.576,2.261.658,2.5s-.48.643-.865.111a17.286,17.286,0,0,1-.828-2.025c-.17-.414-.695-1.722-.842-1.485a16.3,16.3,0,0,0-.133,2.446,15.069,15.069,0,0,0,.4,2.416c.133.576.9,2.985.591,3.118s-.569.1-.961-.554c0,0-.628.347-.99-.443,0,0-.562.207-.909-.828a1.412,1.412,0,0,1-.554-.591,22.555,22.555,0,0,1-1.057-4.84c.007-1.293.31-2.195.259-3.111a23.487,23.487,0,0,0-.525-2.867Z" transform="translate(-255.119 -211.362)" fill="#eea886"/>
          <path id="Path_6706" data-name="Path 6706" d="M267.715,356.04l-1.175.517,3.406,3.99,1.131-1.249Z" transform="translate(-257.983 -230.938)" fill="#8f8f8f"/>
          <path id="Path_6707" data-name="Path 6707" d="M282.66,367.35a12.9,12.9,0,0,1-1.4,2.557c-.643.724-3.089,2.017-3.1,4.175-.015,2.335,4.131,1.685,5.749,1.6s1.744-1.33,2.424-2.653,1.367-1.1,1.5-2.165a13.647,13.647,0,0,0-.525-3.451Z" transform="translate(-261.017 -233.891)" fill="#131313"/>
          <path id="Path_6708" data-name="Path 6708" d="M284.118,366.32,284,367.429a8.43,8.43,0,0,0,4.958.1l-.133-1.515Z" transform="translate(-262.542 -233.541)" fill="#8f8f8f"/>
          <path id="Path_6709" data-name="Path 6709" d="M293.994,312.556c0-2.874-2.1-27.983-2-28.943.066-.628-.606-6.635-1.079-10.744-.007-.037-.007-.074-.015-.1v-.022c-.133-1.153-.251-2.15-.325-2.815-.037-.31-.066-.547-.081-.7-.015-.126-.022-.192-.022-.192s-13.552-2.675-20.579-.148a8.706,8.706,0,0,0-.842.347s-.015.118-.044.347c-.074.517-.214,1.6-.414,3.074-.03.251-.066.51-.1.776a73.422,73.422,0,0,0,1.389,24.222c1.714,8.261,2.66,14.438,2.837,15.643.236,1.574.924,5.9,1.685,10.655-3.732,4.6-6.909,8.512-6.672,8.9.591.961,5.823,6.377,6.111,5.416,0,0,.946-1.071,2.424-2.778.473,2.9.791,4.892.791,4.892s5.734,1.367,7.847.126c0,0-.828-6.3-1.692-13.153C288.467,321.039,293.994,314.063,293.994,312.556Zm-12.717-2.084c-.074-3.865-1.788-25.515-1.611-25.515.85,0,5.608,20.616,5.786,23.52.037.591-.709,1.921-1.906,3.672-.539.791-1.175,1.663-1.869,2.586h0C281.44,312.622,281.285,311.063,281.277,310.472Z" transform="translate(-258.29 -207.9)" fill="#6e6e6e"/>
          <g id="Group_5605" data-name="Group 5605" transform="translate(8.446 19.947)">
            <path id="Path_6710" data-name="Path 6710" d="M295.91,219l-3.643,13.071c-.126.421-.273.946-.436,1.552l-.007.022c0,.007,0,.007-.007.015a51.318,51.318,0,0,0-1.581,9.828c-.155,2.69.347,13.507.347,13.507a36.424,36.424,0,0,1-13.766,1.537s-8.874-.207-8.15-5.645c1.914-14.4.044-20.342-.207-21.783,0,0-1.2-7-2.069-12.857,2.5-.931,13.167-4.515,13.167-4.515l5.527.414S293.486,216.213,295.91,219Z" transform="translate(-266.39 -213.73)" fill="#fff"/>
          </g>
          <g id="Group_5606" data-name="Group 5606" transform="translate(17.845 1.407)">
            <path id="Path_6711" data-name="Path 6711" d="M285.649,188.7s5.394.909,4.478,9.355-5.675,7.7-5.993,7.685-4.788.1-5.025-10.227C279.11,195.519,279.043,187.886,285.649,188.7Z" transform="translate(-279.11 -188.638)" fill="#eea987"/>
          </g>
          <g id="Group_5607" data-name="Group 5607" transform="translate(19.662 15.083)">
            <path id="Path_6712" data-name="Path 6712" d="M288.656,208.125a19.646,19.646,0,0,0,.14,4.234c.325.754-4.33,3.148-7.227.421a30.262,30.262,0,0,0,.406-5.143C281.8,206.3,288.656,208.125,288.656,208.125Z" transform="translate(-281.57 -207.147)" fill="#eea987"/>
          </g>
          <g id="Group_5608" data-name="Group 5608" transform="translate(28.622 8.16)">
            <path id="Path_6713" data-name="Path 6713" d="M294.053,198.053s.6-.628.805.015-.953,3.488-.887,3.621c0,0-.111.244-.251.111A30.974,30.974,0,0,1,294.053,198.053Z" transform="translate(-293.695 -197.778)" fill="#eea987"/>
          </g>
          <g id="Group_5609" data-name="Group 5609" transform="translate(17.065 7.913)">
            <path id="Path_6714" data-name="Path 6714" d="M278.9,197.736s-.569-.65-.805-.015.628,3.473.731,3.65c0,0,.185.3.333.163A32.3,32.3,0,0,0,278.9,197.736Z" transform="translate(-278.055 -197.443)" fill="#eea987"/>
          </g>
          <g id="Group_5610" data-name="Group 5610" transform="translate(17.471)">
            <path id="Path_6715" data-name="Path 6715" d="M290.453,194.453c-.185,1.153-.362,2.017-.362,2.017l-.783,1.027a21.016,21.016,0,0,0-.074-2.623c-.044-.133-.1-.377-.155-.635-.089-.429-.185-.909-.244-1.071-.1-.259-4.626-1.574-8.653.273a6.682,6.682,0,0,1,.03.739c0,.451-.052.961-.259,1.034-.384.14-.222,2.653-.222,2.653l-.628-.724s-.185-1.315-.362-2.823v-.007c-.037-.355-.081-.717-.118-1.071-.089-1.515.059-4.271,2.032-5.889,1.33-.569,3.458-1.057,7.012.03a2.414,2.414,0,0,1,1.042.273C290.919,190.086,290.453,194.453,290.453,194.453Z" transform="translate(-278.604 -186.734)" fill="#4b4b4b"/>
          </g>
          <path id="Path_6716" data-name="Path 6716" d="M282.62,210.25a3.442,3.442,0,0,0,2.86,1.153,3.88,3.88,0,0,0,2.867-1.086,3.485,3.485,0,0,1-2.874,1.958A3.54,3.54,0,0,1,282.62,210.25Z" transform="translate(-262.182 -192.874)" fill="#c78d71"/>
          <path id="Path_6717" data-name="Path 6717" d="M280.83,214.508a5.881,5.881,0,0,0,4.19,2.756c1.744.148,3.244-2.054,3.953-3.14A10.529,10.529,0,0,0,280.83,214.508Z" transform="translate(-261.714 -193.718)" fill="#eea987"/>
          <path id="Path_6718" data-name="Path 6718" d="M289.951,213.27a14.854,14.854,0,0,1-3.451,2.993l1.463,2.254,2.49-4.448Z" transform="translate(-263.195 -193.663)" fill="#9e9e9e"/>
          <path id="Path_6719" data-name="Path 6719" d="M281.412,213.73a10.023,10.023,0,0,0,3.532,2.653l-1.6,2.32-2.8-4.057Z" transform="translate(-261.639 -193.783)" fill="#9e9e9e"/>
          <path id="Path_6720" data-name="Path 6720" d="M286.046,217.32l1.249,1.906a2.6,2.6,0,0,1-2.534-.044Z" transform="translate(-262.74 -194.72)" fill="#d6d6d6"/>
          <path id="Path_6721" data-name="Path 6721" d="M269.07,274.763s6.768,2.5,22.071.148l-.207-2.771s-8.874,2.616-21.6.377Z" transform="translate(-258.644 -209.033)" fill="#6d6d6d"/>
          <path id="Path_6722" data-name="Path 6722" d="M291.36,214.35a169.137,169.137,0,0,0-1.367,22.02c.214,10.2,7.921,28.714,7.921,28.714s3.369-3.259,4.832-5.1c0,0-5.239-15.126-5.143-17.852s5.911-23.327,5.911-23.327S300.279,216.7,291.36,214.35Z" transform="translate(-264.102 -193.945)" fill="#060606"/>
          <path id="Path_6723" data-name="Path 6723" d="M275.851,215.03s.015,11.32-.207,21.517-1.559,29.18-1.559,29.18-7.537-1.2-9.007-3.037c0,0,3.052-17.653,2.956-20.379s-4.914-22.8-4.914-22.8S265.935,217.675,275.851,215.03Z" transform="translate(-257.09 -194.122)" fill="#060606"/>
          <rect id="Rectangle_468" data-name="Rectangle 468" width="4.16" height="3.089" transform="translate(19.655 63.957)" fill="#4a4a4a"/>
          <path id="Path_6724" data-name="Path 6724" d="M284.983,219.25s-1.855,6.34-2.017,18.931.229,16.2.229,16.2l1.448,2.867,1.929-2.993s-.621-28.973-.259-34.788Z" transform="translate(-262.262 -195.224)" fill="#a5a5a5"/>
          <g id="Group_5615" data-name="Group 5615" transform="translate(28.902 64.43)">
            <g id="Group_5614" data-name="Group 5614">
              <g id="Group_5613" data-name="Group 5613">
                <g id="Group_5612" data-name="Group 5612">
                  <g id="Group_5611" data-name="Group 5611">
                    <path id="Path_6725" data-name="Path 6725" d="M298.564,280.75a2.522,2.522,0,0,0,.576-.517s.192-.406.347-.687c.052-.089.1-.163.133-.214a4.156,4.156,0,0,0,.746-1.153,23.76,23.76,0,0,0,.377-3.163l-1.6-.465-1.419-.621a30.458,30.458,0,0,0-3.369,2.882c-.022.052-.044.1-.066.148a4.693,4.693,0,0,0-.148,1.079c-.022.089-.17.983.044,1.182a1.087,1.087,0,0,0,.916.318,2.5,2.5,0,0,0,1.16.562,1.61,1.61,0,0,0,1.256.377C297.529,280.469,298.128,280.913,298.564,280.75Z" transform="translate(-294.075 -273.93)" fill="#eea886"/>
                  </g>
                </g>
              </g>
            </g>
          </g>
          <g id="Group_5616" data-name="Group 5616" transform="translate(31.359 24.868)">
            <path id="Path_6726" data-name="Path 6726" d="M297.4,259.656a16.856,16.856,0,0,0,5.18,2.919s10.02-16.323,10.145-17.5c.118-1.094-4.973-23.283-7.264-24.687L301.294,232.6c.273-.081,4.744,9.273,4.759,10.478C306.067,244.678,297.4,259.656,297.4,259.656Z" transform="translate(-297.4 -220.39)" fill="#060606"/>
          </g>
          <g id="Group_5617" data-name="Group 5617" transform="translate(0 25.393)">
            <path id="Path_6727" data-name="Path 6727" d="M260.465,268.627a25.243,25.243,0,0,1-5.5.236s1.271-20.948,1.145-22.13c-.118-1.086,2.608-24.229,4.906-25.633l4.094,12.332c-.273-.081-2.741,12.621-2.764,13.818C262.3,248.868,260.465,268.627,260.465,268.627Z" transform="translate(-254.96 -221.1)" fill="#060606"/>
          </g>
          <path id="Path_6728" data-name="Path 6728" d="M293.294,276.67l6.436,3.34-2.534,4.685-5.475-5.86Z" transform="translate(-264.558 -210.216)" fill="#646464"/>
          <path id="Path_6729" data-name="Path 6729" d="M288.479,327.83l-.65,12.739-1.219-10.145h0C287.3,329.485,287.94,328.613,288.479,327.83Z" transform="translate(-263.223 -223.573)" fill="#545454"/>
        </g>
        <g id="Group_5619" data-name="Group 5619" transform="translate(160.765 67.477)">
          <rect id="Rectangle_469" data-name="Rectangle 469" width="3.754" height="12.318" fill="#c2c2c2"/>
        </g>
        <path id="Path_6730" data-name="Path 6730" d="M420.245,223.2a17.412,17.412,0,1,1-17.409-17.416A17.41,17.41,0,0,1,420.245,223.2Z" transform="translate(-121.119 -73.655)" fill="#efefef"/>
        <g id="Group_5620" data-name="Group 5620" transform="translate(154.603 70.936)">
          <rect id="Rectangle_470" data-name="Rectangle 470" width="3.754" height="8.86" fill="#c2c2c2"/>
        </g>
        <g id="Group_5621" data-name="Group 5621" transform="translate(166.92 61.773)">
          <rect id="Rectangle_471" data-name="Rectangle 471" width="3.754" height="18.029" fill="#c2c2c2"/>
        </g>
        <g id="Group_5710" data-name="Group 5710" transform="translate(263.211 147.791)">
          <g id="Group_5622" data-name="Group 5622" transform="translate(60.227 51.654)">
            <rect id="Rectangle_472" data-name="Rectangle 472" width="24.162" height="1.433" transform="translate(24.162 1.433) rotate(180)" fill="#e2d2ca"/>
          </g>
          <g id="Group_5623" data-name="Group 5623" transform="translate(79.031 56.821)">
            <rect id="Rectangle_473" data-name="Rectangle 473" width="2.121" height="65.231" fill="#676767"/>
          </g>
          <g id="Group_5624" data-name="Group 5624" transform="translate(47.211 51.248)">
            <rect id="Rectangle_474" data-name="Rectangle 474" width="16.795" height="2.047" transform="translate(16.795 2.047) rotate(180)" fill="#ccbdb7"/>
          </g>
          <g id="Group_5625" data-name="Group 5625" transform="translate(52.427 33.77)">
            <rect id="Rectangle_475" data-name="Rectangle 475" width="6.362" height="19.315" transform="translate(6.362 19.315) rotate(180)" fill="#7b7b7b"/>
          </g>
          <g id="Group_5626" data-name="Group 5626" transform="translate(0 53.106)">
            <rect id="Rectangle_476" data-name="Rectangle 476" width="93.059" height="3.709" transform="translate(93.059 3.709) rotate(180)" fill="#7e7e7e"/>
          </g>
          <g id="Group_5627" data-name="Group 5627" transform="translate(100.632 24.426)">
            <path id="Path_6731" data-name="Path 6731" d="M530.417,266.269s1.02,14.276-1.773,15.983c-1.744,1.071-8.712,4.677-8.5,5.357s3.931,6.022,3.931,6.022,13.382-8.808,13.81-11.586c.421-2.712-.658-20.9-2.5-21.739-1.374-.628-2.106-.111-3.842,1.182C529.109,263.3,530.417,266.269,530.417,266.269Z" transform="translate(-520.134 -260.039)" fill="#858585"/>
          </g>
          <g id="Group_5630" data-name="Group 5630" transform="translate(94.452 112.77)">
            <g id="Group_5629" data-name="Group 5629">
              <g id="Group_5628" data-name="Group 5628">
                <path id="Path_6732" data-name="Path 6732" d="M511.77,379.969s.414,2.889.465,3.325,4.626-.259,4.626-.259l.369-3.436C517.238,379.6,512.346,379.563,511.77,379.969Z" transform="translate(-511.77 -379.599)" fill="#424773"/>
              </g>
            </g>
          </g>
          <g id="Group_5633" data-name="Group 5633" transform="translate(86.934 115.904)">
            <g id="Group_5632" data-name="Group 5632">
              <g id="Group_5631" data-name="Group 5631">
                <path id="Path_6733" data-name="Path 6733" d="M509.535,384.032a12.206,12.206,0,0,1-2.852,2.5c-1.4.761-3.606,1.057-4.434,1.847-.6.569-2.18,3.007,3.643,2.956s8.631.347,9.259-.591-.9-6.9-.9-6.9A12.365,12.365,0,0,1,509.535,384.032Z" transform="translate(-501.595 -383.84)" fill="#292c47"/>
              </g>
            </g>
          </g>
          <g id="Group_5636" data-name="Group 5636" transform="translate(65.132 112.793)">
            <g id="Group_5635" data-name="Group 5635">
              <g id="Group_5634" data-name="Group 5634">
                <path id="Path_6734" data-name="Path 6734" d="M472.09,380.007s.414,2.889.466,3.318,4.626-.259,4.626-.259l.369-3.436C477.558,379.637,472.666,379.6,472.09,380.007Z" transform="translate(-472.09 -379.63)" fill="#424773"/>
              </g>
            </g>
          </g>
          <g id="Group_5639" data-name="Group 5639" transform="translate(54.924 115.934)">
            <g id="Group_5638" data-name="Group 5638">
              <g id="Group_5637" data-name="Group 5637">
                <path id="Path_6735" data-name="Path 6735" d="M468.9,384.072a12.206,12.206,0,0,1-2.852,2.5c-1.4.761-6.562,1.382-7.389,2.165-.6.569-1.6,2.845,6.6,2.638,5.823-.155,8.63.347,9.259-.591s-.9-6.9-.9-6.9S472.318,384.4,468.9,384.072Z" transform="translate(-458.275 -383.88)" fill="#292c47"/>
              </g>
            </g>
          </g>
          <g id="Group_5642" data-name="Group 5642" transform="translate(61.459 63.257)">
            <g id="Group_5641" data-name="Group 5641">
              <g id="Group_5640" data-name="Group 5640">
                <path id="Path_6736" data-name="Path 6736" d="M514.876,312.59s-16.64,2.815-20.394,3.406-24.133,5.66-26.682,7.2c-2.032,1.227,1.064,30.768,1.788,42.037h8.025l.584-33.805c9.628.244,16.507-2.254,23.52-1.19s12.857,2.579,17.313-3.4C519.021,326.844,519.191,313.9,514.876,312.59Z" transform="translate(-467.119 -312.59)" fill="#292c47"/>
              </g>
            </g>
          </g>
          <g id="Group_5645" data-name="Group 5645" transform="translate(90.328 66.84)">
            <g id="Group_5644" data-name="Group 5644">
              <g id="Group_5643" data-name="Group 5643">
                <path id="Path_6737" data-name="Path 6737" d="M508.68,366.526l7.818-.488.761-33.347a47.65,47.65,0,0,0,8.926-.569l6.31-14.682c-5.534,1.108-23.268,5.579-25.633,7.012C504.837,325.694,507.956,355.258,508.68,366.526Z" transform="translate(-506.189 -317.44)" fill="#292c47"/>
              </g>
            </g>
          </g>
          <g id="Group_5648" data-name="Group 5648" transform="translate(91.866 0.601)">
            <g id="Group_5647" data-name="Group 5647">
              <g id="Group_5646" data-name="Group 5646">
                <path id="Path_6738" data-name="Path 6738" d="M517.957,228.087s-6.1-1.685-8.424,3.052-1.271,13.714,1.8,14.557,7.493-.126,8.771-3.074,2.291-7.138,1.988-9.85S519.583,228.73,517.957,228.087Z" transform="translate(-508.271 -227.796)" fill="#eea886"/>
              </g>
            </g>
          </g>
          <g id="Group_5651" data-name="Group 5651" transform="translate(96.183 13.397)">
            <g id="Group_5650" data-name="Group 5650">
              <g id="Group_5649" data-name="Group 5649">
                <path id="Path_6739" data-name="Path 6739" d="M514.458,249.264s.066,3.6-.333,4.367,8.49.576,8.49.576a18,18,0,0,1-.606-8.01C522.8,242.554,514.458,249.264,514.458,249.264Z" transform="translate(-514.112 -245.113)" fill="#eea886"/>
              </g>
            </g>
          </g>
          <g id="Group_5654" data-name="Group 5654" transform="translate(91.676)">
            <g id="Group_5653" data-name="Group 5653">
              <g id="Group_5652" data-name="Group 5652">
                <path id="Path_6740" data-name="Path 6740" d="M520.9,240.1s-.473.968-2.778.813-5.335-2.933-6.31-3.177-1.034-.805-1.034-.805l-.517.916-1,.155s.68-2.786-.805-3.761.665-8.867,8.172-6.968c0,0,5.727,1.049,5.8,4.249S522.013,238.412,520.9,240.1Z" transform="translate(-508.013 -226.982)" fill="#3a3f47"/>
              </g>
            </g>
          </g>
          <g id="Group_5657" data-name="Group 5657" transform="translate(95.73 19.456)">
            <g id="Group_5656" data-name="Group 5656">
              <g id="Group_5655" data-name="Group 5655">
                <path id="Path_6741" data-name="Path 6741" d="M513.5,255.683s.022-1.47.687-1.611,6.99-1.012,7.8-.687l.347,1.936C522.345,255.32,520.771,256.288,513.5,255.683Z" transform="translate(-513.5 -253.312)" fill="#e2d2ca"/>
              </g>
            </g>
          </g>
          <g id="Group_5660" data-name="Group 5660" transform="translate(93.82 7.664)">
            <g id="Group_5659" data-name="Group 5659">
              <g id="Group_5658" data-name="Group 5658">
                <path id="Path_6742" data-name="Path 6742" d="M510.992,238.984c.17-1.2,1.537-2.586,2.32-.709s-.525,4.6-1.4,4.456S510.763,240.61,510.992,238.984Z" transform="translate(-510.914 -237.354)" fill="#eea886"/>
              </g>
            </g>
          </g>
          <g id="Group_5663" data-name="Group 5663" transform="translate(69.216 39.153)">
            <g id="Group_5662" data-name="Group 5662">
              <g id="Group_5661" data-name="Group 5661">
                <path id="Path_6743" data-name="Path 6743" d="M477.641,279.97h.007C477.612,279.992,477.6,279.992,477.641,279.97Z" transform="translate(-477.617 -279.97)" fill="#323657"/>
              </g>
            </g>
          </g>
          <g id="Group_5666" data-name="Group 5666" transform="translate(103.334 1.749)">
            <g id="Group_5665" data-name="Group 5665">
              <g id="Group_5664" data-name="Group 5664">
                <path id="Path_6744" data-name="Path 6744" d="M523.79,229.35s7.433-.347,1.3,11.261Z" transform="translate(-523.79 -229.348)" fill="#3a3f47"/>
              </g>
            </g>
          </g>
          <g id="Group_5668" data-name="Group 5668" transform="translate(95.974 111.049)">
            <g id="Group_5667" data-name="Group 5667">
              <path id="Path_6745" data-name="Path 6745" d="M537.763,386.107l-.554,1.552-23.379-7.241,1.123-3.148Z" transform="translate(-513.83 -377.27)" fill="#918783"/>
            </g>
          </g>
          <g id="Group_5670" data-name="Group 5670" transform="translate(95.172 87.678)">
            <g id="Group_5669" data-name="Group 5669" transform="translate(0 0)">
              <rect id="Rectangle_477" data-name="Rectangle 477" width="2.66" height="25.411" transform="translate(2.66 25.411) rotate(180)" fill="#918783"/>
            </g>
          </g>
          <g id="Group_5672" data-name="Group 5672" transform="translate(88.669 86.324)">
            <g id="Group_5671" data-name="Group 5671" transform="translate(0 0)">
              <rect id="Rectangle_478" data-name="Rectangle 478" width="15.672" height="1.5" transform="translate(15.672 1.5) rotate(180)" fill="#5e5854"/>
            </g>
          </g>
          <g id="Group_5674" data-name="Group 5674" transform="translate(72.898 110.85)">
            <g id="Group_5673" data-name="Group 5673">
              <path id="Path_6746" data-name="Path 6746" d="M482.6,386.037l.554,1.552,23.372-7.241L505.5,377Z" transform="translate(-482.6 -377)" fill="#918783"/>
            </g>
          </g>
          <g id="Group_5676" data-name="Group 5676" transform="translate(89.368 110.85)">
            <g id="Group_5675" data-name="Group 5675">
              <path id="Path_6747" data-name="Path 6747" d="M504.89,387.426v1.81l7.456-8.889L511.319,377Z" transform="translate(-504.89 -377)" fill="#918783"/>
            </g>
          </g>
          <g id="Group_5678" data-name="Group 5678" transform="translate(70.711 119.865)">
            <g id="Group_5677" data-name="Group 5677">
              <path id="Path_6748" data-name="Path 6748" d="M479.64,391.387a2.187,2.187,0,1,0,2.187-2.187A2.187,2.187,0,0,0,479.64,391.387Z" transform="translate(-479.64 -389.2)" fill="#bfb2ac"/>
            </g>
          </g>
          <g id="Group_5680" data-name="Group 5680" transform="translate(89.184 119.865)">
            <g id="Group_5679" data-name="Group 5679">
              <path id="Path_6749" data-name="Path 6749" d="M504.64,391.387a2.187,2.187,0,1,0,2.187-2.187A2.187,2.187,0,0,0,504.64,391.387Z" transform="translate(-504.64 -389.2)" fill="#bfb2ac"/>
            </g>
          </g>
          <g id="Group_5682" data-name="Group 5682" transform="translate(117.72 119.865)">
            <g id="Group_5681" data-name="Group 5681">
              <path id="Path_6750" data-name="Path 6750" d="M543.26,391.387a2.187,2.187,0,1,0,2.187-2.187A2.187,2.187,0,0,0,543.26,391.387Z" transform="translate(-543.26 -389.2)" fill="#bfb2ac"/>
            </g>
          </g>
          <g id="Group_5683" data-name="Group 5683" transform="translate(77.841 80.651)">
            <path id="Path_6751" data-name="Path 6751" d="M492.09,341.8h31.522a2.8,2.8,0,0,0,2.8-2.8v-.074a2.8,2.8,0,0,0-2.8-2.8H492.09a2.8,2.8,0,0,0-2.8,2.8V339A2.8,2.8,0,0,0,492.09,341.8Z" transform="translate(-489.29 -336.13)" fill="#535353"/>
          </g>
          <g id="Group_5684" data-name="Group 5684" transform="translate(11.905 56.815)">
            <rect id="Rectangle_479" data-name="Rectangle 479" width="2.113" height="65.231" transform="translate(2.113 65.231) rotate(180)" fill="#676767"/>
          </g>
          <g id="Group_5685" data-name="Group 5685" transform="translate(28.149 4.328)">
            <path id="Path_6752" data-name="Path 6752" d="M424.833,271.581h49.33a2.791,2.791,0,0,0,2.793-2.793V235.633a2.791,2.791,0,0,0-2.793-2.793h-49.33a2.791,2.791,0,0,0-2.793,2.793v33.155A2.791,2.791,0,0,0,424.833,271.581Z" transform="translate(-422.04 -232.84)" fill="#828282"/>
          </g>
          <g id="Group_5686" data-name="Group 5686" transform="translate(30.304 6.422)">
            <rect id="Rectangle_480" data-name="Rectangle 480" width="50.615" height="30.576" transform="translate(50.615 30.576) rotate(180)" fill="#fff"/>
          </g>
          <g id="Group_5687" data-name="Group 5687" transform="translate(30.304 6.423)">
            <rect id="Rectangle_481" data-name="Rectangle 481" width="50.615" height="2.431" transform="translate(50.615 2.431) rotate(180)" fill="#cbcbcb"/>
          </g>
          <g id="Group_5688" data-name="Group 5688" transform="translate(32.169 10.69)">
            <path id="Path_6753" data-name="Path 6753" d="M429.209,265.878h2.645a1.731,1.731,0,0,0,1.729-1.729v-20.97a1.731,1.731,0,0,0-1.729-1.729h-2.645a1.731,1.731,0,0,0-1.729,1.729v20.97A1.731,1.731,0,0,0,429.209,265.878Z" transform="translate(-427.48 -241.45)" fill="#cbcbcb"/>
          </g>
          <g id="Group_5689" data-name="Group 5689" transform="translate(68.354 10.69)">
            <path id="Path_6754" data-name="Path 6754" d="M477.381,243.711h9.266a.932.932,0,0,0,.931-.931v-.4a.932.932,0,0,0-.931-.931h-9.266a.932.932,0,0,0-.931.931v.4A.937.937,0,0,0,477.381,243.711Z" transform="translate(-476.45 -241.45)" fill="#cbcbcb"/>
          </g>
          <g id="Group_5690" data-name="Group 5690" transform="translate(68.354 14.466)">
            <path id="Path_6755" data-name="Path 6755" d="M478.379,267.833h7.278a1.93,1.93,0,0,0,1.929-1.929V248.489a1.93,1.93,0,0,0-1.929-1.929h-7.278a1.93,1.93,0,0,0-1.929,1.929V265.9A1.925,1.925,0,0,0,478.379,267.833Z" transform="translate(-476.45 -246.56)" fill="#cbcbcb"/>
          </g>
          <g id="Group_5691" data-name="Group 5691" transform="translate(53.841 38.082)">
            <path id="Path_6756" data-name="Path 6756" d="M456.81,280.293a1.773,1.773,0,1,0,1.773-1.773A1.774,1.774,0,0,0,456.81,280.293Z" transform="translate(-456.81 -278.52)" fill="#5c5552"/>
          </g>
          <g id="Group_5692" data-name="Group 5692" transform="translate(44.243 48.183)">
            <path id="Path_6757" data-name="Path 6757" d="M443.82,297.163v-.687s.968-4.286,7.825-4.286,6.717,4.98,6.717,4.98H443.82Z" transform="translate(-443.82 -292.19)" fill="#2e436e"/>
          </g>
          <g id="Group_5694" data-name="Group 5694" transform="translate(46.559 46.164)">
            <g id="Group_5693" data-name="Group 5693">
              <path id="Path_6758" data-name="Path 6758" d="M459.261,292.112a6.826,6.826,0,0,1-2.032-.443c-.547-.332-3.813-2.527-4.574-2.172s-5.867,1.914-5.7,2.66.65.672,1.012.539a25.918,25.918,0,0,1,4.4-.776s-3.643,1.33-3.658,2.3.761,1.2,1.108,1.574.761,1.278,1.7,1.345,5.512-1.522,6.458-1.6a22.876,22.876,0,0,0,2.808-.1A28.23,28.23,0,0,0,459.261,292.112Z" transform="translate(-446.954 -289.458)" fill="#eea886"/>
            </g>
          </g>
          <g id="Group_5697" data-name="Group 5697" transform="translate(57.329 21.464)">
            <g id="Group_5696" data-name="Group 5696">
              <g id="Group_5695" data-name="Group 5695">
                <path id="Path_6759" data-name="Path 6759" d="M490.185,258.424c4.751-.835,9.746-2.032,9.746-2.032l8.845-.362s8.121,1.788,11.313,3.229c.3.14.3,7.241,1.138,9.1l-2.653,5.594s-1.53,11.076-1.847,16c-.148,2.261.414,21.857.414,21.857s-.8.392-6.828,1.057-21.118-.244-21.214-.953,2.919-26.549,3.052-27.887c.207-2.054-.591-11.542-.591-11.542-1.138,1.53-4.034,8.424-7.057,11.712-1.781,1.929-10.581,3.118-12.236,3.17-3.613.118-10.2.842-10.4.488-.155-.214-.576-5.845-.163-5.985.362-.118,12.6-.828,15.731-2.49,1.145-.606,4.574-8.084,4.574-8.084S487.562,259.6,490.185,258.424Z" transform="translate(-461.531 -256.03)" fill="#858585"/>
              </g>
            </g>
          </g>
          <g id="Group_5698" data-name="Group 5698" transform="translate(98.028 41.222)">
            <path id="Path_6760" data-name="Path 6760" d="M521.989,318.23h14.845a5.38,5.38,0,0,0,5.379-5.379v-24.7a5.38,5.38,0,0,0-5.379-5.379H521.989a5.38,5.38,0,0,0-5.379,5.379v24.7A5.389,5.389,0,0,0,521.989,318.23Z" transform="translate(-516.61 -282.77)" fill="#535353"/>
          </g>
          <g id="Group_5699" data-name="Group 5699" transform="translate(101.147 63.856)">
            <path id="Path_6761" data-name="Path 6761" d="M522.256,334.459a11.724,11.724,0,0,0,9.1-3.768c5.121-5.653,4.2-15.584,4.153-16a1.426,1.426,0,0,0-2.837.281c.015.111.828,9.118-3.436,13.818a8.887,8.887,0,0,1-6.983,2.823,1.426,1.426,0,0,0,0,2.852Z" transform="translate(-520.83 -313.401)" fill="#535353"/>
          </g>
          <g id="Group_5716" data-name="Group 5716" transform="translate(41.582 11.277)">
            <path id="Path_6676-2" data-name="Path 6676" d="M393.265,80.448a6.654,6.654,0,0,1-2.31,5.051c-.076.065-.155.131-.235.194s-.181.139-.274.207a6.638,6.638,0,0,1-3.037,1.176q-.3.036-.6.046c-.072,0-.146,0-.22,0-.216,0-.429-.011-.64-.03a6.062,6.062,0,0,1-.695-.1,6.609,6.609,0,0,1-2.728-1.245,6.721,6.721,0,0,1-.675-.594c-.041-.041-.083-.083-.122-.126q-.225-.238-.425-.5a6.677,6.677,0,1,1,11.962-4.08Z" transform="translate(-379.91 -73.77)" fill="#efefef"/>
            <g id="Group_5572-2" data-name="Group 5572" transform="translate(1.396 2.929)">
              <g id="Group_5564-2" data-name="Group 5564" transform="translate(0.934 5.878)">
                <path id="Path_6677-2" data-name="Path 6677" d="M399.308,115.775l-.492,1.766a6.638,6.638,0,0,1-3.037,1.176q-.3.036-.6.046c-.072,0-.146,0-.22,0-.216,0-.429-.011-.64-.03a6.066,6.066,0,0,1-.695-.1,6.609,6.609,0,0,1-2.728-1.245c-.094-.584-.2-1.23-.285-1.835.49-.183,2.053-.714,3.037-1.047l.041-.013c.022-.009.044-.015.063-.022l.168-.057c.054-.017.1-.035.152-.052l.394-.133h0l.02-.007h.011l1.326.1.222.017.07,0,.03.007c.081.02.311.081.621.174h0A6.529,6.529,0,0,1,399.308,115.775Z" transform="translate(-390.61 -114.22)" fill="#fff"/>
              </g>
              <g id="Group_5565-2" data-name="Group 5565" transform="translate(3.706 0.414)">
                <path id="Path_6678-2" data-name="Path 6678" d="M405.266,89.146s1.589.268,1.319,2.756-1.672,2.269-1.766,2.264-1.411.03-1.481-3.013C403.337,91.155,403.317,88.906,405.266,89.146Z" transform="translate(-403.339 -89.128)" fill="#eea987"/>
              </g>
              <g id="Group_5566-2" data-name="Group 5566" transform="translate(4.239 4.446)">
                <path id="Path_6679-2" data-name="Path 6679" d="M407.878,107.932a5.787,5.787,0,0,0,.041,1.248c.1.222-1.276.928-2.129.124a8.917,8.917,0,0,0,.12-1.515C405.858,107.392,407.878,107.932,407.878,107.932Z" transform="translate(-405.79 -107.643)" fill="#eea987"/>
              </g>
              <g id="Group_5567-2" data-name="Group 5567" transform="translate(6.88 2.404)">
                <path id="Path_6680-2" data-name="Path 6680" d="M418.023,98.349s.176-.185.237,0-.281,1.028-.261,1.067c0,0-.033.072-.074.033A9.585,9.585,0,0,1,418.023,98.349Z" transform="translate(-417.918 -98.268)" fill="#eea987"/>
              </g>
              <g id="Group_5568-2" data-name="Group 5568" transform="translate(3.474 2.334)">
                <path id="Path_6681-2" data-name="Path 6681" d="M402.524,98.029s-.17-.192-.237,0A3.22,3.22,0,0,0,402.5,99.1s.054.085.1.048A9.52,9.52,0,0,0,402.524,98.029Z" transform="translate(-402.275 -97.943)" fill="#eea987"/>
              </g>
              <g id="Group_5569-2" data-name="Group 5569" transform="translate(3.593)">
                <path id="Path_6682-2" data-name="Path 6682" d="M406.316,89.5c-.054.34-.107.594-.107.594l-.231.3a6.2,6.2,0,0,0-.022-.773c-.013-.039-.028-.111-.046-.187-.026-.126-.054-.268-.072-.316a3.41,3.41,0,0,0-2.55.081,1.967,1.967,0,0,1,.009.218c0,.133-.015.283-.076.3-.113.041-.065.782-.065.782l-.185-.213s-.054-.388-.107-.832v0c-.011-.1-.024-.211-.035-.316a2.081,2.081,0,0,1,.6-1.735,2.864,2.864,0,0,1,2.064.009.711.711,0,0,1,.307.081A2.944,2.944,0,0,1,406.316,89.5Z" transform="translate(-402.824 -87.225)" fill="#363636"/>
              </g>
              <path id="Path_6683-2" data-name="Path 6683" d="M406.84,110.75a1.014,1.014,0,0,0,.843.34,1.143,1.143,0,0,0,.845-.32,1.027,1.027,0,0,1-.847.577A1.043,1.043,0,0,1,406.84,110.75Z" transform="translate(-402.372 -105.628)" fill="#c78d71"/>
              <path id="Path_6684-2" data-name="Path 6684" d="M405.05,114.285a1.733,1.733,0,0,0,1.235.812c.514.044.956-.605,1.165-.925A3.1,3.1,0,0,0,405.05,114.285Z" transform="translate(-400.972 -108.157)" fill="#eea987"/>
              <path id="Path_6685-2" data-name="Path 6685" d="M411.737,113.77a4.377,4.377,0,0,1-1.017.882l.431.664.734-1.311Z" transform="translate(-405.407 -107.99)" fill="#eddad3"/>
              <path id="Path_6686-2" data-name="Path 6686" d="M405.027,114.23a2.953,2.953,0,0,0,1.041.782l-.472.684-.825-1.2Z" transform="translate(-400.753 -108.35)" fill="#eddad3"/>
              <path id="Path_6687-2" data-name="Path 6687" d="M409.359,117.82l.368.562a.766.766,0,0,1-.747-.013Z" transform="translate(-404.046 -111.158)" fill="#5073ab"/>
              <path id="Path_6688-2" data-name="Path 6688" d="M418.306,116.163s0,.013-.011.037c-.041.144-.2.7-.4,1.435-.076.065-.155.131-.235.194s-.181.139-.274.207a6.638,6.638,0,0,1-3.037,1.176c.1-2.31.372-4.361.372-4.361.216.057.422.113.616.17h0a13.964,13.964,0,0,1,2.846,1.076s0,0,.007,0A1.059,1.059,0,0,1,418.306,116.163Z" transform="translate(-408.247 -108.835)" fill="#0e0e0e"/>
              <path id="Path_6689-2" data-name="Path 6689" d="M391.075,119.658a6.609,6.609,0,0,1-2.728-1.245,6.723,6.723,0,0,1-.675-.594c-.041-.041-.083-.083-.122-.126-.118-.5-.194-.821-.2-.84h0a15.114,15.114,0,0,1,3.747-1.322v0C391.1,115.6,391.1,117.472,391.075,119.658Z" transform="translate(-387.126 -109.367)" fill="#0e0e0e"/>
              <path id="Path_6690-2" data-name="Path 6690" d="M408.53,119.952c-.026.607-.03,1.79-.02,3.137-.072,0-.146,0-.22,0-.216,0-.429-.011-.64-.03a20.241,20.241,0,0,1,.444-3.111c.033-.135.052-.2.052-.2l.392.065C408.534,119.857,408.532,119.9,408.53,119.952Z" transform="translate(-403.006 -112.668)" fill="#2a2a2a"/>
              <g id="Group_5570-2" data-name="Group 5570" transform="translate(9.415 7.258)">
                <path id="Path_6691-2" data-name="Path 6691" d="M430.542,121.346a6.619,6.619,0,0,1-.747.756c-.076.065-.155.131-.235.194l.525-1.735h0l.007,0a.45.45,0,0,1,.1.1A3.158,3.158,0,0,1,430.542,121.346Z" transform="translate(-429.56 -120.56)" fill="#323657"/>
              </g>
              <g id="Group_5571-2" data-name="Group 5571" transform="translate(0 7.482)">
                <path id="Path_6692-2" data-name="Path 6692" d="M386.866,122.559c-.041-.041-.083-.083-.122-.126q-.225-.238-.425-.5a.773.773,0,0,1,.224-.346h0Z" transform="translate(-386.32 -121.59)" fill="#323657"/>
              </g>
            </g>
          </g>
        </g>
        <g id="Group_5711" data-name="Group 5711" transform="translate(280.831 142.588)">
          <path id="Path_6779" data-name="Path 6779" d="M408.669,233.832a.877.877,0,0,1-.879-.879V220.819a.879.879,0,0,1,1.759,0v12.133A.877.877,0,0,1,408.669,233.832Z" transform="translate(-407.79 -219.94)" fill="#949494"/>
        </g>
        <g id="Group_5712" data-name="Group 5712" transform="translate(274.764 148.654)">
          <path id="Path_6780" data-name="Path 6780" d="M412.592,229.909H400.459a.879.879,0,0,1,0-1.759h12.133a.879.879,0,0,1,0,1.759Z" transform="translate(-399.58 -228.15)" fill="#949494"/>
        </g>
      </g>
    </g>
  </g>
</svg>
