<svg id="Illustration" xmlns="http://www.w3.org/2000/svg" xmlns:xlink="http://www.w3.org/1999/xlink" width="507.586" height="507.946" viewBox="0 0 507.586 507.946">
  <defs>
    <linearGradient id="linear-gradient" x1="120.21" y1="0.531" x2="121.218" y2="0.531" gradientUnits="objectBoundingBox">
      <stop offset="0" stop-color="#febbba"/>
      <stop offset="1" stop-color="#ff928e"/>
    </linearGradient>
    <linearGradient id="linear-gradient-2" x1="140.102" y1="0.549" x2="141.116" y2="0.549" xlink:href="#linear-gradient"/>
    <linearGradient id="linear-gradient-3" x1="23.161" y1="0.495" x2="24.154" y2="0.495" xlink:href="#linear-gradient"/>
    <linearGradient id="linear-gradient-4" x1="0.198" y1="1.541" x2="0.536" y2="0.206" xlink:href="#linear-gradient"/>
    <linearGradient id="linear-gradient-5" x1="166.925" y1="0.664" x2="168.926" y2="-1.117" xlink:href="#linear-gradient"/>
    <linearGradient id="linear-gradient-6" x1="18.461" y1="0.528" x2="19.463" y2="0.528" xlink:href="#linear-gradient"/>
    <linearGradient id="linear-gradient-7" x1="46.169" y1="0.518" x2="47.16" y2="0.518" xlink:href="#linear-gradient"/>
    <linearGradient id="linear-gradient-8" x1="-17.891" y1="9.251" x2="-18.215" y2="8.185" xlink:href="#linear-gradient"/>
    <linearGradient id="linear-gradient-9" x1="-59.427" y1="42.097" x2="-60.374" y2="37.484" xlink:href="#linear-gradient"/>
    <linearGradient id="linear-gradient-10" x1="55.526" y1="0.5" x2="56.526" y2="0.5" xlink:href="#linear-gradient"/>
    <linearGradient id="linear-gradient-11" y1="0.5" x2="1" y2="0.5" gradientUnits="objectBoundingBox">
      <stop offset="0" stop-color="#dae3fe"/>
      <stop offset="1" stop-color="#e9effd"/>
    </linearGradient>
    <linearGradient id="linear-gradient-12" x1="0" y1="0.5" x2="1" y2="0.5" xlink:href="#linear-gradient"/>
    <linearGradient id="linear-gradient-13" x1="0" y1="0.5" x2="1" y2="0.5" xlink:href="#linear-gradient"/>
    <linearGradient id="linear-gradient-14" x1="0.367" y1="0.85" x2="0.601" y2="0.282" xlink:href="#linear-gradient"/>
    <linearGradient id="linear-gradient-15" x1="0" y1="0.5" x2="1" y2="0.5" xlink:href="#linear-gradient"/>
    <linearGradient id="linear-gradient-16" x1="15.516" y1="3.898" x2="14.476" y2="4.648" xlink:href="#linear-gradient"/>
    <linearGradient id="linear-gradient-17" x1="63.091" y1="11.365" x2="58.814" y2="13.975" xlink:href="#linear-gradient"/>
    <linearGradient id="linear-gradient-18" x1="0" y1="0.5" x2="1" y2="0.5" xlink:href="#linear-gradient"/>
    <linearGradient id="linear-gradient-19" x1="0" y1="0.5" x2="1" y2="0.5" xlink:href="#linear-gradient"/>
    <linearGradient id="linear-gradient-20" x1="0.751" y1="1.908" x2="0.44" y2="0.311" xlink:href="#linear-gradient"/>
    <linearGradient id="linear-gradient-21" x1="-20.375" y1="24.868" x2="-18.974" y2="25.621" xlink:href="#linear-gradient"/>
    <linearGradient id="linear-gradient-22" x1="-87.982" y1="80.032" x2="-82.113" y2="82.475" xlink:href="#linear-gradient"/>
    <linearGradient id="linear-gradient-23" x1="0.623" y1="0.5" x2="1.623" y2="0.5" xlink:href="#linear-gradient"/>
    <linearGradient id="linear-gradient-24" x1="-233.09" y1="1.164" x2="-233.353" y2="-0.58" xlink:href="#linear-gradient"/>
    <linearGradient id="linear-gradient-25" x1="-272.118" y1="1.13" x2="-272.402" y2="-0.791" xlink:href="#linear-gradient"/>
    <linearGradient id="linear-gradient-26" x1="1.662" y1="-0.457" x2="0.031" y2="1.187" xlink:href="#linear-gradient"/>
    <linearGradient id="linear-gradient-27" x1="-33.989" y1="0.5" x2="-32.989" y2="0.5" xlink:href="#linear-gradient"/>
    <linearGradient id="linear-gradient-28" x1="-131.025" y1="1.029" x2="-129.736" y2="0.222" xlink:href="#linear-gradient"/>
    <linearGradient id="linear-gradient-29" x1="-105.065" y1="0.175" x2="-106.382" y2="1.493" xlink:href="#linear-gradient"/>
    <linearGradient id="linear-gradient-30" x1="-333.498" y1="2.763" x2="-330.236" y2="0.44" xlink:href="#linear-gradient"/>
  </defs>
  <g id="Group_4998" data-name="Group 4998">
    <path id="Path_5198" data-name="Path 5198" d="M971.877,815.26c-48.528,114.264-177.8,178.275-289.9,161.009-18.241-2.81-68.25-11.18-112.525-50.664-85.233-76.01-103.461-226.523-34.706-332.592,50.041-77.2,139.747-120.962,224.984-118.773,18.36.471,88.724,3.377,150.562,54.367a231.933,231.933,0,0,1,47.171,53.521C999.859,648.425,1003.5,740.793,971.877,815.26Z" transform="translate(-488.469 -471.692)" fill="#f8f8f8"/>
    <g id="Group_4957" data-name="Group 4957" transform="translate(0 133.7)">
      <path id="Path_5199" data-name="Path 5199" d="M504.882,1359.58l34.052,37.273c-21.308,16.073-34.673,47.612.995,85.118l-47.953,23.242C458.367,1446.362,463.12,1399.856,504.882,1359.58Z" transform="translate(-469.777 -1328.588)"/>
      <path id="Path_5200" data-name="Path 5200" d="M551.91,1937.986l33.037.531,5.933-32.537c18.145,37.269,61.027,52.844,110.094,36.947l24.776,46.058C654.934,2021.268,583.251,2004.7,551.91,1937.986Z" transform="translate(-536.862 -1774.88)" fill="#e6e6e6"/>
      <path id="Path_5201" data-name="Path 5201" d="M1896.362,1305.222c26.781-52.934,97.462-72.459,148.292-43.473l51.52-17.053c-60.174-80.274-169.517-65.043-237.444,15.174Z" transform="translate(-1604.253 -1191.353)"/>
      <path id="Path_5202" data-name="Path 5202" d="M2712.84,1474.836l21.86,51.064c79.761-33.222,103.9-145.716,31.883-195.279l.524,33.087-33.891,7.052C2783.131,1394.438,2760.888,1461.542,2712.84,1474.836Z" transform="translate(-2301.878 -1304.934)" fill="#d8d8d8"/>
      <path id="Path_5203" data-name="Path 5203" d="M1935.76,2021.837c75.565,54.345,141.684,61.432,194.406,18.246l-37.107-13.186,10.328-33.051c-46.268,32.112-89.269,21.664-130.548-11.216Z" transform="translate(-1667.17 -1837.486)" fill="#e6e6e6"/>
      <path id="Path_5204" data-name="Path 5204" d="M661.38,1221.415v35.8l34.052,1.474c22.081-14.324,54.054-13.168,94.3-.288l23.389-51.855C751.965,1180.354,701.825,1186.607,661.38,1221.415Z" transform="translate(-626.276 -1190.422)" fill="#e6e6e6"/>
      <path id="Path_5205" data-name="Path 5205" d="M1276.68,1330.276l-19.129-39.848,42.518-12.008c27.62,14.406,49.864,32.05,67.629,52.392,19.554,43.064,46.39,79.817,79.953,95.5l-44.049.463,6.783,38.422a349.654,349.654,0,0,1-48.567-34.583l-33.076-58.809C1317.207,1354.3,1301.117,1340.033,1276.68,1330.276Z" transform="translate(-1113.218 -1262.297)"/>
      <path id="Path_5206" data-name="Path 5206" d="M1320.3,1539.715c-12.939,13.835-21.409,34.231-33.567,48.722-19.391,23.114-43.574,52.979-87.212,56.864l35.626,18.434-21.209,34.777c71.166-14.144,120.961-60.566,143.994-113.443v-50.89Z" transform="translate(-1065.821 -1471.199)" fill="#d8d8d8"/>
    </g>
    <g id="Group_4961" data-name="Group 4961" transform="translate(262.788 53.435)">
      <path id="Path_5207" data-name="Path 5207" d="M1907.863,753.086l173.219-.757a2.97,2.97,0,0,1,3,2.987l-.37,60.631a2.965,2.965,0,0,1-3.054,2.95c-15.275-.456-171.827-2.464-174.82-2.34-2.959.125-1.351-47.757-.909-60.606A2.964,2.964,0,0,1,1907.863,753.086Z" transform="translate(-1904.09 -752.329)" fill="#ccc"/>
      <path id="Path_5208" data-name="Path 5208" d="M2091.175,827h-.02c-9.762-.291-103.312-1.458-148.271-2.021-13.145-.165-22.477-.28-24.965-.315l-.233,0-.041-.229c-1.062-5.995-1.044-26.033.054-57.953a.619.619,0,0,1,.615-.6l173.22-.757a.624.624,0,0,1,.444.183.609.609,0,0,1,.182.442l-.37,60.631A.619.619,0,0,1,2091.175,827ZM1918.161,824.1c2.8.038,11.966.152,24.731.311,44.959.561,138.514,1.73,148.279,2.021l.017,0c.017,0,.042-.027.042-.06l.37-60.631-.064-.341,0,.28-173.217.757a.058.058,0,0,0-.059.057C1917.179,797.98,1917.147,817.877,1918.161,824.1Z" transform="translate(-1914.523 -762.776)" fill="#fff"/>
      <path id="Path_5209" data-name="Path 5209" d="M1965.13,828.688h0c0,1.64.548,2.968,1.222,2.968H2032.7c.675,0,1.222-1.328,1.222-2.968h0c0-1.64-.548-2.968-1.222-2.968h-66.351C1965.678,825.72,1965.13,827.048,1965.13,828.688Z" transform="translate(-1953.947 -812.274)" fill="#fff" opacity="0.7"/>
      <path id="Path_5210" data-name="Path 5210" d="M1965.13,883.928h0c0,1.64.548,2.968,1.222,2.968H2032.7c.675,0,1.222-1.328,1.222-2.968h0c0-1.64-.548-2.968-1.222-2.968h-66.351C1965.678,880.96,1965.13,882.288,1965.13,883.928Z" transform="translate(-1953.947 -857.393)" fill="#fff" opacity="0.7"/>
      <path id="Path_5211" data-name="Path 5211" d="M1965.13,939.168h0c0,1.64.548,2.968,1.222,2.968H2032.7c.675,0,1.222-1.328,1.222-2.968h0c0-1.64-.548-2.968-1.222-2.968h-66.351C1965.678,936.2,1965.13,937.528,1965.13,939.168Z" transform="translate(-1953.947 -902.513)" fill="#fff" opacity="0.7"/>
      <path id="Path_5212" data-name="Path 5212" d="M1965.13,994.408h0c0,1.64.548,2.968,1.222,2.968H2032.7c.675,0,1.222-1.328,1.222-2.968h0c0-1.64-.548-2.968-1.222-2.968h-66.351C1965.678,991.438,1965.13,992.768,1965.13,994.408Z" transform="translate(-1953.947 -947.631)" fill="#fff" opacity="0.7"/>
      <g id="Group_4960" data-name="Group 4960" transform="translate(85.248 6.964)">
        <circle id="Ellipse_241" data-name="Ellipse 241" cx="11.543" cy="11.543" r="11.543" fill="#fff"/>
        <circle id="Ellipse_242" data-name="Ellipse 242" cx="11.543" cy="11.543" r="11.543" transform="translate(28.684)" fill="#fff"/>
        <circle id="Ellipse_243" data-name="Ellipse 243" cx="11.543" cy="11.543" r="11.543" transform="translate(57.37 0.377)" fill="#fff"/>
        <g id="Group_4958" data-name="Group 4958" transform="translate(2.252 2.629)">
          <path id="Path_5213" data-name="Path 5213" d="M2397.818,811.163a7.413,7.413,0,1,1-6.857-4.595c.124,0,.249,0,.373.009V804.7c-.124-.005-.249-.007-.373-.007a9.285,9.285,0,1,0,8.582,5.725Z" transform="translate(-2381.67 -804.69)" fill="#c4c4c4"/>
          <path id="Path_5214" data-name="Path 5214" d="M2550.781,820.252a7.412,7.412,0,1,1-3.95-13.684c.125,0,.249,0,.373.009V804.7c-.124-.006-.249-.007-.373-.007a9.291,9.291,0,1,0,4.882,17.2Z" transform="translate(-2508.982 -804.69)" fill="#c4c4c4"/>
          <path id="Path_5215" data-name="Path 5215" d="M2710.521,818.149a7.413,7.413,0,1,1-6.13-11.581c.124,0,.25,0,.374.009V804.7c-.125-.005-.25-.007-.374-.007a9.291,9.291,0,1,0,7.653,14.56Z" transform="translate(-2637.676 -804.69)" fill="#c4c4c4"/>
        </g>
        <g id="Group_4959" data-name="Group 4959" transform="translate(0 27.971)" opacity="0.64">
          <path id="Path_5216" data-name="Path 5216" d="M2390.327,943.02h-18.808a2.138,2.138,0,1,0,0,4.276h18.808a2.138,2.138,0,1,0,0-4.276Z" transform="translate(-2369.38 -943.018)" fill="#fff"/>
          <path id="Path_5217" data-name="Path 5217" d="M2546.888,943.02h-18.81a2.138,2.138,0,0,0,0,4.276h18.81a2.138,2.138,0,0,0,0-4.276Z" transform="translate(-2497.256 -943.018)" fill="#fff"/>
          <path id="Path_5218" data-name="Path 5218" d="M2684.648,947.286h18.809a2.138,2.138,0,1,0,0-4.276h-18.809a2.138,2.138,0,0,0,0,4.276Z" transform="translate(-2625.141 -943.01)" fill="#fff"/>
          <path id="Path_5219" data-name="Path 5219" d="M2390.327,979.32h-18.808a2.139,2.139,0,0,0-2.139,2.138v12.589a2.139,2.139,0,0,0,2.139,2.138h18.808a2.138,2.138,0,0,0,2.139-2.138V981.458A2.14,2.14,0,0,0,2390.327,979.32Z" transform="translate(-2369.38 -972.668)" fill="#fff"/>
          <path id="Path_5220" data-name="Path 5220" d="M2546.888,979.32h-18.81a2.139,2.139,0,0,0-2.138,2.138v12.589a2.138,2.138,0,0,0,2.138,2.138h18.81a2.137,2.137,0,0,0,2.137-2.138V981.458A2.138,2.138,0,0,0,2546.888,979.32Z" transform="translate(-2497.256 -972.668)" fill="#fff"/>
          <path id="Path_5221" data-name="Path 5221" d="M2703.448,979.32h-18.81a2.138,2.138,0,0,0-2.138,2.138v12.589a2.137,2.137,0,0,0,2.138,2.138h18.81a2.138,2.138,0,0,0,2.138-2.138V981.458A2.137,2.137,0,0,0,2703.448,979.32Z" transform="translate(-2625.132 -972.668)" fill="#fff"/>
        </g>
      </g>
    </g>
    <g id="Group_4988" data-name="Group 4988" transform="translate(48.186 239.281)">
      <g id="Group_4967" data-name="Group 4967" transform="translate(89.997)">
        <path id="Path_5222" data-name="Path 5222" d="M1509.768,3088.97s-.944,5.063-1.431,10.077a3.458,3.458,0,0,0,3.272,3.778c6.682.342,20.974,1.021,26.106.839a1.125,1.125,0,0,0,1-1.531h0a2.529,2.529,0,0,0-1.275-1.371l-23.514-11.079Z" transform="translate(-1456.227 -2846.709)" fill="#a1a1a1"/>
        <path id="Path_5223" data-name="Path 5223" d="M1512.37,3068.749l.662,6.073s4.119,1.965,6.964-.177l-1.649-6.775Z" transform="translate(-1459.535 -2829.474)" fill="url(#linear-gradient)"/>
        <path id="Path_5224" data-name="Path 5224" d="M1437.284,2449.625c-.326,1.58-2.422,79.02,5.526,113.809a1.177,1.177,0,0,1-.7,1.363,20.5,20.5,0,0,1-6.755,1.307,2.031,2.031,0,0,1-2-1.475c-2.29-8.075-13.245-48.531-14.357-87.09-1.242-43.084.014-1.465.014-1.465l1.224-26.614Z" transform="translate(-1382.82 -2324.366)" fill="#d2d2d2"/>
        <path id="Path_5225" data-name="Path 5225" d="M1354.685,3102s-1.451,2.546-2.895,9.334a2.112,2.112,0,0,0,1.832,2.546c2.206.238,5.6.548,8.322.555a2.1,2.1,0,0,0,2.1-2.326,17.739,17.739,0,0,0-4.049-9.771Z" transform="translate(-1328.337 -2857.351)" fill="#a1a1a1"/>
        <path id="Path_5226" data-name="Path 5226" d="M1361.37,3058.011l1.594,9.188s1.65,1.253,4.949.386l-.709-9.875Z" transform="translate(-1336.2 -2821.176)" fill="url(#linear-gradient-2)"/>
        <path id="Path_5227" data-name="Path 5227" d="M1329.007,2443.92c-7.162,40.8.505,101.014,3.171,112.811a1.835,1.835,0,0,0,1.469,1.408,12.306,12.306,0,0,0,5.3-.162,1.678,1.678,0,0,0,1.224-1.537c.464-9.512.349-67.935,6.879-90.963a5.265,5.265,0,0,1,2.05-2.875l12.329-8.589,1.073-14.063Z" transform="translate(-1307.334 -2316.6)" fill="#d2d2d2"/>
        <g id="Group_4962" data-name="Group 4962" transform="translate(19.436 19.418)">
          <path id="Path_5228" data-name="Path 5228" d="M1376.193,2027.34c-20.289-.529-42.733,4.922-42.733,4.922-6.385,35.235-1.783,75.992-1.783,75.992,15.671,4.268,33.455-2.2,33.455-2.2,2.751-14.727,15.329-56.127,15.329-56.127a66.836,66.836,0,0,0,24.883-7.636c-5.073-6-7.42-13.585-8.428-18.069A68.037,68.037,0,0,1,1376.193,2027.34Z" transform="translate(-1330.073 -1996.454)"/>
          <path id="Path_5229" data-name="Path 5229" d="M1734.419,1874.24a3.88,3.88,0,0,0-4.5-1.311c-3.107,12.585-18.862,22.664-35,27.509,1.008,4.484,3.354,12.074,8.427,18.069C1730.187,1903.752,1734.419,1874.24,1734.419,1874.24Z" transform="translate(-1628.075 -1872.673)" fill="url(#linear-gradient-3)"/>
        </g>
        <g id="Group_4963" data-name="Group 4963" transform="translate(121.324)">
          <path id="Path_5230" data-name="Path 5230" d="M1890.152,1788.284c.2.665-2.223,1.653-3.618-1.074-.037-1.3-.775-6.876.013-7.927,4.19-5.6,12.277-12.593,12.277-12.593a1.909,1.909,0,0,1,.214,2.653l-3.93,4.016a18.733,18.733,0,0,1,2.228,4.512,5.451,5.451,0,0,1-.583,4.007c-.694,1.224-1.641,2.814-2.534,4.059A5.381,5.381,0,0,1,1890.152,1788.284Z" transform="translate(-1886.185 -1766.69)" fill="url(#linear-gradient-4)"/>
          <path id="Path_5231" data-name="Path 5231" d="M1904.436,1817.35l-3.575,2.972-1.141,2.981,3.127,3.536s1.12-5.927,1.922-7.2S1905.168,1817.732,1904.436,1817.35Z" transform="translate(-1897.241 -1808.068)" fill="url(#linear-gradient-5)"/>
        </g>
        <path id="Path_5232" data-name="Path 5232" d="M1256.517,2087.834l-7.6-19.723s-19.076,12.7-22.35,29a44.853,44.853,0,0,1,16.434,4.573C1244.483,2093.982,1256.517,2087.834,1256.517,2087.834Z" transform="translate(-1226.098 -2012.886)" fill="#a2a2a2"/>
        <path id="Path_5233" data-name="Path 5233" d="M1270.8,2235.743s-21.4,11.823-28.477,1.486a8.066,8.066,0,0,1-1.42-6.285,44.844,44.844,0,0,0-16.435-4.573,22.533,22.533,0,0,0,2.3,15.473c12.358,23.126,46.8-.825,46.8-.825Z" transform="translate(-1223.991 -2142.15)" fill="url(#linear-gradient-6)"/>
        <path id="Path_5234" data-name="Path 5234" d="M1440.727,1950.26l-6.634,18.611a.674.674,0,0,0,.3.813c1.752.99,8.066,3.862,15.753-.908a3.166,3.166,0,0,0,1.48-2.248l2.245-16.141Z" transform="translate(-1395.566 -1916.627)" fill="url(#linear-gradient-7)"/>
        <g id="Group_4964" data-name="Group 4964" transform="translate(32.968 6.767)">
          <path id="Path_5235" data-name="Path 5235" d="M1474.066,1856.62s6.962,13.413,6,18.8-9.744,4.912-17.375.46l-5.223-14.461Z" transform="translate(-1447.662 -1846.91)" fill="url(#linear-gradient-8)"/>
          <path id="Path_5236" data-name="Path 5236" d="M1419.374,1825.515a.549.549,0,0,0,.247-.8,14.367,14.367,0,0,1-1.932-4.206s-1.266-.829,3.261-1.867,11.284-2.653,12.738-6.485c1.416-3.738-2.122-13.2-7.983-5.744a.551.551,0,0,1-.872,0c-.936-1.244-3.408-3.831-6.885-2.31-3.256,1.424-3.642,3.794-3.609,4.992a.547.547,0,0,1-.654.553c-1.636-.328-5.566-.634-7.44,3.382-1.543,3.309-.579,5.2.308,6.126a.549.549,0,0,1-.243.909c-1.081.319-2.479,1.22-2.366,3.745.16,3.49,4.062,3.221,5.174,3.072a.555.555,0,0,1,.488.178c.942,1.063,5.189,5.577,9.828,6.162a.554.554,0,0,0,.588-.728l-1.953-5.86a.55.55,0,0,1,.306-.681Z" transform="translate(-1403.935 -1803.623)"/>
          <path id="Path_5237" data-name="Path 5237" d="M1468.341,1919.857s-5.014-3.512-5.411-.6,4.5,4.269,6.951,3.2Z" transform="translate(-1452.102 -1897.128)" fill="url(#linear-gradient-9)"/>
        </g>
        <g id="Group_4966" data-name="Group 4966" transform="translate(42.388 68.198)">
          <g id="Group_4965" data-name="Group 4965">
            <path id="Path_5238" data-name="Path 5238" d="M1455.392,2183l11.654-40.7a1.184,1.184,0,0,1,1-.854c2.112-.245,8.23-.938,15.295-1.536,8.511-.719,18.391-1.3,24.3-.805a1.19,1.19,0,0,1,.973,1.713c-3.358,6.794-17.171,34.429-24.089,43.483a1.191,1.191,0,0,1-.962.47l-27.041-.251A1.19,1.19,0,0,1,1455.392,2183Z" transform="translate(-1455.346 -2138.92)" fill="#4e4e4e"/>
            <path id="Path_5239" data-name="Path 5239" d="M1465.957,2263.99s-1.623-6.676-.969-9.043,1.924-5.414,6.153-4.736a61.853,61.853,0,0,1,9.219,2.458,2.422,2.422,0,0,1-3.466,2.09l1.994,1.542s-.286,2.47-3,1.151l1.854,2.044a2.162,2.162,0,0,1-3.164.728C1472.58,2258.922,1471.622,2264.794,1465.957,2263.99Z" transform="translate(-1463.094 -2229.743)" fill="url(#linear-gradient-10)"/>
          </g>
          <path id="Path_5240" data-name="Path 5240" d="M1603.93,2195.391a3.421,3.421,0,1,0,3.42-3.421A3.421,3.421,0,0,0,1603.93,2195.391Z" transform="translate(-1576.707 -2182.251)" fill="#fff"/>
          <path id="Path_5241" data-name="Path 5241" d="M1522.523,2165.98l-.872-.259,2.372-8.048a3.664,3.664,0,0,1,2.761-2.569c7.521-1.571,27.33-1.89,28.169-1.9l.015.909c-.205,0-20.562.332-28,1.884a2.757,2.757,0,0,0-2.073,1.937Z" transform="translate(-1509.503 -2150.583)" fill="url(#linear-gradient-11)"/>
        </g>
      </g>
      <g id="Group_4968" data-name="Group 4968" transform="translate(0 188.346)">
        <path id="Path_5242" data-name="Path 5242" d="M742.552,2844.651c-1.242,1.838-6.18,43.462-6.953,58.833a1.818,1.818,0,0,0,1.819,1.908h0a1.82,1.82,0,0,0,1.8-1.541l9.03-57.875Z" transform="translate(-735.081 -2835.498)" fill="#afafaf"/>
        <path id="Path_5243" data-name="Path 5243" d="M964.848,2844.651c1.242,1.838,6.18,43.462,6.953,58.833a1.818,1.818,0,0,1-1.821,1.908h0a1.82,1.82,0,0,1-1.8-1.541l-9.03-57.875Z" transform="translate(-917.676 -2835.498)" fill="#afafaf"/>
        <path id="Path_5244" data-name="Path 5244" d="M732.783,2800.6l0,.455a6.188,6.188,0,0,0,6.306,6l41.746.711a6.24,6.24,0,0,0,6.534-5.665l.022-.416a6.163,6.163,0,0,0-6.292-6.242l-41.764-.749A6.216,6.216,0,0,0,732.783,2800.6Z" transform="translate(-732.779 -2794.694)" fill="#afafaf"/>
      </g>
      <g id="Group_4972" data-name="Group 4972" transform="translate(12.397 64.63)">
        <g id="Group_4969" data-name="Group 4969" transform="translate(63.298 182.608)">
          <path id="Path_5245" data-name="Path 5245" d="M1158.5,3152.1c-7.42,0-10.7-.636-12.173-1.216a2.816,2.816,0,0,0,2.743,2.181h26.253a1.279,1.279,0,0,0,1.232-1.614C1173.563,3151.689,1167.208,3152.1,1158.5,3152.1Z" transform="translate(-1146.256 -3144.514)" fill="#9f9f9f"/>
          <path id="Path_5246" data-name="Path 5246" d="M1176.228,3123.068a1.238,1.238,0,0,0-.215-.446c-2-2.555-6.017-6.564-11.482-6.486-8,.111-10.8.979-17.017.049l-1.467,4.865a2.778,2.778,0,0,0-.044,1.451c1.467.582,4.751,1.217,12.173,1.217C1166.879,3123.717,1173.234,3123.308,1176.228,3123.068Z" transform="translate(-1145.927 -3116.135)"/>
        </g>
        <path id="Path_5247" data-name="Path 5247" d="M1156.392,3087.8l-1.8,6.127s3.99,1.817,7.5.358l.689-5.307Z" transform="translate(-1089.705 -2910.384)" fill="url(#linear-gradient-12)"/>
        <g id="Group_4970" data-name="Group 4970" transform="translate(108.091 173.752)">
          <path id="Path_5248" data-name="Path 5248" d="M1415.717,3083.8c-5.784,4.647-8.741,6.211-10.247,6.68a2.813,2.813,0,0,0,3.5-.026l20.465-16.444a1.274,1.274,0,0,0-.046-2.023C1427.2,3074.054,1422.5,3078.349,1415.717,3083.8Z" transform="translate(-1402.711 -3071.223)" fill="#9f9f9f"/>
          <path id="Path_5249" data-name="Path 5249" d="M1417.086,3068.57a1.227,1.227,0,0,0-.447-.212c-3.151-.728-8.781-1.324-12.993,2.16-6.171,5.1-7.805,7.522-13.236,10.7l1.889,4.694a2.752,2.752,0,0,0,.87,1.155c1.506-.469,4.463-2.032,10.247-6.679C1410.2,3074.927,1414.9,3070.631,1417.086,3068.57Z" transform="translate(-1390.41 -3067.8)"/>
        </g>
        <path id="Path_5250" data-name="Path 5250" d="M915.945,2706.8s44.428,3.627,53.543,7.919-7.439,64.424-7.439,64.424-2.481,1.195-8-.522c0,0,5.661-44.376,1.449-54l-48.1-7.869Z" transform="translate(-887.795 -2599.188)" fill="#bebbbb"/>
        <path id="Path_5251" data-name="Path 5251" d="M1366.32,3083.212c.413.375,4.414,8.446,4.414,8.446s4.456-.964,5.363-3.784l-4.009-7.285Z" transform="translate(-1262.642 -2904.495)" fill="url(#linear-gradient-13)"/>
        <path id="Path_5252" data-name="Path 5252" d="M801.831,2704.771a22.5,22.5,0,0,0-1.389,8.112,12.181,12.181,0,0,0,11.625,11.917l52.522,2.4a2.518,2.518,0,0,1,2.325,1.892c1.235,4.775,7.266,19.433,36.756,48.688a2.378,2.378,0,0,0,2.941.321l4.2-2.651a.969.969,0,0,0,.319-1.307l-30.58-52.221a11.846,11.846,0,0,0-7.191-5.335l-44.765-11.443Z" transform="translate(-800.441 -2597.531)" fill="#d6d6d6"/>
        <path id="Path_5253" data-name="Path 5253" d="M1039.883,2259.53s-5.626,9.949-11.363,14.768l11.858,6.617s2.67-10.531,8.776-13.615Z" transform="translate(-986.732 -2233.865)" fill="url(#linear-gradient-14)"/>
        <path id="Path_5254" data-name="Path 5254" d="M802.82,2399.885s14.179,3.455,27.713,0c0,0,18.937-25.457,26.264-32.387,0,0,11.687,18.44,37.7,21.056l1.451-3.241s-20.709-9.545-27.083-24.215-8.935-20.922-14.736-24.75c-3.613-2.384-5.775-4.012-6.893-4.9a1.85,1.85,0,0,0-2.123-.135C838.955,2335.061,809.993,2354.9,802.82,2399.885Z" transform="translate(-802.384 -2292.272)"/>
        <path id="Path_5255" data-name="Path 5255" d="M1057.947,2464.59a.911.911,0,0,1-.722-.354,56.512,56.512,0,0,1-7.134-12.65.909.909,0,0,1,1.7-.65,55.728,55.728,0,0,0,6.88,12.194.909.909,0,0,1-.168,1.276A.92.92,0,0,1,1057.947,2464.59Z" transform="translate(-1004.302 -2389.725)" fill="#e8e8e8"/>
        <path id="Path_5256" data-name="Path 5256" d="M1294.66,2604.888l2.928-.781,8.889-2.06a4.119,4.119,0,0,1,3.124.527l7.644,4.81-21.108-.035Z" transform="translate(-1204.112 -2513.541)" fill="url(#linear-gradient-15)"/>
        <g id="Group_4971" data-name="Group 4971" transform="translate(38.523)">
          <path id="Path_5257" data-name="Path 5257" d="M1068.322,2178.12s5.467,9.09,6.417,14.113,2.472,8.165-3.246,9.954-11.031-.475-14.366-5.164c0,0-5.209-7.217-4.688-10.522S1068.322,2178.12,1068.322,2178.12Z" transform="translate(-1044.76 -2167.37)" fill="url(#linear-gradient-16)"/>
          <path id="Path_5258" data-name="Path 5258" d="M1024.587,2145.211l.74-.1s-3.871-5.851-1.337-7.3,12.858-5.013,14.65-9.079a7.063,7.063,0,0,0-3.974-9.272.4.4,0,0,0-.476.251l-.183.493a.4.4,0,0,1-.744.022h0a.4.4,0,0,0-.727-.015c-.553,1.218-2.208,3.3-7.174,4.909-7.044,2.285-11.432,5.835-10.893,10.84a.4.4,0,0,1-.572.406c-.575-.254-1.449-.294-2.463.814-1.762,1.927-.381,6.145,4.434,9.129a.4.4,0,0,1,.064.64c-.72.617-1.733,1.991,1.524,3.217,3.333,1.253,5.15.83,5.823.561a.4.4,0,0,0,.247-.451l-.855-4.386a.4.4,0,0,1,.341-.475Z" transform="translate(-1010.7 -2119.447)"/>
          <path id="Path_5259" data-name="Path 5259" d="M1062.935,2245.8s-2.413-5.949-4.947-3.859,2.342,6.713,4.593,6.651Z" transform="translate(-1048.742 -2219.138)" fill="url(#linear-gradient-17)"/>
        </g>
      </g>
      <g id="Group_4975" data-name="Group 4975" transform="translate(92.874 117.374)">
        <g id="Group_4973" data-name="Group 4973" transform="translate(0 41.163)">
          <path id="Path_5260" data-name="Path 5260" d="M1241.606,2636.074h.1l45.095-.046a2.015,2.015,0,1,0-.006-4.03l-45.094.046a2.016,2.016,0,0,0-.1,4.029Z" transform="translate(-1239.69 -2631.999)" fill="#303030"/>
        </g>
        <g id="Group_4974" data-name="Group 4974" transform="translate(45.372)">
          <path id="Path_5261" data-name="Path 5261" d="M1506.541,2408.4c-.017.031-.031.063-.046.094l-18.974,40.909a2.015,2.015,0,1,0,3.655,1.7l18.973-40.909a2.015,2.015,0,0,0-3.609-1.79Z" transform="translate(-1487.333 -2407.326)" fill="#303030"/>
        </g>
      </g>
      <g id="Group_4981" data-name="Group 4981" transform="translate(171.44 59.624)">
        <g id="Group_4976" data-name="Group 4976" transform="translate(76.334 132.569)">
          <rect id="Rectangle_288" data-name="Rectangle 288" width="4.76" height="51.472" transform="translate(23.004 11.533)" fill="#afafaf"/>
          <path id="Path_5262" data-name="Path 5262" d="M2151.617,3151.177H2109.93a3.1,3.1,0,0,1,3.1-3.1h35.49a3.1,3.1,0,0,1,3.1,3.1Z" transform="translate(-2105.39 -3087.181)" fill="#afafaf"/>
          <path id="Path_5263" data-name="Path 5263" d="M2137.565,2825.438a5.134,5.134,0,0,1-5.12,5.119h-42.176a5.134,5.134,0,0,1-5.118-5.119v-4.628a5.134,5.134,0,0,1,5.118-5.119h42.176a5.134,5.134,0,0,1,5.12,5.119Z" transform="translate(-2085.151 -2815.69)" fill="#afafaf"/>
        </g>
        <g id="Group_4977" data-name="Group 4977" transform="translate(5.111 100.116)">
          <path id="Path_5264" data-name="Path 5264" d="M1957.005,2691.32a41.408,41.408,0,0,0-15.024,6.413,3.966,3.966,0,0,0-1.75,3.789c.953,7.542,4.866,31.955,17.777,55.8a5.994,5.994,0,0,1,.575,4.118l-2.242,10.438-4.159,3.9H1962.9l7.132-19.3-3.05-.963a5.772,5.772,0,0,1-4.031-5.4l-.358-20.706a23.561,23.561,0,0,0-5.657-15.593l17.108-.831Z" transform="translate(-1895.535 -2681.653)" fill="url(#linear-gradient-18)"/>
          <path id="Path_5265" data-name="Path 5265" d="M1982.5,3063.576c-.976,1.277,10.5,2.962,16.3.168,0,0,8.038-13.985,8.038-21.185,0,0-.638-1.468-5.357-1.136,0,0-2.7,16.558-5.548,18.413s-7.974.186-7.974.186S1983.939,3061.692,1982.5,3063.576Z" transform="translate(-1930.035 -2967.572)" fill="#2e2e2e"/>
          <path id="Path_5266" data-name="Path 5266" d="M1794.734,2725.96c-.092-.157-18.421-2.2-18.421-2.2a42.377,42.377,0,0,1-1.275,13.244c-1.875,7.673-28.787,40.913-28.787,40.913l2.821,8.945a45.393,45.393,0,0,1-25.752,1.55l17.488-10.494s16.366-55.775,26.392-65.725l18.373-6.358Z" transform="translate(-1718.39 -2693.505)" fill="url(#linear-gradient-19)"/>
          <path id="Path_5267" data-name="Path 5267" d="M2032.277,2638.56s10.561,15.707,11.427,22.873-2.893,10.076-13.974,10.556-40.663.473-40.663.473l-25.247-21.577s18.4-6.565,23.182-8.423S2032.277,2638.56,2032.277,2638.56Z" transform="translate(-1914.828 -2638.56)" fill="#303030"/>
          <path id="Path_5268" data-name="Path 5268" d="M1726.025,3131.64s3.037,2.942.986,6.216c0,0-24.068,4.266-30.6,2.331,0,0,1.358-3.1,8.713-6.622l-.542.416a.879.879,0,0,0,.581,1.578C1710.012,3135.282,1720.045,3134.393,1726.025,3131.64Z" transform="translate(-1696.41 -3041.3)" fill="#2e2e2e"/>
        </g>
        <g id="Group_4979" data-name="Group 4979" transform="translate(57.303)">
          <path id="Path_5269" data-name="Path 5269" d="M2053.977,2092.62c21.589-3.67,31.752,13.937,31.01,17.636a.676.676,0,0,0,.846.775c2.479-.666,7.954-1.508,11.348,2.745,3,3.753.757,7.3-1.068,9.243a.682.682,0,0,0,.57,1.153c4.557-.576,14.458-.713,16.077,8.561,1.512,8.649-4.509,11.089-8.08,11.777a.677.677,0,0,0-.225,1.24c1.781,1.13,3.846,3.465,3.011,8.073-1.307,7.223-15.467,6.632-17.123,6.538a.675.675,0,0,1-.295-.089l-22.683-12.937a.683.683,0,0,1-.334-.476l-4.578-26.445a.686.686,0,0,1,.179-.59l-14.788-20.867C2042.477,2098.17,2053.723,2092.665,2053.977,2092.62Z" transform="translate(-2034.464 -2092.12)" fill="#191919"/>
          <path id="Path_5270" data-name="Path 5270" d="M2084.3,2373.376s-12.3-11.711-18.351-19.467a16.461,16.461,0,0,1-2.787-14.811c2.763-9.31,7.675-18.955,8.124-20.455.687-2.3,14.476-2.2,14.476-2.2s27.134,17.611,37.795,47.442l-11.973,3.728s-7.084-11.886-14.085-19.442c0,0,12.112,16,12.54,22.552Z" transform="translate(-2047.6 -2275.339)" fill="#d6d6d6"/>
          <path id="Path_5271" data-name="Path 5271" d="M2101.44,2229.229c.145.478,3.742,12.408,4.025,12.656s7.893.657,11.475-1.792l-8.888-17.384Z" transform="translate(-2079.424 -2198.784)" fill="url(#linear-gradient-20)"/>
          <g id="Group_4978" data-name="Group 4978" transform="translate(0 2.149)">
            <path id="Path_5272" data-name="Path 5272" d="M2021.326,2154.783s-1.739,6.836,3.072,16.029,10.26,9.182,13.237,6.24,6.651-7.935,5.779-16.823S2023.837,2146.088,2021.326,2154.783Z" transform="translate(-2013.738 -2141.817)" fill="url(#linear-gradient-21)"/>
            <path id="Path_5273" data-name="Path 5273" d="M2004.3,2122.742s-7.985-12.207-15.471-2.6l-.136,3.493s-8.769-1.04-7.234-9.082,9.114-13.067,18.873-9.585,15.352,7.055,15.982,14.049-4.934,5.461-4.934,5.461-1.815-4.926-4.4-5.437-1.909,3.329-1.909,3.329Z" transform="translate(-1981.275 -2103.847)" fill="#191919"/>
            <path id="Path_5274" data-name="Path 5274" d="M2110.01,2173.684s-4.141-6.249.1-7.182,3.587,6.091,3.128,8.688Z" transform="translate(-2084.945 -2154.954)" fill="url(#linear-gradient-22)"/>
          </g>
          <path id="Path_5275" data-name="Path 5275" d="M2044.83,2585.754l9.036-8.708,12.5,5.281s12.442,1.927,19.564,0l7.122-1.928,16.091-5.009,2.527,7.143a4.3,4.3,0,0,1-1.572,4.942,28.655,28.655,0,0,1-4.064,2.532c-2.12.928-52.24-.641-52.24-.641Z" transform="translate(-2033.186 -2486.848)" fill="url(#linear-gradient-23)"/>
        </g>
        <g id="Group_4980" data-name="Group 4980" transform="translate(0 55.424)">
          <path id="Path_5276" data-name="Path 5276" d="M1986.808,2633.206a1.036,1.036,0,0,1-.12,0l-52.415-.057a2.346,2.346,0,1,1,.006-4.692l52.414.056a2.347,2.347,0,0,1,.115,4.691Z" transform="translate(-1883.668 -2585.618)" fill="#434343"/>
          <path id="Path_5277" data-name="Path 5277" d="M1672,2394.63h43.651a8.32,8.32,0,0,1,7.525,4.771l20.178,42.79h-54.246a5.058,5.058,0,0,1-4.7-3.2l-15.649-39.595A3.488,3.488,0,0,1,1672,2394.63Z" transform="translate(-1668.512 -2394.63)" fill="#4b4b4b"/>
          <path id="Path_5278" data-name="Path 5278" d="M1824.339,2494.884c.946,2.939.247,5.792-1.561,6.373s-4.04-1.328-4.987-4.266-.248-5.794,1.561-6.375S1823.392,2491.945,1824.339,2494.884Z" transform="translate(-1790.096 -2472.946)" fill="#fff"/>
        </g>
      </g>
      <g id="Group_4985" data-name="Group 4985" transform="translate(273.983 12.419)">
        <g id="Group_4982" data-name="Group 4982" transform="translate(32.021 114.827)">
          <path id="Path_5279" data-name="Path 5279" d="M2431.308,3119.444a63.7,63.7,0,0,1,.768,6.68,2.878,2.878,0,0,1-2.593,3.038c-5.364.519-17.575,1.479-25.373.355a1.308,1.308,0,0,1-.718-2.252c3.215-3,10.98-8.822,23.758-10.1Z" transform="translate(-2402.974 -2996.988)"/>
          <path id="Path_5280" data-name="Path 5280" d="M2530.882,3079.193l-2.711,6.648a2.22,2.22,0,0,1-2.276,1.376,12.02,12.02,0,0,1-2.215-.429,2.912,2.912,0,0,1-1.937-3.62l2.047-6.848Z" transform="translate(-2499.882 -2963.623)" fill="url(#linear-gradient-24)"/>
          <path id="Path_5281" data-name="Path 5281" d="M2790.976,3158.49s-5.432,4.544-7.548,10.374a2.478,2.478,0,0,0,2.353,3.293h11.177a2.635,2.635,0,0,0,2.607-3.083C2798.854,3165.047,2796.8,3158.506,2790.976,3158.49Z" transform="translate(-2713.603 -3030.739)"/>
          <path id="Path_5282" data-name="Path 5282" d="M2824.888,3122.508s-1.1,4.858-1.941,8.065a1.028,1.028,0,0,1-1.341.7,9.362,9.362,0,0,0-4.069-.739.791.791,0,0,1-.873-.79l-.1-8.066Z" transform="translate(-2740.785 -3000.672)" fill="url(#linear-gradient-25)"/>
          <path id="Path_5283" data-name="Path 5283" d="M2557.058,2473.774l-33.038,100.791s6.338,4.149,9.356,3.976l39.24-81s6.866,49.91,3.54,85.741l11.24.857s18.277-91.567,4.435-122.929Z" transform="translate(-2501.843 -2461.21)" fill="#d6d6d6"/>
          <path id="Path_5284" data-name="Path 5284" d="M2780.967,2606.552l.04,0a.317.317,0,0,0,.277-.357L2780,2596.017a.319.319,0,0,0-.633.081l1.282,10.177A.321.321,0,0,0,2780.967,2606.552Z" transform="translate(-2710.405 -2571.09)" fill="#0f0f0f"/>
        </g>
        <path id="Path_5285" data-name="Path 5285" d="M2527.144,2045.72s26.766,2.377,22.98,21.449c0,0,14.8,27.845,21.713,60.644a1.927,1.927,0,0,1-1.565,2.293l-44.576,7.633a2.4,2.4,0,0,1-2.728-1.764l-10.65-41.164-4.151,19.14-13.187-3.436,11.1-56.235S2507.631,2046.072,2527.144,2045.72Z" transform="translate(-2446.102 -2007.017)"/>
        <path id="Path_5286" data-name="Path 5286" d="M2570.337,2224.6a.34.34,0,0,0,.071-.007.332.332,0,0,0,.254-.4l-3.715-17.061a.333.333,0,0,0-.651.141l3.716,17.061A.332.332,0,0,0,2570.337,2224.6Z" transform="translate(-2504.346 -2138.644)" fill="#fff"/>
        <path id="Path_5287" data-name="Path 5287" d="M2561.944,2449.83a6.374,6.374,0,0,1,4.6-.6l3.1.771a1.123,1.123,0,0,0,1.389-.965l3.209-28.567c4.012,1.905,9.8,1.679,11.712,1.538l-7.388,33.678h-25.85Z" transform="translate(-2493.263 -2313.107)" fill="url(#linear-gradient-26)"/>
        <path id="Path_5288" data-name="Path 5288" d="M2228.2,2155.933l.78-2.6a5.131,5.131,0,0,1,3-3.285l14.131-5.684s.213-1.811-2.986-3.042-2.452-4.815-2.452-4.815,4.372,1.993,10.77,5.155a14.983,14.983,0,0,1,6.8,7.4l32.02,39.035-3.759,2.583a10.037,10.037,0,0,1-14.552-3.571l-17.347-33.261A64.656,64.656,0,0,1,2228.2,2155.933Z" transform="translate(-2228.2 -2081.173)" fill="url(#linear-gradient-27)"/>
        <g id="Group_4984" data-name="Group 4984" transform="translate(41.478)">
          <path id="Path_5289" data-name="Path 5289" d="M2585.187,1945.124l8.232,23.042s-7.29,5.7-12.611,3.772l-4.148-13.208S2579.83,1942.586,2585.187,1945.124Z" transform="translate(-2554.296 -1924.63)" fill="url(#linear-gradient-28)"/>
          <g id="Group_4983" data-name="Group 4983">
            <path id="Path_5290" data-name="Path 5290" d="M2489.1,1880.726c0,.356,7.929,22.45,7.929,22.45l12.519-4.8-4.4-22.058S2489.1,1874.782,2489.1,1880.726Z" transform="translate(-2482.778 -1868.508)" fill="url(#linear-gradient-29)"/>
            <path id="Path_5291" data-name="Path 5291" d="M2474.762,1847.663l3.229,11.43a1.633,1.633,0,0,1,.062.447c0,.933-.229,4.141-3.5,3.7-2.965-.4-5.676-.713-7.4.1a1.656,1.656,0,0,0-.856,2.061,71.808,71.808,0,0,0,4.508,10.178,1.657,1.657,0,0,0,2.13.681,53.5,53.5,0,0,0,10.733-6.313,1.659,1.659,0,0,0,.587-1.593c-.549-2.923-2.184-11.817-2.256-14.366-.067-2.393,2.616-4.217,3.8-4.905a1.627,1.627,0,0,0,.768-1.031c.369-1.539.685-5.024-3.76-5.792a1.662,1.662,0,0,1-1.348-1.976c.375-1.842.256-4.551-3.241-5.55-3.554-1.015-5.792,1.125-6.928,2.765a1.66,1.66,0,0,1-2.058.549,1.312,1.312,0,0,0-1.47.264,1.635,1.635,0,0,1-2.391-.363,4.954,4.954,0,0,0-6.107-2.018c-5.656,1.83-5.387,8.351-3.311,11.9s8.092,1.213,10.942-1.136c2.168-1.786,5.466-.718,6.922-.1A1.624,1.624,0,0,1,2474.762,1847.663Z" transform="translate(-2454.593 -1834.476)"/>
            <path id="Path_5292" data-name="Path 5292" d="M2601.973,1921.579s-3.349-6.332-1.135-8.321,5.964-1.664,5.863,3.288C2606.576,1922.708,2601.973,1921.579,2601.973,1921.579Z" transform="translate(-2573.426 -1897.893)" fill="url(#linear-gradient-30)"/>
          </g>
        </g>
        <path id="Path_5293" data-name="Path 5293" d="M2670.633,2226.035a32.745,32.745,0,0,0,3.272-.154l.239-.027,9.747-45.443a.332.332,0,0,0-.649-.138l-9.645,44.97c-1.452.128-9.2.64-13.285-2.256l8.442-39.481-1.762-3.322a.332.332,0,1,0-.586.311l1.648,3.107-8.483,39.663.168.127C2662.7,2225.615,2667.454,2226.035,2670.633,2226.035Z" transform="translate(-2580.538 -2116.702)" fill="#fff"/>
      </g>
      <g id="Group_4986" data-name="Group 4986" transform="translate(70.189 166.222)">
        <path id="Path_5294" data-name="Path 5294" d="M1117.572,2768.02a1.588,1.588,0,0,1-.67-.153,1.922,1.922,0,0,1-.889-2.436l35.615-90.369a1.648,1.648,0,0,1,2.231-.969,1.923,1.923,0,0,1,.889,2.436l-35.615,90.369A1.7,1.7,0,0,1,1117.572,2768.02Z" transform="translate(-1115.875 -2673.943)" fill="#7b7b7b"/>
        <path id="Path_5295" data-name="Path 5295" d="M1177.789,2768.02a1.7,1.7,0,0,1-1.561-1.122l-35.615-90.369a1.923,1.923,0,0,1,.888-2.436,1.649,1.649,0,0,1,2.232.969l35.615,90.369a1.922,1.922,0,0,1-.889,2.436A1.55,1.55,0,0,1,1177.789,2768.02Z" transform="translate(-1135.967 -2673.943)" fill="#7b7b7b"/>
        <path id="Path_5296" data-name="Path 5296" d="M2436.872,2768.02a1.592,1.592,0,0,1-.671-.153,1.923,1.923,0,0,1-.888-2.436l35.615-90.369a1.647,1.647,0,0,1,2.231-.969,1.922,1.922,0,0,1,.888,2.436l-35.615,90.369A1.7,1.7,0,0,1,2436.872,2768.02Z" transform="translate(-2193.459 -2673.943)" fill="#7b7b7b"/>
        <path id="Path_5297" data-name="Path 5297" d="M2497.079,2768.02a1.7,1.7,0,0,1-1.561-1.122L2459.9,2676.53a1.923,1.923,0,0,1,.888-2.436,1.649,1.649,0,0,1,2.231.969l35.616,90.369a1.923,1.923,0,0,1-.889,2.436A1.551,1.551,0,0,1,2497.079,2768.02Z" transform="translate(-2213.544 -2673.943)" fill="#7b7b7b"/>
      </g>
      <g id="Group_4987" data-name="Group 4987" transform="translate(306.861 154.437)">
        <path id="Path_5298" data-name="Path 5298" d="M2416.23,2621.494h51.584v-5.324H2416.23C2417.335,2616.172,2417.335,2621.494,2416.23,2621.494Z" transform="translate(-2414.658 -2614.97)" fill="#bebebe"/>
        <path id="Path_5299" data-name="Path 5299" d="M2460.194,2616.145a.614.614,0,0,0,.612-.613v-4.1a.613.613,0,0,0-.612-.612h-51.932a.6.6,0,1,1,0-1.2h55.5a2.226,2.226,0,0,1,2.227,2.228v3.4a2.1,2.1,0,0,1-2.1,2.1h-55.625a.6.6,0,1,1,0-1.2h51.932Z" transform="translate(-2407.65 -2609.62)" fill="#505050"/>
      </g>
      <path id="Path_5300" data-name="Path 5300" d="M1331.592,2654.063a1.569,1.569,0,0,0-.643-1.677,3.828,3.828,0,0,0-2.358-.736H1019.5a4.179,4.179,0,0,0-2.964,1.075,1.681,1.681,0,0,0-.232,2.235l3.35,4.809a5.226,5.226,0,0,0,4.258,1.807h302.554c1.7,0,3.165-.8,3.487-1.908Z" transform="translate(-964.096 -2489.513)" fill="#d6d6d6"/>
    </g>
    <g id="Group_4997" data-name="Group 4997" transform="translate(106.176)">
      <g id="Group_4992" data-name="Group 4992">
        <g id="Group_4989" data-name="Group 4989" transform="translate(36.251)" opacity="0.3">
          <path id="Path_5301" data-name="Path 5301" d="M1403.528,549.155a1.81,1.81,0,0,1-1.4-2.14c.4-1.9.715-3.847.948-5.784a1.809,1.809,0,0,1,1.979-1.583l.035,0a1.81,1.81,0,0,1,1.579,2.013c-.246,2.039-.581,4.088-1,6.09a1.808,1.808,0,0,1-1.951,1.431C1403.653,549.177,1403.59,549.168,1403.528,549.155Zm.033-17.435c-.033-1.951-.15-3.917-.346-5.85a1.809,1.809,0,1,1,3.6-.368c.208,2.032.33,4.1.365,6.156a1.81,1.81,0,0,1-1.779,1.84,1.671,1.671,0,0,1-.214-.009A1.808,1.808,0,0,1,1403.561,531.72Zm-1.969-15.227c-.466-1.889-1.017-3.78-1.644-5.623a1.81,1.81,0,1,1,3.428-1.164c.66,1.94,1.24,3.934,1.729,5.921a1.809,1.809,0,1,1-3.514.865Zm-5.327-14.4c-.876-1.739-1.839-3.461-2.86-5.117a1.81,1.81,0,0,1,3.08-1.9c1.076,1.744,2.086,3.556,3.009,5.387a1.809,1.809,0,0,1-3.23,1.631Zm-8.4-12.858c-1.238-1.5-2.558-2.964-3.922-4.357a1.809,1.809,0,1,1,2.583-2.532c1.436,1.466,2.825,3.009,4.126,4.584a1.808,1.808,0,1,1-2.787,2.3Zm-11.037-10.678c-1.541-1.189-3.151-2.325-4.788-3.38a1.81,1.81,0,0,1,1.959-3.043c1.722,1.108,3.417,2.307,5.038,3.558a1.809,1.809,0,0,1-2.209,2.865Zm-66.142-11.817a1.809,1.809,0,0,1,1.136-2.294c1.94-.654,3.934-1.233,5.927-1.72a1.809,1.809,0,0,1,.857,3.514c-1.892.462-3.787,1.011-5.629,1.634a1.784,1.784,0,0,1-.76.086A1.8,1.8,0,0,1,1310.682,466.737Zm53.019,3.857c-1.766-.815-3.587-1.565-5.418-2.226a1.81,1.81,0,0,1,1.231-3.4c1.926.7,3.846,1.486,5.7,2.345a1.809,1.809,0,0,1-.942,3.443A1.854,1.854,0,0,1,1363.7,470.594Zm-37.695-7.581a1.81,1.81,0,0,1,1.619-1.981c2.037-.2,4.109-.322,6.16-.354a1.809,1.809,0,0,1,.053,3.619c-1.95.029-3.919.141-5.854.335a1.863,1.863,0,0,1-.365,0A1.807,1.807,0,0,1,1326.007,463.013Zm23.125,2.754c-1.9-.4-3.848-.724-5.78-.96a1.809,1.809,0,0,1,.4-3.595.278.278,0,0,1,.038.005c2.036.249,4.084.588,6.085,1.01a1.809,1.809,0,0,1-.553,3.571C1349.26,465.788,1349.2,465.779,1349.132,465.766Z" transform="translate(-1298.965 -460.678)" fill="#caccd2"/>
          <path id="Path_5302" data-name="Path 5302" d="M1248.785,506.333a1.788,1.788,0,0,0,1.059-.218c.815-.452,1.655-.9,2.492-1.319a1.809,1.809,0,0,0-1.627-3.232c-.882.443-1.764.911-2.621,1.387a1.809,1.809,0,0,0,.7,3.382Z" transform="translate(-1247.156 -493.915)" fill="#caccd2"/>
        </g>
        <g id="Group_4990" data-name="Group 4990" transform="translate(0 49.507)" opacity="0.3">
          <path id="Path_5303" data-name="Path 5303" d="M1063.524,737.285a1.813,1.813,0,0,0,1.93-1.336c.24-.9.5-1.814.78-2.71a1.809,1.809,0,0,0-3.456-1.074c-.293.944-.57,1.9-.821,2.853a1.81,1.81,0,0,0,1.284,2.213A1.481,1.481,0,0,0,1063.524,737.285Z" transform="translate(-1059.587 -730.893)" fill="#bdd0fb"/>
          <path id="Path_5304" data-name="Path 5304" d="M1110.62,879.573a1.809,1.809,0,1,1,.54-3.578c1.882.284,3.8.493,5.737.623a1.81,1.81,0,0,1-.244,3.611q-1.256-.085-2.5-.211C1112.972,879.9,1111.783,879.749,1110.62,879.573Zm13.965-1.031a1.809,1.809,0,0,1,1.682-1.927c1.914-.132,3.842-.345,5.733-.636a1.809,1.809,0,0,1,.55,3.576c-1.99.306-4.022.531-6.036.669a1.727,1.727,0,0,1-.308-.005A1.811,1.811,0,0,1,1124.584,878.541Zm-23.591-1.1c-1.931-.57-3.864-1.229-5.746-1.962a1.81,1.81,0,0,1,1.314-3.373c1.786.7,3.622,1.323,5.454,1.863a1.809,1.809,0,0,1-.692,3.536A1.766,1.766,0,0,1,1100.993,877.437Zm38.927-1.262a1.81,1.81,0,0,1,1.216-2.252c1.836-.548,3.67-1.18,5.451-1.88a1.809,1.809,0,0,1,1.323,3.367c-1.876.737-3.807,1.4-5.74,1.98a1.832,1.832,0,0,1-.7.068A1.809,1.809,0,0,1,1139.921,876.174Zm-53.585-4.9c-1.757-.98-3.5-2.048-5.17-3.177a1.809,1.809,0,1,1,2.023-3c1.59,1.072,3.243,2.087,4.912,3.018a1.811,1.811,0,0,1-1.065,3.382A1.834,1.834,0,0,1,1086.336,871.273Zm-12.949-9.227c-1.5-1.343-2.969-2.766-4.354-4.228a1.809,1.809,0,1,1,2.627-2.488c1.315,1.389,2.708,2.741,4.137,4.018a1.809,1.809,0,0,1-2.411,2.7Zm-10.632-11.832c-1.176-1.64-2.3-3.347-3.329-5.075a1.809,1.809,0,1,1,3.105-1.856c.98,1.642,2.045,3.265,3.165,4.824a1.809,1.809,0,1,1-2.941,2.107Zm-7.8-13.867c-.79-1.858-1.508-3.771-2.136-5.685a1.808,1.808,0,1,1,3.437-1.127c.6,1.817,1.279,3.633,2.028,5.4a1.809,1.809,0,1,1-3.329,1.414Zm-4.562-15.253c-.358-1.981-.639-4-.83-6.011a1.809,1.809,0,1,1,3.6-.345c.182,1.907.447,3.829.79,5.711a1.81,1.81,0,1,1-3.562.645Zm-1.1-15.863c.059-1.482.165-2.981.313-4.454q.08-.8.18-1.594a1.789,1.789,0,0,1,2.017-1.574,1.808,1.808,0,0,1,1.574,2.017q-.094.756-.171,1.515c-.141,1.4-.242,2.825-.3,4.234a1.808,1.808,0,0,1-1.88,1.735c-.036,0-.075,0-.112-.007A1.811,1.811,0,0,1,1049.294,805.232Z" transform="translate(-1049.292 -785.372)" fill="#caccd2"/>
          <path id="Path_5305" data-name="Path 5305" d="M1623.328,1177.713a1.794,1.794,0,0,0,1.066-.221c.855-.48,1.715-.986,2.556-1.506a1.809,1.809,0,1,0-1.9-3.079c-.8.494-1.618.975-2.428,1.431a1.809,1.809,0,0,0,.706,3.376Z" transform="translate(-1516.826 -1091.702)" fill="#bdd0fb"/>
        </g>
        <g id="Group_4991" data-name="Group 4991" transform="translate(18.013 17.499)">
          <path id="Path_5306" data-name="Path 5306" d="M1244.513,644.353a.846.846,0,0,0,.161-.969l-4.51-9.252a44.823,44.823,0,0,0,5.563-13.419l9.723-3.355a.844.844,0,0,0,.57-.8l0-12.345a.844.844,0,0,0-.57-.8l-9.725-3.353a44.835,44.835,0,0,0-5.564-13.417l4.507-9.252a.842.842,0,0,0-.163-.967l-8.73-8.728a.845.845,0,0,0-.969-.161l-9.253,4.509a44.829,44.829,0,0,0-13.418-5.562l-3.355-9.723a.844.844,0,0,0-.8-.57h-12.346a.844.844,0,0,0-.8.57l-3.353,9.725a44.847,44.847,0,0,0-13.417,5.565l-9.253-4.507a.841.841,0,0,0-.967.163l-8.728,8.73a.846.846,0,0,0-.163.968l4.509,9.252a44.834,44.834,0,0,0-5.562,13.418l-9.721,3.351a.845.845,0,0,0-.57.8l0,12.345a.844.844,0,0,0,.57.8l9.725,3.353a44.82,44.82,0,0,0,5.564,13.417l-4.507,9.252a.847.847,0,0,0,.163.97l8.73,8.728a.846.846,0,0,0,.967.163l9.252-4.509A44.841,44.841,0,0,0,1191.5,654.3l3.355,9.723a.845.845,0,0,0,.8.57l12.345,0a.846.846,0,0,0,.8-.57l3.353-9.723a44.84,44.84,0,0,0,13.417-5.564l9.252,4.507a.843.843,0,0,0,.967-.163Z" transform="translate(-1147.61 -556.19)" fill="#dbdbdb"/>
          <path id="Path_5307" data-name="Path 5307" d="M1385.107,808.714a12.393,12.393,0,1,1,1.794.317A12.424,12.424,0,0,1,1385.107,808.714Zm-1.841-20.2a9.514,9.514,0,1,0,7.206-1.057,9.6,9.6,0,0,0-1.39-.244A9.447,9.447,0,0,0,1383.266,788.513Z" transform="translate(-1333.937 -742.48)" fill="#fff"/>
          <path id="Path_5308" data-name="Path 5308" d="M1303.391,745.251a31.144,31.144,0,0,0,3.131.158h0q.5,0,.995-.017a30.777,30.777,0,0,0,4.857-.544l.066-.013.185-.037c.119-.024.24-.05.359-.075a.724.724,0,0,0-.3-1.416,29.058,29.058,0,1,1,18.791-13.49.7.7,0,0,0-.1.3.724.724,0,0,0,1.341.445,30.412,30.412,0,0,0,4.166-12.574q.157-1.539.158-3.1a30.516,30.516,0,0,0-60.87-3.131,31.363,31.363,0,0,0-.157,3.137,30.524,30.524,0,0,0,27.381,30.355Z" transform="translate(-1252.485 -660.894)" fill="#f3f6ff"/>
        </g>
      </g>
      <g id="Group_4996" data-name="Group 4996" transform="translate(108.877 75.017)">
        <g id="Group_4993" data-name="Group 4993" transform="translate(40.511)" opacity="0.3">
          <path id="Path_5309" data-name="Path 5309" d="M2123.5,1215a1.113,1.113,0,0,0,1.146-.69c.357-.88.693-1.781,1-2.681a1.117,1.117,0,0,0-2.116-.717c-.29.858-.61,1.717-.951,2.557a1.118,1.118,0,0,0,.614,1.456A1.136,1.136,0,0,0,2123.5,1215Z" transform="translate(-2075.259 -1147.854)" fill="#bdd0fb"/>
          <path id="Path_5310" data-name="Path 5310" d="M1915.288,929.028a1.118,1.118,0,0,1-.87-1.319,46.713,46.713,0,0,0,.709-4.636c.033-.326.062-.656.089-.985a1.117,1.117,0,0,1,1.2-1.024,1.157,1.157,0,0,1,1.024,1.2c-.028.344-.059.689-.094,1.03a48.28,48.28,0,0,1-.744,4.859,1.117,1.117,0,0,1-1.205.887C1915.364,929.041,1915.325,929.033,1915.288,929.028Zm.035-12.615a46.018,46.018,0,0,0-.586-5.643,1.117,1.117,0,1,1,2.2-.368,48.422,48.422,0,0,1,.614,5.916,1.117,1.117,0,0,1-1.07,1.163,1.2,1.2,0,0,1-.161-.005A1.114,1.114,0,0,1,1915.323,916.413Zm-1.865-11.174a45.942,45.942,0,0,0-1.955-5.328,1.117,1.117,0,0,1,2.046-.9,47.859,47.859,0,0,1,2.051,5.588,1.117,1.117,0,1,1-2.142.638Zm-4.555-10.374a45.88,45.88,0,0,0-3.2-4.686,1.118,1.118,0,0,1,1.765-1.372,48.583,48.583,0,0,1,3.354,4.914,1.118,1.118,0,0,1-1.92,1.145Zm-6.947-8.946a46.5,46.5,0,0,0-4.241-3.769,1.117,1.117,0,0,1,1.38-1.757,48.883,48.883,0,0,1,4.445,3.95,1.117,1.117,0,1,1-1.583,1.576Zm-8.91-6.99a45.964,45.964,0,0,0-5.027-2.619,1.117,1.117,0,0,1,.907-2.042,47.985,47.985,0,0,1,5.273,2.746,1.117,1.117,0,0,1-1.153,1.915Zm-10.344-4.6a45.89,45.89,0,0,0-5.522-1.3,1.118,1.118,0,0,1,.381-2.2,48.383,48.383,0,0,1,5.789,1.368,1.118,1.118,0,0,1-.436,2.182A1.083,1.083,0,0,1,1882.7,874.333Zm-18.035-2.874a1.117,1.117,0,0,1,1.029-1.2,48.612,48.612,0,0,1,5.167-.11c.262.008.522.018.785.03a1.117,1.117,0,0,1-.11,2.232c-.244-.013-.49-.022-.74-.029a46.092,46.092,0,0,0-4.935.1,1.175,1.175,0,0,1-.2,0A1.11,1.11,0,0,1,1864.666,871.458Z" transform="translate(-1864.663 -870.125)" fill="#bdd0fb"/>
        </g>
        <g id="Group_4994" data-name="Group 4994" transform="translate(0 63.95)" opacity="0.3">
          <path id="Path_5311" data-name="Path 5311" d="M1683.2,1251.435a48.537,48.537,0,0,1-5.762-1.016,1.117,1.117,0,0,1,.52-2.173,46.474,46.474,0,0,0,5.495.967,1.118,1.118,0,0,1-.239,2.223A.045.045,0,0,0,1683.2,1251.435Zm4.719-.8a1.115,1.115,0,0,1,1.11-1.123,46.37,46.37,0,0,0,5.572-.37,1.118,1.118,0,0,1,.282,2.219,48.622,48.622,0,0,1-5.839.386c-.04,0-.08,0-.121,0A1.121,1.121,0,0,1,1687.922,1250.637Zm-16.081-1.927a48.341,48.341,0,0,1-5.346-2.379,1.117,1.117,0,1,1,1.029-1.983,46.514,46.514,0,0,0,5.1,2.267,1.117,1.117,0,0,1-.5,2.158A1.028,1.028,0,0,1,1671.841,1248.71Zm27.44.751a1.119,1.119,0,0,1,.808-1.358,46.1,46.1,0,0,0,5.317-1.7,1.118,1.118,0,0,1,.811,2.083,48.332,48.332,0,0,1-5.575,1.786,1.118,1.118,0,0,1-1.362-.81Zm-37.8-6.136a48.729,48.729,0,0,1-4.617-3.593,1.118,1.118,0,0,1,1.477-1.678,45.933,45.933,0,0,0,4.4,3.428,1.118,1.118,0,0,1-.746,2.034A1.151,1.151,0,0,1,1661.479,1243.325Zm-8.769-7.717a48.777,48.777,0,0,1-3.624-4.6,1.117,1.117,0,0,1,1.834-1.275,46.336,46.336,0,0,0,3.46,4.383,1.117,1.117,0,0,1-.948,1.854A1.09,1.09,0,0,1,1652.709,1235.608Zm-6.671-9.593a48.045,48.045,0,0,1-2.416-5.332,1.117,1.117,0,1,1,2.087-.8,45.954,45.954,0,0,0,2.3,5.084,1.115,1.115,0,0,1-.465,1.51,1.094,1.094,0,0,1-.634.124A1.123,1.123,0,0,1,1646.039,1226.015Z" transform="translate(-1643.549 -1219.168)" fill="#bdd0fb"/>
          <path id="Path_5312" data-name="Path 5312" d="M2006.87,1350.191a1.111,1.111,0,0,0,.641-.128c.843-.453,1.674-.935,2.475-1.428a1.118,1.118,0,0,0-1.174-1.9c-.763.471-1.558.929-2.362,1.363a1.117,1.117,0,0,0,.419,2.1Z" transform="translate(-1939.481 -1323.225)" fill="#bdd0fb"/>
        </g>
        <g id="Group_4995" data-name="Group 4995" transform="translate(8.912 11.62)">
          <path id="Path_5313" data-name="Path 5313" d="M1757.037,992.547a.565.565,0,0,0,.108-.648l-3.017-6.191a29.976,29.976,0,0,0,3.721-8.979l6.506-2.244a.564.564,0,0,0,.382-.535v-8.261a.567.567,0,0,0-.382-.535l-6.507-2.242a30.066,30.066,0,0,0-3.723-8.979l3.015-6.19a.567.567,0,0,0-.108-.649l-5.843-5.841a.566.566,0,0,0-.648-.108l-6.191,3.017a30.041,30.041,0,0,0-8.979-3.723l-2.245-6.506a.564.564,0,0,0-.535-.381h-8.262a.567.567,0,0,0-.535.381l-2.242,6.508a30.033,30.033,0,0,0-8.98,3.723l-6.193-3.016a.567.567,0,0,0-.649.108l-5.84,5.843a.566.566,0,0,0-.108.648l3.018,6.191a30.03,30.03,0,0,0-3.723,8.979l-6.506,2.244a.565.565,0,0,0-.381.535v8.261a.568.568,0,0,0,.381.535l6.508,2.242a30.031,30.031,0,0,0,3.723,8.98l-3.015,6.191a.566.566,0,0,0,.108.649l5.843,5.841a.566.566,0,0,0,.649.108l6.191-3.018a30.022,30.022,0,0,0,8.979,3.723l2.244,6.507a.565.565,0,0,0,.535.381h8.261a.567.567,0,0,0,.535-.381l2.242-6.508a30.039,30.039,0,0,0,8.98-3.723l6.192,3.016a.567.567,0,0,0,.649-.108Z" transform="translate(-1692.19 -933.55)" fill="#dbdbdb"/>
          <path id="Path_5314" data-name="Path 5314" d="M1850.416,1102.035a8.442,8.442,0,1,1,1.235.216A8.514,8.514,0,0,1,1850.416,1102.035Zm-3.961-9.718a6.22,6.22,0,0,0,4.509,7.552h0a6.218,6.218,0,1,0-4.509-7.552Z" transform="translate(-1816.208 -1057.566)" fill="#fff"/>
          <path id="Path_5315" data-name="Path 5315" d="M1793.6,1057.9c.7.072,1.417.106,2.138.108a21.121,21.121,0,0,0,4.268-.435l.188-.04a1.119,1.119,0,0,0,.877-.978,1.138,1.138,0,0,0-.02-.35,1.119,1.119,0,0,0-1.328-.856,18.885,18.885,0,0,1-3.983.423h0c-.073,0-.146,0-.219,0a18.633,18.633,0,0,1-8.91-2.351,18.9,18.9,0,0,1-4.055-3.038l-.03-.03c-.031-.031-.06-.06-.092-.089a18.7,18.7,0,0,1-5.513-13.305q0-.975.1-1.935a18.818,18.818,0,0,1,37.537,1.931c0,.639-.033,1.277-.1,1.909a18.775,18.775,0,0,1-2.569,7.754,1.117,1.117,0,1,0,1.917,1.148,21.017,21.017,0,0,0,2.875-8.673,21.233,21.233,0,0,0,.108-2.136,21.052,21.052,0,0,0-41.993-2.16c-.071.713-.109,1.437-.109,2.164A21.076,21.076,0,0,0,1793.6,1057.9Z" transform="translate(-1759.575 -1000.821)" fill="#fff"/>
        </g>
      </g>
    </g>
  </g>
</svg>
