<svg xmlns="http://www.w3.org/2000/svg" width="45.929" height="56" viewBox="0 0 45.929 56">
  <g id="gate-of-india" transform="translate(-46.173)">
    <path id="Path_5595" data-name="Path 5595" d="M89.754,27.664a.818.818,0,0,0,.818-.818V24.013c.013-.024.025-.049.037-.074L92,20.862a1.188,1.188,0,0,0-1.083-1.677h-.569V16.822a1.929,1.929,0,0,0-1.927-1.927h-.164V12.531A1.929,1.929,0,0,0,86.326,10.6h-.705V6.366a2.2,2.2,0,0,0-2.194-2.194H79.322V2.629a1.583,1.583,0,0,0-1.581-1.581H73.493l-.6-.6A1.529,1.529,0,0,0,71.807,0H66.468A1.529,1.529,0,0,0,65.38.451l-.6.6H60.534a1.583,1.583,0,0,0-1.581,1.581V4.173H54.848a2.2,2.2,0,0,0-2.194,2.194V10.6h-.705a1.929,1.929,0,0,0-1.927,1.927v2.364h-.164a1.929,1.929,0,0,0-1.927,1.927v2.364h-.569a1.188,1.188,0,0,0-1.083,1.677l1.387,3.077a1.182,1.182,0,0,0,.266.373V42.3a.818.818,0,1,0,1.636,0V40.689h9.386V54.364H49.567V45.783a.818.818,0,1,0-1.636,0v8.581H47.3A.818.818,0,1,0,47.3,56H91.175a.818.818,0,1,0,0-1.636h-.6V30.332a.818.818,0,1,0-1.636,0V35.6H79.322V24.639h9.614v2.207a.818.818,0,0,0,.818.818ZM49.038,23l-.984-2.182H90.221l-.961,2.132c-.021.016-.041.033-.06.05H49.038Zm.529,12.6V24.639h9.386V35.6ZM60.588,2.684h4.533a.818.818,0,0,0,.578-.24l.809-.809h5.259l.808.809a.818.818,0,0,0,.578.24h4.533V4.173h-17.1Zm-6.3,3.682a.559.559,0,0,1,.558-.558h28.58a.559.559,0,0,1,.558.558V10.6H76.667V8.877a1.49,1.49,0,0,0-1.488-1.488H63.1a1.49,1.49,0,0,0-1.488,1.488V10.6H54.29V6.366ZM63.244,10.6V9.024H75.031V10.6ZM51.658,12.531a.291.291,0,0,1,.291-.291H86.326a.291.291,0,0,1,.291.291v2.364H51.658Zm-2.091,4.29a.291.291,0,0,1,.291-.291H88.417a.291.291,0,0,1,.291.291v2.364H49.567Zm0,20.413H62.224v1.818H49.567Zm11.022,3.454h1.636V54.364H60.588Zm15.462,0h1.636V54.364H76.051Zm3.272,13.675V40.689h9.614V54.364H79.322Zm9.614-15.311H76.051V37.235H88.937ZM77.686,35.6H76.051v-.915a6.9,6.9,0,0,0-1.03-3.63.818.818,0,1,0-1.391.86,5.264,5.264,0,0,1,.786,2.77v19.68H63.86V34.684A5.277,5.277,0,0,1,71.3,29.87a.818.818,0,0,0,.671-1.492,6.913,6.913,0,0,0-9.746,6.306V35.6H60.588V24.639h17.1Z" transform="translate(0 0)"/>
    <path id="Path_5596" data-name="Path 5596" d="M93.719,243.71a3.33,3.33,0,1,0,3.33,3.33A3.334,3.334,0,0,0,93.719,243.71Zm0,5.025a1.695,1.695,0,1,1,1.694-1.695A1.7,1.7,0,0,1,93.719,248.735Z" transform="translate(-39.394 -217.133)"/>
    <path id="Path_5597" data-name="Path 5597" d="M362.042,247.041a3.33,3.33,0,1,0,3.33-3.33A3.334,3.334,0,0,0,362.042,247.041Zm5.025,0a1.695,1.695,0,1,1-1.695-1.694A1.7,1.7,0,0,1,367.067,247.041Z" transform="translate(-281.423 -217.134)"/>
  </g>
</svg>
