<svg xmlns="http://www.w3.org/2000/svg" width="60.692" height="69.684" viewBox="0 0 60.692 69.684">
  <g id="creativity" transform="translate(-0.004 -0.001)">
    <path id="Path_5164" data-name="Path 5164" d="M101.9,48.251a5.615,5.615,0,0,0-3.648,5.244,5.553,5.553,0,0,0,.644,2.557,4.476,4.476,0,0,0,0,8.373,5.552,5.552,0,0,0-.644,2.557,5.614,5.614,0,0,0,3.648,5.244,4.434,4.434,0,0,0-.277,1.5,4.465,4.465,0,0,0,6.081,4.193,4.485,4.485,0,0,0,8.53-1.945V44.5a4.485,4.485,0,0,0-8.53-1.945,4.454,4.454,0,0,0-5.8,5.693ZM106.12,44.5a2.25,2.25,0,0,1,2.248,2.248h2.248a4.452,4.452,0,0,0-1.036-2.836,2.242,2.242,0,0,1,4.408.588v31.47a2.242,2.242,0,0,1-4.408.588,4.451,4.451,0,0,0,1.036-2.836h-2.248a2.248,2.248,0,1,1-2.248-2.248V69.23a4.453,4.453,0,0,0-2.866,1.061,3.369,3.369,0,1,1,3.99-3.309h2.248a5.626,5.626,0,0,0-5.62-5.62,5.56,5.56,0,0,0-3.372,1.154v-.03a2.248,2.248,0,1,1,0-4.5v-.029a5.56,5.56,0,0,0,3.372,1.153,5.626,5.626,0,0,0,5.62-5.62h-2.248a3.372,3.372,0,1,1-3.99-3.309,4.452,4.452,0,0,0,2.866,1.061V49a2.248,2.248,0,0,1,0-4.5Zm0,0" transform="translate(-82.513 -34.386)"/>
    <path id="Path_5165" data-name="Path 5165" d="M266.119,42.256a4.471,4.471,0,0,0-1.584.3A4.485,4.485,0,0,0,256,44.5v31.47a4.485,4.485,0,0,0,8.531,1.945,4.465,4.465,0,0,0,6.08-4.193,4.42,4.42,0,0,0-.277-1.5,5.614,5.614,0,0,0,3.648-5.244,5.552,5.552,0,0,0-.644-2.557,4.476,4.476,0,0,0,0-8.373,5.552,5.552,0,0,0,.644-2.557,5.615,5.615,0,0,0-3.648-5.244,4.418,4.418,0,0,0,.277-1.5,4.5,4.5,0,0,0-4.5-4.5Zm5.62,11.239a3.372,3.372,0,1,1-6.744,0h-2.248a5.626,5.626,0,0,0,5.62,5.62,5.559,5.559,0,0,0,3.372-1.153v.029a2.248,2.248,0,1,1,0,4.5v.03a5.56,5.56,0,0,0-3.372-1.154,5.626,5.626,0,0,0-5.62,5.62H265a3.372,3.372,0,1,1,3.99,3.309,4.456,4.456,0,0,0-2.866-1.061v2.248a2.248,2.248,0,1,1-2.248,2.248h-2.248a4.451,4.451,0,0,0,1.036,2.836,2.242,2.242,0,0,1-4.408-.588V44.5a2.242,2.242,0,0,1,4.408-.588,4.452,4.452,0,0,0-1.036,2.836h2.248A2.248,2.248,0,1,1,266.119,49v2.248a4.455,4.455,0,0,0,2.866-1.061,3.372,3.372,0,0,1,2.753,3.309Zm0,0" transform="translate(-220.034 -34.386)"/>
    <path id="Path_5166" data-name="Path 5166" d="M107.557,7.011A25.636,25.636,0,0,0,88.208.054L88.347,2.3A23.6,23.6,0,0,1,102.883,45.53,13.894,13.894,0,0,0,97.8,51.7H81.865a14.123,14.123,0,0,0-5.1-6.219A23.5,23.5,0,0,1,66.268,25.1l-2.247-.07A25.729,25.729,0,0,0,75.513,47.351,11.843,11.843,0,0,1,79.4,51.7H76.371v2.248H80.3a12.97,12.97,0,0,1,.481,2.248H78.619v2.248h2.248v3.372a1.124,1.124,0,0,0,1.124,1.124h1.124a6.744,6.744,0,1,0,13.487,0h1.124a1.123,1.123,0,0,0,1.124-1.124V58.446H101.1V56.2H98.929a12.53,12.53,0,0,1,.452-2.248h3.965V51.7h-3.078a11.589,11.589,0,0,1,3.859-4.3,25.846,25.846,0,0,0,3.431-40.394Zm-17.7,60.427a4.5,4.5,0,0,1-4.5-4.5h8.991A4.5,4.5,0,0,1,89.858,67.438ZM96.6,60.694H83.115V58.446H96.6Zm.08-4.5H83.025a15.3,15.3,0,0,0-.381-2.248H97.032a14.936,14.936,0,0,0-.35,2.248Zm0,0" transform="translate(-55.013 0)"/>
    <path id="Path_5167" data-name="Path 5167" d="M49.128,7.875a4.5,4.5,0,0,1,4.5,4.5,1.124,1.124,0,1,0,2.248,0,4.5,4.5,0,0,1,4.5-4.5,1.124,1.124,0,1,0,0-2.248,4.5,4.5,0,0,1-4.5-4.5,1.124,1.124,0,1,0-2.248,0,4.5,4.5,0,0,1-4.5,4.5,1.124,1.124,0,0,0,0,2.248Zm5.62-3.02a6.8,6.8,0,0,0,1.9,1.9,6.809,6.809,0,0,0-1.9,1.9,6.8,6.8,0,0,0-1.9-1.9A6.8,6.8,0,0,0,54.747,4.855Zm0,0" transform="translate(-41.256 -0.006)"/>
    <path id="Path_5168" data-name="Path 5168" d="M12.367,87.875a1.124,1.124,0,1,0,0-2.248,4.5,4.5,0,0,1-4.5-4.5,1.124,1.124,0,1,0-2.248,0,4.5,4.5,0,0,1-4.5,4.5,1.124,1.124,0,1,0,0,2.248,4.5,4.5,0,0,1,4.5,4.5,1.124,1.124,0,1,0,2.248,0A4.5,4.5,0,0,1,12.367,87.875Zm-5.62.772a6.8,6.8,0,0,0-1.9-1.9,6.809,6.809,0,0,0,1.9-1.9,6.816,6.816,0,0,0,1.9,1.9A6.81,6.81,0,0,0,6.747,88.648Zm0,0" transform="translate(0 -68.767)"/>
  </g>
</svg>
