<svg xmlns="http://www.w3.org/2000/svg" width="23.28" height="23.28" viewBox="0 0 23.28 23.28">
  <path id="linkedin" d="M11.64,0A11.64,11.64,0,1,0,23.28,11.64,11.641,11.641,0,0,0,11.64,0ZM8.258,17.6H5.423V9.068H8.258ZM6.84,7.9H6.822a1.478,1.478,0,1,1,.037-2.947A1.478,1.478,0,1,1,6.84,7.9ZM18.479,17.6H15.645V13.034c0-1.147-.41-1.929-1.436-1.929a1.552,1.552,0,0,0-1.454,1.037,1.941,1.941,0,0,0-.093.692V17.6H9.826s.037-7.729,0-8.529h2.835v1.208a2.814,2.814,0,0,1,2.555-1.408c1.865,0,3.264,1.219,3.264,3.839Zm0,0" fill="#40394a" opacity="0.38"/>
</svg>
