<svg xmlns="http://www.w3.org/2000/svg" width="139.51" height="29.462" viewBox="0 0 139.51 29.462">
  <path id="Tabular_logo" data-name="Tabular logo" d="M-66.823-5.814C-66.823-1.558-64.505,0-60.781,0h3.42V-3.61h-2.66c-1.824,0-2.432-.646-2.432-2.2V-20.938l8.474-.114v-3.534l-8.474.114V-28.12h-4.37v3.648h-2.47v3.534h2.47Zm12.008-4.75c0,6.46,4.37,10.906,9.8,10.906a9.012,9.012,0,0,0,7.334-3.458V0h4.37V-20.938h-4.37v3.04a8.912,8.912,0,0,0-7.258-3.382C-50.445-21.28-54.815-17.024-54.815-10.564Zm17.138.076c0,4.522-3.078,7.068-6.346,7.068-3.23,0-6.346-2.622-6.346-7.144s3.116-6.954,6.346-6.954C-40.755-17.518-37.677-14.972-37.677-10.488Zm14.4-7.334v-10.3h-4.332V0h4.332V-3.04a8.9,8.9,0,0,0,7.3,3.382c5.51,0,9.842-4.446,9.842-10.906S-10.431-21.28-15.979-21.28A8.951,8.951,0,0,0-23.275-17.822Zm12.73,7.258c0,4.522-3.116,7.144-6.384,7.144-3.23,0-6.346-2.546-6.346-7.068,0-4.484,3.116-7.03,6.346-7.03C-13.661-17.518-10.545-15.086-10.545-10.564ZM17.119-20.938H12.787V-9.272c0,3.838-2.09,5.814-5.282,5.814-3.154,0-5.244-1.976-5.244-5.814V-20.938H-2.033V-8.626C-2.033-2.774,1.691.3,6.593.3a7.794,7.794,0,0,0,6.194-2.812V0h4.332ZM22.819,0h4.332V-28.12H22.819Zm8.588-10.564c0,6.46,4.37,10.906,9.8,10.906a9.012,9.012,0,0,0,7.334-3.458V0h4.37V-20.938h-4.37v3.04a8.912,8.912,0,0,0-7.258-3.382C35.777-21.28,31.407-17.024,31.407-10.564Zm17.138.076c0,4.522-3.078,7.068-6.346,7.068-3.23,0-6.346-2.622-6.346-7.144s3.116-6.954,6.346-6.954C45.467-17.518,48.545-14.972,48.545-10.488Zm14.4-.532c0-4.446,1.976-5.776,5.168-5.776h1.1V-21.28a6.82,6.82,0,0,0-6.27,3.382v-3.04H58.615V0h4.332Z" transform="translate(69.793 28.62)" stroke="#000" stroke-width="1"/>
</svg>
