<svg xmlns="http://www.w3.org/2000/svg" width="44.844" height="44.85" viewBox="0 0 44.844 44.85">
  <g id="marketing" transform="translate(0.001 0)">
    <path id="Path_3780" data-name="Path 3780" d="M.1,32.146a4.483,4.483,0,0,0,8.19,2.518L18.184,39.2a4.545,4.545,0,0,0-.15,1.16,4.483,4.483,0,0,0,7.173,3.587l-.9-1.2a2.958,2.958,0,0,1-1.793.6,2.995,2.995,0,0,1-2.75-4.167.747.747,0,0,0-.361-1.063L8.912,33.3a4.416,4.416,0,0,0-.05-2.5l5.8-3.162-.716-1.312L8.176,29.472A4.485,4.485,0,0,0,5.332,27.73v-10.6a4.477,4.477,0,0,0,2.423-1.248L13.965,19l.668-1.338-6.008-3a4.395,4.395,0,0,0,.287-3.089l9.9-4.547a4.489,4.489,0,0,0,2.96,1.9v3.8h1.494v-3.8a4.489,4.489,0,0,0,2.96-1.9l9.9,4.544a4.416,4.416,0,0,0,.05,2.5l-5.8,3.162.716,1.312,5.765-3.146A4.484,4.484,0,0,0,39.7,17.135v10.6a4.512,4.512,0,0,0-2.839,1.718l1.2.9a2.989,2.989,0,1,1,1.794,4.72l-.3,1.465a4.571,4.571,0,0,0,.9.091,4.483,4.483,0,0,0,.747-8.9v-10.6A4.483,4.483,0,1,0,36.744,10.2l-9.9-4.543a4.483,4.483,0,1,0-8.653,0L8.292,10.2a4.483,4.483,0,1,0-4.454,6.934v10.6A4.488,4.488,0,0,0,.1,32.146ZM40.451,9.73a2.989,2.989,0,1,1-2.989,2.989A2.989,2.989,0,0,1,40.451,9.73ZM22.518,1.511A2.989,2.989,0,1,1,19.529,4.5,2.989,2.989,0,0,1,22.518,1.511ZM7.574,32.146a2.989,2.989,0,1,1-2.989-2.989A2.989,2.989,0,0,1,7.574,32.146ZM1.6,12.719a2.989,2.989,0,1,1,2.989,2.989A2.989,2.989,0,0,1,1.6,12.719Zm0,0" transform="translate(-0.096 0.001)"/>
    <path id="Path_3781" data-name="Path 3781" d="M203.9,200.2a3.736,3.736,0,1,0,3.736,3.736A3.736,3.736,0,0,0,203.9,200.2Zm0,5.978a2.242,2.242,0,1,1,2.242-2.242A2.242,2.242,0,0,1,203.9,206.173Zm0,0" transform="translate(-181.478 -181.497)"/>
    <path id="Path_3782" data-name="Path 3782" d="M153.509,165.172l2.115,2.115a.748.748,0,0,0,1.057,0l.808-.807a7.033,7.033,0,0,0,.652.27v1.137a.747.747,0,0,0,.747.747h2.242v-1.494h-1.492V166.2a.748.748,0,0,0-.559-.724,5.464,5.464,0,0,1-1.353-.559.748.748,0,0,0-.9.119l-.667.667-1.058-1.058.667-.667a.747.747,0,0,0,.119-.9,5.463,5.463,0,0,1-.559-1.353.748.748,0,0,0-.724-.559h-.941v-1.494h.941a.747.747,0,0,0,.724-.559,5.462,5.462,0,0,1,.559-1.353.747.747,0,0,0-.119-.9l-.667-.667,1.058-1.058.667.667a.747.747,0,0,0,.9.119,5.476,5.476,0,0,1,1.353-.559.748.748,0,0,0,.559-.723v-.942h1.494v.942a.747.747,0,0,0,.559.723,5.475,5.475,0,0,1,1.353.559.747.747,0,0,0,.9-.119l.667-.667,1.058,1.058-.667.667a.747.747,0,0,0-.119.9,5.463,5.463,0,0,1,.559,1.353.747.747,0,0,0,.723.559h.942v2.242H168.6V158.92a.747.747,0,0,0-.747-.747h-1.137q-.119-.332-.27-.652l.807-.808a.747.747,0,0,0,0-1.056l-2.114-2.115a.747.747,0,0,0-1.057,0l-.808.807a7.022,7.022,0,0,0-.652-.27v-1.137a.747.747,0,0,0-.747-.747h-2.989a.747.747,0,0,0-.747.747v1.137a7.039,7.039,0,0,0-.652.27l-.808-.809a.747.747,0,0,0-1.057,0l-2.114,2.114a.747.747,0,0,0,0,1.057l.807.808a7.043,7.043,0,0,0-.27.652h-1.137a.747.747,0,0,0-.747.747v2.989a.747.747,0,0,0,.747.747h1.137q.118.332.27.652l-.809.81A.748.748,0,0,0,153.509,165.172Zm0,0" transform="translate(-137.962 -137.981)"/>
    <path id="Path_3783" data-name="Path 3783" d="M324.586,278.379l.668-1.337,5.23,2.615-.668,1.336Zm0,0" transform="translate(-294.28 -251.167)"/>
    <path id="Path_3784" data-name="Path 3784" d="M209.046,277.9l4.678,3.34a.744.744,0,0,0,.434.14h11.955a.747.747,0,0,0,.747-.747v-8.139a2.3,2.3,0,0,0-1.868-2.292,2.249,2.249,0,0,0-1.822.5l-.044.038a2.237,2.237,0,0,0-2.989,0,2.328,2.328,0,0,0-2.242-.445v-3.863a2.242,2.242,0,1,0-4.483,0v9.141l-1.983-1.189a2.054,2.054,0,0,0-1.988-.075l-.118.058a2.068,2.068,0,0,0-.276,3.531Zm.946-2.194.117-.058a.566.566,0,0,1,.549.021l3.115,1.868a.747.747,0,0,0,1.132-.639V266.437a.747.747,0,1,1,1.494,0v5.977a.747.747,0,0,0,1.494,0,.747.747,0,0,1,1.494,0,.747.747,0,1,0,1.494,0,.747.747,0,0,1,1.494,0,.747.747,0,1,0,1.494,0,.747.747,0,0,1,.878-.736.809.809,0,0,1,.617.816v7.392H214.4l-4.483-3.2a.572.572,0,0,1,.075-.978Zm0,0" transform="translate(-188.748 -239.52)"/>
  </g>
</svg>
