<svg xmlns="http://www.w3.org/2000/svg" width="49.667" height="42.048" viewBox="0 0 49.667 42.048">
  <path id="money-growth" d="M12.453,65.12l1.909.658a4.211,4.211,0,0,1,.1,7.922,1.565,1.565,0,1,1-3.127,0A4.216,4.216,0,0,1,8.6,69.757a1.563,1.563,0,0,1,3.127,0,1.083,1.083,0,0,0,1.082,1.082h.185a1.083,1.083,0,0,0,.353-2.1l-1.909-.658a4.211,4.211,0,0,1-.1-7.922,1.565,1.565,0,1,1,3.127,0A4.216,4.216,0,0,1,17.2,64.1a1.563,1.563,0,0,1-3.127,0,1.083,1.083,0,0,0-1.082-1.082h-.185a1.083,1.083,0,0,0-.353,2.1ZM25.8,66.927a12.9,12.9,0,1,1-12.9-12.9A12.913,12.913,0,0,1,25.8,66.927Zm-3.127,0A9.772,9.772,0,1,0,12.9,76.7,9.783,9.783,0,0,0,22.67,66.927ZM46.9,76.7H45.829V50.9a1.563,1.563,0,0,0-3.127,0V76.7H34.787V57.155a1.563,1.563,0,1,0-3.127,0V76.7H25.015a1.563,1.563,0,0,0,0,3.127H46.9a1.563,1.563,0,0,0,0-3.127ZM24.069,55.818l5.588-5.588,2.461,2.461a1.563,1.563,0,0,0,2.211,0L42.7,44.318v.72a1.563,1.563,0,1,0,3.127,0c0-4.962.007-4.54-.017-4.716a1.563,1.563,0,0,0-.948-1.224c-.387-.16-.267-.119-5.093-.119a1.563,1.563,0,0,0,0,3.127h.72l-7.267,7.267-2.461-2.461a1.563,1.563,0,0,0-2.211,0l-6.694,6.694a1.563,1.563,0,0,0,2.211,2.211Z" transform="translate(0.6 -38.377)" stroke="#fff" stroke-width="1.2"/>
</svg>
