<svg xmlns="http://www.w3.org/2000/svg" width="52" height="52" viewBox="0 0 52 52">
  <g id="phone-call_2_" data-name="phone-call (2)" transform="translate(0 0)">
    <g id="Group_5114" data-name="Group 5114" transform="translate(0 0)">
      <path id="Path_5601" data-name="Path 5601" d="M44.382,7.612A26,26,0,1,0,52,25.994,26,26,0,0,0,44.382,7.612ZM39.376,36.217l0,0v-.009l-1.317,1.309a6.933,6.933,0,0,1-6.543,1.872,23.038,23.038,0,0,1-6.691-3,30.913,30.913,0,0,1-5.278-4.255A31.15,31.15,0,0,1,15.6,27.355a24.264,24.264,0,0,1-2.964-6,6.933,6.933,0,0,1,1.733-7.081l1.543-1.543a1.1,1.1,0,0,1,1.557,0l0,0L22.342,17.6a1.1,1.1,0,0,1,0,1.557l0,0-2.86,2.86a2.331,2.331,0,0,0-.243,3.033,33.448,33.448,0,0,0,3.423,4,33.243,33.243,0,0,0,4.507,3.787,2.349,2.349,0,0,0,3-.26l2.765-2.808a1.1,1.1,0,0,1,1.557,0l0,0,4.879,4.888A1.1,1.1,0,0,1,39.376,36.217Z" transform="translate(0 0)" fill="#fff"/>
    </g>
  </g>
</svg>
