<svg xmlns="http://www.w3.org/2000/svg" xmlns:xlink="http://www.w3.org/1999/xlink" width="387.78" height="336.25" viewBox="0 0 387.78 336.25">
  <defs>
    <clipPath id="clip-path">
      <path id="Path_7152" data-name="Path 7152" d="M169.28,240.61l2.38,5.19s14.63-6.85,17.8-10.84c.81-1.03,1.93-2.67,3.14-4.54,1.99-3.09,4.24-6.81,5.8-9.42,1.16-1.95,1.94-3.28,1.94-3.28l-8.28-13.06c-1.81,1.39-7.35,23.71-8.34,24.91S169.28,240.61,169.28,240.61Z"/>
    </clipPath>
    <clipPath id="clip-path-2">
      <path id="Path_7177" data-name="Path 7177" d="M230.27,249.14s5.82-35.45-4.18-51.34c0,0-19.97-1.24-34.02,6.87,0,0,5.81,15.78,6.67,44.47Z"/>
    </clipPath>
  </defs>
  <g id="Project_management" data-name="Project management" transform="translate(-1178.381 -2924.75)">
    <g id="Shadow_1_" transform="translate(1122.271 2833.439)">
      <ellipse id="_x3C_Path_x3E__359_" cx="193.89" cy="11.32" rx="193.89" ry="11.32" transform="translate(56.11 404.92)" fill="#eee"/>
    </g>
    <g id="Interface" transform="translate(1122.271 2833.439)">
      <g id="Group_5873" data-name="Group 5873">
        <path id="Path_7122" data-name="Path 7122" d="M438.47,360.52H255.76a3.651,3.651,0,0,1-3.65-3.65V157.41a3.651,3.651,0,0,1,3.65-3.65H438.47a3.651,3.651,0,0,1,3.65,3.65V356.87A3.638,3.638,0,0,1,438.47,360.52Z" fill="#e5e5e5" opacity="0.5"/>
        <path id="Path_7123" data-name="Path 7123" d="M432.47,356.52H249.76a3.651,3.651,0,0,1-3.65-3.65V153.41a3.651,3.651,0,0,1,3.65-3.65H432.47a3.651,3.651,0,0,1,3.65,3.65V352.87A3.638,3.638,0,0,1,432.47,356.52Z" fill="#fff"/>
      </g>
      <g id="Group_5874" data-name="Group 5874">
        <path id="Path_7125" data-name="Path 7125" d="M189.09,325.63H96.38a3.651,3.651,0,0,1-3.65-3.65V152.52a3.651,3.651,0,0,1,3.65-3.65h92.71a3.651,3.651,0,0,1,3.65,3.65V321.98A3.638,3.638,0,0,1,189.09,325.63Z" fill="#c7c7c7" opacity="0.5"/>
        <path id="Path_7126" data-name="Path 7126" d="M183.09,319.63H90.38a3.651,3.651,0,0,1-3.65-3.65V146.52a3.651,3.651,0,0,1,3.65-3.65h92.71a3.651,3.651,0,0,1,3.65,3.65V315.98A3.638,3.638,0,0,1,183.09,319.63Z" fill="#dfdfdf"/>
      </g>
      <g id="Group_5875" data-name="Group 5875">
        <path id="Path_7128" data-name="Path 7128" d="M433.07,114.56H90.58a3.845,3.845,0,0,1-3.85-3.85V95.16a3.845,3.845,0,0,1,3.85-3.85H433.07a3.845,3.845,0,0,1,3.85,3.85v15.55A3.839,3.839,0,0,1,433.07,114.56Z" fill="#b7b7b7"/>
        <path id="Path_7129" data-name="Path 7129" d="M401.39,102.94a4.49,4.49,0,1,1-4.49-4.54A4.513,4.513,0,0,1,401.39,102.94Z" fill="#fff" opacity="0.6"/>
        <path id="Path_7130" data-name="Path 7130" d="M415.43,102.94a4.49,4.49,0,1,1-4.49-4.54A4.513,4.513,0,0,1,415.43,102.94Z" fill="#fff" opacity="0.6"/>
        <path id="Path_7131" data-name="Path 7131" d="M429.46,102.94a4.49,4.49,0,1,1-4.49-4.54A4.513,4.513,0,0,1,429.46,102.94Z" fill="#fff" opacity="0.6"/>
        <rect id="Rectangle_551" data-name="Rectangle 551" width="11.54" height="11.67" transform="translate(94.89 97.1)" fill="#fff" opacity="0.6"/>
      </g>
    </g>
    <g id="Asset_1" transform="translate(1122.271 2833.439)">
      <g id="Group_5878" data-name="Group 5878">
        <g id="Group_5876" data-name="Group 5876">
          <rect id="Rectangle_552" data-name="Rectangle 552" width="107.84" height="20.63" transform="translate(72.67 171.04)" fill="#7a7a7a"/>
          <rect id="Rectangle_553" data-name="Rectangle 553" width="107.84" height="20.63" transform="translate(72.67 171.04)" opacity="0.2"/>
        </g>
        <g id="Group_5877" data-name="Group 5877">
          <rect id="Rectangle_554" data-name="Rectangle 554" width="8.61" height="8.61" transform="translate(79.58 177.05)" fill="#fff"/>
          <path id="Path_7132" data-name="Path 7132" d="M81.46,181.38l1.61,2.06,3.24-4.17" fill="none" stroke="#636363" stroke-linecap="round" stroke-linejoin="round" stroke-miterlimit="10" stroke-width="1.5"/>
        </g>
        <path id="Path_7133" data-name="Path 7133" d="M174.83,186.19h-8.66v-5.85h8.66Zm-4.33-10.16a3.672,3.672,0,0,0-3.67,3.67h1a2.67,2.67,0,0,1,5.34,0h1A3.679,3.679,0,0,0,170.5,176.03Z" fill="#dedede"/>
      </g>
      <g id="Group_5883" data-name="Group 5883">
        <g id="Group_5879" data-name="Group 5879">
          <rect id="Rectangle_555" data-name="Rectangle 555" width="107.84" height="20.63" transform="translate(56.82 209.18)" fill="#aba9a9"/>
          <rect id="Rectangle_556" data-name="Rectangle 556" width="107.84" height="20.63" transform="translate(56.82 209.18)" fill="#fff" opacity="0.4"/>
        </g>
        <g id="Group_5880" data-name="Group 5880">
          <rect id="Rectangle_557" data-name="Rectangle 557" width="8.61" height="8.61" transform="translate(63.73 215.18)" fill="#fff"/>
        </g>
        <g id="Group_5882" data-name="Group 5882">
          <rect id="Rectangle_558" data-name="Rectangle 558" width="8.66" height="5.85" transform="translate(150.32 218.47)" fill="#fff"/>
          <g id="Group_5881" data-name="Group 5881">
            <path id="Path_7134" data-name="Path 7134" d="M158.32,217.83h-1a2.67,2.67,0,1,0-5.34,0h-1a3.67,3.67,0,1,1,7.34,0Z" fill="#fff"/>
          </g>
        </g>
      </g>
      <g id="Group_5888" data-name="Group 5888">
        <g id="Group_5884" data-name="Group 5884">
          <rect id="Rectangle_559" data-name="Rectangle 559" width="107.84" height="20.63" transform="translate(73.23 249.1)" fill="#949494"/>
          <rect id="Rectangle_560" data-name="Rectangle 560" width="107.84" height="20.63" transform="translate(73.23 249.1)" fill="#fff" opacity="0.4"/>
        </g>
        <g id="Group_5885" data-name="Group 5885">
          <rect id="Rectangle_561" data-name="Rectangle 561" width="8.61" height="8.61" transform="translate(80.14 255.11)" fill="#fff"/>
          <path id="Path_7135" data-name="Path 7135" d="M82.02,259.43l1.61,2.07,3.24-4.17" fill="none" stroke="#b1b1b1" stroke-linecap="round" stroke-linejoin="round" stroke-miterlimit="10" stroke-width="1.5"/>
        </g>
        <g id="Group_5887" data-name="Group 5887" opacity="0.6">
          <rect id="Rectangle_562" data-name="Rectangle 562" width="8.66" height="5.85" transform="translate(166.73 258.39)" fill="#fff"/>
          <g id="Group_5886" data-name="Group 5886">
            <path id="Path_7136" data-name="Path 7136" d="M174.73,257.76h-1a2.67,2.67,0,1,0-5.34,0h-1a3.67,3.67,0,1,1,7.34,0Z" fill="#fff"/>
          </g>
        </g>
      </g>
    </g>
    <g id="Asset_2" transform="translate(1122.271 2833.439)">
      <g id="Group_5891" data-name="Group 5891">
        <g id="Group_5889" data-name="Group 5889">
          <rect id="Rectangle_563" data-name="Rectangle 563" width="84.21" height="54.77" transform="translate(326.97 226.62)" fill="#9a9a9a"/>
          <rect id="Rectangle_564" data-name="Rectangle 564" width="84.21" height="54.77" transform="translate(326.97 226.62)" fill="#fff" opacity="0.5"/>
        </g>
        <rect id="Rectangle_565" data-name="Rectangle 565" width="78.05" height="41.76" transform="translate(330.05 236.88)" fill="#ececec"/>
        <g id="Group_5890" data-name="Group 5890">
          <rect id="Rectangle_566" data-name="Rectangle 566" width="57.73" height="1.8" transform="translate(336.41 243.12)" fill="#c5c5c5"/>
          <rect id="Rectangle_567" data-name="Rectangle 567" width="27.7" height="1.8" transform="translate(336.41 248.63)" fill="#c5c5c5"/>
          <rect id="Rectangle_568" data-name="Rectangle 568" width="34.89" height="1.8" transform="translate(336.41 254.13)" fill="#c5c5c5"/>
          <rect id="Rectangle_569" data-name="Rectangle 569" width="12.3" height="1.8" transform="translate(336.41 259.63)" fill="#c5c5c5"/>
          <rect id="Rectangle_570" data-name="Rectangle 570" width="7.96" height="1.8" transform="translate(336.41 265.13)" fill="#c5c5c5"/>
        </g>
      </g>
      <g id="Group_5892" data-name="Group 5892">
        <path id="Path_7137" data-name="Path 7137" d="M413.59,334.62v30.54a3.44,3.44,0,0,1-2.94,3.41,2.961,2.961,0,0,1-.52.04H370.9a3.461,3.461,0,0,1-3.46-3.46V334.61a3.322,3.322,0,0,1,.35-1.51,3.437,3.437,0,0,1,3.1-1.96h15.37a3.5,3.5,0,0,0,2.04-.66,3.38,3.38,0,0,0,1.25-1.72,3.458,3.458,0,0,1,3.29-2.39h8.19a3.449,3.449,0,0,1,3.29,2.39,3.453,3.453,0,0,0,3.29,2.38h2.51A3.493,3.493,0,0,1,413.59,334.62Z" fill="#d2d2d2"/>
        <path id="Path_7138" data-name="Path 7138" d="M410.65,336.06v32.5l-.04.04h-39.7a3.461,3.461,0,0,1-3.46-3.46V334.6a3.322,3.322,0,0,1,.35-1.51h39.9A2.986,2.986,0,0,1,410.65,336.06Z" fill="#fff" opacity="0.3"/>
      </g>
      <g id="Group_5895" data-name="Group 5895">
        <path id="Path_7139" data-name="Path 7139" d="M319.97,289.67v38.19l-7.46,7.46H285.15V289.67Z" fill="#fff"/>
        <path id="Path_7140" data-name="Path 7140" d="M319.97,289.67v38.19l-7.46,7.46H285.15V289.67Z" fill="#d6d6d6" opacity="0.4"/>
        <g id="Group_5893" data-name="Group 5893">
          <path id="Path_7141" data-name="Path 7141" d="M319.97,327.86h-7.46v7.46Z" fill="#c2c2c2"/>
        </g>
        <g id="Group_5894" data-name="Group 5894">
          <rect id="Rectangle_571" data-name="Rectangle 571" width="26.26" height="1.43" transform="translate(289.49 297.42)" fill="#b1b1b1"/>
          <rect id="Rectangle_572" data-name="Rectangle 572" width="22.09" height="1.43" transform="translate(289.49 301.8)" fill="#b1b1b1"/>
          <rect id="Rectangle_573" data-name="Rectangle 573" width="26.26" height="1.43" transform="translate(289.49 306.19)" fill="#b1b1b1"/>
          <rect id="Rectangle_574" data-name="Rectangle 574" width="9.81" height="1.43" transform="translate(289.49 310.58)" fill="#b1b1b1"/>
          <rect id="Rectangle_575" data-name="Rectangle 575" width="6.35" height="1.43" transform="translate(289.49 314.97)" fill="#b1b1b1"/>
        </g>
      </g>
    </g>
    <g id="Selection" transform="translate(1122.271 2833.439)">
      <g id="Group_5899" data-name="Group 5899">
        <g id="Group_5896" data-name="Group 5896">
          <rect id="Rectangle_576" data-name="Rectangle 576" width="71.19" height="58.82" transform="translate(272.25 143.9)" fill="#b7b7b7"/>
          <path id="Path_7142" data-name="Path 7142" d="M272.25,143.9v58.82h71.19V143.9Zm68.87,56.5H274.58V146.22h66.54Z" fill="#fff" opacity="0.6"/>
          <path id="Path_7143" data-name="Path 7143" d="M274.58,184.34l20.4-14.82,15.16,14.82,15.16-8.66,15.82,9.74V200.4H274.58Z" fill="#fff" opacity="0.3"/>
          <path id="Path_7144" data-name="Path 7144" d="M322.64,159.59a4.87,4.87,0,1,1-4.87-4.87A4.87,4.87,0,0,1,322.64,159.59Z" fill="#fff" opacity="0.6"/>
        </g>
        <g id="Group_5898" data-name="Group 5898">
          <g id="Group_5897" data-name="Group 5897">
            <path id="Path_7145" data-name="Path 7145" d="M348.09,205.17v2h-2" fill="none" stroke="#263238" stroke-miterlimit="10" stroke-width="1"/>
            <line id="Line_384" data-name="Line 384" x1="71.6" transform="translate(271.35 207.17)" fill="none" stroke="#263238" stroke-miterlimit="10" stroke-width="1" stroke-dasharray="4.181 3.136"/>
            <path id="Path_7146" data-name="Path 7146" d="M269.78,207.17h-2v-2" fill="none" stroke="#263238" stroke-miterlimit="10" stroke-width="1"/>
            <line id="Line_385" data-name="Line 385" y1="59.26" transform="translate(267.78 143.01)" fill="none" stroke="#263238" stroke-miterlimit="10" stroke-width="1" stroke-dasharray="3.855 2.891"/>
            <path id="Path_7147" data-name="Path 7147" d="M267.78,141.56v-2h2" fill="none" stroke="#263238" stroke-miterlimit="10" stroke-width="1"/>
            <line id="Line_386" data-name="Line 386" x2="71.6" transform="translate(272.92 139.56)" fill="none" stroke="gray" stroke-miterlimit="10" stroke-width="1" stroke-dasharray="4.181 3.136"/>
            <path id="Path_7148" data-name="Path 7148" d="M346.09,139.56h2v2" fill="none" stroke="#263238" stroke-miterlimit="10" stroke-width="1"/>
            <line id="Line_387" data-name="Line 387" y2="59.27" transform="translate(348.09 144.45)" fill="none" stroke="#263238" stroke-miterlimit="10" stroke-width="1" stroke-dasharray="3.855 2.891"/>
          </g>
        </g>
        <rect id="Rectangle_577" data-name="Rectangle 577" width="3.15" height="3.15" transform="translate(346.51 137.98)" fill="#263238"/>
        <rect id="Rectangle_578" data-name="Rectangle 578" width="3.15" height="3.15" transform="translate(346.51 205.59)" fill="#263238"/>
        <rect id="Rectangle_579" data-name="Rectangle 579" width="3.15" height="3.15" transform="translate(266.2 205.59)" fill="#263238"/>
        <rect id="Rectangle_580" data-name="Rectangle 580" width="3.15" height="3.15" transform="translate(266.2 137.98)" fill="#263238"/>
        <rect id="Rectangle_581" data-name="Rectangle 581" width="3.15" height="3.15" transform="translate(306.27 137.98)" fill="#263238"/>
        <rect id="Rectangle_582" data-name="Rectangle 582" width="3.15" height="3.15" transform="translate(306.36 205.59)" fill="#263238"/>
        <rect id="Rectangle_583" data-name="Rectangle 583" width="3.15" height="3.15" transform="translate(346.51 171.79)" fill="#263238"/>
        <rect id="Rectangle_584" data-name="Rectangle 584" width="3.15" height="3.15" transform="translate(266.2 171.79)" fill="#263238"/>
      </g>
    </g>
    <g id="Character" transform="translate(1122.271 2833.439)">
      <g id="Group_5910" data-name="Group 5910">
        <path id="Path_7149" data-name="Path 7149" d="M174.99,236.62l-10.64,8.64s-2.6.05-3.42.91-3.96,7.24-3.51,8.11,5.7,2.59,6.8,1.56,3.03-6.94,2.99-7.57l13.59-9.12Z" fill="#ebb376"/>
        <g id="Group_5901" data-name="Group 5901">
          <path id="Path_7150" data-name="Path 7150" d="M169.28,240.61l2.38,5.19s14.63-6.85,17.8-10.84c.81-1.03,1.93-2.67,3.14-4.54,1.99-3.09,4.24-6.81,5.8-9.42,1.16-1.95,1.94-3.28,1.94-3.28l-8.28-13.06c-1.81,1.39-7.35,23.71-8.34,24.91S169.28,240.61,169.28,240.61Z" fill="#c9c9c9"/>
          <g id="Group_5900" data-name="Group 5900" clip-path="url(#clip-path)">
            <path id="Path_7151" data-name="Path 7151" d="M192.6,230.42c1.99-3.09,4.24-6.81,5.8-9.42l-3.85-9.5S192.46,222.4,192.6,230.42Z" opacity="0.1"/>
          </g>
        </g>
        <path id="Path_7153" data-name="Path 7153" d="M260.05,187.25l10.49-8.14s.85-2.46,1.92-2.98,8.11-1.55,8.8-.86.72,6.22-.6,6.95-7.53.76-8.12.53l-11.45,8.37Z" fill="#ebb376"/>
        <path id="Path_7154" data-name="Path 7154" d="M171.52,411l6.28,1.11,2.58-8.56,2.35-7.86-7.24-2.53-2.1,9.44Z" fill="#ebb376"/>
        <path id="Path_7155" data-name="Path 7155" d="M173.35,402.8l7,.92,2.36-7.94-7.23-2.57Z" opacity="0.2"/>
        <path id="Path_7156" data-name="Path 7156" d="M213.43,411.16h6.38l1.04-8.56.95-7.98-7.57-1.15-.42,9.38Z" fill="#ebb376"/>
        <path id="Path_7157" data-name="Path 7157" d="M213.81,403.41l7.04-.31.95-8.23-7.57-1.28Z" fill="#8a8a8a" opacity="0.2"/>
        <g id="Group_5903" data-name="Group 5903">
          <g id="Group_5902" data-name="Group 5902">
            <path id="Path_7158" data-name="Path 7158" d="M172.76,395.93l10.32,1.82c10.41-25.95,17.82-47.6,23.05-65.57,2.82-9.7,5.05-18.32,6.74-25.97l-.43,28.24v63.71h10.41c25.49-121,7.43-149.13,7.43-149.13l-30.5-5.1a137.191,137.191,0,0,0-2.55,17.12l-1.38,10.11-11.92,61.57Z" fill="#263238"/>
          </g>
        </g>
        <g id="Group_5904" data-name="Group 5904">
          <path id="Path_7159" data-name="Path 7159" d="M184.7,396.48l-12.8-4.25.17,5.45,10.59,3.37Z" fill="#f6f6f6"/>
          <path id="Path_7160" data-name="Path 7160" d="M184.7,396.48l-12.8-4.25.17,5.45,10.59,3.37Z" fill="#8a8a8a" opacity="0.6"/>
        </g>
        <g id="Group_5905" data-name="Group 5905">
          <path id="Path_7161" data-name="Path 7161" d="M224.21,397.07l-13.34-1.96,1.11,5.34,11.01,1.48Z" fill="#cbcbcb"/>
          <path id="Path_7162" data-name="Path 7162" d="M224.21,397.07l-13.34-1.96,1.11,5.34,11.01,1.48Z" fill="#fff" opacity="0.6"/>
        </g>
        <path id="Path_7163" data-name="Path 7163" d="M204.73,336.93c.48-1.61.99-3.19,1.45-4.75,2.55-8.8,4.26-16.72,6.26-23.82v-.02l1.04-13.08s-6.52-14.37-4.08-24.48c-.23.57-4.54,11.59-2.85,22.6A320.327,320.327,0,0,1,204.73,336.93Z" opacity="0.2"/>
        <g id="Group_5906" data-name="Group 5906">
          <path id="Path_7164" data-name="Path 7164" d="M203.85,191.53a1.427,1.427,0,0,0,.27.15,11.088,11.088,0,0,0,4.15,1.4c4.25.42,7-.52,8.6-2.63h.01c2.21-3.14,2.21-8.19,1.07-14.13a22.726,22.726,0,0,0-2.22-6.83c-.01-.02-.02-.09-.03-.1-.05-.07-.09-.17-.14-.24a8.258,8.258,0,0,0-6.66-4.21,16.808,16.808,0,0,0-3.59.06C193.61,166.4,194.03,186.03,203.85,191.53Z" fill="#ebb376"/>
          <path id="Path_7165" data-name="Path 7165" d="M204.12,191.68a11,11,0,0,0,4.13,1.24c4.26.42,6.99-.65,8.58-2.79a11.751,11.751,0,0,1-7.49.36A6.1,6.1,0,0,0,204.12,191.68Z" opacity="0.2"/>
          <path id="Path_7166" data-name="Path 7166" d="M203.24,201.25c-1.05,3.27,3.14,5.05,3.14,5.05,7.37-2.33,9.05-5.96,9.05-5.96-5.6-3.66-3.04-12.19-3.04-12.19l-1.26.47-8.59.82s1.9,4.72,2.11,5.77c0,.01.01.02.01.03C205.72,200.74,203.24,201.25,203.24,201.25Z" fill="#ebb376"/>
          <path id="Path_7167" data-name="Path 7167" d="M215.73,169.42s1.71,8.11-5.6,12.64c0,0-2.23,8.94-7.12,9.7-6.67,1.03-13.81-7.72-12.75-17.72C191.63,161.08,210.55,157.58,215.73,169.42Z" fill="#263238"/>
          <path id="Path_7168" data-name="Path 7168" d="M213.76,179.19c-.17-1.28-1.48-3.29-3.42-2.74-2.02.57-2.5,5.79,2.7,6.26C213.78,182.78,214.11,181.86,213.76,179.19Z" fill="#ebb376"/>
        </g>
        <path id="Path_7169" data-name="Path 7169" d="M220.48,409.95h-7.11a.642.642,0,0,0-.63.51l-1.46,6.6a1.1,1.1,0,0,0,.84,1.3.974.974,0,0,0,.24.02c2.91-.05,3.15-.23,6.8-.23,2.25,0,9.05.24,12.16.24s3.52-3.07,2.24-3.36c-5.71-1.24-10.01-2.97-11.84-4.61A1.762,1.762,0,0,0,220.48,409.95Z" fill="#263238"/>
        <path id="Path_7170" data-name="Path 7170" d="M220.99,410.97a.183.183,0,0,1-.13-.15.161.161,0,0,1,.08-.17c.26-.17,2.66-1.64,3.48-1.22a.516.516,0,0,1,.3.49,1.026,1.026,0,0,1-.37.94,2.246,2.246,0,0,1-1.42.38A8.028,8.028,0,0,1,220.99,410.97Zm.51-.24a3.649,3.649,0,0,0,2.64-.13.726.726,0,0,0,.24-.63c-.01-.14-.07-.21-.11-.21a.456.456,0,0,0-.23-.05A7.218,7.218,0,0,0,221.5,410.73Z" fill="#407bff"/>
        <path id="Path_7171" data-name="Path 7171" d="M220.94,411.01a.182.182,0,0,1-.08-.16c.01-.1.19-2.23,1.05-2.93a.958.958,0,0,1,.74-.23.587.587,0,0,1,.57.46c.15.78-1.33,2.41-2.09,2.83h-.08A.228.228,0,0,1,220.94,411.01Zm1.19-2.88a4.172,4.172,0,0,0-.88,2.32c.76-.57,1.71-1.81,1.61-2.29-.01-.05-.03-.18-.25-.18h-.08A.585.585,0,0,0,222.13,408.13Z" fill="#407bff"/>
        <path id="Path_7172" data-name="Path 7172" d="M178.05,409.95h-7.11a.642.642,0,0,0-.63.51l-1.46,6.6a1.1,1.1,0,0,0,.84,1.3.974.974,0,0,0,.24.02c2.91-.05,3.15-.23,6.8-.23,2.25,0,9.05.24,12.16.24s3.52-3.07,2.24-3.36c-5.71-1.24-10.01-2.97-11.84-4.61A1.779,1.779,0,0,0,178.05,409.95Z" fill="#263238"/>
        <path id="Path_7173" data-name="Path 7173" d="M178.55,410.97a.183.183,0,0,1-.13-.15.161.161,0,0,1,.08-.17c.26-.17,2.66-1.64,3.48-1.22a.516.516,0,0,1,.3.49,1.026,1.026,0,0,1-.37.94,2.246,2.246,0,0,1-1.42.38A8.028,8.028,0,0,1,178.55,410.97Zm.51-.24a3.649,3.649,0,0,0,2.64-.13.726.726,0,0,0,.24-.63c-.01-.14-.07-.21-.11-.21a.456.456,0,0,0-.23-.05A7.373,7.373,0,0,0,179.06,410.73Z" fill="#407bff"/>
        <path id="Path_7174" data-name="Path 7174" d="M178.51,411.01a.182.182,0,0,1-.08-.16c.01-.1.19-2.23,1.05-2.93a.958.958,0,0,1,.74-.23.587.587,0,0,1,.57.46c.15.78-1.33,2.41-2.09,2.83h-.08A.3.3,0,0,1,178.51,411.01Zm1.18-2.88a4.172,4.172,0,0,0-.88,2.32c.76-.57,1.71-1.81,1.61-2.29-.01-.05-.03-.18-.25-.18h-.08A.585.585,0,0,0,179.69,408.13Z" fill="#407bff"/>
        <g id="Group_5908" data-name="Group 5908">
          <path id="Path_7175" data-name="Path 7175" d="M230.27,249.14s5.82-35.45-4.18-51.34c0,0-19.97-1.24-34.02,6.87,0,0,5.81,15.78,6.67,44.47Z" fill="#d9d9d9"/>
          <g id="Group_5907" data-name="Group 5907" clip-path="url(#clip-path-2)">
            <path id="Path_7176" data-name="Path 7176" d="M232.09,222.01c.43-4.81-.96-9.44-1.2-13.52a39.187,39.187,0,0,1-6.57-7.49S222.5,215.36,232.09,222.01Z" opacity="0.1"/>
          </g>
        </g>
        <path id="Path_7178" data-name="Path 7178" d="M223.61,197.73s19.79-2.32,22.77-3.57c1.86-.78,16.41-10.29,16.41-10.29l3.41,5.08s-14.88,12.02-17.4,13.4c-5.9,3.24-19.16,7.81-19.16,7.81S221.63,204.6,223.61,197.73Z" fill="#c9c9c9"/>
        <path id="Path_7179" data-name="Path 7179" d="M215.43,174.79s8.23-8.23.47-13.76-15.56,1.69-15.56,1.69-18.57,4.48-14.62,16.83,6.53,13.39.66,19.73-11.89,15.71-5.88,21.7,27.02-.17,33.39-9.22C220.27,202.69,209.01,183.28,215.43,174.79Z" fill="#373737"/>
        <g id="Group_5909" data-name="Group 5909">
          <path id="Path_7180" data-name="Path 7180" d="M198.74,249.14l-.13-3.36,32.02.81v3.11Z"/>
          <rect id="Rectangle_585" data-name="Rectangle 585" width="1.29" height="3.31" transform="translate(207.6 246.01)" fill="#263238"/>
          <rect id="Rectangle_586" data-name="Rectangle 586" width="1.14" height="3.62" transform="translate(222.53 246.38)" fill="#263238"/>
          <rect id="Rectangle_587" data-name="Rectangle 587" width="1.09" height="3.87" transform="translate(199.49 245.83)" fill="#263238"/>
        </g>
      </g>
    </g>
  </g>
</svg>
