<svg xmlns="http://www.w3.org/2000/svg" width="58.88" height="58.88" viewBox="0 0 58.88 58.88">
  <g id="_24-hours" data-name="24-hours" transform="translate(0.6 0.6)">
    <g id="Group_4944" data-name="Group 4944">
      <g id="Group_4943" data-name="Group 4943">
        <path id="Path_5169" data-name="Path 5169" d="M338.268,291.232h-2.884V272.967a.961.961,0,0,0-1.749-.551l-13.459,19.227a.961.961,0,0,0,.787,1.512h12.5v2.884a.961.961,0,0,0,1.923,0v-2.884h2.884a.961.961,0,1,0,0-1.923Zm-4.807,0H322.81l10.652-15.216Z" transform="translate(-281.55 -239.32)" stroke="#000" stroke-width="1.2"/>
        <path id="Path_5170" data-name="Path 5170" d="M222.42,295.06H211.039L221.62,282.6a1.025,1.025,0,0,0,.067-.089,6.687,6.687,0,0,0-1.509-9.079A7.691,7.691,0,0,0,208,279.679a.961.961,0,1,0,1.923,0,5.768,5.768,0,0,1,9.133-4.686,4.746,4.746,0,0,1,1.057,6.407l-11.884,14a.961.961,0,0,0,.733,1.583H222.42a.961.961,0,1,0,0-1.923Z" transform="translate(-183.005 -239.303)" stroke="#000" stroke-width="1.2"/>
        <path id="Path_5171" data-name="Path 5171" d="M25.977,50.969a.961.961,0,0,0-.924-1h0a24,24,0,0,1-23.1-23.055H5.768a.961.961,0,1,0,0-1.923H1.956A23.976,23.976,0,0,1,24.995,1.957V4.807a.961.961,0,1,0,1.923,0V1.957A23.993,23.993,0,0,1,49.943,24.549L46.194,20.8a.961.961,0,0,0-1.359,1.359L50.2,27.525a.945.945,0,0,0,.379.276,1.1,1.1,0,0,0,.114.028.951.951,0,0,0,.2.049h.055a.926.926,0,0,0,.215-.042.9.9,0,0,0,.117-.022.947.947,0,0,0,.347-.217l5.439-5.437A.961.961,0,0,0,55.712,20.8l-3.842,3.84A25.916,25.916,0,0,0,26.024.013C26,.012,25.98,0,25.956,0s-.044.012-.068.013A25.91,25.91,0,0,0,.013,25.888c0,.024-.013.044-.013.068s.012.044.013.068A25.932,25.932,0,0,0,24.981,51.894h.036A.961.961,0,0,0,25.977,50.969Z" stroke="#000" stroke-width="1.2"/>
        <path id="Path_5172" data-name="Path 5172" d="M172.193,106.459a.961.961,0,0,0-1.359,0L160.5,116.789a3.011,3.011,0,0,0-2.452,0L153.16,111.9a.961.961,0,0,0-1.359,1.359l4.882,4.882a2.878,2.878,0,1,0,5.19,0l10.321-10.321A.961.961,0,0,0,172.193,106.459Zm-12.236,13.595h0a.984.984,0,0,1-1.359,0,.961.961,0,1,1,1.36,0Z" transform="translate(-133.322 -93.419)" stroke="#000" stroke-width="1.2"/>
      </g>
    </g>
  </g>
</svg>
