<svg xmlns="http://www.w3.org/2000/svg" xmlns:xlink="http://www.w3.org/1999/xlink" width="672.273" height="602.424" viewBox="0 0 672.273 602.424">
  <defs>
    <filter id="Path_5986" x="428.162" y="87.974" width="176.951" height="162.105" filterUnits="userSpaceOnUse">
      <feOffset dy="8" input="SourceAlpha"/>
      <feGaussianBlur stdDeviation="10" result="blur"/>
      <feFlood flood-opacity="0.22"/>
      <feComposite operator="in" in2="blur"/>
      <feComposite in="SourceGraphic"/>
    </filter>
    <filter id="Path_5987" x="0" y="179.295" width="145.863" height="135.009" filterUnits="userSpaceOnUse">
      <feOffset dy="8" input="SourceAlpha"/>
      <feGaussianBlur stdDeviation="10" result="blur-2"/>
      <feFlood flood-opacity="0.22"/>
      <feComposite operator="in" in2="blur-2"/>
      <feComposite in="SourceGraphic"/>
    </filter>
    <linearGradient id="linear-gradient" x1="-78.476" y1="0.5" x2="-77.476" y2="0.5" gradientUnits="objectBoundingBox">
      <stop offset="0" stop-color="#ff928e"/>
      <stop offset="1" stop-color="#feb3b1"/>
    </linearGradient>
    <linearGradient id="linear-gradient-2" x1="-85.189" y1="0.5" x2="-84.189" y2="0.5" xlink:href="#linear-gradient"/>
    <linearGradient id="linear-gradient-3" x1="-21.966" y1="0.5" x2="-20.966" y2="0.5" xlink:href="#linear-gradient"/>
    <linearGradient id="linear-gradient-4" x1="-36.482" y1="0.5" x2="-35.482" y2="0.5" xlink:href="#linear-gradient"/>
    <linearGradient id="linear-gradient-5" x1="1.122" y1="-1.063" x2="0.281" y2="1.294" xlink:href="#linear-gradient"/>
    <linearGradient id="linear-gradient-6" x1="2.899" y1="-0.089" x2="0.396" y2="0.511" xlink:href="#linear-gradient"/>
    <linearGradient id="linear-gradient-7" x1="-106.533" y1="-56.382" x2="-103.281" y2="-58.77" xlink:href="#linear-gradient"/>
  </defs>
  <g id="Built_for_every_enterprise_" data-name="Built for every enterprise " transform="translate(30.5)">
    <g id="Group_5318" data-name="Group 5318" transform="translate(63.786 161.507)">
      <path id="Path_5892" data-name="Path 5892" d="M2312.748,731.608l308.326-178.015a11.345,11.345,0,0,1,11.316-.019L2809.4,655.06a11.345,11.345,0,0,1,.066,19.65l-65.517,38.184a11.354,11.354,0,0,0-.019,19.6l37.389,21.864a11.345,11.345,0,0,1-.256,19.735L2566.921,891.94a11.325,11.325,0,0,1-11.155-.123L2312.728,751.258A11.351,11.351,0,0,1,2312.748,731.608Z" transform="translate(-2307.061 -452.431)" fill="#f7f7f7"/>
      <g id="Group_5316" data-name="Group 5316" transform="translate(463.715 195.306)">
        <path id="Path_5893" data-name="Path 5893" d="M2911.478,685.672l-.283-.189a1.876,1.876,0,0,1-.577.577l-88.355,51a1.658,1.658,0,0,1-.775.227,1.693,1.693,0,0,1-.956-.237l-22.479-13.245a1.686,1.686,0,0,1-.814-1.693l-.018-.01v-15.09l11.438,7.71,12.839-7.417,64.7-37.351a1.747,1.747,0,0,1,1.723,0l8.07,4.664,15.459-4.891Z" transform="translate(-2797.206 -654.082)" fill="#b1b1b1"/>
        <path id="Path_5894" data-name="Path 5894" d="M2821.488,709.433v29.981a1.694,1.694,0,0,1-.956-.237l-22.478-13.245a1.684,1.684,0,0,1-.815-1.693l-.019-.01V709.14l11.439,7.711Z" transform="translate(-2797.205 -656.207)" fill="#b7b7b7"/>
        <path id="Path_5895" data-name="Path 5895" d="M2798.052,707.748l22.469,13.245a1.717,1.717,0,0,0,1.731.009l88.355-51.013a1.723,1.723,0,0,0,0-2.98L2887.893,653.9a1.747,1.747,0,0,0-1.723,0l-88.118,50.87A1.733,1.733,0,0,0,2798.052,707.748Z" transform="translate(-2797.204 -653.216)" fill="#fff"/>
        <path id="Path_5896" data-name="Path 5896" d="M2798.052,707.268l22.469,13.245a1.717,1.717,0,0,0,1.731.01l88.355-51.013a1.724,1.724,0,0,0,0-2.98l-22.715-13.113a1.748,1.748,0,0,0-1.723,0l-88.118,50.871A1.733,1.733,0,0,0,2798.052,707.268Z" transform="translate(-2797.204 -653.19)" fill="#fff"/>
      </g>
      <g id="Group_5317" data-name="Group 5317" transform="translate(428.912 158.57)">
        <path id="Path_5897" data-name="Path 5897" d="M2874.7,646.842l-.283-.189a1.854,1.854,0,0,1-.578.577l-88.353,51a1.674,1.674,0,0,1-.776.227,1.691,1.691,0,0,1-.955-.237l-22.479-13.245a1.686,1.686,0,0,1-.814-1.694l-.019-.009v-15.09l11.438,7.711,12.838-7.417,64.7-37.351a1.745,1.745,0,0,1,1.721,0l8.07,4.664,15.459-4.891Z" transform="translate(-2760.419 -615.252)" fill="#b1b1b1"/>
        <path id="Path_5898" data-name="Path 5898" d="M2784.7,670.6v29.981a1.687,1.687,0,0,1-.955-.237L2761.263,687.1a1.683,1.683,0,0,1-.813-1.693l-.02-.01V670.31l11.439,7.711Z" transform="translate(-2760.418 -617.377)" fill="#bbe0fd"/>
        <path id="Path_5899" data-name="Path 5899" d="M2761.262,668.918l22.469,13.245a1.718,1.718,0,0,0,1.731.009l88.354-51.012a1.722,1.722,0,0,0,0-2.98L2851.1,615.067a1.748,1.748,0,0,0-1.722,0l-88.118,50.871A1.737,1.737,0,0,0,2761.262,668.918Z" transform="translate(-2760.418 -614.386)" fill="#fff"/>
        <path id="Path_5900" data-name="Path 5900" d="M2761.262,668.438l22.469,13.245a1.718,1.718,0,0,0,1.731.009l88.354-51.013a1.722,1.722,0,0,0,0-2.98L2851.1,614.587a1.748,1.748,0,0,0-1.722,0l-88.118,50.871A1.737,1.737,0,0,0,2761.262,668.438Z" transform="translate(-2760.418 -614.36)" fill="#fff"/>
      </g>
      <path id="Path_5901" data-name="Path 5901" d="M2815.1,559.091v37.824l-.038-.028a11.182,11.182,0,0,1-5.592,8.883l-65.515,38.184a11.358,11.358,0,0,0-.028,19.612l20.623,12.062,7.474-16.32,14.834,2.706v31.864a11.729,11.729,0,0,1,0,2.526v.076l-.009-.009a11.1,11.1,0,0,1-5.79,8.685l-16.962,9.338-3.265,1.779-3.936,2.176-4.6,2.545L2566.929,823.009a11.312,11.312,0,0,1-11.154-.123l-126.3-73.047-4.589-2.658-3.945-2.28-3.246-1.892-104.958-60.691a11.215,11.215,0,0,1-5.42-7.531v-.01a11.823,11.823,0,0,1-.038-4.541V670.2c0-.009.01-.009.01-.028l-.227-33.983,19.309,18.609,139.083-80.313,155.593-89.84a11.427,11.427,0,0,1,11.334,0l157.465,90.285,11.126-14.267Z" transform="translate(-2307.061 -448.715)" fill="#bfbfbf"/>
      <path id="Path_5902" data-name="Path 5902" d="M2557.893,579.69V829.058a11.476,11.476,0,0,1-2.118-.955l-126.3-73.047-4.589-2.658-3.945-2.28-3.246-1.892-104.958-60.691a11.213,11.213,0,0,1-5.42-7.531v-.009a11.823,11.823,0,0,1-.038-4.541v-.038c0-.009.01-.009.01-.028l-.227-33.983,19.309,18.609L2465.453,579.7h92.44Z" transform="translate(-2307.061 -453.921)" fill="#d2d2d2"/>
      <path id="Path_5903" data-name="Path 5903" d="M2312.748,626.288l308.326-178.015a11.346,11.346,0,0,1,11.316-.019L2809.4,549.74a11.345,11.345,0,0,1,.066,19.65l-65.517,38.184a11.354,11.354,0,0,0-.019,19.6l37.389,21.864a11.345,11.345,0,0,1-.256,19.735L2566.921,786.62a11.325,11.325,0,0,1-11.155-.123L2312.728,645.938A11.351,11.351,0,0,1,2312.748,626.288Z" transform="translate(-2307.061 -446.753)" fill="#fff" stroke="#eee" stroke-width="1"/>
      <path id="Path_5904" data-name="Path 5904" d="M2728.9,723.53l.463,34.163,33.17-18.25-.463-34.163Z" transform="translate(-2329.806 -460.693)" fill="#b1b1b1"/>
      <path id="Path_5905" data-name="Path 5905" d="M2703.851,738.477V772.9l9.991-5.5V732.98Z" transform="translate(-2328.456 -462.186)" fill="#989898"/>
    </g>
    <path id="Path_5906" data-name="Path 5906" d="M2519.781,545.411l-70.21,40.028a2.391,2.391,0,0,0-.008,4.153l56,32.432a3.9,3.9,0,0,0,3.935,0l70.445-40.672a2.026,2.026,0,0,0,0-3.51L2523.7,545.42A3.935,3.935,0,0,0,2519.781,545.411Z" transform="translate(-2250.894 -290.537)" fill="#f7f7f7"/>
    <path id="Path_5907" data-name="Path 5907" d="M2535.04,533.667,2496.971,555.8l-3.861-1.826a4.331,4.331,0,0,1,1.533-1.533l34.133-19.868a3.893,3.893,0,0,1,3.634-.161Z" transform="translate(-2253.307 -289.844)" fill="#a34b73"/>
    <g id="Group_5319" data-name="Group 5319" transform="translate(144.268 0)">
      <path id="Path_5908" data-name="Path 5908" d="M2570.63,577.343v-6.1l-4.313,2.7-43.463-25.052a3.292,3.292,0,0,0-3.263-.009l-55.346,31.552-4.324-2.545v6.746l.142-.1a1.968,1.968,0,0,0,.927,1.22l46.727,27.068a3.282,3.282,0,0,0,3.282,0l58.789-33.945A1.639,1.639,0,0,0,2570.63,577.343Z" transform="translate(-2395.784 -290.729)" fill="#a7a7a7"/>
      <path id="Path_5909" data-name="Path 5909" d="M2519.553,541.885l-58.59,33.406a2,2,0,0,0-.009,3.463l46.727,27.067a3.284,3.284,0,0,0,3.283,0l58.788-33.945a1.7,1.7,0,0,0,0-2.933l-46.934-27.058A3.3,3.3,0,0,0,2519.553,541.885Z" transform="translate(-2395.788 -290.352)" fill="#ececec"/>
      <path id="Path_5910" data-name="Path 5910" d="M2537.514,529.828l-4.6,34.485-31.3,25.516-4.674-2.63a3.506,3.506,0,0,1-1.456-1.287,3.466,3.466,0,0,1-.539-1.873l.066-31.76a4.282,4.282,0,0,1,.577-2.138,4.328,4.328,0,0,1,1.532-1.533l34.135-19.868a3.89,3.89,0,0,1,3.632-.161Z" transform="translate(-2397.674 -289.637)" fill="#b2b2b2"/>
      <path id="Path_5911" data-name="Path 5911" d="M2541.743,528.39l-.1,38.43-39.858,23.018.038-38.212Z" transform="translate(-2398.042 -289.647)" fill="#bfbfbf"/>
      <path id="Path_5912" data-name="Path 5912" d="M2601.867,277.147l9.243,4.976-13.823,184.968L2405.943,591.463l-7.588-4.087a11.84,11.84,0,0,1-6.225-10.426V400.062a9.143,9.143,0,0,1,4.531-7.909L2592.8,277.317a9.341,9.341,0,0,1,3.888-1.239A9.129,9.129,0,0,1,2601.867,277.147Z" transform="translate(-2392.13 -276.041)" fill="#777"/>
      <path id="Path_5913" data-name="Path 5913" d="M2611.9,282.46V474.874L2406.73,591.809V402.584Z" transform="translate(-2392.917 -276.387)"/>
      <path id="Path_5914" data-name="Path 5914" d="M2608,307.12V461.369L2583.727,475.2l-7.294,4.163-49.859,28.42-27.617,15.733-43.367,24.721-42.12,24V421.019l41.23-24.144,22.318-13.065,35.213-20.615,42.375-24.816,26.386-15.44,19.261-11.277Z" transform="translate(-2393.281 -277.716)" fill="#efefef"/>
    </g>
    <g id="Group_5323" data-name="Group 5323" transform="translate(227.183 127.786)">
      <path id="Path_5948" data-name="Path 5948" d="M2566.814,411.11l-.047,8.269-56.9,32.961.35-8.5Z" transform="translate(-2481.393 -411.11)" fill="#aaa"/>
      <path id="Path_5949" data-name="Path 5949" d="M2536.724,483.9l-.057,8.269-56.9,32.962.35-8.5Z" transform="translate(-2479.77 -415.035)" fill="#aaa"/>
      <path id="Path_5950" data-name="Path 5950" d="M2501.742,450.04v8l-21.391,12.4v-8Z" transform="translate(-2479.801 -413.209)" fill="#aaa"/>
      <path id="Path_5951" data-name="Path 5951" d="M2559.122,454.44v8.013l-21.392,12.4v-8.013Z" transform="translate(-2482.895 -413.446)" fill="#aaa"/>
      <path id="Path_5952" data-name="Path 5952" d="M2566.441,469.57v8.013l-21.391,12.4v-8Z" transform="translate(-2483.29 -414.262)" fill="#aaa"/>
      <path id="Path_5953" data-name="Path 5953" d="M2592.632,454.44v8.013l-21.392,12.4v-8.013Z" transform="translate(-2484.702 -413.446)" fill="#aaa"/>
      <path id="Path_5954" data-name="Path 5954" d="M2530.069,450.04,2480.4,478.716V487l49.753-28.96Z" transform="translate(-2479.804 -413.209)" fill="#aaa"/>
      <path id="Path_5955" data-name="Path 5955" d="M2530.069,468.47,2480.4,497.146v8.288l49.753-28.95Z" transform="translate(-2479.804 -414.203)" fill="#aaa"/>
    </g>
    <g id="Group_5327" data-name="Group 5327" transform="translate(145.977 332.019)">
      <ellipse id="Ellipse_268" data-name="Ellipse 268" cx="35.118" cy="20.445" rx="35.118" ry="20.445" transform="translate(0.036 27.562)" fill="#bbb" opacity="0.33"/>
      <path id="Path_5958" data-name="Path 5958" d="M2533.81,738.995c0,11.3,15.723,20.445,35.119,20.445a57.315,57.315,0,0,0,13.888-1.665c.823-.208,1.618-.426,2.413-.672.823-.256,1.626-.52,2.412-.8a37.7,37.7,0,0,0,7.228-3.519c5.705-3.633,9.187-8.477,9.187-13.794v-.01h.01v-9.168h-3.736a24.789,24.789,0,0,0-5.46-4.607,37.492,37.492,0,0,0-7.228-3.52c-.786-.283-1.589-.558-2.412-.8-.785-.237-1.59-.464-2.413-.672a57.238,57.238,0,0,0-13.888-1.665c-13.727,0-25.61,4.588-31.391,11.268h-3.727v8.931C2533.81,738.833,2533.81,738.909,2533.81,738.995Z" transform="translate(-2533.775 -711.092)" fill="#bcbcbc"/>
      <ellipse id="Ellipse_269" data-name="Ellipse 269" cx="35.118" cy="20.445" rx="35.118" ry="20.445" transform="translate(0 0.139) rotate(-0.113)" fill="#878787"/>
      <ellipse id="Ellipse_270" data-name="Ellipse 270" cx="29.707" cy="17.294" rx="29.707" ry="17.294" transform="translate(5.447 3.219)" fill="#a4a4a4"/>
      <g id="Group_5326" data-name="Group 5326" transform="translate(26.6 5.36)">
        <path id="Path_5959" data-name="Path 5959" d="M2564.293,744.268a2.408,2.408,0,0,1-.368-4.787l9.471-1.5-3.276-18.827a2.406,2.406,0,0,1,4.741-.823l4.115,23.642-14.294,2.271A2.711,2.711,0,0,1,2564.293,744.268Z" transform="translate(-2561.889 -716.332)" fill="#fff"/>
      </g>
    </g>
    <g id="Group_5338" data-name="Group 5338" transform="translate(82.887 226.264)">
      <path id="Path_5960" data-name="Path 5960" d="M2327.25,570.376v56.15l3.386,1.93,91.477-58.08,3.387-53.236-3.387-1.94Z" transform="translate(-2327.25 -515.2)" fill="#6b6b6b"/>
      <path id="Path_5961" data-name="Path 5961" d="M2330.831,572.426v56.14l94.863-56.14V517.25Z" transform="translate(-2327.444 -515.31)" fill="#a4a4a4"/>
      <g id="Group_5337" data-name="Group 5337" transform="translate(12.204 27.626)">
        <path id="Path_5962" data-name="Path 5962" d="M2357.35,573.595l2.8-1.637V567.01l-2.8,1.646-6.045,3.538-11.155,6.528v4.948l11.155-6.537Z" transform="translate(-2340.15 -545.619)" fill="#e8e8e8"/>
        <g id="Group_5328" data-name="Group 5328" transform="translate(0 35.563)">
          <path id="Path_5963" data-name="Path 5963" d="M2356.736,586.938V581.99l-5.431,3.179-11.155,6.537v4.939l11.155-6.528Z" transform="translate(-2340.15 -581.99)" fill="#e8e8e8"/>
        </g>
        <path id="Path_5964" data-name="Path 5964" d="M2351.3,605.774,2340.15,612.3v4.948l11.155-6.537,6.045-3.539,8.505-4.976V597.25l-8.505,4.986Z" transform="translate(-2340.15 -547.25)" fill="#e8e8e8"/>
        <g id="Group_5329" data-name="Group 5329" transform="translate(11.637 35.431)">
          <path id="Path_5965" data-name="Path 5965" d="M2374.512,581.85l-6.973,4.087-9.526,5.573-5.563,3.264v4.938l5.563-3.254,9.526-5.582,6.973-4.078Z" transform="translate(-2352.45 -581.85)" fill="#e8e8e8"/>
        </g>
        <g id="Group_5330" data-name="Group 5330" transform="translate(0 49.243)">
          <path id="Path_5966" data-name="Path 5966" d="M2350.265,596.45l-10.115,5.922v4.939l10.115-5.923Z" transform="translate(-2340.15 -596.45)" fill="#e8e8e8"/>
        </g>
        <g id="Group_5331" data-name="Group 5331" transform="translate(18.099 19.669)">
          <path id="Path_5967" data-name="Path 5967" d="M2359.28,585.143l8.629-5.052,11.466-6.717,5.544-3.245V565.19l-5.544,3.245-11.466,6.708-8.629,5.052Z" transform="translate(-2359.28 -565.19)" fill="#e8e8e8"/>
        </g>
        <g id="Group_5332" data-name="Group 5332" transform="translate(45.44)">
          <path id="Path_5968" data-name="Path 5968" d="M2393.289,560.077l-5.109,3v4.938l5.109-2.989,27.6-15.677V544.4Z" transform="translate(-2388.18 -544.4)" fill="#e8e8e8"/>
        </g>
        <g id="Group_5333" data-name="Group 5333" transform="translate(35.213 20.265)">
          <path id="Path_5969" data-name="Path 5969" d="M2377.371,580.1v4.948l2.979-1.741,7.143-4.182,5.213-3.056,9.337-5.308V565.82l-9.337,5.308-5.213,3.046-7.143,4.182Z" transform="translate(-2377.371 -565.82)" fill="#e8e8e8"/>
        </g>
        <g id="Group_5334" data-name="Group 5334" transform="translate(61.58 9.886)">
          <path id="Path_5970" data-name="Path 5970" d="M2405.24,569.2l16.566-9.4V554.85l-16.566,9.414Z" transform="translate(-2405.24 -554.85)" fill="#e8e8e8"/>
        </g>
        <g id="Group_5335" data-name="Group 5335" transform="translate(54.788 19.783)">
          <path id="Path_5971" data-name="Path 5971" d="M2398.06,583.522l23.358-13.273V565.31l-23.358,13.264Z" transform="translate(-2398.06 -565.31)" fill="#e8e8e8"/>
        </g>
        <g id="Group_5336" data-name="Group 5336" transform="translate(27.228 34.012)">
          <path id="Path_5972" data-name="Path 5972" d="M2387.038,584.844l-7.143,4.182-10.966,6.424v4.939l10.966-6.415,7.143-4.181,5.214-3.056,2.536-1.438V580.35l-2.536,1.448Z" transform="translate(-2368.93 -580.35)" fill="#e8e8e8"/>
        </g>
      </g>
    </g>
    <g id="Group_5343" data-name="Group 5343" transform="translate(48.149 191.306)">
      <path id="Path_5984" data-name="Path 5984" d="M2379.985,543.1h-3.424V519.859l71.087-41.609,1.732,2.952-69.4,40.615Z" transform="translate(-2295.172 -478.25)" fill="#1c1c1c"/>
      <path id="Path_6365" data-name="Path 6365" d="M1.834,0H0V12.447L38.064,34.726l.927-1.581L1.834,11.4Z" transform="matrix(0.995, -0.105, 0.105, 0.995, 0, 57)" fill="#1c1c1c"/>
    </g>
    <g id="Group_5344" data-name="Group 5344" transform="translate(337.685 94.83)">
      <path id="Path_5985" data-name="Path 5985" d="M2597.667,444.415l-1.1-1.93,48.229-27.408v-30.4h2.224v31.693Z" transform="translate(-2596.571 -376.728)" fill="#393939"/>
      <path id="Path_6366" data-name="Path 6366" d="M2645.926,444.416l1.1-1.93-48.23-27.408v-30.4h-2.222v31.694Z" transform="translate(-2530.302 -384.68)" fill="#393939"/>
    </g>
    <g id="Group_5345" data-name="Group 5345" transform="translate(0 110.532)">
      <g transform="matrix(1, 0, 0, 1, -30.5, -110.53)" filter="url(#Path_5986)">
        <path id="Path_5986-2" data-name="Path 5986" d="M2737.278,379.742c1.192-5.412,3.955-9.4,8-10.691,4.371-1.381,9.329.691,13.653,5.08,2.023-7.2,6.026-12.45,11.664-14.238,12.224-3.86,27.5,10.028,34.135,31.012.4,1.268.757,2.535,1.077,3.794,6.538,1.987,13.179,9.792,16.51,20.331a41.157,41.157,0,0,1,1.986,13.614l.7.4a16.645,16.645,0,0,1,8.363,14.437h0a16.642,16.642,0,0,1-24.919,14.437L2725.784,410.5a16.646,16.646,0,0,1-8.363-14.437h0A16.638,16.638,0,0,1,2737.278,379.742Z" transform="translate(-2258.76 -248.72)" fill="#fff" stroke="#e5e5e5" stroke-width="1"/>
      </g>
      <g transform="matrix(1, 0, 0, 1, -30.5, -110.53)" filter="url(#Path_5987)">
        <path id="Path_5987-2" data-name="Path 5987" d="M2311.353,502.975c-.871-3.964-2.9-6.887-5.856-7.824-3.2-1.012-6.822.5-9.991,3.718-1.485-5.27-4.409-9.111-8.532-10.417-8.94-2.829-20.134,7.342-24.977,22.7-.293.927-.558,1.854-.786,2.781-4.777,1.457-9.641,7.171-12.082,14.882a30.056,30.056,0,0,0-1.457,9.963l-.511.293a12.176,12.176,0,0,0-6.12,10.568h0a12.182,12.182,0,0,0,18.24,10.568l60.5-34.7a12.174,12.174,0,0,0,6.122-10.568h0A12.206,12.206,0,0,0,2311.353,502.975Z" transform="translate(-2210.54 -286.14)" fill="#fff" stroke="#e5e5e5" stroke-width="1"/>
      </g>
    </g>
    <g id="Group_5349" data-name="Group 5349" transform="translate(177.713 135.507)">
      <path id="Path_5988" data-name="Path 5988" d="M2454.7,429.7l4.447-2.6V419.27l-4.447,2.6-9.555,5.6L2427.48,437.8v7.824l17.664-10.331Z" transform="translate(-2427.48 -419.27)" fill="#aaa"/>
      <g id="Group_5346" data-name="Group 5346" transform="translate(0 22.432)">
        <path id="Path_5989" data-name="Path 5989" d="M2453.725,450.8V442.98L2445.144,448l-17.664,10.341v7.824l17.664-10.341Z" transform="translate(-2427.48 -442.98)" fill="#aaa"/>
      </g>
      <path id="Path_5990" data-name="Path 5990" d="M2445.144,480.6l-17.664,10.341v7.815l17.664-10.331,9.555-5.6,13.471-7.881V467.12L2454.7,475Z" transform="translate(-2427.48 -421.85)" fill="#aaa"/>
      <g id="Group_5347" data-name="Group 5347" transform="translate(18.42 22.223)">
        <path id="Path_5991" data-name="Path 5991" d="M2481.852,442.76l-11.023,6.452-15.08,8.836-8.8,5.147v7.824l8.8-5.156,15.08-8.827,11.023-6.452Z" transform="translate(-2446.95 -442.76)" fill="#aaa"/>
      </g>
      <g id="Group_5348" data-name="Group 5348" transform="translate(0 44.068)">
        <path id="Path_5992" data-name="Path 5992" d="M2443.5,465.85l-16.018,9.376v7.824l16.018-9.376Z" transform="translate(-2427.48 -465.85)" fill="#aaa"/>
      </g>
    </g>
    <g id="Group_5353" data-name="Group 5353" transform="translate(347.978 13.528)">
      <path id="Path_5993" data-name="Path 5993" d="M2607.45,330.719v80.313l2.271,1.817,68.514-42.2,2.271-78.5-2.271-1.816Z" transform="translate(-2607.45 -290.34)" fill="#d9d9d9"/>
      <path id="Path_5994" data-name="Path 5994" d="M2680.635,292.26v80.313l-70.784,40.379V332.639Z" transform="translate(-2607.581 -290.443)" fill="#a4a4a4"/>
      <path id="Path_5995" data-name="Path 5995" d="M2680.635,292.26v16.783l-70.784,40.388V332.639Z" transform="translate(-2607.581 -290.443)" fill="#c7c7c7"/>
      <g id="Group_5352" data-name="Group 5352" transform="translate(10.407 33.576)">
        <path id="Path_5996" data-name="Path 5996" d="M2677.286,325.83l-.037,5.582-38.458,22.28.237-5.733Z" transform="translate(-2619.546 -325.83)" fill="#fff"/>
        <path id="Path_5997" data-name="Path 5997" d="M2656.946,375.03l-.038,5.582-38.458,22.29.236-5.743Z" transform="translate(-2618.451 -328.483)" fill="#fff"/>
        <g id="Group_5350" data-name="Group 5350" transform="translate(0.369 24.891)">
          <path id="Path_5998" data-name="Path 5998" d="M2633.3,352.14v5.411l-14.456,8.382v-5.412Z" transform="translate(-2618.841 -352.14)" fill="#fff"/>
        </g>
        <g id="Group_5351" data-name="Group 5351" transform="translate(37.067 27.711)">
          <path id="Path_5999" data-name="Path 5999" d="M2672.086,355.12v5.411l-14.456,8.382V363.5Z" transform="translate(-2657.631 -355.12)" fill="#fff"/>
        </g>
        <path id="Path_6000" data-name="Path 6000" d="M2677.026,365.35v5.412l-14.456,8.382v-5.412Z" transform="translate(-2620.829 -327.961)" fill="#fff"/>
        <path id="Path_6001" data-name="Path 6001" d="M2652.448,352.14l-33.568,19.385v5.6l33.623-19.574Z" transform="translate(-2618.474 -327.249)" fill="#fff"/>
        <path id="Path_6002" data-name="Path 6002" d="M2652.448,364.6l-33.568,19.376v5.61l33.623-19.575Z" transform="translate(-2618.474 -327.92)" fill="#fff"/>
      </g>
    </g>
    <g id="Group_3878" data-name="Group 3878" transform="translate(263.261 254.357)">
      <g id="Group_3872" data-name="Group 3872" transform="translate(78.506 99.41)">
        <rect id="Rectangle_217" data-name="Rectangle 217" width="4.598" height="49.724" transform="translate(23.76 11.842)" fill="#7d7d7d"/>
        <path id="Path_3720" data-name="Path 3720" d="M1946.041,1476.832h-40.27v-2.292a.7.7,0,0,1,.7-.7h38.815a.755.755,0,0,1,.755.754Z" transform="translate(-1899.845 -1414.307)" fill="#7d7d7d"/>
        <path id="Path_3721" data-name="Path 3721" d="M1936.812,1255.057a5.273,5.273,0,0,1-5.257,5.257h-43.3a5.272,5.272,0,0,1-5.256-5.257v-4.751a5.272,5.272,0,0,1,5.256-5.256h43.3a5.271,5.271,0,0,1,5.256,5.256v4.751Z" transform="translate(-1883 -1245.05)" fill="#7d7d7d"/>
      </g>
      <g id="Group_3874" data-name="Group 3874" transform="translate(39.389 0)">
        <path id="Path_3722" data-name="Path 3722" d="M1853.125,1441.268s-13.13,9.464-10.851,15.821c0,0,14.366-6.2,16.1-11.08s-.294-7.039-.294-7.039Z" transform="translate(-1813.558 -1289.101)" fill="#58525e"/>
        <path id="Path_3723" data-name="Path 3723" d="M1875.776,1417.32l2.147,6.206a2.158,2.158,0,0,1-.838,2.532,5.617,5.617,0,0,1-1.778.687,2.513,2.513,0,0,1-2.779-1.262l-2.568-4.835Z" transform="translate(-1834.236 -1273.084)" fill="url(#linear-gradient)"/>
        <path id="Path_3724" data-name="Path 3724" d="M1853.538,1202.63s-26.968,4.673-38.537,15.36,10.619,44.775,10.619,44.775,3.635-.023,8.041-3.8c0,0-13.155-25.638-1.819-33.115,12.745-8.4,27.435-10.3,27.435-10.3l-5.478-12.1Z" transform="translate(-1791.106 -1114.258)" fill="#d6d6d6"/>
        <path id="Path_3725" data-name="Path 3725" d="M1838.336,1474.226c2.889-1.337,11.064-7.059,12.442-7.312s3.767,1.367,3.767,1.367a3.727,3.727,0,0,1-.042,2.87c-1.918,2.321-6.18,6.748-11.907,8.4-4.212,1.214-7.16.084-8.995-1.24A12.217,12.217,0,0,1,1838.336,1474.226Z" transform="translate(-1807.337 -1309.753)" fill="#6c6673"/>
        <path id="Path_3726" data-name="Path 3726" d="M1840.214,1491.677c5.728-1.65,9.989-6.076,11.907-8.4a11.611,11.611,0,0,1-3.461,4.682c-5.137,4.616-14.944,6.278-17.033,5.959-1.674-.259-1.518-1.8-.411-3.485A10,10,0,0,0,1840.214,1491.677Z" transform="translate(-1804.952 -1321.881)" fill="#242424"/>
        <path id="Path_3727" data-name="Path 3727" d="M1901.928,1450.122c-.031.8-1.657,3.523-2.61,5.056a2.478,2.478,0,0,1-2.1,1.173,6.383,6.383,0,0,1-1.736-.208,1.608,1.608,0,0,1-1.08-2l1.858-6.342Z" transform="translate(-1852.269 -1295.632)" fill="url(#linear-gradient-2)"/>
        <path id="Path_3728" data-name="Path 3728" d="M1940.665,1171.53s5.991,16.014,0,20.885-20.274,10.354-23.468,20.054-8.607,28.553-15.858,35.227c0,0-5.091-.495-7-2.521,0,0,4.126-28.141,6.852-35.363,2.356-6.252,5.83-15.279,12.489-20.325,1.9-1.444,1.574-3.732.69-5.953l-1.609-4.046Z" transform="translate(-1852.273 -1091.251)" fill="#d6d6d6"/>
        <path id="Path_3729" data-name="Path 3729" d="M1831.654,1077.586c10.042.606,6.913-15.438,6.732-16.076l15.24,10.765s-.807,8.579-13.48,13.08a15.737,15.737,0,0,1-8.727.633A13.853,13.853,0,0,0,1831.654,1077.586Z" transform="translate(-1805.724 -1009.86)" fill="#363636"/>
        <path id="Path_3730" data-name="Path 3730" d="M1739.183,1101.443c3.742-2.6,7.98,0,7.98,0,5,3.273,8.7,4.663,11.436,4.829a13.873,13.873,0,0,1-.231,8.4c-5.605-1.2-9.615-5.261-11.358-7.342a1.809,1.809,0,0,0-2.506-.274c-.778.614-1.535,1.457-1.4,2.345.27,1.748-1.759,2.3-1.913,1.67a26.116,26.116,0,0,1,.7-4.395s-4.059,4.08-5.641,5.649-3.575,0-3.575,0S1735.441,1104.047,1739.183,1101.443Z" transform="translate(-1732.67 -1038.546)" fill="url(#linear-gradient-3)"/>
        <path id="Path_3731" data-name="Path 3731" d="M1890.733,964.338s-14.608-5.849-41.8,16.6c0,0-2.271,4.7.206,8.884s26.083,24.572,29.328,35.878c0,0,14.065,4.569,28.607-6.266C1907.076,1019.432,1905.793,987.965,1890.733,964.338Z" transform="translate(-1817.979 -937.464)"/>
        <path id="Path_3732" data-name="Path 3732" d="M1873.671,946.23l7.193,8.719a2.868,2.868,0,0,1,.377,3.079c-1,2.038-3.367,5-8.621,4.59a4.417,4.417,0,0,1-3.63-2.474l-5.03-10.4Z" transform="translate(-1829.797 -924.577)" fill="url(#linear-gradient-4)"/>
        <path id="Path_3733" data-name="Path 3733" d="M2011.712,1003.63c1.7-6.906-15.482-22.305-15.482-22.305l4.171-15.035s37.1,24.694,27.642,44.553a14.483,14.483,0,0,1-5.24,6.175C2019.815,1008.977,2015.057,1005.29,2011.712,1003.63Z" transform="translate(-1927.649 -939.417)" fill="#3a3a3a"/>
        <path id="Path_3734" data-name="Path 3734" d="M2010.6,1040.21a.405.405,0,0,0,.394-.309c1.735-7.062-14.9-22.069-15.607-22.7a.406.406,0,0,0-.542.6c.17.151,16.979,15.313,15.361,21.908a.406.406,0,0,0,.3.492A.683.683,0,0,0,2010.6,1040.21Z" transform="translate(-1926.528 -977.001)" fill="#ccffbd"/>
        <path id="Path_3735" data-name="Path 3735" d="M1907,1106.588s20.366,7.908,25.339,1.96a3.321,3.321,0,0,0,.679-1.366c3.341,1.66,8.1,5.347,11.09,13.387-10.713,6.846-29.021-3.807-33.972-6.948a3.7,3.7,0,0,0-2.736-.5c-1.91.4-5.209.978-6.986.7-2.6-.4-6.342,8.78-10.559,5.949C1889.847,1119.77,1893.459,1103.812,1907,1106.588Z" transform="translate(-1848.951 -1042.968)" fill="url(#linear-gradient-5)"/>
        <g id="Group_3873" data-name="Group 3873" transform="translate(23.781)">
          <path id="Path_3736" data-name="Path 3736" d="M1841.134,890.931c-.074.281,1.686,19.339,1.686,19.339l10.86-1.236,1.018-18.311S1842.344,886.237,1841.134,890.931Z" transform="translate(-1836.69 -882.083)" fill="url(#linear-gradient-6)"/>
          <path id="Path_3737" data-name="Path 3737" d="M1839.239,875.449l.219,9.682a1.277,1.277,0,0,1-.042.364c-.19.736-1.025,3.221-3.515,2.212-2.261-.916-4.335-1.72-5.863-1.431a1.35,1.35,0,0,0-1.095,1.452,58.5,58.5,0,0,0,1.486,8.954,1.349,1.349,0,0,0,1.54.971,43.58,43.58,0,0,0,9.761-2.8,1.355,1.355,0,0,0,.789-1.137c.163-2.42.684-9.774,1.147-11.8.434-1.9,2.924-2.8,4-3.1a1.33,1.33,0,0,0,.816-.658c.607-1.14,1.567-3.828-1.787-5.34a1.353,1.353,0,0,1-.661-1.835c.671-1.377,1.13-3.542-1.429-5.04a4.96,4.96,0,0,0-6.034.77,1.352,1.352,0,0,1-1.736.013,1.068,1.068,0,0,0-1.215-.091,1.332,1.332,0,0,1-1.813-.776,4.041,4.041,0,0,0-4.411-2.836c-4.837.291-5.954,5.5-5.04,8.717s6.141,2.607,8.87,1.332c2.074-.968,4.46.546,5.485,1.33A1.34,1.34,0,0,1,1839.239,875.449Z" transform="translate(-1824.061 -863.015)" fill="#40394a"/>
          <path id="Path_3738" data-name="Path 3738" d="M1898.388,928.676s-1.353-5.68.8-6.8,5.049-.1,3.959,3.791C1901.791,930.5,1898.388,928.676,1898.388,928.676Z" transform="translate(-1878.737 -906.245)" fill="url(#linear-gradient-7)"/>
        </g>
      </g>
      <g id="Group_3875" data-name="Group 3875" transform="translate(2.908 40.415)">
        <path id="Path_3739" data-name="Path 3739" d="M1788.433,1156.438c-.033,0-.065,0-.1,0l-42.734-.047a1.912,1.912,0,1,1,.005-3.824l42.734.047a1.912,1.912,0,0,1,.093,3.823Z" transform="translate(-1704.342 -1117.639)" fill="#6c6673"/>
        <path id="Path_3740" data-name="Path 3740" d="M1595.315,1018.33H1630.9a6.785,6.785,0,0,1,6.136,3.89l16.453,34.887h-44.228a4.119,4.119,0,0,1-3.832-2.607l-12.758-32.284A2.84,2.84,0,0,1,1595.315,1018.33Z" transform="translate(-1592.472 -1018.33)" fill="#6c6673"/>
      </g>
      <g id="Group_3877" data-name="Group 3877" transform="translate(0.001 78.809)">
        <g id="Group_3876" data-name="Group 3876" transform="translate(9.726 3.822)">
          <path id="Path_3741" data-name="Path 3741" d="M1620.468,1268.809a1.853,1.853,0,0,1-.708-.143,1.718,1.718,0,0,1-.938-2.285l37.663-84.762a1.82,1.82,0,0,1,2.36-.91,1.718,1.718,0,0,1,.94,2.285l-37.663,84.761A1.8,1.8,0,0,1,1620.468,1268.809Z" transform="translate(-1618.675 -1180.568)" fill="#d9d9d9"/>
          <path id="Path_3742" data-name="Path 3742" d="M1676.444,1268.813a1.8,1.8,0,0,1-1.649-1.051L1637.132,1183a1.718,1.718,0,0,1,.94-2.285,1.82,1.82,0,0,1,2.36.91l37.662,84.761a1.719,1.719,0,0,1-.939,2.286A1.918,1.918,0,0,1,1676.444,1268.813Z" transform="translate(-1632.221 -1180.572)" fill="#d9d9d9"/>
          <path id="Path_3743" data-name="Path 3743" d="M2068.5,1268.809a1.843,1.843,0,0,1-.708-.143,1.719,1.719,0,0,1-.94-2.285l37.66-84.762a1.822,1.822,0,0,1,2.362-.91,1.719,1.719,0,0,1,.939,2.285l-37.663,84.761A1.8,1.8,0,0,1,2068.5,1268.809Z" transform="translate(-1950.123 -1180.568)" fill="#d9d9d9"/>
          <path id="Path_3744" data-name="Path 3744" d="M2124.465,1268.813a1.8,1.8,0,0,1-1.65-1.051L2085.153,1183a1.717,1.717,0,0,1,.939-2.285,1.819,1.819,0,0,1,2.359.91l37.661,84.761a1.718,1.718,0,0,1-.938,2.286A1.9,1.9,0,0,1,2124.465,1268.813Z" transform="translate(-1963.661 -1180.572)" fill="#d9d9d9"/>
        </g>
        <path id="Path_3745" data-name="Path 3745" d="M1756.247,1168.136a2.056,2.056,0,0,0-.357-1.566,1.629,1.629,0,0,0-1.306-.689H1583.248a1.9,1.9,0,0,0-1.641,1.006,2.407,2.407,0,0,0-.127,2.092l1.857,4.5a2.6,2.6,0,0,0,2.36,1.689H1753.41a2.043,2.043,0,0,0,1.933-1.785Z" transform="translate(-1581.299 -1165.88)" fill="#d9d9d9"/>
      </g>
    </g>
    <ellipse id="Ellipse_277" data-name="Ellipse 277" cx="83.771" cy="12.037" rx="83.771" ry="12.037" transform="translate(274.756 407.262)" fill="#bbb" opacity="0.33"/>
    <g id="Group_5441" data-name="Group 5441" transform="translate(367.361 182.835)">
      <ellipse id="Ellipse_268-2" data-name="Ellipse 268" cx="35.118" cy="20.445" rx="35.118" ry="20.445" transform="translate(0.036 27.562)" fill="#bbb" opacity="0.33"/>
      <path id="Path_5958-2" data-name="Path 5958" d="M2533.81,738.995c0,11.3,15.723,20.445,35.119,20.445a57.315,57.315,0,0,0,13.888-1.665c.823-.208,1.618-.426,2.413-.672.823-.256,1.626-.52,2.412-.8a37.7,37.7,0,0,0,7.228-3.519c5.705-3.633,9.187-8.477,9.187-13.794v-.01h.01v-9.168h-3.736a24.789,24.789,0,0,0-5.46-4.607,37.492,37.492,0,0,0-7.228-3.52c-.786-.283-1.589-.558-2.412-.8-.785-.237-1.59-.464-2.413-.672a57.238,57.238,0,0,0-13.888-1.665c-13.727,0-25.61,4.588-31.391,11.268h-3.727v8.931C2533.81,738.833,2533.81,738.909,2533.81,738.995Z" transform="translate(-2533.775 -711.092)" fill="#bcbcbc"/>
      <ellipse id="Ellipse_269-2" data-name="Ellipse 269" cx="35.118" cy="20.445" rx="35.118" ry="20.445" transform="translate(0 0.139) rotate(-0.113)" fill="#878787"/>
      <ellipse id="Ellipse_270-2" data-name="Ellipse 270" cx="29.707" cy="17.294" rx="29.707" ry="17.294" transform="translate(5.447 3.219)" fill="#a4a4a4"/>
      <g id="Group_5326-2" data-name="Group 5326" transform="translate(26.6 5.36)">
        <path id="Path_5959-2" data-name="Path 5959" d="M2564.293,744.268a2.408,2.408,0,0,1-.368-4.787l9.471-1.5-3.276-18.827a2.406,2.406,0,0,1,4.741-.823l4.115,23.642-14.294,2.271A2.711,2.711,0,0,1,2564.293,744.268Z" transform="translate(-2561.889 -716.332)" fill="#fff"/>
      </g>
    </g>
  </g>
</svg>
