<svg xmlns="http://www.w3.org/2000/svg" width="408" height="219.779" viewBox="0 0 408 219.779">
  <g id="Training_Management_" data-name="Training Management " transform="translate(-18.346 -24.937)">
    <g id="Group_5831" data-name="Group 5831" transform="translate(18.346 24.937)">
      <g id="Group_5804" data-name="Group 5804">
        <path id="Path_7007" data-name="Path 7007" d="M603.128,417.773s48.327-51.888,8.173-108.063c-35.627-49.844-77.165-46.436-107.64-26.209-12.98,8.614-50.4,1.061-82.254-49.656-43.436-69.163-202.591-33.734-174.551,79.656,12.768,51.627-32.433,52.9-5.062,104.38Z" transform="translate(-220.846 -198.515)" fill="#f1f1f1"/>
        <path id="Path_7008" data-name="Path 7008" d="M146.517,1783.911H553.584a.468.468,0,0,0,.466-.466v-.168a.468.468,0,0,0-.466-.466H146.517a.468.468,0,0,0-.467.466v.168A.468.468,0,0,0,146.517,1783.911Z" transform="translate(-146.05 -1564.132)" fill="#2e3552"/>
      </g>
      <g id="Group_5811" data-name="Group 5811" transform="translate(114.887 137.518)">
        <g id="Group_5806" data-name="Group 5806" transform="translate(43.379 32.398)">
          <path id="Path_7009" data-name="Path 7009" d="M1345.764,1443.268s-5.677-6.623-.351-10.83c0,0,3.891-2.356,7.064-2.164,0,0-4.5,7.539-3.041,8.289s4.4-8.762,4.4-8.762,8.855-.859,11.7.51c0,0-7.57,6.195-5.975,6.563s9.771-5.712,9.771-5.712,8.242,1.4,7.8,6.429-3.279,6.58-4.527,6.446-8.55-2.921-8.708-1.9,4.236,4.365,7.313,4.521c0,0-5.81,6.407-9.672,4.559s-4.191-4.781-6.6-5.88-4.463-1.1-3.469.025,5.35,2.211,6.728,4.646,2.612,4.077-1.383,3.475-10.489-3.524-10.775-6.872Z" transform="translate(-1336.168 -1429.535)" fill="#afafaf"/>
          <g id="Group_5805" data-name="Group 5805" transform="translate(0 8.155)">
            <path id="Path_7010" data-name="Path 7010" d="M1358.408,1488.657s-22.384-.863-27.327,5.539a16.189,16.189,0,0,1-4.457,6.255l-.524,1.428s3.879-4.09,5.267-4.337C1331.367,1497.544,1329.2,1489.612,1358.408,1488.657Z" transform="translate(-1321.486 -1488.618)" fill="#dfdfdf"/>
            <path id="Path_7011" data-name="Path 7011" d="M1297.809,1570.832a14.056,14.056,0,0,0-5.139,9.9l.872.077s1.535-6.565,4.308-9.132S1297.809,1570.832,1297.809,1570.832Z" transform="translate(-1292.67 -1558.999)" fill="#c9c9c9"/>
          </g>
        </g>
        <g id="Group_5808" data-name="Group 5808" transform="translate(0 14.418)">
          <path id="Path_7012" data-name="Path 7012" d="M1011.519,1322.658s9.031-5.057,4.816-11.92c0,0-3.372-4.214-6.984-5.3,0,0,1.927,10.235,0,10.476s-1.325-11.56-1.325-11.56-9.513-4.576-13.245-4.214c0,0,5.9,9.995,3.974,9.753s-8.549-10.355-8.549-10.355-9.753-1.807-11.318,3.974.963,8.67,2.409,9.031,10.717.24,10.476,1.445-6.5,3.13-9.995,2.047c0,0,3.854,9.513,8.91,9.031s6.623-3.612,9.753-3.854,5.419.6,3.854,1.445-6.863.276-9.391,2.425-4.576,3.474.12,4.438,13.125.362,14.81-3.25Z" transform="translate(-978.393 -1299.273)" fill="#d4d4d4"/>
          <g id="Group_5807" data-name="Group 5807" transform="translate(4.951 6.045)">
            <path id="Path_7013" data-name="Path 7013" d="M1014.26,1343.07s25.287,8.188,28.176,17.339a19.212,19.212,0,0,0,2.408,8.79v1.807s-2.649-6.141-4.094-6.984C1040.75,1364.021,1046.41,1356.074,1014.26,1343.07Z" transform="translate(-1014.26 -1343.07)" fill="#b7b7b7"/>
            <path id="Path_7014" data-name="Path 7014" d="M1228.288,1525.349a16.678,16.678,0,0,1,1.677,13.129l-1-.269s.974-7.94-1.067-11.933S1228.288,1525.349,1228.288,1525.349Z" transform="translate(-1197.706 -1499.22)" fill="#b7b7b7"/>
          </g>
        </g>
        <g id="Group_5810" data-name="Group 5810" transform="translate(39.668)">
          <path id="Path_7015" data-name="Path 7015" d="M1273.608,1225.646s-11.9-6.667-6.349-15.713c0,0,4.445-5.556,9.207-6.984,0,0-2.54,13.492,0,13.808s1.746-15.237,1.746-15.237,12.538-6.032,17.459-5.556c0,0-7.778,13.173-5.238,12.856s11.269-13.65,11.269-13.65,12.856-2.381,14.919,5.238-1.27,11.429-3.175,11.9-14.126.317-13.809,1.9,8.572,4.127,13.174,2.7c0,0-5.079,12.539-11.745,11.9s-8.73-4.762-12.856-5.079-7.143.793-5.079,1.9,9.048.364,12.38,3.2,6.032,4.58-.159,5.849-17.3.476-19.523-4.286S1273.608,1225.646,1273.608,1225.646Z" transform="translate(-1265.782 -1194.818)" fill="#d4d4d4"/>
          <g id="Group_5809" data-name="Group 5809" transform="translate(1.539 7.971)">
            <path id="Path_7016" data-name="Path 7016" d="M1339.8,1252.57s-33.333,10.793-37.141,22.856a25.317,25.317,0,0,1-3.175,11.586v2.381s3.492-8.1,5.4-9.207C1304.877,1280.186,1297.417,1269.712,1339.8,1252.57Z" transform="translate(-1296.368 -1252.57)" fill="#b7b7b7"/>
            <path id="Path_7017" data-name="Path 7017" d="M1280.041,1492.848a21.982,21.982,0,0,0-2.21,17.307l1.322-.355s-1.284-10.465,1.405-15.73S1280.041,1492.848,1280.041,1492.848Z" transform="translate(-1276.929 -1458.406)" fill="#b7b7b7"/>
          </g>
        </g>
        <path id="Path_7018" data-name="Path 7018" d="M1173.949,1631.159a23.319,23.319,0,0,0,23.318-23.318H1150.63A23.319,23.319,0,0,0,1173.949,1631.159Z" transform="translate(-1126.856 -1550.831)" fill="#9f9f9f"/>
        <path id="Path_7019" data-name="Path 7019" d="M1269.68,1630.971a23.337,23.337,0,0,0,26.214-23.141H1290.1A23.322,23.322,0,0,1,1269.68,1630.971Z" transform="translate(-1229.474 -1550.823)" fill="#d9d9d9"/>
        <path id="Path_7020" data-name="Path 7020" d="M1195.58,1767.407H1148.3a2.876,2.876,0,0,1,2.876-2.877H1192.7a2.876,2.876,0,0,1,2.876,2.877Z" transform="translate(-1124.848 -1685.894)" fill="#ababab"/>
        <rect id="Rectangle_488" data-name="Rectangle 488" width="47.935" height="0.715" transform="translate(23.008 57.007)" fill="#7b7b7b"/>
      </g>
      <g id="Group_5813" data-name="Group 5813" transform="translate(118.554 9.202)">
        <rect id="Rectangle_489" data-name="Rectangle 489" width="104.217" height="147.108" transform="translate(147.108 0) rotate(89.993)" fill="#c9c9c9"/>
        <rect id="Rectangle_490" data-name="Rectangle 490" width="143.243" height="100.352" transform="translate(145.188 102.286) rotate(179.993)" fill="#fefefe"/>
        <g id="Group_5812" data-name="Group 5812" transform="translate(12.496 14.114)">
          <path id="Path_7021" data-name="Path 7021" d="M1325.255,843.753l-50.244.006a1.8,1.8,0,0,1-1.8-1.8h0a1.8,1.8,0,0,1,1.8-1.8l50.244-.005a1.8,1.8,0,0,1,1.8,1.8h0A1.8,1.8,0,0,1,1325.255,843.753Z" transform="translate(-1248.679 -774.903)" fill="#d5d5d5"/>
          <path id="Path_7022" data-name="Path 7022" d="M1325.256,920.463l-50.245.005a1.8,1.8,0,0,1-1.8-1.8h0a1.8,1.8,0,0,1,1.8-1.8l50.244-.006a1.8,1.8,0,0,1,1.8,1.8h0A1.8,1.8,0,0,1,1325.256,920.463Z" transform="translate(-1248.679 -841.024)" fill="#d5d5d5"/>
          <rect id="Rectangle_491" data-name="Rectangle 491" width="116.295" height="0.93" transform="translate(0 58.08)" fill="#cecece"/>
          <path id="Path_7023" data-name="Path 7023" d="M1928.6,781.571v-3.8l5.213,1.9Z" transform="translate(-1813.607 -721.133)" fill="#c5c5c5"/>
          <rect id="Rectangle_492" data-name="Rectangle 492" width="61.829" height="0.973" transform="translate(5.424 64.796) rotate(-90.007)" fill="#cecece"/>
          <path id="Path_7024" data-name="Path 7024" d="M1123.86,372.172h3.975l-1.988-4.732Z" transform="translate(-1119.944 -367.44)" fill="#c5c5c5"/>
          <path id="Path_7025" data-name="Path 7025" d="M1201.538,839.264h-.3A3.268,3.268,0,0,1,1197.97,836h0a3.267,3.267,0,0,1,3.267-3.267h.3a3.267,3.267,0,0,1,3.267,3.267h0A3.267,3.267,0,0,1,1201.538,839.264Z" transform="translate(-1183.824 -768.507)" fill="#171717"/>
          <path id="Path_7026" data-name="Path 7026" d="M1201.548,907.244h-.3a3.268,3.268,0,0,1-3.267-3.267h0a3.267,3.267,0,0,1,3.267-3.267h.3a3.267,3.267,0,0,1,3.267,3.267h0A3.267,3.267,0,0,1,1201.548,907.244Z" transform="translate(-1183.833 -827.104)" fill="#d4d4d4"/>
          <path id="Path_7027" data-name="Path 7027" d="M1268.406,409.39l-6.679.558.878,1.731-20.964,9.87-19.583,32.917-23.113-19.814-18.645,9.042-.054.025L1168.36,454.79l.542.534,11.8-10.994,18.118-8.784,23.435,20.089,19.942-33.52,20.745-9.767.867,1.709Z" transform="translate(-1158.302 -403.6)" fill="#929292"/>
          <path id="Path_7028" data-name="Path 7028" d="M1239.369,649.434h-.222a2.417,2.417,0,0,1-2.417-2.417h0a2.417,2.417,0,0,1,2.417-2.417h.222a2.417,2.417,0,0,1,2.417,2.417h0A2.418,2.418,0,0,1,1239.369,649.434Z" transform="translate(-1217.235 -606.344)" fill="#171717"/>
          <path id="Path_7029" data-name="Path 7029" d="M1684.819,490.444h-.222a2.417,2.417,0,0,1-2.417-2.417h0a2.417,2.417,0,0,1,2.417-2.417h.222a2.417,2.417,0,0,1,2.417,2.417h0A2.417,2.417,0,0,1,1684.819,490.444Z" transform="translate(-1601.2 -469.299)" fill="#171717"/>
          <path id="Path_7030" data-name="Path 7030" d="M1373.009,587.444h-.222a2.417,2.417,0,0,1-2.417-2.417h0a2.417,2.417,0,0,1,2.417-2.417h.222a2.417,2.417,0,0,1,2.417,2.417h0A2.417,2.417,0,0,1,1373.009,587.444Z" transform="translate(-1332.429 -552.91)" fill="#171717"/>
          <path id="Path_7031" data-name="Path 7031" d="M1541.629,722.574h-.222a2.417,2.417,0,0,1-2.417-2.417h0a2.417,2.417,0,0,1,2.417-2.417h.222a2.417,2.417,0,0,1,2.417,2.417h0A2.419,2.419,0,0,1,1541.629,722.574Z" transform="translate(-1477.774 -669.389)" fill="#d4d4d4"/>
        </g>
      </g>
      <g id="Group_5817" data-name="Group 5817" transform="translate(26.011 25.36)">
        <path id="Path_7032" data-name="Path 7032" d="M618.83,539.535s5.208,6.18,11.841,3.594a20.07,20.07,0,0,0,1.447-5.995c0-.313.006-.617.011-.905.036-2.866.133-4.472.133-4.472h-.007c-.3-.126-10.14-4.164-10.131-3.829C622.292,535.674,618.83,539.535,618.83,539.535Z" transform="translate(-579.583 -507.802)" fill="#ffb27d"/>
        <path id="Path_7033" data-name="Path 7033" d="M649.8,540.978a15.391,15.391,0,0,0,9.019,6.456c.036-2.866.133-4.472.133-4.472h-.007C658.673,542.887,649.519,540.461,649.8,540.978Z" transform="translate(-606.274 -519.007)" fill="#ed975d"/>
        <path id="Path_7034" data-name="Path 7034" d="M642.052,439.783s-11.064,2.6-12.577-4.313-3.961-11.237,3.039-13.189,8.955.384,10.021,2.569S644.89,438.927,642.052,439.783Z" transform="translate(-587.314 -416.125)" fill="#ffb27d"/>
        <path id="Path_7035" data-name="Path 7035" d="M594.644,403.476c-.15.1-2.531.828-7.039-8.153a7.823,7.823,0,0,1,.46-7.155c1.649-2.694,7.5-4.814,12.359-5.736s6.026,1.812,7.172,4.56c1.2,2.885,4.671,5.26,4.671,5.26-4.19,2.341-9.238-1.008-10.987-.457s-2.366,3.307-2.5,4.191-.333,1.618-2.531.828-.994,3.117-.642,3.863C595.606,400.679,595.9,402.668,594.644,403.476Z" transform="translate(-552.104 -382.248)"/>
        <g id="Group_5814" data-name="Group 5814" transform="translate(0 84.944)">
          <path id="Path_7036" data-name="Path 7036" d="M348.532,1682.037h-6.7c-1.4,0-2.965-1.407-3.356-3.981s-3.278-3.981-3.9-6.089,2.576-5.074,2.576-5.074l.536-.687.556-.717,5.307,1.248s.131,1.264.213,2.874c.057,1.162.088,2.505.022,3.684-.156,2.81.787,5.836,3.284,6.382S348.532,1682.037,348.532,1682.037Z" transform="translate(-334.493 -1573.31)" fill="#9e9e9e"/>
          <path id="Path_7037" data-name="Path 7037" d="M655.584,1724.988H637.826a1.622,1.622,0,0,1-.377-.109c-1.186-.594-.814-5.133-.672-6.536.028-.259.047-.412.047-.412s6.244-4.994,7.1-1.17c.028.119.058.236.092.352h0c1.083,3.578,5.93,5.2,8.729,5.656C654.887,1723.119,655.441,1724.366,655.584,1724.988Z" transform="translate(-594.908 -1616.262)" fill="#9e9e9e"/>
          <path id="Path_7038" data-name="Path 7038" d="M582.669,1033.228s-.948,11.832-2.064,26.054c-1.516,19.32-3.336,43.052-3.517,47.548-.312,7.807-1.563,20.294-1.563,20.294s-2.965,2.966-8.9,1.717a204.237,204.237,0,0,1-6.8-36.688c-.023-.309-.047-.621-.07-.932-1.405-19.2-3.59-59.632-3.59-59.632Z" transform="translate(-525.572 -1026.907)" fill="#858585"/>
          <path id="Path_7039" data-name="Path 7039" d="M582.677,1033.228s-.948,11.832-2.064,26.054l-20.773,32.871c-.023-.309-.047-.621-.07-.932-1.405-19.2-3.59-59.632-3.59-59.632Z" transform="translate(-525.581 -1026.907)" fill="#7b7b7b"/>
          <path id="Path_7040" data-name="Path 7040" d="M403.85,1005.387s-17.093,42.851-28.333,62.988-14.753,25.758-14.753,25.758-6.439-2.576-7.024-4.331c0,0,4.3-38.876,11.825-48.353,4.253-5.355,9.249-21.425,9.484-27.045s1.522-16.743,1.522-16.743Z" transform="translate(-351.083 -997.66)" fill="#bcbcbc"/>
        </g>
        <g id="Group_5815" data-name="Group 5815" transform="translate(8.043 32.419)">
          <path id="Path_7041" data-name="Path 7041" d="M398.5,990.938l-.181,2.756a5.937,5.937,0,0,1-3.275,7.407s-2.179.879-2.268-.817.19-1.059.014-3.448.762-4.647,2.342-5.409l1.3-1.5Z" transform="translate(-392.761 -938.471)" fill="#ffb27d"/>
          <path id="Path_7042" data-name="Path 7042" d="M405.245,671.593c1.892.608,2.195.471,2.195.471s9.209-16.766,10.141-18.3,19.552-18.8,19.552-18.8l-4.785-17.843s-21.176,27.423-23.463,31.359c-3.779,6.5-5.993,21.6-5.993,21.6A5.55,5.55,0,0,0,405.245,671.593Z" transform="translate(-401.492 -617.12)" fill="#363636"/>
        </g>
        <path id="Path_7043" data-name="Path 7043" d="M511.088,653.418a46.1,46.1,0,0,0,14.225,5.9c6.077,1.324,13.5.758,15.992,1.071a1.064,1.064,0,0,0,.727-.186c.182-.115,1.161-7.612,2.094-17.1.025-.218.05-.448.068-.678.012-.153.022-.308.025-.456l.017-.134c.1-.986.2-1.99.291-3.006.229-2.531.428-5.131.611-7.723.018-.247.036-.5.052-.744.289-4.182.5-8.3.567-11.967,0-.088,0-.175,0-.262a79.543,79.543,0,0,0-.2-7.989c-.04-.46-.086-.89-.141-1.3a23.058,23.058,0,0,0-5.888-12.276l-2.445-2.774c-2.346.206-4.377.29-6.668-1.18-2.482-1.591-4.086-3.09-4.588-2.809-3.841,2.247-8,7.775-10.086,15.278a85.224,85.224,0,0,0-2.479,13.374q-.3,2.758-.458,5.6a184.324,184.324,0,0,1-3.057,23.889c-.265,1.452-.473,2.606-.588,3.405C509.052,652.078,510.468,653.051,511.088,653.418Z" transform="translate(-485.052 -561.127)" fill="#505050"/>
        <path id="Path_7044" data-name="Path 7044" d="M650.98,706.83s2.09,23.109,15.459,36.495c.012-.153.022-.308.025-.456l.017-.134c.1-.986.2-1.99.291-3.006.229-2.531.428-5.13.612-7.723q.027-.371.052-.744c.289-4.182.5-8.3.567-11.967,0-.088,0-.175,0-.262-.026-2.19-.091-4.188-.2-5.942A29.479,29.479,0,0,0,650.98,706.83Z" transform="translate(-607.296 -662.028)" fill="#363636"/>
        <g id="Group_5816" data-name="Group 5816" transform="translate(85.6 16.961)">
          <path id="Path_7045" data-name="Path 7045" d="M957.3,579.153l24.873-73.107c.115-.333.268-.652-.063-.772l-.3-.11c-.339-.123-.439.1-.562.435l-26.512,72.056a1.394,1.394,0,0,0,.744,1.75l.614.273A.893.893,0,0,0,957.3,579.153Z" transform="translate(-954.651 -505.129)" fill="#828282"/>
        </g>
        <path id="Path_7046" data-name="Path 7046" d="M1007.356,774.812c.013-1.07,2.835-3.544,3.023-3.245a4.584,4.584,0,0,1-.315,1.811c1.173-.786,1.44-3.558,3.42-4.8.548-.344,2.5,5.017.65,6.964s-2.741,1.728-5.826,3.528l-2.235.15-1.1-3.473S1006.161,775.314,1007.356,774.812Z" transform="translate(-912.425 -715.243)" fill="#ffb27d"/>
        <path id="Path_7047" data-name="Path 7047" d="M665.023,663.943c.146-2.108-2.634-3.328-2.634-3.328s-21.178,2.207-23,1.634-15.433-20.1-15.433-20.1-5.971-6.734-10.86-5.246c-4.248,1.292-5.909,4.606-6.475,7.763a9.3,9.3,0,0,0,4.319,9.546c7.313,4.486,20.105,16.849,23.553,17.86,7.674,2.25,29.595-5.1,29.595-5.1A7.57,7.57,0,0,0,665.023,663.943Z" transform="translate(-568.936 -601.565)" fill="#646464"/>
      </g>
      <g id="Group_5830" data-name="Group 5830" transform="translate(269.363 69.973)">
        <g id="Group_5825" data-name="Group 5825" transform="translate(6.853)">
          <g id="Group_5823" data-name="Group 5823">
            <path id="Path_7048" data-name="Path 7048" d="M2738.208,1045.53a191.25,191.25,0,0,1,2.206-23.429c1.582-9.149,3.006-14.412,3.023-14.467.208-.8,3.219-4.059,9.913-3.959s6.06,4.37,6.06,4.37h0a1.359,1.359,0,0,1-.049.38,204.949,204.949,0,0,0-5.944,51.265c0,.4.049,1.1.021,1.567,0,0-15.512.4-15.516,0C2737.381,1058.741,2737.645,1051.775,2738.208,1045.53Z" transform="translate(-2656.131 -962.512)" fill="#b4b5b5"/>
            <path id="Path_7049" data-name="Path 7049" d="M2725.716,1059.547c0,.4.217.722.475.722h.005c.259-.006.464-.327.467-.722h13.293c0,.4.217.722.475.722h.005c.262-.006.471-.337.468-.743a200.705,200.705,0,0,1,1.1-22.71,178.3,178.3,0,0,1,5.081-28.391,1.416,1.416,0,0,0,.049-.38s.635-4.269-6.058-4.37-9.7,3.155-9.913,3.96c-.012.043-.819,3.023-1.891,8.381-.354,1.775-.738,3.811-1.132,6.086a191.257,191.257,0,0,0-2.206,23.429C2725.373,1051.774,2725.176,1057.033,2725.716,1059.547Z" transform="translate(-2645.59 -962.512)" fill="#d6d6d6"/>
            <path id="Path_7050" data-name="Path 7050" d="M2519.4,1387.135H2467.28s1.213-4.911,31.4-4.18C2520.038,1383.474,2519.4,1387.135,2519.4,1387.135Z" transform="translate(-2423.1 -1289.379)" fill="#c5c5c5"/>
            <g id="Group_5818" data-name="Group 5818" transform="translate(91.705 98.517)">
              <path id="Path_7051" data-name="Path 7051" d="M2820.428,1469.746c-6.043-30.591-4.489-49.363-4.482-49.6.015-.471-.853-.9-1.319-.914s-2.559-.139-2.8.264c-.316.529-1.534,23.657,7.473,50.249h1.127Z" transform="translate(-2811.594 -1419.205)" fill="#b4b4b4"/>
            </g>
            <g id="Group_5819" data-name="Group 5819" transform="translate(51.878 98.517)">
              <path id="Path_7052" data-name="Path 7052" d="M2523.05,1469.746c6.043-30.591,4.489-49.363,4.482-49.6-.015-.471.853-.9,1.32-.914s2.559-.139,2.8.264c.316.529,1.533,23.657-7.473,50.249h-1.128Z" transform="translate(-2523.05 -1419.205)" fill="#b4b4b4"/>
            </g>
            <g id="Group_5820" data-name="Group 5820" transform="translate(42.234 98.517)">
              <path id="Path_7053" data-name="Path 7053" d="M2453.18,1469.746c6.043-30.591,4.489-49.363,4.482-49.6-.015-.471.853-.9,1.319-.914s2.559-.139,2.8.264c.315.529,1.533,23.657-7.473,50.249h-1.128Z" transform="translate(-2453.18 -1419.205)" fill="#b4b4b4"/>
            </g>
            <g id="Group_5821" data-name="Group 5821" transform="translate(81.996 98.517)">
              <path id="Path_7054" data-name="Path 7054" d="M2750.088,1469.746c-6.043-30.591-4.489-49.363-4.482-49.6.015-.471-.853-.9-1.319-.914s-2.559-.139-2.8.264c-.316.529-1.534,23.657,7.473,50.249h1.128Z" transform="translate(-2741.253 -1419.205)" fill="#b4b4b4"/>
            </g>
            <path id="Path_7055" data-name="Path 7055" d="M2460.387,1407.347h52.118a1.072,1.072,0,0,0,1.068-1.068v-.7a1.07,1.07,0,0,0-1.067-1.067h-52.118a1.072,1.072,0,0,0-1.069,1.068v.7A1.071,1.071,0,0,0,2460.387,1407.347Z" transform="translate(-2416.238 -1308.022)" fill="#9f9f9f"/>
            <g id="Group_5822" data-name="Group 5822">
              <path id="Path_7056" data-name="Path 7056" d="M2365.764,1060.623l-17.324-3.753-1.02,2.487s19.116,11.375,20.907,10.817S2365.764,1060.623,2365.764,1060.623Z" transform="translate(-2319.784 -1008.366)" fill="#ffb27d"/>
              <path id="Path_7057" data-name="Path 7057" d="M2507.741,1565.487a1.542,1.542,0,0,1,.275,1.647.013.013,0,0,1,0,.008c-.4,1.1-1.708,2.323-3.232,3.547q-.292.236-.519.432c-.04.034-.078.069-.115.1s-.061.055-.09.082c-1.422,1.31-.886,1.611-3.44,4.269-2.911,3.028-4.916,3.084-5.485,2.808-.483-.235.5-1.841,1.583-3.647l.159-.264c.145-.24.288-.485.432-.725,1.272-2.173.945-3.193.644-6.427-.246-2.628-4.088-14.682-4.088-14.682l5.579-.961s1.68,9.6,3.531,11.077c.99.788,2.1.8,3.049,1.382.068.04.134.083.2.125A7.282,7.282,0,0,1,2507.741,1565.487Z" transform="translate(-2446.01 -1434.878)" fill="#ffb27d"/>
              <path id="Path_7058" data-name="Path 7058" d="M2514.882,1643.28a1.542,1.542,0,0,1,.274,1.647.012.012,0,0,1,0,.008,11.838,11.838,0,0,1-3.238,3.535c-.192.16-.362.306-.513.443-.04.035-.079.069-.116.1s-.061.055-.09.082c-1.422,1.31-.886,1.611-3.44,4.269-2.911,3.029-4.916,3.083-5.485,2.807-.483-.235.5-1.841,1.583-3.647a12.4,12.4,0,0,0,5.19-3.824c1.753-2.237,2.922-5.111,4.116-6.776.068.04.134.083.2.126A7.333,7.333,0,0,1,2514.882,1643.28Z" transform="translate(-2453.152 -1512.671)" fill="#434343"/>
              <path id="Path_7059" data-name="Path 7059" d="M2163.944,1551.384c-.345,1.723-2.8,1.436-5.542.765s-2.091.127-5.993-.305-5.085-1.887-5.205-2.468c-.106-.515,1.822-.7,3.891-.934.259-.029.521-.061.782-.094,2.335-.292,4.045-1.8,6.167-3.038,2.009-1.172,5.009-5.949,5.009-5.949l5.353.424s-2.809,4.267-3.9,6.122a6.477,6.477,0,0,0-.526,3.648A6.825,6.825,0,0,1,2163.944,1551.384Z" transform="translate(-2147.2 -1424.258)" fill="#ffb27d"/>
              <path id="Path_7060" data-name="Path 7060" d="M2158.4,1608.857c-2.743-.671-2.091.127-5.993-.305s-5.085-1.887-5.205-2.468c-.106-.515,1.822-.7,3.891-.935l.019.04a11.012,11.012,0,0,0,5.59,1.738c2.647.065,5.454-.694,7.281-.665a6.834,6.834,0,0,1-.042,1.832C2163.6,1609.814,2161.145,1609.527,2158.4,1608.857Z" transform="translate(-2147.2 -1480.967)" fill="#434343"/>
              <path id="Path_7061" data-name="Path 7061" d="M2298.706,1033.716s-1.275-3.125-2.677-3.252-5.866-.83-6.185-.192a4.413,4.413,0,0,0,.957,3.763c.956.83,6.887,2.168,6.887,2.168Z" transform="translate(-2270.052 -985.212)" fill="#ffb27d"/>
              <path id="Path_7062" data-name="Path 7062" d="M2417.13,1324.906l11.537,31.047a10.577,10.577,0,0,0,3.471-.317,14.923,14.923,0,0,0,3.355-1.634s-2.862-29.81-8.108-36.01S2417.13,1324.906,2417.13,1324.906Z" transform="translate(-2379.872 -1232.009)" fill="#262626"/>
              <path id="Path_7063" data-name="Path 7063" d="M2309.742,1230.315s-33.149-11.209-40.542-8.824-29.591,46.547-29.591,46.547a4.283,4.283,0,0,0,1.868,1.179,17.6,17.6,0,0,0,4.351.446s20.032-17.171,22.417-22.179,3.339-9.778,5.724-9.3,30.764,11.685,37.2,5.008,4.755-15.353,4.755-15.353Z" transform="translate(-2226.855 -1149.977)" fill="#656565"/>
              <path id="Path_7064" data-name="Path 7064" d="M2581.34,733.656a18.858,18.858,0,0,1-1.411-6.494c.044.344.642,4.708,2.319,7.179,6.895,4.526,20.108,19.639,19.846,22.5,0,0,4.655-7.894,4.735-7.941,0,0,8.585-10.918-1.59-17.172-5.172-3.179-5.146-7.258-4.929-10.8s-1.411-18.8-11.771-14.806a6.751,6.751,0,0,0-2.407-.628,2.025,2.025,0,0,1,.918.436,8.045,8.045,0,0,0-4.351.832C2578.9,708.92,2575.5,728.283,2581.34,733.656Z" transform="translate(-2518.709 -705.463)" fill="#434343"/>
              <path id="Path_7065" data-name="Path 7065" d="M2610.489,852.576c-.035.015,3.329,1.761,5.858,1.07,2.379-.649,3.934-3.734,3.9-3.74-1.008-.2-1.3-1.585-1.277-7.535l-.456.09-7.66,1.516s.174,2.41.179,4.682C2611.04,850.563,2610.924,852.372,2610.489,852.576Z" transform="translate(-2546.541 -823.473)" fill="#ffb27d"/>
              <path id="Path_7066" data-name="Path 7066" d="M2613.15,844.527s.174,2.41.179,4.682c4.286-.121,6.552-4.03,7.479-6.2Z" transform="translate(-2548.835 -824.025)" fill="#ed975d"/>
              <path id="Path_7067" data-name="Path 7067" d="M2591.473,738.687a22.539,22.539,0,0,0,2.786-6.584c.385-2.167-.719-10.2-8.79-9.041a10.966,10.966,0,0,0-4.548,1.719c-1.752,1.183-4.282,3.739-1.454,10.747l.734,2.367Z" transform="translate(-2518.707 -720.536)" fill="#2c3a64"/>
              <path id="Path_7068" data-name="Path 7068" d="M2581.686,762.721s10.141.167,10.148-6.149,1.321-10.549-5.154-10.923-7.735,2.034-8.25,4.144S2579.049,762.514,2581.686,762.721Z" transform="translate(-2518.803 -740.068)" fill="#ffb27d"/>
              <path id="Path_7069" data-name="Path 7069" d="M2605.5,735.152s2.777,7.411,7.038,8.507,6.11-.046,6.11-.046a40.582,40.582,0,0,1-2.238-8.345S2607.594,731.624,2605.5,735.152Z" transform="translate(-2542.242 -729.728)" fill="#434343"/>
              <path id="Path_7070" data-name="Path 7070" d="M2578.412,741.573a8.971,8.971,0,0,0-2.58,3.263c-.505,1.608-.733,4.921-1.7,4.808,0,0-2.092-5.038.26-7.887C2576.886,738.735,2578.412,741.573,2578.412,741.573Z" transform="translate(-2514.466 -735.547)" fill="#434343"/>
              <path id="Path_7071" data-name="Path 7071" d="M2508.277,926.876c1-4.195-2.4-12.333-5.955-19.071-3.223-6.108-6.569-11.062-6.868-10.884-8.5,5.045-9.268.85-9.268.85h0s-7.721,1.024-9.908,4.788c-2.712,4.67-5.641,17.717-8.552,20.187.448,1.368.255,2.1-.218,3.79q-.153.544-.337,1.035a19.9,19.9,0,0,1-1.461,3c1.48.9,4.336,2.609,6.441,1.379,3.208-1.877,5.712-7.594,7.121-9.87a.18.18,0,0,0,.016-.026c3.063,17.334-1.1,21.281,1.006,23.11,2.227,1.93,5.407-.919,12.4,2.113,4.588,1.99,10.957,4.868,15.242,5.369,2.249.264,3.926-.127,4.472-1.645C2514,946.591,2506.368,934.872,2508.277,926.876Z" transform="translate(-2421.746 -870.49)" fill="#c1c1c1"/>
              <path id="Path_7072" data-name="Path 7072" d="M2595.313,838.627s-.189.8-2.185.679c0,0-1.676-.1-1.625-.986A5.389,5.389,0,0,1,2595.313,838.627Z" transform="translate(-2530.175 -819.804)" fill="#fff"/>
              <path id="Path_7073" data-name="Path 7073" d="M2678.445,1067.828c-.547,1.518-2.225,1.909-4.472,1.646-2.967-1.293-15.784-6.258-15.64-9.622.212-4.981,2.464-5.14.875-11.289-1.277-4.937,10.566-14.116,12.454-16.112,3.552,6.739,3.649,7.057,2.65,11.251C2672.4,1051.7,2680.033,1063.417,2678.445,1067.828Z" transform="translate(-2587.781 -987.317)" fill="#9f9f9f"/>
              <path id="Path_7074" data-name="Path 7074" d="M2699.6,933.057a18.8,18.8,0,0,0-6.2-5.728c.359-.923-9.56-13.084-9.56-14.969,0-1.908-2.646-15.419-2.646-15.419s8.265.511,11.127,4.5C2695.9,906.434,2703.337,925.64,2699.6,933.057Z" transform="translate(-2607.492 -870.511)" fill="#c1c1c1"/>
              <path id="Path_7075" data-name="Path 7075" d="M2666.486,1117.1l-16.517,4.309,1.55,2.783s20.1-.141,21.164-1.364S2666.486,1117.1,2666.486,1117.1Z" transform="translate(-2580.573 -1060.282)" fill="#ffb27d"/>
              <path id="Path_7076" data-name="Path 7076" d="M2479.271,1079.24c-1.409,2.276-3.912,7.993-7.121,9.87-2.1,1.228-4.96-.48-6.44-1.379a19.891,19.891,0,0,0,1.461-3c1.18.271,2.621.616,3.55.9C2472.529,1086.173,2479.271,1079.24,2479.271,1079.24Z" transform="translate(-2421.746 -1027.648)" fill="#9f9f9f"/>
              <path id="Path_7077" data-name="Path 7077" d="M2579.087,1140.972s-5.187-1.467-6.423-1.125-5.469,3.146-4.872,3.906,4.324-.456,6.04-.225,3.042,1.077,4.279.894a14.409,14.409,0,0,0,2.528-.668Z" transform="translate(-2509.69 -1079.845)" fill="#ffb27d"/>
              <path id="Path_7078" data-name="Path 7078" d="M2626.674,1135.171a19.42,19.42,0,0,1-3.259-2.046.2.2,0,0,0-.315.036c-.193.3-.374.894.517,1.48A4.78,4.78,0,0,0,2626.674,1135.171Z" transform="translate(-2557.276 -1074.044)" fill="#ffb27d"/>
            </g>
          </g>
          <g id="Group_5824" data-name="Group 5824" transform="translate(7.535 42.071)">
            <path id="Path_7079" data-name="Path 7079" d="M2476.33,1189.148h24.2a1.929,1.929,0,0,0-1.928-1.928h-22.269v1.928Z" transform="translate(-2438.436 -1162.794)" fill="#777"/>
            <path id="Path_7080" data-name="Path 7080" d="M2243.2,1010.26H2205.79l8.973,26.354h37.654Z" transform="translate(-2205.238 -1010.26)" fill="#9a9a9a"/>
            <path id="Path_7081" data-name="Path 7081" d="M2201.79,1010.26l8.976,26.352h37.653l-9.216-26.352Z" transform="translate(-2201.79 -1010.26)" fill="#fff"/>
            <path id="Path_7082" data-name="Path 7082" d="M2347.626,1092.573a2.431,2.431,0,0,0,2.244,1.823,1.4,1.4,0,0,0,1.4-1.823,2.432,2.432,0,0,0-2.245-1.823A1.4,1.4,0,0,0,2347.626,1092.573Z" transform="translate(-2327.455 -1079.64)" fill="#afafaf"/>
            <path id="Path_7083" data-name="Path 7083" d="M2201.79,1010.26l8.975,26.352H2235.7c-16.518-5.638-20.915-22.828-21.652-26.352Z" transform="translate(-2201.79 -1010.26)" fill="#c4c4c4"/>
          </g>
        </g>
        <g id="Group_5827" data-name="Group 5827" transform="translate(108.692 72.485)">
          <g id="Group_5826" data-name="Group 5826">
            <path id="Path_7084" data-name="Path 7084" d="M2899.316,1307.183a.968.968,0,0,1-.959-.787l-4.7-26.633-6.759-38.3-1.889-10.711,4.814-.138.835,6.218,5.865,43.7,3.477,25.9A.678.678,0,0,1,2899.316,1307.183Z" transform="translate(-2885.01 -1230.61)" fill="#b9b9b9"/>
          </g>
          <path id="Path_7085" data-name="Path 7085" d="M2890.669,1236.838a6.91,6.91,0,0,0-3.76,4.631l-1.89-10.711,4.814-.138Z" transform="translate(-2885.019 -1230.619)" fill="#8f8f8f"/>
        </g>
        <g id="Group_5829" data-name="Group 5829" transform="translate(2.573 72.485)">
          <g id="Group_5828" data-name="Group 5828">
            <path id="Path_7086" data-name="Path 7086" d="M2116.881,1307.183a.965.965,0,0,0,.958-.787l4.7-26.633,6.76-38.3,1.889-10.711-4.815-.138-.834,6.218-5.865,43.7-3.477,25.9A.68.68,0,0,0,2116.881,1307.183Z" transform="translate(-2116.189 -1230.61)" fill="#b9b9b9"/>
          </g>
          <path id="Path_7087" data-name="Path 7087" d="M2183.91,1236.838a6.906,6.906,0,0,1,3.759,4.631l1.89-10.711-4.814-.138Z" transform="translate(-2174.563 -1230.619)" fill="#8f8f8f"/>
        </g>
        <path id="Path_7088" data-name="Path 7088" d="M2223.76,1209.56H2100.486a2.944,2.944,0,0,1-2.936-2.936v-2.539a2.944,2.944,0,0,1,2.936-2.936H2223.76a2.944,2.944,0,0,1,2.936,2.936v2.539A2.944,2.944,0,0,1,2223.76,1209.56Z" transform="translate(-2097.55 -1132.731)" fill="#b9b9b9"/>
      </g>
    </g>
  </g>
</svg>
