<svg xmlns="http://www.w3.org/2000/svg" width="23.28" height="23.28" viewBox="0 0 23.28 23.28">
  <path id="twitter" d="M11.64,0A11.64,11.64,0,1,0,23.28,11.64,11.641,11.641,0,0,0,11.64,0Zm5.315,9.076q.008.172.008.345a7.55,7.55,0,0,1-7.6,7.6h0a7.562,7.562,0,0,1-4.1-1.2,5.434,5.434,0,0,0,.637.037,5.361,5.361,0,0,0,3.318-1.144,2.675,2.675,0,0,1-2.5-1.856,2.663,2.663,0,0,0,1.207-.046A2.672,2.672,0,0,1,5.788,10.2c0-.012,0-.023,0-.034A2.653,2.653,0,0,0,7,10.5a2.674,2.674,0,0,1-.827-3.567A7.585,7.585,0,0,0,11.679,9.72a2.673,2.673,0,0,1,4.553-2.436,5.359,5.359,0,0,0,1.7-.648,2.682,2.682,0,0,1-1.175,1.478,5.329,5.329,0,0,0,1.534-.421,5.429,5.429,0,0,1-1.333,1.384Zm0,0" fill="#40394a" opacity="0.38"/>
</svg>
