<svg id="ui_1_" data-name="ui (1)" xmlns="http://www.w3.org/2000/svg" width="41.623" height="38.848" viewBox="0 0 41.623 38.848">
  <path id="Path_3812" data-name="Path 3812" d="M39.541,0H1.387A1.387,1.387,0,0,0,0,1.387V36.767a2.081,2.081,0,0,0,2.081,2.081h37.46a2.081,2.081,0,0,0,2.081-2.081V2.081A2.081,2.081,0,0,0,39.541,0Zm.694,36.767a.694.694,0,0,1-.694.694H2.081a.694.694,0,0,1-.694-.694V7.631H40.235Zm0-30.523H1.387V1.387H39.541a.694.694,0,0,1,.694.694Zm0,0"/>
  <path id="Path_3813" data-name="Path 3813" d="M51.469,24H48.694a.694.694,0,0,0-.694.694v2.081a.694.694,0,0,0,.694.694h2.775a.694.694,0,0,0,.694-.694V24.694A.694.694,0,0,0,51.469,24Zm-.694,2.081H49.387v-.694h1.387Zm0,0" transform="translate(-43.838 -21.919)"/>
  <path id="Path_3814" data-name="Path 3814" d="M131.469,24h-2.775a.694.694,0,0,0-.694.694v2.081a.694.694,0,0,0,.694.694h2.775a.694.694,0,0,0,.694-.694V24.694A.694.694,0,0,0,131.469,24Zm-.694,2.081h-1.387v-.694h1.387Zm0,0" transform="translate(-116.901 -21.919)"/>
  <path id="Path_3815" data-name="Path 3815" d="M211.469,24h-2.775a.694.694,0,0,0-.694.694v2.081a.694.694,0,0,0,.694.694h2.775a.694.694,0,0,0,.694-.694V24.694A.694.694,0,0,0,211.469,24Zm-.694,2.081h-1.387v-.694h1.387Zm0,0" transform="translate(-189.964 -21.919)"/>
  <path id="Path_3816" data-name="Path 3816" d="M35.1,244.046a.694.694,0,0,0-.361.788,8.27,8.27,0,0,0,.934,2.255.694.694,0,0,0,.813.3,1.371,1.371,0,0,1,1.742,1.742.694.694,0,0,0,.3.813,8.261,8.261,0,0,0,2.256.934.74.74,0,0,0,.168.02.694.694,0,0,0,.62-.382,1.373,1.373,0,0,1,2.465,0,.694.694,0,0,0,.788.361,8.259,8.259,0,0,0,2.256-.934.694.694,0,0,0,.3-.813,1.371,1.371,0,0,1,1.744-1.741.694.694,0,0,0,.813-.3,8.239,8.239,0,0,0,.934-2.255.694.694,0,0,0-.361-.788,1.373,1.373,0,0,1,0-2.467.694.694,0,0,0,.361-.788,8.269,8.269,0,0,0-.934-2.255.694.694,0,0,0-.813-.3,1.371,1.371,0,0,1-1.742-1.743.694.694,0,0,0-.3-.813,8.259,8.259,0,0,0-2.256-.934.694.694,0,0,0-.788.362,1.373,1.373,0,0,1-2.465,0,.694.694,0,0,0-.788-.362,8.259,8.259,0,0,0-2.256.934.694.694,0,0,0-.3.813,1.371,1.371,0,0,1-1.744,1.742.694.694,0,0,0-.813.3,8.274,8.274,0,0,0-.934,2.256.693.693,0,0,0,.361.788,1.373,1.373,0,0,1,0,2.467Zm1.12-3.384a6.969,6.969,0,0,1,.406-.98,2.756,2.756,0,0,0,3.047-3.047,6.728,6.728,0,0,1,.98-.405,2.758,2.758,0,0,0,4.309,0,6.728,6.728,0,0,1,.98.405,2.756,2.756,0,0,0,3.047,3.047,6.946,6.946,0,0,1,.409.98,2.755,2.755,0,0,0,0,4.308,6.874,6.874,0,0,1-.406.98A2.756,2.756,0,0,0,45.948,249a6.877,6.877,0,0,1-.98.406,2.757,2.757,0,0,0-4.309,0,6.788,6.788,0,0,1-.98-.405,2.756,2.756,0,0,0-3.05-3.051,6.968,6.968,0,0,1-.406-.98,2.755,2.755,0,0,0,0-4.308Zm0,0" transform="translate(-31.711 -214.37)"/>
  <path id="Path_3817" data-name="Path 3817" d="M84.162,288.325A4.162,4.162,0,1,0,80,284.162,4.162,4.162,0,0,0,84.162,288.325Zm0-6.937a2.775,2.775,0,1,1-2.775,2.775A2.775,2.775,0,0,1,84.162,281.387Zm0,0" transform="translate(-73.063 -255.72)"/>
  <path id="Path_3818" data-name="Path 3818" d="M264.324,120.649A8.325,8.325,0,1,0,256,112.325,8.324,8.324,0,0,0,264.324,120.649Zm0-15.262a6.937,6.937,0,1,1-6.937,6.937A6.937,6.937,0,0,1,264.324,105.387Zm0,0" transform="translate(-233.801 -94.982)"/>
  <path id="Path_3819" data-name="Path 3819" d="M105.387,145.387h10.406V144h-11.1a.694.694,0,0,0-.694.694v5.55h1.387Zm0,0" transform="translate(-94.982 -131.513)"/>
  <path id="Path_3820" data-name="Path 3820" d="M249.712,318.243H240v1.387h10.406a.694.694,0,0,0,.694-.694V312h-1.387Zm0,0" transform="translate(-219.189 -284.945)"/>
  <path id="Path_3821" data-name="Path 3821" d="M292.859,161.715a.694.694,0,0,0,.49-.2l6.243-6.243a.694.694,0,0,0,0-.981l-2.081-2.081a.694.694,0,0,0-.981,0l-3.672,3.672-1.591-1.591a.694.694,0,0,0-.981,0l-2.081,2.081a.694.694,0,0,0,0,.981l4.162,4.162A.694.694,0,0,0,292.859,161.715Zm-2.081-5.956,1.591,1.591a.694.694,0,0,0,.981,0l3.672-3.672,1.1,1.1-5.262,5.262-3.181-3.181Zm0,0" transform="translate(-263.029 -138.822)"/>
</svg>
