<svg id="capitol" xmlns="http://www.w3.org/2000/svg" width="56" height="56" viewBox="0 0 56 56">
  <path id="Path_5592" data-name="Path 5592" d="M54.042,399.523a.931.931,0,0,0,.93-.93v-3a.931.931,0,0,0-.93-.93H49.347a.931.931,0,0,0-.93.93v3a.931.931,0,0,0,.93.93ZM50.058,396.3H53.33v1.578H50.058Z" transform="translate(-43.121 -351.498)"/>
  <path id="Path_5593" data-name="Path 5593" d="M409.284,394.665h-4.695a.931.931,0,0,0-.93.93v3a.931.931,0,0,0,.93.93h4.695a.931.931,0,0,0,.93-.93v-3A.931.931,0,0,0,409.284,394.665Zm-.711,3.218H405.3v-1.578h3.273Z" transform="translate(-359.509 -351.498)"/>
  <path id="Path_5594" data-name="Path 5594" d="M.921,40.431v4.275a.82.82,0,1,0,1.641,0V40.432H14.584v8.445H13.9a.962.962,0,0,0-.961.961v1.78h-.714a.962.962,0,0,0-.961.961v1.78h-8.7V48.534a.82.82,0,0,0-1.641,0v6.5A.963.963,0,0,0,1.882,56H54.118a.963.963,0,0,0,.962-.962V40.431A.963.963,0,0,0,56,39.471v-4.12a.963.963,0,0,0-.962-.962H42.159v-.682a.987.987,0,0,0-.986-.986h-2.75V28.534a2.191,2.191,0,0,0-.067-4.08,10.385,10.385,0,0,0-4.743-8.043V13.88a1.874,1.874,0,0,0-1.872-1.872H31.6V8.173h.177a.82.82,0,1,0,0-1.641H31.6a3.606,3.606,0,0,0-2.777-3.38V.82a.82.82,0,0,0-1.641,0V3.152A3.606,3.606,0,0,0,24.4,6.533h-.179a.82.82,0,1,0,0,1.641H24.4v3.834H24.26a1.874,1.874,0,0,0-1.872,1.872v2.531a10.385,10.385,0,0,0-4.743,8.043,2.191,2.191,0,0,0-.056,4.085v4.183H14.827a.987.987,0,0,0-.986.986v.682H.962A.963.963,0,0,0,0,35.351v4.12a.963.963,0,0,0,.921.961Zm15.3-2.733h1.141v11.18H16.225Zm3.922,0v11.18H19.006V37.7Zm11.284,0v11.18H30.3V41.913a2.3,2.3,0,1,0-4.6,0v6.964h-1.13V37.7Zm5.563,0v11.18H35.853V37.7Zm-2.781,11.18H33.072V37.7h1.141Zm-6.873,0V41.913a.661.661,0,1,1,1.321,0v6.964Zm-4.411,0H21.788V37.7h1.141Zm-8.351,1.641H41.423v1.1H14.577ZM12.9,53.259H43.1v1.1H12.9Zm31.837,1.1v-1.78a.962.962,0,0,0-.961-.961h-.714v-1.78a.962.962,0,0,0-.961-.961h-.687v-2.26a.82.82,0,0,0-1.641,0v2.26H38.635V37.7h1.141v5.091a.82.82,0,0,0,1.641,0V40.432H53.439V54.359ZM54.359,36.03v2.761H41.416V37.667a.987.987,0,0,0,.743-.955V36.03h12.2ZM35.681,32.722V28.7h1.1v4.024Zm-2.742,0V28.7h1.1v4.024Zm-2.742,0V28.7h1.1v4.024Zm-2.742,0V28.7h1.1v4.024Zm-2.742,0V28.7h1.1v4.024Zm-2.742,0V28.7h1.1v4.024ZM28,4.7a1.961,1.961,0,0,1,1.955,1.834H26.045A1.961,1.961,0,0,1,28,4.7ZM26.041,8.173h3.917v3.834H28.82V9.882a.82.82,0,0,0-1.641,0v2.126H26.041ZM24.028,13.88a.232.232,0,0,1,.232-.232h7.481a.232.232,0,0,1,.232.232v1.669a10.379,10.379,0,0,0-7.944,0ZM28,16.4a8.75,8.75,0,0,1,8.7,7.917H24.979a.82.82,0,0,0,0,1.641H37.591a.55.55,0,1,1,0,1.1H18.409a.55.55,0,1,1,0-1.1h2.742a.82.82,0,1,0,0-1.641H19.3A8.75,8.75,0,0,1,28,16.4ZM19.229,28.7h1.1v4.024h-1.1Zm-3.747,5.664H40.518v1.695H15.482ZM1.641,36.03h12.2v.682a.987.987,0,0,0,.743.955v1.124H1.641Z" transform="translate(0 0)"/>
</svg>
