<svg id="Warehouse_Inventory_Management_" data-name="Warehouse/Inventory Management " xmlns="http://www.w3.org/2000/svg" xmlns:xlink="http://www.w3.org/1999/xlink" width="330.636" height="330.736" viewBox="0 0 330.636 330.736">
  <defs>
    <linearGradient id="linear-gradient" x1="-0.442" y1="-0.028" x2="-0.467" y2="-1.175" gradientUnits="objectBoundingBox">
      <stop offset="0" stop-color="#febbba"/>
      <stop offset="1" stop-color="#ff928e"/>
    </linearGradient>
    <linearGradient id="linear-gradient-2" x1="59.162" y1="-0.888" x2="57.921" y2="-0.108" xlink:href="#linear-gradient"/>
    <linearGradient id="linear-gradient-3" x1="253.959" y1="-3.859" x2="248.619" y2="-1.543" xlink:href="#linear-gradient"/>
    <linearGradient id="linear-gradient-4" x1="0.311" y1="-0.394" x2="0.746" y2="1.885" xlink:href="#linear-gradient"/>
    <linearGradient id="linear-gradient-5" x1="-0.165" y1="-3.58" x2="0.749" y2="2.625" xlink:href="#linear-gradient"/>
    <linearGradient id="linear-gradient-6" x1="-1.22" y1="1.603" x2="-0.185" y2="-1.187" xlink:href="#linear-gradient"/>
    <linearGradient id="linear-gradient-7" x1="0.848" y1="-0.083" x2="2.145" y2="-2.53" gradientUnits="objectBoundingBox">
      <stop offset="0" stop-color="#09005d"/>
      <stop offset="1" stop-color="#1a0f91"/>
    </linearGradient>
    <linearGradient id="linear-gradient-8" x1="0.367" y1="1.602" x2="1.401" y2="-1.187" xlink:href="#linear-gradient"/>
    <linearGradient id="linear-gradient-9" x1="0.075" y1="0.5" x2="1.075" y2="0.5" xlink:href="#linear-gradient-7"/>
    <linearGradient id="linear-gradient-10" x1="7.586" y1="1.129" x2="6.472" y2="1.91" xlink:href="#linear-gradient"/>
    <linearGradient id="linear-gradient-11" x1="9.029" y1="1.778" x2="9.576" y2="3.617" xlink:href="#linear-gradient"/>
    <linearGradient id="linear-gradient-12" x1="5.189" y1="1.119" x2="5.481" y2="1.661" xlink:href="#linear-gradient"/>
    <linearGradient id="linear-gradient-13" x1="159.329" y1="11.719" x2="158.186" y2="13.481" xlink:href="#linear-gradient"/>
    <linearGradient id="linear-gradient-14" x1="674.022" y1="435.931" x2="672.807" y2="437.691" gradientUnits="objectBoundingBox">
      <stop offset="0" stop-color="#8d55d1"/>
      <stop offset="0.996" stop-color="#1c2873"/>
    </linearGradient>
    <linearGradient id="linear-gradient-15" x1="129.339" y1="7.397" x2="127.788" y2="9.167" xlink:href="#linear-gradient"/>
    <linearGradient id="linear-gradient-16" x1="17.45" y1="3.36" x2="19.318" y2="1.411" xlink:href="#linear-gradient"/>
    <linearGradient id="linear-gradient-17" x1="-10.289" y1="-31.35" x2="-8.86" y2="-30.621" xlink:href="#linear-gradient"/>
    <linearGradient id="linear-gradient-18" x1="-43.091" y1="-100.505" x2="-37.047" y2="-98.196" xlink:href="#linear-gradient"/>
  </defs>
  <g id="Group_5788" data-name="Group 5788">
    <path id="Path_6801" data-name="Path 6801" d="M745.926,757.045a118.7,118.7,0,0,1-18.2,15.133c-59.379,42.066-129.639,29.8-144.571,26.81-22.05-4.422-64.674-12.969-95.489-48.75-46.621-54.133-39.361-139.42-3.2-195.718,6.615-10.3,41.555-67.453,112.572-76.62,42.979-5.548,93.078,5.641,129.359,35.653C802.554,576.551,797.133,703.819,745.926,757.045Z" transform="translate(-455.003 -473.937)" fill="#efefef"/>
    <g id="Group_5728" data-name="Group 5728" transform="translate(229.993)">
      <g id="Group_5726" data-name="Group 5726" transform="translate(9.993 33.37)">
        <path id="Path_6802" data-name="Path 6802" d="M2560.749,738.421a1.756,1.756,0,0,0-3.4.158c-3.418,17.319-13.806,62.454-33.289,87.506-31.722,40.79-49.959,104.4-25.2,134.656C2498.859,960.742,2617.817,929.021,2560.749,738.421Z" transform="translate(-2487.329 -737.171)" fill="#e6e6e6"/>
        <path id="Path_6803" data-name="Path 6803" d="M2691.35,952.472c0,.557-.042,1.017-.069,1.514l-.106,1.463-.244,2.919c-.177,1.945-.383,3.886-.589,5.827q-.641,5.82-1.412,11.627c-1.035,7.739-2.28,15.45-3.642,23.14s-2.916,15.347-4.642,22.966-3.576,15.212-5.666,22.743a374.921,374.921,0,0,1-15.13,44.365c-3.077,7.189-6.345,14.3-10.017,21.208a202.907,202.907,0,0,1-12.224,20,.308.308,0,0,1-.511-.342l0,0a226.943,226.943,0,0,0,11.6-20.244c3.54-6.928,6.676-14.054,9.62-21.253s5.593-14.521,8.076-21.894,4.656-14.851,6.789-22.337c4.2-14.993,7.6-30.2,10.58-45.494q2.211-11.474,3.975-23.03.9-5.774,1.673-11.568l.726-5.8.333-2.9.15-1.451c.042-.476.094-.987.113-1.405l0-.069a.3.3,0,0,1,.609.014Z" transform="translate(-2619.369 -926.779)" fill="#b9b9b9" opacity="0.43"/>
      </g>
      <g id="Group_5727" data-name="Group 5727">
        <path id="Path_6804" data-name="Path 6804" d="M2424.368,455.336a1.68,1.68,0,0,0-3.078,1.073c1.589,16.816,4.376,61.04-6.656,89.328C2396.67,591.8,2397.3,655.11,2428.26,676.1,2428.261,676.1,2528.7,614.558,2424.368,455.336Z" transform="translate(-2402.706 -454.574)" fill="#e6e6e6"/>
        <path id="Path_6805" data-name="Path 6805" d="M2621.244,652.57c.154.511.239.945.351,1.408l.3,1.37.573,2.744c.369,1.831.709,3.668,1.05,5.5q1,5.512,1.879,11.047c1.163,7.38,2.125,14.791,2.977,22.214s1.515,14.87,2.01,22.329.871,14.926,1.009,22.4a358.562,358.562,0,0,1-1.773,44.814c-.862,7.432-1.919,14.846-3.4,22.182a193.8,193.8,0,0,1-5.759,21.678.3.3,0,0,1-.573-.178v0a217.043,217.043,0,0,0,5.111-21.73c1.356-7.319,2.285-14.71,3.021-22.112s1.165-14.841,1.432-22.28.217-14.889.131-22.336c-.236-14.9-1.269-29.771-2.705-44.606q-1.1-11.124-2.635-22.2-.753-5.54-1.618-11.065l-.915-5.515-.485-2.751-.257-1.372c-.092-.448-.183-.932-.279-1.319l-.016-.065a.3.3,0,0,1,.575-.156Z" transform="translate(-2594.228 -629.002)" fill="#b9b9b9" opacity="0.43"/>
      </g>
    </g>
    <g id="Group_5737" data-name="Group 5737" transform="translate(1.474 1.374)">
      <g id="Group_5732" data-name="Group 5732" transform="translate(0 21.306)">
        <g id="Group_5729" data-name="Group 5729" transform="translate(26.804 34.838)" opacity="0.3">
          <path id="Path_6806" data-name="Path 6806" d="M821.1,941.684a1.212,1.212,0,0,1,1.363.881c.358,1.323.665,2.68.909,4.036a1.213,1.213,0,0,1-.978,1.41l-.024,0a1.213,1.213,0,0,1-1.386-.981c-.233-1.288-.524-2.578-.864-3.834a1.213,1.213,0,0,1,.854-1.488A1.235,1.235,0,0,1,821.1,941.684Zm1.607,10.447a1.146,1.146,0,0,1,.143-.014,1.213,1.213,0,0,1,1.264,1.161c.058,1.375.058,2.767,0,4.134a1.213,1.213,0,0,1-2.424-.1c.056-1.3.056-2.623,0-3.929A1.214,1.214,0,0,1,822.709,952.131Zm-.733,10.54a1.213,1.213,0,0,1,1.386,1.418c-.249,1.351-.56,2.708-.923,4.033a1.213,1.213,0,1,1-2.34-.642c.346-1.259.641-2.546.877-3.829A1.216,1.216,0,0,1,821.976,962.671ZM818.9,972.785a1.213,1.213,0,0,1,1.306,1.679c-.546,1.261-1.151,2.515-1.8,3.726a1.213,1.213,0,1,1-2.137-1.148c.618-1.149,1.194-2.339,1.711-3.539A1.214,1.214,0,0,1,818.9,972.785Zm-5.25,9.175a1.213,1.213,0,0,1,1.172,1.914c-.809,1.106-1.678,2.194-2.58,3.232a1.213,1.213,0,1,1-1.83-1.593c.858-.986,1.684-2.02,2.453-3.071A1.2,1.2,0,0,1,813.655,981.96Zm-7.149,7.784a1.213,1.213,0,0,1,.992,2.112c-1.036.9-2.123,1.77-3.232,2.581a1.213,1.213,0,1,1-1.432-1.959c1.053-.771,2.087-1.6,3.07-2.453A1.217,1.217,0,0,1,806.506,989.744Zm-43.428,9.938a1.221,1.221,0,0,1,.512.027c1.258.344,2.547.636,3.832.87a1.214,1.214,0,0,1-.436,2.388c-1.353-.247-2.712-.555-4.036-.916a1.213,1.213,0,0,1,.127-2.369Zm34.738-3.935a1.213,1.213,0,0,1,.766,2.267c-1.21.65-2.463,1.253-3.726,1.8a1.213,1.213,0,1,1-.959-2.229c1.2-.515,2.388-1.089,3.538-1.705A1.2,1.2,0,0,1,797.816,995.748Zm-24.293,5.55a1.279,1.279,0,0,1,.243-.015c1.3.053,2.626.051,3.931-.007a1.213,1.213,0,1,1,.107,2.424c-1.373.06-2.766.064-4.136.008a1.213,1.213,0,0,1-.145-2.41ZM788,999.659a1.213,1.213,0,0,1,.511,2.369c-1.324.361-2.681.669-4.033.918l-.026,0a1.213,1.213,0,0,1-.411-2.391c1.285-.235,2.573-.529,3.831-.871A1,1,0,0,1,788,999.659Z" transform="translate(-754.075 -941.668)" fill="#888"/>
          <path id="Path_6807" data-name="Path 6807" d="M695.491,1407.625a1.209,1.209,0,0,1,.717.1c.563.271,1.143.534,1.72.784a1.213,1.213,0,1,1-.96,2.228c-.608-.262-1.216-.538-1.81-.824a1.213,1.213,0,0,1,.333-2.292Z" transform="translate(-694.47 -1352.589)" fill="#bdd0fb"/>
        </g>
        <g id="Group_5730" data-name="Group 5730" opacity="0.3">
          <path id="Path_6808" data-name="Path 6808" d="M488.461,1172.555a1.212,1.212,0,0,1,1.344.817c.2.594.407,1.194.629,1.783a1.213,1.213,0,0,1-2.271.856c-.234-.62-.457-1.252-.662-1.876a1.213,1.213,0,0,1,.772-1.533A1.1,1.1,0,0,1,488.461,1172.555Z" transform="translate(-485.083 -1110.439)" fill="#bdd0fb"/>
          <path id="Path_6809" data-name="Path 6809" d="M508.141,647.265q.827-.133,1.664-.24a1.214,1.214,0,0,1,.306,2.408c-1.288.164-2.567.379-3.814.645a1.214,1.214,0,0,1-.5-2.375C506.564,647.54,507.354,647.392,508.141,647.265Zm8.059-.611a1.2,1.2,0,0,1,.207-.015c1.353.012,2.722.083,4.066.208a1.213,1.213,0,1,1-.227,2.415c-1.276-.119-2.577-.185-3.862-.2a1.213,1.213,0,0,1-.183-2.41Zm-16.546,2.8a1.213,1.213,0,0,1,.6,2.339c-1.206.435-2.409.927-3.577,1.464a1.213,1.213,0,1,1-1.013-2.2c1.23-.566,2.5-1.084,3.767-1.542A1.253,1.253,0,0,1,499.654,649.459Zm26.875-1.563a1.2,1.2,0,0,1,.47.018c1.317.309,2.636.679,3.92,1.1a1.213,1.213,0,0,1-.752,2.306c-1.22-.4-2.473-.749-3.723-1.042a1.214,1.214,0,0,1,.085-2.379Zm-36.2,6.151a1.214,1.214,0,0,1,.847,2.221c-1.08.688-2.146,1.435-3.168,2.214a1.213,1.213,0,0,1-1.473-1.928c1.076-.822,2.2-1.606,3.335-2.332A1.229,1.229,0,0,1,490.328,654.046Zm-8.1,6.523a1.213,1.213,0,0,1,1.054,2.052c-.906.912-1.784,1.872-2.61,2.854a1.213,1.213,0,1,1-1.857-1.561c.869-1.033,1.793-2.044,2.747-3A1.214,1.214,0,0,1,482.232,660.569Zm-6.479,8.134a1.213,1.213,0,0,1,1.219,1.846c-.686,1.088-1.334,2.215-1.926,3.354a1.214,1.214,0,1,1-2.154-1.119c.622-1.2,1.3-2.385,2.027-3.53A1.208,1.208,0,0,1,475.753,668.7Zm-4.552,9.352a1.213,1.213,0,0,1,1.334,1.606c-.432,1.21-.817,2.454-1.144,3.694a1.213,1.213,0,1,1-2.345-.619c.345-1.307.75-2.616,1.2-3.89A1.211,1.211,0,0,1,471.2,678.055Zm-2.389,10.127a1.217,1.217,0,0,1,1.4,1.344c-.154,1.273-.255,2.569-.3,3.853a1.214,1.214,0,1,1-2.425-.087c.048-1.352.156-2.717.318-4.056A1.211,1.211,0,0,1,468.812,688.182Zm-.105,10.4.074-.009a1.213,1.213,0,0,1,1.327,1.088c.093.941.217,1.891.367,2.822.054.338.113.673.175,1.007a1.213,1.213,0,0,1-.974,1.412,1.2,1.2,0,0,1-1.412-.973q-.1-.528-.183-1.06c-.158-.98-.288-1.979-.386-2.969A1.212,1.212,0,0,1,468.706,698.58Z" transform="translate(-467.484 -646.639)" fill="#676767"/>
          <path id="Path_6810" data-name="Path 6810" d="M1043.106,686.782a1.2,1.2,0,0,1,.723.106c.59.287,1.187.593,1.771.907a1.214,1.214,0,1,1-1.15,2.137c-.555-.3-1.121-.588-1.682-.861a1.214,1.214,0,0,1,.338-2.29Z" transform="translate(-974.233 -682.027)" fill="#bdd0fb"/>
        </g>
        <g id="Group_5731" data-name="Group 5731" transform="translate(11.931 12.305)">
          <path id="Path_6811" data-name="Path 6811" d="M626.09,757.445a.566.566,0,0,0-.654-.07l-6.015,3.384a30.048,30.048,0,0,0-9.2-3.192l-2.63-6.375a.568.568,0,0,0-.557-.349l-8.264.489a.566.566,0,0,0-.512.413l-1.859,6.641a30.044,30.044,0,0,0-8.761,4.256l-6.372-2.651a.566.566,0,0,0-.641.146l-5.5,6.189a.565.565,0,0,0-.07.654L578.439,773a30.077,30.077,0,0,0-3.192,9.2l-6.375,2.63a.567.567,0,0,0-.349.557l.489,8.264a.568.568,0,0,0,.413.513l6.641,1.859a30.046,30.046,0,0,0,4.256,8.761l-2.651,6.372a.566.566,0,0,0,.146.641l6.189,5.5a.567.567,0,0,0,.654.071l6.015-3.384a30.014,30.014,0,0,0,9.2,3.192l2.63,6.377a.568.568,0,0,0,.557.35l8.264-.489a.567.567,0,0,0,.513-.413l1.859-6.641a30.043,30.043,0,0,0,8.761-4.256l6.372,2.651a.566.566,0,0,0,.641-.146l5.5-6.189a.568.568,0,0,0,.071-.654l-3.384-6.015a30.077,30.077,0,0,0,3.192-9.2l6.377-2.63a.568.568,0,0,0,.35-.557l-.489-8.264a.566.566,0,0,0-.413-.513l-6.641-1.859a30.044,30.044,0,0,0-4.256-8.761l2.651-6.372a.566.566,0,0,0-.146-.641Z" transform="translate(-568.522 -750.842)" fill="#d2d2d2"/>
          <path id="Path_6812" data-name="Path 6812" d="M814.363,989.792a8.322,8.322,0,1,1-1.189.282A8.622,8.622,0,0,1,814.363,989.792Zm2.325,14.517a6.5,6.5,0,0,0,.921-.219,6.363,6.363,0,1,0-.921.219Z" transform="translate(-779.159 -961.483)" fill="#fff"/>
          <path id="Path_6813" data-name="Path 6813" d="M720.815,888.353q1.031-.166,2.09-.23h0q.333-.02.666-.028a20.575,20.575,0,0,1,3.272.172l.044.006.125.018.243.037a.486.486,0,0,1,.405.4.469.469,0,0,1,0,.152.486.486,0,0,1-.554.405,19.514,19.514,0,0,0-20.029,9.806,19.374,19.374,0,0,0-2.421,10.609,19.869,19.869,0,0,0,.22,1.993,19.491,19.491,0,1,0,35.343-14.124.485.485,0,0,1,.8-.547,20.384,20.384,0,0,1,3.287,8.251q.165,1.024.228,2.065a20.461,20.461,0,0,1-40.619,4.511c-.111-.688-.188-1.388-.23-2.092a20.465,20.465,0,0,1,17.128-21.4Z" transform="translate(-687.694 -871.88)" fill="#fff"/>
        </g>
      </g>
      <g id="Group_5736" data-name="Group 5736" transform="translate(70.28)">
        <g id="Group_5733" data-name="Group 5733" transform="translate(29.647 17.989)" opacity="0.3">
          <path id="Path_6814" data-name="Path 6814" d="M1560.35,618.558a.748.748,0,0,1,.795.417c.274.574.535,1.164.775,1.754a.749.749,0,1,1-1.389.564c-.228-.562-.477-1.124-.738-1.672a.749.749,0,0,1,.353-1A.758.758,0,0,1,1560.35,618.558Z" transform="translate(-1530.671 -618.549)" fill="#bdd0fb"/>
          <path id="Path_6815" data-name="Path 6815" d="M1345.394,664.349a.749.749,0,0,1,.842.546,32.366,32.366,0,0,1,.69,3.224c.037.228.071.456.1.686a.776.776,0,0,1-.639.847.751.751,0,0,1-.847-.638q-.046-.329-.1-.655c-.167-1.031-.389-2.065-.658-3.075a.748.748,0,0,1,.53-.917C1345.344,664.358,1345.369,664.354,1345.394,664.349Zm1.078,7.706a.647.647,0,0,1,.108-.009.75.75,0,0,1,.763.737,32.538,32.538,0,0,1-.176,3.984.749.749,0,0,1-1.49-.158,30.937,30.937,0,0,0,.168-3.8A.747.747,0,0,1,1346.472,672.055Zm-.824,7.736a.733.733,0,0,1,.291.011.75.75,0,0,1,.559.9,32.272,32.272,0,0,1-1.151,3.821.75.75,0,0,1-1.406-.52,30.673,30.673,0,0,0,1.1-3.644A.754.754,0,0,1,1345.648,679.791Zm-2.7,7.3a.743.743,0,0,1,.463.074.751.751,0,0,1,.321,1.011,32.571,32.571,0,0,1-2.05,3.422.749.749,0,1,1-1.235-.848,31.049,31.049,0,0,0,1.955-3.264A.747.747,0,0,1,1342.947,687.089Zm-4.4,6.417a.749.749,0,0,1,.681,1.236,32.745,32.745,0,0,1-2.819,2.82.75.75,0,0,1-.994-1.122,31.261,31.261,0,0,0,2.689-2.691A.756.756,0,0,1,1338.548,693.505Zm-5.824,5.153a.75.75,0,0,1,.544,1.358,32.351,32.351,0,0,1-3.421,2.048.749.749,0,0,1-.688-1.331,30.674,30.674,0,0,0,3.261-1.952A.727.727,0,0,1,1332.724,698.658Zm-6.906,3.572a.749.749,0,0,1,.378,1.443,32.65,32.65,0,0,1-3.82,1.147.75.75,0,0,1-.343-1.46,30.909,30.909,0,0,0,3.644-1.092A.779.779,0,0,1,1325.818,702.23Zm-11.47,1.948a.7.7,0,0,1,.132-.009,30.738,30.738,0,0,0,3.306-.126c.166-.014.331-.031.494-.048a.749.749,0,0,1,.162,1.49c-.174.019-.348.037-.523.051a32.386,32.386,0,0,1-3.463.131.749.749,0,0,1-.108-1.488Z" transform="translate(-1313.719 -658.932)" fill="#bdd0fb"/>
        </g>
        <g id="Group_5734" data-name="Group 5734" opacity="0.3">
          <path id="Path_6816" data-name="Path 6816" d="M1087.969,466.7a.749.749,0,0,1,.248,1.477,31.059,31.059,0,0,0-3.639.866.749.749,0,1,1-.435-1.434,32.533,32.533,0,0,1,3.817-.907Zm3.809-.432a.611.611,0,0,1,.081-.008,32.712,32.712,0,0,1,3.924.027.749.749,0,1,1-.1,1.495,31.185,31.185,0,0,0-3.744-.026.749.749,0,0,1-.162-1.488Zm-11.132,2.652a.75.75,0,0,1,.423,1.425,30.937,30.937,0,0,0-3.324,1.722.75.75,0,0,1-.769-1.287,32.4,32.4,0,0,1,3.485-1.8A.694.694,0,0,1,1080.647,468.916Zm18.769-2.134a.775.775,0,0,1,.261,0,32.163,32.163,0,0,1,3.8.974.749.749,0,1,1-.46,1.426,30.918,30.918,0,0,0-3.626-.929.749.749,0,0,1,.022-1.475Zm-25.337,6.058a.75.75,0,0,1,.58,1.332,30.656,30.656,0,0,0-2.812,2.469.75.75,0,1,1-1.056-1.065,32.474,32.474,0,0,1,2.949-2.588A.736.736,0,0,1,1074.079,472.84Zm-5.434,5.385a.749.749,0,0,1,.707,1.2,31.11,31.11,0,0,0-2.141,3.07.749.749,0,1,1-1.278-.781,32.751,32.751,0,0,1,2.244-3.219A.741.741,0,0,1,1068.645,478.225Zm-3.989,6.532a.75.75,0,0,1,.8,1.051,30.61,30.61,0,0,0-1.341,3.494.749.749,0,0,1-1.429-.451,32.4,32.4,0,0,1,1.406-3.665A.749.749,0,0,1,1064.656,484.757Z" transform="translate(-1062.652 -466.21)" fill="#fff"/>
          <path id="Path_6817" data-name="Path 6817" d="M1431.247,490.991a.754.754,0,0,1,.435.06c.582.27,1.158.559,1.713.857a.75.75,0,1,1-.711,1.32c-.529-.285-1.079-.561-1.634-.818a.749.749,0,0,1,.2-1.419Z" transform="translate(-1387.165 -488.056)" fill="#bdd0fb"/>
        </g>
        <g id="Group_5735" data-name="Group 5735" transform="translate(6.487 8.171)">
          <path id="Path_6818" data-name="Path 6818" d="M1156.108,539.824a.38.38,0,0,0-.438-.047l-4.024,2.265a20.135,20.135,0,0,0-6.157-2.136l-1.759-4.266a.378.378,0,0,0-.373-.234l-5.53.327a.378.378,0,0,0-.342.276l-1.245,4.445a20.162,20.162,0,0,0-5.863,2.847l-4.264-1.774a.38.38,0,0,0-.43.1L1122,545.766a.381.381,0,0,0-.047.438l2.265,4.024a20.1,20.1,0,0,0-2.136,6.158l-4.266,1.759a.379.379,0,0,0-.234.373l.327,5.53a.377.377,0,0,0,.276.342l4.445,1.245a20.112,20.112,0,0,0,2.847,5.863l-1.774,4.264a.38.38,0,0,0,.1.43l4.141,3.678a.38.38,0,0,0,.438.047l4.024-2.265a20.1,20.1,0,0,0,6.157,2.136l1.759,4.266a.379.379,0,0,0,.373.234l5.53-.327a.378.378,0,0,0,.342-.276l1.245-4.445a20.144,20.144,0,0,0,5.863-2.847l4.264,1.774a.38.38,0,0,0,.43-.1l3.678-4.141a.38.38,0,0,0,.047-.438l-2.264-4.024a20.1,20.1,0,0,0,2.136-6.158l4.266-1.759a.379.379,0,0,0,.234-.373l-.327-5.53a.379.379,0,0,0-.276-.343l-4.445-1.245a20.13,20.13,0,0,0-2.847-5.863l1.774-4.264a.38.38,0,0,0-.1-.43Z" transform="translate(-1117.584 -535.404)" fill="#d2d2d2"/>
          <path id="Path_6819" data-name="Path 6819" d="M1281.338,694.451a5.676,5.676,0,1,1-.816.194A5.631,5.631,0,0,1,1281.338,694.451Zm1.554,9.715a4.17,4.17,0,1,0-1.92-8.092h0a4.17,4.17,0,0,0,1.92,8.092Z" transform="translate(-1257.788 -675.607)" fill="#bdd0fb" opacity="0.56"/>
          <path id="Path_6820" data-name="Path 6820" d="M1216.277,623.841q.7-.113,1.426-.157a14.264,14.264,0,0,1,2.874.12l.127.019a.749.749,0,1,1-.229,1.481,12.657,12.657,0,0,0-2.683-.125h0l-.148.009a12.5,12.5,0,0,0-5.871,1.927,12.637,12.637,0,0,0-2.593,2.194l-.019.021-.057.064a12.539,12.539,0,0,0-3.162,9.124,12.926,12.926,0,0,0,.142,1.291,12.618,12.618,0,0,0,25.048-2.782,12.36,12.36,0,0,0-.141-1.274,12.578,12.578,0,0,0-2.027-5.087.749.749,0,0,1,1.237-.845,14.065,14.065,0,0,1,2.268,5.692,14.333,14.333,0,0,1,.157,1.425,14.117,14.117,0,0,1-28.024,3.112q-.115-.712-.159-1.443A14.137,14.137,0,0,1,1216.277,623.841Z" transform="translate(-1194.166 -613.238)" fill="#fff"/>
        </g>
      </g>
    </g>
    <g id="Group_5738" data-name="Group 5738" transform="translate(0.395 83.611)">
      <path id="Path_6821" data-name="Path 6821" d="M1546.606,2577.16l-6.656,59.7h77.224l-10.058-59.7Z" transform="translate(-1412.23 -2410.127)" fill="#ccc"/>
      <path id="Path_6822" data-name="Path 6822" d="M458.35,1178.326v140.686a21.341,21.341,0,0,0,20.792,21.336c51.386,1.325,231.106,4.538,280.023,3.816a15.7,15.7,0,0,0,15.461-15.256c.943-32.683,2.475-111.276-3.194-147.764a16.159,16.159,0,0,0-15.451-13.678c-43.055-1.377-233.571-5.751-282.464-4.653A15.514,15.514,0,0,0,458.35,1178.326Z" transform="translate(-458.35 -1162.638)" fill="#d1d1d1"/>
      <path id="Path_6823" data-name="Path 6823" d="M533.1,1218.48v133.662a12.366,12.366,0,0,0,12.18,12.365l272.769,3.37a12.035,12.035,0,0,0,12.215-11.988l.456-132.467a8.8,8.8,0,0,0-8.587-8.831l-279.265-5.642A9.535,9.535,0,0,0,533.1,1218.48Z" transform="translate(-524.273 -1203.477)" fill="#fff"/>
      <path id="Path_6824" data-name="Path 6824" d="M829.045,2557.125h-.007l-299.218-5.1a.439.439,0,0,1,.014-.877l299.218,5.1a.439.439,0,0,1-.007.877Z" transform="translate(-521.001 -2387.188)" fill="#b2b2b2"/>
      <path id="Path_6825" data-name="Path 6825" d="M1454.256,3061.167H1341.233c-3.07,0-5.376-2.186-4.782-4.533l1.45-5.735c.436-1.725,2.333-2.991,4.588-3.062l108.958-3.4c2.355-.073,4.44,1.176,4.952,2.969l2.614,9.135C1459.693,3058.914,1457.376,3061.167,1454.256,3061.167Z" transform="translate(-1232.678 -2822.223)" fill="#b9b9b9"/>
    </g>
    <g id="Group_5742" data-name="Group 5742" transform="translate(52.573 201.376)">
      <path id="Path_6826" data-name="Path 6826" d="M950.493,2304.1l-48.831-.078a1.389,1.389,0,0,1-1.442-1.324v-3.107a1.376,1.376,0,0,1,1.442-1.313l48.831.274a1.319,1.319,0,0,1,1.343,1.281v2.995A1.308,1.308,0,0,1,950.493,2304.1Z" transform="translate(-900.22 -2281.943)" fill="#fff"/>
      <path id="Path_6827" data-name="Path 6827" d="M928.46,2356.83l4.2,15.4a2.319,2.319,0,0,0,2.307,1.634l32.507-.365a2.275,2.275,0,0,0,2.2-1.643l3.959-14.99Zm12.051,14.494a1.168,1.168,0,0,1-1.2,1.118l-1.141.012a1.143,1.143,0,0,1-1.2-1.1v-11.932a1.157,1.157,0,0,1,1.2-1.109h1.141a1.154,1.154,0,0,1,1.2,1.105Zm6.343-.06a1.16,1.16,0,0,1-1.186,1.114l-1.131.012a1.134,1.134,0,0,1-1.189-1.091v-11.879a1.149,1.149,0,0,1,1.189-1.1h1.131a1.146,1.146,0,0,1,1.186,1.1Zm6.288-.06a1.152,1.152,0,0,1-1.175,1.109l-1.121.012a1.126,1.126,0,0,1-1.179-1.086v-11.826a1.141,1.141,0,0,1,1.179-1.1h1.121a1.137,1.137,0,0,1,1.175,1.1Zm6.231-.059a1.143,1.143,0,0,1-1.164,1.1l-1.111.012a1.119,1.119,0,0,1-1.168-1.082V2359.4a1.133,1.133,0,0,1,1.168-1.094h1.111a1.129,1.129,0,0,1,1.164,1.091Zm6.176-.058a1.134,1.134,0,0,1-1.154,1.1l-1.1.012a1.111,1.111,0,0,1-1.157-1.077V2359.4a1.127,1.127,0,0,1,1.157-1.09h1.1a1.121,1.121,0,0,1,1.154,1.086Z" transform="translate(-925.125 -2333.579)" fill="#fff"/>
      <g id="Group_5741" data-name="Group 5741" transform="translate(5.865)">
        <g id="Group_5739" data-name="Group 5739">
          <path id="Path_6828" data-name="Path 6828" d="M952.841,2263.8a1.9,1.9,0,0,1-2.516-.176,1.55,1.55,0,0,1,.174-2.317,1.893,1.893,0,0,1,2.515.18A1.55,1.55,0,0,1,952.841,2263.8Z" transform="translate(-949.884 -2248.987)" fill="#fff"/>
          <path id="Path_6829" data-name="Path 6829" d="M980.842,2160.111a.861.861,0,0,0-1.13.065l-15.462,12.278c-.388.308-.5.775-.249,1.041a.889.889,0,0,0,1.155-.076l15.442-12.281C980.978,2160.836,981.086,2160.377,980.842,2160.111Z" transform="translate(-962.216 -2159.929)" fill="#fff"/>
        </g>
        <g id="Group_5740" data-name="Group 5740" transform="translate(22.073 0.078)">
          <path id="Path_6830" data-name="Path 6830" d="M1262.723,2266.424a1.758,1.758,0,0,0,2.388-.139,1.54,1.54,0,0,0-.164-2.255,1.76,1.76,0,0,0-2.388.135A1.54,1.54,0,0,0,1262.723,2266.424Z" transform="translate(-1247.342 -2251.459)" fill="#fff"/>
          <path id="Path_6831" data-name="Path 6831" d="M1136.944,2160.752a.86.86,0,0,1,1.123.1l15,12.48c.369.306.475.762.236,1.018a.832.832,0,0,1-1.1-.091l-15.023-12.478C1136.809,2161.471,1136.7,2161.009,1136.944,2160.752Z" transform="translate(-1136.814 -2160.587)" fill="#fff"/>
        </g>
      </g>
    </g>
    <g id="Group_5752" data-name="Group 5752" transform="translate(240.501 106.148)">
      <circle id="Ellipse_298" data-name="Ellipse 298" cx="25.191" cy="25.191" r="25.191" fill="#e1e1e1"/>
      <g id="Group_5751" data-name="Group 5751" transform="translate(7.788 9.203)">
        <path id="Path_6832" data-name="Path 6832" d="M2575.227,1464.061q-.42,0-.841-.019c-9.617-.424-17.12-8.08-16.727-17.068a15.687,15.687,0,0,1,5.643-11.329,17.99,17.99,0,0,1,12.51-4.2c9.617.424,17.12,8.081,16.727,17.068h0a15.687,15.687,0,0,1-5.643,11.329A17.924,17.924,0,0,1,2575.227,1464.061Zm-.254-30.337a15.618,15.618,0,0,0-10.178,3.672,13.411,13.411,0,0,0-4.837,9.677c-.338,7.72,6.18,14.3,14.529,14.67a15.7,15.7,0,0,0,10.917-3.657,13.412,13.412,0,0,0,4.837-9.678c.338-7.72-6.181-14.3-14.53-14.67C2575.464,1433.73,2575.218,1433.724,2574.973,1433.724Z" transform="translate(-2557.645 -1431.425)" fill="#7e7e7e"/>
        <g id="Group_5750" data-name="Group 5750" transform="translate(2.235 1.154)">
          <g id="Group_5743" data-name="Group 5743" transform="translate(10.652 0.085)">
            <path id="Path_6833" data-name="Path 6833" d="M2678.412,1460a45.879,45.879,0,0,1-.656,7.992c-.119.659-.256,1.314-.42,1.964a18.494,18.494,0,0,1-.588,1.921,9.221,9.221,0,0,1-.876,1.811,3.658,3.658,0,0,1-.658.771,1.871,1.871,0,0,1-.431.279,1.255,1.255,0,0,1-1.011.026,1.76,1.76,0,0,1-.44-.263,3.415,3.415,0,0,1-.672-.758,8.8,8.8,0,0,1-.889-1.8,18.461,18.461,0,0,1-.594-1.92c-.165-.648-.3-1.3-.425-1.963-.24-1.318-.4-2.647-.512-3.981s-.164-2.672-.171-4.01c0-.669.015-1.338.039-2.006s.061-1.337.111-2c.1-1.334.246-2.665.465-3.986.11-.66.239-1.317.392-1.968a19.272,19.272,0,0,1,.556-1.929c.112-.315.234-.628.373-.933a6.912,6.912,0,0,1,.478-.885,3.252,3.252,0,0,1,.658-.763,1.681,1.681,0,0,1,.434-.261,1.214,1.214,0,0,1,.5-.089,1.321,1.321,0,0,1,.493.116,1.911,1.911,0,0,1,.43.27,3.694,3.694,0,0,1,.672.75,9.005,9.005,0,0,1,.921,1.784,18.453,18.453,0,0,1,.632,1.906c.178.646.328,1.3.458,1.954A42.109,42.109,0,0,1,2678.412,1460Zm-.2,0q0-2-.158-3.994a38.52,38.52,0,0,0-.52-3.962c-.123-.654-.266-1.306-.436-1.949a18.233,18.233,0,0,0-.607-1.9,8.9,8.9,0,0,0-.893-1.776,3.611,3.611,0,0,0-.649-.743,1.834,1.834,0,0,0-.412-.264,1.233,1.233,0,0,0-.47-.116,1.149,1.149,0,0,0-.475.09,1.56,1.56,0,0,0-.415.256,3.185,3.185,0,0,0-.634.753,6.753,6.753,0,0,0-.463.88c-.135.3-.253.614-.36.929a19.036,19.036,0,0,0-.533,1.924c-.146.649-.267,1.3-.368,1.964-.2,1.316-.337,2.645-.419,3.975s-.113,2.664-.111,4,.042,2.665.139,3.995.251,2.655.479,3.966c.115.657.248,1.309.407,1.954a18.4,18.4,0,0,0,.575,1.91,8.7,8.7,0,0,0,.862,1.785,3.32,3.32,0,0,0,.643.738,1.67,1.67,0,0,0,.411.25,1.124,1.124,0,0,0,.465.089,1.166,1.166,0,0,0,.461-.114,1.772,1.772,0,0,0,.4-.266,3.521,3.521,0,0,0,.631-.751,8.976,8.976,0,0,0,.849-1.792,18.587,18.587,0,0,0,.568-1.912c.158-.646.291-1.3.4-1.956.227-1.313.377-2.638.477-3.968S2678.215,1461.335,2678.215,1460Z" transform="translate(-2669.678 -1444.85)" fill="#7e7e7e"/>
            <path id="Path_6834" data-name="Path 6834" d="M2671.34,1472.319a1.668,1.668,0,0,1-.615-.123,2.133,2.133,0,0,1-.537-.32,3.718,3.718,0,0,1-.751-.844,9.1,9.1,0,0,1-.932-1.886,18.827,18.827,0,0,1-.607-1.961c-.161-.626-.3-1.276-.431-1.99-.229-1.264-.4-2.577-.517-4.018-.107-1.31-.166-2.669-.172-4.04,0-.717.018-1.424.039-2.021.026-.68.063-1.359.112-2.018.107-1.449.259-2.764.468-4.021.12-.716.25-1.369.4-2a19.294,19.294,0,0,1,.568-1.969c.126-.358.253-.674.388-.966a7.3,7.3,0,0,1,.505-.935,3.635,3.635,0,0,1,.738-.853,2.015,2.015,0,0,1,.538-.321,1.61,1.61,0,0,1,.656-.116,1.676,1.676,0,0,1,.635.149,2.3,2.3,0,0,1,.517.322,4,4,0,0,1,.746.829,9.317,9.317,0,0,1,.963,1.862,18.865,18.865,0,0,1,.646,1.947c.173.628.325,1.276.465,1.983a42.119,42.119,0,0,1,.74,8.058h0a46.038,46.038,0,0,1-.663,8.06c-.129.712-.268,1.364-.426,1.991a19.067,19.067,0,0,1-.6,1.961,9.437,9.437,0,0,1-.917,1.889,3.924,3.924,0,0,1-.732.854,2.318,2.318,0,0,1-.521.336,1.66,1.66,0,0,1-.657.154Zm-.2-29.56a.761.761,0,0,0-.294.06,1.239,1.239,0,0,0-.315.2,2.8,2.8,0,0,0-.555.662,6.317,6.317,0,0,0-.435.828c-.119.269-.234.563-.348.9a18.34,18.34,0,0,0-.521,1.882c-.137.608-.256,1.242-.364,1.938-.191,1.233-.327,2.521-.416,3.939-.077,1.213-.113,2.512-.111,3.971,0,1.347.042,2.682.138,3.967.1,1.41.261,2.7.475,3.929.12.69.251,1.32.4,1.928a17.922,17.922,0,0,0,.562,1.868,8.277,8.277,0,0,0,.822,1.705,2.877,2.877,0,0,0,.564.651,1.266,1.266,0,0,0,.313.192.843.843,0,0,0,.307.061.779.779,0,0,0,.312-.078,1.381,1.381,0,0,0,.313-.208,3.088,3.088,0,0,0,.558-.667,8.565,8.565,0,0,0,.81-1.712,17.979,17.979,0,0,0,.555-1.87c.148-.6.278-1.235.4-1.93.21-1.222.365-2.508.473-3.93.1-1.282.147-2.617.146-3.966h0c0-1.345-.05-2.677-.157-3.962a37.919,37.919,0,0,0-.514-3.923c-.127-.684-.268-1.312-.429-1.922a17.864,17.864,0,0,0-.594-1.86,8.568,8.568,0,0,0-.852-1.7,3.218,3.218,0,0,0-.576-.661,1.493,1.493,0,0,0-.325-.21.82.82,0,0,0-.319-.08A.055.055,0,0,1,2671.137,1442.759Z" transform="translate(-2666.777 -1441.921)" fill="#7e7e7e"/>
          </g>
          <g id="Group_5744" data-name="Group 5744" transform="translate(3.071)">
            <path id="Path_6835" data-name="Path 6835" d="M2628.5,1459.365a19.569,19.569,0,0,1-.689,5.107,16.481,16.481,0,0,1-2.128,4.683,13.453,13.453,0,0,1-1.626,2,11.31,11.31,0,0,1-2,1.617,9.676,9.676,0,0,1-2.334,1.072,8.689,8.689,0,0,1-5.077,0,9.642,9.642,0,0,1-2.337-1.07,11.414,11.414,0,0,1-2-1.615,13.5,13.5,0,0,1-1.628-2,16.494,16.494,0,0,1-2.134-4.684,18.675,18.675,0,0,1-.517-2.532,19.1,19.1,0,0,1,0-5.158,18.682,18.682,0,0,1,.518-2.532,16.489,16.489,0,0,1,2.137-4.682,13.486,13.486,0,0,1,1.628-2,11.388,11.388,0,0,1,2-1.613,9.681,9.681,0,0,1,2.335-1.066,8.639,8.639,0,0,1,5.069,0,9.675,9.675,0,0,1,2.333,1.068,11.383,11.383,0,0,1,2,1.614,13.458,13.458,0,0,1,1.626,2,16.46,16.46,0,0,1,2.132,4.68A19.583,19.583,0,0,1,2628.5,1459.365Zm-.225,0a19.354,19.354,0,0,0-.661-5.052,16.405,16.405,0,0,0-2.061-4.651,13.238,13.238,0,0,0-1.589-1.992,11.082,11.082,0,0,0-1.965-1.618,9.478,9.478,0,0,0-2.3-1.07,8.42,8.42,0,0,0-5.019,0,9.469,9.469,0,0,0-2.3,1.071,11.117,11.117,0,0,0-1.963,1.619,13.358,13.358,0,0,0-1.586,1.993,16.382,16.382,0,0,0-2.055,4.649,18.566,18.566,0,0,0-.494,2.5,19.524,19.524,0,0,0,0,5.091,18.632,18.632,0,0,0,.5,2.5,16.369,16.369,0,0,0,2.058,4.647,13.362,13.362,0,0,0,1.586,1.991,11.065,11.065,0,0,0,1.963,1.616,9.484,9.484,0,0,0,2.3,1.068,8.367,8.367,0,0,0,5.01,0,9.518,9.518,0,0,0,2.3-1.066,11.148,11.148,0,0,0,1.965-1.614,13.382,13.382,0,0,0,1.59-1.99,16.428,16.428,0,0,0,2.064-4.648A19.508,19.508,0,0,0,2628.274,1459.365Z" transform="translate(-2605.464 -1444.128)" fill="#7e7e7e"/>
            <path id="Path_6836" data-name="Path 6836" d="M2614.3,1471.683a9.145,9.145,0,0,1-2.651-.394,9.978,9.978,0,0,1-2.43-1.114,11.818,11.818,0,0,1-2.073-1.671,13.916,13.916,0,0,1-1.676-2.056,16.864,16.864,0,0,1-2.186-4.8,19.088,19.088,0,0,1-.528-2.587,19.486,19.486,0,0,1,0-5.261,19.058,19.058,0,0,1,.529-2.585,16.84,16.84,0,0,1,2.189-4.794,13.8,13.8,0,0,1,1.677-2.054,11.828,11.828,0,0,1,2.073-1.668,10.015,10.015,0,0,1,2.429-1.109,9.028,9.028,0,0,1,5.294,0,10.034,10.034,0,0,1,2.427,1.11,11.772,11.772,0,0,1,2.07,1.67,13.847,13.847,0,0,1,1.673,2.054,16.808,16.808,0,0,1,2.182,4.791,19.941,19.941,0,0,1,.707,5.21v0a19.875,19.875,0,0,1-.7,5.209,16.8,16.8,0,0,1-2.18,4.8,13.916,13.916,0,0,1-1.673,2.056,11.809,11.809,0,0,1-2.07,1.672,10.025,10.025,0,0,1-2.43,1.115A9.085,9.085,0,0,1,2614.3,1471.683Zm0-29.62a8.307,8.307,0,0,0-2.395.366,9.079,9.079,0,0,0-2.209,1.029,10.712,10.712,0,0,0-1.893,1.562,12.94,12.94,0,0,0-1.539,1.935,15.931,15.931,0,0,0-2,4.538,18.591,18.591,0,0,0-.484,2.449,19.113,19.113,0,0,0,0,4.99,18.5,18.5,0,0,0,.485,2.449,15.922,15.922,0,0,0,2.009,4.534,12.923,12.923,0,0,0,1.539,1.933,10.733,10.733,0,0,0,1.893,1.56,9.16,9.16,0,0,0,2.206,1.024,7.975,7.975,0,0,0,4.784,0,9.136,9.136,0,0,0,2.209-1.023,10.747,10.747,0,0,0,1.894-1.557,12.98,12.98,0,0,0,1.542-1.932,15.961,15.961,0,0,0,2.013-4.537,19.191,19.191,0,0,0,0-9.9,15.952,15.952,0,0,0-2.011-4.539,12.937,12.937,0,0,0-1.542-1.934,10.767,10.767,0,0,0-1.9-1.561,9.049,9.049,0,0,0-2.209-1.025A8.2,8.2,0,0,0,2614.3,1442.063Z" transform="translate(-2602.58 -1441.2)" fill="#7e7e7e"/>
          </g>
          <g id="Group_5745" data-name="Group 5745" transform="translate(1.182 8.913)">
            <path id="Path_6837" data-name="Path 6837" d="M2589.883,1520.036l3.4-.027,3.4-.015,6.8-.013,6.8.014,3.4.017,3.4.03a.01.01,0,0,1,.01.011s0,.009-.01.009l-3.4.03-3.4.016-6.8.014-6.8-.013-3.4-.015-3.4-.027a.021.021,0,0,1-.014-.007C2589.868,1520.043,2589.875,1520.036,2589.883,1520.036Z" transform="translate(-2589.481 -1519.59)" fill="#7e7e7e"/>
            <path id="Path_6838" data-name="Path 6838" d="M2600.578,1517.6l-10.2-.028-3.561-.029-.237-.238v-.175l.008-.38.391-.015,6.8-.044,6.8-.012,10.2.031,3.786.033.01.786-.4.009-6.8.047Z" transform="translate(-2586.58 -1516.68)" fill="#7e7e7e"/>
          </g>
          <g id="Group_5746" data-name="Group 5746" transform="translate(5.123 3.2)">
            <path id="Path_6839" data-name="Path 6839" d="M2623.273,1471.646c.8-.013,1.608-.018,2.413-.027l2.412-.015c.8-.007,1.608-.006,2.414-.008l2.413,0,4.826.014,2.412.018c.8.011,1.608.017,2.412.03a.013.013,0,0,1,.01,0c0,.011,0,.016-.01.016-.8.014-1.608.02-2.412.029l-2.412.016-4.826.014-2.413,0c-.8,0-1.608,0-2.414-.008l-2.412-.015c-.8-.009-1.608-.014-2.413-.027a.015.015,0,0,1-.014-.015A.014.014,0,0,1,2623.273,1471.646Z" transform="translate(-2622.868 -1471.202)" fill="#7e7e7e"/>
            <path id="Path_6840" data-name="Path 6840" d="M2630.008,1469.22l-3.041-.006c-.6,0-1.194,0-1.79-.007l-3.218-.023c-.537-.006-1.075-.011-1.611-.019l-.383-.006-.015-.789.4-.014c.52-.008,1.039-.013,1.56-.019l3.27-.025q.849-.007,1.7-.006l3.128-.006,8.121.041c.512.006,1.025.011,1.539.02l.4.007-.018.783-.385.01c-.53.009-1.067.015-1.6.02l-3.219.026Z" transform="translate(-2619.95 -1468.3)" fill="#7e7e7e"/>
          </g>
          <g id="Group_5747" data-name="Group 5747" transform="translate(0 14.627)">
            <path id="Path_6841" data-name="Path 6841" d="M2579.883,1568.436l3.694-.027,3.694-.015,7.387-.013,7.387.014,3.694.018,3.694.03a.01.01,0,0,1,.01.01s0,.01-.01.01l-3.694.03-3.694.017-7.387.014-7.387-.013-3.694-.015-3.694-.027a.014.014,0,0,1-.014-.015A.013.013,0,0,1,2579.883,1568.436Z" transform="translate(-2579.479 -1567.989)" fill="#7e7e7e"/>
            <path id="Path_6842" data-name="Path 6842" d="M2591.75,1565.991l-11.085-.028-4.08-.031-.015-.791.4-.015,7.39-.043,7.389-.013,11.083.031,3.859.032.234.239-.016.549-.385.01-7.386.047Z" transform="translate(-2576.57 -1565.07)" fill="#7e7e7e"/>
          </g>
          <g id="Group_5748" data-name="Group 5748" transform="translate(1.182 20.342)">
            <path id="Path_6843" data-name="Path 6843" d="M2589.883,1616.826l3.4-.027,3.4-.016,6.8-.013,6.8.014,3.4.018,3.4.03a.013.013,0,0,1,.01,0c0,.011,0,.015-.01.015l-3.4.03-3.4.016-6.8.014-6.8-.013-3.4-.015-3.4-.027a.015.015,0,0,1-.014-.016A.013.013,0,0,1,2589.883,1616.826Z" transform="translate(-2589.481 -1616.38)" fill="#7e7e7e"/>
            <path id="Path_6844" data-name="Path 6844" d="M2600.578,1614.39l-10.2-.028-3.561-.028-.237-.237v-.175l.008-.381.391-.014,6.8-.043,6.8-.012,10.2.031,3.786.033.01.786-.4.009-6.8.047Z" transform="translate(-2586.58 -1613.47)" fill="#7e7e7e"/>
          </g>
          <g id="Group_5749" data-name="Group 5749" transform="translate(5.574 26.075)">
            <path id="Path_6845" data-name="Path 6845" d="M2646.416,1665.424h-19.3a.052.052,0,0,1,0-.1h19.3a.052.052,0,0,1,0,.1Z" transform="translate(-2626.672 -1664.93)" fill="#7e7e7e"/>
            <path id="Path_6846" data-name="Path 6846" d="M2643.514,1662.9h-19.3a.442.442,0,0,1,0-.883h19.3a.442.442,0,0,1,0,.883Z" transform="translate(-2623.77 -1662.02)" fill="#7e7e7e"/>
          </g>
        </g>
      </g>
    </g>
    <g id="Group_5762" data-name="Group 5762" transform="translate(185.809 30.296)">
      <circle id="Ellipse_299" data-name="Ellipse 299" cx="26.203" cy="26.203" r="26.203" fill="#d2d2d2"/>
      <g id="Group_5761" data-name="Group 5761" transform="translate(7.337 17.552)">
        <g id="Group_5754" data-name="Group 5754">
          <g id="Group_5753" data-name="Group 5753">
            <path id="Path_6847" data-name="Path 6847" d="M2115.165,876.188H2099.9a.9.9,0,0,1-.872-.69,1.525,1.525,0,0,0-.123-.341l-.018-.038a2.414,2.414,0,0,0-.22-.393,2.765,2.765,0,0,0-2.289-1.222,2.8,2.8,0,0,0-2.3,1.222,2.385,2.385,0,0,0-.22.392l-.018.038a1.526,1.526,0,0,0-.122.34.894.894,0,0,1-.871.691h-.762a1.433,1.433,0,0,1-1.431-1.431V861.211a1.432,1.432,0,0,1,1.431-1.431h23.074a1.433,1.433,0,0,1,1.432,1.431v13.544A1.434,1.434,0,0,1,2115.165,876.188Zm-14.633-1.79h14.274V861.571h-22.357v12.392c.05-.084.1-.168.159-.25a4.556,4.556,0,0,1,7.543,0,4.125,4.125,0,0,1,.37.657Z" transform="translate(-2090.66 -859.78)" fill="#fff"/>
          </g>
        </g>
        <g id="Group_5756" data-name="Group 5756" transform="translate(26.401 2.947)">
          <g id="Group_5755" data-name="Group 5755">
            <path id="Path_6848" data-name="Path 6848" d="M2323.595,898.195h-.654a.9.9,0,0,1-.871-.691,1.571,1.571,0,0,0-.123-.341l-.018-.037a2.373,2.373,0,0,0-.22-.392,2.776,2.776,0,0,0-4.6,0,2.4,2.4,0,0,0-.219.392l-.018.037a1.534,1.534,0,0,0-.123.34.9.9,0,0,1-.872.691h-.2a1.434,1.434,0,0,1-1.432-1.432V886.169a1.433,1.433,0,0,1,1.432-1.431h2.308a6.776,6.776,0,0,1,7.044,7.524v4.5A1.432,1.432,0,0,1,2323.595,898.195Zm-4.186-4.473a4.588,4.588,0,0,1,3.774,2l.053.078v-3.584c0-.035,0-.071.006-.106a4.986,4.986,0,0,0-5.2-5.577h-2.015v8.689A4.581,4.581,0,0,1,2319.409,893.722Z" transform="translate(-2314.24 -884.734)" fill="#fff"/>
          </g>
        </g>
        <g id="Group_5758" data-name="Group 5758" transform="translate(3.304 15.153)">
          <g id="Group_5757" data-name="Group 5757">
            <path id="Path_6849" data-name="Path 6849" d="M2121.06,992.939a2.422,2.422,0,0,1-2.42-2.42,2.392,2.392,0,0,1,.586-1.565,2.381,2.381,0,0,1,3.655,0,2.41,2.41,0,0,1-1.821,3.984Zm0-3.048a.558.558,0,0,0-.451.2l-.025.03a.6.6,0,0,0-.152.4.624.624,0,1,0,1.247,0,.592.592,0,0,0-.152-.4l-.025-.03A.554.554,0,0,0,2121.06,989.891Z" transform="translate(-2118.64 -988.1)" fill="#fff"/>
          </g>
        </g>
        <g id="Group_5760" data-name="Group 5760" transform="translate(29.15 15.153)">
          <g id="Group_5759" data-name="Group 5759">
            <path id="Path_6850" data-name="Path 6850" d="M2339.94,992.939a2.422,2.422,0,0,1-2.42-2.42,2.388,2.388,0,0,1,.587-1.565,2.392,2.392,0,0,1,3.665,0,2.392,2.392,0,0,1,.586,1.565A2.42,2.42,0,0,1,2339.94,992.939Zm0-3.048a.572.572,0,0,0-.451.2l-.025.03a.593.593,0,0,0-.152.4.629.629,0,0,0,1.259,0,.592.592,0,0,0-.153-.4l-.025-.03A.58.58,0,0,0,2339.94,989.891Z" transform="translate(-2337.52 -988.1)" fill="#fff"/>
          </g>
        </g>
      </g>
    </g>
    <g id="Group_5764" data-name="Group 5764" transform="translate(90.955 24.716)">
      <circle id="Ellipse_300" data-name="Ellipse 300" cx="26.091" cy="26.091" r="26.091" fill="#d2d2d2"/>
      <g id="Group_5763" data-name="Group 5763" transform="translate(6.544 12.921)">
        <path id="Path_6851" data-name="Path 6851" d="M1426.867,780.907h8.465a1.159,1.159,0,0,0,1.157-1.157v-5.293a1.159,1.159,0,0,0-1.157-1.157h-8.465a1.159,1.159,0,0,0-1.157,1.157v5.294A1.157,1.157,0,0,0,1426.867,780.907Zm.573-1.73V775.03h7.319v4.147Z" transform="translate(-1408.584 -773.3)" fill="#fff"/>
        <path id="Path_6852" data-name="Path 6852" d="M1321.063,846.454a1.9,1.9,0,0,0-1.653-.973h-4.648v-1.174a1.159,1.159,0,0,0-1.157-1.157h-8.465a1.159,1.159,0,0,0-1.157,1.157v4.905l-.69,0v-4.91a1.159,1.159,0,0,0-1.157-1.157h-8.465a1.159,1.159,0,0,0-1.157,1.157V849.3l-10.037.079a1.818,1.818,0,0,0-1.483,2.845l4.1,5.973a4.113,4.113,0,0,0,3.387,1.782h23.522a3.444,3.444,0,0,0,2.933-1.628l6.08-9.955A1.908,1.908,0,0,0,1321.063,846.454Zm-15.351,2.745v-4.318h7.319v.6h-2.281a3.2,3.2,0,0,0-2.639,1.39l-1.6,2.322Zm-11.47-4.318h7.319v4.349l-7.154.052h-.164v-4.4Zm25.3,2.6-6.078,9.951a1.716,1.716,0,0,1-1.462.809h-23.522a2.379,2.379,0,0,1-1.96-1.032l-4.1-5.967a.085.085,0,0,1-.006-.094.075.075,0,0,1,.072-.045l11.932-.093,9.05-.064,1.384-.012h0l2.12-.018a.863.863,0,0,0,.7-.374l1.858-2.692a1.474,1.474,0,0,1,1.214-.641h8.653a.16.16,0,0,1,.149.087A.169.169,0,0,1,1319.544,847.484Z" transform="translate(-1280.675 -834.902)" fill="#fff"/>
      </g>
    </g>
    <g id="Group_5768" data-name="Group 5768" transform="translate(34.576 101.153)">
      <circle id="Ellipse_301" data-name="Ellipse 301" cx="25.304" cy="25.304" r="25.304" fill="#e1e1e1"/>
      <g id="Group_5767" data-name="Group 5767" transform="translate(9.532 10.756)">
        <g id="Group_5766" data-name="Group 5766" transform="translate(8.644 6.104)">
          <path id="Path_6853" data-name="Path 6853" d="M929.157,1505.344H909.982a.922.922,0,0,1,0-1.844h19.175a.922.922,0,1,1,0,1.844Z" transform="translate(-908.194 -1497.651)" fill="#9a9a9a"/>
          <g id="Group_5765" data-name="Group 5765" transform="translate(6.871 0.649)">
            <path id="Path_6854" data-name="Path 6854" d="M960.842,1478.888c-.509,0-.922-.679-.922-1.517v-16.383c0-.838.412-1.517.922-1.517s.922.679.922,1.517v16.383C961.764,1478.209,961.352,1478.888,960.842,1478.888Z" transform="translate(-959.92 -1459.47)" fill="#9a9a9a"/>
            <path id="Path_6855" data-name="Path 6855" d="M1020.172,1478.888c-.509,0-.922-.679-.922-1.517v-16.383c0-.838.412-1.517.922-1.517s.922.679.922,1.517v16.383C1021.094,1478.209,1020.682,1478.888,1020.172,1478.888Z" transform="translate(-1012.244 -1459.47)" fill="#9a9a9a"/>
          </g>
          <path id="Path_6856" data-name="Path 6856" d="M928.57,1559.984H910.087a.928.928,0,1,1,0-1.844H928.57a.928.928,0,1,1,0,1.844Z" transform="translate(-908.194 -1545.839)" fill="#9a9a9a"/>
          <path id="Path_6857" data-name="Path 6857" d="M923.133,1474.6H902.921a1.192,1.192,0,0,1-1.191-1.191v-18.249a1.191,1.191,0,0,1,1.191-1.191h20.211a1.192,1.192,0,0,1,1.191,1.191v18.249A1.193,1.193,0,0,1,923.133,1474.6Zm-19.02-2.382h17.83v-15.866h-17.83Z" transform="translate(-901.73 -1453.97)" fill="#9a9a9a"/>
        </g>
        <path id="Path_6858" data-name="Path 6858" d="M838.367,1429.016h-8.644a1.19,1.19,0,0,1-1.186-1.3l2.338-24.354a1.191,1.191,0,0,1,1.186-1.077h4.175a1.192,1.192,0,0,1,1.187,1.088l2.13,24.354a1.19,1.19,0,0,1-1.187,1.294Zm-7.333-2.382h6.034l-1.921-21.972h-2Z" transform="translate(-828.531 -1402.28)" fill="#9a9a9a"/>
      </g>
    </g>
    <g id="Group_5771" data-name="Group 5771" transform="translate(227.802 223.219)">
      <g id="Group_5769" data-name="Group 5769" transform="translate(0 42.812)">
        <path id="Path_6859" data-name="Path 6859" d="M2384.15,2762.089v-44a10.543,10.543,0,0,1,10.428-10.549c17.35-.189,53.135-.2,82.416,2.27a7.926,7.926,0,0,1,7.248,7.619l2.736,42.544a10.073,10.073,0,0,1-9.875,10.435l-82.874,1.575A9.892,9.892,0,0,1,2384.15,2762.089Z" transform="translate(-2384.15 -2707.462)" fill="#777"/>
        <path id="Path_6860" data-name="Path 6860" d="M2767.357,2746.29l11.911,1.285a2.686,2.686,0,0,0,2.966-2.867l-2.6-35.432c-4.994-.158-9.918-.274-14.671-.355v34.7A2.684,2.684,0,0,0,2767.357,2746.29Z" transform="translate(-2719.993 -2708.748)" fill="#fff" opacity="0.37"/>
        <path id="Path_6861" data-name="Path 6861" d="M2813.107,2740.987a1.2,1.2,0,0,0,1.2,1.129l.071,0a1.2,1.2,0,0,0,1.126-1.265l-1.8-30.924c-.805-.02-1.6-.038-2.4-.056Z" transform="translate(-2760.861 -2709.585)" fill="#fff"/>
      </g>
      <g id="Group_5770" data-name="Group 5770" transform="translate(13.91)">
        <path id="Path_6862" data-name="Path 6862" d="M2501.95,2383.274v-30.9a7.405,7.405,0,0,1,7.323-7.409c12.185-.132,37.316-.139,57.878,1.593a5.567,5.567,0,0,1,5.091,5.351l1.921,29.877a7.073,7.073,0,0,1-6.935,7.328l-58.2,1.107A6.945,6.945,0,0,1,2501.95,2383.274Z" transform="translate(-2501.95 -2344.911)" fill="#b7b7b7"/>
        <path id="Path_6863" data-name="Path 6863" d="M2771.064,2372.174l8.365.9a1.886,1.886,0,0,0,2.083-2.013l-1.829-24.884c-3.507-.111-6.966-.192-10.3-.249V2370.3A1.886,1.886,0,0,0,2771.064,2372.174Z" transform="translate(-2737.801 -2345.809)" fill="#fff" opacity="0.37"/>
        <path id="Path_6864" data-name="Path 6864" d="M2803.208,2368.453a.841.841,0,0,0,.84.792h.05a.841.841,0,0,0,.791-.888l-1.261-21.717c-.566-.014-1.127-.027-1.687-.039Z" transform="translate(-2766.516 -2346.401)" fill="#fff"/>
      </g>
    </g>
    <g id="Group_5781" data-name="Group 5781" transform="translate(88.157 96.484)">
      <g id="Group_5776" data-name="Group 5776">
        <g id="Group_5772" data-name="Group 5772">
          <path id="Path_6865" data-name="Path 6865" d="M1339.545,1371.117l-4.444-5.309a5.727,5.727,0,0,1-1.117-5.175,61.153,61.153,0,0,0,2.067-13.79,5.729,5.729,0,0,1,2.588-4.625l5.813-3.773a6.846,6.846,0,0,0,2.917-7.395l-2.1-8.463a6.846,6.846,0,0,0-6.04-5.169l-6.9-.612a5.729,5.729,0,0,1-4.453-2.875,61.146,61.146,0,0,0-8.281-11.218,5.727,5.727,0,0,1-1.436-5.1l1.442-6.772a6.848,6.848,0,0,0-3.166-7.292l-7.472-4.5a6.846,6.846,0,0,0-7.926.616l-5.309,4.443a5.727,5.727,0,0,1-5.174,1.117,61.139,61.139,0,0,0-13.79-2.066,5.729,5.729,0,0,1-4.625-2.589l-3.773-5.813a6.849,6.849,0,0,0-7.395-2.918l-8.463,2.1a6.848,6.848,0,0,0-5.168,6.04l-.612,6.9a5.729,5.729,0,0,1-2.875,4.453,61.151,61.151,0,0,0-11.218,8.281,5.727,5.727,0,0,1-5.1,1.436l-6.772-1.442a6.846,6.846,0,0,0-7.291,3.166l-4.5,7.472a6.844,6.844,0,0,0,.616,7.925l4.443,5.309a5.726,5.726,0,0,1,1.117,5.175,61.153,61.153,0,0,0-2.066,13.79,5.732,5.732,0,0,1-2.589,4.625l-5.813,3.773a6.846,6.846,0,0,0-2.917,7.395l2.1,8.463a6.848,6.848,0,0,0,6.04,5.168l6.9.612a5.729,5.729,0,0,1,4.453,2.875,61.139,61.139,0,0,0,8.281,11.218,5.727,5.727,0,0,1,1.436,5.1l-1.442,6.772a6.848,6.848,0,0,0,3.166,7.292l7.471,4.5a6.847,6.847,0,0,0,7.926-.616l5.309-4.443a5.726,5.726,0,0,1,5.174-1.117,61.17,61.17,0,0,0,13.79,2.067,5.731,5.731,0,0,1,4.625,2.588l3.773,5.813a6.849,6.849,0,0,0,7.394,2.918l8.463-2.1a6.848,6.848,0,0,0,5.169-6.04l.612-6.9a5.729,5.729,0,0,1,2.875-4.453,61.142,61.142,0,0,0,11.218-8.281,5.727,5.727,0,0,1,5.1-1.436l6.772,1.442a6.847,6.847,0,0,0,7.292-3.166l4.5-7.471A6.848,6.848,0,0,0,1339.545,1371.117Zm-86.632,19.431a50.748,50.748,0,1,1,67.55-24.242A50.747,50.747,0,0,1,1252.914,1390.548Z" transform="translate(-1201.563 -1271.647)" fill="#dcdcdc"/>
        </g>
        <g id="Group_5775" data-name="Group 5775" transform="translate(24.225 13.04)">
          <path id="Path_6866" data-name="Path 6866" d="M1542.281,1746.437s21.774-5.463,44.778-2.168a22.367,22.367,0,0,1,15.7,10.22c6.294,9.959,15.192,27.707,13.309,46.218l-9.878,2.442s-6.826-21.966-14.51-30.906c0,0-9.1,20.742-8.639,32.132.013.322.033.636.063.942,1.044,11.144-43.682,2.08-43.682,2.08Z" transform="translate(-1523.749 -1700.568)" fill="#373737"/>
          <path id="Path_6867" data-name="Path 6867" d="M1727.129,1587.113l-4.636,14.765a3.351,3.351,0,0,0,1.075,3.674c2.481,1.911,7.385,4.954,13.377,4.866a2.212,2.212,0,0,0,2.095-2.1l1.647-24.678Z" transform="translate(-1685.058 -1559.838)" fill="url(#linear-gradient)"/>
          <g id="Group_5773" data-name="Group 5773" transform="translate(31.639)">
            <path id="Path_6868" data-name="Path 6868" d="M1761.225,1474.247s1.8,11.628.667,17.185-.888,9.421-7.51,8.86-11.128-5.118-12.585-11.333c0,0-2.319-9.6-.4-12.772S1761.225,1474.247,1761.225,1474.247Z" transform="translate(-1732.844 -1463.154)" fill="url(#linear-gradient-2)"/>
            <path id="Path_6869" data-name="Path 6869" d="M1686.79,1404.525l.8.21s-1.521-7.633,1.69-8.059,15.306.248,18.854-3.175c3.42-3.3,2.623-8.932-.19-11.188a.441.441,0,0,0-.6.058l-.4.43a.445.445,0,0,1-.772-.289h0a.443.443,0,0,0-.74-.32c-1.078,1.019-3.652,2.461-9.425,2.03-8.193-.61-14.189,1.194-15.735,6.561a.444.444,0,0,1-.758.177c-.484-.5-1.364-.91-2.871-.2-2.619,1.24-2.971,6.151.72,11.236a.441.441,0,0,1-.2.684c-1,.331-2.617,1.318.215,3.944,2.9,2.687,4.941,3.014,5.744,3.018a.446.446,0,0,0,.443-.359l.961-4.863a.444.444,0,0,1,.549-.344Z" transform="translate(-1674.643 -1382.073)"/>
            <path id="Path_6870" data-name="Path 6870" d="M1739.393,1535.191s.019-7.121-3.461-6.038-.411,7.876,1.926,8.757Z" transform="translate(-1727.312 -1511.686)" fill="url(#linear-gradient-3)"/>
          </g>
          <g id="Group_5774" data-name="Group 5774" transform="translate(0 45.868)">
            <path id="Path_6871" data-name="Path 6871" d="M1425.377,1814.917c-.965-6.811,6.088-16.822,9.005-20.621a6.311,6.311,0,0,0,1.313-3.786c.085-9.645-3.965-15.84-10.454-20,0,0-23.552,27.438-17.554,48.543a17.746,17.746,0,0,0,2.921,5.916C1411.553,1817.019,1420.745,1815.284,1425.377,1814.917Z" transform="translate(-1406.709 -1770.51)" fill="#373737"/>
            <path id="Path_6872" data-name="Path 6872" d="M1561.818,1987.872l-.9-.1c.76-6.679,6.621-14.924,9.105-18.159l.717.55C1568.3,1973.335,1562.552,1981.417,1561.818,1987.872Z" transform="translate(-1542.71 -1946.099)" fill="#fff"/>
            <path id="Path_6873" data-name="Path 6873" d="M1454.674,2147.5a7.9,7.9,0,0,1-.185-.943c-4.633.367-13.823,2.1-14.769,10.054,10.511,13.9,39.48,8.886,39.48,8.886v-5.409S1456.952,2155.958,1454.674,2147.5Z" transform="translate(-1435.822 -2102.154)" fill="url(#linear-gradient-4)"/>
          </g>
          <path id="Path_6874" data-name="Path 6874" d="M1750.48,2239.928s4.277-10.093,11.814-6.514,6.945,5.923,6.945,5.923Z" transform="translate(-1709.886 -2132.207)" fill="url(#linear-gradient-5)"/>
          <path id="Path_6875" data-name="Path 6875" d="M1742.307,2257.6h0a1.43,1.43,0,0,0,1.476,1.318l39.056-1.363a1.429,1.429,0,0,0,1.315-1l1.134-3.627a1.43,1.43,0,0,0-1.29-1.855l-14.242-.757a1.4,1.4,0,0,0-.385.032l-25.947,5.746A1.432,1.432,0,0,0,1742.307,2257.6Z" transform="translate(-1702.674 -2147.786)" fill="#8a8a8a"/>
          <path id="Path_6876" data-name="Path 6876" d="M1964.05,2262.578l1.075-5.008,14.629.7-.962,4.156Z" transform="translate(-1898.237 -2154.188)" fill="#717171"/>
          <path id="Path_6877" data-name="Path 6877" d="M1858.444,1802.205c-.828,6.765-4.552,34.253-5.618,42.108a1.8,1.8,0,0,0,1.842,2.044l63.186-1.808a1.806,1.806,0,0,0,1.711-1.413l9.829-44.265a1.806,1.806,0,0,0-1.868-2.194l-67.393,3.948A1.8,1.8,0,0,0,1858.444,1802.205Z" transform="translate(-1800.131 -1747.716)" fill="#6e6e6e"/>
          <path id="Path_6878" data-name="Path 6878" d="M2045.878,2063.184l-9.338,26.505,21.714.46,1.808-26.806a2.083,2.083,0,0,0-2.216-2.219l-10.141.673A2.08,2.08,0,0,0,2045.878,2063.184Z" transform="translate(-1962.167 -1980.935)" fill="#b4b4b4"/>
          <path id="Path_6879" data-name="Path 6879" d="M1961.563,2289.575h0a1.127,1.127,0,0,0,1.071,1.479h34.006a1.128,1.128,0,0,0,1.128-1.128v-1.458a1.128,1.128,0,0,0-1.176-1.126l-34.006,1.458A1.125,1.125,0,0,0,1961.563,2289.575Z" transform="translate(-1895.992 -2180.443)" fill="#777"/>
        </g>
        <path id="Path_6880" data-name="Path 6880" d="M1889.1,1850.027l-.449-.057,3.1-24.484a3.188,3.188,0,0,1,2.969-2.78l58.239-3.517.027.451-58.239,3.516a2.736,2.736,0,0,0-2.548,2.385Z" transform="translate(-1807.516 -1754.534)" fill="#fff"/>
        <rect id="Rectangle_483" data-name="Rectangle 483" width="5.343" height="0.452" transform="matrix(0.125, -0.992, 0.992, 0.125, 79.594, 107.705)" fill="#bdd0fb"/>
      </g>
      <g id="Group_5780" data-name="Group 5780" transform="translate(62.672 14.623)">
        <g id="Group_5778" data-name="Group 5778" transform="translate(4.235 22.369)">
          <g id="Group_5777" data-name="Group 5777">
            <path id="Path_6881" data-name="Path 6881" d="M1779.305,1591.978c-7.017.53-11.1-6.725-11.135-6.8l.47-.259c.039.07,3.956,7.026,10.625,6.523Z" transform="translate(-1768.17 -1584.92)" fill="#fff"/>
          </g>
          <path id="Path_6882" data-name="Path 6882" d="M1860.444,1636.773a.753.753,0,0,1-.753.753h-2.007a.753.753,0,0,1-.753-.753h0a.753.753,0,0,1,.753-.753h2.007a.753.753,0,0,1,.753.753Z" transform="translate(-1846.449 -1629.986)" fill="#fff"/>
        </g>
        <g id="Group_5779" data-name="Group 5779">
          <path id="Path_6883" data-name="Path 6883" d="M1758.346,1410.064s2.519-12.917,9.938-14.136a5.018,5.018,0,0,0-4.292.09c-2.19,1.148-7.727,7.435-7.5,14.365C1758,1410.925,1758.346,1410.064,1758.346,1410.064Z" transform="translate(-1753.629 -1395.484)" fill="#fff"/>
          <path id="Path_6884" data-name="Path 6884" d="M1735.734,1513.338c-3.858.783-3.383,5.661-3.383,5.661-.277,3.54.756,5.295,2.079,6.131a3.047,3.047,0,0,0,4.664-2.353c.071-.964.152-1.879.224-2.2C1739.493,1519.783,1739.592,1512.555,1735.734,1513.338Z" transform="translate(-1732.306 -1499.369)" fill="#fff"/>
        </g>
        <path id="Path_6885" data-name="Path 6885" d="M1743.53,1524.034a1.753,1.753,0,0,0-1.913,1.032c-2.305,5.341.526,8.815,1.914,8.887,1.464.077,1.435-6.969,1.124-8.776A1.284,1.284,0,0,0,1743.53,1524.034Z" transform="translate(-1739.747 -1508.831)" fill="#fff"/>
      </g>
    </g>
    <g id="Group_5787" data-name="Group 5787" transform="translate(0.978 160.881)">
      <g id="Group_5782" data-name="Group 5782" transform="translate(31.267 109.005)">
        <path id="Path_6886" data-name="Path 6886" d="M740.717,2740.11l.431,7.933s-2.465,26.549-2.982,38.3a9.214,9.214,0,0,0,1.363,5.235l5.045,8.191-12.82-7.566-.255-1.564,2.1-2.886-2.749-32.919A10.1,10.1,0,0,1,732,2749.25l2.652-4.982Z" transform="translate(-730.489 -2740.11)" fill="url(#linear-gradient-6)"/>
        <path id="Path_6887" data-name="Path 6887" d="M743,3164.574h-4.092a2.464,2.464,0,0,1-1.956-.959c-1.275-1.658-3.918-4.891-5.182-4.975-1.7-.114-1.483,5.934-1.483,5.934h-.953l-1.208-7.515a4.448,4.448,0,0,1,2.335-4.649h0a6.286,6.286,0,0,0,2.5,4.147c2.109,1.272,8.58,5.828,8.58,5.828a5.844,5.844,0,0,1,1.663.044A1.082,1.082,0,0,1,743,3164.574Z" transform="translate(-728.072 -3103.724)" fill="url(#linear-gradient-7)"/>
      </g>
      <g id="Group_5783" data-name="Group 5783" transform="translate(20.243 109.005)">
        <path id="Path_6888" data-name="Path 6888" d="M647.357,2740.11l.867,5.1s-2.9,29.386-3.417,41.141a9.213,9.213,0,0,0,1.363,5.235l5.045,8.192-12.82-7.566-.255-1.565,2.1-2.886-2.749-32.92a10.1,10.1,0,0,1,1.149-5.587l2.652-4.982Z" transform="translate(-637.129 -2740.11)" fill="url(#linear-gradient-8)"/>
        <path id="Path_6889" data-name="Path 6889" d="M649.641,3164.574h-4.092a2.465,2.465,0,0,1-1.955-.959c-1.275-1.658-3.918-4.891-5.182-4.975-1.7-.114-1.483,5.934-1.483,5.934h-.953l-1.208-7.515a4.448,4.448,0,0,1,2.335-4.649h0a6.286,6.286,0,0,0,2.5,4.147c2.108,1.272,8.58,5.828,8.58,5.828a5.844,5.844,0,0,1,1.663.044A1.082,1.082,0,0,1,649.641,3164.574Z" transform="translate(-634.712 -3103.724)" fill="url(#linear-gradient-9)"/>
      </g>
      <path id="Path_6890" data-name="Path 6890" d="M792.24,1973.493s1.868-.014,5.016,2.019,8.823,7.752,8.823,7.752l-5.728-15.892,4.2-1.083s10.587,19.211,8.6,22.579-12.185,2.441-17.384-6.388C793.058,1976,792.24,1973.493,792.24,1973.493Z" transform="translate(-753.396 -1948.661)" fill="url(#linear-gradient-10)"/>
      <path id="Path_6891" data-name="Path 6891" d="M598.082,2027.725c-.481.373,7.957,18.253,7.974,32.811,0,0,8.095,1.762,14.843-1.448,0,0,6.606-19.551,6.365-21.85-.273-2.6-5.515-14.978-5.515-14.978S609.931,2018.53,598.082,2027.725Z" transform="translate(-582.147 -1997.362)"/>
      <path id="Path_6892" data-name="Path 6892" d="M732.706,2189a2.385,2.385,0,0,0-1.731-1.13l-7.014-.92s-.306-.79.991-1.715a1.974,1.974,0,0,0,.546-2.449s-1.735,1.4-4.246,3.566a6.958,6.958,0,0,0-2.2,4.119l2.19,1.731a30.041,30.041,0,0,0,12.12-2.123Z" transform="translate(-688.848 -2139.595)" fill="url(#linear-gradient-11)"/>
      <path id="Path_6893" data-name="Path 6893" d="M529.858,2074.13s-13.378,11.969-7.79,26.612,25.406-5.223,25.406-5.223l-1.5-3.483s-13.236,7.835-16.539,4.877c-2.422-2.169,1.858-9.813,4.31-13.733a3.964,3.964,0,0,0-.28-4.6Z" transform="translate(-513.923 -2043.766)" fill="url(#linear-gradient-12)"/>
      <g id="Group_5785" data-name="Group 5785" transform="translate(39.845 8.316)">
        <path id="Path_6894" data-name="Path 6894" d="M814.935,1945.454a5.8,5.8,0,0,1-2.013-1.83c-.555-1.033-2.091-2.093-1.369-2.4s.8-.482,1.733.589S818.594,1946.238,814.935,1945.454Z" transform="translate(-810.106 -1934.661)" fill="url(#linear-gradient-13)"/>
        <g id="Group_5784" data-name="Group 5784">
          <path id="Path_6895" data-name="Path 6895" d="M805.83,1887.735a.74.74,0,0,0-1.134-.1l-3.864,3.9a.418.418,0,0,0-.028.557L809.578,1903a.224.224,0,0,0,.152.083.228.228,0,0,0,.167-.05l3.639-2.983a.74.74,0,0,0,.139-.993Z" transform="translate(-800.711 -1887.417)"/>
          <path id="Path_6896" data-name="Path 6896" d="M812.6,1901.377a.419.419,0,0,0-.645-.044l-2.5,2.631a.419.419,0,0,0-.022.552l7.481,9.28a.226.226,0,0,0,.329.025l2.43-2.229a.226.226,0,0,0,.031-.3Z" transform="translate(-808.325 -1899.574)" fill="#fcfcfc"/>
          <path id="Path_6897" data-name="Path 6897" d="M812.7,1909.275c.03.031.007.1-.052.158l-.863.837c-.059.057-.13.078-.159.047l-.03-.03c-.029-.031-.007-.1.052-.158l.863-.837c.059-.057.13-.078.159-.047Z" transform="translate(-810.297 -1906.655)" fill="url(#linear-gradient-14)"/>
        </g>
        <path id="Path_6898" data-name="Path 6898" d="M845.318,1901.447c-.73.158-3.16-1.109-2.963-.309s1.086,1.5,1.17,1.842.433,2.3,1.176,2.836a32.921,32.921,0,0,1,2.6,2.49.716.716,0,0,0,1.183-.751C848.439,1907.427,846.048,1901.288,845.318,1901.447Z" transform="translate(-837.428 -1899.282)" fill="url(#linear-gradient-15)"/>
      </g>
      <path id="Path_6899" data-name="Path 6899" d="M706.361,1936.84s-1.41,7.328-2.506,10.547a1.951,1.951,0,0,0,1.026,2.4,7.1,7.1,0,0,0,4.772.273,2.069,2.069,0,0,0,1.565-1.984l.117-7.986Z" transform="translate(-675.356 -1922.688)" fill="url(#linear-gradient-16)"/>
      <g id="Group_5786" data-name="Group 5786">
        <path id="Path_6900" data-name="Path 6900" d="M731.139,1860.139s2.283,2.938,1.9,8.4-3.024,6.6-5.085,5.81a10.23,10.23,0,0,1-6.342-6.916C720.155,1862.951,728.09,1856.465,731.139,1860.139Z" transform="translate(-690.948 -1854.089)" fill="url(#linear-gradient-17)"/>
        <path id="Path_6901" data-name="Path 6901" d="M698.116,1829.168s1.286-7.586,6.933-4.52l.8,1.66s4.02-2.354,1.582-5.917a8.23,8.23,0,0,0-12.294-1.154c-3.984,3.743-4.788,7.15-3.618,10.664s3.538,1.6,3.538,1.6-.162-2.764.979-3.556,1.626,1.207,1.626,1.207Z" transform="translate(-664.137 -1816.996)"/>
        <path id="Path_6902" data-name="Path 6902" d="M722.544,1897.018s.684-3.9-1.565-3.452-.449,3.7.321,4.86Z" transform="translate(-689.588 -1884.494)" fill="url(#linear-gradient-18)"/>
        <path id="Path_6903" data-name="Path 6903" d="M493.03,1824.485a1.608,1.608,0,0,0,.226-2.839c-3.492-2.277-9.487-4.256-15.512,2.7-6.785,7.837-10.587,11.571-12.754,11.551a1.615,1.615,0,0,0-1.3,2.667,6.847,6.847,0,0,0,3.861,1.9C482.762,1843.655,485.976,1827.246,493.03,1824.485Z" transform="translate(-463.286 -1819.23)"/>
      </g>
      <path id="Path_6904" data-name="Path 6904" d="M603.373,2348.98c.7-5.621,7.3-12.309,7.3-12.309,10.5,1.569,15.447-2.051,15.447-2.051s2.2,7.405,2.234,13.2,1.144,43.08,1.144,43.08c-10.275,4.306-23.171,1.931-23.171,1.931C607.123,2379.44,602.675,2354.6,603.373,2348.98Z" transform="translate(-586.765 -2273.497)" fill="#b5b5b5"/>
    </g>
  </g>
</svg>
