<svg xmlns="http://www.w3.org/2000/svg" width="682.063" height="395.97" viewBox="0 0 682.063 395.97">
  <g id="Contract_Management" data-name="Contract Management" transform="translate(-129.356 -155.158)">
    <g id="Group_6252" data-name="Group 6252" transform="translate(129.356 155.158)">
      <path id="Path_7673" data-name="Path 7673" d="M755.609,630.654s130.79-200.718-8.066-255.616c-34.975-13.829-47.177-207.419-202.537-110.624-61.785,38.493-150.749-8.089-235.945,17.372C230.817,305.17,229.018,372.62,238.914,396.9c10.808,26.533-32.3,58.254-76.445,80.043C93.22,511.118,144.141,631.222,209.561,631.8S755.609,630.654,755.609,630.654Z" transform="translate(-129.356 -236.132)" fill="#f6f6f6"/>
      <path id="Path_7674" data-name="Path 7674" d="M2012.39,469.308s48.8-78.9,74.832-69.953-63.447,71.58-63.447,71.58Z" transform="translate(-1543.871 -357.243)" fill="#dedede"/>
      <path id="Path_7675" data-name="Path 7675" d="M2175.85,584.818s34.162-34.975,50.432-26.842S2216.521,581.566,2175.85,584.818Z" transform="translate(-1666.66 -476.008)" fill="#dedede"/>
      <path id="Path_7676" data-name="Path 7676" d="M744.556,1448.935l351.9.543s-25.483-20.062-43.92-13.013-54.763,2.169-59.642-12.471-22.774-29.823-68.861-31.99-66.694,23.859-89.465,30.907a78.85,78.85,0,0,1-34.323,2.633c-9.333-33.672-32.637-100.131-70.931-98.915-51.245,1.627-7.32,22.776,8.134,32.537,9.866,6.23,30.666,40.962,44.423,65.27a66.727,66.727,0,0,0-14.605,2.976c-10.034-17.469-29.019-44.129-50.964-43.032-32.537,1.627-10.574,20.335,6.506,30.1,8.875,5.071,22.577,12.336,33.7,18.148C745.915,1439.832,744.556,1448.935,744.556,1448.935Z" transform="translate(-557.684 -1054.322)" fill="#dedede"/>
      <path id="Path_7677" data-name="Path 7677" d="M819.779,1819.182h-629.8a.749.749,0,0,1-.746-.746h0a.748.748,0,0,1,.746-.746h629.8a.748.748,0,0,1,.746.746h0A.749.749,0,0,1,819.779,1819.182Z" transform="translate(-174.333 -1423.213)" fill="#aaa"/>
      <g id="Group_6212" data-name="Group 6212" transform="translate(132.929 0)">
        <path id="Path_7678" data-name="Path 7678" d="M952.4,375.037l-9.2-.212c2.956,3.832,3.62,7.362,1.779,10.348-1.841,3.048-6.245,5.551-12.824,7.452a118.737,118.737,0,0,0-27.334-125.57,119.043,119.043,0,0,0-130.307-25.493c-1.749.754-3.5,1.538-5.19,2.354l-.015.007c-5.11-1.56-10.089-2.839-14.894-3.812-24.249-4.921-41.457-1.52-48.446,9.577-6.651,10.552-3.031,26.439,10.169,44.965,0,0,0,0,0,.01-1.779,3.289-3.379,6.668-4.857,10.166-1.117,2.625-2.112,5.25-3.018,7.935-24.8,1.478-38.075,5.842-42.9,13.747-5.611,9.2,2.053,21.552,26.581,33.56,3.379,1.66,7,3.289,10.8,4.919a116.139,116.139,0,0,0,8.539,32.343A118.876,118.876,0,0,0,929.8,398.451c12.1-2.5,20.064-6.427,23.231-11.617C955.24,383.243,954.969,379.26,952.4,375.037ZM924.012,394.5a183.413,183.413,0,0,1-29.837,2.413,437.435,437.435,0,0,1-61.168-4.12q2.78-6.057,5.447-12.431a167.98,167.98,0,0,0,19.808,5.384,100.3,100.3,0,0,0,19.778,2.2c13.846,0,23.769-4,28.668-11.776a20.4,20.4,0,0,0,1.97-4.076h-7.059c-.117.214-.241.428-.371.634-3.64,5.777-11.774,8.761-23.192,8.758a94.149,94.149,0,0,1-18.514-2.07,161.66,161.66,0,0,1-18.643-5.043q2.549-6.378,4.949-12.985c4.3-11.863,7.987-23.625,10.965-34.918a299.713,299.713,0,0,0,43.644,3.008q14.462,0,29.969-1.167a112.615,112.615,0,0,1,2.309,22.771A111.269,111.269,0,0,1,924.012,394.5Zm-147.06,58.916c-3.434-1.244-5.175-6.173-6.034-10.087-1.356-6.186-1.6-14.874-.709-25.128.45-5.185,1.177-10.7,2.152-16.464a305.631,305.631,0,0,1,41.576,14.386c-3.055,5.27-6.148,10.156-9.238,14.588-5.887,8.44-11.647,14.951-16.651,18.83C784.882,451.992,780.386,454.657,776.952,453.413ZM817.046,410.6a311.852,311.852,0,0,0-43.554-15.083q.78-4.016,1.709-8.163,6.15,1.4,12.47,2.7c12.323,2.52,24.617,4.66,36.652,6.392Q820.752,403.848,817.046,410.6ZM790.388,385.6q-7.143-1.47-14.065-3.065c2.172-9.034,4.837-18.452,7.952-28.048A275.133,275.133,0,0,0,832.5,378.269q-2.933,7-6.014,13.625C814.652,390.193,802.54,388.088,790.388,385.6ZM750.857,263.652a73.474,73.474,0,0,0,4.376,7.7c8.184,12.644,18.989,21.811,26.613,27.275a130.56,130.56,0,0,0,14,8.718c-4.521,9.85-8.825,20.363-12.784,31.275q-1.108,3.053-2.157,6.093c-23.645-15.391-43.664-33.052-56.8-50.143,0,0,0,0-.005-.007a112.36,112.36,0,0,1,11.279-15.892c1.749-2.053,3.561-4.043,5.461-5.974l.784-.784A113.687,113.687,0,0,1,750.857,263.652Zm101.1-17.056c3.433,1.244,5.175,6.173,6.034,10.087,1.356,6.186,1.6,14.874.709,25.127a250.388,250.388,0,0,1-6.569,37.538q-6.057-1.041-11.826-2.364a170.069,170.069,0,0,1-36.18-12.473A255.394,255.394,0,0,1,824.214,269.3c5.887-8.44,11.647-14.951,16.651-18.83,2.612-2.023,6.126-4.19,9.2-4.19A5.514,5.514,0,0,1,851.961,246.6Zm-13.493,76.425q5.9,1.37,12.1,2.443c-2.9,10.92-6.477,22.293-10.642,33.779q-2.407,6.64-4.979,13.055a269.557,269.557,0,0,1-48.58-24.11q1.265-3.7,2.615-7.422c3.869-10.669,8.069-20.937,12.473-30.556A175.962,175.962,0,0,0,838.468,323.021Zm61.469-51.108a111.567,111.567,0,0,1,29.021,50.19c-25.8,1.886-49.449,1.294-70.585-1.764a256.108,256.108,0,0,0,6.6-37.983c1.092-12.575.96-27.469-4.138-35.851q1.773.683,3.528,1.423A111.174,111.174,0,0,1,899.937,271.913Zm-79.137-32.8a112.19,112.19,0,0,1,22.838,2.329c-8.793,3.829-17.773,14.483-24.587,24.252a261.813,261.813,0,0,0-20.519,35.933,123.8,123.8,0,0,1-12.58-7.815A97.018,97.018,0,0,1,760.76,268.3a66.251,66.251,0,0,1-4.77-8.524,112.013,112.013,0,0,1,14.469-8.731s0,0,0,0q3.083-1.556,6.28-2.919c.154-.065.306-.134.46-.2l.107-.045q.68-.287,1.366-.562c.122-.047.247-.1.368-.147A111.188,111.188,0,0,1,820.8,239.117Zm-109.367,14.01c3.64-5.777,11.774-8.758,23.192-8.758a94.153,94.153,0,0,1,18.514,2.07q3.893.788,7.94,1.854a.009.009,0,0,1,.007,0,116.832,116.832,0,0,0-24.341,18.763c-1.538,1.508-3.018,3.078-4.466,4.708-1.809,1.99-3.531,4.073-5.19,6.185a120.127,120.127,0,0,0-7.362,10.53s0,.005-.005.01C709.631,273.5,706.6,260.8,711.433,253.128Zm6.183,54.387c1-2.294,2.02-4.556,3.138-6.758a.009.009,0,0,1,0-.005c13.829,17.282,34.209,34.953,58.023,50.275C775.4,361.3,772.521,371.4,770.2,381.084a460.794,460.794,0,0,1-47.451-14.011c-2.956-1.055-5.822-2.142-8.569-3.23-1.63-.634-3.227-1.3-4.8-1.961-.242-2.414-.423-4.857-.483-7.3-.03-1.177-.06-2.324-.06-3.5,0-1.359.03-2.747.06-4.1a113.329,113.329,0,0,1,5.128-29.688c.513-1.63,1.055-3.227,1.66-4.827C716.29,310.8,716.922,309.145,717.616,307.515Zm-20.183,49c-21.39-10.44-31.166-20.517-26.792-27.665,3.531-5.792,16.382-9.716,36.055-11.164a115.657,115.657,0,0,0-4.466,25.1c-.182,2.533-.271,5.068-.3,7.633v.664c0,2.565.09,5.128.241,7.663C700.54,358.021,698.97,357.265,697.432,356.511Zm16.232,12.824c2.9,1.087,5.852,2.172,8.9,3.23,14.008,4.854,29.711,9.365,46.508,13.369q-.914,4.083-1.69,8.044-2.06-.5-4.12-.973c-23.221-5.285-40.646-6.36-48.725-6.544a109.619,109.619,0,0,1-4.4-18.484Zm3.951,25.312q-.384-.911-.749-1.829a258.34,258.34,0,0,1,45.234,6.377q2.071.474,4.14.98c-1.05,6.123-1.824,11.978-2.3,17.476-.906,10.423-.97,22.438,1.936,31.017a112.593,112.593,0,0,1-48.257-54.022Zm146.751,59.588a112.347,112.347,0,0,1-77.515,3.573c8.283-4.342,16.6-14.309,23.01-23.5,3.3-4.737,6.608-9.98,9.868-15.64a316.522,316.522,0,0,1,53.86,31.159Q869.1,452.23,864.367,454.234Zm35.57-23.985a111.224,111.224,0,0,1-20.363,16.14,322.869,322.869,0,0,0-56.751-33.229c2.729-5,5.419-10.286,8.047-15.8a483.544,483.544,0,0,0,51.6,4.227c4.163.119,8.206.119,12.13.09a215.9,215.9,0,0,0,26.974-1.811A111.254,111.254,0,0,1,899.937,430.249Z" transform="translate(-663.612 -232.24)" fill="#e3e1e1"/>
      </g>
      <g id="Group_6214" data-name="Group 6214" transform="translate(590.033 149.953)">
        <path id="Path_7685" data-name="Path 7685" d="M2567.371,834.92h-63.882a2.728,2.728,0,0,0-2.719,2.719v27.638a2.728,2.728,0,0,0,2.719,2.72h3.626v7.248l11.3-7.248h48.958a2.728,2.728,0,0,0,2.72-2.72V837.639A2.734,2.734,0,0,0,2567.371,834.92Z" transform="translate(-2500.769 -834.92)" fill="#6d6d6d"/>
        <g id="Group_6213" data-name="Group 6213" transform="translate(7.253 7.479)">
          <path id="Path_7686" data-name="Path 7686" d="M2582.927,868.6h-51.2a1.816,1.816,0,0,1-1.811-1.811h0a1.816,1.816,0,0,1,1.811-1.811h51.2a1.816,1.816,0,0,1,1.811,1.811h0A1.818,1.818,0,0,1,2582.927,868.6Z" transform="translate(-2529.92 -864.98)" fill="#c8c8c8"/>
          <path id="Path_7687" data-name="Path 7687" d="M2582.927,895h-51.2a1.816,1.816,0,0,1-1.811-1.811h0a1.816,1.816,0,0,1,1.811-1.811h51.2a1.816,1.816,0,0,1,1.811,1.811h0A1.818,1.818,0,0,1,2582.927,895Z" transform="translate(-2529.92 -884.811)" fill="#c8c8c8"/>
          <path id="Path_7688" data-name="Path 7688" d="M2582.927,921.4h-51.2a1.816,1.816,0,0,1-1.811-1.811h0a1.816,1.816,0,0,1,1.811-1.811h51.2a1.816,1.816,0,0,1,1.811,1.811h0A1.816,1.816,0,0,1,2582.927,921.4Z" transform="translate(-2529.92 -904.643)" fill="#c8c8c8"/>
        </g>
      </g>
      <g id="Group_6216" data-name="Group 6216" transform="translate(28.783 68.615)">
        <path id="Path_7689" data-name="Path 7689" d="M247.759,508.01h63.882a2.728,2.728,0,0,1,2.719,2.72v27.638a2.728,2.728,0,0,1-2.719,2.719h-3.625v7.248l-11.3-7.248H247.759a2.728,2.728,0,0,1-2.719-2.719V510.727A2.727,2.727,0,0,1,247.759,508.01Z" transform="translate(-245.04 -508.01)" fill="#6d6d6d"/>
        <g id="Group_6215" data-name="Group 6215" transform="translate(7.253 7.477)">
          <path id="Path_7690" data-name="Path 7690" d="M276,541.683h51.2a1.816,1.816,0,0,0,1.811-1.811h0a1.816,1.816,0,0,0-1.811-1.811H276a1.816,1.816,0,0,0-1.811,1.811h0A1.815,1.815,0,0,0,276,541.683Z" transform="translate(-274.19 -538.06)" fill="#bebebe"/>
          <path id="Path_7691" data-name="Path 7691" d="M276,568.083h51.2a1.816,1.816,0,0,0,1.811-1.811h0a1.816,1.816,0,0,0-1.811-1.811H276a1.816,1.816,0,0,0-1.811,1.811h0A1.813,1.813,0,0,0,276,568.083Z" transform="translate(-274.19 -557.891)" fill="#bebebe"/>
          <path id="Path_7692" data-name="Path 7692" d="M276,594.493h51.2a1.816,1.816,0,0,0,1.811-1.811h0a1.816,1.816,0,0,0-1.811-1.811H276a1.816,1.816,0,0,0-1.811,1.811h0A1.815,1.815,0,0,0,276,594.493Z" transform="translate(-274.19 -577.73)" fill="#bebebe"/>
        </g>
      </g>
      <g id="Group_6217" data-name="Group 6217" transform="translate(178.568 98.636)">
        <path id="Path_7693" data-name="Path 7693" d="M1545.161,1026.534l15.5,184.322s1.625,11.174-6.688,11.194c-13.665.033-68.015,0-68.015,0s10.283-2.327,10.159-7.558c-.147-6.168-18.118-189.7-18.118-189.7Z" transform="translate(-1321.011 -926.231)" fill="#acacac"/>
        <path id="Path_7694" data-name="Path 7694" d="M1535.824,1208.607c-13.309.172-65.218.007-67.908,0,1.01,0,8.818-.192,9.923-6.069a7.839,7.839,0,0,0,.129-1.49c0-1.15-.637-8.442-1.662-19.554-.916-9.965-2.15-23-3.533-37.429-5.354-55.91-12.924-132.715-12.924-132.715l67.159,1.744,11.015,130.971,2.15,25.563,1.933,23,.4,4.79S1544.408,1208.5,1535.824,1208.607Z" transform="translate(-1307.376 -916.135)" fill="#cecece"/>
        <path id="Path_7695" data-name="Path 7695" d="M1234.289,628.67l-37.76,151.675-5.17,20.773-17.586,70.645H847.04L911.86,628.67Z" transform="translate(-847.04 -628.67)" fill="#e3e3e3"/>
        <path id="Path_7696" data-name="Path 7696" d="M2220.736,628.67l5.235,1.744L2167.177,877.04l-6.958-5.277Z" transform="translate(-1833.486 -628.67)" fill="#d5d5d5"/>
        <path id="Path_7697" data-name="Path 7697" d="M1180.73,1610.967H856.007l-8.967-5.277h326.733Z" transform="translate(-847.04 -1362.597)" fill="#c1c1c1"/>
        <rect id="Rectangle_665" data-name="Rectangle 665" width="70.306" height="3.342" transform="translate(149.349 292.547)" fill="#8a8a8a"/>
        <path id="Path_7699" data-name="Path 7699" d="M1560.178,1755.894c-13.309.172-65.218.007-67.908,0,1.01,0,8.818-.192,9.922-6.068,5.347.276,35.073,1.224,64.268-9.915l.4,4.79S1568.762,1755.784,1560.178,1755.894Z" transform="translate(-1331.73 -1463.422)" fill="#aaa" opacity="0.4"/>
        <path id="Path_7700" data-name="Path 7700" d="M1838.275,1413.89l-11.88,47.722h-110c46.513-14.777,68.53-36.394,77.4-47.722Z" transform="translate(-1500.086 -1218.519)" fill="#aaa" opacity="0.4"/>
        <path id="Path_7701" data-name="Path 7701" d="M949.625,628.67,897.452,824.041h-.142L949.167,628.67Z" transform="translate(-884.802 -628.67)" fill="#9ed9f0"/>
        <path id="Path_7702" data-name="Path 7702" d="M1282.02,641.59l-46.6,192.157H913.86L966.078,641.59Z" transform="translate(-897.234 -638.375)" fill="#f3f3f3"/>
        <path id="Path_7703" data-name="Path 7703" d="M895.867,1413.89h3.976l-.8,2.928-3.847-.435Z" transform="translate(-883.217 -1218.519)" fill="#b2b2b2"/>
        <path id="Path_7704" data-name="Path 7704" d="M2396.526,628.67v3.215h-2.987l.778-3.215Z" transform="translate(-2008.754 -628.67)" fill="#c2c2c2"/>
      </g>
      <g id="Group_6225" data-name="Group 6225" transform="translate(250.071 118.698)">
        <path id="Path_7705" data-name="Path 7705" d="M1134.42,870.4h119.84l40.166-161.1h-119.84Z" transform="translate(-1134.42 -709.3)" fill="#fff"/>
        <g id="Group_6224" data-name="Group 6224" transform="translate(16.926 11.162)">
          <g id="Group_6219" data-name="Group 6219" transform="translate(12.101 30.509)" opacity="0.5">
            <g id="Group_6218" data-name="Group 6218" transform="translate(7.17)">
              <path id="Path_7706" data-name="Path 7706" d="M1300.175,994.879h79.388a2.453,2.453,0,0,0,2.234-1.789l.167-.672a1.354,1.354,0,0,0-1.344-1.789h-79.385a2.449,2.449,0,0,0-2.234,1.789l-.167.672A1.354,1.354,0,0,0,1300.175,994.879Z" transform="translate(-1294.081 -962.303)" fill="#d1d1d1"/>
              <path id="Path_7707" data-name="Path 7707" d="M1328.555,881.03h79.385a2.45,2.45,0,0,0,2.235-1.789l.166-.672A1.354,1.354,0,0,0,1409,876.78H1329.61a2.453,2.453,0,0,0-2.234,1.789l-.167.672A1.357,1.357,0,0,0,1328.555,881.03Z" transform="translate(-1315.398 -876.78)" fill="#d1d1d1"/>
              <path id="Path_7708" data-name="Path 7708" d="M1318.7,920.58h79.388a2.449,2.449,0,0,0,2.234-1.789l.167-.672a1.354,1.354,0,0,0-1.344-1.789h-79.388a2.452,2.452,0,0,0-2.235,1.789l-.167.672A1.355,1.355,0,0,0,1318.7,920.58Z" transform="translate(-1307.996 -906.489)" fill="#d1d1d1"/>
              <path id="Path_7709" data-name="Path 7709" d="M1309.437,957.73h79.388a2.452,2.452,0,0,0,2.234-1.789l.167-.672a1.354,1.354,0,0,0-1.344-1.789h-79.388a2.45,2.45,0,0,0-2.234,1.789l-.167.672A1.354,1.354,0,0,0,1309.437,957.73Z" transform="translate(-1301.037 -934.396)" fill="#d1d1d1"/>
              <path id="Path_7710" data-name="Path 7710" d="M1281.3,1070.6h79.386a2.45,2.45,0,0,0,2.234-1.789l.167-.672a1.354,1.354,0,0,0-1.344-1.789h-79.385a2.449,2.449,0,0,0-2.234,1.789l-.167.672A1.355,1.355,0,0,0,1281.3,1070.6Z" transform="translate(-1279.899 -1019.183)" fill="#d1d1d1"/>
              <path id="Path_7711" data-name="Path 7711" d="M1290.558,1033.449h79.388a2.452,2.452,0,0,0,2.234-1.788l.167-.672A1.354,1.354,0,0,0,1371,1029.2h-79.388a2.449,2.449,0,0,0-2.234,1.789l-.167.672A1.355,1.355,0,0,0,1290.558,1033.449Z" transform="translate(-1286.855 -991.276)" fill="#d1d1d1"/>
            </g>
            <path id="Path_7712" data-name="Path 7712" d="M1252.74,1187.35h19.28a2.91,2.91,0,0,0,2.655-2.125h0a1.608,1.608,0,0,0-1.595-2.125H1253.8a2.91,2.91,0,0,0-2.655,2.125h0A1.61,1.61,0,0,0,1252.74,1187.35Z" transform="translate(-1251.08 -1106.884)" fill="#d1d1d1"/>
            <path id="Path_7713" data-name="Path 7713" d="M1490.149,1187.35h19.283a2.911,2.911,0,0,0,2.655-2.125h0a1.608,1.608,0,0,0-1.595-2.125h-19.283a2.911,2.911,0,0,0-2.655,2.125h0A1.609,1.609,0,0,0,1490.149,1187.35Z" transform="translate(-1429.419 -1106.884)" fill="#d1d1d1"/>
          </g>
          <g id="Group_6220" data-name="Group 6220" transform="translate(0 120.061)">
            <path id="Path_7714" data-name="Path 7714" d="M1232.795,1250.479h-28.118a2.192,2.192,0,0,1-1.781-.811,2.32,2.32,0,0,1-.361-2.04l2.028-8.131a3.824,3.824,0,0,1,3.5-2.8h28.115a2.193,2.193,0,0,1,1.782.811,2.322,2.322,0,0,1,.361,2.04l-2.028,8.131A3.822,3.822,0,0,1,1232.795,1250.479Zm-24.74-13.55a3.588,3.588,0,0,0-3.277,2.625l-2.028,8.131a2.1,2.1,0,0,0,.321,1.846,1.977,1.977,0,0,0,1.6.724h28.118a3.588,3.588,0,0,0,3.277-2.625l2.028-8.131a2.106,2.106,0,0,0-.321-1.846,1.976,1.976,0,0,0-1.605-.724Z" transform="translate(-1202.446 -1236.7)" fill="#9b9b9b"/>
          </g>
          <g id="Group_6221" data-name="Group 6221" transform="translate(59.167 120.061)">
            <path id="Path_7715" data-name="Path 7715" d="M1470.594,1250.479h-28.118a2.194,2.194,0,0,1-1.781-.811,2.32,2.32,0,0,1-.36-2.04l2.028-8.131a3.825,3.825,0,0,1,3.5-2.8h28.118a2.194,2.194,0,0,1,1.782.811,2.322,2.322,0,0,1,.36,2.04l-2.027,8.131A3.823,3.823,0,0,1,1470.594,1250.479Zm-24.739-13.55a3.589,3.589,0,0,0-3.277,2.625l-2.028,8.131a2.1,2.1,0,0,0,.321,1.846,1.976,1.976,0,0,0,1.6.724h28.118a3.587,3.587,0,0,0,3.277-2.625l2.028-8.131a2.1,2.1,0,0,0-.321-1.846,1.969,1.969,0,0,0-1.6-.724Z" transform="translate(-1440.246 -1236.7)" fill="#b8b8b8"/>
          </g>
          <g id="Group_6222" data-name="Group 6222" transform="translate(37.907)">
            <path id="Path_7716" data-name="Path 7716" d="M1355.1,759.457a7.833,7.833,0,0,1,7.079-5.3,3.627,3.627,0,0,1,3.419,1.669l-1.856,1.55a2.493,2.493,0,0,0-2.26-1.142,4.6,4.6,0,0,0-4.028,3.219c-.577,1.757.159,3.22,1.916,3.22a5.158,5.158,0,0,0,3.088-1.2l.93,1.537a7.123,7.123,0,0,1-4.772,1.742C1355.6,764.754,1354.124,762.428,1355.1,759.457Z" transform="translate(-1354.8 -754.16)"/>
            <path id="Path_7717" data-name="Path 7717" d="M1397.364,759.457a7.969,7.969,0,0,1,7.2-5.3c3.163,0,4.658,2.356,3.693,5.3a7.97,7.97,0,0,1-7.2,5.3C1397.893,764.754,1396.4,762.4,1397.364,759.457Zm8.532,0c.577-1.756-.232-3.219-2.048-3.219a4.628,4.628,0,0,0-4.13,3.219c-.577,1.757.232,3.22,2.048,3.22A4.629,4.629,0,0,0,1405.9,759.457Z" transform="translate(-1386.555 -754.16)"/>
            <path id="Path_7718" data-name="Path 7718" d="M1446.671,754.86h2.078l2.732,6.308,2.07-6.308h2.224l-3.362,10.246H1450.5l-2.824-6.514-2.137,6.514h-2.224Z" transform="translate(-1421.288 -754.686)"/>
            <path id="Path_7719" data-name="Path 7719" d="M1500.727,756.938h-3.117l.681-2.077h8.49l-.682,2.077h-3.118l-2.68,8.166h-2.255Z" transform="translate(-1462.078 -754.686)"/>
            <path id="Path_7720" data-name="Path 7720" d="M1531.261,754.86h4.683a2.994,2.994,0,0,1,2.645,1.04,2.677,2.677,0,0,1,.1,2.371,4.906,4.906,0,0,1-3.237,3.175l1.3,3.66h-2.635l-1.15-3.279h-1.742l-1.075,3.279H1527.9Zm2.907,4.976a2.2,2.2,0,0,0,2.212-1.478c.316-.965-.194-1.463-1.291-1.463h-2.24l-.965,2.941Z" transform="translate(-1484.83 -754.686)"/>
            <path id="Path_7721" data-name="Path 7721" d="M1574.686,754.56h2.077l1.005,10.318h-2.356l-.182-2.3H1570.9l-1.689,2.3h-2.3Zm.393,6.031-.271-3.322-2.451,3.322Z" transform="translate(-1514.135 -754.46)"/>
            <path id="Path_7722" data-name="Path 7722" d="M1618.292,759.457a7.832,7.832,0,0,1,7.081-5.3,3.63,3.63,0,0,1,3.419,1.669l-1.856,1.55a2.493,2.493,0,0,0-2.26-1.142,4.6,4.6,0,0,0-4.028,3.219c-.577,1.757.159,3.22,1.916,3.22a5.155,5.155,0,0,0,3.087-1.2l.931,1.537a7.123,7.123,0,0,1-4.772,1.742C1618.794,764.754,1617.319,762.428,1618.292,759.457Z" transform="translate(-1552.509 -754.16)"/>
            <path id="Path_7723" data-name="Path 7723" d="M1668.618,756.938H1665.5l.682-2.077h8.489l-.682,2.077h-3.117l-2.68,8.166h-2.255Z" transform="translate(-1588.194 -754.686)"/>
          </g>
          <path id="Path_7724" data-name="Path 7724" d="M1500.452,1232.232q-6.408,2.646-12.717,5.785.25-.706.448-1.416c.107-.378-.406-.632-.721-.214-.14.184-.289.361-.446.53.107-.339-.293-.528-.637-.281l-.065.052c.167-.455-.542-.525-.809-.082l-.4.659a2.779,2.779,0,0,1-1.274.851,2.134,2.134,0,0,1-.186-.709.315.315,0,0,0-.328-.3c-.008-.231-.217-.368-.525-.231a2.851,2.851,0,0,0-.968.714c-.212-.393-.886-.112-1.249.266l.03-.065c.172-.366-.147-.781-.575-.413a5.184,5.184,0,0,0-1.573,2.3,8.924,8.924,0,0,1-.8.794c-.139.12-.791.724-.94.672s-.067-.426,0-.689c.022-.032.047-.064.069-.1.542-.754,3.155-4.3,1.314-4.272a.666.666,0,0,0-.513.311,12.268,12.268,0,0,0-1.508,3.215c-.06.209-.144.478-.214.761-.053.072-.107.144-.162.214a8.4,8.4,0,0,1-2.926,2.814c-.11-1.5.647-3.277,1.222-4.852q.37-1.019.771-2.035a.564.564,0,0,0,.254-.132c1.281-1.077,1.8-2.675,1.224-3.749-.167-.309-.677-.028-.824.3-.881,1.978-1.685,3.963-2.4,5.954-.632,1.764-1.351,3.631-1.087,5.258.027.172.229.236.415.194a6.88,6.88,0,0,0,3.476-2.695.568.568,0,0,0,.37.327c.63.186,1.488-.513,2.105-1.1a2.493,2.493,0,0,0,.11.595c.067.206.281.254.532.152a4.9,4.9,0,0,0,1.59-1.062,3.447,3.447,0,0,0,1.592-1.276,8.736,8.736,0,0,0,.784-.781,1.193,1.193,0,0,0,.219.4c.229.264.809.025,1.179-.144a3.893,3.893,0,0,0,.973-.639,1.976,1.976,0,0,0,.67-.182.53.53,0,0,0,.159.167.7.7,0,0,0,.771-.072c-.06.172-.122.343-.189.515q-.918.463-1.837.938c-.4.209-.5.826-.045.792.562-.042,1.122-.085,1.684-.13a.673.673,0,0,0,.565-.425c.1-.224.194-.45.286-.674q6.587-3.3,13.294-6.074C1501.211,1232.73,1501.019,1232,1500.452,1232.232Zm-19.569,6.462a2.784,2.784,0,0,1-.139.351c-.038.079-.079.156-.125.234A3.031,3.031,0,0,1,1480.883,1238.694Zm-1.237,1.055a1.05,1.05,0,0,0-.015.639,3.789,3.789,0,0,1-.42.279,2.494,2.494,0,0,1,.047-.786c.194-.229.378-.468.548-.709A4.176,4.176,0,0,0,1479.646,1239.749Z" transform="translate(-1404.846 -1113.249)"/>
          <g id="Group_6223" data-name="Group 6223" transform="translate(7.127 116.178)">
            <path id="Path_7725" data-name="Path 7725" d="M1240.979,1221.28c-1.513,2.809-2.359,5.7-3.588,8.536a22.792,22.792,0,0,1-2.219,4.078c-.637.911-2.028,2.891-3.2,2.463-.293-.107-.376-.359-.279-.7.02-.075.047-.154.075-.231a.653.653,0,0,0,.612-.072,2.188,2.188,0,0,0,.868-.968c.177-.383.149-.781-.159-.95a.869.869,0,0,0-.96.269,3.168,3.168,0,0,0-.614,1.087,3.385,3.385,0,0,0-.416,1.366c.042.65.744.878,1.428.729a4.348,4.348,0,0,0,2.127-1.57,18.586,18.586,0,0,0,1.744-2.458,34.01,34.01,0,0,0,2.433-5.295,52.12,52.12,0,0,1,2.615-6.146C1241.619,1221.091,1241.158,1220.949,1240.979,1221.28Zm-8.186,12.762c.053.2-.141.46-.3.642a1.025,1.025,0,0,1-.179.177.566.566,0,0,1-.127.074.153.153,0,0,0-.04.01.174.174,0,0,0-.159-.089c.067-.15.134-.3.2-.436C1232.291,1234.211,1232.686,1233.624,1232.793,1234.042Z" transform="translate(-1231.091 -1221.092)"/>
            <path id="Path_7726" data-name="Path 7726" d="M1269.315,1254.913a3.336,3.336,0,0,1-.96.4.883.883,0,0,1-.246.007,1.552,1.552,0,0,0,.475-.744c.057-.408-.393-.5-.771-.291a1.17,1.17,0,0,0-.582.879.6.6,0,0,0,.047.289,2.136,2.136,0,0,1-1.239.5,4.5,4.5,0,0,0,1.14-1.127.237.237,0,0,0,.017-.256.753.753,0,0,0-.961-.074,1.916,1.916,0,0,0-.823.993,1.473,1.473,0,0,0-.1.363,2.849,2.849,0,0,1-1.219.276v-.008c.127-.12.254-.239.375-.361.184-.184.075-.373-.1-.4a.787.787,0,0,0-.784.612,11.819,11.819,0,0,1-1.931,1.4c-.172.1-.4.3-.518.172a5.976,5.976,0,0,0,.784-.692c.465-.49.923-1.364.375-1.667a.32.32,0,0,0-.391.094l-.724.963a4.1,4.1,0,0,0-.557.863,1.185,1.185,0,0,0-.08.3,5.3,5.3,0,0,1-.766.4c-.02.01-.043.017-.065.027.141-.114.284-.226.425-.343a1.774,1.774,0,0,0,.784-1.159,1.3,1.3,0,0,0-.505-.971c-.07-.067-.231-.035-.331.043a5.2,5.2,0,0,0-1.717,2.2.865.865,0,0,0-.025.721q-1.03.788-2.088,1.538c-.074.052-.256.219-.328.194s-.04-.182-.04-.257a5.312,5.312,0,0,1,.032-.59,5.944,5.944,0,0,1,.321-1.321,7.285,7.285,0,0,1,.535-1.142.279.279,0,0,0,.293-.054,1.8,1.8,0,0,0,.742-1.525c-.017-.184-.316-.157-.453,0a7.4,7.4,0,0,0-2.02,4.936c.015.353.177.652.649.453a3.353,3.353,0,0,0,.615-.393q.385-.276.769-.555.72-.526,1.43-1.067a2.451,2.451,0,0,0,.846-.189,5.844,5.844,0,0,0,.975-.468.49.49,0,0,0,.513.244,2.675,2.675,0,0,0,.856-.433c.286-.172.567-.353.841-.55s.523-.391.774-.6c.058.079.157.1.331.11a2.925,2.925,0,0,0,.722-.077,3.831,3.831,0,0,0,.779-.274.468.468,0,0,0,.127.087,1.408,1.408,0,0,0,1.055-.064,4.091,4.091,0,0,0,.993-.557.986.986,0,0,0,.291.077,2.915,2.915,0,0,0,1.538-.473C1269.775,1255.184,1269.661,1254.729,1269.315,1254.913Zm-10.288,2.38a4.5,4.5,0,0,1,1.095-1.358.615.615,0,0,1,.107.856,3.241,3.241,0,0,1-.567.5c-.216.172-.433.344-.652.515l-.172.132C1258.76,1257.789,1258.945,1257.456,1259.027,1257.293Zm2.953-1.386a2.176,2.176,0,0,1-.565.808c-.035.035-.069.068-.107.1C1261.505,1256.51,1261.746,1256.206,1261.98,1255.908Zm4.6-1.04a3.578,3.578,0,0,1-.67.63C1266.043,1255.194,1266.362,1254.85,1266.576,1254.868Zm1.262-.015c.032-.052.181-.221.157-.107a.923.923,0,0,1-.214.264A.433.433,0,0,1,1267.837,1254.853Z" transform="translate(-1249.301 -1245.943)"/>
          </g>
        </g>
      </g>
      <g id="Group_6249" data-name="Group 6249" transform="translate(19.913 119.08)">
        <path id="Path_7755" data-name="Path 7755" d="M599.576,1709.538l5.872-.079s-8.83-9.8-11.542-14.79l-7.454-13.769-9.761,2.413,12.388,17.554Z" transform="translate(-485.302 -1439.538)" fill="#e49963"/>
        <path id="Path_7756" data-name="Path 7756" d="M268.575,712.881a12.655,12.655,0,0,0-6.835-1.309,3.178,3.178,0,0,1,1.441-.684c-1.169-.174-3.782.988-3.782.988-16.277-6.273-18.835,17.7-18.494,23.261s-5.469,7.385-13.938,11.771c-16.158,8.37-17.576,19.579-17.576,19.579.127.075.256.159.4.254.8-1.359,2.451-3.909,3.844-4.295a57.932,57.932,0,0,0-2.239,5.452c4.767,3.625,13.685,11.662,19.9,17.357a9.16,9.16,0,0,1,.423-3.528l.769,4.623c3.327,3.058,5.618,5.208,5.618,5.208-.411-4.5,20.35-28.245,31.181-35.356,2.637-3.881,3.573-10.739,3.645-11.278-.455,5.436-1.386,8.487-2.217,10.2C279.881,746.691,274.541,716.269,268.575,712.881Z" transform="translate(-209.39 -710.837)"/>
        <path id="Path_7757" data-name="Path 7757" d="M401.222,846.2c.055.025-5.23,2.767-9.2,1.682-3.74-1.02-6.18-5.867-6.131-5.877,1.582-.314,2.04-2.491,2.005-11.838l.717.142,12.035,2.384s-.274,3.787-.281,7.355C400.356,843.041,400.538,845.882,401.222,846.2Z" transform="translate(-341.973 -800.479)" fill="#e49963"/>
        <path id="Path_7758" data-name="Path 7758" d="M392.83,726.043s5.937-6.32,13.391-.324C406.218,725.719,401.882,724.971,392.83,726.043Z" transform="translate(-347.188 -720.076)" fill="#ececec"/>
        <path id="Path_7759" data-name="Path 7759" d="M408.872,833.1s-.274,3.787-.281,7.355c-6.735-.189-10.293-6.332-11.751-9.738Z" transform="translate(-350.2 -800.892)" fill="#d68d5d"/>
        <path id="Path_7760" data-name="Path 7760" d="M378.315,750.8s-3.528-5.576-4.377-10.346c-.6-3.4,1.13-16.023,13.809-14.2a17.22,17.22,0,0,1,7.143,2.7c2.752,1.859,6.725,5.874,2.284,16.884l-1.154,3.72Z" transform="translate(-332.919 -722.283)"/>
        <path id="Path_7761" data-name="Path 7761" d="M431.741,1300.17l-6.379.2-6.9.212s-15.949-17.758-24.9-46.224c-.209-.662-.428-1.331-.662-2.008-4.9-14.277-15.045-32.2-20.395-48.416-.851-2.583-1.615-5.016-2.3-7.318-.219-.737-.433-1.461-.637-2.175a172.149,172.149,0,0,1-6.136-32.3l34.154.274A1045.43,1045.43,0,0,0,431.741,1300.17Z" transform="translate(-325.103 -1049.85)"/>
        <path id="Path_7762" data-name="Path 7762" d="M395.747,923.048c.453,18.375,2.7,26.265,2.7,26.265a51.9,51.9,0,0,1-36.192,2.217c-.231-.072,1.274-75.93,6.847-78.02,1.281,1.6,5.1,3.15,8.5,3.073,3.916-.087,5.185-1.761,4.981-3.593C386.755,875.314,395.1,896.739,395.747,923.048Z" transform="translate(-324.201 -832.645)" fill="#e9e9e9"/>
        <path id="Path_7763" data-name="Path 7763" d="M405.565,772.711s-15.934.263-15.944-9.661-2.075-16.576,8.1-17.163,12.154,3.2,12.963,6.509S409.71,772.388,405.565,772.711Z" transform="translate(-344.643 -737.12)" fill="#e49963"/>
        <path id="Path_7764" data-name="Path 7764" d="M394.739,740.234c-2.458-2.981-4.317-2.331-5.362-1.438-3.444-5.146-14.326,2.3-14.326,2.3a21.042,21.042,0,0,0-6.2,11.2s2.9,1.794,9.6.072c5.27-1.356,9.092-8.855,10.482-11.987.948.841,2.946,2.789,3.546,4.695.794,2.528,1.152,7.731,2.667,7.554C395.144,752.625,398.431,744.711,394.739,740.234Z" transform="translate(-329.175 -730.478)"/>
        <path id="Path_7765" data-name="Path 7765" d="M711.93,898.757s2.247-8.1,11.147-6.952c1.02.321,4.006,1.51,2.1,4.7-1.406,2.356-2.015,1.14-4.227,4.3s-4.613,3.879-7.355,3.5Z" transform="translate(-586.893 -846.695)" fill="#e49963"/>
        <path id="Path_7766" data-name="Path 7766" d="M368.671,1713.9c-.542-2.983-1.575-8.139-1.575-8.139l.239-18.3H356.22l4.158,17.514a17.848,17.848,0,0,1-.853,7.315s-1.067,4.862,3.722,4.954S369.213,1716.882,368.671,1713.9Z" transform="translate(-319.687 -1444.466)" fill="#e49963"/>
        <path id="Path_7767" data-name="Path 7767" d="M367.776,1786.874s-.948,5.133-.408,7.574H377.43s.042-5.573-.839-7.7C376.594,1786.75,373.2,1791.845,367.776,1786.874Z" transform="translate(-327.936 -1519.051)" fill="#707070"/>
        <path id="Path_7768" data-name="Path 7768" d="M632.5,1761.4a.47.47,0,0,1-.1-.052,8.556,8.556,0,0,1-6.862-3.2c-6.524-7.35-10.189-8.171-11.47-8.169-1.1,2.269-2.316,4.82-.752,7.694l2.336,9.151h2.518l.025-8.641a5.93,5.93,0,0,1,4,2.672c1.762,3.526,2.986,5.966,4.623,5.966H638.14S637.921,1763.844,632.5,1761.4Z" transform="translate(-512.257 -1491.43)" fill="#707070"/>
        <path id="Path_7769" data-name="Path 7769" d="M510.694,884.714s-10.458,5.847-14.195,7.534c-2.13.96-7.031,3.257-10.485,4.879a5.388,5.388,0,0,1-6.387-1.376c-5.67-6.623-20.36-20.987-35.52-22.751l.02.037L444.04,873s9.218,22.774,9.49,27.382,1.085,75.367,1.085,75.367-.542,3.254,5.693,1.9,7.863-2.712,7.863-2.712-5.964-43.649-4.337-58.831a33.758,33.758,0,0,0-.644-9.831,77.6,77.6,0,0,0,20.164,8.114,113.1,113.1,0,0,0,19.34-11.749c3.506-2.568,9.666-12.366,9.666-12.366Z" transform="translate(-385.656 -832.652)" fill="#d8d8d8"/>
        <path id="Path_7770" data-name="Path 7770" d="M443.9,1384.846l-6.9.211s-15.949-17.757-24.9-46.224c-.209-.662-.428-1.331-.662-2.008-4.9-14.277-15.046-32.2-20.4-48.416-.851-2.583-1.615-5.016-2.3-7.317-.219-.737-.433-1.461-.637-2.175l5.688-4.317s17.076,27.653,22.363,53.676C420.741,1350.88,439.134,1378.081,443.9,1384.846Z" transform="translate(-343.635 -1134.33)" fill="#3b3b3b"/>
        <path id="Path_7771" data-name="Path 7771" d="M484.032,1011.712l-.336,1.03-17.877-5.81a.692.692,0,0,1-.115-.637.507.507,0,0,1,.448-.4Z" transform="translate(-401.904 -932.485)" fill="#9a9a9a"/>
        <path id="Path_7772" data-name="Path 7772" d="M324.029,1308.524c.1,12.655-.542,41.75-2.19,53.8h-6.116c-3.381,0-5.068-.05-5.068-.05-4.135-20.942-7.076-38.272-9.219-53.206-1.757-12.254-3.319-22.759-4.518-31.8-1.209-9.1-2.05-16.723-2.351-23.162q-.071-1.519-.1-2.958t-.017-2.807l33.373-3.255C327.4,1267.259,323.974,1301.169,324.029,1308.524Z" transform="translate(-273.284 -1112.155)"/>
        <path id="Path_7773" data-name="Path 7773" d="M316.076,1389.55c-3.381,0-5.068-.05-5.068-.05-4.135-20.943-7.076-38.272-9.218-53.205-1.757-12.254-3.319-22.759-4.518-31.8-1.209-9.1-2.05-16.723-2.351-23.162l12.247,7.2s-7.815,2.757-4.834,23.632S311.926,1386.6,316.076,1389.55Z" transform="translate(-273.639 -1139.385)" fill="#3b3b3b"/>
        <path id="Path_7774" data-name="Path 7774" d="M295.163,975.973s-2.351,8.494-10.485,7.41-19.7-5.964-19.7-5.964,3.476-10.983,7.8-25.411c5.232-17.466,11.709-39.986,14.762-54.188a87.94,87.94,0,0,0,1.659-9.684l6.847-13.035s9.96,22.525,10.5,28.218S295.163,975.973,295.163,975.973Z" transform="translate(-251.149 -834.229)" fill="#d8d8d8"/>
        <path id="Path_7775" data-name="Path 7775" d="M318.345,983.827c-.363,9.219-2.533,27.11-21.87,36.69-.052.025-.1.052-.154.072,5.232-17.466,11.709-39.986,14.762-54.188C314.632,971.709,318.541,978.751,318.345,983.827Z" transform="translate(-274.691 -902.813)" fill="#c8c8c8"/>
        <path id="Path_7776" data-name="Path 7776" d="M419.855,1013.5c-.01,1.1-3.2,8.808-8.813,13.408a6.11,6.11,0,0,1-2.652,1.443,116.7,116.7,0,0,1-23.52,5.546v-10.2c7.957-.51,17.76-1.042,21.8-1.259a11.916,11.916,0,0,0,1.7-4.068c.483-2.806,1.985-4.887,5.9-5.4S419.865,1012.4,419.855,1013.5Z" transform="translate(-341.209 -937.532)" fill="#e49963"/>
        <g id="Group_6248" data-name="Group 6248" transform="translate(123.123 41.97)">
          <path id="Path_7777" data-name="Path 7777" d="M715.47,881.392l18.078,11.756a1.04,1.04,0,0,1,.316.926l-8.7,29.437c-.122.413-.54.48-.885.224L706.744,910.6c-.2-.152-.356-.321-.286-.567l7.987-28.178A.759.759,0,0,1,715.47,881.392Z" transform="translate(-705.892 -880.866)" fill="#777"/>
          <path id="Path_7778" data-name="Path 7778" d="M713.177,879.618l18.236,11.871a.617.617,0,0,1,.254.692l-8.7,29.437a.615.615,0,0,1-.96.318L704.483,908.8a.617.617,0,0,1-.224-.662l7.987-28.178A.619.619,0,0,1,713.177,879.618Z" transform="translate(-704.236 -879.518)" fill="#a7a7a7"/>
          <path id="Path_7779" data-name="Path 7779" d="M718.554,885.12l17.69,11.286-8.032,25.914L711.54,910.255Z" transform="translate(-709.723 -883.726)" fill="#fff"/>
          <path id="Path_7780" data-name="Path 7780" d="M734.24,1010.1a.724.724,0,1,1,.724.724A.725.725,0,0,1,734.24,1010.1Z" transform="translate(-726.775 -977.069)" fill="#919191"/>
          <g id="Group_6247" data-name="Group 6247" transform="translate(6.291 4.778)">
            <path id="Path_7781" data-name="Path 7781" d="M738.052,928.5l-8.532-5.964L735.4,898.72l8.532,5.962Z" transform="translate(-729.52 -898.72)" fill="#fff"/>
            <g id="Group_6246" data-name="Group 6246" transform="translate(1.703 2.724)">
              <g id="Group_6241" data-name="Group 6241" transform="translate(1.085 4.408)" opacity="0.5">
                <g id="Group_6240" data-name="Group 6240" transform="translate(1.028)">
                  <path id="Path_7782" data-name="Path 7782" d="M753.35,948.809l-5.653-3.951a.374.374,0,0,1-.062-.353l.025-.1c.035-.144.122-.224.191-.177l5.653,3.951a.373.373,0,0,1,.062.353l-.025.1C753.506,948.78,753.419,948.859,753.35,948.809Z" transform="translate(-746.933 -940.027)" fill="#afafaf"/>
                  <path id="Path_7783" data-name="Path 7783" d="M757.51,931.978l-5.653-3.951a.374.374,0,0,1-.062-.353l.025-.1c.035-.147.122-.224.192-.177l5.653,3.951a.374.374,0,0,1,.062.353l-.025.1C757.666,931.949,757.579,932.026,757.51,931.978Z" transform="translate(-750.058 -927.384)" fill="#afafaf"/>
                  <path id="Path_7784" data-name="Path 7784" d="M756.06,937.819l-5.653-3.951a.374.374,0,0,1-.062-.353l.025-.1c.035-.144.122-.224.192-.177l5.653,3.951a.374.374,0,0,1,.062.353l-.025.1C756.216,937.79,756.132,937.869,756.06,937.819Z" transform="translate(-748.968 -931.772)" fill="#afafaf"/>
                  <path id="Path_7785" data-name="Path 7785" d="M754.709,943.319l-5.653-3.951a.373.373,0,0,1-.062-.353l.025-.1c.035-.144.122-.224.194-.177l5.653,3.951a.374.374,0,0,1,.062.353l-.025.1C754.866,943.289,754.779,943.367,754.709,943.319Z" transform="translate(-747.954 -935.903)" fill="#afafaf"/>
                  <path id="Path_7786" data-name="Path 7786" d="M750.59,960.009l-5.653-3.951a.375.375,0,0,1-.062-.353l.025-.1c.035-.144.122-.224.192-.177l5.653,3.951a.375.375,0,0,1,.062.353l-.025.1C750.746,959.977,750.659,960.057,750.59,960.009Z" transform="translate(-744.859 -948.441)" fill="#afafaf"/>
                  <path id="Path_7787" data-name="Path 7787" d="M751.94,954.509l-5.653-3.951a.374.374,0,0,1-.062-.353l.025-.1c.035-.144.122-.224.191-.176l5.653,3.951a.374.374,0,0,1,.062.353l-.025.1C752.1,954.479,752.009,954.559,751.94,954.509Z" transform="translate(-745.873 -944.309)" fill="#afafaf"/>
                </g>
                <path id="Path_7788" data-name="Path 7788" d="M759.1,986.219l-1.373-.96a.442.442,0,0,1-.075-.421h0c.043-.172.147-.266.229-.209l1.373.96a.442.442,0,0,1,.075.421h0C759.288,986.185,759.186,986.277,759.1,986.219Z" transform="translate(-753.43 -970.374)" fill="#afafaf"/>
                <path id="Path_7789" data-name="Path 7789" d="M742.193,974.409l-1.374-.96a.442.442,0,0,1-.075-.421h0c.042-.172.147-.266.229-.209l1.373.961a.442.442,0,0,1,.075.42h0C742.38,974.372,742.278,974.467,742.193,974.409Z" transform="translate(-740.727 -961.502)" fill="#afafaf"/>
              </g>
              <g id="Group_6242" data-name="Group 6242" transform="translate(4.212 20.47)">
                <path id="Path_7790" data-name="Path 7790" d="M755.494,995.413a.115.115,0,0,1-.072-.025l-2-1.4a.576.576,0,0,1-.1-.55l.3-1.2c.045-.177.139-.3.239-.3a.127.127,0,0,1,.075.025l2,1.4a.576.576,0,0,1,.1.55l-.3,1.2C755.688,995.294,755.591,995.413,755.494,995.413Zm-1.64-3.446c-.085,0-.174.115-.214.279l-.3,1.2a.553.553,0,0,0,.09.522l2,1.4a.106.106,0,0,0,.06.02c.084,0,.174-.115.214-.279l.3-1.2a.554.554,0,0,0-.089-.523l-2-1.4A.116.116,0,0,0,753.854,991.967Z" transform="translate(-753.296 -991.94)" fill="#476ba7"/>
              </g>
              <g id="Group_6243" data-name="Group 6243" transform="translate(0 17.527)">
                <path id="Path_7791" data-name="Path 7791" d="M738.564,983.583a.116.116,0,0,1-.072-.025l-2-1.4a.576.576,0,0,1-.1-.55l.3-1.2c.045-.176.139-.3.239-.3a.115.115,0,0,1,.072.025l2,1.4a.578.578,0,0,1,.1.55l-.3,1.2C738.758,983.464,738.661,983.583,738.564,983.583Zm-1.64-3.446c-.085,0-.174.115-.214.279l-.3,1.2a.552.552,0,0,0,.089.522l2,1.4a.113.113,0,0,0,.06.02c.085,0,.174-.114.214-.279l.3-1.2a.554.554,0,0,0-.09-.523l-2-1.4A.1.1,0,0,0,736.924,980.137Z" transform="translate(-736.366 -980.11)" fill="#476ba7"/>
              </g>
              <g id="Group_6244" data-name="Group 6244" transform="translate(4.753)">
                <path id="Path_7792" data-name="Path 7792" d="M755.519,910.233c.107-.431.351-.674.575-.517a.642.642,0,0,1,.221.443l-.152.162a.444.444,0,0,0-.147-.3c-.122-.087-.264.065-.328.328s-.03.537.095.624c.082.057.152.025.236-.042l.045.3a.248.248,0,0,1-.363.047A1.051,1.051,0,0,1,755.519,910.233Z" transform="translate(-755.469 -909.668)" fill="#232323"/>
                <path id="Path_7793" data-name="Path 7793" d="M758.532,912.347c.107-.431.356-.669.582-.513a1.068,1.068,0,0,1,.194,1.052c-.107.431-.358.669-.582.512A1.054,1.054,0,0,1,758.532,912.347Zm.607.425a.647.647,0,0,0-.1-.63c-.129-.09-.271.06-.336.324a.653.653,0,0,0,.1.629C758.932,913.185,759.074,913.036,759.139,912.772Z" transform="translate(-757.733 -911.259)" fill="#232323"/>
                <path id="Path_7794" data-name="Path 7794" d="M761.993,913.58l.147.1.112,1.172.231-.933.159.112-.373,1.515-.137-.094-.114-1.209-.239.963-.159-.11Z" transform="translate(-760.09 -912.607)" fill="#232323"/>
                <path id="Path_7795" data-name="Path 7795" d="M765.9,916.2l-.221-.154.077-.309.6.423-.077.309-.222-.154-.3,1.207-.162-.112Z" transform="translate(-763.079 -914.229)" fill="#232323"/>
                <path id="Path_7796" data-name="Path 7796" d="M768.013,917.79l.333.234a.446.446,0,0,1,.174.3.944.944,0,0,1-.025.393c-.06.244-.162.353-.271.361l.045.664-.186-.132-.04-.594-.124-.087-.12.485-.159-.112Zm.142.96c.077.055.144,0,.177-.132a.272.272,0,0,0-.072-.3l-.16-.112-.107.435Z" transform="translate(-764.612 -915.769)" fill="#232323"/>
                <path id="Path_7797" data-name="Path 7797" d="M771.092,920.56l.147.1-.065,1.744-.167-.117.018-.386-.309-.216-.152.294-.164-.114Zm-.05,1.01.025-.56-.219.423Z" transform="translate(-766.685 -917.85)" fill="#232323"/>
                <path id="Path_7798" data-name="Path 7798" d="M774.259,923.333c.107-.431.351-.674.575-.518a.641.641,0,0,1,.221.443l-.152.162a.445.445,0,0,0-.147-.3c-.122-.087-.264.065-.328.328s-.03.537.095.625c.082.057.152.025.236-.042l.045.3a.248.248,0,0,1-.363.047A1.054,1.054,0,0,1,774.259,923.333Z" transform="translate(-769.546 -919.509)" fill="#232323"/>
                <path id="Path_7799" data-name="Path 7799" d="M777.866,924.56l-.221-.154.077-.306.6.423-.075.308-.221-.154-.3,1.207-.162-.112Z" transform="translate(-772.071 -920.509)" fill="#232323"/>
              </g>
              <path id="Path_7800" data-name="Path 7800" d="M758.157,993.96a6.809,6.809,0,0,0-.983.316c.017-.069.035-.139.05-.209s-.02-.124-.047-.072a.515.515,0,0,1-.04.065c.013-.05-.015-.1-.042-.077l-.005.005c.018-.067-.032-.115-.057-.055l-.037.09a.135.135,0,0,1-.1.077,1.025,1.025,0,0,1,0-.124.072.072,0,0,0-.02-.065c0-.037-.01-.072-.035-.065a.157.157,0,0,0-.077.07c-.01-.075-.062-.062-.092-.017,0,0,0-.005,0-.01.017-.052,0-.134-.035-.1a.71.71,0,0,0-.142.3.935.935,0,0,1-.067.09c-.013.013-.065.079-.077.062a.234.234,0,0,1,.01-.112l.007-.013c.047-.1.281-.55.149-.637-.015-.01-.03,0-.04.025a2.407,2.407,0,0,0-.149.453c-.007.032-.017.072-.025.115,0,.01-.01.017-.015.027-.065.122-.154.3-.246.316a3.587,3.587,0,0,1,.152-.736c.028-.1.055-.2.082-.3.005,0,.012,0,.02-.01a.747.747,0,0,0,.137-.555c-.007-.06-.047-.037-.062.007-.09.281-.172.568-.249.858a3.335,3.335,0,0,0-.147.809c0,.03.012.05.027.052.1.02.2-.12.284-.269a.146.146,0,0,0,.022.072c.042.062.112-.01.164-.075a.694.694,0,0,0,0,.1c0,.037.017.055.035.052a.235.235,0,0,0,.127-.095c.047,0,.09-.057.129-.129.022-.028.045-.058.067-.09a.693.693,0,0,0,.01.077c.013.055.057.045.087.035a.187.187,0,0,0,.077-.057.059.059,0,0,0,.05,0,.15.15,0,0,0,.01.035c.015.037.035.04.055.027-.007.025-.012.05-.02.075l-.142.062c-.032.015-.047.112-.015.127l.122.063c.017.01.035-.008.045-.043l.03-.1a6.734,6.734,0,0,1,1.028-.336C758.2,994.08,758.2,993.95,758.157,993.96Zm-1.478.087c-.005.017-.01.035-.015.05s-.007.022-.012.032C756.659,994.1,756.669,994.075,756.679,994.047Zm-.1.112a.405.405,0,0,0-.01.1.17.17,0,0,1-.035.025.73.73,0,0,1,.015-.127.752.752,0,0,0,.047-.089C756.587,994.1,756.582,994.132,756.577,994.159Z" transform="translate(-751.092 -972.104)" fill="#5a5a5a"/>
              <g id="Group_6245" data-name="Group 6245" transform="translate(0.638 17.522)">
                <path id="Path_7801" data-name="Path 7801" d="M739.83,980.111c-.144.386-.244.819-.368,1.224a3.775,3.775,0,0,1-.211.56c-.057.117-.182.373-.261.244a.17.17,0,0,1-.01-.129c0-.013.005-.023.007-.035a.029.029,0,0,0,.045.017.212.212,0,0,0,.075-.114.246.246,0,0,0,0-.164c-.017-.038-.047-.038-.072,0a.477.477,0,0,0-.057.147.789.789,0,0,0-.047.2c0,.109.042.181.092.191s.124-.072.172-.152a2.482,2.482,0,0,0,.157-.316,6.915,6.915,0,0,0,.244-.749c.082-.3.164-.6.266-.878C739.877,980.111,739.845,980.064,739.83,980.111Zm-.751,1.687a.167.167,0,0,1-.03.089.119.119,0,0,1-.015.02.019.019,0,0,1-.01.005h0c0-.012,0-.02-.01-.022.008-.02.013-.042.02-.062S739.076,981.723,739.078,981.8Z" transform="translate(-738.929 -980.091)" fill="#5a5a5a"/>
                <path id="Path_7802" data-name="Path 7802" d="M741.756,986.259a.1.1,0,0,1-.075.017.066.066,0,0,1-.018-.01.23.23,0,0,0,.045-.1c.01-.065-.022-.1-.052-.087a.207.207,0,0,0-.052.164c-.027.022-.072.047-.095.02a.363.363,0,0,0,.1-.13.08.08,0,0,0,.005-.042c-.01-.052-.037-.072-.067-.059s-.055.067-.072.122a.41.41,0,0,0-.012.054.1.1,0,0,1-.09-.015h0l.032-.04a.063.063,0,0,0,0-.07c-.027-.027-.052.012-.065.062a.641.641,0,0,1-.157.134c-.012.007-.032.03-.04,0a.4.4,0,0,0,.065-.075.308.308,0,0,0,.05-.256c0-.012-.02-.022-.03-.005-.022.04-.042.082-.065.122a.6.6,0,0,0-.052.115.275.275,0,0,0-.01.045.205.205,0,0,1-.06.027h0l.035-.035a.237.237,0,0,0,.072-.152.49.49,0,0,0-.023-.184c0-.015-.015-.017-.025-.01a.617.617,0,0,0-.152.276.319.319,0,0,0-.012.117c-.055.052-.112.1-.169.149,0,0-.02.022-.025.015s0-.032,0-.045c0-.032.005-.065.01-.095a1.744,1.744,0,0,1,.04-.2,1.478,1.478,0,0,1,.052-.161c.005.01.013.015.022,0a.332.332,0,0,0,.072-.214c0-.032-.02-.042-.032-.022a1.6,1.6,0,0,0-.209.709c0,.06,0,.115.04.107a.154.154,0,0,0,.05-.035l.062-.052c.04-.035.077-.067.117-.1a.08.08,0,0,0,.062.01.18.18,0,0,0,.075-.027c0,.032.015.057.032.064s.047-.018.067-.027.045-.03.067-.047a.466.466,0,0,0,.062-.06.054.054,0,0,0,.022.035.119.119,0,0,0,.052.022.125.125,0,0,0,.06-.007.165.165,0,0,0,.007.02.069.069,0,0,0,.077.042.161.161,0,0,0,.077-.042.1.1,0,0,0,.02.027c.035.032.077.018.115,0C741.786,986.328,741.783,986.246,741.756,986.259Zm-.764-.12a.479.479,0,0,1,.1-.169.212.212,0,0,1-.005.147.2.2,0,0,1-.047.055l-.052.052a.065.065,0,0,1-.015.012A.3.3,0,0,1,740.992,986.139Zm.229-.082a.242.242,0,0,1-.052.1.019.019,0,0,1-.01.01C741.179,986.134,741.2,986.095,741.221,986.057Zm.341.059a.227.227,0,0,1-.057.07C741.52,986.144,741.547,986.1,741.562,986.117Zm.09.06c0-.008.015-.028.012-.01a.1.1,0,0,1-.02.032Z" transform="translate(-740.25 -984.296)" fill="#5a5a5a"/>
              </g>
            </g>
          </g>
        </g>
        <path id="Path_7803" data-name="Path 7803" d="M539.75,1030.255l-1.286-1-.333,1.032Z" transform="translate(-456.336 -950.033)" fill="#163560"/>
        <path id="Path_7804" data-name="Path 7804" d="M317.124,875.09s-16.608,1.107-20.584,9.962-5.242,38.317-.182,46.993c0,0,6.967,1.985,19.29-.321.152-.028.3-.057.455-.087,0,0,3.931-9.624.405-11.522,0,0-10.393.542-9.308-2.891S317.124,875.09,317.124,875.09Z" transform="translate(-272.226 -834.222)" fill="#d8d8d8"/>
      </g>
      <g id="man_2_1_" transform="translate(411.845 174.857)">
        <path id="Path_7805" data-name="Path 7805" d="M1913.3,1757.591s.707,11.716-1.425,11.885c-.284.023-10.826.023-10.826.023l-13.456-.084a4.6,4.6,0,0,1,4.021-4.218c3.933-.737,10.843-3.436,12.012-9.447S1913.3,1757.591,1913.3,1757.591Z" transform="translate(-1861.968 -1549.839)" fill="#474747"/>
        <path id="Path_7806" data-name="Path 7806" d="M1810.317,1757.591s.706,11.716-1.426,11.885c-.284.023-10.826.023-10.826.023l-13.456-.084a4.6,4.6,0,0,1,4.021-4.218c3.933-.737,10.843-3.436,12.013-9.447S1810.317,1757.591,1810.317,1757.591Z" transform="translate(-1784.61 -1549.839)" fill="#474747"/>
        <path id="Path_7807" data-name="Path 7807" d="M2113.87,1193.765l11.794,4.066s7.5-15.277,9.331-17.349c2.084-2.366,3.583-20.577,4.528-37.051.824-14.406,1.224-27.481,1.224-27.481s-4.013.913-6.634,7.691c-4.491,11.617-4.458,34.3-6.959,46C2125.713,1176.371,2116.3,1192.807,2113.87,1193.765Z" transform="translate(-2031.946 -1070.93)"/>
        <path id="Path_7808" data-name="Path 7808" d="M2161.26,1281.071c4.5-5.23,7.5-15.277,9.33-17.35,2.085-2.366,11.951-15.814,2.732-36.961-4.519,13.374-.749,20.661-2.17,28.556C2169.747,1263.146,2161.671,1275.84,2161.26,1281.071Z" transform="translate(-2067.545 -1154.169)" fill="#303030"/>
        <path id="Path_7809" data-name="Path 7809" d="M2298.11,1671.439a5.8,5.8,0,0,0,3.715.978c2.961,0,3.715-.978,3.715-.978V1629.86h-7.429Z" transform="translate(-2170.345 -1456.974)" fill="#9f9f9f"/>
        <path id="Path_7810" data-name="Path 7810" d="M2132.7,1381.37c0,.03.007.063.012.095a38.661,38.661,0,0,0,1.068,5.15,30.612,30.612,0,0,0,3,7.3c4.023,6.787,11.657,14.341,29.954,16.807.886.117,1.8.229,2.74.324q2.56.261,5.387.391c.119.005.238.01.36.013s.239.01.364.012a88.578,88.578,0,0,0,17.922-2.685c13.635-3.234,22.517-9.895,28.133-17.994a0,0,0,0,0,0,0c.478-.689.93-1.386,1.364-2.092a44.891,44.891,0,0,0,2.921-5.688,59.575,59.575,0,0,0,4.426-22.428,74.015,74.015,0,0,0-2.369-17.593,31.915,31.915,0,0,0-4.334-9.649,25.565,25.565,0,0,0-1.657-2.2,24.469,24.469,0,0,0-6.725-5.663c-6.514-3.712-27.936-7.41-46.082,2.167C2135.784,1345.252,2130.755,1367.023,2132.7,1381.37Z" transform="translate(-2045.819 -1225.375)" fill="#b9b9b9"/>
        <path id="Path_7811" data-name="Path 7811" d="M2142.578,1582.539c5.327,6.2,10.124,12.552,28.424,14.588.886.1,1.8.186,2.739.264q2.561.22,5.387.323c.119.005.239.01.361.01s.239.01.363.013a88.623,88.623,0,0,0,17.922-2.685c13.635-3.235,22.518-9.9,28.133-17.994a0,0,0,0,0,0,0q.716-1.034,1.363-2.092c-10.345-2.468-32.44-6.795-54.389-5.028-11.909.96-24.262,2.02-34.838,2.954C2137.686,1572.917,2140.82,1580.5,2142.578,1582.539Z" transform="translate(-2050.085 -1411.649)" fill="#979797"/>
        <path id="Path_7812" data-name="Path 7812" d="M2256.494,1127.148q-.258-1.052-.545-2.073c-2.615-9.251-6.877-15.956-13.575-17.056-.841,2.289-9.039,6.088-16.213,5.718a4.694,4.694,0,0,1-1.973-1.12c-5.665-.8-8.36-3.837-8.1-4.245-.239.02-5.949,1.617-5.949,1.617-4.957,21.671-5.549,33.714.415,64.621,2.177,11.289-1.152,17.422-.415,18.161,1.292,1.294,15.568,1.664,27.046,2.11,1.378.052,2.736.1,4.06.144,8.39.274,15.3.371,15.3.371.57-.709,1.62-7.261,2.333-16.484C2260.034,1164.189,2260.335,1142.647,2256.494,1127.148Z" transform="translate(-2101.345 -1064.973)"/>
        <path id="Path_7813" data-name="Path 7813" d="M2283.605,1064.735l-6.822,5.653-10.393-1.6c.1-1,.615-5.337,1.06-9.039.366-3.023.684-5.618.684-5.618l12.413-4.966.373-.149c-.005.062-.007.125-.01.186-.035.5-.057.98-.068,1.458A30.8,30.8,0,0,0,2283.605,1064.735Z" transform="translate(-2146.518 -1020.646)" fill="#e49963"/>
        <path id="Path_7814" data-name="Path 7814" d="M1925.523,1480.459c-34.739,2.493-45.552,2.045-46.771,3.715-7.669,10.507-8.445,12.321-24,33.378-2.969,4.018-6.472,8.736-10.669,14.346H1827.84s17.521-33.435,31.531-56.087c5.528-8.942,10.512-16.2,13.655-19.064,10.858-9.9,54.111-9.664,54.111-9.664s37.556-.908,40.512,4.656C1968.291,1452.946,1951.678,1478.576,1925.523,1480.459Z" transform="translate(-1817.084 -1319.633)" fill="#606060"/>
        <path id="Path_7815" data-name="Path 7815" d="M2006.772,1480.459c-34.739,2.493-45.552,2.045-46.771,3.715-7.668,10.507-8.445,12.321-24,33.378l4.623-41.74c5.528-8.942,10.512-16.2,13.654-19.064,10.859-9.9,54.112-9.664,54.112-9.664s37.555-.908,40.511,4.656C2049.54,1452.946,2032.927,1478.576,2006.772,1480.459Z" transform="translate(-1898.333 -1319.633)" fill="#4b4b4b"/>
        <path id="Path_7816" data-name="Path 7816" d="M2277.853,1129.347l-6.835-.727a1.012,1.012,0,0,0-.692,1.264c.165,1.078,2.418,3.991,3.267,4.138S2279.7,1131.327,2277.853,1129.347Z" transform="translate(-2149.459 -1080.448)" fill="#505050"/>
        <path id="Path_7817" data-name="Path 7817" d="M2046.7,1456.216s-1.159,21.037-27.317,22.916c-34.74,2.5-41.9,1.672-44.177,3.794-11.167,10.438-3.787,12.652-29.964,47.68H1928.8s20.069-66.478,29.158-74.429c11.04-9.659,56.13-10.388,56.13-10.388s30.053-2.314,33.009,3.247C2047.739,1450.25,2046.7,1456.216,2046.7,1456.216Z" transform="translate(-1892.924 -1318.343)" fill="#6b6b6b"/>
        <g id="Group_6250" data-name="Group 6250" transform="translate(120.915 105.752)">
          <path id="Path_7818" data-name="Path 7818" d="M2270.58,1439.637a37.311,37.311,0,0,0,5.57.709c.8.037,1.6.05,2.428.042.07,0,.142,0,.211,0,.212-.005.426-.007.64-.012a88.778,88.778,0,0,0,17.922-2.685c17.81-4.224,27.511-14.3,32.423-25.777a59.572,59.572,0,0,0,4.426-22.428,74.011,74.011,0,0,0-2.369-17.593,31.958,31.958,0,0,0-4.334-9.649c-.385-.572-.8-1.134-1.229-1.677-.139-.177-.281-.351-.428-.528C2313.567,1372.874,2276.484,1413.676,2270.58,1439.637Z" transform="translate(-2270.58 -1360.04)" fill="#6b6b6b"/>
          <path id="Path_7819" data-name="Path 7819" d="M2274.32,1441.229a37.333,37.333,0,0,0,5.571.709q.742.034,1.5.042c.07,0,.143,0,.212,0l.639-.012a88.785,88.785,0,0,0,17.922-2.685c17.81-4.225,27.511-14.3,32.423-25.777a59.575,59.575,0,0,0,4.427-22.428,74.047,74.047,0,0,0-2.369-17.593,31.96,31.96,0,0,0-4.335-9.649c-.385-.572-.8-1.135-1.229-1.677C2316.326,1375.548,2280.147,1415.612,2274.32,1441.229Z" transform="translate(-2273.389 -1361.632)" fill="#b8b8b8"/>
        </g>
        <g id="Group_6251" data-name="Group 6251" transform="translate(114.743 40.959)">
          <path id="Path_7820" data-name="Path 7820" d="M2251.71,1100.71s1.137,5.081,4.138,7.536l-4.628,6.019s-5.606-6.636-5.441-11.383A37.481,37.481,0,0,1,2251.71,1100.71Z" transform="translate(-2245.775 -1100.441)" fill="#acacac"/>
          <path id="Path_7821" data-name="Path 7821" d="M2251.721,1100.71s.865,4.782,3.866,7.238l-4.446,5.474s-4.88-5.67-5.353-10.539A37.509,37.509,0,0,1,2251.721,1100.71Z" transform="translate(-2245.785 -1100.441)" fill="#fff"/>
          <path id="Path_7822" data-name="Path 7822" d="M2296.874,1100.71s-7.076,6.706-11.7,7.238l3.167,7.907s13.783-8.166,13.826-13.058C2302.161,1102.8,2298.367,1100.755,2296.874,1100.71Z" transform="translate(-2275.368 -1100.441)" fill="#fff"/>
          <path id="Path_7823" data-name="Path 7823" d="M2296.369,1099.63s-6.571,6.974-11.2,7.507l2.565,7.288s13.881-7.815,13.924-12.707C2301.656,1101.717,2297.861,1099.674,2296.369,1099.63Z" transform="translate(-2275.368 -1099.63)" fill="#fff"/>
        </g>
        <path id="Path_7824" data-name="Path 7824" d="M2340.648,1269.608c-.717,9.223-.523,14.042-3.369,16.755,0,0-5.76,2.17-14.267-.642a12.529,12.529,0,0,1-6.293-6.318c-5.6-13.916,5.058-25.483,5.6-34.7s8.992-15.951,8.992-15.951S2341.8,1254.88,2340.648,1269.608Z" transform="translate(-2183.106 -1155.664)" fill="#303030"/>
        <path id="Path_7825" data-name="Path 7825" d="M2264.535,1146.165s1.3,12.229,1.525,16.32c.647,11.51.885,46.1.885,46.1a7.859,7.859,0,0,1-1.674,5.429,30.966,30.966,0,0,1-4.12,4.058,15.237,15.237,0,0,1-4.131-7.449c-.781-3.235,1.092-30.4,2.984-48.491a162.628,162.628,0,0,1,2.518-16.215S2264.067,1145.65,2264.535,1146.165Z" transform="translate(-2139.343 -1093.39)" fill="#fff"/>
        <path id="Path_7826" data-name="Path 7826" d="M2236.664,1772.942H2155.39c3.869-8.46,20.593-14.822,40.636-14.822S2232.795,1764.482,2236.664,1772.942Z" transform="translate(-2063.136 -1553.321)" fill="#818181"/>
        <path id="Path_7827" data-name="Path 7827" d="M2277.586,1400.37a51.261,51.261,0,0,0-7.32,2.441c-1.806,1-5.434,5.76-4.62,6.507,4.08,3.742,4.71-.406,9.726-1.762.91-.246,5.106-4.924,5.106-4.924Z" transform="translate(-2145.872 -1284.583)" fill="#e49963"/>
        <path id="Path_7828" data-name="Path 7828" d="M2128.209,1360.338l-8.276-28.618H2072.64l8.539,29.778h62.086v-1.159Z" transform="translate(-2000.974 -1233.014)" fill="#fff"/>
        <path id="Path_7829" data-name="Path 7829" d="M2167.177,1383.9a1.379,1.379,0,0,1,1.352-1.9,2.715,2.715,0,0,1,2.438,1.9,1.38,1.38,0,0,1-1.351,1.9A2.723,2.723,0,0,1,2167.177,1383.9Z" transform="translate(-2071.932 -1270.784)" fill="#acacac"/>
        <path id="Path_7830" data-name="Path 7830" d="M2319.76,1108.02s9.39,1.527,14.09,6.407,12.652,44.823,10.664,50.426-17.892,16.989-29.28,21.689c0,0-5.6-2.53-5.964-6.867,0,0,19.34-16.267,20.243-20.6S2319.76,1108.02,2319.76,1108.02Z" transform="translate(-2178.729 -1064.973)"/>
        <path id="Path_7831" data-name="Path 7831" d="M2284.11,1049.64q-.052.743-.067,1.458c-2.4,2.59-8.049,8.109-13.394,9.087.366-3.023.684-5.618.684-5.618l12.414-4.966Z" transform="translate(-2149.718 -1021.089)" fill="#d68d5d"/>
        <path id="Path_7832" data-name="Path 7832" d="M2254.651,998.159s14.887.679,15.167-8.6,2.391-15.439-7.1-16.264-11.448,2.657-12.293,5.733S2250.787,997.743,2254.651,998.159Z" transform="translate(-2134.331 -963.679)" fill="#e49963"/>
        <path id="Path_7833" data-name="Path 7833" d="M2262.656,960.894s-1.112-12.381-14.373-11.936-7.524-12.1,3.871-13.948c0,0-1.189,4.419,5.979,5.118C2273.178,941.594,2263.995,958.928,2262.656,960.894Z" transform="translate(-2127.169 -935.01)" fill="#515151"/>
      </g>
      <path id="Path_7834" data-name="Path 7834" d="M1468.315,1486.956a11.05,11.05,0,0,1,10.363-8.676c4.792,0,7.92,3.884,6.989,8.676a11.048,11.048,0,0,1-10.362,8.676C1470.515,1495.63,1467.385,1491.746,1468.315,1486.956Z" transform="translate(-1135.044 -1168.252)" fill="#b9b9b9"/>
      <g id="Group_6253" data-name="Group 6253" transform="translate(420.27 119.08)">
        <path id="Path_7705-2" data-name="Path 7705" d="M1134.42,787.056h57.843L1211.65,709.3h-57.843Z" transform="translate(-1134.42 -709.3)" fill="#fff"/>
        <g id="Group_6224-2" data-name="Group 6224" transform="translate(8.17 5.387)">
          <g id="Group_6219-2" data-name="Group 6219" transform="translate(5.841 14.726)" opacity="0.5">
            <g id="Group_6218-2" data-name="Group 6218" transform="translate(3.461)">
              <path id="Path_7706-2" data-name="Path 7706" d="M1299.452,992.681h38.318a1.184,1.184,0,0,0,1.078-.863l.081-.324a.654.654,0,0,0-.648-.864h-38.318a1.182,1.182,0,0,0-1.078.864l-.081.324A.653.653,0,0,0,1299.452,992.681Z" transform="translate(-1296.511 -976.957)" fill="#d1d1d1"/>
              <path id="Path_7707-2" data-name="Path 7707" d="M1327.832,878.831h38.317a1.183,1.183,0,0,0,1.079-.864l.08-.324a.654.654,0,0,0-.648-.864h-38.318a1.184,1.184,0,0,0-1.078.864l-.081.324A.655.655,0,0,0,1327.832,878.831Z" transform="translate(-1321.481 -876.78)" fill="#d1d1d1"/>
              <path id="Path_7708-2" data-name="Path 7708" d="M1317.977,918.381H1356.3a1.182,1.182,0,0,0,1.078-.863l.081-.324a.653.653,0,0,0-.648-.863h-38.319a1.184,1.184,0,0,0-1.078.863l-.081.324A.654.654,0,0,0,1317.977,918.381Z" transform="translate(-1312.81 -911.58)" fill="#d1d1d1"/>
              <path id="Path_7709-2" data-name="Path 7709" d="M1308.714,955.531h38.319a1.184,1.184,0,0,0,1.078-.864l.08-.324a.653.653,0,0,0-.648-.864h-38.319a1.183,1.183,0,0,0-1.079.864l-.08.324A.653.653,0,0,0,1308.714,955.531Z" transform="translate(-1304.659 -944.269)" fill="#d1d1d1"/>
              <path id="Path_7710-2" data-name="Path 7710" d="M1280.574,1068.4h38.317a1.182,1.182,0,0,0,1.078-.864l.081-.324a.654.654,0,0,0-.648-.863h-38.318a1.182,1.182,0,0,0-1.078.863l-.08.324A.654.654,0,0,0,1280.574,1068.4Z" transform="translate(-1279.899 -1043.584)" fill="#d1d1d1"/>
              <path id="Path_7711-2" data-name="Path 7711" d="M1289.834,1031.251h38.318a1.184,1.184,0,0,0,1.078-.863l.081-.324a.653.653,0,0,0-.648-.864h-38.319a1.182,1.182,0,0,0-1.078.864l-.081.324A.654.654,0,0,0,1289.834,1031.251Z" transform="translate(-1288.047 -1010.895)" fill="#d1d1d1"/>
            </g>
            <path id="Path_7712-2" data-name="Path 7712" d="M1251.881,1185.151h9.306a1.406,1.406,0,0,0,1.281-1.026h0a.776.776,0,0,0-.77-1.026h-9.306a1.4,1.4,0,0,0-1.281,1.026h0A.777.777,0,0,0,1251.881,1185.151Z" transform="translate(-1251.08 -1146.313)" fill="#d1d1d1"/>
            <path id="Path_7713-2" data-name="Path 7713" d="M1489.29,1185.151h9.307a1.405,1.405,0,0,0,1.282-1.026h0a.777.777,0,0,0-.77-1.026H1489.8a1.406,1.406,0,0,0-1.282,1.026h0A.777.777,0,0,0,1489.29,1185.151Z" transform="translate(-1459.978 -1146.313)" fill="#d1d1d1"/>
          </g>
          <g id="Group_6220-2" data-name="Group 6220" transform="translate(0 57.95)">
            <path id="Path_7714-2" data-name="Path 7714" d="M1217.094,1243.351h-13.572a1.059,1.059,0,0,1-.86-.391,1.12,1.12,0,0,1-.174-.985l.979-3.925a1.846,1.846,0,0,1,1.687-1.35h13.571a1.059,1.059,0,0,1,.86.392,1.122,1.122,0,0,1,.174.985l-.979,3.925A1.845,1.845,0,0,1,1217.094,1243.351Zm-11.941-6.54a1.732,1.732,0,0,0-1.581,1.267l-.979,3.925a1.016,1.016,0,0,0,.155.891.955.955,0,0,0,.775.349h13.572a1.731,1.731,0,0,0,1.581-1.267l.979-3.925a1.016,1.016,0,0,0-.155-.891.953.953,0,0,0-.775-.35Z" transform="translate(-1202.446 -1236.7)" fill="#9b9b9b"/>
          </g>
          <g id="Group_6221-2" data-name="Group 6221" transform="translate(28.558 57.95)">
            <path id="Path_7715-2" data-name="Path 7715" d="M1454.894,1243.351h-13.572a1.059,1.059,0,0,1-.86-.391,1.12,1.12,0,0,1-.174-.985l.979-3.925a1.847,1.847,0,0,1,1.687-1.35h13.572a1.058,1.058,0,0,1,.86.392,1.12,1.12,0,0,1,.174.985l-.979,3.925A1.845,1.845,0,0,1,1454.894,1243.351Zm-11.941-6.54a1.733,1.733,0,0,0-1.582,1.267l-.979,3.925a1.016,1.016,0,0,0,.155.891.954.954,0,0,0,.775.349h13.572a1.731,1.731,0,0,0,1.581-1.267l.979-3.925a1.017,1.017,0,0,0-.155-.891.951.951,0,0,0-.775-.35Z" transform="translate(-1440.246 -1236.7)" fill="#b8b8b8"/>
          </g>
          <g id="Group_6222-2" data-name="Group 6222" transform="translate(18.297)">
            <path id="Path_7716-2" data-name="Path 7716" d="M1354.944,756.717a3.781,3.781,0,0,1,3.417-2.557,1.75,1.75,0,0,1,1.65.806l-.9.748a1.2,1.2,0,0,0-1.09-.551,2.22,2.22,0,0,0-1.944,1.554c-.278.848.077,1.554.925,1.554a2.489,2.489,0,0,0,1.49-.579l.449.742a3.438,3.438,0,0,1-2.3.841C1355.187,759.273,1354.473,758.151,1354.944,756.717Z" transform="translate(-1354.8 -754.16)"/>
            <path id="Path_7717-2" data-name="Path 7717" d="M1397.213,756.717a3.846,3.846,0,0,1,3.474-2.557,1.782,1.782,0,0,1,1.782,2.557,3.846,3.846,0,0,1-3.474,2.557A1.782,1.782,0,0,1,1397.213,756.717Zm4.118,0c.279-.848-.112-1.554-.988-1.554a2.235,2.235,0,0,0-1.994,1.554c-.278.848.112,1.554.989,1.554A2.233,2.233,0,0,0,1401.331,756.717Z" transform="translate(-1391.996 -754.16)"/>
            <path id="Path_7718-2" data-name="Path 7718" d="M1444.932,754.86h1l1.318,3.044,1-3.044h1.074l-1.623,4.945h-.926l-1.363-3.144-1.031,3.144h-1.074Z" transform="translate(-1432.681 -754.776)"/>
            <path id="Path_7719-2" data-name="Path 7719" d="M1499.115,755.863h-1.5l.329-1h4.1l-.329,1h-1.5l-1.293,3.941h-1.088Z" transform="translate(-1480.46 -754.776)"/>
            <path id="Path_7720-2" data-name="Path 7720" d="M1529.522,754.86h2.26a1.445,1.445,0,0,1,1.277.5,1.293,1.293,0,0,1,.048,1.145,2.368,2.368,0,0,1-1.563,1.532l.629,1.767H1530.9l-.555-1.583h-.841l-.519,1.583H1527.9Zm1.4,2.4a1.063,1.063,0,0,0,1.068-.713c.153-.466-.094-.706-.623-.706h-1.081l-.466,1.419Z" transform="translate(-1507.112 -754.776)"/>
            <path id="Path_7721-2" data-name="Path 7721" d="M1570.663,754.56h1l.486,4.98h-1.138l-.087-1.11h-2.091l-.815,1.11h-1.11Zm.19,2.911-.131-1.6-1.183,1.6Z" transform="translate(-1541.437 -754.512)"/>
            <path id="Path_7722-2" data-name="Path 7722" d="M1618.138,756.717a3.781,3.781,0,0,1,3.418-2.557,1.752,1.752,0,0,1,1.65.806l-.9.748a1.2,1.2,0,0,0-1.091-.551,2.22,2.22,0,0,0-1.944,1.554c-.278.848.077,1.554.925,1.554a2.489,2.489,0,0,0,1.49-.579l.449.742a3.438,3.438,0,0,1-2.3.841C1618.38,759.273,1617.668,758.151,1618.138,756.717Z" transform="translate(-1586.386 -754.16)"/>
            <path id="Path_7723-2" data-name="Path 7723" d="M1667,755.863h-1.5l.329-1h4.1l-.329,1h-1.5L1666.8,759.8h-1.088Z" transform="translate(-1628.187 -754.776)"/>
          </g>
          <path id="Path_7724-2" data-name="Path 7724" d="M1485.673,1232.209q-3.093,1.277-6.138,2.792.12-.341.216-.684c.052-.182-.2-.3-.348-.1q-.1.133-.215.256c.052-.163-.142-.254-.307-.136l-.031.025c.08-.22-.262-.253-.39-.04l-.191.318a1.342,1.342,0,0,1-.615.411,1.025,1.025,0,0,1-.09-.343.152.152,0,0,0-.158-.145c0-.112-.1-.178-.254-.112a1.369,1.369,0,0,0-.467.345c-.1-.19-.428-.054-.6.128,0-.011.009-.021.014-.031.083-.177-.071-.377-.278-.2a2.5,2.5,0,0,0-.759,1.112,4.352,4.352,0,0,1-.388.383c-.067.058-.382.35-.454.324s-.032-.205,0-.333c.01-.016.023-.031.034-.047.262-.364,1.522-2.078.634-2.062a.321.321,0,0,0-.248.15,5.907,5.907,0,0,0-.728,1.552c-.029.1-.07.231-.1.368-.025.035-.052.07-.078.1a4.058,4.058,0,0,1-1.412,1.358,6.289,6.289,0,0,1,.589-2.342q.178-.492.372-.983a.27.27,0,0,0,.123-.063,1.564,1.564,0,0,0,.591-1.81c-.08-.149-.327-.013-.4.145-.425.955-.813,1.913-1.157,2.874a5.531,5.531,0,0,0-.525,2.538c.013.083.11.114.2.094a3.32,3.32,0,0,0,1.677-1.3.276.276,0,0,0,.179.157c.3.09.718-.248,1.016-.53a1.182,1.182,0,0,0,.053.287c.032.1.135.123.257.073a2.364,2.364,0,0,0,.767-.513,1.663,1.663,0,0,0,.769-.616,4.246,4.246,0,0,0,.379-.377.575.575,0,0,0,.105.193c.111.128.391.012.57-.069a1.872,1.872,0,0,0,.469-.309.946.946,0,0,0,.323-.088.252.252,0,0,0,.077.081.337.337,0,0,0,.373-.035c-.029.083-.059.165-.091.248q-.443.223-.886.453c-.195.1-.24.4-.021.382.271-.02.542-.041.813-.062a.325.325,0,0,0,.272-.2c.048-.108.094-.218.138-.326q3.179-1.593,6.417-2.932C1486.039,1232.449,1485.947,1232.1,1485.673,1232.209Zm-9.445,3.119a1.33,1.33,0,0,1-.067.17c-.018.038-.038.075-.06.113A1.5,1.5,0,0,1,1476.228,1235.328Zm-.6.509a.508.508,0,0,0-.007.309,1.855,1.855,0,0,1-.2.135,1.186,1.186,0,0,1,.023-.379c.094-.11.182-.226.264-.342A2.039,2.039,0,0,0,1475.631,1235.837Z" transform="translate(-1439.527 -1174.779)"/>
          <g id="Group_6223-2" data-name="Group 6223" transform="translate(3.44 56.075)">
            <path id="Path_7725-2" data-name="Path 7725" d="M1235.864,1221.182c-.73,1.356-1.139,2.749-1.732,4.12a10.942,10.942,0,0,1-1.071,1.968c-.307.44-.979,1.4-1.547,1.189-.142-.052-.181-.173-.134-.339.009-.036.023-.074.036-.111a.315.315,0,0,0,.3-.035,1.052,1.052,0,0,0,.419-.467c.085-.185.072-.377-.077-.459a.42.42,0,0,0-.464.13,1.525,1.525,0,0,0-.3.525,1.626,1.626,0,0,0-.2.659c.02.313.359.424.69.352a2.1,2.1,0,0,0,1.027-.758,8.982,8.982,0,0,0,.842-1.187,16.367,16.367,0,0,0,1.174-2.555,25.158,25.158,0,0,1,1.263-2.966C1236.173,1221.091,1235.951,1221.023,1235.864,1221.182Zm-3.951,6.16c.025.1-.068.222-.144.31a.482.482,0,0,1-.086.086.253.253,0,0,1-.061.036l-.019,0a.084.084,0,0,0-.077-.043c.032-.072.065-.143.1-.21C1231.671,1227.424,1231.861,1227.141,1231.913,1227.342Z" transform="translate(-1231.092 -1221.091)"/>
            <path id="Path_7726-2" data-name="Path 7726" d="M1262.081,1254.531a1.6,1.6,0,0,1-.464.192.425.425,0,0,1-.118,0,.749.749,0,0,0,.229-.359c.028-.2-.19-.241-.372-.14a.567.567,0,0,0-.281.424.289.289,0,0,0,.023.139,1.032,1.032,0,0,1-.6.24,2.183,2.183,0,0,0,.55-.544.115.115,0,0,0,.008-.124.364.364,0,0,0-.464-.036.925.925,0,0,0-.4.479.7.7,0,0,0-.051.175,1.374,1.374,0,0,1-.589.133v0c.061-.058.123-.115.181-.174.089-.089.036-.18-.047-.191a.38.38,0,0,0-.378.3,5.7,5.7,0,0,1-.932.675c-.083.048-.195.144-.25.083a2.845,2.845,0,0,0,.379-.334c.224-.237.446-.658.181-.8a.155.155,0,0,0-.188.045l-.349.465a2,2,0,0,0-.269.417.578.578,0,0,0-.038.145,2.579,2.579,0,0,1-.37.191l-.031.013c.068-.055.137-.109.205-.166a.855.855,0,0,0,.378-.559.627.627,0,0,0-.244-.469c-.033-.033-.112-.017-.159.02a2.509,2.509,0,0,0-.829,1.064.417.417,0,0,0-.012.348q-.5.38-1.007.742c-.036.025-.124.106-.158.094s-.019-.088-.019-.124a2.525,2.525,0,0,1,.016-.285,2.9,2.9,0,0,1,.155-.638,3.527,3.527,0,0,1,.258-.551.134.134,0,0,0,.142-.026.866.866,0,0,0,.358-.736c-.008-.089-.152-.076-.219,0a3.573,3.573,0,0,0-.975,2.383c.007.171.085.315.313.219a1.621,1.621,0,0,0,.3-.19l.371-.268q.348-.254.69-.515a1.186,1.186,0,0,0,.408-.092,2.8,2.8,0,0,0,.471-.226.237.237,0,0,0,.247.117,1.294,1.294,0,0,0,.413-.209c.138-.083.274-.171.405-.266s.252-.189.374-.291c.028.038.076.051.159.053a1.381,1.381,0,0,0,.348-.037,1.82,1.82,0,0,0,.376-.132.235.235,0,0,0,.061.042.679.679,0,0,0,.51-.031,1.97,1.97,0,0,0,.479-.269.487.487,0,0,0,.141.037,1.408,1.408,0,0,0,.742-.228C1262.3,1254.662,1262.248,1254.442,1262.081,1254.531Zm-4.966,1.149a2.167,2.167,0,0,1,.529-.656.3.3,0,0,1,.052.413,1.573,1.573,0,0,1-.274.241l-.315.249-.083.064C1256.987,1255.919,1257.076,1255.759,1257.116,1255.68Zm1.426-.669a1.053,1.053,0,0,1-.273.39c-.017.017-.033.032-.052.048C1258.312,1255.3,1258.428,1255.156,1258.541,1255.012Zm2.218-.5a1.726,1.726,0,0,1-.323.3C1260.5,1254.667,1260.656,1254.5,1260.76,1254.509Zm.609-.007c.015-.025.088-.107.076-.051a.447.447,0,0,1-.1.127A.21.21,0,0,1,1261.368,1254.5Z" transform="translate(-1252.422 -1250.202)"/>
          </g>
        </g>
      </g>
      <g id="Group_6254" data-name="Group 6254" transform="translate(398.313 202.037)">
        <path id="Path_7705-3" data-name="Path 7705" d="M1134.42,787.056h57.843L1211.65,709.3h-57.843Z" transform="translate(-1134.42 -709.3)" fill="#fff"/>
        <g id="Group_6224-3" data-name="Group 6224" transform="translate(8.17 5.387)">
          <g id="Group_6219-3" data-name="Group 6219" transform="translate(5.841 14.726)" opacity="0.5">
            <g id="Group_6218-3" data-name="Group 6218" transform="translate(3.461)">
              <path id="Path_7706-3" data-name="Path 7706" d="M1299.452,992.681h38.318a1.184,1.184,0,0,0,1.078-.863l.081-.324a.654.654,0,0,0-.648-.864h-38.318a1.182,1.182,0,0,0-1.078.864l-.081.324A.653.653,0,0,0,1299.452,992.681Z" transform="translate(-1296.511 -976.957)" fill="#d1d1d1"/>
              <path id="Path_7707-3" data-name="Path 7707" d="M1327.832,878.831h38.317a1.183,1.183,0,0,0,1.079-.864l.08-.324a.654.654,0,0,0-.648-.864h-38.318a1.184,1.184,0,0,0-1.078.864l-.081.324A.655.655,0,0,0,1327.832,878.831Z" transform="translate(-1321.481 -876.78)" fill="#d1d1d1"/>
              <path id="Path_7708-3" data-name="Path 7708" d="M1317.977,918.381H1356.3a1.182,1.182,0,0,0,1.078-.863l.081-.324a.653.653,0,0,0-.648-.863h-38.319a1.184,1.184,0,0,0-1.078.863l-.081.324A.654.654,0,0,0,1317.977,918.381Z" transform="translate(-1312.81 -911.58)" fill="#d1d1d1"/>
              <path id="Path_7709-3" data-name="Path 7709" d="M1308.714,955.531h38.319a1.184,1.184,0,0,0,1.078-.864l.08-.324a.653.653,0,0,0-.648-.864h-38.319a1.183,1.183,0,0,0-1.079.864l-.08.324A.653.653,0,0,0,1308.714,955.531Z" transform="translate(-1304.659 -944.269)" fill="#d1d1d1"/>
              <path id="Path_7710-3" data-name="Path 7710" d="M1280.574,1068.4h38.317a1.182,1.182,0,0,0,1.078-.864l.081-.324a.654.654,0,0,0-.648-.863h-38.318a1.182,1.182,0,0,0-1.078.863l-.08.324A.654.654,0,0,0,1280.574,1068.4Z" transform="translate(-1279.899 -1043.584)" fill="#d1d1d1"/>
              <path id="Path_7711-3" data-name="Path 7711" d="M1289.834,1031.251h38.318a1.184,1.184,0,0,0,1.078-.863l.081-.324a.653.653,0,0,0-.648-.864h-38.319a1.182,1.182,0,0,0-1.078.864l-.081.324A.654.654,0,0,0,1289.834,1031.251Z" transform="translate(-1288.047 -1010.895)" fill="#d1d1d1"/>
            </g>
            <path id="Path_7712-3" data-name="Path 7712" d="M1251.881,1185.151h9.306a1.406,1.406,0,0,0,1.281-1.026h0a.776.776,0,0,0-.77-1.026h-9.306a1.4,1.4,0,0,0-1.281,1.026h0A.777.777,0,0,0,1251.881,1185.151Z" transform="translate(-1251.08 -1146.313)" fill="#d1d1d1"/>
            <path id="Path_7713-3" data-name="Path 7713" d="M1489.29,1185.151h9.307a1.405,1.405,0,0,0,1.282-1.026h0a.777.777,0,0,0-.77-1.026H1489.8a1.406,1.406,0,0,0-1.282,1.026h0A.777.777,0,0,0,1489.29,1185.151Z" transform="translate(-1459.978 -1146.313)" fill="#d1d1d1"/>
          </g>
          <g id="Group_6220-3" data-name="Group 6220" transform="translate(0 57.95)">
            <path id="Path_7714-3" data-name="Path 7714" d="M1217.094,1243.351h-13.572a1.059,1.059,0,0,1-.86-.391,1.12,1.12,0,0,1-.174-.985l.979-3.925a1.846,1.846,0,0,1,1.687-1.35h13.571a1.059,1.059,0,0,1,.86.392,1.122,1.122,0,0,1,.174.985l-.979,3.925A1.845,1.845,0,0,1,1217.094,1243.351Zm-11.941-6.54a1.732,1.732,0,0,0-1.581,1.267l-.979,3.925a1.016,1.016,0,0,0,.155.891.955.955,0,0,0,.775.349h13.572a1.731,1.731,0,0,0,1.581-1.267l.979-3.925a1.016,1.016,0,0,0-.155-.891.953.953,0,0,0-.775-.35Z" transform="translate(-1202.446 -1236.7)" fill="#9b9b9b"/>
          </g>
          <g id="Group_6221-3" data-name="Group 6221" transform="translate(28.558 57.95)">
            <path id="Path_7715-3" data-name="Path 7715" d="M1454.894,1243.351h-13.572a1.059,1.059,0,0,1-.86-.391,1.12,1.12,0,0,1-.174-.985l.979-3.925a1.847,1.847,0,0,1,1.687-1.35h13.572a1.058,1.058,0,0,1,.86.392,1.12,1.12,0,0,1,.174.985l-.979,3.925A1.845,1.845,0,0,1,1454.894,1243.351Zm-11.941-6.54a1.733,1.733,0,0,0-1.582,1.267l-.979,3.925a1.016,1.016,0,0,0,.155.891.954.954,0,0,0,.775.349h13.572a1.731,1.731,0,0,0,1.581-1.267l.979-3.925a1.017,1.017,0,0,0-.155-.891.951.951,0,0,0-.775-.35Z" transform="translate(-1440.246 -1236.7)" fill="#b8b8b8"/>
          </g>
          <g id="Group_6222-3" data-name="Group 6222" transform="translate(18.297)">
            <path id="Path_7716-3" data-name="Path 7716" d="M1354.944,756.717a3.781,3.781,0,0,1,3.417-2.557,1.75,1.75,0,0,1,1.65.806l-.9.748a1.2,1.2,0,0,0-1.09-.551,2.22,2.22,0,0,0-1.944,1.554c-.278.848.077,1.554.925,1.554a2.489,2.489,0,0,0,1.49-.579l.449.742a3.438,3.438,0,0,1-2.3.841C1355.187,759.273,1354.473,758.151,1354.944,756.717Z" transform="translate(-1354.8 -754.16)"/>
            <path id="Path_7717-3" data-name="Path 7717" d="M1397.213,756.717a3.846,3.846,0,0,1,3.474-2.557,1.782,1.782,0,0,1,1.782,2.557,3.846,3.846,0,0,1-3.474,2.557A1.782,1.782,0,0,1,1397.213,756.717Zm4.118,0c.279-.848-.112-1.554-.988-1.554a2.235,2.235,0,0,0-1.994,1.554c-.278.848.112,1.554.989,1.554A2.233,2.233,0,0,0,1401.331,756.717Z" transform="translate(-1391.996 -754.16)"/>
            <path id="Path_7718-3" data-name="Path 7718" d="M1444.932,754.86h1l1.318,3.044,1-3.044h1.074l-1.623,4.945h-.926l-1.363-3.144-1.031,3.144h-1.074Z" transform="translate(-1432.681 -754.776)"/>
            <path id="Path_7719-3" data-name="Path 7719" d="M1499.115,755.863h-1.5l.329-1h4.1l-.329,1h-1.5l-1.293,3.941h-1.088Z" transform="translate(-1480.46 -754.776)"/>
            <path id="Path_7720-3" data-name="Path 7720" d="M1529.522,754.86h2.26a1.445,1.445,0,0,1,1.277.5,1.293,1.293,0,0,1,.048,1.145,2.368,2.368,0,0,1-1.563,1.532l.629,1.767H1530.9l-.555-1.583h-.841l-.519,1.583H1527.9Zm1.4,2.4a1.063,1.063,0,0,0,1.068-.713c.153-.466-.094-.706-.623-.706h-1.081l-.466,1.419Z" transform="translate(-1507.112 -754.776)"/>
            <path id="Path_7721-3" data-name="Path 7721" d="M1570.663,754.56h1l.486,4.98h-1.138l-.087-1.11h-2.091l-.815,1.11h-1.11Zm.19,2.911-.131-1.6-1.183,1.6Z" transform="translate(-1541.437 -754.512)"/>
            <path id="Path_7722-3" data-name="Path 7722" d="M1618.138,756.717a3.781,3.781,0,0,1,3.418-2.557,1.752,1.752,0,0,1,1.65.806l-.9.748a1.2,1.2,0,0,0-1.091-.551,2.22,2.22,0,0,0-1.944,1.554c-.278.848.077,1.554.925,1.554a2.489,2.489,0,0,0,1.49-.579l.449.742a3.438,3.438,0,0,1-2.3.841C1618.38,759.273,1617.668,758.151,1618.138,756.717Z" transform="translate(-1586.386 -754.16)"/>
            <path id="Path_7723-3" data-name="Path 7723" d="M1667,755.863h-1.5l.329-1h4.1l-.329,1h-1.5L1666.8,759.8h-1.088Z" transform="translate(-1628.187 -754.776)"/>
          </g>
          <path id="Path_7724-3" data-name="Path 7724" d="M1485.673,1232.209q-3.093,1.277-6.138,2.792.12-.341.216-.684c.052-.182-.2-.3-.348-.1q-.1.133-.215.256c.052-.163-.142-.254-.307-.136l-.031.025c.08-.22-.262-.253-.39-.04l-.191.318a1.342,1.342,0,0,1-.615.411,1.025,1.025,0,0,1-.09-.343.152.152,0,0,0-.158-.145c0-.112-.1-.178-.254-.112a1.369,1.369,0,0,0-.467.345c-.1-.19-.428-.054-.6.128,0-.011.009-.021.014-.031.083-.177-.071-.377-.278-.2a2.5,2.5,0,0,0-.759,1.112,4.352,4.352,0,0,1-.388.383c-.067.058-.382.35-.454.324s-.032-.205,0-.333c.01-.016.023-.031.034-.047.262-.364,1.522-2.078.634-2.062a.321.321,0,0,0-.248.15,5.907,5.907,0,0,0-.728,1.552c-.029.1-.07.231-.1.368-.025.035-.052.07-.078.1a4.058,4.058,0,0,1-1.412,1.358,6.289,6.289,0,0,1,.589-2.342q.178-.492.372-.983a.27.27,0,0,0,.123-.063,1.564,1.564,0,0,0,.591-1.81c-.08-.149-.327-.013-.4.145-.425.955-.813,1.913-1.157,2.874a5.531,5.531,0,0,0-.525,2.538c.013.083.11.114.2.094a3.32,3.32,0,0,0,1.677-1.3.276.276,0,0,0,.179.157c.3.09.718-.248,1.016-.53a1.182,1.182,0,0,0,.053.287c.032.1.135.123.257.073a2.364,2.364,0,0,0,.767-.513,1.663,1.663,0,0,0,.769-.616,4.246,4.246,0,0,0,.379-.377.575.575,0,0,0,.105.193c.111.128.391.012.57-.069a1.872,1.872,0,0,0,.469-.309.946.946,0,0,0,.323-.088.252.252,0,0,0,.077.081.337.337,0,0,0,.373-.035c-.029.083-.059.165-.091.248q-.443.223-.886.453c-.195.1-.24.4-.021.382.271-.02.542-.041.813-.062a.325.325,0,0,0,.272-.2c.048-.108.094-.218.138-.326q3.179-1.593,6.417-2.932C1486.039,1232.449,1485.947,1232.1,1485.673,1232.209Zm-9.445,3.119a1.33,1.33,0,0,1-.067.17c-.018.038-.038.075-.06.113A1.5,1.5,0,0,1,1476.228,1235.328Zm-.6.509a.508.508,0,0,0-.007.309,1.855,1.855,0,0,1-.2.135,1.186,1.186,0,0,1,.023-.379c.094-.11.182-.226.264-.342A2.039,2.039,0,0,0,1475.631,1235.837Z" transform="translate(-1439.527 -1174.779)"/>
          <g id="Group_6223-3" data-name="Group 6223" transform="translate(3.44 56.075)">
            <path id="Path_7725-3" data-name="Path 7725" d="M1235.864,1221.182c-.73,1.356-1.139,2.749-1.732,4.12a10.942,10.942,0,0,1-1.071,1.968c-.307.44-.979,1.4-1.547,1.189-.142-.052-.181-.173-.134-.339.009-.036.023-.074.036-.111a.315.315,0,0,0,.3-.035,1.052,1.052,0,0,0,.419-.467c.085-.185.072-.377-.077-.459a.42.42,0,0,0-.464.13,1.525,1.525,0,0,0-.3.525,1.626,1.626,0,0,0-.2.659c.02.313.359.424.69.352a2.1,2.1,0,0,0,1.027-.758,8.982,8.982,0,0,0,.842-1.187,16.367,16.367,0,0,0,1.174-2.555,25.158,25.158,0,0,1,1.263-2.966C1236.173,1221.091,1235.951,1221.023,1235.864,1221.182Zm-3.951,6.16c.025.1-.068.222-.144.31a.482.482,0,0,1-.086.086.253.253,0,0,1-.061.036l-.019,0a.084.084,0,0,0-.077-.043c.032-.072.065-.143.1-.21C1231.671,1227.424,1231.861,1227.141,1231.913,1227.342Z" transform="translate(-1231.092 -1221.091)"/>
            <path id="Path_7726-3" data-name="Path 7726" d="M1262.081,1254.531a1.6,1.6,0,0,1-.464.192.425.425,0,0,1-.118,0,.749.749,0,0,0,.229-.359c.028-.2-.19-.241-.372-.14a.567.567,0,0,0-.281.424.289.289,0,0,0,.023.139,1.032,1.032,0,0,1-.6.24,2.183,2.183,0,0,0,.55-.544.115.115,0,0,0,.008-.124.364.364,0,0,0-.464-.036.925.925,0,0,0-.4.479.7.7,0,0,0-.051.175,1.374,1.374,0,0,1-.589.133v0c.061-.058.123-.115.181-.174.089-.089.036-.18-.047-.191a.38.38,0,0,0-.378.3,5.7,5.7,0,0,1-.932.675c-.083.048-.195.144-.25.083a2.845,2.845,0,0,0,.379-.334c.224-.237.446-.658.181-.8a.155.155,0,0,0-.188.045l-.349.465a2,2,0,0,0-.269.417.578.578,0,0,0-.038.145,2.579,2.579,0,0,1-.37.191l-.031.013c.068-.055.137-.109.205-.166a.855.855,0,0,0,.378-.559.627.627,0,0,0-.244-.469c-.033-.033-.112-.017-.159.02a2.509,2.509,0,0,0-.829,1.064.417.417,0,0,0-.012.348q-.5.38-1.007.742c-.036.025-.124.106-.158.094s-.019-.088-.019-.124a2.525,2.525,0,0,1,.016-.285,2.9,2.9,0,0,1,.155-.638,3.527,3.527,0,0,1,.258-.551.134.134,0,0,0,.142-.026.866.866,0,0,0,.358-.736c-.008-.089-.152-.076-.219,0a3.573,3.573,0,0,0-.975,2.383c.007.171.085.315.313.219a1.621,1.621,0,0,0,.3-.19l.371-.268q.348-.254.69-.515a1.186,1.186,0,0,0,.408-.092,2.8,2.8,0,0,0,.471-.226.237.237,0,0,0,.247.117,1.294,1.294,0,0,0,.413-.209c.138-.083.274-.171.405-.266s.252-.189.374-.291c.028.038.076.051.159.053a1.381,1.381,0,0,0,.348-.037,1.82,1.82,0,0,0,.376-.132.235.235,0,0,0,.061.042.679.679,0,0,0,.51-.031,1.97,1.97,0,0,0,.479-.269.487.487,0,0,0,.141.037,1.408,1.408,0,0,0,.742-.228C1262.3,1254.662,1262.248,1254.442,1262.081,1254.531Zm-4.966,1.149a2.167,2.167,0,0,1,.529-.656.3.3,0,0,1,.052.413,1.573,1.573,0,0,1-.274.241l-.315.249-.083.064C1256.987,1255.919,1257.076,1255.759,1257.116,1255.68Zm1.426-.669a1.053,1.053,0,0,1-.273.39c-.017.017-.033.032-.052.048C1258.312,1255.3,1258.428,1255.156,1258.541,1255.012Zm2.218-.5a1.726,1.726,0,0,1-.323.3C1260.5,1254.667,1260.656,1254.5,1260.76,1254.509Zm.609-.007c.015-.025.088-.107.076-.051a.447.447,0,0,1-.1.127A.21.21,0,0,1,1261.368,1254.5Z" transform="translate(-1252.422 -1250.202)"/>
          </g>
        </g>
      </g>
    </g>
  </g>
</svg>
