<svg xmlns="http://www.w3.org/2000/svg" width="42.253" height="44.05" viewBox="0 0 42.253 44.05">
  <g id="Ensure_Contract_Compliance_" data-name="Ensure Contract Compliance " transform="translate(0.6 0.6)">
    <path id="Path_3746" data-name="Path 3746" d="M70.505,98.637H63.013a1.255,1.255,0,0,0,0,2.511h7.492a1.255,1.255,0,0,0,0-2.511Zm0,0" transform="translate(-56.589 -90.382)" fill="#fff" stroke="#000" stroke-width="1.2"/>
    <path id="Path_3747" data-name="Path 3747" d="M70.505,158.641H63.013a1.255,1.255,0,0,0,0,2.511h7.492a1.255,1.255,0,0,0,0-2.511Zm0,0" transform="translate(-56.589 -145.364)" fill="#fff" stroke="#000" stroke-width="1.2"/>
    <path id="Path_3748" data-name="Path 3748" d="M70.505,218.645H63.013a1.255,1.255,0,0,0,0,2.511h7.492a1.255,1.255,0,0,0,0-2.511Zm0,0" transform="translate(-56.589 -200.346)" fill="#fff" stroke="#000" stroke-width="1.2"/>
    <path id="Path_3749" data-name="Path 3749" d="M70.505,278.648H63.013a1.255,1.255,0,1,0,0,2.511h7.492a1.255,1.255,0,1,0,0-2.511Zm0,0" transform="translate(-56.589 -255.328)" fill="#fff" stroke="#000" stroke-width="1.2"/>
    <path id="Path_3750" data-name="Path 3750" d="M70.505,339.656H63.013a1.255,1.255,0,1,0,0,2.511h7.492a1.255,1.255,0,1,0,0-2.511Zm0,0" transform="translate(-56.589 -311.23)" fill="#fff" stroke="#000" stroke-width="1.2"/>
    <path id="Path_3751" data-name="Path 3751" d="M202.911,101.148H210.4a1.255,1.255,0,0,0,0-2.511h-7.492a1.255,1.255,0,1,0,0,2.511Zm0,0" transform="translate(-184.779 -90.382)" fill="#fff" stroke="#000" stroke-width="1.2"/>
    <path id="Path_3752" data-name="Path 3752" d="M202.911,161.152H210.4a1.255,1.255,0,0,0,0-2.511h-7.492a1.255,1.255,0,1,0,0,2.511Zm0,0" transform="translate(-184.779 -145.364)" fill="#fff" stroke="#000" stroke-width="1.2"/>
    <path id="Path_3753" data-name="Path 3753" d="M207.775,219.9a1.255,1.255,0,0,0-1.255-1.255h-3.609a1.255,1.255,0,1,0,0,2.511h3.609A1.255,1.255,0,0,0,207.775,219.9Zm0,0" transform="translate(-184.779 -200.346)" fill="#fff" stroke="#000" stroke-width="1.2"/>
    <path id="Path_3754" data-name="Path 3754" d="M318.424,342.964a1.255,1.255,0,0,0-1.765.193l-3.233,4.031-2-1.45a1.255,1.255,0,1,0-1.473,2.033l2.969,2.151a1.255,1.255,0,0,0,1.716-.231l3.982-4.963A1.255,1.255,0,0,0,318.424,342.964Zm0,0" transform="translate(-283.535 -314.008)" fill="#fff" stroke="#000" stroke-width="1.2"/>
    <path id="Path_3755" data-name="Path 3755" d="M38.062,25.1a10.353,10.353,0,0,0-6.013-3.022V5.055A5.062,5.062,0,0,0,26.993,0H5.056A5.062,5.062,0,0,0,0,5.055v29.08a5.062,5.062,0,0,0,5.056,5.056H22.7a10.334,10.334,0,0,0,7.928,3.658A10.434,10.434,0,0,0,38.062,25.1ZM2.511,34.136V5.055A2.548,2.548,0,0,1,5.056,2.51H26.993a2.548,2.548,0,0,1,2.545,2.545V22.04a10.44,10.44,0,0,0-8.428,14.64H5.056a2.548,2.548,0,0,1-2.545-2.545Zm28.117,6.2a7.922,7.922,0,0,1,0-15.844h.143a7.922,7.922,0,0,1-.143,15.843Zm0,0" transform="translate(0 0.001)" fill="#fff" stroke="#000" stroke-width="1.2"/>
  </g>
</svg>
