<svg xmlns="http://www.w3.org/2000/svg" width="38.513" height="38" viewBox="0 0 38.513 38">
  <g id="Improve_Commitment_to_Completion_" data-name="Improve Commitment to Completion " transform="translate(0.001 -0.5)">
    <path id="Path_8110" data-name="Path 8110" d="M38.355,108.293,31.909,99.92a.755.755,0,0,0-1-.176l-4.162,2.647H21.316a.749.749,0,0,0-.208.035L16.9,103.636l-4.367-1.194-4.243-2.7a.755.755,0,0,0-.993.163l-7.13,8.831a.755.755,0,0,0,.1,1.047L4,113l3.353,4.518A2.666,2.666,0,0,0,9.029,122a2.686,2.686,0,0,0-.031.408,2.669,2.669,0,0,0,2.669,2.669H11.7c0,.018,0,.036,0,.054a2.668,2.668,0,0,0,2.669,2.669,2.724,2.724,0,0,0,.417-.033,2.669,2.669,0,0,0,4.542,1.625l.408-.408.171.138a2.668,2.668,0,0,0,4.523-1.96,2.664,2.664,0,0,0,2.709-2.708,2.667,2.667,0,0,0,2.709-2.71,2.667,2.667,0,0,0,2.28-4.121l2.448-5.127,3.68-3.167a.755.755,0,0,0,.106-1.033ZM8.048,101.38l3.051,1.94-6.637,8.086L1.8,109.117Zm.43,17.144L9.4,117.6c.028-.028.057-.054.087-.079a1.156,1.156,0,0,1,.629-.255h.02c.033,0,.066,0,.1,0a1.152,1.152,0,0,1,.826.363,1.187,1.187,0,0,1-.051,1.643l-.893.893a1.158,1.158,0,0,1-1.638-1.638Zm2.369,4.7a1.158,1.158,0,0,1,0-1.638l1.786-1.786a1.171,1.171,0,0,1,1.317-.227,1.155,1.155,0,0,1,.638,1.2,1.222,1.222,0,0,1-.345.7l-1.757,1.757a1.158,1.158,0,0,1-1.638,0Zm2.7,2.722a1.158,1.158,0,0,1,0-1.638l1.785-1.786a1.171,1.171,0,0,1,1.4-.184,1.153,1.153,0,0,1,.553,1.171,1.224,1.224,0,0,1-.343.68l-1.757,1.757a1.158,1.158,0,0,1-1.638,0Zm3.071,2.374a1.16,1.16,0,0,1,0-1.638l.921-.921c.028-.028.057-.054.087-.079l0,0a1.154,1.154,0,0,1,.514-.239l.013,0c.032-.006.065-.011.1-.014l.04,0c.027,0,.054,0,.081,0a1.151,1.151,0,0,1,.826.363,1.042,1.042,0,0,1,.075.088,1.2,1.2,0,0,1-.13,1.56l-.888.888a1.16,1.16,0,0,1-1.638,0ZM30.7,119.893a1.159,1.159,0,0,1-1.638,0,.683.683,0,0,0-.051-.046l-4.856-4.907A.755.755,0,0,0,23.083,116l4.908,4.96,0,0a1.159,1.159,0,1,1-1.638,1.638l-3.284-3.318A.755.755,0,1,0,22,120.347l3.233,3.267a.715.715,0,0,0,.053.059,1.159,1.159,0,1,1-1.639,1.638L21.854,123.5a.755.755,0,1,0-1.074,1.062l1.742,1.76a.677.677,0,0,0,.053.059,1.158,1.158,0,0,1-1.638,1.638,1.673,1.673,0,0,0-.171-.137c-.049-.038-.062-.064-.038-.124s.062-.116.087-.177.05-.138.072-.209a2.723,2.723,0,0,0,.1-1.162,2.642,2.642,0,0,0-2.251-2.273,2.694,2.694,0,0,0-.647-2.43,2.649,2.649,0,0,0-1.9-.835h-.08a2.643,2.643,0,0,0-2.616-2.722,2.717,2.717,0,0,0-.644.068,2.659,2.659,0,0,0-4.413-1.58l-2.919-3.933L12.5,104l2.226.609-2.907,5.129a2.669,2.669,0,0,0,1.006,3.638q.058.033.118.063l.009,0a2.688,2.688,0,0,0,.32.134,2.669,2.669,0,0,0,3.191-1.208l1.889-3.333,3.373.239,8.981,8.981a1.16,1.16,0,0,1,0,1.638Zm.313-3.462-8.426-8.425a.671.671,0,0,0-.05-.046.756.756,0,0,0-.43-.173l-4.13-.293a.768.768,0,0,0-.71.381l-2.124,3.748a1.158,1.158,0,1,1-2.016-1.142l2.835-5,1.149-.331.023-.008,4.288-1.238H26.6l6.468,8.222Zm3.047-5.494-5.981-7.608,3.053-1.941,5.589,7.26Zm0,0" transform="translate(0 -91.669)" fill="#fff"/>
    <path id="Path_8111" data-name="Path 8111" d="M300.9,35.54a.753.753,0,0,0,.534-.221l5.158-5.158a.755.755,0,1,0-1.068-1.068l-5.158,5.158a.755.755,0,0,0,.534,1.289Zm0,0" transform="translate(-277.569 -26.237)" fill="#fff"/>
    <path id="Path_8112" data-name="Path 8112" d="M128.575,35.319a.755.755,0,0,0,1.068-1.068l-5.158-5.158a.755.755,0,0,0-1.068,1.068Zm0,0" transform="translate(-113.929 -26.237)" fill="#fff"/>
    <path id="Path_8113" data-name="Path 8113" d="M246.716,46.478a.755.755,0,0,0,.755-.755V41.454a.755.755,0,1,0-1.51,0v4.269A.755.755,0,0,0,246.716,46.478Zm0,0" transform="translate(-227.46 -37.175)" fill="#fff"/>
    <path id="Path_8114" data-name="Path 8114" d="M246.042,1.542A.755.755,0,1,0,247.2.654a.755.755,0,0,0-1.157.888Zm0,0" transform="translate(-227.484)" fill="#fff"/>
  </g>
</svg>
