<svg xmlns="http://www.w3.org/2000/svg" width="33.895" height="38" viewBox="0 0 33.895 38">
  <g id="Improve_Audit_Preparation_" data-name="Improve Audit Preparation " transform="translate(-32 -4.999)">
    <path id="Path_8079" data-name="Path 8079" d="M70.534,225.434a.454.454,0,0,0-.454.454v.2H66.9v-3.179h2.911a.454.454,0,1,0,0-.908h-3.4a.425.425,0,0,0-.422.451v4.115a.408.408,0,0,0,.422.43H70.53a.438.438,0,0,0,.458-.43v-.677A.454.454,0,0,0,70.534,225.434Z" transform="translate(-31.419 -200.575)" fill="#fff"/>
    <path id="Path_8080" data-name="Path 8080" d="M93.486,235.893l-1.477,1.239-.476-.476a.454.454,0,1,0-.642.642l.77.77a.454.454,0,0,0,.613.027l1.8-1.506a.454.454,0,1,0-.584-.7Z" transform="translate(-54.31 -213.318)" fill="#fff"/>
    <path id="Path_8081" data-name="Path 8081" d="M157.719,237h-5.7a.454.454,0,1,0,0,.908h5.7a.454.454,0,1,0,0-.908Z" transform="translate(-110.512 -214.44)" fill="#fff"/>
    <path id="Path_8082" data-name="Path 8082" d="M70.542,318H66.454a.454.454,0,0,0-.454.454v4.088a.454.454,0,0,0,.454.454h4.088a.454.454,0,0,0,.454-.454v-4.088A.454.454,0,0,0,70.542,318Zm-.454,4.163H66.908v-3.255h3.179Z" transform="translate(-31.426 -289.309)" fill="#fff"/>
    <path id="Path_8083" data-name="Path 8083" d="M65.993,127.424v4.115a.427.427,0,0,0,.422.453H70.53a.457.457,0,0,0,.458-.453v-.677a.454.454,0,1,0-.908,0v.222H66.9V127.9h2.911a.454.454,0,1,0,0-.908h-3.4a.406.406,0,0,0-.422.428Z" transform="translate(-31.419 -112.762)" fill="#fff"/>
    <path id="Path_8084" data-name="Path 8084" d="M93.486,140.6l-1.477,1.239-.476-.476a.454.454,0,1,0-.642.642l.77.77a.454.454,0,0,0,.613.027l1.8-1.506a.454.454,0,1,0-.584-.7Z" transform="translate(-54.31 -125.235)" fill="#fff"/>
    <path id="Path_8085" data-name="Path 8085" d="M151.562,142.454a.454.454,0,0,0,.454.454h5.7a.454.454,0,1,0,0-.908h-5.7A.454.454,0,0,0,151.562,142.454Z" transform="translate(-110.512 -126.631)" fill="#fff"/>
    <path id="Path_8086" data-name="Path 8086" d="M151.562,166.454a.454.454,0,0,0,.454.454h8.648a.454.454,0,1,0,0-.908h-8.648A.454.454,0,0,0,151.562,166.454Z" transform="translate(-110.512 -148.814)" fill="#fff"/>
    <path id="Path_8087" data-name="Path 8087" d="M58.06,78.454A.454.454,0,0,0,57.606,78h-.151a.454.454,0,1,0,0,.908h.151A.454.454,0,0,0,58.06,78.454Z" transform="translate(-23.108 -67.476)" fill="#fff"/>
    <path id="Path_8088" data-name="Path 8088" d="M79.454,78.908h6.964a.454.454,0,1,0,0-.908H79.454a.454.454,0,0,0,0,.908Z" transform="translate(-43.442 -67.476)" fill="#fff"/>
    <path id="Path_8089" data-name="Path 8089" d="M65.332,39.718l-4.511-4.511a.454.454,0,0,0-.642,0l-.294.294-.168-.168a7.309,7.309,0,0,0-.689-9.523h0a7.257,7.257,0,0,0-1.594-1.2V9.5a1.173,1.173,0,0,0-.4-.885l-3.795-3.31A1.246,1.246,0,0,0,52.418,5H38.469a2.4,2.4,0,0,0-1.288.36,2.464,2.464,0,0,0-1.169,2.092v.878H34.47A2.477,2.477,0,0,0,32,10.8V34.7a2.477,2.477,0,0,0,2.47,2.47H49.976a7.214,7.214,0,0,0,3.89,1.135h0A7.261,7.261,0,0,0,58.23,36.84L58.4,37l-.294.289a.45.45,0,0,0,0,.639l4.511,4.51a1.922,1.922,0,1,0,2.717-2.718ZM53.119,6.452l2.658,2.255H53.119ZM34.47,36.261h0A1.566,1.566,0,0,1,32.908,34.7V10.8A1.562,1.562,0,0,1,34.47,9.238h13.8v3.288a.421.421,0,0,0,.421.421h3.818v4.977a.467.467,0,0,0,.44.473.454.454,0,0,0,.468-.454V12.824a1.169,1.169,0,0,0-.4-.88l-3.789-3.3a1.258,1.258,0,0,0-.827-.31H36.92V7.491a1.6,1.6,0,0,1,.319-.978,1.543,1.543,0,0,1,1.23-.607H52.211V9.195a.421.421,0,0,0,.421.421h3.893V24.177a7.332,7.332,0,0,0-3.1-.492V21.122a.454.454,0,1,0-.908,0V23.8a7.335,7.335,0,0,0-2.038.714.452.452,0,0,0-.322-.135H41.5a.454.454,0,0,0,0,.908h7.788a7.255,7.255,0,0,0-2.635,4.542H41.5a.454.454,0,0,0,0,.908h5.068c0,.078,0,.155,0,.233a7.471,7.471,0,0,0,.038.751H41.5a.454.454,0,0,0,0,.908h5.251a7.271,7.271,0,0,0,1.949,3.52c.038.038.077.076.116.113ZM49.183,12.038V9.784l2.59,2.254Zm9.2,23.469A6.366,6.366,0,0,1,53.867,37.4h0a6.408,6.408,0,0,1-.93-12.747,6.329,6.329,0,0,1,.921-.068,6.4,6.4,0,0,1,4.528,10.926Zm.54.723.1-.1c.034-.034.066-.07.1-.105l.117.117-.2.2Zm.143,1.372L60.5,36.17l.4.4L59.462,38Zm5.623,4.19a1.014,1.014,0,0,1-1.433,0L60.1,38.641l1.433-1.433L64.69,40.36A1.013,1.013,0,0,1,64.69,41.793Z" fill="#fff"/>
    <path id="Path_8090" data-name="Path 8090" d="M253.563,272.51a5.851,5.851,0,1,0,0,8.275A5.851,5.851,0,0,0,253.563,272.51Zm-.643,7.632a4.943,4.943,0,1,1-4.215-8.386,4.886,4.886,0,0,1,.712-.052,4.942,4.942,0,0,1,3.5,8.438Z" transform="translate(-195.559 -245.677)" fill="#fff"/>
    <path id="Path_8091" data-name="Path 8091" d="M270.027,313.3c-.08-.11-1.988-2.684-4.44-2.684s-4.36,2.574-4.44,2.684a.454.454,0,0,0,0,.536c.08.11,1.988,2.684,4.44,2.684s4.36-2.574,4.44-2.684A.454.454,0,0,0,270.027,313.3Zm-6.949,1.234a8.129,8.129,0,0,1-.981-.967,8.138,8.138,0,0,1,.981-.967A2.68,2.68,0,0,0,263.078,314.53Zm2.508.814a1.781,1.781,0,1,1,1.781-1.781,1.781,1.781,0,0,1-1.781,1.781Zm2.508-.814a2.678,2.678,0,0,0,0-1.933,8.132,8.132,0,0,1,.981.966,8.132,8.132,0,0,1-.981.967Z" transform="translate(-211.72 -282.48)" fill="#fff"/>
  </g>
</svg>
