<svg xmlns="http://www.w3.org/2000/svg" width="36.301" height="38" viewBox="0 0 36.301 38">
  <g id="Improve_Document_Management" data-name="Improve Document Management" transform="translate(-11.448 0)">
    <g id="Group_6344" data-name="Group 6344" transform="translate(11.448 0)">
      <path id="Path_8104" data-name="Path 8104" d="M141.1,222.835h3.188a.557.557,0,1,0,0-1.113H141.1a.557.557,0,0,0,0,1.113Z" transform="translate(-130.961 -205.266)" fill="#fff"/>
      <path id="Path_8105" data-name="Path 8105" d="M141.1,259.183h12.949a.557.557,0,0,0,0-1.113H141.1a.557.557,0,1,0,0,1.113Z" transform="translate(-130.961 -238.916)" fill="#fff"/>
      <path id="Path_8106" data-name="Path 8106" d="M272.509,294.417h-3.452a.557.557,0,0,0,0,1.113h3.452a.557.557,0,0,0,0-1.113Z" transform="translate(-249.422 -272.566)" fill="#fff"/>
      <path id="Path_8107" data-name="Path 8107" d="M47.03,3.737,39.825.137a1.3,1.3,0,0,0-1.161,0l-7.205,3.6h0A1.292,1.292,0,0,0,30.741,4.9V5.935H22.919a.557.557,0,0,0,0,1.113h7.822V8.741a14.18,14.18,0,0,0,.183,2.319H21.586a.557.557,0,1,0,0,1.113h9.576a10.89,10.89,0,0,0,.553,1.584H21.586a.557.557,0,0,0,0,1.113h10.7a10.95,10.95,0,0,0,.643.97q.23.311.488.614H27a.557.557,0,0,0,0,1.113h7.476a24.83,24.83,0,0,0,4.089,3.008,1.3,1.3,0,0,0,1.358,0l.169-.1V33.991H25.529V32.953a.557.557,0,0,0-1.113,0V36.7a.186.186,0,0,1-.186.186H12.747a.186.186,0,0,1-.186-.186V28.684a.186.186,0,0,1,.186-.186H24.23a.186.186,0,0,1,.186.186v1.672a.557.557,0,0,0,1.113,0V28.684a1.293,1.293,0,0,0-.042-.324h9.048a.557.557,0,1,0,0-1.113H23.74V25.663H34.535a.557.557,0,0,0,0-1.113H23.717a5.21,5.21,0,0,0-.4-1.584h5.765a.557.557,0,0,0,0-1.113H22.661A5.242,5.242,0,0,0,16.028,20.4V7.048h4.293a.557.557,0,0,0,0-1.113H15.842a.929.929,0,0,0-.928.928V21.192a5.237,5.237,0,0,0-1.678,3.843v2.35h-.49a1.3,1.3,0,0,0-1.3,1.3V36.7a1.3,1.3,0,0,0,1.3,1.3H24.23a1.3,1.3,0,0,0,1.3-1.3V35.1h14.75a.929.929,0,0,0,.928-.928V19.758a16.959,16.959,0,0,0,4.356-3.916,11.485,11.485,0,0,0,2.186-7.1V4.9a1.292,1.292,0,0,0-.718-1.162ZM20.4,27.385H16.576v-2.35a1.912,1.912,0,0,1,3.824,0v2.35Zm-6.05-2.35a4.138,4.138,0,1,1,8.277,0v2.35H21.514v-2.35a3.025,3.025,0,0,0-6.05,0v2.35H14.35ZM46.635,8.741c0,5.349-2.79,8.132-7.292,10.887a.19.19,0,0,1-.2,0c-4.5-2.755-7.293-5.537-7.293-10.887V4.9a.185.185,0,0,1,.1-.166l7.205-3.6a.186.186,0,0,1,.166,0l7.205,3.6a.185.185,0,0,1,.1.166V8.741Z" transform="translate(-11.448 0)" fill="#fff"/>
      <path id="Path_8108" data-name="Path 8108" d="M315.259,52.13a5.633,5.633,0,1,0,5.306,7.524.557.557,0,1,0-1.049-.374,4.522,4.522,0,1,1,.19-2.313.557.557,0,1,0,1.1-.195A5.622,5.622,0,0,0,315.259,52.13Z" transform="translate(-287.496 -48.261)" fill="#fff"/>
      <path id="Path_8109" data-name="Path 8109" d="M356.418,105.469l-2.193,2.193-1.275-1.275a.557.557,0,0,0-.787.787l1.669,1.669a.557.557,0,0,0,.787,0l2.587-2.587a.557.557,0,0,0-.787-.787Z" transform="translate(-326.724 -97.49)" fill="#fff"/>
    </g>
  </g>
</svg>
