<svg xmlns="http://www.w3.org/2000/svg" width="558.792" height="416.423" viewBox="0 0 558.792 416.423">
  <g id="Improve_functional_" data-name="Improve functional " transform="translate(0 -54.95)">
    <g id="Background_Complete" transform="translate(0 54.95)">
      <g id="Group_6300" data-name="Group 6300">
        <rect id="Rectangle_673" data-name="Rectangle 673" width="558.792" height="0.279" transform="translate(0 365.953)" fill="#ebebeb"/>
        <rect id="Rectangle_674" data-name="Rectangle 674" width="29.057" height="0.279" transform="translate(58.628 376.592)" fill="#ebebeb"/>
        <rect id="Rectangle_675" data-name="Rectangle 675" width="60.461" height="0.279" transform="translate(163.536 373.564)" fill="#ebebeb"/>
        <rect id="Rectangle_676" data-name="Rectangle 676" width="29.415" height="0.279" transform="translate(88.803 386.975)" fill="#ebebeb"/>
        <rect id="Rectangle_677" data-name="Rectangle 677" width="21.491" height="0.279" transform="translate(481.31 385.097)" fill="#ebebeb"/>
        <rect id="Rectangle_678" data-name="Rectangle 678" width="33.852" height="0.279" transform="translate(437.501 385.097)" fill="#ebebeb"/>
        <rect id="Rectangle_679" data-name="Rectangle 679" width="60.975" height="0.279" transform="translate(288.594 380.381)" fill="#ebebeb"/>
        <path id="Path_7946" data-name="Path 7946" d="M260.386,371.059H44.591a6.386,6.386,0,0,1-6.381-6.381V61.331a6.386,6.386,0,0,1,6.381-6.381H260.4a6.386,6.386,0,0,1,6.381,6.381V364.677A6.4,6.4,0,0,1,260.386,371.059ZM44.591,55.229a6.11,6.11,0,0,0-6.1,6.1V364.677a6.11,6.11,0,0,0,6.1,6.1H260.4a6.11,6.11,0,0,0,6.1-6.1V61.331a6.11,6.11,0,0,0-6.1-6.1Z" transform="translate(4.493 -54.95)" fill="#ebebeb"/>
        <path id="Path_7947" data-name="Path 7947" d="M476.687,371.059H260.881a6.387,6.387,0,0,1-6.381-6.381V61.331a6.387,6.387,0,0,1,6.381-6.381H476.687a6.386,6.386,0,0,1,6.381,6.381V364.677A6.386,6.386,0,0,1,476.687,371.059ZM260.881,55.229a6.11,6.11,0,0,0-6.1,6.1V364.677a6.11,6.11,0,0,0,6.1,6.1H476.687a6.11,6.11,0,0,0,6.1-6.1V61.331a6.11,6.11,0,0,0-6.1-6.1Z" transform="translate(29.925 -54.95)" fill="#ebebeb"/>
      </g>
      <g id="Group_6309" data-name="Group 6309" transform="translate(76.286 21.279)">
        <g id="Group_6304" data-name="Group 6304" transform="translate(210.743 227.261)">
          <rect id="Rectangle_680" data-name="Rectangle 680" width="30.734" height="117.413" transform="translate(175.371)" fill="#e6e6e6"/>
          <path id="Path_7948" data-name="Path 7948" d="M436.674,384.147h5.834V367.54H430.55Z" transform="translate(-236.403 -266.734)" fill="#f0f0f0"/>
          <rect id="Rectangle_681" data-name="Rectangle 681" width="30.734" height="117.413" fill="#e6e6e6"/>
          <rect id="Rectangle_682" data-name="Rectangle 682" width="180.467" height="107.221" transform="translate(25.637)" fill="#f0f0f0"/>
          <g id="Group_6301" data-name="Group 6301" transform="translate(31.638 4.85)">
            <rect id="Rectangle_683" data-name="Rectangle 683" width="81.025" height="53.499" transform="translate(0 81.607) rotate(-90)" fill="#e6e6e6"/>
            <path id="Path_7949" data-name="Path 7949" d="M316.2,286.91H305.619a16.749,16.749,0,0,1-12.159-5.23h34.891A16.7,16.7,0,0,1,316.2,286.91Z" transform="translate(-284.16 -281.68)" fill="#f0f0f0"/>
          </g>
          <g id="Group_6302" data-name="Group 6302" transform="translate(89.123 4.85)">
            <rect id="Rectangle_684" data-name="Rectangle 684" width="81.025" height="53.499" transform="translate(0 81.616) rotate(-90)" fill="#e6e6e6"/>
            <path id="Path_7950" data-name="Path 7950" d="M368.123,286.91H357.539a16.749,16.749,0,0,1-12.159-5.23h34.891A16.686,16.686,0,0,1,368.123,286.91Z" transform="translate(-335.541 -281.68)" fill="#f0f0f0"/>
          </g>
          <g id="Group_6303" data-name="Group 6303" transform="translate(146.609 4.85)">
            <rect id="Rectangle_685" data-name="Rectangle 685" width="81.025" height="53.499" transform="translate(0 81.613) rotate(-90)" fill="#e6e6e6"/>
            <path id="Path_7951" data-name="Path 7951" d="M419.563,286.91H408.979a16.749,16.749,0,0,1-12.159-5.23h34.891A16.7,16.7,0,0,1,419.563,286.91Z" transform="translate(-386.979 -281.68)" fill="#f0f0f0"/>
          </g>
          <path id="Path_7952" data-name="Path 7952" d="M285.6,384.147H279.77V367.54h11.958Z" transform="translate(-254.133 -266.734)" fill="#f0f0f0"/>
        </g>
        <g id="Group_6305" data-name="Group 6305">
          <rect id="Rectangle_686" data-name="Rectangle 686" width="169.314" height="158.585" fill="#e6e6e6"/>
          <rect id="Rectangle_687" data-name="Rectangle 687" width="172.555" height="158.585" transform="translate(2.839)" fill="#f0f0f0"/>
          <rect id="Rectangle_688" data-name="Rectangle 688" width="169.314" height="11.299" transform="translate(0 158.585)" fill="#e6e6e6"/>
          <rect id="Rectangle_689" data-name="Rectangle 689" width="172.555" height="11.299" transform="translate(12.964 158.585)" fill="#f0f0f0"/>
          <rect id="Rectangle_690" data-name="Rectangle 690" width="141.553" height="155.534" transform="translate(166.888 8.515) rotate(90)" fill="#fafafa"/>
          <path id="Path_7953" data-name="Path 7953" d="M92.99,223.163,142.957,81.61h23.581L116.571,223.163Z" transform="translate(-65.352 -73.094)" fill="#fff"/>
          <path id="Path_7954" data-name="Path 7954" d="M82,174.622a.6.6,0,0,0,.6-.6v-87.4a.6.6,0,0,0-1.207,0v87.384A.611.611,0,0,0,82,174.622Z" transform="translate(-66.715 -72.575)" fill="#f0f0f0"/>
          <path id="Path_7955" data-name="Path 7955" d="M118.63,223.163,168.6,81.61h9.187L127.828,223.163Z" transform="translate(-62.337 -73.094)" fill="#fff"/>
          <rect id="Rectangle_691" data-name="Rectangle 691" width="141.553" height="1.084" transform="translate(166.877 8.515) rotate(90)" fill="#e6e6e6"/>
          <path id="Path_7956" data-name="Path 7956" d="M244.9,95.936H75.582L74.8,84.57H244.114Z" transform="translate(-67.491 -72.746)" fill="#e6e6e6" opacity="0.5"/>
          <path id="Path_7957" data-name="Path 7957" d="M244.9,103.376H75.582L74.8,92.01H244.114Z" transform="translate(-67.491 -71.871)" fill="#e6e6e6" opacity="0.5"/>
          <path id="Path_7958" data-name="Path 7958" d="M244.9,112.306H75.582L74.8,100.94H244.114Z" transform="translate(-67.491 -70.821)" fill="#e6e6e6" opacity="0.5"/>
          <path id="Path_7959" data-name="Path 7959" d="M244.9,122.246H75.582L74.8,110.88H244.114Z" transform="translate(-67.491 -69.652)" fill="#e6e6e6" opacity="0.5"/>
          <path id="Path_7960" data-name="Path 7960" d="M244.9,134.156H75.582L74.8,122.79H244.114Z" transform="translate(-67.491 -68.252)" fill="#e6e6e6" opacity="0.5"/>
          <path id="Path_7961" data-name="Path 7961" d="M244.9,147.546H75.582L74.8,136.18H244.114Z" transform="translate(-67.491 -66.677)" fill="#e6e6e6" opacity="0.5"/>
        </g>
        <g id="Group_6307" data-name="Group 6307" transform="translate(5.845 239.398)">
          <g id="Group_6306" data-name="Group 6306">
            <rect id="Rectangle_692" data-name="Rectangle 692" width="50.112" height="105.276" transform="translate(123.27)" fill="#e6e6e6"/>
            <path id="Path_7962" data-name="Path 7962" d="M224.665,383.909h5.04V369.57H219.39Z" transform="translate(-56.334 -278.632)" fill="#f0f0f0"/>
            <rect id="Rectangle_693" data-name="Rectangle 693" width="50.112" height="105.276" fill="#e6e6e6"/>
            <rect id="Rectangle_694" data-name="Rectangle 694" width="127.662" height="96.481" transform="translate(45.709)" fill="#f0f0f0"/>
            <rect id="Rectangle_695" data-name="Rectangle 695" width="119.85" height="26.464" transform="translate(49.621 4.269)" fill="#e6e6e6"/>
            <path id="Path_7963" data-name="Path 7963" d="M179.129,300.33H167.808c-4.917,0-9.622-3.263-13-9.03h37.327C188.751,297.067,184.046,300.33,179.129,300.33Z" transform="translate(-63.928 -287.836)" fill="#f0f0f0"/>
            <path id="Path_7964" data-name="Path 7964" d="M119.43,383.909h-5.04V369.57h10.326Z" transform="translate(-68.681 -278.632)" fill="#f0f0f0"/>
            <rect id="Rectangle_696" data-name="Rectangle 696" width="119.85" height="26.464" transform="translate(49.621 35.003)" fill="#e6e6e6"/>
            <path id="Path_7965" data-name="Path 7965" d="M179.129,327.83H167.808c-4.917,0-9.622-3.263-13-9.03h37.327C188.751,324.567,184.046,327.83,179.129,327.83Z" transform="translate(-63.928 -284.602)" fill="#f0f0f0"/>
            <rect id="Rectangle_697" data-name="Rectangle 697" width="119.85" height="26.464" transform="translate(49.621 65.736)" fill="#e6e6e6"/>
            <path id="Path_7966" data-name="Path 7966" d="M179.129,355.33H167.808c-4.917,0-9.622-3.263-13-9.03h37.327C188.751,352.067,184.046,355.33,179.129,355.33Z" transform="translate(-63.928 -281.368)" fill="#f0f0f0"/>
          </g>
        </g>
        <g id="Group_6308" data-name="Group 6308" transform="translate(284.257 21.771)">
          <rect id="Rectangle_698" data-name="Rectangle 698" width="97.297" height="130.131" fill="#e6e6e6"/>
          <rect id="Rectangle_699" data-name="Rectangle 699" width="102.259" height="130.131" transform="translate(1.363)" fill="#f0f0f0"/>
          <rect id="Rectangle_700" data-name="Rectangle 700" width="101.823" height="73.951" transform="translate(89.465 14.15) rotate(90)" fill="#fff"/>
          <rect id="Rectangle_701" data-name="Rectangle 701" width="101.823" height="1.106" transform="translate(89.462 14.154) rotate(90)" fill="#e6e6e6"/>
          <path id="Path_7967" data-name="Path 7967" d="M373.222,132.42H351.127a.825.825,0,0,0-.827.827v22.095A20.18,20.18,0,0,0,370.461,175.5h22.095a.825.825,0,0,0,.827-.827V152.581A20.18,20.18,0,0,0,373.222,132.42Zm-2.76,41.429a18.542,18.542,0,0,1-18.518-18.518V134.063H373.21a18.542,18.542,0,0,1,18.518,18.518Z" transform="translate(-319.354 -88.89)" fill="#f0f0f0"/>
        </g>
      </g>
    </g>
    <g id="Shadow_1_" transform="translate(62.708 446.071)">
      <ellipse id="_x3C_Path_x3E__77_" cx="216.688" cy="12.651" rx="216.688" ry="12.651" fill="#e8e8e8"/>
    </g>
    <g id="Contract" transform="translate(230.357 80.744)">
      <g id="Group_6319" data-name="Group 6319">
        <g id="Group_6318" data-name="Group 6318">
          <g id="Group_6312" data-name="Group 6312">
            <g id="Group_6310" data-name="Group 6310">
              <path id="Path_7968" data-name="Path 7968" d="M251.349,89.206c-1.028-6.169,3.152-11.176,9.321-11.176H215.6c-6.169,0-10.349,5.007-9.321,11.176Z" transform="translate(-206.121 -78.03)" fill="#64666b"/>
              <path id="Path_7969" data-name="Path 7969" d="M251.349,89.206c-1.028-6.169,3.152-11.176,9.321-11.176H215.6c-6.169,0-10.349,5.007-9.321,11.176Z" transform="translate(-206.121 -78.03)" fill="#c8bfbf" opacity="0.3"/>
            </g>
            <path id="Path_7970" data-name="Path 7970" d="M259.672,78.04H214.6a13.718,13.718,0,0,1,13.02,11.176l9.879,59.59a13.728,13.728,0,0,0,13.02,11.176h22.732c6.169,0,10.349-5.007,9.321-11.176l-9.879-59.59A13.7,13.7,0,0,0,259.672,78.04Z" transform="translate(-205.124 -78.029)" fill="#d8d8d8"/>
            <g id="Group_6311" data-name="Group 6311" transform="translate(45.406 70.765)">
              <path id="Path_7971" data-name="Path 7971" d="M256.071,141.35c1.028,6.169-3.152,11.176-9.321,11.176h45.083c6.169,0,10.349-5.007,9.321-11.176Z" transform="translate(-246.75 -141.35)" fill="#c7c7c7"/>
              <path id="Path_7972" data-name="Path 7972" d="M256.071,141.35c1.028,6.169-3.152,11.176-9.321,11.176h45.083c6.169,0,10.349-5.007,9.321-11.176Z" transform="translate(-246.75 -141.35)" opacity="0.3"/>
            </g>
          </g>
          <g id="Group_6313" data-name="Group 6313" transform="translate(29.004 14.976)">
            <path id="Path_7973" data-name="Path 7973" d="M265.05,92.771H232.863a.832.832,0,0,1-.782-.671h0a.557.557,0,0,1,.559-.671h32.186a.832.832,0,0,1,.782.671h0A.552.552,0,0,1,265.05,92.771Z" transform="translate(-232.073 -91.43)" fill="#fff"/>
            <path id="Path_7974" data-name="Path 7974" d="M247.142,96.931H233.563a.832.832,0,0,1-.782-.671h0a.557.557,0,0,1,.559-.671h13.579a.832.832,0,0,1,.782.671h0A.557.557,0,0,1,247.142,96.931Z" transform="translate(-231.991 -90.941)" fill="#fff"/>
            <path id="Path_7975" data-name="Path 7975" d="M257.94,96.931h-9.377a.832.832,0,0,1-.782-.671h0a.557.557,0,0,1,.559-.671h9.377a.832.832,0,0,1,.782.671h0A.562.562,0,0,1,257.94,96.931Z" transform="translate(-230.227 -90.941)" fill="#fff"/>
            <path id="Path_7976" data-name="Path 7976" d="M266.43,101.091H234.243a.832.832,0,0,1-.782-.671h0a.557.557,0,0,1,.559-.671h32.186a.832.832,0,0,1,.782.671h0A.548.548,0,0,1,266.43,101.091Z" transform="translate(-231.911 -90.452)" fill="#fff"/>
            <path id="Path_7977" data-name="Path 7977" d="M263.944,105.261h-29a.832.832,0,0,1-.782-.671h0a.557.557,0,0,1,.559-.671h29a.832.832,0,0,1,.782.671h0A.557.557,0,0,1,263.944,105.261Z" transform="translate(-231.828 -89.961)" fill="#fff"/>
            <path id="Path_7978" data-name="Path 7978" d="M255.146,109.421H235.633a.832.832,0,0,1-.782-.671h0a.557.557,0,0,1,.559-.671h19.513a.832.832,0,0,1,.782.671h0A.557.557,0,0,1,255.146,109.421Z" transform="translate(-231.747 -89.472)" fill="#fff"/>
            <path id="Path_7979" data-name="Path 7979" d="M268.5,113.591H236.313a.832.832,0,0,1-.782-.671h0a.557.557,0,0,1,.559-.671h32.186a.832.832,0,0,1,.782.671h0A.552.552,0,0,1,268.5,113.591Z" transform="translate(-231.667 -88.982)" fill="#fff"/>
            <path id="Path_7980" data-name="Path 7980" d="M269.19,117.751H237a.832.832,0,0,1-.782-.671h0a.557.557,0,0,1,.559-.671h32.186a.832.832,0,0,1,.782.671h0A.552.552,0,0,1,269.19,117.751Z" transform="translate(-231.586 -88.493)" fill="#fff"/>
            <path id="Path_7981" data-name="Path 7981" d="M257.216,121.911H237.7a.832.832,0,0,1-.782-.671h0a.557.557,0,0,1,.559-.671h19.513a.832.832,0,0,1,.782.671h0A.557.557,0,0,1,257.216,121.911Z" transform="translate(-231.504 -88.004)" fill="#fff"/>
          </g>
          <g id="Group_6317" data-name="Group 6317" transform="translate(43.752 9.394)">
            <g id="Group_6316" data-name="Group 6316" transform="translate(25.348)">
              <g id="Group_6314" data-name="Group 6314" transform="translate(4.088 2.495)">
                <rect id="Rectangle_702" data-name="Rectangle 702" width="2.369" height="58.595" transform="translate(2.013 51.043) rotate(-148.19)" fill="#263238"/>
                <rect id="Rectangle_703" data-name="Rectangle 703" width="2.369" height="58.595" transform="translate(2.013 51.043) rotate(-148.19)" opacity="0.3"/>
              </g>
              <g id="Group_6315" data-name="Group 6315" transform="translate(0.069)">
                <rect id="Rectangle_704" data-name="Rectangle 704" width="2.369" height="58.595" transform="translate(2.013 51.043) rotate(-148.19)" fill="#263238"/>
                <rect id="Rectangle_705" data-name="Rectangle 705" width="2.369" height="58.595" transform="translate(2.013 51.043) rotate(-148.19)" opacity="0.3"/>
              </g>
              <rect id="Rectangle_706" data-name="Rectangle 706" width="2.369" height="58.595" transform="translate(4.101 52.281) rotate(-148.19)" fill="#263238"/>
              <path id="Path_7982" data-name="Path 7982" d="M267.97,135.8l1.81,1.118,4.28-2.179-6.035-3.744Z" transform="translate(-267.948 -81.197)" fill="#ff8b7b"/>
              <path id="Path_7983" data-name="Path 7983" d="M267.95,137.346l1.833-.939-1.81-1.118Z" transform="translate(-267.95 -80.691)" fill="#263238"/>
            </g>
            <path id="Path_7984" data-name="Path 7984" d="M269.5,138.077a.278.278,0,0,1-.089-.011,9.908,9.908,0,0,1-3.856-2.839,16.078,16.078,0,0,0-2.112-1.911.633.633,0,0,0-.816-.011.536.536,0,0,0,0,.726c.268.391.57.782.872,1.151a.814.814,0,0,1,.089.983.759.759,0,0,1-.883.279,10.676,10.676,0,0,1-1.252-.481c-.1-.045-.19-.045-.246.022a.231.231,0,0,0-.022.257l.056.134a.92.92,0,0,1-.089.916.951.951,0,0,1-.827.38,141.826,141.826,0,0,0-14.763.056.28.28,0,1,1-.022-.559,142.907,142.907,0,0,1,14.819-.056.368.368,0,0,0,.335-.145.407.407,0,0,0,.022-.38l-.056-.123a.793.793,0,0,1,.134-.883.775.775,0,0,1,.872-.134c.391.179.793.324,1.185.458a.206.206,0,0,0,.246-.056.254.254,0,0,0-.056-.313,13.427,13.427,0,0,1-.905-1.2,1.1,1.1,0,0,1,.067-1.442,1.179,1.179,0,0,1,1.531-.056,16.6,16.6,0,0,1,2.19,1.978,9.478,9.478,0,0,0,3.632,2.693.276.276,0,0,1,.179.346A.218.218,0,0,1,269.5,138.077Z" transform="translate(-245.269 -81.008)" fill="#fff"/>
          </g>
        </g>
        <path id="Path_7985" data-name="Path 7985" d="M263.507,175.5l7.465-12.93H256.03Z" transform="translate(-200.252 -68.089)" fill="#818181"/>
      </g>
    </g>
    <g id="Character_2" transform="translate(282.637 129.325)">
      <g id="Group_6332" data-name="Group 6332">
        <path id="Path_7986" data-name="Path 7986" d="M341.713,141.417a16.553,16.553,0,0,0-11.545-4.146c-2.727-5.465-8.326-8.672-14.249-7.588-8.494,1.553-11.075,11.757-5.186,15.479a25.549,25.549,0,0,0,6.281,2.861l-.034.268a19.146,19.146,0,0,0-12.606,16.529c-.872,12.662,12.718,20.049,20.172,13.009a37.19,37.19,0,0,0,2.895-3.073c1.431,2.012,2.973,4.068,4.638,6.214C350.553,172.463,353.671,151.732,341.713,141.417Z" transform="translate(-246.852 -120.563)" fill="#263238"/>
        <path id="Path_7987" data-name="Path 7987" d="M309.117,184.242c-.112,1.565-.246,2.917-.447,4.359-.179,1.408-.4,2.816-.626,4.213-.469,2.794-1.1,5.566-1.777,8.326a88.208,88.208,0,0,1-5.677,16.194l-.224.492c-.089.19-.112.257-.279.592a9.5,9.5,0,0,1-.995,1.565,9.977,9.977,0,0,1-2.559,2.291,14.934,14.934,0,0,1-5.241,1.911,33.124,33.124,0,0,1-9.2.134,74.316,74.316,0,0,1-16.574-4l1.229-4.47c2.582.391,5.275.749,7.912.995a68.806,68.806,0,0,0,7.823.391,28.374,28.374,0,0,0,7.13-.76,6.769,6.769,0,0,0,2.358-1.062,1.447,1.447,0,0,0,.436-.481,1.364,1.364,0,0,0,.078-.19l.3-.794c.469-1.2.928-2.4,1.33-3.643.447-1.218.8-2.47,1.2-3.71.7-2.515,1.4-5.029,1.967-7.6s1.051-5.152,1.475-7.745c.436-2.559.782-5.264,1.039-7.689Z" transform="translate(-251.416 -114.203)" fill="#ffb573"/>
        <g id="Group_6320" data-name="Group 6320" transform="translate(44.938 58.221)">
          <path id="Path_7988" data-name="Path 7988" d="M299.514,174.226c-3.766.961-6.4,16.484-6.4,16.484l10.394,7.063s9.969-15.657,7.063-19.8C307.538,173.645,305.012,172.818,299.514,174.226Z" transform="translate(-293.11 -173.596)" fill="#263238"/>
        </g>
        <path id="Path_7989" data-name="Path 7989" d="M299.445,177.26,296.55,192.9l5.845,3.967Z" transform="translate(-247.767 -114.944)" opacity="0.2"/>
        <path id="Path_7990" data-name="Path 7990" d="M263.882,212.623l-7.052,2.749,7.968,4.806s5.085-2.939,4.962-6.739l-.782-.447A5.959,5.959,0,0,0,263.882,212.623Z" transform="translate(-252.438 -110.833)" fill="#ffb573"/>
        <path id="Path_7991" data-name="Path 7991" d="M263.249,212.89s-2.079.715-3.5,1.207a20.46,20.46,0,0,0-2,.8s2.3.961,3.453.313c1.553.358,5.23-.313,5.23-.313Z" transform="translate(-252.33 -110.754)" opacity="0.1"/>
        <path id="Path_7992" data-name="Path 7992" d="M252.9,220.248l6,4.984,6.359-5.387-7.968-4.806Z" transform="translate(-252.9 -110.501)" fill="#ffb573"/>
        <path id="Path_7993" data-name="Path 7993" d="M318.117,410.109h-9.142l-.615-21.189h9.153Z" transform="translate(-246.379 -90.056)" fill="#ffb573"/>
        <path id="Path_7994" data-name="Path 7994" d="M310.428,406.93H320.71a.716.716,0,0,1,.726.626l1.173,8.136a1.477,1.477,0,0,1-1.464,1.632c-3.587-.067-5.309-.268-9.835-.268-2.783,0-10.774.291-14.607.291-3.755,0-4.046-3.8-2.448-4.146,7.175-1.542,12.226-3.666,14.64-5.7A2.385,2.385,0,0,1,310.428,406.93Z" transform="translate(-248.145 -87.938)" fill="#263238"/>
        <g id="Group_6321" data-name="Group 6321" transform="translate(61.981 298.864)" opacity="0.2">
          <path id="Path_7995" data-name="Path 7995" d="M308.36,388.92l.313,10.93h9.153l-.313-10.93Z" transform="translate(-308.36 -388.92)"/>
        </g>
        <g id="Group_6322" data-name="Group 6322" transform="translate(50.254 56.199)">
          <path id="Path_7996" data-name="Path 7996" d="M298.954,174.439s-4.359,1.531,4.37,55.22h37.16c-.626-15.121-.637-24.453,6.583-55.488a108.929,108.929,0,0,0-15.78-2.079,117.985,117.985,0,0,0-16.876,0C307.169,172.752,298.954,174.439,298.954,174.439Z" transform="translate(-297.866 -171.786)" fill="#263238"/>
        </g>
        <path id="Path_7997" data-name="Path 7997" d="M322.659,189.116a16.545,16.545,0,0,1-8.617-2.727.281.281,0,1,1,.324-.458,15.974,15.974,0,0,0,9.254,2.582c1.218-.771,9.645-6.393,10.282-16.116a.284.284,0,0,1,.3-.257.278.278,0,0,1,.257.3c-.648,9.958-8.952,15.568-10.606,16.6a.4.4,0,0,1-.123.045Q323.179,189.116,322.659,189.116Z" transform="translate(-245.724 -115.546)" fill="#fff"/>
        <path id="Path_7998" data-name="Path 7998" d="M307.761,187.4a.225.225,0,0,1-.145-.045,3.657,3.657,0,0,1-1.363-2.671c-.525-3.409.738-9.365,3.4-12.45a.278.278,0,0,1,.425.358c-2.481,2.883-3.777,8.717-3.263,12a3.255,3.255,0,0,0,1.039,2.235,17.107,17.107,0,0,0,4.5-1.419.282.282,0,0,1,.369.134.278.278,0,0,1-.134.369A16.7,16.7,0,0,1,307.761,187.4Z" transform="translate(-246.64 -115.547)" fill="#fff"/>
        <path id="Path_7999" data-name="Path 7999" d="M328.039,155.06c-1.062,5.431-2.123,15.378,1.676,19,0,0-1.486,5.51-11.578,5.51-11.1,0-5.3-5.51-5.3-5.51,6.057-1.442,5.9-5.934,4.839-10.159Z" transform="translate(-246.03 -117.554)" fill="#ffb573"/>
        <path id="Path_8000" data-name="Path 8000" d="M329.764,172.093a116.376,116.376,0,0,0-16.876,0c-.369.034-.738.067-1.1.112-1.352,2.559-1.688,6.482,1.542,12.238,0,0,14.808-5.957,18.652-12.2C331.25,172.182,330.512,172.126,329.764,172.093Z" transform="translate(-246.09 -115.588)" fill="#ffb573"/>
        <path id="Path_8001" data-name="Path 8001" d="M323.146,158.29l-6.136,5.23a17.726,17.726,0,0,1,.525,3c2.313-.335,5.487-2.872,5.733-5.3A8.012,8.012,0,0,0,323.146,158.29Z" transform="translate(-245.362 -117.174)" opacity="0.2"/>
        <path id="Path_8002" data-name="Path 8002" d="M334.37,148.256c-2.068,8.84-2.76,12.629-8.047,16.451-7.968,5.744-18.373,1.263-18.988-8.013-.548-8.36,2.928-21.413,12.282-23.48A12.38,12.38,0,0,1,334.37,148.256Z" transform="translate(-246.506 -120.16)" fill="#ffb573"/>
        <g id="Group_6323" data-name="Group 6323" transform="translate(49.06 114.072)">
          <path id="Path_8003" data-name="Path 8003" d="M303.45,223.57s-7.22,70.486-6.616,98.392c.626,29.024,11.254,95.218,11.254,95.218H320.46s-1.956-64.5-.861-93.005c1.2-31.069,11.064-100.6,11.064-100.6Z" transform="translate(-296.798 -223.57)" fill="#e1e1e1"/>
          <path id="Path_8004" data-name="Path 8004" d="M303.45,223.57s-7.22,70.486-6.616,98.392c.626,29.024,11.254,95.218,11.254,95.218H320.46s-1.956-64.5-.861-93.005c1.2-31.069,11.064-100.6,11.064-100.6Z" transform="translate(-296.798 -223.57)" fill="#e1e1e1" opacity="0.3"/>
        </g>
        <path id="Path_8005" data-name="Path 8005" d="M320.569,397.747H306.052l-1.062-4.627,16.261-.57Z" transform="translate(-246.775 -89.629)" fill="#263238"/>
        <path id="Path_8006" data-name="Path 8006" d="M317.556,239.718c-9.131,18.362-1.833,51.856,1.4,64.317,1.654-18.72,4.448-41.6,6.616-58.394C324.195,236.142,321.769,231.258,317.556,239.718Z" transform="translate(-245.818 -108.112)" opacity="0.2"/>
        <path id="Path_8007" data-name="Path 8007" d="M356.676,410.109h-9.153L344.17,388.92h9.142Z" transform="translate(-242.168 -90.056)" fill="#ffb573"/>
        <path id="Path_8008" data-name="Path 8008" d="M348.465,406.93h10.282a.858.858,0,0,1,.816.626l2.224,8.136a1.277,1.277,0,0,1-1.252,1.632c-3.587-.067-5.342-.268-9.868-.268-2.783,0-10.729.291-14.573.291-3.755,0-4.537-3.8-2.984-4.146,6.974-1.542,11.757-3.666,13.9-5.7A2.083,2.083,0,0,1,348.465,406.93Z" transform="translate(-243.557 -87.938)" fill="#263238"/>
        <g id="Group_6324" data-name="Group 6324" transform="translate(102.002 298.864)" opacity="0.2">
          <path id="Path_8009" data-name="Path 8009" d="M344.17,388.92l1.732,10.93h9.153l-1.732-10.93Z" transform="translate(-344.17 -388.92)"/>
        </g>
        <g id="Group_6325" data-name="Group 6325" transform="translate(65.993 114.072)">
          <path id="Path_8010" data-name="Path 8010" d="M311.95,223.57s7.689,70.486,11.9,98.392c4.392,29.024,23.615,95.218,23.615,95.218h12.372s-10.326-64.5-12.93-93.005c-2.839-31.069-7.745-100.6-7.745-100.6Z" transform="translate(-311.95 -223.57)" fill="#c4c4c4"/>
          <path id="Path_8011" data-name="Path 8011" d="M311.95,223.57s7.689,70.486,11.9,98.392c4.392,29.024,23.615,95.218,23.615,95.218h12.372s-10.326-64.5-12.93-93.005c-2.839-31.069-7.745-100.6-7.745-100.6Z" transform="translate(-311.95 -223.57)" fill="#ececec" opacity="0.3"/>
        </g>
        <path id="Path_8012" data-name="Path 8012" d="M357.513,397.747H343l-1.665-4.627,16.183-.57Z" transform="translate(-242.502 -89.629)" fill="#263238"/>
        <path id="Path_8015" data-name="Path 8015" d="M318.594,146.745c-.123.726-.615,1.252-1.084,1.173s-.76-.738-.637-1.464.615-1.252,1.084-1.173S318.717,146.018,318.594,146.745Z" transform="translate(-245.381 -118.705)" fill="#263238"/>
        <path id="Path_8016" data-name="Path 8016" d="M311.234,145.495c-.123.726-.615,1.252-1.084,1.173s-.76-.738-.637-1.464.615-1.252,1.084-1.173S311.357,144.768,311.234,145.495Z" transform="translate(-246.247 -118.852)" fill="#263238"/>
        <path id="Path_8017" data-name="Path 8017" d="M310.835,144.185l-1.665-.8S309.841,144.9,310.835,144.185Z" transform="translate(-246.284 -118.927)" fill="#263238"/>
        <path id="Path_8018" data-name="Path 8018" d="M313.476,146.9a19.744,19.744,0,0,1-3.386,4.2,3.17,3.17,0,0,0,2.515.928Z" transform="translate(-246.175 -118.514)" fill="#ed893e"/>
        <path id="Path_8019" data-name="Path 8019" d="M315.583,154.855a6.213,6.213,0,0,1-1.084-.1.213.213,0,0,1-.179-.246.219.219,0,0,1,.246-.179,5.808,5.808,0,0,0,5.085-1.453.214.214,0,0,1,.313.291A6.032,6.032,0,0,1,315.583,154.855Z" transform="translate(-245.678 -117.819)" fill="#263238"/>
        <path id="Path_8020" data-name="Path 8020" d="M338.359,135.827a9.256,9.256,0,0,0-3.5-1.5c-1.017-8.717-8-14.26-15.78-12.506-8.829,1.989-11.913,12.942-5.968,16.674a26.1,26.1,0,0,0,11.511,3.744c.145,7.231,4.66,13.422,7.823,13.746C341.466,152.39,343.8,139.661,338.359,135.827Z" transform="translate(-246.18 -121.5)" fill="#263238"/>
        <path id="Path_8021" data-name="Path 8021" d="M333.165,154.828a6.633,6.633,0,0,1-4.034,3.073c-2.258.581-3.33-1.453-2.66-3.554.6-1.889,2.5-4.47,4.739-4.124A2.993,2.993,0,0,1,333.165,154.828Z" transform="translate(-244.272 -118.126)" fill="#ffb573"/>
        <path id="Path_8022" data-name="Path 8022" d="M322.016,146a.429.429,0,0,1-.4-.3c-.592-1.911-3.04-2.738-3.062-2.738a.449.449,0,0,1-.279-.548.434.434,0,0,1,.548-.279c.123.034,2.906.972,3.621,3.308a.429.429,0,0,1-.291.536A.307.307,0,0,1,322.016,146Z" transform="translate(-245.215 -119.077)" fill="#263238"/>
        <path id="Path_8023" data-name="Path 8023" d="M309.465,141.71a.431.431,0,0,1-.212-.8,4.306,4.306,0,0,1,3.945-.268.432.432,0,1,1-.391.771h0a3.421,3.421,0,0,0-3.118.246A.441.441,0,0,1,309.465,141.71Z" transform="translate(-246.299 -119.291)" fill="#263238"/>
        <path id="Path_8024" data-name="Path 8024" d="M347.058,183.45c1.073,5.264,1.855,10.438,2.481,15.724a148.125,148.125,0,0,1,1.14,15.993c.011.268,0,.827-.011,1.319q-.05.687-.134,1.308c-.123.816-.279,1.565-.458,2.28-.358,1.43-.782,2.772-1.24,4.068-.894,2.6-1.945,5.074-3.017,7.51a157.625,157.625,0,0,1-7.275,14.137l-4.2-1.956,2.492-7.354c.838-2.436,1.643-4.9,2.392-7.343.771-2.436,1.475-4.884,2.1-7.264.3-1.2.559-2.38.738-3.5q.134-.838.2-1.576c.011-.235.022-.447.022-.637l-.045-.637c-.2-2.5-.5-5.018-.793-7.544l-1.051-7.6c-.771-5.051-1.632-10.17-2.5-15.166Z" transform="translate(-243.324 -114.216)" fill="#ffb573"/>
        <g id="Group_6326" data-name="Group 6326" transform="translate(89.228 58.378)">
          <path id="Path_8025" data-name="Path 8025" d="M342.977,173.942c3.722,1.129,8.192,13.947,8.192,13.947L336.73,198.216s-5.264-10.706-3.7-15.512C334.651,177.7,338.719,172.645,342.977,173.942Z" transform="translate(-332.74 -173.736)" fill="#263238"/>
        </g>
        <path id="Path_8028" data-name="Path 8028" d="M318.2,145.435l-1.665-.8S317.2,146.15,318.2,145.435Z" transform="translate(-245.418 -118.78)" fill="#263238"/>
        <path id="Path_8029" data-name="Path 8029" d="M340.59,221.649l.95,3.33c.134.257-.179.525-.6.525H302.692c-.335,0-.615-.168-.637-.38l-.335-3.33c-.022-.235.268-.425.637-.425h37.629A.685.685,0,0,1,340.59,221.649Z" transform="translate(-247.16 -109.757)" fill="#7a7a7a"/>
        <g id="Group_6331" data-name="Group 6331" transform="translate(57.498 111.3)">
          <g id="Group_6328" data-name="Group 6328" transform="translate(30.018)">
            <path id="Path_8030" data-name="Path 8030" d="M332.071,225.884h1.006c.2,0,.358-.1.335-.235l-.469-4.325c-.011-.123-.19-.235-.391-.235h-1.006c-.2,0-.358.1-.335.235l.469,4.325C331.691,225.784,331.87,225.884,332.071,225.884Z" transform="translate(-331.208 -221.09)" fill="#407bff"/>
            <g id="Group_6327" data-name="Group 6327" opacity="0.3">
              <path id="Path_8031" data-name="Path 8031" d="M332.071,225.884h1.006c.2,0,.358-.1.335-.235l-.469-4.325c-.011-.123-.19-.235-.391-.235h-1.006c-.2,0-.358.1-.335.235l.469,4.325C331.691,225.784,331.87,225.884,332.071,225.884Z" transform="translate(-331.208 -221.09)" fill="#2e2e2e"/>
            </g>
          </g>
          <g id="Group_6329" data-name="Group 6329">
            <path id="Path_8032" data-name="Path 8032" d="M305.211,225.884h1.006c.2,0,.358-.1.335-.235l-.469-4.325c-.011-.123-.19-.235-.391-.235h-1.006c-.2,0-.358.1-.335.235l.469,4.325C304.831,225.784,305.01,225.884,305.211,225.884Z" transform="translate(-304.348 -221.09)" fill="#407bff"/>
            <path id="Path_8033" data-name="Path 8033" d="M305.211,225.884h1.006c.2,0,.358-.1.335-.235l-.469-4.325c-.011-.123-.19-.235-.391-.235h-1.006c-.2,0-.358.1-.335.235l.469,4.325C304.831,225.784,305.01,225.884,305.211,225.884Z" transform="translate(-304.348 -221.09)" fill="#2e2e2e" opacity="0.3"/>
          </g>
          <g id="Group_6330" data-name="Group 6330" transform="translate(15.009)">
            <path id="Path_8034" data-name="Path 8034" d="M318.641,225.884h1.006c.2,0,.358-.1.335-.235l-.469-4.325c-.011-.123-.19-.235-.391-.235h-1.006c-.2,0-.358.1-.335.235l.469,4.325C318.261,225.784,318.44,225.884,318.641,225.884Z" transform="translate(-317.778 -221.09)" fill="#407bff"/>
            <path id="Path_8035" data-name="Path 8035" d="M318.641,225.884h1.006c.2,0,.358-.1.335-.235l-.469-4.325c-.011-.123-.19-.235-.391-.235h-1.006c-.2,0-.358.1-.335.235l.469,4.325C318.261,225.784,318.44,225.884,318.641,225.884Z" transform="translate(-317.778 -221.09)" fill="#2e2e2e" opacity="0.3"/>
          </g>
        </g>
        <path id="Path_8036" data-name="Path 8036" d="M335.217,236.742l-7.1,6.884,9.254.928s3.33-4.839,1.587-8.214Z" transform="translate(-244.055 -107.997)" fill="#ffb573"/>
        <path id="Path_8037" data-name="Path 8037" d="M327.18,250.482l7.8.358,2.5-7.052-9.254-.928Z" transform="translate(-244.166 -107.23)" fill="#ffb573"/>
      </g>
    </g>
    <g id="Character_1" transform="translate(150.595 121.714)">
      <g id="Group_6337" data-name="Group 6337">
        <path id="Path_8040" data-name="Path 8040" d="M155.06,410.741h8.214l3.61-19.021H158.67Z" transform="translate(-132.362 -82.115)" fill="#b55b52"/>
        <path id="Path_8041" data-name="Path 8041" d="M163.8,407.89h-8.963a.868.868,0,0,0-.782.559l-2.693,7.3a1.029,1.029,0,0,0,.961,1.464c3.241-.056,7.946-.246,12.014-.246,4.75,0,4.314.257,9.891.257,3.375,0,4.806-3.409,3.442-3.722-6.214-1.408-6.94-1.553-11.981-4.973A3.361,3.361,0,0,0,163.8,407.89Z" transform="translate(-132.807 -80.214)" fill="#263238"/>
        <path id="Path_8042" data-name="Path 8042" d="M166.7,391.73l-1.866,9.8H156.62l1.866-9.8Z" transform="translate(-132.179 -82.114)" opacity="0.2"/>
        <path id="Path_8043" data-name="Path 8043" d="M166.71,225.45l5.376,5.644-8.672,3.029s-3.152-4.6-.726-7.756Z" transform="translate(-131.573 -101.666)" fill="#b55b52"/>
        <path id="Path_8044" data-name="Path 8044" d="M173.522,238.39l-8.583,1.252-1.7-6.113,8.672-3.029Z" transform="translate(-131.4 -101.072)" fill="#b55b52"/>
        <g id="Group_6334" data-name="Group 6334" transform="translate(0 132.988)">
          <path id="Path_8045" data-name="Path 8045" d="M137.667,270.793l41.887,1.844a4.261,4.261,0,0,0,4.224-3.364l5.007-25.593a2.964,2.964,0,0,0-2.85-3.666l-41.887-1.844a4.261,4.261,0,0,0-4.224,3.364l-5.007,25.593A2.97,2.97,0,0,0,137.667,270.793Z" transform="translate(-134.75 -233.159)" fill="#263238"/>
          <g id="Group_6333" data-name="Group 6333" transform="translate(1.782 5.008)">
            <path id="Path_8046" data-name="Path 8046" d="M140.352,278.66l51.733,2.269a4.618,4.618,0,0,0,4.75-4.169L199.572,245a4.158,4.158,0,0,0-3.99-4.56L143.85,238.17a4.618,4.618,0,0,0-4.75,4.169L136.362,274.1A4.158,4.158,0,0,0,140.352,278.66Z" transform="translate(-136.345 -238.167)" fill="#878787"/>
            <path id="Path_8047" data-name="Path 8047" d="M140.352,278.66l51.733,2.269a4.618,4.618,0,0,0,4.75-4.169L199.572,245a4.158,4.158,0,0,0-3.99-4.56L143.85,238.17a4.618,4.618,0,0,0-4.75,4.169L136.362,274.1A4.158,4.158,0,0,0,140.352,278.66Z" transform="translate(-136.345 -238.167)" opacity="0.2"/>
          </g>
          <path id="Path_8048" data-name="Path 8048" d="M175.785,249.359h-.123L160.63,248.7h0a2.823,2.823,0,0,1-2.045-.983,2.861,2.861,0,0,1-.7-2.157l.592-6.851a5.543,5.543,0,0,1,5.711-5.018l10.047.436a5.392,5.392,0,0,1,3.822,1.822,5.32,5.32,0,0,1,1.308,4.023l-.57,6.638A3.057,3.057,0,0,1,175.785,249.359Zm-14.529-4,14.216.626.548-6.3a2.009,2.009,0,0,0-.492-1.52,2.031,2.031,0,0,0-1.442-.682l-10.047-.436A2.191,2.191,0,0,0,161.815,239Z" transform="translate(-132.032 -233.686)" fill="#aaa"/>
          <path id="Path_8049" data-name="Path 8049" d="M197.167,281.168,145.435,278.9a4.744,4.744,0,0,1-4.47-4.571l-.7-31.907a4.033,4.033,0,0,1,4.269-4.191l51.733,2.269a4.744,4.744,0,0,1,4.47,4.571l.7,31.907A4.027,4.027,0,0,1,197.167,281.168Z" transform="translate(-134.103 -233.152)" fill="#b9b9b9"/>
        </g>
        <path id="Path_8050" data-name="Path 8050" d="M180.115,170.276c-.548,1.073-1.2,2.392-1.777,3.61-.592,1.241-1.173,2.5-1.732,3.777-1.129,2.537-2.213,5.085-3.2,7.644s-1.855,5.141-2.649,7.7c-.369,1.274-.738,2.559-1.028,3.822-.168.637-.313,1.274-.414,1.889l-.19.939a6.571,6.571,0,0,0-.145.861,14.057,14.057,0,0,0-.156,1.6c-.034.615-.089,1.207-.089,1.889-.045,1.3-.022,2.682-.011,4.057.067,2.783.224,5.621.391,8.471.335,5.7.8,11.511,1.252,17.222l-10.248,1.654c-1.375-5.823-2.47-11.589-3.465-17.5-.469-2.95-.872-5.934-1.207-8.974-.145-1.542-.3-3.073-.391-4.694-.067-.782-.078-1.643-.078-2.492a27,27,0,0,1,.1-2.772,12.829,12.829,0,0,1,.134-1.308l.156-1.229q.134-1.241.369-2.414c.257-1.609.592-3.163.939-4.716.715-3.085,1.553-6.1,2.537-9.03s2.023-5.834,3.174-8.672c.581-1.419,1.185-2.827,1.81-4.236.626-1.431,1.252-2.749,2.023-4.28Z" transform="translate(-132.373 -108.998)" fill="#c4c4c4"/>
        <path id="Path_8051" data-name="Path 8051" d="M202.565,221.87s-7.9,61.389-12.472,86.423c-4.761,26.04-21.67,111.311-21.67,111.311h-13.9s7.074-83.752,10.226-109.322c3.431-27.884,8.963-88.412,8.963-88.412h28.856Z" transform="translate(-132.426 -102.087)" fill="#263238"/>
        <path id="Path_8052" data-name="Path 8052" d="M172.032,393.84c.067,0-1.632,5.778-1.632,5.778H153.48l.3-5.152Z" transform="translate(-132.548 -81.866)" fill="#8c8f97"/>
        <path id="Path_8053" data-name="Path 8053" d="M203.53,130.783c0,.693.369,1.263.827,1.263s.827-.559.827-1.263-.369-1.263-.827-1.263S203.53,130.09,203.53,130.783Z" transform="translate(-126.663 -112.945)" fill="#263238"/>
        <path id="Path_8054" data-name="Path 8054" d="M203.8,131.78a24.7,24.7,0,0,0,3.319,5.946c-1.229,1.151-3.319.626-3.319.626Z" transform="translate(-126.631 -112.68)" fill="#a02724"/>
        <path id="Path_8055" data-name="Path 8055" d="M201.373,127.365a.371.371,0,0,0,.235-.078,3.3,3.3,0,0,1,2.906-.536.407.407,0,1,0,.291-.76,4.019,4.019,0,0,0-3.677.637.41.41,0,0,0-.089.57A.4.4,0,0,0,201.373,127.365Z" transform="translate(-126.965 -113.383)" fill="#263238"/>
        <path id="Path_8056" data-name="Path 8056" d="M184.035,137.52c1.173,6,2.358,17.01-1.855,21.022,0,0,1.643,6.091,12.808,6.091,12.271,0,5.867-6.091,5.867-6.091-6.694-1.6-6.527-6.571-5.353-11.232Z" transform="translate(-129.173 -112.005)" fill="#b55b52"/>
        <path id="Path_8057" data-name="Path 8057" d="M180.848,158.8c-.883-1.933-1.844-4.135.156-4.828,2.2-.76,14.272-1.542,18.429-.112a4.3,4.3,0,0,1,2.984,5.342Z" transform="translate(-129.45 -110.177)" fill="#263238"/>
        <path id="Path_8058" data-name="Path 8058" d="M168.938,158.544c-7.186,3.263-11.668,28.007-11.668,28.007l14.093,4.47a150.662,150.662,0,0,0,6.9-20.128C180.817,160.578,176.291,155.213,168.938,158.544Z" transform="translate(-132.102 -109.648)" fill="#c4c4c4"/>
        <path id="Path_8059" data-name="Path 8059" d="M246.247,213.26l8.661.022-1.52,10.382s-6.795-.246-9.868-5.376Z" transform="translate(-121.961 -103.099)" fill="#b55b52"/>
        <path id="Path_8060" data-name="Path 8060" d="M262.083,216.867l-4.359,8.013-5.364-1.218,1.52-10.382Z" transform="translate(-120.921 -103.097)" fill="#b55b52"/>
        <path id="Path_8061" data-name="Path 8061" d="M182.782,130.65c.525,8.538.4,13.567,4.705,17.948,6.482,6.594,17.032,2.682,19.066-5.845,1.833-7.678.671-20.351-7.689-23.749A11.673,11.673,0,0,0,182.782,130.65Z" transform="translate(-129.105 -114.287)" fill="#b55b52"/>
        <path id="Path_8062" data-name="Path 8062" d="M182.563,142.663s-7.745-11.6-6.057-19.167c1.542-6.929,17.144-9.388,23.626-8.695,6.873.738,9.566,3.71,5.789,9.667a31.776,31.776,0,0,1-6.985,2.369s3.844,4.705,3.867,7.79c-1.073.592-4.56,1.967-4.56,1.967s-4.9,12.07-5.04,12.059c-1.889-.224-6.258-.291-7.812.3A40.773,40.773,0,0,1,182.563,142.663Z" transform="translate(-129.869 -114.689)" fill="#263238"/>
        <path id="Path_8063" data-name="Path 8063" d="M192.906,133.629a9.8,9.8,0,0,0,3.465,5.13c2.235,1.676,3.9.089,3.733-2.425-.145-2.258-1.486-5.845-3.945-6.549C193.733,129.091,192.258,131.181,192.906,133.629Z" transform="translate(-127.93 -112.93)" fill="#b55b52"/>
        <path id="Path_8064" data-name="Path 8064" d="M193.1,242.4c-11,2.548-8.918,42.289-6.828,64.943.089-.514.179-.995.268-1.464,2.727-14.909,6.627-42.692,9.343-62.741A5.5,5.5,0,0,0,193.1,242.4Z" transform="translate(-128.888 -99.676)" opacity="0.3"/>
        <g id="Group_6336" data-name="Group 6336" transform="translate(55.912 119.783)">
          <path id="Path_8067" data-name="Path 8067" d="M191.42,410.741h8.214l.816-19.021h-8.214Z" transform="translate(-183.999 -201.898)" fill="#b55b52"/>
          <path id="Path_8068" data-name="Path 8068" d="M199.911,407.89h-8.963a.729.729,0,0,0-.7.559l-1.62,7.3a1.2,1.2,0,0,0,1.185,1.464c3.23-.056,7.912-.246,11.969-.246,4.75,0,8.862.257,14.428.257,3.375,0,4.3-3.409,2.895-3.722-6.426-1.408-11.668-1.553-17.222-4.973A3.738,3.738,0,0,0,199.911,407.89Z" transform="translate(-184.332 -199.997)" fill="#263238"/>
          <g id="Group_6335" data-name="Group 6335" transform="translate(7.812 189.833)">
            <path id="Path_8069" data-name="Path 8069" d="M200.409,391.73l-.425,9.8H191.77l.425-9.8Z" transform="translate(-191.77 -391.73)" opacity="0.2"/>
          </g>
          <path id="Path_8070" data-name="Path 8070" d="M213.658,221.87s1.129,61.389.235,86.423c-.928,26.04-10.025,111.311-10.025,111.311H189.954s-.514-83.752-1.129-109.322c-.671-27.884-4.046-88.412-4.046-88.412h28.878Z" transform="translate(-184.78 -221.87)" fill="#263238"/>
          <path id="Path_8071" data-name="Path 8071" d="M206.171,393.84c.067,0-.782,5.778-.782,5.778h-16.92l-.458-5.152Z" transform="translate(-184.4 -201.649)" fill="#8c8f97"/>
        </g>
        <path id="Path_8072" data-name="Path 8072" d="M215.019,158.637s9.846,15.02,1.6,76.119h-46.38c-.3-6.739,5.3-44.77-1.207-76.532a114.958,114.958,0,0,1,14.7-1.855,162.343,162.343,0,0,1,18.664,0A81.352,81.352,0,0,1,215.019,158.637Z" transform="translate(-130.72 -109.82)" fill="#e1e1e1"/>
        <path id="Path_8073" data-name="Path 8073" d="M215.583,188.036,205.86,171.92s3.655,22.843,9.254,33.148C215.494,198.619,215.628,192.964,215.583,188.036Z" transform="translate(-126.389 -107.96)" opacity="0.2"/>
        <path id="Path_8074" data-name="Path 8074" d="M219.839,168.89c1.6,5.1,3.364,10.338,5.152,15.445,1.81,5.119,3.677,10.2,5.733,15.087l.782,1.81c.179.413.156.335.168.413a2.666,2.666,0,0,0,.156.3,13.165,13.165,0,0,0,1.732,2.034,44,44,0,0,0,5.655,4.482c2.1,1.453,4.325,2.861,6.616,4.2,2.269,1.33,4.66,2.693,6.918,3.856l-4.359,10.148a115.139,115.139,0,0,1-15.97-7.287,58.021,58.021,0,0,1-7.834-5.241,25.007,25.007,0,0,1-3.967-4.012c-.335-.469-.659-.894-.983-1.43s-.682-1.207-.793-1.431l-.983-1.956c-2.559-5.208-4.85-10.416-6.963-15.68-2.146-5.264-4.079-10.494-5.968-15.926Z" transform="translate(-126.498 -108.316)" fill="#c4c4c4"/>
        <path id="Path_8075" data-name="Path 8075" d="M200.414,162.136c-2.872,7.309,14.6,36.735,14.6,36.735l11.366-10.863s-2.481-9.254-5.789-20.374C217.323,156.682,203.152,155.151,200.414,162.136Z" transform="translate(-127.067 -109.608)" fill="#c4c4c4"/>
      </g>
    </g>
  </g>
</svg>
