<svg xmlns="http://www.w3.org/2000/svg" width="38.001" height="38" viewBox="0 0 38.001 38">
  <g id="Increase_Contract_Visibility_" data-name="Increase Contract Visibility " transform="translate(0)">
    <g id="Group_6339" data-name="Group 6339" transform="translate(12.035 12.033)">
      <g id="Group_6338" data-name="Group 6338" transform="translate(0)">
        <path id="Path_8076" data-name="Path 8076" d="M266.527,152.006a2.533,2.533,0,1,1-2.533,2.533A2.533,2.533,0,0,1,266.527,152.006Zm0,3.8a1.267,1.267,0,1,0-1.267-1.267A1.267,1.267,0,0,0,266.527,155.806Z" transform="translate(-263.994 -152.006)" fill="#fff"/>
      </g>
    </g>
    <g id="Group_6341" data-name="Group 6341" transform="translate(0 0)">
      <g id="Group_6340" data-name="Group 6340">
        <path id="Path_8077" data-name="Path 8077" d="M6.124,2.7A14.56,14.56,0,0,1,26.432,23.008L37.291,33.867A2.425,2.425,0,0,1,33.862,37.3L23,26.437A14.563,14.563,0,0,1,6.124,2.7ZM34.758,36.4A1.158,1.158,0,1,0,36.4,34.762L25.648,24.014a14.812,14.812,0,0,1-1.638,1.638ZM14.568,27.872a13.3,13.3,0,1,0-13.3-13.3A13.3,13.3,0,0,0,14.568,27.872Z" transform="translate(0 -0.006)" fill="#fff"/>
      </g>
    </g>
    <g id="Group_6343" data-name="Group 6343" transform="translate(2.535 2.533)">
      <g id="Group_6342" data-name="Group 6342">
        <path id="Path_8078" data-name="Path 8078" d="M156.027,32.006a12.033,12.033,0,1,1-12.033,12.033A12.033,12.033,0,0,1,156.027,32.006Zm0,1.267a10.774,10.774,0,0,0-10.62,9.075,15.465,15.465,0,0,1,10.386-4.008h.469a15.466,15.466,0,0,1,10.387,4.008A10.774,10.774,0,0,0,156.027,33.273Zm4.433,10.767a4.433,4.433,0,1,0-4.433,4.433A4.433,4.433,0,0,0,160.461,44.039Zm-.263,3.872a14.2,14.2,0,0,0,6.373-3.872,14.2,14.2,0,0,0-6.373-3.872A5.666,5.666,0,0,1,160.2,47.911Zm-9.87-3.872a5.669,5.669,0,0,1,1.529-3.872,14.2,14.2,0,0,0-6.373,3.872,14.2,14.2,0,0,0,6.373,3.872A5.669,5.669,0,0,1,150.327,44.039Zm5.7,10.767a10.774,10.774,0,0,0,10.62-9.075,15.465,15.465,0,0,1-10.386,4.008h-.469a15.465,15.465,0,0,1-10.387-4.008A10.774,10.774,0,0,0,156.027,54.806Z" transform="translate(-143.994 -32.006)" fill="#fff"/>
      </g>
    </g>
  </g>
</svg>
