<svg xmlns="http://www.w3.org/2000/svg" width="38" height="38" viewBox="0 0 38 38">
  <g id="Never_Miss_a_Renewal_Date" data-name="Never Miss a Renewal Date" transform="translate(-2 -2)">
    <path id="Path_8092" data-name="Path 8092" d="M36.833,5.8H33.667V4.533a2.533,2.533,0,0,0-5.067,0V5.8H23.533V4.533a2.533,2.533,0,1,0-5.067,0V5.8H13.4V4.533a2.533,2.533,0,1,0-5.067,0V5.8H5.167A3.167,3.167,0,0,0,2,8.967V34.3a3.167,3.167,0,0,0,3.167,3.167H22.9a.633.633,0,1,0,0-1.267H5.167a1.906,1.906,0,0,1-1.9-1.9V14.667H38.733V25.433a.633.633,0,1,0,1.267,0V8.967A3.167,3.167,0,0,0,36.833,5.8ZM29.867,4.533a1.267,1.267,0,1,1,2.533,0v3.8a1.267,1.267,0,1,1-2.533,0Zm-10.133,0a1.267,1.267,0,1,1,2.533,0v3.8a1.267,1.267,0,1,1-2.533,0ZM9.6,4.533a1.267,1.267,0,1,1,2.533,0v3.8a1.267,1.267,0,1,1-2.533,0ZM38.733,13.4H3.267V8.967a1.906,1.906,0,0,1,1.9-1.9H8.333V8.333a2.533,2.533,0,1,0,5.067,0V7.067h5.067V8.333a2.533,2.533,0,1,0,5.067,0V7.067H28.6V8.333a2.533,2.533,0,1,0,5.067,0V7.067h3.167a1.906,1.906,0,0,1,1.9,1.9Z" transform="translate(0)" fill="#fff"/>
    <path id="Path_8093" data-name="Path 8093" d="M27.067,28.267A1.267,1.267,0,0,0,25.8,27H23.267A1.267,1.267,0,0,0,22,28.267v1.9a1.267,1.267,0,0,0,1.267,1.267H25.8a1.267,1.267,0,0,0,1.267-1.267Zm-3.8,1.9v-1.9H25.8v1.9Z" transform="translate(-7.333 -9.167)" fill="#fff"/>
    <path id="Path_8094" data-name="Path 8094" d="M15.067,28.267A1.267,1.267,0,0,0,13.8,27H11.267A1.267,1.267,0,0,0,10,28.267v1.9a1.267,1.267,0,0,0,1.267,1.267H13.8a1.267,1.267,0,0,0,1.267-1.267Zm-3.8,1.9v-1.9H13.8v1.9Z" transform="translate(-2.933 -9.167)" fill="#fff"/>
    <path id="Path_8095" data-name="Path 8095" d="M49.8,31.433a1.267,1.267,0,0,0,1.267-1.267v-1.9A1.267,1.267,0,0,0,49.8,27H47.267A1.267,1.267,0,0,0,46,28.267v1.9a1.267,1.267,0,0,0,1.267,1.267Zm-2.533-3.167H49.8v1.9H47.267Z" transform="translate(-16.133 -9.167)" fill="#fff"/>
    <path id="Path_8096" data-name="Path 8096" d="M27.067,37.267A1.267,1.267,0,0,0,25.8,36H23.267A1.267,1.267,0,0,0,22,37.267v1.9a1.267,1.267,0,0,0,1.267,1.267H25.8a1.267,1.267,0,0,0,1.267-1.267Zm-3.8,1.9v-1.9H25.8v1.9Z" transform="translate(-7.333 -12.467)" fill="#fff"/>
    <path id="Path_8097" data-name="Path 8097" d="M15.067,37.267A1.267,1.267,0,0,0,13.8,36H11.267A1.267,1.267,0,0,0,10,37.267v1.9a1.267,1.267,0,0,0,1.267,1.267H13.8a1.267,1.267,0,0,0,1.267-1.267Zm-3.8,1.9v-1.9H13.8v1.9Z" transform="translate(-2.933 -12.467)" fill="#fff"/>
    <path id="Path_8098" data-name="Path 8098" d="M25.8,45H23.267A1.267,1.267,0,0,0,22,46.267v1.9a1.267,1.267,0,0,0,1.267,1.267H25.8a1.267,1.267,0,0,0,1.267-1.267v-1.9A1.267,1.267,0,0,0,25.8,45Zm-2.533,3.167v-1.9H25.8v1.9Z" transform="translate(-7.333 -15.767)" fill="#fff"/>
    <path id="Path_8099" data-name="Path 8099" d="M35.267,31.433H37.8a1.267,1.267,0,0,0,1.267-1.267v-1.9A1.267,1.267,0,0,0,37.8,27H35.267A1.267,1.267,0,0,0,34,28.267v1.9A1.267,1.267,0,0,0,35.267,31.433Zm0-3.167H37.8v1.9H35.267Z" transform="translate(-11.733 -9.167)" fill="#fff"/>
    <path id="Path_8100" data-name="Path 8100" d="M34,39.167a1.267,1.267,0,0,0,1.267,1.267.633.633,0,0,0,0-1.267v-1.9H37.8A.633.633,0,1,0,37.8,36H35.267A1.267,1.267,0,0,0,34,37.267Z" transform="translate(-11.733 -12.467)" fill="#fff"/>
    <path id="Path_8101" data-name="Path 8101" d="M13.8,45H11.267A1.267,1.267,0,0,0,10,46.267v1.9a1.267,1.267,0,0,0,1.267,1.267H13.8a1.267,1.267,0,0,0,1.267-1.267v-1.9A1.267,1.267,0,0,0,13.8,45Zm-2.533,3.167v-1.9H13.8v1.9Z" transform="translate(-2.933 -15.767)" fill="#fff"/>
    <path id="Path_8102" data-name="Path 8102" d="M44.233,36a8.233,8.233,0,1,0,8.233,8.233A8.233,8.233,0,0,0,44.233,36Zm0,15.2A6.967,6.967,0,1,1,51.2,44.233,6.967,6.967,0,0,1,44.233,51.2Z" transform="translate(-12.467 -12.467)" fill="#fff"/>
    <path id="Path_8103" data-name="Path 8103" d="M50,44.7l-4.926,4.926-2.239-2.239a.633.633,0,1,0-.9.9L44.63,50.97a.633.633,0,0,0,.9,0L50.9,45.6a.633.633,0,1,0-.9-.9Z" transform="translate(-14.578 -15.589)" fill="#fff"/>
  </g>
</svg>
