<svg xmlns="http://www.w3.org/2000/svg" width="34.067" height="38" viewBox="0 0 34.067 38">
  <path id="Shorten_Approval_Times_" data-name="Shorten Approval Times " d="M15.957,36.516A1.484,1.484,0,0,1,14.473,38H5.938A5.944,5.944,0,0,1,0,32.063V5.938A5.944,5.944,0,0,1,5.938,0h18.25a5.944,5.944,0,0,1,5.938,5.938V21.672a1.484,1.484,0,0,1-2.969,0V5.938a2.972,2.972,0,0,0-2.969-2.969H5.937A2.972,2.972,0,0,0,2.969,5.938V32.063a2.972,2.972,0,0,0,2.969,2.969h8.535a1.484,1.484,0,0,1,1.484,1.484Zm17.489-12.34a1.484,1.484,0,0,0-2.071.343l-7.317,10.22a.848.848,0,0,1-1.221.063L18.1,30.254a1.484,1.484,0,0,0-2.056,2.141l4.741,4.553A3.829,3.829,0,0,0,23.42,38q.126,0,.252-.008a3.826,3.826,0,0,0,2.721-1.418c.017-.021.034-.043.05-.066l7.346-10.262a1.484,1.484,0,0,0-.343-2.071ZM22.7,8.906H7.414a1.484,1.484,0,0,0,0,2.969H22.7a1.484,1.484,0,0,0,0-2.969Zm1.484,7.422A1.484,1.484,0,0,0,22.7,14.844H7.414a1.484,1.484,0,0,0,0,2.969H22.7A1.484,1.484,0,0,0,24.187,16.328ZM7.414,20.781a1.484,1.484,0,0,0,0,2.969H16.7a1.484,1.484,0,0,0,0-2.969Zm0,0" fill="#fff"/>
</svg>
