<svg id="Standardize_contract_" data-name="Standardize contract " xmlns="http://www.w3.org/2000/svg" xmlns:xlink="http://www.w3.org/1999/xlink" width="437.592" height="439.439" viewBox="0 0 437.592 439.439">
  <defs>
    <linearGradient id="linear-gradient" x1="168.466" y1="-0.207" x2="169.473" y2="-0.207" gradientUnits="objectBoundingBox">
      <stop offset="0" stop-color="#febbba"/>
      <stop offset="1" stop-color="#ff928e"/>
    </linearGradient>
    <linearGradient id="linear-gradient-2" x1="187.782" y1="-0.014" x2="188.795" y2="-0.014" xlink:href="#linear-gradient"/>
    <linearGradient id="linear-gradient-3" x1="1.116" y1="0.941" x2="-0.257" y2="0.054" xlink:href="#linear-gradient"/>
    <linearGradient id="linear-gradient-4" x1="1.434" y1="1.247" x2="-0.053" y2="0.185" xlink:href="#linear-gradient"/>
    <linearGradient id="linear-gradient-5" x1="259.517" y1="0.059" x2="261.518" y2="-1.721" xlink:href="#linear-gradient"/>
    <linearGradient id="linear-gradient-6" x1="24.604" y1="0.303" x2="25.606" y2="0.303" xlink:href="#linear-gradient"/>
    <linearGradient id="linear-gradient-7" x1="63.922" y1="0.247" x2="64.914" y2="0.247" xlink:href="#linear-gradient"/>
    <linearGradient id="linear-gradient-8" x1="78.953" y1="0.5" x2="79.953" y2="0.5" xlink:href="#linear-gradient"/>
    <linearGradient id="linear-gradient-9" x1="-2.291" y1="7.017" x2="-3.428" y2="8.299" xlink:href="#linear-gradient"/>
    <linearGradient id="linear-gradient-10" x1="-13.284" y1="24.539" x2="-10.678" y2="21.892" xlink:href="#linear-gradient"/>
  </defs>
  <path id="Path_7842" data-name="Path 7842" d="M875.422,758.241c-41.98,98.846-153.8,154.22-250.78,139.282-15.78-2.431-59.04-9.671-97.341-43.827-73.733-65.754-89.5-195.957-30.023-287.713C540.566,499.2,618.168,461.344,691.9,463.236c15.882.408,76.752,2.922,130.246,47.031a200.607,200.607,0,0,1,40.8,46.3C899.628,613.917,902.781,693.821,875.422,758.241Z" transform="translate(-460.87 -461.886)" fill="#e3e3e3"/>
  <g id="Group_6279" data-name="Group 6279" transform="translate(4.786 4.579)">
    <g id="Group_6273" data-name="Group 6273" transform="translate(0 67.12)">
      <g id="Group_6269" data-name="Group 6269" opacity="0.3">
        <path id="Path_7843" data-name="Path 7843" d="M545.786,913.246a1.263,1.263,0,0,1-1.329,1.2c-1.356-.071-2.735-.083-4.1-.036a1.265,1.265,0,0,1-1.306-1.2c0-.008,0-.016,0-.025a1.266,1.266,0,0,1,1.223-1.307c1.436-.049,2.888-.035,4.314.039a1.264,1.264,0,0,1,1.2,1.2A1.23,1.23,0,0,1,545.786,913.246Zm-12.053,1.839c-1.345.231-2.692.523-4.005.865a1.265,1.265,0,1,1-.639-2.448c1.383-.361,2.8-.667,4.215-.91a1.265,1.265,0,0,1,1.461,1.033c.008.05.014.1.017.149A1.267,1.267,0,0,1,533.733,915.085Zm-10.313,2.99c-1.256.523-2.5,1.108-3.71,1.737a1.266,1.266,0,1,1-1.171-2.244c1.271-.662,2.585-1.277,3.908-1.828a1.265,1.265,0,0,1,1.654.681,1.3,1.3,0,0,1,.1.421A1.265,1.265,0,0,1,523.421,918.075Zm-9.385,5.221c-1.108.791-2.2,1.64-3.232,2.524a1.266,1.266,0,1,1-1.642-1.927c1.091-.929,2.235-1.824,3.4-2.657a1.266,1.266,0,0,1,1.472,2.061Zm-7.988,7.182c-.9,1.015-1.775,2.084-2.591,3.177a1.266,1.266,0,0,1-2.028-1.516c.858-1.149,1.777-2.274,2.728-3.343a1.266,1.266,0,1,1,1.891,1.682Zm-6.2,8.77c-.658,1.191-1.271,2.426-1.824,3.671a1.265,1.265,0,0,1-2.312-1.028c.582-1.309,1.229-2.608,1.919-3.862a1.265,1.265,0,0,1,2.371.546A1.236,1.236,0,0,1,499.846,939.248Zm-1.1,46.976a1.266,1.266,0,0,1-1.706-.54c-.659-1.271-1.273-2.586-1.822-3.913a1.265,1.265,0,0,1,2.337-.968c.521,1.259,1.1,2.509,1.731,3.715a1.254,1.254,0,0,1,.141.516A1.267,1.267,0,0,1,498.751,986.224Zm-3-37.056c-.375,1.307-.7,2.648-.959,3.982a1.265,1.265,0,0,1-2.483-.486c.276-1.406.615-2.816,1.011-4.193a1.265,1.265,0,0,1,2.48.282A1.3,1.3,0,0,1,495.749,949.168Zm-1.21,26.862a1.265,1.265,0,0,1-1.543-.909c-.358-1.386-.662-2.806-.9-4.219a1.266,1.266,0,0,1,2.5-.424c.229,1.343.516,2.693.858,4.01a1.288,1.288,0,0,1,.039.251A1.267,1.267,0,0,1,494.539,976.03Zm-.57-16.276c-.074,1.358-.088,2.735-.046,4.1a1.265,1.265,0,0,1-2.528.107c0-.009,0-.017,0-.027-.046-1.433-.03-2.885.047-4.313a1.266,1.266,0,0,1,2.528,0C493.971,959.663,493.971,959.708,493.969,959.754Z" transform="translate(-491.368 -911.849)" fill="#727272"/>
        <path id="Path_7844" data-name="Path 7844" d="M553.212,1410.69a1.248,1.248,0,0,0-.264-.708c-.4-.515-.8-1.047-1.177-1.582a1.265,1.265,0,1,0-2.059,1.47c.4.562.818,1.122,1.238,1.663a1.264,1.264,0,0,0,2.261-.844Z" transform="translate(-540.357 -1330.024)" fill="#727272"/>
      </g>
      <g id="Group_6270" data-name="Group 6270" transform="translate(41.998 17.317)" opacity="0.3">
        <path id="Path_7845" data-name="Path 7845" d="M763.507,1537.9a1.263,1.263,0,0,0-1.13-1.19c-.648-.069-1.307-.152-1.955-.25a1.265,1.265,0,0,0-.372,2.5c.683.1,1.376.19,2.059.262a1.264,1.264,0,0,0,1.392-1.124A1.116,1.116,0,0,0,763.507,1537.9Z" transform="translate(-758.97 -1455.735)" fill="#727272"/>
        <path id="Path_7846" data-name="Path 7846" d="M864.954,1093.738a1.266,1.266,0,0,1-2.531.01c0-1.331-.066-2.681-.184-4.031a1.266,1.266,0,0,1,2.522-.218q.075.875.122,1.75C864.928,1092.077,864.951,1092.915,864.954,1093.738Zm-2.206-9.541a1.266,1.266,0,0,1-1.513-.956c-.3-1.309-.65-2.619-1.052-3.9a1.265,1.265,0,1,1,2.412-.763c.424,1.343.8,2.723,1.106,4.1a1.452,1.452,0,0,1,.03.213A1.264,1.264,0,0,1,862.748,1084.2Zm1.759,16.422c-.187,1.4-.436,2.8-.742,4.181a1.266,1.266,0,0,1-2.472-.548c.29-1.309.527-2.645.7-3.969a1.266,1.266,0,0,1,2.519.1A1.343,1.343,0,0,1,864.507,1100.62Zm-5.033-26.768a1.265,1.265,0,0,1-1.686-.6c-.575-1.21-1.208-2.411-1.882-3.566a1.265,1.265,0,1,1,2.185-1.276c.709,1.218,1.376,2.481,1.982,3.755a1.265,1.265,0,0,1-.6,1.686Zm2.34,37.556c-.49,1.319-1.042,2.635-1.643,3.913a1.265,1.265,0,1,1-2.29-1.077c.571-1.213,1.1-2.464,1.56-3.716a1.266,1.266,0,0,1,2.452.375A1.234,1.234,0,0,1,861.814,1111.407Zm-4.992,9.936c-.767,1.183-1.595,2.348-2.456,3.46a1.265,1.265,0,1,1-2-1.549c.819-1.058,1.606-2.164,2.335-3.288a1.265,1.265,0,0,1,2.324.623A1.279,1.279,0,0,1,856.822,1121.344Zm-7.04,8.613c-1.007.989-2.068,1.944-3.151,2.844a1.265,1.265,0,1,1-1.615-1.948c1.03-.854,2.037-1.763,3-2.7a1.265,1.265,0,1,1,1.77,1.806Zm-8.751,6.872c-1.2.744-2.443,1.445-3.7,2.084a1.265,1.265,0,0,1-1.147-2.255c1.193-.607,2.375-1.273,3.514-1.979a1.265,1.265,0,0,1,1.334,2.15Zm-10.052,4.782c-1.331.46-2.7.869-4.066,1.216a1.265,1.265,0,1,1-.623-2.453c1.3-.33,2.6-.719,3.862-1.155a1.264,1.264,0,0,1,1.609.782,1.292,1.292,0,0,1,.069.347A1.268,1.268,0,0,1,830.978,1141.611Zm-10.846,2.458c-1.031.118-2.078.205-3.112.259-.375.02-.749.035-1.121.047a1.25,1.25,0,0,1-1.3-1.226,1.266,1.266,0,0,1,1.226-1.3q.532-.016,1.066-.044c.984-.052,1.978-.135,2.958-.246a1.264,1.264,0,0,1,1.4,1.114c0,.027,0,.052.006.078A1.268,1.268,0,0,1,820.132,1144.069Z" transform="translate(-805.866 -1060.628)" fill="#727272"/>
        <path id="Path_7847" data-name="Path 7847" d="M1048.152,1024.954a1.253,1.253,0,0,0-.268-.714c-.422-.538-.865-1.08-1.315-1.606a1.266,1.266,0,0,0-1.926,1.643c.427.5.848,1.014,1.248,1.525a1.267,1.267,0,0,0,2.262-.849Z" transform="translate(-999.554 -1022.19)" fill="#727272"/>
      </g>
      <g id="Group_6272" data-name="Group 6272" transform="translate(12.033 12.471)">
        <path id="Path_7848" data-name="Path 7848" d="M625.069,996.3a.59.59,0,0,0-.686-.008l-5.912,4.106a31.3,31.3,0,0,0-9.869-2.409l-3.357-6.361a.59.59,0,0,0-.614-.307l-8.531,1.32a.59.59,0,0,0-.491.479l-1.277,7.08a31.367,31.367,0,0,0-8.679,5.28l-6.877-2.125a.593.593,0,0,0-.651.215l-5.1,6.967a.589.589,0,0,0-.008.686l4.106,5.912a31.306,31.306,0,0,0-2.409,9.868l-6.361,3.357a.594.594,0,0,0-.309.614l1.32,8.533a.59.59,0,0,0,.479.491l7.08,1.277a31.367,31.367,0,0,0,5.279,8.679l-2.126,6.877a.593.593,0,0,0,.215.651l6.967,5.1a.589.589,0,0,0,.686.008l5.912-4.106a31.312,31.312,0,0,0,9.868,2.409l3.357,6.361a.594.594,0,0,0,.614.309l8.533-1.32a.59.59,0,0,0,.491-.479l1.278-7.08a31.365,31.365,0,0,0,8.679-5.28l6.877,2.125a.59.59,0,0,0,.651-.215l5.1-6.967a.589.589,0,0,0,.008-.686l-4.106-5.912a31.31,31.31,0,0,0,2.409-9.869l6.361-3.357a.59.59,0,0,0,.307-.614l-1.32-8.531a.59.59,0,0,0-.479-.491l-7.078-1.278a31.363,31.363,0,0,0-5.28-8.679l2.125-6.877a.593.593,0,0,0-.215-.651Z" transform="translate(-568.037 -991.314)" fill="#bfbfbf"/>
        <g id="Group_6271" data-name="Group 6271" transform="translate(29.446 29.449)">
          <path id="Path_7849" data-name="Path 7849" d="M772.978,1188.445a8.659,8.659,0,1,1,.028-1.273A8.886,8.886,0,0,1,772.978,1188.445Zm-13.765,3.432a6.655,6.655,0,1,0-1.5-4.867,6.719,6.719,0,0,0-.02.987A6.6,6.6,0,0,0,759.213,1191.877Z" transform="translate(-755.66 -1178.955)" fill="#f5f5f5"/>
        </g>
        <path id="Path_7850" data-name="Path 7850" d="M716.831,1119.411a21.559,21.559,0,0,0-.226-2.182h0c-.036-.229-.075-.458-.118-.686a21.548,21.548,0,0,0-.9-3.3l-.016-.044c-.016-.041-.03-.083-.045-.124-.03-.08-.06-.16-.091-.24a.506.506,0,0,0-.5-.325.549.549,0,0,0-.155.033.507.507,0,0,0-.292.653,20.348,20.348,0,0,1-5.587,22.578,20.325,20.325,0,1,1-16.5-35.372,20.635,20.635,0,0,1,2.054-.212,20.283,20.283,0,0,1,8.7,1.463.493.493,0,0,0,.217.036.505.505,0,0,0,.165-.973,21.341,21.341,0,1,0-6.951,41.087,21.568,21.568,0,0,0,2.185-.226,21.36,21.36,0,0,0,18.058-22.17Z" transform="translate(-657.513 -1082.229)" fill="#f5f5f5"/>
      </g>
    </g>
    <g id="Group_6278" data-name="Group 6278" transform="translate(23.097)">
      <g id="Group_6274" data-name="Group 6274" opacity="0.3">
        <path id="Path_7851" data-name="Path 7851" d="M888.4,488.42a.78.78,0,0,0-.6-.719c-.645-.154-1.3-.289-1.959-.4a.781.781,0,0,0-.268,1.54c.623.108,1.251.239,1.868.385a.78.78,0,0,0,.94-.581A.814.814,0,0,0,888.4,488.42Z" transform="translate(-846.253 -486.797)" fill="#a2a2a2"/>
        <path id="Path_7852" data-name="Path 7852" d="M674.731,485.03a.782.782,0,0,1-.819.742,32.161,32.161,0,0,0-3.279.006c-.229.012-.46.027-.691.044a.782.782,0,0,1-.836-.722.808.808,0,0,1,.722-.837c.242-.017.482-.033.722-.045a33.944,33.944,0,0,1,3.439-.006.783.783,0,0,1,.742.739A.673.673,0,0,1,674.731,485.03Zm-8.721,1.325a32.141,32.141,0,0,0-3.837,1.008.782.782,0,1,1-.49-1.485,33.932,33.932,0,0,1,4.024-1.056.784.784,0,0,1,.92.615.906.906,0,0,1,.014.111A.785.785,0,0,1,666.009,486.355Zm-7.522,2.483a31.975,31.975,0,0,0-3.473,1.921.782.782,0,0,1-.84-1.32,33.752,33.752,0,0,1,3.643-2.015.783.783,0,0,1,1.042.37.793.793,0,0,1,.074.293A.784.784,0,0,1,658.487,488.838Zm-6.682,4.256a32.236,32.236,0,0,0-2.9,2.712.782.782,0,0,1-1.136-1.073,33.831,33.831,0,0,1,3.038-2.844.781.781,0,0,1,.995,1.205Zm-5.441,5.758a32.444,32.444,0,0,0-2.152,3.333.781.781,0,0,1-1.362-.766,34.45,34.45,0,0,1,2.255-3.5.782.782,0,0,1,1.259.927Zm-3.878,6.905a32.1,32.1,0,0,0-1.271,3.754.782.782,0,0,1-1.51-.41,33.6,33.6,0,0,1,1.334-3.938.782.782,0,0,1,1.447.593Zm-2.07,7.64a32.258,32.258,0,0,0-.311,3.955.782.782,0,0,1-1.565-.027,33.541,33.541,0,0,1,.328-4.148.781.781,0,0,1,1.554.067A.985.985,0,0,1,640.415,513.4Zm-.06,12.772a.782.782,0,0,1-.938-.584,34.1,34.1,0,0,1-.628-3.559c-.024-.182-.044-.363-.063-.545a.773.773,0,0,1,.7-.858.781.781,0,0,1,.858.7c.017.171.038.341.06.515a32.209,32.209,0,0,0,.6,3.4.669.669,0,0,1,.019.136A.78.78,0,0,1,640.356,526.169Z" transform="translate(-638.54 -484.172)" fill="#a2a2a2"/>
      </g>
      <g id="Group_6275" data-name="Group 6275" transform="translate(49.295 11.586)" opacity="0.3">
        <path id="Path_7853" data-name="Path 7853" d="M970.827,605.106a34.182,34.182,0,0,1-.085,4.09.782.782,0,1,1-1.558-.127,32.332,32.332,0,0,0,.082-3.9.782.782,0,0,1,1.562-.072Zm-1.056-3.178a.782.782,0,0,1-.9-.647,32.825,32.825,0,0,0-.851-3.811.782.782,0,0,1,1.5-.432,34.409,34.409,0,0,1,.892,3.994.815.815,0,0,1,.009.085A.782.782,0,0,1,969.77,601.928Zm.389,11.32a33.844,33.844,0,0,1-1.072,3.95.782.782,0,0,1-1.482-.5,32.655,32.655,0,0,0,1.023-3.767.781.781,0,0,1,1.544.118A.722.722,0,0,1,970.16,613.248ZM967.744,594.2a.781.781,0,0,1-1.025-.413,32.078,32.078,0,0,0-1.745-3.492.781.781,0,1,1,1.353-.781,33.492,33.492,0,0,1,1.83,3.663.793.793,0,0,1,.061.265A.782.782,0,0,1,967.744,594.2Zm-.2,26.78a33.964,33.964,0,0,1-1.99,3.575.782.782,0,1,1-1.318-.841,32.311,32.311,0,0,0,1.9-3.41.782.782,0,0,1,1.411.676Zm-4.4,6.885a34.259,34.259,0,0,1-2.787,3,.782.782,0,1,1-1.078-1.132,32.5,32.5,0,0,0,2.659-2.859.782.782,0,0,1,1.207.995Zm-5.917,5.636a34,34,0,0,1-3.426,2.241.781.781,0,0,1-.774-1.358,32.093,32.093,0,0,0,3.268-2.138.782.782,0,0,1,1.248.585A.79.79,0,0,1,957.232,633.506Z" transform="translate(-952.638 -584.241)" fill="#a2a2a2"/>
        <path id="Path_7854" data-name="Path 7854" d="M1011.349,560.255a.783.783,0,0,0-.157-.43c-.4-.534-.824-1.058-1.251-1.558a.782.782,0,0,0-1.19,1.014c.406.477.808.976,1.194,1.486a.781.781,0,0,0,1.4-.512Z" transform="translate(-999.789 -557.993)" fill="#a2a2a2"/>
      </g>
      <g id="Group_6277" data-name="Group 6277" transform="translate(7.977 8.277)">
        <path id="Path_7855" data-name="Path 7855" d="M727.537,540.247a.4.4,0,0,0-.46-.006l-3.956,2.746a20.966,20.966,0,0,0-6.6-1.612l-2.247-4.256a.394.394,0,0,0-.411-.206l-5.71.884a.4.4,0,0,0-.33.32l-.855,4.736a20.969,20.969,0,0,0-5.807,3.533l-4.6-1.422a.4.4,0,0,0-.436.144l-3.412,4.661a.4.4,0,0,0-.006.46l2.747,3.956a20.921,20.921,0,0,0-1.612,6.6l-4.256,2.246a.394.394,0,0,0-.206.411l.884,5.71a.4.4,0,0,0,.32.33l4.737.855a20.969,20.969,0,0,0,3.533,5.807l-1.422,4.6a.4.4,0,0,0,.144.436l4.661,3.412a.4.4,0,0,0,.46.006l3.956-2.747a20.92,20.92,0,0,0,6.6,1.612l2.246,4.256a.394.394,0,0,0,.411.206l5.71-.884a.4.4,0,0,0,.329-.32l.855-4.737a20.969,20.969,0,0,0,5.807-3.533l4.6,1.422a.4.4,0,0,0,.436-.144l3.412-4.661a.4.4,0,0,0,.006-.46l-2.747-3.957a20.924,20.924,0,0,0,1.612-6.6l4.256-2.246a.394.394,0,0,0,.206-.411l-.884-5.71a.4.4,0,0,0-.32-.33l-4.737-.855a20.97,20.97,0,0,0-3.533-5.807l1.422-4.6a.4.4,0,0,0-.144-.436Z" transform="translate(-689.368 -536.909)" fill="#bfbfbf"/>
        <g id="Group_6276" data-name="Group 6276" transform="translate(19.605 19.603)">
          <path id="Path_7856" data-name="Path 7856" d="M826.086,668.276a5.878,5.878,0,1,1,.019-.876A6.062,6.062,0,0,1,826.086,668.276Zm-6.292,3.776a4.349,4.349,0,0,0,4.737-3.924h0a4.348,4.348,0,1,0-4.737,3.924Z" transform="translate(-814.288 -661.812)" fill="#f5f5f5"/>
        </g>
        <path id="Path_7857" data-name="Path 7857" d="M787.022,620.229c-.027-.494-.077-.99-.154-1.489a14.688,14.688,0,0,0-.757-2.9c-.016-.042-.031-.083-.049-.126a.781.781,0,0,0-.771-.5.764.764,0,0,0-.24.052.782.782,0,0,0-.45,1.009,13.18,13.18,0,0,1,.719,2.709h0c.008.05.016.1.022.152a13.034,13.034,0,0,1-.672,6.409,13.312,13.312,0,0,1-1.665,3.128l-.017.024c-.017.023-.035.049-.053.072a13.156,13.156,0,1,1-5.669-19.968.781.781,0,1,0,.589-1.447,14.724,14.724,0,1,0-4.794,28.348c.5-.027,1-.078,1.507-.155A14.748,14.748,0,0,0,787.022,620.229Z" transform="translate(-746.883 -595.385)" fill="#f5f5f5"/>
      </g>
    </g>
  </g>
  <g id="Group_6280" data-name="Group 6280" transform="translate(287.249 31.567)">
    <path id="Path_7858" data-name="Path 7858" d="M2406.909,659.048a2.239,2.239,0,0,0-3.477-2.464c-17.667,13.175-61.121,53.7-60.481,133.236.8,99.785-23.78,133.367-51.791,152.373,0,0,36.219-6.318,62.411-40.252C2417.88,818.622,2395.015,695.759,2406.909,659.048Z" transform="translate(-2291.16 -656.131)" fill="#c1c1c1"/>
    <path id="Path_7859" data-name="Path 7859" d="M2457.846,857.764c-3.242,10.73-6.271,21.518-8.9,32.4q-4.031,16.3-7.054,32.813c-1.97,11.008-3.732,22.052-5.024,33.154-1.34,11.1-2.2,22.237-3.03,33.425-.888,11.177-1.722,22.443-3.709,33.658a113.647,113.647,0,0,1-10.592,32.526c-1.318,2.541-2.688,5.068-4.193,7.489-1.461,2.45-3.031,4.835-4.642,7.193a117.9,117.9,0,0,1-37.281,34.847,2.167,2.167,0,0,1-2.288-3.68l.006,0c2.329-1.493,4.64-3.009,6.873-4.624,1.13-.789,2.222-1.628,3.33-2.445,1.075-.858,2.184-1.675,3.233-2.564a114.4,114.4,0,0,0,11.954-11.334,125.252,125.252,0,0,0,18.76-27.039,109.117,109.117,0,0,0,6.3-15.181,123.642,123.642,0,0,0,4.025-16.008c2.014-10.876,2.929-22.019,3.9-33.19s2.05-22.392,3.575-33.551q1.121-8.371,2.542-16.7c.458-2.776.969-5.545,1.475-8.312q.8-4.146,1.651-8.277,3.454-16.523,7.918-32.8c3.031-10.828,6.348-21.57,10.073-32.167a.581.581,0,0,1,1.1.362Z" transform="translate(-2357.74 -825.486)" fill="#eee"/>
  </g>
  <g id="Group_6282" data-name="Group 6282" transform="translate(323.868 154.397)">
    <g id="Group_6281" data-name="Group 6281">
      <path id="Path_7860" data-name="Path 7860" d="M2528.577,1678.226a5.631,5.631,0,0,0,8.563,3.751c18.648-11.8,68.354-49.912,77.353-125.548,7.6-63.872,17.789-97.784,23.481-112.858a3.531,3.531,0,0,0-5.223-4.209C2601.181,1459.766,2503.442,1535.522,2528.577,1678.226Z" transform="translate(-2524.49 -1438.778)" fill="#dfdfdf"/>
      <path id="Path_7861" data-name="Path 7861" d="M2581.869,2036.2a1.6,1.6,0,0,0,.239.185,1.56,1.56,0,0,0,2.155-.48c.524-.825,52.594-83.507,67.171-171.84a1.562,1.562,0,0,0-3.082-.509c-14.471,87.69-66.2,169.855-66.725,170.674A1.564,1.564,0,0,0,2581.869,2036.2Z" transform="translate(-2572.454 -1795.787)" fill="#c5c5c5"/>
    </g>
  </g>
  <g id="Group_6286" data-name="Group 6286" transform="translate(62.034 0)">
    <path id="Path_7862" data-name="Path 7862" d="M856.142,800.746a26.806,26.806,0,0,1,26.806-26.806h227.958a23.616,23.616,0,0,1,23.585,22.416l16.827,330.5a17.415,17.415,0,0,1-17.077,18.3L872.972,1149.9a16.531,16.531,0,0,1-16.832-16.527V800.746Z" transform="translate(-856.14 -723.884)" fill="#acacac"/>
    <path id="Path_7863" data-name="Path 7863" d="M954.381,2794.71h-.008l-29.235-.379a18.029,18.029,0,0,1-17.728-17.959v-44.138a.625.625,0,1,1,1.249,0v44.138a16.778,16.778,0,0,0,16.5,16.712l29.234.378a.624.624,0,0,1-.008,1.248Z" transform="translate(-899.364 -2374.315)" fill="#fff"/>
    <path id="Path_7864" data-name="Path 7864" d="M908.035,2607.338a.625.625,0,0,1-.625-.625v-7.148a.625.625,0,0,1,1.249,0v7.148A.625.625,0,0,1,908.035,2607.338Z" transform="translate(-899.364 -2262.466)" fill="#fff"/>
    <g id="Group_6284" data-name="Group 6284" transform="translate(18.677 47.305)">
      <path id="Path_7865" data-name="Path 7865" d="M975.149,764.248a7.785,7.785,0,0,1,8.831-7.765c31.129,4.222,138.176,17.278,226.682,10.484a7.2,7.2,0,0,1,7.755,6.791l17.643,331.969a8.286,8.286,0,0,1-7.784,8.714c-37.223,2.2-190.522,10.719-245.2,4.991a6.565,6.565,0,0,1-5.874-6.5Z" transform="translate(-975.149 -756.41)" fill="#d5d5d5"/>
      <path id="Path_7866" data-name="Path 7866" d="M998.509,818.842a7.494,7.494,0,0,1,8.5-7.474c29.957,4.063,132.973,16.628,218.146,10.088a6.927,6.927,0,0,1,7.461,6.535l16.98,319.469a7.974,7.974,0,0,1-7.491,8.385c-35.822,2.12-183.349,10.314-235.968,4.8a6.318,6.318,0,0,1-5.653-6.252Z" transform="translate(-994.843 -802.685)" fill="#fff"/>
      <path id="Path_7867" data-name="Path 7867" d="M1175.183,990.284l3.181,68.491a4.354,4.354,0,0,0,4.225,4.154c12.684.358,52.21,1.321,74.528.158a4.861,4.861,0,0,0,4.6-4.7c.425-12.844,1.357-50.229-1.57-65.857a5.486,5.486,0,0,0-5.209-4.464l-74.974-2.623A4.628,4.628,0,0,0,1175.183,990.284Z" transform="translate(-1143.785 -949.496)" fill="#e1e1e1"/>
      <path id="Path_7868" data-name="Path 7868" d="M1917.579,1021.459a2.286,2.286,0,0,0,2.352-2.3,2.506,2.506,0,0,0-2.486-2.34l-82.718-1.474a1.572,1.572,0,0,0-1.615,2.24l.56,1.591a3.67,3.67,0,0,0,3.224,2.282h80.682Z" transform="translate(-1698.353 -974.709)" fill="#e1e1e1"/>
      <path id="Path_7869" data-name="Path 7869" d="M1834.718,1096.7a1.572,1.572,0,0,0-1.615,2.24l.56,1.591a3.669,3.669,0,0,0,3.224,2.282h80.684a2.286,2.286,0,0,0,2.352-2.3,2.506,2.506,0,0,0-2.486-2.34Z" transform="translate(-1698.345 -1043.292)" fill="#e1e1e1"/>
      <path id="Path_7870" data-name="Path 7870" d="M1834.718,1179.238a1.572,1.572,0,0,0-1.615,2.24l.56,1.591a3.669,3.669,0,0,0,3.224,2.282h80.684a2.286,2.286,0,0,0,2.352-2.3,2.506,2.506,0,0,0-2.486-2.34Z" transform="translate(-1698.345 -1112.879)" fill="#e1e1e1"/>
      <path id="Path_7871" data-name="Path 7871" d="M1834.718,1273.178a1.572,1.572,0,0,0-1.615,2.24l.56,1.591a3.669,3.669,0,0,0,3.224,2.282h80.684a2.286,2.286,0,0,0,2.352-2.3,2.507,2.507,0,0,0-2.486-2.34Z" transform="translate(-1698.345 -1192.075)" fill="#e1e1e1"/>
      <path id="Path_7872" data-name="Path 7872" d="M1834.718,1365.858a1.572,1.572,0,0,0-1.615,2.239l.56,1.591a3.669,3.669,0,0,0,3.224,2.282h80.684a2.286,2.286,0,0,0,2.352-2.3,2.506,2.506,0,0,0-2.486-2.34Z" transform="translate(-1698.345 -1270.21)" fill="#e1e1e1"/>
      <path id="Path_7873" data-name="Path 7873" d="M1376.7,1583.266a2.189,2.189,0,0,0,2.268-2.3,2.591,2.591,0,0,0-2.571-2.316l-193.112-1.522c-1.331-.011-1.742.834-.912,1.874l1.887,2.37a5.7,5.7,0,0,0,3.927,1.893Z" transform="translate(-1149.49 -1448.324)" fill="#e1e1e1"/>
      <path id="Path_7874" data-name="Path 7874" d="M1183.286,1658.49c-1.331-.011-1.742.833-.912,1.874l1.887,2.37a5.7,5.7,0,0,0,3.927,1.893H1376.7a2.189,2.189,0,0,0,2.268-2.3,2.591,2.591,0,0,0-2.57-2.316Z" transform="translate(-1149.49 -1516.916)" fill="#e1e1e1"/>
      <path id="Path_7875" data-name="Path 7875" d="M1171.285,1791.193c4.631-.355,13.3-.52,18.077-.585a4.328,4.328,0,0,1,4.272,3.308,70.521,70.521,0,0,1,2.032,17.479,3.843,3.843,0,0,1-3.876,3.762l-17.617-.19a4.231,4.231,0,0,1-4.167-3.837l-1.549-16.573A3.082,3.082,0,0,1,1171.285,1791.193Z" transform="translate(-1138.107 -1628.299)" fill="#fff" opacity="0.6"/>
      <path id="Path_7876" data-name="Path 7876" d="M1381.328,1837.629a1.928,1.928,0,0,0-2.059,2.292l.5,3.336a2.907,2.907,0,0,0,2.779,2.393h43.288a2.392,2.392,0,0,0,2.39-2.42l-.016-1.224a2.591,2.591,0,0,0-2.448-2.521Z" transform="translate(-1315.824 -1667.939)" fill="#e1e1e1"/>
      <path id="Path_7877" data-name="Path 7877" d="M1782.822,1791.193c4.631-.355,13.3-.52,18.078-.585a4.327,4.327,0,0,1,4.272,3.308,70.515,70.515,0,0,1,2.032,17.479,3.843,3.843,0,0,1-3.876,3.762l-17.617-.19a4.231,4.231,0,0,1-4.167-3.837L1780,1794.556A3.08,3.08,0,0,1,1782.822,1791.193Z" transform="translate(-1653.67 -1628.299)" fill="#e1e1e1"/>
      <path id="Path_7878" data-name="Path 7878" d="M1992.858,1837.629a1.928,1.928,0,0,0-2.059,2.292l.5,3.336a2.907,2.907,0,0,0,2.78,2.393h43.288a2.392,2.392,0,0,0,2.39-2.42l-.016-1.224a2.591,2.591,0,0,0-2.448-2.521Z" transform="translate(-1831.379 -1667.939)" fill="#e1e1e1"/>
      <g id="Group_6283" data-name="Group 6283" transform="translate(35.83 200.863)">
        <path id="Path_7879" data-name="Path 7879" d="M1225.654,2093.74h-.044l-16.256-.156a4.371,4.371,0,0,1-4.46-3.717l-1.428-13.64a2.964,2.964,0,0,1,.7-2.229,3.568,3.568,0,0,1,2.487-1.227h0c1.37-.093,3.3-.257,5.341-.432,4.3-.365,9.65-.823,12.66-.86a4.543,4.543,0,0,1,4.551,3.185c.848,3.131.772,9.057.612,15.371A4.018,4.018,0,0,1,1225.654,2093.74Zm-18.916-19.723a2.307,2.307,0,0,0-1.616.785,1.722,1.722,0,0,0-.415,1.295l1.428,13.64a3.126,3.126,0,0,0,3.23,2.6l16.256.156h.033a2.769,2.769,0,0,0,2.914-2.488c.158-6.218.234-12.045-.568-15.015a3.352,3.352,0,0,0-3.332-2.261c-2.966.038-8.291.491-12.571.855-2.047.176-3.98.341-5.359.435Z" transform="translate(-1203.45 -2065.954)" fill="#fff"/>
        <path id="Path_7880" data-name="Path 7880" d="M1224.282,2091.07c3.415-.234,10.837-.987,14.357-1.031a3.147,3.147,0,0,1,3.15,2.175c.68,2.513.59,7.519.471,12.141a2.7,2.7,0,0,1-2.858,2.473l-12.99-.125a3,3,0,0,1-3.073-2.524l-1.142-10.9A2.11,2.11,0,0,1,1224.282,2091.07Z" transform="translate(-1219.246 -2081.6)" fill="#ececec"/>
        <path id="Path_7881" data-name="Path 7881" d="M1435.18,2128.394a4.037,4.037,0,0,0,3.938,3.007l150.406-1.282a3.052,3.052,0,0,0-.011-6.1l-150.411-.686A4.035,4.035,0,0,0,1435.18,2128.394Z" transform="translate(-1398.697 -2109.666)" fill="#ececec"/>
        <path id="Path_7882" data-name="Path 7882" d="M1233.039,2047.88h0a2.5,2.5,0,0,1,3.442.937l3.206,5.747a.8.8,0,0,0,1.431-.063l7.952-17.7a.888.888,0,0,1,1.7.383,34.956,34.956,0,0,1-10.171,24.328s-4.768-1.854-8.608-10.286A2.616,2.616,0,0,1,1233.039,2047.88Z" transform="translate(-1227.311 -2036.271)" fill="#606060"/>
        <path id="Path_7883" data-name="Path 7883" d="M1225.654,2315.739h-.044l-16.256-.155a4.372,4.372,0,0,1-4.46-3.716l-1.428-13.64a2.963,2.963,0,0,1,.7-2.228,3.567,3.567,0,0,1,2.487-1.228h0c1.37-.093,3.3-.258,5.341-.432,4.3-.366,9.65-.822,12.66-.86h.066a4.535,4.535,0,0,1,4.487,3.184c.848,3.131.772,9.057.612,15.371A4.022,4.022,0,0,1,1225.654,2315.739Zm-18.916-19.723a2.314,2.314,0,0,0-1.616.784,1.725,1.725,0,0,0-.415,1.3l1.428,13.64a3.129,3.129,0,0,0,3.23,2.6l16.256.155h.033a2.768,2.768,0,0,0,2.914-2.488c.158-6.218.234-12.045-.568-15.015a3.337,3.337,0,0,0-3.332-2.261c-2.966.037-8.291.491-12.571.855-2.047.176-3.98.341-5.359.435Z" transform="translate(-1203.45 -2253.114)" fill="#fff"/>
        <path id="Path_7884" data-name="Path 7884" d="M1224.282,2313.069c3.415-.234,10.837-.987,14.357-1.031a3.148,3.148,0,0,1,3.15,2.175c.68,2.512.59,7.519.471,12.141a2.7,2.7,0,0,1-2.858,2.473l-12.99-.125a3,3,0,0,1-3.073-2.524l-1.142-10.9A2.11,2.11,0,0,1,1224.282,2313.069Z" transform="translate(-1219.246 -2268.759)" fill="#ececec"/>
        <path id="Path_7885" data-name="Path 7885" d="M1435.18,2350.394a4.036,4.036,0,0,0,3.938,3.007l150.406-1.282a3.052,3.052,0,0,0-.011-6.1l-150.411-.686A4.035,4.035,0,0,0,1435.18,2350.394Z" transform="translate(-1398.697 -2296.825)" fill="#ececec"/>
        <path id="Path_7886" data-name="Path 7886" d="M1233.039,2269.88h0a2.5,2.5,0,0,1,3.442.937l3.206,5.747a.8.8,0,0,0,1.431-.062l7.952-17.7a.888.888,0,0,1,1.7.383,34.957,34.957,0,0,1-10.171,24.328s-4.768-1.854-8.608-10.286A2.616,2.616,0,0,1,1233.039,2269.88Z" transform="translate(-1227.311 -2223.43)" fill="#606060"/>
        <path id="Path_7887" data-name="Path 7887" d="M1225.654,2537.721h-.044l-16.256-.156a4.37,4.37,0,0,1-4.46-3.716l-1.428-13.64a2.967,2.967,0,0,1,.7-2.23,3.567,3.567,0,0,1,2.487-1.228h0c1.37-.093,3.3-.257,5.341-.432,4.3-.365,9.65-.822,12.66-.86h.066a4.535,4.535,0,0,1,4.487,3.184c.848,3.131.772,9.057.612,15.371A4.021,4.021,0,0,1,1225.654,2537.721ZM1206.738,2518a2.307,2.307,0,0,0-1.616.785,1.723,1.723,0,0,0-.415,1.3l1.428,13.64a3.127,3.127,0,0,0,3.23,2.6l16.256.155h.033a2.768,2.768,0,0,0,2.914-2.488c.158-6.218.234-12.045-.568-15.014a3.332,3.332,0,0,0-3.332-2.262c-2.966.038-8.291.491-12.571.855-2.047.173-3.98.337-5.359.433Z" transform="translate(-1203.45 -2440.256)" fill="#fff"/>
        <path id="Path_7888" data-name="Path 7888" d="M1224.282,2535.06c3.415-.234,10.837-.987,14.357-1.031a3.147,3.147,0,0,1,3.15,2.175c.68,2.512.59,7.52.471,12.141a2.7,2.7,0,0,1-2.858,2.473l-12.99-.124a3,3,0,0,1-3.073-2.523l-1.142-10.9A2.112,2.112,0,0,1,1224.282,2535.06Z" transform="translate(-1219.246 -2455.909)" fill="#ececec"/>
        <path id="Path_7889" data-name="Path 7889" d="M1435.18,2572.394a4.037,4.037,0,0,0,3.938,3.007l150.406-1.282a3.052,3.052,0,0,0-.011-6.1l-150.411-.686A4.035,4.035,0,0,0,1435.18,2572.394Z" transform="translate(-1398.697 -2483.984)" fill="#ececec"/>
        <path id="Path_7890" data-name="Path 7890" d="M1233.039,2491.87h0a2.5,2.5,0,0,1,3.442.937l3.206,5.747a.8.8,0,0,0,1.431-.063l7.952-17.7a.888.888,0,0,1,1.7.383A34.956,34.956,0,0,1,1240.6,2505.5s-4.768-1.854-8.608-10.286A2.617,2.617,0,0,1,1233.039,2491.87Z" transform="translate(-1227.311 -2410.581)" fill="#606060"/>
        <path id="Path_7891" data-name="Path 7891" d="M1225.654,2759.721h-.044l-16.256-.156a4.37,4.37,0,0,1-4.46-3.716l-1.428-13.64a2.968,2.968,0,0,1,.7-2.23,3.568,3.568,0,0,1,2.487-1.227h0c1.37-.093,3.3-.257,5.341-.432,4.3-.365,9.65-.822,12.66-.86h.066a4.535,4.535,0,0,1,4.487,3.185c.848,3.131.772,9.057.612,15.37A4.021,4.021,0,0,1,1225.654,2759.721ZM1206.738,2740a2.306,2.306,0,0,0-1.616.785,1.723,1.723,0,0,0-.415,1.3l1.428,13.64a3.127,3.127,0,0,0,3.23,2.6l16.256.156h.033a2.768,2.768,0,0,0,2.914-2.488c.158-6.218.234-12.045-.568-15.015a3.326,3.326,0,0,0-3.332-2.262c-2.966.038-8.291.491-12.571.856-2.047.174-3.98.338-5.359.433Z" transform="translate(-1203.45 -2627.415)" fill="#fff"/>
        <path id="Path_7892" data-name="Path 7892" d="M1224.282,2757.06c3.415-.234,10.837-.987,14.357-1.031a3.148,3.148,0,0,1,3.15,2.176c.68,2.512.59,7.519.471,12.141a2.7,2.7,0,0,1-2.858,2.473l-12.99-.124a3,3,0,0,1-3.073-2.524l-1.142-10.9A2.112,2.112,0,0,1,1224.282,2757.06Z" transform="translate(-1219.246 -2643.068)" fill="#ececec"/>
        <path id="Path_7893" data-name="Path 7893" d="M1435.18,2794.394h0a4.038,4.038,0,0,0,3.938,3.007l150.406-1.282a3.052,3.052,0,0,0-.011-6.1l-150.411-.686A4.034,4.034,0,0,0,1435.18,2794.394Z" transform="translate(-1398.697 -2671.143)" fill="#ececec"/>
        <path id="Path_7894" data-name="Path 7894" d="M1233.039,2713.867h0a2.5,2.5,0,0,1,3.442.937l3.206,5.748a.8.8,0,0,0,1.431-.063l7.952-17.7a.888.888,0,0,1,1.7.383,34.958,34.958,0,0,1-10.171,24.328s-4.768-1.854-8.608-10.286A2.617,2.617,0,0,1,1233.039,2713.867Z" transform="translate(-1227.311 -2597.737)" fill="#606060"/>
      </g>
    </g>
    <path id="Path_7895" data-name="Path 7895" d="M1694.938,459.988c-8.235-5.728-15.395-5.615-20.434-4.128a10.054,10.054,0,0,0-7.141,10.57l2.174,23.725,25.864,2.3S1711.085,471.223,1694.938,459.988Zm-11.375,19.141a6.449,6.449,0,1,1,6.449-6.449A6.448,6.448,0,0,1,1683.563,479.128Z" transform="translate(-1540.013 -454.995)" fill="#818181"/>
    <g id="Group_6285" data-name="Group 6285" transform="translate(130.504 3.474)">
      <path id="Path_7896" data-name="Path 7896" d="M1689.286,498.837a.625.625,0,0,1-.621-.568l-.347-3.778a.624.624,0,1,1,1.243-.113l.347,3.778a.623.623,0,0,1-.565.678C1689.324,498.835,1689.305,498.837,1689.286,498.837Zm-.678-7.4a.625.625,0,0,1-.621-.568l-.264-2.869a9.593,9.593,0,0,1,6.8-10.068,19.309,19.309,0,0,1,9.453-.388.625.625,0,0,1-.25,1.224,18.121,18.121,0,0,0-8.85.363,8.345,8.345,0,0,0-5.914,8.757l.264,2.869a.624.624,0,0,1-.565.678Z" transform="translate(-1687.683 -477.13)" fill="#fff"/>
    </g>
    <path id="Path_7897" data-name="Path 7897" d="M1456.51,673.548V661.621a7.278,7.278,0,0,1,7.529-7.274l82.237,2.817a7.079,7.079,0,0,1,6.824,6.651l.688,11.461Z" transform="translate(-1362.287 -623.056)" fill="#818181"/>
    <path id="Path_7898" data-name="Path 7898" d="M1629.551,676.289h-3.536a.625.625,0,1,1,0-1.249h3.536a.625.625,0,0,1,0,1.249Z" transform="translate(-1504.663 -640.506)" fill="#fff"/>
    <path id="Path_7899" data-name="Path 7899" d="M1481.515,687.252a.624.624,0,0,1-.625-.625V681.8a6.769,6.769,0,0,1,6.761-6.761h13a.625.625,0,1,1,0,1.249h-13a5.52,5.52,0,0,0-5.513,5.513v4.826A.622.622,0,0,1,1481.515,687.252Z" transform="translate(-1382.841 -640.506)" fill="#fff"/>
    <path id="Path_7900" data-name="Path 7900" d="M1241.267,756.253a7.749,7.749,0,0,1,7.741-7.378l143.809,0a10.63,10.63,0,0,1,10.474,8.817l.122.7a9.127,9.127,0,0,1-8.994,10.685H1246.88a5.934,5.934,0,0,1-5.928-6.22Z" transform="translate(-1180.553 -702.749)" fill="#b9b9b9"/>
  </g>
  <g id="Group_6298" data-name="Group 6298" transform="translate(232.836 196.261)">
    <path id="Path_7926" data-name="Path 7926" d="M2285.621,3165.67s.893,4.789,1.353,9.532a3.271,3.271,0,0,1-3.094,3.574c-6.32.323-19.839.965-24.7.794a1.065,1.065,0,0,1-.951-1.449,2.38,2.38,0,0,1,1.207-1.294l22.242-10.481Z" transform="translate(-2208.927 -2936.514)" fill="#313131"/>
    <path id="Path_7927" data-name="Path 7927" d="M2398.625,3143.2l-.626,5.742s-3.9,1.86-6.588-.166l1.559-6.408Z" transform="translate(-2321.265 -2916.87)" fill="url(#linear-gradient)"/>
    <path id="Path_7928" data-name="Path 7928" d="M2399.341,2459.627c.307,1.5,2.291,74.745-5.226,107.653a1.115,1.115,0,0,0,.665,1.29,19.408,19.408,0,0,0,6.391,1.235,1.921,1.921,0,0,0,1.891-1.4c2.166-7.638,12.529-45.907,13.58-82.378,1.175-40.753-.013-1.387-.013-1.387l-1.157-25.174Z" transform="translate(-2323.521 -2341.145)" fill="#dddde5"/>
    <path id="Path_7929" data-name="Path 7929" d="M2549.371,3180.05s1.371,2.409,2.738,8.83a2,2,0,0,1-1.733,2.408c-2.085.225-5.3.519-7.872.527a1.99,1.99,0,0,1-1.991-2.2,16.776,16.776,0,0,1,3.831-9.243Z" transform="translate(-2446.957 -2948.636)" fill="#313131"/>
    <path id="Path_7930" data-name="Path 7930" d="M2570.878,3131.434l-1.508,8.692s-1.561,1.185-4.68.366l.67-9.342Z" transform="translate(-2467.35 -2907.411)" fill="url(#linear-gradient-2)"/>
    <path id="Path_7931" data-name="Path 7931" d="M2455,2452.752c6.773,38.594-.477,95.549-3,106.708a1.739,1.739,0,0,1-1.389,1.332,11.656,11.656,0,0,1-5.011-.152,1.593,1.593,0,0,1-1.158-1.455c-.438-9-.331-64.26-6.507-86.042a4.959,4.959,0,0,0-1.939-2.718l-11.663-8.123-1.016-13.3Z" transform="translate(-2348.166 -2332.318)" fill="#dddde5"/>
    <g id="Group_6293" data-name="Group 6293" transform="translate(8.361 18.368)">
      <path id="Path_7932" data-name="Path 7932" d="M2212.568,1992.86c19.191-.5,40.42,4.655,40.42,4.655,6.041,33.33,1.686,71.881,1.686,71.881-14.823,4.038-31.646-2.081-31.646-2.081-2.6-13.93-14.5-53.09-14.5-53.09A63.255,63.255,0,0,1,2184.99,2007c4.8-5.672,7.018-12.852,7.973-17.093A64.407,64.407,0,0,0,2212.568,1992.86Z" transform="translate(-2155.601 -1963.647)" fill="#434343"/>
      <path id="Path_7933" data-name="Path 7933" d="M1997.73,1824.053a3.673,3.673,0,0,1,4.261-1.242c2.938,11.9,17.841,21.437,33.1,26.021-.953,4.241-3.173,11.421-7.973,17.093C2001.733,1851.966,1997.73,1824.053,1997.73,1824.053Z" transform="translate(-1997.73 -1822.569)" fill="url(#linear-gradient-3)"/>
    </g>
    <g id="Group_6294" data-name="Group 6294">
      <path id="Path_7934" data-name="Path 7934" d="M1953.281,1725.956c-.192.63,2.1,1.563,3.423-1.015.034-1.23.733-6.5-.011-7.5-3.962-5.3-11.613-11.912-11.613-11.912a1.805,1.805,0,0,0-.2,2.509l3.716,3.8a17.827,17.827,0,0,0-2.108,4.267,5.154,5.154,0,0,0,.551,3.79c.658,1.158,1.552,2.662,2.4,3.837A5.092,5.092,0,0,0,1953.281,1725.956Z" transform="translate(-1944.457 -1705.53)" fill="url(#linear-gradient-4)"/>
      <path id="Path_7935" data-name="Path 7935" d="M1977.29,1761.48l3.381,2.811,1.08,2.82-2.958,3.346s-1.059-5.606-1.817-6.815S1976.6,1761.841,1977.29,1761.48Z" transform="translate(-1971.52 -1752.699)" fill="url(#linear-gradient-5)"/>
    </g>
    <path id="Path_7936" data-name="Path 7936" d="M2572.48,2057.025l7.185-18.655s18.045,12.01,21.14,27.427a42.445,42.445,0,0,0-15.545,4.326C2583.864,2062.844,2572.48,2057.025,2572.48,2057.025Z" transform="translate(-2473.917 -1986.134)" fill="#434343"/>
    <path id="Path_7937" data-name="Path 7937" d="M2459.648,2222s20.238,11.184,26.937,1.4a7.634,7.634,0,0,0,1.343-5.946,42.4,42.4,0,0,1,15.546-4.325,21.312,21.312,0,0,1-2.178,14.635c-11.689,21.876-44.265-.78-44.265-.78Z" transform="translate(-2376.586 -2133.466)" fill="url(#linear-gradient-6)"/>
    <path id="Path_7938" data-name="Path 7938" d="M2416.87,1908.24l6.276,17.6a.636.636,0,0,1-.282.769c-1.656.937-7.629,3.653-14.9-.86a3,3,0,0,1-1.4-2.127l-2.124-15.267Z" transform="translate(-2332.25 -1876.427)" fill="url(#linear-gradient-7)"/>
    <g id="Group_6296" data-name="Group 6296" transform="translate(36.736 64.507)">
      <g id="Group_6295" data-name="Group 6295">
        <path id="Path_7939" data-name="Path 7939" d="M2228.993,2158.255l-11.023-38.5a1.122,1.122,0,0,0-.95-.808c-2-.232-7.786-.886-14.469-1.453-8.049-.681-17.4-1.232-22.983-.763a1.127,1.127,0,0,0-.921,1.621c3.176,6.427,16.242,32.567,22.785,41.132a1.131,1.131,0,0,0,.909.446l25.579-.239A1.126,1.126,0,0,0,2228.993,2158.255Z" transform="translate(-2178.53 -2116.556)" fill="#c4c4c4"/>
        <path id="Path_7940" data-name="Path 7940" d="M2409.9,2252.468s1.537-6.315.917-8.555-1.819-5.121-5.821-4.48a58.525,58.525,0,0,0-8.72,2.326,2.289,2.289,0,0,0,3.278,1.976l-1.885,1.459s.27,2.337,2.838,1.088l-1.753,1.935a2.044,2.044,0,0,0,2.992.689C2403.64,2247.673,2404.546,2253.229,2409.9,2252.468Z" transform="translate(-2362.106 -2220.071)" fill="url(#linear-gradient-8)"/>
      </g>
      <path id="Path_7941" data-name="Path 7941" d="M2301.5,2178.376a3.236,3.236,0,1,1-3.236-3.236A3.236,3.236,0,0,1,2301.5,2178.376Z" transform="translate(-2276.746 -2165.946)" fill="#b1b1b1"/>
      <path id="Path_7942" data-name="Path 7942" d="M2257.01,2144.419l-2.244-7.615a2.613,2.613,0,0,0-1.962-1.833c-7.036-1.467-26.291-1.78-26.484-1.781l.013-.86c.794.013,19.531.315,26.647,1.8a3.471,3.471,0,0,1,2.612,2.431l2.244,7.615Z" transform="translate(-2218.819 -2129.855)" fill="gray"/>
    </g>
    <g id="Group_6297" data-name="Group 6297" transform="translate(62.727 5.382)">
      <path id="Path_7943" data-name="Path 7943" d="M2371.471,1790.112c-.218.218-9.24,19.013-9.24,19.013l10.225,5.237L2383.5,1797.9S2375.136,1786.452,2371.471,1790.112Z" transform="translate(-2359.391 -1781.61)" fill="url(#linear-gradient-9)"/>
      <path id="Path_7944" data-name="Path 7944" d="M2363.725,1756.563a1.827,1.827,0,0,1-.122,1.519l-5.1,9.018a1.65,1.65,0,0,1-.279.369c-.607.6-2.684,2.343-4.289-.031-1.368-2.023-2.652-3.862-4.029-4.622a1.587,1.587,0,0,0-2.2.769,66.89,66.89,0,0,0-3.49,8.782,1.755,1.755,0,0,0,.944,2.113,43.316,43.316,0,0,0,9.793,3.031,1.588,1.588,0,0,0,1.541-.7c1.561-2.271,5.965-8.616,7.469-10.2,1.4-1.475,3.972-.919,5.134-.565a1.561,1.561,0,0,0,1.3-.182,3.916,3.916,0,0,0,1.353-5.8,1.8,1.8,0,0,1,.505-2.353,3.943,3.943,0,0,0,1.383-5.43,4.992,4.992,0,0,0-5.509-2.861,1.677,1.677,0,0,1-1.777-1.048,1.1,1.1,0,0,0-.841-.7,1.675,1.675,0,0,1-1.28-1.973,4.528,4.528,0,0,0-2.333-5.077c-4.411-2.574-8.275,1.62-9.258,5.159s3.95,6.041,7.053,6.458C2361.973,1752.545,2363.222,1755.183,2363.725,1756.563Z" transform="translate(-2344.14 -1739.822)" fill="#313131"/>
      <path id="Path_7945" data-name="Path 7945" d="M2458.24,1900.084s1.961-6.089,4.473-5.866,4.487,2.877,1.375,5.86C2460.218,1903.791,2458.24,1900.084,2458.24,1900.084Z" transform="translate(-2440.333 -1869.982)" fill="url(#linear-gradient-10)"/>
    </g>
  </g>
</svg>
