<svg xmlns="http://www.w3.org/2000/svg" xmlns:xlink="http://www.w3.org/1999/xlink" width="638.857" height="445.129" viewBox="0 0 638.857 445.129">
  <defs>
    <linearGradient id="linear-gradient" x1="1.491" y1="0.5" x2="-0.431" y2="0.5" gradientUnits="objectBoundingBox">
      <stop offset="0" stop-color="#eebe63"/>
      <stop offset="1" stop-color="#dc3b57"/>
    </linearGradient>
    <linearGradient id="linear-gradient-2" x1="1.38" y1="0.5" x2="-0.399" y2="0.5" xlink:href="#linear-gradient"/>
    <linearGradient id="linear-gradient-3" x1="2.127" y1="0.5" x2="-0.615" y2="0.5" xlink:href="#linear-gradient"/>
    <linearGradient id="linear-gradient-4" x1="0.5" y1="0.155" x2="0.5" y2="1.196" gradientUnits="objectBoundingBox">
      <stop offset="0" stop-color="#d3d8de"/>
      <stop offset="1" stop-color="#fff"/>
    </linearGradient>
  </defs>
  <g id="Asset_management_" data-name="Asset management " transform="translate(-155.556 -44.79)">
    <path id="Path_7346" data-name="Path 7346" d="M1716.708,453.085c-61.923,3.454-151.869,30.684-260.5-75.027-89.455-87.047-243.794-36.929-278.636,78.656-36.991,122.719,53.87,222.845,119.546,261.5,80.922,47.626,241.393,54.366,329.1,20.625,87.99-33.85,149.578-94.271,169.616-141.15C1827.716,523.081,1794.508,448.75,1716.708,453.085Z" transform="translate(-1013.449 -282.152)" fill="#dbdbdb"/>
    <g id="Group_6121" data-name="Group 6121" transform="translate(199.696 44.79)">
      <g id="Group_6120" data-name="Group 6120" transform="translate(0 0)">
        <g id="Group_5921" data-name="Group 5921" transform="translate(288.86 157.629)">
          <path id="Path_7348" data-name="Path 7348" d="M2212.853,908.777H2092.188a9.188,9.188,0,0,1-9.188-9.188V756.479a9.188,9.188,0,0,1,9.188-9.188h120.664a9.188,9.188,0,0,1,9.188,9.188V899.589A9.19,9.19,0,0,1,2212.853,908.777Z" transform="translate(-2083 -747.29)" fill="#f4f4f4"/>
        </g>
        <g id="Group_5930" data-name="Group 5930" transform="translate(304.265 201.035)">
          <g id="Group_5923" data-name="Group 5923">
            <g id="Group_5922" data-name="Group 5922">
              <path id="Path_7349" data-name="Path 7349" d="M2194.283,890a35.532,35.532,0,1,0-66.914,23.93c.266.75.561,1.494.875,2.215A35.533,35.533,0,0,0,2194.283,890ZM2169.8,927.053a26.613,26.613,0,0,1-33.4-14.453q-.355-.814-.656-1.661a26.64,26.64,0,1,1,34.054,16.114Z" transform="translate(-2125.283 -866.426)" fill="#292929"/>
            </g>
          </g>
          <g id="Group_5925" data-name="Group 5925" transform="translate(1.624 0.012)">
            <g id="Group_5924" data-name="Group 5924">
              <path id="Path_7350" data-name="Path 7350" d="M2138.229,894.047l-8.489-2.652A35.588,35.588,0,0,1,2162.6,866.46l.266,8.889a26.694,26.694,0,0,0-24.636,18.7Z" transform="translate(-2129.74 -866.46)" fill="#cbcbcb"/>
            </g>
          </g>
          <g id="Group_5927" data-name="Group 5927" transform="translate(0 24.951)">
            <g id="Group_5926" data-name="Group 5926">
              <path id="Path_7351" data-name="Path 7351" d="M2136.4,956.132l-8.154,3.549c-.314-.722-.609-1.465-.874-2.215a35.356,35.356,0,0,1-.463-22.556l8.49,2.652a26.49,26.49,0,0,0,.345,16.909C2135.943,955.036,2136.165,955.589,2136.4,956.132Z" transform="translate(-2125.284 -934.91)" fill="#cbcbcb"/>
            </g>
          </g>
          <g id="Group_5929" data-name="Group 5929" transform="translate(2.961 46.174)">
            <g id="Group_5928" data-name="Group 5928">
              <path id="Path_7352" data-name="Path 7352" d="M2138.918,1005.555a35.319,35.319,0,0,1-5.509-8.846l8.154-3.549a26.385,26.385,0,0,0,4.128,6.631Z" transform="translate(-2133.41 -993.16)" fill="#cbcbcb"/>
            </g>
          </g>
        </g>
        <g id="Group_5937" data-name="Group 5937" transform="translate(383.086 244.9)">
          <g id="Group_5932" data-name="Group 5932" transform="translate(0)">
            <g id="Group_5931" data-name="Group 5931">
              <path id="Path_7353" data-name="Path 7353" d="M2362.616,988.241a14.7,14.7,0,1,0-12.573,26.574c.3.142.6.273.9.393a14.559,14.559,0,0,0,4.2.977,14.7,14.7,0,0,0,7.473-27.945Zm3.672,18a11.025,11.025,0,0,1-10.85,6.274,10.849,10.849,0,0,1-3.147-.732c-.226-.091-.456-.19-.678-.3a11.022,11.022,0,1,1,14.676-5.246Z" transform="translate(-2341.624 -986.826)" fill="#292929"/>
            </g>
          </g>
          <g id="Group_5934" data-name="Group 5934" transform="translate(0 4.621)">
            <g id="Group_5933" data-name="Group 5933">
              <path id="Path_7354" data-name="Path 7354" d="M2346.567,1014.706l-3.261,1.709a14.718,14.718,0,0,1,2.32-16.905l2.678,2.521a11.054,11.054,0,0,0-1.738,12.675Z" transform="translate(-2341.624 -999.51)" fill="#d5d5d5"/>
            </g>
          </g>
          <g id="Group_5936" data-name="Group 5936" transform="translate(1.678 19.814)">
            <g id="Group_5935" data-name="Group 5935">
              <path id="Path_7355" data-name="Path 7355" d="M2355.218,1046.351l-1.349,3.425c-.3-.12-.6-.251-.9-.393a14.63,14.63,0,0,1-6.736-6.464l3.261-1.709a10.976,10.976,0,0,0,5.046,4.845C2354.766,1046.165,2354.992,1046.26,2355.218,1046.351Z" transform="translate(-2346.23 -1041.21)" fill="#d5d5d5"/>
            </g>
          </g>
        </g>
        <g id="Group_5946" data-name="Group 5946" transform="translate(383.088 200.141)">
          <g id="Group_5939" data-name="Group 5939" transform="translate(0 0)">
            <g id="Group_5938" data-name="Group 5938">
              <path id="Path_7356" data-name="Path 7356" d="M2369.619,884.962a14.7,14.7,0,0,0-26.575-12.573c-.138.3-.269.6-.39.9a14.7,14.7,0,0,0,26.965,11.669Zm-18,3.673a11.024,11.024,0,0,1-6.273-10.85,10.908,10.908,0,0,1,.731-3.148c.092-.226.19-.456.3-.678a11.018,11.018,0,1,1,5.246,14.675Z" transform="translate(-2341.63 -863.974)" fill="#292929"/>
            </g>
          </g>
          <g id="Group_5941" data-name="Group 5941" transform="translate(7.873 0)">
            <g id="Group_5940" data-name="Group 5940">
              <path id="Path_7357" data-name="Path 7357" d="M2364.953,868.913l-1.713-3.257a14.72,14.72,0,0,1,16.906,2.317l-2.522,2.678a11.03,11.03,0,0,0-12.671-1.738Z" transform="translate(-2363.24 -863.974)" fill="#cbcbcb"/>
            </g>
          </g>
          <g id="Group_5943" data-name="Group 5943" transform="translate(1.024 1.682)">
            <g id="Group_5942" data-name="Group 5942">
              <path id="Path_7358" data-name="Path 7358" d="M2347.861,877.575l-3.421-1.348c.12-.3.251-.6.39-.9a14.638,14.638,0,0,1,6.463-6.733l1.713,3.257a10.934,10.934,0,0,0-4.846,5.049C2348.05,877.119,2347.952,877.345,2347.861,877.575Z" transform="translate(-2344.44 -868.59)" fill="#cbcbcb"/>
            </g>
          </g>
          <g id="Group_5945" data-name="Group 5945" transform="translate(0.047 9.322)">
            <g id="Group_5944" data-name="Group 5944">
              <path id="Path_7359" data-name="Path 7359" d="M2341.76,893.757a14.548,14.548,0,0,1,.977-4.2l3.421,1.348a10.985,10.985,0,0,0-.733,3.148Z" transform="translate(-2341.76 -889.56)" fill="#cbcbcb"/>
            </g>
          </g>
        </g>
        <g id="Group_5947" data-name="Group 5947" transform="translate(365.826 273.029)">
          <path id="Path_7360" data-name="Path 7360" d="M2321.695,1074.946H2294.25v-.547h26.9V1064.03h.542Z" transform="translate(-2294.25 -1064.03)" fill="#e5f2fd"/>
        </g>
        <g id="Group_5948" data-name="Group 5948" transform="translate(305.889 266.427)">
          <path id="Path_7361" data-name="Path 7361" d="M2165.438,1063.427h-35.7v-.546h35.151V1045.91h.547Z" transform="translate(-2129.74 -1045.91)" fill="#e5f2fd"/>
        </g>
        <g id="Group_5949" data-name="Group 5949" transform="translate(305.889 277.721)">
          <rect id="Rectangle_590" data-name="Rectangle 590" width="24.563" height="3.272" fill="#ccc"/>
        </g>
        <g id="Group_5950" data-name="Group 5950" transform="translate(365.826 277.721)">
          <rect id="Rectangle_591" data-name="Rectangle 591" width="14.446" height="3.272" fill="#ccc"/>
        </g>
        <g id="Group_5951" data-name="Group 5951" transform="translate(300.325 171.492)">
          <rect id="Rectangle_592" data-name="Rectangle 592" width="11.753" height="2.514" transform="translate(0 0)" fill="#a1a1a1"/>
        </g>
        <g id="Group_5952" data-name="Group 5952" transform="translate(349.332 180.95)">
          <rect id="Rectangle_593" data-name="Rectangle 593" width="18.239" height="2.514" transform="translate(0 0)" fill="#a1a1a1"/>
        </g>
        <g id="Group_5953" data-name="Group 5953" transform="translate(325.749 180.95)">
          <rect id="Rectangle_594" data-name="Rectangle 594" width="11.134" height="2.514" transform="translate(0 0)" fill="#a1a1a1"/>
        </g>
        <g id="Group_5954" data-name="Group 5954" transform="translate(300.325 180.95)">
          <rect id="Rectangle_595" data-name="Rectangle 595" width="22.057" height="2.514" transform="translate(0 0)" fill="#a1a1a1"/>
        </g>
        <g id="Group_5955" data-name="Group 5955" transform="translate(315.657 171.492)">
          <rect id="Rectangle_596" data-name="Rectangle 596" width="17.419" height="2.514" transform="translate(0 0)" fill="#a1a1a1"/>
        </g>
        <g id="Group_5956" data-name="Group 5956" transform="translate(340.369 180.95)">
          <rect id="Rectangle_597" data-name="Rectangle 597" width="4.784" height="2.514" transform="translate(0 0)" fill="#a1a1a1"/>
        </g>
        <g id="Group_5957" data-name="Group 5957" transform="translate(354.557 171.631)">
          <rect id="Rectangle_598" data-name="Rectangle 598" width="13.014" height="2.51" transform="translate(0 0)" fill="#a1a1a1"/>
        </g>
        <g id="Group_5958" data-name="Group 5958" transform="translate(372.212 180.95)">
          <rect id="Rectangle_599" data-name="Rectangle 599" width="11.098" height="2.514" transform="translate(0 0)" fill="#a1a1a1"/>
        </g>
        <g id="Group_5959" data-name="Group 5959" transform="translate(337.36 171.631)">
          <rect id="Rectangle_600" data-name="Rectangle 600" width="13.794" height="2.51" transform="translate(0 0)" fill="#a1a1a1"/>
        </g>
        <g id="Group_5961" data-name="Group 5961" transform="translate(28.383 95.813)">
          <path id="Path_7362" data-name="Path 7362" d="M1478.107,634.97c8.019,17.5,12.522,34.051,6.62,41.439a9.381,9.381,0,0,1-1.144,1.2c-4.547,4.008-13.491,4.1-28.589-1.865-40.186-15.874-42.092-43.268-50.22-70.021-8.011-26.418-36-21.955-36.714-21.835C1433.272,561.17,1464.5,605.309,1478.107,634.97Z" transform="translate(-1368.06 -577.62)" fill="#b5b5b5"/>
          <g id="Group_5960" data-name="Group 5960" transform="translate(57.146 24.381)">
            <path id="Path_7363" data-name="Path 7363" d="M1584.431,718.944a9.384,9.384,0,0,1-1.144,1.2c-7.549-4.547-22-14.187-28.816-25.011a161.153,161.153,0,0,1-8.78-16.927c-5.407-11.495-11.01-23.376-20.782-32.492L1526,644.54c10,9.331,15.659,21.354,21.138,32.987a156.824,156.824,0,0,0,8.69,16.752C1562.469,704.841,1577.071,714.518,1584.431,718.944Z" transform="translate(-1524.91 -644.54)" fill="#6a6a6a"/>
          </g>
        </g>
        <g id="Group_5963" data-name="Group 5963" transform="translate(83.285 58.476)">
          <path id="Path_7364" data-name="Path 7364" d="M1566.912,576.975c-.474,1.162-.78,1.822-.812,1.9-.124-.641-.244-1.279-.364-1.9-5.36-27.467-12.53-30.338-34.026-54.366-21.984-24.574-9.342-47.469-9.342-47.469C1596.015,496.421,1571.918,564.7,1566.912,576.975Z" transform="translate(-1518.751 -475.14)" fill="#b5b5b5"/>
          <g id="Group_5962" data-name="Group 5962" transform="translate(21.524 28.691)">
            <path id="Path_7365" data-name="Path 7365" d="M1604.466,627.034c-.474,1.162-.779,1.822-.812,1.9-.124-.641-.244-1.279-.365-1.9,2.387-23.747-11.939-51.612-16.438-56.61-4.657-5.177-7.528-12.3-8.613-14.981-.182-.444-.353-.867-.408-.966l1.038-.586a11.987,11.987,0,0,1,.474,1.108c1.06,2.627,3.876,9.607,8.394,14.624C1593.442,575.961,1606.656,603.961,1604.466,627.034Z" transform="translate(-1577.83 -553.89)" fill="#6a6a6a"/>
          </g>
        </g>
        <path id="Path_7366" data-name="Path 7366" d="M1957.495,496.545H1634.862a17.023,17.023,0,0,1-17.022-17.022V381.142a17.023,17.023,0,0,1,17.022-17.022h322.633a17.023,17.023,0,0,1,17.021,17.022v98.381A17.021,17.021,0,0,1,1957.495,496.545Z" transform="translate(-1498.454 -346.093)" fill="#f4f4f4"/>
        <rect id="Rectangle_601" data-name="Rectangle 601" width="43.589" height="4.372" transform="translate(402.055 56.042)" fill="#d4d4d4"/>
        <rect id="Rectangle_602" data-name="Rectangle 602" width="50.1" height="4.372" transform="translate(402.055 69.581)" fill="#d4d4d4"/>
        <rect id="Rectangle_603" data-name="Rectangle 603" width="25.922" height="4.372" transform="translate(401.978 83.046)" fill="#d4d4d4"/>
        <rect id="Rectangle_604" data-name="Rectangle 604" width="39.935" height="4.372" transform="translate(401.978 96.509)" fill="#d4d4d4"/>
        <rect id="Rectangle_605" data-name="Rectangle 605" width="133.725" height="4.474" transform="translate(138.066 305.254)" fill="#fff"/>
        <rect id="Rectangle_606" data-name="Rectangle 606" width="99.314" height="4.474" transform="translate(138.066 284.378)" fill="url(#linear-gradient)"/>
        <rect id="Rectangle_607" data-name="Rectangle 607" width="107.311" height="4.474" transform="translate(138.066 294.816)" fill="url(#linear-gradient-2)"/>
        <rect id="Rectangle_608" data-name="Rectangle 608" width="69.632" height="4.474" transform="translate(138.066 305.254)" fill="url(#linear-gradient-3)"/>
        <rect id="Rectangle_609" data-name="Rectangle 609" width="38.853" height="4.787" transform="translate(165.93 138.287)" fill="#d4d4d4"/>
        <rect id="Rectangle_610" data-name="Rectangle 610" width="57.703" height="4.787" transform="translate(156.504 129.761)" fill="#d4d4d4"/>
        <path id="Path_7367" data-name="Path 7367" d="M1791.677,472.954a10.034,10.034,0,1,1-10.033-10.034A10.033,10.033,0,0,1,1791.677,472.954Z" transform="translate(-1596.2 -408.896)" fill="#9d9d9d"/>
        <path id="Path_7368" data-name="Path 7368" d="M1785.368,548.5V567.58a44.133,44.133,0,0,1-36.368,0V548.5a18.184,18.184,0,0,1,36.368,0Z" transform="translate(-1581.828 -451.74)" fill="#9d9d9d"/>
        <rect id="Rectangle_611" data-name="Rectangle 611" width="93.444" height="6.022" transform="translate(248.135 49.225)" fill="#fff"/>
        <rect id="Rectangle_612" data-name="Rectangle 612" width="36.313" height="6.022" transform="translate(351.616 49.225)" fill="#fff"/>
        <rect id="Rectangle_613" data-name="Rectangle 613" width="43.88" height="6.022" transform="translate(248.135 35.504)" fill="#fff"/>
        <g id="Group_5964" data-name="Group 5964" transform="translate(140.164 30.571)">
          <path id="Path_7369" data-name="Path 7369" d="M1720.062,488.93a44.84,44.84,0,0,1-18.68-4.026,45.194,45.194,0,1,1,37.355,0A44.77,44.77,0,0,1,1720.062,488.93Zm0-87.994a42.812,42.812,0,0,0-17.689,81.8,42.919,42.919,0,0,0,35.377,0,42.812,42.812,0,0,0-17.688-81.8Z" transform="translate(-1674.87 -398.55)" fill="url(#linear-gradient-4)"/>
        </g>
        <g id="Group_5965" data-name="Group 5965" transform="translate(340.81 299.148)">
          <path id="Path_7370" data-name="Path 7370" d="M2254.591,1170.856h-22.87a6.131,6.131,0,0,1-6.132-6.132v-22.869a6.136,6.136,0,0,1,6.135-6.136h22.866a6.134,6.134,0,0,1,6.135,6.132v22.869A6.137,6.137,0,0,1,2254.591,1170.856Z" transform="translate(-2225.59 -1135.72)" fill="#fff"/>
          <rect id="Rectangle_614" data-name="Rectangle 614" width="3.326" height="13.98" transform="translate(15.907 10.58)" fill="#c5cacf"/>
          <rect id="Rectangle_615" data-name="Rectangle 615" width="3.323" height="13.98" transform="translate(24.557 15.909) rotate(90)" fill="#c5cacf"/>
        </g>
        <g id="Group_5978" data-name="Group 5978" transform="translate(254.776 66.659)">
          <g id="Group_5966" data-name="Group 5966">
            <rect id="Rectangle_616" data-name="Rectangle 616" width="2.386" height="57.856" fill="#c9c9c9"/>
          </g>
          <g id="Group_5967" data-name="Group 5967" transform="translate(10.963)">
            <rect id="Rectangle_617" data-name="Rectangle 617" width="2.386" height="57.856" fill="#c9c9c9"/>
          </g>
          <g id="Group_5968" data-name="Group 5968" transform="translate(21.922)">
            <rect id="Rectangle_618" data-name="Rectangle 618" width="2.386" height="57.856" fill="#c9c9c9"/>
          </g>
          <g id="Group_5969" data-name="Group 5969" transform="translate(32.888)">
            <rect id="Rectangle_619" data-name="Rectangle 619" width="2.386" height="57.856" fill="#c9c9c9"/>
          </g>
          <g id="Group_5970" data-name="Group 5970" transform="translate(43.851)">
            <rect id="Rectangle_620" data-name="Rectangle 620" width="2.386" height="57.856" fill="#c9c9c9"/>
          </g>
          <g id="Group_5971" data-name="Group 5971" transform="translate(54.814)">
            <rect id="Rectangle_621" data-name="Rectangle 621" width="2.386" height="57.856" fill="#c9c9c9"/>
          </g>
          <g id="Group_5972" data-name="Group 5972" transform="translate(65.777)">
            <rect id="Rectangle_622" data-name="Rectangle 622" width="2.386" height="57.856" fill="#c9c9c9"/>
          </g>
          <g id="Group_5973" data-name="Group 5973" transform="translate(76.74)">
            <rect id="Rectangle_623" data-name="Rectangle 623" width="2.386" height="57.856" fill="#c9c9c9"/>
          </g>
          <g id="Group_5974" data-name="Group 5974" transform="translate(87.703)">
            <rect id="Rectangle_624" data-name="Rectangle 624" width="2.386" height="57.856" fill="#c9c9c9"/>
          </g>
          <g id="Group_5975" data-name="Group 5975" transform="translate(98.665)">
            <rect id="Rectangle_625" data-name="Rectangle 625" width="2.386" height="57.856" fill="#c9c9c9"/>
          </g>
          <g id="Group_5976" data-name="Group 5976" transform="translate(109.628)">
            <rect id="Rectangle_626" data-name="Rectangle 626" width="2.386" height="57.856" fill="#c9c9c9"/>
          </g>
          <g id="Group_5977" data-name="Group 5977" transform="translate(120.591)">
            <rect id="Rectangle_627" data-name="Rectangle 627" width="2.386" height="57.856" fill="#c9c9c9"/>
          </g>
        </g>
        <g id="Group_5991" data-name="Group 5991" transform="translate(254.776 75.009)">
          <g id="Group_5979" data-name="Group 5979" transform="translate(0 8.948)">
            <rect id="Rectangle_628" data-name="Rectangle 628" width="2.386" height="40.558" fill="#363636"/>
          </g>
          <g id="Group_5980" data-name="Group 5980" transform="translate(10.963 22.964)">
            <rect id="Rectangle_629" data-name="Rectangle 629" width="2.386" height="26.542" fill="#363636"/>
          </g>
          <g id="Group_5981" data-name="Group 5981" transform="translate(21.922)">
            <rect id="Rectangle_630" data-name="Rectangle 630" width="2.386" height="49.506" fill="#363636"/>
          </g>
          <g id="Group_5982" data-name="Group 5982" transform="translate(32.888 35.093)">
            <rect id="Rectangle_631" data-name="Rectangle 631" width="2.386" height="14.413" fill="#363636"/>
          </g>
          <g id="Group_5983" data-name="Group 5983" transform="translate(43.851 20.578)">
            <rect id="Rectangle_632" data-name="Rectangle 632" width="2.386" height="28.928" fill="#363636"/>
          </g>
          <g id="Group_5984" data-name="Group 5984" transform="translate(54.814 9.742)">
            <rect id="Rectangle_633" data-name="Rectangle 633" width="2.386" height="39.763" fill="#363636"/>
          </g>
          <g id="Group_5985" data-name="Group 5985" transform="translate(65.777 23.86)">
            <rect id="Rectangle_634" data-name="Rectangle 634" width="2.386" height="25.645" fill="#363636"/>
          </g>
          <g id="Group_5986" data-name="Group 5986" transform="translate(76.74 6.066)">
            <rect id="Rectangle_635" data-name="Rectangle 635" width="2.386" height="43.44" fill="#363636"/>
          </g>
          <g id="Group_5987" data-name="Group 5987" transform="translate(87.703 25.649)">
            <rect id="Rectangle_636" data-name="Rectangle 636" width="2.386" height="23.857" fill="#363636"/>
          </g>
          <g id="Group_5988" data-name="Group 5988" transform="translate(98.665 11.334)">
            <rect id="Rectangle_637" data-name="Rectangle 637" width="2.386" height="38.171" fill="#363636"/>
          </g>
          <g id="Group_5989" data-name="Group 5989" transform="translate(109.628 30.418)">
            <rect id="Rectangle_638" data-name="Rectangle 638" width="2.386" height="19.087" fill="#363636"/>
          </g>
          <g id="Group_5990" data-name="Group 5990" transform="translate(120.591 11.334)">
            <rect id="Rectangle_639" data-name="Rectangle 639" width="2.386" height="38.171" fill="#363636"/>
          </g>
        </g>
        <g id="Group_6003" data-name="Group 6003" transform="translate(56.24 157.629)">
          <path id="Path_7371" data-name="Path 7371" d="M1656.031,952.53H1457.148A12.629,12.629,0,0,1,1444.52,939.9V759.918a12.629,12.629,0,0,1,12.628-12.628h198.883a12.629,12.629,0,0,1,12.627,12.628V939.9A12.624,12.624,0,0,1,1656.031,952.53Z" transform="translate(-1444.52 -747.29)" fill="#f4f4f4"/>
          <g id="Group_5996" data-name="Group 5996" transform="translate(21.842 20.014)">
            <g id="Group_5992" data-name="Group 5992" transform="translate(0 0.004)">
              <path id="Path_7372" data-name="Path 7372" d="M1565.7,844.385a31.5,31.5,0,0,0-17.106-39.527c-.641-.277-1.3-.539-1.968-.776a31.527,31.527,0,1,0,19.073,40.3Zm-37.647,11.637a23.638,23.638,0,0,1,15.922-44.514c.5.178.991.375,1.472.583a23.638,23.638,0,0,1-17.393,43.931Z" transform="translate(-1504.471 -802.232)" fill="#292929"/>
            </g>
            <g id="Group_5993" data-name="Group 5993" transform="translate(0.014 1.438)">
              <path id="Path_7373" data-name="Path 7373" d="M1528.99,813.7l-2.354-7.534a31.578,31.578,0,0,0-22.126,29.154l7.888.237A23.669,23.669,0,0,1,1528.99,813.7Z" transform="translate(-1504.51 -806.17)" fill="#cbcbcb"/>
            </g>
            <g id="Group_5994" data-name="Group 5994" transform="translate(22.144)">
              <path id="Path_7374" data-name="Path 7374" d="M1584.079,812.084l3.151-7.236c-.641-.277-1.3-.539-1.968-.776a31.4,31.4,0,0,0-20.013-.412l2.354,7.534a23.532,23.532,0,0,1,15.007.306C1583.106,811.683,1583.6,811.876,1584.079,812.084Z" transform="translate(-1565.25 -802.222)" fill="#cbcbcb"/>
            </g>
            <g id="Group_5995" data-name="Group 5995" transform="translate(40.973 2.63)">
              <path id="Path_7375" data-name="Path 7375" d="M1627.929,814.326a31.268,31.268,0,0,0-7.848-4.886l-3.151,7.236a23.506,23.506,0,0,1,5.888,3.665Z" transform="translate(-1616.93 -809.44)" fill="#cbcbcb"/>
            </g>
          </g>
          <g id="Group_5997" data-name="Group 5997" transform="translate(172.48 126.173)">
            <rect id="Rectangle_640" data-name="Rectangle 640" width="10.941" height="37.479" fill="#a1a1a1"/>
          </g>
          <g id="Group_5998" data-name="Group 5998" transform="translate(156.212 136.687)">
            <rect id="Rectangle_641" data-name="Rectangle 641" width="10.941" height="26.968" fill="#a1a1a1"/>
          </g>
          <g id="Group_5999" data-name="Group 5999" transform="translate(188.259 108.805)">
            <rect id="Rectangle_642" data-name="Rectangle 642" width="10.941" height="54.847" fill="#a1a1a1"/>
          </g>
          <g id="Group_6000" data-name="Group 6000" transform="translate(93.958 80.219)">
            <path id="Path_7376" data-name="Path 7376" d="M1805.889,968.654l-.193-1.184-28.877,4.729-9.36,19.951-31.132,2.117-10.085,14.876-23.8-.59-.029,1.2,24.454.6,10.125-14.934,31.257-2.12,9.389-20.02Z" transform="translate(-1702.41 -967.47)" fill="#b7b7b7"/>
          </g>
          <path id="Path_7377" data-name="Path 7377" d="M1883.376,821.242h31.118a3.556,3.556,0,0,0,3.556-3.556h0a3.556,3.556,0,0,0-3.556-3.556h-31.118a3.556,3.556,0,0,0-3.556,3.556h0A3.552,3.552,0,0,0,1883.376,821.242Z" transform="translate(-1721.225 -789.778)" fill="#a1a1a1"/>
          <path id="Path_7378" data-name="Path 7378" d="M1883.376,855.3h31.118a3.556,3.556,0,0,0,3.556-3.556h0a3.556,3.556,0,0,0-3.556-3.556h-31.118a3.556,3.556,0,0,0-3.556,3.556h0A3.552,3.552,0,0,0,1883.376,855.3Z" transform="translate(-1721.225 -811.429)" fill="#ccc"/>
          <path id="Path_7379" data-name="Path 7379" d="M1883.376,889.356h31.118a3.557,3.557,0,0,0,3.556-3.56h0a3.556,3.556,0,0,0-3.556-3.556h-31.118a3.556,3.556,0,0,0-3.556,3.556h0A3.553,3.553,0,0,0,1883.376,889.356Z" transform="translate(-1721.225 -833.073)" fill="#ccc"/>
          <g id="Group_6001" data-name="Group 6001" transform="translate(88.027 27.562)">
            <path id="Path_7380" data-name="Path 7380" d="M1703.927,832.992h-17.8v-.681h17.513l9.371-9.371h11.477v.685H1713.3Z" transform="translate(-1686.13 -822.94)" fill="#b7b7b7"/>
          </g>
          <g id="Group_6002" data-name="Group 6002" transform="translate(92.366 60.796)">
            <path id="Path_7381" data-name="Path 7381" d="M1728.363,922.066h-22.9l-7.422-7.421.481-.485,7.221,7.225h22.622Z" transform="translate(-1698.04 -914.16)" fill="#b7b7b7"/>
          </g>
          <rect id="Rectangle_643" data-name="Rectangle 643" width="23.74" height="2.915" transform="translate(116.605 32.083)" fill="#a1a1a1"/>
          <rect id="Rectangle_644" data-name="Rectangle 644" width="19.109" height="2.911" transform="translate(109.362 61.787)" fill="#a1a1a1"/>
        </g>
        <g id="Group_6008" data-name="Group 6008" transform="translate(0 233.078)">
          <path id="Path_7382" data-name="Path 7382" d="M1296.217,954.669c5.979-2.86,11.932,16.18,11.932,16.18,10.165,13.433,24.37-4.437,22.982,15.641-2.434,35.137,40.441,11.05,20.661,47.731s17.463,20.742,5.174,50.322,3.64,64.859-14.854,50.358c0,0-16.286-35.712-33.081-46.762s10.063-24.159,4.809-39.166c-7.632-21.8-26.024-20.942-12.762-44.365S1275.887,964.393,1296.217,954.669Z" transform="translate(-1290.157 -954.377)" fill="#bfbfbf"/>
          <g id="Group_6004" data-name="Group 6004" transform="translate(24.076 37.251)">
            <path id="Path_7383" data-name="Path 7383" d="M1389.977,1186.461c-8.019-5.64-17.4-44.929-17.958-68.331-.288-11.986-3.829-16.981-6.955-21.39-2.988-4.212-5.571-7.848-4.066-16.2,2.875-15.961-4.682-22.851-4.758-22.92l.874-1c.339.295,8.2,7.4,5.188,24.152-1.4,7.8.911,11.068,3.844,15.2,3.075,4.336,6.9,9.731,7.2,22.122.6,25.117,10.194,62.214,17.4,67.278Z" transform="translate(-1356.24 -1056.62)" fill="#fff"/>
          </g>
          <g id="Group_6005" data-name="Group 6005" transform="translate(50.884 91.301)">
            <path id="Path_7384" data-name="Path 7384" d="M1439.752,1283.675a17.21,17.21,0,0,1-3.388-.368c-3.09-.623-5.115-2.255-6.023-4.846-2.161-6.179,2.846-16.22,6.911-21.062a30.891,30.891,0,0,0,6.143-19.918c-.12-1.931-.321-3.72-.5-5.294-.51-4.561-.882-7.855,1.078-10.056,1.727-1.942,5.057-2.78,11.141-2.809,10.668-.048,14.89-4.467,18.279-8.015a19.311,19.311,0,0,1,4.452-3.833h0c5.316-2.9,10.948-3.33,13.393-1.017,1.159,1.1,2.142,3.254.219,7.272a28.105,28.105,0,0,1-5.865,7.862c-2.459,2.514-4.088,4.172-3.243,7.484.2.776.43,1.559.659,2.346,1.643,5.625,3.509,12-6.117,16.329-2.044.918-3.905,1.647-5.549,2.292-6.722,2.638-10.777,4.23-15.357,13.9-.885,1.873-1.668,3.643-2.427,5.359C1449.943,1277.485,1447.214,1283.675,1439.752,1283.675Zm38.728-75.038a18.125,18.125,0,0,0-4.127,3.585c-3.563,3.731-8,8.376-19.23,8.427-5.593.025-8.726.754-10.157,2.365-1.567,1.76-1.224,4.805-.751,9.028.179,1.592.382,3.4.506,5.36a31.673,31.673,0,0,1-6.452,20.851c-4.022,4.791-8.58,14.326-6.675,19.772a6.157,6.157,0,0,0,5.032,3.982c9.068,1.832,11.571-3.84,15.721-13.24.758-1.723,1.545-3.5,2.441-5.393,4.8-10.143,9.287-11.9,16.071-14.562,1.629-.638,3.476-1.363,5.487-2.27,8.576-3.854,7.028-9.145,5.388-14.748-.237-.8-.47-1.6-.67-2.39-1.031-4.03,1-6.11,3.581-8.737a26.635,26.635,0,0,0,5.618-7.505c.871-1.822,1.588-4.292.065-5.735-2.007-1.906-7.1-1.385-11.848,1.21Z" transform="translate(-1429.821 -1204.972)" fill="#bfbfbf"/>
          </g>
          <g id="Group_6006" data-name="Group 6006" transform="translate(56.24 101.891)">
            <path id="Path_7385" data-name="Path 7385" d="M1445.846,1309.807l-1.326-.069c.066-1.246,1.738-30.564,13.51-39.148,12.916-9.415,16.989-19.532,18.927-26.323,2.284-8,13.917-10.14,14.413-10.227l.23,1.3c-.113.022-11.309,2.084-13.367,9.287-1.993,6.98-6.176,17.375-19.423,27.03C1447.544,1279.873,1445.864,1309.508,1445.846,1309.807Z" transform="translate(-1444.52 -1234.04)" fill="#bbbcbc"/>
          </g>
          <path id="Path_7386" data-name="Path 7386" d="M1443.1,1035.814c-8.369-2.871-6.631,13.258-10.165,25.193s-39.337,5.207-24.308,35.089-19,9.994-8.839,36.069.885,53.966,11.932,46.872,6.208-39.931,17.7-43.833,13.367-8.452,1.989-19.058,29.813-21.139,19.649-42.558S1452.774,1039.129,1443.1,1035.814Z" transform="translate(-1358.622 -1005.93)" fill="#a1a1a1"/>
          <g id="Group_6007" data-name="Group 6007" transform="translate(53.034 67.294)">
            <path id="Path_7387" data-name="Path 7387" d="M1440.919,1243.644c-1.053-4.463-10.041-43.749-1.654-48.5,7.389-4.186,7.21-20.465,6.055-35.836-1.024-13.608,16.453-19.965,17.2-20.232l.44,1.25c-.171.063-17.265,6.289-16.322,18.883,1.184,15.787,1.311,32.539-6.726,37.09-6.369,3.607-.506,35.177,2.292,47.039Z" transform="translate(-1435.72 -1139.08)" fill="#fff"/>
          </g>
          <path id="Path_7388" data-name="Path 7388" d="M1413.925,1387.68l-11.946,45.327h-26.7l-11.946-45.327Z" transform="translate(-1336.671 -1229.813)" fill="#828282"/>
          <path id="Path_7389" data-name="Path 7389" d="M1413.925,1387.68s-26.3,4.94-26.3,45.327h-12.347l-11.946-45.327Z" transform="translate(-1336.671 -1229.813)" fill="#989898"/>
        </g>
        <g id="Group_6009" data-name="Group 6009" transform="translate(108.172)">
          <path id="Path_7390" data-name="Path 7390" d="M1628.376,314.64v3.847H1590.9v37.468h-3.844V314.64Z" transform="translate(-1587.06 -314.64)" fill="#888a8e"/>
        </g>
        <g id="Group_6096" data-name="Group 6096" transform="translate(53.197 251.599)">
          <g id="Group_6010" data-name="Group 6010" transform="translate(61.135 80.467)">
            <rect id="Rectangle_650" data-name="Rectangle 650" width="37.639" height="2.233" fill="#dcd0c8"/>
          </g>
          <g id="Group_6011" data-name="Group 6011" transform="translate(66.181 88.515)">
            <rect id="Rectangle_651" data-name="Rectangle 651" width="3.297" height="101.613" transform="translate(3.297 101.613) rotate(180)" fill="#6d6865"/>
          </g>
          <g id="Group_6012" data-name="Group 6012" transform="translate(92.883 79.833)">
            <rect id="Rectangle_652" data-name="Rectangle 652" width="26.163" height="3.192" fill="#c6bbb5"/>
          </g>
          <g id="Group_6013" data-name="Group 6013" transform="translate(101.012 52.61)">
            <rect id="Rectangle_653" data-name="Rectangle 653" width="9.906" height="30.09" fill="#948c87"/>
          </g>
          <g id="Group_6014" data-name="Group 6014" transform="translate(47.633 82.736)">
            <rect id="Rectangle_654" data-name="Rectangle 654" width="144.958" height="5.778" fill="#c5c5c5"/>
          </g>
          <g id="Group_6015" data-name="Group 6015" transform="translate(8.038 38.067)">
            <path id="Path_7391" data-name="Path 7391" d="M1470.006,1119.394s-1.585,22.235,2.758,24.895c2.721,1.665,13.571,7.29,13.251,8.343s-6.128,9.382-6.128,9.382-20.844-13.724-21.514-18.049c-.655-4.226,1.024-32.553,3.891-33.857,2.146-.976,3.279-.171,5.982,1.84C1472.039,1114.76,1470.006,1119.394,1470.006,1119.394Z" transform="translate(-1458.232 -1109.693)" fill="#464646"/>
          </g>
          <g id="Group_6018" data-name="Group 6018" transform="translate(36.94 175.673)">
            <g id="Group_6017" data-name="Group 6017">
              <g id="Group_6016" data-name="Group 6016">
                <path id="Path_7392" data-name="Path 7392" d="M1546.075,1487.967s-.648,4.5-.729,5.174-7.21-.4-7.21-.4l-.576-5.356S1545.186,1487.333,1546.075,1487.967Z" transform="translate(-1537.56 -1487.387)" fill="#454971"/>
              </g>
            </g>
          </g>
          <g id="Group_6021" data-name="Group 6021" transform="translate(35.821 180.549)">
            <g id="Group_6020" data-name="Group 6020">
              <g id="Group_6019" data-name="Group 6019">
                <path id="Path_7393" data-name="Path 7393" d="M1543.466,1501.076a19.212,19.212,0,0,0,4.445,3.891c2.182,1.184,5.618,1.65,6.907,2.874.932.882,3.4,4.682-5.676,4.606s-13.448.535-14.42-.918,1.406-10.759,1.406-10.759S1538.282,1501.546,1543.466,1501.076Z" transform="translate(-1534.489 -1500.77)" fill="#8a8a8a"/>
              </g>
            </g>
          </g>
          <g id="Group_6024" data-name="Group 6024" transform="translate(82.613 175.717)">
            <g id="Group_6023" data-name="Group 6023">
              <g id="Group_6022" data-name="Group 6022">
                <path id="Path_7394" data-name="Path 7394" d="M1671.434,1488.087s-.649,4.5-.729,5.173-7.211-.4-7.211-.4l-.575-5.356S1670.545,1487.453,1671.434,1488.087Z" transform="translate(-1662.92 -1487.507)" fill="#454971"/>
              </g>
            </g>
          </g>
          <g id="Group_6027" data-name="Group 6027" transform="translate(81.501 180.593)">
            <g id="Group_6026" data-name="Group 6026">
              <g id="Group_6025" data-name="Group 6025">
                <path id="Path_7395" data-name="Path 7395" d="M1668.843,1501.2a19.222,19.222,0,0,0,4.445,3.891c2.185,1.18,10.223,2.153,11.516,3.374.933.881,2.485,4.437-10.281,4.106-9.068-.237-13.448.536-14.42-.918s1.406-10.759,1.406-10.759S1663.531,1501.717,1668.843,1501.2Z" transform="translate(-1659.869 -1500.89)" fill="#8a8a8a"/>
              </g>
            </g>
          </g>
          <g id="Group_6030" data-name="Group 6030" transform="translate(15.999 98.545)">
            <g id="Group_6029" data-name="Group 6029">
              <g id="Group_6028" data-name="Group 6028">
                <path id="Path_7396" data-name="Path 7396" d="M1486.546,1275.69s25.915,4.387,31.774,5.3,37.6,8.817,41.563,11.226c3.159,1.916-1.658,47.924-2.784,65.478h-12.5l-.907-52.653c-15,.375-25.707-3.509-36.63-1.851s-20.035,4.015-26.975-5.294C1480.083,1297.9,1479.828,1277.723,1486.546,1275.69Z" transform="translate(-1480.084 -1275.69)" fill="#c1c1c1"/>
              </g>
            </g>
          </g>
          <g id="Group_6033" data-name="Group 6033" transform="translate(10.897 104.152)">
            <g id="Group_6032" data-name="Group 6032">
              <g id="Group_6031" data-name="Group 6031">
                <path id="Path_7397" data-name="Path 7397" d="M1503.188,1367.521l-12.184-.754-1.188-51.943a74.114,74.114,0,0,1-13.9-.882l-9.837-22.862c8.621,1.723,36.244,8.689,39.924,10.923C1509.17,1303.919,1504.314,1349.967,1503.188,1367.521Z" transform="translate(-1466.08 -1291.08)" fill="#c1c1c1"/>
              </g>
            </g>
          </g>
          <g id="Group_6036" data-name="Group 6036" transform="translate(27.864 0.942)">
            <g id="Group_6035" data-name="Group 6035">
              <g id="Group_6034" data-name="Group 6034">
                <path id="Path_7398" data-name="Path 7398" d="M1519.174,1008.249s9.5-2.623,13.127,4.751,1.982,21.357-2.806,22.672-11.673-.2-13.662-4.791-3.574-11.112-3.1-15.338S1516.653,1009.258,1519.174,1008.249Z" transform="translate(-1512.648 -1007.796)" fill="#dba585"/>
              </g>
            </g>
          </g>
          <g id="Group_6039" data-name="Group 6039" transform="translate(29.515 20.88)">
            <g id="Group_6038" data-name="Group 6038">
              <g id="Group_6037" data-name="Group 6037">
                <path id="Path_7399" data-name="Path 7399" d="M1529.9,1068.983s-.105,5.611.514,6.806-13.229.9-13.229.9,2.182-6.737.944-12.475C1516.9,1058.53,1529.9,1068.983,1529.9,1068.983Z" transform="translate(-1517.18 -1062.52)" fill="#dba585"/>
              </g>
            </g>
          </g>
          <g id="Group_6042" data-name="Group 6042" transform="translate(27.317)">
            <g id="Group_6041" data-name="Group 6041">
              <g id="Group_6040" data-name="Group 6040">
                <path id="Path_7400" data-name="Path 7400" d="M1513.541,1025.657s.744,1.5,4.325,1.26,8.31-4.565,9.833-4.951,1.614-1.253,1.614-1.253l.805,1.432,1.559.237s-1.06-4.336,1.246-5.859-1.038-13.815-12.727-10.853c0,0-8.922,1.632-9.039,6.616S1511.807,1023.019,1513.541,1025.657Z" transform="translate(-1511.146 -1005.211)" fill="#3e4148"/>
              </g>
            </g>
          </g>
          <g id="Group_6045" data-name="Group 6045" transform="translate(29.69 30.316)">
            <g id="Group_6044" data-name="Group 6044">
              <g id="Group_6043" data-name="Group 6043">
                <path id="Path_7401" data-name="Path 7401" d="M1531.439,1092.111s-.04-2.284-1.075-2.507-10.886-1.574-12.158-1.075l-.547,3.017S1520.112,1093.058,1531.439,1092.111Z" transform="translate(-1517.66 -1088.419)" fill="#dcd0c8"/>
              </g>
            </g>
          </g>
          <g id="Group_6048" data-name="Group 6048" transform="translate(42.334 11.946)">
            <g id="Group_6047" data-name="Group 6047">
              <g id="Group_6046" data-name="Group 6046">
                <path id="Path_7402" data-name="Path 7402" d="M1556.352,1040.535c-.266-1.873-2.394-4.023-3.614-1.108s.823,7.166,2.19,6.937S1556.713,1043.078,1556.352,1040.535Z" transform="translate(-1552.364 -1037.999)" fill="#dba585"/>
              </g>
            </g>
          </g>
          <g id="Group_6051" data-name="Group 6051" transform="translate(84.708 60.997)">
            <g id="Group_6050" data-name="Group 6050">
              <g id="Group_6049" data-name="Group 6049">
                <path id="Path_7403" data-name="Path 7403" d="M1668.688,1172.634a.027.027,0,0,0-.018,0C1668.746,1172.663,1668.754,1172.666,1668.688,1172.634Z" transform="translate(-1668.67 -1172.63)" fill="#363957"/>
              </g>
            </g>
          </g>
          <g id="Group_6054" data-name="Group 6054" transform="translate(25.816 2.731)">
            <g id="Group_6053" data-name="Group 6053">
              <g id="Group_6052" data-name="Group 6052">
                <path id="Path_7404" data-name="Path 7404" d="M1512.832,1012.707s-11.586-.547-2.022,17.539Z" transform="translate(-1507.027 -1012.705)" fill="#3e4148"/>
              </g>
            </g>
          </g>
          <g id="Group_6056" data-name="Group 6056" transform="translate(5.811 172.989)">
            <g id="Group_6055" data-name="Group 6055">
              <path id="Path_7405" data-name="Path 7405" d="M1452.12,1493.788l.859,2.423,36.411-11.28-1.745-4.911Z" transform="translate(-1452.12 -1480.02)" fill="#7b7b7b"/>
            </g>
          </g>
          <g id="Group_6058" data-name="Group 6058" transform="translate(40.193 136.585)">
            <g id="Group_6057" data-name="Group 6057">
              <rect id="Rectangle_655" data-name="Rectangle 655" width="4.139" height="39.585" fill="#7b7b7b"/>
            </g>
          </g>
          <g id="Group_6060" data-name="Group 6060" transform="translate(30.058 134.483)">
            <g id="Group_6059" data-name="Group 6059">
              <rect id="Rectangle_656" data-name="Rectangle 656" width="24.41" height="2.332" fill="#5d5955"/>
            </g>
          </g>
          <g id="Group_6062" data-name="Group 6062" transform="translate(41.764 172.683)">
            <g id="Group_6061" data-name="Group 6061">
              <path id="Path_7406" data-name="Path 7406" d="M1588.072,1493.254l-.86,2.423L1550.8,1484.4l1.6-5.217Z" transform="translate(-1550.8 -1479.18)" fill="#7b7b7b"/>
            </g>
          </g>
          <g id="Group_6064" data-name="Group 6064" transform="translate(41.764 172.683)">
            <g id="Group_6063" data-name="Group 6063">
              <path id="Path_7407" data-name="Path 7407" d="M1562.419,1495.418v2.82L1550.8,1484.4l1.6-5.217Z" transform="translate(-1550.8 -1479.18)" fill="#8c8581"/>
            </g>
          </g>
          <g id="Group_6066" data-name="Group 6066" transform="translate(75.632 186.725)">
            <g id="Group_6065" data-name="Group 6065">
              <path id="Path_7408" data-name="Path 7408" d="M1650.566,1521.123a3.4,3.4,0,1,1-3.4-3.4A3.4,3.4,0,0,1,1650.566,1521.123Z" transform="translate(-1643.76 -1517.72)" fill="#3a3a3a"/>
            </g>
          </g>
          <g id="Group_6068" data-name="Group 6068" transform="translate(46.864 186.725)">
            <g id="Group_6067" data-name="Group 6067">
              <path id="Path_7409" data-name="Path 7409" d="M1571.606,1521.123a3.4,3.4,0,1,1-3.4-3.4A3.4,3.4,0,0,1,1571.606,1521.123Z" transform="translate(-1564.8 -1517.72)" fill="#3a3a3a"/>
            </g>
          </g>
          <g id="Group_6070" data-name="Group 6070" transform="translate(2.408 186.725)">
            <g id="Group_6069" data-name="Group 6069">
              <path id="Path_7410" data-name="Path 7410" d="M1449.586,1521.123a3.4,3.4,0,1,1-3.4-3.4A3.4,3.4,0,0,1,1449.586,1521.123Z" transform="translate(-1442.78 -1517.72)" fill="#3a3a3a"/>
            </g>
          </g>
          <g id="Group_6071" data-name="Group 6071" transform="translate(13.51 125.651)">
            <path id="Path_7411" data-name="Path 7411" d="M1527.04,1358.922h-49.757a4.033,4.033,0,0,1-4.033-4.033v-.765a4.033,4.033,0,0,1,4.033-4.033h49.758a4.033,4.033,0,0,1,4.033,4.033v.765A4.031,4.031,0,0,1,1527.04,1358.922Z" transform="translate(-1473.25 -1350.09)" fill="#bbb"/>
          </g>
          <g id="Group_6072" data-name="Group 6072" transform="translate(170.745 88.515)">
            <rect id="Rectangle_657" data-name="Rectangle 657" width="3.297" height="101.613" fill="#6d6865"/>
          </g>
          <g id="Group_6073" data-name="Group 6073" transform="translate(63.187 6.751)">
            <path id="Path_7412" data-name="Path 7412" d="M1691.127,1084.092h-77.5a4.028,4.028,0,0,1-4.026-4.026v-52.3a4.025,4.025,0,0,1,4.026-4.026h77.5a4.024,4.024,0,0,1,4.026,4.022v52.3A4.025,4.025,0,0,1,1691.127,1084.092Z" transform="translate(-1609.6 -1023.74)" fill="#c5c5c5"/>
          </g>
          <g id="Group_6074" data-name="Group 6074" transform="translate(66.538 10.015)">
            <rect id="Rectangle_658" data-name="Rectangle 658" width="78.849" height="47.633" fill="#fff"/>
          </g>
          <g id="Group_6075" data-name="Group 6075" transform="translate(135.532 59.685)">
            <path id="Path_7413" data-name="Path 7413" d="M1814.524,1171.482c0,1.355-1.421,2.452-3.177,2.452s-3.177-1.1-3.177-2.452,1.424-2.452,3.177-2.452S1814.524,1170.13,1814.524,1171.482Z" transform="translate(-1808.17 -1169.03)" fill="#8c8480"/>
          </g>
          <g id="Group_6076" data-name="Group 6076" transform="translate(101.019 75.064)">
            <path id="Path_7414" data-name="Path 7414" d="M1736.094,1218.993v-1.075s-1.512-6.678-12.191-6.678-10.464,7.753-10.464,7.753h22.654Z" transform="translate(-1713.439 -1211.24)" fill="#948c87"/>
          </g>
          <g id="Group_6078" data-name="Group 6078" transform="translate(98.535 71.918)">
            <g id="Group_6077" data-name="Group 6077">
              <path id="Path_7415" data-name="Path 7415" d="M1708.979,1206.743a10.532,10.532,0,0,0,3.173-.693c.849-.514,5.935-3.935,7.13-3.385s9.145,2.984,8.868,4.146-1.013,1.049-1.574.845-6.332-1.417-6.842-1.213c0,0,5.672,2.069,5.694,3.578s-1.188,1.876-1.724,2.448-1.184,1.989-2.645,2.1-8.591-2.372-10.059-2.485-4.183.091-4.368-.149S1708.979,1206.743,1708.979,1206.743Z" transform="translate(-1706.622 -1202.606)" fill="#dba585"/>
            </g>
          </g>
          <g id="Group_6081" data-name="Group 6081" transform="translate(10.303 33.446)">
            <g id="Group_6080" data-name="Group 6080">
              <g id="Group_6079" data-name="Group 6079">
                <path id="Path_7416" data-name="Path 7416" d="M1512.8,1100.737c-7.4-1.3-15.182-3.166-15.182-3.166l-13.775-.561s-12.643,2.783-17.623,5.031c-.47.215-.474,11.28-1.771,14.184l4.128,8.711s2.383,17.255,2.878,24.928c.226,3.523-.641,34.044-.641,34.044s1.239.612,10.642,1.647,32.9-.375,33.045-1.487-4.551-41.352-4.758-43.436c-.317-3.2.925-17.98.925-17.98,1.771,2.379,6.288,13.127,11,18.239,2.77,3.01,16.479,4.853,19.066,4.937,5.625.19,15.888,1.308,16.187.761.241-.328.9-9.108.252-9.323-.561-.189-19.619-1.286-24.505-3.876-1.785-.948-7.126-12.592-7.126-12.592S1516.881,1102.57,1512.8,1100.737Z" transform="translate(-1464.45 -1097.01)" fill="#444"/>
              </g>
            </g>
          </g>
          <g id="Group_6082" data-name="Group 6082" transform="translate(0 64.225)">
            <path id="Path_7417" data-name="Path 7417" d="M1468.3,1236.723h-24.385a7.746,7.746,0,0,1-7.746-7.746v-39.741a7.746,7.746,0,0,1,7.746-7.746H1468.3a7.747,7.747,0,0,1,7.746,7.746v39.738A7.743,7.743,0,0,1,1468.3,1236.723Z" transform="translate(-1436.17 -1181.49)" fill="#bbb"/>
          </g>
          <g id="Group_6083" data-name="Group 6083" transform="translate(12.021 99.485)">
            <path id="Path_7418" data-name="Path 7418" d="M1489.956,1311.067c-5.877,0-10.649-1.975-14.176-5.869-7.972-8.8-6.54-24.272-6.474-24.928a2.219,2.219,0,0,1,4.415.438c-.018.175-1.29,14.2,5.356,21.521,2.685,2.962,6.245,4.4,10.876,4.4a2.219,2.219,0,0,1,0,4.438Z" transform="translate(-1469.166 -1278.27)" fill="#bbb"/>
          </g>
          <g id="Group_6086" data-name="Group 6086" transform="translate(72.131 13.808)">
            <g id="Group_6085" data-name="Group 6085">
              <g id="Group_6084" data-name="Group 6084">
                <path id="Path_7419" data-name="Path 7419" d="M1656.669,1045.628h-21.943a.577.577,0,0,1-.576-.576v-1.366a.577.577,0,0,1,.576-.576h21.943a.577.577,0,0,1,.576.576v1.363A.577.577,0,0,1,1656.669,1045.628Z" transform="translate(-1634.15 -1043.11)" fill="#e9e9e9"/>
              </g>
            </g>
          </g>
          <g id="Group_6089" data-name="Group 6089" transform="translate(72.131 19.204)">
            <g id="Group_6088" data-name="Group 6088">
              <g id="Group_6087" data-name="Group 6087">
                <path id="Path_7420" data-name="Path 7420" d="M1656.669,1060.437h-21.943a.577.577,0,0,1-.576-.575V1058.5a.577.577,0,0,1,.576-.576h21.943a.577.577,0,0,1,.576.576v1.363A.575.575,0,0,1,1656.669,1060.437Z" transform="translate(-1634.15 -1057.92)" fill="#e9e9e9"/>
              </g>
            </g>
          </g>
          <g id="Group_6092" data-name="Group 6092" transform="translate(72.127 25.398)">
            <g id="Group_6091" data-name="Group 6091">
              <g id="Group_6090" data-name="Group 6090">
                <path id="Path_7421" data-name="Path 7421" d="M1655.3,1103.375h-19.219a1.941,1.941,0,0,1-1.942-1.939v-24.578a1.94,1.94,0,0,1,1.942-1.938H1655.3a1.937,1.937,0,0,1,1.938,1.938v24.578A1.938,1.938,0,0,1,1655.3,1103.375Z" transform="translate(-1634.14 -1074.92)" fill="#e9e9e9"/>
              </g>
            </g>
          </g>
          <g id="Group_6095" data-name="Group 6095" transform="translate(99.89 13.808)">
            <g id="Group_6094" data-name="Group 6094">
              <g id="Group_6093" data-name="Group 6093">
                <path id="Path_7422" data-name="Path 7422" d="M1748.4,1083.154h-34.991a3.072,3.072,0,0,1-3.071-3.071v-33.9a3.072,3.072,0,0,1,3.071-3.072H1748.4a3.074,3.074,0,0,1,3.071,3.072v33.9A3.072,3.072,0,0,1,1748.4,1083.154Z" transform="translate(-1710.34 -1043.11)" fill="#e9e9e9"/>
              </g>
            </g>
          </g>
        </g>
        <g id="Group_6119" data-name="Group 6119" transform="translate(412.187 198.258)">
          <g id="Group_6097" data-name="Group 6097" transform="translate(0 28.482)">
            <path id="Path_7423" data-name="Path 7423" d="M2466.784,969.8l-22.592,12.417-22.692-35.7,27.445-9.531Z" transform="translate(-2421.5 -936.98)" fill="#2e3048"/>
          </g>
          <g id="Group_6098" data-name="Group 6098" transform="translate(1.505 29.535)">
            <path id="Path_7424" data-name="Path 7424" d="M2467.977,970.562l-21.132,11.615-21.215-33.391,25.664-8.915Z" transform="translate(-2425.63 -939.87)" fill="#fff"/>
          </g>
          <g id="Group_6099" data-name="Group 6099" transform="translate(24.799 46.56)">
            <path id="Path_7425" data-name="Path 7425" d="M2516.357,994.022s-3.934-1.88-5.658-2.864-6.164-2.332-6.525-2.652-13.16-1.111-13.939-1.781-1.535,1.57,1.788,2.3,7.936,2.507,8.187,3.8-3.406,1.6-3.778,2.674.1.827.626,1.057,4.355-1.891,6.041-1.29,4.256-.229,5.55.211,7.563,2.554,7.563,2.554Z" transform="translate(-2489.567 -986.601)" fill="#dba585"/>
          </g>
          <g id="Group_6100" data-name="Group 6100" transform="translate(4.295 46.599)">
            <path id="Path_7426" data-name="Path 7426" d="M2450.584,1009.348s-3.3-2.973-4.9-4.219-4.6-4.9-5.039-5.115-6.171-11.972-7.1-12.442.881-2.055,2.857.791,5.45,6.5,6.769,6.237.182-3.836,1.05-4.6.823-.226,1.243.182-.088,4.839,1.136,6.194,1.439,4.1,2.361,5.148,5.352,6.135,5.352,6.135Z" transform="translate(-2433.288 -986.706)" fill="#dba585"/>
          </g>
          <g id="Group_6101" data-name="Group 6101" transform="translate(92.738 227.523)">
            <path id="Path_7427" data-name="Path 7427" d="M2676.04,1483.935s.713,4.958.8,5.706,7.95-.437,7.95-.437l.638-5.906S2677.023,1483.236,2676.04,1483.935Z" transform="translate(-2676.04 -1483.296)" fill="#454971"/>
          </g>
          <g id="Group_6102" data-name="Group 6102" transform="translate(79.814 232.902)">
            <path id="Path_7428" data-name="Path 7428" d="M2654.209,1498.395a21.279,21.279,0,0,1-4.9,4.292c-2.408,1.3-6.194,1.818-7.618,3.166-1.027.973-3.745,5.166,6.259,5.079s14.829.594,15.9-1.013-1.552-11.859-1.552-11.859S2659.933,1498.912,2654.209,1498.395Z" transform="translate(-2640.568 -1498.06)" fill="#a5a5a5"/>
          </g>
          <g id="Group_6103" data-name="Group 6103" transform="translate(36.419 227.523)">
            <path id="Path_7429" data-name="Path 7429" d="M2521.46,1483.935s.714,4.958.8,5.706,7.95-.437,7.95-.437l.638-5.906S2522.439,1483.236,2521.46,1483.935Z" transform="translate(-2521.46 -1483.296)" fill="#454971"/>
          </g>
          <g id="Group_6104" data-name="Group 6104" transform="translate(18.875 232.902)">
            <path id="Path_7430" data-name="Path 7430" d="M2491.568,1498.395a21.226,21.226,0,0,1-4.9,4.292c-2.409,1.3-11.269,2.372-12.7,3.72-1.028.973-2.736,4.893,11.339,4.525,10-.259,14.828.594,15.9-1.013s-1.551-11.859-1.551-11.859S2497.426,1498.971,2491.568,1498.395Z" transform="translate(-2473.306 -1498.06)" fill="#a5a5a5"/>
          </g>
          <g id="Group_6105" data-name="Group 6105" transform="translate(68.194 100.707)">
            <path id="Path_7431" data-name="Path 7431" d="M2626.708,1135.22s7.385,11.735,6.835,22.341,2.678,22.188,3.789,33.267c1.235,12.355,6.3,41.6,6.481,48.205s-.783,27.707-.783,27.707l-10.133.233s-8.51-51.127-10.715-56.344-13.135-42.408-13.5-46.58S2626.708,1135.22,2626.708,1135.22Z" transform="translate(-2608.675 -1135.22)" fill="#3b3b3b"/>
          </g>
          <g id="Group_6106" data-name="Group 6106" transform="translate(35.045 98.685)">
            <path id="Path_7432" data-name="Path 7432" d="M2529.993,1133.28s-5.566,29.07-6.3,35.563-1.224,31.417-1.6,35.475-2.448,53.1-4.408,59.124h12.956s9.942-35.65,9.942-52.515,7.684-36.67,12.642-47.8,16.307-11.393,19.357-32.04C2572.591,1131.091,2534.117,1126.733,2529.993,1133.28Z" transform="translate(-2517.69 -1129.669)" fill="#3b3b3b"/>
          </g>
          <g id="Group_6107" data-name="Group 6107" transform="translate(56.25 1.14)">
            <path id="Path_7433" data-name="Path 7433" d="M2593.545,862.843s-9.913-3.705-14.486,3.84-4.128,22.654.867,24.513,12.5.885,15.062-3.837,4.867-11.546,4.753-16.111S2596.147,864.162,2593.545,862.843Z" transform="translate(-2575.89 -861.933)" fill="#dba585"/>
          </g>
          <g id="Group_6108" data-name="Group 6108" transform="translate(61.067 21.342)">
            <path id="Path_7434" data-name="Path 7434" d="M2589.406,926.792s.416,2.678-.269,4,12.846,1.351,12.846,1.351a88.98,88.98,0,0,1,3.181-13.233C2607.244,912.849,2589.406,926.792,2589.406,926.792Z" transform="translate(-2589.112 -917.383)" fill="#dba585"/>
          </g>
          <g id="Group_6109" data-name="Group 6109" transform="translate(56.676 0)">
            <path id="Path_7435" data-name="Path 7435" d="M2597.5,881.672s-.936,1.541-4.743.944-8.464-5.669-10.052-6.223-1.607-1.49-1.607-1.49l-.994,1.454-1.691.109s1.541-4.536-.784-6.387,2.412-14.679,14.632-10.409c0,0,9.385,2.587,9.046,7.924S2599.6,879.013,2597.5,881.672Z" transform="translate(-2577.06 -858.805)" fill="#3e4148"/>
          </g>
          <g id="Group_6110" data-name="Group 6110" transform="translate(60.29 30.882)">
            <path id="Path_7436" data-name="Path 7436" d="M2586.98,947.274s.044-2.521,1.188-2.762,12.606-1.344,14.005-.79v2.937S2599.469,948.316,2586.98,947.274Z" transform="translate(-2586.98 -943.567)" fill="#dcd0c8"/>
          </g>
          <g id="Group_6111" data-name="Group 6111" transform="translate(60.669 12.207)">
            <path id="Path_7437" data-name="Path 7437" d="M2588.318,894.255c.214-.9,2.492-3.454,3.363-.714s-1.319,6.427-2.539,6.11S2587.779,896.525,2588.318,894.255Z" transform="translate(-2588.019 -892.309)" fill="#dba585"/>
          </g>
          <g id="Group_6112" data-name="Group 6112" transform="translate(14.753 64.348)">
            <path id="Path_7438" data-name="Path 7438" d="M2462.039,1035.425a.017.017,0,0,1,.018,0C2461.981,1035.458,2461.969,1035.462,2462.039,1035.425Z" transform="translate(-2461.993 -1035.423)" fill="#363957"/>
          </g>
          <g id="Group_6113" data-name="Group 6113" transform="translate(14.821 33.972)">
            <path id="Path_7439" data-name="Path 7439" d="M2541.917,1046.741a105.039,105.039,0,0,1-16.445,2.933c-10.369,1.144-36.271-.412-36.434-1.64s5.571-45.607,5.247-47.9-.5-10.427-.5-10.427a57.264,57.264,0,0,1-5.144,16.315c-.991,1.793-4.317,7.422-5.921,6.143-7.76-6.2-19.776-29.544-20.537-29.741.637-.277,5.695-2.6,6.4-2.842.623-.207,6.219,5.72,9.611,9.4,1.512,1.636,2.587,2.827,2.587,2.827.98-2.2,4.547-16.085,5.659-20.891,2.5-10.835,2.116-11.287,2.116-11.287,7.586-2.3,19.095-6.962,19.095-6.962l15.189-.619s13.943,3.068,19.434,5.549c.521.237.524,12.438,1.953,15.637l-4.554,9.6s-2.627,19.022-3.173,27.482C2536.245,1014.2,2541.917,1046.741,2541.917,1046.741Z" transform="translate(-2462.18 -952.05)" fill="#fff"/>
          </g>
          <g id="Group_6114" data-name="Group 6114" transform="translate(80.583 39.517)">
            <path id="Path_7440" data-name="Path 7440" d="M2659.592,998.749c-.4,1.279-2.2,2.361-3.371,2.834a4.347,4.347,0,0,1-2.43.244l-.6-.109h0l-10.409-1.931s-2.276-26.232,14.22-32.517C2657.445,967.412,2663.234,987,2659.592,998.749Z" transform="translate(-2642.677 -967.27)" fill="#fff"/>
          </g>
          <g id="Group_6115" data-name="Group 6115" transform="translate(91.098 60.561)">
            <path id="Path_7441" data-name="Path 7441" d="M2674.568,1038.3h0a4.349,4.349,0,0,1-2.43.244l-.6-.109h0l1.027-13.4Z" transform="translate(-2671.541 -1025.03)" fill="#762020"/>
          </g>
          <g id="Group_6116" data-name="Group 6116" transform="translate(30.831 70.901)">
            <path id="Path_7442" data-name="Path 7442" d="M2508.712,1056.237l-1.271,5.389s-1.381-5.407-1.316-8.216C2507.638,1055.049,2508.712,1056.237,2508.712,1056.237Z" transform="translate(-2506.124 -1053.41)" fill="#762020"/>
          </g>
          <g id="Group_6117" data-name="Group 6117" transform="translate(76.729 2.911)">
            <path id="Path_7443" data-name="Path 7443" d="M2632.1,866.822s12.989-1.625.219,20.075Z" transform="translate(-2632.1 -866.794)" fill="#3e4148"/>
          </g>
          <g id="Group_6118" data-name="Group 6118" transform="translate(9.127 30.241)">
            <path id="Path_7444" data-name="Path 7444" d="M2447.869,947.668l-1.318-2.27,10.4-3.589,1.322,2.255Z" transform="translate(-2446.551 -941.81)" fill="#2e3048"/>
          </g>
        </g>
      </g>
    </g>
  </g>
</svg>
