<svg xmlns="http://www.w3.org/2000/svg" xmlns:xlink="http://www.w3.org/1999/xlink" width="438.856" height="420.143" viewBox="0 0 438.856 420.143">
  <defs>
    <linearGradient id="linear-gradient" x1="309.201" y1="-1.123" x2="310.207" y2="-1.123" gradientUnits="objectBoundingBox">
      <stop offset="0" stop-color="#febbba"/>
      <stop offset="1" stop-color="#ff928e"/>
    </linearGradient>
    <linearGradient id="linear-gradient-2" x1="360.558" y1="-0.714" x2="361.573" y2="-0.714" xlink:href="#linear-gradient"/>
    <linearGradient id="linear-gradient-3" x1="59.659" y1="0.214" x2="60.653" y2="0.214" xlink:href="#linear-gradient"/>
    <linearGradient id="linear-gradient-4" x1="-71.512" y1="1.008" x2="-69.532" y2="3.691" xlink:href="#linear-gradient"/>
    <linearGradient id="linear-gradient-5" x1="429.508" y1="-0.692" x2="431.51" y2="-2.472" xlink:href="#linear-gradient"/>
    <linearGradient id="linear-gradient-6" x1="47.543" y1="0.024" x2="48.545" y2="0.024" xlink:href="#linear-gradient"/>
    <linearGradient id="linear-gradient-7" x1="118.918" y1="-0.089" x2="119.909" y2="-0.089" xlink:href="#linear-gradient"/>
    <linearGradient id="linear-gradient-8" x1="30.853" y1="48.357" x2="30.529" y2="47.291" xlink:href="#linear-gradient"/>
    <linearGradient id="linear-gradient-9" x1="99.166" y1="230.254" x2="98.219" y2="225.641" xlink:href="#linear-gradient"/>
    <linearGradient id="linear-gradient-10" x1="148.391" y1="0.5" x2="149.391" y2="0.5" xlink:href="#linear-gradient"/>
  </defs>
  <g id="Easily_Locate_Assets_" data-name="Easily Locate Assets " transform="translate(-43.175 -49.868)">
    <g id="Illustration" transform="translate(43.175 49.868)">
      <g id="Group_7007" data-name="Group 7007">
        <path id="Path_9456" data-name="Path 9456" d="M829.419,747.389C785.3,846.55,668.838,889.141,577.59,881.879c-24.914-1.982-75.044-5.972-114.185-41.564-75.167-68.352-63.591-211.226,8.366-295.342,9.267-10.833,73.408-83.408,173.361-82.437,73.18.71,124.544,40.461,130.791,45.412a196.579,196.579,0,0,1,40.976,44.7C853.749,608.067,856.989,685.423,829.419,747.389Z" transform="translate(-410.397 -462.526)" fill="#f3f3f3"/>
        <g id="Group_6980" data-name="Group 6980" transform="translate(0 105.161)">
          <path id="Path_9457" data-name="Path 9457" d="M408.492,1161.205c.738-.813,1.714-2.009,2.436-1.432,11.69,9.341,40.229,37.571,37.669,88.975-3.212,64.494,12.649,87.355,31.235,100.947a51.127,51.127,0,0,1-19.557-1.441C395.468,1330.112,392.7,1178.606,408.492,1161.205Z" transform="translate(-400.451 -1159.621)" fill="#a4a4a4"/>
          <path id="Path_9458" data-name="Path 9458" d="M519.162,1298.209c1.923,7.09,3.7,14.208,5.2,21.367q2.313,10.73,3.933,21.548c1.048,7.211,1.955,14.435,2.539,21.675.617,7.238.908,14.484,1.174,21.758a217.97,217.97,0,0,0,1.629,21.939,72.688,72.688,0,0,0,6.351,21.527c.831,1.7,1.7,3.4,2.658,5.037.931,1.652,1.937,3.268,2.972,4.867a83.149,83.149,0,0,0,6.932,9.16A86.041,86.041,0,0,0,570.1,1462.2a1.506,1.506,0,0,0,2.047-.341,1.38,1.38,0,0,0-.389-1.933l0,0c-1.548-1.073-3.082-2.162-4.562-3.31-.75-.563-1.472-1.156-2.206-1.736-.711-.6-1.445-1.184-2.135-1.809a79.438,79.438,0,0,1-7.844-7.885,84.3,84.3,0,0,1-12.066-18.358,70.714,70.714,0,0,1-3.888-10.11,78.052,78.052,0,0,1-2.316-10.539,215.822,215.822,0,0,1-1.771-21.645c-.373-7.271-.8-14.576-1.542-21.864q-.541-5.465-1.287-10.916c-.238-1.818-.513-3.631-.783-5.444q-.435-2.718-.905-5.429-1.912-10.846-4.521-21.578c-1.777-7.143-3.75-14.244-6.007-21.271a.413.413,0,0,0-.5-.264A.365.365,0,0,0,519.162,1298.209Z" transform="translate(-501.243 -1276.911)" fill="#efefef"/>
        </g>
        <g id="Group_6981" data-name="Group 6981" transform="translate(25.095 49.236)">
          <path id="Path_9459" data-name="Path 9459" d="M651.746,1053.585a3.62,3.62,0,0,0,5.986-2.857c-1.128-34.715-8.122-172.574-49.143-257.08a8.374,8.374,0,0,0-14.772-.6C572.465,829.667,523.966,942.313,651.746,1053.585Z" transform="translate(-566.8 -788.902)" fill="#d5d5d5"/>
          <path id="Path_9460" data-name="Path 9460" d="M804.7,1110.365c-.474,4.551-.631,9.122-.7,13.693-.054,4.571,0,9.143.175,13.711.335,9.137,1.1,18.258,2.151,27.343s2.438,18.133,4.075,27.134,3.6,17.943,5.751,26.839l1.662,6.66,1.78,6.63.9,3.314.956,3.3,1.919,6.592c2.7,8.745,5.484,17.472,8.6,26.08q9.217,25.878,20.764,50.857a1.861,1.861,0,0,0,3.381-1.558l-.014-.029q-11.835-24.626-21.464-50.244c-3.243-8.516-6.149-17.154-8.982-25.816l-2.015-6.532-1.006-3.268-.944-3.284-1.88-6.573-1.762-6.606c-2.281-8.825-4.385-17.7-6.161-26.644s-3.3-17.94-4.5-26.982-2.1-18.127-2.586-27.239q-.378-6.834-.4-13.681c0-4.56.083-9.131.481-13.673v0a.094.094,0,1,0-.187-.018Z" transform="translate(-768.193 -1061.797)" fill="#7e7e7e"/>
        </g>
        <g id="Group_6992" data-name="Group 6992" transform="translate(194.925 42.671)">
          <g id="Group_6986" data-name="Group 6986" transform="translate(65.99)">
            <g id="Group_6982" data-name="Group 6982" opacity="0.3">
              <path id="Path_9461" data-name="Path 9461" d="M2131.4,810.133a1.726,1.726,0,0,1-1.39-1.84c.168-1.94.422-3.9.756-5.829a1.724,1.724,0,0,1,1.993-1.4l.033.006a1.724,1.724,0,0,1,1.371,1.987c-.317,1.831-.558,3.695-.718,5.538a1.724,1.724,0,0,1-1.866,1.569A1.43,1.43,0,0,1,2131.4,810.133Zm2.952-14.722a1.785,1.785,0,0,1-.2-.05,1.722,1.722,0,0,1-1.119-2.165c.593-1.863,1.272-3.719,2.019-5.517a1.723,1.723,0,1,1,3.183,1.32c-.709,1.708-1.354,3.471-1.917,5.242A1.723,1.723,0,0,1,2134.356,795.411Zm6.12-13.705a1.726,1.726,0,0,1-1.158-2.569c.991-1.681,2.067-3.34,3.2-4.93a1.723,1.723,0,0,1,2.807,2c-1.076,1.51-2.1,3.085-3.039,4.681A1.72,1.72,0,0,1,2140.476,781.706Zm9.033-11.995a1.723,1.723,0,0,1-.923-2.877c1.343-1.418,2.763-2.794,4.221-4.091a1.724,1.724,0,1,1,2.292,2.575c-1.385,1.232-2.733,2.539-4.01,3.886A1.724,1.724,0,0,1,2149.51,769.711Zm11.482-9.68a1.722,1.722,0,0,1-.63-3.124c1.62-1.082,3.308-2.109,5.02-3.053a1.723,1.723,0,0,1,1.666,3.017c-1.626.9-3.231,1.874-4.771,2.9A1.719,1.719,0,0,1,2160.991,760.031Zm13.334-6.9a1.723,1.723,0,0,1-.293-3.3c1.822-.7,3.7-1.326,5.571-1.868a1.723,1.723,0,0,1,.955,3.311c-1.781.514-3.562,1.11-5.294,1.774A1.7,1.7,0,0,1,2174.326,753.132Zm62.791,7.929a1.726,1.726,0,0,1-.67-.287c-1.51-1.071-3.088-2.091-4.688-3.031a1.723,1.723,0,1,1,1.745-2.972c1.685.99,3.348,2.064,4.937,3.192a1.723,1.723,0,0,1-1.324,3.1Zm-48.266-11.7a1.724,1.724,0,0,1,.083-3.4c1.931-.276,3.9-.471,5.846-.578a1.723,1.723,0,0,1,.192,3.441c-1.849.1-3.718.288-5.552.549A1.745,1.745,0,0,1,2188.85,749.364Zm35.119,4.447a1.677,1.677,0,0,1-.332-.1c-1.712-.706-3.479-1.349-5.248-1.908a1.724,1.724,0,1,1,1.039-3.287c1.862.59,3.72,1.264,5.523,2.008a1.724,1.724,0,0,1-.982,3.287Zm-20.118-4.879a1.724,1.724,0,0,1,.474-3.409c1.941.164,3.9.413,5.829.744l.036.006a1.723,1.723,0,0,1-.619,3.39c-1.828-.312-3.691-.551-5.536-.706A1.219,1.219,0,0,1,2203.851,748.932Z" transform="translate(-2130.008 -745.385)" fill="#828282"/>
              <path id="Path_9462" data-name="Path 9462" d="M2882.064,871.333a1.717,1.717,0,0,1-.907-.489c-.62-.636-1.264-1.27-1.913-1.886a1.723,1.723,0,1,1,2.368-2.5c.683.646,1.361,1.312,2.014,1.982a1.725,1.725,0,0,1-1.563,2.9Z" transform="translate(-2765.76 -847.789)" fill="#828282"/>
            </g>
            <g id="Group_6983" data-name="Group 6983" transform="translate(16.741 66.332)" opacity="0.3">
              <path id="Path_9463" data-name="Path 9463" d="M3019.549,1191.262a1.723,1.723,0,0,1-1.394-1.747c.028-.889.038-1.792.03-2.685a1.723,1.723,0,1,1,3.446-.035c.009.941,0,1.893-.032,2.827a1.723,1.723,0,0,1-1.777,1.668A1.638,1.638,0,0,1,3019.549,1191.262Z" transform="translate(-2900.913 -1185.09)" fill="#828282"/>
              <path id="Path_9464" data-name="Path 9464" d="M2328.854,1321.921q-1.168-.226-2.337-.492a1.724,1.724,0,1,1,.766-3.361c1.8.41,3.61.747,5.4,1a1.723,1.723,0,1,1-.486,3.412C2331.091,1322.324,2329.964,1322.135,2328.854,1321.921ZM2317.8,1318.8a1.757,1.757,0,0,1-.282-.08c-1.8-.677-3.59-1.438-5.324-2.261a1.723,1.723,0,0,1,1.48-3.112c1.646.783,3.348,1.5,5.059,2.149a1.723,1.723,0,0,1-.933,3.3Zm23.443,4.33a1.723,1.723,0,0,1,.336-3.415c1.821.009,3.667-.062,5.487-.208a1.724,1.724,0,0,1,.276,3.436c-1.917.154-3.862.228-5.779.219A1.721,1.721,0,0,1,2341.247,1323.134Zm-36.619-11.025a1.707,1.707,0,0,1-.619-.252c-1.6-1.054-3.186-2.192-4.7-3.377a1.724,1.724,0,0,1,2.129-2.711c1.434,1.126,2.934,2.206,4.459,3.207a1.724,1.724,0,0,1-1.273,3.133Zm51.3,9.454a1.724,1.724,0,0,1-.046-3.376c1.777-.392,3.562-.867,5.307-1.409a1.723,1.723,0,0,1,1.022,3.292c-1.836.572-3.715,1.071-5.588,1.484A1.714,1.714,0,0,1,2355.929,1321.563Zm13.983-4.753a1.723,1.723,0,0,1-.406-3.253c1.653-.773,3.293-1.626,4.874-2.534a1.724,1.724,0,0,1,1.717,2.99c-1.664.955-3.39,1.853-5.129,2.667A1.728,1.728,0,0,1,2369.912,1316.81Zm12.613-7.691a1.724,1.724,0,0,1-.727-3.057c1.447-1.116,2.862-2.3,4.206-3.535a1.723,1.723,0,0,1,2.326,2.543c-1.415,1.294-2.9,2.547-4.426,3.72A1.717,1.717,0,0,1,2382.525,1309.119Zm10.637-10.257a1.724,1.724,0,0,1-1-2.794c1.167-1.4,2.287-2.875,3.328-4.37a1.723,1.723,0,1,1,2.827,1.97c-1.1,1.575-2.276,3.124-3.5,4.6A1.714,1.714,0,0,1,2393.162,1298.862Zm8.127-12.346a1.725,1.725,0,0,1-1.21-2.474c.827-1.623,1.595-3.3,2.283-4.995a1.723,1.723,0,1,1,3.192,1.3c-.724,1.78-1.533,3.548-2.4,5.258A1.724,1.724,0,0,1,2401.289,1286.516Zm5.213-13.821c-.035-.006-.069-.016-.1-.024a1.724,1.724,0,0,1-1.24-2.1c.335-1.3.632-2.628.886-3.945q.138-.715.259-1.43a1.722,1.722,0,0,1,1.988-1.409,1.7,1.7,0,0,1,1.409,1.988q-.129.751-.273,1.5c-.267,1.385-.581,2.782-.932,4.15A1.72,1.72,0,0,1,2406.5,1272.7Z" transform="translate(-2289.954 -1251.895)" fill="#828282"/>
              <path id="Path_9465" data-name="Path 9465" d="M2244.252,1490.9a1.723,1.723,0,0,1-.912-.495c-.649-.671-1.294-1.37-1.92-2.074a1.723,1.723,0,1,1,2.576-2.29c.594.67,1.208,1.332,1.824,1.97a1.724,1.724,0,0,1-1.568,2.889Z" transform="translate(-2240.984 -1440.151)" fill="#828282"/>
            </g>
            <g id="Group_6985" data-name="Group 6985" transform="translate(17.576 17.055)">
              <path id="Path_9466" data-name="Path 9466" d="M2255.02,939.283a.8.8,0,0,0,.839.413l9.676-1.581a42.685,42.685,0,0,0,10.72,8.748l.4,9.789a.806.806,0,0,0,.573.739l11.264,3.379a.808.808,0,0,0,.885-.3l5.72-7.955a42.752,42.752,0,0,0,13.766-1.4l7.208,6.645a.806.806,0,0,0,.927.118l10.355-5.576a.8.8,0,0,0,.413-.839l-1.579-9.676a42.683,42.683,0,0,0,8.748-10.72l9.791-.4a.806.806,0,0,0,.739-.573l3.379-11.265a.8.8,0,0,0-.3-.885l-7.955-5.72a42.68,42.68,0,0,0-1.4-13.766l6.646-7.208a.809.809,0,0,0,.118-.928l-5.576-10.355a.8.8,0,0,0-.839-.413l-9.676,1.581a42.679,42.679,0,0,0-10.719-8.748l-.4-9.791a.806.806,0,0,0-.573-.739l-11.265-3.379a.8.8,0,0,0-.885.3l-5.72,7.955a42.714,42.714,0,0,0-13.766,1.4l-7.208-6.645a.806.806,0,0,0-.928-.118l-10.355,5.576a.806.806,0,0,0-.414.839l1.581,9.676a42.684,42.684,0,0,0-8.748,10.72l-9.789.4a.807.807,0,0,0-.739.573l-3.379,11.264a.808.808,0,0,0,.3.885l7.954,5.721a42.772,42.772,0,0,0,1.4,13.766L2249.565,928a.806.806,0,0,0-.117.928Z" transform="translate(-2246.517 -858.442)" fill="#b8b8b8"/>
              <g id="Group_6984" data-name="Group 6984" transform="translate(39.356 39.363)">
                <path id="Path_9467" data-name="Path 9467" d="M2516.977,1142.8a11.823,11.823,0,1,1,1.724.2A11.978,11.978,0,0,1,2516.977,1142.8Zm3.981-20.5a9.065,9.065,0,1,0,7.319,9.3,9.067,9.067,0,0,0-7.319-9.3Z" transform="translate(-2507.402 -1119.372)" fill="#929292"/>
              </g>
              <path id="Path_9468" data-name="Path 9468" d="M2418.075,1061.752a29.559,29.559,0,0,1-2.9-.714h0q-.452-.136-.9-.286a29.227,29.227,0,0,1-4.281-1.825l-.056-.029-.158-.084c-.1-.054-.2-.112-.308-.167a.688.688,0,0,1-.344-.733.725.725,0,0,1,.074-.2.689.689,0,0,1,.937-.27,27.723,27.723,0,0,0,31.507-3.31,27.527,27.527,0,0,0,8.406-12.974,28.086,28.086,0,0,0,.681-2.767,27.689,27.689,0,0,0-53.719-13.144,27.933,27.933,0,0,0-.671,2.732,27.591,27.591,0,0,0,.344,12.013.694.694,0,0,1,.009.3.689.689,0,0,1-1.344.038,28.976,28.976,0,0,1-.362-12.612,29.07,29.07,0,0,1,36.9-22.357,29.072,29.072,0,0,1,20.2,33.287,29.658,29.658,0,0,1-.714,2.9,29.076,29.076,0,0,1-33.294,20.2Z" transform="translate(-2372.14 -982.153)" fill="#929292"/>
            </g>
          </g>
          <g id="Group_6991" data-name="Group 6991" transform="translate(0 46.92)">
            <g id="Group_6987" data-name="Group 6987" opacity="0.3">
              <path id="Path_9469" data-name="Path 9469" d="M1693.611,1369.58a1.063,1.063,0,0,1-.857-.944c-.086-.9-.146-1.815-.178-2.718a1.064,1.064,0,1,1,2.127-.075c.03.861.087,1.733.169,2.592a1.067,1.067,0,0,1-1.261,1.146Z" transform="translate(-1692.575 -1318.29)" fill="#727272"/>
              <path id="Path_9470" data-name="Path 9470" d="M1694.422,1099.51a1.064,1.064,0,0,1-.857-1.139,46.115,46.115,0,0,1,.652-4.637c.062-.321.128-.643.2-.965a1.1,1.1,0,0,1,1.264-.818,1.066,1.066,0,0,1,.818,1.264q-.1.461-.189.923a44.178,44.178,0,0,0-.622,4.423,1.066,1.066,0,0,1-1.154.967C1694.493,1099.521,1694.457,1099.517,1694.422,1099.51Zm2.322-10.806a1.046,1.046,0,0,1-.148-.039,1.065,1.065,0,0,1-.658-1.355,46.292,46.292,0,0,1,2.178-5.23,1.064,1.064,0,0,1,1.91.938,44.039,44.039,0,0,0-2.079,4.989A1.062,1.062,0,0,1,1696.744,1088.7Zm4.872-9.92a1.064,1.064,0,0,1-.688-1.629,45.787,45.787,0,0,1,3.4-4.538,1.064,1.064,0,0,1,1.622,1.379,43.437,43.437,0,0,0-3.242,4.326A1.068,1.068,0,0,1,1701.616,1078.784Zm7.164-8.419a1.063,1.063,0,0,1-.517-1.828,46.166,46.166,0,0,1,4.405-3.566,1.065,1.065,0,0,1,1.234,1.735,43.935,43.935,0,0,0-4.2,3.4A1.063,1.063,0,0,1,1708.781,1070.365Zm9-6.414a1.064,1.064,0,0,1-.306-1.981,46.685,46.685,0,0,1,5.137-2.388,1.065,1.065,0,1,1,.778,1.982,44.269,44.269,0,0,0-4.9,2.28A1.074,1.074,0,0,1,1717.782,1063.951Zm10.284-4.034a1.064,1.064,0,0,1-.063-2.076,45.7,45.7,0,0,1,5.563-1.062,1.064,1.064,0,1,1,.269,2.112,43.507,43.507,0,0,0-5.3,1.014A1.1,1.1,0,0,1,1728.066,1059.917Zm10.957-1.4a1.065,1.065,0,0,1,.2-2.11,46.136,46.136,0,0,1,5.657.335,1.065,1.065,0,0,1-.256,2.115,43.725,43.725,0,0,0-5.395-.32A1.107,1.107,0,0,1,1739.023,1058.52Zm16.253,3a1.176,1.176,0,0,1-.181-.051,44.274,44.274,0,0,0-4.473-1.445c-.229-.062-.455-.121-.683-.177a1.067,1.067,0,0,1-.779-1.29,1.055,1.055,0,0,1,1.288-.779c.241.06.483.122.723.187a45.953,45.953,0,0,1,4.684,1.515,1.064,1.064,0,0,1-.579,2.039Z" transform="translate(-1693.412 -1056.409)" fill="#727272"/>
            </g>
            <g id="Group_6988" data-name="Group 6988" transform="translate(11.337 72.309)" opacity="0.3">
              <path id="Path_9471" data-name="Path 9471" d="M1827.72,1554.672a1.065,1.065,0,0,1,.389-2.094,44.16,44.16,0,0,0,5.278.622,1.064,1.064,0,1,1-.119,2.125,46.279,46.279,0,0,1-5.535-.651Zm-5.294-1.282a1.056,1.056,0,0,1-.112-.029,46.5,46.5,0,0,1-5.221-1.95,1.064,1.064,0,0,1,.863-1.946,44.653,44.653,0,0,0,4.983,1.862,1.065,1.065,0,0,1-.513,2.064Zm16.145,1.892a1.065,1.065,0,0,1,.131-2.108,44.387,44.387,0,0,0,5.274-.674,1.065,1.065,0,1,1,.4,2.093,46.171,46.171,0,0,1-5.529.706A.971.971,0,0,1,1838.571,1555.281Zm-26.083-6.309a1.038,1.038,0,0,1-.345-.133,45.589,45.589,0,0,1-4.6-3.156,1.065,1.065,0,0,1,1.309-1.679,43.681,43.681,0,0,0,4.384,3.008,1.066,1.066,0,0,1-.75,1.96Zm36.761,4.278a1.065,1.065,0,0,1-.124-2.059,43.583,43.583,0,0,0,4.956-1.922,1.065,1.065,0,0,1,.889,1.936,46.457,46.457,0,0,1-5.2,2.015A1.058,1.058,0,0,1,1849.249,1553.25Zm9.878-4.533a1.065,1.065,0,0,1-.358-1.952,44.638,44.638,0,0,0,4.355-3.052,1.065,1.065,0,0,1,1.326,1.666,46.467,46.467,0,0,1-4.565,3.2A1.051,1.051,0,0,1,1859.127,1548.717Zm8.508-6.769a1.049,1.049,0,0,1-.545-.287,1.065,1.065,0,0,1-.012-1.506,43.849,43.849,0,0,0,3.5-4.008,1.065,1.065,0,0,1,1.687,1.3,45.89,45.89,0,0,1-3.664,4.2A1.067,1.067,0,0,1,1867.635,1541.948Z" transform="translate(-1801.19 -1535.734)" fill="#727272"/>
              <path id="Path_9472" data-name="Path 9472" d="M1770.414,1556.18a1.06,1.06,0,0,1-.551-.293c-.644-.644-1.272-1.311-1.868-1.979a1.064,1.064,0,0,1,1.591-1.414c.567.638,1.166,1.275,1.782,1.889a1.064,1.064,0,0,1-.955,1.8Z" transform="translate(-1767.727 -1549.664)" fill="#727272"/>
            </g>
            <g id="Group_6990" data-name="Group 6990" transform="translate(11.807 11.399)">
              <path id="Path_9473" data-name="Path 9473" d="M1776.529,1186.06a.537.537,0,0,0,.561.276l6.475-1.057a28.613,28.613,0,0,0,7.173,5.855l.265,6.55a.539.539,0,0,0,.384.495l7.536,2.261a.539.539,0,0,0,.593-.2l3.829-5.322a28.6,28.6,0,0,0,9.211-.939l4.823,4.447a.541.541,0,0,0,.621.078l6.929-3.731a.538.538,0,0,0,.276-.561l-1.057-6.475a28.614,28.614,0,0,0,5.855-7.173l6.55-.266a.539.539,0,0,0,.495-.383l2.261-7.537a.54.54,0,0,0-.2-.593l-5.322-3.829a28.618,28.618,0,0,0-.938-9.211l4.447-4.823a.539.539,0,0,0,.078-.62l-3.73-6.929a.538.538,0,0,0-.561-.276l-6.475,1.058a28.587,28.587,0,0,0-7.173-5.855l-.266-6.552a.539.539,0,0,0-.383-.495l-7.537-2.261a.539.539,0,0,0-.593.2l-3.829,5.322a28.619,28.619,0,0,0-9.211.938l-4.823-4.447a.541.541,0,0,0-.621-.078l-6.929,3.731a.538.538,0,0,0-.276.561l1.058,6.474a28.617,28.617,0,0,0-5.855,7.173l-6.551.266a.539.539,0,0,0-.495.383l-2.261,7.537a.539.539,0,0,0,.2.593l5.322,3.829a28.619,28.619,0,0,0,.938,9.211l-4.447,4.823a.541.541,0,0,0-.078.622Z" transform="translate(-1770.839 -1131.968)" fill="#b8b8b8"/>
              <g id="Group_6989" data-name="Group 6989" transform="translate(26.194 26.195)">
                <path id="Path_9474" data-name="Path 9474" d="M1950.988,1321.564a8.084,8.084,0,1,1,1.186.139A8.342,8.342,0,0,1,1950.988,1321.564Zm2.666-13.72a6.005,6.005,0,0,0-.865-.1,5.923,5.923,0,0,0-.522,11.835h0a5.923,5.923,0,0,0,1.386-11.732Z" transform="translate(-1944.477 -1305.607)" fill="#929292"/>
              </g>
              <path id="Path_9475" data-name="Path 9475" d="M1882.109,1265.11q-.991-.192-1.981-.487a20.189,20.189,0,0,1-3.774-1.563c-.054-.028-.107-.059-.161-.089a1.063,1.063,0,0,1-.533-1.133,1.082,1.082,0,0,1,.115-.314,1.065,1.065,0,0,1,1.445-.418,17.948,17.948,0,0,0,3.519,1.475h0l.2.059a17.736,17.736,0,0,0,8.772.292,17.984,17.984,0,0,0,4.53-1.662l.034-.018.107-.057a17.806,17.806,0,0,0,8.67-10.631,18.43,18.43,0,0,0,.441-1.791,17.925,17.925,0,0,0-34.776-8.51,18.193,18.193,0,0,0-.434,1.768,17.854,17.854,0,0,0,.223,7.777,1.064,1.064,0,1,1-2.064.522,20.054,20.054,0,1,1,39.143-1.16,20.524,20.524,0,0,1-.492,2A20.078,20.078,0,0,1,1882.109,1265.11Z" transform="translate(-1851.503 -1211.262)" fill="#929292"/>
            </g>
          </g>
        </g>
        <g id="Group_6993" data-name="Group 6993" transform="translate(0.941 129.968)">
          <path id="Path_9476" data-name="Path 9476" d="M577.693,1557.507a6.886,6.886,0,0,0,6.869,6.862H956a6.886,6.886,0,0,0,6.868-6.862l3.091-213.457c0-3.774-4.447-11.142-12.6-10.589l-363.015-9.394a17.309,17.309,0,0,0-17.76,17.7Z" transform="translate(-547.561 -1324.062)" fill="#727272"/>
          <path id="Path_9477" data-name="Path 9477" d="M622.234,1596.743a6.518,6.518,0,0,0,6.5,6.5H984.806a6.519,6.519,0,0,0,6.5-6.5l2.916-193.78c-.344-11.661-10.568-15.852-16.765-15.6l-347.917-9.333a12.166,12.166,0,0,0-12.48,12.449Z" transform="translate(-585.321 -1369.881)" fill="#e6e6e6"/>
          <path id="Path_9478" data-name="Path 9478" d="M407.542,2928.915h436.21a.854.854,0,0,0,.852-.852v-17.05a.854.854,0,0,0-.852-.852H407.542a.854.854,0,0,0-.852.852v17.05A.853.853,0,0,0,407.542,2928.915Z" transform="translate(-406.69 -2670.887)" fill="#8d8d8d"/>
          <path id="Path_9479" data-name="Path 9479" d="M993.94,1422.675l.291-19.417c-.344-11.661-10.568-15.915-16.765-15.668l-347.917-9.365a12.142,12.142,0,0,0-8.908,3.53,12.427,12.427,0,0,0-3.572,9.02l.8,31.9H993.94Z" transform="translate(-585.329 -1370.051)" fill="#aaa"/>
          <path id="Path_9480" data-name="Path 9480" d="M928.348,1824.911H727.554a5.893,5.893,0,0,1-5.894-5.894v-77.463a5.893,5.893,0,0,1,5.894-5.894h200.8a5.894,5.894,0,0,1,5.894,5.894v77.463A5.9,5.9,0,0,1,928.348,1824.911Z" transform="translate(-674.145 -1673.568)" fill="#c5c5c5"/>
          <path id="Path_9481" data-name="Path 9481" d="M2327.243,1824.9H2208.572a4.222,4.222,0,0,1-4.222-4.223v-80.808a4.222,4.222,0,0,1,4.222-4.222h118.671a4.222,4.222,0,0,1,4.223,4.222v80.808A4.221,4.221,0,0,1,2327.243,1824.9Z" transform="translate(-1933.162 -1673.559)" fill="#c5c5c5"/>
          <path id="Path_9482" data-name="Path 9482" d="M1067.251,2473.934H726.841a5.192,5.192,0,0,1-5.191-5.191v-50.2a5.192,5.192,0,0,1,5.191-5.191h340.41a5.192,5.192,0,0,1,5.191,5.191v50.2A5.192,5.192,0,0,1,1067.251,2473.934Z" transform="translate(-674.136 -2249.024)" fill="#c5c5c5"/>
          <circle id="Ellipse_365" data-name="Ellipse 365" cx="4.468" cy="4.468" r="4.468" transform="translate(45.789 25.301)" fill="#fff"/>
          <circle id="Ellipse_366" data-name="Ellipse 366" cx="4.468" cy="4.468" r="4.468" transform="translate(60.683 25.731)" fill="#fff"/>
          <circle id="Ellipse_367" data-name="Ellipse 367" cx="4.468" cy="4.468" r="4.468" transform="translate(72.731 31.027) rotate(-45)" fill="#fff"/>
        </g>
        <g id="Group_6994" data-name="Group 6994" transform="translate(142.025 215.478)">
          <circle id="Ellipse_368" data-name="Ellipse 368" cx="23.511" cy="23.511" r="23.511" transform="translate(0 33.249) rotate(-45)" fill="#8f8f8f" opacity="0.67"/>
          <circle id="Ellipse_369" data-name="Ellipse 369" cx="15.321" cy="15.321" r="15.321" transform="translate(11.872 33.249) rotate(-45)" fill="#fff" opacity="0.67"/>
        </g>
        <g id="Group_7000" data-name="Group 7000" transform="translate(47.449 205.583)">
          <path id="Path_9483" data-name="Path 9483" d="M1001.949,3154.27s-.781,4.19-1.184,8.34a2.863,2.863,0,0,0,2.708,3.127c5.529.284,17.356.844,21.6.7a.93.93,0,0,0,.831-1.267,2.085,2.085,0,0,0-1.056-1.133l-19.459-9.169Z" transform="translate(-957.641 -2953.786)" fill="#8a8a8a"/>
          <path id="Path_9484" data-name="Path 9484" d="M1004.82,3133.779l.548,5.025s3.408,1.626,5.764-.146l-1.364-5.607Z" transform="translate(-961.096 -2935.768)" fill="url(#linear-gradient)"/>
          <path id="Path_9485" data-name="Path 9485" d="M926.013,2511.656c-.27,1.308-2,65.393,4.572,94.183a.975.975,0,0,1-.582,1.128,16.974,16.974,0,0,1-5.591,1.08,1.683,1.683,0,0,1-1.655-1.22c-1.895-6.683-10.961-40.163-11.88-72.07-1.027-35.655.012-1.213.012-1.213l1.012-22.023Z" transform="translate(-880.94 -2408)" fill="#bbb"/>
          <path id="Path_9486" data-name="Path 9486" d="M845.816,3167.35s-1.2,2.108-2.4,7.726a1.747,1.747,0,0,0,1.516,2.106c1.825.2,4.634.454,6.887.46a1.742,1.742,0,0,0,1.742-1.925,14.679,14.679,0,0,0-3.351-8.086Z" transform="translate(-824.011 -2964.893)" fill="#8a8a8a"/>
          <path id="Path_9487" data-name="Path 9487" d="M853.06,3123.091l1.318,7.6s1.367,1.036,4.094.32l-.587-8.174Z" transform="translate(-832.23 -2927.098)" fill="url(#linear-gradient-2)"/>
          <path id="Path_9488" data-name="Path 9488" d="M820,2505.264c-5.926,33.765.418,83.594,2.625,93.356a1.52,1.52,0,0,0,1.216,1.165,10.2,10.2,0,0,0,4.384-.133,1.391,1.391,0,0,0,1.012-1.272c.383-7.872.29-56.22,5.693-75.276a4.35,4.35,0,0,1,1.7-2.379l10.2-7.107.889-11.638Z" transform="translate(-802.068 -2399.898)" fill="#bbb"/>
          <g id="Group_6995" data-name="Group 6995" transform="translate(16.085 16.069)">
            <path id="Path_9489" data-name="Path 9489" d="M859.775,2086.721c-16.79-.437-35.364,4.072-35.364,4.072-5.285,29.159-1.476,62.887-1.476,62.887,12.968,3.533,27.685-1.821,27.685-1.821,2.278-12.187,12.687-46.447,12.687-46.447a55.327,55.327,0,0,0,20.592-6.32c-4.2-4.961-6.14-11.243-6.974-14.953A56.4,56.4,0,0,1,859.775,2086.721Z" transform="translate(-821.607 -2061.162)" fill="#fff"/>
            <path id="Path_9490" data-name="Path 9490" d="M1220.988,1933.118a3.215,3.215,0,0,0-3.728-1.086c-2.571,10.415-15.609,18.754-28.96,22.766.834,3.71,2.776,9.991,6.974,14.953C1217.485,1957.54,1220.988,1933.118,1220.988,1933.118Z" transform="translate(-1132.982 -1931.82)" fill="url(#linear-gradient-3)"/>
          </g>
          <g id="Group_6996" data-name="Group 6996" transform="translate(100.402)">
            <path id="Path_9491" data-name="Path 9491" d="M1383.809,1843.171c.167.551-1.839,1.367-2.994-.889-.03-1.076-.641-5.69.01-6.561,3.468-4.634,10.16-10.421,10.16-10.421a1.579,1.579,0,0,1,.177,2.2l-3.251,3.324a15.581,15.581,0,0,1,1.845,3.734,4.516,4.516,0,0,1-.481,3.316c-.575,1.012-1.359,2.329-2.1,3.358A4.465,4.465,0,0,1,1383.809,1843.171Z" transform="translate(-1380.526 -1825.3)" fill="url(#linear-gradient-4)"/>
            <path id="Path_9492" data-name="Path 9492" d="M1398.033,1876.22l-2.958,2.459-.945,2.468,2.589,2.927s.926-4.9,1.59-5.962S1398.639,1876.537,1398.033,1876.22Z" transform="translate(-1392.078 -1868.538)" fill="url(#linear-gradient-5)"/>
          </g>
          <path id="Path_9493" data-name="Path 9493" d="M742.371,2144.561l-6.286-16.321s-15.787,10.507-18.5,24a37.121,37.121,0,0,1,13.6,3.785C732.412,2149.651,742.371,2144.561,742.371,2144.561Z" transform="translate(-717.197 -2082.54)" fill="#e2e2e2"/>
          <path id="Path_9494" data-name="Path 9494" d="M753.719,2295.057s-17.706,9.784-23.567,1.229a6.676,6.676,0,0,1-1.175-5.2,37.147,37.147,0,0,0-13.6-3.785,18.655,18.655,0,0,0,1.905,12.8c10.227,19.139,38.726-.683,38.726-.683Z" transform="translate(-714.982 -2217.604)" fill="url(#linear-gradient-6)"/>
          <path id="Path_9495" data-name="Path 9495" d="M931.627,2009.8l-5.491,15.4a.557.557,0,0,0,.247.673c1.448.819,6.674,3.2,13.036-.753a2.622,2.622,0,0,0,1.225-1.862L942.5,2009.9Z" transform="translate(-894.255 -1981.967)" fill="url(#linear-gradient-7)"/>
          <g id="Group_6997" data-name="Group 6997" transform="translate(27.289 5.6)">
            <path id="Path_9496" data-name="Path 9496" d="M963.384,1915.68s5.762,11.1,4.968,15.555-8.063,4.064-14.378.38l-4.323-11.967Z" transform="translate(-941.538 -1907.646)" fill="url(#linear-gradient-8)"/>
            <path id="Path_9497" data-name="Path 9497" d="M908.646,1880.539a.454.454,0,0,0,.205-.664,11.891,11.891,0,0,1-1.6-3.482s-1.048-.685,2.7-1.545,9.338-2.195,10.54-5.368c1.172-3.092-1.756-10.925-6.606-4.752a.455.455,0,0,1-.721,0c-.775-1.029-2.819-3.171-5.7-1.911-2.694,1.178-3.014,3.141-2.987,4.132a.453.453,0,0,1-.54.458,5.249,5.249,0,0,0-6.156,2.8c-1.278,2.738-.478,4.3.255,5.07a.453.453,0,0,1-.2.751,2.731,2.731,0,0,0-1.957,3.1c.131,2.889,3.363,2.664,4.281,2.542a.458.458,0,0,1,.4.146c.78.879,4.295,4.616,8.133,5.1a.459.459,0,0,0,.487-.6l-1.617-4.85a.457.457,0,0,1,.252-.564Z" transform="translate(-895.874 -1862.423)"/>
            <path id="Path_9498" data-name="Path 9498" d="M959.6,1978.93s-4.15-2.906-4.479-.495,3.729,3.531,5.752,2.652Z" transform="translate(-946.17 -1960.122)" fill="url(#linear-gradient-9)"/>
          </g>
          <g id="Group_6999" data-name="Group 6999" transform="translate(35.079 56.437)">
            <g id="Group_6998" data-name="Group 6998">
              <path id="Path_9499" data-name="Path 9499" d="M947.552,2235.889l9.644-33.682a.985.985,0,0,1,.831-.707c1.747-.2,6.811-.777,12.657-1.271,7.042-.6,15.22-1.078,20.108-.668a.985.985,0,0,1,.806,1.418c-2.779,5.622-14.211,28.492-19.934,35.984a.987.987,0,0,1-.8.391l-22.378-.208A.985.985,0,0,1,947.552,2235.889Z" transform="translate(-947.513 -2199.408)" fill="#c9c9c9"/>
              <path id="Path_9500" data-name="Path 9500" d="M957.984,2322.649s-1.344-5.524-.8-7.484,1.592-4.48,5.091-3.921a51.158,51.158,0,0,1,7.629,2.035,2,2,0,0,1-2.869,1.729l1.649,1.276s-.235,2.044-2.483.952l1.534,1.693a1.787,1.787,0,0,1-2.617.6C963.463,2318.454,962.671,2323.314,957.984,2322.649Z" transform="translate(-955.614 -2294.306)" fill="url(#linear-gradient-10)"/>
            </g>
            <path id="Path_9501" data-name="Path 9501" d="M1096.85,2255.552a2.832,2.832,0,1,0,2.832-2.832A2.831,2.831,0,0,0,1096.85,2255.552Z" transform="translate(-1074.321 -2244.677)" fill="#7d7d7d"/>
            <path id="Path_9502" data-name="Path 9502" d="M1014.873,2224.337l1.964-6.662a2.287,2.287,0,0,1,1.717-1.6c6.155-1.284,23-1.557,23.17-1.559l-.011-.753c-.7.01-17.088.276-23.313,1.575a3.04,3.04,0,0,0-2.285,2.127l-1.964,6.662Z" transform="translate(-1004.097 -2211.595)" fill="#bdd0fb"/>
          </g>
        </g>
        <g id="Group_7003" data-name="Group 7003" transform="translate(192.448 152.26)">
          <g id="Group_7001" data-name="Group 7001">
            <path id="Path_9503" data-name="Path 9503" d="M1706.887,1977.061l-29.135,1.985a1.464,1.464,0,0,1-1.129-2.527l27.939-20.69Z" transform="translate(-1676.157 -1882.815)" fill="#fcfcfc"/>
            <path id="Path_9504" data-name="Path 9504" d="M2021.425,1472.833l-164.087-1c-3.756-.023-6.808,2.761-6.779,6.185l.691,82.615c.029,3.444,3.16,6.193,6.936,6.089l162.311-4.447a6.446,6.446,0,0,0,6.532-6.057l1.086-77.165C2028.162,1475.645,2025.16,1472.855,2021.425,1472.833Z" transform="translate(-1824.249 -1471.829)" fill="#fff"/>
            <path id="Path_9505" data-name="Path 9505" d="M1892.863,1590.581a7.123,7.123,0,0,1-4.951-1.906,5.165,5.165,0,0,1-1.644-3.667l-.649-72.029a5.142,5.142,0,0,1,1.563-3.675,7.217,7.217,0,0,1,5.078-1.984l154.337.875a7.091,7.091,0,0,1,5.027,2.021,5.134,5.134,0,0,1,1.527,3.667l-1.021,67.278c-.047,3.017-2.857,5.45-6.4,5.541l-152.665,3.877Zm-.649-82.734a6.575,6.575,0,0,0-4.66,1.83,4.615,4.615,0,0,0-1.409,3.3l.649,72.029a4.644,4.644,0,0,0,1.483,3.293,6.618,6.618,0,0,0,4.772,1.755l152.665-3.877c3.258-.083,5.844-2.288,5.886-5.02l1.021-67.278a4.609,4.609,0,0,0-1.376-3.29,6.564,6.564,0,0,0-4.652-1.863l-154.336-.875Z" transform="translate(-1854.02 -1501.966)" fill="#c4c4c4"/>
          </g>
          <g id="Group_7002" data-name="Group 7002" transform="translate(50.824 27.655)">
            <path id="Path_9506" data-name="Path 9506" d="M2034.411,1658.97v3.02l-14.737,30.829h-4.738l14.686-29.944v-.1H2013.06v-3.8Z" transform="translate(-2013.06 -1658.394)" fill="#4e4e4e"/>
            <path id="Path_9507" data-name="Path 9507" d="M2191.377,1692.819V1683.6H2175.65v-3.02l15.1-21.612h4.947v21.038h4.738v3.594H2195.7v9.217Zm0-12.811v-11.3q0-2.656.157-5.312h-.157c-1.042,1.979-1.875,3.437-2.812,5l-8.279,11.509v.1Z" transform="translate(-2151.122 -1658.394)" fill="#4e4e4e"/>
            <path id="Path_9508" data-name="Path 9508" d="M2364.593,1686.346a19.078,19.078,0,0,0,3.7-.157,12.782,12.782,0,0,0,7.083-3.281,14.862,14.862,0,0,0,4.479-9.009h-.157a9.934,9.934,0,0,1-7.967,3.645c-6.093,0-10-4.583-10-10.364,0-6.405,4.634-12.029,11.561-12.029s11.2,5.624,11.2,14.269c0,7.446-2.5,12.654-5.832,15.884a16.927,16.927,0,0,1-9.842,4.53,21.369,21.369,0,0,1-4.218.261v-3.749Zm1.667-19.476c0,4.218,2.551,7.187,6.509,7.187a7.578,7.578,0,0,0,6.667-3.541,3.02,3.02,0,0,0,.417-1.667c0-5.781-2.135-10.207-6.926-10.207C2369.019,1658.642,2366.26,1662.079,2366.26,1666.87Z" transform="translate(-2309.131 -1655.15)" fill="#4e4e4e"/>
            <path id="Path_9509" data-name="Path 9509" d="M2540.2,1689.6v-2.812l3.593-3.49c8.644-8.228,12.55-12.6,12.6-17.706,0-3.437-1.667-6.614-6.718-6.614a11.532,11.532,0,0,0-7.187,2.865l-1.458-3.228a14.852,14.852,0,0,1,9.583-3.437c7.291,0,10.362,5,10.362,9.842,0,6.249-4.53,11.3-11.666,18.175l-2.708,2.5v.1h15.206v3.8H2540.2Z" transform="translate(-2460.678 -1655.175)" fill="#4e4e4e"/>
            <path id="Path_9510" data-name="Path 9510" d="M2722.667,1692.819V1683.6H2706.94v-3.02l15.1-21.612h4.947v21.038h4.738v3.594h-4.738v9.217Zm0-12.811v-11.3q0-2.656.157-5.312h-.157c-1.041,1.979-1.875,3.437-2.812,5l-8.281,11.509v.1Z" transform="translate(-2602.264 -1658.394)" fill="#4e4e4e"/>
          </g>
        </g>
        <g id="Group_7006" data-name="Group 7006" transform="translate(178.138 256.002)">
          <g id="Group_7004" data-name="Group 7004" transform="translate(1.686)">
            <path id="Path_9511" data-name="Path 9511" d="M1838.206,2375.77c-6.453,7.015-5.642,20.767,1.592,31.485.3.431.626.858.956,1.276q9.174,11.545,18.349,23.087c6.959,8.75,11.443,18.646,18.4,27.394.585.736,3.939.031,4.877.066a3.228,3.228,0,0,0,2.486-1.032q18.788-20.266,37.433-40.383a3.229,3.229,0,0,0-.51-4.831q-10.7-7.512-21.37-15.055-15.134-10.7-30.214-21.453c-.428-.309-.867-.6-1.311-.879C1857.958,2368.847,1844.619,2368.788,1838.206,2375.77Z" transform="translate(-1797.419 -2338.684)" fill="#7b7b7b"/>
            <path id="Path_9512" data-name="Path 9512" d="M1592.6,2160.056c-.8.845,2.346,2.734,2.69,3.845l20.919,76.373c.341,1.1,3.474.324,4.6.578a3.222,3.222,0,0,0,3.081-.963l51.611-56.1a3.221,3.221,0,0,0-1.592-5.307l-74.76-18.656C1598.019,2159.54,1593.4,2159.209,1592.6,2160.056Z" transform="translate(-1592.47 -2159.515)" fill="#7b7b7b"/>
          </g>
          <g id="Group_7005" data-name="Group 7005" transform="translate(0 0.21)">
            <path id="Path_9513" data-name="Path 9513" d="M1809.316,2375.768c-6.454,7.015-5.642,20.767,1.592,31.485.3.431.626.859.956,1.276q9.174,11.545,18.349,23.087,10.439,13.125,20.88,26.246a3.224,3.224,0,0,0,4.888.181q18.788-20.266,37.433-40.383a3.226,3.226,0,0,0-.508-4.83q-10.7-7.513-21.37-15.056-15.134-10.7-30.214-21.453c-.428-.309-.867-.6-1.311-.88C1829.068,2368.846,1815.727,2368.787,1809.316,2375.768Z" transform="translate(-1771.201 -2338.893)" fill="#7b7b7b"/>
            <path id="Path_9514" data-name="Path 9514" d="M1582.177,2161.916a3.224,3.224,0,0,0-.738,3.168l23.149,74.759a3.223,3.223,0,0,0,5.451,1.228l51.611-56.1a3.222,3.222,0,0,0-1.591-5.307L1585.3,2161A3.225,3.225,0,0,0,1582.177,2161.916Z" transform="translate(-1581.295 -2160.908)" fill="#7b7b7b"/>
          </g>
        </g>
      </g>
    </g>
  </g>
</svg>
