<svg xmlns="http://www.w3.org/2000/svg" width="43" height="43" viewBox="0 0 43 43">
  <g id="Enable_asset_recovery_" data-name="Enable asset recovery " transform="translate(0.5 0.5)">
    <path id="Path_9115" data-name="Path 9115" d="M197.49,2.461a18.533,18.533,0,0,1,14.766,7.383h-3.643V12.3h7.159V4.922H213.31V7.235A20.947,20.947,0,0,0,192.261.659l.613,2.383a18.526,18.526,0,0,1,4.615-.581Z" transform="translate(-176.49 0)" fill="#fff" stroke="#000" stroke-width="1"/>
    <path id="Path_9116" data-name="Path 9116" d="M374.3,197.49a20.985,20.985,0,0,0-.659-5.229l-2.383.614a18.487,18.487,0,0,1-6.8,19.381V208.6H362v7.163h7.383V213.3h-2.307A20.876,20.876,0,0,0,374.3,197.49Z" transform="translate(-332.305 -176.49)" fill="#fff" stroke="#000" stroke-width="1"/>
    <path id="Path_9117" data-name="Path 9117" d="M51.331,371.844a18.533,18.533,0,0,1-14.766-7.383h3.648V362H33.041v7.383H35.5V367.06a20.948,20.948,0,0,0,21.057,6.586l-.614-2.383A18.528,18.528,0,0,1,51.331,371.844Z" transform="translate(-30.331 -332.305)" fill="#fff" stroke="#000" stroke-width="1"/>
    <path id="Path_9118" data-name="Path 9118" d="M2.461,51.317A18.533,18.533,0,0,1,9.844,36.551V40.2H12.3V33.026H4.922v2.461H7.246A20.947,20.947,0,0,0,.659,56.545l2.383-.614a18.525,18.525,0,0,1-.581-4.615Z" transform="translate(0 -30.317)" fill="#fff" stroke="#000" stroke-width="1"/>
    <path id="Path_9119" data-name="Path 9119" d="M136.6,132.766a7.319,7.319,0,0,0,0-1.383l2.856-1.649-3.691-6.394L132.886,125a8.518,8.518,0,0,0-1.172-.68V121h-7.383v3.324a8.518,8.518,0,0,0-1.172.68l-2.881-1.663-3.691,6.394,2.856,1.649a7.318,7.318,0,0,0,0,1.383l-2.856,1.649,3.691,6.394,2.881-1.663a8.518,8.518,0,0,0,1.172.68v3.324h7.383v-3.324a8.519,8.519,0,0,0,1.172-.68l2.881,1.663,3.691-6.394Zm-2.543-1.811a5.519,5.519,0,0,1,0,2.239l-.158.854,2.195,1.267-1.23,2.131-2.214-1.278-.661.564a6.1,6.1,0,0,1-1.92,1.113l-.818.291v2.551h-2.461v-2.551l-.818-.291a6.1,6.1,0,0,1-1.92-1.113l-.661-.564-2.214,1.278-1.23-2.131,2.195-1.267-.158-.854a5.519,5.519,0,0,1,0-2.239l.158-.854-2.195-1.267,1.23-2.131,2.214,1.278.661-.564a6.1,6.1,0,0,1,1.92-1.113l.818-.291v-2.551h2.461v2.551l.818.291a6.1,6.1,0,0,1,1.92,1.113l.661.564,2.214-1.278,1.23,2.131L133.9,130.1Z" transform="translate(-107.022 -111.074)" fill="#fff" stroke="#000" stroke-width="1"/>
    <path id="Path_9120" data-name="Path 9120" d="M214.691,211a3.691,3.691,0,1,0,3.691,3.691A3.7,3.7,0,0,0,214.691,211Zm0,4.922a1.23,1.23,0,1,1,1.23-1.23A1.232,1.232,0,0,1,214.691,215.922Z" transform="translate(-193.691 -193.691)" fill="#fff" stroke="#000" stroke-width="1"/>
  </g>
</svg>
