<svg xmlns="http://www.w3.org/2000/svg" width="43.016" height="43" viewBox="0 0 43.016 43">
  <g id="Enhance_data_protection" data-name="Enhance data protection" transform="translate(0.5 0.5)">
    <path id="Path_9128" data-name="Path 9128" d="M59.375,422.709h8.183v2.461H59.375Z" transform="translate(-54.504 -388.042)" fill="#fff" stroke="#000" stroke-width="1"/>
    <path id="Path_9129" data-name="Path 9129" d="M249.132,422.709h2.714v2.461h-2.714Z" transform="translate(-228.695 -388.042)" fill="#fff" stroke="#000" stroke-width="1"/>
    <path id="Path_9130" data-name="Path 9130" d="M189.132,422.709h2.714v2.461h-2.714Z" transform="translate(-173.617 -388.042)" fill="#fff" stroke="#000" stroke-width="1"/>
    <path id="Path_9131" data-name="Path 9131" d="M59.375,303.2h8.183v2.461H59.375Z" transform="translate(-54.504 -278.335)" fill="#fff" stroke="#000" stroke-width="1"/>
    <path id="Path_9132" data-name="Path 9132" d="M249.132,303.2h2.714v2.461h-2.714Z" transform="translate(-228.695 -278.335)" fill="#fff" stroke="#000" stroke-width="1"/>
    <path id="Path_9133" data-name="Path 9133" d="M189.132,303.2h2.714v2.461h-2.714Z" transform="translate(-173.617 -278.335)" fill="#fff" stroke="#000" stroke-width="1"/>
    <path id="Path_9134" data-name="Path 9134" d="M59.375,183.686h8.183v2.461H59.375Z" transform="translate(-54.504 -168.626)" fill="#fff" stroke="#000" stroke-width="1"/>
    <path id="Path_9135" data-name="Path 9135" d="M189.132,183.686h2.714v2.461h-2.714Z" transform="translate(-173.617 -168.626)" fill="#fff" stroke="#000" stroke-width="1"/>
    <path id="Path_9136" data-name="Path 9136" d="M29.951.1A12.084,12.084,0,0,0,18.043,10.228H0V42.1H28.17v-18A12.065,12.065,0,1,0,29.951.1ZM2.461,12.689H17.9a12.012,12.012,0,0,0,2.913,7.343H2.461Zm23.248,26.95H2.461V32.3H25.709Zm0-9.8H2.461V22.493H23.72a12.021,12.021,0,0,0,1.989.967Zm4.242-8.066a9.6,9.6,0,1,1,9.6-9.6A9.615,9.615,0,0,1,29.951,21.769Z" transform="translate(0 -0.1)" fill="#fff" stroke="#000" stroke-width="1"/>
    <path id="Path_9137" data-name="Path 9137" d="M305.8,63.376a3.521,3.521,0,0,0-7.042,0v1.8h-2.094v7.383H307.9V65.18H305.8Zm-4.581,0a1.06,1.06,0,0,1,2.12,0v1.8h-2.12Zm4.215,6.726h-6.309V67.641h6.309Z" transform="translate(-272.331 -54.953)" fill="#fff" stroke="#000" stroke-width="1"/>
  </g>
</svg>
