<svg id="Ensure_regulatory_compliance_" data-name="Ensure regulatory compliance " xmlns="http://www.w3.org/2000/svg" width="36.4" height="42" viewBox="0 0 36.4 42">
  <path id="Path_9101" data-name="Path 9101" d="M33.4,3.5A3.466,3.466,0,0,0,29.9,0H4A3.466,3.466,0,0,0,.5,3.5V9.1H6.1V38.5A3.466,3.466,0,0,0,9.6,42H33.4a3.466,3.466,0,0,0,3.5-3.5V35H33.4ZM6.1,7.7H1.9V3.5A2.062,2.062,0,0,1,4,1.4,2.062,2.062,0,0,1,6.1,3.5ZM7.5,38.5V3.5a3.771,3.771,0,0,0-.7-2.1H29.9A2.062,2.062,0,0,1,32,3.5V35H11.7v3.5a2.1,2.1,0,0,1-4.2,0Zm28-2.1v2.1a2.062,2.062,0,0,1-2.1,2.1h-21a3.3,3.3,0,0,0,.7-2.1V36.4Zm0,0" transform="translate(-0.5)" fill="#fff"/>
  <path id="Path_9102" data-name="Path 9102" d="M280.5,256h5.6v1.4h-5.6Zm0,0" transform="translate(-256 -233.6)" fill="#fff"/>
  <path id="Path_9103" data-name="Path 9103" d="M96.5,256h14.7v1.4H96.5Zm0,0" transform="translate(-88.1 -233.6)" fill="#fff"/>
  <path id="Path_9104" data-name="Path 9104" d="M184.5,288h14v1.4h-14Zm0,0" transform="translate(-168.4 -262.8)" fill="#fff"/>
  <path id="Path_9105" data-name="Path 9105" d="M96.5,288h6.3v1.4H96.5Zm0,0" transform="translate(-88.1 -262.8)" fill="#fff"/>
  <path id="Path_9106" data-name="Path 9106" d="M240.5,352h9.1v1.4h-9.1Zm0,0" transform="translate(-219.5 -321.2)" fill="#fff"/>
  <path id="Path_9107" data-name="Path 9107" d="M96.5,352h11.2v1.4H96.5Zm0,0" transform="translate(-88.1 -321.2)" fill="#fff"/>
  <path id="Path_9108" data-name="Path 9108" d="M164.559,43.48l.84.56.84-.56a9.149,9.149,0,0,0,4.06-7.56V33.61L165.4,32l-4.9,1.61v2.31a9.149,9.149,0,0,0,4.06,7.56Zm-2.66-8.89,3.5-1.19,3.5,1.19v1.33a7.725,7.725,0,0,1-3.43,6.44h-.07l-.07-.07a7.635,7.635,0,0,1-3.43-6.44Zm0,0" transform="translate(-146.5 -29.2)" fill="#fff"/>
  <path id="Path_9109" data-name="Path 9109" d="M207.65,79.339l-1.4-.14a4.339,4.339,0,0,1-1.75,3.01l.77,1.19A5.74,5.74,0,0,0,207.65,79.339Zm0,0" transform="translate(-186.65 -72.269)" fill="#fff"/>
  <path id="Path_9110" data-name="Path 9110" d="M144.5,320H162v1.4H144.5Zm0,0" transform="translate(-131.9 -292)" fill="#fff"/>
  <path id="Path_9111" data-name="Path 9111" d="M96.5,320h2.8v1.4H96.5Zm0,0" transform="translate(-88.1 -292)" fill="#fff"/>
  <path id="Path_9112" data-name="Path 9112" d="M184.5,224h14v1.4h-14Zm0,0" transform="translate(-168.4 -204.4)" fill="#fff"/>
  <path id="Path_9113" data-name="Path 9113" d="M96.5,224h6.3v1.4H96.5Zm0,0" transform="translate(-88.1 -204.4)" fill="#fff"/>
  <path id="Path_9114" data-name="Path 9114" d="M160.5,184h9.8v1.4h-9.8Zm0,0" transform="translate(-146.5 -167.9)" fill="#fff"/>
</svg>
