<svg id="Forecast_spending_and_budgets_" data-name="Forecast spending and budgets " xmlns="http://www.w3.org/2000/svg" width="48.065" height="42" viewBox="0 0 48.065 42">
  <path id="Path_9121" data-name="Path 9121" d="M35.607,51.359h-11.6a.687.687,0,0,1,0-1.373h11.6a1.794,1.794,0,0,0,1.276-.523c.031-.031.057-.06.082-.089a.661.661,0,0,1,.045-.06,1.785,1.785,0,0,0,.412-1.145,1.819,1.819,0,0,0-1.817-1.817H29.123a.687.687,0,0,1-.508-.225,9.235,9.235,0,0,0-6.823-3.016H13.461a.687.687,0,0,1,0-1.373h8.334a10.614,10.614,0,0,1,7.629,3.241h6.184a3.194,3.194,0,0,1,3.19,3.188,3.158,3.158,0,0,1-.682,1.962.637.637,0,0,1-.058.08c-.069.077-.128.147-.2.218A3.17,3.17,0,0,1,35.607,51.359Z" transform="translate(-5.376 -17.482)" fill="#fff"/>
  <path id="Path_9122" data-name="Path 9122" d="M29.781,61.37a14.556,14.556,0,0,1-4.962-.869L13.227,56.292A.687.687,0,1,1,13.7,55l11.594,4.21A13.288,13.288,0,0,0,35.8,58.558l15.73-8.034A6.369,6.369,0,0,0,45.4,49.508l-7.544,2.747a.671.671,0,0,1-.32.081.687.687,0,0,1-.472-1.192A.672.672,0,0,1,37.3,51l7.631-2.778a7.746,7.746,0,0,1,7.622,1.373l.648.562a.687.687,0,0,1-.137,1.13l-16.641,8.5A14.665,14.665,0,0,1,29.781,61.37Z" transform="translate(-5.376 -19.37)" fill="#fff"/>
  <path id="Path_9123" data-name="Path 9123" d="M10.082,55.565h-7.4A.687.687,0,0,1,2,54.878V39.927a.687.687,0,0,1,.687-.687h7.4a.687.687,0,0,1,.687.687V54.878A.687.687,0,0,1,10.082,55.565ZM3.373,54.191H9.4V40.613H3.373Z" transform="translate(-2 -16.7)" fill="#fff"/>
  <path id="Path_9124" data-name="Path 9124" d="M40.912,30.9A12.245,12.245,0,1,1,53.157,18.659,12.245,12.245,0,0,1,40.912,30.9Zm0-23.118A10.872,10.872,0,1,0,51.784,18.659,10.872,10.872,0,0,0,40.912,7.787Z" transform="translate(-10.356 -6.414)" fill="#fff"/>
  <path id="Path_9125" data-name="Path 9125" d="M44.836,21.811a3.766,3.766,0,1,1,3.884-3.764.687.687,0,1,1-1.373,0,2.514,2.514,0,1,0-2.51,2.39.687.687,0,1,1,0,1.373Z" transform="translate(-14.279 -8.879)" fill="#fff"/>
  <path id="Path_9126" data-name="Path 9126" d="M44.728,30.772a3.829,3.829,0,0,1-3.884-3.764.687.687,0,1,1,1.373,0,2.514,2.514,0,1,0,2.51-2.39.687.687,0,1,1,0-1.373,3.766,3.766,0,1,1,0,7.527Z" transform="translate(-14.172 -11.688)" fill="#fff"/>
  <path id="Path_9127" data-name="Path 9127" d="M46.187,28.592A.687.687,0,0,1,45.5,27.9V13.287a.687.687,0,0,1,1.373,0V27.9A.687.687,0,0,1,46.187,28.592Z" transform="translate(-15.63 -8.352)" fill="#fff"/>
</svg>
