<svg xmlns="http://www.w3.org/2000/svg" xmlns:xlink="http://www.w3.org/1999/xlink" width="413.394" height="409.476" viewBox="0 0 413.394 409.476">
  <defs>
    <clipPath id="clip-path">
      <path id="Path_9521" data-name="Path 9521" d="M1745.13,1010.131c13.146-10.618,30.752-28.142,40.058-54.077,12.2-34.014-.592-52.612,5.368-111.291,3.769-37.1,6.773-62.958,26.547-75.437,15.495-9.779,39.435-10.172,53.117.976,11.376,9.27,16.994,27.605,18.166,40.483.957,10.494-.99,17.918,4.579,23.824,5.692,6.035,12.52,3.366,17.922,7.923,10.957,9.244,2.188,36.511.771,40.919-15.765,49.023-64.265,79.271-85.578,92.212A312.073,312.073,0,0,1,1745.13,1010.131Z" transform="translate(-1745.13 -761.965)" opacity="0.7"/>
    </clipPath>
    <clipPath id="clip-path-2">
      <path id="Path_9526" data-name="Path 9526" d="M2099.77,1582.048c31.725-1.629,71.908-8.232,109.611-28,9.622-5.045,69.062-36.206,60.235-63.589-3.109-9.646-12.063-10.676-16.446-23.5-5.194-15.2,4.055-23.474,9.657-43.115,3.342-11.719,13.125-46.016-8.1-63.456-12.68-10.422-35.859-14.352-53.032-9.276-25.189,7.447-32.523,32.813-44.189,75.95-10.341,38.238-6.589,47.258-14.517,74.664C2137.109,1522.063,2125.444,1550.273,2099.77,1582.048Z" transform="translate(-2099.77 -1348.908)" opacity="0.7"/>
    </clipPath>
    <linearGradient id="linear-gradient" x1="0.726" y1="0.153" x2="0.178" y2="1.179" gradientUnits="objectBoundingBox">
      <stop offset="0" stop-color="#fff"/>
      <stop offset="0.996" stop-color="#ebeff2"/>
    </linearGradient>
    <linearGradient id="linear-gradient-2" x1="-1.256" y1="0.358" x2="1.441" y2="0.546" gradientUnits="objectBoundingBox">
      <stop offset="0" stop-color="#d8dee8"/>
      <stop offset="1" stop-color="#fff"/>
    </linearGradient>
    <linearGradient id="linear-gradient-3" x1="-308.201" y1="-1.123" x2="-309.207" y2="-1.123" gradientUnits="objectBoundingBox">
      <stop offset="0" stop-color="#febbba"/>
      <stop offset="1" stop-color="#ff928e"/>
    </linearGradient>
    <linearGradient id="linear-gradient-4" x1="-359.558" y1="-0.714" x2="-360.573" y2="-0.714" xlink:href="#linear-gradient-3"/>
    <linearGradient id="linear-gradient-5" x1="-58.659" y1="0.214" x2="-59.653" y2="0.214" xlink:href="#linear-gradient-3"/>
    <linearGradient id="linear-gradient-6" x1="72.512" y1="1.008" x2="70.532" y2="3.691" xlink:href="#linear-gradient-3"/>
    <linearGradient id="linear-gradient-7" x1="-428.508" y1="-0.692" x2="-430.51" y2="-2.472" xlink:href="#linear-gradient-3"/>
    <linearGradient id="linear-gradient-8" x1="-46.543" y1="0.024" x2="-47.545" y2="0.024" xlink:href="#linear-gradient-3"/>
    <linearGradient id="linear-gradient-9" x1="-117.918" y1="-0.089" x2="-118.909" y2="-0.089" xlink:href="#linear-gradient-3"/>
    <linearGradient id="linear-gradient-10" x1="-29.853" y1="48.357" x2="-29.529" y2="47.291" xlink:href="#linear-gradient-3"/>
    <linearGradient id="linear-gradient-11" x1="-98.166" y1="230.254" x2="-97.219" y2="225.641" xlink:href="#linear-gradient-3"/>
    <linearGradient id="linear-gradient-12" x1="-147.391" y1="0.5" x2="-148.391" y2="0.5" xlink:href="#linear-gradient-3"/>
  </defs>
  <g id="Lower_Procurement_" data-name="Lower Procurement " transform="translate(-48.312 -46.683)">
    <g id="Illustration" transform="translate(48.312 46.683)">
      <g id="Group_7075" data-name="Group 7075" transform="translate(0 0)">
        <path id="Path_9515" data-name="Path 9515" d="M819.041,571.934c-86.082-105.072-289.88-110.945-349.806-27.607-33.018,45.918-19.221,114.56-12.413,148.427,12.528,62.324,43.421,102.449,50.166,110.959,16.368,20.652,56.126,70.815,115.944,82.281,102.211,19.593,229.745-80.161,236.81-192.707C863.816,628.4,826.484,581.019,819.041,571.934Z" transform="translate(-448.09 -478.994)" fill="#f3f3f3"/>
        <g id="Group_7016" data-name="Group 7016" transform="translate(190.555 48.333)">
          <g id="Group_7012" data-name="Group 7012">
            <g id="Group_7011" data-name="Group 7011" opacity="0.7">
              <path id="Path_9516" data-name="Path 9516" d="M1745.13,1010.131c13.146-10.618,30.752-28.142,40.058-54.077,12.2-34.014-.592-52.612,5.368-111.291,3.769-37.1,6.773-62.958,26.547-75.437,15.495-9.779,39.435-10.172,53.117.976,11.376,9.27,16.994,27.605,18.166,40.483.957,10.494-.99,17.918,4.579,23.824,5.692,6.035,12.52,3.366,17.922,7.923,10.957,9.244,2.188,36.511.771,40.919-15.765,49.023-64.265,79.271-85.578,92.212A312.073,312.073,0,0,1,1745.13,1010.131Z" transform="translate(-1745.13 -761.965)" fill="#b7b7b7" opacity="0.7"/>
              <g id="Group_7010" data-name="Group 7010" clip-path="url(#clip-path)">
                <path id="Path_9517" data-name="Path 9517" d="M1643.2,943.012l-.286-.964c38.593-11.473,87.51-34.1,101.379-76.765,5.1-15.689,4.943-32.346,4.726-55.4a311.277,311.277,0,0,0-3.529-42.926c-2.056-15.019-3.679-26.883-.685-43.7,3.04-17.064,9.978-33.735,20.625-49.55l.833.561c-10.568,15.7-17.455,32.24-20.47,49.165-2.966,16.659-1.353,28.452.69,43.384a311.967,311.967,0,0,1,3.538,43.052c.21,22.278.375,39.876-4.776,55.721-6.586,20.261-21.758,37.966-45.093,52.625C1684.389,928.12,1665.227,936.462,1643.2,943.012Z" transform="translate(-1657.928 -686.676)" fill="#fff"/>
                <path id="Path_9518" data-name="Path 9518" d="M2108.247,1023.931l-.5-.265a87.461,87.461,0,0,1-23.12-19.779c-10.366-12.386-22.4-33.557-20.856-64.067l1,.05c-1.527,30.166,10.358,51.094,20.6,63.338a88.337,88.337,0,0,0,22.349,19.291c12.451-32.36,31.759-51.793,45.8-62.414,15.315-11.581,27.872-15.482,28-15.52l.292.961c-.123.038-12.543,3.9-27.721,15.39-14,10.6-33.29,30.043-45.639,62.484Z" transform="translate(-2016.841 -913.69)" fill="#fff"/>
                <path id="Path_9519" data-name="Path 9519" d="M1921,1290.675l-.184-.316a253.177,253.177,0,0,0-25.211-34.973c-14.3-16.281-50.025-24.223-50.385-24.3l.214-.981c.363.079,36.41,8.094,50.926,24.62a254.427,254.427,0,0,1,25.138,34.814c15.97-3.618,35.892-21.152,57.644-50.739a443.746,443.746,0,0,0,28.635-44.6l.883.481a445.292,445.292,0,0,1-28.709,44.714c-22.377,30.437-42.091,47.664-58.6,51.2Z" transform="translate(-1830.515 -1130.698)" fill="#fff"/>
                <path id="Path_9520" data-name="Path 9520" d="M1960.243,1855.555l-.832-.564c10.944-16.117,10.994-33.883.151-52.8a96.075,96.075,0,0,0-19.713-23.738l.637-.778a97.238,97.238,0,0,1,19.948,24.017C1968.033,1814.944,1974.167,1835.051,1960.243,1855.555Z" transform="translate(-1911.243 -1628.447)" fill="#fff"/>
              </g>
            </g>
          </g>
          <g id="Group_7015" data-name="Group 7015" transform="translate(52.102 86.231)">
            <g id="Group_7014" data-name="Group 7014" opacity="0.7">
              <path id="Path_9522" data-name="Path 9522" d="M2099.77,1582.048c31.725-1.629,71.908-8.232,109.611-28,9.622-5.045,69.062-36.206,60.235-63.589-3.109-9.646-12.063-10.676-16.446-23.5-5.194-15.2,4.055-23.474,9.657-43.115,3.342-11.719,13.125-46.016-8.1-63.456-12.68-10.422-35.859-14.352-53.032-9.276-25.189,7.447-32.523,32.813-44.189,75.95-10.341,38.238-6.589,47.258-14.517,74.664C2137.109,1522.063,2125.444,1550.273,2099.77,1582.048Z" transform="translate(-2099.77 -1348.908)" fill="#9f9f9f" opacity="0.7"/>
              <g id="Group_7013" data-name="Group 7013" clip-path="url(#clip-path-2)">
                <path id="Path_9523" data-name="Path 9523" d="M1223.7,1410.926a223.352,223.352,0,0,1-44.877-4.685l.241-1.172c35.267,7.227,69.106,6.044,100.577-3.513,112.6-34.2,146.519-166.282,154.23-205.949,4.378-22.518,1.856-47.02-7.5-72.827l1.125-.409c9.428,26.014,11.966,50.731,7.547,73.464-6.342,32.625-20.025,80.674-49.186,124.3-28.054,41.971-63.673,69.75-105.872,82.564A192.888,192.888,0,0,1,1223.7,1410.926Z" transform="translate(-1314.122 -1155.652)" fill="#fff"/>
                <path id="Path_9524" data-name="Path 9524" d="M2618.7,1399.633l-.363-.4a130.555,130.555,0,0,1-17.806-27.177c-7.549-15.248-15.451-38.842-10.229-64.64l1.173.238c-5.153,25.455,2.655,48.767,10.112,63.841a131.866,131.866,0,0,0,17.279,26.53c64.779-47.686,61.2-97.709,58.547-111.93a6.517,6.517,0,0,1-.115-.7l1.194-.065c.007.081.043.265.1.548,2.687,14.427,6.342,65.244-59.457,113.438Z" transform="translate(-2516.798 -1294.671)" fill="#fff"/>
                <path id="Path_9525" data-name="Path 9525" d="M2486.7,1622.852c-5.162,0-10.594-.232-16.315-.736l-.319-.028-.154-.281c-.206-.376-20.582-38.217-19.682-91.334l.906-53.573,1.2.021-.906,53.573c-.853,50.4,17.533,86.914,19.387,90.459,41.349,3.574,67.683-7.167,82.506-16.822,16.1-10.484,22.468-21.984,22.53-22.1l1.052.572c-.063.118-6.542,11.837-22.862,22.487C2541.066,1613.558,2519.371,1622.852,2486.7,1622.852Z" transform="translate(-2398.719 -1458.096)" fill="#fff"/>
              </g>
            </g>
          </g>
        </g>
        <g id="Group_7019" data-name="Group 7019" transform="translate(9.661 185.764)">
          <g id="Group_7018" data-name="Group 7018">
            <path id="Path_9527" data-name="Path 9527" d="M906.563,2934.884l-367.7-3.134v9.273a4.938,4.938,0,0,0,3.776,5.039l103.975,18.262a14.575,14.575,0,0,0,3.73.172l252.226-20.821a4.707,4.707,0,0,0,4-4.919Z" transform="translate(-535.186 -2750.406)" fill="#8a8a8a"/>
            <g id="Group_7017" data-name="Group 7017">
              <path id="Path_9528" data-name="Path 9528" d="M751.788,1867.035,521.327,1884a6.985,6.985,0,0,1-7.477-7.206V1705.176a7.623,7.623,0,0,1,7.477-7.756H751.79c3.4,0,6.144,3.139,6.144,7.011v155.14C757.934,1863.443,755.187,1866.784,751.788,1867.035Z" transform="translate(-513.85 -1697.419)" fill="#4a4a4a"/>
              <path id="Path_9529" data-name="Path 9529" d="M776.8,1867.035,546.337,1884a6.985,6.985,0,0,1-7.477-7.206V1705.176a7.623,7.623,0,0,1,7.477-7.756H776.8c3.4,0,6.144,3.139,6.144,7.011v155.14C782.944,1863.443,780.2,1866.784,776.8,1867.035Z" transform="translate(-535.186 -1697.419)" fill="#171717"/>
              <path id="Path_9530" data-name="Path 9530" d="M827.826,1913.945l-214.652,14.736a5.727,5.727,0,0,1-6.084-5.915V1772.514a6.246,6.246,0,0,1,6.084-6.358l214.652-.926c2.8-.012,5.07,2.561,5.07,5.746v136.853C832.9,1911.014,830.628,1913.753,827.826,1913.945Z" transform="translate(-593.392 -1755.266)" fill="#777"/>
              <path id="Path_9531" data-name="Path 9531" d="M1398.677,1712.605a2.663,2.663,0,1,1-2.651-2.885A2.787,2.787,0,0,1,1398.677,1712.605Z" transform="translate(-1264.155 -1707.912)" fill="#fff"/>
              <path id="Path_9532" data-name="Path 9532" d="M546.335,1883.991l229.3-16.879,1.166-.085a6.189,6.189,0,0,0,4.059-2.054c-16.5-.9-26.749-6.758-33.36-12.809-13.277-12.151-10.973-24.132-25.292-32.122-17.858-9.964-31.9,2.662-45.45-9.8-8.215-7.553-4.183-13.184-14.29-24.472-11.2-12.5-18.486-8.3-29.739-19.55-14.227-14.226-7.112-25.295-19.366-35.508-14.868-12.391-30.9-.923-45.055-12.805-6.1-5.126-9.454-12.576-11.2-20.5H546.336a7.624,7.624,0,0,0-7.477,7.755v171.619A6.985,6.985,0,0,0,546.335,1883.991Z" transform="translate(-535.185 -1697.41)" fill="#fff" opacity="0.48"/>
            </g>
            <path id="Path_9533" data-name="Path 9533" d="M785.985,2845.233,538.86,2863.09l107.751,18.924a14.564,14.564,0,0,0,3.73.172l256.222-21.152-116.646-15.681A19.214,19.214,0,0,0,785.985,2845.233Z" transform="translate(-535.186 -2676.558)" fill="#9d9d9d"/>
            <path id="Path_9534" data-name="Path 9534" d="M784.3,2880.5l205.739-15.09,63.675,8.492L849.746,2890.03Z" transform="translate(-744.567 -2693.813)" fill="#6d6d6d"/>
          </g>
        </g>
        <g id="Group_7030" data-name="Group 7030" transform="translate(30.535 82.819)">
          <path id="Path_9535" data-name="Path 9535" d="M906.6,1223.14c0,18.987-15.488,35.362-34.862,36.592l-215.808,13.7h0c22.82-1.448,41.041-19.3,41.041-39.886V996.7l209.629,8.02Z" transform="translate(-655.93 -996.7)" fill="url(#linear-gradient)"/>
          <g id="Group_7020" data-name="Group 7020" transform="translate(60.379 131.583)">
            <path id="Path_9536" data-name="Path 9536" d="M1319.143,1898.45,1156.96,1900.7v-6.507l162.183-1.851Z" transform="translate(-1143.73 -1892.34)" fill="#ccc"/>
            <path id="Path_9537" data-name="Path 9537" d="M1066.91,1912.015l7.344-.1v-6.523l-7.344.084Z" transform="translate(-1066.91 -1903.473)" fill="#ccc"/>
          </g>
          <g id="Group_7021" data-name="Group 7021" transform="translate(60.379 141.674)">
            <path id="Path_9538" data-name="Path 9538" d="M1319.143,1967.132l-162.183,2.9v-6.508l162.183-2.507Z" transform="translate(-1143.73 -1961.02)" fill="#ccc"/>
            <path id="Path_9539" data-name="Path 9539" d="M1066.91,1985.354l7.344-.132V1978.7l-7.344.113Z" transform="translate(-1066.91 -1976.102)" fill="#ccc"/>
          </g>
          <g id="Group_7022" data-name="Group 7022" transform="translate(60.379 151.764)">
            <path id="Path_9540" data-name="Path 9540" d="M1319.143,2035.812l-162.183,3.558v-6.509l162.183-3.161Z" transform="translate(-1143.73 -2029.7)" fill="#ccc"/>
            <path id="Path_9541" data-name="Path 9541" d="M1066.91,2058.683l7.344-.16V2052l-7.344.144Z" transform="translate(-1066.91 -2048.724)" fill="#ccc"/>
          </g>
          <g id="Group_7023" data-name="Group 7023" transform="translate(60.379 161.855)">
            <path id="Path_9542" data-name="Path 9542" d="M1319.143,2104.5l-162.183,4.214v-6.509l162.183-3.815Z" transform="translate(-1143.73 -2098.39)" fill="#ccc"/>
            <path id="Path_9543" data-name="Path 9543" d="M1066.91,2132.023l7.344-.192v-6.521l-7.344.172Z" transform="translate(-1066.91 -2121.355)" fill="#ccc"/>
          </g>
          <g id="Group_7024" data-name="Group 7024" transform="translate(60.379 182.036)">
            <path id="Path_9544" data-name="Path 9544" d="M1242.323,2241.861l-175.413,5.974v-6.541l175.413-5.544Z" transform="translate(-1066.91 -2235.75)" fill="#ccc"/>
          </g>
          <g id="Group_7025" data-name="Group 7025" transform="translate(60.379 192.127)">
            <path id="Path_9545" data-name="Path 9545" d="M1242.323,2310.55l-175.413,6.683v-6.541l175.413-6.253Z" transform="translate(-1066.91 -2304.44)" fill="#ccc"/>
          </g>
          <g id="Group_7026" data-name="Group 7026" transform="translate(60.379 202.217)">
            <path id="Path_9546" data-name="Path 9546" d="M1242.323,2379.232l-175.413,7.39v-6.539l175.413-6.962Z" transform="translate(-1066.91 -2373.121)" fill="#ccc"/>
          </g>
          <g id="Group_7027" data-name="Group 7027" transform="translate(60.379 212.308)">
            <path id="Path_9547" data-name="Path 9547" d="M1242.323,2447.912l-175.413,8.1v-6.541l175.413-7.671Z" transform="translate(-1066.91 -2441.8)" fill="#ccc"/>
          </g>
          <g id="Group_7028" data-name="Group 7028" transform="translate(60.379 43.89)">
            <path id="Path_9548" data-name="Path 9548" d="M1066.91,1498.6l175.291.688v6.776H1066.91Z" transform="translate(-1066.91 -1468.753)" fill="#ccc"/>
            <path id="Path_9549" data-name="Path 9549" d="M1066.91,1420.56,1242.2,1422.3v6.776l-175.291-1.056Z" transform="translate(-1066.91 -1402.178)" fill="#ccc"/>
            <path id="Path_9550" data-name="Path 9550" d="M1066.91,1295.44l175.291,3.438v13.055l-175.291-2.113Z" transform="translate(-1066.91 -1295.44)" fill="#ccc"/>
          </g>
          <g id="Group_7029" data-name="Group 7029" transform="translate(60.379 93.999)">
            <path id="Path_9551" data-name="Path 9551" d="M1066.91,1636.935l175.291-.415v3.229l-175.291.542Z" transform="translate(-1066.91 -1636.52)" fill="#ccc"/>
            <path id="Path_9552" data-name="Path 9552" d="M1066.91,1679.118l175.291-.658v3.228l-175.291.788Z" transform="translate(-1066.91 -1672.298)" fill="#ccc"/>
            <path id="Path_9553" data-name="Path 9553" d="M1066.91,1721.3l175.291-.9v3.228l-175.291,1.033Z" transform="translate(-1066.91 -1708.077)" fill="#ccc"/>
            <path id="Path_9554" data-name="Path 9554" d="M1066.91,1763.489l175.291-1.149v3.228l-175.291,1.278Z" transform="translate(-1066.91 -1743.855)" fill="#ccc"/>
            <path id="Path_9555" data-name="Path 9555" d="M1840.48,2664.921l61.763-3.6v3.451l-61.763,3.6Z" transform="translate(-1726.831 -2510.761)" fill="#ccc"/>
          </g>
          <path id="Path_9556" data-name="Path 9556" d="M1278.253,2704.2l-61.763,3.726v-3.451l61.763-3.727Z" transform="translate(-1134.135 -2450.399)" fill="#d8dee8"/>
        </g>
        <g id="Group_7032" data-name="Group 7032" transform="translate(6.785 47.163)">
          <g id="Group_7031" data-name="Group 7031" transform="translate(0 0)">
            <circle id="Ellipse_370" data-name="Ellipse 370" cx="52.121" cy="52.121" r="52.121" transform="translate(0 73.71) rotate(-45)" fill="#fff"/>
            <circle id="Ellipse_371" data-name="Ellipse 371" cx="46.299" cy="46.299" r="46.299" transform="translate(27.413 27.412)" fill="#8a8a8a"/>
          </g>
          <path id="Path_9557" data-name="Path 9557" d="M860.711,1051.771,833.4,1030.79l-27.316,20.981a1.75,1.75,0,0,0,1.067,3.138h3.862a3.466,3.466,0,0,0-.069.693v31.328a3.465,3.465,0,0,0,3.466,3.466h37.982a3.465,3.465,0,0,0,3.466-3.466V1055.6a3.487,3.487,0,0,0-.069-.693h3.862A1.75,1.75,0,0,0,860.711,1051.771Zm-18.438,26.439H824.518v-17.756h17.755Z" transform="translate(-759.684 -990.125)" fill="#fff"/>
        </g>
        <g id="Group_7035" data-name="Group 7035" transform="translate(115.75)">
          <g id="Group_7033" data-name="Group 7033">
            <circle id="Ellipse_372" data-name="Ellipse 372" cx="52.121" cy="52.121" r="52.121" transform="translate(0 73.71) rotate(-45)" fill="#fff"/>
            <circle id="Ellipse_373" data-name="Ellipse 373" cx="46.299" cy="46.299" r="46.299" transform="translate(27.413 27.41)" fill="#8a8a8a"/>
          </g>
          <g id="Group_7034" data-name="Group 7034" transform="translate(55.244 44.944)">
            <path id="Path_9558" data-name="Path 9558" d="M1626.15,796.429v-6.345a36.851,36.851,0,0,1-14.17-3.454l2.537-10.152a33.393,33.393,0,0,0,14.1,3.524c3.738,0,6.558-.846,6.558-3.172,0-2.116-2.188-3.314-8.039-4.723-8.247-1.974-14.733-5.711-14.733-13.4,0-6.839,4.933-12.054,13.749-13.537V738.9h8.39v5.781a33.31,33.31,0,0,1,11.915,2.4l-2.468,9.8a30.44,30.44,0,0,0-12.2-2.68c-4.512,0-5.64,1.481-5.64,2.891,0,1.763,3.031,3.172,9.305,4.935,9.8,2.68,13.465,6.627,13.465,13.606,0,6.7-5.005,12.338-14.38,13.819v6.979h-8.392Z" transform="translate(-1611.98 -738.9)" fill="#fff"/>
          </g>
        </g>
        <g id="Group_7074" data-name="Group 7074" transform="translate(44.445 264.639)">
          <path id="Path_9623" data-name="Path 9623" d="M955.187,2862.207l-.22-18.237L802.63,2845.6l.219,18.08,33.168,7.417Z" transform="translate(-794.988 -2754.397)" fill="#989898"/>
          <g id="Group_7062" data-name="Group 7062" transform="translate(159.136 47.771)">
            <path id="Path_9624" data-name="Path 9624" d="M1833.79,2559.5l.026,2.28,10.146-.029-2.273-2.315Z" transform="translate(-1833.79 -2559.44)" fill="#d8dee8"/>
          </g>
          <g id="Group_7063" data-name="Group 7063" transform="translate(7.142 49.643)">
            <path id="Path_9625" data-name="Path 9625" d="M832.558,2620.815l-32.831-6.65-.507-41.906,32.752-.08Z" transform="translate(-799.22 -2572.18)" fill="url(#linear-gradient-2)"/>
          </g>
          <path id="Path_9626" data-name="Path 9626" d="M1149.3,2301.045l-7.557.237.508,42.115-75.845,5.248-31.418,2.174-12.241.848-.586-48.635,52.513-15.648,31.046-30.7Zm-21.069,38.817-.5-41.724-46.262.479L1082,2342.8l46.233-2.933Z" transform="translate(-982.265 -2253.39)" fill="#acacac"/>
          <g id="Group_7064" data-name="Group 7064" transform="translate(31.916 2.336)" opacity="0.2">
            <path id="Path_9627" data-name="Path 9627" d="M1103.728,2295.655l-43.135-44.123-1.322-1.352-1.28,1.259-30.867,30.4L975,2297.2l-7.149,2.107.015,1.1,8-.1-.009-.714,52.334-15.426,31.229-30.7,41.326,42.22Z" transform="translate(-967.85 -2250.18)" fill="#d8dee8"/>
          </g>
          <g id="Group_7065" data-name="Group 7065" transform="translate(31.888)">
            <path id="Path_9628" data-name="Path 9628" d="M1059.081,2234.28l1.322,1.353,43.657,44.611,1.127,1.15.035,2.958-.142.015-2.259-2.3-43.6-44.492-31.229,30.7-51.874,16.06-8.421,2.446-.041-3.374,7.149-2.107,52.124-15.363,30.867-30.4Z" transform="translate(-967.66 -2234.28)" fill="#fff"/>
          </g>
          <g id="Group_7066" data-name="Group 7066" transform="translate(98.48 44.085)">
            <path id="Path_9629" data-name="Path 9629" d="M1474.7,2542.85l.489,40.587-45.243,2.838-.519-42.921Zm-1.96,36.748-.411-34.073-10.879.157.417,34.542,10.873-.626Zm-13.828.8-.419-34.669-11.266.164.425,35.155,11.26-.649Zm-14.32.826-.426-35.287-11.674.169.432,35.791,11.668-.673Z" transform="translate(-1428.181 -2541.601)" fill="#fff"/>
            <path id="Path_9630" data-name="Path 9630" d="M1421.478,2580.339l-.548-45.458,47.743-.53.519,43Zm1.952-43.016.486,40.386,42.773-2.683-.018-1.509-13.275.766-.448-37.069,13.283-.192,0-.174Zm32.02,2.326.386,32.016,8.4-.485-.382-31.653Zm-30.995,36.3-.463-38.318,14.145-.2.456,37.708Zm2.038-35.884.4,33.266,9.2-.53-.4-32.87Zm12.69,35.033-.454-37.682,13.737-.2.448,37.089Zm2.047-35.246.394,32.629,8.79-.506-.389-32.251Z" transform="translate(-1420.93 -2534.35)" fill="#fff"/>
          </g>
          <g id="Group_7067" data-name="Group 7067" transform="translate(53.316)">
            <path id="Path_9631" data-name="Path 9631" d="M1183.5,2234.28l-1.28,1.26-30.867,30.4-37.847,2.439,28.168-26.613,1.175-1.106Z" transform="translate(-1113.51 -2234.28)" fill="#878787"/>
          </g>
          <path id="Path_9632" data-name="Path 9632" d="M1188.58,2713.681l16.033-.4.417,35.473-16.014,1.1Z" transform="translate(-1124.236 -2642.907)" fill="#f4f7fa"/>
          <g id="Group_7068" data-name="Group 7068" transform="translate(61.4 71.659)">
            <path id="Path_9633" data-name="Path 9633" d="M1168.94,2755.641l-.4-33.174,17.812-.427.388,32.033Z" transform="translate(-1168.54 -2722.04)" fill="#676767"/>
          </g>
          <path id="Path_9634" data-name="Path 9634" d="M1107.438,2725.535l-.5-41.318,31.381-.7.478,39.609-3.414.235-.427-35.4-16.021.438.438,36.308Z" transform="translate(-1054.59 -2617.52)" fill="#c2c2c2"/>
          <g id="Group_7069" data-name="Group 7069" transform="translate(0 31.657)">
            <path id="Path_9635" data-name="Path 9635" d="M841.773,2449.76l-52.127,15.363-7.147,2.105-31.888.153,6.378-1.814,46.938-13.368Z" transform="translate(-750.61 -2449.76)" fill="#b7b6b6"/>
          </g>
          <g id="Group_7070" data-name="Group 7070" transform="translate(0.001 49.127)">
            <path id="Path_9636" data-name="Path 9636" d="M782.548,2572.045l-31.894-.319-.034-2.9,31.886-.151Z" transform="translate(-750.62 -2568.67)" fill="#fff"/>
          </g>
          <g id="Group_7071" data-name="Group 7071" transform="translate(131.97 48.272)">
            <path id="Path_9637" data-name="Path 9637" d="M1659.333,2562.85l.406,33.563-10.447.6-.411-34.007Z" transform="translate(-1648.88 -2562.85)" fill="#9b9b9b"/>
          </g>
          <g id="Group_7072" data-name="Group 7072" transform="translate(103.029 48.689)">
            <path id="Path_9638" data-name="Path 9638" d="M1463.107,2565.69l.42,34.76-11.213.642-.425-35.236Z" transform="translate(-1451.89 -2565.69)" fill="#9b9b9b"/>
          </g>
          <g id="Group_7073" data-name="Group 7073" transform="translate(117.757 48.478)">
            <path id="Path_9639" data-name="Path 9639" d="M1562.965,2564.25l.411,34.151-10.819.62-.417-34.611Z" transform="translate(-1552.14 -2564.25)" fill="#9b9b9b"/>
          </g>
          <path id="Path_9640" data-name="Path 9640" d="M1110.33,2954.226l31.358-2.586,7.43,8.119-38.693,2.236Z" transform="translate(-1057.481 -2846.249)" fill="#f4f7fa"/>
        </g>
        <g id="Group_7076" data-name="Group 7076" transform="translate(224.743 104.927)">
          <path id="Path_9483" data-name="Path 9483" d="M1034.058,3154.27s1.083,5.809,1.642,11.563a3.969,3.969,0,0,1-3.755,4.335c-7.666.394-24.064,1.17-29.954.964a1.29,1.29,0,0,1-1.152-1.756,2.891,2.891,0,0,1,1.464-1.571l26.98-12.712Z" transform="translate(-941.027 -2876.299)" fill="#8a8a8a"/>
          <path id="Path_9484" data-name="Path 9484" d="M1013.571,3134.06l-.759,6.968s-4.725,2.254-7.992-.2l1.891-7.774Z" transform="translate(-919.73 -2859.518)" fill="url(#linear-gradient-3)"/>
          <path id="Path_9485" data-name="Path 9485" d="M916.8,2511.708c.374,1.813,2.78,90.667-6.34,130.584a1.352,1.352,0,0,0,.807,1.565,23.542,23.542,0,0,0,7.752,1.5,2.333,2.333,0,0,0,2.295-1.692c2.627-9.267,15.2-55.686,16.471-99.926,1.425-49.435-.017-1.682-.017-1.682l-1.4-30.535Z" transform="translate(-824.827 -2367.989)" fill="#bbb"/>
          <path id="Path_9486" data-name="Path 9486" d="M854.141,3167.35s1.665,2.922,3.322,10.712a2.422,2.422,0,0,1-2.1,2.92c-2.531.274-6.425.629-9.548.638a2.415,2.415,0,0,1-2.416-2.669,20.354,20.354,0,0,1,4.646-11.211Z" transform="translate(-729.908 -2886.644)" fill="#8a8a8a"/>
          <path id="Path_9487" data-name="Path 9487" d="M860.565,3123.188l-1.828,10.542s-1.9,1.437-5.677.444l.814-11.333Z" transform="translate(-734.981 -2851.443)" fill="url(#linear-gradient-4)"/>
          <path id="Path_9488" data-name="Path 9488" d="M855.971,2506.533c8.216,46.815-.579,115.9-3.639,129.439a2.108,2.108,0,0,1-1.686,1.615,14.152,14.152,0,0,1-6.078-.184,1.929,1.929,0,0,1-1.4-1.764c-.531-10.914-.4-77.949-7.894-104.37a6.031,6.031,0,0,0-2.353-3.3l-14.146-9.854-1.232-16.137Z" transform="translate(-726.373 -2360.444)" fill="#bbb"/>
          <g id="Group_6995" data-name="Group 6995" transform="translate(10.142 22.28)">
            <path id="Path_9489" data-name="Path 9489" d="M855.057,2087.719c23.28-.606,49.032,5.645,49.032,5.645,7.327,40.429,2.046,87.194,2.046,87.194-17.98,4.9-38.386-2.525-38.386-2.525-3.158-16.9-17.591-64.4-17.591-64.4a76.713,76.713,0,0,1-28.551-8.762c5.821-6.879,8.513-15.589,9.67-20.732A78.191,78.191,0,0,0,855.057,2087.719Z" transform="translate(-785.955 -2052.281)" fill="#fff"/>
            <path id="Path_9490" data-name="Path 9490" d="M1188.3,1933.619a4.457,4.457,0,0,1,5.169-1.506c3.564,14.44,21.642,26,40.153,31.564-1.157,5.144-3.849,13.853-9.669,20.732C1193.157,1967.48,1188.3,1933.619,1188.3,1933.619Z" transform="translate(-1188.3 -1931.82)" fill="url(#linear-gradient-5)"/>
          </g>
          <g id="Group_6996" data-name="Group 6996" transform="translate(0)">
            <path id="Path_9491" data-name="Path 9491" d="M1391.23,1850.078c-.232.763,2.55,1.895,4.152-1.232.042-1.491.889-7.889-.014-9.1-4.809-6.426-14.087-14.449-14.087-14.449a2.189,2.189,0,0,0-.245,3.045l4.508,4.608c-.918,1.7-2.044,3.131-2.558,5.177a6.262,6.262,0,0,0,.667,4.6c.8,1.4,1.885,3.229,2.908,4.656A6.191,6.191,0,0,0,1391.23,1850.078Z" transform="translate(-1380.526 -1825.3)" fill="url(#linear-gradient-6)"/>
            <path id="Path_9492" data-name="Path 9492" d="M1395.018,1876.22l4.1,3.409,1.31,3.422-3.589,4.058s-1.284-6.8-2.2-8.266S1394.177,1876.659,1395.018,1876.22Z" transform="translate(-1388.018 -1865.57)" fill="url(#linear-gradient-7)"/>
          </g>
          <path id="Path_9493" data-name="Path 9493" d="M717.59,2150.869l8.716-22.629s21.889,14.568,25.643,33.27a51.468,51.468,0,0,0-18.858,5.248C731.4,2157.927,717.59,2150.869,717.59,2150.869Z" transform="translate(-598.03 -2064.876)" fill="#e2e2e2"/>
          <path id="Path_9494" data-name="Path 9494" d="M718.155,2298.055s24.549,13.566,32.675,1.7a9.257,9.257,0,0,0,1.629-7.212,51.507,51.507,0,0,1,18.858-5.248,25.865,25.865,0,0,1-2.642,17.753c-14.179,26.537-53.694-.947-53.694-.947Z" transform="translate(-617.399 -2190.667)" fill="url(#linear-gradient-8)"/>
          <path id="Path_9495" data-name="Path 9495" d="M941.182,2009.8l7.613,21.354a.773.773,0,0,1-.343.933c-2.008,1.135-9.253,4.432-18.074-1.044a3.636,3.636,0,0,1-1.7-2.581l-2.577-18.519Z" transform="translate(-838.535 -1971.209)" fill="url(#linear-gradient-9)"/>
          <g id="Group_6997" data-name="Group 6997" transform="translate(79.347 7.765)">
            <path id="Path_9496" data-name="Path 9496" d="M956.642,1915.68s-7.99,15.39-6.888,21.567,11.18,5.634,19.935.527l5.995-16.593Z" transform="translate(-949.65 -1904.541)" fill="url(#linear-gradient-10)"/>
            <path id="Path_9497" data-name="Path 9497" d="M912.655,1887.541a.63.63,0,0,1-.284-.92,16.483,16.483,0,0,0,2.217-4.827s1.454-.95-3.742-2.142-12.947-3.043-14.614-7.442c-1.625-4.287,2.435-15.147,9.159-6.588a.631.631,0,0,0,1,0c1.075-1.427,3.909-4.4,7.9-2.65,3.736,1.634,4.179,4.354,4.141,5.729a.628.628,0,0,0,.749.636c1.876-.376,6.386-.728,8.536,3.883,1.772,3.8.663,5.965-.353,7.03a.628.628,0,0,0,.28,1.042c1.24.366,2.845,1.4,2.713,4.3-.182,4.005-4.662,3.694-5.936,3.524a.635.635,0,0,0-.558.2c-1.081,1.219-5.955,6.4-11.276,7.069a.636.636,0,0,1-.676-.834l2.242-6.725a.633.633,0,0,0-.349-.782Z" transform="translate(-893.082 -1862.423)"/>
            <path id="Path_9498" data-name="Path 9498" d="M956.87,1979.491s5.754-4.028,6.21-.686-5.17,4.9-7.975,3.677Z" transform="translate(-938.214 -1953.414)" fill="url(#linear-gradient-11)"/>
          </g>
          <g id="Group_6999" data-name="Group 6999" transform="translate(44.561 78.249)">
            <g id="Group_6998" data-name="Group 6998">
              <path id="Path_9499" data-name="Path 9499" d="M1008.725,2249.989l-13.372-46.7a1.366,1.366,0,0,0-1.152-.981c-2.422-.283-9.444-1.077-17.549-1.761-9.764-.826-21.1-1.5-27.879-.927a1.366,1.366,0,0,0-1.117,1.966c3.853,7.8,19.7,39.5,27.639,49.892a1.369,1.369,0,0,0,1.1.542l31.027-.289A1.366,1.366,0,0,0,1008.725,2249.989Z" transform="translate(-947.513 -2199.408)" fill="#c9c9c9"/>
              <path id="Path_9500" data-name="Path 9500" d="M973.579,2327.088s1.863-7.66,1.111-10.376-2.207-6.212-7.059-5.436a70.934,70.934,0,0,0-10.577,2.822s.289,3.539,3.978,2.4l-2.286,1.77s.326,2.834,3.443,1.319l-2.127,2.347a2.478,2.478,0,0,0,3.629.834C965.982,2321.271,967.081,2328.01,973.579,2327.088Z" transform="translate(-915.598 -2287.79)" fill="url(#linear-gradient-12)"/>
            </g>
            <path id="Path_9501" data-name="Path 9501" d="M1104.7,2256.646a3.926,3.926,0,1,1-3.926-3.926A3.925,3.925,0,0,1,1104.7,2256.646Z" transform="translate(-1074.672 -2241.569)" fill="#7d7d7d"/>
            <path id="Path_9502" data-name="Path 9502" d="M1051.379,2228.425l-2.723-9.236a3.172,3.172,0,0,0-2.38-2.223c-8.534-1.78-31.891-2.159-32.125-2.161l.015-1.044c.964.015,23.692.383,32.324,2.184a4.214,4.214,0,0,1,3.169,2.949l2.723,9.236Z" transform="translate(-1005.052 -2210.759)" fill="#bdd0fb"/>
          </g>
        </g>
      </g>
    </g>
  </g>
</svg>
