<svg id="Operate_with_more_efficiency_" data-name="Operate with more efficiency " xmlns="http://www.w3.org/2000/svg" width="42.003" height="42" viewBox="0 0 42.003 42">
  <path id="Path_9084" data-name="Path 9084" d="M.7,39.216H2.8v2.1a.7.7,0,0,0,.7.7H32.9a.7.7,0,0,0,.7-.7v-2.8H32.2v2.1H4.2v-1.4H20.3v-1.4H1.4V7.716H7a.7.7,0,0,0,.7-.7v-5.6H29.4v13.3h1.4V4.216h1.4v11.9h1.4V3.516a.7.7,0,0,0-.7-.7H30.8V.716a.7.7,0,0,0-.7-.7H7c-.014,0-.027.007-.041.009a.658.658,0,0,0-.187.037c-.021.006-.041.014-.061.022a.689.689,0,0,0-.206.14l-6.3,6.3a.7.7,0,0,0-.14.205c-.01.022-.015.043-.023.066a.661.661,0,0,0-.036.18C.009,6.989,0,7,0,7.018v31.5a.7.7,0,0,0,.7.7ZM6.3,2.406v3.91H2.393Zm0,0" transform="translate(0 -0.016)" fill="#fff"/>
  <path id="Path_9085" data-name="Path 9085" d="M58.231,110.316v-.7h5.6v-3.5a2.1,2.1,0,0,0-1.914-2.089,1.4,1.4,0,0,0-.186-.011h-19.6a2.1,2.1,0,0,0-2.1,2.1v22.4a2.1,2.1,0,0,0,2.1,2.1h10.5v-1.4h-7v-2.1h5.6v-1.4h-5.6v-2.1h4.9v-1.4h-4.9v-2.1h5.04v-1.4h-5.04v-2.1h6.3v-1.4h-6.3v-2.1h9.1v-1.4h-9.1v-2.1h11.2v.7Zm3.557-4.895a.7.7,0,0,1,.643.695v2.1h-4.2v-2.8H61.7A.742.742,0,0,0,61.788,105.421Zm-19.657-.005h2.1v2.8h-2.8v-2.1A.7.7,0,0,1,42.131,105.416Zm2.1,23.8h-2.1a.7.7,0,0,1-.7-.7v-1.4h2.8Zm0-3.5h-2.8v-2.1h2.8Zm0-3.5h-2.8v-2.1h2.8Zm0-3.5h-2.8v-2.1h2.8Zm0-3.5h-2.8v-2.1h2.8Zm0-3.5h-2.8v-2.1h2.8Zm1.4-3.5v-2.8l11.2,0v2.8Zm0,0" transform="translate(-36.528 -94.916)" fill="#fff"/>
  <path id="Path_9086" data-name="Path 9086" d="M120.031,72.016h5.6v1.4h-5.6Zm0,0" transform="translate(-109.528 -65.716)" fill="#fff"/>
  <path id="Path_9087" data-name="Path 9087" d="M200.031,72.016h2.8v1.4h-2.8Zm0,0" transform="translate(-182.528 -65.716)" fill="#fff"/>
  <path id="Path_9088" data-name="Path 9088" d="M120.031,40.016h9.8v1.4h-9.8Zm0,0" transform="translate(-109.528 -36.516)" fill="#fff"/>
  <path id="Path_9089" data-name="Path 9089" d="M195.888,200.056l-.09.09a11.246,11.246,0,1,0-2.883,3.117l5.048,5.048a2.185,2.185,0,0,0,3.09-3.09Zm-19.395-5.805a9.8,9.8,0,1,1,9.8,9.8A9.8,9.8,0,0,1,176.494,194.251Zm23.015,13.3a.781.781,0,0,1-.555-.229l-4.96-4.96a11.207,11.207,0,0,0,1.063-1.157l5.006,5.006a.785.785,0,0,1-.554,1.34Zm0,0" transform="translate(-159.691 -166.951)" fill="#fff"/>
  <path id="Path_9090" data-name="Path 9090" d="M216.431,216.016a8.4,8.4,0,1,0,8.4,8.4A8.4,8.4,0,0,0,216.431,216.016Zm-2.8,8.4a2.8,2.8,0,1,1,2.8,2.8A2.8,2.8,0,0,1,213.631,224.416Zm-.814,2.129a8.5,8.5,0,0,1-3.164-2.129,8.5,8.5,0,0,1,3.164-2.129,4.161,4.161,0,0,0,0,4.257Zm7.228-4.257a8.5,8.5,0,0,1,3.164,2.129,8.5,8.5,0,0,1-3.164,2.129A4.161,4.161,0,0,0,220.045,222.287Zm-3.614-4.871a7.008,7.008,0,0,1,6.72,5.05,10.679,10.679,0,0,0-6.285-2.227,4.172,4.172,0,0,0-.866,0,10.68,10.68,0,0,0-6.289,2.227A7.008,7.008,0,0,1,216.431,217.416Zm0,14a7.008,7.008,0,0,1-6.72-5.05A10.682,10.682,0,0,0,216,228.594a4.219,4.219,0,0,0,.867,0,10.681,10.681,0,0,0,6.289-2.227A7.008,7.008,0,0,1,216.431,231.416Zm0,0" transform="translate(-189.828 -197.116)" fill="#fff"/>
  <path id="Path_9091" data-name="Path 9091" d="M290.831,297.416a1.4,1.4,0,1,1-1.4-1.4A1.4,1.4,0,0,1,290.831,297.416Zm0,0" transform="translate(-262.828 -270.116)" fill="#fff"/>
</svg>
