<svg xmlns="http://www.w3.org/2000/svg" width="43" height="43" viewBox="0 0 43 43">
  <g id="Schedule_and_track_asset_maintenance" data-name="Schedule and track asset maintenance" transform="translate(0.5 0.5)">
    <g id="Group_6863" data-name="Group 6863" transform="translate(0 0)">
      <g id="Group_6862" data-name="Group 6862">
        <circle id="Ellipse_346" data-name="Ellipse 346" cx="1.713" cy="1.713" r="1.713" transform="translate(29.947 15.415)" fill="#fff" stroke="#000" stroke-width="1"/>
        <path id="Path_9092" data-name="Path 9092" d="M35.437,3.281H33.3V1.641a1.641,1.641,0,0,0-3.281,0V3.281H22.559V1.641a1.641,1.641,0,0,0-3.281,0V3.281H11.895V1.641a1.641,1.641,0,0,0-3.281,0V3.281H6.562A6.57,6.57,0,0,0,0,9.844V35.437A6.57,6.57,0,0,0,6.562,42H19.113a1.641,1.641,0,1,0,0-3.281H6.562a3.285,3.285,0,0,1-3.281-3.281V9.844A3.285,3.285,0,0,1,6.562,6.562H8.613V8.2a1.641,1.641,0,1,0,3.281,0V6.562h7.383V8.2a1.641,1.641,0,0,0,3.281,0V6.562h7.465V8.2a1.641,1.641,0,0,0,3.281,0V6.562h2.133a3.285,3.285,0,0,1,3.281,3.281V19.2A1.641,1.641,0,1,0,42,19.2V9.844A6.57,6.57,0,0,0,35.437,3.281Z" fill="#fff" stroke="#000" stroke-width="1"/>
        <path id="Path_9093" data-name="Path 9093" d="M279.926,270a9.926,9.926,0,1,0,9.926,9.926A9.937,9.937,0,0,0,279.926,270Zm0,16.57a6.645,6.645,0,1,1,6.645-6.645A6.652,6.652,0,0,1,279.926,286.57Z" transform="translate(-247.852 -247.852)" fill="#fff" stroke="#000" stroke-width="1"/>
        <path id="Path_9094" data-name="Path 9094" d="M375.02,333.363h-.738v-1.723a1.641,1.641,0,0,0-3.281,0V335a1.641,1.641,0,0,0,1.641,1.641h2.379a1.641,1.641,0,0,0,0-3.281Z" transform="translate(-340.566 -302.93)" fill="#fff" stroke="#000" stroke-width="1"/>
        <circle id="Ellipse_347" data-name="Ellipse 347" cx="1.713" cy="1.713" r="1.713" transform="translate(23.096 15.415)" fill="#fff" stroke="#000" stroke-width="1"/>
        <ellipse id="Ellipse_348" data-name="Ellipse 348" cx="1.713" cy="1.285" rx="1.713" ry="1.285" transform="translate(15.388 23.123)" fill="#fff" stroke="#000" stroke-width="1"/>
        <circle id="Ellipse_349" data-name="Ellipse 349" cx="1.713" cy="1.713" r="1.713" transform="translate(8.537 15.415)" fill="#fff" stroke="#000" stroke-width="1"/>
        <ellipse id="Ellipse_350" data-name="Ellipse 350" cx="1.713" cy="1.285" rx="1.713" ry="1.285" transform="translate(8.537 23.123)" fill="#fff" stroke="#000" stroke-width="1"/>
        <circle id="Ellipse_351" data-name="Ellipse 351" cx="1.713" cy="1.713" r="1.713" transform="translate(8.537 29.974)" fill="#fff" stroke="#000" stroke-width="1"/>
        <circle id="Ellipse_352" data-name="Ellipse 352" cx="1.713" cy="1.713" r="1.713" transform="translate(15.388 29.974)" fill="#fff" stroke="#000" stroke-width="1"/>
        <circle id="Ellipse_353" data-name="Ellipse 353" cx="1.713" cy="1.713" r="1.713" transform="translate(15.388 15.415)" fill="#fff" stroke="#000" stroke-width="1"/>
      </g>
    </g>
  </g>
</svg>
