<svg id="Streamline_audit_and_daily_operations_" data-name="Streamline audit and daily operations " xmlns="http://www.w3.org/2000/svg" width="40.195" height="42" viewBox="0 0 40.195 42">
  <path id="Path_9095" data-name="Path 9095" d="M102.166,154.882a2.936,2.936,0,1,0,2.936,2.936A2.939,2.939,0,0,0,102.166,154.882Zm0,4.231a1.3,1.3,0,1,1,1.3-1.3A1.3,1.3,0,0,1,102.166,159.113Z" transform="translate(-91.992 -142.177)" fill="#fff"/>
  <path id="Path_9096" data-name="Path 9096" d="M102.166,344.852a2.936,2.936,0,1,0,2.936,2.936A2.939,2.939,0,0,0,102.166,344.852Zm0,4.231a1.3,1.3,0,1,1,1.3-1.3A1.3,1.3,0,0,1,102.166,349.083Z" transform="translate(-91.992 -316.563)" fill="#fff"/>
  <path id="Path_9097" data-name="Path 9097" d="M102.166,249.867A2.936,2.936,0,1,0,105.1,252.8,2.939,2.939,0,0,0,102.166,249.867Zm0,4.231a1.3,1.3,0,1,1,1.3-1.3A1.3,1.3,0,0,1,102.166,254.1Z" transform="translate(-91.992 -229.37)" fill="#fff"/>
  <path id="Path_9098" data-name="Path 9098" d="M198.258,180.672h-8.3a.82.82,0,0,0,0,1.641h8.3a.82.82,0,0,0,0-1.641Z" transform="translate(-174.524 -165.851)" fill="#fff"/>
  <path id="Path_9099" data-name="Path 9099" d="M51.2,27.279A9.215,9.215,0,0,0,42.834,18.1V6.731A2.531,2.531,0,0,0,40.305,4.2H31.273a4.358,4.358,0,0,0-8.711,0H13.529A2.531,2.531,0,0,0,11,6.731V39.472A2.531,2.531,0,0,0,13.529,42H40.306a2.488,2.488,0,0,0,2.529-2.375V36.459A9.215,9.215,0,0,0,51.2,27.279Zm-10-20.549V18.1a9.09,9.09,0,0,0-2.032.419V8.692a.82.82,0,0,0-.82-.82H35.2V5.843h5.109A.889.889,0,0,1,41.193,6.731ZM34.1,22.613H26.434a.82.82,0,1,0,0,1.641H33.34a9.257,9.257,0,0,0,.035,6.151H26.434a.82.82,0,0,0,0,1.641h7.723a9.266,9.266,0,0,0,3.364,3.27V36.69H16.314V9.512H37.521v9.732A9.268,9.268,0,0,0,34.1,22.613ZM23.443,5.843a.82.82,0,0,0,.806-.975,2.717,2.717,0,1,1,5.338,0,.82.82,0,0,0,.806.975h3.164V7.872H20.279V5.843ZM40.306,40.359H13.529a.889.889,0,0,1-.888-.888V6.731a.889.889,0,0,1,.888-.888h5.109V7.872H15.494a.82.82,0,0,0-.82.82V37.511a.82.82,0,0,0,.82.82H38.341a.82.82,0,0,0,.82-.82V36.04a9.084,9.084,0,0,0,2.032.419v3.167a.877.877,0,0,1-.888.734Zm1.708-5.505a7.575,7.575,0,1,1,7.542-7.575A7.567,7.567,0,0,1,42.014,34.854Z" transform="translate(-11.001 0)" fill="#fff"/>
  <path id="Path_9100" data-name="Path 9100" d="M381.411,298.583h-.71v-1.74a.82.82,0,1,0-1.641,0v2.56a.82.82,0,0,0,.82.82h1.53a.82.82,0,0,0,0-1.641Z" transform="translate(-348.869 -271.74)" fill="#fff"/>
</svg>
