<svg id="Better_Customer_Retention_" data-name="Better Customer Retention " xmlns="http://www.w3.org/2000/svg" width="29.451" height="42" viewBox="0 0 29.451 42">
  <path id="Path_8640" data-name="Path 8640" d="M134.551,35.53h0a3.765,3.765,0,1,0,0-7.53h0a3.765,3.765,0,0,0,0,7.53Zm0-6.191h0a2.426,2.426,0,0,1,0,4.853h0s0-.012,0-.012a2.42,2.42,0,0,1,0-4.84Zm0,0" transform="translate(-119.843 -25.657)" fill="#fff"/>
  <path id="Path_8641" data-name="Path 8641" d="M239.61,7.445h.051A3.723,3.723,0,0,0,239.611,0h0a3.723,3.723,0,0,0,0,7.446Zm0-6.108h0a2.406,2.406,0,0,1,2.409,2.407,2.351,2.351,0,0,1-2.371,2.362h-.04a2.384,2.384,0,0,1,0-4.769Zm0,0" transform="translate(-216.152 0.001)" fill="#fff"/>
  <path id="Path_8642" data-name="Path 8642" d="M.641,106.708H8.7v1.763a.683.683,0,0,0,.692.663H20.026a.64.64,0,0,0,.64-.663v-1.763h8.145a.617.617,0,0,0,.64-.636v-4.906A5.14,5.14,0,0,0,24.293,96H22.716a5.263,5.263,0,0,0-4.748,2.994,5.183,5.183,0,0,0-2.466-.652H13.924a5.193,5.193,0,0,0-2.46.648A5.227,5.227,0,0,0,6.736,96H5.171A5.141,5.141,0,0,0,0,101.15v4.922a.617.617,0,0,0,.64.636Zm22.075-9.37h1.57a3.8,3.8,0,0,1,3.826,3.828v4.2H20.666v-1.8a5.161,5.161,0,0,0-1.5-3.679c-.034-.034-.061-.045-.1-.077a3.936,3.936,0,0,1,3.648-2.471ZM13.925,99.68H15.5a3.8,3.8,0,0,1,2.714,1.143,3.848,3.848,0,0,1,1.112,2.741V107.8H10.041V103.55a3.893,3.893,0,0,1,3.885-3.87ZM1.339,101.152a3.8,3.8,0,0,1,3.833-3.814H6.734A3.873,3.873,0,0,1,10.343,99.8,5.133,5.133,0,0,0,8.7,103.544v1.826H1.339Zm0,0" transform="translate(-0.001 -87.967)" fill="#fff"/>
  <path id="Path_8643" data-name="Path 8643" d="M30.138,7.446h0a3.737,3.737,0,0,0,3.748-3.719h0A3.738,3.738,0,0,0,30.138,0h0a3.723,3.723,0,1,0,0,7.446Zm-1.7-5.409a2.387,2.387,0,0,1,1.706-.7h0a2.387,2.387,0,0,1,1.7.7,2.344,2.344,0,0,1,.706,1.678,2.4,2.4,0,0,1-2.41,2.395h0A2.393,2.393,0,0,1,27.73,3.718a2.342,2.342,0,0,1,.7-1.682Zm0,0" transform="translate(-24.183 0)" fill="#fff"/>
  <path id="Path_8644" data-name="Path 8644" d="M97.484,329.149a.661.661,0,0,0-.473-.188h0l-3.724,0a.666.666,0,0,0-.668.664l-.012,5.954a2.845,2.845,0,0,1-2.829,2.839h0a2.827,2.827,0,0,1-2.811-2.834l.007-3.339c0-.023,0-.047,0-.071s0-.041,0-.06l0-2.479a.669.669,0,0,0-.669-.671h0l-3.724.011a.668.668,0,0,0-.665.668l0,2.54v0l-.008,3.4a7.836,7.836,0,0,0,7.849,7.852h.025a7.917,7.917,0,0,0,7.9-7.888l0-3.1a.6.6,0,0,0,0-.137l0-2.7A.657.657,0,0,0,97.484,329.149Zm-1.144,1.135,0,1.433-2.386,0,0-1.435Zm-10.706.018,0,1.2-2.385,0,0-1.2ZM89.772,342.1h-.02a6.5,6.5,0,0,1-6.513-6.515l.006-2.736,2.385,0-.006,2.73a4.166,4.166,0,0,0,4.15,4.182h.005a4.187,4.187,0,0,0,4.166-4.178l0-2.508,2.387-.008,0,2.487a6.575,6.575,0,0,1-6.561,6.551Zm0,0" transform="translate(-75.05 -301.435)" fill="#fff"/>
  <path id="Path_8645" data-name="Path 8645" d="M101.939,271.681a.683.683,0,0,0,.669-.682l.007-2.33a.666.666,0,0,0-.667-.669h0a.661.661,0,0,0-.669.657L101.269,271a.678.678,0,0,0,.667.681Zm0,0" transform="translate(-92.796 -245.577)" fill="#fff"/>
  <path id="Path_8646" data-name="Path 8646" d="M131.856,296.271l1.648-1.648a.669.669,0,1,0-.946-.946l-1.648,1.648a.669.669,0,0,0,.947.946Zm0,0" transform="translate(-119.778 -268.926)" fill="#fff"/>
  <path id="Path_8647" data-name="Path 8647" d="M59.81,291.234a.669.669,0,0,0,0-.946l-1.648-1.648a.669.669,0,0,0-.946.946l1.648,1.648A.669.669,0,0,0,59.81,291.234Zm0,0" transform="translate(-52.253 -264.315)" fill="#fff"/>
  <path id="Path_8648" data-name="Path 8648" d="M234.579,271.593a.655.655,0,0,0,.669-.65l0-2.306a.645.645,0,0,0-.668-.641h0a.652.652,0,0,0-.669.647l0,2.308a.645.645,0,0,0,.668.642Zm0,0" transform="translate(-214.34 -245.573)" fill="#fff"/>
  <path id="Path_8649" data-name="Path 8649" d="M264.24,291.987a.669.669,0,0,0-.946-.947l-1.652,1.652a.669.669,0,1,0,.947.947Zm0,0" transform="translate(-239.572 -266.515)" fill="#fff"/>
  <path id="Path_8650" data-name="Path 8650" d="M192.531,291.24A.669.669,0,0,0,193,290.1l-1.648-1.648a.669.669,0,0,0-.947.946l1.648,1.648A.665.665,0,0,0,192.531,291.24Zm0,0" transform="translate(-174.302 -264.139)" fill="#fff"/>
</svg>
