<svg id="Build_up_Customer_Revenue_" data-name="Build up Customer Revenue " xmlns="http://www.w3.org/2000/svg" width="42" height="42" viewBox="0 0 42 42">
  <path id="Path_8633" data-name="Path 8633" d="M6.3,320c-3.131,0-6.3.962-6.3,2.8v8.4c0,1.838,3.169,2.8,6.3,2.8s6.3-.962,6.3-2.8v-8.4C12.6,320.962,9.431,320,6.3,320Zm0,1.4c3.183,0,4.9.994,4.9,1.4s-1.717,1.4-4.9,1.4-4.9-.994-4.9-1.4S3.117,321.4,6.3,321.4Zm0,11.2c-3.183,0-4.9-.994-4.9-1.4v-.98a11.1,11.1,0,0,0,4.9.98,11.1,11.1,0,0,0,4.9-.98v.98C11.2,331.606,9.483,332.6,6.3,332.6Zm0-2.8c-3.183,0-4.9-.994-4.9-1.4v-.98a11.1,11.1,0,0,0,4.9.98,11.1,11.1,0,0,0,4.9-.98v.98C11.2,328.806,9.483,329.8,6.3,329.8Zm0-2.8c-3.183,0-4.9-.994-4.9-1.4v-.98a11.1,11.1,0,0,0,4.9.98,11.1,11.1,0,0,0,4.9-.98v.98C11.2,326.006,9.483,327,6.3,327Zm0,0" transform="translate(0 -292)" fill="#fff"/>
  <path id="Path_8634" data-name="Path 8634" d="M174.3,256c-3.131,0-6.3.962-6.3,2.8v14c0,1.838,3.169,2.8,6.3,2.8s6.3-.962,6.3-2.8v-14C180.6,256.962,177.431,256,174.3,256Zm0,1.4c3.183,0,4.9.994,4.9,1.4s-1.717,1.4-4.9,1.4-4.9-.994-4.9-1.4S171.117,257.4,174.3,257.4Zm0,16.8c-3.183,0-4.9-.994-4.9-1.4v-.98a12.741,12.741,0,0,0,9.8,0v.98C179.2,273.206,177.483,274.2,174.3,274.2Zm0-2.8c-3.183,0-4.9-.994-4.9-1.4v-.98a12.741,12.741,0,0,0,9.8,0V270C179.2,270.406,177.483,271.4,174.3,271.4Zm0-2.8c-3.183,0-4.9-.994-4.9-1.4v-.98a12.741,12.741,0,0,0,9.8,0v.98C179.2,267.606,177.483,268.6,174.3,268.6Zm0-2.8c-3.183,0-4.9-.994-4.9-1.4v-.98a12.741,12.741,0,0,0,9.8,0v.98C179.2,264.806,177.483,265.8,174.3,265.8Zm0-2.8c-3.183,0-4.9-.994-4.9-1.4v-.98a12.741,12.741,0,0,0,9.8,0v.98C179.2,262.006,177.483,263,174.3,263Zm0,0" transform="translate(-153.3 -233.6)" fill="#fff"/>
  <path id="Path_8635" data-name="Path 8635" d="M342.3,160c-3.131,0-6.3.962-6.3,2.8v22.4c0,1.838,3.169,2.8,6.3,2.8s6.3-.962,6.3-2.8V162.8C348.6,160.962,345.431,160,342.3,160Zm0,1.4c3.183,0,4.9.994,4.9,1.4s-1.717,1.4-4.9,1.4-4.9-.994-4.9-1.4S339.117,161.4,342.3,161.4Zm0,25.2c-3.183,0-4.9-.994-4.9-1.4v-.98a12.741,12.741,0,0,0,9.8,0v.98C347.2,185.606,345.483,186.6,342.3,186.6Zm0-2.8c-3.183,0-4.9-.994-4.9-1.4v-.98a12.741,12.741,0,0,0,9.8,0v.98C347.2,182.806,345.483,183.8,342.3,183.8Zm0-2.8c-3.183,0-4.9-.994-4.9-1.4v-.98a12.741,12.741,0,0,0,9.8,0v.98C347.2,180.006,345.483,181,342.3,181Zm0-2.8c-3.183,0-4.9-.994-4.9-1.4v-.98a12.741,12.741,0,0,0,9.8,0v.98C347.2,177.206,345.483,178.2,342.3,178.2Zm0-2.8c-3.183,0-4.9-.994-4.9-1.4v-.98a12.741,12.741,0,0,0,9.8,0V174C347.2,174.406,345.483,175.4,342.3,175.4Zm0-2.8c-3.183,0-4.9-.994-4.9-1.4v-.98a12.741,12.741,0,0,0,9.8,0v.98C347.2,171.606,345.483,172.6,342.3,172.6Zm0-2.8c-3.183,0-4.9-.994-4.9-1.4v-.98a12.741,12.741,0,0,0,9.8,0v.98C347.2,168.806,345.483,169.8,342.3,169.8Zm0-2.8c-3.183,0-4.9-.994-4.9-1.4v-.98a12.741,12.741,0,0,0,9.8,0v.98C347.2,166.006,345.483,167,342.3,167Zm0,0" transform="translate(-306.6 -146)" fill="#fff"/>
  <path id="Path_8636" data-name="Path 8636" d="M36.788,0V1.4H42.1L28.8,14.7H14.125l-11.4,9.973.923,1.054,11-9.627H29.378L43.088,2.39V7.7h1.4V0Zm0,0" transform="translate(-2.488)" fill="#fff"/>
</svg>
