<svg xmlns="http://www.w3.org/2000/svg" xmlns:xlink="http://www.w3.org/1999/xlink" width="597.352" height="483.898" viewBox="0 0 597.352 483.898">
  <defs>
    <linearGradient id="linear-gradient" x1="120.21" y1="0.531" x2="121.218" y2="0.531" gradientUnits="objectBoundingBox">
      <stop offset="0" stop-color="#febbba"/>
      <stop offset="1" stop-color="#ff928e"/>
    </linearGradient>
    <linearGradient id="linear-gradient-2" x1="140.102" y1="0.549" x2="141.116" y2="0.549" xlink:href="#linear-gradient"/>
    <linearGradient id="linear-gradient-3" x1="23.161" y1="0.495" x2="24.154" y2="0.495" xlink:href="#linear-gradient"/>
    <linearGradient id="linear-gradient-4" x1="0.198" y1="1.541" x2="0.536" y2="0.206" xlink:href="#linear-gradient"/>
    <linearGradient id="linear-gradient-5" x1="166.925" y1="0.664" x2="168.926" y2="-1.117" xlink:href="#linear-gradient"/>
    <linearGradient id="linear-gradient-6" x1="18.461" y1="0.528" x2="19.463" y2="0.528" xlink:href="#linear-gradient"/>
    <linearGradient id="linear-gradient-7" x1="46.169" y1="0.518" x2="47.16" y2="0.518" xlink:href="#linear-gradient"/>
    <linearGradient id="linear-gradient-8" x1="-17.891" y1="9.251" x2="-18.215" y2="8.185" xlink:href="#linear-gradient"/>
    <linearGradient id="linear-gradient-9" x1="-59.427" y1="42.097" x2="-60.374" y2="37.484" xlink:href="#linear-gradient"/>
    <linearGradient id="linear-gradient-10" x1="55.526" y1="0.5" x2="56.526" y2="0.5" xlink:href="#linear-gradient"/>
    <linearGradient id="linear-gradient-11" y1="0.5" x2="1" y2="0.5" gradientUnits="objectBoundingBox">
      <stop offset="0" stop-color="#dae3fe"/>
      <stop offset="1" stop-color="#e9effd"/>
    </linearGradient>
    <radialGradient id="radial-gradient" cx="-1.913" cy="0.472" r="1.172" gradientTransform="matrix(-2.364, 0, 0, 1, 20817.055, 0)" gradientUnits="objectBoundingBox">
      <stop offset="0.03" stop-color="#fedfcb"/>
      <stop offset="0.778" stop-color="#f9b69e"/>
      <stop offset="0.995" stop-color="#f2a78c"/>
    </radialGradient>
    <radialGradient id="radial-gradient-2" cx="0.133" cy="1.073" r="1.17" gradientTransform="matrix(-0.579, 0.077, 0.045, 0.997, 1727.991, -84.868)" xlink:href="#radial-gradient"/>
    <radialGradient id="radial-gradient-3" cx="0.917" cy="0.571" r="0.335" gradientTransform="matrix(-2.134, 0, 0, 1, 3785.703, 0)" gradientUnits="objectBoundingBox">
      <stop offset="0" stop-color="#fff"/>
      <stop offset="1"/>
    </radialGradient>
    <radialGradient id="radial-gradient-4" cx="0.24" cy="0.218" r="1.088" gradientTransform="matrix(-0.59, 0, 0, 1, 1466.531, 0)" gradientUnits="objectBoundingBox">
      <stop offset="0.03" stop-color="#fedfcb"/>
      <stop offset="1" stop-color="#f9b69e"/>
    </radialGradient>
    <radialGradient id="radial-gradient-5" cx="0.066" cy="-0.613" r="2.146" gradientTransform="matrix(-0.465, 0, 0, 1, 1351.011, 0)" xlink:href="#radial-gradient"/>
    <radialGradient id="radial-gradient-6" cx="0.817" cy="0.424" r="0.618" gradientTransform="matrix(-1.345, 0, 0, 1, 2864.347, 0)" xlink:href="#radial-gradient-4"/>
    <linearGradient id="linear-gradient-12" x1="1440.851" y1="0.982" x2="1440.646" y2="0.348" gradientUnits="objectBoundingBox">
      <stop offset="0.035" stop-color="#9d9eb3"/>
      <stop offset="0.581" stop-color="#d4d1d8"/>
      <stop offset="1" stop-color="#eeebf2"/>
    </linearGradient>
    <radialGradient id="radial-gradient-7" cx="0.455" cy="0.619" r="0.736" gradientTransform="matrix(-0.548, 0, 0, 1, 1490.949, 0)" xlink:href="#radial-gradient-3"/>
    <radialGradient id="radial-gradient-8" cx="-0.351" cy="-0.432" r="1.604" gradientTransform="matrix(-0.866, 0, 0, 1, 3388.643, 0)" xlink:href="#radial-gradient-4"/>
    <radialGradient id="radial-gradient-9" cx="0.095" cy="0.51" r="0.77" gradientTransform="matrix(-1.295, 0, 0, 1, 2801.247, 0)" xlink:href="#radial-gradient-4"/>
    <linearGradient id="linear-gradient-13" x1="2255.468" y1="-102.006" x2="2259.249" y2="-102.819" gradientUnits="objectBoundingBox">
      <stop offset="0.091" stop-color="#25054d"/>
      <stop offset="0.471" stop-color="#330a68"/>
      <stop offset="0.894" stop-color="#45108a"/>
    </linearGradient>
    <radialGradient id="radial-gradient-10" cx="0.5" cy="0.5" r="0.543" gradientTransform="matrix(-0.859, 0, 0, 1, 1784.736, 0)" xlink:href="#radial-gradient-3"/>
    <radialGradient id="radial-gradient-11" cx="0.862" cy="0.264" r="0.65" gradientTransform="matrix(-1.384, 0.112, 0.156, 0.994, 4043.337, -190.34)" xlink:href="#radial-gradient-4"/>
    <radialGradient id="radial-gradient-12" cx="1.008" cy="-1.431" r="3.459" gradientTransform="matrix(-0.283, 0.077, 0.022, 0.997, 1804.306, -109.18)" xlink:href="#radial-gradient-4"/>
    <radialGradient id="radial-gradient-13" cx="0.334" cy="-0.245" r="2.188" gradientTransform="matrix(-0.377, 0, 0, 1, 3626.243, 0)" xlink:href="#radial-gradient-4"/>
  </defs>
  <g id="Customer_Relationship_Management" data-name="Customer Relationship Management" transform="translate(-1249.5 -2010.892)">
    <g id="Group_4233" data-name="Group 4233" transform="translate(1249.5 2011.392)">
      <rect id="Rectangle_190" data-name="Rectangle 190" width="12.04" height="0.346" transform="translate(375.807 436.091)" fill="#ebebeb"/>
      <rect id="Rectangle_191" data-name="Rectangle 191" width="26.588" height="0.346" transform="translate(478.417 419.464)" fill="#ebebeb"/>
      <rect id="Rectangle_192" data-name="Rectangle 192" width="59.84" height="0.346" transform="translate(1.624 421.792)" fill="#ebebeb"/>
      <rect id="Rectangle_193" data-name="Rectangle 193" width="8.77" height="0.346" transform="translate(73.809 421.792)" fill="#ebebeb"/>
      <rect id="Rectangle_194" data-name="Rectangle 194" width="129.795" height="0.346" transform="translate(111.092 427.639)" fill="#ebebeb"/>
      <path id="Path_3347" data-name="Path 3347" d="M166.133,418.858H160.8a1.653,1.653,0,0,1-1.649-1.649V292h8.618V417.209A1.632,1.632,0,0,1,166.133,418.858Z" transform="translate(-9.707 -7.221)" fill="#f0f0f0"/>
      <rect id="Rectangle_196" data-name="Rectangle 196" width="74.762" height="11.278" transform="translate(341.684 273.514)" fill="#e6e6e6"/>
      <path id="Path_3348" data-name="Path 3348" d="M204.7,418.858h-5.334a1.653,1.653,0,0,1-1.649-1.649V292h8.618V417.209A1.641,1.641,0,0,1,204.7,418.858Z" transform="translate(5.162 -7.221)" fill="#e6e6e6"/>
      <path id="Path_3349" data-name="Path 3349" d="M349.013,418.858h-5.334a1.653,1.653,0,0,1-1.649-1.649V292h8.618V417.209A1.641,1.641,0,0,1,349.013,418.858Z" transform="translate(60.795 -7.221)" fill="#e6e6e6"/>
      <rect id="Rectangle_197" data-name="Rectangle 197" width="218.551" height="11.278" transform="translate(144.456 273.514)" fill="#f5f5f5"/>
      <path id="Path_3350" data-name="Path 3350" d="M310.443,418.858h-5.334a1.653,1.653,0,0,1-1.649-1.649V292h8.618V417.209A1.623,1.623,0,0,1,310.443,418.858Z" transform="translate(45.926 -7.221)" fill="#f0f0f0"/>
      <path id="Path_3358" data-name="Path 3358" d="M116.017,331.932c.111.166-.762,1.108,2.328,1.039,7.593-.194,20.963-1.607,25.535-8.84,6.526-10.322-9.99-8.3-8.743-13.841s19.342-2.3,22.293-10.28-9.893-5.6-9.56-9.616,14.257.222,18.192-8.285-7.648-3.325-5.944-6.858,15.809-18.7,9.491-21.462-19.48,13-24.039,14.88-6.609-12.539-12.428-7.274-.319,26.893-7.288,30.094c-5.2,2.383-2.813-5.667-9.366-4.919C107.593,287.6,106.706,318.493,116.017,331.932Z" transform="translate(-28.882 -22.076)" fill="#ebebeb"/>
      <path id="Path_3359" data-name="Path 3359" d="M143.989,285.511a25.224,25.224,0,0,0-6.609.526,47.7,47.7,0,0,1,5.32-5.32.582.582,0,0,0,.1-.79.566.566,0,0,0-.776-.1,65.731,65.731,0,0,0-10.835,12.193c-.6-14.423,6.858-26.048,6.941-26.172a.421.421,0,1,0-.707-.457c-.083.125-8.036,12.525-7.011,27.71-.942,1.358-1.9,2.826-2.868,4.392a105.245,105.245,0,0,0-8.59,17.693,38.211,38.211,0,0,1-2.314-17.416.419.419,0,0,0-.374-.457.429.429,0,0,0-.457.374,38.254,38.254,0,0,0,2.716,18.621A129.445,129.445,0,0,0,111,354.052a.557.557,0,0,0,.526.582h.069a.543.543,0,0,0,.513-.526c1.095-20.034,6.041-35.635,11.652-47.218a15.224,15.224,0,0,1,9.449-3.935.435.435,0,0,0,.4-.43.408.408,0,0,0-.43-.4,15.605,15.605,0,0,0-8.535,3.007,92.729,92.729,0,0,1,11.8-17.984,22.686,22.686,0,0,1,7.537-.8.417.417,0,0,0,.429-.4A.486.486,0,0,0,143.989,285.511Z" transform="translate(-28.269 -17.552)" fill="#e0e0e0"/>
      <g id="Group_3773" data-name="Group 3773" transform="translate(3.311 223.295)">
        <path id="Path_3360" data-name="Path 3360" d="M116.819,339.284c-8.576.166-23.221-7.8-28.971-15.546-5.833-7.856,10.571-2.979,8.9-9.158s-21.919-1.607-25.66-10.447,10.862-6.8,10.281-11.334-15.7-3.6-20.561-13,8.452-4.129,6.359-8.022S48.4,251.5,55.371,248.076s22.612,13.661,27.849,15.559,6.457-9.893,13.273-4.254,1.718,30.3,9.74,33.557c5.972,2.425,3.436-8.867,10.308-6.013C128.609,291.9,120.3,339.215,116.819,339.284Z" transform="translate(-53.678 -247.624)" fill="#e6e6e6"/>
        <g id="Group_3772" data-name="Group 3772" transform="translate(0 0)" opacity="0.3">
          <path id="Path_3361" data-name="Path 3361" d="M116.819,339.284c-8.576.166-23.221-7.8-28.971-15.546-5.833-7.856,10.571-2.979,8.9-9.158s-21.919-1.607-25.66-10.447,10.862-6.8,10.281-11.334-15.7-3.6-20.561-13,8.452-4.129,6.359-8.022S48.4,251.5,55.371,248.076s22.612,13.661,27.849,15.559,6.457-9.893,13.273-4.254,1.718,30.3,9.74,33.557c5.972,2.425,3.436-8.867,10.308-6.013C128.609,291.9,120.3,339.215,116.819,339.284Z" transform="translate(-53.678 -247.624)" fill="#e6e6e6"/>
        </g>
      </g>
      <path id="Path_3362" data-name="Path 3362" d="M107.722,323.83a.538.538,0,0,0,.3-.249c.194-.374,4.9-9.477,3.852-22.986a.577.577,0,0,0-1.15.1,45.861,45.861,0,0,1-3.478,21.85A176.674,176.674,0,0,0,94.2,294.914c1.51-18.413-7.911-33.488-8.008-33.64a.573.573,0,1,0-.97.61c.1.139,8.756,14.007,7.953,31.243-10.987-18.413-21.711-29.1-21.933-29.317a.764.764,0,1,0-1.067,1.095,150.249,150.249,0,0,1,16.737,21.157,45.125,45.125,0,0,0-16.21-2.854.575.575,0,0,0,0,1.15h.014a44.016,44.016,0,0,1,17.291,3.367,179.512,179.512,0,0,1,9.325,16.044,19.375,19.375,0,0,0-16-2.813.571.571,0,0,0-.4.707.56.56,0,0,0,.707.4,18.478,18.478,0,0,1,16.9,4.087c8.41,16.931,15.656,38.337,16.626,62.861a.763.763,0,0,0,.762.734h.028a.769.769,0,0,0,.734-.79A150.943,150.943,0,0,0,107.722,323.83Z" transform="translate(-44.097 -19.169)" fill="#f5f5f5"/>
      <path id="Path_3363" data-name="Path 3363" d="M128.568,406.9c6.65-18.926,11.015-46.276,11.015-58.275,0-10.128-3.131-19.231-8.119-25.591H97.449c-4.974,6.374-8.119,15.462-8.119,25.591,0,11.985,4.364,39.348,11.015,58.275Z" transform="translate(-36.624 4.741)" fill="#e6e6e6"/>
      <path id="Path_3364" data-name="Path 3364" d="M108.048,328.282c.111.1-.332.9,1.787.333,5.237-1.4,14.257-4.6,16.224-10.364,2.8-8.23-8.3-4.087-8.355-8.133s13.024-4.808,13.744-10.835-7.787-2.231-8.216-5.071,9.92-2.217,11.223-8.77-5.847-1.025-5.265-3.755,7.842-15.6,3.007-16.446-11.333,12.248-14.174,14.312-6.664-7.593-9.823-2.965,4.254,18.691-.042,22.057c-3.2,2.522-2.9-3.45-7.316-1.843C94.83,298.979,99.361,320.523,108.048,328.282Z" transform="translate(-33.243 -17.553)" fill="#f5f5f5"/>
      <path id="Path_3365" data-name="Path 3365" d="M119.41,289.971a18.045,18.045,0,0,0-4.489,1.469,34.581,34.581,0,0,1,2.8-4.572.395.395,0,1,0-.623-.485,47.088,47.088,0,0,0-5.487,10.253,35.227,35.227,0,0,1,.457-19.286.294.294,0,1,0-.554-.194c-.042.1-3.478,10.017-.249,20.367-.429,1.094-.845,2.272-1.261,3.519A74.626,74.626,0,0,0,107,314.73a27.338,27.338,0,0,1-4.5-11.68.294.294,0,0,0-.582.083,27.608,27.608,0,0,0,4.974,12.456,92.027,92.027,0,0,0,1.067,27.405.391.391,0,0,0,.457.319c.014,0,.028-.014.042-.014a.4.4,0,0,0,.277-.443,87.27,87.27,0,0,1,.222-34.652,10.908,10.908,0,0,1,5.888-4.3.307.307,0,0,0,.208-.36.3.3,0,0,0-.36-.208,11.143,11.143,0,0,0-5.417,3.505,65.752,65.752,0,0,1,5.182-14.423,16.161,16.161,0,0,1,5.1-1.815.316.316,0,0,0,.236-.346A.33.33,0,0,0,119.41,289.971Z" transform="translate(-31.775 -13.02)" fill="#e0e0e0"/>
      <rect id="Rectangle_199" data-name="Rectangle 199" width="89.878" height="119.584" transform="translate(167.69 292.053)" fill="#f5f5f5"/>
      <rect id="Rectangle_200" data-name="Rectangle 200" width="17.139" height="119.584" transform="translate(257.568 292.053)" fill="#e6e6e6"/>
      <rect id="Rectangle_201" data-name="Rectangle 201" width="77.741" height="29.04" transform="translate(173.994 300.934)" fill="#fafafa"/>
      <path id="Path_3366" data-name="Path 3366" d="M197.61,303.66l.346,3.866a2.473,2.473,0,0,0,2.466,2.258H215.1a2.473,2.473,0,0,0,2.466-2.258l.332-3.866Z" transform="translate(5.12 -2.726)" fill="#ebebeb"/>
      <rect id="Rectangle_202" data-name="Rectangle 202" width="77.741" height="29.04" transform="translate(173.994 333.147)" fill="#fafafa"/>
      <path id="Path_3367" data-name="Path 3367" d="M197.61,326.91l.346,3.866a2.473,2.473,0,0,0,2.466,2.258H215.1a2.473,2.473,0,0,0,2.466-2.258l.332-3.866Z" transform="translate(5.12 6.237)" fill="#ebebeb"/>
      <rect id="Rectangle_203" data-name="Rectangle 203" width="77.741" height="29.04" transform="translate(173.994 365.36)" fill="#fafafa"/>
      <path id="Path_3368" data-name="Path 3368" d="M197.61,350.16l.346,3.866a2.473,2.473,0,0,0,2.466,2.258H215.1a2.473,2.473,0,0,0,2.466-2.258l.332-3.866Z" transform="translate(5.12 15.2)" fill="#ebebeb"/>
      <ellipse id="_x3C_Path_x3E__1_" cx="268.637" cy="15.684" rx="268.637" ry="15.684" transform="translate(0 435.897)" fill="#f5f5f5"/>
      <g id="Group_3778" data-name="Group 3778" transform="translate(95.505 0)">
        <path id="Path_3369" data-name="Path 3369" d="M481.077,356.732H125.6a5.381,5.381,0,0,1-5.376-5.376V91.836A5.381,5.381,0,0,1,125.6,86.46H481.077a5.381,5.381,0,0,1,5.376,5.376V351.343A5.375,5.375,0,0,1,481.077,356.732Z" transform="translate(-120.22 -86.46)" fill="#fff" stroke="#d8d8d8" stroke-width="1"/>
        <path id="Path_3370" data-name="Path 3370" d="M481.077,356.732H125.6a5.381,5.381,0,0,1-5.376-5.376V91.836A5.381,5.381,0,0,1,125.6,86.46H481.077a5.381,5.381,0,0,1,5.376,5.376V351.343A5.375,5.375,0,0,1,481.077,356.732Z" transform="translate(-120.22 -86.46)" fill="#fff" opacity="0.6"/>
      </g>
      <path id="Path_3371" data-name="Path 3371" d="M191.588,86.46h-64.51a6.856,6.856,0,0,0-6.858,6.858V349.874a6.856,6.856,0,0,0,6.858,6.858h64.51Z" transform="translate(-24.716 -86.46)" fill="#fff" opacity="0.3"/>
      <path id="Path_3372" data-name="Path 3372" d="M479.609,86.46H127.078a6.856,6.856,0,0,0-6.858,6.858v17.873H486.453V93.318A6.853,6.853,0,0,0,479.609,86.46Z" transform="translate(-24.716 -86.46)" fill="#b4b4b4"/>
      <g id="Group_3779" data-name="Group 3779" transform="translate(106.283 6.401)">
        <path id="Path_3373" data-name="Path 3373" d="M129.191,93.463a1.192,1.192,0,0,1,0-2.383h9.435a1.192,1.192,0,1,1,0,2.383Z" transform="translate(-128 -91.08)" fill="#fff"/>
        <path id="Path_3374" data-name="Path 3374" d="M129.191,96.913a1.192,1.192,0,0,1,0-2.383h9.435a1.192,1.192,0,1,1,0,2.383Z" transform="translate(-128 -89.75)" fill="#fff"/>
        <path id="Path_3375" data-name="Path 3375" d="M129.191,100.373a1.192,1.192,0,0,1,0-2.383h9.435a1.192,1.192,0,1,1,0,2.383Z" transform="translate(-128 -88.416)" fill="#fff"/>
      </g>
      <path id="Path_3376" data-name="Path 3376" d="M180.83,118.824v79.459a3.033,3.033,0,0,0,3.034,3.034h24.8a3.033,3.033,0,0,0,3.034-3.034V118.824a3.033,3.033,0,0,0-3.034-3.034h-24.8A3.033,3.033,0,0,0,180.83,118.824Z" transform="translate(-1.348 -75.153)" fill="#d4d4d4" opacity="0.7"/>
      <path id="Path_3377" data-name="Path 3377" d="M208.68,118.824v79.459a3.033,3.033,0,0,0,3.034,3.034h24.8a3.033,3.033,0,0,0,3.034-3.034V118.824a3.033,3.033,0,0,0-3.034-3.034h-24.8A3.033,3.033,0,0,0,208.68,118.824Z" transform="translate(9.388 -75.153)" fill="#d4d4d4" opacity="0.4"/>
      <path id="Path_3378" data-name="Path 3378" d="M236.53,118.824v79.459a3.033,3.033,0,0,0,3.034,3.034h24.8a3.033,3.033,0,0,0,3.034-3.034V118.824a3.033,3.033,0,0,0-3.034-3.034h-24.8A3.033,3.033,0,0,0,236.53,118.824Z" transform="translate(20.124 -75.153)" fill="#d4d4d4" opacity="0.7"/>
      <path id="Path_3379" data-name="Path 3379" d="M264.38,118.824v79.459a3.033,3.033,0,0,0,3.034,3.034h24.8a3.033,3.033,0,0,0,3.034-3.034V118.824a3.033,3.033,0,0,0-3.034-3.034h-24.8A3.033,3.033,0,0,0,264.38,118.824Z" transform="translate(30.859 -75.153)" fill="#d4d4d4" opacity="0.4"/>
      <path id="Path_3380" data-name="Path 3380" d="M292.23,118.824v79.459a3.033,3.033,0,0,0,3.034,3.034h24.8a3.033,3.033,0,0,0,3.034-3.034V118.824a3.033,3.033,0,0,0-3.034-3.034h-24.8A3.033,3.033,0,0,0,292.23,118.824Z" transform="translate(41.599 -75.153)" fill="#d4d4d4" opacity="0.7"/>
      <path id="Path_3381" data-name="Path 3381" d="M320.08,118.824v79.459a3.033,3.033,0,0,0,3.034,3.034h24.8a3.033,3.033,0,0,0,3.034-3.034V118.824a3.033,3.033,0,0,0-3.034-3.034h-24.8A3.033,3.033,0,0,0,320.08,118.824Z" transform="translate(52.334 -75.153)" fill="#d4d4d4" opacity="0.4"/>
      <path id="Path_3382" data-name="Path 3382" d="M347.93,118.824v79.459a3.033,3.033,0,0,0,3.034,3.034h24.8a3.033,3.033,0,0,0,3.034-3.034V118.824a3.033,3.033,0,0,0-3.034-3.034h-24.8A3.042,3.042,0,0,0,347.93,118.824Z" transform="translate(63.07 -75.153)" fill="#c4c4c4" opacity="0.7"/>
      <path id="Path_3383" data-name="Path 3383" d="M240.679,216.864h-1.094v1.413H238.06v-1.413h-3.63v-1.053l3.187-4.281h1.635l-2.951,4.06h1.815v-1.261H239.6v1.261h1.094v1.275Z" transform="translate(19.315 -38.244)"/>
      <path id="Path_3384" data-name="Path 3384" d="M243.757,214.637a1.866,1.866,0,0,1,.679,1.524,2.069,2.069,0,0,1-.3,1.122,2.2,2.2,0,0,1-.942.817,3.483,3.483,0,0,1-1.552.3,4.807,4.807,0,0,1-1.4-.194,3.69,3.69,0,0,1-1.178-.54l.623-1.192a2.8,2.8,0,0,0,.887.443,3.23,3.23,0,0,0,1.025.152,1.643,1.643,0,0,0,.928-.235.749.749,0,0,0,.332-.651.7.7,0,0,0-.346-.651,2.372,2.372,0,0,0-1.219-.222h-1.732l.346-3.8h4.115v1.261h-2.813l-.111,1.289h.554A3.268,3.268,0,0,1,243.757,214.637Z" transform="translate(21.101 -38.248)"/>
      <path id="Path_3385" data-name="Path 3385" d="M243.721,214.688a1.946,1.946,0,0,1-.471-1.358,1.907,1.907,0,0,1,.471-1.358,1.611,1.611,0,0,1,1.205-.513,1.542,1.542,0,0,1,1.205.513,1.94,1.94,0,0,1,.457,1.358,1.963,1.963,0,0,1-.457,1.358,1.568,1.568,0,0,1-1.205.513A1.522,1.522,0,0,1,243.721,214.688Zm1.718-.554a1.761,1.761,0,0,0,0-1.607.58.58,0,0,0-.513-.263.609.609,0,0,0-.513.277,1.7,1.7,0,0,0,0,1.579.609.609,0,0,0,.513.277A.551.551,0,0,0,245.439,214.134Zm3.505-2.577h1.15l-4.614,6.747h-1.15Zm-.3,6.6a1.6,1.6,0,0,1-.6-.651,2.432,2.432,0,0,1,0-1.967,1.507,1.507,0,0,1,.6-.651,1.621,1.621,0,0,1,.859-.222,1.523,1.523,0,0,1,1.205.513,1.946,1.946,0,0,1,.471,1.358,1.908,1.908,0,0,1-.471,1.358,1.611,1.611,0,0,1-1.205.513A1.822,1.822,0,0,1,248.64,218.152Zm1.385-.831a1.382,1.382,0,0,0,.194-.79,1.281,1.281,0,0,0-.194-.79.592.592,0,0,0-.513-.277.63.63,0,0,0-.513.263,1.761,1.761,0,0,0,0,1.607.6.6,0,0,0,.513.263A.609.609,0,0,0,250.025,217.321Z" transform="translate(22.714 -38.271)"/>
      <path id="Path_3386" data-name="Path 3386" d="M315.744,214.336a2.082,2.082,0,0,1,.845.734,1.99,1.99,0,0,1,.3,1.108,2.173,2.173,0,0,1-.333,1.192,2.08,2.08,0,0,1-.928.79,3.044,3.044,0,0,1-1.3.277,2.85,2.85,0,0,1-2.217-.873,3.558,3.558,0,0,1-.8-2.48,4.126,4.126,0,0,1,.43-1.967,3.076,3.076,0,0,1,1.205-1.247,3.763,3.763,0,0,1,1.8-.429,4.272,4.272,0,0,1,1.039.125,2.768,2.768,0,0,1,.845.346l-.582,1.15a2.247,2.247,0,0,0-1.261-.333,1.842,1.842,0,0,0-1.358.5,2.108,2.108,0,0,0-.54,1.455,2.244,2.244,0,0,1,1.663-.6A2.59,2.59,0,0,1,315.744,214.336Zm-.679,2.66a.933.933,0,0,0,.319-.734.891.891,0,0,0-.319-.734,1.379,1.379,0,0,0-1.676.014.976.976,0,0,0-.014,1.455,1.225,1.225,0,0,0,.873.277A1.32,1.32,0,0,0,315.065,217Z" transform="translate(48.953 -38.278)"/>
      <path id="Path_3387" data-name="Path 3387" d="M320.251,214.637a1.866,1.866,0,0,1,.679,1.524,2.068,2.068,0,0,1-.3,1.122,2.2,2.2,0,0,1-.942.817,3.506,3.506,0,0,1-1.566.3,4.807,4.807,0,0,1-1.4-.194,3.689,3.689,0,0,1-1.178-.54l.623-1.192a2.805,2.805,0,0,0,.887.443,3.232,3.232,0,0,0,1.025.152,1.642,1.642,0,0,0,.928-.235.749.749,0,0,0,.333-.651.687.687,0,0,0-.36-.651,2.372,2.372,0,0,0-1.219-.222h-1.732l.346-3.8h4.115v1.261h-2.813l-.111,1.289h.554A3.329,3.329,0,0,1,320.251,214.637Z" transform="translate(50.582 -38.248)"/>
      <path id="Path_3388" data-name="Path 3388" d="M320.2,214.688a1.884,1.884,0,0,1-.471-1.358,1.907,1.907,0,0,1,.471-1.358,1.61,1.61,0,0,1,1.205-.513,1.523,1.523,0,0,1,1.206.513,1.941,1.941,0,0,1,.457,1.358,1.964,1.964,0,0,1-.457,1.358,1.674,1.674,0,0,1-2.411,0Zm1.732-.554a1.4,1.4,0,0,0,.194-.8,1.3,1.3,0,0,0-.194-.8.58.58,0,0,0-.513-.263.609.609,0,0,0-.513.277,1.7,1.7,0,0,0,0,1.579.609.609,0,0,0,.513.277A.551.551,0,0,0,321.933,214.134Zm3.505-2.577h1.15l-4.614,6.747h-1.15Zm-.3,6.6a1.6,1.6,0,0,1-.6-.651,2.433,2.433,0,0,1,0-1.967,1.508,1.508,0,0,1,.6-.651,1.621,1.621,0,0,1,.859-.222,1.522,1.522,0,0,1,1.205.513,1.885,1.885,0,0,1,.471,1.358,1.907,1.907,0,0,1-.471,1.358,1.61,1.61,0,0,1-1.205.513A1.777,1.777,0,0,1,325.134,218.152Zm1.386-.831a1.383,1.383,0,0,0,.194-.79,1.281,1.281,0,0,0-.194-.79.592.592,0,0,0-.513-.277.63.63,0,0,0-.513.263,1.761,1.761,0,0,0,0,1.607.6.6,0,0,0,.513.263A.609.609,0,0,0,326.519,217.321Z" transform="translate(52.199 -38.271)"/>
      <path id="Path_3389" data-name="Path 3389" d="M330.77,99.994a2.785,2.785,0,0,1-1.663.693v1.081h-.97v-1.053a5.474,5.474,0,0,1-1.358-.249,3.313,3.313,0,0,1-1.039-.527l.526-1.178a3.6,3.6,0,0,0,.859.457,4.29,4.29,0,0,0,1.011.236V97.846a9.087,9.087,0,0,1-1.164-.36,1.994,1.994,0,0,1-.79-.6,1.632,1.632,0,0,1-.318-1.039,1.832,1.832,0,0,1,.582-1.372,2.751,2.751,0,0,1,1.69-.693V92.72h.97v1.053a4.391,4.391,0,0,1,1.953.582l-.485,1.192a3.764,3.764,0,0,0-1.483-.5v1.635a6.593,6.593,0,0,1,1.136.346,2.211,2.211,0,0,1,.79.582,1.617,1.617,0,0,1,.319,1.025A1.782,1.782,0,0,1,330.77,99.994ZM327.6,96.17a1.694,1.694,0,0,0,.527.263V95.062a1,1,0,0,0-.54.277.667.667,0,0,0-.18.443A.615.615,0,0,0,327.6,96.17Zm2.023,2.993a.576.576,0,0,0,.18-.416.5.5,0,0,0-.18-.4,1.605,1.605,0,0,0-.513-.263v1.33A1.111,1.111,0,0,0,329.62,99.163Z" transform="translate(54.516 -84.046)" fill="#fff"/>
      <path id="Path_3390" data-name="Path 3390" d="M332.87,93.544v6.748H331.3v-5.5H329.96V93.53h2.91Z" transform="translate(56.142 -83.734)" fill="#fff"/>
      <path id="Path_3391" data-name="Path 3391" d="M338.057,99.057v1.275h-5.1V99.321l2.6-2.466a2.638,2.638,0,0,0,.554-.679,1.226,1.226,0,0,0,.139-.568.76.76,0,0,0-.277-.623,1.321,1.321,0,0,0-.8-.222,1.894,1.894,0,0,0-.8.166,1.412,1.412,0,0,0-.6.513l-1.136-.734a2.646,2.646,0,0,1,1.095-.914,3.641,3.641,0,0,1,1.593-.333,3.233,3.233,0,0,1,1.316.249,2.094,2.094,0,0,1,.873.693,1.819,1.819,0,0,1,.319,1.053,2.369,2.369,0,0,1-.235,1.025,3.864,3.864,0,0,1-.9,1.095l-1.552,1.469h2.91Z" transform="translate(57.176 -83.761)" fill="#fff"/>
      <path id="Path_3392" data-name="Path 3392" d="M337.323,98.723a.99.99,0,0,1,0-1.344,1.012,1.012,0,0,1,1.33,0,.857.857,0,0,1,.263.665.908.908,0,0,1-.263.679.972.972,0,0,1-1.33,0Z" transform="translate(58.88 -82.346)" fill="#fff"/>
      <path id="Path_3393" data-name="Path 3393" d="M340.219,100.027a2.753,2.753,0,0,1-1.025-1.205,4.862,4.862,0,0,1,0-3.741,2.846,2.846,0,0,1,1.025-1.205,2.753,2.753,0,0,1,4.018,1.205,4.863,4.863,0,0,1,0,3.741,2.932,2.932,0,0,1-1.025,1.205,2.9,2.9,0,0,1-2.993,0Zm2.466-1.441a3.023,3.023,0,0,0,.346-1.635,2.99,2.99,0,0,0-.346-1.635,1.084,1.084,0,0,0-.97-.527,1.107,1.107,0,0,0-.956.527,3.022,3.022,0,0,0-.346,1.635,2.991,2.991,0,0,0,.346,1.635,1.077,1.077,0,0,0,.956.527A1.057,1.057,0,0,0,342.686,98.586Z" transform="translate(59.56 -83.761)" fill="#fff"/>
      <path id="Path_3394" data-name="Path 3394" d="M348.19,94.331a3.493,3.493,0,0,1,.8,2.48,4.127,4.127,0,0,1-.429,1.967,3.076,3.076,0,0,1-1.205,1.247,3.609,3.609,0,0,1-1.8.43,4.268,4.268,0,0,1-1.039-.125,2.767,2.767,0,0,1-.845-.346l.582-1.15a2.217,2.217,0,0,0,1.261.333,1.8,1.8,0,0,0,1.358-.513,2.145,2.145,0,0,0,.54-1.469,2.284,2.284,0,0,1-1.677.61,2.578,2.578,0,0,1-1.178-.263,2.081,2.081,0,0,1-.845-.734,1.99,1.99,0,0,1-.3-1.108,2.172,2.172,0,0,1,.333-1.192,2.119,2.119,0,0,1,.914-.79,3.208,3.208,0,0,1,3.533.624Zm-1.261,2.037a.909.909,0,0,0,.319-.734.924.924,0,0,0-.319-.72,1.279,1.279,0,0,0-.859-.277,1.208,1.208,0,0,0-.817.263,1.005,1.005,0,0,0,0,1.469,1.228,1.228,0,0,0,.831.277A1.158,1.158,0,0,0,346.929,96.367Z" transform="translate(61.327 -83.773)" fill="#fff"/>
      <path id="Path_3395" data-name="Path 3395" d="M353.381,97.433a1.619,1.619,0,0,1,.263.928,1.761,1.761,0,0,1-.36,1.095,2.17,2.17,0,0,1-1,.72,4.614,4.614,0,0,1-2.993,0,2.272,2.272,0,0,1-1-.72,1.778,1.778,0,0,1-.346-1.095,1.589,1.589,0,0,1,.263-.928,1.861,1.861,0,0,1,.762-.651,1.672,1.672,0,0,1-.582-.582,1.544,1.544,0,0,1-.208-.8,1.653,1.653,0,0,1,.332-1.025,2.068,2.068,0,0,1,.914-.665,3.992,3.992,0,0,1,2.7,0,2.142,2.142,0,0,1,.928.665A1.654,1.654,0,0,1,353.4,95.4a1.543,1.543,0,0,1-.208.8,1.67,1.67,0,0,1-.582.582A1.655,1.655,0,0,1,353.381,97.433Zm-1.649,1.593a.894.894,0,0,0,0-1.413,1.45,1.45,0,0,0-.928-.263,1.409,1.409,0,0,0-.914.263.867.867,0,0,0-.333.707.831.831,0,0,0,.333.707,1.409,1.409,0,0,0,.914.263A1.477,1.477,0,0,0,351.732,99.026Zm-1.69-4.2a.811.811,0,0,0-.014,1.233,1.161,1.161,0,0,0,.762.222,1.229,1.229,0,0,0,.776-.222.724.724,0,0,0,.291-.61.75.75,0,0,0-.291-.623,1.2,1.2,0,0,0-.776-.222A1.172,1.172,0,0,0,350.042,94.828Z" transform="translate(63.079 -83.758)" fill="#fff"/>
      <path id="Path_3396" data-name="Path 3396" d="M352.883,98.723a.989.989,0,0,1,0-1.344,1.011,1.011,0,0,1,1.33,0,.857.857,0,0,1,.263.665.908.908,0,0,1-.263.679.972.972,0,0,1-1.33,0Z" transform="translate(64.88 -82.346)" fill="#fff"/>
      <path id="Path_3397" data-name="Path 3397" d="M358.977,96.647a1.865,1.865,0,0,1,.679,1.524,2.069,2.069,0,0,1-.3,1.122,2.206,2.206,0,0,1-.942.817,3.482,3.482,0,0,1-1.552.3,4.808,4.808,0,0,1-1.4-.194,3.689,3.689,0,0,1-1.178-.54l.624-1.192a2.8,2.8,0,0,0,.887.443,3.229,3.229,0,0,0,1.025.152,1.642,1.642,0,0,0,.928-.236.749.749,0,0,0,.333-.651.7.7,0,0,0-.346-.651,2.371,2.371,0,0,0-1.219-.222h-1.732l.346-3.8h4.115v1.261h-2.813l-.111,1.289h.554A3.3,3.3,0,0,1,358.977,96.647Z" transform="translate(65.52 -83.734)" fill="#fff"/>
      <path id="Path_3398" data-name="Path 3398" d="M360.019,100.027a2.753,2.753,0,0,1-1.025-1.205,4.863,4.863,0,0,1,0-3.741,2.845,2.845,0,0,1,1.025-1.205,2.753,2.753,0,0,1,4.018,1.205,4.862,4.862,0,0,1,0,3.741,2.846,2.846,0,0,1-1.025,1.205,2.766,2.766,0,0,1-1.5.416A2.7,2.7,0,0,1,360.019,100.027Zm2.466-1.441a3.021,3.021,0,0,0,.346-1.635,2.989,2.989,0,0,0-.346-1.635,1.084,1.084,0,0,0-.97-.527,1.107,1.107,0,0,0-.956.527,3.022,3.022,0,0,0-.346,1.635,2.99,2.99,0,0,0,.346,1.635,1.144,1.144,0,0,0,1.926,0Z" transform="translate(67.191 -83.761)" fill="#fff"/>
      <path id="Path_3399" data-name="Path 3399" d="M365.989,93.544v6.748h-1.566v-5.5H363.08V93.53h2.909Z" transform="translate(68.91 -83.734)" fill="#fff"/>
      <path id="Path_3400" data-name="Path 3400" d="M366.263,98.723a.99.99,0,0,1,0-1.344,1.011,1.011,0,0,1,1.33,0,.857.857,0,0,1,.263.665.908.908,0,0,1-.263.679.972.972,0,0,1-1.33,0Z" transform="translate(70.037 -82.346)" fill="#fff"/>
      <path id="Path_3401" data-name="Path 3401" d="M369.159,100.027a2.754,2.754,0,0,1-1.025-1.205,4.863,4.863,0,0,1,0-3.741,2.848,2.848,0,0,1,1.025-1.205,2.754,2.754,0,0,1,4.018,1.205,4.863,4.863,0,0,1,0,3.741,2.845,2.845,0,0,1-1.025,1.205,2.9,2.9,0,0,1-2.993,0Zm2.466-1.441a3.023,3.023,0,0,0,.346-1.635,2.991,2.991,0,0,0-.346-1.635,1.084,1.084,0,0,0-.97-.527,1.107,1.107,0,0,0-.956.527,3.022,3.022,0,0,0-.346,1.635,2.99,2.99,0,0,0,.346,1.635,1.077,1.077,0,0,0,.956.527A1.057,1.057,0,0,0,371.626,98.586Z" transform="translate(70.716 -83.761)" fill="#fff"/>
      <path id="Path_3402" data-name="Path 3402" d="M373.889,100.027a2.753,2.753,0,0,1-1.025-1.205,4.862,4.862,0,0,1,0-3.741,2.846,2.846,0,0,1,1.025-1.205,2.754,2.754,0,0,1,4.018,1.205,4.864,4.864,0,0,1,0,3.741,2.846,2.846,0,0,1-1.025,1.205,2.9,2.9,0,0,1-2.993,0Zm2.466-1.441a3.023,3.023,0,0,0,.346-1.635,2.991,2.991,0,0,0-.346-1.635,1.084,1.084,0,0,0-.97-.527,1.107,1.107,0,0,0-.956.527,3.021,3.021,0,0,0-.346,1.635,2.989,2.989,0,0,0,.346,1.635,1.077,1.077,0,0,0,.956.527A1.057,1.057,0,0,0,376.356,98.586Z" transform="translate(72.538 -83.761)" fill="#fff"/>
      <path id="Path_3403" data-name="Path 3403" d="M190.69,185.244v6.747h-1.566v-5.5H187.78V185.23h2.91Z" transform="translate(1.33 -48.383)"/>
      <path id="Path_3404" data-name="Path 3404" d="M191.04,185.24H194.1a4.3,4.3,0,0,1,1.94.416,3.2,3.2,0,0,1,1.316,1.178,3.574,3.574,0,0,1,0,3.547,3.106,3.106,0,0,1-1.316,1.178,4.341,4.341,0,0,1-1.94.416H191.04Zm2.979,5.473a2.287,2.287,0,0,0,1.621-.568,2.21,2.21,0,0,0,0-3.048,2.288,2.288,0,0,0-1.621-.568h-1.427v4.184Z" transform="translate(2.586 -48.379)"/>
      <path id="Path_3405" data-name="Path 3405" d="M217.37,185.244v6.747H215.8v-5.5H214.46V185.23h2.91Z" transform="translate(11.615 -48.383)"/>
      <path id="Path_3406" data-name="Path 3406" d="M228.079,185.24l-2.2,6.747H224.2l-1.482-4.572-1.538,4.572h-1.663L217.3,185.24h1.621l1.524,4.752,1.593-4.752h1.441l1.538,4.78,1.566-4.78Z" transform="translate(12.712 -48.379)"/>
      <path id="Path_3407" data-name="Path 3407" d="M245.94,185.244v6.747h-1.566v-5.5H243.03V185.23h2.91Z" transform="translate(22.63 -48.383)"/>
      <path id="Path_3408" data-name="Path 3408" d="M252.432,192l-.014-4.046-1.981,3.339h-.707l-1.981-3.256V192H246.28V185.25h1.289l2.522,4.2,2.494-4.2h1.288l.014,6.747Z" transform="translate(23.884 -48.375)"/>
      <path id="Path_3409" data-name="Path 3409" d="M286.006,197.675H272.012a5.541,5.541,0,0,1-5.542-5.542v-4.35a5.541,5.541,0,0,1,5.542-5.542h13.994a5.541,5.541,0,0,1,5.542,5.542v4.35A5.541,5.541,0,0,1,286.006,197.675Z" transform="translate(31.665 -49.535)" fill="#dcdcdc"/>
      <g id="Group_3787" data-name="Group 3787" transform="translate(303.206 136.833)">
        <path id="Path_3410" data-name="Path 3410" d="M275.035,188.656a1.816,1.816,0,0,1,.471,1.275,1.994,1.994,0,0,1-.3,1.081,2.068,2.068,0,0,1-.942.79,3.684,3.684,0,0,1-1.552.3,4.808,4.808,0,0,1-1.4-.194,3.687,3.687,0,0,1-1.178-.54l.61-1.191a2.807,2.807,0,0,0,.887.443,3.254,3.254,0,0,0,1.039.152,1.646,1.646,0,0,0,.928-.222.725.725,0,0,0,.332-.637c0-.554-.416-.831-1.261-.831h-.707v-1.039l1.385-1.566h-2.868V185.22H275.2v1.011l-1.524,1.732A2.691,2.691,0,0,1,275.035,188.656Z" transform="translate(-270.13 -185.22)" fill="#fff"/>
        <path id="Path_3411" data-name="Path 3411" d="M280.982,192l-.014-4.046-1.981,3.339h-.707l-1.981-3.256V192H274.83V185.25h1.289l2.522,4.2,2.494-4.2h1.288l.014,6.747Z" transform="translate(-268.318 -185.208)" fill="#fff"/>
      </g>
      <path id="Path_3412" data-name="Path 3412" d="M302.534,188.056a2.082,2.082,0,0,1,.845.734,1.989,1.989,0,0,1,.3,1.108,2.173,2.173,0,0,1-.332,1.192,2.08,2.08,0,0,1-.928.79,3.044,3.044,0,0,1-1.3.277,2.851,2.851,0,0,1-2.217-.873,3.493,3.493,0,0,1-.8-2.48,4.126,4.126,0,0,1,.43-1.967,3.076,3.076,0,0,1,1.205-1.247,3.761,3.761,0,0,1,1.8-.429,4.269,4.269,0,0,1,1.039.125,2.769,2.769,0,0,1,.845.346l-.582,1.15a2.247,2.247,0,0,0-1.261-.333,1.842,1.842,0,0,0-1.358.5,2.108,2.108,0,0,0-.54,1.455,2.244,2.244,0,0,1,1.663-.6A2.424,2.424,0,0,1,302.534,188.056Zm-.679,2.646a1.005,1.005,0,0,0,0-1.469,1.379,1.379,0,0,0-1.676.014.975.975,0,0,0-.014,1.455,1.426,1.426,0,0,0,1.69,0Z" transform="translate(43.859 -48.41)"/>
      <path id="Path_3413" data-name="Path 3413" d="M308.992,192l-.014-4.046L307,191.291h-.707l-1.981-3.256V192H302.84V185.25h1.289l2.522,4.2,2.494-4.2h1.288l.014,6.747Z" transform="translate(45.686 -48.375)"/>
      <path id="Path_3414" data-name="Path 3414" d="M330.469,185.244v6.747H328.9v-5.5H327.56V185.23h2.909Z" transform="translate(55.217 -48.383)"/>
      <path id="Path_3415" data-name="Path 3415" d="M334.314,189.6V192h-1.566v-2.411l-2.619-4.337h1.663l1.8,3.007,1.8-3.007h1.538Z" transform="translate(56.209 -48.375)"/>
      <path id="Path_3416" data-name="Path 3416" d="M359.595,188.656a1.815,1.815,0,0,1,.471,1.275,1.994,1.994,0,0,1-.3,1.081,2.068,2.068,0,0,1-.942.79,3.684,3.684,0,0,1-1.552.3,4.809,4.809,0,0,1-1.4-.194,3.685,3.685,0,0,1-1.178-.54l.61-1.191a2.8,2.8,0,0,0,.887.443,3.254,3.254,0,0,0,1.039.152,1.645,1.645,0,0,0,.928-.222.725.725,0,0,0,.332-.637c0-.554-.416-.831-1.261-.831h-.721v-1.039l1.385-1.566h-2.868V185.22h4.725v1.011l-1.524,1.732A2.681,2.681,0,0,1,359.595,188.656Z" transform="translate(65.676 -48.387)"/>
      <path id="Path_3417" data-name="Path 3417" d="M362.824,189.6V192h-1.565v-2.411l-2.619-4.337H360.3l1.8,3.007,1.8-3.007h1.538Z" transform="translate(67.2 -48.375)"/>
      <path id="Path_3418" data-name="Path 3418" d="M178.046,171.776h0a1.926,1.926,0,0,1,1.621-2.189l36.439-5.473L254.956,148,294,142.791,332.309,156.2l38.268-16.585h38.67l36.467-12.151a1.928,1.928,0,0,1,2.439,1.219h0a1.928,1.928,0,0,1-1.219,2.439l-37.049,12.359h-38.5l-38.919,16.862L293.6,146.74l-37.88,5.043L216.909,167.9l-36.675,5.5A1.941,1.941,0,0,1,178.046,171.776Z" transform="translate(-2.43 -70.689)" fill="#191919"/>
      <path id="Path_3419" data-name="Path 3419" d="M216.206,182.575l-37.769-30.842a1.933,1.933,0,0,1-.277-2.716h0a1.933,1.933,0,0,1,2.716-.277l36.411,29.747,37.547-6.263,38.42-14.091,38.753-18.7,38.961-10.391,38.517,5.14,36.328-12.719a1.926,1.926,0,0,1,2.452,1.178h0a1.926,1.926,0,0,1-1.178,2.452l-37.2,13.024-38.67-5.154L333.172,143.1l-38.42,18.566L255.638,175.98Z" transform="translate(-2.545 -73.008)" fill="#b2b1b1"/>
      <circle id="Ellipse_129" data-name="Ellipse 129" cx="10.502" cy="10.502" r="10.502" transform="translate(118.572 54.41) rotate(-76.714)" fill="#c2c2c2"/>
      <path id="Path_3420" data-name="Path 3420" d="M178.993,147.926h-50.71a2.135,2.135,0,0,1-2.134-2.134V135.124a2.135,2.135,0,0,1,2.134-2.134h50.71a2.135,2.135,0,0,1,2.134,2.134v10.669A2.135,2.135,0,0,1,178.993,147.926Z" transform="translate(-22.429 -68.522)" fill="#fff" stroke="#c5c5c5" stroke-width="1" opacity="0.5"/>
      <path id="Path_3421" data-name="Path 3421" d="M132.277,141.547l-2.189,1.15.416-2.438-1.773-1.732,2.452-.36,1.095-2.217,1.095,2.217,2.452.36-1.773,1.732.416,2.438Z" transform="translate(-21.434 -67.381)"/>
      <path id="Path_3422" data-name="Path 3422" d="M139.627,141.547l-2.189,1.15.416-2.438-1.773-1.732,2.452-.36,1.094-2.217,1.095,2.217,2.452.36-1.773,1.732.416,2.438Z" transform="translate(-18.6 -67.381)"/>
      <path id="Path_3423" data-name="Path 3423" d="M146.963,141.547l-2.189,1.15.43-2.438-1.773-1.732,2.439-.36,1.095-2.217,1.108,2.217,2.438.36-1.773,1.732.43,2.438Z" transform="translate(-15.769 -67.381)"/>
      <path id="Path_3424" data-name="Path 3424" d="M154.317,141.547l-2.189,1.15.416-2.438-1.773-1.732,2.452-.36,1.095-2.217,1.095,2.217,2.452.36-1.773,1.732.416,2.438Z" transform="translate(-12.938 -67.381)" fill="#d1d1d1" opacity="0.9"/>
      <path id="Path_3425" data-name="Path 3425" d="M161.667,141.547l-2.189,1.15.416-2.438-1.773-1.732,2.452-.36,1.094-2.217,1.095,2.217,2.452.36-1.773,1.732.416,2.438Z" transform="translate(-10.103 -67.381)" fill="#d1d1d1" opacity="0.9"/>
      <rect id="Rectangle_204" data-name="Rectangle 204" width="11.237" height="21.268" transform="translate(179.482 229.289)"/>
      <rect id="Rectangle_205" data-name="Rectangle 205" width="11.237" height="29.387" transform="translate(206.609 221.17)"/>
      <rect id="Rectangle_206" data-name="Rectangle 206" width="11.237" height="44.323" transform="translate(233.724 206.248)"/>
      <g id="Group_3798" data-name="Group 3798" transform="translate(193.046 213.702)">
        <rect id="Rectangle_207" data-name="Rectangle 207" width="11.237" height="33.488" transform="translate(0 3.381)" fill="#cbcbcb"/>
        <rect id="Rectangle_208" data-name="Rectangle 208" width="11.237" height="36.855" transform="translate(27.115 0)" fill="#cbcbcb"/>
        <rect id="Rectangle_209" data-name="Rectangle 209" width="11.237" height="35.982" transform="translate(54.243 0.873)" fill="#cbcbcb"/>
      </g>
      <rect id="Rectangle_213" data-name="Rectangle 213" width="11.237" height="48.576" transform="translate(260.854 201.98)"/>
      <path id="Path_3445" data-name="Path 3445" d="M351.418,280.816H258.81l6.276-21.268,12.9-12.206L291.55,266.13l13.564-22.168,13.564,14.7,13.564-13.827,13.564-12.594h5.611Z" transform="translate(28.714 -30.26)"/>
      <path id="Path_3446" data-name="Path 3446" d="M351.418,280.816H258.81l6.276-14.2,12.9-10.447,13.564,9.962,13.564-11.569,13.564,4.1,13.564-3.228,13.564-5.528,5.611-17.665Z" transform="translate(28.714 -30.26)" fill="#fff" opacity="0.8"/>
      <path id="Path_3447" data-name="Path 3447" d="M359.74,223.03h22.57a22.57,22.57,0,1,0-45.14,0h22.57Z" transform="translate(58.923 -42.511)" fill="#ccffbd"/>
      <path id="Path_3448" data-name="Path 3448" d="M359.74,223.03h22.57a22.57,22.57,0,1,0-45.14,0h22.57Z" transform="translate(58.923 -42.511)" fill="#c4c4c4"/>
      <path id="Path_3449" data-name="Path 3449" d="M375.7,207.069A22.572,22.572,0,0,0,337.17,223.03h22.57Z" transform="translate(58.923 -42.511)" fill="#c4c4c4"/>
      <path id="Path_3450" data-name="Path 3450" d="M341.93,207.049l15.961,15.961V200.44A22.458,22.458,0,0,0,341.93,207.049Z" transform="translate(60.756 -42.519)" opacity="0.2"/>
      <path id="Path_3451" data-name="Path 3451" d="M341.93,207.049l15.961,15.961V200.44A22.458,22.458,0,0,0,341.93,207.049Z" transform="translate(60.756 -42.519)" fill="#407bff"/>
      <path id="Path_3452" data-name="Path 3452" d="M341.93,207.049l15.961,15.961V200.44A22.458,22.458,0,0,0,341.93,207.049Z" transform="translate(60.756 -42.519)"/>
      <path id="Path_3453" data-name="Path 3453" d="M366.557,209.391l-1.621-1.621-10.211,10.184a2.27,2.27,0,0,0-.609-.125,2.355,2.355,0,1,0,2.355,2.355,2.159,2.159,0,0,0-.125-.61Z" transform="translate(64.546 -39.693)"/>
      <path id="Path_3454" data-name="Path 3454" d="M359.74,248.64h22.57a22.57,22.57,0,1,0-45.14,0h22.57Z" transform="translate(58.923 -32.638)" fill="#407bff"/>
      <path id="Path_3455" data-name="Path 3455" d="M359.74,248.64h22.57a22.57,22.57,0,1,0-45.14,0h22.57Z" transform="translate(58.923 -32.638)"/>
      <path id="Path_3456" data-name="Path 3456" d="M375.7,232.669A22.572,22.572,0,0,0,337.17,248.63h22.57Z" transform="translate(58.923 -32.642)" fill="#fff" opacity="0.7"/>
      <path id="Path_3457" data-name="Path 3457" d="M341.93,232.649l15.961,15.961V226.04A22.516,22.516,0,0,0,341.93,232.649Z" transform="translate(60.756 -32.65)" fill="#a8a8a8"/>
      <path id="Path_3459" data-name="Path 3459" d="M355.255,244.531V231.41h-2.3v13.121a2.321,2.321,0,0,0-1.205,2.023,2.355,2.355,0,0,0,4.711,0A2.267,2.267,0,0,0,355.255,244.531Z" transform="translate(64.543 -30.58)"/>
      <path id="Path_3460" data-name="Path 3460" d="M359.74,274.24h22.57a22.57,22.57,0,1,0-45.14,0h22.57Z" transform="translate(58.923 -22.769)" fill="#d9d9d9"/>
      <path id="Path_3463" data-name="Path 3463" d="M341.93,258.259l15.961,15.961V251.65A22.516,22.516,0,0,0,341.93,258.259Z" transform="translate(60.756 -22.777)" fill="#b1b1b1"/>
      <path id="Path_3465" data-name="Path 3465" d="M366.557,260.6l-1.621-1.621-10.211,10.183a2.268,2.268,0,0,0-.609-.125,2.355,2.355,0,1,0,2.355,2.356,2.159,2.159,0,0,0-.125-.61Z" transform="translate(64.546 -19.951)"/>
      <path id="Path_3466" data-name="Path 3466" d="M380.872,102.86l-15.171.166a3.794,3.794,0,0,0-3.741,3.81l.139,12.691a3.785,3.785,0,0,0,3.81,3.741l4.392-.028,1.9,2.937a1.6,1.6,0,0,0,2.716-.042l1.8-3.007,4.364-.028a3.767,3.767,0,0,0,3.741-3.81l-.139-12.664A3.764,3.764,0,0,0,380.872,102.86Z" transform="translate(68.48 -80.138)" fill="#070707"/>
      <g id="Group_3805" data-name="Group 3805" transform="translate(434.442 30.883)">
        <path id="Path_3467" data-name="Path 3467" d="M368.092,110.866a1.45,1.45,0,0,1,.831,1.344,1.536,1.536,0,0,1-.249.873,1.642,1.642,0,0,1-.679.582,2.135,2.135,0,0,1-.942.208,2.069,2.069,0,0,1-1.621-.637,2.6,2.6,0,0,1-.582-1.815,3.113,3.113,0,0,1,.319-1.441,2.172,2.172,0,0,1,.887-.914,2.679,2.679,0,0,1,1.316-.3,3.474,3.474,0,0,1,.762.083,1.96,1.96,0,0,1,.624.249l-.416.845a1.626,1.626,0,0,0-.928-.249,1.348,1.348,0,0,0-1,.374,1.56,1.56,0,0,0-.4,1.067,1.667,1.667,0,0,1,1.219-.443A1.629,1.629,0,0,1,368.092,110.866Zm-.5,1.94a.738.738,0,0,0,0-1.081,1.026,1.026,0,0,0-1.219.014.65.65,0,0,0-.236.526.673.673,0,0,0,.236.527.929.929,0,0,0,.637.208A.893.893,0,0,0,367.593,112.806Z" transform="translate(-364.85 -108.746)" fill="#fff"/>
        <path id="Path_3468" data-name="Path 3468" d="M369.125,113.558a2.06,2.06,0,0,1-.748-.887,3.532,3.532,0,0,1,0-2.743,1.944,1.944,0,0,1,.748-.873,1.974,1.974,0,0,1,1.094-.3,1.943,1.943,0,0,1,1.095.3,2.1,2.1,0,0,1,.748.873,3.533,3.533,0,0,1,0,2.743,2.06,2.06,0,0,1-.748.887,1.943,1.943,0,0,1-1.095.3A2.06,2.06,0,0,1,369.125,113.558Zm1.8-1.053a2.287,2.287,0,0,0,.263-1.205,2.161,2.161,0,0,0-.263-1.205.8.8,0,0,0-.707-.388.815.815,0,0,0-.707.388,2.287,2.287,0,0,0-.263,1.205,2.161,2.161,0,0,0,.263,1.205.838.838,0,0,0,1.413,0Z" transform="translate(-363.597 -108.75)" fill="#fff"/>
        <path id="Path_3469" data-name="Path 3469" d="M371.846,111.129a1.453,1.453,0,0,1-.346-1,1.389,1.389,0,0,1,.346-1,1.141,1.141,0,0,1,.887-.374,1.162,1.162,0,0,1,.887.374,1.453,1.453,0,0,1,.346,1,1.39,1.39,0,0,1-.346,1,1.141,1.141,0,0,1-.887.374A1.243,1.243,0,0,1,371.846,111.129Zm1.261-.416a1.006,1.006,0,0,0,.139-.582.949.949,0,0,0-.139-.582.426.426,0,0,0-.374-.194.44.44,0,0,0-.374.208,1.293,1.293,0,0,0,0,1.164.426.426,0,0,0,.374.194A.44.44,0,0,0,373.107,110.714Zm2.563-1.884h.845l-3.381,4.946h-.845Zm-.222,4.835a1.092,1.092,0,0,1-.43-.471,1.779,1.779,0,0,1,0-1.441,1.092,1.092,0,0,1,.43-.471,1.214,1.214,0,0,1,.637-.166,1.162,1.162,0,0,1,.887.374,1.453,1.453,0,0,1,.346,1,1.39,1.39,0,0,1-.346,1,1.162,1.162,0,0,1-.887.374A1.631,1.631,0,0,1,375.449,113.665Zm1.011-.624a1.291,1.291,0,0,0,0-1.164.44.44,0,0,0-.374-.208.46.46,0,0,0-.374.194,1,1,0,0,0-.139.582.948.948,0,0,0,.139.582.426.426,0,0,0,.374.194A.344.344,0,0,0,376.46,113.041Z" transform="translate(-362.286 -108.746)" fill="#fff"/>
      </g>
      <path id="Path_3470" data-name="Path 3470" d="M365.949,157.462l15.171-.166a3.794,3.794,0,0,0,3.741-3.81l-.139-12.691a3.785,3.785,0,0,0-3.81-3.741l-4.392.028-1.9-2.937a1.6,1.6,0,0,0-2.715.042l-1.8,3.007-4.364.028A3.767,3.767,0,0,0,362,141.03l.139,12.664A3.764,3.764,0,0,0,365.949,157.462Z" transform="translate(68.495 -68.36)" fill="#9b9b9b"/>
      <g id="Group_3807" data-name="Group 3807" transform="translate(434.401 77.312)">
        <path id="Path_3471" data-name="Path 3471" d="M368.256,144.582a1.385,1.385,0,0,1,.5,1.122,1.477,1.477,0,0,1-.222.817,1.56,1.56,0,0,1-.693.6,2.558,2.558,0,0,1-1.136.222,3.66,3.66,0,0,1-1.025-.139,2.889,2.889,0,0,1-.859-.388l.457-.873a2.4,2.4,0,0,0,.651.333,2.361,2.361,0,0,0,.762.111,1.2,1.2,0,0,0,.679-.166.544.544,0,0,0,.249-.471.534.534,0,0,0-.263-.485,1.722,1.722,0,0,0-.887-.166h-1.261l.249-2.785h3.02v.914h-2.064l-.083.942h.4A2.354,2.354,0,0,1,368.256,144.582Z" transform="translate(-364.82 -142.241)" fill="#fff"/>
        <path id="Path_3472" data-name="Path 3472" d="M369.015,147.054a2.1,2.1,0,0,1-.748-.873,3.534,3.534,0,0,1,0-2.743,1.944,1.944,0,0,1,.748-.873,1.976,1.976,0,0,1,1.095-.3,1.944,1.944,0,0,1,1.095.3,2.1,2.1,0,0,1,.748.873,3.533,3.533,0,0,1,0,2.743,1.964,1.964,0,0,1-1.843,1.178A1.976,1.976,0,0,1,369.015,147.054Zm1.8-1.053a2.287,2.287,0,0,0,.263-1.205,2.161,2.161,0,0,0-.263-1.205.784.784,0,0,0-.707-.388.815.815,0,0,0-.707.388,2.286,2.286,0,0,0-.263,1.205A2.161,2.161,0,0,0,369.4,146a.837.837,0,0,0,1.413,0Z" transform="translate(-363.598 -142.26)" fill="#fff"/>
        <path id="Path_3473" data-name="Path 3473" d="M371.736,144.629a1.453,1.453,0,0,1-.346-1,1.39,1.39,0,0,1,.346-1,1.141,1.141,0,0,1,.887-.374,1.161,1.161,0,0,1,.887.374,1.453,1.453,0,0,1,.346,1,1.39,1.39,0,0,1-.346,1,1.141,1.141,0,0,1-.887.374A1.212,1.212,0,0,1,371.736,144.629Zm1.261-.416a1.006,1.006,0,0,0,.139-.582.949.949,0,0,0-.139-.582.426.426,0,0,0-.374-.194.44.44,0,0,0-.374.208,1.292,1.292,0,0,0,0,1.164.44.44,0,0,0,.374.208A.449.449,0,0,0,373,144.214Zm2.577-1.884h.845l-3.381,4.946h-.845Zm-.222,4.835a1.094,1.094,0,0,1-.43-.471,1.78,1.78,0,0,1,0-1.441,1.094,1.094,0,0,1,.43-.471,1.214,1.214,0,0,1,.637-.166,1.162,1.162,0,0,1,.887.374,1.453,1.453,0,0,1,.346,1,1.39,1.39,0,0,1-.346,1,1.162,1.162,0,0,1-.887.374A1.5,1.5,0,0,1,375.353,147.165Zm1.011-.624a1.291,1.291,0,0,0,0-1.164.44.44,0,0,0-.374-.208.46.46,0,0,0-.374.194,1.006,1.006,0,0,0-.139.582.95.95,0,0,0,.139.582.426.426,0,0,0,.374.194A.363.363,0,0,0,376.364,146.541Z" transform="translate(-362.287 -142.26)" fill="#fff"/>
      </g>
      <g id="Group_3809" data-name="Group 3809" transform="translate(288.396 172.649)">
        <path id="Path_3474" data-name="Path 3474" d="M261.255,214.7a1.815,1.815,0,0,1,0-3.63h56.363a1.815,1.815,0,0,1,0,3.63Z" transform="translate(-259.44 -211.07)" fill="#dcdcdc"/>
        <path id="Path_3475" data-name="Path 3475" d="M261.255,224.18a1.815,1.815,0,0,1,0-3.63h45.376a1.815,1.815,0,0,1,0,3.63Z" transform="translate(-259.44 -207.415)" fill="#dcdcdc"/>
        <path id="Path_3476" data-name="Path 3476" d="M261.255,219.44a1.815,1.815,0,0,1,0-3.63h40.734a1.815,1.815,0,0,1,0,3.63Z" transform="translate(-259.44 -209.243)" fill="#dcdcdc"/>
      </g>
      <g id="Group_3812" data-name="Group 3812" transform="translate(179.482 172.649)">
        <path id="Path_3480" data-name="Path 3480" d="M182.645,214.7a1.815,1.815,0,0,1,0-3.63h56.363a1.815,1.815,0,0,1,0,3.63Z" transform="translate(-180.83 -211.07)" fill="#dcdcdc"/>
        <path id="Path_3481" data-name="Path 3481" d="M182.645,224.18a1.815,1.815,0,0,1,0-3.63h33a1.815,1.815,0,0,1,0,3.63Z" transform="translate(-180.83 -207.415)" fill="#dcdcdc"/>
        <path id="Path_3482" data-name="Path 3482" d="M182.645,219.44a1.815,1.815,0,1,1,0-3.63h47.8a1.815,1.815,0,0,1,0,3.63Z" transform="translate(-180.83 -209.243)" fill="#dcdcdc"/>
      </g>
      <circle id="Ellipse_295" data-name="Ellipse 295" cx="10.502" cy="10.502" r="10.502" transform="translate(118.874 115.429) rotate(-76.714)" fill="#c2c2c2"/>
      <path id="Path_6782" data-name="Path 6782" d="M178.993,147.926h-50.71a2.135,2.135,0,0,1-2.134-2.134V135.124a2.135,2.135,0,0,1,2.134-2.134h50.71a2.135,2.135,0,0,1,2.134,2.134v10.669A2.135,2.135,0,0,1,178.993,147.926Z" transform="translate(-22.125 -7.502)" fill="#fff" stroke="#c5c5c5" stroke-width="1" opacity="0.5"/>
      <path id="Path_6783" data-name="Path 6783" d="M132.277,141.547l-2.189,1.15.416-2.438-1.773-1.732,2.452-.36,1.095-2.217,1.095,2.217,2.452.36-1.773,1.732.416,2.438Z" transform="translate(-21.132 -6.361)"/>
      <path id="Path_6784" data-name="Path 6784" d="M139.627,141.547l-2.189,1.15.416-2.438-1.773-1.732,2.452-.36,1.094-2.217,1.095,2.217,2.452.36-1.773,1.732.416,2.438Z" transform="translate(-18.296 -6.361)"/>
      <path id="Path_6785" data-name="Path 6785" d="M146.963,141.547l-2.189,1.15.43-2.438-1.773-1.732,2.439-.36,1.095-2.217,1.108,2.217,2.438.36-1.773,1.732.43,2.438Z" transform="translate(-15.467 -6.361)"/>
      <path id="Path_6786" data-name="Path 6786" d="M154.317,141.547l-2.189,1.15.416-2.438-1.773-1.732,2.452-.36,1.095-2.217,1.095,2.217,2.452.36-1.773,1.732.416,2.438Z" transform="translate(-12.635 -6.361)" fill="#d1d1d1" opacity="0.9"/>
      <path id="Path_6787" data-name="Path 6787" d="M161.667,141.547l-2.189,1.15.416-2.438-1.773-1.732,2.452-.36,1.094-2.217,1.095,2.217,2.452.36-1.773,1.732.416,2.438Z" transform="translate(-9.799 -6.361)" fill="#d1d1d1" opacity="0.9"/>
      <circle id="Ellipse_296" data-name="Ellipse 296" cx="10.502" cy="10.502" r="10.502" transform="translate(118.549 175.615) rotate(-76.714)" fill="#c2c2c2"/>
      <path id="Path_6788" data-name="Path 6788" d="M178.993,147.926h-50.71a2.135,2.135,0,0,1-2.134-2.134V135.124a2.135,2.135,0,0,1,2.134-2.134h50.71a2.135,2.135,0,0,1,2.134,2.134v10.669A2.135,2.135,0,0,1,178.993,147.926Z" transform="translate(-22.45 52.683)" fill="#fff" stroke="#c5c5c5" stroke-width="1" opacity="0.5"/>
      <path id="Path_6789" data-name="Path 6789" d="M132.277,141.547l-2.189,1.15.416-2.438-1.773-1.732,2.452-.36,1.095-2.217,1.095,2.217,2.452.36-1.773,1.732.416,2.438Z" transform="translate(-21.456 53.825)"/>
      <path id="Path_6790" data-name="Path 6790" d="M139.627,141.547l-2.189,1.15.416-2.438-1.773-1.732,2.452-.36,1.094-2.217,1.095,2.217,2.452.36-1.773,1.732.416,2.438Z" transform="translate(-18.621 53.825)"/>
      <path id="Path_6791" data-name="Path 6791" d="M146.963,141.547l-2.189,1.15.43-2.438-1.773-1.732,2.439-.36,1.095-2.217,1.108,2.217,2.438.36-1.773,1.732.43,2.438Z" transform="translate(-15.792 53.825)"/>
      <path id="Path_6792" data-name="Path 6792" d="M154.317,141.547l-2.189,1.15.416-2.438-1.773-1.732,2.452-.36,1.095-2.217,1.095,2.217,2.452.36-1.773,1.732.416,2.438Z" transform="translate(-12.959 53.825)" fill="#d1d1d1" opacity="0.9"/>
      <path id="Path_6793" data-name="Path 6793" d="M161.667,141.547l-2.189,1.15.416-2.438-1.773-1.732,2.452-.36,1.094-2.217,1.095,2.217,2.452.36-1.773,1.732.416,2.438Z" transform="translate(-10.124 53.825)" fill="#d1d1d1" opacity="0.9"/>
      <circle id="Ellipse_297" data-name="Ellipse 297" cx="10.502" cy="10.502" r="10.502" transform="translate(118.549 232.573) rotate(-76.714)" fill="#c2c2c2"/>
      <path id="Path_6794" data-name="Path 6794" d="M178.993,147.926h-50.71a2.135,2.135,0,0,1-2.134-2.134V135.124a2.135,2.135,0,0,1,2.134-2.134h50.71a2.135,2.135,0,0,1,2.134,2.134v10.669A2.135,2.135,0,0,1,178.993,147.926Z" transform="translate(-22.45 109.642)" fill="#fff" stroke="#c5c5c5" stroke-width="1" opacity="0.5"/>
      <path id="Path_6795" data-name="Path 6795" d="M132.277,141.547l-2.189,1.15.416-2.438-1.773-1.732,2.452-.36,1.095-2.217,1.095,2.217,2.452.36-1.773,1.732.416,2.438Z" transform="translate(-21.456 110.783)"/>
      <path id="Path_6796" data-name="Path 6796" d="M139.627,141.547l-2.189,1.15.416-2.438-1.773-1.732,2.452-.36,1.094-2.217,1.095,2.217,2.452.36-1.773,1.732.416,2.438Z" transform="translate(-18.621 110.783)"/>
      <path id="Path_6797" data-name="Path 6797" d="M146.963,141.547l-2.189,1.15.43-2.438-1.773-1.732,2.439-.36,1.095-2.217,1.108,2.217,2.438.36-1.773,1.732.43,2.438Z" transform="translate(-15.792 110.783)"/>
      <path id="Path_6798" data-name="Path 6798" d="M154.317,141.547l-2.189,1.15.416-2.438-1.773-1.732,2.452-.36,1.095-2.217,1.095,2.217,2.452.36-1.773,1.732.416,2.438Z" transform="translate(-12.959 110.783)" fill="#d1d1d1" opacity="0.9"/>
      <path id="Path_6799" data-name="Path 6799" d="M161.667,141.547l-2.189,1.15.416-2.438-1.773-1.732,2.452-.36,1.094-2.217,1.095,2.217,2.452.36-1.773,1.732.416,2.438Z" transform="translate(-10.124 110.783)" fill="#d1d1d1" opacity="0.9"/>
      <g id="Group_4967" data-name="Group 4967" transform="translate(31.542 108.303)">
        <path id="Path_5222" data-name="Path 5222" d="M1510.294,3088.97s-1.287,6.9-1.951,13.741a4.716,4.716,0,0,0,4.462,5.153c9.112.466,28.6,1.392,35.6,1.144a1.534,1.534,0,0,0,1.369-2.088h0a3.445,3.445,0,0,0-1.739-1.87l-32.063-15.107Z" transform="translate(-1437.286 -2758.62)" fill="#a1a1a1"/>
        <path id="Path_5223" data-name="Path 5223" d="M1512.37,3069.069l.9,8.281s5.617,2.68,9.5-.241l-2.249-9.239Z" transform="translate(-1440.323 -2742.791)" fill="url(#linear-gradient)"/>
        <path id="Path_5224" data-name="Path 5224" d="M1444.134,2449.686c-.445,2.155-3.3,107.753,7.535,155.191a1.606,1.606,0,0,1-.959,1.859,27.958,27.958,0,0,1-9.212,1.782,2.77,2.77,0,0,1-2.725-2.011c-3.123-11.012-18.061-66.178-19.577-118.757-1.694-58.75.019-2,.019-2l1.669-36.292Z" transform="translate(-1369.866 -2278.881)" fill="#d2d2d2"/>
        <path id="Path_5225" data-name="Path 5225" d="M1355.754,3102s-1.979,3.472-3.947,12.728a2.881,2.881,0,0,0,2.5,3.472c3.008.324,7.638.747,11.348.757a2.866,2.866,0,0,0,2.87-3.172c-.379-3.392-1.606-8.958-5.521-13.323Z" transform="translate(-1319.826 -2768.394)" fill="#a1a1a1"/>
        <path id="Path_5226" data-name="Path 5226" d="M1361.37,3058.12l2.174,12.529s2.25,1.708,6.748.527l-.967-13.466Z" transform="translate(-1327.048 -2735.169)" fill="url(#linear-gradient-2)"/>
        <path id="Path_5227" data-name="Path 5227" d="M1330.089,2445.364c-9.766,55.637.689,137.745,4.324,153.831a2.5,2.5,0,0,0,2,1.92,16.791,16.791,0,0,0,7.225-.222,2.289,2.289,0,0,0,1.67-2.1c.632-12.971.476-92.637,9.381-124.038a7.18,7.18,0,0,1,2.8-3.92l16.812-11.711,1.464-19.177Z" transform="translate(-1300.537 -2271.748)" fill="#d2d2d2"/>
        <g id="Group_4962" data-name="Group 4962" transform="translate(26.503 26.478)">
          <path id="Path_5228" data-name="Path 5228" d="M1392.963,2028.475c-27.666-.721-58.271,6.711-58.271,6.711-8.707,48.047-2.431,103.624-2.431,103.624,21.369,5.821,45.62-3,45.62-3,3.752-20.081,20.9-76.536,20.9-76.536a91.137,91.137,0,0,0,33.93-10.413c-6.918-8.177-10.118-18.525-11.492-24.639A92.774,92.774,0,0,1,1392.963,2028.475Z" transform="translate(-1330.073 -1986.359)"/>
          <path id="Path_5229" data-name="Path 5229" d="M1748.782,1874.81a5.291,5.291,0,0,0-6.141-1.788c-4.237,17.161-25.72,30.9-47.72,37.512,1.374,6.114,4.574,16.465,11.492,24.639C1743.01,1915.053,1748.782,1874.81,1748.782,1874.81Z" transform="translate(-1603.769 -1872.673)" fill="url(#linear-gradient-3)"/>
        </g>
        <g id="Group_4963" data-name="Group 4963" transform="translate(165.438)">
          <path id="Path_5230" data-name="Path 5230" d="M1891.595,1796.136c.276.906-3.031,2.254-4.934-1.464-.05-1.773-1.057-9.376.018-10.81,5.713-7.635,16.741-17.172,16.741-17.172a2.6,2.6,0,0,1,.292,3.618l-5.359,5.477c1.092,2.016,2.428,3.72,3.038,6.153a7.433,7.433,0,0,1-.794,5.464c-.947,1.67-2.238,3.838-3.455,5.534A7.337,7.337,0,0,1,1891.595,1796.136Z" transform="translate(-1886.185 -1766.69)" fill="url(#linear-gradient-4)"/>
          <path id="Path_5231" data-name="Path 5231" d="M1906.151,1817.35l-4.875,4.052-1.556,4.064,4.265,4.822s1.527-8.083,2.62-9.823S1907.148,1817.871,1906.151,1817.35Z" transform="translate(-1896.339 -1804.693)" fill="url(#linear-gradient-5)"/>
        </g>
        <path id="Path_5232" data-name="Path 5232" d="M1267.406,2095.005l-10.359-26.895s-26.013,17.314-30.477,39.538a61.169,61.169,0,0,1,22.41,6.237C1251,2103.389,1267.406,2095.005,1267.406,2095.005Z" transform="translate(-1225.926 -1992.806)" fill="#a2a2a2"/>
        <path id="Path_5233" data-name="Path 5233" d="M1287.818,2239.151s-29.175,16.122-38.831,2.026a11,11,0,0,1-1.936-8.57,61.155,61.155,0,0,0-22.411-6.237,30.729,30.729,0,0,0,3.14,21.1c16.852,31.535,63.813-1.126,63.813-1.126Z" transform="translate(-1223.991 -2111.525)" fill="url(#linear-gradient-6)"/>
        <path id="Path_5234" data-name="Path 5234" d="M1443.154,1950.26l-9.047,25.379a.918.918,0,0,0,.407,1.108c2.389,1.35,11,5.267,21.481-1.239a4.316,4.316,0,0,0,2.018-3.065l3.061-22.01Z" transform="translate(-1381.572 -1904.398)" fill="url(#linear-gradient-7)"/>
        <g id="Group_4964" data-name="Group 4964" transform="translate(44.956 9.227)">
          <path id="Path_5235" data-name="Path 5235" d="M1480.1,1856.62s9.493,18.29,8.184,25.631-13.287,6.7-23.692.627l-7.122-19.72Z" transform="translate(-1444.095 -1843.379)" fill="url(#linear-gradient-8)"/>
          <path id="Path_5236" data-name="Path 5236" d="M1424.987,1833.475a.749.749,0,0,0,.337-1.095,19.6,19.6,0,0,1-2.635-5.736s-1.727-1.13,4.447-2.546,15.387-3.617,17.369-8.844c1.931-5.1-2.894-18-10.886-7.833a.75.75,0,0,1-1.189,0c-1.277-1.7-4.647-5.224-9.389-3.15-4.44,1.942-4.966,5.174-4.922,6.808a.745.745,0,0,1-.892.754c-2.231-.447-7.59-.864-10.145,4.612-2.1,4.512-.79,7.091.419,8.354a.749.749,0,0,1-.332,1.24c-1.474.434-3.381,1.664-3.226,5.106.218,4.76,5.539,4.392,7.055,4.189a.757.757,0,0,1,.665.243c1.284,1.449,7.076,7.6,13.4,8.4a.755.755,0,0,0,.8-.992L1423.2,1835a.75.75,0,0,1,.417-.928Z" transform="translate(-1403.935 -1803.623)"/>
          <path id="Path_5237" data-name="Path 5237" d="M1470.317,1920.495s-6.837-4.789-7.379-.817,6.143,5.821,9.478,4.369Z" transform="translate(-1448.173 -1889.501)" fill="url(#linear-gradient-9)"/>
        </g>
        <g id="Group_4966" data-name="Group 4966" transform="translate(57.8 92.996)">
          <g id="Group_4965" data-name="Group 4965">
            <path id="Path_5238" data-name="Path 5238" d="M1455.409,2199.031l15.891-55.5a1.615,1.615,0,0,1,1.369-1.164c2.881-.334,11.223-1.28,20.856-2.1,11.606-.98,25.079-1.776,33.133-1.1a1.622,1.622,0,0,1,1.327,2.336c-4.579,9.264-23.415,46.948-32.848,59.294a1.626,1.626,0,0,1-1.311.641l-36.873-.342A1.623,1.623,0,0,1,1455.409,2199.031Z" transform="translate(-1455.346 -2138.92)" fill="#4e4e4e"/>
            <path id="Path_5239" data-name="Path 5239" d="M1466.366,2269.035s-2.213-9.1-1.322-12.331,2.623-7.383,8.39-6.458a84.342,84.342,0,0,1,12.571,3.353s-.345,4.206-4.727,2.85l2.719,2.1s-.39,3.369-4.091,1.57l2.529,2.787a2.948,2.948,0,0,1-4.315.993C1475.4,2262.124,1474.091,2270.132,1466.366,2269.035Z" transform="translate(-1462.462 -2222.335)" fill="url(#linear-gradient-10)"/>
          </g>
          <path id="Path_5240" data-name="Path 5240" d="M1603.93,2196.635a4.664,4.664,0,1,0,4.664-4.665A4.665,4.665,0,0,0,1603.93,2196.635Z" transform="translate(-1566.809 -2178.717)" fill="#fff"/>
          <path id="Path_5241" data-name="Path 5241" d="M1522.84,2170.627l-1.189-.353,3.235-10.975a5,5,0,0,1,3.765-3.5c10.255-2.142,37.268-2.577,38.412-2.6l.02,1.24c-.28,0-28.038.452-38.18,2.568a3.76,3.76,0,0,0-2.828,2.641Z" transform="translate(-1505.086 -2149.632)" fill="url(#linear-gradient-11)"/>
        </g>
      </g>
    </g>
    <g id="Group_5717" data-name="Group 5717" transform="translate(1629.843 2073.595)">
      <path id="Path_3966" data-name="Path 3966" d="M353.4,203.418c-27.865,11.641-41.616,2.4-62.5-9.676-20.953-12.077-23.281-24.009-7.2-31.5,30.339-14.187,47.654.146,68.535,12.223C373.188,186.467,369.842,196.579,353.4,203.418Z" transform="translate(-149.842 134.34)" opacity="0.1"/>
      <path id="Path_3967" data-name="Path 3967" d="M342,211.768c-30.484,11.641-44.308,2.765-65.188-9.313-20.953-12.077-30.048-22.481-7.2-31.5,22.336-8.876,44.6.436,65.552,12.586C356.04,195.544,358.586,205.438,342,211.768Z" transform="translate(-256.231 203.984)" opacity="0.1"/>
      <path id="Path_3968" data-name="Path 3968" d="M267.56,153.17a33.785,33.785,0,0,0,3.346,11.568c1.382,2.91,1.892,6.257,3.42,5.747,1.528-.582-.436-14.114-.436-14.114Z" transform="translate(-185.139 114.452)" fill="url(#radial-gradient)"/>
      <path id="Path_3969" data-name="Path 3969" d="M258.341,184.944s-1.528,5.893-.364,8.367,6.621,4.438,10.914,2.328c4.365-2.11,6.257-6.621,7.857-7.785,1.673-1.164,10.913-2.256,17.9-8.149,6.912-5.893,5.966-12.368-.946-12.441-6.912-.146-19.571,3.056-24.009,5.966C265.253,176.213,258.341,184.944,258.341,184.944Z" transform="translate(-248.02 202.87)" fill="#c9c9c9"/>
      <path id="Path_3970" data-name="Path 3970" d="M261.352,191.125c4.947,1.018,11.277-3.274,14.26-5.748,2.91-2.474,8.149-1.164,14.842-6.475s9.095-8.949,5.966-10.695c-3.056-1.746-14.187-1.237-22.917,3.42-8.73,4.729-14.551,8.076-14.551,8.076s-2.11,6.475-1.091,7.858C259.023,189.016,258.514,190.543,261.352,191.125Z" transform="translate(-247.757 203.018)" fill="#fff"/>
      <path id="Path_3971" data-name="Path 3971" d="M263.294,150.15a113.8,113.8,0,0,0-1.237,36.014c2.474,20.153-1.383,60.532-2.328,74.865-.873,14.333-5.82,31.867,1.382,35.5,4.147,2.11,11.641.873,17.461-5.82s7.057-13.242,6.33-14.478-1.746-6.693.509-18.553c2.328-11.859,6.912-40.6,6.548-49.983s-3.71-53.329-3.71-53.329Z" transform="translate(-249.772 95.5)" fill="#9e9e9e"/>
      <path id="Path_3972" data-name="Path 3972" d="M279.872,205.817c.363,9.385-4.22,38.124-6.548,49.983s-1.237,17.316-.51,18.553-.509,7.785-6.329,14.478a20.55,20.55,0,0,1-7.275,5.457c2.547-4.729,6.257-14.551,6.257-30.7,0-24.373,5.092-55.44,5.747-72.391.437-9.895-1.891-28.665-1.891-40.743l6.912,2.037C276.162,152.56,279.509,196.5,279.872,205.817Z" transform="translate(-237.54 97.383)" fill="#d1d3d4"/>
      <path id="Path_3973" data-name="Path 3973" d="M269.153,136.226s15.133-1.528,21.171,1.382,15.788,12.368,15.788,15.424c0,2.692-8.149,6.257-13.1,4.875-4.875-1.382-5.457-2.11-9.458-2.983a76.366,76.366,0,0,1-14.769-4.947C265.88,148.449,269.153,136.226,269.153,136.226Z" transform="translate(-184.987 5.603)" fill="url(#radial-gradient-2)"/>
      <path id="Path_3974" data-name="Path 3974" d="M319.836,156.8l1.964,11.423a73.407,73.407,0,0,1-8.221,4.147c-2.619.8-6.839-.8-8.949,1.891s-10.84,9.6-17.97,11.059c-7.785,1.528-13.168-.946-13.314-3.2s1.892-5.893,8.949-10.477,13.1-15.788,13.1-15.788Z" transform="translate(-148.873 131.271)" fill="#959595"/>
      <path id="Path_3975" data-name="Path 3975" d="M319.632,163.695c-1.091,1.31-14.041,4.365-16.151,7.057-2.4,3.056-14.551,10.549-20.662,11.568-5.6.946-9.822-1.819-9.313-3.929.8-3.056,5.893-5.893,10.331-9.313S293.15,157.8,293.15,157.8l26.628-1.892Z" transform="translate(-148.088 131.647)" fill="#fff"/>
      <path id="Path_3976" data-name="Path 3976" d="M319.355,159.028l.218,10.622-4.8,4.8-1.528-.582s-3.128,7.785-12.369,13.751c-8,5.166-17.607,3.929-19.934,2.037s-2.328-3.638,3.565-11.568c5.893-7.858,14.333-19.28,14.333-19.28Z" transform="translate(-110.269 149.846)" fill="#959595"/>
      <path id="Path_3977" data-name="Path 3977" d="M318.024,163.528s-8.585,7.93-11.568,12.586c-4.438,6.985-16.224,12.368-24.009,9.822-7.785-2.619,2.692-10.7,4.8-14.26s8.148-12.368,8.148-12.368l22.918-.218Z" transform="translate(-109.52 151.603)" fill="#fff"/>
      <path id="Path_3978" data-name="Path 3978" d="M278.025,138.03s-2.4,50.71-2.037,62.86,7.348,43.871,6.112,49.473c-1.237,5.675-3.856,10.622-4.584,14.115-.727,3.565-1.746,8.367-1.746,8.367s7.566,7.2,16.224,6.184c8.658-1.091,13.169-2.619,13.969-4.8.8-2.11-1.237-57.4-1.237-57.4l1.164-71.518Z" transform="translate(-133.618 19.441)" fill="#8f8f8f"/>
      <path id="Path_3979" data-name="Path 3979" d="M287.126,256.828c1.237-14.114-2.838-31.648-7.275-50.71-3.711-16.079-1.746-55.075-1.019-67.007l14.915,4-.873,67.08s2.037,55.221,1.237,57.4c-.8,2.037-4.875,3.565-12.805,4.584C283.924,267.3,286.689,261.193,287.126,256.828Z" transform="translate(-121.765 26.219)" fill="#d1d3d4"/>
      <path id="Path_3980" data-name="Path 3980" d="M279.38,139.619s3.419,40.306,4.365,58.131c.873,17.825,5.312,42.925,7.567,52.238,2.328,9.385,4.947,22.627,4.22,29.1-.728,6.548-3.711,11.641.145,14.478s16.952,4.438,20.153,2.838,5.82-1.237,5.82-7.567-.873-42.2-3.347-56.458c-2.474-14.333,1.528-64.388,1.6-70.791.146-14.987-5.675-23.282-5.675-23.282Z" transform="translate(-110.964 21.199)" fill="#8f8f8f"/>
      <path id="Path_3981" data-name="Path 3981" d="M307.892,121.42c6.33,1.746,14.333,1.237,7.421,17.679s-31.794,72.391-31.794,72.391-8.44-20.3-7.2-37.978,11.859-47.873,11.859-47.873Z" transform="translate(-130.964 -84.795)" fill="#efefef"/>
      <path id="Path_3982" data-name="Path 3982" d="M293.4,125.184l-2.692-1.164-1.746,1.892.728,3.856s-7.567,14.7-10.331,23.646c-2.838,8.949-3.42,21.1-2.328,26.7,1.091,5.675,6.257,13.9,6.257,13.9s3.783-27.065,4.947-33.54,4.8-29.539,4.8-29.539l2.692-1.673Z" transform="translate(-128.917 -68.478)"/>
      <path id="Path_3983" data-name="Path 3983" d="M301.427,121.565s-7.857-.946-13.9,4.438c-4.293,3.929-6.693,8.949-8,18.843-1.164,8.8.364,28.229,0,33.176s-1.964,36.159-2.837,45.908c-.873,9.677-3.856,20.808,1.6,26.337,5.456,5.457,11.277,8.294,12.732,5.093,1.383-3.2,5.675-31.576,3.347-40.088-2.328-8.439-8.658-25.755-8.294-36.159s4.947-38.342,7.93-43.8S301.427,121.565,301.427,121.565Z" transform="translate(-137.885 -84.285)"/>
      <path id="Path_3984" data-name="Path 3984" d="M276.131,161.4c.727-9.676.946-17.17.946-17.17l3.711-2.037-2.474-4.365s4.511-2.619,6.039-6.039c1.309-2.983,4.8-6.693,7.494-10.258h0a16.121,16.121,0,0,1,3.71.145s-4.438,8.294-7.421,13.751-7.567,33.395-7.93,43.8c-.218,6.4,2.11,15.5,4.511,23.5-1.164-2.546-3.2-7.785-3.638-9.24C278.6,185.268,275.4,171.081,276.131,161.4Z" transform="translate(-132.014 -84.328)" fill="#d1d3d4"/>
      <path id="Path_3985" data-name="Path 3985" d="M276.277,160.459c.727-9.676.946-17.17.946-17.17l4.365-1.164-3.056-5.6a9.305,9.305,0,0,0,4.875-4.511c1.309-2.983,3.928-7.712,7.785-10.477h0a16.124,16.124,0,0,1,3.71.145s-4.438,8.294-7.421,13.751-7.566,33.395-7.93,43.8c-.218,6.4,2.11,15.5,4.511,23.5-1.164-2.546-3.2-7.785-3.638-9.24C277.877,185.269,275.549,170.136,276.277,160.459Z" transform="translate(-131.287 -84.328)" fill="#929292"/>
      <path id="Path_3986" data-name="Path 3986" d="M289.253,138.3s5.82,8.294,5.675,23.282c-.073,6.4-4.074,56.458-1.6,70.79s3.346,50.128,3.346,56.458-2.619,5.966-5.82,7.566c-1.237.655-4,.728-7.13.509,2.547-4.293,5.093-10.913,5.821-20.662,1.528-20.371-5.893-43.071-4.875-61.7.873-16.442,1.382-53.475-1.31-75.592Z" transform="translate(-85.987 21.136)" fill="#d1d3d4"/>
      <path id="Path_3987" data-name="Path 3987" d="M283.4,124.829l15.788-3.419c4.875,1.382,10.768,1.382,9.968,8.8-3.347,5.748-7.639,12.659-10.331,15.279a118.523,118.523,0,0,0-8.73,9.458l-4.584-16.3-7.785,10.622s-.437-9.313.218-12.369C278.378,135.452,281,129.922,283.4,124.829Z" transform="translate(-122.257 -84.858)" fill="#d1d3d4"/>
      <path id="Path_3988" data-name="Path 3988" d="M283.3,124.829l15.787-3.419c4.875,1.382,10.768,1.382,9.968,8.8-3.347,5.748-7.639,12.659-10.331,15.279a58.751,58.751,0,0,1-8.439,7.057l-4.8-13.9-7.566,8.221s-.728-6.912,0-9.967C278.283,135.452,280.9,129.922,283.3,124.829Z" transform="translate(-122.162 -84.858)" fill="#111"/>
      <path id="Path_3989" data-name="Path 3989" d="M306.634,121.48s4.948,1.528,2.255,8.585-13.387,18.916-20.372,35.213c-6.911,16.225-11.641,33.395-11.2,53.111.436,19.644,1.892,37.323,6.329,41.98,5.02,5.238,20.371,11.2,36.6,8.367s20.953-9.094,19.207-12.95-11.277-44.381-12-50.347,4.947-21.972,6.693-28.374c1.746-6.33,4.8-19.207,2.619-26.265-2.256-7.057-6.257-7.857-10.331-12.15-2.692-2.765-6.766-6.766-11.495-10.913C312.309,125.554,309.835,122.426,306.634,121.48Z" transform="translate(-124.103 -84.418)"/>
      <path id="Path_3990" data-name="Path 3990" d="M288.108,165.153c6.912-16.224,17.68-28.156,20.371-35.213,2.328-6.039-.946-8-1.964-8.44h0a23.532,23.532,0,0,1,7.93,4.584c.582,4.729.946,5.82-1.019,14.26-2.11,8.949-1.6,12.586-1.6,12.586l-5.966,1.31v5.893s-2.619-2.183-10.549,10.622c-8,12.878-13.678,19.5-17.97,34.922C278.65,191.054,282.724,177.812,288.108,165.153Z" transform="translate(-123.766 -84.293)" fill="#d1d3d4"/>
      <path id="Path_3991" data-name="Path 3991" d="M288.045,165.153c6.912-16.224,17.68-28.156,20.371-35.213,2.328-6.039-.946-8-1.964-8.44h0a23.534,23.534,0,0,1,7.93,4.584c.582,4.729.946,5.82-1.018,14.26-2.11,8.949-2.692,10.913-2.692,10.913l-5.966,1.31v5.893s-4.074-.509-11.423,12.66c-6.839,12.3-11.713,19.135-15.933,34.486C278.587,191.054,282.661,177.812,288.045,165.153Z" transform="translate(-123.703 -84.293)" fill="#fff"/>
      <path id="Path_3992" data-name="Path 3992" d="M292.7,167.241c7.348-13.169,11.5-13.1,11.5-13.1v-5.893l5.966-1.31s.582-2.037,2.692-10.913c1.892-8.149,1.455-9.677.946-13.969a1.95,1.95,0,0,1,.582.509c.582,4.729.946,5.82-1.018,14.26-2.11,8.949-2.692,10.913-2.692,10.913l-5.966,1.309v5.893s-4.074-.509-11.423,12.659c-6.839,12.3-11.713,19.135-15.933,34.486.145-1.746.437-2.837.728-4.584C281.934,184.993,286.517,178.3,292.7,167.241Z" transform="translate(-123.703 -80.778)" fill="url(#radial-gradient-3)"/>
      <path id="Path_3993" data-name="Path 3993" d="M302.476,135.7s-4.947,1.964-10.113,3.565-11.423,3.2-11.423,3.2.073,7.639,3.128,7.712c3.056.146,18.7-4,19.644-5.893S302.476,135.7,302.476,135.7Z" transform="translate(-101.174 4.819)" fill="#d1d3d4"/>
      <path id="Path_3994" data-name="Path 3994" d="M302.476,135.7s-4.947,1.964-10.113,3.565-11.423,3.2-11.423,3.2.437,6.257,3.565,6.33c3.056.145,18.7-4,19.644-5.893S302.476,135.7,302.476,135.7Z" transform="translate(-101.174 4.819)" fill="#5d5d5d"/>
      <path id="Path_3995" data-name="Path 3995" d="M273.772,134.87a22.052,22.052,0,0,0,2.328,10.841,38.584,38.584,0,0,0,7.857,9.385s.8-10.695-1.964-14.7C279.155,136.4,273.772,134.87,273.772,134.87Z" transform="translate(-146.316 -0.389)" fill="#a2a2a2"/>
      <path id="Path_3996" data-name="Path 3996" d="M307.348,135.191s-3.492,2.765-6.184,2.983-11.714-.073-14.7.946c-2.837.946-11.641,3.638-11.859,5.966-.218,2.4,2.983.8,5.529.437s6.766-.655,6.766-.655-5.238,5.384-8.44,7.2-8.367,2.692-9.239,4.511.218,3.565,2.837,5.384c3.929,2.765,7.2,1.819,10.55,1.965,5.893.218,12.659-2.183,15.424-4.438,2.692-2.255,10.4-8.367,12.15-9.385s8-3.347,8-3.347L307.713,134.9Z" transform="translate(-176.546 -0.201)" fill="url(#radial-gradient-4)"/>
      <path id="Path_3997" data-name="Path 3997" d="M272.073,156.63c-2.619-1.819-3.71-3.565-2.837-5.384a2.908,2.908,0,0,1,.8-.873c2.182,2.765,9.094,4.147,13.459,3.2,4.583-1.019,16.443-8.949,19.862-12.3,1.746-1.673,7.494-3.856,12.732-5.529l2.11,5.675s-6.257,2.328-8,3.347-9.386,7.13-12.15,9.386c-2.692,2.255-9.531,4.656-15.424,4.438C279.275,158.449,276.075,159.4,272.073,156.63Z" transform="translate(-176.484 5.133)" fill="url(#radial-gradient-5)"/>
      <path id="Path_3998" data-name="Path 3998" d="M294.654,223.546c-.219-13.023-8.585-29.466-12.587-39.215s1.164-39.215,7.276-52.02c4.947-10.4,19.425-6.839,26.774-3.565,1.019,7.276-1.6,17.971-3.129,23.646-1.746,6.33-7.421,22.336-6.693,28.374.728,5.966,10.259,46.491,12,50.347s-2.91,10.113-19.207,12.95a45.413,45.413,0,0,1-8.221.727C292.544,239.917,294.8,231.768,294.654,223.546Z" transform="translate(-102.956 -59.818)" fill="#303030"/>
      <path id="Path_3999" data-name="Path 3999" d="M354.934,125.547c6.839,2.183,7.275,15.351,2.91,25.028-2.838,6.33-9.458,20.59-11.786,26.7s-6.111,18.7-12.732,22.263-23.863,9.313-30.7,12.223S284,219.983,284,219.983s-1.964-8.148-4.947-13.168c-2.91-5.093-5.311-7.057-5.311-7.057s23.282-10.913,31.284-15.424c8-4.438,12.15-6.912,13.9-11.059s7.493-21.972,9.385-26.337C333.035,136.024,338.637,120.382,354.934,125.547Z" transform="translate(-146.357 -65.277)" fill="#262626"/>
      <path id="Path_4000" data-name="Path 4000" d="M263.6,184.349s-2.619,7.639.582,9.313,8.148,2.619,12.15.8c4-1.746,5.675-3.565,9.895-3.565s20.735-8.149,23.863-12.15c3.2-4,0-8.585-7.858-8s-19.207,1.528-21.172,2.255C278.951,173.727,263.6,184.349,263.6,184.349Z" transform="translate(-216.32 224.418)" fill="#c9c9c9"/>
      <path id="Path_4001" data-name="Path 4001" d="M266.6,190.267c7.421.873,9.749-1.164,16.588-2.619,6.839-1.382,26.264-9.313,25.9-13.605-.364-4.365-4.8-3.419-8.585-3.056s-15.788,1.164-16.734,1.164-20.444,8.8-20.444,8.8-1.382,6.33-.145,7.276C264.493,189.249,264.639,190.049,266.6,190.267Z" transform="translate(-215.831 224.102)" fill="#fff"/>
      <path id="Path_4002" data-name="Path 4002" d="M262.989,155.21s-4.438,9.531-.145,25.973c4.22,16.443,9.167,35.868,9.385,56.676.146,20.808-2.328,74.647.873,77.7,3.2,2.983,14.333,4,18.916.728,7.348-5.384,11.277-13.1,10.622-15.715-.727-2.619-6.329-12.15-4.438-20.662,1.964-8.44,8.439-37.76,7.2-57.695s-4.583-72.027-4.583-72.027Z" transform="translate(-226.477 95.752)" fill="#9e9e9e"/>
      <path id="Path_4003" data-name="Path 4003" d="M287.446,129.4c4.656,2.255,9.385,6.111,9.676,17.9.218,11.786.363,17.388-1.965,18.916s-4.147,0-4.584,3.274a39.321,39.321,0,0,0,.436,8.731l-25.682-5.747a12.394,12.394,0,0,0,.145-8.367c-1.673-4.22-9.094-12.441-3.419-24.591C267.657,127.361,281.916,126.634,287.446,129.4Z" transform="translate(-232.89 -43.082)" fill="url(#radial-gradient-6)"/>
      <path id="Path_4004" data-name="Path 4004" d="M298.3,140.4c.073,2.255-1.31,5.893-4.438,6.112-3.2.218-4.729,4-4,5.747s.218,2.256.218,2.256-2.328-.946-3.42.946.364,5.893,1.091,7.421-4.584,6.257-8.949,6.621-10.258-.146-12.15-2.328-8.8-9.749-6.33-21.754,13.532-19.207,23.791-17.17C294.3,130.138,298.158,137.195,298.3,140.4Z" transform="translate(-233.853 -44.112)" fill="#676767"/>
      <path id="Path_4005" data-name="Path 4005" d="M336.766,145.114a7.533,7.533,0,0,1,2.692,6.839c-.582,4.438-4.8,11.277-4.8,11.277l-44.6-2.474s-34.413-1.455-32.884-15.5c1.455-13.387,10.621-12.732,30.484-7.567s27.647,5.966,34.122,6.621C328.254,144.9,336.766,145.114,336.766,145.114Z" transform="translate(-250.635 -4.158)" fill="#fff"/>
      <path id="Path_4006" data-name="Path 4006" d="M292.06,151.559s-2.765-9.676-8.585-10.84c-5.748-1.164-10.841-.437-14.7-2.255a15.763,15.763,0,0,1-5.966-5.093s-4.438,1.237-1.164,5.238C265,142.61,292.06,151.559,292.06,151.559Z" transform="translate(-229.792 -9.803)" fill="url(#linear-gradient-12)"/>
      <path id="Path_4007" data-name="Path 4007" d="M337.4,148.532c-1.673,3.347-2.764,5.166-2.764,5.166l-44.6-2.474s-34.267-1.455-32.885-15.424c8.221,2.037,28.956,10.477,47.873,11.5C322.343,148.241,332.893,148.459,337.4,148.532Z" transform="translate(-250.69 5.447)" fill="#d1d3d4"/>
      <path id="Path_4008" data-name="Path 4008" d="M264.61,152l13.314-1.819s3.347,52.093,4.584,72.027-5.312,49.255-7.2,57.695c-1.964,8.44,3.71,17.971,4.438,20.662.654,2.4-2.547,9.022-8.731,14.26.946-11.131.073-22.772-.582-30.7-.8-9.167,6.112-42.416,4.22-62.351C272.831,204.455,266.284,162.548,264.61,152Z" transform="translate(-203.652 95.689)" fill="#d1d3d4"/>
      <path id="Path_4009" data-name="Path 4009" d="M295.2,139.023a62.182,62.182,0,0,1-10.841-5.093,99.757,99.757,0,0,0-12.877.582c-4.729.727-11.859,5.093-11.422,13.9s2.4,20.153,5.311,32.521,2.837,21.317.582,33.686-9.967,39.433-9.385,42.343,7.275,13.387,22.7,18.844c15.424,5.384,41.033,6.694,51.437-5.166,10.331-11.859-3.056-52.82-3.638-72.828s6.693-28.374-1.746-38.706-17.97-16.588-23.427-17.97A65.4,65.4,0,0,1,295.2,139.023Z" transform="translate(-254.322 -6.361)" fill="#2c2c2c"/>
      <path id="Path_4010" data-name="Path 4010" d="M298.6,151.084c-2.473-3.274-7.421-7.785-12-8.367s-13.46-2.4-16.37-4.583c-3.347-2.474-3.784-4.584-3.784-4.584l-6.911,2.547s-.582,8.221,9.022,11.132c9.676,2.91,20.517,2.837,27.5,6.911a65.883,65.883,0,0,1,10.695,7.639Z" transform="translate(-235.6 -8.673)" fill="#d1d3d4"/>
      <path id="Path_4011" data-name="Path 4011" d="M298.589,151.084c-2.473-3.274-7.42-7.785-12-8.367s-13.459-2.4-16.37-4.583c-3.346-2.474-3.783-4.584-3.783-4.584L259.52,136.1s.073,6.694,9.749,9.676c9.676,2.91,22.263,3.783,28.374,8.367a93.548,93.548,0,0,1,9.167,7.639Z" transform="translate(-235.594 -8.673)" fill="#676767"/>
      <path id="Path_4012" data-name="Path 4012" d="M260.185,133.87c.145,1.382,1.31,6.766,9.749,9.313,9.676,2.91,22.263,3.783,28.374,8.367,2.328,1.746,4.147,3.2,5.6,4.438l2.91,3.783a93.507,93.507,0,0,0-9.167-7.639c-6.111-4.584-18.7-5.384-28.374-8.367-9.676-2.91-9.749-9.676-9.749-9.676Z" transform="translate(-235.532 -6.665)" fill="url(#radial-gradient-7)"/>
      <path id="Path_4013" data-name="Path 4013" d="M301.11,121.16l1.964,4.365s-5.966,9.895-10.476,12.732c-4.438,2.838-9.749,5.966-11.277,3.783-1.528-2.255-3.2-8.367-3.2-8.367Z" transform="translate(-118.871 -86.426)" fill="url(#radial-gradient-8)"/>
      <path id="Path_4014" data-name="Path 4014" d="M306.72,152.451l-2.474.145s-7.567,8.731-12.15,10.622-9.094,2.11-11.059-1.091-4.947-22.627-3.274-30.266,12.441-22.118,28.229-11.641,4.583,28.956,4,29.539S306.72,152.451,306.72,152.451Z" transform="translate(-124.189 -115.389)" fill="url(#radial-gradient-9)"/>
      <path id="Path_4015" data-name="Path 4015" d="M310.5,151.047s2.328-5.238.218-6.766a2.253,2.253,0,0,0-.946-.437,3.159,3.159,0,0,0-3.2,1.019l-2.183,2.4s-.364-2.474-1.455-7.13c-.728-2.983-4.438-5.675-12.223-4.947-4.147.364-9.313,2.474-12.15.218s-.582-7.057.8-9.385,14.7-16.006,28.738-6.039C322.136,129.875,314.279,147.336,310.5,151.047Z" transform="translate(-124.691 -116.386)" fill="#676767"/>
      <path id="Path_4016" data-name="Path 4016" d="M268.271,142.352c6.621-9.822,16.151-1.964,22.99,4.729-.145,6.621-2.692,14.551-2.328,26.774.582,20.008,13.969,60.969,3.638,72.828-5.02,5.748-13.532,8.367-22.845,9.022a118,118,0,0,0,1.746-16.224c.8-17.243-4.365-26.774-6.475-49.91C262.888,166.506,259.686,155.23,268.271,142.352Z" transform="translate(-216.117 17.521)" fill="#d1d3d4"/>
      <path id="Path_4017" data-name="Path 4017" d="M260.133,130.43c2.183,1.746,5.893,3.856,12.15,5.02a40.051,40.051,0,0,0,17.534-1.018,3.556,3.556,0,0,0,.073,1.964c.727,1.746.218,2.255.218,2.255s-2.328-.946-3.419.946.364,5.893,1.091,7.421-4.584,6.257-8.949,6.621-10.258-.145-12.15-2.328C264.789,149.056,258.241,141.852,260.133,130.43Z" transform="translate(-233.879 -28.252)" fill="#676767"/>
      <g id="Group_4092" data-name="Group 4092" transform="translate(61.831 268.641)">
        <path id="Path_4018" data-name="Path 4018" d="M270.623,161.728v49.546l-5.893-3.42V158.09Z" transform="translate(-264.73 -123.313)" fill="#434343"/>
        <path id="Path_4019" data-name="Path 4019" d="M265.54,188.712v49.546l60.314-34.631V153.79Z" transform="translate(-259.647 -150.298)" fill="#fff"/>
        <path id="Path_4020" data-name="Path 4020" d="M269.3,165.03v3.347a1.635,1.635,0,0,0,2.473,1.382l4.584-2.619a3.174,3.174,0,0,0,1.528-2.692v-2.474a1.635,1.635,0,0,0-2.474-1.382l-5.384,3.056A1.74,1.74,0,0,0,269.3,165.03Z" transform="translate(-236.052 -109.081)"/>
        <g id="Group_4091" data-name="Group 4091" transform="translate(5.893 3.565)">
          <path id="Path_4021" data-name="Path 4021" d="M265.54,188.65v15.06a3.493,3.493,0,0,0,3.492,3.492h24.518a9.083,9.083,0,0,0,6.984-3.347l22.408-28.084a13.764,13.764,0,0,0,2.983-8.512V153.8Z" transform="translate(-265.54 -153.8)" fill="#202020"/>
          <path id="Path_4022" data-name="Path 4022" d="M265.54,188.65v15.06a3.493,3.493,0,0,0,3.492,3.492h24.518a9.083,9.083,0,0,0,6.984-3.347l22.408-28.084a13.764,13.764,0,0,0,2.983-8.512V153.8Z" transform="translate(-265.54 -153.8)" fill="#202020"/>
        </g>
        <path id="Path_4023" data-name="Path 4023" d="M330.937,156.8l-60.313,34.923-5.893-3.638,60.386-34.777Z" transform="translate(-264.73 -153.31)"/>
        <path id="Path_4024" data-name="Path 4024" d="M274.424,159.1l7.785-4.511c1.892-1.091,3.638-1.164,4.874-.436l1.964.946-.291,1.455a7.331,7.331,0,0,1,.219,1.819v5.093l-1.746,1.019-.437,2.474-2.037-1.019v-4.584c0-2.11-1.528-2.983-3.347-1.964l-6.111,3.565a7.4,7.4,0,0,0-3.347,5.82v4.584l-1.892,1.091-.291,2.328-2.038-1.019v-5.093C267.658,166.52,270.714,161.282,274.424,159.1Z" transform="translate(-245.905 -151.023)" fill="#434343"/>
        <path id="Path_4025" data-name="Path 4025" d="M289.254,158.64v5.093l-4.219,2.4v-4.584c0-2.11-1.528-2.983-3.347-1.964l-6.112,3.565a7.4,7.4,0,0,0-3.346,5.82v4.584l-4.22,2.4v-5.093a14.846,14.846,0,0,1,6.766-11.641l7.785-4.511C286.2,152.6,289.254,154.348,289.254,158.64Z" transform="translate(-244.147 -150.128)" fill="url(#linear-gradient-13)"/>
        <path id="Path_4026" data-name="Path 4026" d="M270.477,195.97l-.436-16.443L264.73,175.6l6.039,2.692L312.093,155.3l-40.742,23.936Z" transform="translate(-264.73 -140.822)" fill="url(#radial-gradient-10)"/>
      </g>
      <path id="Path_4027" data-name="Path 4027" d="M280.143,151.34s6.62,8.076,9.6,13.605c1.6,2.983,1.528,3.492.8,9.6-.364,2.837-.873,4.875-2.4,5.093-.728.073-.291-1.6-.291-1.6s-.291,2.838-2.11,3.274-.873-1.819-.873-1.819-.509,2.983-2.4,3.347-.8-2.037-.8-2.037-.655,3.128-2.11,3.71c-1.455.509-1.746-.436-1.746-2.619,0-2.546-1.091-4.8-3.347-8.8-2.4-4.293-4.438-6.257-4.22-10.258.218-4.074-3.128-7.494-3.128-7.494Z" transform="translate(-187.9 102.968)" fill="url(#radial-gradient-11)"/>
      <path id="Path_4028" data-name="Path 4028" d="M281.684,138.261c-8.221-2.837-16.3,2.255-18.261,10.841s2.255,41.179,5.529,50.274,23.791,49.691,23.791,49.691,7.2-.946,11.641-2.91A15.14,15.14,0,0,0,311,240.045s-14.114-34.922-16.806-43.071-1.746-28.738-2.619-37.905C290.487,147.792,289.614,141.025,281.684,138.261Z" transform="translate(-214.251 15.937)" fill="#212121"/>
      <path id="Path_4029" data-name="Path 4029" d="M297.047,137.9c.873,1.019.363,3.347-2.546,3.565-2.91.291-9.313-.437-11.713-.437S268.6,136.44,268.6,136.44Z" transform="translate(-178.613 9.463)" fill="#9e9e9e"/>
      <path id="Path_4030" data-name="Path 4030" d="M283.7,136.1c2.838,1.6,7.2,2.547,9.531,3.711s4.365.509,4.947,1.6.219,3.929-5.6,2.619c-5.747-1.31-9.021-2.11-12.441-1.964s-10.113.073-11.35-1.819,1.164-4.365,1.164-4.365Z" transform="translate(-179.671 5.949)" fill="url(#radial-gradient-12)"/>
      <path id="Path_4031" data-name="Path 4031" d="M288.024,138.829c.582-1.091-5.166-.873-6.912-.218s-7.785,3.056-9.167,4c-1.018.655-2.4,1.673,1.31,1.891C280.385,144.94,285.914,142.758,288.024,138.829Z" transform="translate(-164.643 19.661)" fill="url(#radial-gradient-13)"/>
    </g>
  </g>
</svg>
