<svg id="Effective_Internal_Communication_" data-name="Effective Internal Communication " xmlns="http://www.w3.org/2000/svg" width="42.85" height="42.85" viewBox="0 0 42.85 42.85">
  <g id="Group_3881" data-name="Group 3881" transform="translate(2.143)">
    <g id="Group_3880" data-name="Group 3880">
      <path id="Path_3785" data-name="Path 3785" d="M29.885,0A4.285,4.285,0,1,0,34.17,4.285,4.29,4.29,0,0,0,29.885,0Zm0,7.142a2.857,2.857,0,1,1,2.857-2.857A2.859,2.859,0,0,1,29.885,7.142Z" transform="translate(-25.6)" fill="#fff"/>
    </g>
  </g>
  <g id="Group_3883" data-name="Group 3883" transform="translate(0 5.713)">
    <g id="Group_3882" data-name="Group 3882">
      <path id="Path_3786" data-name="Path 3786" d="M9.286,68.266H9.268a.715.715,0,0,0-.57.284,2.824,2.824,0,0,1-4.541,0,.75.75,0,0,0-.588-.284A3.573,3.573,0,0,0,0,71.835v2.858a.714.714,0,0,0,.714.714H12.141a.714.714,0,0,0,.714-.714V71.835A3.573,3.573,0,0,0,9.286,68.266Zm2.141,5.713h-10V71.835a2.144,2.144,0,0,1,1.843-2.118,4.247,4.247,0,0,0,6.315,0,2.145,2.145,0,0,1,1.841,2.12Z" transform="translate(0 -68.266)" fill="#fff"/>
    </g>
  </g>
  <g id="Group_3885" data-name="Group 3885" transform="translate(32.138)">
    <g id="Group_3884" data-name="Group 3884">
      <path id="Path_3787" data-name="Path 3787" d="M388.285,0a4.285,4.285,0,1,0,4.285,4.285A4.29,4.29,0,0,0,388.285,0Zm0,7.142a2.857,2.857,0,1,1,2.857-2.857A2.859,2.859,0,0,1,388.285,7.142Z" transform="translate(-384)" fill="#fff"/>
    </g>
  </g>
  <g id="Group_3887" data-name="Group 3887" transform="translate(29.995 5.713)">
    <g id="Group_3886" data-name="Group 3886">
      <path id="Path_3788" data-name="Path 3788" d="M367.685,68.267h-.018a.715.715,0,0,0-.57.284,2.824,2.824,0,0,1-4.541,0,.75.75,0,0,0-.588-.284,3.573,3.573,0,0,0-3.569,3.569v2.858a.714.714,0,0,0,.714.714H370.54a.714.714,0,0,0,.714-.714V71.836A3.573,3.573,0,0,0,367.685,68.267Zm2.141,5.713h-10V71.836a2.144,2.144,0,0,1,1.843-2.118,4.247,4.247,0,0,0,6.315,0,2.145,2.145,0,0,1,1.841,2.12Z" transform="translate(-358.399 -68.267)" fill="#fff"/>
    </g>
  </g>
  <g id="Group_3889" data-name="Group 3889" transform="translate(2.143 29.995)">
    <g id="Group_3888" data-name="Group 3888">
      <path id="Path_3789" data-name="Path 3789" d="M29.885,358.4a4.285,4.285,0,1,0,4.285,4.285A4.29,4.29,0,0,0,29.885,358.4Zm0,7.142a2.857,2.857,0,1,1,2.857-2.857A2.859,2.859,0,0,1,29.885,365.542Z" transform="translate(-25.6 -358.4)" fill="#fff"/>
    </g>
  </g>
  <g id="Group_3891" data-name="Group 3891" transform="translate(0 35.708)">
    <g id="Group_3890" data-name="Group 3890">
      <path id="Path_3790" data-name="Path 3790" d="M9.285,426.667H9.267a.715.715,0,0,0-.57.284,2.824,2.824,0,0,1-4.541,0,.75.75,0,0,0-.588-.284A3.573,3.573,0,0,0,0,430.236v2.858a.715.715,0,0,0,.714.714H12.14a.714.714,0,0,0,.714-.714v-2.858A3.573,3.573,0,0,0,9.285,426.667Zm2.141,5.713h-10v-2.144a2.144,2.144,0,0,1,1.843-2.118,4.247,4.247,0,0,0,6.315,0,2.145,2.145,0,0,1,1.841,2.12Z" transform="translate(0.001 -426.667)" fill="#fff"/>
    </g>
  </g>
  <g id="Group_3893" data-name="Group 3893" transform="translate(32.138 29.995)">
    <g id="Group_3892" data-name="Group 3892">
      <path id="Path_3791" data-name="Path 3791" d="M388.285,358.4a4.285,4.285,0,1,0,4.285,4.285A4.29,4.29,0,0,0,388.285,358.4Zm0,7.142a2.857,2.857,0,1,1,2.857-2.857A2.859,2.859,0,0,1,388.285,365.542Z" transform="translate(-384 -358.4)" fill="#fff"/>
    </g>
  </g>
  <g id="Group_3895" data-name="Group 3895" transform="translate(29.995 35.708)">
    <g id="Group_3894" data-name="Group 3894">
      <path id="Path_3792" data-name="Path 3792" d="M367.685,426.667h-.018a.715.715,0,0,0-.57.284,2.824,2.824,0,0,1-4.541,0,.75.75,0,0,0-.588-.284,3.573,3.573,0,0,0-3.569,3.569v2.858a.714.714,0,0,0,.714.714H370.54a.714.714,0,0,0,.714-.714v-2.858A3.573,3.573,0,0,0,367.685,426.667Zm2.141,5.713h-10v-2.144a2.144,2.144,0,0,1,1.843-2.118,4.247,4.247,0,0,0,6.315,0,2.145,2.145,0,0,1,1.841,2.12Z" transform="translate(-358.399 -426.667)" fill="#fff"/>
    </g>
  </g>
  <g id="Group_3897" data-name="Group 3897" transform="translate(30.308 2.356)">
    <g id="Group_3896" data-name="Group 3896">
      <path id="Path_3793" data-name="Path 3793" d="M365.088,29.366a21.632,21.632,0,0,0-1.906-1.128.714.714,0,1,0-.663,1.265,20.21,20.21,0,0,1,1.779,1.053.714.714,0,1,0,.79-1.19Z" transform="translate(-362.136 -28.156)" fill="#fff"/>
    </g>
  </g>
  <g id="Group_3900" data-name="Group 3900" transform="translate(14.812 0.095)">
    <g id="Group_3899" data-name="Group 3899">
      <g id="Group_3898" data-name="Group 3898">
        <path id="Path_3794" data-name="Path 3794" d="M276.148,1.932a21.416,21.416,0,0,0-4.046-.787.714.714,0,0,0-.136,1.422,20.017,20.017,0,0,1,3.775.734.714.714,0,1,0,.407-1.369Z" transform="translate(-263.424 -1.141)" fill="#fff"/>
        <path id="Path_3795" data-name="Path 3795" d="M181.535,1.135a21.38,21.38,0,0,0-4.046.786.714.714,0,0,0,.2,1.4.729.729,0,0,0,.2-.03,19.906,19.906,0,0,1,3.775-.733.714.714,0,0,0-.136-1.422Z" transform="translate(-176.978 -1.132)" fill="#fff"/>
      </g>
    </g>
  </g>
  <g id="Group_3902" data-name="Group 3902" transform="translate(9.271 2.356)">
    <g id="Group_3901" data-name="Group 3901">
      <path id="Path_3796" data-name="Path 3796" d="M113.968,28.539a.714.714,0,0,0-.964-.3,21.644,21.644,0,0,0-1.906,1.128.714.714,0,1,0,.79,1.19,19.967,19.967,0,0,1,1.779-1.053A.714.714,0,0,0,113.968,28.539Z" transform="translate(-110.778 -28.156)" fill="#fff"/>
    </g>
  </g>
  <g id="Group_3904" data-name="Group 3904" transform="translate(38.484 29.453)">
    <g id="Group_3903" data-name="Group 3903">
      <path id="Path_3797" data-name="Path 3797" d="M461.848,351.994a.714.714,0,0,0-.949.345,20.108,20.108,0,0,1-.97,1.825.715.715,0,0,0,.246.98.712.712,0,0,0,.978-.245,21.38,21.38,0,0,0,1.04-1.956A.714.714,0,0,0,461.848,351.994Z" transform="translate(-459.828 -351.926)" fill="#fff"/>
    </g>
  </g>
  <g id="Group_3906" data-name="Group 3906" transform="translate(41.126 18.736)">
    <g id="Group_3905" data-name="Group 3905">
      <path id="Path_3798" data-name="Path 3798" d="M493.027,224.511a.714.714,0,1,0-1.422.135c.061.631.091,1.273.091,1.908a20.225,20.225,0,0,1-.286,3.386.715.715,0,0,0,.584.824.689.689,0,0,0,.121.01.714.714,0,0,0,.7-.593,21.589,21.589,0,0,0,.306-3.626C493.124,225.874,493.091,225.186,493.027,224.511Z" transform="translate(-491.4 -223.865)" fill="#fff"/>
    </g>
  </g>
  <g id="Group_3908" data-name="Group 3908" transform="translate(39.223 11.427)">
    <g id="Group_3907" data-name="Group 3907">
      <path id="Path_3799" data-name="Path 3799" d="M470.906,138.953a21.445,21.445,0,0,0-.891-2.028.715.715,0,0,0-1.277.642,20.045,20.045,0,0,1,.832,1.893.714.714,0,0,0,1.336-.506Z" transform="translate(-468.661 -136.532)" fill="#fff"/>
    </g>
  </g>
  <g id="Group_3910" data-name="Group 3910" transform="translate(1.337 11.427)">
    <g id="Group_3909" data-name="Group 3909">
      <path id="Path_3800" data-name="Path 3800" d="M17.869,136.608a.714.714,0,0,0-.959.317,21.485,21.485,0,0,0-.891,2.028.714.714,0,1,0,1.336.506,20.024,20.024,0,0,1,.832-1.893A.715.715,0,0,0,17.869,136.608Z" transform="translate(-15.971 -136.532)" fill="#fff"/>
    </g>
  </g>
  <g id="Group_3912" data-name="Group 3912" transform="translate(0 18.731)">
    <g id="Group_3911" data-name="Group 3911">
      <path id="Path_3801" data-name="Path 3801" d="M1.713,229.888a20.162,20.162,0,0,1-.285-3.381c0-.638.031-1.282.09-1.912A.714.714,0,1,0,.1,224.459c-.064.676-.1,1.364-.1,2.048a21.652,21.652,0,0,0,.3,3.621.715.715,0,0,0,.7.594.685.685,0,0,0,.121-.01A.714.714,0,0,0,1.713,229.888Z" transform="translate(0 -223.814)" fill="#fff"/>
    </g>
  </g>
  <g id="Group_3914" data-name="Group 3914" transform="translate(1.933 29.453)">
    <g id="Group_3913" data-name="Group 3913">
      <path id="Path_3802" data-name="Path 3802" d="M25.424,354.164a20.111,20.111,0,0,1-.97-1.825.714.714,0,0,0-1.294.6A21.531,21.531,0,0,0,24.2,354.9a.714.714,0,0,0,.613.347.7.7,0,0,0,.365-.1A.714.714,0,0,0,25.424,354.164Z" transform="translate(-23.093 -351.926)" fill="#fff"/>
    </g>
  </g>
  <g id="Group_3916" data-name="Group 3916" transform="translate(17.14 18.568)">
    <g id="Group_3915" data-name="Group 3915">
      <path id="Path_3803" data-name="Path 3803" d="M219.081,221.867H206.23a1.431,1.431,0,0,0-1.43,1.43v8.567a1.431,1.431,0,0,0,1.43,1.43h6.844l4.076,4.076a.714.714,0,0,0,1.219-.505v-3.571h.713a1.431,1.431,0,0,0,1.43-1.43V223.3A1.431,1.431,0,0,0,219.081,221.867Zm0,10h-1.427a.714.714,0,0,0-.714.714v2.561l-3.066-3.066a.712.712,0,0,0-.5-.209l-7.142,0V223.3h12.855Z" transform="translate(-204.8 -221.867)" fill="#fff"/>
    </g>
  </g>
  <g id="Group_3918" data-name="Group 3918" transform="translate(9.284 14.283)">
    <g id="Group_3917" data-name="Group 3917">
      <path id="Path_3804" data-name="Path 3804" d="M125.214,170.667H112.363a1.431,1.431,0,0,0-1.43,1.43v8.567a1.431,1.431,0,0,0,1.43,1.43h.713v3.571a.714.714,0,0,0,1.219.5l4.076-4.076H119.5a.714.714,0,0,0,.714-.714v-5h5.713a.714.714,0,0,0,.714-.714V172.1A1.431,1.431,0,0,0,125.214,170.667Zm0,4.285h-5a1.431,1.431,0,0,0-1.43,1.43v4.284h-.714a.713.713,0,0,0-.5.209L114.5,183.94v-2.561a.714.714,0,0,0-.714-.714h-1.428V172.1h12.854Z" transform="translate(-110.933 -170.667)" fill="#fff"/>
    </g>
  </g>
  <g id="Group_3920" data-name="Group 3920" transform="translate(19.997 22.139)">
    <g id="Group_3919" data-name="Group 3919">
      <path id="Path_3805" data-name="Path 3805" d="M243.933,264.533h-4.285a.714.714,0,0,0,0,1.428h4.285a.714.714,0,0,0,0-1.428Z" transform="translate(-238.934 -264.533)" fill="#fff"/>
    </g>
  </g>
  <g id="Group_3922" data-name="Group 3922" transform="translate(27.138 22.139)">
    <g id="Group_3921" data-name="Group 3921">
      <path id="Path_3806" data-name="Path 3806" d="M326.409,264.533h-1.428a.714.714,0,0,0,0,1.428h1.428a.714.714,0,1,0,0-1.428Z" transform="translate(-324.267 -264.533)" fill="#fff"/>
    </g>
  </g>
  <g id="Group_3924" data-name="Group 3924" transform="translate(24.282 24.996)">
    <g id="Group_3923" data-name="Group 3923">
      <path id="Path_3807" data-name="Path 3807" d="M295.133,298.667h-4.285a.714.714,0,0,0,0,1.428h4.285a.714.714,0,1,0,0-1.428Z" transform="translate(-290.134 -298.667)" fill="#fff"/>
    </g>
  </g>
  <g id="Group_3926" data-name="Group 3926" transform="translate(19.997 24.996)">
    <g id="Group_3925" data-name="Group 3925">
      <path id="Path_3808" data-name="Path 3808" d="M241.075,298.667h-1.428a.714.714,0,1,0,0,1.428h1.428a.714.714,0,1,0,0-1.428Z" transform="translate(-238.933 -298.667)" fill="#fff"/>
    </g>
  </g>
  <g id="Group_3928" data-name="Group 3928" transform="translate(11.426 39.223)">
    <g id="Group_3927" data-name="Group 3927">
      <path id="Path_3809" data-name="Path 3809" d="M139.455,469.574a20.092,20.092,0,0,1-1.893-.832.714.714,0,1,0-.641,1.276,21.247,21.247,0,0,0,2.028.891.714.714,0,1,0,.506-1.336Z" transform="translate(-136.528 -468.666)" fill="#fff"/>
    </g>
  </g>
  <g id="Group_3930" data-name="Group 3930" transform="translate(18.218 41.273)">
    <g id="Group_3929" data-name="Group 3929">
      <path id="Path_3810" data-name="Path 3810" d="M224.075,493.787a.713.713,0,0,0-.794-.624,20.326,20.326,0,0,1-4.8,0,.714.714,0,1,0-.17,1.418,21.685,21.685,0,0,0,5.145,0A.714.714,0,0,0,224.075,493.787Z" transform="translate(-217.677 -493.156)" fill="#fff"/>
    </g>
  </g>
  <g id="Group_3932" data-name="Group 3932" transform="translate(28.034 39.223)">
    <g id="Group_3931" data-name="Group 3931">
      <path id="Path_3811" data-name="Path 3811" d="M338.28,469.051a.714.714,0,0,0-.959-.317,19.824,19.824,0,0,1-1.892.832.714.714,0,1,0,.506,1.336,21.632,21.632,0,0,0,2.028-.891A.714.714,0,0,0,338.28,469.051Z" transform="translate(-334.967 -468.658)" fill="#fff"/>
    </g>
  </g>
</svg>
