<svg id="Enhance_Customer_Service" data-name="Enhance Customer Service" xmlns="http://www.w3.org/2000/svg" width="34.141" height="38" viewBox="0 0 34.141 38">
  <g id="XMLID_426_" transform="translate(0)">
    <path id="XMLID_789_" d="M51.19,23.654H46.865V21.967a7.3,7.3,0,0,0,3.141-4.005h1A4.013,4.013,0,0,0,53.609,10.9v-.356a10.539,10.539,0,0,0-21.078,0V10.9a4.013,4.013,0,0,0,2.605,7.067h1a7.3,7.3,0,0,0,3.141,4.005v1.686H34.95A8.96,8.96,0,0,0,26,32.6v4.654a.742.742,0,0,0,.742.742h4.912a.742.742,0,1,0,0-1.484h-4.17V32.6a7.474,7.474,0,0,1,7.466-7.466h.356L39.72,30.9a.742.742,0,0,0,.54.289l.049,0a.742.742,0,0,0,.525-.217l1.494-1.494v7.034H38.334a.742.742,0,0,0,0,1.484H59.4a.742.742,0,0,0,.742-.742V32.6a8.961,8.961,0,0,0-8.95-8.95Zm-4.518,1.484h2.293l-3.207,4.189L44.12,27.69ZM45.637,7.757a.742.742,0,0,0-1.05,0L43.6,8.75a5.825,5.825,0,0,1-4.152,1.723H37.283a5.788,5.788,0,0,1,11.575,0H47.57a2.813,2.813,0,0,1-2.339-1.258l.408-.409a.742.742,0,0,0,0-1.05ZM51,16.478h-.661V11.416H51a2.531,2.531,0,0,1,0,5.062ZM43.07,1.484a9.066,9.066,0,0,1,9.043,8.6A4,4,0,0,0,51,9.932h-.686a7.273,7.273,0,0,0-14.5,0h-.686a4,4,0,0,0-1.109.157,9.066,9.066,0,0,1,9.043-8.6ZM35.8,16.478h-.661a2.531,2.531,0,0,1,0-5.062H35.8Zm1.484-.7V11.957h2.165a7.292,7.292,0,0,0,4.7-1.7,4.3,4.3,0,0,0,3.42,1.7h1.289v3.816a5.772,5.772,0,0,1-.12,1.172H45.713a2.23,2.23,0,0,0-2.1-1.484H43.02a2.227,2.227,0,1,0,0,4.453h.594a2.23,2.23,0,0,0,2.1-1.484h2.5a5.789,5.789,0,0,1-10.928-2.656Zm7.075,1.914a.743.743,0,0,1-.742.742H43.02a.742.742,0,1,1,0-1.484h.594A.743.743,0,0,1,44.356,17.687ZM43.07,23.037a7.255,7.255,0,0,0,2.311-.376V24.33L43.07,26.64,40.76,24.33V22.661A7.254,7.254,0,0,0,43.07,23.037Zm-2.687,6.291-3.207-4.189h2.293l2.552,2.552Zm18.273,7.188H43.813V29.482l1.494,1.494a.742.742,0,0,0,.525.217l.049,0a.742.742,0,0,0,.54-.289l4.413-5.764h.356A7.474,7.474,0,0,1,58.656,32.6Z" transform="translate(-26)" fill="#fff"/>
    <path id="XMLID_841_" d="M341.972,438h-3.562a.742.742,0,0,0,0,1.484h3.562a.742.742,0,0,0,0-1.484Z" transform="translate(-314.535 -405.492)" fill="#fff"/>
    <path id="XMLID_842_" d="M137.932,492a.742.742,0,1,0,.525.217A.746.746,0,0,0,137.932,492Z" transform="translate(-128.938 -455.484)" fill="#fff"/>
  </g>
</svg>
