<svg id="Improve_Customer_Loyalty" data-name="Improve Customer Loyalty" xmlns="http://www.w3.org/2000/svg" width="42.369" height="44" viewBox="0 0 42.369 44">
  <g id="Group_6700" data-name="Group 6700" transform="translate(9.655 0)">
    <g id="Group_6699" data-name="Group 6699">
      <path id="Path_8637" data-name="Path 8637" d="M154.171,7,148.533.425c-.011-.012-.022-.024-.033-.036a1.341,1.341,0,0,0-1.817-.067L142.19,4.2a1.319,1.319,0,0,0-.136,1.86l.176.2-.29.25a3.323,3.323,0,0,1-3.1.531c-.024-.007-3.351-.951-3.375-.957a4.844,4.844,0,0,0-3.674.6c-.024.014-8.61,4.928-8.633,4.943a2.468,2.468,0,0,0-.995,3.332l.011.018a2.211,2.211,0,0,0,1.556,1.083,2.33,2.33,0,0,0,4.09,1.431l3.182-3.677a2.314,2.314,0,0,0,.324-.488l.131-.054a2.169,2.169,0,0,0,1.6,1.555c3.993,1.132,4.824,1.46,5.942,1.337,3.116-.334,3.831-.436,5.4-1.34a24.756,24.756,0,0,0,3.274-2.262l.191.222a1.318,1.318,0,0,0,1.86.136L154,9.238A1.6,1.6,0,0,0,154.171,7Zm-27.323,9.661a1.041,1.041,0,0,1-1.826-.715l3.808-1.575Zm16.91-2.94c-1.335.769-1.785.842-4.881,1.174-.848.091-1.512-.172-5.466-1.294a.867.867,0,0,1-.694-.606,1.222,1.222,0,0,1-.028-.511s0-.006,0-.009,0-.011,0-.017a.988.988,0,0,1,.152-.324.543.543,0,0,1,.587-.208c1.22.168,4.124.556,4.153.56a.645.645,0,0,0,.171-1.278c-.029,0-2.931-.392-4.149-.559a1.874,1.874,0,0,0-2.076,1.212l-.94.388c-7.421,3.06-5.748,2.4-6.3,2.554-1.037.145-1.747-1.2-.443-2.073l8.6-4.922h0l.031-.019a3.538,3.538,0,0,1,2.68-.442l3.33.944a4.6,4.6,0,0,0,4.29-.8l.29-.25,3.761,4.355A23.458,23.458,0,0,1,143.758,13.717Zm9.4-5.455c-.014.012-4.28,3.7-4.3,3.7s-5.869-6.751-5.83-6.784L147.525,1.3h0a.047.047,0,0,1,.055,0l5.612,6.541A.3.3,0,0,1,153.161,8.262Z" transform="translate(-121.84 0)" fill="#fff"/>
    </g>
  </g>
  <g id="Group_6702" data-name="Group 6702" transform="translate(0 25.723)">
    <g id="Group_6701" data-name="Group 6701">
      <path id="Path_8638" data-name="Path 8638" d="M40.433,301.565a2.334,2.334,0,0,0-4.09-1.431l-3.182,3.677a2.311,2.311,0,0,0-.324.488l-.131.054a2.169,2.169,0,0,0-1.6-1.555c-4.227-1.2-4.778-1.439-5.929-1.338h-.012c-3.116.334-3.831.436-5.4,1.34a24.736,24.736,0,0,0-3.274,2.262l-.191-.222a1.32,1.32,0,0,0-1.86-.136L9.93,308.6a1.276,1.276,0,0,0-.125,1.808l5.943,6.773a1.241,1.241,0,0,0,1.724.143l.012-.01,4.493-3.879a1.318,1.318,0,0,0,.136-1.86l-.176-.2.29-.25a3.324,3.324,0,0,1,3.1-.531l2.989.848a.645.645,0,1,0,.352-1.24l-2.989-.848a4.6,4.6,0,0,0-4.29.8l-.29.25-3.761-4.355a23.447,23.447,0,0,1,3.075-2.12c1.336-.769,1.785-.842,4.888-1.174.725-.063,1.179.068,3.665.782,1.927.553,2.325.556,2.487,1.118a1.222,1.222,0,0,1,.028.511.957.957,0,0,1-.157.35.544.544,0,0,1-.587.208c-1.22-.168-4.124-.556-4.153-.56a.645.645,0,0,0-.171,1.278c.029,0,2.931.392,4.149.559a1.871,1.871,0,0,0,2.075-1.211c.032-.013,6.491-2.675,6.522-2.691.681-.346,1.324-.425,1.729.226.467.834-.361,1.456-.569,1.6l-8.6,4.922-.011.007-.021.013a3.272,3.272,0,0,1-.451.245.645.645,0,1,0,.526,1.177,4.564,4.564,0,0,0,.614-.332C32.4,310.925,40.98,306.013,41,306A2.357,2.357,0,0,0,40.433,301.565Zm-19.3,10.85a.027.027,0,0,1,.007.021c0,.019-4.441,3.846-4.456,3.859l-5.906-6.73,4.5-3.885a.029.029,0,0,1,.042,0Zm14.2-9.147,1.983-2.291a1.041,1.041,0,0,1,1.826.715Z" transform="translate(-9.488 -299.328)" fill="#fff"/>
    </g>
  </g>
  <g id="Group_6704" data-name="Group 6704" transform="translate(15.994 17.86)">
    <g id="Group_6703" data-name="Group 6703">
      <path id="Path_8639" data-name="Path 8639" d="M200.115,209.992a1.077,1.077,0,0,0,.9.488,1.051,1.051,0,0,0,.845-.5,1.723,1.723,0,0,1,3.086.181.645.645,0,0,0,1.186-.506,3.009,3.009,0,0,0-5.143-.675,3.019,3.019,0,0,0-5.387,1.864c0,2.986,2.589,5.27,5.008,6.412a.9.9,0,0,0,.769,0,9.583,9.583,0,0,0,4.444-4.057.645.645,0,0,0-1.16-.562,8.266,8.266,0,0,1-3.67,3.373c-2.012-.995-4.1-2.846-4.1-5.166A1.727,1.727,0,0,1,200.115,209.992Z" transform="translate(-195.599 -207.822)" fill="#fff"/>
    </g>
  </g>
</svg>
