<svg id="Increase_Customer_Revenues" data-name="Increase Customer Revenues" xmlns="http://www.w3.org/2000/svg" width="37.976" height="42" viewBox="0 0 37.976 42">
  <path id="Path_8651" data-name="Path 8651" d="M40.347,73.251c-1.93-1.921-4.161-.123-4.161-.123V63.013a.615.615,0,1,0-1.23,0v10.98a33.532,33.532,0,0,1-4.195,2.878V58.659A1.537,1.537,0,0,1,32.3,57.124H33.42a1.537,1.537,0,0,1,1.535,1.535v1.835a.615.615,0,1,0,1.23,0V58.659a2.768,2.768,0,0,0-2.765-2.765H32.3a2.769,2.769,0,0,0-2.766,2.765v18.7a6.465,6.465,0,0,1-1.126.21V64.6a2.782,2.782,0,0,0-2.779-2.779h-1.1A2.782,2.782,0,0,0,21.749,64.6v6.268l-1.126.6V69.378a2.505,2.505,0,0,0-2.5-2.5H16.47a2.5,2.5,0,0,0-2.5,2.5V75l-2.009,1.066L6.318,77.675a3.888,3.888,0,0,0-2.695,4.717l.631,2.428a.615.615,0,1,0,1.191-.31l-.631-2.427a2.642,2.642,0,0,1,1.842-3.224l5.157-1.474L15.691,87.73a2.756,2.756,0,0,1-1.832,3.4l-3.9.885a2.551,2.551,0,0,1-3.047-1.854l-.791-3.044a.615.615,0,1,0-1.191.31l.791,3.045a3.774,3.774,0,0,0,3.656,2.841,30.16,30.16,0,0,0,4.752-.982A3.791,3.791,0,0,0,17,87.847l13.484-3.3a7.759,7.759,0,0,0,3.061-1.532l6.562-5.392a2.918,2.918,0,0,0,.239-4.371Zm-15.818-10.2h1.1A1.551,1.551,0,0,1,27.174,64.6v13l-3.882,0c-.357,0-.11-.239-.09-.255l1.118-.906a5.848,5.848,0,0,0,2.025-3.492,2.44,2.44,0,0,0-3.364-2.723V64.6a1.551,1.551,0,0,1,1.549-1.549ZM15.2,69.378a1.273,1.273,0,0,1,1.271-1.272h1.651a1.273,1.273,0,0,1,1.272,1.272v2.739L15.2,74.344V69.378Zm24.129,7.293-6.562,5.392a6.514,6.514,0,0,1-2.572,1.287L16.61,86.676l-3.653-9.749,10.43-5.537A1.209,1.209,0,0,1,25.139,72.7a4.651,4.651,0,0,1-1.594,2.782l-1.118.906a1.374,1.374,0,0,0,.864,2.441l4.483,0h0a7.671,7.671,0,0,0,4.435-1.4l5.01-3.523a1.733,1.733,0,0,1,2.245.207,1.707,1.707,0,0,1-.139,2.56Zm0,0" transform="translate(-3.251 -51.309)" fill="#fff"/>
  <path id="Path_8652" data-name="Path 8652" d="M69.168,421.662a2.424,2.424,0,1,0-2.424,2.424A2.427,2.427,0,0,0,69.168,421.662Zm-3.617,0a1.193,1.193,0,1,1,1.193,1.193A1.195,1.195,0,0,1,65.551,421.662Zm0,0" transform="translate(-59.085 -384.847)" fill="#fff"/>
  <path id="Path_8653" data-name="Path 8653" d="M3.733,19.317,12.677,10.3l2.012,1.04a1.892,1.892,0,0,0,2.182-.318l4.868-4.686S21.6,8.748,23.632,8.748a1.9,1.9,0,0,0,1.893-1.893V1.892c0-.006,0-.012,0-.018A1.791,1.791,0,0,0,23.632,0h-4.92a1.9,1.9,0,0,0-1.892,1.893,1.865,1.865,0,0,0,2.117,1.893L15.223,7.36,13.182,6.3a1.885,1.885,0,0,0-2.213.348l-9.922,10a1.9,1.9,0,0,0,.01,2.677,1.866,1.866,0,0,0,2.676-.01Zm-1.813-1.8,9.922-10a.56.56,0,0,1,.774-.121l2.432,1.258a.615.615,0,0,0,.709-.1l5.131-4.939a.615.615,0,0,0-.427-1.058H18.712a.662.662,0,0,1,0-1.324h4.92a.578.578,0,0,1,.662.658c0,.005,0,.011,0,.017v4.95a.662.662,0,0,1-1.324,0V4.9a.615.615,0,0,0-1.042-.443l-5.91,5.689a.662.662,0,0,1-.763.111L12.841,9a.616.616,0,0,0-.719.113L2.86,18.45a.635.635,0,0,1-.937,0,.663.663,0,0,1,0-.936Zm0,0" transform="translate(-0.499 0)" fill="#fff"/>
</svg>
