<svg xmlns="http://www.w3.org/2000/svg" xmlns:xlink="http://www.w3.org/1999/xlink" width="570.804" height="372.741" viewBox="0 0 570.804 372.741">
  <defs>
    <linearGradient id="linear-gradient" x1="57.356" y1="0.5" x2="56.356" y2="0.5" gradientUnits="objectBoundingBox">
      <stop offset="0" stop-color="#febbba"/>
      <stop offset="1" stop-color="#ff928e"/>
    </linearGradient>
    <linearGradient id="linear-gradient-2" x1="74.776" y1="0.5" x2="73.776" y2="0.5" xlink:href="#linear-gradient"/>
    <linearGradient id="linear-gradient-3" x1="9.616" y1="0.5" x2="8.616" y2="0.5" xlink:href="#linear-gradient"/>
    <linearGradient id="linear-gradient-4" x1="-91.206" y1="1.605" x2="-93.206" y2="4.278" xlink:href="#linear-gradient"/>
    <linearGradient id="linear-gradient-5" x1="55.331" y1="0.705" x2="53.312" y2="-1.072" xlink:href="#linear-gradient"/>
    <linearGradient id="linear-gradient-6" x1="11.057" y1="0.5" x2="10.057" y2="0.5" xlink:href="#linear-gradient"/>
    <linearGradient id="linear-gradient-7" x1="29.547" y1="0.5" x2="28.547" y2="0.5" xlink:href="#linear-gradient"/>
    <linearGradient id="linear-gradient-8" x1="24.083" y1="0.5" x2="23.083" y2="0.5" xlink:href="#linear-gradient"/>
    <linearGradient id="linear-gradient-9" x1="26.897" y1="-15.502" x2="28.106" y2="-14.208" xlink:href="#linear-gradient"/>
    <linearGradient id="linear-gradient-10" x1="79.922" y1="-47.576" x2="77.234" y2="-50.119" xlink:href="#linear-gradient"/>
    <linearGradient id="linear-gradient-11" x1="-78.476" y1="0.5" x2="-77.476" y2="0.5" gradientUnits="objectBoundingBox">
      <stop offset="0" stop-color="#ff928e"/>
      <stop offset="1" stop-color="#feb3b1"/>
    </linearGradient>
    <linearGradient id="linear-gradient-12" x1="-85.189" y1="0.5" x2="-84.189" y2="0.5" xlink:href="#linear-gradient-11"/>
    <linearGradient id="linear-gradient-13" x1="-21.966" y1="0.5" x2="-20.966" y2="0.5" xlink:href="#linear-gradient-11"/>
    <linearGradient id="linear-gradient-14" x1="-36.482" y1="0.5" x2="-35.482" y2="0.5" xlink:href="#linear-gradient-11"/>
    <linearGradient id="linear-gradient-15" x1="1.122" y1="-1.063" x2="0.281" y2="1.294" xlink:href="#linear-gradient-11"/>
    <linearGradient id="linear-gradient-16" x1="2.899" y1="-0.089" x2="0.396" y2="0.511" xlink:href="#linear-gradient-11"/>
    <linearGradient id="linear-gradient-17" x1="-106.533" y1="-56.382" x2="-103.281" y2="-58.77" xlink:href="#linear-gradient-11"/>
  </defs>
  <g id="Maintain_A_Centralized_" data-name="Maintain A Centralized " transform="translate(-165.9 -165.496)">
    <path id="Path_8480" data-name="Path 8480" d="M294.689,495.294s-98.478,4.747-103.647-21.106,19.318-11.986,16.693-24.2-50.093-30.741-40.576-78.515,41.514-35.133,52.111-58.827-43.268-51.062-6.153-95.6,65.773-6.122,89.244-6.944,19.02-43.411,63.641-44.59,43.473,52.671,70.737,54.35,16.794-18.1,57.713-12.47,36.281,26.29,77.243,16.916,85.3-43.206,131.186,0-27.054,81.451-20.719,106.256,32.731,18.113,45.584,47-30.982,45.7-24.9,73.561-58.22,66.268-120.565,46.551S294.689,495.294,294.689,495.294Z" transform="translate(0 0)" fill="#ebebeb"/>
    <g id="Group_6634" data-name="Group 6634" transform="translate(622.319 247.17)">
      <path id="Path_8481" data-name="Path 8481" d="M1939.029,731.326s-18.3-95.926-4.138-141.555c12.636-40.724,34.268-96.843,38.776-108.443a.943.943,0,0,1,1.751-.018c5.3,12.892,30.575,82.585-5.078,162.284C1930.813,731.953,1939.029,731.326,1939.029,731.326Z" transform="translate(-1928.998 -480.727)" fill="#dfdfdf"/>
      <path id="Path_8482" data-name="Path 8482" d="M1973.227,599.69c-.718,6.887-1.646,13.74-2.666,20.58s-2.174,13.662-3.433,20.463-2.62,13.584-4.12,20.336-3.119,13.481-4.861,20.176q-2.639,10.038-5.7,19.958-3.094,9.91-6.68,19.657c-2.438,6.477-5.047,12.9-7.886,19.212-2.886,6.3-6,12.491-9.4,18.533a.517.517,0,0,1-.9-.508h0l0-.005c3.4-6,6.516-12.156,9.41-18.421,2.847-6.286,5.467-12.675,7.92-19.129q3.6-9.712,6.724-19.59,3.074-9.891,5.749-19.906,2.639-10.019,4.912-20.131c1.518-6.739,2.9-13.512,4.177-20.3s2.44-13.6,3.49-20.432,1.987-13.68,2.723-20.543v-.005a.271.271,0,0,1,.539.057Z" transform="translate(-1927.513 -568.647)" fill="#fff"/>
    </g>
    <g id="Group_6635" data-name="Group 6635" transform="translate(501.428 168.609)">
      <path id="Path_8483" data-name="Path 8483" d="M1476.94,429.852s-24.3-94.581-13.048-141.013c10.045-41.439,28.1-98.81,31.866-110.671a.945.945,0,0,1,1.749-.13c6.1,12.535,35.716,80.495,5.156,162.282C1468.781,430.994,1476.94,429.852,1476.94,429.852Z" transform="translate(-1460.917 -177.51)" fill="#dfdfdf"/>
      <path id="Path_8484" data-name="Path 8484" d="M1504.934,296.252c-.282,6.918-.777,13.815-1.365,20.707s-1.311,13.771-2.138,20.639-1.759,13.721-2.832,20.556-2.264,13.649-3.58,20.442q-2,10.182-4.431,20.276-2.464,10.085-5.428,20.038c-2.026,6.62-4.226,13.188-6.661,19.67-2.485,6.464-5.2,12.843-8.213,19.087a.518.518,0,1,1-.933-.451h0l0-.005c3.016-6.2,5.739-12.543,8.231-18.978,2.446-6.454,4.658-12.993,6.7-19.59q2.981-9.918,5.477-19.976,2.448-10.066,4.485-20.227,2-10.167,3.635-20.4c1.091-6.822,2.039-13.667,2.889-20.523s1.578-13.729,2.2-20.611,1.122-13.779,1.425-20.673v-.005a.271.271,0,0,1,.542.023Z" transform="translate(-1467.129 -265.277)" fill="#c7c7c7"/>
    </g>
    <g id="Group_6636" data-name="Group 6636" transform="translate(629.535 363.796)">
      <path id="Path_8485" data-name="Path 8485" d="M2065.292,930.92c-17.1,4.723-115.479,36.28-102.449,133.916,0,0,70.115-4.1,104.3-132.087A1.5,1.5,0,0,0,2065.292,930.92Z" transform="translate(-1960.026 -930.865)" fill="#dfdfdf"/>
      <path id="Path_8486" data-name="Path 8486" d="M2049.962,985.644c-4.418,3.536-8.765,7.169-13.079,10.838s-8.583,7.389-12.809,11.156-8.407,7.586-12.542,11.454-8.208,7.8-12.229,11.784c-8.029,7.977-15.833,16.193-23.163,24.81q-5.519,6.444-10.545,13.279a142.352,142.352,0,0,0-9.262,14.162v0a.517.517,0,0,1-.9-.508v0a143.434,143.434,0,0,1,9.392-14.224q5.072-6.844,10.643-13.283c7.389-8.61,15.243-16.8,23.318-24.759q6.07-5.954,12.3-11.742t12.6-11.408q6.37-5.628,12.866-11.11c4.335-3.651,8.7-7.265,13.139-10.789a.219.219,0,0,1,.309.036.214.214,0,0,1-.037.3Z" transform="translate(-1955.363 -971.164)" fill="#a6a7a8"/>
    </g>
    <g id="Group_6641" data-name="Group 6641" transform="translate(229.196 217.81)">
      <g id="Group_6637" data-name="Group 6637">
        <path id="Path_8487" data-name="Path 8487" d="M432.944,615.255a.26.26,0,0,1-.223-.124c-.181-.3-.358-.6-.531-.9a.26.26,0,1,1,.451-.259c.171.3.347.593.526.886a.261.261,0,0,1-.086.358A.279.279,0,0,1,432.944,615.255Z" transform="translate(-426.466 -549.996)" fill="#fff"/>
        <path id="Path_8488" data-name="Path 8488" d="M414.563,428.752a.262.262,0,0,1-.236-.148c-.3-.635-.588-1.285-.858-1.935a.26.26,0,1,1,.479-.2c.267.642.549,1.285.847,1.912a.257.257,0,0,1-.124.345A.232.232,0,0,1,414.563,428.752Zm-2.031-5.13a.258.258,0,0,1-.246-.179c-.215-.663-.415-1.347-.6-2.029a.26.26,0,0,1,.5-.135c.181.674.381,1.35.593,2.005a.259.259,0,0,1-.168.326A.3.3,0,0,1,412.532,423.622Zm-1.35-5.35a.26.26,0,0,1-.254-.212c-.13-.689-.241-1.394-.337-2.088a.26.26,0,0,1,.516-.07c.093.687.2,1.381.332,2.065a.262.262,0,0,1-.207.3A.325.325,0,0,1,411.182,418.272Zm-.658-5.477a.259.259,0,0,1-.259-.246c-.039-.7-.06-1.412-.065-2.114a.262.262,0,0,1,.257-.262h0a.258.258,0,0,1,.259.257c0,.694.026,1.4.062,2.088a.258.258,0,0,1-.244.272A.017.017,0,0,1,410.524,412.8Zm.054-5.516h-.021a.258.258,0,0,1-.238-.277c.054-.7.124-1.415.212-2.109a.26.26,0,1,1,.516.065c-.085.687-.158,1.389-.21,2.083A.26.26,0,0,1,410.578,407.279Zm.775-5.467a.383.383,0,0,1-.054-.005.256.256,0,0,1-.2-.306c.145-.689.308-1.384.484-2.062a.259.259,0,0,1,.5.132c-.176.671-.337,1.355-.479,2.036A.256.256,0,0,1,411.353,401.812Zm1.479-5.319a.25.25,0,0,1-.085-.016.256.256,0,0,1-.158-.329c.231-.663.485-1.329.749-1.982a.259.259,0,1,1,.479.194c-.262.642-.51,1.3-.738,1.956A.263.263,0,0,1,412.832,396.493Zm2.153-5.081a.242.242,0,0,1-.117-.029.259.259,0,0,1-.114-.347c.316-.63.653-1.259,1-1.868a.259.259,0,0,1,.451.254c-.339.6-.671,1.223-.985,1.845A.259.259,0,0,1,414.985,391.412Zm2.79-4.76a.271.271,0,0,1-.145-.044.259.259,0,0,1-.07-.36c.394-.583.808-1.163,1.228-1.723a.259.259,0,1,1,.414.311c-.414.554-.824,1.127-1.212,1.7A.262.262,0,0,1,417.776,386.653Zm3.379-4.361a.252.252,0,0,1-.171-.065.261.261,0,0,1-.023-.365c.464-.526.948-1.047,1.438-1.549a.258.258,0,0,1,.371.36c-.485.5-.961,1.013-1.42,1.531A.258.258,0,0,1,421.154,382.292Zm3.912-3.889a.258.258,0,0,1-.194-.088.261.261,0,0,1,.023-.365c.531-.464,1.078-.917,1.627-1.35a.258.258,0,0,1,.319.407c-.541.427-1.083.876-1.606,1.334A.27.27,0,0,1,425.067,378.4Zm4.379-3.35a.26.26,0,0,1-.142-.477c.583-.389,1.184-.767,1.785-1.127a.259.259,0,1,1,.264.446c-.6.355-1.189.731-1.764,1.114A.238.238,0,0,1,429.445,375.053Zm4.778-2.751a.263.263,0,0,1-.233-.145.26.26,0,0,1,.119-.347c.627-.308,1.275-.606,1.92-.886a.258.258,0,0,1,.2.474c-.64.275-1.277.57-1.9.876A.225.225,0,0,1,434.223,372.3Zm5.1-2.106a.259.259,0,0,1-.083-.505c.663-.225,1.342-.435,2.018-.63a.26.26,0,0,1,.142.5c-.668.192-1.34.4-2,.622A.322.322,0,0,1,439.322,370.2Zm23.842-1.06a.257.257,0,0,1-.062-.008c-.674-.166-1.36-.316-2.042-.448a.259.259,0,1,1,.1-.508c.689.132,1.386.285,2.068.453a.259.259,0,0,1-.062.51Zm-18.517-.371a.259.259,0,0,1-.052-.513l.244-.049c.609-.119,1.228-.225,1.842-.319a.259.259,0,1,1,.078.513c-.606.091-1.218.2-1.821.314l-.238.047A.167.167,0,0,1,444.646,368.765Zm13.084-.591a.1.1,0,0,1-.029,0c-.689-.075-1.391-.135-2.083-.179a.26.26,0,0,1-.244-.275.266.266,0,0,1,.275-.244c.7.041,1.409.1,2.109.179a.255.255,0,0,1,.228.285A.26.26,0,0,1,457.73,368.174Zm-7.615-.15a.259.259,0,0,1-.018-.518c.7-.049,1.412-.08,2.114-.1a.255.255,0,0,1,.264.254.26.26,0,0,1-.254.264c-.694.013-1.4.047-2.088.1Z" transform="translate(-410.2 -367.41)" fill="#fff"/>
        <path id="Path_8489" data-name="Path 8489" d="M627.613,376.615a.263.263,0,0,1-.088-.016c-.321-.117-.648-.228-.972-.337a.258.258,0,0,1,.163-.49c.329.109.658.223.985.342a.257.257,0,0,1-.088.5Z" transform="translate(-570.367 -373.597)" fill="#fff"/>
      </g>
      <g id="Group_6638" data-name="Group 6638" transform="translate(26.351 23.568)">
        <path id="Path_8490" data-name="Path 8490" d="M722.384,459.827a.257.257,0,0,1-.236-.15c-.145-.311-.3-.619-.448-.928a.259.259,0,1,1,.464-.231c.155.311.306.624.453.938a.26.26,0,0,1-.124.345A.239.239,0,0,1,722.384,459.827Z" transform="translate(-667.323 -458.374)" fill="#fff"/>
        <path id="Path_8491" data-name="Path 8491" d="M540.3,532.024c-.458,0-.917-.008-1.373-.021a.259.259,0,0,1,.016-.518c.451.013.917.021,1.355.021.233,0,.466,0,.7-.005a.259.259,0,0,1,.01.518C540.774,532.021,540.538,532.024,540.3,532.024Zm4.063-.2a.258.258,0,0,1-.023-.516c.676-.065,1.363-.148,2.042-.249a.258.258,0,0,1,.075.51c-.687.1-1.381.184-2.068.251A.089.089,0,0,1,544.363,531.825Zm-8.781-.062a.106.106,0,0,1-.029,0c-.686-.075-1.381-.171-2.065-.282a.26.26,0,0,1,.083-.513c.676.109,1.36.2,2.039.277a.261.261,0,0,1-.029.521Zm14.141-.8a.258.258,0,0,1-.251-.2.263.263,0,0,1,.194-.311c.666-.15,1.337-.319,2-.5a.259.259,0,0,1,.137.5c-.668.184-1.347.355-2.018.508A.2.2,0,0,1,549.723,530.962Zm-19.489-.145a.252.252,0,0,1-.062-.008c-.671-.163-1.347-.347-2.011-.544a.258.258,0,0,1,.148-.495c.656.194,1.324.376,1.987.536a.256.256,0,0,1,.189.314A.26.26,0,0,1,530.234,530.817Zm24.7-1.386a.259.259,0,0,1-.088-.5c.64-.233,1.282-.485,1.915-.751a.259.259,0,0,1,.2.477c-.64.269-1.29.523-1.938.759A.236.236,0,0,1,554.934,529.431Zm4.972-2.179a.259.259,0,0,1-.119-.49c.6-.313,1.21-.645,1.8-.99a.259.259,0,0,1,.262.448c-.6.35-1.215.687-1.827,1A.286.286,0,0,1,559.906,527.252Zm4.651-2.8a.255.255,0,0,1-.212-.111.26.26,0,0,1,.065-.36c.557-.386,1.117-.793,1.658-1.21a.259.259,0,0,1,.316.409c-.549.422-1.114.834-1.679,1.226A.269.269,0,0,1,564.556,524.451Zm4.252-3.368a.254.254,0,0,1-.192-.086.258.258,0,0,1,.018-.365c.505-.456,1.008-.93,1.492-1.415a.258.258,0,1,1,.365.365c-.49.487-1,.969-1.511,1.43A.251.251,0,0,1,568.808,521.083ZM572.6,517.2a.259.259,0,0,1-.2-.428c.446-.518.884-1.055,1.3-1.593a.258.258,0,1,1,.407.319c-.422.544-.865,1.086-1.316,1.612A.251.251,0,0,1,572.6,517.2Zm3.267-4.335a.257.257,0,0,1-.215-.4c.376-.567.741-1.156,1.091-1.744a.259.259,0,0,1,.446.264c-.352.6-.723,1.189-1.1,1.767A.264.264,0,0,1,575.866,512.862Zm2.695-4.715a.253.253,0,0,1-.114-.026.259.259,0,0,1-.119-.347c.3-.611.588-1.241.86-1.868a.258.258,0,0,1,.474.2c-.275.637-.567,1.275-.871,1.891A.249.249,0,0,1,578.56,508.146Zm2.075-5.019a.3.3,0,0,1-.083-.013.26.26,0,0,1-.161-.329c.22-.648.427-1.308.617-1.964a.26.26,0,0,1,.5.143c-.192.666-.4,1.334-.624,1.99A.265.265,0,0,1,580.635,503.128Zm1.42-5.244a.331.331,0,0,1-.052-.005.259.259,0,0,1-.2-.306c.135-.666.256-1.35.36-2.029a.259.259,0,1,1,.513.078c-.1.689-.228,1.378-.365,2.055A.26.26,0,0,1,582.055,497.884Zm.736-5.384h-.018a.261.261,0,0,1-.241-.277c.049-.679.08-1.371.1-2.055a.261.261,0,0,1,.259-.254h.005a.26.26,0,0,1,.254.264c-.016.694-.049,1.394-.1,2.08A.256.256,0,0,1,582.791,492.5Zm.039-5.431a.259.259,0,0,1-.259-.244c-.039-.676-.093-1.368-.166-2.049a.259.259,0,0,1,.516-.054c.072.692.13,1.389.168,2.075a.258.258,0,0,1-.244.272Zm-.653-5.389a.26.26,0,0,1-.254-.213c-.023-.135-.049-.267-.075-.4-.106-.542-.223-1.083-.347-1.612a.258.258,0,0,1,.5-.119c.127.536.244,1.086.352,1.632.026.135.052.269.078.407a.261.261,0,0,1-.207.3Zm-1.324-5.267a.257.257,0,0,1-.246-.181c-.207-.65-.435-1.306-.674-1.943a.26.26,0,1,1,.487-.181c.241.648.472,1.308.682,1.966a.259.259,0,0,1-.168.326A.217.217,0,0,1,580.853,476.413Z" transform="translate(-523.812 -469.905)" fill="#fff"/>
        <path id="Path_8492" data-name="Path 8492" d="M513.123,684.6a.236.236,0,0,1-.093-.018c-.324-.124-.648-.254-.966-.386a.26.26,0,1,1,.2-.479q.474.2.956.381a.257.257,0,0,1,.148.334A.265.265,0,0,1,513.123,684.6Z" transform="translate(-511.904 -625.316)" fill="#fff"/>
      </g>
      <g id="Group_6640" data-name="Group 6640" transform="translate(9.846 9.566)">
        <path id="Path_8493" data-name="Path 8493" d="M465.017,466.029a.51.51,0,0,0,.593,0l5.083-3.586a27.021,27.021,0,0,0,8.542,2.018l2.941,5.477a.508.508,0,0,0,.531.262l7.363-1.194a.515.515,0,0,0,.422-.417l1.06-6.125a27.072,27.072,0,0,0,7.464-4.617l5.957,1.793a.509.509,0,0,0,.562-.192L509.9,453.4a.51.51,0,0,0,0-.593l-3.586-5.083a27.023,27.023,0,0,0,2.018-8.542l5.477-2.941a.508.508,0,0,0,.262-.531l-1.192-7.366a.512.512,0,0,0-.417-.422l-6.125-1.06a27.074,27.074,0,0,0-4.617-7.464l1.793-5.957a.509.509,0,0,0-.192-.562l-6.052-4.363a.51.51,0,0,0-.593,0l-5.083,3.586a27.021,27.021,0,0,0-8.542-2.018l-2.941-5.477a.508.508,0,0,0-.531-.262l-7.366,1.194a.512.512,0,0,0-.422.417l-1.06,6.125a27.123,27.123,0,0,0-7.467,4.617l-5.957-1.793a.509.509,0,0,0-.562.192l-4.363,6.052a.51.51,0,0,0,0,.593l3.586,5.083a27.021,27.021,0,0,0-2.018,8.542l-5.477,2.941a.508.508,0,0,0-.262.531L449.4,446.2a.512.512,0,0,0,.417.422l6.125,1.06a27.071,27.071,0,0,0,4.617,7.464L458.77,461.1a.509.509,0,0,0,.192.562Z" transform="translate(-448.203 -404.333)" fill="#b2b2b2"/>
        <g id="Group_6639" data-name="Group 6639" transform="translate(25.922 25.929)">
          <path id="Path_8494" data-name="Path 8494" d="M555.274,518.439a7.022,7.022,0,1,1,2.78-.58A7.012,7.012,0,0,1,555.274,518.439Zm-.01-13.255a6.236,6.236,0,1,0,2.487,11.96h0a6.236,6.236,0,0,0-2.487-11.96Z" transform="translate(-548.253 -504.408)" fill="#fff"/>
        </g>
        <path id="Path_8495" data-name="Path 8495" d="M523.037,496.735c-.109,0-.218,0-.326,0-.088,0-.179,0-.267-.008h-.016c-.042,0-.08,0-.119-.005l-.163-.008H522.1l.039-.777a17.651,17.651,0,0,0,3.747-.207c.22-.036.438-.075.655-.119a17.643,17.643,0,0,0,14.115-18.175,18,18,0,0,0-.2-1.915,17.617,17.617,0,0,0-35.006,2.788,18.05,18.05,0,0,0,.231,2.858,17.6,17.6,0,0,0,3.912,8.527l-.593.5a18.394,18.394,0,1,1,32.223-14.8,18.388,18.388,0,0,1-15.209,21.1h0A18.732,18.732,0,0,1,523.037,496.735Z" transform="translate(-490.04 -445.536)" fill="#fff"/>
      </g>
    </g>
    <g id="Group_6646" data-name="Group 6646" transform="translate(300.998 218.588)">
      <g id="Group_6642" data-name="Group 6642" transform="translate(0)">
        <path id="Path_8496" data-name="Path 8496" d="M697.035,482.038a.253.253,0,0,1-.22-.124c-.184-.3-.36-.609-.523-.912a.258.258,0,1,1,.456-.244c.158.3.329.593.508.886a.257.257,0,0,1-.085.355A.233.233,0,0,1,697.035,482.038Z" transform="translate(-693.947 -452.066)" fill="#fff"/>
        <path id="Path_8497" data-name="Path 8497" d="M688.6,396.48a.258.258,0,0,1-.246-.176,20.049,20.049,0,0,1-.549-1.969.259.259,0,1,1,.505-.111,19.26,19.26,0,0,0,.534,1.917.261.261,0,0,1-.163.329A.374.374,0,0,1,688.6,396.48Zm-.987-5.187a.259.259,0,0,1-.259-.246c-.018-.339-.026-.687-.026-1.026s.008-.676.026-1.016a.259.259,0,0,1,.518.026c-.018.329-.026.661-.026.987s.01.668.026,1a.26.26,0,0,1-.246.272A.02.02,0,0,1,687.615,391.293Zm.448-5.257a.418.418,0,0,1-.057-.005.257.257,0,0,1-.194-.311,19.733,19.733,0,0,1,.554-1.966.26.26,0,1,1,.492.166,18.91,18.91,0,0,0-.539,1.915A.268.268,0,0,1,688.063,386.036Zm1.858-4.941a.259.259,0,0,1-.225-.383c.324-.6.681-1.184,1.062-1.744a.259.259,0,0,1,.427.293c-.373.547-.72,1.117-1.036,1.7A.259.259,0,0,1,689.921,381.095Zm3.117-4.259a.251.251,0,0,1-.179-.073.258.258,0,0,1-.008-.365c.472-.487.974-.956,1.492-1.394a.259.259,0,1,1,.334.4,18.943,18.943,0,0,0-1.453,1.358A.263.263,0,0,1,693.038,376.835Zm4.148-3.262a.26.26,0,0,1-.129-.484,19.714,19.714,0,0,1,1.816-.938.259.259,0,0,1,.213.472,18.644,18.644,0,0,0-1.767.912A.236.236,0,0,1,697.186,373.573Zm4.876-2.013a.262.262,0,0,1-.251-.194.259.259,0,0,1,.187-.316c.4-.1.8-.194,1.2-.275.264-.052.531-.1.8-.137a.255.255,0,0,1,.3.218.259.259,0,0,1-.218.3c-.259.039-.516.086-.775.135-.394.078-.788.166-1.174.267A.278.278,0,0,1,702.062,371.56Zm7.252-.492a.123.123,0,0,1-.031,0,18.832,18.832,0,0,0-1.985-.137.259.259,0,0,1,.005-.518h.005a19.909,19.909,0,0,1,2.039.14.259.259,0,0,1,.225.288A.262.262,0,0,1,709.314,371.068Z" transform="translate(-687.33 -370.41)" fill="#fff"/>
        <path id="Path_8498" data-name="Path 8498" d="M784.839,374.392a.264.264,0,0,1-.088-.016c-.321-.117-.648-.223-.969-.321a.26.26,0,0,1,.15-.5c.332.1.666.21,1,.329a.258.258,0,0,1,.155.332A.263.263,0,0,1,784.839,374.392Z" transform="translate(-758.655 -372.734)" fill="#fff"/>
      </g>
      <g id="Group_6643" data-name="Group 6643" transform="translate(11.989 10.724)">
        <path id="Path_8499" data-name="Path 8499" d="M829.719,413.26a.263.263,0,0,1-.238-.155c-.135-.314-.28-.627-.43-.928a.259.259,0,0,1,.464-.231c.153.308.3.63.443.951a.259.259,0,0,1-.135.342A.284.284,0,0,1,829.719,413.26Z" transform="translate(-804.3 -411.802)" fill="#fff"/>
        <path id="Path_8500" data-name="Path 8500" d="M751.626,451.708h-.018a19.847,19.847,0,0,1-1.995-.238.26.26,0,1,1,.088-.513,18.854,18.854,0,0,0,1.943.233.259.259,0,0,1-.018.518Zm3.22-.052a.258.258,0,0,1-.023-.516c.6-.06,1.2-.148,1.79-.264l.145-.029a.259.259,0,0,1,.1.508l-.148.028c-.609.119-1.228.21-1.839.272Zm5.055-1.194a.258.258,0,0,1-.091-.5,19.032,19.032,0,0,0,1.788-.793.258.258,0,0,1,.233.461,19.667,19.667,0,0,1-1.837.814A.248.248,0,0,1,759.9,450.462Zm4.552-2.5a.26.26,0,0,1-.155-.469c.521-.386,1.029-.8,1.51-1.241a.259.259,0,0,1,.347.383,19.694,19.694,0,0,1-1.552,1.275A.231.231,0,0,1,764.453,447.967Zm3.723-3.617a.268.268,0,0,1-.161-.054.259.259,0,0,1-.044-.363c.4-.51.78-1.049,1.13-1.6a.259.259,0,0,1,.438.277c-.358.565-.746,1.117-1.158,1.643A.266.266,0,0,1,768.176,444.35Zm2.635-4.475a.282.282,0,0,1-.1-.021.257.257,0,0,1-.137-.339c.251-.6.477-1.22.666-1.84a.26.26,0,1,1,.5.15,19.854,19.854,0,0,1-.684,1.891A.265.265,0,0,1,770.811,439.875Zm1.355-5.013a.146.146,0,0,1-.034,0,.258.258,0,0,1-.223-.29,18.916,18.916,0,0,0,.15-1.951.262.262,0,0,1,.267-.251.256.256,0,0,1,.251.267c-.018.668-.07,1.342-.153,2.005A.266.266,0,0,1,772.166,434.862Zm-.036-5.195a.259.259,0,0,1-.257-.223c-.047-.332-.1-.666-.166-.99s-.13-.624-.2-.933a.259.259,0,0,1,.5-.124c.078.316.15.637.213.956s.122.674.171,1.016a.258.258,0,0,1-.22.293A.107.107,0,0,1,772.13,429.667Z" transform="translate(-745.305 -423.211)" fill="#fff"/>
        <path id="Path_8501" data-name="Path 8501" d="M734.829,515.184a.25.25,0,0,1-.086-.016c-.326-.114-.658-.241-.979-.376a.26.26,0,0,1,.2-.479c.316.13.637.254.953.365a.258.258,0,0,1,.158.332A.264.264,0,0,1,734.829,515.184Z" transform="translate(-733.604 -487.739)" fill="#fff"/>
      </g>
      <g id="Group_6645" data-name="Group 6645" transform="translate(4.622 4.497)">
        <path id="Path_8502" data-name="Path 8502" d="M712.817,415.834a.234.234,0,0,0,.269,0l2.311-1.63a12.373,12.373,0,0,0,3.886.92l1.339,2.49a.232.232,0,0,0,.241.119l3.35-.544a.231.231,0,0,0,.192-.189l.482-2.785a12.34,12.34,0,0,0,3.4-2.1l2.71.816a.234.234,0,0,0,.257-.085l1.985-2.754a.234.234,0,0,0,0-.269l-1.63-2.311a12.375,12.375,0,0,0,.92-3.886l2.49-1.339a.232.232,0,0,0,.119-.241l-.544-3.35a.231.231,0,0,0-.189-.192l-2.788-.482a12.337,12.337,0,0,0-2.1-3.4l.816-2.71a.234.234,0,0,0-.085-.257l-2.754-1.985a.234.234,0,0,0-.269,0l-2.311,1.63a12.375,12.375,0,0,0-3.886-.92l-1.339-2.49a.232.232,0,0,0-.241-.119l-3.35.544a.231.231,0,0,0-.192.189l-.482,2.785a12.343,12.343,0,0,0-3.4,2.1l-2.71-.816a.234.234,0,0,0-.256.085l-1.985,2.754a.234.234,0,0,0,0,.27L708.7,398a12.37,12.37,0,0,0-.92,3.886l-2.49,1.34a.232.232,0,0,0-.119.241l.544,3.35a.231.231,0,0,0,.189.192l2.785.482a12.336,12.336,0,0,0,2.1,3.4l-.816,2.71a.234.234,0,0,0,.086.257Z" transform="translate(-705.169 -387.769)" fill="#b2b2b2"/>
        <g id="Group_6644" data-name="Group 6644" transform="translate(11.58 11.577)">
          <path id="Path_8503" data-name="Path 8503" d="M753.272,439.261a3.405,3.405,0,1,1,1.347-.28A3.4,3.4,0,0,1,753.272,439.261Zm-.005-6.029a2.635,2.635,0,1,0,.966.187A2.607,2.607,0,0,0,753.267,433.232Z" transform="translate(-749.863 -432.453)" fill="#fff"/>
        </g>
        <path id="Path_8504" data-name="Path 8504" d="M738.591,429.407c-.057,0-.114,0-.171,0h-.005c-.086,0-.174-.005-.259-.01l.039-.777a7.923,7.923,0,0,0,1.658-.091,7.749,7.749,0,0,0,5.057-3.109l.021-.029a7.8,7.8,0,0,0-7.581-12.26,7.816,7.816,0,0,0-6.552,7.7,7.9,7.9,0,0,0,.1,1.251,7.807,7.807,0,0,0,1.733,3.778l-.593.5a8.579,8.579,0,1,1,15.03-6.9,8.72,8.72,0,0,1,.114,1.391,8.587,8.587,0,0,1-8.592,8.56Z" transform="translate(-723.581 -405.907)" fill="#fff"/>
      </g>
    </g>
    <path id="Path_8523" data-name="Path 8523" d="M501.146,723.611S462.992,651.688,465.99,587.4c2.516-53.951-7.151-109.305-10.325-125.708a1.29,1.29,0,0,1,2.28-1.042c8.825,11.149,33.493,47.789,47.686,123.662C523.133,677.892,501.146,723.611,501.146,723.611Z" transform="translate(-214.67 -218.316)" fill="#dfdfdf"/>
    <path id="Path_8524" data-name="Path 8524" d="M246.362,1381.472c8.063-8.83,43.128-39.98,99.266,11.9,0,0-71.227,8.286-98.753-8.273A2.37,2.37,0,0,1,246.362,1381.472Z" transform="translate(-59.151 -888.077)" fill="#d8d8d8"/>
    <g id="Group_6657" data-name="Group 6657" transform="translate(212.133 278.954)">
      <path id="Path_8525" data-name="Path 8525" d="M360.42,603.763a.51.51,0,0,0-.995.2c.889,10.936.689,43.39-7.12,62.931-14.628,36.6-17.416,145.752,66.379,162.857,0,0-11.265-32.145-21.155-84.65C387.619,692.492,366.221,622.379,360.42,603.763Z" transform="translate(-344.341 -603.404)" fill="#dfdfdf"/>
      <path id="Path_8526" data-name="Path 8526" d="M423.73,807.016c-.376,3.195-.624,6.42-.821,9.638s-.324,6.446-.4,9.674q-.225,9.681.223,19.359a264.616,264.616,0,0,0,4.5,38.418A205.239,205.239,0,0,0,437.988,921.2a155.384,155.384,0,0,0,18.473,33.809.647.647,0,1,1-1.044.764l0,0a156.549,156.549,0,0,1-18.458-34.159,206.521,206.521,0,0,1-10.636-37.33,265.649,265.649,0,0,1-4.332-38.561q-.393-9.7-.132-19.409.132-4.85.443-9.7c.212-3.231.474-6.451.87-9.674a.285.285,0,0,1,.316-.249.281.281,0,0,1,.246.316Z" transform="translate(-401.694 -754.022)" fill="#b8b8b8"/>
    </g>
    <g id="Group_6659" data-name="Group 6659" transform="translate(515.28 260.951)">
      <path id="Path_8527" data-name="Path 8527" d="M1514.38,551.919l22.945-15.73a12.988,12.988,0,0,1,7.506-2.272l5.021.065s24.7,156.841,21.657,223.383c-.269,5.879-1.653,23.629-1.653,23.629s-3.029.363-6.312.63a16.976,16.976,0,0,1-9.711-2.127l-32.8-18.476Z" transform="translate(-1514.38 -533.916)" fill="#d4d4d8"/>
      <path id="Path_8528" data-name="Path 8528" d="M1707.887,536.039l-85.2-1.852a5.073,5.073,0,0,0-5.172,5.428L1634,774.875a7.686,7.686,0,0,0,5.949,6.954h0l77.124-3.319a4.27,4.27,0,0,0,4.081-4.037c1.3-24.383,7.545-158.219-7.791-233.851A5.718,5.718,0,0,0,1707.887,536.039Z" transform="translate(-1590.783 -534.115)" fill="#979797"/>
      <path id="Path_8529" data-name="Path 8529" d="M1677.16,614.278l.1,1.969a2.74,2.74,0,0,0,2.695,2.6l66.094,1.093a2.743,2.743,0,0,0,2.788-2.741v-3.643a2.741,2.741,0,0,0-2.767-2.741l-66.193.58A2.743,2.743,0,0,0,1677.16,614.278Z" transform="translate(-1634.982 -590.895)" fill="#fff"/>
      <path id="Path_8530" data-name="Path 8530" d="M1687.094,727.052l.461,4.257a2.74,2.74,0,0,0,2.77,2.446l64.081-1.031a2.74,2.74,0,0,0,2.7-2.741V725.93a2.74,2.74,0,0,0-2.778-2.741l-64.542.827A2.742,2.742,0,0,0,1687.094,727.052Z" transform="translate(-1642.333 -674.15)" fill="#fff"/>
      <path id="Path_8531" data-name="Path 8531" d="M1691.427,836.865l.112.826a2.742,2.742,0,0,0,2.783,2.373l63.293-1.5a2.741,2.741,0,0,0,2.64-3.187l-.466-2.824a2.743,2.743,0,0,0-2.858-2.293l-62.938,3.5A2.738,2.738,0,0,0,1691.427,836.865Z" transform="translate(-1645.537 -753.475)" fill="#fff"/>
      <path id="Path_8532" data-name="Path 8532" d="M1701.782,950.254h0a2.742,2.742,0,0,0,2.723,2.415h63.034a2.741,2.741,0,0,0,2.741-2.741v-1.288a2.742,2.742,0,0,0-2.8-2.741l-63.034,1.288A2.74,2.74,0,0,0,1701.782,950.254Z" transform="translate(-1653.213 -839.157)" fill="#fff"/>
      <path id="Path_8533" data-name="Path 8533" d="M1720.078,1066.489l6.825,92.006a2.74,2.74,0,0,0,2.93,2.531l52.754-3.765a2.742,2.742,0,0,0,2.547-2.775l-1.246-88.241a2.743,2.743,0,0,0-2.741-2.7h-58.332A2.745,2.745,0,0,0,1720.078,1066.489Z" transform="translate(-1666.777 -926.319)" fill="#a1a1a1"/>
      <path id="Path_8534" data-name="Path 8534" d="M1809.854,1163.154a.388.388,0,0,1-.389-.389v-62.98a5.883,5.883,0,0,0-5.882-5.884h-.029c-17.139.078-37.724.132-38.48-.039a.389.389,0,0,1-.293-.466.385.385,0,0,1,.459-.293c.728.119,15.045.127,38.309.021h.031a6.657,6.657,0,0,1,6.656,6.659v62.983A.38.38,0,0,1,1809.854,1163.154Z" transform="translate(-1699.899 -948.216)" fill="#fff"/>
      <g id="Group_6658" data-name="Group 6658" transform="translate(38.456 11.4)">
        <path id="Path_8535" data-name="Path 8535" d="M1739.574,695.909h-61.236a4.63,4.63,0,0,1-4.578-4.013c-5.969-45.11-9.449-79.79-10.947-109.129a4.617,4.617,0,0,1,4.731-4.85l69.851,1.772a4.613,4.613,0,0,1,4.5,4.516l2.3,106.987a4.618,4.618,0,0,1-4.617,4.718Zm-72.152-117.218a3.838,3.838,0,0,0-3.832,4.034c1.5,29.319,4.975,63.977,10.941,109.067a3.853,3.853,0,0,0,3.809,3.337h61.236a3.84,3.84,0,0,0,3.84-3.923l-2.3-106.987a3.834,3.834,0,0,0-3.741-3.757l-69.851-1.772Z" transform="translate(-1662.807 -577.915)" fill="#fff"/>
      </g>
      <path id="Path_8536" data-name="Path 8536" d="M1748.926,679.249h-.005l-71.258-1.122a.389.389,0,0,1,.005-.777h.005l71.258,1.122a.389.389,0,0,1-.005.777Z" transform="translate(-1635.074 -640.187)" fill="#fff"/>
      <path id="Path_8537" data-name="Path 8537" d="M1765.95,803.927h-65.3a.389.389,0,0,1,0-.777h65.3a.389.389,0,0,1,0,.777Z" transform="translate(-1652.1 -733.394)" fill="#fff"/>
      <path id="Path_8538" data-name="Path 8538" d="M1725.423,912.32c-10.066,0-17.8-.039-18.186-.158a.389.389,0,0,1,.213-.749c1.415.236,42.706.1,64.371-.013h0a.389.389,0,0,1,0,.777C1765.207,912.211,1742.112,912.32,1725.423,912.32Z" transform="translate(-1657.068 -813.597)" fill="#fff"/>
    </g>
    <g id="Group_6661" data-name="Group 6661" transform="translate(267.992 260.951)">
      <path id="Path_8539" data-name="Path 8539" d="M908.109,551.919l-22.945-15.73a12.987,12.987,0,0,0-7.506-2.272l-5.021.065s-24.7,156.841-21.657,223.383c.269,5.879,1.653,23.629,1.653,23.629s3.029.363,6.312.63a16.976,16.976,0,0,0,9.711-2.127l32.8-18.476Z" transform="translate(-775.381 -533.916)" fill="#d4d4d8"/>
      <path id="Path_8540" data-name="Path 8540" d="M575.562,536.039l85.2-1.852a5.073,5.073,0,0,1,5.171,5.428L649.45,774.875a7.686,7.686,0,0,1-5.949,6.954h0l-77.124-3.319a4.271,4.271,0,0,1-4.081-4.037c-1.3-24.383-7.545-158.219,7.791-233.851A5.718,5.718,0,0,1,575.562,536.039Z" transform="translate(-559.939 -534.115)" fill="#979797"/>
      <path id="Path_8541" data-name="Path 8541" d="M704.465,614.278l-.1,1.969a2.74,2.74,0,0,1-2.695,2.6l-66.094,1.093a2.743,2.743,0,0,1-2.788-2.741v-3.643a2.741,2.741,0,0,1,2.767-2.741l66.193.58A2.743,2.743,0,0,1,704.465,614.278Z" transform="translate(-613.915 -590.895)" fill="#fff"/>
      <path id="Path_8542" data-name="Path 8542" d="M699.259,727.052l-.461,4.257a2.74,2.74,0,0,1-2.77,2.446l-64.081-1.031a2.74,2.74,0,0,1-2.7-2.741V725.93a2.74,2.74,0,0,1,2.777-2.741l64.542.827A2.742,2.742,0,0,1,699.259,727.052Z" transform="translate(-611.292 -674.15)" fill="#fff"/>
      <path id="Path_8543" data-name="Path 8543" d="M698.171,836.865l-.111.826a2.742,2.742,0,0,1-2.783,2.373l-63.293-1.5a2.741,2.741,0,0,1-2.64-3.187l.466-2.824a2.745,2.745,0,0,1,2.858-2.293l62.938,3.5A2.738,2.738,0,0,1,698.171,836.865Z" transform="translate(-611.333 -753.475)" fill="#fff"/>
      <path id="Path_8544" data-name="Path 8544" d="M688.879,950.254h0a2.742,2.742,0,0,1-2.723,2.415H623.121a2.741,2.741,0,0,1-2.741-2.741v-1.288a2.742,2.742,0,0,1,2.8-2.741l63.034,1.288A2.74,2.74,0,0,1,688.879,950.254Z" transform="translate(-604.72 -839.157)" fill="#fff"/>
      <path id="Path_8545" data-name="Path 8545" d="M680.464,1066.489l-6.825,92.006a2.74,2.74,0,0,1-2.93,2.531l-52.754-3.765a2.742,2.742,0,0,1-2.547-2.775l1.246-88.241a2.743,2.743,0,0,1,2.741-2.7h58.332A2.745,2.745,0,0,1,680.464,1066.489Z" transform="translate(-601.037 -926.319)" fill="#a1a1a1"/>
      <g id="Group_6660" data-name="Group 6660" transform="translate(12.886 11.399)">
        <path id="Path_8546" data-name="Path 8546" d="M646.719,1163.166a.388.388,0,0,1-.389-.389V1099.8a6.656,6.656,0,0,1,6.687-6.659c23.284.1,37.6.1,38.312-.023a.4.4,0,0,1,.453.306.382.382,0,0,1-.287.453c-.757.174-21.344.116-38.48.039h-.029a5.882,5.882,0,0,0-5.881,5.884v62.98A.385.385,0,0,1,646.719,1163.166Z" transform="translate(-636.833 -959.627)" fill="#fff" opacity="0.82"/>
        <path id="Path_8547" data-name="Path 8547" d="M675.527,695.908H614.293a4.619,4.619,0,0,1-4.617-4.718l2.3-106.987a4.612,4.612,0,0,1,4.5-4.516l69.851-1.772a4.616,4.616,0,0,1,4.731,4.85c-1.5,29.342-4.977,64.019-10.947,109.129A4.634,4.634,0,0,1,675.527,695.908Zm10.8-117.607.01.389-69.851,1.772a3.834,3.834,0,0,0-3.741,3.757l-2.3,106.987a3.84,3.84,0,0,0,3.84,3.923H675.53a3.853,3.853,0,0,0,3.809-3.337c5.967-45.09,9.444-79.748,10.941-109.067a3.836,3.836,0,0,0-3.933-4.031Z" transform="translate(-609.675 -577.914)" fill="#fff" opacity="0.82"/>
        <path id="Path_8548" data-name="Path 8548" d="M631.678,679.249a.389.389,0,0,1-.005-.777l71.258-1.122a.4.4,0,0,1,.394.384.388.388,0,0,1-.383.394l-71.258,1.122Z" transform="translate(-625.69 -651.587)" fill="#fff" opacity="0.82"/>
        <path id="Path_8549" data-name="Path 8549" d="M696.98,803.927h-65.3a.389.389,0,1,1,0-.777h65.3a.389.389,0,1,1,0,.777Z" transform="translate(-625.69 -744.793)" fill="#fff" opacity="0.82"/>
        <path id="Path_8550" data-name="Path 8550" d="M674.6,912.3c-16.691,0-39.786-.109-46.4-.143a.389.389,0,0,1,0-.777h0c21.691.109,63.06.249,64.376.01a.376.376,0,0,1,.474.259.4.4,0,0,1-.267.49C692.4,912.26,684.662,912.3,674.6,912.3Z" transform="translate(-623.111 -824.976)" fill="#fff" opacity="0.82"/>
      </g>
    </g>
    <g id="Group_6662" data-name="Group 6662" transform="translate(377.964 219.605)">
      <path id="Path_8551" data-name="Path 8551" d="M1014.4,487.508s-44.3-34.361-25.251-111.982a1.563,1.563,0,0,1,2.785-.542C999.19,385.045,1023.365,424.093,1014.4,487.508Z" transform="translate(-984.391 -374.336)" fill="#dfdfdf"/>
      <path id="Path_8552" data-name="Path 8552" d="M1024.825,448.4q2.071,10.322,4.112,20.65c.673,3.443,1.342,6.889,1.977,10.34l.956,5.177.922,5.182,1.814,10.369.886,5.19.847,5.195c1.125,6.928,2.2,13.864,3.112,20.828a.193.193,0,0,1-.381.057l-.865-5.19-.891-5.184c-.6-3.456-1.187-6.915-1.811-10.366l-1.845-10.361-1.868-10.356-.943-5.177-.925-5.179c-.632-3.451-1.228-6.907-1.837-10.364-1.215-6.91-2.42-13.825-3.674-20.727a.208.208,0,0,1,.166-.241A.2.2,0,0,1,1024.825,448.4Z" transform="translate(-1014.039 -429.092)" fill="#848484"/>
    </g>
    <g id="Group_6663" data-name="Group 6663" transform="translate(385.184 257.178)">
      <path id="Path_8553" data-name="Path 8553" d="M1022.7,773.913h133.888a13.261,13.261,0,0,0,13.255-13.776c-1.72-44.351-7.6-183.369-15.426-231.964a5.216,5.216,0,0,0-5.322-4.389c-16.8.547-76.668,1.938-117.112-4.34a7.448,7.448,0,0,0-8.584,7.014l-11.13,236.524A10.442,10.442,0,0,0,1022.7,773.913Z" transform="translate(-1012.255 -519.354)" fill="#979797"/>
      <path id="Path_8554" data-name="Path 8554" d="M1143.568,654.655l-.889,70.893a5.714,5.714,0,0,0,5.684,5.786l81.956.443a5.714,5.714,0,0,0,5.744-5.9l-2.22-69.3a5.712,5.712,0,0,0-5.565-5.529l-78.847-2.034A5.715,5.715,0,0,0,1143.568,654.655Z" transform="translate(-1108.887 -615.419)" fill="#c5c5c5"/>
      <path id="Path_8555" data-name="Path 8555" d="M1155.682,736.084a3.158,3.158,0,0,1-3.143-3.2l.889-70.893a3.172,3.172,0,0,1,3.158-3.122l78.932,2.036a3.166,3.166,0,0,1,3.078,3.06l2.22,69.3a3.16,3.16,0,0,1-3.158,3.262Z" transform="translate(-1116.192 -622.723)" fill="#fff"/>
      <circle id="Ellipse_326" data-name="Ellipse 326" cx="2.658" cy="2.658" r="2.658" transform="translate(42.695 50.189) rotate(-76.714)" fill="#848484"/>
      <path id="Path_8556" data-name="Path 8556" d="M1230.124,699.119h0a1.935,1.935,0,0,0,1.754,2.531l53.606,2.358a1.933,1.933,0,0,0,2.018-1.933v-.187a1.933,1.933,0,0,0-1.855-1.933l-53.606-2.171A1.932,1.932,0,0,0,1230.124,699.119Z" transform="translate(-1173.605 -651.554)" fill="#d9d9d9"/>
      <circle id="Ellipse_327" data-name="Ellipse 327" cx="2.658" cy="2.658" r="2.658" transform="translate(45.151 59.958)" fill="#848484"/>
      <path id="Path_8557" data-name="Path 8557" d="M1237.544,754.8h0a1.935,1.935,0,0,0,1.754,2.531l53.606,2.358a1.933,1.933,0,0,0,2.018-1.933v-.186a1.933,1.933,0,0,0-1.855-1.933l-53.606-2.171A1.935,1.935,0,0,0,1237.544,754.8Z" transform="translate(-1179.102 -692.808)" fill="#d9d9d9"/>
      <circle id="Ellipse_328" data-name="Ellipse 328" cx="2.658" cy="2.658" r="2.658" transform="translate(44.614 79.394) rotate(-76.714)" fill="#848484"/>
      <path id="Path_8558" data-name="Path 8558" d="M1237.544,811.839h0a1.935,1.935,0,0,0,1.754,2.531l53.606,2.358a1.933,1.933,0,0,0,2.018-1.933v-.187a1.933,1.933,0,0,0-1.855-1.933l-53.606-2.171A1.929,1.929,0,0,0,1237.544,811.839Z" transform="translate(-1179.102 -735.069)" fill="#d9d9d9"/>
      <circle id="Ellipse_329" data-name="Ellipse 329" cx="2.658" cy="2.658" r="2.658" transform="translate(44.615 96.213) rotate(-76.714)" fill="#848484"/>
      <path id="Path_8559" data-name="Path 8559" d="M1237.544,876.749h0a1.935,1.935,0,0,0,1.754,2.531l53.606,2.358a1.933,1.933,0,0,0,2.018-1.933v-.187a1.935,1.935,0,0,0-1.855-1.933l-53.606-2.171A1.932,1.932,0,0,0,1237.544,876.749Z" transform="translate(-1179.102 -783.161)" fill="#d9d9d9"/>
    </g>
    <g id="Group_6678" data-name="Group 6678" transform="translate(185.425 418.062)">
      <path id="Path_8604" data-name="Path 8604" d="M635.035,1231.918c-.6,0-1.086-.329-1.086-.736v-88.1c0-.407.487-.736,1.086-.736s1.086.329,1.086.736v88.1C636.121,1231.589,635.637,1231.918,635.035,1231.918Z" transform="translate(-532.207 -1141.822)" fill="#686868"/>
      <path id="Path_8605" data-name="Path 8605" d="M521.436,1231.918c-.6,0-1.086-.329-1.086-.736v-88.1c0-.407.487-.736,1.086-.736s1.086.329,1.086.736v88.1C522.524,1231.589,522.037,1231.918,521.436,1231.918Z" transform="translate(-448.04 -1141.822)" fill="#686868"/>
      <path id="Path_8606" data-name="Path 8606" d="M242.344,1232.469a1.492,1.492,0,0,1-.425-.06c-.552-.158-.808-.591-.575-.967l55.539-88.656a1.317,1.317,0,0,1,1.425-.388c.552.158.808.59.575.966l-55.539,88.656A1.185,1.185,0,0,1,242.344,1232.469Z" transform="translate(-241.258 -1141.813)" fill="#686868"/>
      <path id="Path_8607" data-name="Path 8607" d="M374.754,1232.469a1.492,1.492,0,0,1-.425-.06c-.552-.158-.808-.591-.575-.967l55.539-88.656a1.317,1.317,0,0,1,1.425-.388c.552.158.808.59.575.966l-55.539,88.656A1.185,1.185,0,0,1,374.754,1232.469Z" transform="translate(-339.361 -1141.813)" fill="#686868"/>
      <path id="Path_8608" data-name="Path 8608" d="M495.789,1142.385H442.906a.526.526,0,0,1-.526-.526v-1.023a.526.526,0,0,1,.526-.526h52.883a.526.526,0,0,1,.526.526v1.023A.523.523,0,0,1,495.789,1142.385Z" transform="translate(-390.271 -1140.31)" fill="#686868"/>
      <path id="Path_8609" data-name="Path 8609" d="M458.343,1196.142H423.936c-.6,0-1.086-.329-1.086-.736s.487-.736,1.086-.736h34.407c.6,0,1.086.329,1.086.736S458.941,1196.142,458.343,1196.142Z" transform="translate(-375.801 -1180.586)" fill="#686868"/>
      <rect id="Rectangle_758" data-name="Rectangle 758" width="34.407" height="1.474" transform="translate(37.577 30.85)" fill="#686868"/>
      <rect id="Rectangle_759" data-name="Rectangle 759" width="34.407" height="1.474" transform="translate(27.355 47.616)" fill="#686868"/>
      <path id="Path_8610" data-name="Path 8610" d="M336.773,1390.292H302.366c-.6,0-1.086-.329-1.086-.736s.487-.736,1.086-.736h34.407c.6,0,1.086.329,1.086.736S337.374,1390.292,336.773,1390.292Z" transform="translate(-285.729 -1324.433)" fill="#686868"/>
      <path id="Path_8611" data-name="Path 8611" d="M296.773,1455H262.366c-.6,0-1.086-.329-1.086-.736s.487-.736,1.086-.736h34.407c.6,0,1.086.329,1.086.736S297.374,1455,296.773,1455Z" transform="translate(-256.092 -1372.377)" fill="#686868"/>
    </g>
    <g id="Group_6688" data-name="Group 6688" transform="translate(622.319 412.083)">
      <g id="Group_6637-2" data-name="Group 6637">
        <path id="Path_8487-2" data-name="Path 8487" d="M432.944,615.255a.26.26,0,0,1-.223-.124c-.181-.3-.358-.6-.531-.9a.26.26,0,1,1,.451-.259c.171.3.347.593.526.886a.261.261,0,0,1-.086.358A.279.279,0,0,1,432.944,615.255Z" transform="translate(-426.466 -549.996)" fill="#fff"/>
        <path id="Path_8488-2" data-name="Path 8488" d="M414.563,428.752a.262.262,0,0,1-.236-.148c-.3-.635-.588-1.285-.858-1.935a.26.26,0,1,1,.479-.2c.267.642.549,1.285.847,1.912a.257.257,0,0,1-.124.345A.232.232,0,0,1,414.563,428.752Zm-2.031-5.13a.258.258,0,0,1-.246-.179c-.215-.663-.415-1.347-.6-2.029a.26.26,0,0,1,.5-.135c.181.674.381,1.35.593,2.005a.259.259,0,0,1-.168.326A.3.3,0,0,1,412.532,423.622Zm-1.35-5.35a.26.26,0,0,1-.254-.212c-.13-.689-.241-1.394-.337-2.088a.26.26,0,0,1,.516-.07c.093.687.2,1.381.332,2.065a.262.262,0,0,1-.207.3A.325.325,0,0,1,411.182,418.272Zm-.658-5.477a.259.259,0,0,1-.259-.246c-.039-.7-.06-1.412-.065-2.114a.262.262,0,0,1,.257-.262h0a.258.258,0,0,1,.259.257c0,.694.026,1.4.062,2.088a.258.258,0,0,1-.244.272A.017.017,0,0,1,410.524,412.8Zm.054-5.516h-.021a.258.258,0,0,1-.238-.277c.054-.7.124-1.415.212-2.109a.26.26,0,1,1,.516.065c-.085.687-.158,1.389-.21,2.083A.26.26,0,0,1,410.578,407.279Zm.775-5.467a.383.383,0,0,1-.054-.005.256.256,0,0,1-.2-.306c.145-.689.308-1.384.484-2.062a.259.259,0,0,1,.5.132c-.176.671-.337,1.355-.479,2.036A.256.256,0,0,1,411.353,401.812Zm1.479-5.319a.25.25,0,0,1-.085-.016.256.256,0,0,1-.158-.329c.231-.663.485-1.329.749-1.982a.259.259,0,1,1,.479.194c-.262.642-.51,1.3-.738,1.956A.263.263,0,0,1,412.832,396.493Zm2.153-5.081a.242.242,0,0,1-.117-.029.259.259,0,0,1-.114-.347c.316-.63.653-1.259,1-1.868a.259.259,0,0,1,.451.254c-.339.6-.671,1.223-.985,1.845A.259.259,0,0,1,414.985,391.412Zm2.79-4.76a.271.271,0,0,1-.145-.044.259.259,0,0,1-.07-.36c.394-.583.808-1.163,1.228-1.723a.259.259,0,1,1,.414.311c-.414.554-.824,1.127-1.212,1.7A.262.262,0,0,1,417.776,386.653Zm3.379-4.361a.252.252,0,0,1-.171-.065.261.261,0,0,1-.023-.365c.464-.526.948-1.047,1.438-1.549a.258.258,0,0,1,.371.36c-.485.5-.961,1.013-1.42,1.531A.258.258,0,0,1,421.154,382.292Zm3.912-3.889a.258.258,0,0,1-.194-.088.261.261,0,0,1,.023-.365c.531-.464,1.078-.917,1.627-1.35a.258.258,0,0,1,.319.407c-.541.427-1.083.876-1.606,1.334A.27.27,0,0,1,425.067,378.4Zm4.379-3.35a.26.26,0,0,1-.142-.477c.583-.389,1.184-.767,1.785-1.127a.259.259,0,1,1,.264.446c-.6.355-1.189.731-1.764,1.114A.238.238,0,0,1,429.445,375.053Zm4.778-2.751a.263.263,0,0,1-.233-.145.26.26,0,0,1,.119-.347c.627-.308,1.275-.606,1.92-.886a.258.258,0,0,1,.2.474c-.64.275-1.277.57-1.9.876A.225.225,0,0,1,434.223,372.3Zm5.1-2.106a.259.259,0,0,1-.083-.505c.663-.225,1.342-.435,2.018-.63a.26.26,0,0,1,.142.5c-.668.192-1.34.4-2,.622A.322.322,0,0,1,439.322,370.2Zm23.842-1.06a.257.257,0,0,1-.062-.008c-.674-.166-1.36-.316-2.042-.448a.259.259,0,1,1,.1-.508c.689.132,1.386.285,2.068.453a.259.259,0,0,1-.062.51Zm-18.517-.371a.259.259,0,0,1-.052-.513l.244-.049c.609-.119,1.228-.225,1.842-.319a.259.259,0,1,1,.078.513c-.606.091-1.218.2-1.821.314l-.238.047A.167.167,0,0,1,444.646,368.765Zm13.084-.591a.1.1,0,0,1-.029,0c-.689-.075-1.391-.135-2.083-.179a.26.26,0,0,1-.244-.275.266.266,0,0,1,.275-.244c.7.041,1.409.1,2.109.179a.255.255,0,0,1,.228.285A.26.26,0,0,1,457.73,368.174Zm-7.615-.15a.259.259,0,0,1-.018-.518c.7-.049,1.412-.08,2.114-.1a.255.255,0,0,1,.264.254.26.26,0,0,1-.254.264c-.694.013-1.4.047-2.088.1Z" transform="translate(-410.2 -367.41)" fill="#fff"/>
        <path id="Path_8489-2" data-name="Path 8489" d="M627.613,376.615a.263.263,0,0,1-.088-.016c-.321-.117-.648-.228-.972-.337a.258.258,0,0,1,.163-.49c.329.109.658.223.985.342a.257.257,0,0,1-.088.5Z" transform="translate(-570.367 -373.597)" fill="#fff"/>
      </g>
      <g id="Group_6638-2" data-name="Group 6638" transform="translate(26.351 23.568)">
        <path id="Path_8490-2" data-name="Path 8490" d="M722.384,459.827a.257.257,0,0,1-.236-.15c-.145-.311-.3-.619-.448-.928a.259.259,0,1,1,.464-.231c.155.311.306.624.453.938a.26.26,0,0,1-.124.345A.239.239,0,0,1,722.384,459.827Z" transform="translate(-667.323 -458.374)" fill="#fff"/>
        <path id="Path_8491-2" data-name="Path 8491" d="M540.3,532.024c-.458,0-.917-.008-1.373-.021a.259.259,0,0,1,.016-.518c.451.013.917.021,1.355.021.233,0,.466,0,.7-.005a.259.259,0,0,1,.01.518C540.774,532.021,540.538,532.024,540.3,532.024Zm4.063-.2a.258.258,0,0,1-.023-.516c.676-.065,1.363-.148,2.042-.249a.258.258,0,0,1,.075.51c-.687.1-1.381.184-2.068.251A.089.089,0,0,1,544.363,531.825Zm-8.781-.062a.106.106,0,0,1-.029,0c-.686-.075-1.381-.171-2.065-.282a.26.26,0,0,1,.083-.513c.676.109,1.36.2,2.039.277a.261.261,0,0,1-.029.521Zm14.141-.8a.258.258,0,0,1-.251-.2.263.263,0,0,1,.194-.311c.666-.15,1.337-.319,2-.5a.259.259,0,0,1,.137.5c-.668.184-1.347.355-2.018.508A.2.2,0,0,1,549.723,530.962Zm-19.489-.145a.252.252,0,0,1-.062-.008c-.671-.163-1.347-.347-2.011-.544a.258.258,0,0,1,.148-.495c.656.194,1.324.376,1.987.536a.256.256,0,0,1,.189.314A.26.26,0,0,1,530.234,530.817Zm24.7-1.386a.259.259,0,0,1-.088-.5c.64-.233,1.282-.485,1.915-.751a.259.259,0,0,1,.2.477c-.64.269-1.29.523-1.938.759A.236.236,0,0,1,554.934,529.431Zm4.972-2.179a.259.259,0,0,1-.119-.49c.6-.313,1.21-.645,1.8-.99a.259.259,0,0,1,.262.448c-.6.35-1.215.687-1.827,1A.286.286,0,0,1,559.906,527.252Zm4.651-2.8a.255.255,0,0,1-.212-.111.26.26,0,0,1,.065-.36c.557-.386,1.117-.793,1.658-1.21a.259.259,0,0,1,.316.409c-.549.422-1.114.834-1.679,1.226A.269.269,0,0,1,564.556,524.451Zm4.252-3.368a.254.254,0,0,1-.192-.086.258.258,0,0,1,.018-.365c.505-.456,1.008-.93,1.492-1.415a.258.258,0,1,1,.365.365c-.49.487-1,.969-1.511,1.43A.251.251,0,0,1,568.808,521.083ZM572.6,517.2a.259.259,0,0,1-.2-.428c.446-.518.884-1.055,1.3-1.593a.258.258,0,1,1,.407.319c-.422.544-.865,1.086-1.316,1.612A.251.251,0,0,1,572.6,517.2Zm3.267-4.335a.257.257,0,0,1-.215-.4c.376-.567.741-1.156,1.091-1.744a.259.259,0,0,1,.446.264c-.352.6-.723,1.189-1.1,1.767A.264.264,0,0,1,575.866,512.862Zm2.695-4.715a.253.253,0,0,1-.114-.026.259.259,0,0,1-.119-.347c.3-.611.588-1.241.86-1.868a.258.258,0,0,1,.474.2c-.275.637-.567,1.275-.871,1.891A.249.249,0,0,1,578.56,508.146Zm2.075-5.019a.3.3,0,0,1-.083-.013.26.26,0,0,1-.161-.329c.22-.648.427-1.308.617-1.964a.26.26,0,0,1,.5.143c-.192.666-.4,1.334-.624,1.99A.265.265,0,0,1,580.635,503.128Zm1.42-5.244a.331.331,0,0,1-.052-.005.259.259,0,0,1-.2-.306c.135-.666.256-1.35.36-2.029a.259.259,0,1,1,.513.078c-.1.689-.228,1.378-.365,2.055A.26.26,0,0,1,582.055,497.884Zm.736-5.384h-.018a.261.261,0,0,1-.241-.277c.049-.679.08-1.371.1-2.055a.261.261,0,0,1,.259-.254h.005a.26.26,0,0,1,.254.264c-.016.694-.049,1.394-.1,2.08A.256.256,0,0,1,582.791,492.5Zm.039-5.431a.259.259,0,0,1-.259-.244c-.039-.676-.093-1.368-.166-2.049a.259.259,0,0,1,.516-.054c.072.692.13,1.389.168,2.075a.258.258,0,0,1-.244.272Zm-.653-5.389a.26.26,0,0,1-.254-.213c-.023-.135-.049-.267-.075-.4-.106-.542-.223-1.083-.347-1.612a.258.258,0,0,1,.5-.119c.127.536.244,1.086.352,1.632.026.135.052.269.078.407a.261.261,0,0,1-.207.3Zm-1.324-5.267a.257.257,0,0,1-.246-.181c-.207-.65-.435-1.306-.674-1.943a.26.26,0,1,1,.487-.181c.241.648.472,1.308.682,1.966a.259.259,0,0,1-.168.326A.217.217,0,0,1,580.853,476.413Z" transform="translate(-523.812 -469.905)" fill="#fff"/>
        <path id="Path_8492-2" data-name="Path 8492" d="M513.123,684.6a.236.236,0,0,1-.093-.018c-.324-.124-.648-.254-.966-.386a.26.26,0,1,1,.2-.479q.474.2.956.381a.257.257,0,0,1,.148.334A.265.265,0,0,1,513.123,684.6Z" transform="translate(-511.904 -625.316)" fill="#fff"/>
      </g>
      <g id="Group_6640-2" data-name="Group 6640" transform="translate(9.846 9.566)">
        <path id="Path_8493-2" data-name="Path 8493" d="M465.017,466.029a.51.51,0,0,0,.593,0l5.083-3.586a27.021,27.021,0,0,0,8.542,2.018l2.941,5.477a.508.508,0,0,0,.531.262l7.363-1.194a.515.515,0,0,0,.422-.417l1.06-6.125a27.072,27.072,0,0,0,7.464-4.617l5.957,1.793a.509.509,0,0,0,.562-.192L509.9,453.4a.51.51,0,0,0,0-.593l-3.586-5.083a27.023,27.023,0,0,0,2.018-8.542l5.477-2.941a.508.508,0,0,0,.262-.531l-1.192-7.366a.512.512,0,0,0-.417-.422l-6.125-1.06a27.074,27.074,0,0,0-4.617-7.464l1.793-5.957a.509.509,0,0,0-.192-.562l-6.052-4.363a.51.51,0,0,0-.593,0l-5.083,3.586a27.021,27.021,0,0,0-8.542-2.018l-2.941-5.477a.508.508,0,0,0-.531-.262l-7.366,1.194a.512.512,0,0,0-.422.417l-1.06,6.125a27.123,27.123,0,0,0-7.467,4.617l-5.957-1.793a.509.509,0,0,0-.562.192l-4.363,6.052a.51.51,0,0,0,0,.593l3.586,5.083a27.021,27.021,0,0,0-2.018,8.542l-5.477,2.941a.508.508,0,0,0-.262.531L449.4,446.2a.512.512,0,0,0,.417.422l6.125,1.06a27.071,27.071,0,0,0,4.617,7.464L458.77,461.1a.509.509,0,0,0,.192.562Z" transform="translate(-448.203 -404.333)" fill="#b2b2b2"/>
        <g id="Group_6639-2" data-name="Group 6639" transform="translate(25.922 25.929)">
          <path id="Path_8494-2" data-name="Path 8494" d="M555.274,518.439a7.022,7.022,0,1,1,2.78-.58A7.012,7.012,0,0,1,555.274,518.439Zm-.01-13.255a6.236,6.236,0,1,0,2.487,11.96h0a6.236,6.236,0,0,0-2.487-11.96Z" transform="translate(-548.253 -504.408)" fill="#fff"/>
        </g>
        <path id="Path_8495-2" data-name="Path 8495" d="M523.037,496.735c-.109,0-.218,0-.326,0-.088,0-.179,0-.267-.008h-.016c-.042,0-.08,0-.119-.005l-.163-.008H522.1l.039-.777a17.651,17.651,0,0,0,3.747-.207c.22-.036.438-.075.655-.119a17.643,17.643,0,0,0,14.115-18.175,18,18,0,0,0-.2-1.915,17.617,17.617,0,0,0-35.006,2.788,18.05,18.05,0,0,0,.231,2.858,17.6,17.6,0,0,0,3.912,8.527l-.593.5a18.394,18.394,0,1,1,32.223-14.8,18.388,18.388,0,0,1-15.209,21.1h0A18.732,18.732,0,0,1,523.037,496.735Z" transform="translate(-490.04 -445.536)" fill="#fff"/>
      </g>
    </g>
    <g id="Group_6689" data-name="Group 6689" transform="translate(694.121 412.861)">
      <g id="Group_6642-2" data-name="Group 6642" transform="translate(0)">
        <path id="Path_8496-2" data-name="Path 8496" d="M697.035,482.038a.253.253,0,0,1-.22-.124c-.184-.3-.36-.609-.523-.912a.258.258,0,1,1,.456-.244c.158.3.329.593.508.886a.257.257,0,0,1-.085.355A.233.233,0,0,1,697.035,482.038Z" transform="translate(-693.947 -452.066)" fill="#fff"/>
        <path id="Path_8497-2" data-name="Path 8497" d="M688.6,396.48a.258.258,0,0,1-.246-.176,20.049,20.049,0,0,1-.549-1.969.259.259,0,1,1,.505-.111,19.26,19.26,0,0,0,.534,1.917.261.261,0,0,1-.163.329A.374.374,0,0,1,688.6,396.48Zm-.987-5.187a.259.259,0,0,1-.259-.246c-.018-.339-.026-.687-.026-1.026s.008-.676.026-1.016a.259.259,0,0,1,.518.026c-.018.329-.026.661-.026.987s.01.668.026,1a.26.26,0,0,1-.246.272A.02.02,0,0,1,687.615,391.293Zm.448-5.257a.418.418,0,0,1-.057-.005.257.257,0,0,1-.194-.311,19.733,19.733,0,0,1,.554-1.966.26.26,0,1,1,.492.166,18.91,18.91,0,0,0-.539,1.915A.268.268,0,0,1,688.063,386.036Zm1.858-4.941a.259.259,0,0,1-.225-.383c.324-.6.681-1.184,1.062-1.744a.259.259,0,0,1,.427.293c-.373.547-.72,1.117-1.036,1.7A.259.259,0,0,1,689.921,381.095Zm3.117-4.259a.251.251,0,0,1-.179-.073.258.258,0,0,1-.008-.365c.472-.487.974-.956,1.492-1.394a.259.259,0,1,1,.334.4,18.943,18.943,0,0,0-1.453,1.358A.263.263,0,0,1,693.038,376.835Zm4.148-3.262a.26.26,0,0,1-.129-.484,19.714,19.714,0,0,1,1.816-.938.259.259,0,0,1,.213.472,18.644,18.644,0,0,0-1.767.912A.236.236,0,0,1,697.186,373.573Zm4.876-2.013a.262.262,0,0,1-.251-.194.259.259,0,0,1,.187-.316c.4-.1.8-.194,1.2-.275.264-.052.531-.1.8-.137a.255.255,0,0,1,.3.218.259.259,0,0,1-.218.3c-.259.039-.516.086-.775.135-.394.078-.788.166-1.174.267A.278.278,0,0,1,702.062,371.56Zm7.252-.492a.123.123,0,0,1-.031,0,18.832,18.832,0,0,0-1.985-.137.259.259,0,0,1,.005-.518h.005a19.909,19.909,0,0,1,2.039.14.259.259,0,0,1,.225.288A.262.262,0,0,1,709.314,371.068Z" transform="translate(-687.33 -370.41)" fill="#fff"/>
        <path id="Path_8498-2" data-name="Path 8498" d="M784.839,374.392a.264.264,0,0,1-.088-.016c-.321-.117-.648-.223-.969-.321a.26.26,0,0,1,.15-.5c.332.1.666.21,1,.329a.258.258,0,0,1,.155.332A.263.263,0,0,1,784.839,374.392Z" transform="translate(-758.655 -372.734)" fill="#fff"/>
      </g>
      <g id="Group_6643-2" data-name="Group 6643" transform="translate(11.989 10.724)">
        <path id="Path_8499-2" data-name="Path 8499" d="M829.719,413.26a.263.263,0,0,1-.238-.155c-.135-.314-.28-.627-.43-.928a.259.259,0,0,1,.464-.231c.153.308.3.63.443.951a.259.259,0,0,1-.135.342A.284.284,0,0,1,829.719,413.26Z" transform="translate(-804.3 -411.802)" fill="#fff"/>
        <path id="Path_8500-2" data-name="Path 8500" d="M751.626,451.708h-.018a19.847,19.847,0,0,1-1.995-.238.26.26,0,1,1,.088-.513,18.854,18.854,0,0,0,1.943.233.259.259,0,0,1-.018.518Zm3.22-.052a.258.258,0,0,1-.023-.516c.6-.06,1.2-.148,1.79-.264l.145-.029a.259.259,0,0,1,.1.508l-.148.028c-.609.119-1.228.21-1.839.272Zm5.055-1.194a.258.258,0,0,1-.091-.5,19.032,19.032,0,0,0,1.788-.793.258.258,0,0,1,.233.461,19.667,19.667,0,0,1-1.837.814A.248.248,0,0,1,759.9,450.462Zm4.552-2.5a.26.26,0,0,1-.155-.469c.521-.386,1.029-.8,1.51-1.241a.259.259,0,0,1,.347.383,19.694,19.694,0,0,1-1.552,1.275A.231.231,0,0,1,764.453,447.967Zm3.723-3.617a.268.268,0,0,1-.161-.054.259.259,0,0,1-.044-.363c.4-.51.78-1.049,1.13-1.6a.259.259,0,0,1,.438.277c-.358.565-.746,1.117-1.158,1.643A.266.266,0,0,1,768.176,444.35Zm2.635-4.475a.282.282,0,0,1-.1-.021.257.257,0,0,1-.137-.339c.251-.6.477-1.22.666-1.84a.26.26,0,1,1,.5.15,19.854,19.854,0,0,1-.684,1.891A.265.265,0,0,1,770.811,439.875Zm1.355-5.013a.146.146,0,0,1-.034,0,.258.258,0,0,1-.223-.29,18.916,18.916,0,0,0,.15-1.951.262.262,0,0,1,.267-.251.256.256,0,0,1,.251.267c-.018.668-.07,1.342-.153,2.005A.266.266,0,0,1,772.166,434.862Zm-.036-5.195a.259.259,0,0,1-.257-.223c-.047-.332-.1-.666-.166-.99s-.13-.624-.2-.933a.259.259,0,0,1,.5-.124c.078.316.15.637.213.956s.122.674.171,1.016a.258.258,0,0,1-.22.293A.107.107,0,0,1,772.13,429.667Z" transform="translate(-745.305 -423.211)" fill="#fff"/>
        <path id="Path_8501-2" data-name="Path 8501" d="M734.829,515.184a.25.25,0,0,1-.086-.016c-.326-.114-.658-.241-.979-.376a.26.26,0,0,1,.2-.479c.316.13.637.254.953.365a.258.258,0,0,1,.158.332A.264.264,0,0,1,734.829,515.184Z" transform="translate(-733.604 -487.739)" fill="#fff"/>
      </g>
      <g id="Group_6645-2" data-name="Group 6645" transform="translate(4.622 4.497)">
        <path id="Path_8502-2" data-name="Path 8502" d="M712.817,415.834a.234.234,0,0,0,.269,0l2.311-1.63a12.373,12.373,0,0,0,3.886.92l1.339,2.49a.232.232,0,0,0,.241.119l3.35-.544a.231.231,0,0,0,.192-.189l.482-2.785a12.34,12.34,0,0,0,3.4-2.1l2.71.816a.234.234,0,0,0,.257-.085l1.985-2.754a.234.234,0,0,0,0-.269l-1.63-2.311a12.375,12.375,0,0,0,.92-3.886l2.49-1.339a.232.232,0,0,0,.119-.241l-.544-3.35a.231.231,0,0,0-.189-.192l-2.788-.482a12.337,12.337,0,0,0-2.1-3.4l.816-2.71a.234.234,0,0,0-.085-.257l-2.754-1.985a.234.234,0,0,0-.269,0l-2.311,1.63a12.375,12.375,0,0,0-3.886-.92l-1.339-2.49a.232.232,0,0,0-.241-.119l-3.35.544a.231.231,0,0,0-.192.189l-.482,2.785a12.343,12.343,0,0,0-3.4,2.1l-2.71-.816a.234.234,0,0,0-.256.085l-1.985,2.754a.234.234,0,0,0,0,.27L708.7,398a12.37,12.37,0,0,0-.92,3.886l-2.49,1.34a.232.232,0,0,0-.119.241l.544,3.35a.231.231,0,0,0,.189.192l2.785.482a12.336,12.336,0,0,0,2.1,3.4l-.816,2.71a.234.234,0,0,0,.086.257Z" transform="translate(-705.169 -387.769)" fill="#b2b2b2"/>
        <g id="Group_6644-2" data-name="Group 6644" transform="translate(11.58 11.577)">
          <path id="Path_8503-2" data-name="Path 8503" d="M753.272,439.261a3.405,3.405,0,1,1,1.347-.28A3.4,3.4,0,0,1,753.272,439.261Zm-.005-6.029a2.635,2.635,0,1,0,.966.187A2.607,2.607,0,0,0,753.267,433.232Z" transform="translate(-749.863 -432.453)" fill="#fff"/>
        </g>
        <path id="Path_8504-2" data-name="Path 8504" d="M738.591,429.407c-.057,0-.114,0-.171,0h-.005c-.086,0-.174-.005-.259-.01l.039-.777a7.923,7.923,0,0,0,1.658-.091,7.749,7.749,0,0,0,5.057-3.109l.021-.029a7.8,7.8,0,0,0-7.581-12.26,7.816,7.816,0,0,0-6.552,7.7,7.9,7.9,0,0,0,.1,1.251,7.807,7.807,0,0,0,1.733,3.778l-.593.5a8.579,8.579,0,1,1,15.03-6.9,8.72,8.72,0,0,1,.114,1.391,8.587,8.587,0,0,1-8.592,8.56Z" transform="translate(-723.581 -405.907)" fill="#fff"/>
      </g>
    </g>
    <g id="Group_6690" data-name="Group 6690" transform="translate(234.218 283.173)">
      <path id="Path_8460" data-name="Path 8460" d="M2732.742,3163.3s-.469,2.651-.7,5.275a1.807,1.807,0,0,0,1.729,1.958c3.494.146,10.969.429,13.65.309a.588.588,0,0,0,.518-.806,1.316,1.316,0,0,0-.673-.71l-12.347-5.675Z" transform="translate(-2703.99 -3036.26)" fill="#393939"/>
      <path id="Path_8461" data-name="Path 8461" d="M2867.7,3139.87l.376,3.17s2.163,1.007,3.64-.126l-.9-3.534Z" transform="translate(-2839.331 -3014.387)" fill="url(#linear-gradient)"/>
      <path id="Path_8462" data-name="Path 8462" d="M2880.542,2448.542c-.162.829-.872,41.32,3.456,59.465a.615.615,0,0,1-.361.716,10.718,10.718,0,0,1-3.525.717,1.062,1.062,0,0,1-1.053-.761c-1.238-4.21-7.166-25.3-7.939-45.453-.865-22.516,0-.767,0-.767l.506-13.917Z" transform="translate(-2851.89 -2382.67)" fill="#616161"/>
      <path id="Path_8463" data-name="Path 8463" d="M3019.713,3179.46a19.089,19.089,0,0,0-1.466,4.894,1.1,1.1,0,0,0,.97,1.322c1.154.114,2.93.259,4.353.25a1.1,1.1,0,0,0,1.089-1.226,9.273,9.273,0,0,0-2.165-5.087Z" transform="translate(-3005.162 -3051.037)" fill="#393939"/>
      <path id="Path_8464" data-name="Path 8464" d="M3043.23,3129.816l.879,4.795a3.1,3.1,0,0,0,2.588.178l-.419-5.159Z" transform="translate(-3029.334 -3005.471)" fill="url(#linear-gradient-2)"/>
      <path id="Path_8465" data-name="Path 8465" d="M2908.492,2439.141c-3.539,21.363.768,52.8,2.221,58.954a.96.96,0,0,0,.774.729,6.445,6.445,0,0,0,2.769-.11.881.881,0,0,0,.632-.81c.2-4.975-.156-35.514,3.143-47.584a2.736,2.736,0,0,1,1.057-1.512l6.4-4.551.491-7.357Z" transform="translate(-2896.971 -2372.025)" fill="#616161"/>
      <g id="Group_6628" data-name="Group 6628" transform="translate(10.2 10.207)">
        <path id="Path_8466" data-name="Path 8466" d="M2692.857,1971.543c-10.609-.175-22.313,2.786-22.313,2.786-3.163,18.451-.553,39.733-.553,39.733,8.213,2.154,17.476-1.318,17.476-1.318,1.365-7.712,7.734-29.416,7.734-29.416a34.949,34.949,0,0,0,12.969-4.115,22.74,22.74,0,0,1-4.5-9.4A35.6,35.6,0,0,1,2692.857,1971.543Z" transform="translate(-2668.979 -1955.115)" fill="#fff"/>
        <path id="Path_8467" data-name="Path 8467" d="M2502.3,1798.9a2.029,2.029,0,0,0-2.361-.663c-1.561,6.594-9.747,11.941-18.157,14.554a22.742,22.742,0,0,0,4.5,9.4C2500.232,1814.346,2502.3,1798.9,2502.3,1798.9Z" transform="translate(-2447.084 -1798.095)" fill="url(#linear-gradient-3)"/>
      </g>
      <g id="Group_6629" data-name="Group 6629" transform="translate(63.052)">
        <path id="Path_8468" data-name="Path 8468" d="M2431.037,1690.161c.108.347-1.154.875-1.9-.543-.025-.68-.439-3.591-.034-4.144a54.19,54.19,0,0,1,6.355-6.644,1,1,0,0,1,.125,1.387l-2.034,2.119a9.877,9.877,0,0,1,1.187,2.348,2.844,2.844,0,0,1-.284,2.1,24.914,24.914,0,0,1-1.3,2.133A2.815,2.815,0,0,1,2431.037,1690.161Z" transform="translate(-2428.929 -1678.83)" fill="url(#linear-gradient-4)"/>
        <path id="Path_8469" data-name="Path 8469" d="M2463.379,1735.84l-1.854,1.571-.583,1.564,1.653,1.833a21.248,21.248,0,0,1,.969-3.776C2463.977,1736.361,2463.763,1736.036,2463.379,1735.84Z" transform="translate(-2459.645 -1730.961)" fill="url(#linear-gradient-5)"/>
      </g>
      <path id="Path_8470" data-name="Path 8470" d="M3076.728,2032.892l-4.07-10.272s-9.908,6.733-11.538,15.269a23.432,23.432,0,0,1,8.613,2.309C3070.467,2036.166,3076.728,2032.892,3076.728,2032.892Z" transform="translate(-3060.896 -1993.198)" fill="#f5f5f5"/>
      <path id="Path_8471" data-name="Path 8471" d="M2967.222,2205.7s-11.125,6.287-14.878.917a4.218,4.218,0,0,1-.775-3.278,23.435,23.435,0,0,0-8.613-2.309,11.779,11.779,0,0,0,1.281,8.076c6.575,12.028,24.458-.665,24.458-.665Z" transform="translate(-2942.73 -2156.341)" fill="url(#linear-gradient-6)"/>
      <g id="Group_6630" data-name="Group 6630" transform="translate(23.131 32.288)">
        <path id="Path_8472" data-name="Path 8472" d="M2650.818,2103.16l6.072-21.2a.617.617,0,0,1,.523-.444c1.1-.129,4.287-.489,7.968-.8a90.452,90.452,0,0,1,12.658-.42.621.621,0,0,1,.508.893c-1.749,3.54-8.946,17.937-12.549,22.653a.62.62,0,0,1-.5.246l-14.087-.131A.622.622,0,0,1,2650.818,2103.16Z" transform="translate(-2650.794 -2078.135)" fill="#343434"/>
        <path id="Path_8473" data-name="Path 8473" d="M2742.824,2056.855l4.4-.733a.316.316,0,0,1,.352.411l-.435,1.321a.318.318,0,0,1-.259.214l-4.236.566a.316.316,0,0,1-.349-.385l.27-1.153A.317.317,0,0,1,2742.824,2056.855Z" transform="translate(-2727.607 -2056.117)" fill="#7d7d7d"/>
        <path id="Path_8474" data-name="Path 8474" d="M2718.3,2074.687l.363-1.889a.437.437,0,0,1,.385-.352l8.891-.9a.436.436,0,0,1,.469.536l-.566,2.354a.435.435,0,0,1-.4.334l-8.689.437A.437.437,0,0,1,2718.3,2074.687Z" transform="translate(-2706.383 -2070.222)" fill="#6e6e6e"/>
        <path id="Path_8475" data-name="Path 8475" d="M2871.315,2211.426s-.845-3.478-.5-4.712,1-2.821,3.206-2.468a32.18,32.18,0,0,1,4.8,1.281,1.261,1.261,0,0,1-1.806,1.089l1.039.8s-.149,1.287-1.563.6l.966,1.066a1.126,1.126,0,0,1-1.648.379C2874.765,2208.785,2874.266,2211.844,2871.315,2211.426Z" transform="translate(-2869.824 -2191.523)" fill="url(#linear-gradient-7)"/>
      </g>
      <path id="Path_8476" data-name="Path 8476" d="M2896.6,1889.44l-3.375,9.761a.352.352,0,0,0,.16.423,7.935,7.935,0,0,0,8.23-.553,1.657,1.657,0,0,0,.762-1.183l1.093-8.448Z" transform="translate(-2873.273 -1871.416)" fill="url(#linear-gradient-8)"/>
      <g id="Group_6631" data-name="Group 6631" transform="translate(20.014 3.014)">
        <path id="Path_8477" data-name="Path 8477" d="M2854.581,1765.043c.1.141,3.273,11.2,3.273,11.2l-6.352,1.677-4.563-10.032S2852.879,1762.679,2854.581,1765.043Z" transform="translate(-2843.706 -1760.116)" fill="url(#linear-gradient-9)"/>
        <path id="Path_8478" data-name="Path 8478" d="M2840.364,1722.556a.945.945,0,0,0-.089.828l1.96,5.391a.929.929,0,0,0,.121.229,1.548,1.548,0,0,0,2.44.456,8.314,8.314,0,0,1,2.769-2.03.943.943,0,0,1,1.17.654,35.251,35.251,0,0,1,1.071,5.087.939.939,0,0,1-.755,1.027,26.17,26.17,0,0,1-5.877.543.942.942,0,0,1-.8-.542c-.651-1.388-2.494-5.27-3.182-6.286-.64-.944-2.161-.93-2.857-.869a.954.954,0,0,1-.722-.241,2.079,2.079,0,0,1-.166-3.255.945.945,0,0,0-.043-1.315,2.088,2.088,0,0,1-.221-3.06,2.943,2.943,0,0,1,3.425-.925.982.982,0,0,0,1.119-.366.625.625,0,0,1,.551-.284.916.916,0,0,0,.932-.915,2.416,2.416,0,0,1,1.852-2.461c2.773-.892,4.532,1.779,4.723,3.783s-2.871,2.8-4.677,2.68C2841.775,1720.6,2840.792,1721.873,2840.364,1722.556Z" transform="translate(-2834.607 -1714.044)"/>
        <path id="Path_8479" data-name="Path 8479" d="M2954.028,1860.288s-.482-3.476-1.931-3.634-2.848,1.046-1.39,2.987C2952.521,1862.054,2954.028,1860.288,2954.028,1860.288Z" transform="translate(-2948.708 -1844.437)" fill="url(#linear-gradient-10)"/>
      </g>
    </g>
    <g id="Group_3878" data-name="Group 3878" transform="translate(443.412 311.059)">
      <g id="Group_3872" data-name="Group 3872" transform="translate(103.645 131.242)">
        <rect id="Rectangle_217" data-name="Rectangle 217" width="6.07" height="65.646" transform="translate(31.368 15.634)" fill="#7d7d7d"/>
        <path id="Path_3720" data-name="Path 3720" d="M1958.935,1477.791H1905.77v-3.026a.922.922,0,0,1,.924-.924h51.245a1,1,0,0,1,1,1Z" transform="translate(-1897.948 -1395.243)" fill="#7d7d7d"/>
        <path id="Path_3721" data-name="Path 3721" d="M1954.043,1258.262a6.96,6.96,0,0,1-6.939,6.939H1889.94a6.959,6.959,0,0,1-6.939-6.939v-6.273a6.959,6.959,0,0,1,6.939-6.939h57.167a6.96,6.96,0,0,1,6.939,6.939v6.273Z" transform="translate(-1883 -1245.05)" fill="#7d7d7d"/>
      </g>
      <g id="Group_3874" data-name="Group 3874" transform="translate(52.001 0)">
        <path id="Path_3722" data-name="Path 3722" d="M1856.685,1442s-17.335,12.494-14.325,20.887c0,0,18.966-8.183,21.258-14.628s-.388-9.293-.388-9.293Z" transform="translate(-1804.447 -1241.111)" fill="#58525e"/>
        <path id="Path_3723" data-name="Path 3723" d="M1877.638,1417.32l2.834,8.193a2.849,2.849,0,0,1-1.106,3.343,7.417,7.417,0,0,1-2.346.907,3.317,3.317,0,0,1-3.669-1.666l-3.391-6.383Z" transform="translate(-1822.796 -1226.898)" fill="url(#linear-gradient-11)"/>
        <path id="Path_3724" data-name="Path 3724" d="M1866.948,1202.63s-35.6,6.17-50.877,20.279,14.02,59.111,14.02,59.111,4.8-.03,10.615-5.016c0,0-17.366-33.848-2.4-43.718,16.826-11.1,36.219-13.6,36.219-13.6l-7.231-15.974Z" transform="translate(-1784.524 -1085.961)" fill="#d6d6d6"/>
        <path id="Path_3725" data-name="Path 3725" d="M1839.853,1476.576c3.813-1.766,14.607-9.32,16.425-9.653s4.974,1.8,4.974,1.8a4.924,4.924,0,0,1-.055,3.789c-2.532,3.064-8.159,8.908-15.72,11.086-5.562,1.6-9.454.11-11.876-1.639A16.123,16.123,0,0,1,1839.853,1476.576Z" transform="translate(-1798.928 -1259.438)" fill="#6c6673"/>
        <path id="Path_3726" data-name="Path 3726" d="M1843.364,1494.366c7.561-2.178,13.188-8.022,15.72-11.086a15.319,15.319,0,0,1-4.569,6.18c-6.781,6.094-19.729,8.289-22.488,7.867-2.209-.34-2-2.377-.542-4.6C1833.91,1494.472,1837.8,1495.967,1843.364,1494.366Z" transform="translate(-1796.812 -1270.199)" fill="#242424"/>
        <path id="Path_3727" data-name="Path 3727" d="M1904.358,1450.864c-.042,1.051-2.188,4.651-3.446,6.675a3.273,3.273,0,0,1-2.772,1.549,8.451,8.451,0,0,1-2.291-.275,2.122,2.122,0,0,1-1.426-2.642l2.453-8.372Z" transform="translate(-1838.798 -1246.907)" fill="url(#linear-gradient-12)"/>
        <path id="Path_3728" data-name="Path 3728" d="M1955.5,1171.53s7.908,21.141,0,27.572-26.768,13.669-30.983,26.476-11.364,37.7-20.935,46.508c0,0-6.723-.653-9.241-3.329,0,0,5.448-37.153,9.045-46.686,3.113-8.255,7.7-20.172,16.49-26.833,2.515-1.907,2.078-4.927.91-7.86l-2.123-5.342Z" transform="translate(-1838.801 -1065.545)" fill="#d6d6d6"/>
        <path id="Path_3729" data-name="Path 3729" d="M1831.729,1082.734c13.257.8,9.128-20.382,8.887-21.224l20.121,14.212s-1.065,11.326-17.8,17.269a20.781,20.781,0,0,1-11.522.835A18.3,18.3,0,0,0,1831.729,1082.734Z" transform="translate(-1797.496 -993.32)" fill="#363636"/>
        <path id="Path_3730" data-name="Path 3730" d="M1741.268,1101.812c4.94-3.436,10.536,0,10.536,0,6.606,4.322,11.491,6.156,15.1,6.376a18.32,18.32,0,0,1-.306,11.093c-7.4-1.59-12.693-6.946-15-9.694a2.389,2.389,0,0,0-3.308-.361c-1.027.811-2.027,1.924-1.848,3.1.357,2.308-2.322,3.044-2.525,2.205s.918-5.8.918-5.8-5.359,5.387-7.448,7.458-4.72,0-4.72,0S1736.328,1105.251,1741.268,1101.812Z" transform="translate(-1732.67 -1018.775)" fill="url(#linear-gradient-13)"/>
        <path id="Path_3731" data-name="Path 3731" d="M1904.422,964.558s-19.286-7.723-55.182,21.911c0,0-3,6.208.272,11.728s34.435,32.44,38.72,47.366c0,0,18.568,6.032,37.768-8.272C1926,1037.293,1924.305,995.75,1904.422,964.558Z" transform="translate(-1808.37 -929.079)"/>
        <path id="Path_3732" data-name="Path 3732" d="M1876.781,946.23l9.5,11.512a3.782,3.782,0,0,1,.5,4.064c-1.319,2.69-4.445,6.6-11.381,6.06a5.832,5.832,0,0,1-4.792-3.267l-6.641-13.724Z" transform="translate(-1818.858 -917.643)" fill="url(#linear-gradient-14)"/>
        <path id="Path_3733" data-name="Path 3733" d="M2016.67,1015.587c2.24-9.117-20.44-29.447-20.44-29.447l5.507-19.849s48.974,32.6,36.493,58.82a19.107,19.107,0,0,1-6.918,8.152C2027.368,1022.647,2021.085,1017.779,2016.67,1015.587Z" transform="translate(-1905.688 -930.812)" fill="#3a3a3a"/>
        <path id="Path_3734" data-name="Path 3734" d="M2015.693,1047.612a.536.536,0,0,0,.519-.409c2.291-9.324-19.667-29.135-20.605-29.973a.535.535,0,1,0-.715.8c.224.2,22.416,20.217,20.279,28.922a.537.537,0,0,0,.392.649A.948.948,0,0,0,2015.693,1047.612Z" transform="translate(-1904.693 -964.163)" fill="#ccffbd"/>
        <path id="Path_3735" data-name="Path 3735" d="M1912.485,1106.692s26.888,10.44,33.453,2.587a4.373,4.373,0,0,0,.9-1.8c4.411,2.191,10.7,7.06,14.642,17.675-14.143,9.038-38.314-5.026-44.852-9.172a4.875,4.875,0,0,0-3.61-.663c-2.522.522-6.878,1.292-9.224.931-3.435-.529-8.372,11.591-13.941,7.853C1889.847,1124.095,1894.615,1103.026,1912.485,1106.692Z" transform="translate(-1835.854 -1022.7)" fill="url(#linear-gradient-15)"/>
        <g id="Group_3873" data-name="Group 3873" transform="translate(31.396)">
          <path id="Path_3736" data-name="Path 3736" d="M1841.134,891.617c-.1.371,2.226,25.531,2.226,25.531l14.339-1.632,1.343-24.174S1842.732,885.42,1841.134,891.617Z" transform="translate(-1835.267 -879.935)" fill="url(#linear-gradient-16)"/>
          <path id="Path_3737" data-name="Path 3737" d="M1844.1,879.431l.288,12.783a1.744,1.744,0,0,1-.055.481c-.251.972-1.354,4.253-4.641,2.92-2.985-1.209-5.723-2.271-7.74-1.889a1.784,1.784,0,0,0-1.446,1.917,77.416,77.416,0,0,0,1.962,11.821,1.781,1.781,0,0,0,2.034,1.281,57.538,57.538,0,0,0,12.886-3.693,1.786,1.786,0,0,0,1.041-1.5c.217-3.195.9-12.9,1.515-15.579.574-2.511,3.861-3.693,5.277-4.091a1.76,1.76,0,0,0,1.078-.869c.8-1.5,2.068-5.053-2.36-7.049a1.787,1.787,0,0,1-.872-2.422c.886-1.817,1.491-4.675-1.886-6.654-3.432-2.013-6.338-.385-7.967,1.017a1.785,1.785,0,0,1-2.291.017,1.41,1.41,0,0,0-1.6-.12,1.76,1.76,0,0,1-2.395-1.024,5.334,5.334,0,0,0-5.823-3.744c-6.386.384-7.86,7.255-6.654,11.508s8.107,3.442,11.711,1.759c2.738-1.278,5.888.721,7.242,1.755A1.772,1.772,0,0,1,1844.1,879.431Z" transform="translate(-1824.061 -863.015)" fill="#40394a"/>
          <path id="Path_3738" data-name="Path 3738" d="M1898.522,930.99s-1.786-7.5,1.057-8.977,6.665-.13,5.226,5.005C1903.016,933.4,1898.522,930.99,1898.522,930.99Z" transform="translate(-1872.579 -901.376)" fill="url(#linear-gradient-17)"/>
        </g>
      </g>
      <g id="Group_3875" data-name="Group 3875" transform="translate(3.838 53.356)">
        <path id="Path_3739" data-name="Path 3739" d="M1802.761,1157.677c-.045,0-.086,0-.13,0l-56.419-.062a2.525,2.525,0,1,1,.007-5.05l56.419.061a2.525,2.525,0,0,1,.124,5.047Z" transform="translate(-1691.742 -1106.453)" fill="#6c6673"/>
        <path id="Path_3740" data-name="Path 3740" d="M1596.226,1018.33h46.985a8.957,8.957,0,0,1,8.1,5.135l21.722,46.058h-58.39a5.441,5.441,0,0,1-5.061-3.442l-16.843-42.622A3.748,3.748,0,0,1,1596.226,1018.33Z" transform="translate(-1592.472 -1018.33)" fill="#6c6673"/>
      </g>
      <g id="Group_3877" data-name="Group 3877" transform="translate(0 104.044)">
        <g id="Group_3876" data-name="Group 3876" transform="translate(12.84 5.046)">
          <path id="Path_3741" data-name="Path 3741" d="M1621.044,1297.064a2.43,2.43,0,0,1-.934-.189,2.268,2.268,0,0,1-1.24-3.016l49.723-111.9a2.4,2.4,0,0,1,3.116-1.2,2.269,2.269,0,0,1,1.24,3.016l-49.723,111.9A2.381,2.381,0,0,1,1621.044,1297.064Z" transform="translate(-1618.675 -1180.568)" fill="#d9d9d9"/>
          <path id="Path_3742" data-name="Path 3742" d="M1689.08,1297.068a2.373,2.373,0,0,1-2.178-1.388l-49.723-111.9a2.268,2.268,0,0,1,1.24-3.016,2.4,2.4,0,0,1,3.116,1.2l49.723,111.9a2.268,2.268,0,0,1-1.24,3.016A2.519,2.519,0,0,1,1689.08,1297.068Z" transform="translate(-1630.695 -1180.572)" fill="#d9d9d9"/>
          <path id="Path_3743" data-name="Path 3743" d="M2069.073,1297.064a2.427,2.427,0,0,1-.934-.189,2.268,2.268,0,0,1-1.24-3.016l49.719-111.9a2.4,2.4,0,0,1,3.116-1.2,2.269,2.269,0,0,1,1.24,3.016l-49.724,111.9A2.376,2.376,0,0,1,2069.073,1297.064Z" transform="translate(-1912.791 -1180.568)" fill="#d9d9d9"/>
          <path id="Path_3744" data-name="Path 3744" d="M2137.1,1297.068a2.373,2.373,0,0,1-2.178-1.388l-49.723-111.9a2.269,2.269,0,0,1,1.24-3.016,2.4,2.4,0,0,1,3.116,1.2l49.723,111.9a2.268,2.268,0,0,1-1.24,3.016A2.507,2.507,0,0,1,2137.1,1297.068Z" transform="translate(-1924.805 -1180.572)" fill="#d9d9d9"/>
        </g>
        <path id="Path_3745" data-name="Path 3745" d="M1812.268,1168.858a2.715,2.715,0,0,0-.47-2.068,2.152,2.152,0,0,0-1.725-.91h-226.2a2.515,2.515,0,0,0-2.167,1.33,3.18,3.18,0,0,0-.168,2.762l2.453,5.94a3.426,3.426,0,0,0,3.116,2.229h221.418a2.7,2.7,0,0,0,2.553-2.356Z" transform="translate(-1581.299 -1165.88)" fill="#d9d9d9"/>
      </g>
    </g>
  </g>
</svg>
