<svg xmlns="http://www.w3.org/2000/svg" xmlns:xlink="http://www.w3.org/1999/xlink" width="433.198" height="427.743" viewBox="0 0 433.198 427.743">
  <defs>
    <clipPath id="clip-path">
      <path id="Path_8433" data-name="Path 8433" d="M680.022,1268.51a23.8,23.8,0,1,0,23.8,23.8A23.8,23.8,0,0,0,680.022,1268.51Zm0,37.363a13.561,13.561,0,1,1,13.561-13.561A13.56,13.56,0,0,1,680.022,1305.873Z" transform="translate(-656.22 -1268.51)" opacity="0.57"/>
    </clipPath>
    <clipPath id="clip-path-2">
      <path id="Path_8435" data-name="Path 8435" d="M1059.852,1268.51a23.8,23.8,0,1,0,23.8,23.8A23.8,23.8,0,0,0,1059.852,1268.51Zm0,37.363a13.561,13.561,0,1,1,13.561-13.561A13.56,13.56,0,0,1,1059.852,1305.873Z" transform="translate(-1036.05 -1268.51)" opacity="0.57"/>
    </clipPath>
    <clipPath id="clip-path-3">
      <path id="Path_8437" data-name="Path 8437" d="M1439.672,1268.51a23.8,23.8,0,1,0,23.8,23.8A23.8,23.8,0,0,0,1439.672,1268.51Zm0,37.363a13.561,13.561,0,1,1,13.561-13.561A13.56,13.56,0,0,1,1439.672,1305.873Z" transform="translate(-1415.87 -1268.51)" opacity="0.57"/>
    </clipPath>
    <linearGradient id="linear-gradient" x1="1.327" y1="-0.174" x2="-0.781" y2="1.65" gradientUnits="objectBoundingBox">
      <stop offset="0" stop-color="#fdf53f"/>
      <stop offset="1" stop-color="#d93c65"/>
    </linearGradient>
    <linearGradient id="linear-gradient-2" x1="-56.356" y1="0.5" x2="-55.356" y2="0.5" gradientUnits="objectBoundingBox">
      <stop offset="0" stop-color="#febbba"/>
      <stop offset="1" stop-color="#ff928e"/>
    </linearGradient>
    <linearGradient id="linear-gradient-3" x1="-73.776" y1="0.5" x2="-72.776" y2="0.5" xlink:href="#linear-gradient-2"/>
    <linearGradient id="linear-gradient-4" x1="-8.616" y1="0.5" x2="-7.616" y2="0.5" xlink:href="#linear-gradient-2"/>
    <linearGradient id="linear-gradient-5" x1="92.206" y1="1.605" x2="94.206" y2="4.278" xlink:href="#linear-gradient-2"/>
    <linearGradient id="linear-gradient-6" x1="-54.331" y1="0.705" x2="-52.312" y2="-1.072" xlink:href="#linear-gradient-2"/>
    <linearGradient id="linear-gradient-7" x1="-10.057" y1="0.5" x2="-9.057" y2="0.5" xlink:href="#linear-gradient-2"/>
    <linearGradient id="linear-gradient-8" x1="-28.547" y1="0.5" x2="-27.547" y2="0.5" xlink:href="#linear-gradient-2"/>
    <linearGradient id="linear-gradient-9" x1="-23.083" y1="0.5" x2="-22.083" y2="0.5" xlink:href="#linear-gradient-2"/>
    <linearGradient id="linear-gradient-10" x1="-25.897" y1="-15.502" x2="-27.106" y2="-14.208" xlink:href="#linear-gradient-2"/>
    <linearGradient id="linear-gradient-11" x1="-78.922" y1="-47.576" x2="-76.234" y2="-50.119" xlink:href="#linear-gradient-2"/>
  </defs>
  <g id="Scale_Your_Sales_" data-name="Scale Your Sales " transform="translate(-47.132 -49.058)">
    <g id="Illustration" transform="translate(47.132 49.058)">
      <g id="Group_6633" data-name="Group 6633">
        <path id="Path_8408" data-name="Path 8408" d="M880.933,806.129C855.079,833.4,820.766,853.4,779.6,861.477c-94.78,18.591-222.894-9.748-251.745-114.248-17.585-63.692-5.272-138.187,30.848-193.373,39.7-60.658,111.373-101.589,184.727-98.7,71.771,2.825,142.116,59.322,171.849,122.16C952.777,656.555,936.122,747.912,880.933,806.129Z" transform="translate(-507.292 -455.011)" fill="#f6f6f6"/>
        <g id="Group_6605" data-name="Group 6605" transform="translate(11.093 12.449)">
          <g id="Group_6599" data-name="Group 6599">
            <g id="Group_6595" data-name="Group 6595" opacity="0.3">
              <path id="Path_8409" data-name="Path 8409" d="M645.01,568.494a1.55,1.55,0,0,1-2.128-.524c-.86-1.422-1.795-2.829-2.779-4.181a1.548,1.548,0,0,1,.318-2.146l.025-.018a1.548,1.548,0,0,1,2.165.342c1.036,1.422,2.02,2.9,2.925,4.4a1.551,1.551,0,0,1-.39,2.036C645.1,568.435,645.057,568.465,645.01,568.494Zm-10.147-10.956c-1.158-1.2-2.379-2.371-3.628-3.468a1.55,1.55,0,0,1,2.044-2.33c1.315,1.153,2.6,2.382,3.819,3.648a1.549,1.549,0,0,1-.043,2.191,1.5,1.5,0,0,1-.141.119A1.55,1.55,0,0,1,634.863,557.538Zm-10.116-8.4c-1.393-.914-2.843-1.778-4.311-2.57a1.549,1.549,0,1,1,1.471-2.727c1.544.833,3.072,1.743,4.539,2.706a1.551,1.551,0,0,1,.446,2.146,1.584,1.584,0,0,1-.361.386A1.551,1.551,0,0,1,624.747,549.136Zm-11.742-5.929c-1.564-.581-3.171-1.1-4.779-1.541a1.55,1.55,0,0,1,.825-2.988c1.691.467,3.384,1.013,5.031,1.624a1.549,1.549,0,1,1-1.077,2.906Zm-12.768-3.165c-1.65-.217-3.333-.368-5-.445a1.55,1.55,0,1,1,.145-3.1c1.755.081,3.526.24,5.263.469a1.549,1.549,0,1,1-.406,3.072Zm-13.151-.26c-1.659.153-3.333.379-4.974.672a1.55,1.55,0,1,1-.545-3.051c1.728-.309,3.489-.547,5.235-.707a1.549,1.549,0,0,1,.284,3.086ZM538.7,570.943a1.549,1.549,0,0,1-.625-2.1c.834-1.542,1.749-3.068,2.715-4.536a1.549,1.549,0,1,1,2.588,1.7c-.918,1.393-1.786,2.843-2.577,4.308a1.545,1.545,0,0,1-2.1.623Zm35.506-28.5c-1.583.518-3.164,1.111-4.7,1.763a1.55,1.55,0,0,1-1.213-2.854c1.615-.686,3.278-1.311,4.945-1.856a1.55,1.55,0,0,1,1.418,2.708A1.476,1.476,0,0,1,574.211,542.44Zm-28.066,17.23a1.551,1.551,0,0,1-.139-2.188c1.158-1.315,2.389-2.6,3.657-3.814a1.549,1.549,0,1,1,2.143,2.238c-1.205,1.155-2.375,2.374-3.475,3.625a1.575,1.575,0,0,1-.229.212A1.549,1.549,0,0,1,546.144,559.67Zm16.111-11.761c-1.427.859-2.835,1.79-4.186,2.77a1.55,1.55,0,0,1-1.845-2.49l.026-.02c1.422-1.031,2.9-2.012,4.406-2.916a1.549,1.549,0,0,1,1.735,2.562A.981.981,0,0,1,562.255,547.909Z" transform="translate(-533.596 -536.499)" fill="#919191"/>
              <path id="Path_8410" data-name="Path 8410" d="M512.256,798.167a1.538,1.538,0,0,0,.536-.755c.247-.759.515-1.526.794-2.281a1.55,1.55,0,1,0-2.906-1.078c-.295.793-.576,1.6-.837,2.4a1.551,1.551,0,0,0,2.412,1.716Z" transform="translate(-509.767 -753.851)" fill="#919191"/>
            </g>
            <g id="Group_6596" data-name="Group 6596" transform="translate(2.948 76.353)" opacity="0.3">
              <path id="Path_8411" data-name="Path 8411" d="M532.67,1107.011a1.55,1.55,0,0,0,.431-1.963c-.376-.706-.742-1.43-1.091-2.154a1.55,1.55,0,1,0-2.794,1.343c.367.762.753,1.526,1.149,2.269a1.548,1.548,0,0,0,2.305.506Z" transform="translate(-529.062 -1091.976)" fill="#91b3fa"/>
              <path id="Path_8412" data-name="Path 8412" d="M650.242,1128.761a1.55,1.55,0,1,1-1.748-2.56c1.346-.918,2.673-1.91,3.961-2.954a1.55,1.55,0,0,1,1.954,2.408q-.836.678-1.69,1.324C651.909,1127.592,651.075,1128.193,650.242,1128.761Zm8.158-8.792a1.551,1.551,0,0,1-.07-2.191c1.124-1.2,2.209-2.458,3.226-3.743a1.55,1.55,0,1,1,2.431,1.923c-1.071,1.352-2.214,2.678-3.4,3.94a1.624,1.624,0,0,1-.2.177A1.553,1.553,0,0,1,658.4,1119.969Zm-15.441,13.064c-1.543.769-3.141,1.482-4.748,2.119a1.55,1.55,0,0,1-1.143-2.881c1.526-.6,3.043-1.282,4.51-2.012a1.549,1.549,0,1,1,1.381,2.774Zm23.682-23.494a1.55,1.55,0,0,1-.55-2.122c.833-1.415,1.613-2.88,2.324-4.358a1.549,1.549,0,1,1,2.794,1.34c-.747,1.557-1.57,3.1-2.446,4.589a1.55,1.55,0,0,1-2.122.552Zm-36.47,28.176c-1.674.409-3.388.755-5.1,1.022a1.55,1.55,0,1,1-.483-3.061c1.622-.255,3.251-.582,4.841-.972a1.55,1.55,0,0,1,1.3,2.741A1.525,1.525,0,0,1,630.17,1137.716Zm-13.5,1.764c-1.726.033-3.475,0-5.2-.113a1.55,1.55,0,1,1,.2-3.094c1.636.1,3.3.141,4.939.109a1.549,1.549,0,1,1,.061,3.1Zm-13.57-1.221c-1.694-.342-3.393-.761-5.049-1.242a1.549,1.549,0,1,1,.865-2.976c1.574.458,3.187.855,4.8,1.181a1.549,1.549,0,0,1-.613,3.037Zm-12.979-4.152c-1.578-.7-3.144-1.485-4.655-2.321a1.55,1.55,0,0,1,1.5-2.713c1.435.793,2.922,1.534,4.421,2.2a1.55,1.55,0,0,1-1.265,2.831ZM578.36,1127.2c-1.381-1.033-2.736-2.139-4.027-3.286a1.55,1.55,0,0,1,2.059-2.316c1.227,1.091,2.513,2.14,3.825,3.122a1.549,1.549,0,1,1-1.858,2.479Zm-9.942-9.309c-.828-.964-1.635-1.966-2.4-2.977q-.417-.55-.817-1.1a1.532,1.532,0,0,1,.347-2.163,1.55,1.55,0,0,1,2.165.347c.255.352.513.7.777,1.05.729.961,1.5,1.913,2.282,2.831a1.549,1.549,0,0,1-.166,2.184c-.025.021-.049.041-.075.061A1.551,1.551,0,0,1,568.418,1117.893Z" transform="translate(-559.425 -1092.116)" fill="#91b3fa"/>
              <path id="Path_8413" data-name="Path 8413" d="M1263.99,1041.462a1.539,1.539,0,0,0,.539-.762c.257-.8.5-1.618.726-2.437a1.55,1.55,0,0,0-2.988-.822c-.214.776-.446,1.555-.689,2.313a1.55,1.55,0,0,0,2.412,1.708Z" transform="translate(-1149.612 -1036.302)" fill="#91b3fa"/>
            </g>
            <g id="Group_6598" data-name="Group 6598" transform="translate(12.013 14.888)">
              <path id="Path_8414" data-name="Path 8414" d="M681.585,676.947a.726.726,0,0,0-.463-.7l-8.225-3.173a38.392,38.392,0,0,0-4.337-11.66l4.143-7.774a.727.727,0,0,0-.108-.834l-7.2-7.744a.724.724,0,0,0-.823-.17l-8.055,3.569a38.365,38.365,0,0,0-11.315-5.171l-2.57-8.433a.726.726,0,0,0-.666-.513l-10.567-.384a.726.726,0,0,0-.7.463l-3.174,8.223a38.389,38.389,0,0,0-11.661,4.337l-7.774-4.143a.724.724,0,0,0-.834.108l-7.744,7.2a.727.727,0,0,0-.169.823l3.568,8.055a38.369,38.369,0,0,0-5.171,11.315l-8.433,2.57a.727.727,0,0,0-.513.666l-.383,10.567a.722.722,0,0,0,.463.7l8.225,3.174a38.392,38.392,0,0,0,4.337,11.661l-4.143,7.774a.724.724,0,0,0,.108.834l7.2,7.744a.724.724,0,0,0,.823.17l8.055-3.569a38.366,38.366,0,0,0,11.315,5.171l2.57,8.433a.727.727,0,0,0,.666.513l10.567.384a.722.722,0,0,0,.7-.463l3.174-8.225a38.394,38.394,0,0,0,11.661-4.337l7.774,4.143a.727.727,0,0,0,.834-.108l7.744-7.2a.724.724,0,0,0,.17-.823l-3.569-8.055a38.369,38.369,0,0,0,5.171-11.315l8.433-2.569a.727.727,0,0,0,.513-.666Z" transform="translate(-588.407 -633.957)" fill="#d8d8d8"/>
              <g id="Group_6597" data-name="Group 6597" transform="translate(35.955 35.962)">
                <path id="Path_8415" data-name="Path 8415" d="M839.516,889.31a10.622,10.622,0,1,1,1.309-.848A10.643,10.643,0,0,1,839.516,889.31Zm-12.936-11.6a8.15,8.15,0,1,0,3.9-4.864,8.24,8.24,0,0,0-1.014.657A8.08,8.08,0,0,0,826.58,877.712Z" transform="translate(-823.769 -869.366)" fill="#9b9b9b"/>
              </g>
              <path id="Path_8416" data-name="Path 8416" d="M762.719,814.768a26.775,26.775,0,0,0,2.056-1.728h0q.312-.289.614-.59a26.263,26.263,0,0,0,2.728-3.174l.034-.046.095-.131.182-.257a.62.62,0,1,0-1.017-.709,24.922,24.922,0,0,1-26.729,9.847,24.891,24.891,0,1,1,24.526-41.03,25.1,25.1,0,0,1,1.627,1.937,24.8,24.8,0,0,1,4.494,9.827.62.62,0,1,0,1.213-.257,26.054,26.054,0,0,0-4.719-10.316q-.8-1.057-1.706-2.033a26.136,26.136,0,0,0-40.006,33.534,26.822,26.822,0,0,0,1.729,2.059,26.133,26.133,0,0,0,34.879,3.066Z" transform="translate(-700.612 -747.34)" fill="#9b9b9b"/>
            </g>
          </g>
          <g id="Group_6604" data-name="Group 6604" transform="translate(108.631 4.764)">
            <g id="Group_6600" data-name="Group 6600" transform="translate(0.783)" opacity="0.3">
              <path id="Path_8417" data-name="Path 8417" d="M1663.743,727.677a.957.957,0,0,0,.316-1.1c-.289-.759-.6-1.522-.936-2.263a.957.957,0,1,0-1.745.785c.318.707.619,1.433.894,2.157a.958.958,0,0,0,1.234.556A1.015,1.015,0,0,0,1663.743,727.677Z" transform="translate(-1594.795 -699.906)" fill="#91b3fa"/>
              <path id="Path_8418" data-name="Path 8418" d="M1291.627,588.9a.956.956,0,0,1-1.315-.321,39.856,39.856,0,0,0-2.26-3.321q-.255-.337-.519-.669a.959.959,0,0,1,.157-1.344.991.991,0,0,1,1.345.157c.183.232.365.466.542.7a41.73,41.73,0,0,1,2.368,3.482.958.958,0,0,1-.239,1.26C1291.682,588.86,1291.654,588.878,1291.627,588.9Zm-7.334-7.933a39.677,39.677,0,0,0-3.659-3.2.957.957,0,1,1,1.169-1.517,41.831,41.831,0,0,1,3.836,3.353.958.958,0,0,1,.008,1.354,1,1,0,0,1-.1.09A.955.955,0,0,1,1284.293,580.964Zm-7.687-5.921a39.11,39.11,0,0,0-4.334-2.2.958.958,0,0,1,.761-1.758,40.947,40.947,0,0,1,4.545,2.31.957.957,0,0,1-.972,1.65Zm-8.906-3.851a39.553,39.553,0,0,0-4.739-1.074.957.957,0,1,1,.307-1.89,41.891,41.891,0,0,1,4.971,1.126.958.958,0,1,1-.539,1.838Zm-9.577-1.56a39.957,39.957,0,0,0-4.858.109.957.957,0,0,1-.161-1.908,41.642,41.642,0,0,1,5.092-.115.958.958,0,0,1-.073,1.914Zm-9.664.811a39.267,39.267,0,0,0-4.681,1.289.957.957,0,0,1-.622-1.81,41.177,41.177,0,0,1,4.91-1.354.957.957,0,0,1,.775,1.7A.942.942,0,0,1,1248.459,570.443Zm-9.169,3.15a39.407,39.407,0,0,0-4.224,2.4.958.958,0,0,1-1.047-1.6,41.5,41.5,0,0,1,4.43-2.518.957.957,0,0,1,1,1.622A1.057,1.057,0,0,1,1239.29,573.593Zm-12.991,8.715a.956.956,0,0,1-.052-1.352,41.75,41.75,0,0,1,3.177-3.083c.168-.148.338-.293.509-.438a.947.947,0,0,1,1.349.116.957.957,0,0,1-.116,1.349q-.241.2-.481.414a39.759,39.759,0,0,0-3.034,2.942.8.8,0,0,1-.125.113A.958.958,0,0,1,1226.3,582.308Z" transform="translate(-1225.992 -567.686)" fill="#8d8d8d"/>
            </g>
            <g id="Group_6601" data-name="Group 6601" transform="translate(12.589 51.135)" opacity="0.3">
              <path id="Path_8419" data-name="Path 8419" d="M1346.574,963.964a41.7,41.7,0,0,1-4.206,2.724.958.958,0,0,1-.941-1.668,39.325,39.325,0,0,0,4.012-2.6.957.957,0,0,1,1.146,1.534Zm2.5-3.254a.956.956,0,0,1,.041-1.352,40.137,40.137,0,0,0,3.28-3.482.957.957,0,0,1,1.469,1.227,42.124,42.124,0,0,1-3.437,3.648c-.026.024-.052.046-.079.067A.956.956,0,0,1,1349.07,960.71Zm-11.21,8.171a41.628,41.628,0,0,1-4.74,1.627.958.958,0,0,1-.512-1.845,39.806,39.806,0,0,0,4.522-1.551.956.956,0,0,1,.943,1.647A.909.909,0,0,1,1337.86,968.882Zm17.649-15.533a.957.957,0,0,1-.286-1.323,39.269,39.269,0,0,0,2.342-4.169.957.957,0,0,1,1.723.834,41.076,41.076,0,0,1-2.456,4.372,1,1,0,0,1-.226.245A.955.955,0,0,1,1355.509,953.349Zm-27.29,18.2a41.679,41.679,0,0,1-4.992.438.957.957,0,0,1-.052-1.914,39.423,39.423,0,0,0,4.762-.419.958.958,0,0,1,.283,1.894Zm-10,.275a41.55,41.55,0,0,1-4.953-.768.957.957,0,1,1,.406-1.87,40.264,40.264,0,0,0,4.725.732.957.957,0,0,1-.179,1.906Zm-9.778-2.128a41.6,41.6,0,0,1-4.626-1.934.958.958,0,1,1,.845-1.719,38.9,38.9,0,0,0,4.412,1.844.958.958,0,0,1-.631,1.809Z" transform="translate(-1303.278 -940.458)" fill="#8d8d8d"/>
              <path id="Path_8420" data-name="Path 8420" d="M1671.824,906.423a.943.943,0,0,0,.327-.455c.264-.776.506-1.563.719-2.339a.958.958,0,0,0-1.847-.509c-.2.741-.435,1.491-.686,2.232a.958.958,0,0,0,1.486,1.071Z" transform="translate(-1614.22 -902.417)" fill="#91b3fa"/>
            </g>
            <g id="Group_6603" data-name="Group 6603" transform="translate(0 9.925)">
              <path id="Path_8421" data-name="Path 8421" d="M1283.218,661.427a.487.487,0,0,0-.31-.471l-5.5-2.123a25.672,25.672,0,0,0-2.9-7.8l2.773-5.2a.484.484,0,0,0-.073-.558l-4.818-5.182a.485.485,0,0,0-.552-.113l-5.389,2.388a25.665,25.665,0,0,0-7.573-3.46l-1.719-5.643a.484.484,0,0,0-.446-.344l-7.071-.257a.484.484,0,0,0-.469.31l-2.123,5.5a25.658,25.658,0,0,0-7.8,2.9l-5.2-2.773a.481.481,0,0,0-.557.073l-5.182,4.818a.485.485,0,0,0-.113.551l2.388,5.39a25.662,25.662,0,0,0-3.46,7.573l-5.643,1.719a.486.486,0,0,0-.344.446l-.257,7.071a.484.484,0,0,0,.31.469l5.5,2.125a25.666,25.666,0,0,0,2.9,7.8l-2.773,5.2a.482.482,0,0,0,.073.558l4.818,5.182a.485.485,0,0,0,.552.113l5.39-2.388a25.66,25.66,0,0,0,7.573,3.46l1.719,5.643a.486.486,0,0,0,.446.344l7.072.257a.487.487,0,0,0,.47-.31l2.123-5.5a25.672,25.672,0,0,0,7.8-2.9l5.2,2.773a.484.484,0,0,0,.558-.073l5.182-4.818a.485.485,0,0,0,.113-.552l-2.389-5.391a25.7,25.7,0,0,0,3.46-7.573l5.643-1.719a.486.486,0,0,0,.344-.446Z" transform="translate(-1220.868 -632.658)" fill="#d8d8d8"/>
              <g id="Group_6602" data-name="Group 6602" transform="translate(23.936 23.937)">
                <path id="Path_8422" data-name="Path 8422" d="M1388.274,802.936a7.238,7.238,0,1,1,.9-.583A7.1,7.1,0,0,1,1388.274,802.936Zm-8.153-3.785a5.323,5.323,0,0,0,7.23,2.108h0a5.326,5.326,0,0,0-5.124-9.339,5.687,5.687,0,0,0-.657.425A5.337,5.337,0,0,0,1380.121,799.15Z" transform="translate(-1377.552 -789.35)" fill="#929292"/>
              </g>
              <path id="Path_8423" data-name="Path 8423" d="M1334.853,751q.724-.548,1.4-1.179a18.112,18.112,0,0,0,2.424-2.76c.032-.044.063-.09.095-.134a.956.956,0,0,0-.022-1.126.97.97,0,0,0-.217-.208.959.959,0,0,0-1.332.237,16.2,16.2,0,0,1-2.252,2.589h0c-.046.043-.093.086-.139.127a15.945,15.945,0,0,1-6.96,3.721,16.252,16.252,0,0,1-4.316.46.265.265,0,0,1-.035,0l-.11,0a16.116,16.116,0,1,1,12.388-27.079,16.36,16.36,0,0,1,1.053,1.253,16.07,16.07,0,0,1,2.91,6.361.957.957,0,1,0,1.871-.4,18.031,18.031,0,1,0-32.033,14.617c.371.489.768.964,1.193,1.421A18.055,18.055,0,0,0,1334.853,751Z" transform="translate(-1292.952 -705.463)" fill="#929292"/>
            </g>
          </g>
        </g>
        <g id="Group_6627" data-name="Group 6627" transform="translate(0 98.923)">
          <g id="Group_6606" data-name="Group 6606">
            <path id="Path_8424" data-name="Path 8424" d="M1578.614,2595.8l-9.354,64.552h108.524l-14.135-64.552Z" transform="translate(-1396.313 -2367.684)" fill="#8a8a8a"/>
            <path id="Path_8425" data-name="Path 8425" d="M437.15,1123.982v192.134a29.148,29.148,0,0,0,28.4,29.138c70.177,1.81,315.622,6.2,382.426,5.212a21.445,21.445,0,0,0,21.114-20.836c1.288-44.635,3.381-151.969-4.361-201.8a22.07,22.07,0,0,0-21.1-18.68c-58.8-1.881-318.987-7.854-385.76-6.355A21.187,21.187,0,0,0,437.15,1123.982Z" transform="translate(-437.15 -1102.557)" fill="#ebebeb"/>
            <path id="Path_8426" data-name="Path 8426" d="M516.06,1164.449v182.541a16.886,16.886,0,0,0,16.635,16.885l372.519,4.6a16.434,16.434,0,0,0,16.68-16.372l.623-180.911a12.02,12.02,0,0,0-11.728-12.061l-381.39-7.705A13.024,13.024,0,0,0,516.06,1164.449Z" transform="translate(-504.005 -1143.96)" fill="#9b9b9b"/>
            <path id="Path_8427" data-name="Path 8427" d="M921.845,2576.875h-.009L513.2,2569.913a.516.516,0,0,1-.507-.526.522.522,0,0,1,.526-.507l408.639,6.963a.516.516,0,0,1-.009,1.033Z" transform="translate(-501.15 -2344.877)" fill="#ccc"/>
            <path id="Path_8428" data-name="Path 8428" d="M1853.488,2624.006a4.768,4.768,0,1,1,4.768-4.768A4.773,4.773,0,0,1,1853.488,2624.006Zm0-8.5a3.735,3.735,0,1,0,3.735,3.735A3.739,3.739,0,0,0,1853.488,2615.5Z" transform="translate(-1633.081 -2383.502)" fill="#a4a4a4"/>
            <path id="Path_8429" data-name="Path 8429" d="M1513.785,3000.3H1354.952c-4.316,0-7.556-3.072-6.722-6.372l2.038-8.06c.613-2.424,3.28-4.2,6.447-4.3l153.121-4.778c3.309-.1,6.239,1.653,6.96,4.172l3.674,12.838C1521.425,2997.133,1518.17,3000.3,1513.785,3000.3Z" transform="translate(-1208.938 -2690.465)" fill="#4e4e4e"/>
            <path id="Path_8430" data-name="Path 8430" d="M1949.8,3016.109a.516.516,0,0,1-.008-1.033l6.561-.1a.529.529,0,0,1,.524.509.517.517,0,0,1-.509.524l-6.561.1Z" transform="translate(-1718.279 -2722.828)" fill="#fff"/>
            <path id="Path_8431" data-name="Path 8431" d="M1384.587,3029.554a.494.494,0,0,1-.083-.006.518.518,0,0,1-.429-.591l.937-5.863a6.538,6.538,0,0,1,6.372-5.517l69.594-1.018h.008a.516.516,0,0,1,.008,1.033l-69.594,1.017a5.508,5.508,0,0,0-5.367,4.646l-.937,5.863A.515.515,0,0,1,1384.587,3029.554Z" transform="translate(-1239.412 -2724.167)" fill="#fff"/>
          </g>
          <g id="Group_6608" data-name="Group 6608" transform="translate(218.865 33.248)">
            <g id="Group_6607" data-name="Group 6607" opacity="0.53">
              <rect id="Rectangle_735" data-name="Rectangle 735" width="9.798" height="172.817" fill="#fff"/>
              <rect id="Rectangle_736" data-name="Rectangle 736" width="9.798" height="172.817" transform="translate(16.372)" fill="#fff"/>
              <rect id="Rectangle_737" data-name="Rectangle 737" width="9.798" height="172.817" transform="translate(32.742)" fill="#fff"/>
              <rect id="Rectangle_738" data-name="Rectangle 738" width="9.798" height="172.817" transform="translate(49.114)" fill="#fff"/>
              <rect id="Rectangle_739" data-name="Rectangle 739" width="9.798" height="172.817" transform="translate(65.486)" fill="#fff"/>
              <rect id="Rectangle_740" data-name="Rectangle 740" width="9.798" height="172.817" transform="translate(81.856)" fill="#fff"/>
              <rect id="Rectangle_741" data-name="Rectangle 741" width="9.798" height="172.817" transform="translate(98.228)" fill="#fff"/>
            </g>
            <rect id="Rectangle_742" data-name="Rectangle 742" width="9.798" height="90.442" transform="translate(0 82.376)" fill="#757575"/>
            <rect id="Rectangle_743" data-name="Rectangle 743" width="9.798" height="59.358" transform="translate(16.372 113.459)" fill="#757575"/>
            <rect id="Rectangle_744" data-name="Rectangle 744" width="9.798" height="136.179" transform="translate(32.742 36.638)" fill="#757575"/>
            <rect id="Rectangle_745" data-name="Rectangle 745" width="9.798" height="32.716" transform="translate(49.114 140.102)" fill="#757575"/>
            <rect id="Rectangle_746" data-name="Rectangle 746" width="9.798" height="117.973" transform="translate(65.486 54.844)" fill="#757575"/>
            <rect id="Rectangle_747" data-name="Rectangle 747" width="9.798" height="97.547" transform="translate(81.856 75.27)" fill="#757575"/>
            <rect id="Rectangle_748" data-name="Rectangle 748" width="9.798" height="75.344" transform="translate(98.228 97.473)" fill="#757575"/>
          </g>
          <g id="Group_6618" data-name="Group 6618" transform="translate(33.466 25.352)">
            <g id="Group_6611" data-name="Group 6611">
              <g id="Group_6610" data-name="Group 6610">
                <path id="Path_8432" data-name="Path 8432" d="M680.022,1268.51a23.8,23.8,0,1,0,23.8,23.8A23.8,23.8,0,0,0,680.022,1268.51Zm0,37.363a13.561,13.561,0,1,1,13.561-13.561A13.56,13.56,0,0,1,680.022,1305.873Z" transform="translate(-656.22 -1268.51)" fill="#fff" opacity="0.57"/>
                <g id="Group_6609" data-name="Group 6609" clip-path="url(#clip-path)">
                  <rect id="Rectangle_749" data-name="Rectangle 749" width="70.706" height="29.922" transform="translate(-9.436 18.567)" fill="#5a5a5a"/>
                </g>
              </g>
            </g>
            <g id="Group_6614" data-name="Group 6614" transform="translate(58.025)">
              <g id="Group_6613" data-name="Group 6613">
                <path id="Path_8434" data-name="Path 8434" d="M1059.852,1268.51a23.8,23.8,0,1,0,23.8,23.8A23.8,23.8,0,0,0,1059.852,1268.51Zm0,37.363a13.561,13.561,0,1,1,13.561-13.561A13.56,13.56,0,0,1,1059.852,1305.873Z" transform="translate(-1036.05 -1268.51)" fill="#fff" opacity="0.57"/>
                <g id="Group_6612" data-name="Group 6612" clip-path="url(#clip-path-2)">
                  <rect id="Rectangle_750" data-name="Rectangle 750" width="70.706" height="41.488" transform="translate(-9.438 7.003)" fill="#979797"/>
                </g>
              </g>
            </g>
            <g id="Group_6617" data-name="Group 6617" transform="translate(116.048)">
              <g id="Group_6616" data-name="Group 6616">
                <path id="Path_8436" data-name="Path 8436" d="M1439.672,1268.51a23.8,23.8,0,1,0,23.8,23.8A23.8,23.8,0,0,0,1439.672,1268.51Zm0,37.363a13.561,13.561,0,1,1,13.561-13.561A13.56,13.56,0,0,1,1439.672,1305.873Z" transform="translate(-1415.87 -1268.51)" fill="#fff" opacity="0.57"/>
                <g id="Group_6615" data-name="Group 6615" clip-path="url(#clip-path-3)">
                  <rect id="Rectangle_751" data-name="Rectangle 751" width="70.706" height="14.96" transform="translate(-9.438 33.529)" fill="#acacac"/>
                </g>
              </g>
            </g>
          </g>
          <g id="Group_6619" data-name="Group 6619" transform="translate(33.468 116.461)">
            <path id="Path_8438" data-name="Path 8438" d="M814.357,1955.47l-152.686-1.147a5.482,5.482,0,0,1-5.442-5.482v-78.448a5.483,5.483,0,0,1,5.483-5.483H814.4a5.483,5.483,0,0,1,5.483,5.483v79.6A5.484,5.484,0,0,1,814.357,1955.47Z" transform="translate(-656.23 -1864.91)" fill="#fff" opacity="0.44"/>
            <path id="Path_8439" data-name="Path 8439" d="M822.411,1981.638l-19.633-20.758-28.152,30.62-19.864-21.435-18.63,21.06-14.287-17.357-28.156,29.314v21.2a5.1,5.1,0,0,0,5.061,5.1l142.009,1.066a5.1,5.1,0,0,0,5.138-5.1V1967.68Z" transform="translate(-687.967 -1946.219)" fill="#fff" opacity="0.44"/>
            <rect id="Rectangle_752" data-name="Rectangle 752" width="0.516" height="49.386" transform="translate(134.565 34.843)" fill="#8e8e8e"/>
            <rect id="Rectangle_753" data-name="Rectangle 753" width="0.516" height="69.282" transform="translate(114.552 14.661)" fill="#3a3a3a"/>
            <rect id="Rectangle_754" data-name="Rectangle 754" width="0.516" height="38.824" transform="translate(86.399 44.907)" fill="#3a3a3a"/>
            <rect id="Rectangle_755" data-name="Rectangle 755" width="0.516" height="59.125" transform="translate(67.064 24.606)" fill="#3a3a3a"/>
            <rect id="Rectangle_756" data-name="Rectangle 756" width="0.516" height="39.453" transform="translate(47.906 44.277)" fill="#3a3a3a"/>
            <rect id="Rectangle_757" data-name="Rectangle 757" width="0.516" height="57.275" transform="translate(33.922 26.079)" fill="#3a3a3a"/>
            <circle id="Ellipse_322" data-name="Ellipse 322" cx="4.314" cy="4.314" r="4.314" transform="translate(29.866 21.764)" fill="#3a3a3a"/>
            <path id="Path_8440" data-name="Path 8440" d="M958.593,2138.991a2.841,2.841,0,1,1-2.842-2.841A2.842,2.842,0,0,1,958.593,2138.991Z" transform="translate(-907.588 -2094.714)" fill="#3a3a3a"/>
            <path id="Path_8441" data-name="Path 8441" d="M1084,2010.221a2.841,2.841,0,1,1-2.841-2.841A2.842,2.842,0,0,1,1084,2010.221Z" transform="translate(-1013.839 -1985.616)" fill="#3a3a3a"/>
            <path id="Path_8442" data-name="Path 8442" d="M1210.583,2143.112a2.841,2.841,0,1,1-2.842-2.842A2.842,2.842,0,0,1,1210.583,2143.112Z" transform="translate(-1121.082 -2098.204)" fill="#3a3a3a"/>
            <path id="Path_8443" data-name="Path 8443" d="M1394.863,1945.121a2.841,2.841,0,1,1-2.841-2.842A2.842,2.842,0,0,1,1394.863,1945.121Z" transform="translate(-1277.211 -1930.46)" fill="#3a3a3a"/>
            <path id="Path_8444" data-name="Path 8444" d="M1525.863,2077.231a2.841,2.841,0,1,1-2.841-2.842A2.842,2.842,0,0,1,1525.863,2077.231Z" transform="translate(-1388.198 -2042.389)" fill="#3a3a3a"/>
          </g>
          <g id="Group_6620" data-name="Group 6620" transform="translate(32.56 83.849)" opacity="0.48">
            <path id="Path_8445" data-name="Path 8445" d="M695.314,1779.42H653.46c-1.751,0-3.17.989-3.17,2.208s1.419,2.207,3.17,2.207h41.856c1.751,0,3.17-.988,3.17-2.207S697.067,1779.42,695.314,1779.42Z" transform="translate(-650.29 -1759.868)" fill="#fff"/>
            <path id="Path_8446" data-name="Path 8446" d="M695.314,1715.42H653.46c-1.751,0-3.17.988-3.17,2.208s1.419,2.207,3.17,2.207h41.856c1.751,0,3.17-.988,3.17-2.207S697.067,1715.42,695.314,1715.42Z" transform="translate(-650.29 -1705.644)" fill="#fff"/>
            <path id="Path_8447" data-name="Path 8447" d="M695.314,1651.43H653.46c-1.751,0-3.17.988-3.17,2.208s1.419,2.207,3.17,2.207h41.856c1.751,0,3.17-.988,3.17-2.207S697.067,1651.43,695.314,1651.43Z" transform="translate(-650.29 -1651.43)" fill="#fff"/>
          </g>
          <g id="Group_6621" data-name="Group 6621" transform="translate(90.743 83.849)" opacity="0.48">
            <path id="Path_8448" data-name="Path 8448" d="M1076.174,1779.42H1034.32c-1.751,0-3.17.989-3.17,2.208s1.419,2.207,3.17,2.207h41.856c1.751,0,3.17-.988,3.17-2.207S1077.925,1779.42,1076.174,1779.42Z" transform="translate(-1031.15 -1759.868)" fill="#fff"/>
            <path id="Path_8449" data-name="Path 8449" d="M1076.174,1715.42H1034.32c-1.751,0-3.17.988-3.17,2.208s1.419,2.207,3.17,2.207h41.856c1.751,0,3.17-.988,3.17-2.207S1077.925,1715.42,1076.174,1715.42Z" transform="translate(-1031.15 -1705.644)" fill="#fff"/>
            <path id="Path_8450" data-name="Path 8450" d="M1076.174,1651.43H1034.32c-1.751,0-3.17.988-3.17,2.208s1.419,2.207,3.17,2.207h41.856c1.751,0,3.17-.988,3.17-2.207S1077.925,1651.43,1076.174,1651.43Z" transform="translate(-1031.15 -1651.43)" fill="#fff"/>
          </g>
          <g id="Group_6622" data-name="Group 6622" transform="translate(148.923 83.849)" opacity="0.48">
            <path id="Path_8451" data-name="Path 8451" d="M1457.026,1779.42H1415.17c-1.751,0-3.17.989-3.17,2.208s1.419,2.207,3.17,2.207h41.856c1.75,0,3.17-.988,3.17-2.207S1458.777,1779.42,1457.026,1779.42Z" transform="translate(-1412 -1759.868)" fill="#fff"/>
            <path id="Path_8452" data-name="Path 8452" d="M1457.026,1715.42H1415.17c-1.751,0-3.17.988-3.17,2.208s1.419,2.207,3.17,2.207h41.856c1.75,0,3.17-.988,3.17-2.207S1458.777,1715.42,1457.026,1715.42Z" transform="translate(-1412 -1705.644)" fill="#fff"/>
            <path id="Path_8453" data-name="Path 8453" d="M1457.026,1651.43H1415.17c-1.751,0-3.17.988-3.17,2.208s1.419,2.207,3.17,2.207h41.856c1.75,0,3.17-.988,3.17-2.207S1458.777,1651.43,1457.026,1651.43Z" transform="translate(-1412 -1651.43)" fill="#fff"/>
          </g>
          <g id="Group_6626" data-name="Group 6626" transform="translate(343.711 30.974)">
            <g id="Group_6623" data-name="Group 6623" transform="translate(7.959 62.247)">
              <circle id="Ellipse_323" data-name="Ellipse 323" cx="19.368" cy="19.368" r="19.368" fill="#6b6b6b"/>
              <path id="Path_8454" data-name="Path 8454" d="M2791,1752.5a12.44,12.44,0,1,1-11.508-7.713c.211,0,.42.006.628.015v-3.153c-.208-.008-.417-.014-.628-.014a15.58,15.58,0,1,0,14.4,9.608Z" transform="translate(-2760.123 -1737.231)" fill="#d9d9d9"/>
              <path id="Path_8455" data-name="Path 8455" d="M2775.236,2020.03h-31.56a3.587,3.587,0,1,0,0,7.174h31.56a3.587,3.587,0,1,0,0-7.174Z" transform="translate(-2739.951 -1973.093)" fill="#fff" opacity="0.5"/>
            </g>
            <g id="Group_6624" data-name="Group 6624" transform="translate(7.876)">
              <circle id="Ellipse_324" data-name="Ellipse 324" cx="19.368" cy="19.368" r="19.368" fill="#8e8e8e"/>
              <path id="Path_8456" data-name="Path 8456" d="M2785.28,1360.295a12.439,12.439,0,1,1-6.628-22.964c.211,0,.42.006.628.015v-3.153c-.207-.008-.417-.014-.628-.014a15.591,15.591,0,1,0,8.191,28.859Z" transform="translate(-2759.329 -1329.769)" fill="#dcdcdc"/>
              <path id="Path_8457" data-name="Path 8457" d="M2775.777,1612.56h-31.56a3.587,3.587,0,1,0,0,7.174h31.56a3.587,3.587,0,0,0,0-7.174Z" transform="translate(-2740.326 -1565.623)" fill="#fff" opacity="0.5"/>
            </g>
            <g id="Group_6625" data-name="Group 6625" transform="translate(0 116.79)">
              <circle id="Ellipse_325" data-name="Ellipse 325" cx="19.368" cy="19.368" r="19.368" transform="translate(0 27.39) rotate(-45)" fill="#fff" opacity="0.91"/>
              <path id="Path_8458" data-name="Path 8458" d="M2791.928,2169.635a12.439,12.439,0,1,1-10.287-19.433c.211,0,.42.006.628.015v-3.153c-.208-.008-.417-.014-.628-.014a15.591,15.591,0,1,0,12.841,24.435Z" transform="translate(-2753.987 -2135.251)" fill="url(#linear-gradient)"/>
              <path id="Path_8459" data-name="Path 8459" d="M2743.227,2432.6h31.56a3.587,3.587,0,1,0,0-7.174h-31.56a3.587,3.587,0,1,0,0,7.174Z" transform="translate(-2731.611 -2371.104)" fill="#fff" opacity="0.5"/>
            </g>
          </g>
        </g>
        <g id="Group_6632" data-name="Group 6632" transform="translate(304.274 186.957)">
          <path id="Path_8460" data-name="Path 8460" d="M2759.247,3163.3s.835,4.732,1.245,9.417a3.227,3.227,0,0,1-3.087,3.5c-6.238.26-19.58.765-24.368.552a1.051,1.051,0,0,1-.924-1.439,2.351,2.351,0,0,1,1.2-1.267l22.04-10.13Z" transform="translate(-2685.734 -2936.524)" fill="#393939"/>
          <path id="Path_8461" data-name="Path 8461" d="M2874.869,3140.254l-.672,5.659s-3.861,1.8-6.5-.226l1.6-6.308Z" transform="translate(-2800.671 -2916.259)" fill="url(#linear-gradient-2)"/>
          <path id="Path_8462" data-name="Path 8462" d="M2876.936,2448.543c.29,1.479,1.557,73.758-6.169,106.149a1.1,1.1,0,0,0,.644,1.278,19.118,19.118,0,0,0,6.292,1.279,1.9,1.9,0,0,0,1.879-1.359c2.209-7.515,12.791-45.168,14.172-81.137,1.543-40.193,0-1.369,0-1.369l-.9-24.844Z" transform="translate(-2803.243 -2330.956)" fill="#616161"/>
          <path id="Path_8463" data-name="Path 8463" d="M3027.066,3179.46s1.33,2.389,2.618,8.737a1.97,1.97,0,0,1-1.732,2.359c-2.059.2-5.231.463-7.77.446a1.962,1.962,0,0,1-1.943-2.189,16.556,16.556,0,0,1,3.865-9.081Z" transform="translate(-2928.2 -2950.216)" fill="#393939"/>
          <path id="Path_8464" data-name="Path 8464" d="M3049.42,3129.961l-1.569,8.559s-1.552,1.153-4.621.318l.749-9.208Z" transform="translate(-2949.386 -2907.999)" fill="url(#linear-gradient-3)"/>
          <path id="Path_8465" data-name="Path 8465" d="M2938.35,2440.9c6.318,38.135-1.37,94.255-3.964,105.238a1.713,1.713,0,0,1-1.382,1.3,11.5,11.5,0,0,1-4.942-.2,1.571,1.571,0,0,1-1.129-1.446c-.348-8.88.278-63.4-5.61-84.94a4.887,4.887,0,0,0-1.888-2.7l-11.429-8.124-.876-13.132Z" transform="translate(-2834.077 -2321.093)" fill="#616161"/>
          <g id="Group_6628" data-name="Group 6628" transform="translate(8.074 18.22)">
            <path id="Path_8466" data-name="Path 8466" d="M2696.317,1972.9c18.937-.313,39.831,4.973,39.831,4.973,5.645,32.936.987,70.926.987,70.926-14.661,3.845-31.2-2.351-31.2-2.351-2.437-13.767-13.806-52.51-13.806-52.51a62.4,62.4,0,0,1-23.152-7.346c4.788-5.55,7.046-12.612,8.025-16.786A63.563,63.563,0,0,0,2696.317,1972.9Z" transform="translate(-2640.382 -1943.578)" fill="#fff"/>
            <path id="Path_8467" data-name="Path 8467" d="M2481.78,1799.53a3.622,3.622,0,0,1,4.215-1.184c2.786,11.771,17.4,21.315,32.411,25.98-.98,4.175-3.237,11.236-8.025,16.786C2485.466,1827.1,2481.78,1799.53,2481.78,1799.53Z" transform="translate(-2481.78 -1798.095)" fill="url(#linear-gradient-4)"/>
          </g>
          <g id="Group_6629" data-name="Group 6629">
            <path id="Path_8468" data-name="Path 8468" d="M2437.454,1699.056c-.194.619,2.059,1.561,3.386-.97.046-1.213.784-6.41.059-7.4-3.86-5.263-11.344-11.859-11.344-11.859a1.782,1.782,0,0,0-.223,2.475l3.631,3.782a17.628,17.628,0,0,0-2.12,4.19,5.084,5.084,0,0,0,.507,3.744c.637,1.149,1.506,2.641,2.328,3.808A5.027,5.027,0,0,0,2437.454,1699.056Z" transform="translate(-2428.929 -1678.83)" fill="url(#linear-gradient-5)"/>
            <path id="Path_8469" data-name="Path 8469" d="M2461.675,1735.84l3.309,2.8,1.039,2.792-2.95,3.272s-.991-5.541-1.73-6.74S2460.989,1736.189,2461.675,1735.84Z" transform="translate(-2456.053 -1727.131)" fill="url(#linear-gradient-6)"/>
          </g>
          <path id="Path_8470" data-name="Path 8470" d="M3061.12,2040.956l7.264-18.336s17.688,12.018,20.6,27.256a41.841,41.841,0,0,0-15.375,4.122C3072.3,2046.8,3061.12,2040.956,3061.12,2040.956Z" transform="translate(-2964.543 -1970.1)" fill="#f5f5f5"/>
          <path id="Path_8471" data-name="Path 8471" d="M2945.359,2209.365s19.859,11.223,26.56,1.639a7.532,7.532,0,0,0,1.381-5.852,41.838,41.838,0,0,1,15.375-4.122,21.028,21.028,0,0,1-2.285,14.416c-11.737,21.471-43.66-1.187-43.66-1.187Z" transform="translate(-2864.239 -2121.256)" fill="url(#linear-gradient-7)"/>
          <g id="Group_6630" data-name="Group 6630" transform="translate(33.893 57.636)">
            <path id="Path_8472" data-name="Path 8472" d="M2700.407,2121.189l-10.839-37.849a1.1,1.1,0,0,0-.934-.794c-1.963-.229-7.653-.873-14.224-1.428-7.913-.669-17.1-1.211-22.6-.75a1.108,1.108,0,0,0-.906,1.594c3.122,6.318,15.969,32.018,22.4,40.437a1.105,1.105,0,0,0,.894.438l25.147-.234A1.11,1.11,0,0,0,2700.407,2121.189Z" transform="translate(-2650.794 -2076.517)" fill="#343434"/>
            <path id="Path_8473" data-name="Path 8473" d="M2750.8,2057.434l-7.858-1.309a.564.564,0,0,0-.628.733l.777,2.357a.565.565,0,0,0,.462.382l7.562,1.01a.564.564,0,0,0,.623-.688l-.481-2.057A.566.566,0,0,0,2750.8,2057.434Z" transform="translate(-2728.312 -2056.117)" fill="#7d7d7d"/>
            <path id="Path_8474" data-name="Path 8474" d="M2736.361,2077.156l-.647-3.371a.779.779,0,0,0-.687-.628l-15.871-1.61a.78.78,0,0,0-.837.958l1.01,4.2a.778.778,0,0,0,.718.6l15.51.78A.781.781,0,0,0,2736.361,2077.156Z" transform="translate(-2707.984 -2069.186)" fill="#6e6e6e"/>
            <path id="Path_8475" data-name="Path 8475" d="M2884.124,2217.1s1.509-6.209.9-8.411-1.789-5.035-5.723-4.406a57.474,57.474,0,0,0-8.573,2.287,2.251,2.251,0,0,0,3.223,1.943l-1.853,1.435s.265,2.3,2.79,1.069l-1.725,1.9a2.01,2.01,0,0,0,2.942.677C2877.966,2212.388,2878.857,2217.849,2884.124,2217.1Z" transform="translate(-2837.131 -2181.575)" fill="url(#linear-gradient-8)"/>
          </g>
          <path id="Path_8476" data-name="Path 8476" d="M2905.474,1889.44l6.025,17.424a.629.629,0,0,1-.286.756c-1.642.908-7.561,3.533-14.691-.988a2.955,2.955,0,0,1-1.361-2.111l-1.951-15.081Z" transform="translate(-2822.284 -1857.266)" fill="url(#linear-gradient-9)"/>
          <g id="Group_6631" data-name="Group 6631" transform="translate(61.974 5.38)">
            <path id="Path_8477" data-name="Path 8477" d="M2852.783,1765.526c-.182.252-5.843,19.988-5.843,19.988l11.338,2.994,8.146-17.909S2855.822,1761.307,2852.783,1765.526Z" transform="translate(-2845.056 -1756.731)" fill="url(#linear-gradient-10)"/>
            <path id="Path_8478" data-name="Path 8478" d="M2851.471,1729.237a1.686,1.686,0,0,1,.157,1.477l-3.5,9.623a1.648,1.648,0,0,1-.215.408c-.5.692-2.287,2.766-4.356.814-1.763-1.665-3.405-3.17-4.942-3.624a1.683,1.683,0,0,0-2.088,1.167,63.047,63.047,0,0,0-1.911,9.08,1.677,1.677,0,0,0,1.349,1.833,46.726,46.726,0,0,0,10.492.97,1.681,1.681,0,0,0,1.434-.969c1.163-2.478,4.452-9.407,5.68-11.22,1.143-1.685,3.857-1.661,5.1-1.551a1.7,1.7,0,0,0,1.288-.429c1.055-.952,2.791-3.147.3-5.81a1.687,1.687,0,0,1,.077-2.348,3.727,3.727,0,0,0,.4-5.463,5.254,5.254,0,0,0-6.115-1.651,1.753,1.753,0,0,1-2-.652,1.116,1.116,0,0,0-.983-.507,1.635,1.635,0,0,1-1.665-1.633,4.315,4.315,0,0,0-3.306-4.394c-4.95-1.592-8.091,3.176-8.432,6.753s5.125,5,8.349,4.784C2848.951,1725.742,2850.706,1728.018,2851.471,1729.237Z" transform="translate(-2834.607 -1714.044)"/>
            <path id="Path_8479" data-name="Path 8479" d="M2950.09,1863.151s.86-6.205,3.448-6.486,5.084,1.867,2.481,5.331C2952.781,1866.3,2950.09,1863.151,2950.09,1863.151Z" transform="translate(-2932.448 -1834.857)" fill="url(#linear-gradient-11)"/>
          </g>
        </g>
      </g>
    </g>
  </g>
</svg>
