<svg xmlns="http://www.w3.org/2000/svg" width="43.2" height="36.598" viewBox="0 0 43.2 36.598">
  <path id="Simplify_Sales_and_Marketing" data-name="Simplify Sales and Marketing" d="M10.792,61.631l1.655.571a3.649,3.649,0,0,1,.086,6.865,1.356,1.356,0,1,1-2.71,0A3.653,3.653,0,0,1,7.45,65.65a1.355,1.355,0,0,1,2.71,0,.939.939,0,0,0,.937.937h.16a.938.938,0,0,0,.306-1.824l-1.655-.571a3.649,3.649,0,0,1-.086-6.865,1.356,1.356,0,1,1,2.71,0A3.653,3.653,0,0,1,14.9,60.745a1.355,1.355,0,0,1-2.71,0,.939.939,0,0,0-.937-.937H11.1a.938.938,0,0,0-.306,1.824ZM22.355,63.2A11.177,11.177,0,1,1,11.177,52.02,11.19,11.19,0,0,1,22.355,63.2Zm-2.71,0a8.468,8.468,0,1,0-8.468,8.468A8.477,8.477,0,0,0,19.645,63.2Zm21,8.468h-.931V49.31a1.355,1.355,0,0,0-2.71,0V71.665H30.145V54.73a1.355,1.355,0,1,0-2.71,0V71.665H21.677a1.355,1.355,0,0,0,0,2.71H40.645a1.355,1.355,0,0,0,0-2.71ZM20.857,53.571,25.7,48.728l2.133,2.133a1.355,1.355,0,0,0,1.916,0L37,43.605v.624a1.355,1.355,0,0,0,2.71,0c0-4.3.006-3.935-.015-4.086a1.354,1.354,0,0,0-.822-1.061c-.335-.139-.231-.1-4.413-.1a1.355,1.355,0,0,0,0,2.71h.624l-6.3,6.3-2.133-2.133a1.355,1.355,0,0,0-1.916,0l-5.8,5.8a1.355,1.355,0,0,0,1.916,1.916Z" transform="translate(0.6 -38.377)" fill="#fff" stroke="#000" stroke-width="1.2"/>
</svg>
