<svg xmlns="http://www.w3.org/2000/svg" xmlns:xlink="http://www.w3.org/1999/xlink" width="411.899" height="409.499" viewBox="0 0 411.899 409.499">
  <defs>
    <linearGradient id="linear-gradient" x1="-0.205" y1="-0.289" x2="-0.965" y2="-1.206" gradientUnits="objectBoundingBox">
      <stop offset="0" stop-color="#fff"/>
      <stop offset="1" stop-color="#efeff4"/>
    </linearGradient>
    <linearGradient id="linear-gradient-2" x1="0.695" y1="-0.695" x2="0.517" y2="0.198" xlink:href="#linear-gradient"/>
    <linearGradient id="linear-gradient-3" x1="0.133" y1="-0.699" x2="0.281" y2="-0.256" xlink:href="#linear-gradient"/>
    <linearGradient id="linear-gradient-4" x1="0.551" y1="1.252" x2="0.318" y2="-0.655" xlink:href="#linear-gradient"/>
    <linearGradient id="linear-gradient-5" x1="0.805" y1="0.064" x2="1.47" y2="-0.899" xlink:href="#linear-gradient"/>
    <linearGradient id="linear-gradient-6" x1="1.605" y1="-0.923" x2="4.347" y2="-4.403" xlink:href="#linear-gradient"/>
    <linearGradient id="linear-gradient-7" x1="1.485" y1="0.367" x2="2.479" y2="0.172" xlink:href="#linear-gradient"/>
    <linearGradient id="linear-gradient-8" x1="4.56" y1="0.001" x2="7.26" y2="-0.354" xlink:href="#linear-gradient"/>
    <linearGradient id="linear-gradient-9" x1="-0.093" y1="0.07" x2="-2.401" y2="-1.19" xlink:href="#linear-gradient"/>
  </defs>
  <g id="Access_Projects_Anytime_" data-name="Access Projects Anytime " transform="translate(-52.743 -53.601)">
    <g id="Illustration" transform="translate(52.743 53.601)">
      <g id="Group_6960" data-name="Group 6960">
        <path id="Path_9289" data-name="Path 9289" d="M700.017,696.772A146.094,146.094,0,0,1,677.66,715.6c-72.936,52.331-159.237,37.076-177.578,33.353-27.085-5.5-79.439-16.134-117.289-60.646-57.265-67.344-48.348-173.44-3.929-243.476,8.125-12.811,51.042-83.914,138.275-95.317,52.792-6.9,114.329,7.017,158.893,44.354C769.571,472.232,762.912,630.556,700.017,696.772Z" transform="translate(-339.758 -344.941)" fill="#f1f1f1"/>
        <g id="Group_6902" data-name="Group 6902" transform="translate(0 15.998)">
          <path id="Path_9290" data-name="Path 9290" d="M347,467.06l-9.286.6a8.624,8.624,0,0,0-8.067,8.749L333.3,696.868a9.05,9.05,0,0,0,9.257,8.9l63.79-1.481Z" transform="translate(-329.645 -453.508)" fill="#a8abb2"/>
          <path id="Path_9291" data-name="Path 9291" d="M481.371,447.955l-117.782-5.471a4.177,4.177,0,0,0-4.368,4.314l7.691,227.165a8.731,8.731,0,0,0,9.094,8.429l82.771-3.482Z" transform="translate(-352.601 -434.428)" fill="#c6c9d3"/>
          <path id="Path_9292" data-name="Path 9292" d="M500.52,443.052,396.912,430.028a4.389,4.389,0,0,0-4.936,4.462l5.467,229.123a6.07,6.07,0,0,0,5.9,5.923l76.209,2.086Z" transform="translate(-378.027 -424.736)" fill="#e8e8ef"/>
          <path id="Path_9293" data-name="Path 9293" d="M568.472,413.373,454.9,406.517a9.831,9.831,0,0,0-10.425,9.832l.439,233.984a8.592,8.592,0,0,0,8.608,8.575l104.7-.2a9.294,9.294,0,0,0,9.266-8.814l11.67-224.57A11.388,11.388,0,0,0,568.472,413.373Z" transform="translate(-418.775 -406.498)" fill="#cbcbcb"/>
          <path id="Path_9294" data-name="Path 9294" d="M409.969,576.239l8.282-.016a4.686,4.686,0,0,0,4.677-4.695l-.114-60.452a4.686,4.686,0,0,0-4.695-4.677l-8.282.016a4.686,4.686,0,0,0-4.677,4.695l.114,60.452A4.687,4.687,0,0,0,409.969,576.239Z" transform="translate(-388.262 -484.045)" fill="#a8abb2"/>
        </g>
        <g id="Group_6903" data-name="Group 6903" transform="translate(44.181 36.795)">
          <path id="Path_9295" data-name="Path 9295" d="M544.439,560l-9.287.6a8.624,8.624,0,0,0-8.067,8.75l3.656,220.459a9.05,9.05,0,0,0,9.257,8.9l63.79-1.481Z" transform="translate(-527.085 -546.448)" fill="#535353"/>
          <path id="Path_9296" data-name="Path 9296" d="M678.821,540.887,561.04,535.414a4.176,4.176,0,0,0-4.368,4.314l7.691,227.165a8.731,8.731,0,0,0,9.094,8.429l82.771-3.482Z" transform="translate(-550.049 -527.36)" fill="#d7d9e0"/>
          <path id="Path_9297" data-name="Path 9297" d="M697.96,535.991,594.352,522.968a4.389,4.389,0,0,0-4.936,4.462l5.467,229.123a6.07,6.07,0,0,0,5.9,5.923l76.21,2.086Z" transform="translate(-575.467 -517.675)" fill="#fff"/>
          <path id="Path_9298" data-name="Path 9298" d="M765.912,506.313l-113.577-6.856a9.831,9.831,0,0,0-10.426,9.832l.439,233.984a8.592,8.592,0,0,0,8.609,8.575l104.7-.2a9.294,9.294,0,0,0,9.266-8.814L776.6,518.267A11.387,11.387,0,0,0,765.912,506.313Z" transform="translate(-616.215 -499.438)" fill="#020202"/>
          <path id="Path_9299" data-name="Path 9299" d="M607.409,669.169l8.282-.016a4.686,4.686,0,0,0,4.677-4.695l-.114-60.452a4.686,4.686,0,0,0-4.695-4.677l-8.282.016a4.686,4.686,0,0,0-4.677,4.695l.114,60.452A4.684,4.684,0,0,0,607.409,669.169Z" transform="translate(-585.702 -576.977)" fill="#707070"/>
        </g>
        <g id="Group_6904" data-name="Group 6904" transform="translate(203.091)">
          <path id="Path_9300" data-name="Path 9300" d="M1380.349,338.611a2.769,2.769,0,0,0-4.3-3.046c-21.845,16.29-75.574,66.4-74.782,164.742.994,123.38-29.4,164.9-64.036,188.4,0,0,44.783-7.812,77.17-49.771C1393.914,535.919,1365.643,384,1380.349,338.611Z" transform="translate(-1237.23 -335.005)" fill="#ebebeb"/>
          <path id="Path_9301" data-name="Path 9301" d="M1414.176,510.157c-4.01,13.267-7.754,26.606-11.007,40.064q-4.984,20.156-8.723,40.572c-2.435,13.612-4.614,27.266-6.21,40.995-1.658,13.719-2.723,27.495-3.746,41.33-1.1,13.82-2.128,27.75-4.585,41.617a140.549,140.549,0,0,1-13.1,40.218c-1.629,3.142-3.323,6.266-5.185,9.26-1.806,3.03-3.746,5.979-5.74,8.893a145.746,145.746,0,0,1-46.1,43.089,2.679,2.679,0,0,1-2.828-4.549l.009,0c2.88-1.844,5.735-3.721,8.5-5.717,1.4-.976,2.748-2.012,4.117-3.023,1.329-1.061,2.7-2.07,4-3.171a141.128,141.128,0,0,0,14.78-14.015,154.781,154.781,0,0,0,23.194-33.434,134.682,134.682,0,0,0,7.787-18.77,153.057,153.057,0,0,0,4.977-19.792c2.491-13.446,3.623-27.226,4.82-41.037,1.217-13.813,2.533-27.687,4.419-41.485q1.386-10.352,3.144-20.643c.566-3.433,1.2-6.856,1.824-10.278q.987-5.126,2.041-10.235,4.27-20.431,9.79-40.552c3.748-13.388,7.848-26.671,12.455-39.773a.717.717,0,0,1,1.365.441Z" transform="translate(-1290.397 -470.248)" fill="#fff"/>
        </g>
        <g id="Group_6906" data-name="Group 6906" transform="translate(266.355 42.185)">
          <g id="Group_6905" data-name="Group 6905">
            <path id="Path_9302" data-name="Path 9302" d="M1521.531,785.8a6.394,6.394,0,0,0,9.383,4.966c22.106-11.793,81.594-50.789,98.13-135.69,13.963-71.694,28.347-109.243,36.059-125.837a4.009,4.009,0,0,0-5.561-5.2C1622.076,544.5,1505.037,622.085,1521.531,785.8Z" transform="translate(-1519.949 -523.524)" fill="#dcdcdc"/>
            <path id="Path_9303" data-name="Path 9303" d="M1552.024,1038.915a1.777,1.777,0,0,0,2.737-.132c.662-.891,66.565-90.157,90.482-188.965a1.774,1.774,0,1,0-3.448-.835c-23.744,98.09-89.22,186.8-89.88,187.683A1.772,1.772,0,0,0,1552.024,1038.915Z" transform="translate(-1544.489 -775.101)" fill="#fff"/>
          </g>
        </g>
        <g id="Group_6915" data-name="Group 6915" transform="translate(8.508 265.728)">
          <g id="Group_6910" data-name="Group 6910">
            <g id="Group_6907" data-name="Group 6907" transform="translate(21.403)" opacity="0.3">
              <path id="Path_9304" data-name="Path 9304" d="M586.081,1584.43a1.455,1.455,0,0,1-1.394-1.513c.065-1.56.06-3.144-.009-4.71a1.453,1.453,0,0,1,1.36-1.515l.029,0a1.455,1.455,0,0,1,1.517,1.387c.074,1.649.076,3.319.009,4.959a1.456,1.456,0,0,1-1.358,1.392C586.184,1584.43,586.132,1584.432,586.081,1584.43Zm-2.264-13.827c-.282-1.542-.633-3.086-1.043-4.592a1.454,1.454,0,0,1,2.806-.765c.432,1.584.8,3.209,1.1,4.831a1.452,1.452,0,0,1-1.168,1.692,1.1,1.1,0,0,1-.172.02A1.451,1.451,0,0,1,583.816,1570.6Zm-3.562-11.813c-.618-1.437-1.3-2.864-2.041-4.243a1.455,1.455,0,1,1,2.564-1.374c.777,1.452,1.5,2.956,2.151,4.466a1.454,1.454,0,0,1-.763,1.911,1.481,1.481,0,0,1-.481.116A1.45,1.45,0,0,1,580.254,1558.79Zm-6.116-10.719c-.924-1.264-1.913-2.5-2.94-3.681a1.454,1.454,0,1,1,2.193-1.911c1.081,1.242,2.121,2.544,3.095,3.876a1.454,1.454,0,1,1-2.347,1.716Zm-8.351-9.089c-1.179-1.025-2.417-2.014-3.683-2.938a1.454,1.454,0,0,1,1.716-2.348c1.331.974,2.634,2.014,3.873,3.093a1.453,1.453,0,1,1-1.907,2.193Zm-10.155-7.015c-1.378-.741-2.8-1.43-4.24-2.05a1.454,1.454,0,0,1,1.152-2.67c1.51.653,3.012,1.378,4.462,2.157a1.454,1.454,0,0,1-.6,2.732A1.423,1.423,0,0,1,555.632,1531.967Zm-53.987-.676a1.453,1.453,0,0,1,.6-1.967c1.452-.774,2.956-1.495,4.473-2.144a1.454,1.454,0,1,1,1.143,2.674c-1.441.615-2.869,1.3-4.247,2.034a1.428,1.428,0,0,1-.591.168A1.447,1.447,0,0,1,501.645,1531.291Zm42.539-3.909c-1.506-.414-3.05-.77-4.587-1.054a1.454,1.454,0,1,1,.528-2.86c1.618.3,3.242.671,4.831,1.11a1.454,1.454,0,0,1-.293,2.853A1.521,1.521,0,0,1,544.184,1527.382Zm-30.88-1.056a1.454,1.454,0,0,1,1.025-1.783c1.589-.43,3.216-.794,4.836-1.09a1.454,1.454,0,1,1,.517,2.862c-1.542.28-3.088.627-4.6,1.036a1.429,1.429,0,0,1-.289.047A1.455,1.455,0,0,1,513.3,1526.326Zm18.694-.857c-1.56-.067-3.144-.067-4.708,0a1.454,1.454,0,0,1-.154-2.9l.031,0c1.647-.07,3.314-.07,4.957,0a1.453,1.453,0,0,1,.031,2.9A.912.912,0,0,1,532,1525.469Z" transform="translate(-492.935 -1522.507)" fill="#d7d9e0"/>
              <path id="Path_9305" data-name="Path 9305" d="M464.86,1575.251a1.453,1.453,0,0,0,.81-.311c.586-.465,1.193-.929,1.8-1.372a1.454,1.454,0,0,0-1.714-2.35c-.64.468-1.278.953-1.9,1.443a1.453,1.453,0,0,0,1,2.589Z" transform="translate(-463.312 -1560.101)" fill="#d7d9e0"/>
            </g>
            <g id="Group_6908" data-name="Group 6908" transform="translate(0 48.867)" opacity="0.3">
              <path id="Path_9306" data-name="Path 9306" d="M370.139,1746.1a1.454,1.454,0,0,0,1.354-1.311c.072-.745.159-1.5.262-2.251a1.454,1.454,0,1,0-2.88-.4c-.107.785-.2,1.584-.277,2.37a1.457,1.457,0,0,0,1.309,1.586A1.613,1.613,0,0,0,370.139,1746.1Z" transform="translate(-368.383 -1740.888)" fill="#d7d9e0"/>
              <path id="Path_9307" data-name="Path 9307" d="M426.455,1842.985a1.455,1.455,0,0,1-.043-2.909c1.528-.022,3.079-.11,4.63-.26a1.455,1.455,0,0,1,.282,2.9q-1.007.1-2.007.161C428.363,1842.934,427.4,1842.972,426.455,1842.985Zm10.936-2.654a1.453,1.453,0,0,1,1.079-1.75c1.5-.356,3-.779,4.462-1.258a1.454,1.454,0,1,1,.906,2.763c-1.537.5-3.117.949-4.7,1.323a1.341,1.341,0,0,1-.244.036A1.45,1.45,0,0,1,437.39,1840.331Zm-18.846,2.224c-1.6-.2-3.225-.468-4.813-.8a1.454,1.454,0,1,1,.6-2.846c1.508.318,3.046.573,4.569.761a1.455,1.455,0,0,1-.085,2.9A1.577,1.577,0,0,1,418.544,1842.556Zm30.692-6.116a1.454,1.454,0,0,1,.669-1.945c1.383-.676,2.755-1.419,4.075-2.206a1.454,1.454,0,1,1,1.493,2.5c-1.39.83-2.835,1.613-4.29,2.325a1.453,1.453,0,0,1-1.947-.669Zm-43.123,3.157c-1.522-.546-3.041-1.166-4.516-1.839a1.454,1.454,0,1,1,1.208-2.645c1.4.64,2.844,1.229,4.29,1.748a1.454,1.454,0,1,1-.982,2.737Zm-11.479-5.614c-1.37-.868-2.717-1.8-4.008-2.779a1.453,1.453,0,1,1,1.754-2.316c1.226.929,2.506,1.817,3.809,2.643a1.455,1.455,0,0,1-.687,2.681A1.5,1.5,0,0,1,394.634,1833.983ZM384.652,1826c-1.148-1.146-2.26-2.352-3.305-3.587a1.454,1.454,0,0,1,2.22-1.88c.994,1.173,2.05,2.318,3.142,3.408a1.455,1.455,0,1,1-2.056,2.059Zm-8-9.971c-.87-1.369-1.692-2.79-2.441-4.227a1.454,1.454,0,1,1,2.578-1.347c.712,1.363,1.493,2.712,2.318,4.012a1.455,1.455,0,0,1-2.455,1.562Zm-5.621-11.491c-.546-1.524-1.032-3.09-1.448-4.657a1.454,1.454,0,0,1,2.811-.747c.4,1.488.857,2.976,1.376,4.424a1.454,1.454,0,0,1-.879,1.859,1.486,1.486,0,0,1-.4.083A1.456,1.456,0,0,1,371.027,1804.539Zm-2.958-12.433c-.148-1.184-.262-2.385-.336-3.571-.027-.429-.049-.859-.067-1.286a1.438,1.438,0,0,1,1.392-1.513,1.453,1.453,0,0,1,1.513,1.392c.018.407.038.814.065,1.224.072,1.13.179,2.271.32,3.4a1.452,1.452,0,0,1-1.262,1.622c-.029,0-.06.007-.09.009A1.456,1.456,0,0,1,368.068,1792.106Z" transform="translate(-367.664 -1775.699)" fill="#d7d9e0"/>
              <path id="Path_9308" data-name="Path 9308" d="M780.264,1970.789a1.457,1.457,0,0,0,.817-.316c.613-.492,1.229-1.007,1.828-1.531a1.454,1.454,0,0,0-1.911-2.193c-.568.5-1.155.985-1.736,1.452a1.456,1.456,0,0,0,1,2.587Z" transform="translate(-686.736 -1915.931)" fill="#d7d9e0"/>
            </g>
            <g id="Group_6909" data-name="Group 6909" transform="translate(14.168 13.838)">
              <path id="Path_9309" data-name="Path 9309" d="M513.088,1649.46a.682.682,0,0,0,0-.79l-4.791-6.742a36.035,36.035,0,0,0,2.647-11.37l7.268-3.936a.681.681,0,0,0,.347-.709l-1.622-9.788a.68.68,0,0,0-.557-.559l-8.15-1.381a36.081,36.081,0,0,0-6.174-9.906l2.356-7.928a.678.678,0,0,0-.255-.745l-8.069-5.773a.683.683,0,0,0-.79,0l-6.742,4.791a36.045,36.045,0,0,0-11.37-2.647l-3.936-7.268a.681.681,0,0,0-.709-.347l-9.788,1.622a.68.68,0,0,0-.559.557l-1.381,8.15a36.081,36.081,0,0,0-9.906,6.174l-7.928-2.356a.678.678,0,0,0-.745.255l-5.773,8.069a.682.682,0,0,0,0,.79l4.791,6.742a36.037,36.037,0,0,0-2.647,11.37l-7.268,3.936a.681.681,0,0,0-.347.71l1.622,9.788a.68.68,0,0,0,.557.559l8.15,1.381a36.082,36.082,0,0,0,6.174,9.906l-2.356,7.928a.682.682,0,0,0,.255.747l8.069,5.774a.683.683,0,0,0,.79,0l6.742-4.791a36.035,36.035,0,0,0,11.37,2.647l3.936,7.268a.681.681,0,0,0,.709.347l9.788-1.622a.68.68,0,0,0,.559-.557l1.381-8.15a36.087,36.087,0,0,0,9.906-6.174l7.928,2.356a.683.683,0,0,0,.747-.255Z" transform="translate(-430.98 -1584.349)" fill="#d5d5d5"/>
              <path id="Path_9310" data-name="Path 9310" d="M591.282,1755.423a9.973,9.973,0,1,1,1.463.014A9.984,9.984,0,0,1,591.282,1755.423Zm-4.115-15.774a7.616,7.616,0,1,0,4.437-1.794A7.6,7.6,0,0,0,587.167,1739.649Z" transform="translate(-548.312 -1701.687)" fill="#e8e8ef"/>
              <path id="Path_9311" data-name="Path 9311" d="M542.4,1718.891c.832-.054,1.669-.148,2.5-.286h0c.262-.042.526-.092.785-.143a24.809,24.809,0,0,0,3.777-1.07.383.383,0,0,1,.049-.018l.141-.054.275-.107a.581.581,0,0,0,.367-.577.619.619,0,0,0-.04-.177.584.584,0,0,0-.754-.327,23.381,23.381,0,0,1-26.011-6.138,23.211,23.211,0,0,1-5.646-11.755,23.459,23.459,0,0,1-.273-2.388,23.358,23.358,0,1,1,45.054,7.12.614.614,0,0,0-.04.25.581.581,0,0,0,1.121.175,24.523,24.523,0,1,0-47.3-7.476,25.1,25.1,0,0,0,.286,2.506,24.524,24.524,0,0,0,25.7,20.464Z" transform="translate(-497.254 -1650.752)" fill="#e8e8ef"/>
            </g>
          </g>
          <g id="Group_6914" data-name="Group 6914" transform="translate(95.997 48.984)">
            <g id="Group_6911" data-name="Group 6911" transform="translate(23.731)" opacity="0.3">
              <path id="Path_9312" data-name="Path 9312" d="M1109.066,1942.192a.9.9,0,0,0,.819-.7c.168-.743.315-1.5.438-2.255a.9.9,0,1,0-1.772-.291c-.116.718-.257,1.441-.418,2.151a.9.9,0,0,0,.933,1.094Z" transform="translate(-1062.148 -1894.159)" fill="#d7d9e0"/>
              <path id="Path_9313" data-name="Path 9313" d="M950.436,1782.595a.9.9,0,0,1-.864-.933c.047-1.251.031-2.52-.047-3.768-.016-.264-.036-.528-.058-.792a.9.9,0,0,1,.819-.971.929.929,0,0,1,.971.819c.022.277.045.553.061.83a38.784,38.784,0,0,1,.049,3.95.9.9,0,0,1-.839.862A.645.645,0,0,1,950.436,1782.595Zm-1.629-10a37.1,37.1,0,0,0-1.206-4.4.9.9,0,0,1,1.7-.58,39.321,39.321,0,0,1,1.264,4.61.9.9,0,0,1-.7,1.063c-.043.009-.085.013-.128.018A.9.9,0,0,1,948.807,1772.59Zm-2.947-8.613a36.65,36.65,0,0,0-2.251-3.967.9.9,0,1,1,1.5-.98,39.136,39.136,0,0,1,2.361,4.16.9.9,0,0,1-.414,1.2.929.929,0,0,1-.336.089A.9.9,0,0,1,945.86,1763.977Zm-4.974-7.626a37.086,37.086,0,0,0-3.151-3.294.9.9,0,0,1,1.22-1.32,38.917,38.917,0,0,1,3.305,3.455.9.9,0,0,1-.107,1.267.9.9,0,0,1-1.267-.107Zm-6.684-6.181a37.075,37.075,0,0,0-3.858-2.43.9.9,0,0,1,.864-1.575,39.65,39.65,0,0,1,4.044,2.547.9.9,0,0,1-1.049,1.459Zm-7.982-4.37a36.451,36.451,0,0,0-4.33-1.414.9.9,0,0,1,.45-1.739,38.847,38.847,0,0,1,4.543,1.484.9.9,0,1,1-.662,1.669Zm-8.8-2.285a37.064,37.064,0,0,0-4.549-.309.9.9,0,0,1,.011-1.8,38.859,38.859,0,0,1,4.769.324.9.9,0,0,1-.058,1.786A.737.737,0,0,1,917.416,1743.516Zm-14.677.092a.9.9,0,0,1,.66-1.085,38.768,38.768,0,0,1,4.082-.765c.208-.029.416-.054.624-.078a.9.9,0,0,1,.208,1.785q-.292.034-.591.074a37,37,0,0,0-3.9.732.894.894,0,0,1-1.085-.662Z" transform="translate(-902.713 -1741.41)" fill="#d7d9e0"/>
            </g>
            <g id="Group_6912" data-name="Group 6912" transform="translate(0 57.001)" opacity="0.3">
              <path id="Path_9314" data-name="Path 9314" d="M832.2,2016.67a39.22,39.22,0,0,1-4.7-.047.9.9,0,0,1,.128-1.792,36.974,36.974,0,0,0,4.484.045.9.9,0,0,1,.1,1.795Zm3.636-1.251a.9.9,0,0,1,.732-1.036,37.389,37.389,0,0,0,4.368-1.025.9.9,0,0,1,.512,1.721,39.5,39.5,0,0,1-4.578,1.074c-.034,0-.065.009-.1.011A.9.9,0,0,1,835.841,2015.419Zm-13,.586a39.177,39.177,0,0,1-4.552-1.182.9.9,0,0,1,.557-1.71,36.86,36.86,0,0,0,4.341,1.128.9.9,0,0,1-.114,1.777A.82.82,0,0,1,822.84,2016.005Zm21.851-3.012a.9.9,0,0,1,.461-1.184,37.225,37.225,0,0,0,3.99-2.048.9.9,0,1,1,.917,1.544,38.077,38.077,0,0,1-4.187,2.148.916.916,0,0,1-.3.073A.9.9,0,0,1,844.691,2012.993Zm-30.775.1a38.717,38.717,0,0,1-4.133-2.242.9.9,0,1,1,.951-1.524,37.208,37.208,0,0,0,3.94,2.139.9.9,0,0,1-.324,1.712A.912.912,0,0,1,813.916,2013.1Zm-7.964-4.963a38.887,38.887,0,0,1-3.477-3.166.9.9,0,0,1,1.289-1.251,37.6,37.6,0,0,0,3.319,3.019.9.9,0,0,1-1.13,1.4Zm-6.55-6.731a38.894,38.894,0,0,1-2.618-3.909.9.9,0,1,1,1.551-.906,37.327,37.327,0,0,0,2.5,3.728.9.9,0,0,1-.17,1.258.9.9,0,0,1-1.258-.17Z" transform="translate(-796.661 -1996.141)" fill="#d7d9e0"/>
              <path id="Path_9315" data-name="Path 9315" d="M1047.347,2041.665a.9.9,0,0,0,.492-.186c.609-.47,1.2-.96,1.775-1.457a.9.9,0,0,0-1.179-1.354c-.544.474-1.112.942-1.692,1.39a.9.9,0,0,0-.161,1.26A.884.884,0,0,0,1047.347,2041.665Z" transform="translate(-990.512 -2028.982)" fill="#d7d9e0"/>
            </g>
            <g id="Group_6913" data-name="Group 6913" transform="translate(4.279 9.191)">
              <path id="Path_9316" data-name="Path 9316" d="M870.723,1826.048a.453.453,0,0,0,0-.528l-3.2-4.511a24.116,24.116,0,0,0,1.77-7.608l4.863-2.634a.455.455,0,0,0,.233-.474l-1.085-6.549a.451.451,0,0,0-.371-.374l-5.453-.924a24.122,24.122,0,0,0-4.131-6.628l1.578-5.305a.452.452,0,0,0-.172-.5l-5.4-3.862a.454.454,0,0,0-.528,0l-4.511,3.2a24.117,24.117,0,0,0-7.608-1.77l-2.634-4.863a.456.456,0,0,0-.474-.233l-6.55,1.085a.452.452,0,0,0-.374.374l-.924,5.453a24.129,24.129,0,0,0-6.628,4.131l-5.306-1.578a.452.452,0,0,0-.5.172l-3.862,5.4a.454.454,0,0,0,0,.528l3.2,4.511a24.119,24.119,0,0,0-1.77,7.608l-4.863,2.634a.456.456,0,0,0-.233.474l1.085,6.55a.451.451,0,0,0,.374.374l5.453.924a24.127,24.127,0,0,0,4.131,6.628l-1.578,5.306a.451.451,0,0,0,.172.5l5.4,3.86a.454.454,0,0,0,.528,0l4.511-3.2a24.12,24.12,0,0,0,7.608,1.77l2.634,4.862a.456.456,0,0,0,.475.233l6.55-1.085a.452.452,0,0,0,.374-.374l.924-5.453a24.131,24.131,0,0,0,6.628-4.131l5.305,1.577a.452.452,0,0,0,.5-.172Z" transform="translate(-815.784 -1782.483)" fill="#afafaf"/>
              <path id="Path_9317" data-name="Path 9317" d="M922.6,1896.641a6.744,6.744,0,1,1,1,.011A7.553,7.553,0,0,1,922.6,1896.641Zm-4.417-7.185a4.995,4.995,0,0,0,4.565,5.393h0a5,5,0,1,0,.828-9.958,5,5,0,0,0-5.393,4.565Z" transform="translate(-893.865 -1860.568)" fill="#e8e8ef"/>
              <path id="Path_9318" data-name="Path 9318" d="M888.616,1871.213q.849-.054,1.71-.195a17.019,17.019,0,0,0,3.325-.9l.143-.056a.9.9,0,0,0,.566-.891.946.946,0,0,0-.063-.275.9.9,0,0,0-1.166-.5,15.308,15.308,0,0,1-3.1.859h0l-.174.027a14.972,14.972,0,0,1-7.373-.693,15.186,15.186,0,0,1-3.614-1.875l-.027-.02-.083-.06a15.122,15.122,0,1,1,23.718-14.771,14.751,14.751,0,0,1,.175,1.526,15.107,15.107,0,0,1-1.018,6.485.9.9,0,1,0,1.672.66,16.918,16.918,0,1,0-32.63-5.158c.036.575.1,1.153.2,1.73A16.941,16.941,0,0,0,888.616,1871.213Z" transform="translate(-858.363 -1825.116)" fill="#e8e8ef"/>
            </g>
          </g>
        </g>
        <g id="Group_6955" data-name="Group 6955" transform="translate(39.799 112.12)">
          <g id="Group_6917" data-name="Group 6917">
            <g id="Group_6916" data-name="Group 6916">
              <path id="Path_9319" data-name="Path 9319" d="M1177.653,1709.39l-8.013,55.3h92.972l-12.108-55.3Z" transform="translate(-1021.473 -1513.964)" fill="#333435"/>
              <path id="Path_9320" data-name="Path 9320" d="M507.5,854.408v164.6a24.971,24.971,0,0,0,24.326,24.964c60.12,1.551,270.4,5.31,327.627,4.466a18.375,18.375,0,0,0,18.09-17.85c1.1-38.24,2.9-130.194-3.737-172.883a18.906,18.906,0,0,0-18.078-16c-50.373-1.611-273.28-6.729-330.485-5.444A18.15,18.15,0,0,0,507.5,854.408Z" transform="translate(-507.5 -836.055)" fill="#48494b"/>
              <path id="Path_9321" data-name="Path 9321" d="M553.66,875.783v156.384a14.469,14.469,0,0,0,14.252,14.467l319.142,3.943a14.08,14.08,0,0,0,14.29-14.026l.535-154.988a10.3,10.3,0,0,0-10.047-10.334l-326.741-6.6A11.159,11.159,0,0,0,553.66,875.783Z" transform="translate(-543.331 -858.232)" fill="#74767b"/>
              <path id="Path_9322" data-name="Path 9322" d="M902.217,1700.5h-.007l-350.087-5.966a.442.442,0,0,1-.434-.45.448.448,0,0,1,.45-.434l350.085,5.966a.442.442,0,0,1-.007.884Z" transform="translate(-541.801 -1501.745)" fill="#74767b"/>
              <path id="Path_9323" data-name="Path 9323" d="M1337.174,1728.472a4.086,4.086,0,1,1,4.086-4.086A4.088,4.088,0,0,1,1337.174,1728.472Zm0-7.286a3.2,3.2,0,1,0,3.2,3.2A3.2,3.2,0,0,0,1337.174,1721.186Z" transform="translate(-1148.347 -1522.432)" fill="#74767b"/>
              <path id="Path_9324" data-name="Path 9324" d="M1182.238,1952.369H1046.166c-3.7,0-6.474-2.631-5.758-5.458l1.745-6.906c.526-2.077,2.81-3.6,5.523-3.686l131.179-4.093c2.835-.09,5.346,1.416,5.964,3.574l3.148,11C1188.784,1949.656,1186,1952.369,1182.238,1952.369Z" transform="translate(-921.071 -1686.933)" fill="#48494b"/>
              <path id="Path_9325" data-name="Path 9325" d="M1392.333,1955.519a.443.443,0,0,1-.007-.886l5.621-.083a.454.454,0,0,1,.45.436.444.444,0,0,1-.436.45l-5.621.083Z" transform="translate(-1193.989 -1704.264)" fill="#74767b"/>
              <path id="Path_9326" data-name="Path 9326" d="M1061.777,1966.613a.353.353,0,0,1-.069-.007.442.442,0,0,1-.367-.506l.8-5.021a5.6,5.6,0,0,1,5.46-4.726l59.622-.873h.007a.443.443,0,0,1,.007.886l-59.621.873a4.718,4.718,0,0,0-4.6,3.981l-.8,5.021A.448.448,0,0,1,1061.777,1966.613Z" transform="translate(-937.403 -1704.986)" fill="#74767b"/>
            </g>
            <path id="Path_9327" data-name="Path 9327" d="M901.624,895.26V882.268a10.443,10.443,0,0,0-10.141-10.39l-326.853-6.63a11.229,11.229,0,0,0-11.54,11.126V892.4Z" transform="translate(-542.888 -858.713)" fill="#d9d9d9"/>
          </g>
          <g id="Group_6918" data-name="Group 6918" transform="translate(306.23 20.635)">
            <circle id="Ellipse_354" data-name="Ellipse 354" cx="4.451" cy="4.451" r="4.451" transform="translate(0 1.878)" fill="#efeff4"/>
            <circle id="Ellipse_355" data-name="Ellipse 355" cx="4.451" cy="4.451" r="4.451" transform="translate(14.889 6.294) rotate(-45)" fill="#efeff4"/>
            <circle id="Ellipse_356" data-name="Ellipse 356" cx="4.451" cy="4.451" r="4.451" transform="translate(32.582 9.634) rotate(-76.714)" fill="#efeff4"/>
          </g>
          <g id="Group_6919" data-name="Group 6919" transform="translate(15.127 41.067)">
            <path id="Path_9328" data-name="Path 9328" d="M646.727,1161.187h-63.5a8.122,8.122,0,0,1-8.123-8.123V1027.7a8.122,8.122,0,0,1,8.123-8.123h63.5a8.122,8.122,0,0,1,8.123,8.123v125.361A8.125,8.125,0,0,1,646.727,1161.187Z" transform="translate(-575.1 -1019.58)" fill="#d9d9d9"/>
            <path id="Path_9329" data-name="Path 9329" d="M661.592,1055.223H600.046a1.845,1.845,0,0,1-1.846-1.846v-2.251a1.845,1.845,0,0,1,1.846-1.846h61.546a1.845,1.845,0,0,1,1.846,1.846v2.251A1.846,1.846,0,0,1,661.592,1055.223Z" transform="translate(-593.031 -1042.634)" fill="#9e9e9e"/>
            <path id="Path_9330" data-name="Path 9330" d="M728.068,1111.493H685.686a1.845,1.845,0,0,1-1.846-1.846V1107.4a1.845,1.845,0,0,1,1.846-1.846h42.382a1.845,1.845,0,0,1,1.846,1.846v2.251A1.847,1.847,0,0,1,728.068,1111.493Z" transform="translate(-659.507 -1086.313)" fill="#9e9e9e"/>
            <circle id="Ellipse_357" data-name="Ellipse 357" cx="3.31" cy="3.31" r="3.31" transform="translate(14.547 18.9)" fill="#9e9e9e"/>
            <path id="Path_9331" data-name="Path 9331" d="M729.868,1167.443H687.486a1.845,1.845,0,0,1-1.846-1.846v-2.251a1.845,1.845,0,0,1,1.846-1.846h42.382a1.845,1.845,0,0,1,1.846,1.846v2.251A1.846,1.846,0,0,1,729.868,1167.443Z" transform="translate(-660.904 -1129.743)" fill="#9e9e9e"/>
            <circle id="Ellipse_358" data-name="Ellipse 358" cx="3.31" cy="3.31" r="3.31" transform="translate(13.943 32.941) rotate(-22.5)" fill="#9e9e9e"/>
            <path id="Path_9332" data-name="Path 9332" d="M730.268,1219.843H687.886A1.845,1.845,0,0,1,686.04,1218v-2.251a1.845,1.845,0,0,1,1.846-1.846h42.382a1.845,1.845,0,0,1,1.846,1.846V1218A1.848,1.848,0,0,1,730.268,1219.843Z" transform="translate(-661.215 -1170.417)" fill="#9e9e9e"/>
            <circle id="Ellipse_359" data-name="Ellipse 359" cx="3.31" cy="3.31" r="3.31" transform="translate(14.557 49.193) rotate(-80.782)" fill="#9e9e9e"/>
            <path id="Path_9333" data-name="Path 9333" d="M732.068,1275.783H689.686a1.845,1.845,0,0,1-1.846-1.846v-2.251a1.845,1.845,0,0,1,1.846-1.846h42.382a1.845,1.845,0,0,1,1.846,1.846v2.251A1.847,1.847,0,0,1,732.068,1275.783Z" transform="translate(-662.612 -1213.839)" fill="#9e9e9e"/>
            <circle id="Ellipse_360" data-name="Ellipse 360" cx="3.31" cy="3.31" r="3.31" transform="translate(15.442 55.663)" fill="#9e9e9e"/>
            <path id="Path_9334" data-name="Path 9334" d="M661.782,1350.6H600.236a1.845,1.845,0,0,1-1.846-1.846v-2.251a1.845,1.845,0,0,1,1.846-1.846h61.546a1.845,1.845,0,0,1,1.846,1.846v2.251A1.846,1.846,0,0,1,661.782,1350.6Z" transform="translate(-593.178 -1271.917)" fill="#9e9e9e"/>
            <path id="Path_9335" data-name="Path 9335" d="M728.258,1406.863H685.876a1.845,1.845,0,0,1-1.846-1.846v-2.251a1.845,1.845,0,0,1,1.846-1.846h42.382a1.845,1.845,0,0,1,1.846,1.846v2.251A1.845,1.845,0,0,1,728.258,1406.863Z" transform="translate(-659.655 -1315.587)" fill="#9e9e9e"/>
            <circle id="Ellipse_361" data-name="Ellipse 361" cx="3.31" cy="3.31" r="3.31" transform="translate(13.217 88.303) rotate(-45)" fill="#9e9e9e"/>
            <path id="Path_9336" data-name="Path 9336" d="M730.068,1462.813H687.686a1.845,1.845,0,0,1-1.846-1.846v-2.251a1.845,1.845,0,0,1,1.846-1.846h42.382a1.845,1.845,0,0,1,1.846,1.846v2.251A1.846,1.846,0,0,1,730.068,1462.813Z" transform="translate(-661.06 -1359.017)" fill="#9e9e9e"/>
            <circle id="Ellipse_362" data-name="Ellipse 362" cx="3.31" cy="3.31" r="3.31" transform="translate(14.995 97.515)" fill="#9e9e9e"/>
            <path id="Path_9337" data-name="Path 9337" d="M730.458,1515.213H688.076a1.845,1.845,0,0,1-1.846-1.846v-2.251a1.845,1.845,0,0,1,1.846-1.846h42.382a1.845,1.845,0,0,1,1.846,1.846v2.251A1.845,1.845,0,0,1,730.458,1515.213Z" transform="translate(-661.362 -1399.692)" fill="#9e9e9e"/>
            <circle id="Ellipse_363" data-name="Ellipse 363" cx="3.31" cy="3.31" r="3.31" transform="translate(15.084 109.24)" fill="#9e9e9e"/>
            <path id="Path_9338" data-name="Path 9338" d="M732.268,1571.163H689.886a1.845,1.845,0,0,1-1.846-1.846v-2.251a1.845,1.845,0,0,1,1.846-1.846h42.382a1.845,1.845,0,0,1,1.846,1.846v2.251A1.846,1.846,0,0,1,732.268,1571.163Z" transform="translate(-662.767 -1443.122)" fill="#9e9e9e"/>
            <circle id="Ellipse_364" data-name="Ellipse 364" cx="3.31" cy="3.31" r="3.31" transform="translate(14.113 125.068) rotate(-45)" fill="#9e9e9e"/>
          </g>
          <path id="Path_9339" data-name="Path 9339" d="M1689.18,1097.726v-57.572a4.158,4.158,0,0,1,4.446-3.855l75.084.817a4.145,4.145,0,0,1,4.337,3.838l.316,58.18a4.162,4.162,0,0,1-4.487,3.874l-75.4-1.426A4.138,4.138,0,0,1,1689.18,1097.726Z" transform="translate(-1424.755 -991.49)" fill="#d9d9d9"/>
          <path id="Path_9340" data-name="Path 9340" d="M1689.18,1426.706v-57.572a4.158,4.158,0,0,1,4.446-3.855l75.084.817a4.145,4.145,0,0,1,4.337,3.838l.316,58.181a4.162,4.162,0,0,1-4.487,3.873l-75.4-1.426A4.138,4.138,0,0,1,1689.18,1426.706Z" transform="translate(-1424.755 -1246.854)" fill="#d9d9d9"/>
          <g id="Group_6954" data-name="Group 6954" transform="translate(100.119 43.421)">
            <path id="Path_9341" data-name="Path 9341" d="M954.92,1162.644V1038.417a8.322,8.322,0,0,1,8.423-8.32l142.226,1.763a8.32,8.32,0,0,1,8.217,8.28l.6,125.54a8.32,8.32,0,0,1-8.5,8.358l-142.822-3.079A8.317,8.317,0,0,1,954.92,1162.644Z" transform="translate(-954.92 -1030.097)" fill="#d9d9d9"/>
            <g id="Group_6924" data-name="Group 6924" transform="translate(7.801 3.113)">
              <path id="Path_9342" data-name="Path 9342" d="M1031.858,1059.22v36.741a5.1,5.1,0,0,1-5.1,5.1H994.88a5.1,5.1,0,0,1-5.1-5.1V1049.11a5.1,5.1,0,0,1,5.1-5.1h22.086l.311.318,14.359,14.661Z" transform="translate(-989.78 -1044.01)" fill="#fff"/>
              <path id="Path_9343" data-name="Path 9343" d="M1127.019,1060.1h-10.893a3.466,3.466,0,0,1-3.466-3.466v-11.2Z" transform="translate(-1085.163 -1045.12)" fill="#e8e8ef"/>
              <g id="Group_6923" data-name="Group 6923" transform="translate(5.782 16.304)">
                <g id="Group_6920" data-name="Group 6920" transform="translate(0 4.529)">
                  <path id="Path_9344" data-name="Path 9344" d="M1029.55,1164.971a13.931,13.931,0,0,1-.195-27.861,1.008,1.008,0,0,1,.718.289,1,1,0,0,1,.3.714v12.108h12.108a1.007,1.007,0,0,1,1,.962,1.023,1.023,0,0,1-.264.727,1,1,0,0,1-.738.324h0l-10.994,0,6.841,8.331a1.006,1.006,0,0,1-.155,1.425A13.823,13.823,0,0,1,1029.55,1164.971Zm-1.186-25.8a11.925,11.925,0,0,0,1.186,23.791,11.8,11.8,0,0,0,6.547-1.953l-7.51-9.148a1,1,0,0,1-.221-.741v-11.949Z" transform="translate(-1015.62 -1137.11)" fill="#a8abb2"/>
                </g>
                <g id="Group_6921" data-name="Group 6921" transform="translate(17.638)">
                  <path id="Path_9345" data-name="Path 9345" d="M1108.553,1131.99h-13.111a1,1,0,0,1-1-1v-13.111a1,1,0,0,1,.964-1c.074,0,.148,0,.222,0a13.95,13.95,0,0,1,13.934,13.934c0,.076,0,.152,0,.226A1,1,0,0,1,1108.553,1131.99Zm-12.108-2.007h11.079a11.949,11.949,0,0,0-11.079-11.079Z" transform="translate(-1094.44 -1116.87)" fill="#a8abb2"/>
                </g>
                <g id="Group_6922" data-name="Group 6922" transform="translate(12.529 17.436)">
                  <path id="Path_9346" data-name="Path 9346" d="M1081.01,1207.178a1.208,1.208,0,0,1-.935-.441l-8.188-9.971a1.209,1.209,0,0,1,.933-1.976h0l13.115.007a1.207,1.207,0,0,1,1.206,1.226,14.084,14.084,0,0,1-5.388,10.9A1.18,1.18,0,0,1,1081.01,1207.178Zm-5.63-9.969,5.776,7.033a11.654,11.654,0,0,0,3.5-7.031Z" transform="translate(-1071.612 -1194.79)" fill="#a8abb2"/>
                </g>
              </g>
            </g>
            <g id="Group_6932" data-name="Group 6932" transform="translate(58.283 3.111)">
              <path id="Path_9347" data-name="Path 9347" d="M1257.485,1059.219v36.768a5.1,5.1,0,0,1-5.1,5.1h-31.9a5.1,5.1,0,0,1-5.1-5.1V1049.1a5.1,5.1,0,0,1,5.1-5.1h22.1l.311.318,14.368,14.673Z" transform="translate(-1215.38 -1044)" fill="#fff"/>
              <path id="Path_9348" data-name="Path 9348" d="M1352.708,1060.1h-10.9a3.469,3.469,0,0,1-3.469-3.468v-11.2Z" transform="translate(-1310.825 -1045.11)" fill="#e8e8ef"/>
              <g id="Group_6931" data-name="Group 6931" transform="translate(8.631 23.87)">
                <g id="Group_6925" data-name="Group 6925">
                  <path id="Path_9349" data-name="Path 9349" d="M1276.291,1175.323h-21.6a.739.739,0,0,1-.739-.738v-23.176a.739.739,0,0,1,.739-.739h21.6a.739.739,0,0,1,.738.739v23.176A.736.736,0,0,1,1276.291,1175.323Zm-20.862-1.477h20.126v-21.7h-20.126Z" transform="translate(-1253.95 -1150.67)" fill="#a8abb2"/>
                </g>
                <g id="Group_6926" data-name="Group 6926" transform="translate(5.494 0.002)">
                  <path id="Path_9350" data-name="Path 9350" d="M1279.239,1175.331a.739.739,0,0,1-.738-.738v-23.174a.738.738,0,1,1,1.477,0v23.174A.738.738,0,0,1,1279.239,1175.331Z" transform="translate(-1278.5 -1150.68)" fill="#a8abb2"/>
                </g>
                <g id="Group_6927" data-name="Group 6927" transform="translate(0.004 5.628)">
                  <path id="Path_9351" data-name="Path 9351" d="M1276.311,1177.3h-21.6a.739.739,0,0,1,0-1.477h21.6a.739.739,0,0,1,0,1.477Z" transform="translate(-1253.97 -1175.82)" fill="#a8abb2"/>
                </g>
                <g id="Group_6928" data-name="Group 6928" transform="translate(0.004 11.564)">
                  <path id="Path_9352" data-name="Path 9352" d="M1276.311,1203.827h-21.6a.738.738,0,0,1,0-1.477h21.6a.738.738,0,0,1,0,1.477Z" transform="translate(-1253.97 -1202.35)" fill="#a8abb2"/>
                </g>
                <g id="Group_6929" data-name="Group 6929" transform="translate(0.004 17.349)">
                  <path id="Path_9353" data-name="Path 9353" d="M1276.311,1229.677h-21.6a.738.738,0,0,1,0-1.477h21.6a.738.738,0,0,1,0,1.477Z" transform="translate(-1253.97 -1228.2)" fill="#a8abb2"/>
                </g>
                <g id="Group_6930" data-name="Group 6930" transform="translate(15.427 0.002)">
                  <path id="Path_9354" data-name="Path 9354" d="M1323.628,1175.331a.739.739,0,0,1-.738-.738v-23.174a.738.738,0,1,1,1.477,0v23.174A.738.738,0,0,1,1323.628,1175.331Z" transform="translate(-1322.89 -1150.68)" fill="#a8abb2"/>
                </g>
              </g>
            </g>
            <g id="Group_6936" data-name="Group 6936" transform="translate(108.321 3.666)">
              <path id="Path_9355" data-name="Path 9355" d="M1480.591,1061.517v36.327a5.042,5.042,0,0,1-5.042,5.042h-31.518a5.042,5.042,0,0,1-5.042-5.042v-46.323a5.042,5.042,0,0,1,5.042-5.042h21.838l.306.315,14.2,14.5Z" transform="translate(-1438.99 -1046.48)" fill="#fff"/>
              <path id="Path_9356" data-name="Path 9356" d="M1574.668,1062.386H1563.9a3.428,3.428,0,0,1-3.428-3.428V1047.89Z" transform="translate(-1533.286 -1047.575)" fill="#e8e8ef"/>
              <g id="Group_6935" data-name="Group 6935" transform="translate(8.81 25.056)">
                <g id="Group_6933" data-name="Group 6933">
                  <path id="Path_9357" data-name="Path 9357" d="M1502.3,1179.151H1479a.64.64,0,0,1-.64-.64V1159.09a.64.64,0,0,1,.64-.64h23.3a.64.64,0,0,1,.64.64v19.421A.64.64,0,0,1,1502.3,1179.151Zm-22.664-1.28h22.026V1159.73H1479.64Z" transform="translate(-1478.36 -1158.45)" fill="#a8abb2"/>
                </g>
                <g id="Group_6934" data-name="Group 6934" transform="translate(0.003 6.971)">
                  <path id="Path_9358" data-name="Path 9358" d="M1479.012,1199.657a.633.633,0,0,1-.441-.177.64.64,0,0,1-.022-.9l6.38-6.695a.648.648,0,0,1,.452-.2.693.693,0,0,1,.459.181l3.509,3.417,5.693-5.5a.641.641,0,0,1,.9.013l6.834,6.986a.639.639,0,0,1-.915.893l-6.389-6.532-5.681,5.489a.64.64,0,0,1-.891,0l-3.491-3.4-5.934,6.228A.633.633,0,0,1,1479.012,1199.657Z" transform="translate(-1478.373 -1189.601)" fill="#a8abb2"/>
                </g>
              </g>
            </g>
            <g id="Group_6942" data-name="Group 6942" transform="translate(57.872 80.58)">
              <path id="Path_9359" data-name="Path 9359" d="M1255.645,1405.419v36.768a5.1,5.1,0,0,1-5.1,5.1h-31.9a5.1,5.1,0,0,1-5.1-5.1V1395.3a5.1,5.1,0,0,1,5.1-5.1h22.1l.311.318,14.368,14.673Z" transform="translate(-1213.54 -1390.2)" fill="#fff"/>
              <path id="Path_9360" data-name="Path 9360" d="M1350.868,1406.3h-10.9a3.469,3.469,0,0,1-3.469-3.469v-11.2Z" transform="translate(-1308.985 -1391.31)" fill="#e8e8ef"/>
              <g id="Group_6941" data-name="Group 6941" transform="translate(7.772 23.888)">
                <g id="Group_6937" data-name="Group 6937">
                  <path id="Path_9361" data-name="Path 9361" d="M1273.377,1514.454a2.683,2.683,0,0,1-2.683,2.683h-19.741a2.683,2.683,0,0,1-2.683-2.683v-14.82a2.684,2.684,0,0,1,2.683-2.683h19.741a2.684,2.684,0,0,1,2.683,2.683Zm-1.969-14.617a.915.915,0,0,0-.915-.915h-19.831a.915.915,0,0,0-.915.915v14.415a.915.915,0,0,0,.915.915h19.831a.915.915,0,0,0,.915-.915Z" transform="translate(-1248.27 -1496.95)" fill="#a8abb2"/>
                </g>
                <g id="Group_6938" data-name="Group 6938" transform="translate(0.363 0.63)">
                  <path id="Path_9362" data-name="Path 9362" d="M1261.835,1509.376a.872.872,0,0,1-.51-.163l-11.059-7.843a.884.884,0,1,1,1.023-1.443l10.546,7.479,10.41-7.394a.884.884,0,0,1,1.025,1.441l-10.92,7.756A.869.869,0,0,1,1261.835,1509.376Z" transform="translate(-1249.893 -1499.763)" fill="#a8abb2"/>
                </g>
                <g id="Group_6939" data-name="Group 6939" transform="translate(0.506 5.49)">
                  <path id="Path_9363" data-name="Path 9363" d="M1251.41,1535.2l-.262-1.748.123.875-.741-.481c.2-.329,4.193-7.3,6.823-11.913a.884.884,0,1,1,1.535.877s-1.705,2.99-3.415,5.977c-.855,1.495-1.71,2.99-2.354,4.111C1251.837,1535.131,1251.837,1535.131,1251.41,1535.2Z" transform="translate(-1250.53 -1521.484)" fill="#a8abb2"/>
                </g>
                <g id="Group_6940" data-name="Group 6940" transform="translate(15.566 5.492)">
                  <path id="Path_9364" data-name="Path 9364" d="M1325.425,1535.2c-.427-.067-.427-.067-1.71-2.3-.644-1.121-1.5-2.616-2.354-4.111-1.71-2.99-3.415-5.977-3.415-5.977a.884.884,0,0,1,1.535-.877c2.631,4.61,6.619,11.585,6.823,11.914l-.741.481Z" transform="translate(-1317.831 -1521.491)" fill="#a8abb2"/>
                </g>
              </g>
            </g>
            <g id="Group_6946" data-name="Group 6946" transform="translate(107.909 81.135)">
              <path id="Path_9365" data-name="Path 9365" d="M1478.751,1407.718v36.327a5.042,5.042,0,0,1-5.041,5.042h-31.518a5.042,5.042,0,0,1-5.042-5.042v-46.323a5.042,5.042,0,0,1,5.042-5.042h21.838l.307.315,14.2,14.5Z" transform="translate(-1437.15 -1392.68)" fill="#fff"/>
              <path id="Path_9366" data-name="Path 9366" d="M1572.828,1408.586h-10.77a3.428,3.428,0,0,1-3.428-3.428V1394.09Z" transform="translate(-1531.446 -1393.775)" fill="#e8e8ef"/>
              <g id="Group_6945" data-name="Group 6945" transform="translate(8.441 21.522)">
                <g id="Group_6943" data-name="Group 6943">
                  <path id="Path_9367" data-name="Path 9367" d="M1486.786,1512.692a11.916,11.916,0,1,1,11.916-11.916A11.93,11.93,0,0,1,1486.786,1512.692Zm0-21.835a9.92,9.92,0,1,0,9.92,9.92A9.932,9.932,0,0,0,1486.786,1490.856Z" transform="translate(-1474.87 -1488.86)" fill="#a8abb2"/>
                </g>
                <g id="Group_6944" data-name="Group 6944" transform="translate(8.183 6.754)">
                  <path id="Path_9368" data-name="Path 9368" d="M1511.44,1528.791v-8.566a1.181,1.181,0,0,1,1.783-1.016l7.219,4.283a1.181,1.181,0,0,1,0,2.032l-7.219,4.283A1.181,1.181,0,0,1,1511.44,1528.791Z" transform="translate(-1511.44 -1519.042)" fill="#a8abb2" fill-rule="evenodd"/>
                </g>
              </g>
            </g>
            <g id="Group_6953" data-name="Group 6953" transform="translate(7.427 82.216)">
              <path id="Path_9369" data-name="Path 9369" d="M1030.112,1412.693v36.674a5.091,5.091,0,0,1-5.091,5.091H993.2a5.091,5.091,0,0,1-5.091-5.091V1402.6a5.091,5.091,0,0,1,5.091-5.091h22.046l.311.318,14.333,14.635Z" transform="translate(-988.11 -1397.51)" fill="#fff"/>
              <path id="Path_9370" data-name="Path 9370" d="M1125.11,1413.575H1114.24a3.459,3.459,0,0,1-3.459-3.459V1398.94Z" transform="translate(-1083.33 -1398.62)" fill="#e8e8ef"/>
              <g id="Group_6951" data-name="Group 6951" transform="translate(9.087 26.047)">
                <g id="Group_6947" data-name="Group 6947" transform="translate(14.787)">
                  <path id="Path_9371" data-name="Path 9371" d="M1102.939,1515.633h-7.277a.862.862,0,0,1,0-1.723h7.277a.862.862,0,0,1,0,1.723Z" transform="translate(-1094.8 -1513.91)" fill="#a8abb2"/>
                </g>
                <g id="Group_6948" data-name="Group 6948" transform="translate(14.789 5.612)">
                  <path id="Path_9372" data-name="Path 9372" d="M1102.949,1540.713h-7.277a.861.861,0,1,1,0-1.723h7.277a.861.861,0,1,1,0,1.723Z" transform="translate(-1094.81 -1538.99)" fill="#a8abb2"/>
                </g>
                <g id="Group_6949" data-name="Group 6949" transform="translate(0 11.533)">
                  <path id="Path_9373" data-name="Path 9373" d="M1051.128,1567.173h-21.547a.862.862,0,0,1,0-1.723h21.547a.862.862,0,1,1,0,1.723Z" transform="translate(-1028.72 -1565.45)" fill="#a8abb2"/>
                </g>
                <g id="Group_6950" data-name="Group 6950" transform="translate(0 17.304)">
                  <path id="Path_9374" data-name="Path 9374" d="M1051.128,1592.963h-21.547a.861.861,0,1,1,0-1.723h21.547a.861.861,0,1,1,0,1.723Z" transform="translate(-1028.72 -1591.24)" fill="#a8abb2"/>
                </g>
              </g>
              <g id="Group_6952" data-name="Group 6952" transform="translate(8.998 26.029)">
                <path id="Path_9375" data-name="Path 9375" d="M1039.893,1521.644h-10.712a.86.86,0,0,1-.862-.861v-6.091a.86.86,0,0,1,.862-.861h10.712a.86.86,0,0,1,.862.861v6.091A.862.862,0,0,1,1039.893,1521.644Zm-9.85-1.723h8.989v-4.368h-8.989Z" transform="translate(-1028.32 -1513.83)" fill="#a8abb2"/>
              </g>
            </g>
          </g>
        </g>
        <g id="Group_6959" data-name="Group 6959" transform="translate(279.156 161.341)">
          <path id="Path_9376" data-name="Path 9376" d="M1609.06,1399.04l7.318,15.612a8.774,8.774,0,0,0,12.234,3.929l14.053-7.879Z" transform="translate(-1601.92 -1322.282)" fill="url(#linear-gradient)"/>
          <path id="Path_9377" data-name="Path 9377" d="M1693.013,2127.9c4.769.412,13.048,1.083,19.573,1.37,3.923.172,6.181-.21,7.481-.732,0,.148-.007.284-.011.414a1.351,1.351,0,0,1-1.282,1.276,229.079,229.079,0,0,1-25.629.025.961.961,0,0,1-.783-1.444A7.715,7.715,0,0,1,1693.013,2127.9Z" transform="translate(-1666.476 -1888.044)" fill="#333435"/>
          <path id="Path_9378" data-name="Path 9378" d="M1715.313,2095.86c-6.525-.286-14.8-.958-19.573-1.369,4.69-5.753,19.573-9.631,19.573-9.631h4.2a17.635,17.635,0,0,1,3.278,10.269C1721.494,2095.65,1719.236,2096.033,1715.313,2095.86Z" transform="translate(-1669.204 -1854.635)" fill="#48494b"/>
          <path id="Path_9379" data-name="Path 9379" d="M1777.951,2054.2l-.394,7.785a1.777,1.777,0,0,1-1.517,1.672,6.893,6.893,0,0,1-3.158-.262,2.1,2.1,0,0,1-1.414-1.618l-1.358-7.577Z" transform="translate(-1726.932 -1830.836)" fill="url(#linear-gradient-2)"/>
          <g id="Group_6956" data-name="Group 6956" transform="translate(87.544 225.762)">
            <path id="Path_9380" data-name="Path 9380" d="M1998.217,2147.664a3.932,3.932,0,0,0,3.4-2.924c0,.011,0,.024.007.036a3.224,3.224,0,0,1-1.813,3.567,10.318,10.318,0,0,1-5.015.915,4.745,4.745,0,0,1-3.761-2.018l-.011-.018C1992.58,2148.119,1994.768,2148.224,1998.217,2147.664Z" transform="translate(-1985.953 -2126.878)" fill="#333435"/>
            <path id="Path_9381" data-name="Path 9381" d="M1970.889,2064.917h3.466c5.281-.125,8.6,12.84,9.682,17.862a3.929,3.929,0,0,1-3.4,2.924c-3.448.56-5.637.455-7.194-.443-2.853-4.37-4.267-10.772-4.948-14.507A5.25,5.25,0,0,1,1970.889,2064.917Z" transform="translate(-1968.377 -2064.916)" fill="#48494b"/>
          </g>
          <path id="Path_9382" data-name="Path 9382" d="M1967.485,2032.63l1.924,7.655a2.077,2.077,0,0,1-1.081,2.354,7.378,7.378,0,0,1-3.986.965,1.738,1.738,0,0,1-1.416-1.157l-2.826-8.056Z" transform="translate(-1874.408 -1814.093)" fill="url(#linear-gradient-3)"/>
          <path id="Path_9383" data-name="Path 9383" d="M1690.49,1574.47s17.2,107.531,16.919,108.121a14.311,14.311,0,0,0,9.931.275s-1.555-57.482-5.2-79.521c0,0,29.359,51.378,38.681,76.979a23.3,23.3,0,0,0,8.888-3.229s-31.612-92.478-40.044-104.8Z" transform="translate(-1665.129 -1456.771)" fill="#989898"/>
          <path id="Path_9384" data-name="Path 9384" d="M1742.57,1665.279a.82.82,0,0,0,.441-.128.831.831,0,0,0,.264-1.146l-6.429-10.269a.822.822,0,0,0-.542-.374l-4.73-.953a.832.832,0,0,0-.329,1.631l4.382.882,6.238,9.964A.828.828,0,0,0,1742.57,1665.279Z" transform="translate(-1696.246 -1518.941)" fill="#fff"/>
          <path id="Path_9385" data-name="Path 9385" d="M1670.893,1254.526c2.893-6.069,27.875-6.709,46.175-.662,3.851,1.273,6.6,6.823,6.666,10.846a13.816,13.816,0,0,1-12.392,13.18c-4.636,12.52-8.875,29.656-9.329,37.739a17.366,17.366,0,0,0,1.363,7.776l.114.269a.919.919,0,0,1-.647,1.255c-12.527,2.813-25.555,2.05-29.446,1.727a1.607,1.607,0,0,1-1.432-1.226C1665.874,1299.766,1666.536,1263.665,1670.893,1254.526Z" transform="translate(-1647.29 -1206.312)" fill="#717171"/>
          <path id="Path_9386" data-name="Path 9386" d="M1761.577,1179.66s1.267,13.4,2.383,17.363a1.356,1.356,0,0,1-.638,1.548c-1.893,1.083-6.435,2.846-12.647-.2a2.815,2.815,0,0,1-1.564-2.652l.548-12.947Z" transform="translate(-1710.63 -1151.992)" fill="url(#linear-gradient-4)"/>
          <g id="Group_6957" data-name="Group 6957" transform="translate(31.882)">
            <path id="Path_9387" data-name="Path 9387" d="M1728.049,1101.95s-5.87,8.286-7.132,13.015-2.943,7.617,2.387,9.734,10.564.333,14.082-3.9c0,0,5.487-6.519,5.227-9.709S1728.049,1101.95,1728.049,1101.95Z" transform="translate(-1719.631 -1091.671)" fill="url(#linear-gradient-5)"/>
            <path id="Path_9388" data-name="Path 9388" d="M1750.032,1081.319l-.286-.2a.777.777,0,0,1-.154-1.121c1.094-1.345,3.334-4.48,1.54-5.695-2.316-1.566-11.916-5.7-13.337-9.712a6.762,6.762,0,0,1,4.428-8.562.391.391,0,0,1,.465.266l.139.486a.384.384,0,0,0,.707.074h0a.383.383,0,0,1,.7.045c.443,1.2,1.877,3.3,6.5,5.191,6.561,2.683,10.5,6.384,9.627,11.124a.384.384,0,0,0,.517.432c.568-.2,1.405-.177,2.294.953,1.546,1.967-.074,5.894-4.883,8.4a.382.382,0,0,0-.107.606c.645.64,1.513,2.025-1.685,2.963a9.9,9.9,0,0,1-6.328.056.383.383,0,0,1-.21-.515l1.777-3.954a.383.383,0,0,0-.271-.533Z" transform="translate(-1733.451 -1056.016)" fill="#333435"/>
            <path id="Path_9389" data-name="Path 9389" d="M1792.15,1159.513s2.728-5.507,5-3.33-2.714,6.241-4.858,6.022Z" transform="translate(-1775.922 -1133.373)" fill="url(#linear-gradient-6)"/>
          </g>
          <path id="Path_9390" data-name="Path 9390" d="M1862.48,1295.807l2.347-22.095c.483-1.45,4.67-2.26,5.737-1.26,4.449,4.162,11.636,14.827,13.628,27.15a32.9,32.9,0,0,0-13.737,4.352A18.6,18.6,0,0,0,1862.48,1295.807Z" transform="translate(-1798.632 -1223.676)" fill="#717171"/>
          <path id="Path_9391" data-name="Path 9391" d="M1778.41,1404.131s18.629,10.164,23.729,1.732a8.97,8.97,0,0,0,1.233-6.18,32.932,32.932,0,0,1,13.737-4.353,25.772,25.772,0,0,1-2.043,15.225c-10.486,22.675-39.006-1.253-39.006-1.253Z" transform="translate(-1731.551 -1319.402)" fill="url(#linear-gradient-7)"/>
          <g id="Group_6958" data-name="Group 6958" transform="translate(0 52.869)">
            <path id="Path_9392" data-name="Path 9392" d="M1629.546,1352.929l-11.446-39.97a1.163,1.163,0,0,0-.987-.839c-2.074-.242-8.083-.922-15.022-1.508-8.358-.707-18.063-1.28-23.861-.792a1.17,1.17,0,0,0-.956,1.683c3.3,6.673,16.863,33.811,23.657,42.7a1.169,1.169,0,0,0,.944.463l26.557-.246A1.172,1.172,0,0,0,1629.546,1352.929Z" transform="translate(-1577.153 -1305.754)" fill="#333435"/>
            <path id="Path_9393" data-name="Path 9393" d="M1652.108,1293.674l-8.3-1.383a.6.6,0,0,0-.664.774l.821,2.488a.591.591,0,0,0,.488.4l7.986,1.067a.593.593,0,0,0,.658-.725l-.508-2.173A.6.6,0,0,0,1652.108,1293.674Z" transform="translate(-1628.355 -1292.282)" fill="#74767b"/>
            <path id="Path_9394" data-name="Path 9394" d="M1644.894,1309.32l-.685-3.56a.825.825,0,0,0-.725-.665l-16.76-1.7a.823.823,0,0,0-.884,1.011l1.065,4.438a.82.82,0,0,0,.759.629l16.378.823A.821.821,0,0,0,1644.894,1309.32Z" transform="translate(-1614.927 -1300.905)" fill="#74767b"/>
            <path id="Path_9395" data-name="Path 9395" d="M1749.865,1412.667s1.6-6.557.951-8.882-1.889-5.317-6.042-4.652a60.79,60.79,0,0,0-9.054,2.415,2.377,2.377,0,0,0,3.4,2.052l-1.958,1.515s.28,2.426,2.947,1.13l-1.822,2.01a2.122,2.122,0,0,0,3.106.714C1743.357,1407.69,1744.3,1413.457,1749.865,1412.667Z" transform="translate(-1700.238 -1375.15)" fill="url(#linear-gradient-8)"/>
          </g>
          <path id="Path_9396" data-name="Path 9396" d="M1599.809,1368.961s-4.778-4.636-5.76-6.8-2-5.113.835-6.342a35.154,35.154,0,0,1,6.747-1.893s1.629,2.562-.8,3.113l2.041.4s1.255,2.086-1.074,2.168l2.249.855s.492,2.1-1.412,1.9S1603.548,1367.235,1599.809,1368.961Z" transform="translate(-1589.48 -1287.266)" fill="url(#linear-gradient-9)"/>
        </g>
      </g>
    </g>
  </g>
</svg>
