<svg id="Better_task_management_" data-name="Better task management " xmlns="http://www.w3.org/2000/svg" width="35.877" height="40.222" viewBox="0 0 35.877 40.222">
  <path id="Path_9043" data-name="Path 9043" d="M346.441,387.736a.481.481,0,1,0-.68.68l1.928,1.928a.481.481,0,0,0,.68,0l3.668-3.667a.481.481,0,0,0-.68-.68l-3.327,3.327Z" transform="translate(-320.49 -355.338)" fill="#fff"/>
  <path id="Path_9044" data-name="Path 9044" d="M34.9,43.543H54.746a2.782,2.782,0,0,0,.8-.121,7.466,7.466,0,1,0,6.9-12.847V9.961a.486.486,0,0,0-.171-.363L57.256,5.226a.839.839,0,0,0-.55-.206L39.713,5a2.906,2.906,0,0,0-2.9,2.883V9.007h-1.9A2.914,2.914,0,0,0,32,11.912V40.64A2.912,2.912,0,0,0,34.9,43.543Zm32.012-5.785a6.506,6.506,0,1,1-6.506-6.506,6.506,6.506,0,0,1,6.506,6.506ZM57.321,6.539l3.373,2.948H57.321ZM37.769,7.883a1.922,1.922,0,0,1,1.922-1.922H56.36V9.979a.47.47,0,0,0,.47.47h4.658v19.92a7.469,7.469,0,0,0-3.846.454V13.965a.486.486,0,0,0-.171-.363L52.43,9.215a.775.775,0,0,0-.508-.191L37.769,9.007Zm18.117,5.61H52.513v-2.95ZM32.962,11.888a1.92,1.92,0,0,1,1.92-1.92H51.552v4.015a.472.472,0,0,0,.472.472H56.68V31.291a7.459,7.459,0,0,0-1.967,11.29H34.906a1.95,1.95,0,0,1-1.944-1.944Z" transform="translate(-32 -5)" fill="#fff"/>
  <path id="Path_9045" data-name="Path 9045" d="M133.038,170.962h5.782a.481.481,0,1,0,0-.962h-5.782a.481.481,0,1,0,0,.962Z" transform="translate(-124.499 -156.778)" fill="#fff"/>
  <path id="Path_9046" data-name="Path 9046" d="M80.934,163.22a1.2,1.2,0,1,0-1.2-1.2A1.2,1.2,0,0,0,80.934,163.22Zm0-1.44a.239.239,0,1,1-.236.239A.239.239,0,0,1,80.934,161.781Z" transform="translate(-75.912 -148.333)" fill="#fff"/>
  <path id="Path_9047" data-name="Path 9047" d="M133.038,240.962h12.034a.481.481,0,1,0,0-.962H133.038a.481.481,0,1,0,0,.962Z" transform="translate(-124.499 -221.169)" fill="#fff"/>
  <path id="Path_9048" data-name="Path 9048" d="M80.934,233.459a1.2,1.2,0,1,0-1.2-1.2A1.2,1.2,0,0,0,80.934,233.459Zm0-1.44a.239.239,0,1,1-.236.239A.239.239,0,0,1,80.934,232.02Z" transform="translate(-75.912 -212.944)" fill="#fff"/>
  <path id="Path_9049" data-name="Path 9049" d="M133.038,310.962h12.034a.481.481,0,1,0,0-.962H133.038a.481.481,0,1,0,0,.962Z" transform="translate(-124.499 -285.56)" fill="#fff"/>
  <path id="Path_9050" data-name="Path 9050" d="M80.934,303.7a1.2,1.2,0,1,0-1.2-1.2A1.2,1.2,0,0,0,80.934,303.7Zm0-1.44a.239.239,0,1,1-.236.239.239.239,0,0,1,.236-.239Z" transform="translate(-75.912 -277.555)" fill="#fff"/>
  <path id="Path_9051" data-name="Path 9051" d="M133.038,381.962h12.034a.481.481,0,1,0,0-.962H133.038a.481.481,0,1,0,0,.962Z" transform="translate(-124.499 -350.871)" fill="#fff"/>
  <path id="Path_9052" data-name="Path 9052" d="M80.934,373.933a1.2,1.2,0,1,0-1.2-1.2A1.2,1.2,0,0,0,80.934,373.933Zm0-1.44a.239.239,0,1,1-.236.239.239.239,0,0,1,.236-.239Z" transform="translate(-75.912 -342.162)" fill="#fff"/>
  <path id="Path_9053" data-name="Path 9053" d="M60.481,82.839a.481.481,0,0,0,.481-.481v-.345a.481.481,0,0,0-.962,0v.345A.481.481,0,0,0,60.481,82.839Z" transform="translate(-57.756 -75.4)" fill="#fff"/>
  <path id="Path_9054" data-name="Path 9054" d="M60.481,113.885a.481.481,0,0,0,.481-.481v-6.09a.481.481,0,1,0-.962,0v6.09a.481.481,0,0,0,.481.481Z" transform="translate(-57.756 -98.673)" fill="#fff"/>
</svg>
