<svg xmlns="http://www.w3.org/2000/svg" width="39.983" height="41.027" viewBox="0 0 39.983 41.027">
  <path id="Budget_management" data-name="Budget management" d="M37.726,31.568h-.935c-.258.364.472-.648.623-.933A19.99,19.99,0,0,0,34.628,5.855,19.994,19.994,0,0,0,8.48,4.01a.6.6,0,1,0,.719.955,18.616,18.616,0,0,1,10.7-3.76V18.892L4.941,9.427A18.99,18.99,0,0,1,7.208,6.694a.6.6,0,0,0-.845-.845A19.839,19.839,0,0,0,.583,18.181a20.061,20.061,0,0,0-.027,3.3,19.77,19.77,0,0,0,4.1,10.712,20.134,20.134,0,0,0,10.14,6.968v.575a1.3,1.3,0,0,0,1.294,1.294h6.284a1.287,1.287,0,0,0,.7-.205,1.285,1.285,0,0,0,.7.205h6.284a1.287,1.287,0,0,0,.7-.205,1.285,1.285,0,0,0,.7.205h6.284a1.3,1.3,0,0,0,1.294-1.294V32.862a1.3,1.3,0,0,0-1.294-1.294Zm-19.167,0H15.988V30.107a.1.1,0,0,1,.1-.1h6.284a.1.1,0,0,1,.1.1v1.461H21.108a.6.6,0,1,0,0,1.195H22.47v1.56H15.988v-1.56h2.571a.6.6,0,1,0,0-1.195Zm5.106-1.461v-.1h6.483v1.56H23.665Zm6.483-1.294H23.665v-1.56h6.483Zm-6.483,3.95h6.483v1.56H23.665Zm6.483-6.7H23.665V24.6a.1.1,0,0,1,.1-.1h6.284a.1.1,0,0,1,.1.1Zm-14.16,9.46H22.47v1.56H15.988Zm7.678,0h6.483v1.56H23.665Zm7.678,0h6.482v1.56H31.343Zm6.482-2.656v1.461H31.343V32.862a.1.1,0,0,1,.1-.1h6.284a.1.1,0,0,1,.1.1Zm-6.383-1.294c-.033,0-.066,0-.1.005V27.552l4.711,2.982q-.358.529-.753,1.034ZM1.733,21.175c-.013-.2-.021-.391-.027-.586H14.861L2,23.364a18.688,18.688,0,0,1-.27-2.189Zm.522,3.357,15.273-3.3L4.52,29.881a18.843,18.843,0,0,1-2.265-5.349ZM4.3,10.437l14.151,8.957H1.707q.016-.525.062-1.05A18.716,18.716,0,0,1,4.3,10.437Zm.879,20.439L20.505,20.693l2.369,1.5a.6.6,0,1,0,.639-1.009L21.09,19.648V1.206a18.795,18.795,0,0,1,15.6,28.318l-5.349-3.386V24.6A1.3,1.3,0,0,0,30.049,23.3H23.765A1.3,1.3,0,0,0,22.47,24.6v4.22c-.033,0-.066-.005-.1-.005H16.087a1.3,1.3,0,0,0-1.294,1.294v7.8a18.77,18.77,0,0,1-9.611-7.031Zm17.189,8.956H16.087a.1.1,0,0,1-.1-.1V38.272H22.47v1.461a.1.1,0,0,1-.1.1Zm7.677,0H23.765a.1.1,0,0,1-.1-.1V38.272h6.483v1.461a.1.1,0,0,1-.1.1Zm7.777-.1a.1.1,0,0,1-.1.1H31.442a.1.1,0,0,1-.1-.1V38.272h6.482Zm0,0" transform="translate(-0.501 0)" fill="#fff"/>
</svg>
