<svg id="Easier_collaboration_" data-name="Easier collaboration " xmlns="http://www.w3.org/2000/svg" width="38.463" height="38.463" viewBox="0 0 38.463 38.463">
  <g id="Group_6845" data-name="Group 6845" transform="translate(15.385)">
    <g id="Group_6844" data-name="Group 6844">
      <path id="Path_9055" data-name="Path 9055" d="M195.846,0a3.846,3.846,0,1,0,3.846,3.846A3.846,3.846,0,0,0,195.846,0Zm0,6.41a2.564,2.564,0,1,1,2.564-2.564A2.564,2.564,0,0,1,195.846,6.41Z" transform="translate(-192 0)" fill="#fff"/>
    </g>
  </g>
  <g id="Group_6847" data-name="Group 6847" transform="translate(13.462 8.334)">
    <g id="Group_6846" data-name="Group 6846">
      <path id="Path_9056" data-name="Path 9056" d="M176.334,104h-.151l-.135.067a5.11,5.11,0,0,1-4.555,0l-.135-.067h-.151A3.209,3.209,0,0,0,168,107.205v3.846a1.923,1.923,0,0,0,1.923,1.923h7.693a1.923,1.923,0,0,0,1.923-1.923v-3.846A3.209,3.209,0,0,0,176.334,104Zm1.923,7.051a.641.641,0,0,1-.641.641h-7.693a.641.641,0,0,1-.641-.641v-3.846a1.923,1.923,0,0,1,1.787-1.918,6.415,6.415,0,0,0,5.4,0,1.923,1.923,0,0,1,1.787,1.918Z" transform="translate(-168 -104)" fill="#fff"/>
    </g>
  </g>
  <g id="Group_6849" data-name="Group 6849" transform="translate(28.847 21.154)">
    <g id="Group_6848" data-name="Group 6848">
      <path id="Path_9057" data-name="Path 9057" d="M363.846,264a3.846,3.846,0,1,0,3.846,3.846A3.846,3.846,0,0,0,363.846,264Zm0,6.41a2.564,2.564,0,1,1,2.564-2.564A2.564,2.564,0,0,1,363.846,270.41Z" transform="translate(-360 -264)" fill="#fff"/>
    </g>
  </g>
  <g id="Group_6851" data-name="Group 6851" transform="translate(26.924 29.488)">
    <g id="Group_6850" data-name="Group 6850">
      <path id="Path_9058" data-name="Path 9058" d="M344.334,368h-.151l-.135.064a5.111,5.111,0,0,1-4.555,0l-.135-.064h-.151A3.209,3.209,0,0,0,336,371.205v3.846a1.923,1.923,0,0,0,1.923,1.923h7.693a1.923,1.923,0,0,0,1.923-1.923v-3.846A3.209,3.209,0,0,0,344.334,368Zm1.923,7.051a.641.641,0,0,1-.641.641h-7.693a.641.641,0,0,1-.641-.641v-3.846a1.923,1.923,0,0,1,1.787-1.918,6.415,6.415,0,0,0,5.4,0,1.923,1.923,0,0,1,1.787,1.918Z" transform="translate(-336 -368)" fill="#fff"/>
    </g>
  </g>
  <g id="Group_6853" data-name="Group 6853" transform="translate(1.923 21.154)">
    <g id="Group_6852" data-name="Group 6852">
      <path id="Path_9059" data-name="Path 9059" d="M27.846,264a3.846,3.846,0,1,0,3.846,3.846A3.846,3.846,0,0,0,27.846,264Zm0,6.41a2.564,2.564,0,1,1,2.564-2.564A2.564,2.564,0,0,1,27.846,270.41Z" transform="translate(-24 -264)" fill="#fff"/>
    </g>
  </g>
  <g id="Group_6855" data-name="Group 6855" transform="translate(0 29.488)">
    <g id="Group_6854" data-name="Group 6854">
      <path id="Path_9060" data-name="Path 9060" d="M8.334,368H8.182l-.135.064a5.111,5.111,0,0,1-4.555,0L3.357,368H3.205A3.209,3.209,0,0,0,0,371.205v3.846a1.923,1.923,0,0,0,1.923,1.923H9.616a1.923,1.923,0,0,0,1.923-1.923v-3.846A3.209,3.209,0,0,0,8.334,368Zm1.923,7.051a.641.641,0,0,1-.641.641H1.923a.641.641,0,0,1-.641-.641v-3.846a1.923,1.923,0,0,1,1.787-1.918,6.415,6.415,0,0,0,5.4,0,1.923,1.923,0,0,1,1.787,1.918Z" transform="translate(0 -368)" fill="#fff"/>
    </g>
  </g>
  <g id="Group_6857" data-name="Group 6857" transform="translate(12.821 31.411)">
    <g id="Group_6856" data-name="Group 6856">
      <path id="Path_9061" data-name="Path 9061" d="M172.768,393.14v0a.641.641,0,0,0-.841-.339h0a14.22,14.22,0,0,1-9.143.63l.6-.176a.641.641,0,1,0-.36-1.231l-2.564.752c-.01,0-.017.011-.026.014a.635.635,0,0,0-.165.092.56.56,0,0,0-.064.04.621.621,0,0,0-.157.218.642.642,0,0,0-.049.265,1.976,1.976,0,0,0,.064.256c0,.009,0,.019.007.028l1.282,2.453a.641.641,0,1,0,1.137-.594l-.522-1a15.431,15.431,0,0,0,10.461-.569A.641.641,0,0,0,172.768,393.14Z" transform="translate(-159.998 -391.995)" fill="#fff"/>
    </g>
  </g>
  <g id="Group_6859" data-name="Group 6859" transform="translate(24.36 5.018)">
    <g id="Group_6858" data-name="Group 6858">
      <path id="Path_9062" data-name="Path 9062" d="M315.99,74.459a.641.641,0,0,0-.906,0l-.907.907a15.362,15.362,0,0,0-9.286-12.693.641.641,0,0,0-.5,1.18,14.082,14.082,0,0,1,8.479,11.329l-.723-.723a.641.641,0,0,0-.906.906l1.923,1.923a.641.641,0,0,0,.907,0h0l1.923-1.923A.641.641,0,0,0,315.99,74.459Z" transform="translate(-303.998 -62.622)" fill="#fff"/>
    </g>
  </g>
  <g id="Group_6861" data-name="Group 6861" transform="translate(3.846 3.857)">
    <g id="Group_6860" data-name="Group 6860">
      <path id="Path_9063" data-name="Path 9063" d="M58.238,49.828a.6.6,0,0,0-.017-.111c0-.006-.007-.01-.01-.016s0-.011,0-.016a.615.615,0,0,0-.06-.088.647.647,0,0,0-.073-.106.6.6,0,0,0-.125-.085.564.564,0,0,0-.072-.052l-2.564-1.171a.641.641,0,0,0-.532,1.165l1.328.607A15.362,15.362,0,0,0,48,63.509a.641.641,0,0,0,1.282,0A14.081,14.081,0,0,1,56.22,51.365l-.463.969a.641.641,0,0,0,.3.855.631.631,0,0,0,.278.064.641.641,0,0,0,.577-.363l1.282-2.675a.029.029,0,0,1,.005-.02.617.617,0,0,0,.035-.136.664.664,0,0,0,.024-.106A.639.639,0,0,0,58.238,49.828Z" transform="translate(-48 -48.134)" fill="#fff"/>
    </g>
  </g>
</svg>
