<svg id="Effective_client_communication_" data-name="Effective client communication " xmlns="http://www.w3.org/2000/svg" width="41.027" height="39.718" viewBox="0 0 41.027 39.718">
  <path id="Path_9064" data-name="Path 9064" d="M2.194,32.68a2.642,2.642,0,0,0,5.122-.906V30.3a3.028,3.028,0,0,1-1.426-.232,4.917,4.917,0,0,1-.123.486,3.161,3.161,0,0,1-1,1.574,2.931,2.931,0,0,1-2.069.6,4.507,4.507,0,0,1-.5-.052Zm15.569-3.936h5.283v-1.66H18.978A1.221,1.221,0,0,0,17.763,28.3Zm5.283,1.2H17.763v1.828a2.642,2.642,0,0,0,5.283,0V29.945Zm16.468,4.011a2.862,2.862,0,0,1,.84.677,2.815,2.815,0,0,1,.672,1.826v4.052a.6.6,0,0,1-1.2,0V36.46a1.623,1.623,0,0,0-.386-1.052,1.651,1.651,0,0,0-.831-.527,3.824,3.824,0,0,1-4.575-.048,1.148,1.148,0,0,0-.354.1,1.1,1.1,0,0,0-.409.334l-3.228,4.275a.6.6,0,0,1-.479.241H25.427a1.107,1.107,0,1,0,0,2.215h4.94a1.08,1.08,0,0,0,.538-.116,3.559,3.559,0,0,0,.915-1.024l2.137-2.828a.6.6,0,1,1,.956.722l-2.033,2.694v5.238h6.944v-3.45a.6.6,0,0,1,1.2,0v4.052a.6.6,0,0,1-.6.6H.6a.6.6,0,0,1-.6-.6V43.233a.6.6,0,0,1,1.2,0v3.45H8.148V41.446L6.112,38.752a.6.6,0,0,1,.959-.722L9.161,40.8q.286.378.572.761a1.106,1.106,0,0,0,.391.325,1.051,1.051,0,0,0,.5.116H15.6a1.107,1.107,0,1,0,0-2.215H11.464a.6.6,0,0,1-.479-.241L7.757,35.267a1.111,1.111,0,0,0-.763-.434,3.829,3.829,0,0,1-4.575.05A1.647,1.647,0,0,0,1.6,35.4a1.627,1.627,0,0,0-.4,1.063v4.052a.6.6,0,0,1-1.2,0V36.46a2.823,2.823,0,0,1,.69-1.847,2.892,2.892,0,0,1,.825-.656,3.811,3.811,0,0,1-.684-2.183V28.3a2.42,2.42,0,0,1,2.414-2.417H6.1A2.42,2.42,0,0,1,8.518,28.3v3.475A3.818,3.818,0,0,1,7.9,33.866a2.326,2.326,0,0,1,.82.679l3.046,4.034h2.405V36.142a2.507,2.507,0,0,1,.959-1.844,6.316,6.316,0,0,1,1.731-1.047,3.815,3.815,0,0,1-.3-1.476V28.3a2.42,2.42,0,0,1,2.417-2.417h4.67a.6.6,0,0,1,.6.6v5.29a3.844,3.844,0,0,1-.266,1.4,6.54,6.54,0,0,1,1.858,1.067,2.546,2.546,0,0,1,1.018,1.9v2.437h2.405l3.046-4.034a2.3,2.3,0,0,1,.822-.677,3.815,3.815,0,0,1-.625-2.094V28.3a2.42,2.42,0,0,1,2.417-2.417h2.855A2.42,2.42,0,0,1,40.2,28.3v3.475a3.829,3.829,0,0,1-.684,2.183Zm-.681-1.277a4.451,4.451,0,0,1-.5.052,2.929,2.929,0,0,1-2.067-.6,3.149,3.149,0,0,1-1.006-1.574,4.909,4.909,0,0,1-.12-.486,3.039,3.039,0,0,1-1.429.232v1.47a2.642,2.642,0,0,0,5.122.906ZM33.711,29.1a1.958,1.958,0,0,0,1.492-.443.608.608,0,0,1,.391-.168.6.6,0,0,1,.627.57,4.788,4.788,0,0,0,.186,1.147,1.99,1.99,0,0,0,.609.993,1.8,1.8,0,0,0,1.261.336,4.327,4.327,0,0,0,.72-.1V28.3a1.226,1.226,0,0,0-1.215-1.215H34.926A1.225,1.225,0,0,0,33.711,28.3Zm-26.394,0v-.8A1.221,1.221,0,0,0,6.1,27.083H3.246A1.221,1.221,0,0,0,2.033,28.3v3.132a4.277,4.277,0,0,0,.718.1A1.8,1.8,0,0,0,4.011,31.2a2.01,2.01,0,0,0,.611-.993,4.674,4.674,0,0,0,.184-1.147.6.6,0,0,1,1.013-.407,1.96,1.96,0,0,0,1.5.447ZM17.5,34.284a5.219,5.219,0,0,0-1.576.906,1.371,1.371,0,0,0-.554.952v2.437H15.6A2.309,2.309,0,0,1,17.629,42H23.4a2.312,2.312,0,0,1,2.028-3.419h.232V36.142a1.415,1.415,0,0,0-.6-.988,5.588,5.588,0,0,0-1.7-.934c-.077.093-.159.184-.243.268a3.83,3.83,0,0,1-5.431,0q-.1-.1-.191-.2ZM5.009,12.617a.6.6,0,0,1,0-1.2H16.134a.6.6,0,0,1,0,1.2Zm0,6.324a.6.6,0,0,1,0-1.2h5.563a.6.6,0,1,1,0,1.2Zm0-3.162a.6.6,0,0,1,0-1.2H16.134a.6.6,0,0,1,0,1.2ZM16.75,22.186a1.661,1.661,0,0,0,.388.613,1.68,1.68,0,0,0,1.2.5h3.532a.6.6,0,0,1,0,1.2H18.335a2.871,2.871,0,0,1-2.047-.854,2.921,2.921,0,0,1-.786-1.458H7.123L4.4,24.907a.6.6,0,0,1-1.029-.422V22.136A3.656,3.656,0,0,1,.332,18.543V11.81A3.653,3.653,0,0,1,3.975,8.167H17.168a3.653,3.653,0,0,1,3.643,3.643v1.113H31.019a2.9,2.9,0,0,1,2.894,2.894V21.6a2.9,2.9,0,0,1-2.294,2.83V26.8a.6.6,0,0,1-1.025.425L27.871,24.5H24.589a.6.6,0,1,1,0-1.2h3.532a.594.594,0,0,1,.427.179l1.869,1.869V23.9a.6.6,0,0,1,.6-.6A1.7,1.7,0,0,0,32.711,21.6V15.817a1.7,1.7,0,0,0-1.692-1.692H20.811v4.418a3.653,3.653,0,0,1-3.643,3.643H16.75Zm-9.876-1.2H17.168a2.451,2.451,0,0,0,2.442-2.442V11.81a2.451,2.451,0,0,0-2.442-2.442H3.975A2.451,2.451,0,0,0,1.533,11.81v6.733a2.451,2.451,0,0,0,2.442,2.442.6.6,0,0,1,.6.6v1.447l1.874-1.872a.6.6,0,0,1,.425-.177ZM31.68,43.2H9.349v3.484H31.68V43.2Z" transform="translate(0 -8.167)" fill="#fff"/>
</svg>
