<svg id="File_organization" data-name="File organization" xmlns="http://www.w3.org/2000/svg" width="41.027" height="40.627" viewBox="0 0 41.027 40.627">
  <path id="Path_9065" data-name="Path 9065" d="M40.689,7.471,35.846,2.852a.983.983,0,0,0-.731-.359h-19.4a1.029,1.029,0,0,0-1.028,1.028V6.676L7.848,7.849a1.013,1.013,0,0,0-.822,1.168l.347,2.023c-2.223.748-4.5,1.519-6.707,2.31a1.017,1.017,0,0,0-.608,1.293L4.44,26.824a.6.6,0,0,0,1.131-.407l-4.317-12c2.075-.743,4.225-1.47,6.325-2.177L9.644,24.279,12.02,38.144a1.018,1.018,0,0,0,1.168.824l6.436-1.1L24.653,37,17.09,39.72l-5.965,2.145L6.493,28.98a.6.6,0,0,0-1.131.407l4.7,13.067a1.015,1.015,0,0,0,.951.666.994.994,0,0,0,.342-.061L17.5,40.851l13.95-5.014,2.665-.457H40a1.03,1.03,0,0,0,1.028-1.03V8.148a.865.865,0,0,0-.338-.677ZM39.1,7.614H36.015c-.144,0-.481,0-.567-.081a.338.338,0,0,1-.043-.207L35.4,4.087Zm.728,26.564H15.888V22.465a.6.6,0,1,0-1.2,0V34.35a1.03,1.03,0,0,0,1.028,1.03H27l-7.576,1.3-6.249,1.072L10.829,24.075,8.243,9l6.443-1.1V19.677a.6.6,0,1,0,1.2,0V3.695H34.2L34.2,7.327a1.431,1.431,0,0,0,.4,1.059,1.838,1.838,0,0,0,1.335.431h3.888Z" transform="translate(0 -2.493)" fill="#fff"/>
  <path id="Path_9066" data-name="Path 9066" d="M234.43,112.05a.6.6,0,0,0,.6.6h17.183a.6.6,0,0,0,0-1.2H235.031A.6.6,0,0,0,234.43,112.05Z" transform="translate(-215.645 -102.718)" fill="#fff"/>
  <path id="Path_9067" data-name="Path 9067" d="M252.214,164.731H235.031a.6.6,0,1,0,0,1.2h17.183a.6.6,0,0,0,0-1.2Z" transform="translate(-215.645 -151.731)" fill="#fff"/>
  <path id="Path_9068" data-name="Path 9068" d="M252.214,218.013H235.031a.6.6,0,0,0,0,1.2h17.183a.6.6,0,0,0,0-1.2Z" transform="translate(-215.645 -200.743)" fill="#fff"/>
  <path id="Path_9069" data-name="Path 9069" d="M252.214,271.3H235.031a.6.6,0,1,0,0,1.2h17.183a.6.6,0,1,0,0-1.2Z" transform="translate(-215.645 -249.756)" fill="#fff"/>
  <path id="Path_9070" data-name="Path 9070" d="M252.214,324.578H235.031a.6.6,0,1,0,0,1.2h17.183a.6.6,0,0,0,0-1.2Z" transform="translate(-215.645 -298.769)" fill="#fff"/>
</svg>
