<svg id="Risk_identification_and_reduction_" data-name="Risk identification and reduction " xmlns="http://www.w3.org/2000/svg" width="38.509" height="38.502" viewBox="0 0 38.509 38.502">
  <path id="Path_9071" data-name="Path 9071" d="M120,264h1.923v1.282H120Z" transform="translate(-111.666 -244.088)" fill="#fff"/>
  <path id="Path_9072" data-name="Path 9072" d="M176,304h1.923v1.282H176Z" transform="translate(-163.179 -280.883)" fill="#fff"/>
  <path id="Path_9073" data-name="Path 9073" d="M120,304h3.205v1.282H120Z" transform="translate(-111.666 -280.883)" fill="#fff"/>
  <path id="Path_9074" data-name="Path 9074" d="M56,304h3.846v1.282H56Z" transform="translate(-52.795 -280.883)" fill="#fff"/>
  <path id="Path_9075" data-name="Path 9075" d="M104,344h7.693v1.282H104Z" transform="translate(-96.948 -317.678)" fill="#fff"/>
  <path id="Path_9076" data-name="Path 9076" d="M56,344h2.564v1.282H56Z" transform="translate(-52.795 -317.678)" fill="#fff"/>
  <path id="Path_9077" data-name="Path 9077" d="M152,384h3.846v1.282H152Z" transform="translate(-141.102 -354.473)" fill="#fff"/>
  <path id="Path_9078" data-name="Path 9078" d="M56,384h6.41v1.282H56Z" transform="translate(-52.795 -354.473)" fill="#fff"/>
  <path id="Path_9079" data-name="Path 9079" d="M104,424h3.846v1.282H104Z" transform="translate(-96.948 -391.268)" fill="#fff"/>
  <path id="Path_9080" data-name="Path 9080" d="M56,424h2.564v1.282H56Z" transform="translate(-52.795 -391.268)" fill="#fff"/>
  <path id="Path_9081" data-name="Path 9081" d="M53.181,210.564a.641.641,0,0,0-.641-.641H48.693a.641.641,0,0,0-.641.641v3.205H44.847a.641.641,0,0,0-.641.641v3.205H41a.641.641,0,0,0-.641.641v3.205H37.155a.641.641,0,0,0-.641.641v3.846h-4.6a1.923,1.923,0,1,0,0,1.282h.751v1.923a.642.642,0,0,1-.641.641h-14.1a.642.642,0,0,1-.641-.641V214.41h3.205a1.925,1.925,0,0,0,1.923-1.923v-3.205h9.616a.642.642,0,0,1,.641.641v.641h1.282v-.641A1.925,1.925,0,0,0,32.026,208H22.3a1.911,1.911,0,0,0-1.36.563l-4.377,4.377A1.911,1.911,0,0,0,16,214.3v14.854a1.925,1.925,0,0,0,1.923,1.923h14.1a1.925,1.925,0,0,0,1.923-1.923v-1.923H54.463v-1.282H53.181Zm-32.052-.375v2.3a.642.642,0,0,1-.641.641h-2.3ZM30.1,227.231a.641.641,0,1,1,.641-.641A.641.641,0,0,1,30.1,227.231Zm7.693-4.487H40.36v3.205H37.8Zm3.846-3.846h2.564v7.051H41.642Zm3.846-3.846h2.564v10.9H45.488Zm3.846,10.9V211.205H51.9v14.744Z" transform="translate(-16 -192.576)" fill="#fff"/>
  <path id="Path_9082" data-name="Path 9082" d="M17.923,68.811a1.923,1.923,0,0,0,1.735-2.752l1.923-1.924a1.922,1.922,0,0,0,2.641-1.094h2.785a1.923,1.923,0,0,0,3.709-.323l3.62-3.1a1.923,1.923,0,1,0-.872-.941L30.4,61.3a1.922,1.922,0,0,0-3.391.457H24.223a1.923,1.923,0,1,0-3.548,1.47l-1.923,1.924a1.923,1.923,0,1,0-.829,3.658ZM35.231,57.272a.641.641,0,1,1-.641.641A.641.641,0,0,1,35.231,57.272Zm-6.41,4.487a.641.641,0,1,1-.641.641.641.641,0,0,1,.641-.641Zm-6.41,0a.641.641,0,1,1-.641.641A.641.641,0,0,1,22.41,61.759Zm-4.487,4.487a.641.641,0,1,1-.641.641A.641.641,0,0,1,17.923,66.246Z" transform="translate(-15.999 -52.745)" fill="#fff"/>
  <path id="Path_9083" data-name="Path 9083" d="M173.584,30.544l-4.237,4.237h-5.614a1.923,1.923,0,1,0,0,1.282h1.392V47.6h1.282V36.064h3.205a.641.641,0,0,0,.453-.188l4.627-4.627a8.356,8.356,0,1,0-1.108-.705Zm-11.664,5.519a.641.641,0,1,1,.641-.641A.641.641,0,0,1,161.919,36.064Zm21.809-7.36-3.714-4.179h5.595A7.028,7.028,0,0,1,183.729,28.7Zm1.88-5.461h-6.381V16.862A7.063,7.063,0,0,1,185.609,23.243Zm-7.663-6.381v7.022a.638.638,0,0,0,.162.425h0l4.663,5.246a7.05,7.05,0,1,1-4.825-12.694Z" transform="translate(-148.457 -15.511)" fill="#fff"/>
</svg>
