<svg xmlns="http://www.w3.org/2000/svg" width="464.541" height="305.771" viewBox="0 0 464.541 305.771">
  <g id="Teamwork_At_its_Best" data-name="Teamwork At its Best" transform="translate(-95.569)">
    <g id="Group_6977" data-name="Group 6977" transform="translate(95.569)">
      <path id="Path_9397" data-name="Path 9397" d="M268.833,636.69S217.682,500.2,318.5,500.2c53.267,0,31.323-37.449,67.538-80.79s162.862-77.965,189.818,5.727-39.661,147.234,24.71,136.333c77.356-13.1,107.914,75.223,107.914,75.223Z" transform="translate(-255.857 -330.92)" fill="#eee"/>
      <path id="Path_9398" data-name="Path 9398" d="M1360.244,1190.83c-5.981-4.371-18.2-1.419-27.224,1.737a41.05,41.05,0,0,0-4.958-5.752c19.433-12.518,46.272-39.214,32.046-41.474-12.366-1.963-29.053,22.066-37.973,36.692-9.262-6.231-23.453-10.811-45.12-9.221-56.232,4.122-100.162-32.148-132.544-20.052-25.746,9.618-49.342,15.008-72.1,13.167.979-16.624,1.193-49.262-11.863-52.647-13.253-3.437-.254,33.629,6.972,52.137q-2.544-.326-5.074-.776c-4.677-9.224-12.386-21.295-20.853-21.71-7.972-.388,1.866,10.464,11.55,19.658-27.827-5.843-60.837,16.778-61.386,43.524h347.415a32.162,32.162,0,0,0-3.342-9.051C1349.222,1196.8,1366.74,1195.578,1360.244,1190.83Z" transform="translate(-911.486 -902.377)" fill="#dbdbdb"/>
      <g id="Group_6962" data-name="Group 6962" transform="translate(36.221 283.063)">
        <g id="Group_6961" data-name="Group 6961" transform="translate(0)">
          <rect id="Rectangle_807" data-name="Rectangle 807" width="91.566" height="20.676" transform="translate(28.233)" fill="#6a6a6a"/>
          <rect id="Rectangle_808" data-name="Rectangle 808" width="91.564" height="20.678" fill="#bcbcbc"/>
        </g>
      </g>
      <g id="Group_6965" data-name="Group 6965" transform="translate(171.016 208.436)">
        <g id="Group_6964" data-name="Group 6964" transform="translate(0 0)">
          <g id="Group_6963" data-name="Group 6963">
            <rect id="Rectangle_809" data-name="Rectangle 809" width="68.181" height="95.298" transform="translate(89.206 95.298) rotate(180)" fill="#333"/>
            <rect id="Rectangle_810" data-name="Rectangle 810" width="68.181" height="95.298" transform="translate(68.181 95.298) rotate(180)" fill="#545454"/>
          </g>
        </g>
        <path id="Path_9399" data-name="Path 9399" d="M1692.82,1103.17l21.023,14.309V1103.17Z" transform="translate(-1624.639 -1103.17)" fill="#0a0a0a"/>
      </g>
      <g id="Group_6969" data-name="Group 6969" transform="translate(172.665 36.561)">
        <path id="Path_9409" data-name="Path 9409" d="M1751.446,491.786c-1.054-.161-4.231,2.777-4.231,2.777h0c-6.782.784-16.7,2.585-20.268,3.272-2.531.487-9.335-1.832-15.983-4.5-7.906-3.17-15.588-6.825-15.588-6.825-4.387-.224-9.369,7.779-.472,12.869,1.358.778,6.462,2.1,12.337,3.313h0c8.106,1.671,17.681,3.12,20.941,2.61,3.786-.592,14.5-4.512,20.88-7.516h0a.064.064,0,0,0,.016-.009l.07-.034a7.811,7.811,0,0,1,2.984-.812c1.195.07,3.854-2.115,3.936-2.7S1752.5,491.945,1751.446,491.786Z" transform="translate(-1624.079 -454.452)" fill="#ffd4b7"/>
        <path id="Path_9410" data-name="Path 9410" d="M1696.286,720.191l-3.734.76s-17.089-19.2-19.726-27.281c-1.41-4.317-10.432-6.183-19.862-8.62-8.205-2.122-16.719-4.678-20.787-9.666-8.74-10.715,5.489-23.884,5.489-23.884s15.128,8.992,28.181,18.279c9.121,6.491,17.229,13.128,18.451,16.942C1687.266,696,1693.558,713.63,1696.286,720.191Z" transform="translate(-1577.199 -582.033)" fill="#484848"/>
        <path id="Path_9411" data-name="Path 9411" d="M1896.734,956.426h2.1c.7-.111,1.222-.315,1.945-.408a1.955,1.955,0,0,1,1.7.408l.02.02h8.922c.224-.32.009-1.063-.2-1.61a1.269,1.269,0,0,0-.834-.764,9.629,9.629,0,0,1-4.519-2.066c-.962-.868-4.641-3.192-4.641-3.192l-.021,0c-.082,0-.465.12-2.14,1.533-.866.73-2.34-1.029-2.34-1.029a2.1,2.1,0,0,0-.483.655,2.225,2.225,0,0,0-.193,1.369,8.865,8.865,0,0,1-.639,3.308c-.209.612-.383,1.048-.383,1.048S1894.927,956.2,1896.734,956.426Z" transform="translate(-1782.647 -811.933)" fill="#363636"/>
        <path id="Path_9412" data-name="Path 9412" d="M1665.847,669.789l-12.883,15.271c-8.205-2.122-16.719-4.678-20.787-9.666-8.74-10.715,5.489-23.884,5.489-23.884S1652.8,660.5,1665.847,669.789Z" transform="translate(-1577.199 -582.041)"/>
        <path id="Path_9413" data-name="Path 9413" d="M1597.178,677.17s-1.038,3.274-2.73,8.2c-2.138,6.231-5.321,15.1-8.777,23.326-.76,1.807-1.531,3.585-2.308,5.3-2.873,6.33-5.813,11.756-8.4,14.516-4.652,4.959-15.96,36.828-15.96,36.828l-2.818-.78s-3.929-27.215,9.988-42.7a.978.978,0,0,0,.281-.578.009.009,0,0,0,0-.007c.186-2.292.848-12.559,2.288-22.959.354-2.553.755-5.111,1.206-7.562.027-.156.059-.313.086-.467,2.118-11.337,4.145-16.379,6.761-18.914l19.241,5.478Z" transform="translate(-1520.237 -597.398)" fill="#787878"/>
        <path id="Path_9414" data-name="Path 9414" d="M1550.722,1077.114h2.1c.7-.111,1.222-.315,1.946-.408a1.955,1.955,0,0,1,1.7.408l.02.021h8.922c.225-.32.009-1.063-.2-1.61a1.269,1.269,0,0,0-.834-.764,9.621,9.621,0,0,1-4.519-2.063c-.961-.868-4.641-3.192-4.641-3.192l-.02,0c-.082,0-.465.12-2.14,1.533-.866.73-2.34-1.03-2.34-1.03a2.1,2.1,0,0,0-.483.655,2.208,2.208,0,0,0-.19,1.37,8.872,8.872,0,0,1-.639,3.308c-.209.612-.383,1.048-.383,1.048S1548.915,1076.887,1550.722,1077.114Z" transform="translate(-1515.089 -905.259)" fill="#363636"/>
        <path id="Path_9415" data-name="Path 9415" d="M1439.142,529.431s-3.219,7.877-6.931,15.543c-3.122,6.446-6.591,12.743-8.79,14.085-3.1,1.9-11.645,7.24-17.189,11.226,0,0-4.326-.032-5,.8s-2.222,4.548-1.771,4.925,3.891.2,4.727-.655a7.8,7.8,0,0,1,2.755-1.408l.075-.023.018,0h0c6.736-2.072,17.3-6.389,20.5-8.5,2.752-1.818,8.858-9.337,13.726-16.028h0c3.53-4.85,6.41-9.267,6.891-10.756C1451.309,528.875,1442.235,526.311,1439.142,529.431Z" transform="translate(-1399.383 -486.671)" fill="#ffd4b7"/>
        <path id="Path_9416" data-name="Path 9416" d="M1586.281,356.994a15.976,15.976,0,0,0-1.154-1.49,3.647,3.647,0,0,0,1.422-.213c1.129-.467,1.646-4.054,1.476-5.12s-1.739-4.14-3.675-4.449-3.936,1.843-3.936,1.843c.358-1.551,3.632-2.446,3.632-2.446-6.745,1.245-6.4,5.743-6.355,6.158-6.176-2.2-9.8,9.43-9.8,9.43l16,9.425s.041-2.569,1.569-2.4C1587.834,367.991,1589.815,362.145,1586.281,356.994Z" transform="translate(-1529.684 -345.12)" fill="#303030"/>
        <path id="Path_9417" data-name="Path 9417" d="M1613.715,461.482c-3.671,1.73-8.541-.762-8.514-.789.315-.315.2-1.256-.084-2.49a18.111,18.111,0,0,0-2.229-5.138c-.263-.447-.523-.891-.839-1.363l.419-.156,7.131-2.857s1.154,2.07,2.36,3.959c1.023,1.574,2.1,2.988,2.569,2.936C1614.554,455.558,1619.273,458.809,1613.715,461.482Z" transform="translate(-1556.099 -425.207)" fill="#ffd4b7"/>
        <path id="Path_9418" data-name="Path 9418" d="M1612.451,451.81c-.184,2.542-1.047,7.131-4.483,8.809a18.126,18.126,0,0,0-2.229-5.138Z" transform="translate(-1558.952 -427.62)" fill="#ed975d"/>
        <path id="Path_9419" data-name="Path 9419" d="M1576.921,419.6s9.282-3.66,6.916-9.4-2.764-10.087-8.791-7.995-6.269,4.757-5.945,6.868S1574.445,420.4,1576.921,419.6Z" transform="translate(-1530.549 -388.843)" fill="#ffd4b7"/>
        <path id="Path_9420" data-name="Path 9420" d="M1576.474,406.831c4.285-.605,5.537-2.338,5.537-2.338a11.876,11.876,0,0,1-6.267-5s-4.818-1.626-8.389,1.091a2.381,2.381,0,0,0-.451,1.007c-.818-.268-2.05-.2-2.759,2.115-1.068,3.474,2.728,7.269,2.728,7.269.921-.261-.118-3.356-.263-5.009a7.839,7.839,0,0,1,.9-3.512c.453.589,4.977,6.271,10.5,6.5a23.3,23.3,0,0,1-5.571-2.991A7.154,7.154,0,0,0,1576.474,406.831Z" transform="translate(-1526.641 -386.793)" fill="#101010"/>
        <path id="Path_9421" data-name="Path 9421" d="M1593.979,493.568c-.08-.277-.163-.565-.252-.859a21.725,21.725,0,0,0,2.342-7.02,14.077,14.077,0,0,0-.444-6.868s-6.439-3.415-9.282-3.85a.226.226,0,0,0-.036-.011c-.034,0-.073-.009-.114-.011-2.87-.4-9.083.873-9.083.873a4.5,4.5,0,0,1-2.183,5.319c-3.38,2.127-6.992-.544-6.992-.544-.109.072-.225.154-.345.238h0s-8.9,5.87-9.7,7.212-4.221,7.983-4.221,7.983,1.086,5.578,13.1,6.042a27.785,27.785,0,0,1,1.991,6.684c.955,7.571-.154,13.541.959,17.96s21.168,1.9,24.8,1.05,2.816-4.727,3.1-8.5C1597.971,514.534,1595.162,497.742,1593.979,493.568Z" transform="translate(-1518.688 -445.452)" fill="#a8a8a8"/>
        <path id="Path_9422" data-name="Path 9422" d="M1720.1,516.67a21.771,21.771,0,0,1-2.36,7.052c-.315-1.39-1.6-6.476-3.671-8.781A17.767,17.767,0,0,1,1720.1,516.67Z" transform="translate(-1642.72 -476.436)" fill="#747474"/>
      </g>
      <g id="Group_6973" data-name="Group 6973" transform="translate(62.162 83.25)">
        <path id="Path_9423" data-name="Path 9423" d="M1380.387,719.645a63.133,63.133,0,0,1,4.542-5.063,13.828,13.828,0,0,1,4.535-1.286c.2.188.211.462-.227.848s-2.106,1.36-1.868,1.469,5.274-2.4,6-1.553-.41,4.324-2.351,5.993-7.732,2.381-8.1,2.612C1379.832,724.642,1380.387,719.645,1380.387,719.645Z" transform="translate(-1274.161 -676.489)" fill="#ffd4b7"/>
        <path id="Path_9424" data-name="Path 9424" d="M1090.39,654.4s5.367,6.369,12.2,3.7a20.7,20.7,0,0,0,1.492-6.179c0-.322.007-.635.011-.932.036-2.952.136-4.609.136-4.609l-.007,0c-.311-.129-10.45-4.292-10.441-3.947C1093.959,650.417,1090.39,654.4,1090.39,654.4Z" transform="translate(-1049.946 -621.694)" fill="#ffd4b7"/>
        <path id="Path_9425" data-name="Path 9425" d="M1109.828,650.645a15.857,15.857,0,0,0,9.294,6.652c.036-2.952.136-4.61.136-4.61l-.007,0C1118.969,652.613,1109.537,650.109,1109.828,650.645Z" transform="translate(-1064.971 -628.003)" fill="#ed975d"/>
        <path id="Path_9426" data-name="Path 9426" d="M1110.709,594.467s-11.4,2.68-12.962-4.446-4.081-11.579,3.131-13.593,9.228.4,10.328,2.648S1113.634,593.588,1110.709,594.467Z" transform="translate(-1054.298 -570.089)" fill="#ffd4b7"/>
        <path id="Path_9427" data-name="Path 9427" d="M1078.315,572.916c-.157.1-2.61.853-7.256-8.4a8.057,8.057,0,0,1,.474-7.373c1.7-2.778,7.729-4.961,12.738-5.911s6.21,1.868,7.392,4.7c1.238,2.973,4.813,5.421,4.813,5.421-4.319,2.412-9.52-1.038-11.323-.472s-2.44,3.408-2.574,4.319-.342,1.667-2.609.853-1.025,3.213-.662,3.981C1079.306,570.032,1079.614,572.082,1078.315,572.916Z" transform="translate(-1034.477 -551.041)" fill="#1d1d1d"/>
        <g id="Group_6970" data-name="Group 6970" transform="translate(0 87.535)">
          <path id="Path_9428" data-name="Path 9428" d="M926.48,1373.379h-6.9c-1.447,0-3.056-1.469-3.458-4.156s-3.378-4.156-4.022-6.358,2.655-5.3,2.655-5.3l.551-.719.574-.748,5.469,1.3s.134,1.32.22,3c.059,1.213.091,2.617.023,3.848-.161,2.936.812,6.094,3.383,6.666S926.48,1373.379,926.48,1373.379Z" transform="translate(-912.012 -1261.101)" fill="#363636"/>
          <path id="Path_9429" data-name="Path 9429" d="M1121.1,1397.615h-18.3a1.681,1.681,0,0,1-.388-.116c-1.222-.63-.839-5.446-.692-6.933.027-.274.048-.437.048-.437s6.435-5.3,7.321-1.243c.027.127.061.252.1.374v0c1.118,3.8,6.111,5.521,8.995,6C1120.387,1395.634,1120.958,1396.956,1121.1,1397.615Z" transform="translate(-1058.575 -1285.271)" fill="#363636"/>
          <path id="Path_9430" data-name="Path 9430" d="M1078.39,960.081s-.977,12.194-2.127,26.85c-1.562,19.912-3.44,44.367-3.625,49-.322,8.044-1.61,20.914-1.61,20.914s-3.054,3.056-9.169,1.769a210.586,210.586,0,0,1-7.006-37.808c-.025-.32-.048-.639-.073-.961-1.447-19.787-3.7-61.454-3.7-61.454Z" transform="translate(-1019.549 -953.565)" fill="#565656"/>
          <path id="Path_9431" data-name="Path 9431" d="M1078.4,960.089s-.977,12.194-2.127,26.85l-21.408,33.876c-.025-.32-.048-.639-.073-.961-1.446-19.787-3.7-61.454-3.7-61.454Z" transform="translate(-1019.557 -953.573)" fill="#2d2d2d"/>
          <path id="Path_9432" data-name="Path 9432" d="M975.721,945.075s-17.615,44.159-29.2,64.912-15.2,26.544-15.2,26.544-6.636-2.655-7.24-4.464c0,0,4.43-40.064,12.187-49.832,4.383-5.519,9.532-22.079,9.772-27.87s1.569-17.254,1.569-17.254Z" transform="translate(-921.344 -937.11)" fill="#686868"/>
        </g>
        <g id="Group_6971" data-name="Group 6971" transform="translate(5.415 33.407)">
          <path id="Path_9433" data-name="Path 9433" d="M944.527,932.373a59.4,59.4,0,0,1-.791,6.362,13.064,13.064,0,0,1-2.818,3.435c-.256-.036-.413-.245-.281-.778s.9-2.186.655-2.143-2.793,4.693-3.807,4.43-2.009-3.569-1.4-5.9,4.7-6,4.861-6.378C942.268,928.208,944.527,932.373,944.527,932.373Z" transform="translate(-935.896 -877.635)" fill="#ffd4b7"/>
          <path id="Path_9434" data-name="Path 9434" d="M957.346,754.517c1.95.626,2.263.485,2.263.485s9.489-17.277,10.45-18.86,20.15-19.374,20.15-19.374l-4.931-18.388S963.454,726.64,961.1,730.7c-3.9,6.7-6.176,22.265-6.176,22.265A5.73,5.73,0,0,0,957.346,754.517Z" transform="translate(-950.607 -698.38)" fill="#a8a8a8"/>
        </g>
        <path id="Path_9435" data-name="Path 9435" d="M1059.3,709.953c-.068,3.778-.288,8.022-.583,12.332l-.054.766c-.188,2.671-.395,5.349-.63,7.958q-.143,1.571-.3,3.1l-.016.136c-.009.381-.054.794-.1,1.17-.961,9.779-1.97,17.5-2.159,17.622a1.085,1.085,0,0,1-.75.19c-2.564-.322-10.214.261-16.479-1.1a47.537,47.537,0,0,1-14.66-6.079c-.639-.379-2.1-1.381-1.982-2.129.116-.823.331-2.013.605-3.507a190.016,190.016,0,0,0,3.149-24.619c.109-1.95.268-3.877.474-5.77a87.455,87.455,0,0,1,2.556-13.783c2.147-7.734,5.3-13.654,9.262-15.971.517-.29,3.3,1.481,5.857,3.122a11.285,11.285,0,0,0,7.265,1.721l2.127,2.353a23.782,23.782,0,0,1,6.07,12.649q.085.629.145,1.335A82.652,82.652,0,0,1,1059.3,709.953Z" transform="translate(-996.738 -650.939)" fill="#a8a8a8"/>
        <path id="Path_9436" data-name="Path 9436" d="M1128.11,767.507c-.068,3.777-.288,8.022-.583,12.332l-.054.766c-14.647-9.169-16.9-25.945-16.9-25.945A40.051,40.051,0,0,1,1127.913,759,83.969,83.969,0,0,1,1128.11,767.507Z" transform="translate(-1065.551 -708.493)" fill="#a8a8a8"/>
        <g id="Group_6972" data-name="Group 6972" transform="translate(43.715 37.176)">
          <path id="Path_9437" data-name="Path 9437" d="M1169.552,721.437c-.755-2.043-1.929-1.909-1.929-1.909s-21.778,5.428-23.732,5.659-23.451-8.394-23.451-8.394-8.462-3.8-12.425-.331c-3.444,3.013-3.6,6.829-2.8,10.035a9.585,9.585,0,0,0,8.1,7.14c8.77,1.118,26.269,3.22,29.936,2.709,8.162-1.136,26.659-11.813,26.659-11.813A6.871,6.871,0,0,0,1169.552,721.437Z" transform="translate(-1104.816 -715.003)" fill="#a8a8a8"/>
        </g>
      </g>
      <g id="man_2_" transform="translate(277.641)">
        <g id="Group_6974" data-name="Group 6974" transform="translate(52.821 78.067)">
          <path id="Path_9438" data-name="Path 9438" d="M2300.077,914.9s3.025,2.8,2.435,4.8-3.322,3.322-3.689,5.757-1.845,3.764-3.174,3.764h-6.333s-.977-1.714,1.383-2.231,3.252-3.378,3.1-6.036a47.485,47.485,0,0,1,.222-6.2l5.018-1.181Z" transform="translate(-2245.18 -826.189)" fill="#363636"/>
          <path id="Path_9439" data-name="Path 9439" d="M2112.527,950.293a11.623,11.623,0,0,1-2.866.331h-14.32c.048-.426.381-1.945,2.723-2.322,2.646-.431,7.228-1.968,8.251-5.351.034-.109.063-.22.088-.331.812-3.616,6.714,1.106,6.714,1.106s.018.145.043.392C2113.3,945.446,2113.646,949.736,2112.527,950.293Z" transform="translate(-2095.34 -847.599)" fill="#363636"/>
          <path id="Path_9440" data-name="Path 9440" d="M2110.44,549.259s.9,11.187,1.949,24.635c1.433,18.268,3.156,40.706,3.327,44.957.295,7.38,1.476,19.188,1.476,19.188s2.8,2.8,8.414,1.623a193.136,193.136,0,0,0,6.428-34.688c.022-.292.045-.587.066-.882,1.328-18.154,3.394-56.382,3.394-56.382Z" transform="translate(-2107.016 -543.282)" fill="#4e4e4e"/>
          <path id="Path_9441" data-name="Path 9441" d="M2110.44,549.251s.9,11.187,1.949,24.635l19.643,31.078c.023-.293.045-.587.066-.882,1.328-18.155,3.394-56.382,3.394-56.382Z" transform="translate(-2107.016 -543.274)" fill="#161616"/>
          <path id="Path_9442" data-name="Path 9442" d="M2128.5,535.485s16.162,40.515,26.789,59.554,13.949,24.353,13.949,24.353,6.088-2.435,6.641-4.095c0,0-4.063-36.758-11.18-45.716-4.022-5.063-8.745-20.256-8.965-25.571s-1.44-15.831-1.44-15.831Z" transform="translate(-2120.981 -528.18)" fill="#4d4d4d"/>
        </g>
        <g id="Group_6975" data-name="Group 6975" transform="translate(0 31.087)">
          <path id="Path_9443" data-name="Path 9443" d="M1872.866,460.226a48.634,48.634,0,0,0-5.122-.952,10.566,10.566,0,0,0-3.354,1.34c-.034.209.088.379.533.41s1.914-.159,1.821.018-4.322,1.009-4.367,1.859,2.269,2.433,4.226,2.539,5.8-2.168,6.135-2.2C1875.54,463,1872.866,460.226,1872.866,460.226Z" transform="translate(-1862.377 -427.917)" fill="#ffd4b7"/>
          <path id="Path_9444" data-name="Path 9444" d="M1898.679,354.4c-.628-2-.481-2.322-.481-2.322s17.769-9.609,19.4-10.584,19.991-20.517,19.991-20.517l18.81,5.176s-29.108,22.172-33.28,24.562c-6.892,3.945-22.857,6.178-22.857,6.178A5.807,5.807,0,0,1,1898.679,354.4Z" transform="translate(-1890.065 -320.98)" fill="#848484"/>
        </g>
        <path id="Path_9445" data-name="Path 9445" d="M2044.951,249.257s-6.594,11.6-13.039,13.117a17.587,17.587,0,0,1,1.839-6.564c-.642-.757-1.206-1.453-1.7-2.077a38.921,38.921,0,0,1-2.394-3.351l2.188-5.881,1.485-3.991a19.186,19.186,0,0,0,2.32,3.342A15.772,15.772,0,0,0,2044.951,249.257Z" transform="translate(-1991.731 -227.668)" fill="#7b7b7b"/>
        <path id="Path_9446" data-name="Path 9446" d="M2035.643,255.245a12.238,12.238,0,0,1-3.6,9.881,38.876,38.876,0,0,1-2.394-3.351l2.188-5.881A12.535,12.535,0,0,1,2035.643,255.245Z" transform="translate(-1991.724 -239.06)" fill="#ffd4b7"/>
        <path id="Path_9447" data-name="Path 9447" d="M1993.559,223.02s9.854-3.841,7.367-9.94-2.889-10.7-9.285-8.507-6.661,5.018-6.326,7.255S1990.934,223.861,1993.559,223.02Z" transform="translate(-1957.37 -199.449)" fill="#ffd4b7"/>
        <path id="Path_9448" data-name="Path 9448" d="M2084.266,333.1c-3.974,5.714-33.69,13.35-33.339,9.393a43.166,43.166,0,0,0,0-7.8q-.112-1.272-.316-2.7a62.134,62.134,0,0,0-6.548-19.615c-.3-.58-.612-1.163-.936-1.755a60.415,60.415,0,0,1-4.12-9.258c-2.059-5.949-2.889-11.643-1.85-15.363a.471.471,0,0,1,.016-.052c6.213-2.873,8.618-14.012,8.618-14.012s21.193,3.8,33.062,32.053C2078.852,303.993,2087.724,328.127,2084.266,333.1Z" transform="translate(-1997.179 -251.972)" fill="#a8a8a8"/>
        <path id="Path_9449" data-name="Path 9449" d="M2076,416.327q-.112-1.272-.315-2.7a62.136,62.136,0,0,0-6.548-19.615c.687-4.163,1.635-7.625,2.675-9.183,4.227-6.335,6.689-7.323,6.689-7.323S2084.841,404.24,2076,416.327Z" transform="translate(-2022.26 -333.605)" fill="#a1a1a1"/>
        <g id="Group_6976" data-name="Group 6976" transform="translate(8.116 25.522)">
          <path id="Path_9450" data-name="Path 9450" d="M1910.395,520.66a63.5,63.5,0,0,0-6.771.635,13.775,13.775,0,0,0-3.732,2.88c.032.274.247.444.816.324s2.347-.882,2.292-.626-5.065,2.812-4.82,3.9,3.718,2.242,6.214,1.678,6.514-4.8,6.918-4.952C1914.741,523.186,1910.395,520.66,1910.395,520.66Z" transform="translate(-1898.172 -469.821)" fill="#ffd4b7"/>
          <path id="Path_9451" data-name="Path 9451" d="M1945.074,349.5c-1.174-1.9-.328-2.764-.328-2.764s18.109-14.18,19.528-15.613,7.995-24.242,7.995-24.242,2.263-9.23,7.564-10.248c4.6-.884,7.788,1.394,9.872,4.065a9.821,9.821,0,0,1,.667,11.044c-4.623,7.791-13.951,23.258-16.676,25.9-6.063,5.881-26.347,14.1-26.347,14.1A7.006,7.006,0,0,1,1945.074,349.5Z" transform="translate(-1933.958 -296.435)" fill="#a1a1a1"/>
        </g>
        <path id="Path_9452" data-name="Path 9452" d="M1989.817,186.171c.068-.136.27-.281.76-.431a2.049,2.049,0,0,0-.993-.036,2.606,2.606,0,0,0-2.21-1.834,1.556,1.556,0,0,1,.991.911c-1.728-1.1-4.932-1.413-12.928,1.249-10.539,3.51-5.274,9.629-3.677,10.119s4.539-2.657,7.183-3.088,4.077,3.254,5.083,3.56.436-.533,1.492-1.372,1.662,1.136,1.639,2.524,2.036,2.7,2.036,2.7l1.208-2.215c1.208-2.215.879-10.255-.274-11.7C1990.021,186.432,1989.921,186.3,1989.817,186.171Z" transform="translate(-1944.846 -183.87)" fill="#242424"/>
      </g>
      <path id="Path_9453" data-name="Path 9453" d="M660.05,1525.425H196.731a.673.673,0,0,1-.611-.717v-.512a.673.673,0,0,1,.611-.717H660.05a.673.673,0,0,1,.611.717v.512A.672.672,0,0,1,660.05,1525.425Z" transform="translate(-196.12 -1219.654)" fill="#303030"/>
      <path id="Path_9454" data-name="Path 9454" d="M1229.673,1431.28v11.928l-28.233-11.928Z" transform="translate(-1073.655 -1148.45)" fill="#757575"/>
      <rect id="Rectangle_811" data-name="Rectangle 811" width="93.373" height="122.642" transform="translate(304.272 181.092)" fill="#6a6a6a"/>
      <rect id="Rectangle_812" data-name="Rectangle 812" width="93.376" height="122.642" transform="translate(275.479 181.094)" fill="#bcbcbc"/>
      <path id="Path_9455" data-name="Path 9455" d="M2293.46,982.58v18.338L2264.67,982.58Z" transform="translate(-1895.815 -801.486)" fill="#787a7e"/>
    </g>
  </g>
</svg>
