<svg xmlns="http://www.w3.org/2000/svg" width="42.027" height="42.027" viewBox="0 0 42.027 42.027">
  <g id="Time_management_" data-name="Time management " transform="translate(0.5 0.5)">
    <path id="Path_9039" data-name="Path 9039" d="M103.1,118.971a1.2,1.2,0,0,0-2.068,1.225,18.112,18.112,0,0,1-25.952,24.07h1.239a1.2,1.2,0,1,0,0-2.4H71.789a1.2,1.2,0,0,0-1.2,1.2V147.6a1.2,1.2,0,0,0,2.4,0v-1.886a20.513,20.513,0,0,0,30.112-26.74Z" transform="translate(-64.931 -108.895)" fill="#fff" stroke="#000" stroke-width="1"/>
    <path id="Path_9040" data-name="Path 9040" d="M2.4,20.513A18.115,18.115,0,0,1,30.875,5.656h-1.24a1.2,1.2,0,0,0,0,2.4h4.533a1.2,1.2,0,0,0,1.2-1.2V2.325a1.2,1.2,0,0,0-2.4,0V4.21A20.514,20.514,0,0,0,2.855,30.951a1.2,1.2,0,0,0,2.068-1.225A18.086,18.086,0,0,1,2.4,20.513Z" transform="translate(0 0)" fill="#fff" stroke="#000" stroke-width="1"/>
    <path id="Path_9041" data-name="Path 9041" d="M91,104.222A13.222,13.222,0,1,0,104.222,91,13.237,13.237,0,0,0,91,104.222Zm14.424-9.616V93.471a10.766,10.766,0,0,1,5.546,2.3l-.8.8a1.2,1.2,0,1,0,1.7,1.7l.8-.8a10.766,10.766,0,0,1,2.3,5.546h-1.135a1.2,1.2,0,0,0,0,2.4h1.135a10.766,10.766,0,0,1-2.3,5.546l-.8-.8a1.2,1.2,0,0,0-1.7,1.7l.8.8a10.766,10.766,0,0,1-5.546,2.3v-1.135a1.2,1.2,0,0,0-2.4,0v1.135a10.766,10.766,0,0,1-5.546-2.3l.8-.8a1.2,1.2,0,0,0-1.7-1.7l-.8.8a10.766,10.766,0,0,1-2.3-5.546h1.135a1.2,1.2,0,0,0,0-2.4H93.471a10.767,10.767,0,0,1,2.3-5.546l.8.8a1.2,1.2,0,0,0,1.7-1.7l-.8-.8a10.767,10.767,0,0,1,5.546-2.3v1.135a1.2,1.2,0,1,0,2.4,0Z" transform="translate(-83.708 -83.708)" fill="#fff" stroke="#000" stroke-width="1"/>
    <path id="Path_9042" data-name="Path 9042" d="M198.721,177.2v4.711l-3.331,3.331a1.2,1.2,0,1,0,1.7,1.7l3.683-3.683a1.2,1.2,0,0,0,.352-.85V177.2a1.2,1.2,0,0,0-2.4,0Z" transform="translate(-179.41 -161.897)" fill="#fff" stroke="#000" stroke-width="1"/>
  </g>
</svg>
